<?xml version="1.0" encoding="UTF-8" standalone="no"?>
<svg xmlns:xlink="http://www.w3.org/1999/xlink" height="18.8px" width="18.8px" xmlns="http://www.w3.org/2000/svg">
  <g transform="matrix(1.0, 0.0, 0.0, 1.0, 9.4, 9.4)">
    <path d="M8.15 8.15 L8.15 -5.05 -0.2 -8.15 -8.15 -5.05 -8.15 8.15 8.15 8.15 M8.55 -6.25 Q9.4 -5.9 9.4 -5.05 L9.4 8.15 Q9.4 8.65 9.05 9.05 8.65 9.4 8.15 9.4 L-8.15 9.4 Q-8.65 9.4 -9.05 9.05 -9.4 8.65 -9.4 8.15 L-9.4 -5.05 Q-9.4 -5.9 -8.6 -6.25 L-0.65 -9.3 -0.2 -9.4 0.25 -9.3 8.55 -6.25" fill="#ffffff" fill-rule="evenodd" stroke="none"/>
  </g>
</svg>
