<?xml version="1.0" encoding="UTF-8" standalone="no"?>
<svg xmlns:xlink="http://www.w3.org/1999/xlink" height="18.85px" width="18.05px" xmlns="http://www.w3.org/2000/svg">
  <g transform="matrix(1.0, 0.0, 0.0, 1.0, 9.0, 9.4)">
    <path d="M-4.8 3.05 L-4.6 2.8 -4.0 2.3 -2.25 4.8 -2.3 4.85 -2.5 4.95 -2.8 5.0 -2.95 5.0 -3.25 5.15 -5.95 8.9 Q-6.05 9.1 -6.3 9.15 L-6.5 9.3 -6.55 9.3 -6.85 9.15 -8.8 7.9 -9.0 7.6 -9.0 7.55 -8.9 7.3 -5.2 4.2 -5.05 3.95 -4.8 3.05 M0.25 -2.85 L0.5 -2.75 8.85 9.1 8.8 9.4 8.5 9.3 1.7 3.35 1.1 6.6 0.9 6.75 0.7 6.6 -7.85 -5.25 -7.85 -5.55 -7.5 -5.45 -0.65 0.7 0.1 -2.75 0.25 -2.85 M0.4 -7.0 L2.95 -6.95 0.95 -5.4 1.65 -2.95 -0.45 -4.45 -2.6 -2.95 -1.85 -5.4 -3.9 -6.95 -1.3 -7.0 -0.45 -9.4 0.4 -7.0 M8.1 -6.95 L8.25 -7.0 9.0 -6.5 9.0 -6.25 5.7 -3.6 6.2 -3.25 6.15 -3.05 6.1 -3.0 5.95 -3.05 5.9 -3.1 3.25 -0.95 2.25 -2.4 8.1 -6.95" fill="#ffffff" fill-rule="evenodd" stroke="none"/>
  </g>
</svg>
