<?xml version="1.0" encoding="UTF-8" standalone="no"?>
<svg xmlns:xlink="http://www.w3.org/1999/xlink" height="21.2px" width="20.3px" xmlns="http://www.w3.org/2000/svg">
  <g transform="matrix(1.0, 0.0, 0.0, 1.0, 10.15, 10.65)">
    <path d="M-4.0 2.25 L-4.6 2.75 -4.8 3.0 -5.05 3.9 -5.2 4.15 -8.9 7.25 -9.0 7.5 -9.0 7.55 -8.8 7.85 -6.8 9.1 -6.5 9.25 -6.45 9.25 -6.25 9.1 -5.95 8.85 -3.25 5.1 -2.95 4.95 -2.8 4.95 -2.5 4.9 -2.3 4.8 -2.25 4.75 -4.0 2.25 M0.4 -2.8 L0.15 -2.9 0.0 -2.8 -0.7 0.65 -7.5 -5.5 -7.75 -5.6 -7.85 -5.6 -7.85 -5.3 0.6 6.55 0.8 6.7 1.0 6.55 1.65 3.3 8.4 9.25 8.65 9.4 8.7 9.35 Q8.9 9.25 8.75 9.05 L0.4 -2.8 M2.85 -7.0 L0.35 -7.05 -0.5 -9.45 -1.25 -7.05 -3.85 -7.0 -1.85 -5.45 -2.6 -3.0 -0.5 -4.5 1.55 -3.0 0.85 -5.45 2.85 -7.0 M8.9 -6.55 L8.15 -7.05 8.0 -7.0 2.15 -2.45 3.2 -1.0 5.8 -3.15 5.85 -3.1 6.0 -3.05 6.05 -3.1 6.1 -3.3 5.6 -3.65 8.9 -6.3 8.9 -6.55 M8.15 -8.2 Q8.65 -8.2 9.4 -7.6 L9.7 -7.35 10.15 -6.4 Q10.1 -5.8 9.6 -5.4 L7.25 -3.5 7.3 -3.2 Q7.3 -2.55 6.75 -2.2 L6.15 -2.0 3.7 0.0 9.7 8.45 Q10.1 8.95 9.9 9.5 L9.3 10.35 8.65 10.55 Q8.05 10.55 7.6 10.1 L2.35 5.4 2.05 6.8 1.6 7.6 0.8 7.9 0.75 7.9 Q0.05 7.85 -0.35 7.25 L-1.5 5.5 -1.95 5.75 -2.55 5.95 -5.0 9.5 Q-5.4 10.0 -5.8 10.2 L-6.0 10.3 -6.1 10.3 -6.5 10.4 -7.4 10.15 -9.4 8.8 -10.05 7.9 -10.1 7.85 Q-10.35 6.9 -9.65 6.3 L-6.1 3.4 -5.9 2.7 -5.3 1.85 -4.7 1.3 -4.55 1.2 -8.75 -4.65 Q-9.1 -5.15 -8.95 -5.75 -8.8 -6.3 -8.45 -6.55 L-7.75 -6.75 Q-7.2 -6.75 -6.65 -6.35 L-3.6 -3.55 -3.15 -5.0 -4.55 -6.1 Q-5.2 -6.55 -4.95 -7.35 -4.75 -8.15 -3.9 -8.15 L-2.1 -8.2 -1.55 -9.9 Q-1.2 -10.65 -0.5 -10.65 0.3 -10.65 0.6 -9.9 L1.1 -8.2 2.9 -8.15 Q3.7 -8.15 3.95 -7.35 4.2 -6.55 3.55 -6.1 L2.15 -5.0 2.45 -4.1 7.3 -7.9 8.15 -8.2" fill="#ffffff" fill-rule="evenodd" stroke="none"/>
  </g>
</svg>
