<?xml version="1.0" encoding="UTF-8" standalone="no"?>
<svg xmlns:xlink="http://www.w3.org/1999/xlink" height="22.2px" width="22.2px" xmlns="http://www.w3.org/2000/svg">
  <g transform="matrix(1.0, 0.0, 0.0, 1.0, 11.1, 11.05)">
    <path d="M-9.65 -1.9 L-9.7 -1.9 -9.9 0.05 Q-9.9 2.15 -9.05 4.1 -8.2 5.9 -6.7 7.3 L-4.85 1.65 -9.65 -1.9 M-5.9 -7.95 Q-7.95 -6.4 -9.05 -4.05 L-3.0 -4.05 -1.15 -9.75 -1.1 -9.8 Q-3.75 -9.5 -5.9 -7.95 M0.0 9.95 Q2.5 9.95 4.85 8.65 L0.0 5.15 -4.85 8.65 Q-2.5 9.95 0.0 9.95 M9.05 4.1 Q9.9 2.15 9.9 0.05 L9.7 -1.9 4.85 1.65 6.7 7.3 Q8.2 5.9 9.05 4.1 M0.0 -11.05 Q3.85 -11.05 6.85 -8.65 9.85 -6.35 10.75 -2.65 L11.1 0.05 Q11.1 2.65 9.95 4.95 8.8 7.2 6.85 8.75 L5.9 9.4 Q3.2 11.15 0.0 11.15 -3.2 11.15 -5.9 9.4 L-7.1 8.55 Q-8.95 7.0 -10.0 4.8 -11.1 2.55 -11.1 0.05 L-10.75 -2.65 -10.3 -4.05 Q-9.1 -7.15 -6.3 -9.1 -3.45 -11.05 0.0 -11.05 M8.95 -2.85 L2.15 -2.85 0.0 -9.35 -2.15 -2.85 -8.95 -2.85 -3.4 1.15 -5.55 7.7 0.0 3.65 5.55 7.7 3.4 1.15 8.95 -2.85 M1.15 -9.75 L3.0 -4.05 9.05 -4.05 Q7.95 -6.4 5.9 -7.95 3.75 -9.5 1.1 -9.8 L1.15 -9.75" fill="#ffffff" fill-rule="evenodd" stroke="none"/>
  </g>
</svg>
