<?xml version="1.0" encoding="UTF-8" standalone="no"?>
<svg xmlns:xlink="http://www.w3.org/1999/xlink" height="16.15px" width="22.35px" xmlns="http://www.w3.org/2000/svg">
  <g transform="matrix(1.0, 0.0, 0.0, 1.0, 11.15, 8.05)">
    <path d="M-7.95 2.7 Q-8.9 1.5 -8.9 0.0 -8.9 -1.45 -7.95 -2.65 L-7.95 2.7 M-6.3 1.5 L-5.6 3.1 -4.7 1.4 -4.7 5.1 -6.3 4.25 -6.3 1.5 M-2.45 -5.8 L-2.45 -4.1 -0.75 -4.1 -0.75 6.05 -2.9 5.75 -2.9 -5.7 -2.45 -5.8 M-4.65 -5.1 L-5.6 -1.6 -6.6 -4.0 -4.65 -5.1 M6.45 1.15 L6.45 4.2 4.75 5.1 4.75 1.15 6.45 1.15 M8.95 0.0 Q8.95 1.45 8.0 2.7 L8.0 -2.65 Q8.95 -1.4 8.95 0.0 M7.05 -4.8 Q4.15 -6.85 0.0 -6.85 -4.1 -6.85 -7.0 -4.8 -9.95 -2.85 -9.95 0.0 -9.95 2.9 -7.0 4.85 -4.1 6.85 0.0 6.85 4.15 6.85 7.05 4.85 9.95 2.9 9.95 0.0 9.95 -2.85 7.05 -4.8 M0.0 -8.05 Q4.65 -8.05 7.95 -5.65 11.2 -3.3 11.2 0.0 11.2 3.35 7.95 5.75 4.65 8.1 0.0 8.1 -4.6 8.1 -7.85 5.75 -11.15 3.35 -11.15 0.0 -11.15 -3.3 -7.85 -5.65 -4.6 -8.05 0.0 -8.05 M4.75 -0.35 L4.75 -3.85 6.45 -2.65 6.45 -0.35 4.75 -0.35 M2.8 -5.75 L3.25 -5.6 3.25 5.65 1.05 6.05 1.05 -4.1 2.8 -4.1 2.8 -5.75" fill="#ffffff" fill-rule="evenodd" stroke="none"/>
  </g>
</svg>
