<?xml version="1.0" encoding="UTF-8" standalone="no"?>
<svg xmlns:xlink="http://www.w3.org/1999/xlink" height="15.65px" width="22.0px" xmlns="http://www.w3.org/2000/svg">
  <g transform="matrix(1.0, 0.0, 0.0, 1.0, 11.0, 7.8)">
    <path d="M6.95 -6.3 L6.8 -6.65 3.7 -6.65 0.0 -1.55 -3.7 -6.65 -6.85 -6.65 -6.95 -6.3 -5.5 -5.0 -9.5 5.05 -6.0 6.4 -3.3 -0.4 0.0 4.45 3.3 -0.4 5.95 6.4 9.5 5.05 5.5 -5.0 6.95 -6.3 M7.65 -7.8 L8.25 -5.9 6.85 -4.65 11.0 5.7 5.3 7.85 3.0 2.05 0.0 6.45 -3.0 2.05 -5.35 7.85 -11.0 5.7 -6.9 -4.65 -8.3 -5.9 -7.7 -7.8 -3.15 -7.8 0.0 -3.5 3.1 -7.8 7.65 -7.8" fill="#ffffff" fill-rule="evenodd" stroke="none"/>
  </g>
</svg>
