<?xml version="1.0" encoding="UTF-8" standalone="no"?>
<svg xmlns:xlink="http://www.w3.org/1999/xlink" height="16.35px" width="21.3px" xmlns="http://www.w3.org/2000/svg">
  <g transform="matrix(1.0, 0.0, 0.0, 1.0, 10.7, 10.95)">
    <path d="M0.95 -2.1 L0.95 0.7 -7.65 0.7 -7.65 -2.1 0.95 -2.1 M9.45 -2.9 L9.45 -4.25 -9.55 -4.25 -9.55 -2.9 -8.75 -2.9 -8.75 4.25 -2.2 4.25 -2.2 2.55 2.05 2.55 2.05 4.25 8.65 4.25 8.65 -2.9 9.45 -2.9 M3.3 -2.1 L7.5 -2.1 7.5 0.7 3.3 0.7 3.3 -2.1 M10.6 -1.85 L9.8 -1.85 9.8 5.4 -9.9 5.4 -9.9 -1.85 -10.7 -1.85 -10.7 -5.4 10.6 -5.4 10.6 -1.85" fill="#ffffff" fill-rule="evenodd" stroke="none"/>
    <path d="M6.9 -10.2 L6.1 -10.2 6.1 -10.95 7.2 -10.95 7.2 -4.25 6.1 -4.25 6.1 -7.35 6.9 -7.35 6.9 -8.5 6.1 -8.5 6.1 -9.05 6.9 -9.05 6.9 -10.2" fill="#ffffff" fill-rule="evenodd" stroke="none"/>
  </g>
</svg>
