<?xml version="1.0" encoding="UTF-8" standalone="no"?>
<svg xmlns:xlink="http://www.w3.org/1999/xlink" height="21.35px" width="21.2px" xmlns="http://www.w3.org/2000/svg">
  <g transform="matrix(1.0, 0.0, 0.0, 1.0, 10.55, 10.7)">
    <path d="M0.2 6.95 L0.45 9.45 -0.55 9.45 -0.75 6.95 -0.55 4.55 0.45 4.55 0.2 6.95 M6.7 -6.7 Q4.0 -9.5 0.15 -9.5 -3.55 -9.5 -6.25 -7.05 -8.9 -4.65 -9.3 -1.1 L-6.9 -1.35 -4.45 -1.1 -4.45 -0.1 -6.9 -0.35 -9.35 -0.1 -9.35 -1.0 -9.4 -0.05 Q-9.4 3.95 -6.6 6.75 -3.85 9.5 0.15 9.5 4.0 9.5 6.7 6.75 9.45 3.95 9.45 -0.05 9.45 -3.9 6.7 -6.7 M0.15 -10.7 Q4.45 -10.7 7.5 -7.55 10.65 -4.45 10.65 -0.05 10.65 4.4 7.5 7.6 4.45 10.65 0.15 10.65 -4.25 10.65 -7.35 7.7 -10.4 4.6 -10.55 0.25 L-10.5 -1.1 -10.45 -1.25 Q-10.0 -5.25 -7.0 -7.95 -3.95 -10.7 0.15 -10.7 M6.85 -0.5 L9.35 -0.7 9.35 0.3 6.85 0.5 4.55 0.3 4.55 -0.7 6.85 -0.5 M2.15 -2.0 Q1.3 -2.8 0.1 -2.8 -1.15 -2.8 -2.0 -2.0 -2.8 -1.15 -2.8 0.0 -2.8 1.2 -2.0 2.1 -1.15 2.95 0.1 2.95 1.3 2.95 2.15 2.1 2.9 1.2 2.9 0.0 2.9 -1.15 2.15 -2.0 M0.1 -3.95 Q1.75 -3.95 2.9 -2.75 4.05 -1.65 4.05 0.0 4.05 1.75 2.9 2.9 1.75 4.1 0.1 4.1 -1.6 4.1 -2.8 2.9 -3.95 1.75 -3.95 0.0 -3.95 -1.65 -2.8 -2.75 -1.6 -3.95 0.1 -3.95 M0.85 -9.2 L1.05 -6.75 0.85 -4.3 -0.15 -4.3 0.05 -6.75 -0.15 -9.2 0.85 -9.2" fill="#ffffff" fill-rule="evenodd" stroke="none"/>
  </g>
</svg>
