<?xml version="1.0" encoding="UTF-8" standalone="no"?>
<svg xmlns:xlink="http://www.w3.org/1999/xlink" height="21.35px" width="21.3px" xmlns="http://www.w3.org/2000/svg">
  <g transform="matrix(1.0, 0.0, 0.0, 1.0, 10.4, 10.45)">
    <path d="M3.55 7.4 L3.45 7.65 2.95 8.1 2.15 7.4 1.2 6.55 Q0.65 6.15 0.05 6.15 -1.35 6.15 -2.15 7.4 L-2.25 7.65 -2.8 8.1 -3.55 7.4 -4.5 6.55 -5.65 6.15 Q-7.05 6.15 -7.85 7.4 L-7.95 7.65 Q-8.25 8.1 -8.5 8.1 L-9.2 8.1 -9.2 9.7 -8.5 9.7 Q-7.2 9.7 -6.4 8.4 L-6.35 8.25 Q-6.1 7.7 -5.7 7.7 L-4.9 8.45 -3.95 9.3 Q-3.4 9.7 -2.8 9.7 -1.5 9.7 -0.7 8.4 L-0.65 8.25 Q-0.4 7.7 0.0 7.7 L0.8 8.45 1.75 9.3 Q2.3 9.7 2.9 9.7 4.2 9.7 5.0 8.4 L5.05 8.25 5.25 8.0 Q5.5 7.7 5.7 7.7 L6.5 8.45 7.45 9.3 Q8.05 9.7 8.6 9.7 L9.3 9.7 9.3 8.1 8.65 8.1 7.85 7.4 6.9 6.55 Q6.35 6.15 5.75 6.15 4.35 6.15 3.55 7.4 M6.9 2.9 Q6.35 2.5 5.75 2.5 4.35 2.5 3.55 3.75 L3.45 4.0 2.95 4.45 Q2.65 4.35 2.15 3.75 L1.2 2.9 Q0.65 2.5 0.05 2.5 -1.35 2.5 -2.15 3.75 L-2.25 3.95 -2.8 4.45 -3.55 3.75 -4.5 2.9 -5.65 2.5 Q-7.05 2.5 -7.85 3.75 L-7.95 4.0 Q-8.25 4.45 -8.5 4.45 L-9.2 4.45 -9.2 6.05 -8.5 6.05 Q-7.2 6.05 -6.4 4.75 L-6.35 4.6 Q-6.1 4.1 -5.7 4.05 L-4.9 4.8 -3.95 5.65 Q-3.4 6.05 -2.8 6.05 -1.5 6.05 -0.7 4.75 L-0.65 4.6 Q-0.4 4.1 0.0 4.05 L0.8 4.8 1.75 5.65 Q2.3 6.05 2.9 6.05 4.2 6.05 5.0 4.75 L5.05 4.6 5.25 4.35 5.7 4.05 6.5 4.8 Q7.7 6.05 8.6 6.05 L9.3 6.05 9.3 4.45 8.65 4.45 7.85 3.75 6.9 2.9 M6.45 -5.25 Q5.75 -5.25 4.95 -3.25 3.25 -9.25 2.3 -9.25 0.85 -9.25 -1.05 -1.8 -1.7 -2.95 -2.1 -2.95 -3.3 -2.95 -4.75 1.25 L-3.55 2.3 -2.8 3.0 -2.25 2.5 -2.15 2.3 Q-1.35 1.05 0.05 1.05 0.65 1.05 1.2 1.4 L2.15 2.3 2.95 3.0 3.45 2.5 3.55 2.3 Q4.35 1.05 5.75 1.05 6.35 1.05 6.9 1.4 L7.85 2.3 8.65 3.0 9.65 3.05 Q7.55 -5.25 6.45 -5.25 M7.95 -5.55 L9.3 -2.5 10.85 2.95 Q11.05 3.7 10.45 4.2 L10.5 4.45 10.5 9.7 Q10.5 10.2 10.1 10.55 9.8 10.9 9.3 10.9 L8.6 10.9 Q7.25 10.9 5.75 9.35 4.65 10.9 2.9 10.9 1.55 10.9 0.05 9.35 -1.05 10.9 -2.8 10.9 -4.2 10.9 -5.65 9.35 -6.75 10.9 -8.5 10.9 L-9.2 10.9 -10.05 10.55 -10.4 9.7 -10.4 4.45 Q-10.4 3.95 -10.05 3.6 -9.7 3.25 -9.2 3.25 L-8.95 3.25 -8.8 3.05 Q-7.75 1.45 -5.95 1.3 L-5.9 0.85 Q-4.95 -1.8 -4.05 -2.95 -3.15 -4.15 -2.1 -4.15 L-1.7 -4.05 Q-0.6 -7.75 0.35 -9.2 1.2 -10.45 2.3 -10.45 3.15 -10.45 3.75 -9.6 4.5 -8.6 5.35 -6.05 5.9 -6.45 6.45 -6.45 7.3 -6.45 7.95 -5.55" fill="#ffffff" fill-rule="evenodd" stroke="none"/>
  </g>
</svg>
