<?xml version="1.0" encoding="UTF-8" standalone="no"?>
<svg xmlns:xlink="http://www.w3.org/1999/xlink" height="21.4px" width="22.2px" xmlns="http://www.w3.org/2000/svg">
  <g transform="matrix(1.0, 0.0, 0.0, 1.0, 11.1, 10.7)">
    <path d="M2.75 -7.55 Q2.45 -8.85 1.5 -9.35 L0.75 -9.5 -0.5 -9.1 -1.7 -8.6 -1.9 -8.6 -2.85 -8.65 -3.8 -8.8 -4.85 -8.5 Q-5.6 -7.9 -5.5 -7.0 -5.4 -6.05 -4.25 -4.9 -3.05 -3.8 -1.8 -1.6 -3.2 -2.0 -4.75 -3.85 -5.8 -5.15 -7.3 -5.15 L-8.45 -4.85 Q-9.15 -4.45 -9.3 -3.2 L-9.4 -1.25 -9.75 0.4 Q-10.0 1.35 -9.85 1.85 L-9.3 2.9 Q-8.8 3.5 -8.05 3.5 -7.15 3.5 -5.95 2.4 -4.1 0.7 -2.65 0.7 L-1.85 0.85 Q-4.3 2.45 -5.65 4.0 -6.5 4.95 -7.25 6.95 L-7.85 8.75 -6.0 9.5 Q-6.05 6.6 -3.85 3.7 -2.75 2.2 -1.65 1.35 -1.25 1.75 -2.0 3.1 -2.8 4.65 -2.95 6.2 -3.2 8.3 -1.8 9.05 L-1.15 9.2 0.4 8.65 2.0 7.85 2.7 7.75 3.35 7.85 3.95 7.9 5.35 7.4 Q6.45 6.7 5.9 5.5 5.45 4.55 4.35 3.7 1.1 1.2 1.4 0.95 L1.45 0.95 3.5 1.6 Q5.45 2.3 7.05 2.3 L7.75 2.3 Q9.15 2.15 9.7 1.3 10.2 0.45 9.55 -0.5 L8.8 -1.9 8.65 -4.0 Q8.65 -5.75 7.3 -5.75 6.35 -5.75 5.05 -5.0 4.0 -4.4 2.65 -2.8 L1.4 -1.4 1.3 -1.4 Q1.25 -1.55 1.75 -2.75 L2.65 -5.1 Q3.05 -6.4 2.75 -7.55 M7.3 -6.95 Q8.35 -6.95 9.05 -6.3 9.85 -5.5 9.85 -4.05 L10.0 -2.25 10.55 -1.15 Q11.5 0.2 10.85 1.6 10.1 3.25 7.85 3.5 L5.8 3.4 Q7.3 4.9 7.25 6.35 7.2 7.65 5.95 8.45 L3.95 9.1 3.1 8.95 2.4 8.95 1.35 9.5 Q-0.2 10.4 -1.15 10.4 L-2.35 10.1 Q-4.25 9.1 -4.15 6.6 -4.8 8.05 -4.8 9.5 -4.8 10.15 -5.35 10.55 L-6.0 10.7 -6.5 10.6 -8.3 9.8 -8.9 9.25 -9.0 8.4 -7.55 4.6 -8.05 4.7 Q-9.2 4.7 -10.0 3.85 -10.7 3.2 -11.0 2.2 -11.25 1.35 -10.8 -0.45 L-10.55 -1.4 -10.55 -2.2 -10.3 -4.15 Q-10.0 -5.35 -9.0 -5.9 L-7.3 -6.35 -6.55 -6.25 Q-6.8 -6.85 -6.7 -7.4 -6.65 -8.65 -5.6 -9.45 -4.8 -10.0 -3.8 -10.0 L-2.65 -9.85 -1.9 -9.8 -1.8 -9.8 -1.15 -10.1 Q-0.05 -10.7 0.75 -10.7 L2.05 -10.4 Q3.2 -9.8 3.75 -8.45 4.2 -7.25 4.0 -5.75 L4.45 -6.05 Q6.05 -6.95 7.3 -6.95" fill="#ffffff" fill-rule="evenodd" stroke="none"/>
  </g>
</svg>
