<?xml version="1.0" encoding="UTF-8" standalone="no"?>
<svg xmlns:xlink="http://www.w3.org/1999/xlink" height="22.2px" width="22.2px" xmlns="http://www.w3.org/2000/svg">
  <g transform="matrix(1.0, 0.0, 0.0, 1.0, 11.1, 11.1)">
    <path d="M-2.55 -3.45 L-2.75 -3.5 -2.5 -3.45 -2.55 -3.45 M-2.45 -4.85 L-2.4 -4.85 -1.85 -4.65 -1.6 -4.7 -1.15 -4.6 -1.15 -5.2 -3.2 -5.2 -2.95 -5.05 -2.8 -4.9 -2.75 -4.9 -2.45 -4.85 M-5.5 -5.6 L-5.8 -5.8 -0.15 -5.8 Q-0.5 -5.6 -0.5 -5.05 L-0.55 -5.05 -0.6 -4.75 -0.4 -4.55 -0.25 -4.3 -0.25 -4.15 -0.5 -3.85 -0.75 -3.8 -1.2 -3.95 -1.6 -4.1 -1.95 -4.0 -2.6 -4.25 -2.8 -4.3 -2.95 -4.3 -3.3 -4.55 -3.7 -4.75 -3.8 -4.85 -4.6 -5.0 -4.85 -5.1 -4.95 -5.15 -5.15 -5.2 -5.5 -5.6 M0.0 -11.1 Q4.6 -11.1 7.85 -7.85 11.1 -4.6 11.1 0.0 11.1 4.6 7.85 7.85 4.6 11.1 0.0 11.1 -4.6 11.1 -7.85 7.85 -11.1 4.6 -11.1 0.0 -11.1 -4.6 -7.85 -7.85 -4.6 -11.1 0.0 -11.1 M2.0 -1.25 L1.9 -1.1 1.85 -0.25 1.75 -0.05 1.85 0.35 1.85 0.4 2.45 1.75 2.8 2.85 2.85 2.9 2.9 3.1 2.9 3.2 3.25 3.6 3.95 5.4 4.3 6.1 4.4 6.15 4.55 6.15 5.0 5.95 5.2 5.9 5.25 5.9 5.3 5.85 Q5.6 5.85 5.8 6.15 L5.9 6.25 Q6.1 6.6 5.85 6.95 L5.7 7.15 5.5 7.35 4.85 7.7 4.4 7.75 4.35 7.75 4.2 7.95 3.7 8.2 3.45 8.15 3.25 8.05 Q2.9 7.85 2.95 7.4 L3.05 7.15 2.9 6.9 2.9 6.85 2.85 6.85 2.3 6.15 2.1 5.9 1.6 5.3 1.5 6.55 1.45 7.1 2.2 7.3 2.65 7.75 2.65 8.0 2.4 8.5 1.95 8.9 0.2 9.05 -1.55 8.9 -1.9 8.65 -2.0 8.25 Q-1.95 7.7 -1.4 7.7 L-1.35 7.7 -1.3 7.6 -1.6 6.85 -1.75 6.45 -1.8 5.0 -1.7 4.7 -1.7 4.65 -1.85 4.9 -1.9 5.1 -2.1 5.5 -2.15 5.55 -2.85 6.65 -2.85 6.7 -2.95 7.15 -3.0 7.25 -3.05 7.55 -3.2 7.85 -3.25 7.85 -3.55 8.0 -3.7 8.0 -4.3 7.8 -4.35 7.8 -4.75 7.55 -5.0 7.3 -5.15 6.95 -5.15 6.85 -4.85 6.3 -4.55 6.2 -4.45 6.15 -4.45 6.0 -4.3 5.3 -4.0 4.5 -3.4 3.6 -3.1 3.25 -3.1 3.2 -3.05 3.1 -2.8 2.75 -2.75 2.7 -2.75 2.65 -2.5 1.85 -2.4 1.65 -2.4 1.55 -2.35 1.4 -2.15 0.95 -2.1 0.85 -1.85 0.5 -1.8 0.4 -1.65 -0.25 -1.55 -0.9 -1.65 -1.4 -1.7 -1.45 -1.75 -1.6 -1.75 -1.85 -1.9 -2.05 -2.35 -2.05 -3.25 -2.15 -3.5 -2.05 -3.55 -2.05 -3.7 -2.1 -3.8 -2.05 -4.1 -2.05 -4.6 -2.15 -4.7 -2.15 -4.75 -2.2 -4.9 -2.2 -5.0 -2.25 -5.3 -2.25 -5.4 -2.3 -5.65 -2.25 -5.75 -2.25 -6.05 -2.35 -6.2 -2.35 -6.2 7.7 Q-3.45 9.9 0.0 9.9 3.8 9.9 6.7 7.25 L6.65 -2.25 6.35 -2.25 6.0 -2.15 5.8 -2.15 5.45 -2.25 5.0 -2.2 4.55 -2.05 4.45 -2.05 Q4.3 -2.05 4.0 -2.2 L3.8 -2.15 3.5 -2.2 2.2 -2.1 2.0 -1.25 M3.75 -4.4 L3.7 -4.4 3.6 -4.3 3.55 -4.3 3.5 -4.25 2.1 -4.0 1.7 -4.1 Q1.25 -4.1 0.9 -3.7 L0.65 -4.15 0.8 -4.25 0.85 -4.55 0.95 -4.6 1.0 -5.0 0.95 -5.0 0.75 -5.65 0.55 -5.8 6.25 -5.8 5.9 -5.6 5.7 -5.4 5.6 -5.45 5.5 -5.35 5.65 -5.15 5.6 -5.15 5.55 -5.25 5.5 -5.2 Q5.35 -5.05 4.6 -4.85 3.85 -4.7 3.85 -4.45 L3.95 -4.35 3.85 -4.3 3.75 -4.4 M3.7 -3.85 L3.75 -3.85 4.0 -4.1 4.1 -4.1 4.1 -3.95 4.25 -3.95 4.55 -4.0 4.8 -4.25 5.85 -4.85 5.95 -4.7 6.1 -4.75 6.05 -4.85 6.95 -5.15 6.95 -5.25 6.45 -5.15 6.45 -5.2 6.95 -5.35 5.95 -6.45 -5.5 -6.45 -6.4 -5.5 -6.35 -5.5 -6.25 -5.45 -6.1 -5.35 -6.45 -5.45 -6.55 -5.3 -6.35 -5.3 -6.25 -5.2 -6.45 -5.2 -6.2 -5.05 -6.1 -5.0 -5.95 -5.0 -5.9 -4.9 -5.8 -4.9 -5.6 -4.8 -5.45 -4.75 -5.35 -4.75 -4.85 -4.45 -3.95 -3.95 -3.7 -3.95 -3.55 -3.85 -3.2 -3.7 -2.8 -3.5 -3.3 -3.4 -3.4 -3.4 -3.7 -3.5 -3.85 -3.5 -3.95 -3.4 -4.6 -3.45 -4.95 -3.4 -5.15 -3.4 -5.3 -3.45 -5.4 -3.4 -5.8 -3.65 -5.9 -3.65 -6.2 -3.75 -6.5 -3.7 -6.65 -3.7 -6.5 -3.55 -6.35 -3.55 -6.25 -3.55 -6.4 -3.5 -6.8 -3.5 -6.8 -5.0 -7.45 -3.85 -7.45 6.5 -6.8 7.15 -6.8 -3.1 -6.5 -3.1 -6.7 -3.05 -6.55 -2.95 -5.95 -2.95 -5.75 -2.85 -5.65 -2.85 Q-5.5 -2.85 -5.45 -2.95 L-5.35 -2.9 -5.2 -2.85 -4.95 -2.85 -4.55 -2.75 -4.1 -2.65 -3.7 -2.7 -3.55 -2.65 -3.5 -2.65 -3.35 -2.75 -3.3 -2.75 -2.9 -2.7 -2.8 -2.7 -2.6 -2.75 -2.3 -2.65 -1.6 -2.65 -1.4 -2.5 -1.4 -2.3 -1.2 -2.05 -1.1 -1.55 -0.85 -0.95 -1.0 -0.2 -1.15 0.2 -1.25 0.6 -1.6 1.2 -1.75 1.55 -1.95 2.1 -2.15 2.65 -2.15 2.8 -2.2 2.9 -2.25 3.1 -2.5 3.4 -2.55 3.5 -2.8 3.8 -3.5 4.7 -3.95 6.4 -4.1 6.7 -4.25 6.8 -4.35 6.8 -4.55 6.85 -4.55 6.95 -4.1 7.25 -3.7 7.4 -3.65 7.4 -3.6 7.3 -3.55 6.9 -3.4 6.55 -3.05 5.8 -2.65 5.2 -2.5 4.9 -2.4 4.65 -2.15 4.25 -1.9 3.95 -1.7 3.7 -1.55 3.55 -1.55 3.5 -1.3 3.25 -1.2 2.95 -1.05 3.55 -1.0 3.8 -1.1 4.45 -1.1 4.75 -1.25 5.15 Q-1.4 5.75 -1.2 6.25 L-1.05 6.7 -0.8 7.25 -0.7 7.45 -0.7 7.8 -0.8 7.9 -0.7 8.2 -0.75 8.25 -0.7 8.3 -0.45 8.4 0.2 8.45 Q0.8 8.45 0.35 8.3 L0.3 8.1 0.15 8.0 0.1 7.9 -0.05 7.75 -0.05 7.55 -0.2 7.25 -0.25 6.9 -0.3 6.5 -0.3 6.4 -0.35 6.25 -0.25 6.0 -0.4 5.15 -0.35 4.9 -0.35 4.7 -0.25 4.6 -0.25 4.3 -0.15 4.15 -0.1 4.0 -0.1 3.35 0.0 2.75 0.1 2.45 0.2 3.05 0.25 4.1 0.25 4.15 0.3 4.15 0.35 4.4 0.5 4.65 0.45 5.05 0.3 5.15 Q0.0 5.4 0.35 6.65 L0.35 6.7 0.45 7.25 0.45 7.3 0.5 7.25 0.5 7.35 0.45 7.4 0.5 7.9 0.4 8.2 0.4 8.3 0.55 8.3 0.85 8.15 1.25 8.25 1.65 8.2 2.05 8.05 2.05 7.85 1.1 7.6 0.9 7.3 0.85 7.3 0.8 7.2 0.85 7.2 0.85 7.15 1.1 4.75 1.15 4.65 1.1 4.7 1.15 4.4 1.0 4.1 1.0 3.85 1.1 3.9 1.1 3.95 1.15 3.85 1.2 3.2 1.65 4.15 1.7 4.15 1.75 4.0 1.8 4.05 2.05 4.3 2.2 4.6 2.1 4.75 Q2.05 5.05 2.5 5.5 L2.75 5.75 3.35 6.55 3.4 6.55 3.4 6.5 3.5 6.65 3.45 6.7 3.65 7.05 3.55 7.5 3.7 7.6 3.95 7.3 4.25 7.15 4.6 7.15 5.2 6.8 5.35 6.6 5.3 6.45 5.25 6.5 4.75 6.75 4.15 6.75 3.8 6.5 3.7 6.55 3.7 6.5 3.8 6.45 3.4 5.65 2.95 4.5 2.65 3.8 2.5 3.8 2.3 3.55 2.2 3.3 2.3 3.1 1.9 1.9 1.5 1.0 1.3 0.7 1.3 0.65 1.25 0.7 1.25 0.35 1.1 0.1 1.1 -0.35 1.25 -0.35 1.35 -1.3 1.45 -1.55 1.65 -2.6 1.7 -2.6 1.9 -2.7 3.65 -2.8 3.8 -2.75 4.0 -2.9 4.1 -2.9 4.05 -2.85 4.05 -2.8 4.1 -2.8 4.2 -2.75 Q4.35 -2.65 4.45 -2.65 L4.95 -2.8 5.8 -2.9 5.8 -2.75 6.0 -2.75 6.0 -2.85 7.0 -2.8 7.05 -2.95 6.55 -3.05 7.25 -3.05 7.3 6.65 7.9 5.9 7.9 -3.8 7.25 -4.95 7.25 -3.35 7.05 -3.4 7.05 -3.5 6.6 -3.7 5.95 -3.5 5.95 -3.55 5.8 -3.55 5.8 -3.25 5.75 -3.25 5.75 -3.35 4.7 -3.4 4.05 -3.35 4.0 -3.3 4.1 -3.2 4.0 -3.2 3.95 -3.25 3.8 -3.25 2.3 -3.35 3.7 -3.85 M3.2 -4.8 L3.35 -4.9 3.4 -4.9 3.75 -5.2 1.55 -5.2 1.6 -5.1 1.55 -4.7 1.7 -4.7 2.15 -4.6 3.2 -4.8 M5.95 -7.05 L6.35 -6.85 7.45 -5.7 7.55 -5.45 7.75 -5.3 8.45 -4.05 8.5 -3.8 8.5 5.0 Q9.9 2.65 9.9 0.0 9.9 -4.1 7.0 -7.0 4.1 -9.9 0.0 -9.9 -4.1 -9.9 -7.0 -7.0 -9.9 -4.1 -9.9 0.0 -9.9 3.1 -8.05 5.75 L-8.05 -3.85 -8.0 -4.15 -7.3 -5.3 -7.0 -5.7 -7.0 -5.75 -6.85 -5.9 -5.9 -6.85 -5.5 -7.05 5.95 -7.05" fill="#ffffff" fill-rule="evenodd" stroke="none"/>
  </g>
</svg>
