<?xml version="1.0" encoding="UTF-8" standalone="no"?>
<svg xmlns:xlink="http://www.w3.org/1999/xlink" height="22.2px" width="21.7px" xmlns="http://www.w3.org/2000/svg">
  <g transform="matrix(1.0, 0.0, 0.0, 1.0, 10.85, 11.1)">
    <path d="M5.6 -11.1 L6.3 -10.9 7.0 -11.1 9.65 -11.1 Q10.15 -11.1 10.5 -10.75 L10.85 -9.9 10.85 9.9 10.5 10.75 Q10.15 11.1 9.65 11.1 L-9.65 11.1 Q-10.1 11.1 -10.45 10.75 -10.85 10.4 -10.85 9.9 L-10.85 1.7 Q-10.85 1.1 -10.35 0.75 L-6.05 -2.5 -5.35 -2.75 -4.8 -2.65 Q-4.15 -2.35 -4.15 -1.55 L-4.15 -0.8 -1.85 -2.5 -1.1 -2.75 -0.55 -2.65 Q0.1 -2.35 0.1 -1.55 L0.1 -0.8 1.8 -2.05 1.8 -9.9 Q1.8 -10.4 2.15 -10.75 2.5 -11.1 3.0 -11.1 L5.6 -11.1 M9.65 -9.9 L7.0 -9.9 7.0 0.8 5.6 0.8 5.6 -9.9 3.0 -9.9 3.0 -1.45 -1.1 1.65 -1.1 -1.55 -5.35 1.65 -5.35 -1.55 -9.65 1.7 -9.65 9.9 9.65 9.9 9.65 -9.9" fill="#ffffff" fill-rule="evenodd" stroke="none"/>
  </g>
</svg>
