<?xml version="1.0" encoding="UTF-8" standalone="no"?>
<svg xmlns:xlink="http://www.w3.org/1999/xlink" height="22.2px" width="19.9px" xmlns="http://www.w3.org/2000/svg">
  <g transform="matrix(1.0, 0.0, 0.0, 1.0, 9.95, 11.1)">
    <path d="M-0.8 7.4 L-5.35 7.4 -5.35 1.5 Q-3.55 3.65 -0.8 3.95 L-0.8 7.4 M-2.0 4.95 L-4.15 4.1 -4.15 6.2 -2.0 6.2 -2.0 4.95 M0.8 3.95 Q3.55 3.65 5.35 1.5 L5.35 7.4 0.8 7.4 0.8 3.95 M4.15 4.1 L2.0 4.95 2.0 6.2 4.15 6.2 4.15 4.1 M0.0 -11.1 Q2.95 -11.1 5.25 -9.2 7.5 -7.3 8.05 -4.4 L7.95 -3.75 8.15 -3.1 8.15 6.2 8.75 6.2 Q9.25 6.2 9.6 6.55 9.95 6.95 9.95 7.4 L9.95 9.9 Q9.95 10.4 9.6 10.75 9.25 11.1 8.75 11.1 L-8.75 11.1 -9.55 10.75 Q-9.95 10.4 -9.95 9.9 L-9.95 7.4 Q-9.95 6.95 -9.55 6.55 -9.2 6.2 -8.75 6.2 L-8.15 6.2 -8.15 -3.1 -7.95 -3.75 -8.0 -4.4 Q-7.5 -7.3 -5.2 -9.2 -2.95 -11.1 0.0 -11.1 M6.95 -3.0 L6.8 -4.4 Q6.3 -6.75 4.4 -8.3 2.5 -9.9 0.0 -9.9 -2.5 -9.9 -4.4 -8.3 -6.25 -6.75 -6.8 -4.4 L-6.95 -3.0 -6.95 7.4 -8.75 7.4 -8.75 9.9 8.75 9.9 8.75 7.4 6.95 7.4 6.95 -3.0" fill="#ffffff" fill-rule="evenodd" stroke="none"/>
  </g>
</svg>
