<?xml version="1.0" encoding="UTF-8" standalone="no"?>
<svg xmlns:xlink="http://www.w3.org/1999/xlink" height="22.2px" width="22.2px" xmlns="http://www.w3.org/2000/svg">
  <g transform="matrix(1.0, 0.0, 0.0, 1.0, 11.1, 11.05)">
    <path d="M7.0 -6.95 Q4.1 -9.85 0.0 -9.85 -4.1 -9.85 -7.0 -6.95 -9.9 -4.05 -9.9 0.05 -9.9 4.15 -7.0 7.0 -4.1 9.95 0.0 9.95 4.1 9.95 7.0 7.0 9.9 4.15 9.9 0.05 9.9 -4.05 7.0 -6.95 M6.85 -2.2 L2.2 -2.2 2.2 -6.85 -2.2 -6.85 -2.2 -2.2 -6.85 -2.2 -6.85 2.2 -2.2 2.2 -2.2 6.85 2.2 6.85 2.2 2.2 6.85 2.2 6.85 -2.2 M3.4 -8.05 L3.4 -3.4 8.05 -3.4 8.05 3.4 3.4 3.4 3.4 8.05 -3.4 8.05 -3.4 3.4 -8.05 3.4 -8.05 -3.4 -3.4 -3.4 -3.4 -8.05 3.4 -8.05 M0.0 -11.05 Q4.6 -11.05 7.85 -7.8 11.1 -4.55 11.1 0.05 11.1 4.6 7.85 7.9 4.6 11.15 0.0 11.15 -4.6 11.15 -7.85 7.9 -11.1 4.6 -11.1 0.05 -11.1 -4.55 -7.85 -7.8 -4.6 -11.05 0.0 -11.05" fill="#ffffff" fill-rule="evenodd" stroke="none"/>
  </g>
</svg>
