<?xml version="1.0" encoding="UTF-8" standalone="no"?>
<svg xmlns:xlink="http://www.w3.org/1999/xlink" height="20.4px" width="16.5px" xmlns="http://www.w3.org/2000/svg">
  <g transform="matrix(1.0, 0.0, 0.0, 1.0, 8.25, 10.2)">
    <path d="M3.4 -7.6 Q2.0 -9.0 0.0 -9.0 -1.95 -9.0 -3.35 -7.6 -4.75 -6.2 -4.75 -4.25 L-4.75 4.85 -7.05 4.85 -7.05 9.0 7.05 9.0 7.05 4.85 4.75 4.85 4.75 -4.25 Q4.75 -6.2 3.4 -7.6 M0.0 -10.2 Q2.45 -10.2 4.25 -8.45 5.95 -6.7 5.95 -4.25 L5.95 3.65 7.05 3.65 Q7.55 3.65 7.9 4.0 8.25 4.3 8.25 4.85 L8.25 9.0 7.9 9.85 Q7.55 10.2 7.05 10.2 L-7.05 10.2 Q-7.55 10.2 -7.9 9.85 L-8.25 9.0 -8.25 4.85 Q-8.25 4.35 -7.9 4.0 -7.55 3.65 -7.05 3.65 L-5.95 3.65 -5.95 -4.25 Q-5.95 -6.7 -4.2 -8.45 -2.45 -10.2 0.0 -10.2" fill="#ffffff" fill-rule="evenodd" stroke="none"/>
  </g>
</svg>
