<?xml version="1.0" encoding="UTF-8" standalone="no"?>
<svg xmlns:xlink="http://www.w3.org/1999/xlink" height="20.95px" width="22.2px" xmlns="http://www.w3.org/2000/svg">
  <g transform="matrix(1.0, 0.0, 0.0, 1.0, 11.1, 10.45)">
    <path d="M2.0 -8.2 L2.2 -7.6 2.2 -6.75 Q2.9 -6.45 2.9 -5.65 L2.9 -4.55 Q3.4 -4.2 3.4 -3.55 L3.4 -3.25 7.75 -3.25 7.75 -3.55 Q7.75 -4.0 8.1 -4.4 8.45 -4.75 8.95 -4.75 L9.9 -4.75 10.75 -4.4 11.1 -3.55 11.1 9.3 10.75 10.15 9.9 10.5 -9.9 10.5 -10.75 10.15 -11.1 9.3 -11.1 -3.55 -10.75 -4.4 -9.9 -4.75 -8.9 -4.75 Q-8.4 -4.75 -8.05 -4.4 -7.7 -4.0 -7.7 -3.55 L-7.7 -3.25 -3.4 -3.25 -3.4 -3.55 Q-3.4 -4.2 -2.85 -4.55 L-2.85 -5.65 Q-2.85 -6.45 -2.15 -6.75 L-2.15 -7.6 -2.0 -8.2 -1.45 -8.85 -1.45 -9.25 -1.1 -10.1 Q-0.75 -10.45 -0.25 -10.45 L0.25 -10.45 1.15 -10.1 1.45 -9.25 1.45 -8.85 2.0 -8.2 M0.25 -8.25 L0.25 -9.25 -0.25 -9.25 -0.25 -8.25 -0.75 -7.85 -0.95 -7.6 -0.95 -5.65 -1.65 -5.65 -1.65 -3.55 -2.2 -3.55 -2.2 -2.05 -8.9 -2.05 -8.9 -3.55 -9.9 -3.55 -9.9 9.3 9.9 9.3 9.9 -3.55 8.95 -3.55 8.95 -2.05 2.2 -2.05 2.2 -3.55 1.7 -3.55 1.7 -5.65 1.0 -5.65 1.0 -7.6 0.25 -8.25" fill="#ffffff" fill-rule="evenodd" stroke="none"/>
  </g>
</svg>
