<?xml version="1.0" encoding="UTF-8" standalone="no"?>
<svg xmlns:xlink="http://www.w3.org/1999/xlink" height="22.2px" width="18.4px" xmlns="http://www.w3.org/2000/svg">
  <g transform="matrix(1.0, 0.0, 0.0, 1.0, 9.2, 11.1)">
    <path d="M1.3 -5.9 L4.0 -5.9 0.0 -9.9 -4.0 -5.9 -1.3 -5.9 -6.35 -0.85 -2.0 -0.85 -8.0 5.15 -1.0 5.15 -1.0 7.7 -1.25 7.7 Q-3.1 7.85 -4.6 8.45 -6.0 9.05 -6.55 9.9 L6.6 9.9 Q6.05 9.05 4.5 8.45 2.95 7.85 1.0 7.7 L1.0 5.15 8.0 5.15 2.0 -0.85 6.35 -0.85 1.3 -5.9 M0.0 -11.1 Q0.55 -11.1 0.85 -10.75 L4.85 -6.75 Q5.45 -6.2 5.15 -5.45 4.85 -4.8 4.2 -4.7 L7.2 -1.7 Q7.75 -1.15 7.45 -0.4 7.15 0.35 6.35 0.35 L4.9 0.35 8.85 4.25 Q9.4 4.85 9.1 5.6 8.8 6.35 8.0 6.35 L2.2 6.35 2.2 6.6 Q6.2 7.15 7.6 9.25 8.0 9.8 7.7 10.45 7.35 11.1 6.6 11.1 L-6.55 11.1 Q-7.3 11.1 -7.6 10.45 -7.95 9.85 -7.55 9.25 -6.15 7.15 -2.2 6.6 L-2.2 6.35 -8.0 6.35 Q-8.75 6.35 -9.1 5.6 -9.4 4.85 -8.85 4.25 L-4.9 0.35 -6.35 0.35 Q-7.15 0.35 -7.45 -0.4 -7.75 -1.15 -7.2 -1.7 L-4.15 -4.7 Q-4.85 -4.8 -5.1 -5.45 -5.45 -6.2 -4.85 -6.75 L-0.85 -10.75 Q-0.5 -11.1 0.0 -11.1" fill="#ffffff" fill-rule="evenodd" stroke="none"/>
  </g>
</svg>
