<?xml version="1.0" encoding="UTF-8" standalone="no"?>
<svg xmlns:xlink="http://www.w3.org/1999/xlink" height="22.2px" width="22.25px" xmlns="http://www.w3.org/2000/svg">
  <g transform="matrix(1.0, 0.0, 0.0, 1.0, 11.1, 11.05)">
    <path d="M0.1 -4.2 Q1.9 -6.2 5.25 -8.6 8.75 -11.05 9.8 -11.05 L10.65 -10.75 10.85 -10.6 Q11.3 -10.05 11.05 -9.25 10.7 -8.15 8.9 -5.55 6.45 -2.05 4.25 -0.05 L3.25 0.8 2.2 1.75 Q0.5 3.4 0.3 4.9 L1.55 4.25 2.0 4.15 Q2.45 4.15 2.85 4.5 3.4 5.05 3.1 5.8 2.55 7.3 1.0 8.9 -0.7 10.7 -2.35 11.1 L-2.65 11.15 Q-3.15 11.15 -3.5 10.75 -4.0 10.3 -3.8 9.65 -3.55 8.7 -2.5 7.45 L-3.55 5.0 Q-4.0 4.9 -4.35 4.6 L-4.55 4.4 -4.95 3.65 -7.4 2.55 Q-8.65 3.65 -9.6 3.85 L-9.85 3.9 Q-10.4 3.9 -10.7 3.55 -11.2 3.1 -11.05 2.45 -10.65 0.8 -8.85 -0.95 -7.25 -2.55 -5.75 -3.1 L-5.3 -3.15 Q-4.75 -3.15 -4.45 -2.8 -3.9 -2.2 -4.2 -1.5 L-4.85 -0.25 Q-3.35 -0.45 -1.7 -2.15 L0.1 -4.2 M6.05 -7.7 Q2.75 -5.35 0.95 -3.4 L-0.8 -1.3 Q-3.0 0.95 -5.2 0.95 -6.15 0.95 -7.05 0.55 L-6.35 -0.2 Q-5.65 -1.1 -5.3 -1.95 -6.6 -1.5 -8.0 -0.1 -9.55 1.4 -9.85 2.7 -9.1 2.5 -7.6 1.1 L-3.65 2.9 -3.75 3.1 -3.7 3.55 -3.5 3.75 -3.25 3.85 -2.8 3.65 -1.1 7.65 Q-2.45 9.15 -2.65 9.95 -1.35 9.6 0.15 8.05 1.55 6.65 2.0 5.35 L0.25 6.4 -0.5 7.1 Q-1.85 3.95 1.35 0.85 L3.45 -0.95 Q5.5 -2.75 7.9 -6.25 10.15 -9.5 9.9 -9.85 L9.8 -9.85 Q9.1 -9.85 6.05 -7.7" fill="#ffffff" fill-rule="evenodd" stroke="none"/>
  </g>
</svg>
