<?xml version="1.0" encoding="UTF-8" standalone="no"?>
<svg xmlns:xlink="http://www.w3.org/1999/xlink" height="22.2px" width="21.5px" xmlns="http://www.w3.org/2000/svg">
  <g transform="matrix(1.0, 0.0, 0.0, 1.0, 10.75, 11.1)">
    <path d="M4.0 1.1 L5.0 0.25 Q0.35 0.95 -3.95 3.65 L-9.55 8.0 -9.55 9.9 -5.05 9.9 Q-1.6 5.45 4.0 1.1 M9.2 0.25 Q8.05 2.05 7.0 5.2 L5.55 9.9 9.2 9.9 9.2 0.25 M6.2 0.85 L6.05 0.95 5.8 1.2 4.75 2.0 Q1.6 4.7 -1.75 9.9 L2.95 9.9 Q4.3 6.0 6.75 0.95 L6.2 0.85 M7.0 -8.65 L7.0 -6.35 3.65 -6.65 2.25 -9.9 -2.95 -9.9 -2.95 -4.8 Q-3.8 -3.95 -3.8 -2.85 -3.8 -2.0 -3.3 -1.25 L-2.0 -0.25 -2.75 -0.3 -7.0 0.15 -9.55 1.0 -9.55 5.15 -4.4 2.45 Q-0.35 0.4 1.05 -0.05 L-0.4 -0.2 Q0.4 -0.4 0.95 -0.95 L1.6 -2.35 5.75 -2.35 5.6 -1.7 Q5.6 -1.1 6.05 -0.65 6.45 -0.2 7.1 -0.2 7.7 -0.2 8.15 -0.65 8.6 -1.1 8.6 -1.7 L8.4 -2.35 9.2 -2.35 9.55 -2.8 8.75 -6.1 7.7 -6.2 7.7 -8.65 7.0 -8.65 M7.7 -9.85 Q8.2 -9.85 8.55 -9.5 L8.9 -8.65 8.9 -7.3 Q9.7 -7.25 9.9 -6.4 L10.7 -3.05 Q10.85 -2.5 10.5 -2.05 L10.15 -1.6 9.75 -1.25 9.65 -0.85 Q10.4 -0.55 10.4 0.25 L10.4 9.9 Q10.4 10.4 10.0 10.75 9.7 11.1 9.2 11.1 L-9.55 11.1 -10.4 10.75 -10.75 9.9 -10.75 1.0 Q-10.75 0.2 -10.0 -0.1 L-9.85 -0.2 Q-7.2 -1.2 -4.7 -1.4 L-5.0 -2.85 Q-5.0 -4.15 -4.15 -5.25 L-4.15 -9.9 -3.8 -10.75 Q-3.45 -11.1 -2.95 -11.1 L2.25 -11.1 Q3.05 -11.1 3.35 -10.4 L4.45 -7.8 5.8 -7.65 5.8 -8.65 Q5.8 -9.1 6.15 -9.5 6.5 -9.85 7.0 -9.85 L7.7 -9.85" fill="#ffffff" fill-rule="evenodd" stroke="none"/>
  </g>
</svg>
