<?xml version="1.0" encoding="UTF-8" standalone="no"?>
<svg xmlns:xlink="http://www.w3.org/1999/xlink" height="19.2px" width="19.2px" xmlns="http://www.w3.org/2000/svg">
  <g transform="matrix(1.0, 0.0, 0.0, 1.0, 9.6, 9.6)">
    <path d="M0.95 -9.3 L1.25 -8.6 1.25 -7.45 Q2.15 -7.15 2.6 -6.35 L3.0 -5.05 3.0 -3.8 3.55 -3.4 3.75 -2.8 3.75 -2.0 5.55 -2.0 6.3 -1.7 6.6 -0.95 6.6 -0.35 8.05 0.5 Q8.7 0.9 8.55 1.65 L8.15 2.2 7.5 2.45 7.35 2.45 7.35 6.5 8.55 6.5 Q9.0 6.5 9.3 6.85 L9.6 7.55 9.6 8.55 9.3 9.25 8.55 9.6 -8.55 9.6 -9.3 9.25 -9.6 8.55 -9.6 7.55 -9.3 6.85 Q-9.0 6.5 -8.55 6.5 L-7.65 6.5 -7.65 2.45 Q-8.4 2.35 -8.55 1.65 L-8.5 1.0 -8.05 0.5 -6.7 -0.3 -6.7 -0.95 -6.4 -1.7 -5.65 -2.0 -3.75 -2.0 -3.75 -2.8 -3.55 -3.4 -3.0 -3.8 -2.95 -3.8 -2.95 -5.05 Q-2.95 -5.7 -2.55 -6.35 L-1.2 -7.45 -1.2 -8.6 -0.9 -9.3 -0.2 -9.6 0.25 -9.6 0.95 -9.3 M0.25 -6.65 L0.25 -8.6 -0.2 -8.6 -0.2 -6.65 Q-1.2 -6.6 -1.65 -5.8 L-1.9 -5.0 -1.9 -3.0 -2.7 -2.8 -2.7 -1.45 -3.5 -0.95 -5.65 -0.95 -5.65 0.3 -7.55 1.4 -6.6 1.4 -6.6 7.55 -8.55 7.55 -8.55 8.55 8.55 8.55 8.55 7.55 6.35 7.55 6.35 1.4 7.5 1.4 5.55 0.25 5.55 -0.95 3.4 -0.95 2.7 -1.35 2.7 -2.8 1.95 -3.0 1.95 -5.0 1.7 -5.8 Q1.25 -6.6 0.25 -6.65" fill="#ffffff" fill-rule="evenodd" stroke="none"/>
  </g>
</svg>
