<?xml version="1.0" encoding="UTF-8" standalone="no"?>
<svg xmlns:xlink="http://www.w3.org/1999/xlink" height="15.2px" width="19.9px" xmlns="http://www.w3.org/2000/svg">
  <g transform="matrix(1.0, 0.0, 0.0, 1.0, 9.95, 7.35)">
    <path d="M8.75 -1.3 Q6.05 -2.1 4.2 -3.1 L1.45 -5.0 0.05 -6.15 -1.5 -5.05 -4.4 -3.15 Q-6.25 -2.1 -8.7 -1.3 L-8.75 6.65 8.75 6.65 8.75 -1.3 M2.2 -5.95 Q3.7 -4.75 4.75 -4.2 6.5 -3.25 9.1 -2.4 9.95 -2.15 9.95 -1.3 L9.95 6.65 Q9.95 7.15 9.55 7.5 L8.75 7.85 -8.75 7.85 -9.55 7.5 Q-9.95 7.2 -9.95 6.65 L-9.9 -1.3 Q-9.9 -2.2 -9.1 -2.4 -6.7 -3.2 -5.0 -4.2 L-2.2 -6.05 -0.65 -7.15 0.05 -7.35 0.85 -7.05 2.2 -5.95" fill="#ffffff" fill-rule="evenodd" stroke="none"/>
  </g>
</svg>
