<?xml version="1.0" encoding="UTF-8" standalone="no"?>
<svg xmlns:xlink="http://www.w3.org/1999/xlink" height="17.85px" width="22.2px" xmlns="http://www.w3.org/2000/svg">
  <g transform="matrix(1.0, 0.0, 0.0, 1.0, 11.15, 8.9)">
    <path d="M-0.55 0.8 L-3.25 0.8 -0.55 -2.3 -0.55 0.8 M-7.1 -2.8 L-4.4 -2.8 -4.4 0.35 -7.1 -2.8 M-3.85 -2.8 L-0.9 -2.8 -3.85 0.55 -3.85 -2.8 M2.8 0.8 L0.0 0.8 0.0 -2.3 2.8 0.8 M3.95 -2.8 L7.0 -2.8 3.95 0.5 3.95 -2.8 M0.35 -2.8 L3.4 -2.8 3.4 0.55 0.35 -2.8 M3.65 -7.4 L3.55 -7.4 Q3.35 -7.7 2.6 -7.7 1.6 -7.7 1.6 -7.3 1.6 -6.9 2.6 -6.9 L3.1 -6.95 3.1 -4.25 -3.75 -4.25 -3.75 -7.2 -3.85 -7.2 -4.85 -7.5 -5.5 -7.4 -5.8 -7.1 -5.5 -6.8 -4.85 -6.7 -4.3 -6.75 -4.3 -4.25 -9.95 -4.25 -9.95 -2.8 -7.85 -2.8 -4.8 0.8 -9.95 0.8 -9.95 1.65 -7.9 1.65 -8.2 6.8 -8.85 6.8 -8.85 7.75 -5.6 7.75 -5.6 6.8 -6.35 6.8 -6.65 1.65 -0.75 1.65 -1.05 6.8 -1.75 6.8 -1.75 7.75 1.55 7.75 1.55 6.8 0.8 6.8 0.5 1.65 6.2 1.65 5.9 6.8 5.25 6.8 5.25 7.75 8.55 7.75 8.55 6.8 7.75 6.8 7.45 1.65 9.85 1.65 9.85 0.8 4.45 0.8 7.8 -2.8 9.85 -2.8 9.85 -4.25 3.65 -4.25 3.65 -7.4 M0.4 -7.3 Q0.4 -7.95 0.95 -8.4 1.55 -8.9 2.6 -8.9 3.5 -8.9 4.1 -8.55 4.85 -8.25 4.85 -7.4 L4.85 -5.45 9.85 -5.45 10.7 -5.15 11.05 -4.25 11.05 -2.8 Q11.05 -2.3 10.7 -1.95 10.4 -1.6 9.85 -1.6 L8.3 -1.6 7.2 -0.4 9.85 -0.4 Q10.4 -0.4 10.7 -0.05 11.05 0.3 11.05 0.8 L11.05 1.65 10.7 2.5 Q10.4 2.85 9.85 2.85 L8.8 2.85 8.95 4.1 8.95 5.65 Q9.75 5.95 9.75 6.8 L9.75 7.75 9.4 8.6 Q9.05 8.95 8.55 8.95 L5.25 8.95 Q4.75 8.95 4.4 8.6 4.05 8.25 4.05 7.75 L4.05 6.8 Q4.05 6.05 4.7 5.7 L4.7 4.1 4.85 2.85 1.85 2.85 2.0 4.1 2.0 5.65 Q2.75 6.05 2.75 6.8 L2.75 7.75 Q2.75 8.25 2.35 8.6 2.05 8.95 1.55 8.95 L-1.75 8.95 Q-2.2 8.95 -2.6 8.6 -2.95 8.25 -2.95 7.75 L-2.95 6.8 Q-2.95 6.0 -2.25 5.7 L-2.25 4.1 -2.1 2.85 -5.3 2.85 -5.15 4.1 -5.15 5.65 Q-4.4 5.95 -4.4 6.8 L-4.4 7.75 Q-4.4 8.25 -4.75 8.6 -5.05 8.95 -5.6 8.95 L-8.85 8.95 -9.7 8.6 -10.05 7.75 -10.05 6.8 Q-10.05 6.05 -9.4 5.75 L-9.4 4.1 -9.25 2.85 -9.95 2.85 Q-10.4 2.85 -10.75 2.5 -11.15 2.15 -11.15 1.65 L-11.15 0.8 Q-11.15 0.3 -10.75 -0.05 -10.4 -0.4 -9.95 -0.4 L-7.4 -0.4 -8.4 -1.6 -9.95 -1.6 Q-10.45 -1.6 -10.75 -1.95 -11.15 -2.3 -11.15 -2.8 L-11.15 -4.25 Q-11.15 -4.75 -10.75 -5.15 L-9.95 -5.45 -5.5 -5.45 -5.5 -5.55 Q-6.25 -5.7 -6.65 -6.15 -7.0 -6.55 -7.0 -7.1 -7.0 -7.75 -6.5 -8.2 -5.9 -8.7 -4.85 -8.7 -3.95 -8.7 -3.35 -8.3 -2.55 -8.05 -2.55 -7.2 L-2.55 -5.45 1.9 -5.45 1.9 -5.75 Q0.4 -6.1 0.4 -7.3" fill="#ffffff" fill-rule="evenodd" stroke="none"/>
  </g>
</svg>
