<?xml version="1.0" encoding="UTF-8" standalone="no"?>
<svg xmlns:xlink="http://www.w3.org/1999/xlink" height="22.2px" width="22.2px" xmlns="http://www.w3.org/2000/svg">
  <g transform="matrix(1.0, 0.0, 0.0, 1.0, 11.1, 11.0)">
    <path d="M5.95 4.65 L5.95 2.65 Q5.3 2.7 4.85 3.55 L3.95 2.15 Q3.2 1.45 1.95 1.2 L0.2 1.05 -1.75 1.2 Q-2.95 1.5 -3.6 2.2 L-4.45 3.5 Q-4.9 2.7 -5.6 2.65 L-5.6 4.65 -5.3 6.7 -5.55 7.0 -5.6 7.55 Q-5.6 8.05 -4.6 8.05 L-4.6 8.9 -6.25 8.9 -9.7 9.1 Q-10.0 9.4 -9.85 10.0 L9.9 10.0 Q9.9 9.3 9.25 9.0 L5.05 8.95 4.95 8.95 4.95 8.05 Q5.95 8.05 5.95 7.55 L5.9 7.05 5.65 6.7 5.95 4.65 M8.85 -1.7 L8.85 -8.0 -8.85 -8.0 -8.85 -1.7 8.85 -1.7 M6.3 -11.0 L6.75 -11.0 Q7.4 -11.0 7.85 -10.5 8.25 -11.0 8.9 -11.0 L9.35 -11.0 Q9.95 -11.0 10.4 -10.55 10.8 -10.1 10.8 -9.5 L10.8 -9.15 Q10.8 -8.25 10.05 -7.8 L10.05 -1.95 Q10.8 -1.5 10.8 -0.6 L10.8 -0.25 Q10.8 0.4 10.4 0.85 9.95 1.25 9.35 1.25 L8.9 1.25 Q8.25 1.25 7.85 0.75 7.4 1.25 6.75 1.25 L6.15 1.25 6.15 1.45 Q7.0 1.6 7.15 2.5 7.35 3.55 6.95 5.95 L6.9 6.3 Q7.3 6.9 7.15 7.75 L9.8 7.9 10.75 8.75 11.1 10.0 10.75 10.85 9.9 11.2 -9.85 11.2 -10.55 10.95 -11.0 10.35 -11.05 9.25 Q-10.95 8.55 -10.45 8.2 -10.15 7.95 -9.65 7.85 L-6.8 7.7 Q-6.95 6.9 -6.55 6.3 L-6.6 5.9 Q-7.0 3.55 -6.8 2.45 -6.7 1.8 -6.1 1.55 L-6.1 1.2 -6.25 1.25 -6.75 1.25 Q-7.45 1.25 -7.8 0.75 -8.2 1.25 -8.9 1.25 L-9.35 1.25 Q-9.95 1.25 -10.4 0.85 -10.8 0.4 -10.8 -0.25 L-10.8 -0.6 Q-10.8 -1.5 -10.0 -1.95 L-10.0 -7.8 Q-10.8 -8.25 -10.8 -9.15 L-10.8 -9.5 Q-10.8 -10.1 -10.4 -10.55 -9.95 -11.0 -9.35 -11.0 L-8.9 -11.0 Q-8.2 -11.0 -7.8 -10.5 -7.45 -11.0 -6.75 -11.0 L-6.25 -11.0 Q-5.6 -11.0 -5.2 -10.5 -4.8 -11.0 -4.15 -11.0 L-3.65 -11.0 Q-3.05 -11.0 -2.6 -10.5 -2.2 -11.0 -1.55 -11.0 L-1.1 -11.0 Q-0.4 -11.0 0.0 -10.5 0.4 -11.0 1.1 -11.0 L1.55 -11.0 Q2.2 -11.0 2.6 -10.5 3.05 -11.0 3.7 -11.0 L4.15 -11.0 Q4.8 -11.0 5.2 -10.5 5.65 -11.0 6.3 -11.0" fill="#ffffff" fill-rule="evenodd" stroke="none"/>
  </g>
</svg>
