<?xml version="1.0" encoding="UTF-8" standalone="no"?>
<svg xmlns:xlink="http://www.w3.org/1999/xlink" height="21.2px" width="20.4px" xmlns="http://www.w3.org/2000/svg">
  <g transform="matrix(1.0, 0.0, 0.0, 1.0, 10.2, 10.6)">
    <path d="M8.75 -1.9 L9.45 -1.4 Q10.2 -0.65 10.2 0.4 10.2 1.5 9.45 2.25 8.75 2.95 7.7 3.05 L2.6 8.05 Q2.6 9.1 1.85 9.85 1.05 10.6 0.0 10.6 -1.1 10.6 -1.85 9.85 -2.6 9.1 -2.6 8.05 L-7.65 3.05 Q-8.7 2.95 -9.4 2.25 -10.2 1.55 -10.2 0.4 -10.2 -0.65 -9.4 -1.4 L-9.15 -1.65 Q-8.8 -5.5 -6.25 -8.05 -3.7 -10.6 -0.2 -10.6 3.2 -10.6 5.75 -8.15 8.3 -5.65 8.75 -1.9 M7.6 -1.0 Q7.45 -4.5 5.2 -6.95 2.95 -9.4 -0.2 -9.4 -3.35 -9.4 -5.65 -6.95 -7.9 -4.45 -8.0 -0.95 L-8.6 -0.55 Q-8.95 -0.15 -8.95 0.4 -8.95 1.0 -8.6 1.4 -8.15 1.85 -7.6 1.85 L-7.2 1.75 -1.3 7.6 Q-1.55 8.45 -1.0 9.0 -0.5 9.4 0.0 9.4 0.55 9.4 1.0 9.0 1.6 8.45 1.35 7.6 L7.25 1.75 7.6 1.85 Q8.2 1.85 8.6 1.4 9.05 1.0 9.05 0.4 9.05 -0.15 8.6 -0.55 8.2 -1.0 7.6 -1.0" fill="#ffffff" fill-rule="evenodd" stroke="none"/>
  </g>
</svg>
