<?xml version="1.0" encoding="UTF-8" standalone="no"?>
<svg xmlns:xlink="http://www.w3.org/1999/xlink" height="19.0px" width="12.45px" xmlns="http://www.w3.org/2000/svg">
  <g transform="matrix(1.0, 0.0, 0.0, 1.0, 6.2, 9.5)">
    <path d="M3.35 2.75 L3.35 0.75 -1.2 0.75 -1.2 2.75 3.35 2.75 M3.1 -8.85 L6.25 -9.5 6.25 9.5 -6.2 9.5 -6.2 2.85 -2.7 2.85 -2.7 -2.9 -4.6 -2.9 -4.6 -3.9 -0.65 -3.9 -0.65 -5.9 -4.2 -5.9 -4.2 -6.9 -0.65 -6.9 -0.65 -7.65 3.1 -7.65 3.1 -8.85 M3.35 -0.8 L3.35 -2.9 -1.2 -2.9 -1.2 -0.8 3.35 -0.8" fill="#ffffff" fill-rule="evenodd" stroke="none"/>
  </g>
</svg>
