<?xml version="1.0" encoding="UTF-8" standalone="no"?>
<svg xmlns:xlink="http://www.w3.org/1999/xlink" height="21.55px" width="14.7px" xmlns="http://www.w3.org/2000/svg">
  <g transform="matrix(1.0, 0.0, 0.0, 1.0, 7.35, 10.9)">
    <path d="M3.4 0.75 L3.4 2.75 -1.2 2.75 -1.2 0.75 3.4 0.75 M3.4 -2.9 L3.4 -0.8 -1.2 -0.8 -1.2 -2.9 3.4 -2.9 M6.2 -9.5 L3.15 -8.85 3.15 -7.65 -0.65 -7.65 -0.65 -6.9 -4.15 -6.9 -4.15 -5.9 -0.65 -5.9 -0.65 -3.9 -4.55 -3.9 -4.55 -2.9 -2.65 -2.9 -2.65 2.85 -6.2 2.85 -6.2 9.5 6.2 9.5 6.2 -9.5 M2.05 -8.85 L2.05 -9.75 7.35 -10.9 7.35 10.65 -7.35 10.65 -7.35 1.7 -3.8 1.7 -3.8 -1.7 -5.7 -1.7 -5.7 -5.0 -5.3 -5.0 -5.3 -8.1 -1.8 -8.1 -1.8 -8.85 2.05 -8.85" fill="#ffffff" fill-rule="evenodd" stroke="none"/>
  </g>
</svg>
