<?xml version="1.0" encoding="UTF-8" standalone="no"?>
<svg xmlns:xlink="http://www.w3.org/1999/xlink" height="22.2px" width="14.05px" xmlns="http://www.w3.org/2000/svg">
  <g transform="matrix(1.0, 0.0, 0.0, 1.0, 7.0, 11.05)">
    <path d="M3.35 -0.85 L3.35 -4.45 -0.05 -9.85 -3.3 -4.4 -3.3 -0.85 -4.15 0.3 -4.15 9.25 -5.8 9.25 -5.8 9.95 5.85 9.95 5.85 9.25 4.15 9.25 4.15 0.3 3.35 -0.85 M1.0 -10.5 L4.4 -5.05 4.55 -4.45 4.55 -1.25 5.15 -0.4 5.35 0.35 5.35 8.05 5.85 8.05 Q6.35 8.05 6.7 8.4 7.05 8.75 7.05 9.25 L7.05 9.95 Q7.05 10.45 6.7 10.75 6.35 11.15 5.85 11.15 L-5.8 11.15 Q-6.3 11.15 -6.65 10.75 -7.0 10.45 -7.0 9.95 L-7.0 9.25 Q-7.0 8.75 -6.65 8.4 -6.3 8.05 -5.8 8.05 L-5.35 8.05 -5.35 0.3 -5.05 -0.45 -4.5 -1.25 -4.5 -4.4 -4.35 -5.0 -1.05 -10.5 Q-0.7 -11.05 -0.05 -11.05 0.65 -11.05 1.0 -10.5" fill="#ffffff" fill-rule="evenodd" stroke="none"/>
  </g>
</svg>
