<?xml version="1.0" encoding="UTF-8" standalone="no"?>
<svg xmlns:xlink="http://www.w3.org/1999/xlink" height="22.2px" width="22.25px" xmlns="http://www.w3.org/2000/svg">
  <g transform="matrix(1.0, 0.0, 0.0, 1.0, 11.15, 11.1)">
    <path d="M5.7 5.9 L6.6 5.9 6.6 7.4 7.15 7.4 7.15 5.95 Q7.75 6.1 8.2 6.4 L8.6 7.15 Q8.6 8.15 6.3 8.4 L5.15 8.45 Q2.9 8.45 2.9 7.35 2.9 5.9 5.7 5.9 M0.85 -5.55 L1.15 -5.55 1.15 -5.9 -3.65 -7.8 -8.35 -5.9 -8.35 -5.55 -8.05 -5.55 -8.05 -5.3 -7.15 -5.3 -7.15 -2.95 -7.85 -2.95 -7.85 -1.35 -3.75 -1.85 0.65 -1.3 0.65 -2.95 -0.05 -2.95 -0.05 -5.3 0.85 -5.3 0.85 -5.55 M7.15 -9.85 L7.1 -9.85 7.1 -9.9 1.4 -8.05 6.6 -6.25 6.6 4.95 5.8 4.85 Q5.05 4.75 4.4 4.3 L3.85 3.9 Q1.0 1.4 -2.65 1.4 -4.6 1.4 -6.65 2.2 -10.55 3.8 -9.8 5.85 -9.2 7.6 -6.3 8.6 -2.75 9.9 1.65 9.9 L4.35 9.85 7.7 9.25 Q9.2 8.7 9.55 8.05 10.3 6.65 9.35 5.85 8.7 5.35 7.15 5.0 L7.15 -9.85 M8.3 -9.9 L8.35 -9.85 8.35 4.1 Q10.2 4.6 10.85 5.85 11.45 7.1 10.6 8.6 10.0 9.8 7.85 10.45 L4.4 11.05 1.65 11.1 Q-3.0 11.1 -6.7 9.75 -8.5 9.1 -9.7 8.0 -11.1 6.75 -11.15 5.3 -11.15 2.75 -7.1 1.1 -4.85 0.2 -2.65 0.2 -0.05 0.2 2.35 1.45 3.8 2.2 4.65 3.05 L4.7 3.05 4.9 3.2 5.4 3.5 5.4 -5.45 2.15 -6.5 2.35 -5.9 2.35 -5.55 Q2.35 -4.85 1.75 -4.5 L1.15 -4.1 1.15 -4.0 Q1.85 -3.7 1.85 -2.95 L1.85 -1.3 Q1.85 -0.75 1.35 -0.35 L0.65 -0.1 0.3 -0.15 -3.75 -0.65 -7.55 -0.2 -7.85 -0.15 Q-8.3 -0.15 -8.6 -0.4 -9.05 -0.75 -9.05 -1.35 L-9.05 -2.95 Q-9.05 -3.75 -8.35 -4.05 L-8.35 -4.1 Q-8.75 -4.2 -9.05 -4.55 -9.55 -4.95 -9.55 -5.55 L-9.55 -5.9 Q-9.55 -6.7 -8.8 -7.0 L-4.1 -8.9 -3.65 -9.0 -3.2 -8.9 0.35 -7.45 0.2 -8.05 0.45 -8.75 1.05 -9.2 6.75 -11.05 7.1 -11.1 7.85 -10.85 Q8.3 -10.5 8.3 -9.9" fill="#ffffff" fill-rule="evenodd" stroke="none"/>
  </g>
</svg>
