<?xml version="1.0" encoding="UTF-8" standalone="no"?>
<svg xmlns:xlink="http://www.w3.org/1999/xlink" height="20.8px" width="19.7px" xmlns="http://www.w3.org/2000/svg">
  <g transform="matrix(1.0, 0.0, 0.0, 1.0, 9.85, 10.15)">
    <path d="M8.65 -4.45 L3.35 -4.45 3.35 -0.55 -1.45 -0.55 -1.45 -6.2 -6.1 -6.2 -6.1 -8.95 -7.85 -8.95 -7.85 -6.2 -8.65 -6.2 -8.65 9.45 8.65 9.45 8.65 -4.45 M9.5 -5.3 Q9.85 -4.95 9.85 -4.45 L9.85 9.45 Q9.85 9.95 9.5 10.25 9.2 10.65 8.65 10.65 L-8.65 10.65 Q-9.1 10.65 -9.5 10.25 -9.85 9.95 -9.85 9.45 L-9.85 -6.2 Q-9.85 -7.05 -9.05 -7.35 L-9.05 -8.95 -8.7 -9.75 Q-8.35 -10.15 -7.85 -10.15 L-6.1 -10.15 Q-5.6 -10.15 -5.25 -9.75 -4.9 -9.4 -4.9 -8.95 L-4.9 -7.4 -1.45 -7.4 Q-0.95 -7.4 -0.6 -7.05 -0.25 -6.7 -0.25 -6.2 L-0.25 -1.75 2.15 -1.75 2.15 -4.45 Q2.15 -4.95 2.5 -5.3 2.8 -5.65 3.35 -5.65 L8.65 -5.65 Q9.2 -5.65 9.5 -5.3" fill="#ffffff" fill-rule="evenodd" stroke="none"/>
  </g>
</svg>
