<?xml version="1.0" encoding="UTF-8" standalone="no"?>
<svg xmlns:xlink="http://www.w3.org/1999/xlink" height="22.2px" width="20.8px" xmlns="http://www.w3.org/2000/svg">
  <g transform="matrix(1.0, 0.0, 0.0, 1.0, 10.4, 11.1)">
    <path d="M3.5 -11.1 L4.1 -11.1 Q4.9 -11.1 5.2 -10.3 L7.05 -4.75 7.1 -4.35 7.1 -0.25 7.6 0.1 10.1 2.9 Q10.6 3.45 10.3 4.2 L9.55 4.85 9.55 9.9 9.2 10.75 Q8.9 11.1 8.35 11.1 L-8.5 11.1 -9.35 10.75 Q-9.7 10.4 -9.7 9.9 L-9.7 4.8 -10.3 4.15 Q-10.6 3.5 -10.1 2.9 L-7.5 0.1 Q-7.15 -0.3 -6.65 -0.3 L0.45 -0.3 0.45 -4.35 0.5 -4.7 2.35 -10.25 Q2.6 -11.05 3.5 -11.1 M4.1 -9.9 L3.5 -9.9 1.65 -4.35 1.65 0.9 -6.65 0.9 -9.2 3.7 -8.5 3.7 -8.5 9.9 8.35 9.9 8.35 3.7 9.2 3.7 6.7 0.9 5.9 0.9 5.9 -4.35 4.1 -9.9" fill="#ffffff" fill-rule="evenodd" stroke="none"/>
  </g>
</svg>
