<?xml version="1.0" encoding="UTF-8" standalone="no"?>
<svg xmlns:xlink="http://www.w3.org/1999/xlink" height="21.2px" width="21.2px" xmlns="http://www.w3.org/2000/svg">
  <g transform="matrix(1.0, 0.0, 0.0, 1.0, 10.6, 10.85)">
    <path d="M5.15 -4.4 Q4.3 -4.4 3.35 -1.8 1.4 -9.65 0.25 -9.65 -1.4 -9.65 -3.65 0.15 -4.4 -1.35 -4.9 -1.35 -6.2 -1.35 -7.9 3.9 L-9.4 9.15 -2.3 9.15 Q-2.05 7.15 -1.35 5.9 -0.65 4.6 0.25 4.6 1.15 4.6 1.9 5.9 2.6 7.15 2.8 9.15 L9.4 9.15 7.85 2.4 Q6.1 -4.4 5.15 -4.4 M0.25 -10.85 Q1.2 -10.85 1.9 -9.75 2.8 -8.4 3.75 -4.95 4.4 -5.6 5.15 -5.6 6.2 -5.6 6.95 -4.2 7.85 -2.55 9.05 2.1 L10.6 8.95 10.35 9.95 Q10.0 10.35 9.4 10.35 L2.8 10.35 Q2.35 10.35 2.05 10.05 L1.6 9.3 Q1.45 7.75 0.95 6.7 L0.25 5.8 -0.4 6.7 Q-0.9 7.75 -1.1 9.3 -1.15 9.75 -1.5 10.05 L-2.3 10.35 -9.4 10.35 Q-9.95 10.35 -10.3 9.9 L-10.55 9.55 -10.55 8.9 -10.55 8.8 -9.05 3.55 Q-8.0 0.3 -7.0 -1.1 -6.05 -2.55 -4.9 -2.55 L-4.3 -2.4 Q-2.95 -7.65 -1.75 -9.5 -0.9 -10.85 0.25 -10.85" fill="#ffffff" fill-rule="evenodd" stroke="none"/>
  </g>
</svg>
