<?xml version="1.0" encoding="UTF-8" standalone="no"?>
<svg xmlns:xlink="http://www.w3.org/1999/xlink" height="15.4px" width="21.2px" xmlns="http://www.w3.org/2000/svg">
  <g transform="matrix(1.0, 0.0, 0.0, 1.0, 10.55, 7.65)">
    <path d="M1.45 2.85 L1.85 2.65 3.25 2.65 3.45 3.55 Q3.45 4.45 2.8 5.1 2.15 5.8 1.2 5.8 0.45 5.8 -0.1 5.4 -0.7 4.9 -0.9 4.2 L0.45 3.4 0.45 3.55 0.65 4.05 1.2 4.3 1.75 4.05 2.0 3.55 Q2.0 3.05 1.45 2.85 M8.9 -7.4 L9.7 -6.65 10.5 -5.0 10.5 -4.95 Q10.75 -4.4 10.6 -3.9 10.6 -3.15 10.0 -2.75 L9.2 -2.55 9.15 -2.55 8.15 -1.95 Q7.0 -1.1 5.85 -0.4 L5.85 2.65 Q5.85 3.25 5.35 3.6 5.3 5.35 4.15 6.55 2.95 7.75 1.2 7.75 -0.75 7.75 -2.0 6.25 L-4.0 7.45 -4.55 7.6 -9.35 7.6 Q-9.85 7.6 -10.2 7.25 -10.55 6.95 -10.55 6.45 L-10.55 5.6 -10.45 5.1 -9.7 4.2 Q-9.15 3.85 -8.55 3.85 -7.9 3.85 -7.35 4.3 L-6.65 4.05 -6.75 3.95 -7.6 3.05 Q-7.9 2.55 -7.75 1.9 L-7.8 1.85 -7.85 0.65 Q-7.65 0.0 -7.1 -0.25 -3.7 -2.15 1.65 -4.65 L6.85 -7.0 7.6 -7.55 7.65 -7.55 8.05 -7.65 8.9 -7.4 M8.05 -6.55 L7.9 -6.4 7.85 -6.15 7.9 -6.1 2.2 -3.6 Q-3.05 -1.2 -6.55 0.75 L-6.75 1.0 -6.75 1.4 -6.5 1.85 Q-6.8 2.25 -6.6 2.6 -6.4 2.95 -6.0 2.95 L-5.95 2.95 -5.7 3.4 -5.3 3.7 -5.1 3.65 -4.5 3.4 -5.6 4.95 -7.65 5.6 -7.75 5.6 Q-8.0 5.0 -8.55 5.0 -9.15 5.0 -9.35 5.6 L-9.35 6.45 -4.55 6.45 -1.6 4.65 Q-1.3 5.55 -0.5 6.1 L1.2 6.6 Q2.5 6.6 3.35 5.7 4.2 4.8 4.2 3.55 L4.1 2.65 4.7 2.65 4.7 -1.1 7.1 -2.6 9.0 -3.85 9.05 -3.8 9.2 -3.7 9.4 -3.75 9.45 -4.0 9.4 -4.1 9.45 -4.1 9.45 -4.5 8.7 -6.05 8.4 -6.35 8.3 -6.35 8.25 -6.4 8.05 -6.55" fill="#ffffff" fill-rule="evenodd" stroke="none"/>
  </g>
</svg>
