<?xml version="1.0" encoding="UTF-8" standalone="no"?>
<svg xmlns:xlink="http://www.w3.org/1999/xlink" height="14.2px" width="22.2px" xmlns="http://www.w3.org/2000/svg">
  <g transform="matrix(1.0, 0.0, 0.0, 1.0, 11.1, 7.1)">
    <path d="M7.6 -1.85 L7.55 -1.85 Q7.1 -3.45 6.4 -4.1 4.55 -5.9 0.0 -5.9 -4.55 -5.9 -6.45 -4.0 -7.15 -3.3 -7.55 -1.85 L-7.6 -1.85 Q-8.4 -1.85 -8.95 -1.3 -9.5 -0.8 -9.5 0.0 L-9.9 3.4 -9.7 3.85 -9.35 4.0 -7.7 4.0 -7.7 5.65 -7.4 5.9 -5.3 5.9 -5.05 5.65 -5.05 4.0 5.05 4.0 5.05 5.65 5.3 5.9 7.4 5.9 7.7 5.65 7.7 4.0 9.35 4.0 9.7 3.85 9.9 3.4 9.5 0.0 Q9.5 -0.8 8.95 -1.3 8.4 -1.85 7.6 -1.85 M8.5 -2.95 Q9.5 -2.65 10.1 -1.85 10.7 -1.0 10.7 0.0 L10.9 1.95 11.1 3.4 Q11.1 4.15 10.6 4.7 10.05 5.2 9.35 5.2 L8.9 5.2 8.9 5.65 Q8.9 6.25 8.45 6.7 8.0 7.1 7.4 7.1 L5.3 7.1 Q4.7 7.1 4.3 6.7 3.85 6.25 3.85 5.65 L3.85 5.2 -3.85 5.2 -3.85 5.65 Q-3.85 6.25 -4.3 6.7 -4.7 7.1 -5.3 7.1 L-7.4 7.1 Q-8.0 7.1 -8.45 6.7 -8.9 6.25 -8.9 5.65 L-8.9 5.2 -9.35 5.2 Q-10.05 5.2 -10.55 4.7 -11.1 4.15 -11.1 3.4 L-10.95 1.95 -10.7 0.0 Q-10.7 -1.0 -10.1 -1.85 -9.5 -2.65 -8.5 -2.95 -7.9 -4.65 -6.2 -5.65 -3.95 -7.1 0.0 -7.1 7.15 -7.1 8.5 -2.95" fill="#ffffff" fill-rule="evenodd" stroke="none"/>
  </g>
</svg>
