<?xml version="1.0" encoding="UTF-8" standalone="no"?>
<svg xmlns:xlink="http://www.w3.org/1999/xlink" height="16.1px" width="22.2px" xmlns="http://www.w3.org/2000/svg">
  <g transform="matrix(1.0, 0.0, 0.0, 1.0, 11.1, 8.05)">
    <path d="M5.5 -6.2 Q4.85 -6.85 3.9 -6.85 L-7.65 -6.85 Q-8.6 -6.85 -9.25 -6.2 -9.9 -5.5 -9.9 -4.55 L-9.9 3.65 -5.35 3.65 -5.45 4.3 Q-5.45 5.4 -4.7 6.2 -3.9 6.95 -2.8 6.95 -1.7 6.95 -0.9 6.2 -0.1 5.4 -0.1 4.3 L-0.2 3.65 9.9 3.65 9.9 2.2 6.2 2.2 6.2 -4.55 Q6.2 -5.5 5.5 -6.2 M6.35 -7.0 Q7.4 -6.0 7.4 -4.55 L7.4 1.0 9.9 1.0 Q10.4 1.0 10.75 1.35 11.1 1.7 11.1 2.2 L11.1 3.65 Q11.1 4.15 10.75 4.45 10.4 4.85 9.9 4.85 L1.0 4.85 Q0.75 6.2 -0.3 7.15 -1.4 8.05 -2.8 8.05 -4.25 8.05 -5.35 7.15 -6.4 6.2 -6.65 4.85 L-9.9 4.85 Q-10.4 4.85 -10.75 4.45 -11.1 4.15 -11.1 3.65 L-11.1 -4.55 Q-11.1 -6.0 -10.1 -7.0 -9.05 -8.05 -7.65 -8.05 L3.9 -8.05 Q5.35 -8.05 6.35 -7.0" fill="#ffffff" fill-rule="evenodd" stroke="none"/>
  </g>
</svg>
