<?xml version="1.0" encoding="UTF-8" standalone="no"?>
<svg xmlns:xlink="http://www.w3.org/1999/xlink" height="12.8px" width="21.3px" xmlns="http://www.w3.org/2000/svg">
  <g transform="matrix(1.0, 0.0, 0.0, 1.0, 10.7, 6.4)">
    <path d="M-6.9 -1.55 L-6.9 -3.4 -1.2 -3.4 -1.2 -1.55 -6.9 -1.55 M7.5 -6.4 Q8.55 -6.4 9.3 -5.65 10.05 -4.95 10.05 -3.9 L10.6 6.4 -10.7 6.4 -10.1 -3.9 Q-10.1 -4.95 -9.35 -5.65 -8.6 -6.4 -7.6 -6.4 L7.5 -6.4 M8.9 -3.9 Q8.9 -4.45 8.5 -4.85 8.1 -5.25 7.5 -5.25 L-7.6 -5.25 Q-8.15 -5.25 -8.6 -4.85 -9.0 -4.45 -9.0 -3.9 L-9.5 5.3 4.75 5.3 4.75 2.8 6.4 2.8 6.4 5.3 9.4 5.3 8.9 -3.9 M0.95 -1.55 L0.95 -3.4 6.7 -3.4 6.7 -1.55 0.95 -1.55" fill="#ffffff" fill-rule="evenodd" stroke="none"/>
  </g>
</svg>
