<?xml version="1.0" encoding="UTF-8" standalone="no"?>
<svg xmlns:xlink="http://www.w3.org/1999/xlink" height="22.2px" width="16.05px" xmlns="http://www.w3.org/2000/svg">
  <g transform="matrix(1.0, 0.0, 0.0, 1.0, 8.0, 11.1)">
    <path d="M1.1 -8.55 L0.0 -9.9 -1.05 -8.55 -2.8 6.0 Q-5.6 7.1 -6.8 9.9 L6.85 9.9 Q5.6 7.1 2.8 6.0 L1.1 -8.55 M2.05 -9.3 L2.3 -8.7 3.95 5.2 Q6.7 6.55 7.95 9.4 8.2 10.0 7.85 10.55 7.5 11.1 6.85 11.1 L-6.8 11.1 Q-7.45 11.1 -7.85 10.55 -8.15 10.0 -7.9 9.4 -6.7 6.55 -3.9 5.2 L-2.25 -8.7 -2.0 -9.3 -0.95 -10.65 Q-0.55 -11.1 0.0 -11.1 0.6 -11.1 0.95 -10.65 L2.05 -9.3" fill="#ffffff" fill-rule="evenodd" stroke="none"/>
  </g>
</svg>
