<?xml version="1.0" encoding="UTF-8" standalone="no"?>
<svg xmlns:xlink="http://www.w3.org/1999/xlink" height="19.9px" width="22.15px" xmlns="http://www.w3.org/2000/svg">
  <g transform="matrix(1.0, 0.0, 0.0, 1.0, 11.1, 10.05)">
    <path d="M-3.45 -3.6 L-0.8 -3.6 -0.8 -0.9 -3.45 -0.9 -3.45 -3.6 M-7.15 -0.9 L-7.15 -3.6 -4.45 -3.6 -4.45 -0.9 -7.15 -0.9 M11.05 -5.7 L9.35 -3.0 9.35 9.85 -9.35 9.85 -9.35 -1.75 -11.1 -4.3 -3.95 -8.75 -1.0 -6.9 4.05 -10.05 11.05 -5.7 M8.85 -4.35 L9.45 -5.35 4.05 -8.7 -1.05 -5.55 -3.95 -7.45 -9.45 -3.95 -8.85 -3.0 -8.2 -3.4 -8.2 8.7 -5.6 8.7 -5.6 3.65 -2.35 3.65 -2.35 8.7 2.45 8.7 2.45 3.65 5.7 3.65 5.7 8.7 8.25 8.7 8.25 -4.75 8.85 -4.35 M4.55 -0.9 L4.55 -3.6 7.2 -3.6 7.2 -0.9 4.55 -0.9 M3.6 -3.6 L3.6 -0.9 0.85 -0.9 0.85 -3.6 3.6 -3.6" fill="#ffffff" fill-rule="evenodd" stroke="none"/>
  </g>
</svg>
