<?xml version="1.0" encoding="UTF-8" standalone="no"?>
<svg xmlns:xlink="http://www.w3.org/1999/xlink" height="18.9px" width="15.4px" xmlns="http://www.w3.org/2000/svg">
  <g transform="matrix(1.0, 0.0, 0.0, 1.0, 7.7, 9.45)">
    <path d="M-1.0 -3.15 Q-2.15 -2.6 -2.15 -1.35 -2.15 -0.1 -1.0 0.5 L-1.0 -3.15 M-1.9 -4.1 L-1.0 -4.45 -1.0 -6.7 Q-3.1 -6.25 -4.45 -4.65 -5.85 -3.1 -5.85 -0.9 -5.85 1.2 -4.45 2.8 -3.1 4.45 -1.0 4.75 L-1.0 2.7 -1.15 2.95 -1.95 2.65 -1.7 1.65 -1.7 1.6 -1.75 1.55 -2.6 0.9 -2.65 0.85 -3.65 1.3 -4.05 0.6 -3.25 0.0 -3.2 -0.05 -3.25 -0.1 -3.45 -1.25 -3.45 -1.3 -3.5 -1.3 -4.45 -1.55 -4.35 -2.4 -3.3 -2.35 -3.3 -2.4 -2.75 -3.4 -2.7 -3.45 -2.75 -3.55 -3.3 -4.2 -2.65 -4.75 -1.9 -4.05 -1.9 -4.1 M2.15 -1.35 Q2.15 -2.6 1.0 -3.15 L1.0 0.5 Q2.15 -0.1 2.15 -1.35 M2.65 -4.75 L3.3 -4.2 2.75 -3.55 2.7 -3.45 2.75 -3.4 3.3 -2.4 3.3 -2.35 3.35 -2.35 4.35 -2.4 4.45 -1.55 3.5 -1.3 3.45 -1.3 3.45 -1.25 3.2 -0.1 3.2 -0.05 3.25 0.0 4.05 0.6 3.6 1.3 2.65 0.85 2.6 0.9 1.75 1.55 1.7 1.6 1.7 1.65 1.95 2.65 1.15 2.95 1.0 2.7 1.0 4.75 Q3.1 4.45 4.5 2.8 5.85 1.2 5.85 -0.9 5.85 -3.1 4.5 -4.65 3.1 -6.25 1.0 -6.7 L1.0 -4.45 1.85 -4.1 1.95 -4.05 1.95 -4.1 2.65 -4.75 M0.35 -8.8 L0.8 -7.65 Q3.75 -7.3 5.7 -5.0 7.7 -2.75 7.7 0.4 7.7 3.45 5.7 5.8 3.75 8.05 0.85 8.4 L0.85 8.65 0.65 9.25 0.05 9.45 -0.55 9.25 -0.85 8.65 -0.85 8.4 Q-3.8 8.05 -5.7 5.8 -7.7 3.45 -7.7 0.4 -7.7 -2.75 -5.65 -5.0 -3.7 -7.3 -0.75 -7.65 L-0.3 -8.8 0.05 -9.45 0.35 -8.8" fill="#ffffff" fill-rule="evenodd" stroke="none"/>
  </g>
</svg>
