<?xml version="1.0" encoding="UTF-8" standalone="no"?>
<svg xmlns:xlink="http://www.w3.org/1999/xlink" height="21.15px" width="17.7px" xmlns="http://www.w3.org/2000/svg">
  <g transform="matrix(1.0, 0.0, 0.0, 1.0, 8.85, 10.55)">
    <path d="M-2.1 -1.35 Q-2.1 -2.6 -0.95 -3.15 L-0.95 0.5 Q-2.1 -0.1 -2.1 -1.35 M-1.8 -4.1 L-1.85 -4.05 -2.6 -4.75 -3.2 -4.2 -2.7 -3.55 -2.65 -3.45 -2.7 -3.4 -3.25 -2.4 -3.25 -2.35 -4.3 -2.4 -4.45 -1.55 -3.45 -1.3 -3.4 -1.3 -3.4 -1.25 -3.2 -0.1 -3.15 -0.05 -3.2 0.0 -4.0 0.6 -3.6 1.3 -2.6 0.85 -2.55 0.9 -1.7 1.55 -1.65 1.6 -1.65 1.65 -1.9 2.65 -1.1 2.95 -0.95 2.7 -0.95 4.75 Q-3.05 4.45 -4.45 2.8 -5.85 1.2 -5.85 -0.9 -5.85 -3.1 -4.45 -4.65 -3.05 -6.25 -0.95 -6.7 L-0.95 -4.45 -1.8 -4.1 M0.95 -3.15 Q2.1 -2.6 2.1 -1.35 2.1 -0.1 0.95 0.5 L0.95 -3.15 M2.7 -3.4 L2.65 -3.45 2.7 -3.55 3.25 -4.2 2.6 -4.75 1.9 -4.1 1.9 -4.05 1.8 -4.1 0.95 -4.45 0.95 -6.7 Q3.1 -6.25 4.45 -4.65 5.85 -3.1 5.85 -0.9 5.85 1.2 4.45 2.8 3.1 4.45 0.95 4.75 L0.95 2.7 1.05 2.95 1.9 2.65 1.7 1.65 1.65 1.6 1.7 1.55 2.55 0.9 2.6 0.85 3.6 1.3 4.0 0.6 3.2 0.0 3.15 -0.05 3.15 -0.1 3.4 -1.25 3.45 -1.3 3.5 -1.3 4.4 -1.55 4.3 -2.4 3.3 -2.35 3.25 -2.35 3.25 -2.4 2.7 -3.4 M0.3 -8.8 L0.0 -9.45 -0.3 -8.8 -0.75 -7.65 Q-3.65 -7.3 -5.7 -5.0 -7.7 -2.75 -7.7 0.4 -7.7 3.4 -5.7 5.8 -3.7 8.05 -0.8 8.4 L-0.8 8.65 -0.55 9.25 Q-0.35 9.45 0.0 9.45 L0.6 9.25 0.8 8.65 0.8 8.4 Q3.7 8.05 5.65 5.8 7.7 3.4 7.7 0.4 7.7 -2.75 5.65 -5.0 3.7 -7.3 0.75 -7.65 L0.3 -8.8 M0.0 -10.55 L0.95 -10.0 1.65 -8.6 Q4.75 -8.05 6.8 -5.45 8.85 -3.0 8.85 0.4 8.85 3.6 6.85 6.2 4.9 8.75 1.85 9.4 L1.05 10.3 0.0 10.6 -1.1 10.3 -1.85 9.4 Q-4.9 8.75 -6.85 6.2 -8.85 3.6 -8.85 0.4 -8.85 -3.0 -6.8 -5.45 -4.8 -8.05 -1.65 -8.6 L-0.95 -10.0 0.0 -10.55" fill="#ffffff" fill-rule="evenodd" stroke="none"/>
  </g>
</svg>
