<?xml version="1.0" encoding="UTF-8" standalone="no"?>
<svg xmlns:xlink="http://www.w3.org/1999/xlink" height="22.2px" width="22.2px" xmlns="http://www.w3.org/2000/svg">
  <g transform="matrix(1.0, 0.0, 0.0, 1.0, 11.05, 11.15)">
    <path d="M9.85 -11.15 L9.9 -11.15 Q10.4 -11.15 10.7 -10.75 L10.75 -10.7 Q11.15 -10.4 11.15 -9.9 11.15 -7.9 10.1 -6.35 L7.4 -3.4 8.0 7.95 Q8.05 8.5 7.65 8.9 L5.65 10.75 4.85 11.05 4.5 11.05 Q3.85 10.85 3.7 10.2 L1.3 2.3 -2.05 5.3 -2.05 7.45 Q-2.05 8.0 -2.4 8.3 L-3.85 9.8 Q-4.25 10.15 -4.7 10.15 L-4.95 10.1 Q-5.6 9.95 -5.8 9.35 L-6.25 8.3 -7.15 8.55 Q-7.7 8.55 -8.1 8.15 L-8.15 8.1 Q-8.85 7.4 -8.3 6.25 L-9.35 5.8 Q-10.0 5.55 -10.1 4.95 -10.25 4.3 -9.75 3.85 L-8.3 2.4 Q-7.95 2.05 -7.45 2.05 L-5.3 2.05 -2.3 -1.3 -10.2 -3.65 Q-10.85 -3.85 -11.0 -4.5 -11.2 -5.15 -10.75 -5.65 L-8.9 -7.6 Q-8.5 -8.0 -8.0 -8.0 L3.4 -7.4 Q5.35 -9.35 6.4 -10.05 7.9 -11.15 9.85 -11.15 M9.85 -8.95 L9.95 -9.85 9.85 -9.95 Q8.3 -9.95 7.1 -9.1 5.8 -8.2 3.95 -6.2 L-8.0 -6.8 -9.85 -4.85 -5.95 -3.7 -1.4 -2.3 Q-0.8 -2.0 -0.75 -1.65 -0.7 -1.35 -1.1 -0.85 L-4.8 3.25 -7.45 3.25 -8.9 4.7 -6.5 5.65 -7.0 6.35 Q-7.45 7.1 -7.3 7.25 L-7.25 7.3 -7.15 7.35 -5.65 6.55 -4.7 8.95 -3.25 7.45 -3.25 4.8 0.85 1.1 Q1.3 0.7 1.6 0.7 2.0 0.7 2.3 1.4 L4.85 9.85 6.8 8.0 6.2 -3.9 Q8.2 -5.8 9.1 -7.05 9.65 -7.85 9.85 -8.95" fill="#ffffff" fill-rule="evenodd" stroke="none"/>
  </g>
</svg>
