<?xml version="1.0" encoding="UTF-8" standalone="no"?>
<svg xmlns:xlink="http://www.w3.org/1999/xlink" height="35.95px" width="25.6px" xmlns="http://www.w3.org/2000/svg">
  <g transform="matrix(1.0, 0.0, 0.0, 1.0, 0.0, 0.0)">
    <path d="M20.55 4.3 L20.25 4.95 20.5 5.6 Q21.05 7.05 20.7 8.55 20.4 10.05 19.3 11.0 23.8 12.35 25.3 15.85 25.65 16.45 25.6 16.9 L25.3 17.8 Q24.55 19.7 23.3 20.9 L23.2 21.8 22.55 22.35 22.8 22.9 Q22.85 23.3 22.4 23.5 L21.55 23.55 22.55 32.25 Q23.35 32.45 24.15 32.95 L24.85 33.55 Q24.85 34.35 23.35 34.35 L21.2 34.15 20.5 33.9 20.3 33.85 19.95 34.1 19.15 33.85 18.95 33.0 18.95 32.95 18.6 32.8 17.95 29.55 Q17.6 27.9 16.6 26.05 L14.7 30.35 Q14.05 31.75 13.7 33.1 L13.6 33.5 13.3 33.7 Q13.25 34.55 12.6 35.2 11.95 35.9 11.1 35.95 10.3 36.1 10.0 34.7 9.9 34.1 10.25 33.6 L10.0 33.45 9.95 32.4 10.0 30.75 Q10.2 28.5 11.2 24.1 L11.35 23.25 Q11.95 19.25 11.45 15.9 8.15 15.1 5.75 13.05 3.0 10.65 2.8 7.65 L2.3 6.95 Q1.7 6.05 1.15 6.0 -0.15 5.9 0.0 5.15 0.15 4.4 0.8 4.45 1.35 4.45 2.0 4.9 2.45 5.35 2.5 5.1 2.65 4.8 2.35 4.55 L1.85 4.2 Q1.3 3.75 1.25 3.35 1.05 2.7 1.8 2.65 2.5 2.65 2.9 3.0 3.35 3.45 3.65 4.6 L3.6 3.65 3.3 2.75 Q3.25 2.35 3.6 2.15 L4.25 2.2 Q4.95 2.7 5.05 3.6 L5.1 5.05 5.35 4.8 Q5.75 4.5 6.35 4.8 6.95 5.05 6.75 5.6 L6.0 6.35 Q5.5 6.55 5.4 6.7 L5.25 7.1 Q6.55 9.3 8.3 10.05 L13.5 10.25 12.85 9.55 12.8 9.55 Q12.2 9.6 11.75 8.95 11.35 8.25 11.7 7.7 L11.9 7.65 11.75 7.5 Q11.35 7.0 11.1 5.9 10.7 4.65 11.0 3.75 11.55 2.3 12.25 2.05 L12.7 1.5 13.15 0.9 14.2 0.6 14.55 0.3 Q14.9 0.0 15.2 0.0 L15.3 0.0 Q15.65 0.0 16.2 0.65 16.35 0.85 16.8 0.85 L17.45 0.9 Q17.9 0.95 18.3 1.45 L18.65 1.8 19.05 1.9 Q19.35 1.9 19.45 1.7 19.55 1.5 19.25 1.05 L19.25 1.0 19.75 1.25 20.35 1.85 Q20.6 2.5 20.3 3.1 20.75 3.55 20.55 4.3" fill="#ffffff" fill-rule="evenodd" stroke="none"/>
  </g>
</svg>
