<?xml version="1.0" encoding="UTF-8" standalone="no"?>
<svg xmlns:xlink="http://www.w3.org/1999/xlink" height="32.0px" width="32.0px" xmlns="http://www.w3.org/2000/svg">
  <g transform="matrix(1.0, 0.0, 0.0, 1.0, 0.0, 0.0)">
    <path d="M13.1 10.8 Q13.1 9.45 12.15 8.5 11.2 7.55 9.8 7.55 8.45 7.55 7.5 8.5 6.55 9.45 6.55 10.8 6.55 12.2 7.5 13.15 8.45 14.1 9.8 14.1 11.2 14.1 12.15 13.15 13.1 12.2 13.1 10.8 M27.15 18.75 L25.35 18.75 Q24.25 20.1 21.6 21.2 18.7 22.45 16.0 22.45 13.25 22.45 10.55 21.35 8.1 20.3 6.65 18.75 L4.85 18.75 Q6.05 22.3 9.1 24.45 12.2 26.7 16.0 26.7 19.8 26.7 22.9 24.45 25.95 22.3 27.15 18.75 M27.3 4.7 Q32.0 9.35 32.0 16.0 32.0 22.6 27.3 27.3 22.65 32.0 16.0 32.0 9.35 32.0 4.7 27.3 0.0 22.6 0.0 16.0 0.0 9.35 4.7 4.7 9.35 0.0 16.0 0.0 22.65 0.0 27.3 4.7 M22.15 14.1 Q23.5 14.1 24.5 13.15 25.45 12.2 25.45 10.8 25.45 9.45 24.5 8.5 23.5 7.55 22.15 7.55 20.8 7.55 19.85 8.5 18.85 9.45 18.85 10.8 18.85 12.2 19.85 13.15 20.8 14.1 22.15 14.1" fill="#ffffff" fill-rule="evenodd" stroke="none"/>
  </g>
</svg>
