<?xml version="1.0" encoding="UTF-8" standalone="no"?>
<svg xmlns:xlink="http://www.w3.org/1999/xlink" height="18.8px" width="18.8px" xmlns="http://www.w3.org/2000/svg">
  <g transform="matrix(1.0, 0.0, 0.0, 1.0, 9.4, 9.4)">
    <path d="M3.3 -3.5 L3.3 1.7 5.9 1.7 5.9 -3.5 3.3 -3.5 M2.55 3.1 L-2.65 3.1 -2.65 8.25 2.55 8.25 2.55 3.1 M9.4 9.4 L-9.4 9.4 -9.4 -5.9 -0.25 -9.4 9.4 -5.9 9.4 9.4 M1.3 -3.5 L-1.3 -3.5 -1.3 1.7 1.3 1.7 1.3 -3.5 M-5.95 -3.5 L-5.95 1.7 -3.4 1.7 -3.4 -3.5 -5.95 -3.5" fill="#ffffff" fill-rule="evenodd" stroke="none"/>
  </g>
</svg>
