<?xml version="1.0" encoding="UTF-8" standalone="no"?>
<svg xmlns:xlink="http://www.w3.org/1999/xlink" height="12.35px" width="21.35px" xmlns="http://www.w3.org/2000/svg">
  <g transform="matrix(1.0, 0.0, 0.0, 1.0, 10.65, 6.15)">
    <path d="M6.95 -4.0 L6.85 -4.0 Q6.3 -4.0 5.75 -3.1 4.2 -4.0 1.95 -4.5 L-1.95 -5.05 Q-4.35 -5.05 -6.2 -4.1 -8.0 -3.1 -8.5 -1.6 -9.5 -1.35 -9.5 -0.7 -9.5 -0.1 -8.5 0.2 -7.85 2.05 -5.35 3.0 L-4.85 4.05 -4.5 4.85 -3.95 5.05 0.4 5.05 Q0.75 5.05 1.05 4.7 L1.3 4.05 1.3 3.3 Q4.05 2.75 5.9 1.75 6.3 2.4 6.85 2.4 L6.95 2.4 Q8.1 2.35 9.25 1.2 8.35 1.15 7.5 0.4 L7.75 -0.15 Q9.55 -0.2 9.55 -0.7 9.55 -1.2 7.7 -1.3 L7.35 -1.85 8.6 -2.65 9.25 -2.75 Q8.1 -3.9 6.95 -4.0 M9.05 -4.4 L10.05 -3.6 Q10.55 -3.05 10.3 -2.35 L10.0 -1.9 Q10.7 -1.5 10.7 -0.7 10.7 0.0 10.1 0.45 L10.3 0.8 Q10.55 1.5 10.05 2.0 8.6 3.4 7.0 3.55 L6.85 3.55 Q6.2 3.55 5.65 3.15 L2.5 4.15 Q2.45 5.05 1.8 5.65 1.2 6.2 0.4 6.2 L-3.95 6.2 Q-4.85 6.2 -5.35 5.6 L-5.95 4.5 -6.2 3.85 Q-8.5 2.9 -9.45 1.1 -10.65 0.45 -10.65 -0.7 -10.65 -1.9 -9.45 -2.5 -8.55 -4.2 -6.55 -5.2 -4.5 -6.15 -1.95 -6.15 L1.75 -5.75 Q3.8 -5.3 5.45 -4.55 6.05 -5.15 6.85 -5.15 L7.0 -5.15 Q8.05 -5.05 9.05 -4.4" fill="#ffffff" fill-rule="evenodd" stroke="none"/>
  </g>
</svg>
