<?xml version="1.0" encoding="UTF-8" standalone="no"?>
<svg xmlns:xlink="http://www.w3.org/1999/xlink" height="20.35px" width="21.3px" xmlns="http://www.w3.org/2000/svg">
  <g transform="matrix(1.0, 0.0, 0.0, 1.0, 10.5, 10.15)">
    <path d="M-9.35 5.05 L-3.8 5.05 -3.8 -6.4 -9.35 5.05 M3.55 9.0 L5.6 6.9 -8.45 6.9 -7.2 9.0 3.55 9.0 M3.0 5.05 L9.6 5.05 1.25 -3.6 3.0 5.05 M0.05 -3.4 L0.05 -3.7 -0.75 -8.0 -2.75 -9.0 -2.75 5.05 1.75 5.05 0.05 -3.4 M1.2 -4.8 Q1.7 -4.8 2.0 -4.45 L10.5 4.25 Q11.0 4.8 10.7 5.45 10.4 6.2 9.6 6.2 L6.45 6.2 6.65 6.5 Q6.95 7.15 6.45 7.7 L4.35 9.85 Q4.05 10.2 3.55 10.2 L-7.2 10.2 Q-7.85 10.2 -8.2 9.65 L-9.4 7.5 Q-9.8 6.9 -9.4 6.4 L-9.25 6.2 -9.35 6.2 Q-9.95 6.2 -10.35 5.65 -10.65 5.1 -10.4 4.55 L-4.8 -6.95 Q-4.55 -7.6 -3.85 -7.6 L-3.85 -9.0 Q-3.85 -9.65 -3.3 -10.0 L-2.75 -10.15 -2.25 -10.05 -0.25 -9.05 0.35 -8.2 1.0 -4.75 1.2 -4.8" fill="#ffffff" fill-rule="evenodd" stroke="none"/>
  </g>
</svg>
