<?xml version="1.0" encoding="UTF-8" standalone="no"?>
<svg xmlns:xlink="http://www.w3.org/1999/xlink" height="19.0px" width="17.45px" xmlns="http://www.w3.org/2000/svg">
  <g transform="matrix(1.0, 0.0, 0.0, 1.0, 8.7, 9.5)">
    <path d="M-3.45 4.9 Q-3.45 3.45 -2.4 2.5 -1.4 1.5 0.0 1.5 1.4 1.5 2.35 2.5 3.4 3.45 3.4 4.9 L3.4 6.85 3.1 8.25 Q1.85 9.5 0.1 9.5 L-0.05 9.5 Q-1.85 9.5 -3.05 8.25 -3.45 7.6 -3.45 6.85 L-3.45 4.9 M0.75 -8.35 L0.75 -9.5 1.8 -9.5 Q4.75 -9.5 5.7 -6.15 L8.75 2.55 8.3 3.65 Q7.65 4.9 6.05 5.45 5.25 5.75 4.55 6.45 L4.55 4.9 Q4.55 3.0 3.2 1.65 1.8 0.4 0.0 0.4 -1.85 0.4 -3.25 1.65 -4.6 3.0 -4.6 4.9 L-4.6 6.45 Q-5.25 5.75 -6.05 5.45 -7.65 4.9 -8.3 3.65 L-8.7 2.55 -5.75 -6.15 Q-4.8 -9.5 -1.8 -9.5 L-0.75 -9.5 -0.75 -8.35 0.75 -8.35 M6.15 -1.1 L5.0 -3.15 -5.05 -3.15 -6.15 -1.1 -3.65 0.4 -0.85 -2.1 0.85 -2.1 3.6 0.4 6.15 -1.1" fill="#ffffff" fill-rule="evenodd" stroke="none"/>
  </g>
</svg>
