<?xml version="1.0" encoding="UTF-8" standalone="no"?>
<svg xmlns:xlink="http://www.w3.org/1999/xlink" height="16.45px" width="22.2px" xmlns="http://www.w3.org/2000/svg">
  <g transform="matrix(1.0, 0.0, 0.0, 1.0, 11.1, 8.25)">
    <path d="M7.0 3.7 L5.75 3.3 Q4.3 3.3 3.5 4.6 L3.35 4.85 2.8 5.35 2.05 4.65 1.05 3.7 -0.2 3.3 Q-1.65 3.3 -2.5 4.6 L-2.65 4.85 Q-2.8 5.3 -3.15 5.35 L-3.95 4.65 -4.95 3.7 Q-5.55 3.3 -6.2 3.3 -7.6 3.3 -8.45 4.6 L-8.6 4.85 Q-8.85 5.35 -9.2 5.35 L-9.9 5.35 -9.9 7.0 -9.2 7.0 -8.7 7.0 -8.2 6.85 -7.95 6.7 -7.9 6.65 -7.65 6.45 -7.45 6.3 -7.15 5.95 -6.95 5.65 -6.9 5.5 Q-6.65 5.0 -6.2 4.95 L-5.35 5.7 Q-4.1 7.0 -3.2 7.0 -1.85 7.0 -1.0 5.65 L-0.95 5.5 -0.25 4.95 0.6 5.7 Q1.85 7.0 2.75 7.0 4.15 7.0 5.0 5.65 L5.05 5.5 5.25 5.25 5.75 4.95 6.55 5.7 7.6 6.65 7.75 6.75 7.95 6.85 8.35 7.0 9.5 7.0 9.5 5.35 8.8 5.35 8.0 4.65 7.0 3.7 M9.9 -4.3 L8.95 -4.3 8.95 0.1 9.25 0.35 9.5 0.35 Q10.0 0.35 10.3 0.7 10.7 1.1 10.7 1.55 L10.7 7.0 Q10.7 7.55 10.3 7.85 10.0 8.2 9.5 8.2 L8.75 8.2 Q7.85 8.2 7.0 7.7 L5.8 6.65 Q4.6 8.2 2.75 8.2 1.35 8.2 -0.2 6.65 -1.4 8.2 -3.2 8.2 -4.6 8.2 -6.15 6.65 -7.35 8.2 -9.2 8.2 L-9.9 8.2 -10.75 7.85 -11.1 7.0 -11.1 1.55 -10.75 0.7 Q-10.4 0.35 -9.9 0.35 L-9.6 0.35 -9.45 0.1 -8.85 -0.6 -8.85 -4.3 -9.5 -4.3 Q-9.95 -4.3 -10.3 -4.65 -10.7 -5.0 -10.7 -5.5 L-10.7 -7.05 Q-10.7 -7.55 -10.3 -7.9 L-9.5 -8.25 9.9 -8.25 10.75 -7.9 11.1 -7.05 11.1 -5.5 Q11.1 -5.0 10.75 -4.65 10.4 -4.3 9.9 -4.3 M7.05 -0.05 L5.75 -0.5 Q4.25 -0.5 3.5 0.8 L3.35 1.05 2.8 1.55 2.05 0.85 1.2 0.05 1.1 -0.05 -0.2 -0.5 Q-1.0 -0.5 -2.05 0.5 L-3.15 1.55 -3.95 0.8 -4.95 -0.1 Q-5.55 -0.5 -6.2 -0.5 L-7.65 -0.05 -8.1 0.35 -8.45 0.8 -8.6 1.05 -9.2 1.55 -9.9 1.55 -9.9 3.2 -9.2 3.2 -8.6 3.1 -8.05 2.95 -7.7 2.7 -6.95 1.85 -6.9 1.7 Q-6.6 1.15 -6.2 1.15 L-5.35 1.9 Q-4.1 3.2 -3.2 3.2 -1.75 3.2 -1.0 1.85 L-0.95 1.7 -0.25 1.15 0.6 1.9 Q1.85 3.2 2.75 3.2 4.2 3.2 5.0 1.85 L5.05 1.7 5.25 1.4 5.75 1.15 6.55 1.9 Q7.85 3.2 8.75 3.2 L9.5 3.2 9.5 1.55 8.8 1.55 8.0 0.8 7.4 0.2 7.15 0.05 7.05 -0.05 M1.6 -5.5 L1.6 -0.8 1.7 -0.7 2.65 0.15 3.15 -0.35 3.15 -5.5 6.25 -5.5 6.25 -1.8 Q6.85 -1.55 7.65 -0.7 L7.75 -0.65 7.75 -5.5 9.9 -5.5 9.9 -7.05 -9.5 -7.05 -9.5 -5.5 -7.65 -5.5 -7.65 -1.55 -6.4 -1.9 -6.1 -1.85 -6.1 -5.5 -3.05 -5.5 -3.05 -0.05 -2.7 -0.55 -1.45 -1.7 -1.45 -5.5 1.6 -5.5" fill="#ffffff" fill-rule="evenodd" stroke="none"/>
  </g>
</svg>
