<?xml version="1.0" encoding="UTF-8" standalone="no"?>
<svg xmlns:xlink="http://www.w3.org/1999/xlink" height="19.0px" width="14.6px" xmlns="http://www.w3.org/2000/svg">
  <g transform="matrix(1.0, 0.0, 0.0, 1.0, 7.3, 9.5)">
    <path d="M-2.3 -3.25 L-2.4 -3.25 -2.35 -3.55 -2.05 -3.9 -1.4 -2.45 -1.7 -1.75 -1.85 -1.35 -2.15 -1.95 -2.35 -2.4 -2.5 -2.7 -2.2 -3.1 -2.3 -3.25 M0.85 3.3 L0.55 3.7 0.55 5.35 0.7 6.7 0.0 6.7 -1.35 6.8 -1.2 6.45 -1.15 5.5 -0.7 4.3 -0.55 3.1 0.45 0.9 0.85 3.3 M0.9 -7.5 L0.7 -8.1 -0.15 -8.45 -0.2 -8.45 -0.7 -8.25 -1.0 -7.8 -1.15 -7.45 Q-1.2 -7.15 -1.5 -7.0 -1.65 -6.9 -1.4 -6.75 L-1.05 -6.55 -0.65 -6.25 -0.8 -6.15 -1.35 -5.95 -2.35 -5.65 -3.05 -4.9 -3.4 -3.95 -4.0 -3.7 -3.85 -2.95 -3.35 -2.7 -3.35 -2.45 -3.05 -1.9 -2.0 -0.9 -2.0 -0.6 -2.5 -0.4 -2.85 0.5 Q-3.05 1.25 -4.05 2.5 -4.2 2.85 -3.75 2.95 L-3.4 3.1 -2.3 0.6 -1.85 0.45 -1.85 2.85 -2.15 3.2 -2.15 5.8 -2.5 6.55 -2.5 6.9 Q-5.4 7.35 -6.25 8.4 L6.25 8.4 Q5.55 7.4 3.0 7.0 L1.7 6.5 1.7 5.35 1.9 3.15 2.3 0.8 2.5 0.0 2.85 -0.05 3.15 -0.1 2.55 -1.0 2.35 -1.2 2.3 -1.45 2.3 -2.1 2.3 -2.85 2.3 -3.05 2.2 -3.3 2.2 -3.6 2.3 -4.1 2.2 -5.15 3.65 -7.1 3.4 -7.3 3.25 -7.25 1.85 -5.55 1.4 -5.9 1.0 -6.05 0.55 -6.15 Q0.3 -6.3 0.45 -6.55 L0.55 -6.6 0.85 -6.6 1.0 -6.95 0.9 -7.5 M1.5 -8.8 L1.9 -7.75 2.0 -7.3 2.5 -7.9 2.55 -7.95 Q2.9 -8.3 3.4 -8.3 4.1 -8.3 4.55 -7.65 4.9 -7.0 4.5 -6.55 L3.25 -4.9 3.25 -3.45 3.25 -2.55 3.25 -1.75 Q3.75 -1.35 4.05 -0.4 L4.0 0.45 3.25 0.9 2.9 3.2 2.7 5.85 3.2 6.0 Q6.1 6.55 7.1 7.85 7.45 8.3 7.2 8.9 6.85 9.5 6.25 9.5 L-6.25 9.5 Q-6.85 9.5 -7.2 8.9 -7.45 8.35 -7.05 7.85 -6.1 6.55 -3.35 6.0 L-3.15 5.65 -3.15 4.1 -3.4 4.1 Q-4.4 4.1 -4.85 3.45 -5.25 2.8 -5.0 2.1 L-4.85 1.85 -3.75 0.15 -3.5 -0.85 -3.9 -1.35 -4.25 -1.95 -4.35 -2.05 Q-4.75 -2.25 -4.85 -2.75 L-5.0 -3.45 Q-5.1 -4.25 -4.5 -4.55 L-4.25 -4.7 -4.05 -5.3 -2.9 -6.55 -2.55 -6.75 -2.55 -6.8 Q-2.65 -7.4 -2.15 -7.8 L-1.8 -8.5 -1.7 -8.6 Q-1.05 -9.5 -0.2 -9.5 L0.0 -9.5 Q1.0 -9.3 1.5 -8.8" fill="#ffffff" fill-rule="evenodd" stroke="none"/>
  </g>
</svg>
