<?xml version="1.0" encoding="UTF-8" standalone="no"?>
<svg xmlns:xlink="http://www.w3.org/1999/xlink" height="15.1px" width="21.25px" xmlns="http://www.w3.org/2000/svg">
  <g transform="matrix(1.0, 0.0, 0.0, 1.0, 10.55, 7.9)">
    <path d="M2.1 3.3 L2.3 3.55 2.3 6.1 8.9 6.1 3.0 -6.9 -2.9 -6.9 -8.75 6.1 -2.15 6.1 -2.15 3.55 -1.95 3.3 2.1 3.3 M1.25 7.2 L1.25 4.35 -1.05 4.35 -1.05 7.2 -10.55 7.2 -3.8 -7.4 -3.5 -7.9 3.6 -7.9 10.7 7.2 1.25 7.2 M0.7 -4.0 Q0.4 -3.65 0.05 -3.65 L-0.5 -4.0 -0.75 -4.95 -0.5 -5.8 0.05 -6.15 0.7 -5.8 0.95 -4.95 0.7 -4.0" fill="#ffffff" fill-rule="evenodd" stroke="none"/>
  </g>
</svg>
