<?xml version="1.0" encoding="UTF-8" standalone="no"?>
<svg xmlns:xlink="http://www.w3.org/1999/xlink" height="21.1px" width="20.45px" xmlns="http://www.w3.org/2000/svg">
  <g transform="matrix(1.0, 0.0, 0.0, 1.0, 9.7, 10.3)">
    <path d="M-3.4 -8.65 L-3.95 -9.1 -5.75 -7.9 Q-6.5 -7.45 -7.55 -7.15 L-7.55 -3.9 -0.45 -3.9 -0.45 -7.15 -2.3 -7.9 -3.4 -8.65 M4.6 -5.25 L3.7 -4.6 2.05 -3.55 Q1.0 -2.95 -0.4 -2.45 L-0.4 0.5 -1.6 -0.45 -2.8 0.4 -5.1 1.9 Q-6.55 2.75 -8.5 3.35 L-8.5 9.6 5.25 9.6 5.25 3.35 1.9 2.05 9.5 2.05 9.55 -2.45 6.95 -3.5 Q6.3 -3.85 5.35 -4.6 L4.6 -5.25 M3.85 -6.2 L4.6 -6.45 5.35 -6.15 Q6.8 -4.95 7.5 -4.55 L9.9 -3.6 Q10.75 -3.3 10.75 -2.45 L10.7 2.05 10.35 2.9 Q10.0 3.25 9.5 3.25 L6.45 3.25 6.45 9.6 6.1 10.5 5.25 10.8 -8.5 10.8 -9.35 10.5 -9.7 9.6 -9.7 3.35 Q-9.7 2.55 -8.85 2.25 -7.05 1.65 -5.7 0.85 L-3.5 -0.55 -2.3 -1.45 -1.6 -1.65 -1.6 -2.5 -1.55 -2.7 -7.55 -2.7 Q-8.05 -2.7 -8.4 -3.05 -8.75 -3.4 -8.75 -3.9 L-8.75 -7.15 Q-8.75 -7.95 -7.9 -8.25 -7.0 -8.55 -6.4 -8.95 L-4.7 -10.05 -3.95 -10.3 -3.2 -10.0 -1.7 -8.95 -0.1 -8.25 0.55 -7.8 0.75 -7.15 0.75 -4.2 1.45 -4.6 3.0 -5.6 3.85 -6.2" fill="#ffffff" fill-rule="evenodd" stroke="none"/>
  </g>
</svg>
