<?xml version="1.0" encoding="UTF-8" standalone="no"?>
<svg xmlns:xlink="http://www.w3.org/1999/xlink" height="22.2px" width="18.3px" xmlns="http://www.w3.org/2000/svg">
  <g transform="matrix(1.0, 0.0, 0.0, 1.0, 9.15, 11.1)">
    <path d="M2.05 -9.85 L3.1 -7.7 3.2 -7.55 Q3.25 -7.3 3.8 -7.15 4.55 -6.95 4.7 -6.2 4.85 -5.5 4.25 -5.0 L4.15 -5.0 4.15 -1.55 4.45 -1.2 4.75 -0.4 4.75 0.15 8.65 3.2 Q9.05 3.5 9.1 3.95 L8.95 4.75 8.75 5.15 8.1 5.65 8.1 9.9 Q8.1 10.4 7.75 10.75 7.4 11.1 6.9 11.1 L-6.9 11.1 Q-7.4 11.1 -7.75 10.75 -8.1 10.4 -8.1 9.9 L-8.1 5.65 -8.75 5.15 -8.95 4.75 -9.1 3.95 Q-9.05 3.5 -8.65 3.2 L-4.75 0.15 -4.75 -0.4 -4.45 -1.2 -4.15 -1.55 -4.15 -5.0 -4.2 -5.0 Q-4.85 -5.5 -4.65 -6.2 -4.5 -6.95 -3.8 -7.15 L-3.15 -7.55 -3.1 -7.7 -2.05 -9.85 Q-1.2 -11.1 -0.05 -11.1 L0.05 -11.1 Q1.2 -11.1 2.05 -9.85 M2.05 -7.1 L1.3 -8.8 Q0.7 -9.9 0.05 -9.9 L-0.05 -9.9 Q-0.7 -9.9 -1.3 -8.8 L-2.05 -7.1 Q-2.35 -6.25 -3.5 -5.95 L-2.95 -5.6 -2.95 -1.05 -3.55 -0.4 -3.55 0.75 -7.9 4.15 -7.7 4.55 -6.9 4.55 -6.9 9.9 6.9 9.9 6.9 4.55 7.7 4.55 7.9 4.15 3.55 0.75 3.55 -0.4 2.95 -1.05 2.95 -5.6 3.5 -5.95 Q2.35 -6.25 2.05 -7.1" fill="#ffffff" fill-rule="evenodd" stroke="none"/>
  </g>
</svg>
