<?xml version="1.0" encoding="UTF-8" standalone="no"?>
<svg xmlns:xlink="http://www.w3.org/1999/xlink" height="21.45px" width="21.75px" xmlns="http://www.w3.org/2000/svg">
  <g transform="matrix(1.0, 0.0, 0.0, 1.0, 10.9, 10.55)">
    <path d="M5.45 -9.6 L6.15 -9.8 6.7 -9.7 Q7.35 -9.35 7.35 -8.6 L7.35 0.7 7.5 0.7 Q8.05 0.7 8.45 1.2 8.8 1.7 8.65 2.25 L8.3 3.5 8.5 3.5 9.35 3.25 9.65 3.2 10.4 3.45 Q10.85 3.85 10.85 4.4 L10.85 9.7 10.5 10.55 Q10.15 10.9 9.65 10.9 L-9.7 10.9 -10.55 10.55 Q-10.9 10.2 -10.9 9.7 L-10.9 4.05 Q-10.9 3.45 -10.4 3.1 L-10.3 3.05 -10.3 -1.8 -10.4 -1.85 Q-10.9 -2.25 -10.9 -2.85 L-10.9 -7.05 -10.6 -7.8 -10.0 -8.25 -10.0 -9.35 Q-10.0 -10.05 -9.4 -10.4 L-8.8 -10.55 -8.15 -10.35 -7.1 -9.7 -6.35 -9.3 Q-5.65 -9.0 -5.6 -8.25 -5.05 -8.25 -4.7 -7.8 -4.35 -7.35 -4.5 -6.75 L-4.7 -6.15 -4.6 -5.9 Q-4.4 -5.3 -4.75 -4.8 L-5.0 -4.6 -5.0 -3.8 -4.0 -3.8 Q-3.2 -3.8 -2.9 -3.0 -2.6 -2.2 -3.3 -1.65 L-4.2 -0.95 Q-4.5 -0.7 -4.95 -0.7 L-5.0 -0.7 -5.0 -0.3 -4.95 -0.35 -4.35 -0.5 Q-3.85 -0.5 -3.55 -0.15 L-3.2 0.15 Q-2.8 0.5 -2.8 1.05 L-2.8 2.6 -2.35 2.6 -2.05 1.95 -2.05 1.05 -2.1 0.45 -2.05 -0.25 -2.05 -3.8 -1.7 -4.65 Q-1.35 -5.0 -0.85 -5.0 L-0.05 -5.0 Q0.5 -5.0 0.8 -4.65 L1.15 -3.8 1.15 -2.2 1.6 -1.9 2.35 -2.25 2.35 -6.3 2.45 -6.65 2.95 -7.35 3.8 -7.8 4.35 -8.7 4.7 -9.1 5.45 -9.6 M6.15 -8.6 L5.35 -8.1 4.65 -6.9 3.55 -6.3 3.55 -1.05 2.45 -1.05 3.15 1.35 2.7 2.0 2.7 2.8 1.7 2.8 1.7 2.6 0.85 2.6 0.85 2.8 -0.05 2.8 -0.05 0.6 0.8 0.6 0.8 -1.05 -0.05 -1.05 -0.05 -3.8 -0.85 -3.8 -0.85 -0.15 -0.95 0.6 -0.85 0.6 -0.85 2.8 -1.15 2.8 -1.25 3.35 -0.85 3.35 -0.85 5.55 -1.75 5.55 -1.75 3.8 -2.8 3.8 -2.8 4.65 -4.0 4.65 -4.0 1.05 -4.35 0.7 -4.95 1.05 -6.2 1.05 -6.2 -1.9 -4.95 -1.9 -4.0 -2.6 -6.2 -2.6 -6.2 -5.5 -5.75 -5.5 -5.95 -6.15 -5.65 -7.05 -6.8 -7.05 -6.8 -8.25 -7.65 -8.65 -8.8 -9.35 -8.8 -7.05 -9.7 -7.05 -9.7 -2.85 -9.1 -2.45 -9.1 3.65 -9.7 4.05 -9.7 9.7 9.65 9.7 9.65 4.4 8.65 4.7 6.15 4.7 6.15 3.3 7.1 3.3 7.5 1.9 6.15 1.9 6.15 -8.6" fill="#ffffff" fill-rule="evenodd" stroke="none"/>
  </g>
</svg>
