<?xml version="1.0" encoding="UTF-8" standalone="no"?>
<svg xmlns:xlink="http://www.w3.org/1999/xlink" height="21.35px" width="18.85px" xmlns="http://www.w3.org/2000/svg">
  <g transform="matrix(1.0, 0.0, 0.0, 1.0, 9.5, 10.9)">
    <path d="M7.0 -3.25 Q7.35 -6.25 6.0 -8.95 L0.25 -3.25 -3.7 -5.1 -1.85 -1.1 -7.65 4.65 Q-5.6 5.65 -3.15 5.65 0.3 5.65 3.05 3.6 L2.2 9.35 8.1 9.35 7.05 2.1 4.6 2.1 Q6.55 -0.25 7.0 -3.25 M0.0 -4.55 L6.35 -10.9 7.05 -9.45 Q8.2 -6.95 8.1 -4.15 8.1 -1.45 6.75 1.0 L8.0 1.0 9.35 10.45 0.9 10.45 1.65 5.7 Q-0.7 6.8 -3.15 6.8 -5.75 6.8 -8.1 5.65 L-9.5 4.95 -3.2 -1.3 -5.95 -7.3 0.0 -4.55" fill="#ffffff" fill-rule="evenodd" stroke="none"/>
  </g>
</svg>
