<?xml version="1.0" encoding="UTF-8" standalone="no"?>
<svg xmlns:xlink="http://www.w3.org/1999/xlink" height="35.0px" width="16.35px" xmlns="http://www.w3.org/2000/svg">
  <g transform="matrix(1.0, 0.0, 0.0, 1.0, 8.1, 14.0)">
    <path d="M-8.1 -0.5 L8.25 -0.5 8.25 21.0 -8.1 21.0 -8.1 -0.5 M4.85 10.7 Q5.2 11.05 5.2 11.55 L4.85 12.4 4.05 12.65 3.25 12.4 Q2.9 12.05 2.9 11.55 2.9 11.05 3.25 10.7 L4.05 10.45 Q4.55 10.45 4.85 10.7 M-4.85 7.85 L-4.85 3.0 5.0 3.0 5.0 7.85 -4.85 7.85 M-3.25 4.6 L-3.25 6.3 3.45 6.3 3.45 4.6 -3.25 4.6 M-6.55 1.1 L-6.55 19.45 6.65 19.45 6.65 1.1 -6.55 1.1" fill="#ffffff" fill-rule="evenodd" stroke="none"/>
    <path d="M3.8 -6.65 L0.8 -6.65 0.8 0.4 -0.45 0.4 -0.45 -6.65 -3.45 -6.65 -3.45 -14.0 3.8 -14.0 3.8 -6.65" fill="#ffffff" fill-rule="evenodd" stroke="none"/>
  </g>
</svg>
