<?xml version="1.0" encoding="UTF-8" standalone="no"?>
<svg xmlns:xlink="http://www.w3.org/1999/xlink" height="20.3px" width="20.3px" xmlns="http://www.w3.org/2000/svg">
  <g transform="matrix(1.0, 0.0, 0.0, 1.0, 10.15, 10.15)">
    <path d="M6.7 -4.25 L8.35 -4.25 8.35 -4.7 8.95 -4.7 8.95 -5.35 -0.05 -8.95 -8.95 -5.35 -8.95 -4.7 -8.45 -4.7 -8.45 -4.25 -6.7 -4.25 -6.7 6.5 -8.05 6.5 -8.05 7.4 -8.45 7.4 -8.45 8.2 -8.95 8.2 -8.95 8.95 8.95 8.95 8.95 8.2 8.35 8.2 8.35 7.4 8.0 7.4 8.0 6.5 6.7 6.5 6.7 -4.25 M8.35 -3.05 L7.9 -3.05 7.9 5.3 8.0 5.3 Q8.45 5.3 8.8 5.65 L9.2 6.5 9.55 7.15 Q10.15 7.55 10.15 8.2 L10.15 8.95 9.8 9.8 8.95 10.15 -8.95 10.15 -9.8 9.8 -10.15 8.95 -10.15 8.2 Q-10.15 7.55 -9.65 7.2 L-9.25 6.5 Q-9.25 6.0 -8.9 5.65 -8.55 5.3 -8.05 5.3 L-7.9 5.3 -7.9 -3.05 -8.45 -3.05 Q-9.1 -3.05 -9.5 -3.65 -10.15 -3.95 -10.15 -4.7 L-10.15 -5.35 Q-10.15 -6.15 -9.4 -6.45 L-0.5 -10.1 -0.05 -10.15 0.4 -10.1 9.4 -6.45 Q10.15 -6.15 10.15 -5.35 L10.15 -4.7 Q10.15 -3.9 9.4 -3.6 9.05 -3.05 8.35 -3.05" fill="#ffffff" fill-rule="evenodd" stroke="none"/>
  </g>
</svg>
