<?xml version="1.0" encoding="UTF-8" standalone="no"?>
<svg xmlns:xlink="http://www.w3.org/1999/xlink" height="20.65px" width="22.0px" xmlns="http://www.w3.org/2000/svg">
  <g transform="matrix(1.0, 0.0, 0.0, 1.0, 10.1, 10.05)">
    <path d="M4.35 -1.65 L0.05 -7.5 -1.7 -5.2 -1.7 -8.85 -2.45 -8.85 -2.45 -4.15 -4.3 -1.65 -3.3 -1.65 -3.3 -0.25 -8.9 4.75 -7.85 4.75 -7.85 9.4 9.65 9.4 9.65 2.85 10.65 2.85 6.3 -1.15 3.35 1.6 3.35 -1.65 4.35 -1.65 M5.5 -2.05 L6.3 -2.35 Q6.85 -2.35 7.15 -2.05 L11.5 2.0 Q12.1 2.55 11.8 3.3 11.55 3.95 10.85 4.05 L10.85 9.4 10.5 10.25 Q10.15 10.6 9.65 10.6 L-7.85 10.6 Q-8.35 10.6 -8.7 10.25 L-9.05 9.4 -9.05 5.9 Q-9.75 5.85 -10.05 5.15 -10.3 4.4 -9.7 3.85 L-4.75 -0.55 -5.4 -1.15 Q-5.7 -1.8 -5.25 -2.4 L-3.65 -4.5 -3.65 -8.85 -3.3 -9.7 Q-2.95 -10.05 -2.45 -10.05 L-1.7 -10.05 Q-1.2 -10.05 -0.85 -9.7 -0.5 -9.3 -0.5 -8.85 L-0.5 -8.6 0.05 -8.7 Q0.6 -8.7 1.0 -8.25 L5.35 -2.4 5.5 -2.05" fill="#ffffff" fill-rule="evenodd" stroke="none"/>
  </g>
</svg>
