<?xml version="1.0" encoding="UTF-8" standalone="no"?>
<svg xmlns:xlink="http://www.w3.org/1999/xlink" height="19.8px" width="14.95px" xmlns="http://www.w3.org/2000/svg">
  <g transform="matrix(1.0, 0.0, 0.0, 1.0, 7.45, 9.9)">
    <path d="M-0.8 5.95 Q-0.8 5.35 -1.0 5.25 L-1.0 6.25 -1.25 6.65 -0.1 6.35 0.7 6.25 3.0 6.25 3.0 6.95 0.8 6.95 0.4 6.8 0.2 7.3 0.55 7.75 1.0 7.5 3.6 7.5 3.6 5.65 1.1 5.65 0.2 5.75 -0.8 5.95 M-2.9 0.75 L-3.25 0.5 -2.7 0.1 -2.35 0.95 -2.9 0.75 M-0.6 0.45 L-1.4 0.95 Q-1.1 0.7 -1.15 0.15 L-0.6 0.45 M-6.6 -0.2 L-6.95 -0.1 Q-6.95 0.05 -6.55 0.1 L-6.35 0.5 -6.15 1.0 -6.25 1.7 -6.15 2.35 -6.15 2.15 -5.95 1.95 -5.85 2.45 -5.95 2.85 -5.55 3.25 Q-5.45 3.65 -5.65 3.85 L-6.05 3.85 -6.2 3.45 -6.2 3.05 -6.6 2.0 -6.75 0.8 Q-7.1 1.1 -6.95 1.85 L-6.7 2.95 Q-7.7 2.0 -7.4 -0.5 L-6.5 -0.7 -6.3 -0.45 -6.2 -0.05 -6.6 -0.2 M5.1 -0.75 Q5.55 -0.75 5.9 -0.4 L6.2 0.35 5.9 1.1 Q5.55 1.45 5.1 1.45 4.65 1.45 4.3 1.1 4.0 0.8 4.0 0.35 4.0 -0.1 4.3 -0.4 4.65 -0.75 5.1 -0.75 M0.35 -0.35 Q0.4 -0.85 0.1 -0.8 L-3.0 -1.1 Q-3.4 -1.3 -3.8 -1.1 L-4.6 -0.7 Q-4.9 -0.5 -4.6 -0.5 L-4.1 -0.55 -3.55 -0.55 -2.95 -0.35 -2.65 -0.25 -3.55 0.35 -3.25 -0.1 -3.65 0.15 -4.0 0.5 -3.55 0.5 -2.85 0.95 -1.9 1.25 Q-1.25 1.25 -0.8 0.9 L-0.4 0.45 -0.9 -0.05 -0.2 -0.15 0.25 0.2 0.35 -0.35 M0.95 -9.9 L1.55 -9.9 1.5 -1.9 2.35 -1.9 Q2.75 -1.9 3.1 -2.25 L3.4 -3.05 3.35 -8.35 Q5.6 -7.85 6.35 -6.45 7.1 -5.15 7.35 -3.4 L7.4 -1.4 4.0 -1.4 Q3.35 -1.4 2.75 -0.85 2.05 -0.25 2.05 0.65 L2.05 4.35 1.4 4.7 Q0.75 4.7 0.4 4.25 -0.05 4.2 -0.2 4.45 -0.3 4.1 -0.05 3.85 -0.2 3.7 -0.35 3.95 L-0.5 4.45 -0.1 4.7 0.3 4.55 0.7 4.75 1.15 5.0 3.1 5.0 3.7 2.05 6.8 2.05 6.85 2.2 Q7.0 3.45 6.65 3.8 6.15 4.25 5.45 5.75 4.7 7.3 4.65 8.05 L4.3 9.4 3.85 9.85 1.55 9.9 1.45 9.05 1.0 9.9 -0.95 9.85 -1.8 9.2 Q-2.55 8.45 -2.8 7.5 -2.95 6.95 -3.55 6.1 L-4.45 4.65 Q-5.3 2.95 -5.6 1.35 -5.9 -0.35 -5.8 -2.7 L-5.65 -3.95 -5.05 -5.95 -4.25 -7.4 Q-3.35 -8.65 -1.75 -9.4 L-0.95 -9.65 0.95 -9.9" fill="#ffffff" fill-rule="evenodd" stroke="none"/>
  </g>
</svg>
