<?xml version="1.0" encoding="UTF-8" standalone="no"?>
<svg xmlns:xlink="http://www.w3.org/1999/xlink" height="22.2px" width="17.35px" xmlns="http://www.w3.org/2000/svg">
  <g transform="matrix(1.0, 0.0, 0.0, 1.0, 8.7, 11.1)">
    <path d="M0.1 5.8 L0.8 5.6 1.15 5.7 3.6 5.7 3.6 7.5 1.0 7.5 0.55 7.8 0.55 7.75 0.2 7.35 0.4 6.8 0.8 6.95 3.0 6.95 3.0 6.25 0.7 6.25 -1.25 6.65 Q-1.15 6.55 -1.0 5.25 -0.85 5.35 -0.8 5.95 L-0.55 6.05 0.1 5.8 M0.1 -0.8 L0.15 -0.8 Q0.35 -0.8 0.35 -0.25 L0.55 0.35 Q0.65 0.95 0.2 1.35 -0.7 2.15 -2.35 2.15 L-2.45 2.15 Q-3.1 2.1 -3.8 1.6 L-3.85 1.55 -4.4 0.8 Q-4.55 0.25 -4.2 -0.2 L-3.8 -0.6 -3.95 -0.6 -4.1 -0.55 -4.5 -0.5 Q-4.9 -0.5 -4.6 -0.7 L-4.0 -1.0 -3.4 -1.2 -3.0 -1.1 -2.2 -1.0 0.1 -0.8 M1.55 -9.85 L0.95 -9.9 -0.95 -9.65 -1.75 -9.4 Q-3.35 -8.65 -4.25 -7.4 L-5.05 -5.95 -5.65 -3.95 -5.8 -2.7 -5.8 -0.85 -5.5 1.25 -4.45 4.65 -3.55 6.1 Q-2.95 6.95 -2.8 7.55 -2.55 8.45 -1.8 9.2 L-0.95 9.85 0.85 9.9 1.0 9.9 1.45 9.05 1.55 9.9 3.85 9.85 4.3 9.4 4.65 8.05 Q4.7 7.3 5.45 5.75 6.15 4.3 6.65 3.8 7.0 3.5 6.85 2.2 L6.8 2.05 6.55 2.05 Q5.95 2.65 5.1 2.65 4.3 2.65 3.7 2.15 L3.1 5.0 1.15 5.0 0.7 4.75 0.3 4.55 -0.05 4.7 -0.5 4.45 -0.4 4.0 -0.1 3.8 -0.05 3.85 Q-0.35 4.1 -0.2 4.45 -0.1 4.25 0.2 4.25 L0.4 4.25 Q0.75 4.7 1.4 4.7 L2.05 4.35 2.05 0.65 Q2.05 -0.85 3.7 -1.25 L6.55 -1.4 7.4 -1.4 7.35 -3.4 Q7.1 -5.15 6.35 -6.45 5.6 -7.85 3.35 -8.35 L3.4 -3.0 3.1 -2.2 Q2.75 -1.9 2.35 -1.9 L1.5 -1.9 1.55 -9.85 M7.4 -7.0 L7.75 -6.35 Q8.35 -5.05 8.55 -3.55 L8.65 -2.4 8.65 -1.75 8.5 -0.95 Q8.3 -0.4 7.75 -0.2 L7.4 -0.2 7.3 -0.2 7.4 0.35 7.3 1.0 7.75 1.35 7.85 1.45 8.05 2.05 8.05 2.15 8.1 3.4 7.75 4.35 7.45 4.7 Q7.1 5.0 6.5 6.3 5.85 7.6 5.85 8.1 5.8 9.35 5.25 10.25 4.7 11.05 3.9 11.05 L1.55 11.1 1.3 11.05 1.0 11.1 0.85 11.1 -1.25 11.0 -2.8 9.95 Q-3.65 8.95 -3.95 7.85 L-4.7 6.55 -5.55 5.2 -5.6 5.05 -6.05 5.05 -6.8 4.85 -7.25 4.25 -7.55 3.8 Q-8.4 2.95 -8.6 1.35 L-8.6 -0.65 Q-8.5 -1.2 -8.0 -1.55 L-7.95 -1.55 -7.0 -1.9 -6.85 -4.15 -6.2 -6.45 -5.2 -8.15 Q-4.1 -9.65 -2.2 -10.45 L-2.2 -10.5 -1.25 -10.8 0.95 -11.1 1.1 -11.05 1.55 -11.05 Q2.05 -11.05 2.35 -10.7 2.75 -10.35 2.75 -9.85 L2.75 -9.35 3.35 -9.55 3.65 -9.5 Q6.4 -8.9 7.4 -7.0" fill="#ffffff" fill-rule="evenodd" stroke="none"/>
  </g>
</svg>
