<?xml version="1.0" encoding="UTF-8" standalone="no"?>
<svg xmlns:xlink="http://www.w3.org/1999/xlink" height="21.7px" width="22.2px" xmlns="http://www.w3.org/2000/svg">
  <g transform="matrix(1.0, 0.0, 0.0, 1.0, 11.1, 10.85)">
    <path d="M5.95 3.8 L5.6 4.25 Q4.85 5.05 3.85 5.05 2.95 5.05 2.35 4.4 L2.3 4.3 2.0 3.8 1.6 3.55 1.55 3.65 1.15 5.05 1.0 5.1 1.1 4.55 1.15 4.1 1.1 4.1 0.95 4.45 0.8 5.15 -1.45 5.3 -1.65 5.2 -1.45 4.6 -1.0 4.0 -0.7 3.6 -0.75 3.55 -1.0 3.55 Q-1.65 3.55 -2.95 4.05 -3.55 4.85 -4.55 4.85 L-5.05 4.75 -6.3 4.85 -8.15 4.65 -8.6 4.6 -8.75 4.6 -8.9 4.65 -8.8 4.95 -8.6 5.15 Q-7.8 5.7 -7.55 6.2 L-7.75 6.2 -8.3 6.4 -8.3 6.5 -7.85 6.65 -7.75 6.65 -8.1 6.9 -8.65 7.1 -8.65 7.15 -8.15 7.45 -8.05 7.7 -7.3 7.9 -7.1 7.95 -7.0 7.95 -6.95 8.85 Q-6.8 9.5 -6.2 9.5 L-5.65 9.35 -5.05 8.6 -5.05 8.55 -4.85 8.05 4.05 8.35 4.1 8.3 4.6 7.4 4.5 7.6 4.4 8.2 Q4.3 8.8 4.65 9.35 L4.7 9.35 Q4.95 9.65 5.3 9.65 5.75 9.65 6.1 9.25 6.85 8.55 6.8 7.45 L6.8 7.3 6.95 8.05 7.1 8.1 7.45 7.95 7.75 7.1 7.8 6.95 8.0 7.0 Q8.3 7.0 8.4 6.8 L8.4 6.7 Q8.3 6.5 8.0 6.5 L7.9 6.5 8.0 6.3 8.15 6.35 8.85 6.3 9.25 6.1 9.3 6.05 8.8 5.85 8.35 5.9 8.25 5.95 8.3 5.9 8.65 5.6 8.75 5.65 8.8 5.55 8.75 5.55 8.95 5.5 8.95 5.45 9.25 5.0 9.05 4.5 9.0 4.5 8.75 4.25 8.8 4.15 8.75 4.1 8.65 4.25 8.4 4.15 8.1 4.05 8.0 4.0 8.1 3.85 8.2 3.65 8.25 3.35 7.7 3.35 6.1 3.7 5.95 3.8 M0.15 -2.0 L1.45 -2.95 1.7 -3.05 1.7 -3.1 0.35 -3.05 -0.95 -2.05 -1.35 -1.75 -1.6 -1.6 -2.05 -1.6 -3.9 -1.75 -4.6 -1.6 -5.55 -1.85 -6.1 -1.7 -6.25 -1.6 -6.8 -1.0 Q-8.2 -0.7 -9.55 0.0 L-9.85 0.15 -9.9 0.25 -9.1 0.95 Q-8.1 1.6 -6.45 1.85 L-6.4 2.2 -6.35 2.2 -6.2 2.1 -6.25 1.9 -6.05 1.9 Q-5.95 2.7 -5.35 3.2 L-5.0 3.5 -3.75 3.1 Q-3.5 2.5 -3.6 2.1 L2.5 2.25 2.65 2.45 2.8 2.4 2.8 2.35 2.75 2.2 2.95 2.2 2.9 2.35 2.95 3.05 3.3 3.3 5.15 2.75 5.3 2.35 8.15 1.6 8.95 1.15 9.05 1.25 9.1 1.15 9.05 1.1 9.55 0.65 9.7 0.85 9.75 0.85 9.85 0.8 9.9 0.75 9.7 0.5 9.85 0.2 9.8 0.2 9.65 0.3 9.65 0.35 9.6 0.4 9.2 -0.05 9.25 -0.05 9.35 0.0 9.4 0.0 9.45 -0.05 9.4 -0.1 9.3 -0.15 9.1 -0.1 7.5 -1.3 7.25 -1.8 6.9 -1.75 Q6.2 -1.75 5.7 -2.15 5.15 -2.5 4.75 -3.2 L2.2 -3.1 2.9 -3.0 2.95 -3.0 3.05 -2.95 4.15 -2.45 5.15 -1.25 4.15 -0.95 4.1 -1.1 4.1 -1.0 4.05 -0.9 2.75 -0.75 0.95 -0.75 0.5 -1.45 0.45 -1.45 0.3 -1.4 0.2 -1.3 0.55 -0.8 -0.85 -0.9 0.15 -2.0 M1.75 -8.45 L2.15 -7.85 2.35 -7.3 Q2.35 -7.2 2.15 -7.2 L-0.05 -7.35 -0.2 -8.05 -0.4 -8.4 -0.45 -8.4 -0.45 -8.35 -0.4 -7.9 -0.3 -7.4 -0.5 -7.4 -0.85 -8.85 -0.85 -8.9 -0.8 -8.95 1.75 -8.45 M8.45 -6.25 L8.3 -6.25 Q8.5 -6.8 9.25 -7.35 9.7 -7.65 9.6 -7.85 L9.45 -7.9 9.35 -7.9 8.8 -7.85 7.0 -7.6 4.75 -8.0 3.1 -8.65 0.4 -9.4 -0.95 -9.65 -1.15 -9.65 -2.2 -7.8 -5.4 -8.75 -7.0 -9.1 -7.3 -9.1 -7.45 -9.15 -7.55 -9.1 -7.4 -8.6 -7.3 -8.45 -7.4 -8.45 -7.95 -8.25 -8.05 -8.35 -8.0 -8.2 -8.3 -8.0 -8.35 -8.0 -8.55 -7.45 -8.25 -7.0 -8.05 -6.95 -8.05 -6.85 -8.05 -6.8 -8.0 -6.8 -8.0 -6.85 -7.6 -6.6 -7.55 -6.55 -7.6 -6.55 -8.1 -6.65 -8.6 -6.45 -8.6 -6.35 -8.15 -6.2 -7.45 -6.15 -7.3 -6.2 -7.2 -5.95 -7.3 -5.95 -7.7 -5.8 -7.7 -5.7 Q-7.6 -5.5 -7.3 -5.5 L-7.1 -5.5 -7.05 -5.4 -6.7 -4.55 Q-6.6 -4.4 -6.4 -4.4 L-6.35 -4.4 Q-6.25 -4.4 -6.25 -4.45 L-6.15 -4.9 -6.05 -5.15 -6.05 -5.05 Q-6.15 -3.95 -5.4 -3.2 L-5.25 -3.05 -4.75 -3.05 -4.1 -2.95 -3.95 -3.1 -3.95 -3.15 Q-3.6 -3.6 -3.65 -4.3 L-3.8 -4.9 -3.8 -4.95 -3.9 -5.1 -3.4 -4.15 -3.35 -4.1 -2.85 -4.15 -0.05 -4.25 1.4 -4.95 2.4 -5.05 3.8 -4.9 5.2 -4.55 5.8 -4.7 6.3 -4.55 6.25 -4.8 7.0 -4.8 Q7.1 -4.3 6.85 -4.15 L7.25 -3.75 7.6 -3.55 7.7 -3.65 7.75 -4.55 8.0 -4.55 Q8.45 -4.55 8.75 -4.8 L8.85 -5.0 9.4 -5.3 9.35 -5.35 8.8 -5.6 8.5 -5.8 8.6 -5.8 9.05 -5.95 9.0 -6.05 8.45 -6.25 M5.15 -9.1 L7.0 -8.8 8.35 -8.95 9.2 -9.1 9.45 -9.1 Q10.25 -9.1 10.6 -8.45 L10.85 -7.75 Q10.85 -7.05 10.15 -6.5 L10.2 -6.25 10.25 -6.2 10.6 -5.45 10.4 -4.7 9.65 -4.0 9.5 -3.85 8.9 -3.5 8.8 -3.3 8.5 -2.65 8.55 -2.05 9.55 -1.3 9.85 -1.25 10.35 -0.85 10.9 -0.4 11.05 0.4 Q11.2 0.85 11.0 1.3 10.7 1.9 10.0 2.05 9.65 2.45 9.1 2.45 L9.05 2.5 9.2 2.65 9.4 3.05 9.85 3.5 9.95 3.65 Q10.45 4.15 10.45 5.0 L10.4 5.5 Q10.7 6.15 10.25 6.85 L10.2 6.85 9.4 7.4 8.75 8.0 8.35 8.75 7.6 9.25 6.95 10.1 Q6.2 10.85 5.3 10.85 4.4 10.85 3.75 10.15 L3.4 9.55 -4.1 9.3 -5.0 10.3 Q-5.6 10.7 -6.2 10.7 -7.65 10.7 -8.15 9.2 L-8.15 8.95 -8.8 8.6 -8.95 8.5 -9.7 7.75 Q-10.15 7.0 -9.55 6.25 L-9.5 6.25 -9.4 5.95 Q-10.1 5.45 -10.1 4.75 L-9.9 4.0 Q-9.5 3.4 -8.75 3.4 L-8.45 3.4 -8.0 3.45 -7.95 3.5 -7.65 3.5 -6.55 3.65 -6.8 3.35 -7.4 2.9 Q-8.8 2.6 -9.8 1.9 L-10.9 0.9 -11.05 0.05 -10.5 -0.85 -10.45 -0.85 -10.15 -1.05 -10.1 -1.1 -7.5 -2.05 -6.85 -2.65 -6.65 -2.75 -6.6 -2.75 -6.85 -3.25 Q-7.3 -3.4 -7.6 -3.7 L-8.05 -4.45 -8.75 -5.05 Q-9.25 -5.25 -9.5 -5.6 -10.0 -6.2 -9.65 -7.0 L-9.75 -7.5 Q-9.8 -8.3 -9.2 -8.8 L-9.1 -9.0 -8.7 -9.4 -8.5 -9.8 Q-8.15 -10.35 -7.45 -10.35 L-6.85 -10.3 -5.05 -9.9 -3.05 -9.3 -2.8 -9.2 -2.2 -10.25 Q-1.85 -10.85 -1.15 -10.85 L-0.8 -10.85 0.65 -10.6 3.55 -9.75 5.15 -9.1" fill="#ffffff" fill-rule="evenodd" stroke="none"/>
  </g>
</svg>
