<?xml version="1.0" encoding="UTF-8" standalone="no"?>
<svg xmlns:xlink="http://www.w3.org/1999/xlink" height="21.35px" width="16.35px" xmlns="http://www.w3.org/2000/svg">
  <g transform="matrix(1.0, 0.0, 0.0, 1.0, 8.05, 10.65)">
    <path d="M-4.15 5.15 L-4.2 5.5 -4.15 5.5 -4.15 5.15 M2.9 -1.75 L2.9 -2.6 4.1 -2.6 4.3 -1.9 5.5 5.4 Q5.6 5.95 5.25 6.3 5.0 6.65 4.45 6.65 L3.2 6.65 3.2 5.1 1.1 5.1 1.1 5.0 0.8 4.25 Q0.45 3.95 0.05 3.95 L-0.7 4.25 -1.0 5.0 -1.0 5.1 -3.0 5.1 -3.0 6.65 -4.3 6.65 Q-4.8 6.65 -5.1 6.3 -5.45 5.95 -5.35 5.4 L-4.15 -1.9 -3.9 -2.6 -2.65 -2.6 -2.65 -1.75 2.9 -1.75 M0.05 -10.65 Q0.95 -10.65 1.65 -9.95 2.4 -9.25 2.75 -8.1 L5.4 -8.1 5.4 -5.15 5.55 -5.0 Q6.8 -3.95 7.05 -2.3 L8.25 5.05 Q8.55 6.75 7.35 8.1 L6.55 8.75 6.55 10.7 -6.35 10.7 -6.35 8.75 -7.15 8.1 Q-8.25 6.85 -8.0 5.0 L-6.8 -2.25 Q-6.6 -4.0 -5.35 -5.0 L-5.25 -5.15 -5.25 -8.1 -2.55 -8.1 Q-2.25 -9.25 -1.55 -9.95 -0.8 -10.65 0.05 -10.65 M4.3 -6.95 L1.8 -6.95 Q1.7 -7.95 1.2 -8.75 L0.05 -9.5 Q-0.55 -9.5 -1.1 -8.75 -1.6 -8.0 -1.75 -6.95 L-4.1 -6.95 -4.1 -6.2 -3.5 -6.2 -3.5 -4.8 Q-4.2 -4.55 -4.6 -4.15 -5.5 -3.35 -5.7 -2.15 L-6.85 5.2 Q-7.05 6.5 -6.25 7.35 L-5.25 8.1 -5.25 9.55 5.4 9.55 5.4 8.1 6.5 7.35 Q7.3 6.45 7.1 5.2 L5.9 -2.15 Q5.75 -3.4 4.8 -4.15 L3.75 -4.8 3.75 -6.2 4.3 -6.2 4.3 -6.95" fill="#ffffff" fill-rule="evenodd" stroke="none"/>
  </g>
</svg>
