<?xml version="1.0" encoding="UTF-8" standalone="no"?>
<svg xmlns:xlink="http://www.w3.org/1999/xlink" height="20.6px" width="22.2px" xmlns="http://www.w3.org/2000/svg">
  <g transform="matrix(1.0, 0.0, 0.0, 1.0, 11.1, 10.3)">
    <path d="M7.5 -3.4 L9.9 -5.8 6.6 -9.1 4.2 -6.7 5.3 -5.6 0.65 -0.95 -3.65 -5.25 -0.7 -7.6 -2.1 -9.0 -5.15 -6.7 -5.85 -7.45 -7.15 -6.15 -6.35 -5.35 Q-7.95 -3.4 -9.1 -0.85 L-9.9 1.3 -9.55 1.6 -4.9 -3.95 -0.65 0.35 -3.15 2.8 -5.45 0.5 -6.7 1.8 Q-8.0 3.35 -8.15 4.45 L-8.3 8.6 -8.3 8.8 -8.25 9.05 -8.1 9.1 -7.8 9.05 -6.5 9.1 -3.7 8.95 Q-2.5 8.8 -1.0 7.5 L0.3 6.25 -2.0 3.95 0.45 1.45 5.3 6.3 4.9 6.7 7.15 8.95 9.3 6.85 7.0 4.6 6.6 5.0 1.75 0.15 6.4 -4.5 7.5 -3.4 M6.6 -10.3 Q7.1 -10.3 7.45 -9.95 L10.75 -6.65 11.1 -5.8 Q11.1 -5.3 10.75 -5.0 L8.35 -2.55 Q7.9 -2.2 7.5 -2.2 7.05 -2.2 6.65 -2.55 L6.4 -2.8 3.45 0.15 6.7 3.4 7.0 3.4 Q7.55 3.4 7.85 3.7 L10.15 6.0 Q10.5 6.35 10.5 6.85 L10.15 7.7 8.0 9.85 7.15 10.15 6.3 9.85 4.05 7.55 Q3.55 7.1 3.7 6.4 L0.45 3.15 -0.35 3.95 1.15 5.4 1.5 6.2 Q1.55 6.7 1.2 7.05 -1.3 9.85 -3.5 10.15 L-6.5 10.3 -8.1 10.3 Q-8.75 10.3 -9.1 9.9 L-9.25 9.8 Q-9.6 9.25 -9.5 8.5 L-9.35 4.3 Q-9.2 3.1 -8.2 1.75 L-8.65 2.3 Q-8.9 2.7 -9.45 2.75 L-9.55 2.8 -10.35 2.5 -10.65 2.25 Q-11.3 1.7 -11.05 1.0 -10.15 -2.2 -7.95 -5.25 L-8.0 -5.3 Q-8.35 -5.65 -8.35 -6.15 L-8.0 -7.0 -6.7 -8.3 Q-6.35 -8.65 -5.85 -8.65 L-5.1 -8.4 -2.65 -10.05 -2.1 -10.2 Q-1.55 -10.2 -1.25 -9.85 L0.15 -8.45 0.5 -7.4 Q0.35 -6.8 -0.2 -6.5 L-1.95 -5.25 0.65 -2.65 3.55 -5.6 3.35 -5.85 Q3.0 -6.15 3.0 -6.7 3.0 -7.2 3.35 -7.55 L5.75 -9.95 Q6.1 -10.3 6.6 -10.3" fill="#ffffff" fill-rule="evenodd" stroke="none"/>
  </g>
</svg>
