<?xml version="1.0" encoding="UTF-8" standalone="no"?>
<svg xmlns:xlink="http://www.w3.org/1999/xlink" height="22.2px" width="18.45px" xmlns="http://www.w3.org/2000/svg">
  <g transform="matrix(1.0, 0.0, 0.0, 1.0, 9.2, 11.0)">
    <path d="M1.25 -6.3 Q0.7 -6.7 0.05 -6.7 L-1.25 -6.3 -2.05 -5.35 -2.05 -9.9 Q-4.65 -9.2 -6.35 -7.05 -8.0 -4.9 -8.0 -2.15 L-8.0 10.0 8.05 10.0 8.05 -2.15 Q8.05 -4.9 6.35 -7.05 4.7 -9.2 2.1 -9.9 L2.1 -5.35 1.25 -6.3 M1.35 -10.75 L2.1 -11.0 2.4 -10.95 Q5.45 -10.15 7.3 -7.65 9.25 -5.15 9.25 -2.05 L9.25 10.0 Q9.25 10.5 8.9 10.85 8.55 11.2 8.05 11.2 L-8.0 11.2 Q-8.5 11.2 -8.85 10.85 L-9.2 10.0 -9.2 -2.05 Q-9.2 -5.15 -7.3 -7.65 -5.4 -10.15 -2.35 -10.95 L-2.05 -11.0 -1.3 -10.75 Q-0.85 -10.4 -0.85 -9.8 L-0.85 -7.7 0.05 -7.8 0.9 -7.7 0.9 -9.8 Q0.9 -10.35 1.35 -10.75" fill="#ffffff" fill-rule="evenodd" stroke="none"/>
  </g>
</svg>
