<?xml version="1.0" encoding="UTF-8" standalone="no"?>
<svg xmlns:xlink="http://www.w3.org/1999/xlink" height="21.3px" width="21.0px" xmlns="http://www.w3.org/2000/svg">
  <g transform="matrix(1.0, 0.0, 0.0, 1.0, 10.5, 11.0)">
    <path d="M0.0 -5.85 L1.25 -2.2 5.05 -2.15 2.05 0.1 3.15 3.8 0.0 1.6 -3.1 3.8 -2.05 0.1 -5.1 -2.15 -1.25 -2.2 0.0 -5.85 M9.0 -7.05 L7.35 -9.0 6.5 -8.0 Q5.3 -7.05 3.7 -7.05 2.6 -7.05 1.15 -7.65 L0.0 -8.3 -1.15 -7.65 -3.7 -7.05 Q-5.4 -7.05 -6.55 -8.0 L-7.35 -9.0 -8.95 -7.05 -7.8 -5.6 Q-6.65 -3.8 -6.65 -1.8 -6.65 0.2 -7.5 1.6 L-8.4 2.65 -7.75 4.1 Q-6.7 5.75 -4.8 6.95 L-1.55 8.6 0.0 9.2 Q2.45 8.4 4.75 6.95 6.7 5.75 7.8 4.1 L8.45 2.65 7.6 1.6 Q6.65 0.2 6.65 -1.8 6.65 -3.8 7.85 -5.6 L9.0 -7.05 M6.4 -9.6 L7.2 -11.0 10.5 -6.95 9.75 -6.25 8.75 -5.0 Q7.8 -3.45 7.8 -1.8 7.8 -0.25 8.45 0.85 8.8 1.55 9.1 1.65 L9.7 2.1 9.55 2.85 8.75 4.65 Q7.6 6.55 5.3 7.85 2.95 9.4 0.35 10.25 L0.3 10.25 0.15 10.3 0.0 10.3 -2.1 9.6 -5.35 7.85 Q-7.5 6.55 -8.7 4.65 L-9.5 2.85 -9.65 2.1 -9.05 1.7 -8.4 0.85 Q-7.8 -0.25 -7.8 -1.8 -7.8 -3.45 -8.7 -5.0 L-9.7 -6.25 -10.5 -6.95 -7.15 -11.0 -6.45 -9.55 -5.8 -8.8 Q-4.95 -8.15 -3.7 -8.15 -2.2 -8.15 -0.65 -9.25 L0.0 -9.65 0.6 -9.25 1.6 -8.65 Q2.8 -8.15 3.7 -8.15 5.55 -8.15 6.4 -9.6" fill="#ffffff" fill-rule="evenodd" stroke="none"/>
  </g>
</svg>
