<?xml version="1.0" encoding="UTF-8" standalone="no"?>
<svg xmlns:xlink="http://www.w3.org/1999/xlink" height="19.8px" width="19.8px" xmlns="http://www.w3.org/2000/svg">
  <g transform="matrix(1.0, 0.0, 0.0, 1.0, 9.9, 9.85)">
    <path d="M-3.85 -5.2 Q-6.3 -3.4 -6.5 -0.4 L-2.75 -0.4 Q-2.6 -1.3 -1.9 -1.9 L-3.85 -5.2 M2.6 5.9 L0.85 2.9 Q0.05 3.15 -0.85 2.9 L-2.6 5.9 Q0.0 7.05 2.6 5.9 M6.1 -6.05 Q3.55 -8.55 0.0 -8.55 -3.55 -8.55 -6.1 -6.05 -8.6 -3.5 -8.6 0.05 -8.6 3.6 -6.1 6.1 -3.55 8.65 0.0 8.65 3.55 8.65 6.1 6.1 8.6 3.6 8.6 0.05 8.6 -3.5 6.1 -6.05 M0.0 -9.85 Q4.1 -9.85 7.0 -6.95 9.9 -4.05 9.9 0.05 9.9 4.15 7.0 7.0 4.1 9.95 0.0 9.95 -4.1 9.95 -7.0 7.0 -9.9 4.15 -9.9 0.05 -9.9 -4.05 -7.0 -6.95 -4.1 -9.85 0.0 -9.85 M3.85 -5.2 L1.9 -1.9 Q2.6 -1.3 2.8 -0.4 L6.5 -0.4 Q6.35 -3.4 3.85 -5.2 M0.55 -0.35 L0.0 -0.6 -0.55 -0.35 -0.8 0.2 -0.55 0.7 0.0 0.95 0.55 0.7 0.8 0.2 0.55 -0.35 M3.45 -6.9 L3.95 -6.6 Q5.75 -5.55 6.7 -3.8 7.7 -2.05 7.7 -0.05 L7.7 0.8 1.9 0.8 1.45 1.55 4.25 6.4 3.7 6.7 Q2.0 7.65 0.0 7.65 -2.0 7.65 -3.7 6.7 L-4.25 6.4 -1.45 1.55 -1.85 0.8 -7.65 0.8 -7.7 -0.05 Q-7.7 -2.05 -6.65 -3.8 -5.65 -5.55 -3.95 -6.6 L-3.4 -6.9 -0.4 -1.75 0.0 -1.8 0.45 -1.75 3.45 -6.9" fill="#ffffff" fill-rule="evenodd" stroke="none"/>
  </g>
</svg>
