<?xml version="1.0" encoding="UTF-8" standalone="no"?>
<svg xmlns:xlink="http://www.w3.org/1999/xlink" height="22.2px" width="15.25px" xmlns="http://www.w3.org/2000/svg">
  <g transform="matrix(1.0, 0.0, 0.0, 1.0, 7.65, 11.15)">
    <path d="M-0.85 8.45 L-4.25 8.45 -3.3 5.95 -0.85 8.45 M-4.25 8.95 L-2.15 8.95 -4.6 9.5 -4.45 9.05 -4.25 8.95 M-3.0 5.15 L-2.1 2.75 -0.8 5.15 -3.0 5.15 M-0.05 5.05 L-1.45 2.35 1.55 2.35 -0.05 5.05 M-0.65 1.85 L-1.75 1.85 -1.0 -0.2 -0.65 1.85 M-5.35 -1.9 L-5.35 -1.8 -5.3 -1.7 -4.45 -1.6 -6.4 1.1 -6.4 1.25 -6.25 1.25 -3.25 -1.75 -3.25 -1.9 -3.35 -1.95 -4.1 -2.1 -2.3 -3.85 -2.3 -3.95 -2.35 -4.05 -2.95 -4.15 -1.4 -5.8 -1.4 -5.95 -1.55 -5.95 -4.15 -3.95 -4.2 -3.85 -4.1 -3.75 -3.55 -3.65 -5.35 -1.9 M-4.5 -6.35 L-4.45 -6.25 -4.15 -5.75 -5.9 -5.4 -5.95 -5.3 -5.85 -5.15 -3.4 -5.25 -3.35 -5.3 -3.35 -5.45 -3.65 -5.85 -2.3 -5.85 -2.2 -5.9 -2.2 -6.05 -2.45 -6.35 -1.25 -6.4 -1.15 -6.5 -1.25 -6.65 -3.15 -6.9 -3.25 -6.85 -3.25 -6.7 -3.05 -6.4 -4.4 -6.4 -4.5 -6.35 M-3.35 -9.55 L-3.45 -9.5 -3.5 -8.9 -5.0 -9.9 -5.15 -9.85 -5.15 -9.7 -3.4 -8.05 -3.25 -8.0 -3.2 -8.1 -3.1 -8.65 -2.15 -7.7 Q-2.1 -7.6 -2.05 -7.65 L-2.0 -7.75 -1.9 -8.15 -1.0 -7.3 -0.85 -7.3 -0.85 -7.45 -2.05 -9.0 -2.15 -9.05 -2.25 -8.95 -2.3 -8.6 -3.25 -9.55 -3.35 -9.55 M0.45 -0.95 L0.05 1.3 -0.4 -0.95 0.45 -0.95 M2.75 5.65 L0.0 8.35 -2.65 5.65 2.75 5.65 M4.25 8.45 L0.9 8.45 3.35 6.05 4.25 8.45 M4.45 9.0 L4.6 9.5 2.05 8.95 4.25 8.95 4.45 9.0 M1.75 1.85 L0.7 1.85 1.1 -0.05 1.75 1.85 M0.8 5.15 L2.15 2.8 3.0 5.15 0.8 5.15 M0.0 -2.95 L0.55 -1.45 -0.55 -1.45 0.0 -2.95 M4.2 -3.85 L4.15 -3.95 1.55 -5.95 1.4 -5.95 1.4 -5.8 2.95 -4.15 2.35 -4.05 2.3 -3.95 2.3 -3.85 4.1 -2.1 3.35 -1.95 3.25 -1.9 3.25 -1.75 6.25 1.25 6.4 1.25 6.4 1.1 4.45 -1.6 5.3 -1.7 5.35 -1.8 5.35 -1.9 3.55 -3.65 4.1 -3.75 4.2 -3.85 M0.25 -6.3 L0.0 -6.55 -0.25 -6.3 -0.25 -3.95 -0.5 -3.8 -5.55 9.85 -3.45 9.85 -0.05 8.95 3.55 9.85 5.55 9.85 0.5 -3.8 0.25 -3.95 0.25 -6.3 M1.25 -6.65 L1.15 -6.5 1.25 -6.4 2.45 -6.35 2.2 -6.05 2.2 -5.9 2.3 -5.85 3.65 -5.85 3.35 -5.45 3.35 -5.3 3.4 -5.25 5.85 -5.15 5.95 -5.3 5.9 -5.4 4.15 -5.75 4.45 -6.25 4.5 -6.35 4.4 -6.4 3.05 -6.4 3.25 -6.7 3.25 -6.85 3.15 -6.9 1.25 -6.65 M6.05 -10.6 Q6.4 -10.2 6.35 -9.7 6.35 -9.2 5.95 -8.85 L4.6 -7.55 Q5.3 -7.45 5.55 -6.85 L5.65 -6.65 6.15 -6.55 6.95 -6.05 Q7.25 -5.65 7.15 -5.15 7.1 -4.6 6.7 -4.3 6.35 -3.95 5.85 -3.95 L5.4 -4.0 5.35 -3.55 6.2 -2.75 Q6.75 -2.2 6.5 -1.45 L6.3 -1.05 7.4 0.35 Q7.7 0.8 7.6 1.3 L7.15 2.15 6.35 2.45 Q5.8 2.45 5.4 2.05 L3.05 -0.25 6.65 9.45 Q6.85 10.0 6.55 10.55 6.2 11.05 5.55 11.05 L3.2 11.05 -0.05 10.15 -3.1 11.05 -5.55 11.05 Q-6.2 11.05 -6.55 10.55 -6.85 10.0 -6.65 9.45 L-3.05 -0.25 -5.4 2.05 Q-5.8 2.45 -6.35 2.45 L-7.15 2.15 -7.6 1.3 Q-7.7 0.8 -7.4 0.35 L-6.3 -1.05 -6.5 -1.45 Q-6.75 -2.2 -6.2 -2.75 L-5.35 -3.55 -5.4 -4.0 -5.85 -3.95 Q-6.35 -3.95 -6.7 -4.3 -7.1 -4.6 -7.15 -5.15 L-6.95 -6.05 -6.1 -6.55 -5.65 -6.65 -5.55 -6.85 Q-5.25 -7.45 -4.65 -7.55 L-5.95 -8.8 Q-6.35 -9.2 -6.4 -9.7 L-6.1 -10.6 Q-5.7 -11.1 -5.05 -11.1 L-4.4 -10.9 -3.95 -10.6 -3.75 -10.7 -3.35 -10.75 Q-2.8 -10.75 -2.4 -10.4 L-2.25 -10.25 -2.15 -10.25 Q-1.55 -10.25 -1.1 -9.75 L-0.05 -8.35 1.05 -9.8 Q1.45 -10.25 2.1 -10.25 L2.2 -10.25 2.35 -10.4 Q2.75 -10.8 3.3 -10.8 L3.7 -10.7 3.9 -10.6 4.3 -10.9 5.05 -11.15 Q5.7 -11.15 6.05 -10.6 M5.15 -9.7 L5.15 -9.85 5.0 -9.9 3.5 -8.95 3.4 -9.5 3.35 -9.6 3.2 -9.55 2.25 -8.6 2.2 -8.95 2.15 -9.05 2.0 -9.05 0.8 -7.5 0.85 -7.35 1.0 -7.35 1.9 -8.15 1.95 -7.75 2.0 -7.65 2.15 -7.7 3.1 -8.65 3.15 -8.15 3.25 -8.05 3.35 -8.05 5.15 -9.7" fill="#ffffff" fill-rule="evenodd" stroke="none"/>
  </g>
</svg>
