<?xml version="1.0" encoding="UTF-8" standalone="no"?>
<svg xmlns:xlink="http://www.w3.org/1999/xlink" height="21.25px" width="21.1px" xmlns="http://www.w3.org/2000/svg">
  <g transform="matrix(1.0, 0.0, 0.0, 1.0, 10.5, 10.6)">
    <path d="M-9.4 0.05 Q-9.4 3.3 -7.5 5.9 L-1.65 0.05 -7.5 -5.8 Q-9.4 -3.25 -9.4 0.05 M-6.85 -1.6 L-7.05 -1.6 -7.05 -0.35 -6.8 -0.35 Q-5.9 -0.35 -5.9 -1.0 -5.9 -1.6 -6.85 -1.6 M-7.05 -2.35 Q-4.65 -2.35 -4.65 -1.0 -4.65 -0.2 -5.6 0.15 L-4.45 2.25 -5.8 2.25 -7.0 0.15 -7.05 0.15 -7.05 2.25 -8.25 2.25 -8.25 -2.35 -7.05 -2.35 M0.05 9.55 Q3.3 9.55 5.85 7.5 L-0.2 1.45 -6.05 7.3 Q-3.4 9.55 0.05 9.55 M7.3 6.15 Q9.5 3.5 9.5 0.05 9.5 -3.45 7.3 -6.05 L1.2 0.05 7.3 6.15 M0.05 -10.6 Q4.4 -10.6 7.5 -7.45 10.6 -4.35 10.6 0.05 10.6 4.45 7.5 7.5 4.4 10.65 0.05 10.65 -4.4 10.65 -7.5 7.5 -10.5 4.45 -10.5 0.05 -10.5 -4.35 -7.5 -7.45 -4.4 -10.6 0.05 -10.6 M5.85 -7.45 Q3.25 -9.5 0.05 -9.5 -3.4 -9.5 -6.05 -7.25 L-0.2 -1.4 5.85 -7.45 M5.8 -0.35 L6.0 -0.35 Q6.85 -0.35 6.85 -1.0 6.85 -1.6 5.95 -1.6 L5.8 -1.6 5.8 -0.35 M5.8 -2.35 Q8.15 -2.35 8.15 -1.0 8.15 -0.2 7.2 0.15 L8.35 2.25 6.95 2.25 5.8 0.15 5.8 2.25 4.45 2.25 4.45 -2.35 5.8 -2.35" fill="#ffffff" fill-rule="evenodd" stroke="none"/>
  </g>
</svg>
