<?xml version="1.0" encoding="UTF-8" standalone="no"?>
<svg xmlns:xlink="http://www.w3.org/1999/xlink" height="20.55px" width="21.6px" xmlns="http://www.w3.org/2000/svg">
  <g transform="matrix(1.0, 0.0, 0.0, 1.0, 10.75, 9.65)">
    <path d="M3.5 -5.0 L4.3 -4.5 3.3 -3.25 4.3 0.55 3.15 1.6 3.15 -0.95 2.3 -1.15 0.3 -3.4 0.0 -5.1 1.0 -6.05 -0.3 -7.85 -2.1 -5.4 -2.3 -8.45 -6.2 -7.0 -6.15 -6.05 -3.1 -6.95 -2.9 -4.3 -4.8 -1.75 -3.75 -1.75 -3.75 -0.3 -5.55 1.3 -5.1 3.65 -6.5 4.4 -7.8 3.3 -9.55 4.9 -8.45 4.9 -8.45 9.7 9.65 9.7 9.65 4.7 7.9 4.7 7.9 5.75 6.65 5.75 6.65 3.2 7.9 3.2 8.45 0.85 6.25 -1.25 5.35 -0.4 4.65 -2.95 5.35 -3.8 7.75 -2.3 8.4 -3.35 6.1 -4.8 7.8 -7.0 6.85 -7.75 5.05 -5.5 4.2 -6.05 3.5 -5.0 M7.55 -8.7 L8.55 -7.95 9.0 -7.15 Q9.1 -6.65 8.75 -6.25 L7.85 -5.1 9.05 -4.3 9.55 -3.55 9.4 -2.65 8.7 -1.6 8.1 -1.15 9.3 -0.05 Q9.8 0.45 9.6 1.1 L9.1 3.45 9.1 3.5 9.65 3.5 Q10.15 3.5 10.5 3.85 10.85 4.2 10.85 4.7 L10.85 9.7 10.5 10.55 Q10.15 10.9 9.65 10.9 L-8.45 10.9 Q-9.0 10.9 -9.35 10.55 L-9.65 9.7 -9.65 6.1 Q-10.4 6.0 -10.65 5.3 -10.95 4.55 -10.35 4.0 L-8.55 2.4 Q-8.2 2.1 -7.8 2.1 -7.3 2.1 -7.0 2.4 L-6.45 2.8 -6.7 1.55 Q-6.85 0.85 -6.35 0.4 L-5.15 -0.6 Q-5.65 -0.8 -5.85 -1.2 -6.15 -1.9 -5.75 -2.45 L-4.1 -4.65 -4.2 -5.35 -5.8 -4.9 -6.15 -4.85 -6.8 -5.05 Q-7.25 -5.4 -7.35 -5.95 L-7.4 -6.95 Q-7.5 -7.85 -6.6 -8.15 L-2.7 -9.55 -2.3 -9.65 -1.65 -9.4 Q-1.2 -9.15 -1.1 -8.65 -0.8 -9.05 -0.3 -9.05 0.3 -9.05 0.7 -8.5 L1.95 -6.8 2.2 -5.95 Q2.2 -5.5 1.85 -5.2 L1.3 -4.7 1.45 -3.95 2.1 -3.15 2.35 -3.95 2.55 -4.2 2.55 -4.25 Q2.0 -4.9 2.5 -5.65 L3.15 -6.7 Q3.55 -7.25 4.2 -7.25 L4.8 -7.1 5.85 -8.5 Q6.15 -8.9 6.7 -8.95 L6.85 -8.95 7.55 -8.7" fill="#ffffff" fill-rule="evenodd" stroke="none"/>
  </g>
</svg>
