<?xml version="1.0" encoding="UTF-8" standalone="no"?>
<svg xmlns:xlink="http://www.w3.org/1999/xlink" height="20.0px" width="22.25px" xmlns="http://www.w3.org/2000/svg">
  <g transform="matrix(1.0, 0.0, 0.0, 1.0, 11.1, 10.0)">
    <path d="M7.3 5.45 L6.05 5.05 Q4.6 5.05 3.7 6.4 L3.55 6.65 3.05 7.15 2.2 6.4 1.2 5.45 Q0.55 5.05 -0.05 5.05 -1.5 5.05 -2.4 6.4 L-2.5 6.65 -3.05 7.15 -3.85 6.4 -4.85 5.45 -6.15 5.05 Q-7.6 5.05 -8.45 6.4 L-8.6 6.65 -9.2 7.15 -9.95 7.15 -9.95 8.8 -9.2 8.8 Q-7.7 8.8 -6.95 7.45 L-6.85 7.3 Q-6.6 6.75 -6.2 6.7 L-5.3 7.5 -4.3 8.4 -3.1 8.8 Q-1.65 8.8 -0.85 7.45 L-0.8 7.3 Q-0.5 6.75 -0.1 6.7 L0.8 7.5 1.75 8.4 Q2.35 8.8 2.95 8.8 4.45 8.8 5.2 7.45 L5.3 7.3 5.5 7.0 6.0 6.7 6.85 7.5 7.85 8.4 Q8.45 8.8 9.05 8.8 L9.8 8.8 9.8 7.15 9.1 7.15 8.3 6.4 7.3 5.45 M7.3 1.55 L6.05 1.15 Q4.6 1.15 3.7 2.5 L3.55 2.75 3.05 3.25 2.2 2.5 1.2 1.55 Q0.55 1.15 -0.05 1.15 -1.5 1.15 -2.4 2.5 L-2.5 2.75 -3.05 3.25 -3.85 2.5 -4.85 1.55 -6.15 1.15 Q-7.6 1.15 -8.45 2.5 L-8.6 2.75 Q-8.85 3.25 -9.2 3.25 L-9.95 3.25 -9.95 4.9 -9.2 4.9 Q-7.7 4.9 -6.95 3.55 L-6.85 3.4 Q-6.6 2.85 -6.2 2.8 -5.9 2.95 -5.3 3.6 -4.05 4.9 -3.1 4.9 -1.65 4.9 -0.85 3.55 L-0.8 3.4 Q-0.5 2.85 -0.1 2.8 L0.8 3.6 Q2.05 4.9 2.95 4.9 4.45 4.9 5.2 3.55 L5.3 3.4 5.5 3.1 6.0 2.8 6.85 3.6 7.85 4.5 Q8.45 4.9 9.05 4.9 L9.8 4.9 9.8 3.25 9.1 3.25 8.3 2.5 7.3 1.55 M4.45 -3.4 L1.6 -6.4 -1.35 -6.4 -2.75 -8.8 -5.3 -8.8 -4.7 -6.4 -6.55 -6.35 -7.05 -5.75 -7.0 -5.45 -6.95 -5.5 -6.55 -5.35 -6.5 -3.35 -8.95 -3.35 -8.05 0.2 Q-7.3 -0.4 -6.4 -0.4 -5.65 -0.4 -4.95 0.2 -4.05 0.55 -3.15 1.5 L-2.7 1.05 -2.65 0.95 Q-1.85 -0.4 -0.35 -0.4 0.4 -0.4 1.15 0.2 1.95 0.5 2.95 1.5 L3.35 1.05 3.4 0.95 Q4.3 -0.4 5.75 -0.4 L7.0 0.05 9.9 -3.4 4.45 -3.4 M4.95 -4.6 L9.9 -4.6 Q10.7 -4.6 11.0 -3.9 11.35 -3.2 10.85 -2.6 L8.05 0.65 9.2 1.7 9.55 2.05 9.8 2.05 Q10.3 2.05 10.65 2.45 11.0 2.8 11.0 3.25 L11.0 8.8 10.65 9.7 9.8 10.0 9.1 10.0 Q8.15 10.0 7.3 9.5 L6.05 8.35 Q4.9 10.0 3.0 10.0 1.55 10.0 -0.05 8.35 -1.15 10.0 -3.1 10.0 -4.0 10.0 -4.85 9.5 L-6.1 8.35 Q-7.25 10.0 -9.15 10.0 L-9.9 10.0 -10.75 9.7 -11.1 8.8 -11.1 3.25 Q-11.1 2.8 -10.75 2.45 -10.4 2.05 -9.9 2.05 L-9.6 2.05 -9.4 1.8 -8.85 1.1 -9.2 0.5 -10.1 -3.05 Q-10.2 -3.7 -9.85 -4.1 -9.55 -4.55 -8.95 -4.55 L-7.8 -4.55 -8.2 -5.35 -8.25 -5.65 Q-8.3 -6.2 -8.0 -6.55 L-7.45 -7.15 Q-7.15 -7.55 -6.55 -7.55 L-6.2 -7.55 -6.45 -8.55 Q-6.6 -9.1 -6.2 -9.55 -5.9 -10.0 -5.3 -10.0 L-2.75 -10.0 Q-2.05 -10.0 -1.7 -9.4 L-0.65 -7.6 1.6 -7.6 Q2.15 -7.6 2.5 -7.2 L4.95 -4.6" fill="#ffffff" fill-rule="evenodd" stroke="none"/>
  </g>
</svg>
