<?xml version="1.0" encoding="UTF-8" standalone="no"?>
<svg xmlns:xlink="http://www.w3.org/1999/xlink" height="21.15px" width="25.1px" xmlns="http://www.w3.org/2000/svg">
  <g transform="matrix(1.0, 0.0, 0.0, 1.0, 12.55, 10.55)">
    <path d="M-3.8 -5.55 L-3.45 -5.2 Q-4.85 -3.8 -4.85 -1.85 -4.85 0.25 -3.35 1.65 L-3.75 2.0 Q-5.35 0.3 -5.35 -1.85 -5.35 -4.0 -3.8 -5.55 M-6.3 -8.05 L-5.45 -7.2 Q-7.7 -4.95 -7.7 -1.75 -7.7 1.45 -5.45 3.7 L-6.3 4.6 Q-8.95 1.95 -8.95 -1.75 -8.95 -5.5 -6.3 -8.05 M-8.8 -10.55 L-7.4 -9.15 Q-10.55 -6.1 -10.55 -1.65 -10.55 2.7 -7.5 5.75 L-8.9 7.15 Q-12.55 3.5 -12.55 -1.65 -12.55 -6.9 -8.8 -10.55 M0.55 1.15 L1.55 10.6 -1.55 10.6 -0.55 1.15 0.55 1.15 M3.45 -5.2 L3.8 -5.55 Q5.35 -4.0 5.35 -1.85 5.35 0.35 3.7 2.0 L3.35 1.65 Q4.85 0.15 4.85 -1.85 4.85 -3.8 3.45 -5.2 M0.0 -3.85 Q0.9 -3.85 1.55 -3.2 2.2 -2.55 2.2 -1.65 2.2 -0.75 1.55 -0.1 0.9 0.55 0.0 0.55 -0.9 0.55 -1.55 -0.1 -2.2 -0.75 -2.2 -1.65 -2.2 -2.55 -1.55 -3.2 -0.9 -3.85 0.0 -3.85 M5.45 -7.15 L6.3 -8.05 Q8.95 -5.5 8.95 -1.75 8.95 1.95 6.3 4.6 L5.45 3.7 Q7.7 1.45 7.7 -1.75 7.7 -5.0 5.45 -7.15 M7.4 -9.15 L8.8 -10.55 Q12.55 -6.9 12.55 -1.65 12.55 3.5 8.9 7.15 L7.5 5.75 Q10.55 2.7 10.55 -1.65 10.55 -6.1 7.4 -9.15" fill="#ffffff" fill-rule="evenodd" stroke="none"/>
  </g>
</svg>
