<?xml version="1.0" encoding="UTF-8" standalone="no"?>
<svg xmlns:xlink="http://www.w3.org/1999/xlink" height="14.75px" width="22.2px" xmlns="http://www.w3.org/2000/svg">
  <g transform="matrix(1.0, 0.0, 0.0, 1.0, 11.1, 7.35)">
    <path d="M3.65 -6.15 L2.95 -6.15 2.95 -2.7 0.8 -2.15 Q0.5 -2.05 0.5 -1.3 L0.5 0.1 Q-2.6 0.5 -4.45 1.15 L-7.7 2.3 -7.8 0.65 -8.0 0.05 -8.5 -0.25 -8.6 -0.2 -8.65 -0.25 Q-8.95 -0.25 -8.95 0.45 L-8.9 2.75 Q-9.15 2.8 -9.4 3.0 -9.9 3.3 -9.9 3.65 L-9.05 4.45 -9.05 5.15 Q-9.05 5.8 -8.75 5.8 L-8.6 5.8 Q-8.25 5.8 -8.05 5.5 L-7.85 4.95 Q-5.65 5.75 -2.55 5.95 L2.8 6.2 Q6.65 6.2 8.15 5.1 9.25 4.3 9.7 3.1 10.25 1.75 9.4 0.75 9.05 0.25 7.4 0.1 L4.7 -0.05 4.7 -2.3 4.65 -2.8 4.35 -2.9 4.25 -2.9 3.65 -2.8 3.65 -6.15 M3.65 -7.35 Q4.15 -7.35 4.5 -7.0 L4.85 -6.15 4.85 -4.05 Q5.9 -3.8 5.9 -2.3 L5.9 -1.15 6.05 -1.15 8.6 -0.95 Q9.85 -0.7 10.4 0.0 11.3 1.2 11.05 2.7 10.8 4.7 8.9 6.1 7.0 7.4 2.8 7.4 L-2.65 7.15 -7.25 6.4 Q-7.75 7.0 -8.6 7.0 L-8.75 7.0 Q-9.3 7.0 -9.7 6.65 -10.25 6.1 -10.25 5.15 L-10.25 5.05 Q-11.1 4.4 -11.1 3.65 -11.1 2.7 -10.15 2.05 L-10.15 0.45 -9.85 -0.8 -8.65 -1.45 -8.5 -1.45 Q-7.65 -1.45 -7.0 -0.65 -6.65 -0.15 -6.6 0.55 L-6.6 0.65 -4.85 0.05 -0.7 -0.95 -0.7 -1.3 Q-0.7 -2.95 0.4 -3.25 L1.75 -3.65 1.75 -6.15 Q1.75 -6.65 2.1 -7.0 2.45 -7.35 2.95 -7.35 L3.65 -7.35" fill="#ffffff" fill-rule="evenodd" stroke="none"/>
  </g>
</svg>
