<?xml version="1.0" encoding="UTF-8" standalone="no"?>
<svg xmlns:xlink="http://www.w3.org/1999/xlink" height="22.2px" width="20.9px" xmlns="http://www.w3.org/2000/svg">
  <g transform="matrix(1.0, 0.0, 0.0, 1.0, 10.45, 11.05)">
    <path d="M4.95 8.95 L5.0 8.85 5.15 8.65 5.5 8.45 6.1 8.95 Q6.95 9.9 7.6 9.9 L9.3 9.9 9.3 8.75 7.7 8.75 7.1 8.2 6.4 7.55 5.5 7.25 Q4.45 7.25 3.85 8.2 L3.8 8.35 3.4 8.75 2.85 8.2 2.15 7.55 Q1.7 7.25 1.25 7.25 0.25 7.25 -0.35 8.2 L-0.45 8.35 -0.8 8.75 -1.4 8.2 Q-2.3 7.25 -2.95 7.25 -4.0 7.25 -4.6 8.2 L-4.7 8.35 -5.1 8.75 -9.25 8.75 -9.25 9.9 -5.1 9.9 Q-4.0 9.9 -3.55 8.95 L-3.5 8.85 -3.35 8.6 -3.0 8.45 -2.4 8.95 Q-1.55 9.9 -0.85 9.9 0.2 9.9 0.7 8.95 L0.75 8.85 1.25 8.45 1.85 8.95 Q2.75 9.9 3.4 9.9 4.4 9.9 4.95 8.95 M5.4 -9.8 L5.35 -9.8 5.35 -9.85 4.95 -9.2 4.6 -8.45 Q2.9 -8.15 1.4 -3.15 1.25 -2.6 1.6 -2.15 L-0.95 5.75 -1.35 5.6 -1.4 5.5 -2.1 4.85 Q-2.55 4.55 -3.0 4.55 L-3.25 4.6 -2.75 1.9 -2.15 -0.65 Q-1.5 -0.7 -1.1 -1.2 L-0.5 -2.3 Q0.5 -4.25 0.15 -5.75 L0.55 -6.4 0.75 -6.75 0.65 -7.0 0.55 -7.0 0.35 -6.85 0.2 -6.5 -0.1 -5.8 Q-0.65 -5.75 -1.0 -5.35 L-1.8 -4.25 Q-3.25 -1.85 -2.45 -0.75 L-3.75 4.15 -3.8 4.75 -4.05 4.9 Q-4.75 0.85 -4.4 -4.65 L-4.15 -6.5 -4.55 -5.4 -5.45 -1.05 -5.65 6.05 -6.35 6.05 -6.85 2.75 Q-7.3 -1.0 -7.1 -3.2 -8.0 -2.0 -7.9 2.15 L-7.7 6.05 -9.25 6.05 -9.25 7.25 -5.35 7.25 -4.25 6.35 -2.6 6.1 Q-1.8 6.25 -0.95 7.0 L0.15 6.25 1.7 6.1 Q2.5 6.25 3.3 7.0 4.75 5.6 5.9 6.1 6.85 6.3 7.75 7.2 L9.25 7.2 9.25 6.05 7.65 6.05 7.1 5.5 Q6.2 4.55 5.5 4.55 L5.2 4.6 6.95 -0.85 8.0 0.7 9.1 2.2 9.1 2.1 8.2 -2.65 7.1 -2.75 6.5 -2.75 Q5.75 -2.2 4.4 1.25 L2.8 5.5 Q2.0 4.3 1.25 4.25 L1.15 4.25 Q0.4 4.25 -0.35 5.3 L1.85 -1.85 2.25 -2.0 2.9 -2.6 4.2 -5.15 Q4.85 -6.7 4.9 -7.55 L4.85 -8.35 5.3 -9.05 5.55 -9.75 5.4 -9.8 M6.1 -10.85 Q6.75 -10.5 6.75 -9.8 6.75 -9.1 6.2 -8.3 L6.1 -8.15 6.1 -7.45 Q6.05 -6.45 5.3 -4.65 L3.85 -1.9 2.85 -0.95 1.6 3.1 2.3 3.4 Q3.45 0.2 4.15 -1.3 5.0 -3.2 5.75 -3.7 L6.5 -3.95 7.1 -3.95 8.6 -3.8 Q9.3 -3.5 9.4 -2.8 L10.3 1.85 10.3 2.2 Q10.3 3.05 9.55 3.35 L9.1 3.4 Q8.6 3.4 8.2 3.05 L7.25 1.8 6.7 3.7 Q7.05 3.85 7.95 4.7 L8.1 4.85 9.25 4.85 Q9.8 4.85 10.1 5.2 10.45 5.55 10.45 6.05 L10.45 9.95 10.1 10.75 Q9.8 11.15 9.25 11.15 L7.6 11.15 Q6.5 11.15 5.5 10.15 4.6 11.15 3.35 11.15 2.3 11.15 1.3 10.15 0.4 11.15 -0.85 11.15 -1.9 11.15 -2.95 10.15 -3.8 11.15 -5.15 11.15 L-9.25 11.15 Q-9.75 11.15 -10.1 10.75 L-10.45 9.95 -10.45 6.05 -10.1 5.2 Q-9.75 4.85 -9.25 4.85 L-9.0 4.85 Q-9.5 -1.9 -8.05 -3.9 -7.7 -4.4 -7.1 -4.4 L-6.65 -4.3 -6.2 -3.95 -5.7 -5.75 -5.25 -7.0 Q-4.9 -7.7 -4.15 -7.7 L-3.8 -7.65 Q-3.35 -7.5 -3.1 -7.15 L-2.95 -6.3 -3.2 -4.6 -3.2 -4.2 -2.8 -4.9 -1.85 -6.2 -0.95 -6.8 -0.85 -7.05 -0.8 -7.1 Q-0.4 -8.2 0.55 -8.2 L0.9 -8.2 Q1.55 -8.05 1.85 -7.5 2.65 -8.95 3.7 -9.4 L4.25 -10.4 Q4.6 -11.05 5.35 -11.05 L6.1 -10.85" fill="#ffffff" fill-rule="evenodd" stroke="none"/>
  </g>
</svg>
