<?xml version="1.0" encoding="UTF-8" standalone="no"?>
<svg xmlns:xlink="http://www.w3.org/1999/xlink" height="21.65px" width="22.2px" xmlns="http://www.w3.org/2000/svg">
  <g transform="matrix(1.0, 0.0, 0.0, 1.0, 11.1, 10.8)">
    <path d="M0.75 -2.5 L0.35 -2.7 0.05 -2.6 Q0.35 -3.05 -0.05 -3.35 L-0.1 -3.35 Q-1.0 -3.35 -3.0 -1.95 -5.5 -0.25 -6.0 1.75 -6.2 2.5 -7.1 2.5 L-8.25 2.05 Q-8.75 1.5 -8.55 0.65 -8.15 -0.4 -6.85 -1.3 L-3.3 -4.1 Q-1.85 -5.5 -1.75 -6.7 -1.65 -7.75 -2.6 -8.65 -3.5 -9.6 -4.95 -9.6 L-6.5 -9.3 Q-7.25 -9.05 -7.65 -8.6 L-7.85 -8.05 Q-8.0 -7.5 -7.7 -7.3 -7.4 -7.1 -7.85 -6.4 L-8.15 -5.6 -8.1 -5.6 Q-7.7 -5.6 -6.55 -7.15 L-5.85 -7.7 Q-5.05 -8.25 -4.35 -8.25 -3.8 -8.25 -3.35 -7.85 -2.8 -7.3 -2.9 -6.8 -2.95 -5.95 -4.4 -4.65 -5.35 -3.8 -7.55 -2.25 -8.85 -1.35 -9.45 -0.2 -10.05 0.95 -9.85 2.2 -9.55 3.9 -7.95 5.25 L-6.65 6.35 Q-7.55 6.65 -8.1 7.45 L-8.2 7.7 -8.75 8.15 -9.4 8.15 -9.4 9.65 -8.75 9.65 Q-7.5 9.65 -6.7 8.4 L-6.65 8.3 Q-6.35 7.8 -6.05 7.75 L-5.3 8.45 Q-4.15 9.65 -3.3 9.65 -2.05 9.65 -1.3 8.4 L-1.25 8.3 -0.6 7.75 0.2 8.45 1.05 9.25 Q1.6 9.65 2.15 9.65 3.45 9.65 4.15 8.4 L4.2 8.3 4.4 8.05 Q4.6 7.8 4.85 7.75 L5.6 8.45 6.5 9.25 Q7.0 9.65 7.6 9.65 L8.2 9.65 8.2 8.15 7.65 8.15 6.9 7.45 5.85 6.65 6.45 6.25 7.05 5.65 Q8.55 4.25 9.9 0.85 L4.1 1.75 3.55 1.2 3.5 1.05 3.05 0.85 2.75 0.95 Q3.1 0.55 2.8 0.2 2.65 -0.05 2.35 -0.05 L2.15 0.0 2.1 0.0 Q2.4 -0.3 2.15 -0.7 L1.7 -0.95 1.45 -0.9 1.45 -0.95 Q1.8 -1.25 1.45 -1.6 L1.05 -1.85 0.8 -1.75 0.8 -1.8 Q1.1 -2.2 0.75 -2.5 M0.7 -4.25 L1.15 -3.7 1.65 -3.3 2.0 -2.8 2.45 -2.35 2.7 -1.85 3.15 -1.4 3.4 -0.9 3.8 -0.5 4.0 -0.05 4.4 0.25 4.5 0.45 9.7 -0.35 9.9 -0.35 Q10.5 -0.35 10.85 0.1 11.3 0.65 11.0 1.3 L10.0 3.45 Q8.9 5.5 7.85 6.55 L7.75 6.65 8.05 6.95 8.2 6.95 Q8.75 6.95 9.05 7.3 L9.4 8.15 9.4 9.65 9.05 10.5 8.2 10.85 7.6 10.85 Q6.3 10.85 4.9 9.45 3.75 10.85 2.15 10.85 0.85 10.85 -0.55 9.45 -1.6 10.85 -3.3 10.85 -4.6 10.85 -5.95 9.45 -7.05 10.85 -8.75 10.85 L-9.4 10.85 Q-9.85 10.85 -10.25 10.5 -10.6 10.15 -10.6 9.65 L-10.6 8.15 Q-10.6 7.7 -10.25 7.3 -9.85 6.95 -9.4 6.95 L-9.2 6.95 -9.05 6.8 -8.65 6.25 -8.7 6.2 Q-10.65 4.6 -11.05 2.35 -11.25 0.8 -10.55 -0.65 -9.8 -2.15 -8.2 -3.25 -4.3 -5.95 -4.1 -6.85 L-4.2 -7.0 -4.35 -7.05 Q-4.85 -7.05 -5.65 -6.35 -7.1 -4.4 -8.1 -4.4 L-8.55 -4.45 Q-9.1 -4.7 -9.35 -5.3 -9.55 -5.95 -8.95 -6.9 L-8.9 -6.95 Q-9.4 -7.9 -8.65 -9.2 L-8.5 -9.45 Q-7.85 -10.1 -6.9 -10.45 L-4.95 -10.8 Q-3.05 -10.8 -1.75 -9.55 -0.4 -8.25 -0.55 -6.6 -0.65 -5.3 -1.65 -4.1 L-0.1 -4.55 0.7 -4.25" fill="#ffffff" fill-rule="evenodd" stroke="none"/>
  </g>
</svg>
