<?xml version="1.0" encoding="UTF-8" standalone="no"?>
<svg xmlns:xlink="http://www.w3.org/1999/xlink" height="21.4px" width="21.4px" xmlns="http://www.w3.org/2000/svg">
  <g transform="matrix(1.0, 0.0, 0.0, 1.0, 10.7, 10.7)">
    <path d="M3.8 -6.5 L1.85 -7.25 1.65 -9.5 -1.65 -9.5 -1.85 -7.25 -3.8 -6.5 -5.55 -7.9 -7.9 -5.6 -6.4 -3.85 -7.25 -1.9 -9.5 -1.7 -9.5 1.6 -7.25 1.85 -6.4 3.8 -7.9 5.5 -5.55 7.85 -3.8 6.4 -1.85 7.2 -1.65 9.5 1.65 9.5 1.85 7.2 3.8 6.4 5.55 7.85 7.9 5.5 6.45 3.8 7.25 1.85 9.5 1.6 9.5 -1.7 7.25 -1.9 6.45 -3.85 7.9 -5.6 5.55 -7.9 3.8 -6.5 M6.4 -8.75 L8.75 -6.4 9.1 -5.65 8.8 -4.8 7.85 -3.65 8.05 -3.05 9.6 -2.9 Q10.1 -2.8 10.4 -2.5 L10.7 -1.7 10.7 1.6 10.4 2.45 Q10.1 2.8 9.6 2.8 L8.05 2.95 7.85 3.55 8.8 4.75 9.1 5.6 8.75 6.35 6.4 8.7 Q6.1 9.05 5.55 9.05 L4.8 8.8 3.6 7.8 3.0 8.05 2.85 9.55 2.45 10.35 Q2.15 10.7 1.65 10.7 L-1.65 10.7 Q-2.15 10.7 -2.45 10.35 L-2.85 9.55 -2.95 8.05 -3.6 7.8 -4.75 8.8 -5.55 9.05 Q-6.05 9.05 -6.4 8.7 L-8.75 6.35 -9.05 5.6 Q-9.1 5.1 -8.8 4.75 L-7.85 3.55 -8.05 2.95 -9.6 2.8 Q-10.1 2.8 -10.4 2.45 L-10.7 1.6 -10.7 -1.7 -10.4 -2.5 Q-10.1 -2.8 -9.6 -2.9 L-8.05 -3.05 -7.85 -3.65 -8.8 -4.8 Q-9.1 -5.15 -9.05 -5.65 L-8.75 -6.4 -6.4 -8.75 Q-6.05 -9.1 -5.55 -9.1 -5.15 -9.1 -4.75 -8.8 L-3.6 -7.85 -2.95 -8.05 -2.85 -9.6 -2.45 -10.4 Q-2.15 -10.7 -1.65 -10.7 L1.65 -10.7 Q2.15 -10.7 2.45 -10.4 L2.85 -9.6 3.0 -8.05 3.6 -7.85 4.8 -8.8 5.55 -9.1 Q6.1 -9.1 6.4 -8.75" fill="#ffffff" fill-rule="evenodd" stroke="none"/>
  </g>
</svg>
