<?xml version="1.0" encoding="UTF-8" standalone="no"?>
<svg xmlns:xlink="http://www.w3.org/1999/xlink" height="21.7px" width="21.7px" xmlns="http://www.w3.org/2000/svg">
  <g transform="matrix(1.0, 0.0, 0.0, 1.0, 10.85, 10.85)">
    <path d="M6.8 -6.8 Q4.0 -9.65 0.0 -9.65 -4.0 -9.65 -6.85 -6.8 -9.65 -4.0 -9.65 0.0 -9.65 4.0 -6.85 6.85 -4.0 9.65 0.0 9.65 4.0 9.65 6.8 6.85 9.65 4.0 9.65 0.0 9.65 -4.0 6.8 -6.8 M0.0 -10.85 Q4.45 -10.85 7.65 -7.65 10.85 -4.45 10.85 0.0 10.85 4.5 7.65 7.7 4.45 10.85 0.0 10.85 -4.5 10.85 -7.7 7.7 -10.85 4.5 -10.85 0.0 -10.85 -4.45 -7.7 -7.65 -4.5 -10.85 0.0 -10.85 M0.65 -5.6 Q0.25 -7.0 0.05 -7.0 L-0.6 -5.55 -1.6 -2.3 -2.8 0.25 Q-3.4 1.6 -3.4 2.75 -3.4 4.15 -2.4 5.2 -1.4 6.2 0.05 6.2 1.45 6.2 2.5 5.2 3.5 4.15 3.5 2.75 3.5 1.55 2.8 0.15 L1.55 -2.45 0.65 -5.6 M2.7 -2.8 L3.55 -1.0 4.35 0.7 4.7 2.75 Q4.7 4.65 3.35 6.05 2.0 7.4 0.05 7.4 -1.9 7.4 -3.25 6.05 -4.6 4.65 -4.6 2.75 L-4.3 0.7 -3.55 -0.95 -2.75 -2.7 -2.0 -5.05 -1.15 -7.4 Q-0.7 -8.2 0.05 -8.2 0.8 -8.2 1.25 -7.5 L1.9 -5.45 2.7 -2.8" fill="#ffffff" fill-rule="evenodd" stroke="none"/>
  </g>
</svg>
