<?xml version="1.0" encoding="UTF-8" standalone="no"?>
<svg xmlns:xlink="http://www.w3.org/1999/xlink" height="20.3px" width="22.25px" xmlns="http://www.w3.org/2000/svg">
  <g transform="matrix(1.0, 0.0, 0.0, 1.0, 11.1, 10.15)">
    <path d="M8.95 4.85 Q10.25 3.25 9.8 2.35 9.05 1.2 6.35 1.2 L5.45 1.25 5.15 1.6 4.95 1.75 5.3 2.35 Q4.45 3.2 2.85 3.85 1.4 4.5 0.35 4.6 L0.35 4.65 -0.1 5.5 Q-0.5 5.8 -1.0 5.8 L-2.2 5.65 -3.1 5.1 Q-3.4 4.65 -3.35 4.1 L-3.35 4.05 -4.55 3.15 -4.4 2.3 -5.0 0.95 -5.0 0.65 -8.4 0.05 -9.5 0.25 Q-9.95 0.4 -9.85 1.85 -9.25 5.3 -6.65 7.15 -4.1 8.95 0.05 8.95 L1.0 8.95 Q4.55 8.8 6.5 7.15 L8.95 4.85 M3.85 -6.5 L2.2 -8.95 1.75 -8.95 0.95 -8.45 Q-0.75 -7.15 -2.95 -1.8 L-3.55 -0.15 -3.5 -0.15 -2.85 0.35 Q-2.6 0.75 -2.65 1.2 L-2.95 2.0 -2.85 2.1 Q-2.45 1.55 -1.75 1.55 L-1.55 1.55 -0.55 1.7 Q0.25 1.85 0.5 2.6 2.15 2.15 3.55 1.25 3.55 0.8 3.8 0.55 L4.3 0.15 3.55 -2.05 2.95 -4.15 4.65 -3.4 6.2 -2.55 6.45 -3.2 6.55 -3.95 7.4 -2.85 8.0 -1.6 Q7.9 -3.25 6.9 -6.5 L6.5 -5.45 Q6.35 -4.75 6.05 -4.55 4.85 -4.9 3.85 -6.5 M6.9 -7.7 L7.1 -7.7 Q7.85 -7.55 8.05 -6.85 9.05 -3.75 9.2 -1.7 L9.05 -0.95 8.35 -0.5 8.0 -0.45 Q7.3 -0.45 6.95 -1.1 L6.75 -1.45 6.2 -1.35 5.8 -1.45 Q5.35 -1.6 4.9 -1.85 L5.5 0.05 6.35 0.0 Q9.7 0.0 10.8 1.7 L10.85 1.8 Q11.65 3.25 10.25 5.15 L7.3 8.0 7.25 8.05 Q5.0 9.95 1.1 10.15 L0.05 10.15 Q-4.6 10.15 -7.45 8.05 -10.35 5.95 -11.05 2.05 L-11.05 1.95 Q-11.25 -0.35 -9.95 -0.85 L-8.4 -1.1 -4.7 -0.5 -4.15 -2.0 -4.05 -2.25 Q-1.7 -7.9 0.2 -9.4 L1.25 -10.05 1.75 -10.15 2.2 -10.15 Q2.7 -10.15 3.05 -9.8 L4.5 -7.75 5.5 -6.25 5.9 -7.15 Q6.25 -7.7 6.9 -7.7" fill="#ffffff" fill-rule="evenodd" stroke="none"/>
  </g>
</svg>
