<?xml version="1.0" encoding="utf-8"?><svg id="Luck" image-rendering="auto" baseProfile="basic" version="1.1" x="0px" y="0px" width="240" height="240" xmlns="http://www.w3.org/2000/svg" xmlns:xlink="http://www.w3.org/1999/xlink"><g id="Scene-1f0r1" overflow="visible"><g id="Symbol-1"><path fill="#FFF" stroke="none" d="M146.4,230.15 Q148.3,227.25 145.25,221.35 L145.1,221.45 134.75,226.25 Q137.55,228.6 139.3,229.55 142.2,231.25 144.45,230.9 L146.3,230.4 146.4,230.15 M147.3,213.7 Q142.7,208.4 137.55,206.65 140.95,211 144.15,216.25 146.55,220.15 147.4,222 149.3,225.95 149.15,228.65 L152.7,225.2 153.85,223.85 Q151,217.95 147.3,213.7 M119.3,202.9 Q118.2,204.95 120.15,208.8 120.9,210.35 123.55,214.15 127.8,220.05 132.8,224.55 L144.15,219.35 141.55,215.25 Q138.05,209.9 134.65,205.65 132.05,203.55 129.1,202.35 126.6,201.35 123.95,201.2 120.35,201 119.3,202.9 M112.3,137.7 Q112.05,141.9 109.65,143.05 L111.05,151.6 Q111.15,153.85 110.05,154.65 L109.9,154.75 Q112.85,158 114.3,156.8 115.3,155.95 113.75,153.2 112,150.2 112.1,149.85 L112.4,149.85 114.55,152.25 Q116.4,154.2 117.45,153.3 118.15,152.7 115.7,148.75 L112.8,144.4 114.1,142.4 115,139.95 115.2,138.25 Q113.9,138.25 112.3,137.7 M107.4,141.75 L108.25,141.45 109.45,140.65 Q110.6,139.4 110.6,137.1 L109.05,136.4 Q104.6,134.15 102.95,128.15 98.1,136.6 98.15,142.25 98.15,146.25 100.3,150.7 101.75,153.65 103.8,156.3 L104.65,157.3 105.65,158.1 Q108.8,160.55 110.25,159.7 110.8,159.4 110.9,158.65 111,158 110.7,157.6 L109.55,155.4 109.4,154.95 Q108.05,155.35 105.9,154.1 101.95,151.8 100.9,145.2 100.1,140.15 100.85,138.45 101.1,137.8 102,137.85 102.85,137.9 102.85,138.65 102.65,142.5 102.95,144.75 103.75,150.45 106.95,152.35 108.45,153.25 108.85,153.05 109.45,152.65 108.45,147.6 L107.4,141.75 M131,87.25 Q127.8,90.1 125.15,93 118.05,100.9 111.95,110.85 108.2,116.95 105.6,122.4 L105.4,122.8 Q104.7,124.2 104.7,124.9 104.9,127.25 105.65,129.25 106.95,132.95 109.7,134.35 114,136.5 115.85,136.05 120,129.25 126.6,122.75 L124.35,113.6 Q123.05,108.2 122.7,104.4 124.4,107.4 125.25,108.5 L127.85,119.75 Q129.6,127.2 129.8,130.8 L129.85,132.05 Q133.7,136.15 138.7,136.3 138.85,135.3 138.1,128.85 136.8,117.6 136.7,110.8 136.7,108.3 137.9,101.45 138.95,95.7 138.75,94.75 132.2,92.55 131.15,88.55 L131,87.25 M126.35,34.55 L125.55,34.15 Q124.85,34.15 124.5,35.3 124.15,36.5 124.4,38.05 124.55,39.25 125.9,41.45 127,38.85 128.7,35.9 127.45,35.55 126.35,34.55 M168.8,203.4 L173.4,208.95 Q179.1,211.8 184.6,208 189.6,204.55 191.25,198.35 L191.35,198.1 190.7,197 Q187.6,191.35 185,187.7 181.45,182.75 177.65,179.75 173.85,192.6 168.8,203.4 M173.55,211.05 L171.35,214.4 Q174.35,214.55 177.9,216.25 178.75,216.7 178.7,217.65 178.65,218.65 177.6,218.15 173.2,215.95 170,216.65 168.3,219.75 167.9,221.1 167.1,223.9 168.7,225.5 171.8,228.55 179.65,224.25 186.1,220.6 189.75,214.05 191.55,210.9 192.35,208.85 193.65,205.6 193.4,203.2 L192.75,200.9 Q190.5,207.2 185.25,210.35 179.5,213.8 173.55,211.05 M179.85,160.75 Q181.3,151.7 180.85,144 L178.45,145.7 Q169.75,151.25 158.2,152.05 146.65,152.8 137.3,148.5 132.8,146.45 129.75,144.1 130.5,151 134.25,158 137.65,164.5 142.95,169.8 143.75,162 144,154.15 144.05,153.2 145.05,153.75 146.05,154.35 146,155.15 145.7,165.7 144.2,177.45 142.95,187.5 141.1,194.35 139.3,200.9 137,204.45 142.65,206.15 147.7,211.6 151.85,216.1 155.05,222.4 158.2,218.4 161.4,212.75 170.75,196.25 176.1,177.1 178.7,167.9 179.85,160.75 M206.9,159.45 Q207.9,153.3 208.2,153.6 209,154.35 208.4,158.2 L207.85,161.85 Q209.7,161.85 210.4,159.15 211.9,153.6 211.05,146.6 210.75,144.25 209.55,141.6 206.85,148.1 201.5,149.65 L193.7,149.95 Q192.75,151.95 191.7,153 L187.2,156.3 186.8,156.8 Q186.4,157.85 187.9,158.05 L191.3,157.65 194.75,156.1 Q196.65,155.2 196.75,155.4 L196.85,155.9 196.1,166.25 Q195.5,172.05 196.5,172.35 197.95,172.85 199.9,167.55 L201.45,160.65 Q202.35,155.6 202.5,155.65 203.6,155.95 202.8,161.45 L201.9,167 202.1,167.1 202.7,167 Q205.4,166.05 206.9,159.45 M170.45,79.25 L167.75,77.3 Q167,82.6 161.7,86.3 156.7,89.8 150.95,89.8 147.7,89.8 145.2,88.5 142.5,87.1 141.15,84.4 138.55,83.45 136.9,82.5 L133.45,85.15 Q132.7,86.7 133.1,88.05 133.85,91 139.7,92.95 L139.85,93 Q140.85,93.5 140.8,95.55 L139.9,101.8 Q138.7,108 138.7,110.8 138.8,117.5 140.1,128.6 L140.7,135.2 Q140.75,137.2 140.15,137.85 139.8,138.3 139.05,138.3 134.05,138.3 129.9,134.85 L129.6,141.8 Q134.05,145.55 140.2,147.7 151.45,151.65 164.7,148.6 171.8,147.05 176.15,144.3 178.6,142.75 179.9,141.4 180.5,140.75 180.55,140.3 L180.4,139 Q179.95,136.35 179.95,132.9 171,138.6 156.8,139.7 L156.6,139.75 Q155.65,139.75 154.95,137.75 153.9,134.6 153,126.1 152.05,116.25 152.15,108.9 152.35,95.4 156.2,94.9 159.85,94.55 163.5,92.45 167.2,90.35 169.2,87.4 169.95,86.3 170.35,83.8 170.75,81.3 170.45,79.25 M193.9,104.05 Q189.25,96.35 181,88.2 177.8,85 172.85,81.1 173.45,84.8 170.85,88.55 168.55,91.9 164.5,94.2 160.5,96.55 156.4,96.9 155.95,97.05 155.5,98.2 153.5,103.3 154.5,119.45 155.45,134.55 157.05,137.7 165.9,136.95 173.1,134.1 177.25,132.45 180.1,130.4 L180.2,128.95 Q176.75,124.35 165.3,114.7 L166.2,113.85 Q169.6,116.1 176.9,123.1 187.55,133.3 191.95,141.45 L194.9,148.05 196.6,148.35 Q198.45,148.35 201.25,147.55 204.2,146.7 206.25,143.3 207.4,141.35 207.95,139.2 208.1,138.65 207.65,137 L207.55,136.6 Q206.05,130.8 203.5,124.1 199.4,113.15 193.9,104.05 M172.65,32.55 Q171.7,29.65 169,29.65 L168.65,29.65 164.3,30.6 Q162.7,31.2 161.65,31.2 160.2,31.2 159.35,30.2 156.5,26.9 153.1,26.9 151.8,26.9 150.65,27.5 148,28.95 146.4,28.95 L144.5,28.55 Q142.55,27.3 141.1,27.3 L140.1,27.55 Q139.3,28 137.05,30.85 L134.55,34 Q132.6,35.65 130.6,36 126.75,42.45 125.45,48.85 123.4,59.15 127.65,68.85 132.1,79 141.3,83.05 146.35,85.25 150.55,85.25 L153.8,84.95 154.05,85.05 Q154.2,85.45 151.95,86.15 L148.65,86.85 148.4,86.85 Q149.45,87.55 151.4,87.55 155.55,87.55 159.95,84.75 164.7,81.8 165.15,78.05 162.35,80 160.3,80 159.65,80 159.6,79.75 159.55,79.45 160.25,79.05 166.8,74.75 171.2,66.75 L172,66.8 Q176.25,66.8 177.95,62.8 179.65,58.7 176.1,56 175.55,55.2 176.25,54.85 176.6,54.65 177.05,54.6 L177.2,54.2 Q174.6,50.15 172.75,48.3 L170.3,46.45 Q169.6,46.05 169.6,45.45 169.6,44.9 170.1,44.9 L170.3,44.95 Q171.7,45.45 173.6,47.35 176,49.7 177.8,53.6 L177.9,53.65 178.1,52.55 Q175.6,47.55 173.35,45.4 172.25,44.25 170.75,43 L169.5,42 Q169.05,41.75 169.2,41.35 169.3,40.95 169.8,40.95 L170.2,41.05 Q171.3,41.4 174.2,44.55 176.55,47.3 178.2,51.1 178.2,46.3 174.3,42.65 172.75,41.25 169.6,39.3 168.95,38.95 169.2,38.4 L169.65,37.95 Q173.65,35.7 172.65,32.55 M174.6,53.65 L174.4,53.85 Q174.15,53.85 173.4,52.9 L172.05,51.45 170.1,50.15 Q169.5,49.75 169.65,49.3 169.8,48.85 170.25,48.85 L170.4,48.85 Q171.8,49.5 172.85,50.6 L174.1,52.3 Q174.7,53.25 174.6,53.65 M169.8,53.1 Q169.9,52.65 170.3,52.65 L170.6,52.75 171.8,53.7 Q172.5,54.45 172.55,55.2 172.6,56 172,56 171.4,56 171.4,55.45 171.35,55 170.7,54.35 L170,53.8 Q169.65,53.55 169.8,53.1 M144.3,43.9 Q144.8,44 144.55,44.95 143.8,47.6 142.55,50 L140.45,54 Q140,54.9 140.55,55.7 L142.4,58.15 Q142.65,58.5 142.55,58.8 L142.05,59.2 140.95,59.5 Q140.15,59.5 139.6,58.9 L137.4,55.6 Q136.85,54.7 137.45,54 L141.4,48.75 143.4,44.75 Q143.75,43.9 144.25,43.9 L144.3,43.9 M154,36.05 L154.7,35.1 Q154.95,34.6 155.5,34.6 L156,34.75 158.2,36.85 Q160.3,39.2 159.95,40.45 159.6,40.45 158.45,39.75 L156.35,38.55 153.5,37.35 Q153.3,37.05 154,36.05 M154.6,43.65 Q155.35,43.7 155.85,44.7 156.4,45.75 156.3,47.1 156.25,48.5 155.7,49.45 155.15,50.45 154.4,50.45 153.65,50.45 153.15,49.45 152.6,48.4 152.65,47 152.7,45.6 153.25,44.65 153.8,43.65 154.55,43.65 L154.6,43.65 M131.55,38.75 L131.05,38.6 Q131.05,38.4 131.45,38.15 L135.3,35.75 135.8,35.6 Q136.45,35.6 136.5,36.35 L136.7,37.35 Q136.8,37.85 136.5,38.2 L135.65,38.6 131.55,38.75 M132.15,44.75 Q132.7,43.75 133.45,43.75 134.2,43.8 134.7,44.8 135.25,45.8 135.2,47.2 135.15,48.6 134.6,49.6 134.05,50.55 133.3,50.55 L133.25,50.55 Q132.5,50.55 132,49.55 131.5,48.5 131.55,47.1 131.6,45.7 132.15,44.75 M131.1,61.85 Q131.35,61.6 131.45,61.6 131.75,61.6 131.65,62.1 L131.65,62.8 Q131.6,63.2 131.9,63.55 L132.55,63.95 140.4,64.95 141.8,64.9 Q145.15,64.5 152,61.95 L152.75,61.4 Q153.1,60.95 152.95,60.6 L152.3,59 Q152.05,58.5 152.45,58.5 L152.8,58.6 157.8,62.15 Q158.6,62.7 158.45,63.65 L157.55,68.2 157.2,68.65 156.8,68.35 156.75,66.05 Q156.4,65.55 155.7,65.55 L155.3,65.6 Q153.4,67.05 150.9,68.5 145.85,71.4 142.8,71.4 L142.75,71.4 Q139.65,71.35 135.85,69.5 L132.7,67.65 132.45,67.65 Q131.7,67.65 131.8,68.4 L131.8,68.9 Q131.8,69.35 131.6,69.35 L131.3,69.05 129.15,65.75 Q128.65,64.9 129.25,64.1 L131.1,61.85 M144.9,73.4 Q145.05,74.3 144,74.65 L142.3,74.9 140.95,74.65 139.25,73.75 138.9,73.4 Q138.95,73.2 139.4,73.15 L143.6,72.65 143.8,72.65 Q144.75,72.65 144.9,73.4 M132.35,64.9 Q131.3,64.9 131.5,65.75 131.8,66.7 132.45,66.85 L138.65,68.95 141.8,69.3 146.8,68.65 Q148.85,67.95 154.35,65 L155.2,64.3 Q155.55,63.7 154.9,63.2 154.3,62.75 153.6,62.75 L152.45,62.95 Q146.2,65.5 142.25,65.8 L140.85,65.85 135.25,65.4 132.5,64.9 132.35,64.9 M170.35,19.25 Q167.9,16.1 165,15.7 L160.55,14.55 Q159.85,14.3 159.05,13.7 L157.7,12.65 Q155.55,11.2 154.1,11.2 L153.8,11.25 Q152.65,11.4 150,15.45 L148.25,17.9 Q147.7,18.45 146.95,18.45 L142.55,17.5 141.4,17.65 Q139.7,18.05 135.2,23.25 133.4,25.3 130.85,25.3 129.1,25.3 127.7,24.2 126.45,23.25 126.65,21.35 125.4,22.55 124.75,24.3 123.95,26.45 124.6,29.25 125.25,32.1 127.1,33.85 128.05,34.75 129.45,34.75 131.45,34.75 133.45,33 L135.85,30 Q138.2,27.1 139.15,26.55 140.5,25.8 141.5,25.8 142.2,25.8 144.1,26.75 L145.5,27.45 146.1,27.55 147.65,27 153.1,23.65 153.9,23.5 Q155.7,23.5 158.6,26.6 161.6,29.9 161.95,29.95 L162.25,30 Q163,30 165.3,29 167.7,27.9 168.75,27.75 L169.85,27.65 Q172.5,27.65 174,29.55 175.1,30.95 175.4,32.95 175.6,34.35 174.1,36.25 L171.35,38.85 175.3,42.05 Q178.3,45 179.2,49.2 180.2,46.5 180.8,42.95 182,35.85 180.05,31.45 178.95,28.95 177.4,26.75 175.25,23.7 173.3,22.85 173,22.75 170.35,19.25Z"/></g><g id="Symbol-6f0r1"><path fill="#FFF" stroke="none" d="M97.65,201 Q97.4,199.25 96.05,200 L92.2,203.35 Q89.95,201.55 85.95,200.5 84.8,192.25 76.35,188.45 69,173 52.3,170.3 46.35,169.2 41.1,166.35 30.65,160.75 30.8,151.5 30.95,145.3 37.55,141.25 38.95,140.4 45.1,138 47.4,137.05 46.5,135.4 45.55,133.8 43.85,134.1 38.4,135.1 33.5,139.05 26.45,144.7 26.5,153.35 27.4,163.2 36,169.4 40.35,172.55 45.25,174.3 44.2,175.2 42.9,178.15 41.5,181.3 41.5,183.35 41.5,187 46.75,195.9 47.65,197.4 47.65,198.15 47.65,199.4 45.75,200.25 43,201.7 43,202.9 43,203.75 43.9,205.25 50.5,215.7 51.85,216.95 54.05,218.8 56.35,217.2 57.2,216.5 57.2,215.7 57.2,214.25 53.5,210.7 L50.5,204.6 Q53.4,201.9 54.45,198.9 56.6,201.35 59.6,203 61.2,205.3 63.05,209.95 L66.3,217.55 Q69.05,222.9 71.65,222.9 74.9,222.9 74.9,220.9 74.9,219.8 73.5,217.95 L71.15,214.85 Q71,214.55 71.25,214.55 73.8,215.35 76.5,215.2 78.1,217.75 79.25,218.75 80.45,219.7 83.6,220.8 84.95,221.35 85.85,222.3 87.6,224.05 89.05,224.05 90.55,224.05 92.8,222.4 95.2,226.8 100.4,229 L103.4,229.65 Q105.4,229.65 105.75,228 106.25,225.75 103.5,224.8 98.2,222.55 95.7,218.95 95.55,218.7 95.8,218.3 98.05,215.45 96.65,211.2 98.4,207.3 97.65,201 M87.7,217.5 L87.65,217.65 87.5,217.7 87.2,217.7 Q86.4,217.7 85.4,217 84.2,216.2 84,215.25 L83.9,214.95 84.2,214.95 Q84.3,214.95 84.7,214.75 L84.85,214.65 85,214.75 86.1,215.95 86.95,214.8 87.15,215.05 Q88,216.15 87.7,217.5 M93.35,214.65 L94.35,215.7 95.35,214.25 96.3,214.7 96.45,214.8 96.4,215 Q96.05,215.95 95.1,216.75 94,217.7 93.05,217.7 L92.85,217.7 92.8,217.5 Q92.55,216.1 93.2,214.95 L93.35,214.65 M85.6,204.9 L85.7,205 85.7,205.1 Q85.7,205.4 85.4,205.75 L85.25,206 85.05,205.8 78.6,202 Q77.55,204.5 77.4,208.35 77.4,208.7 77.1,208.7 L76.8,208.45 Q75.6,203.85 77.5,199.8 L77.6,199.6 77.8,199.65 Q79.6,199.9 85.6,204.9Z"/></g></g></svg>