<?xml version="1.0" encoding="utf-8"?><svg id="Luck" image-rendering="auto" baseProfile="basic" version="1.1" x="0px" y="0px" width="240" height="240" xmlns="http://www.w3.org/2000/svg" xmlns:xlink="http://www.w3.org/1999/xlink"><g id="Scene-1f1r1" overflow="visible"><g id="Symbol-7"><path fill="#FFF" stroke="none" d="M119.75,133.85 L116.8,133.5 Q116.9,137.75 114.6,139.05 L116.65,147.45 Q116.9,149.7 115.8,150.6 L115.7,150.7 117.9,152.4 Q119.4,153.25 120.25,152.4 121.2,151.45 119.4,148.85 117.45,145.95 117.5,145.65 L117.65,145.65 Q117.6,145.5 117.8,145.6 L120.15,147.9 Q122.15,149.7 123.15,148.7 123.8,148.05 121.05,144.3 L117.85,140.15 119,138.1 Q119.6,136.65 119.65,135.55 L119.75,133.85 M106.55,134.4 Q107.4,134.4 107.45,135.15 107.65,139.45 108.05,141.25 109.2,146.9 112.55,148.55 114.15,149.3 114.55,149.05 115.1,148.6 113.7,143.7 L112.25,137.9 113.05,137.55 114.2,136.65 Q115.25,135.3 115.05,133 L113.5,132.45 Q108.8,130.5 106.8,124.65 102.6,133.45 103.05,139.1 103.55,145.8 109.75,152.65 L110.65,153.6 111.75,154.35 Q113.05,155.25 114.25,155.65 L116.4,155.6 Q116.9,155.25 116.95,154.55 117.05,153.85 116.7,153.5 L115.4,151.35 115.2,150.95 Q113.9,151.45 111.7,150.35 107.6,148.3 106.05,141.85 104.85,136.85 105.45,135.1 105.7,134.45 106.55,134.4 M109,118.75 L108.85,119.15 Q108.25,120.55 108.3,121.3 109.5,128.5 114,130.35 118.6,132.25 120.25,131.6 123.05,126.35 126.8,121.45 L122.95,104.85 125.3,106.55 127.5,115.9 Q129.25,123.35 129.5,126.95 L129.55,128.3 Q133.15,131.9 137.8,132.05 L137.3,124.6 Q136.1,113.2 136.1,106.6 136.1,104.15 137.4,97.2 138.5,91.4 138.35,90.5 131.8,88.25 130.8,84.25 L130.6,82.95 126.3,88 Q119.85,96.4 114.45,106.8 111.15,113.15 109,118.75 M125.25,30.1 Q124.8,29.65 124.4,29.65 123.75,29.65 123.4,30.85 123.05,32 123.25,33.55 123.5,34.85 124.75,36.95 125.95,34.2 127.6,31.4 126.4,31.2 125.25,30.1 M164.9,226.85 Q167.55,225.25 167.65,223.85 L167.7,223.1 Q167.6,220.95 166.3,218.3 163.35,221.5 159.7,223.1 L157.25,223.95 Q151.85,225.4 147.05,223.1 L146.75,222.95 146.55,223.1 Q143.2,225.25 140.95,227.1 138.05,229.3 136.7,230.65 133.75,233.55 134.5,235.2 135.25,236.7 139.8,236.35 145.45,236 149.85,234.3 152.8,233.15 155.45,230.85 L160.05,226.1 161.1,226.15 Q161.65,226.55 161.8,227 162.2,228.45 164.9,226.85 M182.1,179.05 L180.95,176.5 Q179.95,175.05 178.8,176 176.2,188.95 172,202.6 174.95,213.85 178.15,212.25 179.65,211.5 180.7,208.8 182.1,205.3 182.55,200.15 L182.85,196.7 Q183,194.6 182.8,193.2 182.65,192.35 181.9,191.25 L180.6,189.45 Q179.65,187.9 179.45,187.1 179.05,185.6 180.2,184.9 L182.9,184 Q183.55,183.7 182.1,179.05 M179.95,154 Q179.4,155 180.85,155.4 L184.3,155.25 187.9,154 Q189.85,153.25 189.95,153.5 L190,154 187.75,167.9 Q187.55,170.1 188.15,170.35 189.6,171 192,165.9 L194.15,159.15 Q195.5,154.2 195.65,154.25 196.7,154.7 195.4,160.05 L194.05,165.5 194.25,165.6 194.8,165.6 Q197.65,164.9 199.7,158.45 201.25,152.35 201.5,152.7 202.2,153.55 201.3,157.35 L200.45,160.95 Q202.3,160.95 203.2,158.45 205.25,153.05 204.95,146 204.9,143.7 203.95,140.9 202.6,143.55 200.6,145.4 198.15,147.65 195.2,148.2 190,149.2 187.4,147.8 186.45,149.6 185.15,150.65 183.55,152 181.3,153.05 180.55,153.4 180.35,153.55 L179.95,154 M180.4,140.25 L178.1,141.85 Q169.4,147.4 157.85,148.2 146.35,148.95 137,144.65 132.2,142.45 129.25,140.1 129.05,152.5 132.75,164 136.85,176.65 144.7,184.85 145.2,168 147.5,154.3 147.65,153.35 148.65,153.9 149.6,154.5 149.5,155.3 144.6,184.75 147.35,221.25 152,223.4 157.2,221.6 161.9,219.9 165.45,215.65 165.5,215.05 165.85,214.15 L169.8,202.35 Q177.4,177.8 179.6,156.35 L178.8,155.85 Q177.8,155 177.95,153.85 178.05,152.4 180.05,151.45 L180.05,151.25 Q180.4,146.15 180.4,140.25 M169.75,83.1 Q170.5,82 171.05,79.9 171.6,77.55 171.4,75.75 168.5,73.3 166.7,72 166.3,77.6 160.9,81.6 155.8,85.3 149.8,85.3 146.55,85.3 144.1,84 141.35,82.6 140,79.9 137.7,79.05 135.7,77.95 L133.7,79.8 Q132.3,81.95 132.7,83.8 133.45,86.8 139.3,88.7 L139.45,88.8 Q140.45,89.35 140.35,91.35 L139.35,97.6 Q138.1,104.05 138.1,106.6 138.1,113.6 139.25,124.4 L139.8,131 Q139.85,133 139.25,133.65 138.8,134.1 138.25,134.1 133.15,134.05 129.55,131.15 L129.3,137.95 Q133.2,141.2 138.65,143.35 149.75,147.75 163.4,144.95 170.35,143.5 174.55,141.2 L178.3,138.9 Q180.4,137.25 180.1,135.55 179.75,133.4 179.7,131.6 L178.5,129.6 Q175.5,131.55 171.1,132.95 164.45,135.15 155.9,135.7 L155.7,135.7 Q154.75,135.7 154.05,133.7 153,130.55 152.25,122.05 151.35,112.75 151.55,104.85 151.9,91.35 155.75,90.9 159.6,90.55 163.6,88.35 167.6,86.15 169.75,83.1 M180.05,84.2 Q177.45,81 173.4,77.5 173.7,81 171.35,84.25 168.95,87.65 164.6,90.1 160.25,92.5 155.95,92.85 155.55,92.95 155,94.15 152.95,99.2 153.8,115.35 154.55,130.55 156.15,133.65 164.25,133.1 170.55,131 174.7,129.65 177.4,127.9 173.55,122 166.85,115.25 L166.15,114.55 167.15,113.6 Q176.75,122.5 179.45,126.65 184.45,134.3 186.4,139.2 188.15,143.5 188.75,146.05 190.35,147 195.15,146.05 198.2,145.5 200.5,142.3 201.8,140.55 202.55,138.4 L202.5,136.15 202.4,135.75 Q201.5,130 199.55,122.9 196.4,111.65 191.75,102.1 187.35,93.1 180.05,84.2 M171.55,28.05 Q170.6,25.15 167.85,25.15 L167.55,25.15 163.15,26.1 Q161.55,26.7 160.5,26.7 159.1,26.7 158.25,25.7 155.4,22.4 152,22.4 150.6,22.4 149.55,23 146.9,24.45 145.3,24.45 L143.4,24.05 Q141.4,22.8 139.95,22.8 L138.95,23.05 Q138.15,23.5 135.9,26.35 L133.45,29.5 Q131.35,31.2 129.5,31.5 125.6,37.95 124.35,44.35 122.25,54.7 126.5,64.4 130.9,74.5 140.15,78.55 145.4,80.8 149.45,80.8 L152.7,80.45 152.9,80.55 Q153.05,80.95 150.8,81.65 L147.5,82.35 147.25,82.35 Q148.45,83.1 150.3,83.1 154.45,83.1 158.85,80.3 163.6,77.3 164,73.55 161.2,75.5 159.15,75.5 158.55,75.5 158.5,75.25 158.45,74.95 159.1,74.55 165.6,70.3 170.1,62.25 L170.85,62.3 Q175.1,62.3 176.8,58.3 178.5,54.25 174.95,51.55 174.5,50.85 175,50.4 L176.4,50.6 176.45,50.25 171.65,43.8 169.15,41.95 Q168.45,41.55 168.45,40.95 168.5,40.4 168.95,40.4 L169.15,40.45 Q170.65,41.05 172.5,42.85 173.85,44.2 175.15,46.3 L176.75,49.25 176.95,48.05 Q174.45,43.05 172.2,40.9 L168.35,37.5 Q167.95,37.25 168.05,36.85 168.2,36.45 168.7,36.45 L169.05,36.55 Q170.05,36.85 173.1,40.1 175.65,43.05 177.05,46.6 177.15,41.9 173.2,38.15 171.75,36.8 168.45,34.8 167.8,34.4 168.1,33.95 168.35,33.5 168.55,33.5 172.55,31.25 171.55,28.05 M169.1,44.35 L169.25,44.4 Q170.65,44.9 171.7,46.1 L173,47.8 Q173.55,48.75 173.5,49.15 L173.3,49.35 170.9,46.95 168.95,45.65 Q168.4,45.25 168.55,44.8 168.7,44.35 169.1,44.35 M170.25,50.95 Q170.2,50.5 169.55,49.85 L168.9,49.3 Q168.5,49.05 168.65,48.6 168.75,48.2 169.2,48.2 L169.5,48.25 170.7,49.2 Q171.4,49.95 171.45,50.7 171.5,51.5 170.9,51.5 170.35,51.5 170.25,50.95 M154.9,30.25 L157.05,32.35 Q159.15,34.7 158.85,35.95 L158.8,35.95 157.3,35.3 155.2,34.05 152.4,32.85 Q152.2,32.55 152.9,31.55 L153.6,30.6 Q153.85,30.1 154.35,30.1 L154.9,30.25 M152.15,40.15 Q152.7,39.15 153.45,39.15 154.25,39.2 154.75,40.2 155.25,41.2 155.2,42.6 155.15,44 154.6,45 154.05,45.95 153.3,45.95 L153.25,45.95 Q152.5,45.95 152,44.95 151.5,43.95 151.55,42.5 151.6,41.1 152.15,40.15 M134.15,31.3 L134.65,31.1 Q135.25,31.1 135.4,31.85 L135.55,32.85 Q135.65,33.35 135.35,33.7 135.05,34.1 134.55,34.1 L130.4,34.3 Q130,34.3 129.95,34.1 L130.35,33.7 134.15,31.3 M132.3,39.25 L132.35,39.25 Q133.1,39.3 133.6,40.3 134.1,41.35 134.05,42.75 134,44.15 133.45,45.1 132.9,46.05 132.15,46.05 131.35,46.05 130.85,45.05 130.35,44.05 130.4,42.6 130.45,41.2 131,40.25 131.55,39.25 132.3,39.25 M140.25,44.25 L142.25,40.25 Q142.7,39.4 143.15,39.4 L143.2,39.4 Q143.75,39.5 143.45,40.45 142.65,43.1 141.4,45.5 L139.3,49.5 Q138.85,50.4 139.45,51.2 L141.3,53.65 Q141.55,54 141.4,54.3 L140.9,54.75 139.8,55 Q139.05,55 138.5,54.4 L136.25,51.1 136.05,50.3 136.35,49.5 140.25,44.25 M130.35,57.1 Q130.55,57.1 130.55,57.6 L130.5,58.3 Q130.5,59.3 131.45,59.45 L139.3,60.45 140.65,60.4 Q144,60 150.85,57.45 151.3,57.35 151.6,56.9 151.95,56.45 151.8,56.1 L151.2,54.55 Q150.95,54 151.3,54 L151.65,54.1 156.65,57.65 Q157.55,58.2 157.35,59.15 L156.4,63.7 156.05,64.15 155.65,63.85 155.65,61.6 Q155.25,61.05 154.6,61.05 L154.15,61.1 Q152.25,62.55 149.75,64 144.75,66.9 141.65,66.9 L141.6,66.9 Q138.55,66.85 134.75,65.05 L131.6,63.2 131.35,63.15 Q130.65,63.15 130.65,63.9 L130.65,64.4 Q130.75,64.85 130.5,64.85 L130.15,64.55 128,61.25 127.85,60.45 128.1,59.65 129.95,57.4 Q130.2,57.1 130.35,57.1 M138.15,69.3 Q137.25,68.8 138.3,68.65 L139.4,68.6 142.5,68.15 142.7,68.15 Q143.6,68.15 143.75,68.9 143.85,69.3 143.55,69.7 L142.85,70.15 141.15,70.4 139.85,70.15 138.15,69.3 M131.25,60.4 Q130.15,60.4 130.4,61.25 130.6,62.2 131.35,62.35 L137.5,64.45 140.7,64.8 145.65,64.15 Q147.75,63.45 153.25,60.55 L154.05,59.8 Q154.45,59.2 153.8,58.7 153.2,58.25 152.5,58.25 L151.3,58.45 Q145.1,61 141.15,61.35 L139.75,61.4 131.4,60.4 131.25,60.4 M172.2,18.4 L169.25,14.75 Q166.8,11.6 163.85,11.2 L159.45,10.05 Q158.7,9.8 157.9,9.2 L156.55,8.15 Q154.45,6.7 153,6.7 L152.65,6.75 Q151.4,6.9 148.9,11 L147.15,13.4 Q146.6,13.95 145.8,13.95 L141.45,13 140.25,13.15 Q138.55,13.6 134.05,18.75 132.25,20.8 129.7,20.8 127.95,20.8 126.55,19.7 125.4,18.75 125.5,16.85 124.2,18.15 123.6,19.8 122.85,21.95 123.45,24.75 124.15,27.6 126,29.35 126.9,30.25 128.3,30.25 130.35,30.25 132.35,28.5 L134.75,25.5 Q137.05,22.65 138.05,22.05 139.35,21.3 140.35,21.3 141.1,21.3 143,22.25 L144.35,22.95 145,23.1 Q145.55,23.1 146.5,22.5 L151.95,19.15 152.8,19 Q154.55,19 157.45,22.15 160.45,25.4 160.8,25.45 L161.1,25.5 Q161.9,25.5 164.15,24.5 166.6,23.4 167.6,23.25 L168.7,23.15 Q171.35,23.15 172.9,25.05 174,26.5 174.25,28.45 174.5,29.85 173,31.75 L170.25,34.35 174.15,37.55 Q177.15,40.5 178.05,44.7 179.05,42 179.65,38.45 180.85,31.35 178.9,26.95 177.75,24.4 176.25,22.25 174.15,19.2 172.2,18.4Z"/></g><path fill="#FFF" stroke="none" d="M17.1,141.55 Q17.25,139.15 15.4,139.2 13.45,139.35 13.05,141.05 11.2,148 13.9,156.95 16.4,165.2 20.25,168.05 25.7,172.15 35.3,173.25 L41.65,173.8 Q44.55,174.1 45.05,174.5 40.2,176.55 40,181.95 39.85,184.8 40.7,187.35 40.7,187.6 36.75,185.95 32.55,184.15 31.6,184.95 30.55,185.85 31.15,187.95 31.45,189.4 32.35,190.7 38.95,201.2 40.3,202.4 42.55,204.35 44.8,202.65 45.65,202.1 45.65,201.2 45.65,199.8 41.9,196.2 41.6,195.55 47.2,199.6 53.25,203.15 54.3,199.1 55,200.05 59.7,209.2 64.85,218.3 68.2,219.35 70.2,220.9 73.35,225.15 L78.95,230.45 Q82.7,233.75 83.3,235.7 83.95,238.1 86.35,239.2 88.15,239.9 89.85,239.6 92.95,238.75 92.5,236.85 92.2,235.75 90.4,234.25 L88.7,232.85 Q86.9,231.2 86.5,229.6 86.35,229.1 80.45,223.05 75.2,217.65 76.3,215.45 77.95,218.1 79.05,218.95 80,219.85 83.4,221 84.8,221.6 85.65,222.55 87.4,224.3 88.9,224.3 90.3,224.3 92.6,222.65 L95.5,219.2 Q95.35,218.95 95.6,218.6 97.8,215.65 96.45,211.45 98.2,207.55 97.45,201.25 97.2,199.5 95.85,200.25 94.6,200.9 92,203.6 89.75,201.8 85.75,200.75 86.35,198.15 84.8,196 83.2,193.9 79.05,191.95 75.3,184.1 67.95,178.15 60.45,171.95 52.15,170.5 L40.45,169.95 Q28.3,168.55 22.8,164.15 17.55,160.05 16.8,150.95 16.65,149 17.1,141.55 M84.85,206.05 Q84.05,205.35 82.15,204.35 L78.45,202.3 Q77.35,204.65 77.2,208.6 77.2,208.95 76.9,208.95 L76.6,208.7 Q75.4,204.05 77.3,200 L77.4,199.85 77.6,199.85 Q79.5,200.25 85.45,205.15 L85.5,205.2 85.5,205.35 85.25,205.95 85.05,206.2 84.85,206.05 M86.75,215 L86.95,215.25 Q87.8,216.4 87.5,217.7 L87.5,217.9 87,217.9 Q86.1,217.9 85.2,217.3 83.95,216.35 83.8,215.5 L83.7,215.2 84,215.2 84.5,214.95 84.65,214.9 84.8,214.95 85.9,216.2 86.75,215 M96.3,215.05 L96.2,215.25 Q95.95,216.05 94.9,216.95 93.9,217.9 92.85,217.9 L92.65,217.9 92.6,217.7 Q92.3,216.35 93,215.2 L93.15,214.95 93.4,215.15 94.15,215.95 95.05,214.65 95.2,214.5 95.35,214.55 96.3,215.05Z"/></g></svg>