<?xml version="1.0" encoding="utf-8"?><svg id="Luck" image-rendering="auto" baseProfile="basic" version="1.1" x="0px" y="0px" width="240" height="240" xmlns="http://www.w3.org/2000/svg" xmlns:xlink="http://www.w3.org/1999/xlink"><g id="Scene-1f2r1" overflow="visible"><g id="Symbol-8"><path fill="#FFF" stroke="none" d="M123.9,154.2 L124,149.5 120.55,149.4 Q116.15,148 113.65,141.85 111.75,137.1 112.05,135.25 112.2,134.6 113.05,134.45 113.9,134.3 114.05,135 114.8,139 115.55,140.95 117.6,146.35 121.15,147.45 L123.15,147.7 Q123.7,147.05 121.5,142.5 L119.2,137 119.95,136.55 120.9,135.5 Q121.8,133.95 121.25,131.75 L119.6,131.4 Q114.7,130.2 111.8,124.75 109,134.15 110.25,139.6 111.15,143.5 114.3,147.35 116.35,149.9 119,152 L120,152.75 121.2,153.35 Q122.6,154.05 123.9,154.2 M124.45,144.2 Q125,139.2 126.2,133.8 126.05,133 126.15,131.8 L123.05,132 Q123.8,136.2 121.7,137.8 L124.45,144.2 M116.55,106.25 Q114.25,113.05 113.1,118.6 L113,119 Q112.6,120.55 112.8,121.2 113.45,123.4 114.65,125.25 116.75,128.55 119.75,129.25 124.3,130.4 126.15,129.6 L126.55,128.5 126.55,129.1 Q126.8,124 126.2,120.05 125.75,116.85 124.5,111.85 L122.5,103.6 123.65,99.55 126.5,111.95 Q128.25,119.5 128.45,123 L128.55,125.35 Q130.95,127.9 135.8,128.15 135.95,127 135.35,120.65 134.25,109.2 134.3,102.65 134.35,99.8 135.7,93.3 136.85,87.6 136.7,86.6 130.1,84.3 129.35,80.4 L129.25,80 Q126.7,83.35 125.1,86.35 120.15,95.5 116.55,106.25 M126.45,28.9 Q125.2,28.55 124.1,27.55 123.6,27.15 123.3,27.15 122.6,27.15 122.25,28.3 121.9,29.5 122.15,31.05 122.3,32.25 123.65,34.45 124.75,31.85 126.45,28.9 M174.9,212.3 Q171,216.55 165.85,217.95 160.35,219.45 155.4,216.95 L145.3,224.6 Q142.4,227.55 143.15,229.2 143.85,230.7 148.45,230.35 154.15,230 158.45,228.3 161.4,227.15 164.05,224.85 L168.65,220.1 169.7,220.15 170.4,221 Q170.7,222 172.8,221.2 174.55,220.55 175.2,219.9 177.2,217.9 175.5,213.7 L174.9,212.3 M177.95,199.95 Q181.95,200.85 181.8,194.85 181.7,190.9 179.95,184.8 L177.95,199.95 M181,151.7 L181,152.25 178.2,162.2 Q176.5,167.75 177.35,168.3 178.05,168.7 179.2,167.6 179.25,167.2 179.55,167.15 L181.65,164.3 Q182.35,163.15 184.5,157.8 L186.6,153.1 Q187.6,153.65 185.7,158.85 L183.75,164.1 183.95,164.2 184.5,164.3 Q187.35,163.9 190.15,157.75 L192.6,152.25 Q193.2,153.15 191.85,156.8 L190.6,160.3 191.75,160.15 Q192.85,159.7 193.65,158.15 196.3,152.85 196.75,145.95 196.95,143.75 196.35,140.75 192.4,146.65 186.8,147.05 181.5,147.45 179.1,145.8 L176.55,148.35 Q174.8,149.45 172.45,150.3 L171.5,150.7 171,151.1 Q170.4,152 171.8,152.55 L175.2,152.85 178.9,152.05 Q180.95,151.5 181,151.7 M178.05,143.8 L176.6,138.15 Q167.9,143.5 156.55,144.25 145.15,144.95 135.95,140.7 130.8,138.25 127.95,135.95 124.15,153.4 127,166.3 130.85,183.85 146.6,183.8 143.35,162.65 145.95,146.6 146.1,145.65 147.1,146.2 148.05,146.8 147.95,147.6 144.85,166.85 150.15,193.25 152.75,206.1 155.75,215.15 160.4,217.4 165.6,215.65 170.25,214.1 173.85,209.9 173.75,208.85 174.3,206.9 L175.05,204.2 Q178,187.45 179,170.15 L176.35,170 Q174.85,169.15 175.05,166.55 175.2,165 176.3,161.6 L178.5,153.8 176.3,154.15 Q171.4,154.8 169.65,152.8 168.8,151.9 169.05,150.7 169.2,149.75 170.05,149.2 L171.75,148.45 Q173.85,147.7 175.45,146.7 176.9,145.7 178.05,143.8 M168.5,78.95 Q170.95,75.2 169,71.6 L165.6,68.55 Q165.7,74.5 160.15,78.8 155,82.8 148.7,82.8 145.45,82.8 142.95,81.5 140.25,80.1 138.9,77.4 136.05,76.4 133.9,75.05 L132.4,76.45 Q130.95,78.35 131.3,80 131.85,82.8 137.65,84.8 L137.85,84.85 Q138.85,85.4 138.7,87.45 L137.65,93.7 Q136.35,100.3 136.3,102.65 136.25,109.6 137.3,120.45 L137.8,127.05 Q137.85,129.05 137.25,129.7 136.8,130.15 136.25,130.15 L136.2,130.15 Q131.45,130.1 128.55,128.05 L128.25,134 Q133.5,138.45 140.8,140.55 147.65,142.45 154.9,141.95 168.65,141.05 175.9,135.85 174.4,131.35 172.6,127.35 165.8,131.35 153.8,131.95 L153.65,131.95 Q152.7,131.95 152.05,129.9 151,126.65 150.25,117.8 149.5,108.45 149.8,100.8 150.3,87.5 154.1,87.1 158,86.85 162.2,84.45 166.45,82.05 168.5,78.95 M188.5,100.85 Q184.85,90.65 179.05,82.75 176.5,79.2 171.95,74.5 171.95,77.3 170.15,80.05 167.85,83.55 163.25,86.15 158.65,88.8 154.3,89.1 153.9,89.2 153.35,90.4 151.25,95.45 151.9,111.6 152.55,126.8 154.15,129.9 165.35,129.25 171.75,125.55 L171.4,124.9 Q168.3,118.8 163.1,112.15 L164.15,111.25 Q173.65,122.7 179.05,137.1 180.15,141.05 180.65,144.15 182.25,145.3 187,144.9 190.05,144.7 192.7,141.8 194.35,140 195.2,138.1 195.5,137.5 195.4,135.9 L195.35,135.45 Q195.05,129.55 193.9,122.4 192.05,110.85 188.5,100.85 M166.75,22.6 L166.4,22.65 Q163.7,23 162.05,23.6 160.45,24.2 159.4,24.2 157.95,24.2 157.1,23.2 154.25,19.9 150.85,19.9 149.55,19.9 148.4,20.5 145.75,21.95 144.15,21.95 L142.25,21.55 Q140.3,20.3 138.85,20.3 L137.85,20.55 Q137.05,21 134.8,23.85 L132.3,26.95 Q130.5,28.65 128.35,29 124.5,35.45 123.2,41.85 121.15,52.15 125.4,61.85 129.85,72 139.05,76.05 144.1,78.25 148.3,78.25 L151.55,77.95 151.8,78.05 Q151.95,78.45 149.7,79.15 L146.4,79.85 146.15,79.8 Q147.15,80.55 149.15,80.55 153.35,80.55 157.75,77.75 162.5,74.75 162.9,71.05 160.1,73 158.05,73 157.4,73 157.35,72.75 157.3,72.45 158,72.05 164.55,67.75 168.95,59.75 L169.75,59.8 Q174,59.8 175.7,55.8 177.4,51.7 173.85,49 L173.6,48.35 175.3,48.7 Q175.2,48.25 175.35,47.75 L175.35,47.7 Q172.7,43.55 170.5,41.3 L168.05,39.45 Q167.35,39.05 167.35,38.45 167.35,37.9 167.85,37.9 L168.05,37.95 Q169.45,38.45 171.35,40.35 173.9,42.85 175.6,46.7 L175.85,45.55 Q173.35,40.55 171.1,38.4 L167.25,35 Q166.8,34.75 166.95,34.35 167.05,33.95 167.55,33.95 L167.95,34.05 Q169.05,34.4 171.95,37.55 174.3,40.3 175.95,44.1 175.95,39.3 172.05,35.65 170.5,34.25 167.35,32.3 166.7,31.95 166.95,31.4 L167.4,30.95 Q171.4,28.7 170.4,25.55 169.45,22.6 166.75,22.6 M167.85,43.15 Q167.25,42.75 167.4,42.3 167.55,41.85 168,41.85 L168.15,41.85 Q169.65,42.55 170.6,43.6 L171.85,45.3 Q172.45,46.25 172.35,46.65 L172.15,46.85 169.8,44.45 167.85,43.15 M169.75,49 Q169.25,49 169.15,48.45 L168.45,47.35 167.75,46.8 Q167.4,46.55 167.55,46.1 167.65,45.65 168.05,45.65 L168.35,45.75 169.55,46.7 Q170.25,47.45 170.3,48.2 170.35,49 169.75,49 M151.75,29.05 L152.45,28.1 Q152.7,27.6 153.25,27.6 L153.75,27.75 155.95,29.85 Q158.05,32.2 157.7,33.45 L151.25,30.35 Q151.05,30.05 151.75,29.05 M153.45,42.45 Q152.9,43.45 152.15,43.45 151.4,43.4 150.9,42.4 150.35,41.4 150.4,40 150.45,38.6 151,37.65 151.55,36.65 152.3,36.65 L152.35,36.65 Q153.1,36.7 153.6,37.7 154.15,38.75 154.05,40.1 154,41.5 153.45,42.45 M134.3,29.35 L134.45,30.35 Q134.55,30.85 134.25,31.2 133.9,31.55 133.4,31.6 L129.3,31.75 128.8,31.6 129.2,31.15 133.05,28.75 133.55,28.6 Q134.15,28.6 134.3,29.35 M129.9,37.75 Q130.45,36.75 131.2,36.75 132,36.8 132.5,37.8 133,38.8 132.95,40.2 132.9,41.6 132.35,42.6 131.8,43.55 131.05,43.55 L131,43.55 Q130.25,43.55 129.75,42.55 129.25,41.55 129.3,40.1 129.35,38.7 129.9,37.75 M139.15,41.75 L141.15,37.75 Q141.5,36.9 142,36.9 L142.1,36.9 Q142.55,37 142.3,37.95 141.55,40.6 140.3,43 L138.2,47 Q137.75,47.9 138.3,48.7 L140.15,51.15 Q140.4,51.5 140.3,51.8 L139.8,52.2 138.7,52.5 Q137.9,52.5 137.35,51.9 L135.15,48.6 Q134.6,47.7 135.2,47 L139.15,41.75 M129.65,56.55 L130.3,56.95 138.15,57.95 139.55,57.85 Q142.9,57.5 149.75,54.95 L150.5,54.4 Q150.85,53.95 150.7,53.6 L150.05,52 Q149.9,51.5 150.2,51.5 L150.55,51.6 155.55,55.15 Q156.35,55.7 156.2,56.65 L155.3,61.2 154.95,61.65 154.55,61.35 154.5,59.05 Q154.15,58.55 153.45,58.55 L153.05,58.6 148.65,61.5 Q143.6,64.4 140.55,64.4 L140.5,64.4 Q137.45,64.35 133.65,62.5 L130.45,60.65 130.2,60.65 Q129.45,60.65 129.55,61.4 L129.55,61.9 129.35,62.35 129.05,62.05 126.9,58.75 Q126.4,57.9 127,57.1 L128.85,54.85 129.2,54.6 Q129.5,54.6 129.4,55.1 L129.4,55.8 Q129.35,56.2 129.65,56.55 M137.05,66.75 L136.65,66.4 Q136.7,66.2 137.15,66.15 L141.35,65.65 141.55,65.65 Q142.5,65.65 142.65,66.4 142.75,66.8 142.45,67.15 L141.75,67.65 140.05,67.9 138.7,67.65 137.05,66.75 M129.25,58.75 Q129.55,59.75 130.2,59.8 L136.4,61.95 139.55,62.3 144.55,61.65 Q146.6,60.95 152.1,58 L152.95,57.3 Q153.3,56.7 152.65,56.2 152.05,55.75 151.35,55.75 L150.2,55.95 Q143.95,58.5 140,58.8 L138.6,58.85 133,58.4 130.25,57.9 130.1,57.9 Q129.05,57.9 129.25,58.75 M175.15,19.75 Q173,16.7 171.05,15.85 170.75,15.75 168.1,12.25 165.7,9.1 162.75,8.7 L158.3,7.55 156.8,6.7 155.45,5.65 Q153.3,4.2 151.85,4.2 L151.55,4.2 Q150.4,4.4 147.75,8.45 L146,10.9 Q145.45,11.45 144.7,11.45 L140.3,10.5 139.15,10.65 Q137.45,11.05 132.95,16.25 131.15,18.3 128.6,18.3 126.85,18.3 125.45,17.2 124.2,16.25 124.4,14.35 123.1,15.65 122.5,17.3 121.7,19.45 122.35,22.25 123,25.1 124.85,26.85 125.8,27.75 127.2,27.75 129.2,27.75 131.2,26 L133.65,23 Q135.95,20.1 136.95,19.55 138.25,18.8 139.25,18.8 L140.5,19.1 Q140.95,19.25 141.9,19.75 L143.25,20.45 143.85,20.55 Q144.45,20.55 145.4,20 L150.85,16.65 151.65,16.5 Q153.45,16.5 156.35,19.6 159.35,22.9 159.7,22.95 L160,23 Q160.75,23 163.05,22 165.45,20.9 166.5,20.75 L167.6,20.65 Q170.25,20.65 171.75,22.55 172.85,23.95 173.15,25.95 173.35,27.35 171.85,29.25 L169.1,31.85 Q171.5,33.55 173.05,35.05 176.05,37.9 176.95,42.2 177.95,39.5 178.55,35.95 179.75,28.85 177.8,24.45 176.7,21.95 175.15,19.75Z"/></g><path fill="#FFF" stroke="none" d="M30.5,172.45 L39.05,172.05 Q43.7,172.6 45.3,173.95 L42.75,175.3 Q40.8,176.6 38.75,180.35 37.95,181.8 37.3,182.2 L33.05,179.9 Q28.9,177.45 27.15,178.65 23.7,181.05 24.45,184.2 25.25,187.1 26.65,186.85 27.7,186.65 28.6,184.65 29.75,183.45 32.45,186.5 L35.55,189.5 Q38.45,191.95 41.55,193.2 46.2,194.85 48.15,192.15 L53.65,197.6 Q58.45,202 59.6,202.65 L59.75,203.1 Q59.75,203.5 59.2,203.9 58.3,204.6 58.95,206.35 60,208.75 63.15,213 L66.35,217.2 Q67.8,219.95 71.6,224.2 75.55,228.45 76.85,228.45 80.1,228.45 80.1,226.55 80.25,224.7 77.8,222.85 74.8,220.55 74.3,219.85 L71.2,214.5 Q71.05,214.2 71.3,214.2 74,215 76.55,214.85 78.15,217.35 79.3,218.4 80.55,219.35 83.65,220.45 85,221 85.9,221.95 87.75,223.7 89.1,223.7 90.6,223.7 92.85,222.05 94.3,223.5 96.6,223.9 99.3,224.3 100.75,222.45 101.45,221.6 100.7,220.6 100.05,219.7 98.55,219.2 L95.8,218.1 95.85,217.95 Q98.05,215.15 96.7,210.85 98.45,206.9 97.7,200.65 97.5,198.9 96.1,199.65 94.85,200.35 92.2,203 90.1,201.2 86,200.15 85.4,195.6 84.1,193.6 82.55,191 78.5,189.2 70.4,172.05 52.35,169.95 L48.1,168.45 Q44.4,167.1 42.9,166.95 37.75,166.35 28.65,168.35 L20.4,168.7 Q18.55,168.4 17.25,167.7 13.15,165.55 11.8,158.3 11.25,155.25 11.25,150.3 11.35,147.8 9.45,147.95 7.65,148.2 7.2,149.9 5.7,156.75 8.15,162.9 10.25,168.05 14.3,170.95 16.9,172.75 20.4,173.35 24.8,173.95 30.5,172.45 M85.1,205.45 L82.35,203.8 Q80,202.55 78.65,201.65 77.55,204.4 77.4,208 77.4,208.35 77.15,208.35 L76.8,208.1 Q75.65,203.45 77.55,199.45 L77.65,199.25 77.85,199.3 Q79.6,199.45 85.65,204.55 L85.75,204.65 85.75,204.75 85.45,205.4 85.3,205.65 85.1,205.45 M86.1,215.6 L87,214.45 87.2,214.7 Q88.05,215.7 87.75,217.15 L87.7,217.3 87.55,217.35 87.25,217.35 Q86.5,217.35 85.4,216.65 84.3,215.8 84,214.9 L83.9,214.6 84.25,214.6 84.75,214.4 84.9,214.3 85.05,214.4 86.1,215.6 M96.5,214.45 L96.45,214.65 Q96.15,215.55 95.15,216.4 93.9,217.35 93.1,217.35 L92.9,217.35 92.85,217.15 Q92.65,215.75 93.25,214.6 L93.4,214.3 94.4,215.35 95.4,213.9 96.5,214.45Z"/></g></svg>