<?xml version="1.0" encoding="utf-8"?><svg id="Luck" image-rendering="auto" baseProfile="basic" version="1.1" x="0px" y="0px" width="240" height="240" xmlns="http://www.w3.org/2000/svg" xmlns:xlink="http://www.w3.org/1999/xlink"><g id="Scene-1f5r1" overflow="visible"><g id="Symbol-11"><path fill="#FFF" stroke="none" d="M158.2,211.65 Q154.3,215.9 149.15,217.3 143.65,218.85 138.7,216.35 135.65,218.25 132.85,220.45 130.85,222.05 129.75,223 L128.6,224 Q125.7,226.95 126.45,228.55 127.15,230.1 131.75,229.75 137.2,229.45 141.8,227.7 144.7,226.55 147.35,224.25 L152,219.5 Q152.4,219.1 153,219.5 L153.7,220.4 Q153.9,221 155,220.85 L156.45,220.4 Q158.2,219.6 158.95,218.65 159.85,217.5 159.55,215.75 159.2,213.6 158.2,211.65 M128.9,82.95 Q126.8,85.05 125.8,86.9 123.15,93 124.15,100.85 L127.15,114.85 Q128.9,122.45 129.15,125.9 L129.25,129.3 131.05,129.7 Q131.25,128.8 131.25,122.2 131.05,111.7 131.75,104.15 131.95,101.7 133.9,94.95 135.55,89.3 135.45,88.35 130.55,86.15 128.9,82.95 M123.6,38.45 Q124.7,35.85 126.4,32.9 125.15,32.6 124.05,31.55 L123.25,31.15 Q122.55,31.15 122.2,32.3 121.85,33.5 122.1,35.05 122.25,36.25 123.6,38.45 M189.9,189.75 Q189.4,188.4 188.6,187.6 187.3,186.3 185.35,185.25 185.7,193.15 183.8,198.35 181.05,205.55 174.55,204.05 174,206.65 173.85,209.15 L173.55,213.85 Q173.6,216.9 174.75,218.2 176.1,219.7 180.65,217.15 184.3,215.05 186.3,211.8 188.35,208.35 189.05,205 L189.95,199.2 Q190.1,197.85 189.9,197.4 188.8,195.5 188.45,194.35 187.7,192.15 189.5,191.7 190.5,191.45 189.9,189.75 M173.1,166.9 Q170.45,169.55 167.35,168.5 163,171.2 160.4,170.45 L159.4,169.95 Q153.85,174.1 151.55,171.5 150.35,170.2 151.4,167.85 151.95,166.5 154.05,163.5 L158.6,156.75 156.35,156.4 Q151.5,155.45 150.4,153.1 149.95,151.9 150.5,150.9 150.95,150.05 151.9,149.8 L157.8,149 Q159.4,148.6 161.2,147.05 L161.25,146.7 Q154.85,147.65 148.5,146.9 142,146.1 136.65,143.6 132,141.5 129,139.15 127.4,150.05 128.6,163.5 129.5,173.55 132.35,187.65 135.45,202.85 139.1,214.5 143.7,216.8 148.9,215.05 153.6,213.45 157.15,209.25 157.1,208.4 157.5,206.9 L158,204.85 Q159.05,197.7 159.05,193.45 L159.15,193.2 Q155.8,189.55 153.7,185.95 149.55,178.85 147,169.5 144.7,161.2 143.95,151.95 143.85,150.9 144.85,151.25 145.85,151.6 145.95,152.45 146.35,157.35 147.7,163.55 149.1,170.25 150.6,174.8 152.6,180.95 155.3,185.35 158.55,190.6 163.3,194.85 168.15,199.25 173.65,201.8 179.95,203.65 182.25,196.05 183.85,190.95 183.3,183.55 183,182.8 182.9,181.3 L182.8,179.2 Q182.1,174.65 181,171.7 L179.55,168.35 Q178.25,172.3 175.9,175.5 173.35,178.85 169.95,180.8 L169.75,180.9 169,180.85 170.1,177.65 Q177.85,171.1 179.95,156.15 177.2,162.7 173.1,166.9 M178.35,154.85 Q179.15,152.85 179.55,149.75 174,154.2 168.55,152.85 163.45,151.65 161.6,149.3 159.75,150.6 158.35,150.95 L152.85,151.65 152.25,151.9 Q151.4,152.55 152.55,153.5 153.7,154.4 155.7,154.85 L159.45,155.15 Q161.6,155.25 161.55,155.5 L161.4,156 155.7,164.65 Q152.35,169.45 153.05,170.2 154.05,171.35 158.35,167.7 L166.45,158.55 Q167.25,159.35 163.9,163.75 L160.4,168.15 160.55,168.3 Q160.75,168.5 161.05,168.55 163.9,169.05 168.45,164.05 L172.45,159.55 Q172.75,160.6 170.35,163.7 L168.1,166.6 Q169.75,167.4 171.65,165.45 175.8,161.35 178.35,154.85 M167.7,83.45 Q170.95,79.4 169.9,74.3 168.05,73.1 165.7,72.2 L165.55,72.35 Q165.75,78.35 160.2,82.75 155,86.8 148.65,86.8 145.4,86.8 142.9,85.5 140.15,84.1 138.8,81.35 136.15,80.5 133.6,78.9 L130.5,81.5 Q131.5,84.5 136.55,86.65 L136.7,86.75 Q137.65,87.4 137.4,89.4 L135.8,95.5 Q133.95,102.1 133.7,104.35 133.05,111.8 133.25,122.15 L133.2,128.8 Q133,130.8 132.35,131.4 L131.45,131.75 131.3,131.75 129.2,131.4 128.95,136.9 Q132.9,140.25 138.25,142.4 143.5,144.45 148.75,144.85 L161.4,144.3 Q161.7,139.1 161.4,134.05 L150.95,135 148.7,135 Q147.65,134.95 147.15,133.15 146.3,129.95 146.35,120.65 146.35,111.4 147.3,103.65 148.9,90.45 152.75,90.35 L152.95,90.35 Q156.6,90.35 160.65,88.6 165.15,86.65 167.7,83.45 M184.25,109.35 Q183.85,97.85 180.8,89.25 177.7,80.7 172.15,76 172.4,80.8 169.25,84.7 166.35,88.35 161.4,90.5 156.85,92.45 152.75,92.35 152.4,92.35 151.7,93.55 149.15,98.4 148.5,114.55 147.9,129.8 149.2,133 L161.2,132.05 161.25,132.2 160.65,127.05 Q159.9,122.4 157.1,110.8 L158.15,110 160.7,120.35 Q163.35,132.35 163.9,140.85 164.15,144.6 163.55,148.25 164.8,149.75 169.35,150.85 172.35,151.6 175.75,149.65 177.75,148.5 179.25,146.9 L180.1,144.85 180.2,144.4 Q181.75,138.75 182.85,131.55 184.55,119.95 184.25,109.35 M170.35,29.55 Q169.4,26.6 166.7,26.6 L166.35,26.65 162,27.6 Q160.3,28.2 159.35,28.2 157.9,28.2 157.05,27.2 154.2,23.9 150.8,23.9 149.4,23.9 148.35,24.5 145.7,25.95 144.1,25.95 L142.2,25.55 Q140.25,24.3 138.75,24.3 L137.75,24.55 Q137,25 134.7,27.85 L132.25,30.95 Q130.3,32.65 128.3,33 124.35,39.65 123.15,45.85 121.1,56.15 125.35,65.85 129.75,76 138.95,80 144.05,82.25 148.25,82.25 L151.5,81.95 151.7,82.05 Q151.85,82.45 149.6,83.15 L146.35,83.85 146.1,83.8 Q147.1,84.55 149.1,84.55 153.3,84.55 157.65,81.75 162.4,78.75 162.8,75.05 160,77 158,77 L157.3,76.75 Q157.25,76.45 157.9,76.05 164.5,71.75 168.9,63.7 L169.7,63.75 Q173.95,63.75 175.65,59.75 177.35,55.7 173.8,53 173.45,52.65 173.55,52.3 L175.3,52.85 Q175.1,52.45 175.25,51.75 L175.3,51.7 Q172.65,47.5 170.45,45.3 L167.95,43.45 Q167.3,43.05 167.3,42.45 167.3,41.9 167.75,41.9 L167.95,41.95 Q169.4,42.45 171.3,44.35 173.9,46.95 175.55,50.7 L175.8,49.55 174.05,46.35 Q172.6,43.95 171,42.4 L168.45,40 167.15,39 Q166.75,38.75 166.9,38.35 167,37.95 167.5,37.95 L167.85,38 Q168.9,38.4 171.9,41.55 174.25,44.3 175.9,48.1 175.9,43.35 172,39.65 170.15,37.9 167.25,36.3 166.6,35.95 166.9,35.4 L167.35,34.95 Q171.35,32.7 170.35,29.55 M172.3,50.65 L172.1,50.85 169.75,48.4 167.8,47.15 Q167.2,46.75 167.35,46.3 167.5,45.85 167.9,45.85 L168.1,45.85 Q169.5,46.5 170.55,47.6 L171.8,49.25 Q172.35,50.25 172.3,50.65 M167.7,50.8 Q167.3,50.55 167.45,50.1 167.6,49.65 168,49.65 L168.3,49.75 169.5,50.7 Q170.2,51.45 170.25,52.2 170.3,53 169.7,53 169.1,53 169.1,52.45 169.05,52 168.4,51.35 L167.7,50.8 M153.2,31.6 L153.7,31.75 155.9,33.85 Q158,36.2 157.65,37.45 L157.6,37.45 151.2,34.35 Q151,34.05 151.7,33.05 L152.4,32.1 Q152.6,31.6 153.2,31.6 M150.05,44.4 Q150.15,42 150.75,41.4 151.45,40.7 152.1,40.6 152.75,40.45 153.05,40.9 153.45,41.4 153.05,41.6 L152.45,41.55 Q151.8,41.6 151.45,42.35 151,43.5 151.45,46.9 151.6,47.95 154.5,47.25 L153.5,48.15 Q152.2,49 150.95,48.6 L149.75,48.05 149.5,47.8 Q148.85,47.5 147.8,47.8 147.45,47.7 147.4,47.55 147.2,47.2 148.45,46.9 L150.1,46.7 150.05,44.4 M132.95,32.75 L133.5,32.6 Q134.15,32.6 134.2,33.35 L134.35,34.3 Q134.45,34.8 134.15,35.2 133.85,35.55 133.35,35.6 L129.25,35.75 128.75,35.6 129.15,35.15 132.95,32.75 M130.45,42.75 Q130.1,43.6 130.1,45 130.15,46.35 130.45,47.25 130.85,48.45 133.8,47.3 L132.65,48.4 Q131.2,49.4 129.95,49 L128.75,48.45 128.5,48.15 Q127.85,47.85 126.8,48.15 L126.4,47.9 Q126.25,47.6 127.45,47.3 L129.1,47.05 129.05,44.75 Q129.15,42.35 129.75,41.75 130.45,41.05 131.1,40.95 131.75,40.85 132.05,41.25 132.45,41.8 132.05,42 L131.45,41.9 Q130.8,41.95 130.45,42.75 M141.1,41.7 Q141.45,40.9 141.95,40.9 L142,40.9 Q142.5,41 142.25,41.95 141.45,44.6 140.25,47 L138.15,51 Q137.95,51.35 138,51.85 138,52.35 138.25,52.65 L140.1,55.15 Q140.35,55.5 140.2,55.8 L139.7,56.2 138.6,56.45 Q137.8,56.45 137.3,55.85 L135.1,52.55 Q134.55,51.7 135.15,50.95 L139.1,45.75 141.1,41.7 M129.15,58.6 Q129.35,58.6 129.35,59.1 L129.3,59.8 129.55,60.55 Q129.85,60.85 130.25,60.9 L132.9,61.45 138.1,61.95 139.45,61.85 Q142.85,61.5 149.7,58.95 L150.45,58.4 Q150.8,57.95 150.6,57.6 L150,56 Q149.75,55.45 150.1,55.45 L150.5,55.6 155.45,59.15 Q156.35,59.7 156.15,60.65 L155.2,65.2 Q155.15,65.65 154.9,65.65 L154.5,65.35 154.45,63.05 Q154.15,62.5 153.4,62.5 L152.95,62.6 148.55,65.5 Q143.55,68.4 140.5,68.4 L140.45,68.4 Q137.35,68.35 133.55,66.5 L130.4,64.65 130.15,64.6 Q129.45,64.6 129.45,65.4 L129.5,65.9 Q129.5,66.35 129.3,66.35 L128.95,66.05 126.85,62.75 Q126.35,61.9 126.95,61.1 L128.75,58.85 129.15,58.6 M141.3,69.65 L141.5,69.65 Q142.45,69.65 142.55,70.4 142.65,70.75 142.35,71.15 142.1,71.5 141.7,71.6 L140,71.9 138.65,71.65 136.95,70.75 136.6,70.4 Q136.65,70.2 137.1,70.15 L141.3,69.65 M130.2,61.9 L130.05,61.9 Q129,61.9 129.2,62.7 129.45,63.7 130.15,63.8 L136.3,65.95 139.5,66.3 144.5,65.65 Q146.55,64.95 152.05,62 L152.85,61.3 Q153.25,60.7 152.6,60.2 151.95,59.7 151.3,59.7 L150.15,59.95 Q143.9,62.5 139.95,62.8 L138.55,62.85 132.95,62.4 130.2,61.9 M171,19.85 Q170.7,19.75 168.05,16.25 165.6,13.1 162.65,12.7 L158.25,11.55 156.7,10.7 155.35,9.65 Q153.25,8.2 151.8,8.2 L151.5,8.2 Q150.35,8.4 147.7,12.45 L145.95,14.9 Q145.4,15.45 144.65,15.45 L140.25,14.5 139.05,14.65 Q137.9,14.95 135.8,17.05 L132.85,20.25 Q131.05,22.3 128.55,22.3 126.7,22.3 125.4,21.2 124.15,20.25 124.35,18.35 123,19.65 122.45,21.3 121.65,23.45 122.3,26.25 122.95,29.1 124.8,30.85 125.85,31.75 127.1,31.75 129.05,31.75 131.15,30 L133.55,27 Q135.9,24.1 136.85,23.55 138.2,22.8 139.15,22.8 L140.45,23.1 143.2,24.45 143.8,24.55 145.35,24 150.75,20.65 151.6,20.45 Q153.35,20.5 156.25,23.6 L159.6,26.95 159.95,27 163,25.95 Q165.4,24.9 166.45,24.75 L167.55,24.65 Q170.15,24.65 171.7,26.55 172.8,27.95 173.1,29.9 173.3,31.35 171.8,33.25 L169.05,35.85 Q172.05,38.1 172.95,39 176.05,42.05 176.85,46.2 177.85,43.5 178.45,39.95 179.65,32.85 177.7,28.45 176.65,26 175.1,23.75 172.95,20.7 171,19.85Z"/></g><path fill="#FFF" stroke="none" d="M17.1,141.55 Q17.25,139.15 15.4,139.2 13.45,139.35 13.05,141.05 11.2,148 13.9,156.95 16.4,165.2 20.25,168.05 25.7,172.15 35.3,173.25 L41.65,173.8 Q44.55,174.1 45.05,174.5 40.2,176.55 40,181.95 39.85,184.8 40.7,187.35 40.7,187.6 36.75,185.95 32.55,184.15 31.6,184.95 30.55,185.85 31.15,187.95 31.45,189.4 32.35,190.7 38.95,201.2 40.3,202.4 42.55,204.35 44.8,202.65 45.65,202.1 45.65,201.2 45.65,199.8 41.9,196.2 41.6,195.55 47.2,199.6 53.25,203.15 54.3,199.1 55,200.05 59.7,209.2 64.85,218.3 68.2,219.35 70.2,220.9 73.35,225.15 L78.95,230.45 Q82.7,233.75 83.3,235.7 83.95,238.1 86.35,239.2 88.15,239.9 89.85,239.6 92.95,238.75 92.5,236.85 92.2,235.75 90.4,234.25 L88.7,232.85 Q86.9,231.2 86.5,229.6 86.35,229.1 80.45,223.05 75.2,217.65 76.3,215.45 77.95,218.1 79.05,218.95 80,219.85 83.4,221 84.8,221.6 85.65,222.55 87.4,224.3 88.9,224.3 90.3,224.3 92.6,222.65 L95.5,219.2 Q95.35,218.95 95.6,218.6 97.8,215.65 96.45,211.45 98.2,207.55 97.45,201.25 97.2,199.5 95.85,200.25 94.6,200.9 92,203.6 89.75,201.8 85.75,200.75 86.35,198.15 84.8,196 83.2,193.9 79.05,191.95 75.3,184.1 67.95,178.15 60.45,171.95 52.15,170.5 L40.45,169.95 Q28.3,168.55 22.8,164.15 17.55,160.05 16.8,150.95 16.65,149 17.1,141.55 M84.85,206.05 Q84.05,205.35 82.15,204.35 L78.45,202.3 Q77.35,204.65 77.2,208.6 77.2,208.95 76.9,208.95 L76.6,208.7 Q75.4,204.05 77.3,200 L77.4,199.85 77.6,199.85 Q79.5,200.25 85.45,205.15 L85.5,205.2 85.5,205.35 85.25,205.95 85.05,206.2 84.85,206.05 M86.75,215 L86.95,215.25 Q87.8,216.4 87.5,217.7 L87.5,217.9 87,217.9 Q86.1,217.9 85.2,217.3 83.95,216.35 83.8,215.5 L83.7,215.2 84,215.2 84.5,214.95 84.65,214.9 84.8,214.95 85.9,216.2 86.75,215 M96.3,215.05 L96.2,215.25 Q95.95,216.05 94.9,216.95 93.9,217.9 92.85,217.9 L92.65,217.9 92.6,217.7 Q92.3,216.35 93,215.2 L93.15,214.95 93.4,215.15 94.15,215.95 95.05,214.65 95.2,214.5 95.35,214.55 96.3,215.05Z"/></g></svg>