<?xml version="1.0" encoding="utf-8"?><svg id="Luck" image-rendering="auto" baseProfile="basic" version="1.1" x="0px" y="0px" width="240" height="240" xmlns="http://www.w3.org/2000/svg" xmlns:xlink="http://www.w3.org/1999/xlink"><g id="Scene-1f7r1" overflow="visible"><g id="Symbol-13"><path fill="#FFF" stroke="none" d="M116.95,133.45 Q117.05,137.7 114.7,138.95 L116.75,147.35 Q117,149.6 115.95,150.5 L115.8,150.6 118,152.3 Q119.5,153.15 120.4,152.3 121.35,151.4 119.55,148.75 L117.65,145.55 117.75,145.55 117.95,145.5 120.3,147.8 Q122.3,149.6 123.3,148.6 123.9,147.95 121.15,144.2 L117.95,140.05 119.1,138 119.8,135.45 119.9,133.75 116.95,133.45 M112.4,137.8 L113.2,137.45 114.3,136.55 Q115.4,135.2 115.2,132.95 L113.6,132.35 Q109.05,130.4 106.9,124.6 102.75,133.5 103.15,139 103.5,143 106,147.3 107.65,150.1 109.9,152.55 L110.8,153.5 111.85,154.25 Q115.2,156.5 116.55,155.5 117.05,155.15 117.1,154.45 117.15,153.8 116.85,153.4 L115.55,151.25 115.35,150.85 Q114,151.35 111.8,150.25 107.7,148.2 106.15,141.75 105,136.75 105.6,135 105.85,134.35 106.7,134.3 107.55,134.3 107.6,135.05 107.8,139.35 108.2,141.15 109.35,146.8 112.7,148.45 114.25,149.2 114.65,148.95 115.25,148.45 113.85,143.6 L112.4,137.8 M109.15,118.65 L108.95,119.05 Q108.35,120.7 108.45,121.2 108.7,123.35 109.65,125.5 111.25,129.05 114.1,130.25 118.7,132.15 120.4,131.5 122.8,126.7 127.2,121 L124.85,110.85 Q123.25,104.5 122.8,100.7 L124.5,96 Q124.4,99.95 125.55,105.4 L127.8,114.85 Q129.55,122.45 129.8,125.9 L129.9,129.2 Q130.7,130.1 132.05,130.75 134.35,131.9 137.35,131.95 137.5,131.05 136.85,124.45 135.65,114.2 135.65,106.5 135.65,104.05 136.95,97.1 138.05,91.3 137.85,90.4 131.3,88.15 130.3,84.15 L130.2,83.45 126.45,87.9 Q119.95,96.25 114.6,106.7 111.35,113 109.15,118.65 M127.4,30.9 Q126.15,30.55 125.05,29.55 124.65,29.15 124.25,29.15 123.55,29.15 123.2,30.3 122.85,31.5 123.1,33.05 123.25,34.1 124.6,36.45 125.75,33.75 127.4,30.9 M170.85,216.1 Q171.1,217.2 173.85,215.9 176.6,214.6 176.8,213.15 177.15,210.85 175.85,207.5 171.95,211.35 167.35,212.45 163.95,217.4 159.75,219.3 L157.1,220.35 154.45,221 Q150.85,221.6 149.1,220.15 147.55,218.9 147.3,216.55 144.35,218.95 143.55,220.65 142.35,223.05 145.65,223.6 L155.4,223.1 157.1,222.7 Q161.9,221.45 164.7,218.95 L169.05,214.9 170.15,215 Q170.7,215.5 170.85,216.1 M169.4,197.5 Q169.75,196.85 170.95,196.8 171.85,196.75 171.75,195.5 171.55,192.25 169,189.35 167,196.15 164.7,199.45 161,204.7 155.95,202.9 L154.4,202.2 Q151.35,207.75 150.05,212.35 L149.4,214.9 Q148.8,218.45 150.35,218.75 153.1,219.3 156.3,218.25 L157.1,217.95 Q159.6,217 161.6,215.3 166.15,211.45 168.6,205.2 L169.35,202.6 169.2,199.95 Q168.95,198.4 169.4,197.5 M168.8,170.45 L165.95,172.6 Q169.6,177.6 169.4,187.35 171.35,189.3 172.3,190.95 173.55,193.05 173.7,195.3 L173.75,197.1 Q173.65,198.15 173.05,198.65 L171.3,199 Q170.85,199.45 171.2,201.35 171.6,203.5 171.4,204.1 170.45,207 169.15,209.55 170.8,208.85 172.25,207.65 L175.05,204.85 175.1,202.6 Q175.6,184.2 168.8,170.45 M182.05,150.45 L184.1,149 Q185.3,148.05 186.4,145.85 185.05,141.8 182.8,137 183.85,142.9 182.05,150.45 M180.2,153.9 Q179.65,154.9 181.1,155.3 L184.55,155.15 188.15,153.9 Q190.1,153.15 190.2,153.4 L190.25,153.9 188,167.8 Q187.8,170 188.4,170.25 189.85,170.9 192.25,165.8 L195.9,154.15 Q196.95,154.6 195.65,159.95 L194.3,165.4 194.5,165.5 195.05,165.5 Q197.9,164.8 199.95,158.35 201.5,152.25 201.75,152.6 202.45,153.45 201.55,157.25 L200.7,160.85 Q202.55,160.85 203.45,158.35 205.5,152.95 205.2,145.9 205.15,143.6 204.2,140.8 202.85,143.45 200.85,145.3 198.4,147.55 195.45,148.1 190.25,149.1 187.65,147.7 186.7,149.5 185.4,150.55 183.8,151.9 181.55,152.95 L180.6,153.45 180.2,153.9 M181.05,138.9 L178.4,140.8 Q169.75,146.35 158.2,147.15 146.65,147.9 137.3,143.6 132.55,141.4 129.5,139.05 129.2,150.4 131.95,157.45 133.2,160.6 136.25,165.15 140.3,157.3 148.8,150.95 149.45,150.45 150.25,151.35 151.05,152.25 150.35,152.75 142.25,158.85 138.4,166.05 134.6,173.05 136.6,178.75 138.4,183.95 143.35,189.7 147.15,194 151.15,197.6 L154.5,200.3 Q159.65,202.8 163.3,197.2 165.3,194.1 167.4,187 167.7,178.4 164.95,174.05 L158.3,177 Q157.8,177.2 157.2,176.7 L158.45,174.3 Q172.85,167 178.25,154.7 L178.3,154.65 178.2,153.75 Q178.35,152.5 179.5,151.75 L179.5,151.35 Q181.5,144.45 181.05,138.9 M169.25,83 Q170.2,81.7 170.7,79.8 171.4,77.25 170.85,74.7 L166.55,71.05 Q166.35,76.8 160.9,80.9 155.75,84.75 149.65,84.75 146.4,84.75 143.9,83.5 141.2,82.1 139.8,79.35 L136,77.7 132.55,81 Q131.9,82.45 132.25,83.7 133,86.7 138.8,88.6 L139,88.7 Q140,89.25 139.9,91.25 L138.9,97.5 Q137.65,103.95 137.65,106.5 137.65,113.55 138.8,124.25 L139.35,130.85 Q139.4,132.9 138.8,133.55 138.35,134 137.8,134 133,133.95 129.85,131.75 L129.6,136.9 Q133.95,140.6 139.85,142.75 145.6,144.9 151.35,144.95 165.6,145.2 174.9,140.15 178.1,138.4 179.9,136.5 180.5,135.9 180.55,135.4 L180.1,131.8 178.55,129.15 Q175.7,131.1 171.4,132.6 164.5,135 155.4,135.6 L155.25,135.6 Q154.3,135.6 153.6,133.6 152.55,130.45 151.75,121.95 150.9,112.2 151.1,104.75 151.45,91.25 155.3,90.8 159.15,90.45 163.1,88.25 167.1,86 169.25,83 M180.35,83.95 Q177.55,80.5 172.9,76.05 173.3,77.95 172.75,80.1 172.2,82.3 170.9,84.15 168.5,87.55 164.15,90 159.8,92.4 155.5,92.75 155,92.85 154.55,94.05 152.45,99.1 153.3,115.25 154.1,130.45 155.7,133.55 164.35,132.95 170.95,130.6 175.05,129.15 177.45,127.45 172.55,120 167.05,114.6 L161.2,109.1 161.6,107.65 Q166.15,111.6 171.55,117.45 182.3,129.25 186.65,139.1 188.2,142.6 189,145.95 190.6,146.9 195.4,145.95 198.45,145.4 200.75,142.2 202.05,140.45 202.8,138.3 L202.75,136.05 202.65,135.65 Q201.6,129.5 199.75,122.8 196.65,111.5 192,102 187.75,93.3 180.35,83.95 M171.35,27.55 Q170.4,24.6 167.7,24.6 L167.35,24.6 Q164.3,25.05 163,25.55 L160.35,26.2 Q158.95,26.2 158.05,25.15 155.15,21.9 151.8,21.9 150.4,21.9 149.35,22.5 146.65,23.9 145.1,23.9 144.05,23.9 143.2,23.5 141.25,22.3 139.8,22.3 139.15,22.3 138.75,22.55 138,22.95 135.7,25.85 L133.25,28.95 Q131.25,30.65 129.3,30.95 125.35,37.6 124.15,43.85 122.1,54.15 126.35,63.85 130.8,74 140,78 145.2,80.25 149.25,80.25 L152.5,79.95 152.75,80.05 Q152.85,80.4 150.6,81.1 L147.35,81.8 147.1,81.8 Q148.25,82.55 150.1,82.55 154.25,82.55 158.65,79.75 163.4,76.75 163.8,73.05 161.05,74.95 159,74.95 158.35,74.95 158.3,74.7 158.25,74.45 158.9,74 165.45,69.75 169.9,61.7 L170.7,61.75 Q174.95,61.75 176.65,57.75 178.35,53.7 174.8,51 174.25,50.2 174.95,49.8 L175.75,49.55 175.85,49.35 176.1,49.4 171.45,43.3 168.95,41.4 Q168.3,41 168.3,40.45 168.3,39.9 168.8,39.9 L169,39.9 Q170.45,40.55 172.3,42.3 174.85,44.85 176.55,48.7 L176.8,47.55 175.05,44.35 Q173.6,41.9 172,40.35 L168.15,37 Q167.75,36.75 167.9,36.35 168,35.95 168.5,35.95 L168.85,36 Q169.9,36.4 172.9,39.55 175.35,42.4 176.9,46.1 176.9,41.35 173,37.65 171.35,36.05 168.25,34.25 167.6,33.85 167.9,33.4 168.15,32.95 168.35,32.95 172.35,30.7 171.35,27.55 M168.35,44.25 Q168.5,43.8 168.9,43.8 L169.1,43.85 Q170.4,44.3 171.55,45.55 L172.8,47.25 Q173.4,48.25 173.3,48.6 L173.1,48.85 Q172.85,48.85 172.1,47.85 L170.75,46.4 168.8,45.1 Q168.2,44.75 168.35,44.25 M170.7,51 Q170.1,51 170.1,50.45 L169.4,49.35 168.7,48.75 Q168.3,48.55 168.45,48.1 168.6,47.65 169,47.65 L169.3,47.7 Q169.95,48.05 170.5,48.7 171.2,49.4 171.25,50.2 171.3,51 170.7,51 M154.7,29.75 L156.9,31.85 Q159,34.15 158.65,35.45 L158.6,35.45 155.05,33.55 Q152.35,32.55 152.2,32.3 152,32 152.7,31 L153.4,30.05 Q153.65,29.6 154.2,29.6 154.5,29.6 154.7,29.75 M151.95,39.6 Q152.5,38.65 153.25,38.65 L153.3,38.65 Q154.05,38.65 154.55,39.65 155.05,40.65 155,42.1 154.95,43.5 154.4,44.45 153.85,45.45 153.1,45.45 152.3,45.4 151.8,44.4 151.3,43.4 151.35,42 151.4,40.6 151.95,39.6 M134,30.75 L134.5,30.6 Q135.1,30.6 135.2,31.3 L135.4,32.3 Q135.5,32.8 135.15,33.15 134.85,33.55 134.35,33.55 L130.25,33.75 Q129.8,33.75 129.75,33.6 L130.15,33.15 134,30.75 M130.25,42.1 Q130.3,40.7 130.85,39.75 131.4,38.75 132.15,38.75 132.9,38.75 133.4,39.75 133.95,40.8 133.9,42.2 133.85,43.6 133.3,44.55 132.75,45.55 132,45.55 L131.95,45.55 Q131.2,45.5 130.7,44.5 130.2,43.5 130.25,42.1 M143.25,39.9 Q142.45,42.6 141.25,45 L139.15,48.95 Q138.7,49.85 139.25,50.65 L141.1,53.15 Q141.35,53.5 141.2,53.8 L140.7,54.2 139.65,54.45 Q138.85,54.45 138.3,53.85 L136.1,50.55 Q135.55,49.7 136.15,48.95 L140.1,43.75 142.1,39.7 Q142.5,38.85 142.95,38.85 L143,38.85 Q143.55,38.95 143.25,39.9 M130.15,56.6 Q130.35,56.6 130.35,57.05 L130.3,57.8 130.55,58.55 Q130.85,58.85 131.25,58.9 L139.1,59.9 140.45,59.85 Q143.85,59.45 150.7,56.9 L151.45,56.4 Q151.8,55.95 151.65,55.55 L151,54 Q150.75,53.45 151.1,53.45 L151.5,53.6 156.5,57.15 157.05,57.8 157.15,58.65 156.25,63.15 155.9,63.6 155.5,63.3 155.45,61.05 Q155.15,60.5 154.4,60.5 L154,60.6 149.6,63.5 Q144.55,66.35 141.5,66.35 L141.45,66.35 Q138.35,66.35 134.55,64.5 L131.4,62.65 131.15,62.6 Q130.4,62.6 130.5,63.35 L130.5,63.85 130.3,64.35 130,64.05 127.85,60.7 127.65,59.9 127.95,59.1 129.75,56.85 Q129.95,56.6 130.15,56.6 M137.95,68.75 L137.6,68.35 Q137.65,68.2 138.1,68.15 L142.3,67.65 142.5,67.6 143.2,67.85 143.55,68.4 Q143.65,68.75 143.35,69.15 L142.7,69.6 141,69.85 139.65,69.65 137.95,68.75 M131.2,59.85 L131.05,59.85 Q130,59.85 130.2,60.7 130.5,61.7 131.15,61.8 L137.35,63.95 140.5,64.3 145.5,63.65 Q147.55,62.95 153.05,60 L153.9,59.3 Q154.25,58.7 153.6,58.15 153,57.7 152.3,57.7 L151.15,57.95 Q144.9,60.5 140.95,60.8 L139.55,60.85 131.2,59.85 M172,17.85 L169.05,14.2 Q166.6,11.05 163.65,10.65 L159.25,9.55 Q158.5,9.3 157.7,8.7 L156.35,7.65 Q154.25,6.2 152.8,6.2 L152.5,6.2 Q151.3,6.35 148.7,10.45 L146.95,12.85 Q146.4,13.4 145.65,13.4 L141.25,12.5 140.05,12.65 Q138.35,13.1 133.9,18.2 132.05,20.3 129.55,20.3 127.8,20.3 126.4,19.15 125.15,18.2 125.35,16.3 124,17.55 123.45,19.25 122.65,21.4 123.3,24.2 123.95,27.05 125.8,28.8 126.8,29.75 128.1,29.75 130.05,29.75 132.15,28 L134.55,24.95 Q136.9,22.1 137.85,21.55 139.3,20.75 140.15,20.75 L141.45,21.05 144.2,22.4 144.8,22.55 Q145.4,22.55 146.35,22 L151.8,18.65 152.6,18.45 Q154.35,18.45 157.25,21.6 L160.65,24.95 160.95,24.95 Q161.7,24.95 164,23.95 166.4,22.85 167.45,22.7 L168.55,22.65 Q171.2,22.65 172.7,24.55 173.8,25.9 174.1,27.9 174.3,29.3 172.8,31.2 171.65,32.65 170.05,33.8 L174,37 Q177.05,40.05 177.9,44.2 178.9,41.5 179.45,37.95 180.65,30.8 178.7,26.4 177.65,24 176.1,21.7 173.95,18.7 172,17.85Z"/></g><path fill="#FFF" stroke="none" d="M34.05,136.7 Q32.5,135.5 31.1,136.45 26.3,139.25 23.15,144.7 18.65,152.5 21.75,160.6 25.95,169.35 35.85,172.35 40.6,173.8 45.55,174.1 40.65,176.75 40.5,182.25 40.35,185 41.25,187.55 41.25,187.8 37.3,186.15 33.1,184.35 32.15,185.2 31.1,186.05 31.7,188.2 32,189.5 32.9,190.95 39.5,201.45 40.85,202.65 43.05,204.55 45.35,202.9 46.2,202.3 46.2,201.4 46.2,199.9 42.45,196.45 42.15,195.85 46.55,199.1 51.5,202.25 53.6,201.15 58.2,209.05 61.45,210.1 63.5,211.75 66.6,215.95 67.4,217.05 72.2,221.25 75.95,224.5 76.55,226.55 77.2,228.9 79.6,229.95 81.5,230.7 83.1,230.35 86.2,229.5 85.75,227.6 85.45,226.55 83.65,225.05 L81.95,223.65 Q80.15,221.9 79.75,220.4 79.6,219.75 78.1,218.15 L74.85,214.95 76.8,215 Q78.35,217.5 79.55,218.55 80.8,219.5 83.9,220.6 85.25,221.15 86.15,222.1 87.9,223.85 89.35,223.85 91.75,223.85 94.15,221.05 L96.1,218.1 Q98.35,215.3 96.95,211 98.7,207.05 97.95,200.8 97.65,199.05 96.35,199.8 L92.5,203.15 Q90.25,201.35 86.25,200.3 85.05,192 76.65,188.25 69.3,172.8 52.6,170.1 46.6,170.25 40.35,168.8 28.25,165.95 25.1,157.3 23,151.4 27.75,145.3 30.1,142.25 33.65,139.6 35.5,137.9 34.05,136.7 M85.9,204.7 L86,204.8 86,204.9 Q86,205.2 85.7,205.55 L85.55,205.8 85.35,205.6 Q84.65,205 82.6,203.95 79.95,202.55 78.9,201.8 77.85,204.3 77.7,208.15 77.7,208.5 77.4,208.5 L77.1,208.25 Q75.9,203.55 77.8,199.6 L77.9,199.4 78.1,199.45 Q79.9,199.7 85.9,204.7 M86.4,215.75 L87.25,214.6 87.45,214.85 Q88.3,215.95 88,217.3 L87.95,217.45 87.8,217.5 87.5,217.5 Q86.7,217.5 85.7,216.8 84.45,215.95 84.3,215.05 L84.2,214.75 84.5,214.75 85,214.55 85.15,214.45 85.3,214.55 86.4,215.75 M96.75,214.6 L96.7,214.8 Q96.35,215.7 95.4,216.55 94.2,217.5 93.35,217.5 L93.15,217.5 93.1,217.3 Q92.8,215.9 93.5,214.75 L93.65,214.45 94.65,215.5 95.65,214.05 96.6,214.5 96.75,214.6Z"/></g></svg>