<?xml version="1.0" encoding="utf-8"?><svg id="Luck" image-rendering="auto" baseProfile="basic" version="1.1" x="0px" y="0px" width="240" height="240" xmlns="http://www.w3.org/2000/svg" xmlns:xlink="http://www.w3.org/1999/xlink"><g id="Scene-1f11r1" overflow="visible"><g id="Symbol-9"><path fill="#FFF" stroke="none" d="M154.9,190.6 L154,188.5 Q150.85,192.5 147.3,194.4 142.85,196.75 138.9,195.05 139.75,199.5 140.8,203 142.15,207.4 143.5,209 145.75,211.75 149.05,209.3 155.35,204.7 154.9,190.6 M125.75,87.2 L125.25,88.5 Q123.1,94.3 124.15,101.8 124.4,103.55 127.1,115.15 128.85,122.75 129.1,126.2 L129.1,127.15 131.55,127.7 Q131.85,126.4 131.75,120.2 131.65,108.65 132.25,102.15 132.5,99.45 134.4,92.95 136.05,87.3 135.95,86.35 131.8,84.5 130.1,82.05 127,84.85 125.75,87.2 M126.1,31.2 Q124.75,30.85 123.75,29.85 123.35,29.45 122.9,29.45 122.2,29.45 121.9,30.6 121.55,31.8 121.75,33.35 121.95,34.5 123.25,36.75 124.45,33.9 126.1,31.2 M171.75,213.75 Q167.95,214.55 165,213 L164.2,214.05 Q162.35,216.75 161.15,219 L159.6,222.2 159.3,223 Q158.8,224.45 158.9,225.6 159.05,227.6 162.1,227.85 L166.75,227.4 Q171.3,226.15 174.75,223 L175.95,221.8 Q181.5,215.8 181.3,212.8 L181.2,210.4 Q181.3,208.8 182.4,208.6 L184,208.3 Q184.35,208.05 184.4,206.5 184.5,204.1 182.8,201.4 181.3,207.4 177.85,210.65 175.3,213 171.75,213.75 M180.5,166.4 Q181.8,159.8 181.45,149.9 181.15,153.75 180,156.65 177.3,163.5 172.9,167.95 171.5,169.4 169.75,169.75 L167.15,169.55 Q162.8,172.25 160.2,171.5 L159.2,171 Q153.7,175.1 151.35,172.6 150.2,171.25 151.2,168.9 151.8,167.45 153.9,164.55 L158.4,157.8 156.15,157.45 Q151.35,156.5 150.25,154.15 149.7,153 150.3,151.95 150.75,151.1 151.7,150.85 L157.65,150.05 Q159.2,149.65 161,148.1 L161.1,147 Q154.7,147.95 148.4,147.2 141.95,146.4 136.6,143.9 131.85,141.8 128.6,139.2 126.3,154.6 128.4,169.1 130.5,184.05 137,191.4 140.25,195.1 145.5,192.55 149.65,190.5 152.95,186 149.45,177.35 147.55,170.6 145.2,162.15 144.55,154.45 144.45,153.4 145.45,153.75 146.45,154.1 146.55,154.95 147.3,163.85 150.05,173.1 151.6,178.6 154.75,186 L165.15,211.1 Q168.1,212.9 172.2,211.35 175.95,209.85 177.85,206.9 180.45,203 181.25,198.5 181.2,197.9 181.45,196.75 L181.8,195.15 Q182.15,190.8 182,188.15 181.6,181.85 180.2,177.15 179.15,179 176.85,181.4 L173.9,184.25 173.2,184.4 173.75,180.9 Q178.75,175.2 180.5,166.4 M178.15,155.9 Q179.1,153.65 179.35,150.8 173.8,155.25 168.35,153.9 163.25,152.65 161.4,150.35 159.55,151.65 158.15,152 L152.65,152.7 152.05,152.95 Q151.15,153.6 152.35,154.6 153.5,155.5 155.55,155.9 L159.3,156.2 Q161.4,156.3 161.4,156.55 L161.25,157.05 155.5,165.7 Q152.15,170.5 152.85,171.25 153.9,172.4 158.2,168.75 L166.3,159.6 Q167.1,160.4 163.7,164.8 160.15,169.05 160.2,169.2 L160.35,169.35 160.9,169.6 Q163.75,170.1 168.25,165.1 L172.25,160.6 Q172.55,161.65 170.15,164.75 L167.9,167.65 Q169.55,168.45 171.45,166.55 175.6,162.35 178.15,155.9 M168.3,81.4 Q169.2,80.25 169.75,78.15 170.2,76.25 170.1,74.5 L165.25,71 Q165.25,76.9 159.7,81.1 154.55,85.05 148.3,85.05 145.05,85.05 142.6,83.8 139.85,82.4 138.5,79.65 136.5,78.95 134.85,78.1 L131.65,80.75 Q132.9,82.8 137.1,84.65 L137.25,84.75 Q138.15,85.4 137.9,87.4 L136.35,93.5 Q134.45,99.8 134.25,102.35 133.65,108.7 133.75,120.15 L133.7,126.8 Q133.5,128.8 132.85,129.4 L131.95,129.75 131.8,129.75 129.15,129.25 128.9,137.2 Q132.4,140.2 137.05,142.2 141.5,144.15 146.15,144.85 153.35,146 161.25,144.65 161.55,138.2 160.95,132.2 L151.45,133 149.2,133 Q148.15,132.95 147.65,131.15 146.8,127.95 146.85,118.65 146.85,109.4 147.8,101.65 149.4,88.45 153.25,88.35 L153.45,88.35 Q157.35,88.35 161.7,86.3 166,84.3 168.3,81.4 M178.05,82.7 Q176.15,79.6 172.1,76.1 172.35,79.5 169.85,82.65 167.3,85.9 162.55,88.15 157.85,90.35 153.5,90.35 L153.3,90.35 Q152.9,90.35 152.2,91.55 149.65,96.4 149,112.55 148.4,127.75 149.7,131 L160.75,130.2 160.45,128.1 Q159.4,121.7 156.5,113.7 L157.45,112.85 Q160.2,119.25 161.45,123.9 163.65,131.95 164,142.1 164.1,144.7 163.35,149.3 164.6,150.8 169.2,151.95 174,153.05 179.1,147.95 179.6,147.3 179.9,145.9 L180,145.45 Q181.55,139.7 182.65,132.6 184.4,121 184.05,110.4 183.8,102 183.15,97.85 181.8,88.9 178.05,82.7 M170.05,27.85 Q169.1,24.9 166.35,24.9 L166.05,24.9 Q163,25.35 161.65,25.85 L159,26.5 Q157.65,26.5 156.75,25.45 153.95,22.2 150.5,22.2 149.1,22.2 148.05,22.8 145.35,24.2 143.8,24.2 L141.9,23.8 Q139.9,22.6 138.45,22.6 L137.45,22.85 Q136.7,23.25 134.4,26.15 L131.95,29.25 Q129.75,31 128,31.25 124.1,37.7 122.85,44.15 120.75,54.45 125,64.15 129.45,74.3 138.65,78.3 143.9,80.55 147.95,80.55 L151.2,80.25 Q151.4,80.25 151.4,80.35 151.55,80.7 149.3,81.4 L146,82.1 145.75,82.1 Q146.95,82.85 148.8,82.85 152.95,82.85 157.35,80.05 162.1,77.05 162.5,73.35 159.7,75.25 157.65,75.25 157.05,75.25 157,75 156.95,74.75 157.6,74.3 164.1,70.05 168.6,62 L169.35,62.05 Q173.6,62.05 175.3,58.05 177,54 173.45,51.3 172.9,50.5 173.6,50.1 L174.45,49.85 174.55,49.6 174.7,49.65 Q172,45.5 170.15,43.6 L167.65,41.7 Q167,41.3 167,40.75 167,40.2 167.45,40.2 L167.65,40.2 Q169.1,40.8 171,42.6 173.55,45.15 175.25,49 L175.45,47.85 Q172.9,42.75 170.7,40.65 L166.85,37.3 Q166.45,37.05 166.55,36.65 166.7,36.25 167.2,36.25 L167.55,36.3 Q168.6,36.7 171.6,39.85 174.2,42.85 175.55,46.4 175.65,41.7 171.7,37.95 170.05,36.35 166.95,34.55 166.3,34.15 166.6,33.7 166.85,33.25 167.05,33.25 171.05,31 170.05,27.85 M167.6,44.1 L167.75,44.15 Q169.15,44.65 170.2,45.85 L171.5,47.55 Q172.05,48.55 172,48.9 L171.8,49.15 169.4,46.7 167.45,45.4 Q166.85,45.05 167.05,44.55 167.2,44.1 167.6,44.1 M169.95,50.5 Q170,51.3 169.4,51.3 168.8,51.3 168.8,50.75 L168.05,49.65 167.4,49.05 Q167,48.85 167.15,48.4 167.3,47.95 167.7,47.95 L168,48 169.2,49 Q169.9,49.7 169.95,50.5 M151.4,31.3 L152.1,30.35 Q152.35,29.9 152.85,29.9 L153.4,30.05 155.55,32.15 Q157.65,34.45 157.35,35.75 L157.3,35.75 150.9,32.6 Q150.7,32.3 151.4,31.3 M153.7,42.4 Q153.65,43.8 153.1,44.75 152.55,45.75 151.8,45.75 L151.75,45.75 Q151,45.7 150.5,44.7 150,43.7 150.05,42.3 150.1,40.9 150.65,39.9 151.2,38.95 151.95,38.95 152.75,38.95 153.25,39.95 153.75,40.95 153.7,42.4 M133.9,31.6 L134.05,32.6 Q134.15,33.1 133.85,33.45 133.55,33.85 133.05,33.85 L128.9,34.05 128.45,33.9 128.85,33.45 132.65,31.05 133.2,30.9 Q133.8,30.9 133.9,31.6 M130.8,39.05 L130.85,39.05 Q131.6,39.05 132.1,40.05 132.65,41.1 132.55,42.5 132.5,43.9 131.95,44.85 131.4,45.85 130.65,45.85 129.85,45.8 129.35,44.8 128.85,43.8 128.9,42.4 128.95,41 129.5,40 130.05,39.05 130.8,39.05 M141.7,39.15 Q142.25,39.25 141.95,40.2 141.15,42.9 139.9,45.3 L137.85,49.25 Q137.3,50.15 137.95,50.95 L139.8,53.45 Q140.05,53.8 139.9,54.1 L139.4,54.5 138.3,54.75 Q137.55,54.75 137,54.15 L134.8,50.85 Q134.2,50.1 134.85,49.25 L138.75,44.05 140.8,40 Q141.2,39.15 141.65,39.15 L141.7,39.15 M128.45,57.15 L128.85,56.9 Q129.05,56.9 129.05,57.35 L129,58.1 129.25,58.85 Q129.55,59.15 129.95,59.2 L137.8,60.2 139.15,60.15 Q142.5,59.75 149.35,57.2 L150.1,56.7 Q150.45,56.25 150.3,55.85 L149.7,54.3 Q149.45,53.75 149.8,53.75 L150.15,53.9 155.15,57.45 155.75,58.1 155.85,58.95 154.9,63.45 Q154.85,63.9 154.6,63.9 L154.2,63.6 154.15,61.35 Q153.75,60.8 153.1,60.8 L152.65,60.9 148.25,63.8 Q143.25,66.65 140.15,66.65 L140.1,66.65 Q137.05,66.65 133.25,64.8 L130.1,62.95 129.85,62.9 Q129.15,62.9 129.15,63.65 L129.15,64.15 Q129.25,64.65 129,64.65 L128.65,64.35 126.5,61 126.35,60.2 Q126.35,59.7 126.6,59.4 L128.45,57.15 M136.65,69.05 Q136.25,68.85 136.3,68.65 136.3,68.5 136.8,68.45 L141,67.95 141.2,67.9 Q142.05,67.9 142.25,68.7 142.35,69.1 142.05,69.45 141.8,69.8 141.35,69.9 L139.7,70.15 138.35,69.95 136.65,69.05 M129.9,60.15 L129.75,60.15 Q128.65,60.15 128.9,61 129.1,61.95 129.85,62.1 L136,64.25 139.2,64.6 144.2,63.95 Q146.25,63.25 151.75,60.3 L152.55,59.6 Q152.9,59 152.3,58.45 151.7,58 151,58 L149.8,58.25 Q143.6,60.8 139.65,61.1 L138.25,61.15 129.9,60.15 M170.7,18.15 L167.75,14.5 Q165.3,11.35 162.35,10.95 160.5,10.75 157.95,9.85 L156.4,9 155.05,7.95 Q152.95,6.5 151.5,6.5 L151.15,6.5 Q149.9,6.65 147.4,10.75 L145.65,13.15 Q145.1,13.7 144.3,13.7 L139.95,12.8 138.75,12.95 Q137,13.4 132.55,18.5 130.7,20.6 128.2,20.6 126.5,20.6 125.05,19.45 123.9,18.5 124,16.6 122.75,17.85 122.1,19.55 121.35,21.7 121.95,24.5 122.65,27.35 124.5,29.1 125.45,30.05 126.8,30.05 L127.85,29.9 Q129.35,29.55 130.85,28.3 L133.25,25.25 Q135.55,22.4 136.55,21.85 137.95,21.05 138.85,21.05 139.45,21.05 140.15,21.35 L142.85,22.7 143.5,22.85 145,22.3 150.45,18.95 151.3,18.75 Q153.05,18.75 155.95,21.9 158.95,25.15 159.3,25.25 L159.6,25.25 Q160.4,25.25 162.65,24.25 165.1,23.15 166.1,23 L167.2,22.95 Q169.85,22.95 171.4,24.85 172.5,26.25 172.75,28.2 173,29.6 171.5,31.5 L168.75,34.1 172.65,37.3 Q175.65,40.25 176.55,44.5 177.55,41.8 178.15,38.25 179.35,31.1 177.4,26.7 176.3,24.2 174.75,22 172.65,19 170.7,18.15Z"/></g><path fill="#FFF" stroke="none" d="M34.05,136.7 Q32.5,135.5 31.1,136.45 26.3,139.25 23.15,144.7 18.65,152.5 21.75,160.6 25.95,169.35 35.85,172.35 40.6,173.8 45.55,174.1 40.65,176.75 40.5,182.25 40.35,185 41.25,187.55 41.25,187.8 37.3,186.15 33.1,184.35 32.15,185.2 31.1,186.05 31.7,188.2 32,189.5 32.9,190.95 39.5,201.45 40.85,202.65 43.05,204.55 45.35,202.9 46.2,202.3 46.2,201.4 46.2,199.9 42.45,196.45 42.15,195.85 46.55,199.1 51.5,202.25 53.6,201.15 58.2,209.05 61.45,210.1 63.5,211.75 66.6,215.95 67.4,217.05 72.2,221.25 75.95,224.5 76.55,226.55 77.2,228.9 79.6,229.95 81.5,230.7 83.1,230.35 86.2,229.5 85.75,227.6 85.45,226.55 83.65,225.05 L81.95,223.65 Q80.15,221.9 79.75,220.4 79.6,219.75 78.1,218.15 L74.85,214.95 76.8,215 Q78.35,217.5 79.55,218.55 80.8,219.5 83.9,220.6 85.25,221.15 86.15,222.1 87.9,223.85 89.35,223.85 91.75,223.85 94.15,221.05 L96.1,218.1 Q98.35,215.3 96.95,211 98.7,207.05 97.95,200.8 97.65,199.05 96.35,199.8 L92.5,203.15 Q90.25,201.35 86.25,200.3 85.05,192 76.65,188.25 69.3,172.8 52.6,170.1 46.6,170.25 40.35,168.8 28.25,165.95 25.1,157.3 23,151.4 27.75,145.3 30.1,142.25 33.65,139.6 35.5,137.9 34.05,136.7 M85.9,204.7 L86,204.8 86,204.9 Q86,205.2 85.7,205.55 L85.55,205.8 85.35,205.6 Q84.65,205 82.6,203.95 79.95,202.55 78.9,201.8 77.85,204.3 77.7,208.15 77.7,208.5 77.4,208.5 L77.1,208.25 Q75.9,203.55 77.8,199.6 L77.9,199.4 78.1,199.45 Q79.9,199.7 85.9,204.7 M86.4,215.75 L87.25,214.6 87.45,214.85 Q88.3,215.95 88,217.3 L87.95,217.45 87.8,217.5 87.5,217.5 Q86.7,217.5 85.7,216.8 84.45,215.95 84.3,215.05 L84.2,214.75 84.5,214.75 85,214.55 85.15,214.45 85.3,214.55 86.4,215.75 M96.75,214.6 L96.7,214.8 Q96.35,215.7 95.4,216.55 94.2,217.5 93.35,217.5 L93.15,217.5 93.1,217.3 Q92.8,215.9 93.5,214.75 L93.65,214.45 94.65,215.5 95.65,214.05 96.6,214.5 96.75,214.6Z"/></g></svg>