<?xml version="1.0" encoding="utf-8"?><svg id="Luck" image-rendering="auto" baseProfile="basic" version="1.1" x="0px" y="0px" width="240" height="240" xmlns="http://www.w3.org/2000/svg" xmlns:xlink="http://www.w3.org/1999/xlink"><g id="Scene-1f12r1" overflow="visible"><g id="Symbol-10"><path fill="#FFF" stroke="none" d="M124.6,210.7 L127.8,216.3 Q129.65,220.2 129.55,222.9 131.7,221.25 134.2,218.1 131.3,212.2 127.65,208 123.05,202.75 117.95,201.05 121.65,205.75 124.6,210.7 M125.7,215.75 L125.55,215.9 115.15,220.65 118.3,223.05 Q119.7,224.05 120.8,224.55 123.55,225.9 125.65,225.15 L126.75,224.7 126.8,224.55 127.45,223.05 Q128,220.3 125.7,215.75 M102.1,201.1 Q103.1,205.75 106.3,210.65 109.15,215.1 113.25,218.95 L124.35,213.85 124.6,213.8 121.95,209.65 Q118.5,204.25 114.95,199.95 110.95,195.85 107.65,194.95 104.55,194.1 102.95,196.15 101.45,198.1 102.1,201.1 M138.6,152.5 Q139.25,151.8 140.25,151.75 L146.2,152.4 147.7,152.2 Q141.3,151.35 136.15,148.95 131.45,146.75 128.3,144.35 127.4,156.55 125.6,168.6 123.85,180.3 121.85,187.7 L120.1,193.45 Q118.9,196.65 117.45,198.85 123,200.55 128,205.9 132.2,210.35 135.35,216.55 L135.45,216.4 Q140.85,209 145.45,199.35 149.15,191.5 152.9,181 152.95,180.8 153.15,180.7 151.95,177.4 151,173.75 L150.75,173.6 143.55,173.85 142.7,173.1 Q136.3,175.85 134.7,172.75 133.9,171.2 135.45,169.15 136.3,168 139.05,165.55 L145.05,160.1 142.95,159.2 Q138.55,157.15 138,154.6 137.75,153.35 138.6,152.5 M129.4,87.35 Q126.45,90.1 125.3,92.25 122.65,98.4 123.65,106.25 123.85,108.05 126.7,120.2 128.4,127.5 128.65,131.25 L128.7,132.8 131.05,133.35 Q131.35,132.05 131.25,125.85 131.15,114.25 131.75,107.8 132,105.1 133.9,98.6 135.55,92.95 135.45,92 131,90 129.4,87.35 M120.75,37.55 Q120.95,38.7 122.25,40.95 123.5,38.05 125.05,35.4 123.8,35.05 122.7,34.05 122.35,33.65 121.9,33.65 121.2,33.65 120.85,34.8 120.5,36 120.75,37.55 M172.1,208.45 Q170,210.95 168.55,213.3 163.6,220.7 165.7,222.2 166.5,222.8 167.7,223.05 L170.15,223.3 172.8,223.05 174.75,222.55 Q178.8,221.3 181.65,218.7 184.95,215.8 187.5,211.7 188.15,210.6 188.25,209.05 L188.5,206.4 Q188.65,205.75 189.2,205.4 189.7,205.05 190.35,205.1 191.3,205.15 191.55,204.8 L191.85,203.2 Q192.15,200.6 190.65,197.85 188.6,204.45 184.65,207.25 181.95,209.2 178.55,209.65 174.8,210.15 172.1,208.45 M164.7,163 Q166.1,161.1 167.05,158.35 160.65,161.25 155.65,158.7 150.95,156.3 149.75,153.55 147.95,154.35 146.25,154.4 L141.7,153.95 140.7,153.75 140.05,153.85 Q139.05,154.3 140,155.5 140.85,156.65 142.75,157.55 143.6,157.95 146.3,158.75 148.35,159.4 148.25,159.6 L148,160.05 141.05,166.5 140.35,167.05 137.65,169.6 Q136.15,171.2 136.45,171.8 137.2,173.2 142.25,170.65 143.5,170.05 148.1,166.65 152.25,163.6 152.3,163.7 152.9,164.7 148.55,168.15 144.1,171.45 144.1,171.6 L144.2,171.8 144.65,172.15 Q147.3,173.3 152.9,169.55 L157.85,166.15 Q157.9,167.2 154.8,169.65 L151.95,171.95 Q152.3,172.3 153,172.45 154.15,172.6 155.65,171.7 160.65,168.7 164.7,163 M177.25,146.15 L175.1,147.4 171.4,154.8 170.65,155.85 169.65,156.9 169.6,156.9 Q168.55,161 166.35,164.15 161.95,170.2 156.7,173.4 154.9,174.55 153.05,174.35 155.4,183.5 160.2,191.65 165.1,199.9 172.05,206.35 174.75,208.55 178.95,207.4 182.8,206.35 185,203.6 188,199.85 189.2,194.95 L189.3,194.7 189.7,192.4 Q190.2,187.8 188.25,183.2 186.45,178.75 182.9,175.5 182.35,177.55 179.55,180.65 L175.85,184.3 175.25,184.45 175.95,180.7 Q182.1,173.65 182.7,163.25 183.15,155.25 180.25,143.95 L177.25,146.15 M179,137.95 L176.75,143.6 Q179.6,141.7 179.5,141 L179.05,138.55 179,137.95 M189.6,141.1 Q189.05,140.75 188.6,140.85 L187.65,140.95 186.1,140.95 182.95,141.45 182.9,140.9 186.85,139.85 Q189.7,138.85 189.3,137.2 189,135.95 185.85,136.25 L182.05,136.4 Q182.35,136.3 182.15,136.15 L185.3,135.15 Q187.85,134.25 187.4,132.9 187.1,131.9 180.9,132.9 L180.9,133 Q180.8,135.45 180.95,137.35 L182.85,146.95 185.85,146.25 187,145.65 Q190.5,143.8 190.3,142.1 190.25,141.5 189.6,141.1 M169.45,82.9 Q169.8,80.05 168.65,77.15 L164.3,74.8 164.25,74.85 Q164.45,80.85 158.85,85.25 153.65,89.3 147.3,89.3 144.05,89.3 141.55,88 138.85,86.6 137.5,83.85 L134.8,82.8 130.95,86 Q132.05,88.3 136.6,90.3 L136.75,90.4 Q137.65,91 137.4,93 L135.85,99.15 Q133.95,105.45 133.75,108 133.15,114.35 133.25,125.8 L133.2,132.4 Q133,134.4 132.35,135 131.95,135.4 131.45,135.4 L131.3,135.35 128.75,134.9 128.45,142.25 Q132.75,145.95 138.7,148.1 144.3,150.1 150.25,150.3 152.1,144.9 153.25,138.6 L148.7,138.6 Q147.65,138.6 147.15,136.8 146.3,133.6 146.35,124.25 146.45,114.45 147.3,107.3 148.95,94.1 152.75,94 L152.95,94 Q156.85,94 161.2,91.95 165.5,89.95 167.8,87.05 169.1,85.35 169.45,82.9 M182.8,99.9 Q182.25,93.55 181.15,90.4 178.95,83.9 170.95,78.6 171.8,81.35 171.25,84.05 170.75,86.5 169.35,88.3 166.8,91.55 162.05,93.8 157.35,96 153,96 L152.8,96 Q152.35,96 151.7,97.2 149.15,102 148.5,118.2 147.9,133.35 149.2,136.65 L153.6,136.6 Q154.35,134.35 154.85,129.45 155.55,122.7 155.15,115.15 155.2,114.4 155.5,114.25 155.8,114.1 155.85,114.6 156.9,120.7 156.75,128.05 156.5,137.4 154.3,146.2 153.5,149.45 151.95,153 152.6,154.7 156.95,157 159.7,158.4 163.45,157.3 165.5,156.7 167.5,155.5 L168.8,153.7 169,153.3 Q171.9,148.1 174.65,141.45 179.15,130.65 181.35,120.25 183.65,109.35 182.8,99.9 M170.4,29.05 Q171.5,30.45 171.75,32.4 171.95,33.8 170.45,35.7 L167.7,38.3 171.65,41.5 Q174.65,44.45 175.55,48.7 176.55,46 177.15,42.45 178.35,35.3 176.4,30.9 175.3,28.45 173.75,26.2 171.6,23.2 169.7,22.35 L166.7,18.7 Q164.3,15.55 161.35,15.2 159.4,14.9 156.95,14.05 156.2,13.8 155.4,13.2 L154.05,12.15 Q151.95,10.7 150.45,10.7 L150.15,10.7 Q149,10.9 146.35,14.95 L144.6,17.4 Q144.05,17.95 143.3,17.95 L138.95,17 137.75,17.15 Q136.6,17.45 134.45,19.55 L131.55,22.7 Q129.75,24.8 127.2,24.8 125.45,24.8 124.05,23.7 122.8,22.65 123,20.85 121.75,22 121.1,23.75 120.35,25.9 120.95,28.7 121.65,31.6 123.45,33.3 124.45,34.25 125.8,34.25 127.65,34.25 129.85,32.5 L132.25,29.5 Q134.55,26.6 135.55,26.05 136.85,25.3 137.85,25.3 L139.1,25.6 141.85,26.9 142.45,27.05 Q143.05,27.05 144,26.5 L149.45,23.15 150.3,22.95 Q152.05,22.95 154.95,26.1 157.95,29.35 158.3,29.45 L158.6,29.5 161.65,28.45 Q164.05,27.4 165.1,27.25 L166.2,27.15 Q168.85,27.15 170.4,29.05 M169.05,32.05 Q168.1,29.1 165.35,29.1 L165,29.15 Q162.1,29.5 160.65,30.05 L158,30.7 Q156.6,30.7 155.7,29.65 152.9,26.4 149.45,26.4 148.15,26.4 147,27 144.4,28.4 142.75,28.4 L140.85,28 Q138.9,26.8 137.45,26.8 L136.45,27.05 Q135.7,27.45 133.4,30.35 L130.9,33.45 Q128.9,35.2 127,35.5 123.15,41.9 121.8,48.35 119.75,58.65 124,68.35 128.45,78.5 137.65,82.5 142.7,84.75 146.9,84.75 L150.15,84.45 150.4,84.55 Q150.55,84.9 148.3,85.65 L145,86.35 144.75,86.3 Q145.9,87.05 147.8,87.05 151.95,87.05 156.35,84.25 161.1,81.25 161.5,77.55 158.8,79.45 156.65,79.45 156.05,79.45 156,79.2 155.95,78.95 156.6,78.55 163.15,74.15 167.6,66.2 L168.35,66.25 Q172.6,66.25 174.3,62.25 176,58.2 172.45,55.5 171.85,54.55 172.8,54.25 L173.85,54.65 173.95,54.25 173.95,54.2 Q171.3,50 169.1,47.8 L166.65,45.95 Q165.95,45.55 165.95,44.95 166,44.4 166.45,44.4 L166.65,44.45 Q168,44.9 169.95,46.85 172.25,49.05 174.25,53.2 L174.45,52.05 172.75,48.85 Q171.3,46.4 169.7,44.9 L165.85,41.5 Q165.4,41.25 165.55,40.85 165.65,40.45 166.15,40.45 L166.55,40.5 Q167.7,40.95 170.55,44.05 172.9,46.8 174.55,50.6 174.55,45.8 170.65,42.15 168.9,40.5 165.95,38.8 165.3,38.4 165.6,37.9 L166,37.45 Q170.05,35.2 169.05,32.05 M166.45,49.65 Q165.85,49.25 166,48.75 166.15,48.3 166.6,48.3 L166.75,48.35 Q168.05,48.8 169.2,50.05 L170.45,51.75 Q171.05,52.75 170.95,53.15 L170.8,53.35 168.4,50.9 166.45,49.65 M166.7,52.15 L166.95,52.2 168.2,53.2 Q168.9,54.1 168.95,54.7 169,55.5 168.35,55.5 167.85,55.5 167.75,54.95 L167.05,53.85 166.35,53.25 Q166,53.05 166.15,52.6 166.3,52.15 166.7,52.15 M151.85,34.1 L152.35,34.25 154.55,36.35 Q156.65,38.7 156.35,39.95 L156.3,39.95 149.85,36.85 Q149.65,36.55 150.35,35.55 L151.05,34.6 Q151.35,34.1 151.85,34.1 M151.3,43.4 L150.7,43.3 Q150.05,43.35 149.75,44.15 149.4,44.9 149.5,45.85 L149.7,46.65 150.45,46.85 Q151.3,47.15 151.65,47.55 L152.75,49.4 151.75,50.8 Q150.45,52.15 149.2,51.75 148.4,51.55 148,49.7 L147.8,47.95 Q147.1,47.65 146.1,47.95 L145.65,47.5 Q145.5,47 146.7,46.7 L148.35,46.45 148.3,45.15 Q148.4,43.75 149,43.15 L150.35,42.35 Q151,42.25 151.3,42.65 151.7,43.2 151.3,43.4 M132.15,35.1 Q132.75,35.1 132.9,35.8 L133.05,36.8 Q133.15,37.35 132.85,37.7 132.55,38.05 132,38.1 L127.9,38.25 127.4,38.1 127.8,37.65 131.65,35.25 132.15,35.1 M129.4,42.75 Q130.05,42.6 130.3,43.05 130.7,43.55 130.35,43.75 L129.75,43.7 Q129.05,43.75 128.75,44.5 128.4,45.3 128.5,46.25 L128.7,47.05 129.4,47.3 Q130.2,47.6 130.65,47.9 131.5,48.5 132.05,49.45 L130.9,51.05 Q129.45,52.55 128.2,52.15 127.4,51.9 127,50.1 L126.8,48.3 Q126.1,48 125.1,48.3 L124.65,47.85 Q124.5,47.35 125.7,47.05 L127.35,46.85 127.35,45.55 Q127.45,44.15 128.05,43.55 128.7,42.85 129.4,42.75 M139.75,44.2 Q140.1,43.4 140.65,43.4 L140.7,43.4 Q141.2,43.5 140.95,44.45 L136.8,53.5 Q136.6,53.85 136.65,54.35 L136.95,55.15 138.75,57.65 138.9,58.3 138.4,58.7 137.3,58.95 Q136.5,58.95 136,58.35 L133.75,55.05 Q133.2,54.25 133.85,53.45 L137.75,48.25 139.75,44.2 M128,62.3 Q127.95,62.7 128.25,63.05 128.55,63.35 128.95,63.4 L131.6,63.95 136.8,64.45 138.15,64.35 Q141.5,64 148.35,61.4 L149.1,60.9 Q149.45,60.45 149.3,60.1 L148.7,58.5 Q148.45,57.95 148.8,57.95 L149.15,58.1 154.15,61.65 Q155,62.25 154.85,63.15 L153.9,67.65 153.55,68.15 153.15,67.8 153.15,65.55 Q152.75,65 152.05,65 L151.65,65.1 Q149.75,66.55 147.25,68 142.2,70.9 139.15,70.9 L139.1,70.9 Q136.05,70.85 132.25,69 L129.1,67.15 128.85,67.1 Q128.15,67.1 128.15,67.9 L128.15,68.4 128,68.85 127.65,68.55 125.5,65.2 Q124.95,64.4 125.6,63.6 L127.45,61.35 127.8,61.1 128.05,61.6 128,62.3 M141.05,73.65 L140.35,74.1 138.65,74.4 137.35,74.15 135.65,73.25 135.25,72.9 Q135.3,72.7 135.75,72.65 L139.95,72.15 140.15,72.1 Q141.05,72.1 141.25,72.9 141.35,73.3 141.05,73.65 M131.65,64.9 L128.7,64.35 Q127.65,64.35 127.85,65.2 128.15,66.15 128.85,66.3 L135,68.45 138.15,68.8 143.15,68.15 Q145.25,67.45 150.75,64.5 L151.55,63.8 Q151.9,63.2 151.25,62.65 150.65,62.2 149.95,62.2 L148.8,62.45 Q142.6,65 138.6,65.3 L137.25,65.35 131.65,64.9Z"/></g><g id="Symbol-6f0r1"><path fill="#FFF" stroke="none" d="M97.65,201 Q97.4,199.25 96.05,200 L92.2,203.35 Q89.95,201.55 85.95,200.5 84.8,192.25 76.35,188.45 69,173 52.3,170.3 46.35,169.2 41.1,166.35 30.65,160.75 30.8,151.5 30.95,145.3 37.55,141.25 38.95,140.4 45.1,138 47.4,137.05 46.5,135.4 45.55,133.8 43.85,134.1 38.4,135.1 33.5,139.05 26.45,144.7 26.5,153.35 27.4,163.2 36,169.4 40.35,172.55 45.25,174.3 44.2,175.2 42.9,178.15 41.5,181.3 41.5,183.35 41.5,187 46.75,195.9 47.65,197.4 47.65,198.15 47.65,199.4 45.75,200.25 43,201.7 43,202.9 43,203.75 43.9,205.25 50.5,215.7 51.85,216.95 54.05,218.8 56.35,217.2 57.2,216.5 57.2,215.7 57.2,214.25 53.5,210.7 L50.5,204.6 Q53.4,201.9 54.45,198.9 56.6,201.35 59.6,203 61.2,205.3 63.05,209.95 L66.3,217.55 Q69.05,222.9 71.65,222.9 74.9,222.9 74.9,220.9 74.9,219.8 73.5,217.95 L71.15,214.85 Q71,214.55 71.25,214.55 73.8,215.35 76.5,215.2 78.1,217.75 79.25,218.75 80.45,219.7 83.6,220.8 84.95,221.35 85.85,222.3 87.6,224.05 89.05,224.05 90.55,224.05 92.8,222.4 95.2,226.8 100.4,229 L103.4,229.65 Q105.4,229.65 105.75,228 106.25,225.75 103.5,224.8 98.2,222.55 95.7,218.95 95.55,218.7 95.8,218.3 98.05,215.45 96.65,211.2 98.4,207.3 97.65,201 M87.7,217.5 L87.65,217.65 87.5,217.7 87.2,217.7 Q86.4,217.7 85.4,217 84.2,216.2 84,215.25 L83.9,214.95 84.2,214.95 Q84.3,214.95 84.7,214.75 L84.85,214.65 85,214.75 86.1,215.95 86.95,214.8 87.15,215.05 Q88,216.15 87.7,217.5 M93.35,214.65 L94.35,215.7 95.35,214.25 96.3,214.7 96.45,214.8 96.4,215 Q96.05,215.95 95.1,216.75 94,217.7 93.05,217.7 L92.85,217.7 92.8,217.5 Q92.55,216.1 93.2,214.95 L93.35,214.65 M85.6,204.9 L85.7,205 85.7,205.1 Q85.7,205.4 85.4,205.75 L85.25,206 85.05,205.8 78.6,202 Q77.55,204.5 77.4,208.35 77.4,208.7 77.1,208.7 L76.8,208.45 Q75.6,203.85 77.5,199.8 L77.6,199.6 77.8,199.65 Q79.6,199.9 85.6,204.9Z"/></g></g></svg>