<?xml version="1.0" encoding="utf-8"?><svg id="Luck" image-rendering="auto" baseProfile="basic" version="1.1" x="0px" y="0px" width="240" height="240" xmlns="http://www.w3.org/2000/svg" xmlns:xlink="http://www.w3.org/1999/xlink"><g id="Scene-1f14r1" overflow="visible"><g id="Symbol-12"><path fill="#FFF" stroke="none" d="M126.95,154.65 L125.05,152.35 Q123.75,153.05 121.5,152.3 117.1,150.9 114.6,144.75 112.7,140 113,138.15 113.15,137.5 114,137.35 114.85,137.2 115,137.9 115.75,141.9 116.5,143.85 118.55,149.25 122.1,150.35 L124.1,150.6 Q124.65,149.95 122.45,145.4 L120.15,139.9 120.9,139.45 121.85,138.4 Q122.75,136.85 122.2,134.65 L120.55,134.3 Q115.65,133.1 112.75,127.65 109.95,137 111.25,142.5 112.15,146.4 115.25,150.25 117.3,152.8 119.95,154.9 L120.95,155.65 122.15,156.25 Q125.7,157.9 126.95,156.75 127.35,156.35 127.35,155.6 127.3,154.95 126.95,154.65 M126.95,134.75 L124,134.9 Q124.75,139.1 122.65,140.7 L125.95,148.65 Q126.55,150.85 125.6,151.9 L125.5,152 127.75,153.3 127.35,148 Q126.5,147.05 126.55,146.75 L126.6,146.7 126.8,146.65 127.25,146.9 Q126.9,139.7 126.95,134.75 M130.15,80.3 L130.1,78.9 Q127.2,81.45 125.85,83.9 123.2,90 124.2,97.85 L127.2,111.85 Q128.95,119.45 129.2,122.9 L129.25,125.15 Q131.75,127.85 136.65,128.05 136.8,127.1 136.2,120.45 135.1,110.05 135.15,102.55 135.15,100 136.55,93.2 137.7,87.5 137.55,86.5 130.9,84.15 130.15,80.3 M122.15,97.2 Q118.9,104.45 116.5,112.3 114.95,117.4 114.05,121.5 L113.95,121.9 Q113.55,123.45 113.75,124.1 114.4,126.3 115.6,128.15 117.7,131.45 120.7,132.15 124.9,133.2 126.85,132.6 L127.25,129 Q127.6,124.05 126.95,119.95 126.45,116.55 124.45,108.6 122.6,101.3 122.15,97.2 M126.9,28.95 Q125.55,28.6 124.55,27.6 124.05,27.2 123.7,27.2 123,27.2 122.7,28.35 122.35,29.55 122.55,31.1 122.75,32.25 124.05,34.5 125.35,31.45 126.9,28.95 M167.85,214.2 L166.7,211.85 Q162.8,216 157.7,217.35 152.25,218.8 147.35,216.35 144.3,218.25 141.5,220.45 L137.25,224 Q134.35,226.95 135.1,228.55 135.8,230.1 140.4,229.75 145.85,229.45 150.45,227.7 153.35,226.55 156,224.25 L160.65,219.5 Q161.05,219.1 161.65,219.5 162.2,219.9 162.35,220.4 162.6,221.15 164.05,220.8 L165.95,220.05 Q169.15,218.2 167.85,214.2 M185.3,178.95 Q187.35,178.35 187.2,177.35 L186.05,172.55 Q184.7,168.8 182.95,170.45 L182.35,170.6 Q183.6,175.85 182.5,181.25 181.25,187.35 177.4,190.35 175.4,191.95 172.45,192.1 173.9,197.2 175.85,201.15 178.75,207 180.8,205.6 186.4,201.85 186.95,190.5 L187,188.05 Q186.85,186.75 186.2,185.75 L184.85,183.8 Q183.8,182.2 183.55,180.7 183.3,179.5 185.3,178.95 M183.05,151.6 L183.05,152.15 179.55,164.35 Q178.65,167.8 179.4,168.2 180.7,169 183.7,164.2 L188.65,153 Q189.65,153.55 187.75,158.75 L185.8,164 186,164.1 186.55,164.2 Q189.4,163.8 192.2,157.65 L194.65,152.15 Q195.25,153.05 193.9,156.7 L192.65,160.2 193.75,160.05 Q194.9,159.6 195.7,158.05 198.35,152.75 198.8,145.85 199,143.65 198.4,140.65 194.35,146.6 188.85,146.95 183.55,147.35 181.15,145.7 L178.6,148.25 Q176.85,149.35 174.5,150.2 L173.5,150.6 173.05,151 Q172.45,151.9 173.85,152.45 L177.25,152.75 183.05,151.6 M178.45,137.4 L177.8,137.8 Q169.15,143.35 157.6,144.15 146.05,144.9 136.7,140.6 131.95,138.4 128.95,136.1 128.9,157.3 133.35,176.7 L138.25,193.65 Q143,207.1 147.55,214.4 152.2,216.8 157.45,215.05 162.2,213.5 165.85,209.25 165.2,197.15 161.75,189.45 158.55,187.95 156,185.5 154.1,183.65 152.6,181.3 149.8,177.05 147.6,169.65 146.1,164.8 145.15,160.3 143.85,154.3 143.4,148.95 143.3,147.9 144.3,148.25 145.3,148.6 145.4,149.45 145.8,154.6 147.05,160.3 L148.35,165.7 Q150.75,174.45 152.65,178.25 154.95,182.9 158.4,185.5 159.9,186.7 161.65,187.45 L162.5,187.8 162.7,187.85 Q171.75,191.75 175.5,188.8 179.15,185.95 180.45,180.3 181.6,175.15 180.4,170.25 179.25,170.5 178.4,169.9 176.45,168.8 177.45,164.6 L177.1,165 Q174.5,169 170.85,172.15 L167.4,174.8 167.05,174.9 167.55,171.4 175.3,163.5 Q178.2,159.05 179.4,153.9 L178.3,154.05 Q173.45,154.7 171.7,152.7 170.8,151.75 171.05,150.6 171.25,149.65 172.05,149.1 L173.8,148.35 Q175.9,147.6 177.5,146.6 178.8,145.7 180.1,143.7 L178.45,137.4 M169.3,78.85 Q170.2,77.55 170.5,75.5 170.75,73.65 170.45,71.95 L166.05,68.6 Q166.1,74.55 160.6,78.85 155.4,82.85 149.1,82.85 145.85,82.85 143.4,81.55 140.65,80.15 139.3,77.4 136.65,76.45 134.5,75.2 L133.6,75.95 Q131.75,77.95 132.1,79.9 132.7,82.7 138.5,84.7 L138.65,84.75 Q139.65,85.3 139.55,87.35 L138.5,93.6 Q137.15,99.95 137.15,102.55 137.1,109.95 138.2,120.25 L138.7,126.9 Q138.7,128.9 138.1,129.6 137.65,130.05 137.05,130.05 132.55,130 129.25,127.75 L129,133.9 Q133.4,137.65 139.6,139.8 150.75,143.75 164.05,140.75 171.35,139.1 175.55,136.4 L177.65,134.95 Q176.15,130.5 174.4,126.7 172,128.25 168.2,129.5 162.25,131.45 154.65,131.85 L154.5,131.85 Q153.5,131.85 152.85,129.8 151.85,126.6 151.1,117.7 150.35,108.35 150.65,100.7 151.15,87.4 154.95,87 158.85,86.75 163.05,84.35 167.3,81.95 169.3,78.85 M190.55,100.75 Q186.6,89.7 181.1,82.65 177.65,78.25 172.75,73.9 173,76.9 171,79.95 168.65,83.45 164.1,86.05 159.45,88.7 155.1,89 154.65,89.15 154.15,90.3 152.05,95.3 152.75,111.5 153.4,126.7 154.95,129.8 162.3,129.4 168.05,127.45 171.4,126.3 173.5,124.9 L173.45,124.8 Q170.3,118.6 164.55,111.3 L165.45,110.5 Q169,114.05 171.75,117.9 178,126.6 181.1,137 182,140 182.7,144.05 184.25,145.15 189.05,144.8 192.1,144.6 194.75,141.7 196.2,140.05 197.25,138 197.6,137.3 197.4,135.8 L197.4,135.35 Q197.1,129.45 195.95,122.3 194.1,110.75 190.55,100.75 M167.75,32.35 Q167.1,32 167.4,31.45 L167.8,31 Q171.85,28.75 170.85,25.6 169.9,22.65 167.15,22.65 L159.8,24.25 Q158.4,24.25 157.55,23.2 154.65,19.95 151.3,19.95 149.9,19.95 148.85,20.55 146.2,22 144.6,22 L142.7,21.55 Q140.7,20.35 139.25,20.35 L138.25,20.6 Q137.5,21.05 135.2,23.9 L132.75,27 Q130.55,28.75 128.8,29.05 124.9,35.5 123.65,41.9 121.55,52.2 125.8,61.9 130.25,72.05 139.45,76.05 144.55,78.3 148.75,78.3 L152,78 Q152.2,78 152.2,78.1 152.35,78.45 150.1,79.2 L146.8,79.9 146.55,79.85 Q147.75,80.6 149.6,80.6 153.8,80.6 158.15,77.8 162.9,74.8 163.3,71.1 160.6,73 158.45,73 157.85,73 157.8,72.75 157.75,72.5 158.4,72.1 164.95,67.7 169.4,59.75 L170.15,59.8 Q174.4,59.8 176.1,55.8 177.8,51.75 174.25,49.05 173.7,48.25 174.4,47.85 L175.25,47.65 175.4,47.25 Q172.4,42.85 170.95,41.35 L168.45,39.5 Q167.75,39.1 167.75,38.5 167.8,37.95 168.25,37.95 L168.45,38 Q169.75,38.45 171.8,40.4 174.05,42.6 176.05,46.75 L176.25,45.6 Q173.75,40.6 171.5,38.45 L167.65,35.05 Q167.2,34.8 167.35,34.4 167.45,34 167.95,34 L168.35,34.05 Q169.4,34.45 172.4,37.6 174.95,40.65 176.35,44.15 176.45,39.45 172.5,35.7 170.85,34.1 167.75,32.35 M167.85,42.3 Q168,41.85 168.4,41.85 L168.55,41.9 Q169.85,42.35 171,43.6 L172.3,45.3 Q172.85,46.3 172.8,46.7 L172.6,46.9 Q172.35,46.9 171.55,45.95 L170.2,44.45 168.25,43.2 Q167.65,42.8 167.85,42.3 M170,46.75 Q170.7,47.5 170.75,48.25 170.8,49.05 170.2,49.05 169.65,49.05 169.55,48.5 169.5,48.05 168.85,47.4 L168.2,46.8 Q167.8,46.6 167.95,46.15 168.1,45.7 168.5,45.7 L168.8,45.8 Q169.4,46.05 170,46.75 M154.2,27.8 L156.35,29.9 Q158.45,32.25 158.15,33.5 L158.1,33.5 152.6,30.8 Q151.75,30.5 151.7,30.4 151.5,30.1 152.2,29.1 L152.9,28.15 Q153.1,27.65 153.65,27.65 L154.2,27.8 M152.75,37.15 Q152.1,37.2 151.75,37.95 151.45,38.75 151.55,39.7 L151.75,40.5 152.5,40.7 153.7,41.35 154.8,43.25 153.8,44.65 Q152.5,46 151.25,45.6 150.45,45.35 150.05,43.55 L149.8,41.75 Q149.15,41.45 148.1,41.75 L147.7,41.3 Q147.55,40.8 148.75,40.5 L150.4,40.3 150.35,39 Q150.45,37.6 151.05,37 151.75,36.3 152.4,36.2 153.05,36.1 153.35,36.5 153.75,37.05 153.35,37.25 L152.75,37.15 M134.7,29.35 L134.85,30.35 Q134.95,30.9 134.65,31.25 L133.8,31.65 129.7,31.8 129.25,31.65 129.65,31.2 133.45,28.8 133.95,28.65 Q134.55,28.65 134.7,29.35 M132.35,36.9 Q132.75,37.4 132.35,37.6 L131.75,37.55 Q131.1,37.6 130.75,38.35 130.45,39.1 130.55,40.1 L130.75,40.9 131.45,41.15 132.7,41.75 Q133.55,42.35 134.1,43.3 L132.95,44.9 Q131.5,46.4 130.25,46 129.45,45.75 129.05,43.95 L128.85,42.15 Q128.15,41.85 127.1,42.15 L126.7,41.7 Q126.55,41.2 127.75,40.9 L129.4,40.7 129.35,39.4 Q129.45,38 130.05,37.4 130.75,36.7 131.4,36.6 132.05,36.45 132.35,36.9 M139.55,41.8 L141.55,37.75 Q142,36.95 142.45,36.95 L142.5,36.95 Q143,37.05 142.75,38 141.95,40.65 140.7,43.05 L138.6,47.05 Q138.4,47.4 138.45,47.9 L138.75,48.7 140.6,51.2 Q140.85,51.55 140.7,51.85 L140.2,52.25 139.1,52.5 Q138.3,52.5 137.8,51.9 L135.55,48.6 Q135,47.8 135.65,47 L139.55,41.8 M130.75,56.95 L133.4,57.5 138.6,58 139.95,57.9 Q143.3,57.55 150.15,54.95 L150.9,54.45 Q151.25,54 151.1,53.65 L150.5,52.05 Q150.25,51.5 150.6,51.5 L150.95,51.65 155.95,55.2 Q156.85,55.75 156.65,56.7 L155.7,61.2 155.4,61.7 154.95,61.4 154.95,59.1 Q154.55,58.55 153.9,58.55 L153.45,58.65 149.05,61.55 Q144.05,64.45 140.95,64.45 L140.9,64.45 Q137.85,64.4 134.05,62.55 L130.9,60.7 130.65,60.65 Q129.95,60.65 129.95,61.45 L129.95,61.95 Q130.05,62.4 129.8,62.4 L129.45,62.1 127.3,58.75 Q126.75,57.95 127.4,57.15 L129.25,54.9 Q129.5,54.65 129.65,54.65 129.85,54.65 129.85,55.15 L129.8,55.85 Q129.75,56.25 130.05,56.6 130.35,56.9 130.75,56.95 M137.05,66.45 Q137.1,66.25 137.55,66.2 L141.8,65.7 142,65.65 Q142.85,65.65 143.05,66.45 143.15,66.85 142.85,67.2 L142.15,67.65 140.45,67.95 139.15,67.7 137.45,66.8 137.05,66.45 M130.55,57.95 Q129.45,57.95 129.7,58.75 129.9,59.7 130.65,59.85 L136.8,62 140,62.35 144.95,61.7 Q147.05,61 152.55,58.05 L153.35,57.35 Q153.75,56.75 153.1,56.25 152.45,55.75 151.8,55.75 L150.6,56 Q144.4,58.55 140.45,58.85 L139.05,58.9 133.45,58.45 130.7,57.95 130.55,57.95 M175.55,19.75 Q173.45,16.75 171.5,15.9 L168.55,12.3 Q166.1,9.15 163.15,8.75 L158.75,7.6 Q158,7.35 157.2,6.75 L155.85,5.7 Q153.75,4.25 152.3,4.25 L151.95,4.25 Q150.7,4.45 148.2,8.5 L146.45,10.95 Q145.9,11.5 145.1,11.5 L140.75,10.55 139.55,10.7 Q138.4,11 136.25,13.1 L133.35,16.25 Q131.55,18.35 129,18.35 127.25,18.35 125.85,17.25 124.7,16.25 124.8,14.4 123.55,15.55 122.9,17.35 122.1,19.5 122.75,22.25 123.45,25.15 125.3,26.85 126.25,27.8 127.6,27.8 129.55,27.8 131.65,26.05 L134.05,23.05 Q136.35,20.15 137.35,19.6 138.65,18.85 139.65,18.85 L140.95,19.15 143.65,20.45 144.3,20.6 145.8,20.05 151.25,16.7 152.1,16.5 Q153.85,16.5 156.75,19.65 159.75,22.9 160.1,23 L160.4,23.05 163.45,22 Q165.9,20.95 166.9,20.8 L168,20.7 Q170.65,20.7 172.2,22.6 173.3,24 173.55,25.95 173.8,27.35 172.3,29.25 L169.55,31.85 173.45,35.05 Q176.45,38 177.35,42.25 178.35,39.55 178.95,36 180.15,28.85 178.2,24.45 177.1,21.95 175.55,19.75Z"/></g><path fill="#FFF" stroke="none" d="M30.5,172.45 L39.05,172.05 Q43.7,172.6 45.3,173.95 L42.75,175.3 Q40.8,176.6 38.75,180.35 37.95,181.8 37.3,182.2 L33.05,179.9 Q28.9,177.45 27.15,178.65 23.7,181.05 24.45,184.2 25.25,187.1 26.65,186.85 27.7,186.65 28.6,184.65 29.75,183.45 32.45,186.5 L35.55,189.5 Q38.45,191.95 41.55,193.2 46.2,194.85 48.15,192.15 L53.65,197.6 Q58.45,202 59.6,202.65 L59.75,203.1 Q59.75,203.5 59.2,203.9 58.3,204.6 58.95,206.35 60,208.75 63.15,213 L66.35,217.2 Q67.8,219.95 71.6,224.2 75.55,228.45 76.85,228.45 80.1,228.45 80.1,226.55 80.25,224.7 77.8,222.85 74.8,220.55 74.3,219.85 L71.2,214.5 Q71.05,214.2 71.3,214.2 74,215 76.55,214.85 78.15,217.35 79.3,218.4 80.55,219.35 83.65,220.45 85,221 85.9,221.95 87.75,223.7 89.1,223.7 90.6,223.7 92.85,222.05 94.3,223.5 96.6,223.9 99.3,224.3 100.75,222.45 101.45,221.6 100.7,220.6 100.05,219.7 98.55,219.2 L95.8,218.1 95.85,217.95 Q98.05,215.15 96.7,210.85 98.45,206.9 97.7,200.65 97.5,198.9 96.1,199.65 94.85,200.35 92.2,203 90.1,201.2 86,200.15 85.4,195.6 84.1,193.6 82.55,191 78.5,189.2 70.4,172.05 52.35,169.95 L48.1,168.45 Q44.4,167.1 42.9,166.95 37.75,166.35 28.65,168.35 L20.4,168.7 Q18.55,168.4 17.25,167.7 13.15,165.55 11.8,158.3 11.25,155.25 11.25,150.3 11.35,147.8 9.45,147.95 7.65,148.2 7.2,149.9 5.7,156.75 8.15,162.9 10.25,168.05 14.3,170.95 16.9,172.75 20.4,173.35 24.8,173.95 30.5,172.45 M85.1,205.45 L82.35,203.8 Q80,202.55 78.65,201.65 77.55,204.4 77.4,208 77.4,208.35 77.15,208.35 L76.8,208.1 Q75.65,203.45 77.55,199.45 L77.65,199.25 77.85,199.3 Q79.6,199.45 85.65,204.55 L85.75,204.65 85.75,204.75 85.45,205.4 85.3,205.65 85.1,205.45 M86.1,215.6 L87,214.45 87.2,214.7 Q88.05,215.7 87.75,217.15 L87.7,217.3 87.55,217.35 87.25,217.35 Q86.5,217.35 85.4,216.65 84.3,215.8 84,214.9 L83.9,214.6 84.25,214.6 84.75,214.4 84.9,214.3 85.05,214.4 86.1,215.6 M96.5,214.45 L96.45,214.65 Q96.15,215.55 95.15,216.4 93.9,217.35 93.1,217.35 L92.9,217.35 92.85,217.15 Q92.65,215.75 93.25,214.6 L93.4,214.3 94.4,215.35 95.4,213.9 96.5,214.45Z"/></g></svg>