<?xml version="1.0" encoding="utf-8"?>
<!-- Generator: Adobe Illustrator 25.4.1, SVG Export Plug-In . SVG Version: 6.00 Build 0)  -->
<svg version="1.1" id="Blacksmith_x2C_PerkClip_x5F_4b253" image-rendering="auto"
	 xmlns="http://www.w3.org/2000/svg" xmlns:xlink="http://www.w3.org/1999/xlink" x="0px" y="0px" viewBox="0 0 240 240"
	 style="enable-background:new 0 0 240 240;" xml:space="preserve">
<style type="text/css">
	.st0{fill:#FFFFFF;}
</style>
<g>
	<rect width="240" height="240"/>
	<path class="st0" d="M144.2,172.6l-3.7,1.8l0.2,37.9l3.7-1.5L144.2,172.6 M136.2,176.4l-0.7,0.1h-0.2l0.2,34.2l3.7,1.5l-0.2-37.2
		L136.2,176.4 M117.6,124.8c0-0.2,0-0.4,0.1-0.5l0.3-1.2c-1.4,0.6-3,1.1-4.7,1.4l-3.2,0.3l4.8,0.8L117.6,124.8 M85.8,113.2
		c-0.2,0.6-0.3,1.2-0.3,1.8c2.8,2.6,6.1,5,10.1,7.2l4.9,0.9l-0.1-0.1C95,120.9,90.1,117.7,85.8,113.2 M145.1,130.9l-2-2.1l-0.1,1.6
		L145.1,130.9 M123.8,129.2l-0.2,0.2c-0.4,0.1-0.8,0.3-1,0.5c-0.2,0.4,0,0.7,0.7,0.9l1.2,0.2c1.2,0.3,2.1,0.6,2.6,0.9l1.5,0.6
		c0.6-0.1,0.9-0.5,0.9-1.2c-0.1-0.1-0.2-0.4-0.3-0.7c-0.1-0.3-0.1-0.6,0-0.8l0.6-0.8l-6.2-1L123.8,129.2 M134.1,135.4l-1.6-0.2
		c-0.8,0.1-1,0.4-0.8,0.8l1.3,2.1c0.1-0.6,0.3-1,0.7-1.2l1.5-0.1c0.5,0.2,0.8,0.8,1.1,1.6l30.4-2.8l-23.4-4.1l-0.1-0.1l-0.9-0.1
		c-0.1-0.1-0.2-0.1-0.2-0.1l-5.2-0.9l-0.3,0.9C135.9,133.1,135.1,134.4,134.1,135.4L134.1,135.4 M136.6,127.2
		c-1.3,0.4-2.5,0.9-3.5,1.5c-0.5,0.2-0.9,0.4-1.3,0.8c-0.7,0.5-1.3,1-1.8,1.6c0.3,0.7,0.4,1.3,0.3,1.8c-0.1,0.7-0.4,1.1-0.9,1.2
		l-1.1,0.1l-0.4-0.1l-0.1-0.1l-3.1-1.3h-0.1l-1.6-0.2c-0.6-0.2-1-0.6-1.2-1.1c-0.4-0.9-0.5-1.7-0.2-2.4c0.1-0.3,0.3-0.6,0.7-0.8
		c0.3-0.2,0.5-0.2,0.6,0l-0.2-1.2c-0.2-1.1-0.7-2.2-1.4-3.3l-1.6-2.2l-0.4,0.9c-0.3,0.6-0.6,1.3-0.8,2l-0.2,0.5l-0.3,1.3l-0.2,2.5
		c0.9,0.2,1.5,0.9,1.8,2.1c0.2,0.9,0,1.6-0.8,2.1l-2.3,1l-2.2,1.6h0l-0.2,0.1l-1,0.3h-0.3c-0.5-0.1-0.8-0.4-1.1-0.9
		c-0.3-0.8-0.4-1.5-0.4-2.1c-0.8-0.6-2.2-1.1-4-1.7l-3.3-0.8c1,2.6,2.3,4.6,3.9,5.8h0.9c0.5-0.2,0.8-0.3,1-0.3c0.6,0,1,0.5,1.4,1.5
		c0.2,0.5,0.2,1.1,0.1,1.6l-0.5,1.6l-0.3,1.9v0.3l-0.4,1.2l-0.6,0.7c-0.4,0.4-0.9,0.4-1.4,0.1c-0.4-0.3-0.8-0.8-1.1-1.4
		c-1.1,0-2.3,0.4-3.6,0.9c-1.1,0.5-2.2,1.2-3.3,1.9c2.9,1.3,5.3,1.7,7.2,1.4v-0.1l0.2-0.6c0.4-0.7,0.9-1.1,1.4-1.1
		c0.7,0.1,1.2,0.5,1.7,1.2l0.8,2.1l0.5,0.8l-0.2-0.1l0.7,1.3c0.2,0.5,0.2,1,0.2,1.6c-0.1,0.7-0.7,1.1-1.7,1.1l0.1,0.1l-0.8-0.2
		c-1.4,1.3-2.4,3.5-3.1,6.5l4.7-2.5c0.8-0.5,1.5-1,1.9-1.5l-0.2-0.5l-0.2-0.2c-0.4-1.4-0.1-2.2,0.9-2.4c0.5-0.1,1.3,0.1,2.2,0.6
		c1.2,0.7,2,1,2.3,1.1l1.8,0.2c0.6,0.1,1,0.5,1.2,1c0.4,0.8,0.5,1.5,0.2,2.1h0.1l-0.1,0.4l-0.7,0.8c-0.4,0.2-0.6,0.2-0.6,0.1
		c0.1,1,0.5,2.2,1.2,3.5c0.6,1.2,1.3,2.3,2.1,3.4c0.2-0.1,0.5-1.1,1-2.9c0.5-1.8,0.8-3.3,0.9-4.4l-0.2-0.1h-0.1
		c-0.3-0.2-0.6-0.4-0.8-0.7c-0.3-0.3-0.5-0.8-0.7-1.4c-0.2-0.9,0-1.6,0.8-2.1l2.3-0.9l2.5-1.9c1.1-0.7,1.9-0.5,2.4,0.5
		c0.3,0.7,0.4,1.5,0.4,2.2l2.1,1l-0.1,0.1l5.1,1.5l-0.4-1.2l-0.9-1.5l-0.7-0.9l0.2-0.2c-1.2-1.8-1.9-2.6-2.1-2.4
		c-0.5,0.5-1.1,0.6-1.8,0.4c-0.6-0.1-1-0.5-1.3-1.2c-0.3-0.7-0.2-1.7,0.3-2.9l0.8-2.2h0.1l0.4,0.8l0.1,0.3c0,0.5,0.4,0.7,1,0.6
		c0.6-0.1,0.9-0.3,1.1-0.7c0.1-0.2,0.2-0.6,0.1-1v-0.2c0-0.1,0-0.2,0.1-0.2h0.1c0.2-1.4,0.2-2.7-0.1-3.9l-0.1-0.4
		c-0.3,0-0.5-0.4-0.6-1.2l-0.2-0.4l-1.2-0.1c-0.6,0.3-0.8,0.7-0.8,1.2v0.4l-0.2,0.1h-0.1l-0.3-0.5l-1.4-2.3
		c-0.6-0.9-0.9-1.8-0.7-2.5c0.1-0.7,0.4-1.1,1-1.3c0.6-0.3,1.2-0.2,1.8,0.1c0.2,0.1,0.7-0.6,1.3-2.1l0.6-1.4L136.6,127.2
		 M122.8,115.7c3.2-4.3,5.8-9.5,7.8-15.6l-1.4-0.5c-2,6-4.5,11-7.5,15.2c-3,4.6-7.6,7.7-13.9,9.1l5.4-0.2l2.9-1.6
		C118.8,120.4,121.1,118.2,122.8,115.7 M124.6,120.2c4.9-4.6,9-10.7,12.1-18.3l-1.3-0.3c-3.2,7.3-7.1,13.1-11.7,17.6l-2.7,2.3
		l0.8,1.2C122.7,122,123.7,121.1,124.6,120.2 M19.3,170.9c-3.3,0-6-0.5-8.3-1.6l-2-1.3v2.4c0,1.1,1,2,2.9,2.9c2.1,1,4.6,1.4,7.4,1.4
		l4.6-0.5v-3.7L19.3,170.9 M30,150.4h0.2l37.6,6.6h0.1l55.8,9.8c-0.9-1.3-1.6-2.5-2.2-3.8c-0.9-1.9-1.4-3.6-1.3-5.1l0.1-0.2l1-0.6
		c0.3-0.3,0.1-0.6-0.7-0.8l-1.3-0.2c-1.1-0.3-1.9-0.7-2.5-1c-0.5-0.4-1.1-0.6-1.8-0.6l-0.6,1.1l0.4,0.7c0.1,0.4,0.1,0.7,0,0.8
		c-0.5,0.6-1.1,1.1-2,1.7l-4.1,2.2c-1,0.5-1.6,0.6-1.9,0.5c-0.1-0.1-0.3-0.4-0.4-0.7l-0.1-0.8c0.7-4.1,1.9-6.9,3.5-8.4
		c0-0.1,0.1-0.1,0.2-0.1l1.1,0.4c0.5,0,0.8-0.1,1-0.4c0.2-0.3,0.1-0.7-0.1-1.2l-0.7-1.1l-0.2-0.5c-0.3-0.7-0.6-1.1-0.8-1.4
		c-0.4-0.4-0.8-0.5-1.3-0.2c-0.6,0.3-0.8,0.8-0.8,1.4l-0.2,0.2l-3.2-0.2l-4.3-1.3c-0.5-0.2-0.9-0.4-1.2-0.7c-0.1,0.1-0.2,0-0.3-0.3
		l-0.2-0.6c0-0.3,0-0.5,0.1-0.6h-0.1c1.2-1,2.5-1.9,3.9-2.5c1.7-0.9,3.2-1.3,4.4-1.3c0.3,0,0.4,0.2,0.5,0.7c0.2,0.7,0.6,1,1.3,0.8
		c0.7-0.2,1-0.7,1.1-1.3c0.1-0.8,0.3-1.5,0.5-2.1c0.2-0.3,0.3-0.7,0.4-1.4c0.2-0.8-0.1-1.2-0.7-1c-0.5,0.1-0.9,0.3-1.2,0.6l-0.1,0.1
		c-2-1.3-3.7-3.8-5.2-7.6l-0.2-0.6c-0.1-0.7-0.1-1,0-1l2.3,0.2l4.4,1.5c0.8,0.4,1.4,0.8,1.9,1.2l0.4,0.8c0.1,0.3,0.1,0.6,0,0.8
		c-0.3,0.6-0.2,0.8,0.4,0.8c0.6,0,1-0.1,1.4-0.4c1-0.8,1.7-1.3,2.1-1.4l1.5-0.6c0.7-0.2,1.1-0.5,1.2-0.7c0.1-0.3,0-0.5-0.3-0.7
		l-0.7-0.1c-0.2,0-0.4-0.4-0.6-0.9c-0.1-0.7-0.2-1.4-0.2-2.2l-39.8-7.1l-59.1,28.5L30,150.4 M80.9,131v-0.6c0.1-0.3,0.2-0.5,0.2-0.5
		v-0.1c1.5-0.5,3.1-0.8,4.6-0.8c1.9-0.1,3.4,0.1,4.6,0.6c0.2,0.1,0.2,0.4,0.2,0.9c-0.1,0.7,0.2,1,0.8,1.1v0c0.3-0.4,0.5-0.3,0.6,0.5
		c0.1,0.9-0.1,1.8-0.3,2.7c-0.3,1-0.7,1.3-1.1,0.9l-0.6-0.1c-0.6,0.1-1,0.4-1.3,0.9l-0.2,0.2c-0.9-0.2-1.9-0.7-3-1.5l-3.4-2.9
		l-0.8-0.9C81,131.5,80.9,131.3,80.9,131 M65.2,140.1c0-0.1,0.1-0.2,0.2-0.2c0.9-0.1,2,0.1,3.3,0.5l3,1.4c0.3,0.1,0.7,0.3,1.2,0.5
		s0.8,0.5,1,0.8c0.1,0,0.2,0.1,0.3,0.4l0,0.6l0,0.6v0.1c-1.3,0.8-2.7,1.5-4.2,2.1c-1.7,0.6-3.2,0.9-4.6,0.7c-0.1,0-0.2-0.3-0.3-0.8
		c-0.1-0.6-0.5-0.9-1.1-0.9c-0.3,0.4-0.5,0.3-0.8-0.3c-0.3-0.8-0.5-1.7-0.5-2.6c0-1,0.3-1.5,0.9-1.3h0.5
		C64.8,141.1,65.1,140.7,65.2,140.1 M77.3,142.3c-0.2,0.1-0.3-0.2-0.5-0.9c-0.1-0.3-0.1-0.5,0.1-0.5v-0.1c1.2-1,2.5-1.8,3.9-2.6
		c1.7-0.8,3.1-1.2,4.3-1.2c0.1,0,0.3,0.2,0.4,0.8c0.2,0.6,0.6,0.9,1.3,0.8c0.2-0.5,0.4-0.4,0.7,0.2c0.4,0.8,0.6,1.6,0.8,2.5
		c0.1,1.1-0.2,1.5-0.7,1.4l-0.5,0.2c-0.6,0.3-0.9,0.8-0.9,1.3c0,0.2,0,0.3-0.2,0.3l-3.2-0.1l-4.4-1.4
		C78,142.8,77.6,142.5,77.3,142.3 M86.8,140.1h-0.1c-0.5-0.2-0.9-0.7-1.3-1.5c-2,0-4.3,1-7,2.8c3,1.3,5.3,1.7,7.2,1.4v-0.1l0.2-0.6
		l0.2-0.5c0.3-0.3,0.6-0.5,0.9-0.5v-0.1L86.8,140.1 M65.7,141.4v0.2l-0.3,0.7l-0.2,0.3l-0.9,0.5l0,1c0.5,0.2,0.9,0.7,1.2,1.6
		c2.1,0.2,4.5-0.5,7.2-2C70,142.1,67.7,141.3,65.7,141.4 M90,131.9l-0.1-0.7c-1-0.4-2.2-0.6-3.6-0.6l-3.9,0.6c2.2,2.2,4.2,3.6,6,4
		l0.2-0.1l0.4-0.6l0.9-0.5h0.4l0.2-0.9v0C90.3,132.8,90.1,132.4,90,131.9 M38.5,171.1c-1.2-0.4-2.2-0.7-2.9-1.1v3.5
		c0.7,0.5,1.7,0.9,3.2,1.3c3.1,1,7,1.5,11.5,1.5c4.5,0,8.3-0.5,11.5-1.5c2.8-0.9,4.2-1.8,4.2-2.8v-2.8c-0.9,0.7-2.3,1.3-4,1.8
		c-3.3,1-7.2,1.5-11.7,1.5C45.7,172.6,41.8,172.1,38.5,171.1 M36.2,172.7v-1.4c1.3,0.7,3.2,1.2,5.5,1.6v1.2
		C39.5,173.8,37.7,173.3,36.2,172.7 M63.9,171.2v1.4c-1.5,0.6-3.2,1.1-5.2,1.4v-1.2C60.9,172.5,62.6,171.9,63.9,171.2 M50,174.9
		l-6.2-0.4v-1.3l6.2,0.4l6.5-0.4v1.3L50,174.9 M35.6,168.4c0.7,0.5,1.7,0.9,3.2,1.3c3.1,1,7,1.4,11.5,1.4c4.5,0,8.3-0.5,11.5-1.4
		c2.8-0.9,4.2-1.8,4.2-2.8v-2.8l-30.4-5.3V168.4 M29,157.8l-3.7-0.6v34.8l3.7,0.8V157.8 M34.1,158.6l-3.6-0.7v34.8l3.6-1.8V158.6
		 M19.3,143.1c-3.3,0-6-0.6-8.3-1.7c-0.8-0.4-1.5-0.8-2-1.3v25.1c0,1.1,1,2,2.9,2.9c2.1,0.9,4.6,1.3,7.4,1.3l4.6-0.4v-12.2l-7.4-1.3
		c-0.4-0.1-0.6-0.3-0.6-0.6v-6.9l13.7-6.4v-1.6c-0.5,0.4-1.2,0.8-2,1.2C25.4,142.5,22.6,143.1,19.3,143.1 M11.9,140.2
		c2.1,0.9,4.6,1.3,7.4,1.3c2.9,0,5.4-0.4,7.5-1.3c1.9-0.9,2.9-1.9,2.9-2.9v-2.5l-2,1.2c-2.3,1.1-5,1.7-8.4,1.7c-3.3,0-6-0.6-8.3-1.7
		l-2-1.2v2.5C9,138.4,9.9,139.3,11.9,140.2 M60,127.2v-1l-0.1,1.1L60,127.2 M55.3,105.1c-0.2-0.5-0.6-1-1.3-1.4
		c-0.5-0.3-1.2-0.5-2-0.6v1.6c0,0.7-0.7,1-2,1c-1.2,0-1.9-0.3-2-0.8v-1.6h-1.2l0.1,0.2c-1,0.4-1.6,0.9-1.9,1.6l0,0.3
		c0,0.6,0.5,1.2,1.5,1.7c1,0.6,2.3,0.9,3.8,0.9s2.7-0.3,3.7-0.9c1-0.5,1.5-1,1.5-1.7L55.3,105.1 M61.8,120.7
		c2.2-0.6,3.6-1.4,4.2-2.2v-4c0-2-0.9-3.8-2.8-5.4c-1.6-1.4-3.8-2.5-6.4-3.2c-0.2,1-0.8,1.8-1.8,2.5c-1.3,0.8-2.9,1.1-4.8,1.1
		c-1.8,0-3.4-0.4-4.7-1.1c-1.1-0.7-1.8-1.5-1.9-2.5c-2.6,0.7-4.7,1.8-6.4,3.2c-1.8,1.6-2.8,3.4-2.8,5.4v4c0.6,0.8,1.9,1.6,4,2.2
		c3.1,1,7,1.5,11.7,1.5C54.9,122.2,58.7,121.7,61.8,120.7 M64.1,125.2l1.2-0.6l-0.9-0.1C64.2,124.7,64.1,124.9,64.1,125.2
		 M64.2,122.5l1.1-0.5v2.6l0.7-0.3v-4.8c-0.9,0.7-2.4,1.4-4.2,2c-3.3,0.9-7.1,1.3-11.5,1.3s-8.2-0.4-11.5-1.3
		c-1.9-0.6-3.3-1.3-4.2-2v19.9l12.8-6.1v-8.3l1.7,0.2v6.5H50v0.3l3-1.3l0-1.3c0-1.2,0.2-2.2,0.5-3c0.4-1,0.9-1.5,1.8-1.6
		c0.4,0,0.8,0.1,1.2,0.5c0.3,0.3,0.6,0.8,0.8,1.3l-1.5,1.1c-0.1-0.6-0.3-0.9-0.5-0.9c-0.5,0.1-0.7,1-0.7,2.7l0,0.4l0.5-0.3v-1.1
		l2.2-0.2l0,0.2l1.1-0.5l0.6-3.6l1.9-0.4l0.3,2.6l1.3-0.5c0-0.6,0.1-1.2,0.4-1.8C63.2,123.5,63.7,122.9,64.2,122.5 M46.3,124.8v2.1
		l-1.3-0.1v1.2l1.2,0.1v2L45,130v1.3l1.3,0.1v2l-2.9-0.3v-8.5L46.3,124.8 M41,124.2l1.5,0.2v5.6c0,2.1-0.7,3-2,2.8
		c-1.3-0.3-2-1.5-2-3.7v-5.5l1.6,0.3l0,6.1c0,0.3,0.1,0.5,0.3,0.5l0.4-0.3L41,124.2 M35,121.5c0.2,0.5,0.7,0.9,1.2,1.2l1.5,0.6v2
		l-1.2-0.5v1.2l1.2,0.4v2.1l-1.2-0.4v3.2c-0.8-0.4-1.3-0.9-1.5-1.3V121.5 M62.8,99.8c-0.2,0.2-0.4,0.3-0.6,0.3l-2.2,0.1
		c-0.3,0.4-0.8,0.7-1.2,0.7h0c-0.5,0-1-0.2-1.3-0.5l-2.5,0.2c-0.2,0-0.4-0.1-0.6-0.2c0.2,0.8,0.7,1.5,1.3,2.1c0.9,0.8,1.9,1.1,3,1.1
		l2.1-0.4l0.4-0.2l1.3,1.9c0.1,0.2,0.2,0.2,0.4,0.2l0.2-0.2c0.2-0.1,0.2-0.2,0.1-0.4l-1.2-2l0.2-0.3c0.6-0.7,1-1.5,1.2-2.3
		L62.8,99.8 M71.1,107.4c0.8,0.7,1.5,1.9,1.9,3.6l1.1,4.4c0.2,1.6,0.8,3,1.7,4.2l1.4-0.7c-0.9-1.1-1.5-2.4-1.7-3.9l-1-4.5
		c-0.5-1.8-1.3-3.3-2.5-4.4c-1.1-0.8-2.7-1.3-4.8-1.2l-3-0.1l-0.9,0.9v0.1c1.1,0.5,2.4,0.8,3.9,0.7C69,106.4,70.3,106.7,71.1,107.4
		 M59.5,98.8c-0.2-0.4-0.5-0.6-0.8-0.6c-0.5,0.1-0.8,0.3-1,0.7l-0.1,0.2l-2.8,0.1c-0.2,0.1-0.2,0.2-0.2,0.3c0,0.2,0.1,0.3,0.2,0.3
		l3-0.1l0.1,0.2c0.2,0.2,0.5,0.3,0.9,0.3c0.3,0,0.6-0.2,0.8-0.4l0.1-0.1l2.6-0.2c0.2,0,0.3-0.1,0.3-0.3c0-0.2-0.1-0.3-0.3-0.3
		l-2.6,0.1L59.5,98.8 M58,91.4l0.8-0.5c0.4-0.4,0.6-0.8,0.6-1.3c0-0.5-0.1-1-0.5-1.4c-0.4-0.4-0.8-0.6-1.4-0.6s-1,0.2-1.4,0.5
		c-0.4,0.4-0.6,0.8-0.6,1.3c0,0.6,0.1,1.1,0.5,1.4c0.3,0.3,0.7,0.5,1.2,0.6h0.5l0.3,2.9l-0.5,0.1c-0.8,0.2-1.5,0.5-2.1,1.1
		c-0.6,0.5-1,1.1-1.3,1.9L54,97.9h-3v-2.6h-1.9v5.6l-0.8-0.3l-0.5-0.2h-2c-0.4,0-0.7,0.2-0.8,0.5l-0.2,0.4h-2l-0.1,0.1l0.1,0.1h2.1
		l0.1,0.2c0.2,0.3,0.5,0.4,0.8,0.4h2l0.5-0.1l0.8-0.6v2.9l1,0.1l0.9-0.1v-5.9h3v0.2l0-0.1c0.2-0.2,0.4-0.3,0.8-0.4l2.4-0.1
		c0.3-0.5,0.8-0.8,1.5-0.9h0.1c0.5,0,1,0.2,1.3,0.8l2.1-0.1c0.3,0,0.5,0.1,0.7,0.2l0.2,0.4c-0.1-1.2-0.5-2.2-1.3-3l-0.3-0.4l1.8-2.2
		l0.3,0.2l0.6,0.1c0.5,0,1-0.2,1.3-0.5c0.4-0.4,0.7-0.9,0.7-1.4c0-0.6-0.2-1-0.7-1.4c-0.3-0.4-0.8-0.6-1.3-0.6c-0.5,0-1,0.2-1.4,0.6
		c-0.4,0.4-0.6,0.9-0.6,1.4c0,0.4,0.2,0.8,0.5,1.2l0.2,0.4l-1.6,2.1l-0.4-0.2c-0.6-0.3-1.2-0.5-2-0.6h-0.4L58,91.4 M47,93.5
		c0.8,0.3,1.7,0.4,2.8,0.4l2.8-0.4c0.7-0.2,1-0.5,1-0.7c0-0.2-0.3-0.5-1-0.7c-0.8-0.3-1.8-0.5-2.8-0.5c-1.1,0-2,0.1-2.8,0.5
		c-0.7,0.2-1,0.5-1,0.7S46.4,93.3,47,93.5 M19.3,75.3c-1.7,0-3.2-0.3-4.4-0.9c-0.8-0.5-1.4-1-1.8-1.6c-1.2,0.8-2.2,1.9-2.9,3.1
		c-0.9,1.4-1.3,3-1.3,4.6v51.8c0,0.5,0.2,0.9,0.7,1.4c0.5,0.5,1.3,1,2.2,1.4c2.1,0.9,4.6,1.3,7.4,1.3c2.9,0,5.4-0.4,7.5-1.3
		c1.9-0.9,2.9-1.8,2.9-2.9V80.4c0-1.7-0.4-3.2-1.2-4.6c-0.7-1.2-1.7-2.2-2.9-3.1c-0.3,0.6-0.9,1.2-1.8,1.6
		C22.5,75,21,75.3,19.3,75.3 M17.5,88.9c0.4-0.5,1-0.7,1.8-0.7c0.7,0,1.3,0.3,1.8,0.9c0.3,0.5,0.5,1.1,0.5,1.9
		c0,0.8-0.2,1.5-0.5,2.1c-0.4,0.8-1,1.1-1.8,1.1c-0.7,0-1.3-0.4-1.8-1.2c-0.3-0.7-0.4-1.4-0.4-2.3C17.1,90,17.3,89.4,17.5,88.9
		 M19,95.9l0.3,1.4l0.4-1.4l1.8-0.2l-1.3,3.1l1.4,2.8l-1.7,0.2l-0.6-1.6l-0.2,0.7l-0.4,0.9l-0.9-0.1c-0.3,0-0.6-0.2-0.8-0.4
		c0.3-0.2,0.6-0.5,0.8-1.1l0.6-1.4c-0.8-1.7-1.2-2.8-1.3-3.2c0.2,0.1,0.5,0.2,0.9,0.3L19,95.9 M20.6,120.8v1.3l-1.1,0.1v0.8l1.3,0
		v1.4l-2.9-0.1v-5.8c0.9,0.2,1.9,0.2,2.9,0v1.4l-1.3,0.1v0.8L20.6,120.8 M21.5,113.3l0.1,0.2c0,2.3-0.7,3.4-2.1,3.4
		c-0.8,0-1.4-0.4-1.8-1.2c-0.3-0.6-0.5-1.3-0.5-2.2c0-1.7,0.8-2.6,2.2-2.6c0.9,0.1,1.6,0.4,2,1.1c-0.3,0.2-0.8,0.5-1.5,0.8l-0.1-0.3
		c-0.1-0.2-0.2-0.3-0.3-0.2c-0.5,0-0.8,0.6-0.8,1.7l0.1,0.9c0.1,0.3,0.2,0.5,0.4,0.5c0.4,0,0.6-0.3,0.6-0.8h-0.6v-1.2L21.5,113.3
		 M17.1,103.1l0.8,0.2l0.8,0.1l0.6,1.9l0.6-1.8l1.6-0.2l-1.3,3.6v2.4h-1.6v-2.5C17.9,105.3,17.4,104.1,17.1,103.1 M19.9,132.1
		l-1.1-3.3l0.1,3.3l-1.5-0.4v-5.7l1.4,0.2l1.3,3.5l-0.1-3.5l1.5-0.2v5.8L19.9,132.1 M19.3,89.7c-0.4,0-0.6,0.5-0.6,1.6
		s0.2,1.6,0.6,1.6c0.4,0,0.6-0.5,0.6-1.6S19.7,89.7,19.3,89.7 M23.4,69.8c-0.6-0.4-1.2-0.6-2-0.8v1.6c0,0.7-0.7,1-2.1,1
		c-1.2,0-1.8-0.3-2-0.8v-1.8c-0.9,0.2-1.6,0.5-2.1,0.8c-0.7,0.4-1,0.9-1,1.5v0.2c0.1,0.6,0.6,1.1,1.6,1.6c1,0.5,2.2,0.8,3.6,0.8
		c1.4,0,2.6-0.3,3.6-0.8c0.9-0.5,1.5-1,1.6-1.6v-0.2C24.5,70.8,24.1,70.3,23.4,69.8 M40.3,56.5l-0.1,0.6l11.5-0.6
		c4.9,0.1,8.6,1.4,11.1,3.9c2.1,2.4,3.6,6.1,4.5,11.3c1.3,7.1,2.1,11.3,2.6,12.7c2.6,9.4,5.9,17.3,10.1,23.6c1,1.6,2.1,3.2,3.5,4.7
		l0.3-1.8h0.1v-0.2l0.1-0.1l-2.6-3.4c-4.3-6.3-7.6-14.1-10-23.3c-1.1-4.3-1.9-8.4-2.5-12.4c-0.4-2.6-0.9-4.8-1.4-6.4
		c-0.8-2.3-1.9-4.2-3.3-5.8c-3-2.8-7.1-4.2-12.2-4.3l-11.5,0.6l0.1,0.4V56.5 M33.1,48.2c-0.6-0.3-1.3-0.4-2.1-0.4
		c-0.8,0-1.6,0.1-2.2,0.4c-0.6,0.3-0.9,0.6-0.9,0.9c0,0.4,0.3,0.8,0.9,1.1c0.6,0.3,1.2,0.4,2,0.4h0.5c0.8-0.1,1.4-0.2,2-0.5
		c0.5-0.3,0.7-0.6,0.7-1C34,48.8,33.7,48.5,33.1,48.2 M19.3,48.2l-0.9-0.1v4L18,52.2c-1.5,0.5-2.5,1.4-3,2.9l-0.1,0.4H9.4v-0.9H7.2
		c-0.4,0-0.8,0.2-1.1,0.5S5.7,56,5.7,56.4v0.2c0,0.5,0.1,0.9,0.4,1.1c0.3,0.3,0.7,0.5,1.1,0.5h2.2v-0.7h5.4l0.1,0.4
		c0.2,0.8,0.6,1.4,1.1,2c0.5,0.5,1.2,0.9,2,1.1l0.4,0.1v9.3h1.9v-9.3l0.4-0.1c0.7-0.2,1.4-0.6,1.9-1.1c0.5-0.6,0.9-1.2,1.1-2
		l0.1-0.4H28l0.1,0.4c0.3,0.6,0.6,1.1,1.1,1.4c0.5,0.3,1.1,0.5,1.8,0.5c0.7,0,1.2-0.2,1.8-0.5c0.5-0.4,0.9-0.8,1.2-1.4l0.1-0.4h2
		l0.3-0.2l0.2-0.4h2.4l0.3-0.3v-0.4c0-0.2-0.1-0.3-0.3-0.3h-2.4L36,55.6h-2l-0.2-0.4c-0.5-1-1.2-1.5-2.2-1.7l-0.5-0.1v-1.8h-0.4v1.8
		l-0.4,0.1c-1,0.2-1.8,0.7-2.3,1.7l-0.1,0.4h-4.4l-0.1-0.4c-0.5-1.5-1.5-2.4-2.9-2.9l-0.4-0.1v-4.1L19.3,48.2 M31.2,54.6
		c0.6,0,1.2,0.2,1.6,0.6c0.4,0.5,0.7,1,0.7,1.7c0,0.7-0.2,1.2-0.7,1.7c-0.5,0.5-1,0.7-1.6,0.7c-0.7,0-1.3-0.2-1.8-0.7
		c-0.5-0.4-0.7-1-0.7-1.7c0-0.7,0.2-1.2,0.7-1.7C29.9,54.8,30.5,54.6,31.2,54.6 M22.8,57c0,1-0.4,1.9-1,2.6s-1.5,1-2.5,1.1
		c-1,0-1.9-0.4-2.6-1.1c-0.7-0.7-1-1.6-1-2.6c0-1,0.3-1.8,1-2.6c0.7-0.7,1.6-1,2.6-1c1,0,1.8,0.3,2.5,1C22.4,55.2,22.8,56,22.8,57
		 M21,58.8c0.5-0.5,0.7-1.1,0.7-1.8c0-0.7-0.2-1.3-0.7-1.8c-0.5-0.5-1.1-0.8-1.8-0.8c-0.7,0-1.3,0.3-1.8,0.8s-0.8,1.1-0.8,1.8
		c0,0.7,0.2,1.3,0.8,1.8c0.5,0.5,1.1,0.8,1.8,0.8C19.9,59.6,20.5,59.3,21,58.8 M32.5,56.9c0-0.3-0.1-0.6-0.4-0.9
		c-0.3-0.3-0.6-0.4-0.9-0.4c-0.4,0-0.7,0.1-1,0.4c-0.3,0.3-0.4,0.6-0.4,0.9c0,0.4,0.1,0.7,0.4,0.9c0.3,0.3,0.6,0.4,1,0.4
		c0.3,0,0.6-0.1,0.9-0.4C32.3,57.6,32.5,57.3,32.5,56.9 M16.9,46.5l1.4,0.5l2.5-0.1l0.5-0.1c0.8-0.3,1.1-0.7,1.1-1.2
		c0-0.3-0.3-0.7-0.9-1c-0.6-0.3-1.3-0.5-2.2-0.5c-0.8,0-1.5,0.2-2.1,0.5c-0.6,0.3-0.9,0.6-0.9,1C16.3,45.9,16.5,46.2,16.9,46.5
		 M141.9,78.4l1.4,0.2l0.2-1.4l-1.2-3.1L141.9,78.4 M135.9,57.4l0,0.6l-0.1,4.5c-0.3,4.5-0.8,9.6-1.7,15.4h1.4
		c0.9-5.7,1.4-10.8,1.6-15.2l0.1-4.9l-0.5-0.2L135.9,57.4 M136.6,53.2l-0.6-1.2c-0.3-0.5-0.6-0.8-1.1-1.1c-0.9-0.4-1.8-0.2-2.8,0.6
		c-0.7,0.5-1.6,1.6-2.8,3.1c0.3,0.1,0.7,0.3,1.1,0.7c1-1.2,1.8-2.1,2.4-2.6c1.3-0.9,2.1-0.6,2.4,0.9l0.2,1l1.4,0.1L136.6,53.2
		 M137.8,55.6l-0.7-0.2l-1.5-0.1l-0.7,0.1c-1.1,0.1-2.3,0.4-3.5,0.9l0.5,1.4c1.2-0.5,2.2-0.8,3.2-0.8l0.7-0.1l1.1,0.1l1.1,0.4
		l0.6,0.4v-0.3l0.2-1.3C138.5,55.9,138.2,55.7,137.8,55.6 M142.4,59.3l0.5-1.8c-0.6,0-1.2-0.2-1.8-0.6l-0.3-0.2h-0.3
		c-0.2,0-0.3,0.1-0.4,0.3c-0.1,0.2-0.2,0.4-0.2,0.8c0,0.5,0.1,1.1,0.3,1.8l0.8,1.2L142.4,59.3 M156.6,55.1c-1.1,0-2.4,0.1-4.1,0.6
		l-3.7,0.9c0.1,0.7,0.2,1.1,0.4,1.3l5.4-1.1h0c0.9-0.1,1.5-0.4,1.7-0.9L156.6,55.1 M82.2,97.9l-0.3,0.5l-0.2,0.1l0,0.1
		c-0.3,0.5-0.4,1.2-0.4,2.1v0.1c0,0.5,0,1.4,0.2,2.9l0.4,1.8v0.1c0.2,0.7,0.3,1.2,0.3,1.5v0.2c0,0.2,0.1,0.3,0.2,0.5l0.4,0.4
		l0.5-0.1l0.4-0.4l0.3-1.2v-0.1l0.1-0.1l0.1,0.1v0.3l0.1,0.1c0.1,1.3-0.1,2.8-0.5,4.2l0,0.1h0l0,0.1c-0.1,0.6-0.2,1.2-0.2,1.9v1.3
		l0.2,1.2l0.3,0.4v-0.1l0.6,0.2l0.4-0.2l0.2-0.4l0-0.6l0.7-2.8c0.1-0.6,0.4-1.2,0.8-1.8l1.2-2.1v0c0.6-1.1,0.9-2.3,0.8-3.8v-0.1h0.1
		l0.2,0.1c0.2,0.5,0.4,1.2,0.5,2.1c0,0.1,0,0.3,0.2,0.4c0.1,0.1,0.2,0.2,0.4,0.2l0.5-0.1l0.3-0.4l0.5-1.2c0.4-1,0.6-2,0.6-2.9l0-0.8
		l-0.2-1.5c-0.1-0.7-0.3-1.3-0.6-1.8v-0.1l-0.7-1h-0.1c-0.1-0.2-0.2-0.3-0.3-0.2l-0.6,0.1c-0.2,0.1-0.3,0.2-0.3,0.3v0.1
		c-0.1,0.2-0.2,0.4-0.2,0.6v0.1l-0.6,1.4c-0.5,0.8-1.2,1.2-2,1c-0.8-0.2-1.3-0.7-1.5-1.5L85,99.2l-0.1-2l-0.2-0.4v-0.1l-0.3-0.2
		l-0.6,0.1C83.2,96.9,82.6,97.3,82.2,97.9 M83.7,104.1L83.7,104.1L83.7,104.1L83.7,104.1L83.7,104.1 M90.6,84.6
		c-1,0.8-1.7,1.4-2.1,1.9c-0.6,1-1.1,2.1-1.3,3.4L86,99.4c0,0.4,0.2,0.6,0.6,0.6c0.4,0,0.8-0.1,1.2-0.3l1.8-5.8
		c0.1-0.4,0.2-0.8,0.4-1.2l2.6-3.8l1.4-1.4c-0.2-0.9-0.6-1.7-1.2-2.2C92.1,84.5,91.4,84.3,90.6,84.6 M93.8,80.9
		c-1.3,0.9-2.2,1.8-2.6,2.8l0,0.1c0.9-0.1,1.6,0.2,2.3,0.9c0.5,0.6,0.8,1.4,1.1,2.3l1.8-0.6c0.6-0.2,1.2-0.6,1.7-1l1.1-0.8
		c0.4-0.4,0.6-0.8,0.7-1.2v-0.1c-0.3-1.9-1.4-3.1-3.2-3.5h-0.7C95.2,80,94.5,80.4,93.8,80.9 M120.6,70.3l0.5,2.2
		c0.3,1.5,0.2,2.9-0.2,3.9c-0.7,1.6-1.4,2.8-2.2,3.6c-1.2,1.1-2.4,1.4-3.6,0.7l-0.4-0.5l0,0.1l-2-0.2l-1.5-0.8
		c3.2,7.5,7.3,12.8,12.5,15.8c3.7,2.2,7.4,3.7,11,4.6c4.4,1,8.4,1,11.8-0.2h0.1l0.1-0.5c0-0.2,0.2-0.1,0.4,0.3
		c0.2,0.5,0.3,0.9,0.2,1.1l-2.3,16.7c2.3,2,4.7,3.5,7.2,4.6c0.6,0.2,0.9,0,0.9-0.5l-0.1-1.5l0.6-8.4c0.4-2.4,1-5.3,1.9-8.8l2.1-7.6
		l-2.3-1.3c-1.1-0.7-1.9-1.5-2.6-2.4c-1.1-1.7-1.7-3.5-1.8-5.4c-1-0.7-2-1.6-3-2.5c-1-1-1.8-2-2.5-3.1l-0.3,0.1
		c-5.4-1.1-11.2-1.2-17.4-0.4c1,0.9,1.9,1.4,2.8,1.4c0.2,0,0.4,0.3,0.5,0.8c0.2,0.5,0.2,0.8,0,0.9c-1.4,0.1-2.9-0.9-4.4-3l-0.1-0.2
		c-0.7-0.9-1.8-2.8-3.2-5.5C122.2,72.7,121.4,71.4,120.6,70.3 M112.4,73.9c-0.1,0.1-0.2,0-0.2-0.2c-1.2,0.1-2.2,0.2-3.1,0.5
		c-1.2,0.2-2,0.6-2.5,1c-0.2,0.2-0.2,0.5-0.2,0.9s0.3,0.8,0.6,1.1c0.1-0.1,0.1,0,0.1,0.1c0.2,0.3,0.5,0.5,0.8,0.6l2.1-0.1
		c0.3,0.1,0.7,0.2,1.2,0.5l1,0.6c1,0.6,1.8,0.8,2.5,0.6c0-0.3,0.1-0.4,0.2-0.4l0.3,0.1l0.8-0.8c0.8-1.2,1.1-2.6,0.8-4.4l0.2-0.4
		c0.1-0.2,0.2-0.2,0.2-0.2c0.2,1.2,0.1,2.4-0.2,3.6c-0.3,1-0.7,1.8-1.2,2.4c1.3,0.2,2.5-0.7,3.6-2.5c0.9-1.5,1.3-2.7,1.3-3.6
		l-0.4-2.1l-0.7-2l-0.1-0.2c-0.1-0.1-0.2-0.3-0.2-0.6L112.4,73.9 M119.9,64.6c-0.4-0.4-1-0.6-1.8-0.7l-0.1,0.2
		c-0.6,0.4-2.1,1.5-4.4,3.3l-4.1,3.1c-1.4,0.4-2.6,1.8-3.7,4.2l-0.1,0.4c-0.2,0.6-0.5,1-0.7,1.1c-0.2,0.2-0.6,0-1.1-0.6l-0.7-0.7
		c0,0.7-0.2,1-0.7,0.9l-0.4-0.2l-0.2,0.2l-4.6,3.4c1.5,0.5,2.4,1.6,2.7,3.3l0.7-0.6c0.2-0.2,0.5-0.4,0.8-0.5l4.6-3.7
		c-0.5-0.8-0.5-1.6-0.2-2.4c0.2-0.4,0.5-0.7,0.8-0.9c1.3-0.8,3.1-1.2,5.4-1.4l8.4-6.6C120.8,65.6,120.5,65,119.9,64.6 M117.9,62.8
		c-0.1,0.1,0,0.2,0.4,0.2l0.8,0.1c0.4,0.2,0.8,0.4,1.2,0.6c0.4,0.3,0.7,0.7,0.8,1.1l0.2,1.1c0.1,0.7,0.2,1,0.4,1l9-6.6
		c0.6-0.5,0.9-1.1,0.9-1.7l-0.1-0.8l-0.7-1.2l-0.6-0.6c-1-0.8-1.9-0.9-2.8-0.2L117.9,62.8 M109.1,65.5l-0.3,0.4
		c-1,0.2-1.9,0.6-2.9,1.2c-1,0.6-1.8,1.3-2.2,2.1c-0.2,0.4-0.3,0.8-0.4,1.3c-0.1,0.8-0.1,1.6,0.1,2.6l0.1,0.1c0.6,1.2,1.2,2,1.8,2.2
		c0.2,0.1,0.4-0.4,0.8-1.6c0.9-1.8,1.8-3.1,2.9-3.7l0.2-0.3l5.8-4.3c-5.4-2.8-9.4-3.4-12.2-1.8c-1.4,0.8-2.6,1.8-3.3,3.2
		c-1,1.7-1.1,3.2-0.2,4.4l0.7,0.7c-0.2-1.1-0.2-2.2,0.2-3.6c0.3-1,0.9-1.9,1.8-2.7c0.8-0.7,1.8-1.2,2.8-1.6v0.3l-0.3,0.5
		c-1,0.3-1.9,0.8-2.8,1.6c-0.8,0.8-1.3,1.8-1.4,2.8c0,0.9,0.1,1.8,0.3,2.6c0.3,1,0.8,1.7,1.5,2.2l1.2,0.6l-0.1-0.9
		c-0.8-1.7-0.6-3.4,0.5-5.1c1-1.9,2.9-3.1,5.6-3.8C109.2,65.1,109.2,65.3,109.1,65.5 M194.4,182.9L194.4,182.9
		c-1,0.6-2.2,1.2-3.4,1.6c-1.7,0.6-3.4,0.9-5,0.9l-2.6-0.1v2.1c0.5,0.6,1.2,1.2,2.1,1.9c1.9,1.3,3.8,2,5.6,2.2c2,0.1,3.4-1,4.2-3.4
		C196.3,185.8,195.9,184.1,194.4,182.9 M164.4,179.4l-0.1-0.1l-0.6-16.1l-17.6,8.5l1.8,7.8l0.2,0.1c0.7,0.4,1.2,0.6,1.7,0.7
		c1.2,0.4,2.6,0.6,4.1,0.6L164.4,179.4L164.4,179.4 M163.3,182.1l0.1-0.7l-4.9,0.9c-2.5,0.3-4.7,0.4-6.5,0.1l-2.7-0.6
		c-0.5-0.2-0.9-0.5-1.2-0.9l-0.2,0.2l-2.2,0.9v5.2l4.8-0.7c2.6-0.7,5-1.7,7.2-3l0.2,0.1l0.7,0.7c0.2,0.3,0.5,0.4,0.9,0.3
		c1.1-0.2,2.1-0.6,2.9-1C162.8,183.4,163.2,182.9,163.3,182.1 M181.9,154.4l-3.6,1.8v37.9l3.6-1.8V154.4 M171.8,159.4l-2.2,1
		l2.2,7.1V159.4 M176.9,156.9l-3.7,1.8v33.7l3.7,1.8V156.9 M188.7,151.2l-5.2,2.6v29.8l2.8,0.1c2.5-0.1,4.7-0.7,6.8-1.9l1.6-0.9
		c0.5-0.5,0.7-1,0.7-1.6l-0.3-3.6l-0.8-3.4c-2.3-8.7-3.9-14.9-4.8-18.4L188.7,151.2 M191.9,146.4c-0.6,0.3-1.2,0.5-1.8,0.4
		c-1-0.1-1.8-0.6-2.5-1.5l-31.6,15.1l0.1,0.1l-20.2,9.6l-0.1-0.1L17.1,149.3v5.2l118.7,20.8c19-9.1,38-18.3,57-27.5
		C192.5,147.6,192.2,147.1,191.9,146.4 M187.1,144.3l-0.2-0.4l-0.1-0.6v-0.1c-0.5-0.4-0.8-0.9-0.9-1.6l-48.8,4.4
		c0.1,0.8-0.1,1.3-0.6,1.8c-0.5,0.4-1.1,0.5-1.8,0.2c-0.3-0.1-0.6-0.4-0.8-0.8c-0.2,0.8-0.5,1.7-0.9,2.5l1.1,0.1
		c0.4-0.1,0.7-0.3,1-0.5h0.1c0.9,0.6,1.9,1.8,3.1,3.6l2.1,4.2l-0.1-0.1l0.4,0.8c0.1,0.3,0,0.5-0.1,0.6l-1.9-0.1l-4.5-1.4
		c-1-0.4-1.7-0.9-2.3-1.4l-0.4-0.7c-0.1-0.3-0.1-0.6,0-0.8c0.3-0.6,0.2-0.8-0.4-0.7c-0.5,0.1-0.9,0.2-1.3,0.6
		c-0.9,0.7-1.6,1.1-2.2,1.3l-1.5,0.6c-0.8,0.3-1.2,0.5-1.2,0.7c-0.2,0.4,0.1,0.7,1,0.8c0.2,0,0.4,0.3,0.6,1c0.2,1.4,0.1,3-0.4,4.8
		c-0.4,1.3-0.9,2.6-1.5,4l11.2,1.9L187.1,144.3 M185.9,139.1v-2.5l-0.2-1l-48.8,4.4l0.4,1.6l0.1,0.8l-0.1,1.9l48.5-4.3L185.9,139.1
		 M185.1,134.1l-0.1-0.2v-0.3l-0.7,0.5L185.1,134.1 M185.8,135l0.1,0.2l0.2,0.4c0.4,1.2,0.5,2.4,0.4,3.6l-0.2,1.4l0.2,0.8
		c0.2,0.5,0.6,0.6,1.2,0.3c0.6-0.3,0.9-0.7,1.1-1.2l0.1-0.1c0.2,0.2,0.5,0.3,0.8,0.3l0.2-0.3l0.4-0.5l0.6-1.1l0.5-1.3
		c0.3-1.1,0.1-2.1-0.6-3.1l-0.4-0.5c-0.8,0.2-1.4,0.4-1.8,0.8c-0.1,0.1-0.2-0.1-0.4-0.5c-0.2-0.4-0.5-0.6-1.1-0.6
		c-0.4,0-0.7,0.2-0.9,0.4l-0.2,0.4V135 M234,134.6c0.6-0.3,1-0.6,1.1-0.8c0.1-0.3,0.2-0.7,0.1-1.2v-0.2l-0.3-0.3l-1.1-0.4l-3-0.4
		l-2.8,0.2c0.4,1.4,0.5,2.8,0.4,4.3l2.8-0.2C232.3,135.5,233.2,135.1,234,134.6 M204.4,136.5l-0.2,0.1c-1.5,0.4-2.9,0.2-4.3-0.6
		l-0.5-0.2c-1.6-0.9-2.8-2.2-3.7-3.9l-0.3-0.4c-0.4-0.9-0.8-1.8-1.1-2.6c-0.8-0.1-1.8,0.2-2.8,0.9c-0.8,0.6-1.5,1.4-2.1,2.3l0.1,0.1
		l0.2,0.1l0.1,0.2l1.4,1.2l0.3,0.6c0.4,0.8,0.6,1.7,0.6,2.9c0,0.6-0.1,1.2-0.3,1.8l-0.3,1.2l-0.2,0.5l-1.2,1.7l-1.1,1.2l-1.1,0.7
		l0.8,0.7l0.9,0.3c0.6,0.1,1.3,0,1.9-0.3l0.2-0.1h0c0.8-0.6,1.6-1.4,2.2-2.4l0.2-0.4l0.4-1.1c0.1-0.1,0.2,0,0.4,0.5v0.1l0.1,0.2
		l0.1,0.5l-0.1,0.1c-0.6,1.7-1.5,2.9-2.5,3.7c0.4,0.5,0.9,0.8,1.5,0.8h0.8l1-0.3l0.1-0.2l0.1-0.1l0,0l1-0.8c0.8-0.8,1.3-1.9,1.6-3.2
		c0.1-0.2,0.2-0.1,0.4,0.4c0.2,0.4,0.3,0.7,0.2,0.9c-0.3,1.5-0.9,2.7-1.9,3.7c0.9,0.3,1.8,0.1,2.8-0.8c0.9-0.7,1.6-1.6,2.2-2.7
		l1.2-2.5l0.2-0.8l0.1-0.1l0.4-1.2l0.1-2.5L204.4,136.5 M206.7,132.4l-1,2.7l-0.8,1.1c0.2,1,0.3,2,0.2,3.1l19.8-1.9
		c0.1,0,0.4,0.1,0.8,0.4l0.9,0.2l0.7-0.8v-0.9c0-0.3,0-0.4,0.1-0.4h0.2c0.3-1.6,0.3-3-0.1-4.4h-0.2c-0.3,0-0.5-0.3-0.6-1.1l-0.1-0.6
		l-1.2,0.1l-1.2,0.8L206.7,132.4 M168.6,95.7c-0.6,0.1-0.9,0.3-1.1,0.6l-0.9,4.2c-0.5,2.4-0.8,4.6-1,6.6c-0.6,4.3-0.9,7.3-1.1,9.1
		c-0.3,3.1-0.3,5.9-0.1,8.3l1.8,0.3l5.7-0.4c2.5-0.4,4.5-1,6.1-1.6c2.5-1,4.7-2.3,6.5-3.7c0-4,0.3-7.8,0.9-11.1l-1.6-1
		c-0.2-0.1-0.4-0.4-0.4-1c-0.1-0.5-0.1-0.7,0.1-0.6l0.4,0.2c3.6,2,6.4,4.6,8.4,7.7c2.2,3.5,3.1,7.4,2.7,11.5
		c-0.1,1.2-0.3,2.3-0.5,3.1l-0.1,0.3c0.1,0.7,0.4,1.4,0.8,2.1l1,1.6c1.2,1.7,2.7,2.7,4.5,3.1l0.9,0.1h1.8l0.8-0.2l0.4-0.7l1.4-3.3
		c1.1-3.3,1.6-7.1,1.4-11.5c-0.1-4.6-1-9.2-2.7-13.9c-2.1-5.8-5.9-11.2-11.6-16l-1.2-0.9c-3.6-2.9-7.6-5.2-11.8-6.9
		c0.5,4.9-0.4,8.4-2.9,10.6c-1.1,1-2.5,1.8-4.2,2.4C172,95,170.5,95.4,168.6,95.7 M179.7,81.2l-3.2-1.1c0.1,2.2-0.7,4.3-2.4,6.3
		c-2,2.4-4.4,3.9-7.2,4.6c-1.5,0.4-2.9,0.4-4.2,0.1c-1.4-0.4-2.5-1.1-3.4-2.2c-2.8-0.3-5.4-1.2-7.8-2.6c0.2,1.7,0.9,3.2,2.1,4.4
		c0.9,0.9,2.4,1.9,4.4,3c0.2,0,0.3,0.2,0.5,0.6v0.8l-2.7,10c-1,3.9-1.6,7.3-1.9,10.2c-0.2,2.4-0.3,4.8-0.2,7c0,0.7-0.1,1.1-0.4,1.2
		l-1.5-0.6c-2.5-1.2-4.8-2.7-6.9-4.6l-1.3,9.2c1.1,1.4,2.4,2.6,4.1,3.7l23.4,4.1l9.4-0.9c1.9-0.8,3.6-1.9,5.1-3.1
		c-0.4-3.7-0.6-7.1-0.7-10.3c-1.9,1.5-4.1,2.6-6.5,3.4c-2.7,1-5.5,1.6-8.4,1.8l-2.6,0.2c-1.2,0.1-2-0.1-2.5-0.5
		c-0.3-0.3-0.5-0.7-0.7-1.2l-0.1-1.3c-0.1-2-0.1-4.3,0.1-6.8l0.6-6.9c0.4-3.5,0.9-7,1.4-10.5l0.9-4.6c0.1-0.2,0.4-0.4,1.1-0.5
		l1.4-0.2l4-1.1c1.4-0.5,2.6-1.2,3.5-2.1C179.1,88.4,180,85.3,179.7,81.2 M172.1,67.1l-0.2,0.1c-3.6,1.1-5.9,1.7-7.1,1.7h-1.6
		c-2.2-0.1-3.9-0.6-5.3-1.3c-1.2-0.6-2.3-1.1-3.1-1.4l-0.6,2.1c-0.1,0.4,0,0.8,0.4,1.1l1.6,1.4c0.1,0.1,0.2,0.2,0.2,0.4l-0.2,0.4
		c-0.6,0.5-1.1,0.6-1.7,0.1l-2-1.8c-0.3-0.3-0.4-0.7-0.2-1.1l1.2-2.6c-0.3,0-0.6,0.3-0.9,0.9l-1.1,3.1c-0.5,0.7-1.6,1.4-3.2,1.9
		c-1.1,0.5-2.1,0.8-3,1l-0.6,0.1l-0.7-0.1h-0.1l0.1,0.1l0.6,1.7c0.5,1.4,1.1,2.7,1.9,4c1.5,2.4,3.3,4.4,5.4,5.9
		c2.2,1.7,4.7,2.8,7.3,3.2c2.6,0.6,4.8,0.6,6.8,0.1l2.1-0.7l0.2,0.1c0.1,0.2-0.3,0.5-1.2,1.1c-1,0.5-1.7,0.9-2.1,1h-0.2
		c0.6,0.2,1.4,0.2,2.2,0c1.9-0.4,3.7-1.5,5.4-3.2c1.9-1.9,2.7-3.7,2.4-5.4c-1.1,1.2-2.1,1.9-3,2.1l-0.5-0.1c0-0.2,0.1-0.4,0.3-0.6
		c2.6-2.6,4.5-6,5.7-10.2l0.5-0.1c2-0.4,3.1-1.6,3.5-3.6s-0.4-3.5-2.4-4.4l-0.1-0.1l-1.2-0.4l0.1,0.3v0.1c-0.2,0.6-0.5,1-1,1.1
		l-1.4,0.2l-2-1.5l-0.2,1.3C172.7,66.3,172.4,67.1,172.1,67.1 M162.9,69.7c-0.2-0.3-0.2-0.5,0.2-0.4l4.1,1.6
		c0.4,0.1,0.6,0.4,0.7,0.9l0.2,3.2l-0.2,0.3l-0.3-0.1l-0.4-1.6l-1.1-0.1c-0.7,0.9-1.5,1.8-2.4,2.7c-2,1.9-3.7,3.1-5.1,3.4
		c-1.4,0.4-3.1,0.4-5-0.1l-2.5-0.8c-0.2,0-0.3,0.1-0.4,0.2l-0.1,0.5l0.1,0.3v0.4c-0.1,0.1-0.2,0-0.4-0.2l-1.9-1.9
		c-0.3-0.3-0.4-0.7-0.2-1.1l0.8-1.9c0.2-0.4,0.4-0.4,0.5,0.1l0,0.6c0.1,0.2,0.2,0.4,0.4,0.5l0.4,0l2.4-0.1c1.8-0.2,3.2-0.4,4.1-0.8
		c1.5-0.6,3.6-1.8,6.4-3.8l0.4-0.5c0.1-0.2,0.1-0.4,0-0.6L162.9,69.7 M156.6,82l-0.2-0.2l0.2-0.2l2.8-1.1l0.5-0.1l0.5,0.3v0.6
		l-0.5,0.4c-0.7,0.4-1.3,0.6-2,0.6L156.6,82 M165.8,72.8c0.1-0.3,0-0.5-0.4-0.7c-0.5-0.2-1.1-0.1-1.8,0.3c-2.6,1.8-4.7,3.1-6.4,3.7
		c-1.1,0.4-2.6,0.7-4.4,0.9l-2.4,0.2c-0.6,0.1-0.8,0.4-0.6,0.8c0.2,0.4,0.4,0.6,0.8,0.6l4.6,0.4l2.8-0.5c1.2-0.3,2.1-0.7,2.7-1.2
		l4.6-3.8L165.8,72.8 M169.4,55.4c-1.1-0.5-2.5-0.8-4.3-0.8l-8,0.6l-0.2,0.9c-0.2,0.4-0.6,0.7-1.2,1l-1,0.2
		c-3.6,0.9-5.6,1.2-5.8,1.1c-0.2-0.1-0.3-0.6-0.4-1.5c-0.5,0.4-1.5,0.9-3.1,1.6c-0.9,0.4-1.8,0.9-2.4,1.4l-0.8,0.6l-0.9,1.1v0
		l-0.4,1c-0.4,1.3-0.6,2.8-0.4,4.4c0.2,1.5,0.5,2.8,0.9,3.7l0.1,0.2c0.2,0.3,0.6,0.5,1.1,0.7l0.8,0.2h0.5l0.9-0.1
		c0.8-0.2,1.7-0.5,2.6-0.9c1.3-0.6,2.1-1.1,2.5-1.8l0.6-1.2c0.6-2,1.4-3,2.3-3.1c0.4,0,1.3,0.3,2.6,1c1.5,0.9,2.4,1.4,2.7,1.5
		l3.4,0.5l3-0.1c1.5-0.1,4-0.6,7.4-1.7l0.1-0.1c0.2-0.2,0.4-1.2,0.6-2.9l-0.5-3.3C171.8,57.6,170.9,56.2,169.4,55.4 M168.1,56.1
		c1.1,0.5,2.1,1.4,2.8,2.6c0.8,1.2,1.2,2.4,1.1,3.4c-0.1,1.2-0.9,2.1-2.4,2.8c-1.3,0.6-2.9,1-4.8,1.2c-4.7,0.2-7.4-0.7-8.2-2.6
		c-0.7-1.5-1-2.8-0.9-3.9c0-1.2,0.4-2.1,1.1-2.6c0.8-0.4,2.5-0.8,5.3-1.2L168.1,56.1 M142.9,61.3l0.9-0.6c1-0.6,1.9-1,2.8-1.1h0.9
		c0.5,0.1,1,0.5,1.4,1.1c0.5,0.6,0.8,1.3,0.9,2.1c0.1,1.2,0,2.2-0.4,2.8c-0.5,1.1-1.4,2.1-2.8,3.2l-2,1.4l-0.7,0.4l-0.8,0.1h-0.8v0
		h-0.1l-0.2-0.3c-0.2-0.1-0.3-0.3-0.4-0.6l0-0.1l-0.1-0.1c-0.3-0.6-0.4-1.3-0.5-2.1c-0.1-0.9-0.1-1.9,0-2.9v-0.1l0.1-0.7v-0.1
		c0.1-0.5,0.3-0.8,0.5-1l0.1-0.3L142.9,61.3 M142.2,67.9v-3.6c0-0.7,0.2-1.4,0.8-2.1l1.9-1.6l-2,1.3l-0.8,0.9l-0.4,0.6l-0.4,1.9
		c0,1.4,0.1,2.5,0.4,3.4l0.1,0.2c0.2,0.4,0.4,0.6,0.8,0.8h0.1l0.4,0l0.9-0.2l0.7-0.3l1.7-1.2l0.3-0.4l-2.1,0.8l-0.7,0.1l-1.4-0.1
		L142.2,67.9 M170.2,58.5c-0.6-0.9-1.4-1.6-2.4-2.1c-0.9-0.4-2.8-0.5-5.7-0.1c-2.8,0.3-4.5,0.7-5.1,1.2c-0.8,0.5-1.1,1.3-1.1,2.6
		c0,0.8,0.3,1.7,0.7,2.7c0.7,1.7,3.4,2.4,7.9,2.2c1.7-0.1,3.2-0.4,4.4-0.9c1.4-0.6,2.1-1.5,2.2-2.4
		C171.2,60.5,170.9,59.5,170.2,58.5 M167.9,57.1c0.8,0.5,1.4,1.3,1.8,2.4l0.2,0.6c0,0.6,0,1.3-0.2,2c-0.2,0.7-0.6,1.2-0.9,1.4
		l-2.6,0.5c-2.8,0.4-4.9,0.4-6.2,0c-0.8-0.2-1.5-0.8-2-1.8c-0.3-0.6-0.4-1.1-0.5-1.6v-0.5c-0.1-0.7-0.1-1.1,0-1.3
		c0.1-0.2,0.2-0.4,0.5-0.6c0.6-0.4,2.2-0.8,4.7-1.1C165.4,56.6,167.2,56.7,167.9,57.1 M176.3,57.9l0.2,0.9l1.1,0.1L176.3,57.9
		 M175.7,59.6l-0.2,0.2l0.5,2.3l3.3,0.9l0.7-2.2v-0.2C178.7,60.1,177.3,59.8,175.7,59.6 M174.4,60.1c-0.3,0.2-0.4,0.5-0.4,0.8
		c0,0.3,0.2,0.6,0.5,0.8l0.6,0.5l-0.5-2.2L174.4,60.1 M175.6,58.8h0.3l-0.2-0.8l-1.4,0.2l-1.6,1.6l0.5,2.5l2.5,2l0.6,0.1
		c0.3,0,0.5-0.2,0.6-0.6l-0.1-0.5l-1.4-0.2l-0.1-0.2c-0.2,0-0.5-0.1-0.9-0.4l-0.2-0.2c-0.5-0.3-0.8-0.8-0.8-1.3
		c0.1-0.5,0.2-0.8,0.6-1.1l0.6-0.3h0.1l0.1-0.1C175,58.9,175.3,58.8,175.6,58.8 M164.9,49.1c-0.6,0.2-1.2,0.1-1.7-0.3
		c-1.6-1.2-3.2-1.6-4.8-1.3c-0.6,0.1-1.1,0.4-1.6,0.8c-1.1,0.9-1.9,1.5-2.6,1.7c-0.4,0.1-0.9,0.1-1.4,0c-1-0.3-1.9-0.4-2.6-0.3
		c-0.3,0.1-0.5,0.2-0.6,0.3c-0.4,0.3-0.9,1.2-1.6,2.8l-1.3,2.4c-0.7,1-1.5,1.7-2.3,2.1l-0.4,1l1.1-0.5c1.8-0.7,2.9-1.3,3.2-1.7
		l0.1-0.1l3.9-1.1c2-0.6,3.6-0.7,4.8-0.4l8-0.5c4.2-0.1,6.7,1.6,7.5,4.8l1.2-1.2l0.1,0l1.7-0.2l-0.6-0.4l-3.1-1.8
		c-0.2,0-0.4-0.1-0.4-0.4c0.1-0.2,0.2-0.3,0.4-0.3c0.1-0.1,0.2-0.1,0.3,0c0.6,0.1,1.7,0.7,3.3,1.8c1.1,0.7,2.1,1.7,3.1,2.8l0.4,0.1
		c-0.6-1.8-1.9-3.2-3.8-4.3c-0.9-0.5-2.1-1.1-3.8-1.6c-0.4-0.1-0.5-0.3-0.4-0.5l0.2-0.4c1.6-1.4,2.1-2.8,1.3-4.2
		c-0.7-1.3-1.8-1.8-3.1-1.4l-0.1,0c-1.3,0.5-2.3,1-2.9,1.4L164.9,49.1 M171.6,41.6l-2.6-2.1c-1.5-1.2-2.9-1.7-4.2-1.6l-3.2-0.1
		l-2.2-0.9c-1.1-0.5-2-0.6-2.7-0.5l-0.2,0.1c-0.5,0.2-1.1,1.4-1.9,3.6l-0.8,1.9c-0.2,0.3-0.5,0.5-0.8,0.6l-3.2,0.1l-0.8,0.2
		c-0.5,0.3-1.1,1.1-1.9,2.2l-1.5,2.6c-0.6,1.2-1.5,1.9-2.6,2.1c-0.8,0.2-1.6,0.2-2.4-0.2c-0.6-0.3-1-0.9-1.2-1.8
		c-0.5,0.7-0.8,1.5-0.9,2.3c-0.1,1.1,0.1,2.2,0.7,3.4c0.6,1.2,1.4,2.2,2.5,2.8c0.5,0.3,1.1,0.4,1.7,0.2c0.9-0.3,1.8-0.9,2.5-1.9
		c0.1-0.1,0.5-0.9,1.2-2.4c0.8-1.5,1.3-2.5,1.7-2.8c0.5-0.5,0.9-0.9,1.4-0.9l3.1,0.5h0.4l1-0.6l3.2-3.2l0.6-0.2
		c0.8-0.2,2.1,0.2,3.7,1.3c1.8,1.2,2.7,1.8,2.8,1.8h0.2L167,47c1-0.7,1.8-1.2,2.2-1.4l0.8-0.2c1.2-0.3,2.2,0,3.1,0.7
		c0.6,0.5,1.1,1.2,1.5,2.1c0.2,0.6,0.1,1.5-0.4,2.5c-0.4,0.8-0.9,1.5-1.5,2.2c1.4,0.6,2.5,1.1,3.2,1.5c1.8,1,3.1,2.5,3.9,4.3
		c0.2-1.4,0.2-2.9,0.1-4.6c-0.2-3.4-1-6-2.3-7.8c-0.7-1-1.6-1.9-2.6-2.8C173.7,42.4,172.6,41.7,171.6,41.6z"/>
</g>
</svg>
