<?xml version="1.0" encoding="utf-8"?>
<!-- Generator: Adobe Illustrator 25.4.1, SVG Export Plug-In . SVG Version: 6.00 Build 0)  -->
<svg version="1.1" id="Blacksmith_x2C_PerkClip_x5F_4b253" image-rendering="auto"
	 xmlns="http://www.w3.org/2000/svg" xmlns:xlink="http://www.w3.org/1999/xlink" x="0px" y="0px" viewBox="0 0 240 240"
	 style="enable-background:new 0 0 240 240;" xml:space="preserve">
<style type="text/css">
	.st0{fill:#FFFFFF;}
</style>
<g>
	<rect width="240" height="240"/>
	<path class="st0" d="M144.2,172.6l-3.7,1.8l0.2,37.9l3.6-1.5L144.2,172.6 M135.6,176.5h-0.2l0.2,34.2l3.7,1.5l-0.2-37.2l-2.8,1.3
		L135.6,176.5 M117.6,124.8c0-0.2,0-0.3,0.1-0.4l0.3-1.2c-1.5,0.6-3,1-4.7,1.3l-2.8,0.2h-0.2l-0.2,0.1l4.8,0.8L117.6,124.8
		 M90,131.9l-0.1-0.7c-1-0.4-2.2-0.6-3.6-0.6l-3.9,0.6c2.2,2.2,4.2,3.6,6,4l0.2-0.1l0.4-0.6l0.9-0.5h0.4l0.2-0.9v0
		C90.3,132.8,90.1,132.4,90,131.9 M93.5,119.6l-0.4,1.4l2.1,1.2l5.4,1l-2-1C96.8,121.4,95.1,120.5,93.5,119.6 M93.1,110.4l-0.2,0.7
		h-0.1l-0.3,1.6c-0.4,0.9-1,1.3-1.9,1.2c-0.8-0.1-1.3-0.5-1.7-1.3l-0.1-0.2l-0.3-1.9l-0.2-0.4l-0.1,0c-0.1-0.2-0.2-0.2-0.3-0.2
		c-0.2,0-0.4,0.1-0.5,0.2c-0.5,0.4-1,0.8-1.4,1.4l-0.1,0.1l-0.4,0.6v0.1l-0.1,0.4c-0.1,0.5-0.1,1,0,1.7l0.1,0.1l0,0.3
		c0,0.5,0.2,1.4,0.5,2.5l0.7,1.7l0.1,0.1l0.8,2.2l0.4,0.3l0.5-0.2l0.3-0.5l0.1-1.2l0-0.1H89l0.1,0.1v0.3h0l0.1,0.1l0.2,1.8l-0.1,2.6
		c-0.2,1-0.1,2.1,0.1,3.2l0.3,1.2l0.3,0.4v-0.1l0.5,0.1l0.5-0.3l0.2-0.4c0-1,0.1-2.2,0.3-3.4v-0.1c0.1-0.6,0.3-1.2,0.5-1.8l0-0.1
		l0.2-0.2l0.9-2l0-0.1l0.4-1.5l0-2.3h0l0.2,0c0.3,0.4,0.5,1.1,0.7,2c0,0.1,0.1,0.3,0.2,0.4c0.1,0.1,0.2,0.2,0.4,0.2l0.4-0.1l0.3-0.4
		l0.3-1.2c0.2-1.1,0.3-2.1,0.3-2.9l-0.1-0.8l-0.3-1.4l-0.8-1.8V111l-0.8-0.9c-0.1-0.1-0.3-0.2-0.4-0.2l-0.5,0.2
		C93.2,110.2,93.1,110.3,93.1,110.4 M88,117.5L88,117.5l0.1,0.2L88,117.5 M142.9,130.4l2.2,0.4l-2.1-2.1L142.9,130.4 M123.8,129.2
		l-0.2,0.2c-0.4,0.1-0.8,0.3-1,0.5c-0.2,0.4,0,0.7,0.7,0.9l1.2,0.2c1.2,0.3,2.1,0.6,2.6,0.9l1.5,0.6c0.6-0.1,0.9-0.5,0.9-1.2
		c-0.1-0.1-0.2-0.4-0.3-0.7c-0.1-0.3-0.1-0.6,0-0.8l0.6-0.8l-6.3-1.1L123.8,129.2 M134.2,135.4L134.2,135.4l-1.7-0.2
		c-0.8,0.1-1,0.4-0.8,0.8l1.3,2.1c0.1-0.6,0.3-1,0.7-1.2l1.5-0.1c0.5,0.2,0.8,0.8,1.1,1.6l30.5-2.7l-25.6-4.6l-0.8-0.2l-3.6-0.6
		l-0.3,0.9C135.9,133.1,135.1,134.4,134.2,135.4 M136.6,127.2c-1.3,0.4-2.5,0.9-3.5,1.5l-1.3,0.8c-0.7,0.5-1.3,1-1.8,1.6
		c0.3,0.7,0.4,1.3,0.3,1.8c-0.1,0.7-0.4,1.1-0.9,1.2l-1.1,0.1l-0.4-0.1l-0.1-0.1l-3.1-1.3h-0.1l-1.6-0.2c-0.6-0.2-1-0.6-1.2-1.1
		c-0.4-0.9-0.5-1.7-0.2-2.4c0.1-0.3,0.3-0.6,0.7-0.8c0.3-0.2,0.5-0.2,0.6,0l-0.2-1.2c-0.2-1.1-0.7-2.2-1.3-3.3l-1.2-1.8l-0.5-0.5
		c-0.2,0.3-0.3,0.7-0.4,1c-0.3,0.6-0.6,1.2-0.8,1.9l-0.2,0.5l-0.3,1.3l-0.2,2.5c0.9,0.2,1.5,0.9,1.8,2.1c0.2,0.9,0,1.6-0.8,2.1
		l-2.3,1l-2.2,1.6h0l-0.2,0.1l-1,0.3h-0.3c-0.5-0.1-0.8-0.4-1.1-0.9c-0.3-0.8-0.4-1.5-0.4-2.1c-0.8-0.6-2.2-1.1-4-1.7l-3.3-0.8
		c1,2.6,2.3,4.6,3.9,5.8h0.9c0.5-0.2,0.8-0.3,1-0.3c0.6,0,1,0.5,1.4,1.5c0.2,0.5,0.2,1.1,0.1,1.6l-0.5,1.6l-0.3,1.9v0.3l-0.4,1.2
		l-0.6,0.7c-0.4,0.4-0.9,0.4-1.4,0.1c-0.4-0.3-0.8-0.8-1.1-1.4c-1.1,0-2.3,0.4-3.6,0.9c-1.1,0.5-2.2,1.2-3.3,1.9
		c2.9,1.3,5.3,1.7,7.2,1.4v-0.1l0.2-0.6c0.4-0.7,0.9-1.1,1.4-1.1c0.7,0.1,1.2,0.5,1.7,1.2l0.8,2.1l0.5,0.8l-0.2-0.1l0.7,1.3
		c0.2,0.5,0.2,1,0.2,1.6c-0.1,0.7-0.7,1.1-1.7,1.1l0.1,0.1l-0.8-0.2c-1.4,1.3-2.4,3.5-3.1,6.5l4.7-2.5c0.8-0.5,1.5-1,1.9-1.5
		l-0.2-0.5l-0.2-0.2c-0.4-1.4-0.1-2.2,0.9-2.4c0.5-0.1,1.3,0.1,2.2,0.6c1.2,0.7,2,1,2.3,1.1l1.8,0.2c0.6,0.1,1,0.5,1.2,1
		c0.4,0.8,0.5,1.5,0.2,2.1h0.1l-0.1,0.4l-0.7,0.8c-0.4,0.2-0.6,0.2-0.6,0.1c0.1,1,0.5,2.2,1.2,3.5c0.6,1.2,1.3,2.3,2.1,3.4
		c0.2-0.1,0.5-1.1,1-2.9c0.5-1.8,0.8-3.3,0.9-4.4l-0.2-0.1h-0.1c-0.3-0.2-0.6-0.4-0.8-0.7c-0.3-0.3-0.5-0.8-0.7-1.4
		c-0.2-0.9,0-1.6,0.8-2.1l2.3-0.9l2.5-1.9c1.1-0.7,1.9-0.5,2.4,0.5c0.3,0.7,0.4,1.5,0.4,2.2l2.1,1l-0.1,0.1l5.1,1.5l-0.4-1.2
		l-0.9-1.5l-0.7-0.9l0.2-0.2c-1.2-1.8-1.9-2.6-2.1-2.4c-0.5,0.5-1.1,0.6-1.8,0.4c-0.6-0.1-1-0.5-1.3-1.2c-0.3-0.7-0.2-1.7,0.3-2.9
		l0.8-2.2h0.1l0.4,0.8l0.1,0.3c0,0.5,0.4,0.7,1,0.6c0.6-0.1,0.9-0.3,1.1-0.7c0.1-0.2,0.2-0.6,0.1-1v-0.2c0-0.1,0-0.2,0.1-0.2h0.1
		c0.2-1.4,0.2-2.7-0.1-3.9l-0.1-0.4c-0.3,0-0.5-0.4-0.6-1.2l-0.2-0.4l-1.2-0.1c-0.6,0.3-0.8,0.7-0.8,1.2v0.4l-0.2,0.1h-0.1l-0.3-0.5
		l-1.4-2.3c-0.6-0.9-0.9-1.8-0.7-2.5c0.1-0.7,0.4-1.1,1-1.3c0.6-0.3,1.2-0.2,1.8,0.1c0.2,0.1,0.7-0.6,1.3-2.1L136.6,127.2
		 M128.1,103.3l-1.3-0.6c-1.6,5.6-3.8,10.3-6.7,13.9c-3,3.6-7.1,6-12.4,7.2l5.5-0.3l0.9-0.3c2.9-1.4,5.3-3.3,7.1-5.7
		C124.2,113.8,126.5,109.1,128.1,103.3 M122.6,122.3c5.7-3.9,9.9-9.8,12.6-17.6l-1.4-0.2h-0.1c-1.1,3.3-2.6,6.3-4.4,8.9
		c-2.1,3.2-4.6,5.8-7.4,7.7l-0.8,0.5l0.8,1.2L122.6,122.3 M19.3,170.9c-3.3,0-6-0.6-8.3-1.6l-2-1.2v2.4c0,1.1,1,2,2.9,2.9
		c2.1,1,4.6,1.4,7.4,1.4l4.6-0.5v-3.7L19.3,170.9 M35.7,168.4c0.7,0.5,1.7,0.9,3.1,1.3c3.1,1,7,1.4,11.5,1.4c4.6,0,8.4-0.5,11.5-1.4
		c2.8-0.9,4.2-1.8,4.2-2.8v-2.8l-30.3-5.3V168.4 M38.6,171.1c-1.2-0.4-2.2-0.8-2.9-1.2v3.6c0.7,0.4,1.7,0.9,3.1,1.3
		c3.1,1,7,1.5,11.5,1.5c4.5,0,8.3-0.5,11.5-1.5c2.8-0.8,4.2-1.8,4.2-2.8v-2.8c-0.9,0.7-2.3,1.3-4,1.8c-3.3,1-7.2,1.5-11.8,1.5
		C45.8,172.6,41.9,172.1,38.6,171.1 M36.2,172.6v-1.4c1.4,0.7,3.3,1.2,5.5,1.6v1.2C39.5,173.8,37.7,173.3,36.2,172.6 M63.9,171.2
		v1.4c-1.4,0.6-3.2,1.1-5.2,1.5v-1.2C60.8,172.5,62.5,171.9,63.9,171.2 M50,174.9l-6.2-0.4v-1.3l6.2,0.4l6.5-0.5v1.4L50,174.9
		 M29,157.8l-3.6-0.6v34.8l3.6,0.8V157.8 M31.5,158.1l-1-0.2v34.8c1.2-0.6,2.5-1.2,3.7-1.8v-32.3l-0.9-0.1l-0.2-0.1L31.5,158.1
		L31.5,158.1 M19.3,143.1c-3.3,0-6-0.6-8.3-1.7l-2-1.3v25.1c0,1.1,1,2,2.9,2.9c2.1,0.9,4.6,1.3,7.4,1.3l4.6-0.4v-12.2l-7.4-1.3
		c-0.3-0.1-0.5-0.3-0.5-0.6v-6.9l13.6-6.5v-1.4l-2,1.2C25.4,142.5,22.6,143.1,19.3,143.1 M11.9,140.2c2.1,0.9,4.6,1.3,7.4,1.3
		c2.9,0,5.4-0.4,7.5-1.3c1.9-0.9,2.9-1.9,2.9-2.9v-2.5l-2,1.2c-2.3,1.1-5,1.6-8.4,1.6c-3.3,0-6-0.6-8.3-1.6c-0.8-0.4-1.5-0.8-2-1.2
		v2.5C9,138.4,9.9,139.3,11.9,140.2 M80.9,131v-0.6c0.1-0.3,0.2-0.5,0.2-0.5v-0.1c1.5-0.5,3.1-0.8,4.6-0.8c1.7-0.1,3,0,4.2,0.4
		l-0.5-0.6l-0.3-1.1c-0.3-1.1-0.3-2.2-0.2-3.3H89l0.1-2.5l-0.8-0.2h-0.4l-0.4-0.2l-10-1.8l-59.1,28.6l105.2,18.3
		c-0.9-1.2-1.6-2.4-2.2-3.6c-0.9-1.9-1.4-3.6-1.3-5.1l0.1-0.2l1-0.6c0.3-0.3,0.1-0.6-0.7-0.8l-1.3-0.2c-1.1-0.3-1.9-0.7-2.5-1
		c-0.5-0.4-1.1-0.6-1.8-0.6l-0.6,1.1l0.4,0.7c0.1,0.4,0.1,0.7,0,0.8c-0.5,0.6-1.1,1.1-2,1.7l-4.1,2.2c-1,0.5-1.6,0.6-1.9,0.5
		c-0.1-0.1-0.3-0.4-0.4-0.7l-0.1-0.8c0.7-4.1,1.9-6.9,3.5-8.4c0-0.1,0.1-0.1,0.2-0.1l1.1,0.4c0.5,0,0.8-0.1,1-0.4
		c0.2-0.3,0.1-0.7-0.1-1.2l-0.7-1.1l-0.2-0.5c-0.3-0.7-0.6-1.1-0.8-1.4c-0.4-0.4-0.8-0.5-1.3-0.2c-0.6,0.3-0.8,0.8-0.8,1.4l-0.2,0.2
		l-3.2-0.2l-4.3-1.3c-0.5-0.2-0.9-0.4-1.2-0.7c-0.1,0.1-0.2,0-0.3-0.3l-0.2-0.6c0-0.3,0-0.5,0.1-0.6h-0.1c1.2-1,2.5-1.9,3.9-2.5
		c1.7-0.9,3.2-1.3,4.4-1.3c0.3,0,0.4,0.2,0.5,0.7c0.2,0.7,0.6,1,1.3,0.8c0.7-0.2,1-0.7,1.1-1.3c0.1-0.8,0.3-1.5,0.5-2.1
		c0.2-0.3,0.3-0.7,0.4-1.4c0.2-0.8-0.1-1.2-0.7-1c-0.5,0.1-0.9,0.3-1.2,0.6l-0.1,0.1c-2-1.3-3.7-3.8-5.2-7.6l-0.2-0.6
		c-0.1-0.7-0.1-1,0-1l2.3,0.2l4.4,1.5c0.8,0.4,1.4,0.8,1.9,1.2l0.4,0.8c0.1,0.3,0.1,0.6,0,0.8c-0.3,0.6-0.2,0.8,0.4,0.8
		c0.6,0,1-0.1,1.4-0.4c1-0.8,1.7-1.3,2.1-1.4l1.5-0.6c0.7-0.2,1.1-0.5,1.2-0.7c0.1-0.3,0-0.5-0.3-0.7l-0.7-0.1
		c-0.2,0-0.4-0.4-0.6-0.9c-0.1-0.7-0.2-1.4-0.2-2.2l-2.9-0.6h-0.1l-1.6-0.2h-0.1l-20.1-3.7l-0.2,0.7l-0.1,0.2
		c-0.3,0.7-0.4,1.3-0.5,1.8l-0.1,0.2c-0.2,1.2-0.3,2.3-0.2,3.3l-0.2,0.6l-0.6,0.4l-0.3,0.1l0.2,0.1c0.2,0.1,0.2,0.4,0.2,0.9
		c-0.1,0.7,0.2,1,0.8,1.1v0c0.3-0.4,0.5-0.3,0.6,0.5c0.1,0.9-0.1,1.8-0.3,2.7c-0.3,1-0.7,1.3-1.1,0.9l-0.6-0.1
		c-0.6,0.1-1,0.4-1.3,0.9l-0.2,0.2c-0.9-0.2-1.9-0.7-3-1.5l-3.4-2.9l-0.8-0.9C81,131.5,80.9,131.3,80.9,131 M65.2,140.1
		c0-0.1,0.1-0.2,0.2-0.2c0.9-0.1,2,0.1,3.3,0.5l3,1.4c0.3,0.1,0.7,0.3,1.2,0.5s0.8,0.5,1,0.8c0.1,0,0.2,0.1,0.3,0.4l0,0.6l0,0.6v0.1
		c-1.3,0.8-2.7,1.5-4.2,2.1c-1.7,0.6-3.2,0.9-4.6,0.7c-0.1,0-0.2-0.3-0.3-0.8c-0.1-0.6-0.5-0.9-1.1-0.9c-0.3,0.4-0.5,0.3-0.8-0.3
		c-0.3-0.8-0.5-1.7-0.5-2.6c0-1,0.3-1.5,0.9-1.3h0.5C64.8,141.1,65.1,140.7,65.2,140.1 M77.3,142.3c-0.2,0.1-0.3-0.2-0.5-0.9
		c-0.1-0.3-0.1-0.5,0.1-0.5v-0.1c1.2-1,2.5-1.8,3.9-2.6c1.7-0.8,3.1-1.2,4.3-1.2c0.1,0,0.3,0.2,0.4,0.8c0.2,0.6,0.6,0.9,1.3,0.8
		c0.2-0.5,0.4-0.4,0.7,0.2c0.4,0.8,0.6,1.6,0.8,2.5c0.1,1.1-0.2,1.5-0.7,1.4l-0.5,0.2c-0.6,0.3-0.9,0.8-0.9,1.3c0,0.2,0,0.3-0.2,0.3
		l-3.2-0.1l-4.4-1.4C78,142.8,77.6,142.5,77.3,142.3 M86.8,140.1h-0.1c-0.5-0.2-0.9-0.7-1.3-1.5c-2,0-4.3,1-7,2.8
		c3,1.3,5.3,1.7,7.2,1.4v-0.1l0.2-0.6l0.2-0.5c0.3-0.3,0.6-0.5,0.9-0.5v-0.1L86.8,140.1 M65.7,141.4v0.2l-0.3,0.7l-0.2,0.3l-0.9,0.5
		l0,1c0.5,0.2,0.9,0.7,1.2,1.6c2.1,0.2,4.5-0.5,7.2-2C70,142.1,67.7,141.3,65.7,141.4 M60,127.2l0-1l-0.1,1.1L60,127.2 M54.1,103.8
		c-0.6-0.3-1.2-0.5-2-0.7v1.6c0,0.7-0.6,1-1.9,1c-1.2,0-1.9-0.3-2.1-0.8v-1.6h-1.2l0.1,0.2c-1,0.4-1.6,0.9-1.9,1.6l0,0.4
		c0,0.6,0.5,1.2,1.5,1.7c1,0.6,2.3,0.9,3.7,0.9c1.5,0,2.7-0.3,3.7-0.9c1-0.5,1.5-1,1.5-1.7l0-0.4C55.2,104.6,54.8,104.1,54.1,103.8
		 M61.8,120.7c2.2-0.7,3.6-1.4,4.2-2.2v-4c0-2-0.9-3.8-2.8-5.4c-1.6-1.5-3.8-2.6-6.4-3.2c-0.1,1-0.7,1.8-1.8,2.5
		c-1.3,0.8-2.9,1.1-4.8,1.1c-1.8,0-3.4-0.4-4.7-1.1c-1.2-0.7-1.8-1.5-1.9-2.5c-2.5,0.7-4.7,1.8-6.4,3.2c-1.8,1.6-2.8,3.4-2.8,5.4v4
		c0.6,0.8,1.9,1.5,4,2.2c3.2,0.9,7,1.4,11.7,1.4C54.9,122.1,58.8,121.6,61.8,120.7 M64.1,125.2l1.2-0.7l-0.8-0.1
		C64.2,124.7,64.1,124.9,64.1,125.2 M66,119.5c-0.9,0.7-2.3,1.4-4.2,1.9c-3.3,1-7.1,1.4-11.5,1.4s-8.2-0.5-11.5-1.4
		c-1.9-0.5-3.3-1.2-4.2-1.9v19.9l12.9-6.2v-8.3l1.5,0v6.6l1.1,0.1v0.3l3-1.4l0-1.2c0-1.2,0.2-2.2,0.5-3c0.4-1,1-1.5,1.8-1.6
		c0.9-0.1,1.6,0.5,2,1.8l-1.5,1.1l-0.2-0.6l-0.3-0.3c-0.4,0-0.6,0.9-0.6,2.7v0.4l0.5-0.2v-1.1l2.2-0.3v0.3l1.1-0.5l0.6-3.6l1.9-0.4
		l0.5,2.6l1.1-0.5c0-0.6,0.1-1.2,0.4-1.8c0.3-0.8,0.7-1.4,1.3-1.8l1.1-0.4v2.6l0.7-0.2V119.5 M46.4,124.8v2.1l-1.4-0.1v1.1l1.2,0.2
		v2L45,130v1.3l1.4,0.1v2l-3-0.3v-8.5L46.4,124.8 M41,124.2l1.5,0.2v5.6c0,2.1-0.7,3-2,2.7c-1.3-0.3-1.9-1.5-1.9-3.6v-5.5l1.5,0.3
		l0,6.1l0.3,0.5l0.4-0.3l0.1-0.8V124.2 M36.2,122.7l1.5,0.6v2c-0.6-0.1-1-0.3-1.2-0.5v1.2l1.1,0.4v2.1l-1.1-0.4v3.2
		c-0.8-0.4-1.4-0.9-1.6-1.3v-8.5C35.2,122,35.7,122.4,36.2,122.7 M63,99.8l-0.7,0.3l-2.3,0.1c-0.3,0.5-0.8,0.7-1.2,0.7h0
		c-0.6,0-1-0.2-1.3-0.5l-2.5,0.2c-0.3,0-0.5-0.1-0.6-0.3c0.2,0.8,0.7,1.5,1.3,2.1c0.9,0.8,1.9,1.1,3,1.1c0.8,0,1.5-0.1,2.1-0.4
		l0.4-0.3l1.3,1.9c0.1,0.2,0.3,0.3,0.5,0.2l0.1-0.2c0.2-0.1,0.2-0.2,0.2-0.4l-1.3-2.1l0.2-0.2c0.6-0.7,1-1.4,1.2-2.2L63,99.8
		 M74.2,110.1c-0.5-1.7-1.4-3.1-2.6-4.1c-1-0.7-2.6-1.1-4.7-1.1l-2.8-0.1l-0.6,0.8l-0.3,0.2c1,0.5,2.3,0.7,3.7,0.6
		c1.9,0,3.2,0.2,3.9,0.8c0.9,0.6,1.6,1.7,2.1,3.2l1,4.3c0.3,1.5,0.8,3,1.6,4.3l0.3,0.4l1.3-0.6c-1.1-1.3-1.7-2.8-1.8-4.5L74.2,110.1
		 M58.7,98.1c-0.5,0.1-0.8,0.3-1,0.7L57.6,99l-2.8,0.1l-0.2,0.1v0.2c0,0.2,0.1,0.3,0.2,0.3l3-0.1l0.1,0.1c0.2,0.3,0.5,0.4,0.9,0.4
		v0.4l0-0.4c0.3,0,0.5-0.1,0.8-0.4l0.1-0.2l2.6-0.1c0.2,0,0.2-0.1,0.2-0.2l-0.3-0.3l-2.6,0.1l-0.1-0.1C59.3,98.4,59,98.1,58.7,98.1
		 M58,91.4l0.4-0.1l0.4-0.3c0.4-0.4,0.7-0.8,0.7-1.4c0-0.5-0.2-1-0.5-1.4c-0.4-0.4-0.8-0.6-1.4-0.6c-0.5,0-1,0.2-1.3,0.5
		c-0.4,0.3-0.7,0.7-0.7,1.3s0.2,1.1,0.5,1.4c0.4,0.3,0.8,0.5,1.2,0.6h0.5l0.3,2.9l-0.5,0.1c-0.8,0.1-1.5,0.5-2.1,1
		c-0.6,0.6-1,1.2-1.3,2L54,97.9H51v-2.6h-1.9v5.6l-1.2-0.5h-2c-0.4,0-0.7,0.2-0.8,0.5l-0.2,0.4h-2l-0.1,0.1l0.1,0.1H45l0.1,0.1
		c0.2,0.4,0.5,0.5,0.8,0.6h2l1.2-0.6v2.9l1.1,0.2l0.8-0.1v-5.9h3v0.2l0-0.1c0.2-0.2,0.5-0.4,0.8-0.4l2.4-0.1
		c0.3-0.5,0.8-0.7,1.5-0.8h0.1c0.5,0,1,0.2,1.3,0.7l2.1-0.1c0.3,0,0.5,0.1,0.8,0.3l0.2,0.2c-0.1-1.1-0.5-2.1-1.3-2.9l-0.3-0.4
		l1.8-2.2l0.3,0.2l0.6,0.1c0.5,0,1-0.2,1.3-0.6c0.4-0.4,0.7-0.9,0.7-1.4c0-0.5-0.2-1-0.7-1.4c-0.3-0.4-0.8-0.6-1.3-0.6
		c-0.5,0-1,0.2-1.4,0.6c-0.4,0.4-0.6,0.9-0.6,1.4c0,0.5,0.2,0.9,0.5,1.2l0.2,0.4l-1.5,2.1l-0.5-0.2c-0.6-0.4-1.3-0.6-2-0.6h-0.4
		L58,91.4 M47,93.5c0.8,0.3,1.7,0.4,2.8,0.4l2.8-0.4c0.7-0.2,1-0.5,1-0.7c0-0.2-0.3-0.5-1-0.8c-0.8-0.3-1.7-0.4-2.8-0.4
		c-1.1,0-2,0.1-2.8,0.4c-0.7,0.3-1,0.5-1,0.8S46.4,93.3,47,93.5 M19.3,75.3c-1.7,0-3.2-0.3-4.4-1c-0.8-0.4-1.4-0.9-1.8-1.6
		c-1.2,0.8-2.2,1.8-2.9,3c-0.9,1.4-1.3,3-1.3,4.6v51.7c0,0.8,0.6,1.5,1.7,2.2l1.2,0.7c2.1,0.9,4.6,1.3,7.4,1.3
		c2.9,0,5.4-0.4,7.5-1.3c1.9-0.9,2.9-1.9,2.9-2.9V80.4c0-1.7-0.4-3.2-1.2-4.6c-0.7-1.2-1.7-2.2-2.9-3c-0.3,0.6-0.9,1.1-1.7,1.6
		C22.5,75,21,75.3,19.3,75.3 M17.1,90.8c0-1.7,0.7-2.5,2.1-2.5c0.8,0,1.4,0.3,1.8,0.9c0.3,0.5,0.5,1.1,0.5,1.9
		c0,0.8-0.2,1.5-0.5,2.1c-0.4,0.8-1,1.1-1.8,1.1c-0.7,0-1.3-0.4-1.7-1.1C17.3,92.4,17.1,91.6,17.1,90.8 M19.3,97.3l0.4-1.4l1.8-0.2
		l-1.3,3.1l1.4,2.8l-1.7,0.1l-0.6-1.5l-0.5,1.5h-0.9c-0.4,0-0.6-0.2-0.7-0.4c0.2-0.2,0.5-0.5,0.8-1.1l0.6-1.5
		c-0.7-1.3-1.1-2.4-1.4-3.1c0.3,0.2,0.9,0.3,1.8,0.3L19.3,97.3 M20.6,120.8v1.3l-1.1,0.1v0.8l1.3,0v1.3c-1,0.2-1.9,0.1-2.9-0.1v-5.8
		c0.9,0.2,1.9,0.2,2.9,0v1.3l-1.3,0.2v0.8L20.6,120.8 M21.5,113.3v0.2c0,2.3-0.7,3.4-2.1,3.4c-0.8,0-1.4-0.4-1.8-1.2
		c-0.3-0.6-0.5-1.3-0.5-2.2c0-1.7,0.8-2.6,2.3-2.6c0.9,0,1.6,0.4,1.9,1.1c-0.4,0.3-0.9,0.6-1.5,0.8c0-0.4-0.1-0.6-0.4-0.6
		c-0.4,0-0.7,0.6-0.7,1.7l0.1,0.9c0.1,0.3,0.2,0.5,0.4,0.5c0.2,0,0.4-0.1,0.5-0.2l0.1-0.5h-0.6v-1.2C20.3,113.6,21,113.5,21.5,113.3
		 M17.1,103.1c0.2,0.1,0.5,0.2,0.8,0.2l0.9,0.1l0.5,1.8l0.6-1.8l1.6-0.2l-1.3,3.6v2.4h-1.6v-2.5L17.1,103.1 M20,129.8L20,129.8
		l-0.1-3.4l1.5-0.2v5.8l-1.5,0.2l-1.2-3.4l0.1,3.4l-1.5-0.3V126l1.5,0.3L20,129.8 M18.7,91.2c0,1.1,0.2,1.6,0.6,1.6
		c0.4,0,0.7-0.5,0.7-1.6c0-1-0.2-1.5-0.7-1.5C18.9,89.7,18.7,90.2,18.7,91.2 M23.4,69.8c-0.6-0.4-1.2-0.6-2-0.8v1.6c0,0.6-0.7,1-2,1
		c-1.2,0-1.9-0.3-2.1-0.8v-1.8c-0.9,0.1-1.6,0.4-2.1,0.8c-0.7,0.4-1,0.9-1,1.5v0.1c0.1,0.6,0.6,1.2,1.6,1.6c1,0.5,2.1,0.8,3.5,0.8
		c1.4,0,2.6-0.3,3.6-0.8c0.9-0.5,1.5-1,1.6-1.6l0-0.2C24.5,70.8,24.1,70.3,23.4,69.8 M40.3,56.5l-0.1,0.6l11.1-0.6
		c4.9,0.1,8.6,1.2,11.2,3.6c2.3,2.3,3.9,5.9,4.7,10.8l1,6.2c0.4,2.5,0.9,4.6,1.4,6.2c3.5,13.7,8.7,24.1,15.6,31.2v0
		c-0.1-0.8-0.1-1.5,0-2c-1.7-2-3.3-4.2-4.8-6.6c-3.8-6.1-6.9-13.7-9.3-23c-1.1-4.3-1.9-8.4-2.4-12.2c-0.8-5.2-2.5-9.1-5.2-11.6
		c-3-2.6-7.1-4-12.2-4.1l-11.1,0.7L40.3,56.5 M20.3,48.1h-1.9v4L18,52.2c-1.5,0.5-2.5,1.5-3,2.9l-0.1,0.4H9.4v-0.9H7.2
		c-0.4,0-0.8,0.2-1.1,0.5c-0.3,0.3-0.4,0.7-0.4,1.1v0.2c0,0.4,0.1,0.8,0.4,1.1c0.3,0.3,0.7,0.5,1.1,0.5h2.2v-0.8h5.4l0.1,0.5
		c0.2,0.7,0.6,1.4,1.1,1.9c0.6,0.6,1.2,1,2,1.2l0.4,0.2v9.3l1,0.1l0.9-0.1v-9.3l0.4-0.2c0.7-0.2,1.4-0.6,1.9-1.2
		c0.5-0.5,0.9-1.2,1.1-1.9l0.1-0.5H28l0.1,0.5c0.3,0.6,0.6,1,1.1,1.4c0.6,0.3,1.2,0.5,1.8,0.5c0.6,0,1.2-0.2,1.7-0.5
		c0.5-0.4,0.9-0.8,1.2-1.4l0.2-0.5H36l0.3-0.2l0.2-0.4h2.4c0.2,0,0.3-0.1,0.3-0.3v-0.4c0-0.2-0.1-0.3-0.3-0.3h-2.4l-0.2-0.2h-2.2
		L34,55.2c-0.4-0.9-1.2-1.5-2.2-1.8h-0.5v-1.8h-0.4v1.8h-0.4c-1,0.2-1.8,0.8-2.3,1.8l-0.1,0.4h-4.4l-0.1-0.4
		c-0.5-1.5-1.5-2.4-2.9-2.9l-0.4-0.2V48.1 M31.2,54.6c0.7,0,1.2,0.2,1.6,0.7c0.4,0.5,0.7,1,0.7,1.7c0,0.6-0.2,1.2-0.7,1.7
		c-0.4,0.5-1,0.7-1.6,0.7c-0.7,0-1.3-0.2-1.7-0.7c-0.5-0.5-0.8-1-0.8-1.7c0-0.7,0.3-1.2,0.8-1.7C29.9,54.8,30.5,54.6,31.2,54.6
		 M22.8,57c0,1-0.4,1.8-1,2.6c-0.7,0.7-1.5,1-2.5,1.1c-1,0-1.9-0.4-2.5-1.1C16,58.8,15.6,58,15.6,57c0-1,0.4-1.8,1.1-2.6
		c0.7-0.7,1.5-1,2.5-1c1,0,1.8,0.3,2.5,1C22.4,55.2,22.8,56,22.8,57 M21,58.8c0.5-0.5,0.7-1.1,0.7-1.8c0-0.7-0.2-1.3-0.7-1.8
		c-0.5-0.5-1.1-0.8-1.8-0.8c-0.7,0-1.3,0.2-1.8,0.8s-0.8,1.1-0.8,1.8c0,0.7,0.2,1.3,0.8,1.8c0.5,0.5,1.1,0.8,1.8,0.8
		C19.9,59.6,20.5,59.3,21,58.8 M32.5,56.9c0-0.3-0.1-0.7-0.4-1c-0.3-0.2-0.6-0.4-0.9-0.3c-0.4,0-0.7,0.1-0.9,0.3
		c-0.3,0.3-0.4,0.7-0.4,1c0,0.4,0.1,0.7,0.4,0.9c0.2,0.3,0.5,0.4,0.9,0.4c0.3,0,0.6-0.1,0.9-0.4C32.3,57.6,32.5,57.3,32.5,56.9
		 M31,47.8c-0.8,0-1.6,0.1-2.2,0.4c-0.6,0.3-0.9,0.6-0.9,0.9c0,0.4,0.3,0.8,0.9,1.1c0.6,0.3,1.2,0.4,2,0.4h0.5l0.2,0h0.2l1.5-0.5
		c0.5-0.3,0.8-0.6,0.8-1c0-0.3-0.3-0.6-0.8-0.9C32.5,47.9,31.8,47.8,31,47.8 M16.9,46.5c0.4,0.2,0.9,0.4,1.4,0.5l2.5-0.1l0.5-0.1
		c0.8-0.3,1.2-0.7,1.2-1.1c0-0.3-0.3-0.7-0.9-1c-0.6-0.3-1.4-0.5-2.2-0.5c-0.8,0-1.5,0.2-2.1,0.5c-0.6,0.3-0.9,0.6-0.9,1
		C16.3,45.9,16.5,46.2,16.9,46.5 M131.1,61.9l0.2,3.9c0,4.2-0.4,9.5-1.1,15.9l1.6-0.4c0.7-6.2,1-11.3,1-15.4l-0.2-3.7l-0.9-0.2
		H131.1 M124.9,60.4l0.2,0.1c2.4-3,4-4,4.8-2.8c0.3,0.4,0.5,0.9,0.6,1.4h1.6c-0.2-0.9-0.6-1.6-1-2.3c-0.6-0.9-1.5-1.2-2.6-0.9
		c-1,0.2-1.8,0.6-2.2,1.2c-0.7,0.6-1.5,1.6-2.5,2.8C124.2,59.9,124.5,60.1,124.9,60.4 M139.2,60.7l0.7,1.1l1.4-1.4l0.5-1.9
		c-0.6,0-1.2-0.1-1.9-0.4c-0.2-0.2-0.4-0.2-0.6-0.1c-0.3,0.1-0.5,0.4-0.5,1C138.7,59.4,138.9,60,139.2,60.7 M132.6,59.9l-0.6-0.1
		l-3.3,0.4c-0.6,0.2-1.4,0.5-2.6,1.1c0.4,0.4,0.6,0.8,0.7,1.3c1.4-0.8,2.7-1.2,4-1.2l2.2,0.2c1.5,0.4,2.6,1.4,3.4,2.9
		c0.8,1.6,1.4,3.4,1.8,5.6c0.2,1.7,0.3,3.7,0.3,6.2l-0.2,3.8l1.4-0.1l0.2-3.6c0-2.1-0.1-3.8-0.2-5.2l-0.4-1.1l-0.4-2.7
		c-0.3-1.3-0.8-2.4-1.4-3.5c-0.6-1-1.3-1.9-2.2-2.5C134.4,60.5,133.5,60.1,132.6,59.9 M153.3,57.2l0.9-0.2l0.8-0.8l0.2-0.8
		c-1.1,0-2.5,0.2-4.1,0.6l-3.5,1.2l0.3,1.2C148.5,58.6,150.3,58.1,153.3,57.2 M118.2,77.4l0.7,1.5c0.6,1.5,0.8,2.9,0.6,4.2
		c-0.4,1.6-0.9,2.9-1.5,3.9c-0.9,1.4-2.1,1.9-3.5,1.4l-0.3-0.5c-0.6,0.4-1.2,0.5-2,0.3l-1.4-0.6c3.7,5.5,7.4,9.2,11.1,11.2
		c3.9,2.1,7.8,3.4,11.8,4c4.3,0.6,8.4,0.2,12.3-1.1l0.2,0.1l0.4-2.8c0-0.2,0.2-0.1,0.4,0.3l0.2,1l-2.4,16.7c2.3,2.1,4.7,3.6,7.2,4.5
		c0.6,0.2,0.9,0.1,0.9-0.4v-4.7c0.1-1.8,0.3-3.5,0.6-5.2c0.4-2.4,1-5.4,1.8-8.8l2.1-7.6l-3.8-2.3c-0.7-0.5-1.3-1.4-1.9-2.7
		c-0.6-1.1-1-2.2-1.2-3.2l-0.1-0.3c-1-0.6-2-1.4-2.9-2.2l-2.1-2.2l-10.1,0.3c-2.8,0.6-5.6,1.5-8.5,2.9c1.2,0.8,2.2,1,3.2,0.8
		c0.2-0.1,0.4,0.2,0.6,0.8c0.1,0.5,0.1,0.8-0.1,0.9c-1.2,0.3-2.7-0.2-4.4-1.8L118.2,77.4 M117,76.4l-0.1-0.2l-0.3-0.1l-0.3-0.7
		l-5.7,6.8c-0.1,0.1-0.2,0.1-0.2-0.1c-1.1,0.3-2,0.7-2.9,1.1c-1.2,0.5-1.9,1-2.2,1.4c-0.2,0.2-0.2,0.6,0,0.9l0.7,0.9
		c0.1-0.1,0.1-0.1,0.2,0.1c0.3,0.3,0.6,0.4,0.8,0.4l2-0.4l0.8,0.1l1.6,0.6l2.7,0.1c0-0.3,0-0.5,0.1-0.4l0.3,0.1l0.6-0.9
		c0.5-1.3,0.5-2.8-0.2-4.6c0-0.1,0-0.2,0.2-0.4c0.1-0.3,0.2-0.4,0.2-0.2c0.4,1.2,0.5,2.4,0.4,3.6c0,1-0.2,1.9-0.6,2.5
		c1.2,0,2.2-0.9,2.9-2.6c0.5-1.4,0.7-2.7,0.4-4C118.3,79.1,117.8,77.9,117,76.4 M93.8,97l-2.3-0.1c-0.9,1-1.4,1.7-1.6,2.2
		c-0.5,1.1-0.7,2.2-0.7,3.6l0.8,9.7c0,0.3,0.3,0.4,0.8,0.3c0.4-0.1,0.7-0.2,1-0.5l0.1-1.2c0.2-2.1,0.3-3.7,0.5-4.8l0.2-0.6
		c0.4-2,1-3.7,1.9-4.9l1.2-1.7C94.9,98,94.3,97.4,93.8,97 M95.8,91.2c-0.6,0.3-1.2,0.8-1.8,1.4c-1.1,1.2-1.8,2.2-2,3.2l-0.1,0.1
		c0.9-0.3,1.7-0.1,2.4,0.4c0.6,0.5,1.2,1.2,1.6,2.1l0.2-0.1c0.9-0.6,1.5-0.8,1.6-0.8l1.4-1.3l0.9-1.1c0.3-0.5,0.5-0.9,0.5-1.3v-0.1
		c-0.7-1.8-2-2.7-4-2.8L95.8,91.2 M100.9,75.1c-1,0.5-1.7,1.2-2.3,2.1c-0.7,1-1,2-0.8,3.1c0.2,0.9,0.5,1.7,0.8,2.5
		c0.5,0.8,1.1,1.4,1.8,1.8c0.5,0.3,0.9,0.4,1.2,0.4l-0.3-0.8c-1.1-1.4-1.2-3.2-0.3-5.2c0.6-2.1,2.1-3.6,4.6-4.7
		c0.1-0.1,0.1,0,0.1,0.3l-0.2,0.5c-0.9,0.4-1.8,0.9-2.6,1.8c-0.9,0.8-1.5,1.6-1.8,2.6l-0.1,1.3c0,0.6,0.2,1.5,0.5,2.5l0.1,0.2
		c0.8,1.1,1.6,1.7,2.2,1.8c0.2,0,0.4-0.6,0.6-1.8c0.4-1.9,1.1-3.3,2.1-4.2l0-0.2l5-5.5c-5.8-1.6-9.9-1.4-12.4,0.7
		c-1.3,1-2.2,2.3-2.7,3.9c-0.6,1.8-0.4,3.3,0.7,4.4l0.8,0.6c-0.5-1.1-0.7-2.3-0.5-3.5c0.1-1,0.5-2,1.2-3c0.6-0.9,1.4-1.6,2.4-2.1
		C101.2,74.8,101.1,75,100.9,75.1 M114.5,71.2l-0.1,0.2l-7.2,8.1c-1.2,0.6-2.1,2.2-2.7,4.8l-0.1,0.4c-0.1,0.6-0.3,1-0.4,1.1
		c-0.2,0.2-0.6,0.1-1.2-0.2l-0.8-0.6c0.1,0.8-0.1,1.1-0.5,1l-0.4-0.1l-0.1,0.2l-3.8,4.3c1.5,0.2,2.6,1.1,3.2,2.7l5.1-6
		c-0.6-0.6-0.8-1.4-0.7-2.3c0-0.4,0.2-0.8,0.6-1.1c1.1-1,2.8-1.8,5.1-2.4l5.7-6.8l0-0.1l1.2-1.3C117.2,71.8,116.2,71.1,114.5,71.2
		 M113.9,70.2c-0.1,0.2,0.1,0.2,0.5,0.2l0.8-0.1c0.4,0,0.9,0.1,1.3,0.3c0.5,0.2,0.8,0.5,1,0.9l0.4,1.1c0.2,0.6,0.3,0.9,0.5,0.9
		l7.5-8.2c0.5-0.6,0.7-1.2,0.6-1.8l-0.2-0.3l0-0.2h-0.1l-0.4-0.8l-0.8-0.8l-0.5-0.3l-1.1-0.3c-0.6-0.1-1.2,0.1-1.7,0.6L113.9,70.2
		 M194.4,182.9v-0.2l-3.3,1.8c-1.7,0.6-3.4,0.9-5.1,0.9l-2.6-0.2v2.2c0.5,0.6,1.2,1.2,2.1,1.9c1.9,1.3,3.8,2,5.6,2.1
		c2,0.1,3.4-0.9,4.2-3.2C196.3,185.8,196,184.1,194.4,182.9 M163.3,182.1l0.1-0.7l-4.9,0.9c-2.5,0.3-4.6,0.4-6.4,0.1l-2.8-0.6
		c-0.5-0.2-0.9-0.5-1.2-0.8l-0.1,0.2c-0.8,0.3-1.5,0.6-2.2,0.9v5.2c1.6-0.1,3.2-0.3,4.8-0.7c2.6-0.7,5-1.7,7.2-3l0.8,0.8
		c0.3,0.2,0.6,0.3,0.9,0.2c1.1-0.2,2.1-0.4,2.9-0.9C162.8,183.4,163.2,182.9,163.3,182.1 M181.9,154.4l-3.6,1.8v37.9l3.6-1.8V154.4
		 M163.8,163.5v-0.4l-17.7,8.6l1.9,7.8l0.1,0.1l1.7,0.8c1.2,0.4,2.6,0.5,4.1,0.5l10.4-1.4h0.1l-0.1-2.2
		C163.9,171.2,163.8,166.6,163.8,163.5 M171.8,159.2l-2.3,1.1l2.3,7.2V159.2 M176.9,156.9l-3.7,1.8v33.7l3.7,1.8V156.9 M188.8,151.2
		l-5.4,2.5v29.8l2.8,0.1c2.5-0.1,4.7-0.7,6.8-1.9l1.6-1.1c0.5-0.4,0.7-0.9,0.7-1.5c0-1.7-0.3-4.1-1.1-7.1
		c-2.3-8.4-3.9-14.6-4.8-18.4L188.8,151.2 M191.9,146.4c-0.6,0.3-1.2,0.5-1.8,0.4c-1-0.1-1.8-0.6-2.5-1.5l-31.6,15.1h0.1l-19.9,9.6
		h-0.4L17.1,149.2v5.3l115.7,20.2v-0.1l3,0.6l57-27.4C192.5,147.6,192.2,147.1,191.9,146.4 M187.1,144.3l-0.2-0.4l-0.1-0.6v-0.1
		c-0.5-0.4-0.8-0.9-0.9-1.6l-48.8,4.4c0.1,0.8-0.1,1.3-0.6,1.8c-0.5,0.4-1.1,0.5-1.8,0.2c-0.3-0.1-0.6-0.4-0.8-0.8
		c-0.2,0.8-0.5,1.7-0.9,2.5l1.1,0.1c0.4-0.1,0.7-0.3,1-0.5h0.1c0.9,0.6,1.9,1.8,3.1,3.6l2.1,4.2l-0.1-0.1l0.4,0.8
		c0.1,0.3,0,0.5-0.1,0.6l-1.9-0.1l-4.5-1.4c-1-0.4-1.7-0.9-2.3-1.4l-0.4-0.7c-0.1-0.3-0.1-0.6,0-0.8c0.3-0.6,0.2-0.8-0.4-0.7
		c-0.5,0.1-0.9,0.2-1.3,0.6c-0.9,0.7-1.6,1.1-2.2,1.3l-1.5,0.6c-0.8,0.3-1.2,0.5-1.2,0.7c-0.2,0.4,0.1,0.7,1,0.8
		c0.2,0,0.4,0.3,0.6,1c0.2,1.4,0.1,3-0.4,4.8c-0.4,1.3-0.9,2.6-1.5,3.9l11.2,2l16.4-7.7v-0.1L187.1,144.3 M185.9,139.1v-2.5l-0.2-1
		l-48.8,4.4l0.4,1.6l0.1,0.8l-0.1,1.9l48.5-4.3L185.9,139.1 M185.1,134.1l-0.1-0.2v-0.3l-0.6,0.5L185.1,134.1 M185.8,135l0.1,0.2
		l0.2,0.4c0.4,1.2,0.5,2.4,0.4,3.6l-0.2,1.4l0.2,0.8c0.2,0.5,0.6,0.6,1.2,0.3c0.6-0.3,0.9-0.7,1.1-1.2l0.1-0.1
		c0.2,0.2,0.5,0.3,0.8,0.3l0.2-0.3l0.4-0.5l0.6-1.1l0.5-1.3c0.3-1.1,0.1-2.1-0.6-3.1l-0.4-0.5c-0.8,0.2-1.4,0.4-1.8,0.8
		c-0.1,0.1-0.2-0.1-0.4-0.5c-0.2-0.4-0.5-0.6-1.1-0.6c-0.4,0-0.7,0.2-0.9,0.4l-0.2,0.4V135 M234,134.6c0.6-0.3,1-0.6,1.1-0.8
		c0.1-0.3,0.2-0.7,0.1-1.2v-0.2l-0.3-0.3l-1.1-0.4l-3-0.4l-2.8,0.2c0.4,1.4,0.5,2.8,0.4,4.3l2.8-0.2
		C232.3,135.5,233.2,135.1,234,134.6 M204.4,136.9l-0.1-0.4l-0.2,0.1c-1.5,0.4-2.9,0.2-4.3-0.6l-0.5-0.2c-1.6-0.9-2.8-2.2-3.7-3.9
		l-0.3-0.4c-0.4-0.9-0.8-1.8-1.1-2.6c-0.8-0.1-1.8,0.2-2.8,0.9c-0.8,0.6-1.5,1.4-2.1,2.3l0.1,0.1l0.2,0.1l0.1,0.2l1.4,1.2l0.3,0.6
		c0.4,0.8,0.6,1.7,0.6,2.9c0,0.6-0.1,1.2-0.3,1.8l-0.3,1.2l-0.2,0.5l-1.2,1.7l-1.1,1.2l-1,0.7l0.8,0.7l0.9,0.3
		c0.6,0.1,1.3,0,1.9-0.3l0.2-0.1h0c0.9-0.6,1.6-1.4,2.2-2.4l0.2-0.4l0.4-1.1c0.1-0.1,0.2,0,0.4,0.5v0.1l0.1,0.2l0.1,0.5l-0.1,0.1
		c-0.6,1.7-1.5,2.9-2.5,3.7c0.4,0.5,0.9,0.8,1.5,0.8h0.8l1-0.3l0.1-0.2l0.1-0.1l0,0l1-0.8c0.8-0.8,1.3-1.9,1.6-3.2
		c0.1-0.2,0.2-0.1,0.4,0.4c0.2,0.4,0.3,0.7,0.2,0.9c-0.3,1.5-0.9,2.7-1.9,3.7c0.9,0.3,1.8,0.1,2.8-0.8c0.9-0.7,1.6-1.6,2.2-2.7
		l1.2-2.5l0.2-0.8l0.1-0.1l0.4-1.2L204.4,136.9 M206.7,132.4l-1,2.7l-0.8,1.1c0.2,1,0.3,2,0.2,3.1l19.8-1.9c0.1,0,0.4,0.1,0.8,0.4
		l0.9,0.2l0.7-0.8v-0.9c0-0.3,0-0.4,0.1-0.4h0.2c0.3-1.6,0.3-3-0.1-4.4h-0.2c-0.3,0-0.5-0.3-0.6-1.1l-0.1-0.6l-1.2,0.1l-1.2,0.8
		L206.7,132.4 M167.5,96.2c-0.1,0.2-0.2,0.6-0.3,1.3l-1.6,9.5c-0.6,4.1-0.9,7.2-1.1,9.1c-0.3,3.1-0.3,5.9,0,8.3l1.8,0.3l5.7-0.5
		c2.3-0.4,4.3-0.9,6.1-1.6c2.5-1,4.7-2.2,6.5-3.7c0-4,0.4-7.7,1-11.1l-1.7-1c-0.2-0.1-0.4-0.4-0.4-1c-0.1-0.5-0.1-0.7,0.1-0.6
		l0.4,0.2c3.6,2,6.4,4.6,8.4,7.7c2.2,3.5,3.1,7.4,2.7,11.5c-0.1,1.2-0.3,2.3-0.5,3.1l-0.1,0.3c0.1,0.7,0.4,1.4,0.8,2.1l1,1.6
		c1.2,1.7,2.7,2.7,4.5,3.1l0.9,0.1h1.8l0.8-0.2l0.4-0.7l1.4-3.3c1.1-3.3,1.6-7.1,1.4-11.5c-0.1-4.6-1-9.2-2.7-13.9
		c-2.1-5.8-5.9-11.2-11.6-16l-1.2-0.9c-3.6-2.9-7.5-5.2-11.7-6.9c0.3,4.4-0.7,7.7-3,9.9c-2,2-5,3.4-8.8,4.2
		C168,95.8,167.7,96,167.5,96.2 M179.7,81.2c-1.2-0.5-2.4-0.9-3.7-1.3c0.1,2.1-0.6,4.1-2.1,6.2c-1.8,2.5-4.2,4.1-7.1,4.9l-4.2,0.2
		c-1.4-0.3-2.6-1-3.5-2.1c-2.9-0.2-5.6-1-8.1-2.5c0.2,0.8,0.6,1.6,1.2,2.5c0.6,1.1,1.2,1.9,1.8,2.4c0.4,0.3,1.6,1,3.8,2.1
		c0.2,0.1,0.4,0.3,0.5,0.7l0.1,0.8l-2.7,10c-1,3.9-1.6,7.3-1.9,10.2c-0.2,2.7-0.3,5-0.3,7c0,0.8-0.1,1.2-0.4,1.2
		c-0.2,0-0.7-0.2-1.6-0.6c-2.4-1.1-4.7-2.7-6.9-4.6l-1.3,9.2c1.1,1.4,2.4,2.6,4.1,3.7l23.6,4.1l9.1-0.9c2-0.8,3.7-1.9,5.2-3.2
		c-0.4-3.7-0.7-7.2-0.7-10.2c-1.9,1.4-4.1,2.5-6.5,3.4c-2.7,1-5.5,1.6-8.3,1.8l-2.8,0.2c-1.2,0.1-2-0.1-2.5-0.5
		c-0.3-0.3-0.5-0.7-0.7-1.3l-0.1-1.3c-0.1-2-0.1-4.3,0.1-6.9l0.6-6.8c0.4-3.5,0.8-7,1.4-10.5l0.9-4.7c0-0.2,0.4-0.3,1.2-0.5l1.3-0.2
		c3.4-0.9,5.9-2.1,7.5-3.8C178.9,87.8,179.8,84.9,179.7,81.2 M171.1,66.9l-0.2,0.1c-3.3,1.2-5.7,1.9-7.1,2l-1.7,0.1
		c-2.1,0-3.9-0.4-5.3-1.1c-1.2-0.6-2.3-1-3.2-1.3l-0.4,2.1c-0.1,0.4,0,0.8,0.3,1.1l1.7,1.3l0.2,0.4c0,0.2-0.1,0.3-0.2,0.3
		c-0.5,0.5-1.1,0.6-1.7,0.3l-2.1-1.8c-0.3-0.3-0.4-0.7-0.2-1.1l1.1-2.8c-0.5,0.1-0.9,1-1.3,2.6l-0.6,1.5c-0.5,0.7-1.5,1.3-3.1,2.1
		c-1.1,0.5-2,0.9-2.9,1.1c-0.4,0.1-0.9,0.1-1.4,0c0.7,2,1.6,3.9,2.8,5.7c1.6,2.4,3.4,4.3,5.6,5.8c2.3,1.6,4.8,2.6,7.4,2.9l6.8-0.2
		l2.2-0.8h0.2c0.1,0.1-0.3,0.5-1.2,1.1l-2.1,1l-0.2,0.1l2.1-0.1c1.9-0.5,3.7-1.7,5.4-3.4c1.8-2,2.5-3.8,2.3-5.6
		c-1,1.2-2,1.9-2.9,2.2l-0.5-0.1c-0.1-0.1,0-0.3,0.2-0.5c2.5-2.7,4.2-6.2,5.2-10.4l0.6-0.1c1.9-0.5,3-1.8,3.2-3.9
		c0.3-2-0.6-3.4-2.5-4.2l-0.1-0.2l-1.1-0.3l0.1,0.3v0.2c-0.1,0.6-0.5,1-1,1.2l-1.4,0.2l-0.2-0.1l-1.8-1.3l-0.1,1.3
		C171.8,66.1,171.5,66.9,171.1,66.9 M162.9,70.8l-0.7-0.9c-0.3-0.3-0.2-0.4,0.1-0.4h0.2l4.1,1.5l0.4,0.3l0.3,0.5l0.3,3.3l-0.1,0.3
		l-0.4-0.1l-0.4-1.6c-0.4-0.3-0.8-0.3-1.1,0l-2.4,2.8c-1.9,2-3.5,3.2-4.9,3.6c-1.4,0.4-3.1,0.4-5,0l-2.5-0.6c-0.2,0-0.4,0.1-0.5,0.2
		c-0.1,0.1-0.1,0.3,0,0.5l0.1,0.4c0.2,0.4,0.1,0.5-0.3,0.1l-2.1-1.8c-0.4-0.3-0.5-0.7-0.3-1.1l0.8-1.9c0.2-0.4,0.4-0.4,0.4,0.1
		l0.1,0.4c0.1,0.2,0.2,0.4,0.4,0.5l0.5,0.1l2.4-0.2c1.8-0.2,3.1-0.6,4-0.9c1.5-0.6,3.6-1.9,6.3-4l0.4-0.5
		C163,71.1,162.9,70.9,162.9,70.8 M156.2,82.4l-0.3-0.2l0.2-0.2l2.8-1.2c0.4-0.2,0.8-0.1,0.9,0.2c0.1,0.2,0.2,0.4,0.1,0.6l-0.4,0.5
		c-0.7,0.5-1.3,0.7-2,0.6L156.2,82.4 M165.1,72.8c0-0.3-0.1-0.6-0.4-0.7c-0.5-0.2-1.1-0.1-1.8,0.3c-2.5,2-4.6,3.3-6.3,3.9
		c-1.1,0.4-2.5,0.8-4.3,1.1l-2.4,0.3c-0.6,0.1-0.8,0.4-0.5,0.8c0.3,0.4,0.6,0.6,0.9,0.6l4.6,0.2c0.7,0,1.6-0.2,2.8-0.6
		c1.2-0.4,2.1-0.8,2.7-1.3c0.8-0.5,2.3-1.8,4.4-3.9L165.1,72.8 M168.1,55.3c-1.1-0.5-2.5-0.7-4.3-0.6l-8.1,0.9l-0.2,0.8
		c-0.2,0.7-0.9,1.1-2.1,1.3c-3.6,1-5.5,1.4-5.8,1.2c-0.2-0.1-0.3-0.6-0.5-1.4c-0.5,0.4-1.6,1-3.1,1.7c-1.3,0.6-2.3,1.3-3,2.1
		l-0.9,1.2l-0.3,0.8l-0.4,3.1c0,0.6,0,1.1,0.1,1.6c0.2,1.2,0.4,2.2,0.7,3.1l0.2,0.6c0.2,0.5,0.8,0.8,1.6,0.9l1.9-0.1
		c0.8-0.2,1.7-0.6,2.7-1.1c1.2-0.7,2-1.3,2.4-1.9l0.5-1.3c0.6-2,1.3-3.1,2.1-3.2c0.4-0.1,1.3,0.2,2.6,0.9l2.8,1.3l6.4,0.2
		c1.7-0.1,4.2-0.8,7.4-2l0.2,0c0.2-0.2,0.4-1.1,0.6-2.9l-0.7-3.4C170.5,57.4,169.5,56.1,168.1,55.3 M166.6,55.9
		c1.2,0.6,2.2,1.4,3,2.6c0.8,1.2,1.2,2.3,1.2,3.4c0,1.2-0.8,2.1-2.2,2.9c-1.3,0.7-2.9,1.1-4.7,1.2c-4.7,0.4-7.5-0.3-8.4-2.2
		c-0.6-1.4-1-2.7-1.1-3.8c0-1.2,0.4-2.1,1.1-2.6c0.7-0.5,2.5-0.9,5.2-1.4C163.7,55.6,165.6,55.5,166.6,55.9 M145.3,60.4
		c0.3-0.1,0.6-0.1,0.9,0c0.5,0.1,1,0.4,1.5,0.9c0.5,0.6,0.8,1.3,0.9,2.1c0.2,1.2,0.2,2.1-0.2,2.8c-0.5,1.1-1.4,2.2-2.6,3.4
		c-1.3,1.2-2.4,1.9-3.4,2.1h-0.7c-0.4-0.1-0.7-0.4-1-1.1c-0.3-0.6-0.5-1.3-0.6-2c-0.2-0.9-0.2-1.9-0.1-2.9c0.1-1.1,0.3-1.8,0.6-2.2
		c0.5-0.6,1.2-1.2,2-1.8C143.6,60.9,144.4,60.5,145.3,60.4 M145.4,68.6l0.4-0.4c-2.5,1.2-4,1.5-4.4,0.6l-0.2-3.5
		c-0.1-1.3,0.8-2.6,2.6-4l-0.9,0.6c-0.7,0.5-1.3,1.1-1.8,1.8c-0.3,0.4-0.5,1.3-0.6,2.6c0,1.3,0.1,2.5,0.4,3.4c0.2,0.6,0.5,0.9,0.9,1
		l0.4-0.1C143.1,70.4,144.2,69.8,145.4,68.6 M170,61.4c0.1-1-0.3-2.1-1-3c-0.7-0.9-1.5-1.5-2.5-1.9c-0.9-0.4-2.8-0.4-5.7,0.1
		c-2.7,0.5-4.4,0.9-5.1,1.4c-0.8,0.5-1.2,1.4-0.9,2.6c0.1,0.9,0.4,1.8,0.8,2.6c0.8,1.7,3.5,2.4,7.9,2c1.7-0.2,3.1-0.6,4.3-1.2
		C169.3,63.2,170,62.4,170,61.4 M168.4,59.4l0.2,0.7c0.1,0.6,0.1,1.2-0.1,1.9c-0.2,0.7-0.4,1.2-0.9,1.4l-2.5,0.6l-6.3,0.2
		c-1.4-0.4-2.2-1.5-2.6-3.4v-0.1l-0.1-0.2v-0.2c-0.1-0.7-0.1-1.2-0.1-1.4c0.1-0.2,0.3-0.5,0.6-0.7c0.6-0.3,2.1-0.7,4.6-1.2l5.3-0.2
		C167.4,57.6,168,58.4,168.4,59.4 M174.5,59.3l-0.2,0.2l0.6,2.4c1.3,0.1,2.4,0.3,3.3,0.7l0.6-2.2v-0.2
		C177.4,59.6,176,59.4,174.5,59.3 M173.1,59.9c-0.2,0.2-0.3,0.5-0.2,0.8c0,0.3,0.2,0.5,0.5,0.8l0.2,0.2l0.4,0.2l-0.6-2.3L173.1,59.9
		 M174.4,58.4l0.1,0h0.1l-0.2-0.7l-1.4,0.2l-1.6,1.7l0.7,2.4l2.2,1.7l0.4,0.2l0.6,0.1c0.2,0,0.4-0.3,0.4-0.8l-0.1-0.3l-1.4-0.2
		l-0.1-0.3c-0.2,0-0.5-0.1-0.8-0.3l-0.4-0.2c-0.5-0.4-0.7-0.9-0.7-1.4c0-0.4,0.1-0.8,0.6-1.1c0.2-0.2,0.4-0.2,0.6-0.2l0.1-0.2
		C173.8,58.6,174.1,58.4,174.4,58.4 M175,57.4l0.3,1.1l1.1,0.2L175,57.4 M165,48.3l-1.8,0.8c-0.6,0.2-1.2,0.2-1.8-0.2
		c-1.7-1.1-3.3-1.5-4.9-1.1c-0.6,0.2-1.1,0.5-1.5,0.9c-1,1-1.9,1.6-2.7,1.8l-3.9-0.1c-0.2,0.1-0.4,0.2-0.6,0.3
		c-0.3,0.3-0.8,1.3-1.5,2.8l-1.1,2.6c-0.6,1-1.4,1.8-2.3,2.1l-0.2,1.1l1-0.6c2-0.9,3.1-1.5,3.2-1.8h0.1l0.1-0.1l3.8-1.2
		c1.3-0.4,2.4-0.6,3.4-0.7h1.4l8-0.8c1.6-0.1,2.9,0.1,3.9,0.4c1.9,0.7,3.1,2.1,3.8,4.1l1.2-1.3l0.1,0c0.7-0.2,1.2-0.3,1.6-0.3
		l-0.5-0.4l-3.2-1.6c-0.2,0-0.4-0.2-0.4-0.4s0.1-0.3,0.4-0.3l0.3-0.1c0.5,0,1.6,0.6,3.4,1.6c1,0.7,2.1,1.6,3.1,2.8l0.5,0.1
		c-0.7-1.8-2-3.1-3.9-4.2c-0.9-0.5-2.2-0.9-3.8-1.4c-0.4-0.1-0.5-0.2-0.5-0.5l0.3-0.4c1.5-1.5,1.8-2.9,1.1-4.2
		c-0.8-1.2-1.8-1.7-3.1-1.4l-0.2,0.1C166.5,47.4,165.6,47.9,165,48.3 M167,39.4c-1.5-1.1-2.9-1.6-4.4-1.3c-0.8,0.1-1.9,0.1-3.1,0
		c-0.4,0-0.8-0.1-1.2-0.4l-1.1-0.4c-1.1-0.4-2.1-0.5-2.8-0.3l-0.2,0.1c-0.5,0.2-1.1,1.4-1.8,3.6l-0.8,2c-0.2,0.3-0.5,0.5-0.8,0.6
		l-3.1,0.2l-0.8,0.3c-0.7,0.4-1.8,2.1-3.2,5c-0.5,1.2-1.4,1.9-2.6,2.2l-2.3-0.2c-0.7-0.3-1.1-0.8-1.2-1.8c-0.4,0.7-0.7,1.5-0.8,2.4
		c-0.1,1.1,0.2,2.2,0.8,3.3c0.6,1.2,1.5,2.1,2.6,2.7c0.5,0.3,1.1,0.3,1.8,0.2c0.9-0.2,1.7-0.9,2.4-1.9l1.1-2.5
		c0.7-1.6,1.2-2.6,1.7-2.9c0.6-0.6,1-0.9,1.4-1l2,0.2l1,0.2h0.5l0.9-0.7l3.1-3.3l0.6-0.2c0.8-0.2,2,0.2,3.7,1.3
		c1.8,1.1,2.7,1.7,2.9,1.7l0.2-0.1l4.1-2.8l0.7-0.2c1.2-0.3,2.3-0.1,3.2,0.6c0.7,0.5,1.2,1.1,1.6,2c0.3,0.6,0.2,1.4-0.3,2.6
		l-1.3,2.2l3.2,1.5c1.7,1,3.1,2.3,4,4.1c0.1-1.4,0-2.9-0.2-4.5c-0.3-3.4-1.1-6-2.5-7.8c-0.8-1-1.7-1.9-2.7-2.7
		c-1.4-1.1-2.5-1.8-3.5-1.9C169.5,41.4,168.6,40.7,167,39.4z"/>
</g>
</svg>
