<?xml version="1.0" encoding="utf-8"?>
<!-- Generator: Adobe Illustrator 25.4.1, SVG Export Plug-In . SVG Version: 6.00 Build 0)  -->
<svg version="1.1" id="Blacksmith_x2C_PerkClip_x5F_4b253" image-rendering="auto"
	 xmlns="http://www.w3.org/2000/svg" xmlns:xlink="http://www.w3.org/1999/xlink" x="0px" y="0px" viewBox="0 0 240 240"
	 style="enable-background:new 0 0 240 240;" xml:space="preserve">
<style type="text/css">
	.st0{fill:#FFFFFF;}
</style>
<g>
	<rect width="240" height="240"/>
	<path class="st0" d="M144.2,172.6l-3.7,1.8l0.2,37.9l3.6-1.6L144.2,172.6 M135.6,176.5h-0.2l0.2,34.2l3.7,1.6l-0.2-37.2l-2.8,1.3
		L135.6,176.5 M110.6,138.1c0.2-0.8-0.1-1.2-0.7-1c-0.5,0.1-0.9,0.3-1.2,0.6l-0.1,0.1l-1.2-0.9l-0.1,1.8c-0.1,0.7-0.1,1.3,0,1.9v0.1
		c0.1,0.8,0.2,1.5,0.4,2.2l0.8,0.1c0.7-0.2,1-0.7,1.1-1.3c0.1-0.8,0.3-1.5,0.5-2.1C110.3,139.3,110.5,138.8,110.6,138.1
		 M117.6,124.8c0-0.2,0-0.4,0.1-0.5l0.3-1.2c-1.6,0.6-3.2,1-4.8,1.3l-2.6,0.2h-0.5l4.8,0.9L117.6,124.8 M117.3,129.1
		c-0.1-0.7-0.2-1.4-0.2-2.2l-3-0.6h0l-11.2-2l0.4,2c0.2,0.9,0.2,1.7,0.1,2.2h0.6v-0.1l-0.1-1.4l-0.1-0.1v-0.8
		c-0.1-0.2,0-0.4,0.2-0.6c0.1-0.2,0.3-0.4,0.5-0.4l0.7,0c0.3,0.1,0.6,0.3,1,0.6c0.5,0.3,1,0.8,1.4,1.5l0.1,0l0.8,1.4l0.3,0.6
		l0.2,0.6l1.1,0.4c0.8,0.4,1.4,0.8,1.9,1.2l0.4,0.8c0.1,0.3,0.1,0.6,0,0.8c-0.3,0.6-0.2,0.8,0.4,0.8c0.6,0,1-0.1,1.4-0.4
		c1-0.8,1.7-1.3,2.1-1.4l1.5-0.6c0.7-0.2,1.1-0.5,1.2-0.7c0.1-0.3,0-0.5-0.3-0.7l-0.7-0.1C117.7,130,117.5,129.7,117.3,129.1
		 M97.6,129.5L97.6,129.5l-0.2,0.6v0.2h0c0,0.5,0.2,1.2,0.6,2.1v-0.1l0.1,0.1l1.4,2.6l1.2,1.4l0.1,0.1l1.4,1.8l0.5,0.2l0.5-0.3
		l0.1-0.5l-0.2-1.3l0.1-0.1h0.1v0.1l0.1,0.3l0.2,0.1c0.6,1.2,1.1,2.5,1.4,4v0.1l0,0.1l0.2,0.9c0.1,0.5,0.3,1.1,0.6,1.6l0.3,0.6
		l0.7,0.9c0.1,0.2,0.2,0.3,0.5,0.3V145l0.5-0.1l0.3-0.4l0-0.2l-0.8-3.6v-0.1c-0.1-0.6-0.1-1.2,0-1.9l0.2-2.1l-0.1-1.4
		c-0.1-0.9-0.4-1.8-0.8-2.8v-0.1l0.1-0.1l0.2,0c0.4,0.4,0.9,0.9,1.3,1.7l0.3,0.3l0.5,0l0.4-0.2l0.2-0.4l-0.2-2.2l-0.4-1.6l-0.4-1.1
		l-0.8-1.2l-1.4-1.4l-1-0.6l-0.5-0.1v-0.1c-0.2,0.1-0.3,0.2-0.4,0.4c-0.2,0.1-0.2,0.3-0.2,0.4h0.1l0.1,2.3c-0.1,0.7-0.3,1.2-0.8,1.5
		l-0.7,0.3c-0.8,0.2-1.4-0.1-2-0.8v-0.1l-1-1.6l-0.3-0.3v-0.1l-0.5-0.1l-0.5,0.3C98,128.2,97.8,128.8,97.6,129.5 M101.8,121.2
		c-0.1-0.4-0.1-0.7-0.1-1.1v-1.8l0.4-2.5l0.7-1.9c-0.7-0.7-1.4-1.2-2.2-1.3c-0.8-0.2-1.6-0.1-2.2,0.5l-0.5,1.4
		c-0.2,0.5-0.3,0.9-0.3,1.3c-0.1,1.2,0,2.3,0.5,3.5l1.2,3.2l0.1,0.2v0.1l0.4,1.1h-0.1l0.3,0.8l0.2,0.2l0.7,1.8l0.2,0.3l0.4,1.3
		c0.1,0.3,0.4,0.4,0.8,0.1l0.8-0.8l-1.2-5.8l0-0.2L101.8,121.2 M105.4,110.3l0.4-1.4c0.2-0.5,0.2-1,0.1-1.3c-1.2-1.5-2.7-2-4.5-1.6
		l-0.6,0.3c-0.6,0.6-1.1,1.2-1.3,1.9c-0.7,1.4-1.1,2.6-1,3.6v0.1c0.7-0.5,1.5-0.6,2.4-0.2c0.8,0.3,1.5,0.8,2.1,1.5l0.1-0.1l1.2-1.4
		L105.4,110.3 M143.1,128.8l-0.1,1.6l2.1,0.4L143.1,128.8 M123.8,128.1l0.1,1.1l-0.2,0.2c-0.4,0.1-0.8,0.3-1,0.5
		c-0.2,0.4,0,0.7,0.7,0.9l1.2,0.2c1.2,0.3,2.1,0.6,2.6,0.9l1.5,0.6c0.6-0.1,0.9-0.5,0.9-1.2c-0.1-0.1-0.2-0.4-0.3-0.7
		c-0.1-0.3-0.1-0.6,0-0.8l0.6-0.8L123.8,128.1 M134.2,135.4L134.2,135.4l-1.7-0.2c-0.8,0.1-1,0.4-0.8,0.8l1.3,2.1
		c0.1-0.6,0.3-1,0.7-1.2l1.5-0.1c0.5,0.2,0.8,0.8,1.1,1.6l30.3-2.7l-19.9-3.6h-0.1l-9.8-1.7l-0.3,0.9
		C135.9,133.1,135.1,134.4,134.2,135.4 M136.6,127.2c-1.3,0.4-2.5,0.9-3.5,1.6c-0.5,0.2-0.9,0.4-1.3,0.7c-0.7,0.5-1.3,1-1.8,1.6
		c0.3,0.7,0.4,1.3,0.3,1.8c-0.1,0.7-0.4,1.1-0.9,1.2l-1.1,0.1l-0.4-0.1l-0.1-0.1l-3.1-1.3h-0.1l-1.6-0.2c-0.6-0.2-1-0.6-1.2-1.1
		c-0.4-0.9-0.5-1.7-0.2-2.4c0.1-0.3,0.3-0.6,0.7-0.8c0.3-0.2,0.5-0.2,0.6,0l-0.2-1.2c-0.2-1.1-0.7-2.2-1.3-3.2l-1.2-1.8l-0.4-0.5
		h-0.1v0.1l-0.5,0.9l-0.9,2.4l-0.3,1.3l-0.2,2.5c0.9,0.2,1.5,0.9,1.8,2.1c0.2,0.9,0,1.6-0.8,2.1l-2.3,1l-2.2,1.6h0l-0.2,0.1l-1,0.3
		h-0.3c-0.5-0.1-0.8-0.4-1.1-0.9c-0.3-0.8-0.4-1.5-0.4-2.1c-0.5-0.4-1.2-0.7-2.2-1.1l0.2,0.8h0l0.1,1.3l-0.2,0.5v0.1l-0.5,0.4
		l-0.8-0.1l-0.4-0.4l-0.9-1.3c0.4,0.9,0.7,1.8,0.7,2.6l0.6,0.5h0.9c0.5-0.2,0.8-0.3,1-0.3c0.6,0,1,0.5,1.4,1.5
		c0.2,0.5,0.2,1.1,0.1,1.6l-0.5,1.6l-0.3,1.9v0.3l-0.4,1.2l-0.6,0.7c-0.4,0.4-0.9,0.4-1.4,0.1l-0.1-0.1l0,0.2l-0.4,0.5l-0.7,0.1
		l-0.6-0.4l-0.7-0.9l-0.3-0.6c-0.6,0.2-1.2,0.4-1.9,0.7c-1.1,0.5-2.2,1.2-3.3,1.9c2.9,1.3,5.3,1.7,7.2,1.4v-0.1l0.2-0.6
		c0.4-0.7,0.9-1.1,1.4-1.1c0.7,0.1,1.2,0.5,1.7,1.2l0.8,2.1l0.5,0.8l-0.2-0.1l0.7,1.3c0.2,0.5,0.2,1,0.2,1.6
		c-0.1,0.7-0.7,1.1-1.7,1.1l0.1,0.1l-0.8-0.3c-1.4,1.4-2.4,3.6-3.1,6.6l4.7-2.5c0.8-0.5,1.5-1,1.9-1.5l-0.2-0.5l-0.2-0.2
		c-0.4-1.4-0.1-2.2,0.9-2.4c0.5-0.1,1.3,0.1,2.2,0.6c1.2,0.7,2,1,2.3,1.1l1.8,0.2c0.6,0.1,1,0.5,1.2,1c0.4,0.8,0.5,1.5,0.2,2.1h0.1
		l-0.1,0.4l-0.7,0.8c-0.4,0.2-0.6,0.2-0.6,0.1c0.1,1,0.5,2.2,1.2,3.5c0.6,1.2,1.3,2.3,2.1,3.4c0.2-0.1,0.5-1.1,1-2.9
		c0.5-1.8,0.8-3.3,0.9-4.4l-0.2-0.1h-0.1c-0.3-0.2-0.6-0.4-0.8-0.7c-0.3-0.3-0.5-0.8-0.7-1.4c-0.2-0.9,0-1.6,0.8-2.1l2.3-0.9
		l2.5-1.9c1.1-0.7,1.9-0.5,2.4,0.5c0.3,0.7,0.4,1.5,0.4,2.2l2.1,1l-0.1,0.1l5.1,1.5l-0.4-1.2l-0.9-1.5l-0.7-0.9l0.2-0.2
		c-1.2-1.8-1.9-2.6-2.1-2.4c-0.5,0.5-1.1,0.6-1.8,0.4c-0.6-0.1-1-0.5-1.3-1.2c-0.3-0.7-0.2-1.7,0.3-2.9l0.8-2.2h0.1l0.4,0.8l0.1,0.3
		c0,0.5,0.4,0.7,1,0.6c0.6-0.1,0.9-0.3,1.1-0.7c0.1-0.2,0.2-0.6,0.1-1v-0.2c0-0.1,0-0.2,0.1-0.2h0.1c0.2-1.4,0.2-2.7-0.1-3.9
		l-0.1-0.4c-0.3,0-0.5-0.4-0.6-1.2l-0.2-0.4l-1.2-0.1c-0.6,0.3-0.8,0.7-0.8,1.2v0.4l-0.2,0.1h-0.1l-0.3-0.5l-1.4-2.3
		c-0.6-0.9-0.9-1.8-0.7-2.5c0.1-0.7,0.4-1.1,1-1.3c0.6-0.3,1.2-0.2,1.8,0.1c0.2,0.1,0.7-0.6,1.3-2.1l0.6-1.4L136.6,127.2
		 M126.9,107.8l-1.3-0.6c-1.8,4.7-4.3,8.6-7.6,11.8c-2.8,2.3-6.2,4-10.2,4.9l5.2-0.2c2.2-1,4.2-2.2,6-3.7
		C122.4,116.8,125.1,112.7,126.9,107.8 M121.8,122.8c4.8-3,8.6-7.5,11.4-13.5l-1.5-0.2c-2.7,5.6-6.3,9.8-10.7,12.5L121.8,122.8
		 M19.3,170.9c-3.3,0-6-0.5-8.3-1.6l-2-1.3v2.4c0,1.1,1,2,2.9,2.9c2.1,1,4.6,1.4,7.4,1.4l4.6-0.5v-3.7L19.3,170.9 M35.7,168.4
		c0.7,0.5,1.7,0.9,3.1,1.3c3.1,1,7,1.4,11.5,1.4c4.5,0,8.4-0.5,11.5-1.4c2.8-0.9,4.2-1.8,4.2-2.8v-2.8l-30.3-5.3V168.4 M38.5,171.1
		l-2.8-1.1v3.6c0.7,0.4,1.7,0.9,3.1,1.3c3.1,1,7,1.5,11.5,1.5c4.6,0,8.4-0.5,11.5-1.5c2.8-0.9,4.2-1.8,4.2-2.8v-2.8
		c-0.9,0.7-2.3,1.3-4,1.8c-3.3,1-7.2,1.5-11.7,1.5C45.7,172.6,41.8,172.1,38.5,171.1 M36.2,172.7v-1.4c1.3,0.7,3.2,1.2,5.5,1.6v1.2
		C39.5,173.8,37.7,173.3,36.2,172.7 M63.9,171.2v1.4c-1.4,0.6-3.2,1.1-5.2,1.4v-1.2C60.9,172.5,62.7,171.9,63.9,171.2 M50,174.9
		l-6.2-0.4v-1.3l6.2,0.4l6.5-0.4v1.3L50,174.9 M29,157.8l-3.6-0.6v34.8l3.6,0.8V157.8 M34.2,158.6l-3.7-0.7v34.8
		c1.2-0.6,2.5-1.2,3.7-1.8V158.6 M19.3,143.1c-3.3,0-6-0.6-8.3-1.7c-0.8-0.4-1.5-0.8-2-1.3v25.1c0,1.1,1,2,2.9,2.9
		c2.1,0.9,4.6,1.3,7.4,1.3l4.6-0.4v-12.2l-7.4-1.3c-0.4-0.1-0.6-0.3-0.6-0.6v-6.9l13.7-6.6v-1.4c-0.5,0.4-1.2,0.8-2,1.2
		C25.4,142.5,22.6,143.1,19.3,143.1 M9.8,135.4H8.9v2c0,1,1,2,2.9,2.9c2.1,0.9,4.6,1.3,7.4,1.3c2.9,0,5.4-0.4,7.5-1.3
		c1.9-0.9,2.9-1.9,2.9-2.9v-2.5l-2,1.2c-2.3,1.1-5,1.7-8.4,1.7c-3.3,0-6-0.6-8.3-1.7L9.8,135.4 M60,127.2v-1l-0.1,1.1L60,127.2
		 M55.3,105.1c-0.2-0.5-0.6-1-1.3-1.4c-0.5-0.3-1.2-0.5-2-0.7v1.6c0,0.7-0.7,1-2,1c-1.1,0-1.8-0.3-2-0.8v-1.6h-1.2l0.1,0.2
		c-1,0.4-1.6,0.9-1.8,1.6l-0.1,0.3c0,0.6,0.5,1.2,1.5,1.7c1,0.6,2.3,0.9,3.7,0.9c1.5,0,2.7-0.3,3.7-0.9c1-0.5,1.5-1,1.5-1.7
		L55.3,105.1 M77.8,119.9L77.8,119.9l-0.3-0.1l-59.1,28.5l49.4,8.6h0.1l55.8,9.8c-0.9-1.3-1.6-2.5-2.2-3.8c-0.9-1.9-1.4-3.6-1.3-5.1
		l0.1-0.2l1-0.6c0.3-0.3,0.1-0.6-0.7-0.8l-1.3-0.2c-1.1-0.3-1.9-0.7-2.5-1c-0.5-0.4-1.1-0.6-1.8-0.6l-0.6,1.1l0.4,0.7
		c0.1,0.4,0.1,0.7,0,0.8c-0.5,0.6-1.1,1.1-2,1.7l-4.1,2.2c-1,0.5-1.6,0.6-1.9,0.5c-0.1-0.1-0.3-0.4-0.4-0.7l-0.1-0.8
		c0.7-4.1,1.9-6.9,3.5-8.4c0-0.1,0.1-0.1,0.2-0.1l1.1,0.4c0.5,0,0.8-0.1,1-0.4c0.2-0.3,0.1-0.7-0.1-1.2l-0.7-1.1l-0.2-0.5
		c-0.3-0.7-0.6-1.1-0.8-1.4c-0.4-0.4-0.8-0.5-1.3-0.2c-0.6,0.3-0.8,0.8-0.8,1.4l-0.2,0.2l-3.2-0.2l-4.3-1.3
		c-0.5-0.2-0.9-0.4-1.2-0.7c-0.1,0.1-0.2,0-0.3-0.3l-0.2-0.6c0-0.3,0-0.5,0.1-0.6h-0.1c1.2-1,2.5-1.9,3.9-2.5
		c0.9-0.4,1.7-0.8,2.4-0.9l-0.2-1.1l0.1-0.1l-0.1-0.1c-0.3-1.4-0.7-2.6-1.2-3.6v0.6c0.1,0.2,0,0.5-0.1,0.7c-0.2,0.2-0.4,0.3-0.6,0.4
		l-0.1,0l-0.7-0.2c-0.2-0.1-0.4-0.3-0.4-0.5l-1-1.3l-0.1,0l-1.2-1.5c-0.8-1.1-1.3-2-1.5-2.5v0c-0.4-0.9-0.7-1.6-0.7-2.3v-0.2
		l0.1,0.1l0.1-0.5v-0.1c0.2-0.8,0.6-1.5,1-2.1c0.1-0.2,0.3-0.3,0.5-0.4l0.6,0.1c0.2,0.1,0.4,0.2,0.5,0.4l1,1.8
		c0.5,0.6,1.1,0.8,1.8,0.7l0.6-0.2l-0.1-0.2v-0.4c-0.2,0.4-0.5,0.6-0.9,0.6c-0.6,0-1-0.4-1.2-1l-2.1-5.2L77.8,119.9 M80.9,131v-0.6
		c0.1-0.3,0.2-0.5,0.2-0.5v-0.1c1.5-0.5,3.1-0.8,4.6-0.8c1.9-0.1,3.4,0.1,4.6,0.6c0.2,0.1,0.2,0.4,0.2,0.9c-0.1,0.7,0.2,1,0.8,1.1v0
		c0.3-0.4,0.5-0.3,0.6,0.5c0.1,0.9-0.1,1.8-0.3,2.7c-0.3,1-0.7,1.3-1.1,0.9l-0.6-0.1c-0.6,0.1-1,0.4-1.3,0.9l-0.2,0.2
		c-0.9-0.2-1.9-0.7-3-1.5l-3.4-2.9l-0.8-0.9C81,131.5,80.9,131.3,80.9,131 M65.2,140.1c0-0.1,0.1-0.2,0.2-0.2c0.9-0.1,2,0.1,3.3,0.5
		l3,1.4c0.3,0.1,0.7,0.3,1.2,0.5s0.8,0.5,1,0.8c0.1,0,0.2,0.1,0.3,0.4l0,0.6l0,0.6v0.1c-1.3,0.8-2.7,1.5-4.2,2.1
		c-1.7,0.6-3.2,0.9-4.6,0.7c-0.1,0-0.2-0.3-0.3-0.8c-0.1-0.6-0.5-0.9-1.1-0.9c-0.3,0.4-0.5,0.3-0.8-0.3c-0.3-0.8-0.5-1.7-0.5-2.6
		c0-1,0.3-1.5,0.9-1.3h0.5C64.8,141.1,65.1,140.7,65.2,140.1 M77.3,142.3c-0.2,0.1-0.3-0.2-0.5-0.9c-0.1-0.3-0.1-0.5,0.1-0.5v-0.1
		c1.2-1,2.5-1.8,3.9-2.6c1.7-0.8,3.1-1.2,4.3-1.2c0.1,0,0.3,0.2,0.4,0.8c0.2,0.6,0.6,0.9,1.3,0.8c0.2-0.5,0.4-0.4,0.7,0.2
		c0.4,0.8,0.6,1.6,0.8,2.5c0.1,1.1-0.2,1.5-0.7,1.4l-0.5,0.2c-0.6,0.3-0.9,0.8-0.9,1.3c0,0.2,0,0.3-0.2,0.3l-3.2-0.1l-4.4-1.4
		C78,142.8,77.6,142.5,77.3,142.3 M86.8,140.1h-0.1c-0.5-0.2-0.9-0.7-1.3-1.5c-2,0-4.3,1-7,2.8c3,1.3,5.3,1.7,7.2,1.4v-0.1l0.2-0.6
		l0.2-0.5c0.3-0.3,0.6-0.5,0.9-0.5v-0.1L86.8,140.1 M65.7,141.4v0.2l-0.3,0.7l-0.2,0.3l-0.9,0.5l0,1c0.5,0.2,0.9,0.7,1.2,1.6
		c2.1,0.2,4.5-0.5,7.2-2C70,142.1,67.7,141.3,65.7,141.4 M90,131.9l-0.1-0.7c-1-0.4-2.2-0.6-3.6-0.6l-3.9,0.6c2.2,2.2,4.2,3.6,6,4
		l0.2-0.1l0.4-0.6l0.9-0.5h0.4l0.2-0.9v0C90.3,132.8,90.1,132.4,90,131.9 M61.8,120.7c2.2-0.6,3.6-1.4,4.2-2.2v-4
		c0-2-0.9-3.8-2.8-5.4c-1.6-1.4-3.7-2.5-6.3-3.2c-0.2,1-0.8,1.8-1.9,2.5c-1.3,0.8-2.9,1.1-4.8,1.1c-1.8,0-3.4-0.4-4.7-1.1
		c-1.2-0.7-1.8-1.5-1.9-2.5c-2.6,0.7-4.7,1.8-6.4,3.2c-1.8,1.6-2.8,3.4-2.8,5.4v4c0.6,0.8,1.9,1.6,4,2.2c3.1,1,7,1.5,11.7,1.5
		C54.9,122.2,58.7,121.7,61.8,120.7 M65.4,124.6c-0.3-0.3-0.6-0.3-1-0.1c-0.2,0.2-0.3,0.5-0.3,0.8L65.4,124.6 M66,119.5
		c-0.8,0.7-2.2,1.4-4.2,2c-3.3,0.9-7.1,1.3-11.5,1.3s-8.2-0.4-11.5-1.3c-1.9-0.6-3.3-1.3-4.2-2v19.9l12.9-6.2v-8.2l1.5,0.2v6.4
		l1.1,0.1v0.3l3-1.3l0-1.3c0-1.2,0.2-2.2,0.5-3c0.4-1,1-1.5,1.8-1.6c0.9-0.1,1.6,0.6,2,1.8l-1.5,1.1l-0.2-0.6l-0.3-0.3
		c-0.5,0.1-0.7,1-0.7,2.7l0.1,0.4l0.5-0.3v-1.1l2.2-0.2v0.2l1.1-0.5l0.6-3.6l1.9-0.4l0.5,2.6l1.1-0.5c0-0.6,0.2-1.2,0.4-1.8
		c0.3-0.8,0.7-1.4,1.3-1.8l1.2-0.5v2.6l0.6-0.2V119.5 M46.4,124.8v2.1l-1.4-0.1v1.2l1.2,0.1v2L45,130v1.3l1.4,0.1v2l-3-0.2v-8.5
		L46.4,124.8 M41,124.2l1.5,0.2v5.6c0,2.1-0.7,3-2,2.8c-1.3-0.3-1.9-1.5-1.9-3.7v-5.5l1.5,0.3l0,6.1l0.3,0.5c0.2,0,0.3-0.1,0.4-0.3
		L41,124.2 M36.2,122.7l1.5,0.6v2l-1.2-0.5v1.2l1.1,0.4v2.1l-1.1-0.4v3.2c-0.8-0.4-1.4-0.8-1.6-1.3v-8.5
		C35.2,122,35.6,122.4,36.2,122.7 M63,99.8l-0.8,0.3l-2.2,0.1c-0.3,0.5-0.8,0.7-1.2,0.7h0c-0.5,0-1-0.2-1.3-0.5l-2.5,0.2
		c-0.3,0-0.5-0.1-0.6-0.2c0.2,0.8,0.7,1.5,1.3,2.1c0.9,0.8,1.9,1.1,3,1.1l2.1-0.4l0.4-0.2l1.3,1.9c0.1,0.2,0.3,0.2,0.4,0.2l0.2-0.2
		c0.2-0.1,0.2-0.2,0.2-0.4l-1.3-2l0.2-0.3c0.6-0.7,1-1.4,1.2-2.2L63,99.8 M74.1,109.5c-0.6-1.7-1.5-2.9-2.9-3.7
		c-1-0.6-2.4-0.9-4.4-0.9l-2.7-0.1c-0.1,0.3-0.3,0.5-0.6,0.7l-0.2,0.2l-0.2,0.1c1.1,0.5,2.3,0.8,3.7,0.7c1.9-0.1,3.1,0.1,3.8,0.6
		c0.9,0.5,1.6,1.5,2.1,2.9l1,4.1c0.5,2.3,1.2,4.2,2.1,5.7l1.3-0.7h0.1c-1.2-1.5-1.9-3.3-2.1-5.3C74.8,111.8,74.4,110.4,74.1,109.5
		 M59.6,98.9l-0.1-0.1c-0.1-0.4-0.4-0.6-0.8-0.6c-0.4,0.1-0.8,0.3-1,0.7l-0.1,0.2l-2.8,0.1c-0.2,0-0.3,0.1-0.2,0.3
		c0,0.2,0.1,0.3,0.2,0.3l3-0.1l0.1,0.1c0.2,0.3,0.5,0.4,0.9,0.4c0.4,0,0.6-0.1,0.8-0.4l0.1-0.1l2.6-0.2c0.2,0,0.3-0.1,0.3-0.3
		c0-0.2-0.1-0.3-0.3-0.3L59.6,98.9 M58.8,90.9c0.4-0.4,0.7-0.8,0.7-1.4c0-0.5-0.2-1-0.5-1.3c-0.4-0.4-0.8-0.6-1.4-0.6
		c-0.5,0-1,0.2-1.3,0.5c-0.5,0.3-0.7,0.7-0.7,1.3c0,0.5,0.1,1,0.5,1.4c0.3,0.3,0.7,0.5,1.2,0.6h0.5l0.3,2.9l-0.5,0.1
		c-0.8,0.2-1.5,0.5-2.1,1.1c-0.6,0.5-1,1.2-1.3,1.9L54,97.9h-3v-2.6h-1.9v5.6l-0.8-0.3l-0.5-0.2h-1.9c-0.5,0-0.8,0.2-0.9,0.5
		l-0.2,0.4h-2l-0.1,0.1l0.1,0.1h2.1l0.1,0.2c0.2,0.3,0.5,0.4,0.9,0.4h1.9l0.5-0.1l0.8-0.6v2.9l1,0.2l1-0.1v-5.9h2.9v0.2l0-0.1
		c0.2-0.2,0.4-0.3,0.8-0.4l2.4-0.1c0.3-0.5,0.8-0.8,1.5-0.9h0.1c0.5,0,1,0.2,1.3,0.7l2.1,0c0.3,0,0.6,0.1,0.7,0.2
		c0.1,0.1,0.2,0.2,0.2,0.4c-0.1-1.2-0.5-2.2-1.3-3l-0.2-0.4l1.7-2.2l0.9,0.2c0.5,0,1-0.2,1.3-0.5c0.4-0.4,0.6-0.9,0.6-1.4
		c0-0.6-0.2-1-0.6-1.4c-0.4-0.4-0.8-0.6-1.3-0.6c-0.5,0-1,0.2-1.4,0.6c-0.4,0.4-0.6,0.9-0.6,1.4c0,0.5,0.2,0.9,0.5,1.2l0.2,0.4
		l-1.6,2.1l-0.4-0.2c-0.6-0.4-1.3-0.6-2-0.6h-0.4L58,91.4l0.4-0.2L58.8,90.9 M47,93.5c0.8,0.3,1.7,0.4,2.8,0.4c1,0,2-0.2,2.8-0.4
		c0.7-0.2,1-0.5,1-0.7c0-0.2-0.3-0.5-1-0.7c-0.8-0.3-1.7-0.5-2.8-0.5c-1.1,0-2,0.1-2.8,0.5c-0.7,0.2-1,0.5-1,0.7S46.4,93.3,47,93.5
		 M19.3,75.3c-1.7,0-3.2-0.3-4.4-0.9c-0.8-0.5-1.4-1-1.8-1.6c-1.2,0.8-2.2,1.8-2.9,3c-0.9,1.4-1.3,3-1.3,4.6v51.8c0,1,1,2,2.9,2.9
		l1.1,0.4c1.8,0.6,3.9,1,6.3,1c2.9,0,5.4-0.4,7.5-1.4c1.9-0.9,2.9-1.8,2.9-2.9V80.4c0-1.7-0.4-3.2-1.2-4.6c-0.7-1.2-1.7-2.2-2.9-3
		c-0.3,0.6-0.9,1.1-1.7,1.6C22.5,75,21,75.3,19.3,75.3 M17.1,90.8c0-1.7,0.7-2.5,2.1-2.5c0.8,0,1.4,0.3,1.8,0.9
		c0.3,0.5,0.5,1.1,0.5,1.9c0,0.8-0.2,1.5-0.5,2.1c-0.4,0.8-1,1.1-1.8,1.1c-0.7,0-1.3-0.4-1.7-1.2C17.3,92.4,17.1,91.6,17.1,90.8
		 M19.3,97.3l0.4-1.4l1.8-0.2l-1.3,3.1l1.4,2.8l-1.7,0.2l-0.6-1.6l-0.5,1.6l-0.9-0.1c-0.4,0-0.6-0.2-0.8-0.4
		c0.3-0.2,0.6-0.5,0.8-1.1l0.6-1.4l-1.3-3.2c0.2,0.1,0.5,0.2,0.9,0.3l1,0.1L19.3,97.3 M20.6,120.8v1.3l-1.1,0.1v0.8l1.3,0v1.4
		l-2.9-0.1v-5.8c0.9,0.2,1.9,0.2,2.9,0v1.4l-1.3,0.1v0.8L20.6,120.8 M21.5,113.3v0.2c0,2.3-0.7,3.4-2.1,3.4c-0.8,0-1.4-0.4-1.8-1.2
		c-0.3-0.6-0.5-1.3-0.5-2.2c0-1.7,0.8-2.6,2.2-2.6c1,0.1,1.6,0.4,2,1.1c-0.3,0.2-0.8,0.5-1.5,0.8c0-0.4-0.1-0.6-0.4-0.6
		c-0.4,0-0.7,0.6-0.7,1.7c0,1,0.2,1.4,0.6,1.4c0.4,0,0.5-0.3,0.5-0.8h-0.6v-1.2L21.5,113.3 M17.9,103.4l0.9,0.1l0.5,1.9l0.6-1.8
		l1.6-0.2l-1.3,3.6v2.4h-1.6v-2.5l-1.4-3.7C17.4,103.3,17.6,103.4,17.9,103.4 M20,129.8L20,129.8l-0.1-3.5l1.5-0.2v5.8l-1.5,0.3
		l-1.2-3.3l0.1,3.2l-1.5-0.3v-5.7l1.4,0.2L20,129.8 M18.7,91.2c0,1,0.2,1.6,0.6,1.6c0.4,0,0.7-0.5,0.7-1.6s-0.2-1.6-0.7-1.6
		C18.9,89.7,18.7,90.2,18.7,91.2 M23.4,69.8c-0.6-0.4-1.2-0.6-2-0.8v1.6c0,0.7-0.7,1-2,1c-1.2,0-1.9-0.3-2.1-0.8v-1.8
		c-0.9,0.2-1.6,0.5-2.1,0.8c-0.7,0.4-1,0.9-1,1.5v0.2c0.1,0.6,0.6,1.1,1.6,1.6c1,0.5,2.2,0.8,3.5,0.8c1.4,0,2.6-0.3,3.6-0.8
		c0.9-0.5,1.5-1,1.6-1.6v-0.2C24.5,70.8,24.1,70.3,23.4,69.8 M40.3,56.5l-0.1,0.6l10.9-0.6c4.7,0.1,8.4,1.2,11.1,3.3
		c2.4,2.2,4,5.6,4.9,10.4l1,6.1c0.4,2.5,0.8,4.5,1.3,6.1c2.4,9.4,5.4,17.1,9,23.2c4.6,7.7,10.2,13.1,17,16.4l3.3,0.5l-0.3-0.6
		l-1.3-0.8c-7-3.1-12.8-8.6-17.4-16.4c-3.5-5.9-6.4-13.5-8.8-22.8c-0.5-1.5-1-3.5-1.4-6l-0.9-6.1c-0.9-5-2.7-8.7-5.4-11.3
		c-3-2.4-6.9-3.7-11.9-3.7l-11,0.6l0.1,0.4V56.5 M31,47.8c-0.8,0-1.6,0.1-2.2,0.4c-0.6,0.3-0.9,0.6-0.9,0.9c0,0.4,0.3,0.8,0.9,1.1
		c0.6,0.3,1.2,0.4,2,0.4h0.5l0.8-0.1c0.4-0.1,0.8-0.2,1.2-0.4c0.5-0.3,0.8-0.6,0.8-1c0-0.3-0.3-0.6-0.8-0.9
		C32.5,47.9,31.8,47.8,31,47.8 M19.3,48.2l-0.9-0.1v4L18,52.2c-1.5,0.5-2.5,1.5-3,2.9l-0.1,0.4H9.4v-0.9H7.2c-0.4,0-0.8,0.2-1.1,0.5
		c-0.3,0.3-0.4,0.7-0.4,1.1v0.2c0,0.5,0.1,0.8,0.4,1.1c0.3,0.3,0.7,0.5,1.1,0.5h2.2v-0.7h5.4l0.1,0.4c0.2,0.8,0.6,1.4,1.1,2
		c0.6,0.5,1.2,0.9,2,1.1l0.4,0.1v9.3h1.9v-9.3l0.4-0.1l2-1.1c0.5-0.6,0.8-1.3,1-2l0.1-0.4H28l0.1,0.4c0.3,0.6,0.6,1,1.1,1.4
		c0.6,0.3,1.2,0.5,1.8,0.5c0.6,0,1.2-0.2,1.7-0.5c0.5-0.4,0.9-0.8,1.2-1.4l0.2-0.4H36l0.3-0.2l0.2-0.4h2.4l0.3-0.3v-0.4
		c0-0.2-0.1-0.3-0.3-0.3h-2.4L36,55.6h-2l-0.2-0.4c-0.4-0.9-1.2-1.5-2.2-1.7l-0.4-0.1v-1.8h-0.4v1.8l-0.4,0.1
		c-1.1,0.3-1.9,0.9-2.2,1.8l-0.1,0.4h-4.4l-0.1-0.4c-0.2-0.7-0.6-1.3-1.1-1.8c-0.5-0.5-1.1-0.9-1.8-1.1l-0.4-0.1v-4.1L19.3,48.2
		 M31.2,54.6c0.6,0,1.2,0.2,1.6,0.6c0.4,0.5,0.7,1,0.7,1.7c0,0.6-0.2,1.2-0.7,1.7c-0.5,0.5-1,0.7-1.6,0.7c-0.7,0-1.3-0.2-1.8-0.7
		c-0.4-0.5-0.7-1-0.7-1.7c0-0.7,0.2-1.2,0.7-1.7C29.9,54.8,30.5,54.6,31.2,54.6 M22.8,57c0,1-0.4,1.9-1,2.6s-1.5,1-2.5,1.1
		c-1,0-1.9-0.4-2.5-1.1C16,58.9,15.6,58,15.6,57c0-1,0.4-1.8,1.1-2.6c0.7-0.7,1.5-1,2.5-1c1,0,1.8,0.3,2.5,1
		C22.4,55.2,22.8,56,22.8,57 M21,58.8c0.5-0.5,0.7-1.1,0.7-1.8c0-0.7-0.2-1.3-0.7-1.8c-0.5-0.5-1.1-0.8-1.8-0.8
		c-0.7,0-1.3,0.2-1.8,0.8c-0.5,0.5-0.8,1.1-0.8,1.8c0,0.7,0.2,1.3,0.8,1.8c0.5,0.5,1.1,0.8,1.8,0.8C19.9,59.6,20.5,59.3,21,58.8
		 M32.1,57.9c0.2-0.2,0.4-0.5,0.4-0.9c0-0.3-0.1-0.6-0.4-0.9c-0.3-0.3-0.6-0.4-0.9-0.4c-0.4,0-0.7,0.1-0.9,0.4
		c-0.3,0.3-0.4,0.6-0.4,0.9c0,0.4,0.1,0.7,0.4,0.9c0.2,0.3,0.5,0.4,0.9,0.4C31.5,58.2,31.8,58.1,32.1,57.9 M16.9,46.5
		c0.4,0.2,0.9,0.4,1.5,0.5l1.3-0.1h0.2c0.3,0.1,0.6,0.1,0.9,0l0.4,0l0.8-0.5c0.3-0.2,0.5-0.5,0.5-0.8c0-0.3-0.3-0.7-0.9-1
		c-0.6-0.3-1.3-0.5-2.2-0.5c-0.8,0-1.5,0.2-2.1,0.5c-0.6,0.3-0.9,0.6-0.9,1C16.3,45.9,16.5,46.2,16.9,46.5 M137.2,65.5
		c0.3-0.6,0.7-1.1,1.1-1.6l0.2-1.9l-2.6-0.3c-0.3,0.1-0.4,0.5-0.4,1.1c0.1,0.5,0.3,1.1,0.7,1.8L137.2,65.5 M125.2,67.6l-0.3,0.1l1,4
		c0.8,4.3,1.5,9.9,2.1,16.8l0.1,1.4l1.4-0.9l0-0.7c-0.6-6.9-1.3-12.5-2.2-16.9c-0.3-1.6-0.5-2.8-0.8-3.7L125.2,67.6 M123.8,65.6
		c-0.7,0.2-1.3,0.6-1.9,1.2c-0.6,0.5-1,1.2-1.3,1.8l1.1,0.8c0.5-1.3,1.4-2.1,2.8-2.3l0.7-0.2h1.1l0.8,0.1c1.2,0.3,2.2,0.9,3.2,1.9
		c2.6,2.4,4.5,5.8,5.5,10.3c0.5,2,0.8,4,0.9,5.9l1.5-0.5c-0.2-2-0.6-3.9-0.9-5.8c-1.1-4.7-3.1-8.4-6-11.1c-1.6-1.3-3.2-2.1-4.8-2.3
		l-0.7-0.1c-0.2-0.1-0.4-0.1-0.7,0L123.8,65.6 M144.4,60.1l0.4,1.2l5.2-1.9v-0.1l0.9-0.3c0.4-0.2,0.6-0.5,0.6-0.9l0.2-0.8
		c-1.1,0.1-2.4,0.4-3.9,1.2L144.4,60.1 M118.8,86.9l0.5,0.7c0.9,1.2,1.4,2.5,1.5,4c0.1,1.6,0.1,3-0.2,4.1c-0.5,1.6-1.4,2.4-2.8,2.5
		c-0.2,0-0.3-0.1-0.4-0.4c-0.4,0.5-0.9,0.8-1.8,0.9l-2.2-0.1l-0.6,0l9.7,5.7c1.6,0.9,3.1,1.6,4.4,2c3.2,1,6.5,1.5,9.8,1.4
		c3.8-0.1,6.8-1,9.1-2.6l0.9-6c0-0.2,0.1-0.1,0.4,0.3l0.2,1.1l-2.4,16.7c2.3,2,4.8,3.5,7.2,4.6c0.6,0.2,0.9,0,0.9-0.5l-0.1-1.5
		l0.1-3.2c0.2-2.3,0.4-4.1,0.6-5.2c0.4-2.4,1-5.4,1.8-8.8l2.1-7.6c-1.8-1-3-1.8-3.8-2.4c-1.1-1-2-2.2-2.6-3.6
		c-1.3-0.5-2.5-1.3-3.8-2.2l-2.3-1.9c-4.7,0.2-10.1,2.3-16.4,6.4l0.5,0.2c1.2,0.4,2.2,0.6,3.1,0.4c0.2,0,0.4,0.2,0.6,0.8
		c0.1,0.5,0.1,0.8-0.1,0.9c-1.4,0.2-3.2-0.3-5.5-1.5L118.8,86.9 M116,85.8c-0.2,0-0.3-0.2-0.3-0.4l-3.3,8c-0.1,0.1-0.2,0-0.2-0.2
		c-1.1,0.7-1.9,1.4-2.5,2c-0.9,0.8-1.4,1.5-1.7,2.1c-0.1,0.3,0,0.6,0.3,0.9l1,0.6l0.1,0.1l0.9,0.1c0.3-0.1,0.6-0.2,1-0.5l0.8-0.5
		l1.2-0.2l1.2,0.2c1.3,0.1,2.1-0.2,2.6-0.9c0-0.3,0-0.4,0.2-0.4h0.1l0.2-1c0.2-1.4-0.2-2.8-1.3-4.3l-0.1-0.5c0-0.3,0-0.4,0.1-0.3
		c0.7,1,1.3,2.1,1.6,3.3c0.3,1,0.3,1.9,0.2,2.6c0.7-0.2,1.2-0.7,1.6-1.5s0.6-1.8,0.5-3.1c0-1.2-0.4-2.3-1.1-3.3l-2.5-2.5l-0.2-0.2
		L116,85.8 M116.2,82.6c-0.3-0.6-0.8-1-1.5-1.1l-2,0.2v0.2l-4.4,9.8c-1,1-1.3,2.8-1.1,5.4l0,1.6l-1.2,0.1l-0.9-0.4
		c0.3,0.7,0.2,1.1-0.2,1.2l-0.4,0.1l-0.1,0.2l-2.4,5.3c1.5-0.3,2.8,0.2,4,1.5c0.1-0.3,0.3-0.9,0.8-1.7l2.3-5.5
		c-0.8-0.5-1.3-1.1-1.4-2c0-0.4,0.1-0.8,0.3-1.2c0.7-1.2,2.1-2.5,4.2-3.9L116.2,82.6 M101.1,89.4c-0.8,0.8-1.4,1.7-1.7,2.8
		c-0.4,1.2-0.4,2.2,0.1,3.1c0.3,0.9,0.8,1.6,1.6,2.2c0.7,0.6,1.4,1,2.2,1.1l1.3,0.1l-0.1-0.4l-0.5-0.5c-1.5-1-2.1-2.6-1.8-4.8
		c0-2.1,1-4.1,3-5.9c0.1,0,0.2,0.1,0.2,0.4l-0.1,0.4c-0.8,0.7-1.5,1.5-2,2.4c-0.6,1-0.9,2-1,3l0.3,1.3c0.3,0.7,0.7,1.4,1.3,2.2
		l0.1,0.2c1.1,0.7,1.9,1,2.6,1c0.2,0,0.2-0.6,0-1.9c-0.1-2,0.1-3.5,0.7-4.6l0.1-0.3l3.1-6.6c-6.1,0.2-10,1.6-11.7,4.2
		c-0.9,1.4-1.3,2.9-1.4,4.6c0,1.9,0.6,3.2,2,3.9l0.9,0.4c-0.8-0.9-1.3-2-1.6-3.2c-0.2-1-0.1-2.1,0.3-3.2c0.3-1,0.9-2,1.7-2.8
		l0.2,0.3V89.4 M119.3,69.1c-1.2-0.2-2.1,0.1-2.5,1.1L112,80.9c-0.1,0.2,0,0.2,0.4,0.1c0.2-0.2,0.4-0.3,0.7-0.4l1.3,0
		c0.5,0,0.9,0.2,1.2,0.5l0.7,1c0.4,0.5,0.6,0.7,0.8,0.7l4.7-10.2c0.3-0.7,0.3-1.3,0-1.8l-0.5-0.6l-0.9-0.7L119.3,69.1 M119.5,68.2
		l0.3,0.1l1.4-3.1c0.4-0.7,0.8-1.2,1.1-1.4c0.4-0.3,0.7-0.2,0.9,0.2l0.5,0.8l1.2-0.2h0.4l-1.1-1.7c-0.2-0.3-0.6-0.6-1.2-0.8
		c-0.7-0.1-1.2,0.1-1.6,0.4c-0.5,0.4-1,1-1.5,1.9c-0.5,0.8-1,2-1.5,3.5L119.5,68.2 M194.4,182.9l-0.1-0.1c-1,0.7-2.1,1.3-3.3,1.8
		c-1.7,0.6-3.4,0.9-5.1,0.9l-2.6-0.1v2.1c0.5,0.7,1.2,1.3,2.1,1.9c1.9,1.3,3.8,2,5.6,2.1c2,0.2,3.4-0.9,4.2-3.2
		C196.3,185.8,195.9,184.1,194.4,182.9 M163.3,182.1l0.1-0.7l-4.9,0.9c-2.5,0.3-4.7,0.4-6.5,0.1l-2.6-0.6c-0.6-0.2-1-0.4-1.2-0.8
		l-0.2,0.1l-2.2,0.9v5.2c1.6-0.1,3.2-0.3,4.8-0.7c2.6-0.7,5-1.7,7.2-3l0.2,0.1l0.6,0.8c0.2,0.2,0.5,0.3,0.9,0.2
		c1.1-0.2,2.1-0.5,2.9-0.9C162.8,183.4,163.2,182.9,163.3,182.1 M181.9,154.4l-3.6,1.8v37.9l3.6-1.8V154.4 M163.8,163.5v-0.4
		l-17.7,8.6l1.8,7.8l0.2,0.1l1.7,0.7c1.2,0.4,2.6,0.6,4.1,0.6l10.4-1.4h0.1l-0.1-0.1l-0.1-2.1C163.9,171.2,163.8,166.6,163.8,163.5
		 M171.8,159.4l-2.2,1l2.2,7.1V159.4 M176.9,156.9l-3.8,1.8v33.7l3.8,1.8V156.9 M188.7,151.2l-5.2,2.6v29.8l2.8,0.1
		c2.5-0.1,4.7-0.7,6.8-1.9l1.6-1.1c0.5-0.4,0.7-0.9,0.7-1.5c0.1-1.6-0.3-3.9-1.1-7.1c-2.3-8.7-3.9-14.9-4.8-18.4L188.7,151.2
		 M191.9,146.4c-0.6,0.3-1.2,0.5-1.8,0.4c-1-0.1-1.8-0.6-2.5-1.5l-31.6,15.1l0.1,0.1l-20.1,9.6l-0.1-0.1L17.1,149.3v5.2l118.7,20.8
		l57.1-27.4C192.5,147.6,192.2,147.1,191.9,146.4 M187.1,144.3l-0.2-0.4l-0.1-0.6v-0.1c-0.5-0.4-0.8-0.9-0.9-1.6l-48.8,4.4
		c0.1,0.8-0.1,1.3-0.6,1.8c-0.5,0.4-1.1,0.5-1.8,0.2c-0.3-0.1-0.6-0.4-0.8-0.8c-0.2,0.8-0.5,1.7-0.9,2.5l1.1,0.1
		c0.4-0.1,0.7-0.3,1-0.5h0.1c0.9,0.6,1.9,1.8,3.1,3.6l2.1,4.2l-0.1-0.1l0.4,0.8c0.1,0.3,0,0.5-0.1,0.6l-1.9-0.1l-4.5-1.4
		c-1-0.4-1.7-0.9-2.3-1.4l-0.4-0.7c-0.1-0.3-0.1-0.6,0-0.8c0.3-0.6,0.2-0.8-0.4-0.7c-0.5,0.1-0.9,0.2-1.3,0.6
		c-0.9,0.7-1.6,1.1-2.2,1.3l-1.5,0.6c-0.8,0.3-1.2,0.5-1.2,0.7c-0.2,0.4,0.1,0.7,1,0.8c0.2,0,0.4,0.3,0.6,1c0.2,1.4,0.1,3-0.4,4.8
		c-0.4,1.3-0.9,2.6-1.5,4l11.2,1.9L187.1,144.3 M185.9,139.1v-2.5l-0.2-1l-48.8,4.4l0.4,1.6l0.1,0.8l-0.1,1.9l48.5-4.3L185.9,139.1
		 M186,133.9l-0.2,0.4v0.7l0.1,0.2l0.2,0.4c0.4,1.2,0.5,2.4,0.4,3.6l-0.2,1.4l0.2,0.8c0.2,0.5,0.6,0.6,1.2,0.3
		c0.6-0.3,0.9-0.7,1.1-1.2l0.1-0.1c0.2,0.2,0.5,0.3,0.8,0.3l0.2-0.3l0.4-0.5l0.6-1.1l0.5-1.3c0.3-1.1,0.1-2.1-0.6-3.1l-0.4-0.5
		c-0.8,0.2-1.4,0.4-1.8,0.8c-0.1,0.1-0.2-0.1-0.4-0.5c-0.2-0.4-0.5-0.6-1.1-0.6C186.5,133.5,186.2,133.7,186,133.9 M185.1,134.1
		l-0.1-0.2v-0.2l-0.6,0.5L185.1,134.1 M234,134.6c0.6-0.3,1-0.6,1.1-0.8c0.1-0.3,0.2-0.7,0.1-1.2v-0.2l-0.3-0.3l-1.1-0.4l-3-0.4
		l-2.8,0.2c0.4,1.4,0.5,2.8,0.4,4.3l2.8-0.2C232.3,135.5,233.2,135.1,234,134.6 M204.4,136.9l-0.1-0.4l-0.2,0.1
		c-1.5,0.4-2.9,0.2-4.3-0.6l-0.5-0.2c-1.6-0.9-2.8-2.2-3.7-3.9l-0.3-0.4c-0.4-0.9-0.8-1.8-1.1-2.6c-0.8-0.1-1.8,0.2-2.8,0.9
		c-0.8,0.6-1.5,1.4-2.1,2.3l0.1,0.1l0.2,0.1l0.1,0.2l1.4,1.2l0.3,0.6c0.4,0.8,0.6,1.7,0.6,2.9c0,0.6-0.1,1.2-0.3,1.8l-0.3,1.2
		l-0.2,0.5l-1.2,1.7l-1.1,1.2l-1.1,0.7l0.8,0.7l0.9,0.3c0.6,0.1,1.3,0,1.9-0.3l0.2-0.1h0c0.8-0.6,1.6-1.4,2.2-2.4l0.2-0.4l0.4-1.1
		c0.1-0.1,0.2,0,0.4,0.5v0.1l0.1,0.2l0.1,0.5l-0.1,0.1c-0.6,1.7-1.5,2.9-2.5,3.7c0.4,0.5,0.9,0.8,1.5,0.8h0.8l1-0.3l0.1-0.2l0.1-0.1
		l0,0l1-0.8c0.8-0.8,1.3-1.9,1.6-3.2c0.1-0.2,0.2-0.1,0.4,0.4c0.2,0.4,0.3,0.7,0.2,0.9c-0.3,1.5-0.9,2.7-1.9,3.7
		c0.9,0.3,1.8,0.1,2.8-0.8c0.9-0.7,1.6-1.6,2.2-2.7l1.2-2.5l0.2-0.8l0.1-0.1l0.4-1.2L204.4,136.9 M206.7,132.4l-1,2.7l-0.8,1.1
		c0.2,1,0.3,2,0.2,3.1l19.8-1.9c0.1,0,0.4,0.1,0.8,0.4l0.9,0.2l0.7-0.8v-0.9c0-0.3,0-0.4,0.1-0.4h0.2c0.3-1.6,0.3-3-0.1-4.4h-0.2
		c-0.3,0-0.5-0.3-0.6-1.1l-0.1-0.6l-1.2,0.1l-1.2,0.8L206.7,132.4 M168.6,95.7c-0.6,0.1-0.9,0.3-1.1,0.6l-1.9,10.8
		c-0.6,4.2-0.9,7.2-1,9.1c-0.3,3.1-0.4,5.9-0.1,8.3l1.8,0.3l5.7-0.5c2.2-0.4,4.3-0.9,6.1-1.6c2.5-1,4.7-2.3,6.5-3.7
		c0-4,0.3-7.7,0.9-11.1l-1.6-1c-0.2-0.1-0.4-0.4-0.4-1c-0.1-0.5-0.1-0.7,0.1-0.6l0.4,0.2c3.6,2,6.4,4.6,8.4,7.7
		c2.2,3.5,3.1,7.4,2.7,11.5c-0.1,1.2-0.3,2.3-0.5,3.1l-0.1,0.3c0.1,0.7,0.4,1.4,0.8,2.1l1,1.6c1.2,1.7,2.7,2.7,4.5,3.1l0.9,0.1h1.8
		l0.8-0.2l0.4-0.7l1.4-3.3c1.1-3.3,1.6-7.1,1.4-11.5c-0.1-4.6-1-9.2-2.7-13.9c-2.1-5.8-5.9-11.2-11.6-16l-1.2-0.9
		c-3.6-2.9-7.5-5.2-11.7-6.9c0.3,4.4-0.7,7.7-3,9.9C175.3,93.5,172.4,94.9,168.6,95.7 M179.7,81.2c-1.7-0.7-3.2-1.2-4.4-1.6
		c0.3,1.9-0.2,4-1.4,6.1c-1.6,2.7-3.8,4.6-6.5,5.7c-1.4,0.6-2.8,0.8-4.1,0.7c-1.4-0.1-2.6-0.7-3.7-1.7c-2.6,0.2-5.2-0.2-7.6-1.1
		c0.4,0.9,1.1,1.6,2.1,2.4c0.4,0.2,1.6,0.9,3.8,2.1c0.2,0,0.4,0.2,0.5,0.6l0.1,0.8l-2.7,10c-1,3.9-1.7,7.3-1.9,10.2
		c-0.2,2.5-0.3,4.9-0.2,7c0,0.7-0.1,1.1-0.4,1.2l-1.5-0.6c-2.4-1.2-4.8-2.7-7-4.6l-1.3,9.2c1.1,1.4,2.4,2.6,4.1,3.7l23.4,4.1
		l9.2-0.9c2-0.8,3.7-1.9,5.2-3.2c-0.4-3.7-0.7-7.1-0.7-10.2v-0.1c-1.9,1.4-4.1,2.5-6.5,3.4c-2.7,1-5.4,1.6-8.3,1.8l-2.7,0.2
		c-1.2,0.1-2.1-0.1-2.6-0.5c-0.3-0.3-0.5-0.7-0.7-1.3l-0.1-1.3c-0.2-3.1,0-7.7,0.7-13.7c0.3-3.4,0.8-6.9,1.4-10.5l0.9-4.6
		c0-0.2,0.4-0.4,1.1-0.6l1.4-0.2c3.4-0.9,5.9-2.1,7.4-3.8C178.9,87.8,179.8,84.9,179.7,81.2 M171.6,64.6l-0.3-0.1l-1.9-1.1v1.3
		c-0.1,1.4-0.3,2.2-0.6,2.4l-0.2,0.1c-3.2,1.6-5.4,2.6-6.8,2.8l-1.7,0.2c-2,0.2-3.8,0.1-5.4-0.4c-1.2-0.4-2.3-0.7-3.3-0.8l-0.1,2.1
		c-0.1,0.4,0.1,0.7,0.5,1l1.8,1.1l0.3,0.4l-0.2,0.4c-0.5,0.6-1,0.7-1.6,0.4l-2.3-1.5c-0.3-0.3-0.5-0.6-0.4-1.1l0.8-2.8
		c-0.5,0.1-0.9,1-1.1,2.8l-0.4,1.5c-0.4,0.8-1.3,1.6-2.7,2.4l-2.9,1.5l-1.4,0.1c0.9,1.9,2.1,3.7,3.5,5.4c1.8,2.1,3.9,3.8,6.2,4.9
		c2.5,1.3,5.1,2,7.8,2.1c2.6,0.1,4.8-0.2,6.6-0.9l2.1-1.1h0.2c0.1,0.1-0.2,0.5-1.1,1.2c-0.9,0.7-1.5,1.1-2,1.3l-0.1,0
		c0.6,0.2,1.3,0.1,2.1-0.3c1.9-0.7,3.5-2.1,4.9-4.1c1.5-2.1,2.1-4,1.7-5.7c-0.9,1.4-1.8,2.2-2.7,2.5c-0.3,0.2-0.4,0.2-0.5,0
		c-0.1-0.1,0-0.3,0.2-0.6c2.1-3,3.5-6.7,4-10.9l0.6-0.1c1.8-0.7,2.8-2.1,2.8-4.2c0.1-2.1-0.9-3.4-2.9-3.9l-0.2-0.1l-1.2-0.2l0.1,0.4
		c0,0.6-0.3,1.1-0.8,1.2c-0.2,0.2-0.5,0.3-0.9,0.3L171.6,64.6 M165.1,71.7l0.4,0.6l0.6,3.1l-0.1,0.4l-0.4-0.1l-0.7-1.5
		c-0.3-0.3-0.7-0.2-1.1,0.1c-0.5,1-1.2,2-2,3c-1.6,2.2-3.1,3.6-4.4,4.2s-3,0.8-5,0.6l-2.6-0.3c-0.2,0-0.3,0.1-0.3,0.3
		c-0.1,0.1-0.1,0.3,0,0.4l0.1,0.3c0.2,0.4,0.1,0.5-0.3,0.3l-2.2-1.6l-0.5-0.4c-0.1-0.2-0.1-0.4,0-0.6l0.6-2c0.1-0.2,0.1-0.2,0.2-0.2
		l0.2,0.2l0.2,0.4c0.2,0.4,0.5,0.6,0.9,0.5l2.4-0.6c1.7-0.4,3.1-0.8,3.9-1.3c1.3-0.8,3.2-2.4,5.8-4.8l0.3-0.6c0.1-0.2,0-0.4-0.1-0.6
		l-0.9-0.8c-0.2-0.1-0.2-0.2,0-0.4h0.2l4.2,0.9L165.1,71.7 M155.9,84.1l-0.4-0.1c0-0.1,0.1-0.2,0.3-0.3l2.6-1.4
		c0.2-0.2,0.3-0.2,0.5-0.2s0.4,0.1,0.5,0.2l0.1,0.6l-0.4,0.5c-0.6,0.5-1.3,0.8-2,0.9L155.9,84.1 M163.1,72.9L162,73l-0.6,0.4
		c-2.2,2.3-4.2,3.8-5.8,4.7c-1,0.6-2.4,1.1-4.2,1.6l-2.4,0.5c-0.6,0.2-0.7,0.5-0.4,0.9c0.3,0.4,0.6,0.5,0.9,0.4l4.6-0.2
		c0.7-0.1,1.6-0.4,2.7-0.9c1.1-0.5,1.9-1,2.5-1.6l3.9-4.4l0.3-0.8C163.6,73.2,163.4,73,163.1,72.9 M167.8,59.5
		c-0.6-1.9-1.8-3.1-3.4-3.6c-1.1-0.4-2.6-0.4-4.4-0.1l-7.8,1.7l-0.2,0.9c-0.1,0.5-0.4,0.9-0.9,1.2l-1,0.4c-3.5,1.4-5.4,2-5.5,1.9
		c-0.2-0.1-0.4-0.5-0.7-1.4l-2.9,2.1c-1.2,0.7-2.1,1.5-2.9,2.4l-0.6,1.2c-0.5,1.6-0.5,3.4,0,5.4c0.4,1.6,0.9,2.8,1.5,3.6
		c0.3,0.5,0.9,0.7,1.7,0.8l1.9-0.2l2.5-1.4c1.2-0.8,1.9-1.5,2.2-2.1l0.3-1.3c0.3-2.1,0.9-3.3,1.8-3.5c0.5-0.1,1.4,0.1,2.7,0.7
		c1.6,0.6,2.6,0.9,3,0.9c1.4,0.2,3.5,0.1,6.3-0.5c1.7-0.4,4.1-1.3,7.1-2.8l0.2-0.1c0.1-0.2,0.2-1.2,0.1-2.9L167.8,59.5 M163.1,56.6
		c1.2,0.4,2.3,1.2,3.3,2.2c0.9,1.1,1.4,2.2,1.5,3.3c0.1,1.1-0.5,2.1-1.9,3.1c-1.2,0.8-2.6,1.4-4.4,1.8l-5,0.4
		c-1.9-0.1-3.1-0.7-3.7-1.7c-0.8-1.3-1.3-2.6-1.5-3.6c-0.2-1.2,0.1-2.1,0.8-2.7c0.6-0.5,2.2-1.2,4.9-2
		C160.1,56.5,162.1,56.2,163.1,56.6 M142.4,63.4l1-0.1c0.5,0,1,0.2,1.6,0.8c0.5,0.6,0.9,1.2,1.1,2c0.4,1.2,0.5,2.1,0.2,2.8
		c-0.4,1.1-1.2,2.4-2.2,3.7c-1.2,1.3-2.2,2.1-3.1,2.4l-0.7,0.1c-0.4,0-0.8-0.4-1.1-1c-0.3-0.5-0.6-1.2-0.9-1.9
		c-0.3-0.9-0.4-1.9-0.4-2.9c-0.1-1,0-1.8,0.3-2.2c0.4-0.7,1-1.4,1.8-2.1C140.7,64.2,141.6,63.7,142.4,63.4 M143.5,71.6l0.3-0.3
		c-2.4,1.5-3.8,1.8-4.3,1.1l-0.5-3.5c-0.3-1.3,0.3-2.7,2-4.2l-0.8,0.6c-0.7,0.6-1.3,1.3-1.7,2c-0.2,0.4-0.3,1.3-0.2,2.5
		c0.1,1.3,0.4,2.4,0.8,3.3c0.3,0.6,0.6,0.9,0.9,0.9l0.6-0.1C141.4,73.6,142.4,72.9,143.5,71.6 M165.7,58.7c-0.8-0.8-1.7-1.3-2.7-1.6
		c-0.9-0.3-2.8,0-5.6,0.8c-2.6,0.7-4.2,1.4-4.9,1.9c-0.7,0.6-0.9,1.6-0.6,2.8c0.2,0.8,0.6,1.6,1.1,2.5c0.9,1.6,3.6,2,8.1,1.1
		c1.7-0.4,3.1-0.9,4.1-1.7c1.3-0.9,1.9-1.8,1.9-2.8C167,60.6,166.5,59.6,165.7,58.7 M165.2,59.9l0.3,0.6c0.1,0.6,0.2,1.2,0.1,1.9
		c-0.1,0.8-0.3,1.3-0.6,1.6c-0.4,0.2-1.2,0.5-2.4,0.9c-2.8,0.8-4.9,1.1-6.2,0.9c-1.4-0.2-2.4-1.2-3-3.1l-0.1-0.4l-0.3-1.3
		c0-0.2,0.2-0.5,0.5-0.7c0.5-0.5,2-1.1,4.4-1.8c2.7-0.9,4.5-1.1,5.2-0.8C164.1,58.1,164.8,58.8,165.2,59.9 M170.2,59.4l-0.2,0.2
		c-0.2,0.3-0.3,0.6-0.2,0.9c0.1,0.4,0.3,0.6,0.6,0.8l0.7,0.3L170.2,59.4 M171.6,57.1L172,58h1C172.6,57.7,172.1,57.4,171.6,57.1
		 M171.2,58.1h0.1l-0.2-0.7l-1.4,0.4l-1.3,1.9l0.9,2.3l2.4,1.4l0.4,0.1l0.6,0.1c0.3-0.1,0.4-0.4,0.4-0.8l-0.1-0.4h-1.5l-0.1-0.2
		l-0.9-0.2l-0.2-0.1c-0.5-0.4-0.8-0.8-0.9-1.2c-0.1-0.4,0-0.8,0.3-1.2c0.2-0.1,0.4-0.2,0.6-0.4h0.1l0.1-0.2c0.2-0.3,0.4-0.5,0.7-0.6
		L171.2,58.1 M175.4,61.8l0.3-2.4v-0.2l-4.4-0.2l-0.2,0.2l0.9,2.2L175.4,61.8 M166.6,48.2c-0.9-1.1-2-1.4-3.2-0.9l-0.2,0.1l-2.6,1.8
		c-0.6,0.6-1.2,0.9-1.6,1.1c-0.6,0.3-1.2,0.3-1.8,0c-1.8-1-3.4-1.1-4.9-0.6c-0.6,0.2-1.1,0.5-1.4,1c-1,1.1-1.8,1.8-2.4,2.1l-1.4,0.2
		c-1-0.2-1.9-0.2-2.6,0.1l-0.6,0.4c-0.2,0.4-0.6,1.4-1.1,3l-0.8,2.6c-0.6,1.2-1.3,2-2.1,2.4l-0.1,1.1l0.9-0.7c1.7-1,2.7-1.7,2.9-2.1
		l0.2-0.2l3.6-1.6c2-0.9,3.6-1.3,4.6-1.2l7.8-1.7c1.6-0.3,3-0.3,4-0.1c2,0.5,3.4,1.7,4.2,3.8l1-1.4l0.2-0.1c0.7-0.3,1.3-0.4,1.6-0.4
		l-0.5-0.4l-3.5-1.2c-0.2,0-0.3-0.1-0.3-0.3s0.1-0.3,0.3-0.4l0.2-0.2c0.5,0,1.7,0.5,3.6,1.4c1,0.5,2.2,1.3,3.4,2.4l0.5,0.1
		c-1-1.7-2.4-3-4.4-3.8c-1-0.3-2.3-0.6-3.9-0.9c-0.4,0-0.6-0.2-0.5-0.4l0.1-0.4C167.3,50.9,167.6,49.4,166.6,48.2 M162.7,46.1
		l0.7-0.3c1.1-0.5,2.2-0.4,3.2,0.1c0.7,0.4,1.3,1,1.8,1.8c0.3,0.6,0.3,1.5,0,2.6c-0.2,0.8-0.6,1.6-1.1,2.4c1.5,0.3,2.6,0.7,3.4,1.1
		c1.8,0.7,3.3,1.9,4.4,3.6c0-1.3-0.2-2.8-0.6-4.5c-0.7-3.3-1.9-5.8-3.5-7.3c-0.9-0.9-1.9-1.7-2.9-2.4c-1.4-0.9-2.7-1.4-3.7-1.4
		l-2.9-1.6c-1.6-1-3.1-1.3-4.4-0.9l-3.2,0.4l-1.2-0.1l-1.1-0.4c-1.2-0.2-2.1-0.2-2.8,0l-0.1,0.1c-0.5,0.3-1,1.6-1.4,3.8
		c-0.1,1-0.3,1.7-0.6,2.1c-0.1,0.3-0.3,0.6-0.6,0.8l-3.1,0.5l-0.8,0.4c-0.6,0.4-1.5,2.1-2.6,5.2c-0.4,1.2-1.2,2-2.3,2.4l-2.4,0.2
		c-0.7-0.2-1.1-0.7-1.4-1.6c-0.3,0.8-0.5,1.6-0.4,2.4c0,1.1,0.4,2.2,1.1,3.2c0.8,1.1,1.8,1.9,2.9,2.4c0.6,0.2,1.1,0.2,1.7,0
		c0.9-0.4,1.7-1.1,2.2-2.2l0.8-2.6c0.5-1.6,0.9-2.7,1.2-3.1c0.5-0.5,0.9-0.9,1.4-1.1h3.4l0.9-0.8l2.7-3.6c0.1-0.2,0.2-0.3,0.5-0.4
		c0.8-0.3,2.1,0,3.9,0.9c1.9,0.9,2.9,1.4,3.1,1.3l0.2-0.1c0.3-0.1,0.9-0.6,1.7-1.4C161.6,46.9,162.3,46.4,162.7,46.1z"/>
</g>
</svg>
