<?xml version="1.0" encoding="utf-8"?>
<!-- Generator: Adobe Illustrator 25.4.1, SVG Export Plug-In . SVG Version: 6.00 Build 0)  -->
<svg version="1.1" id="Blacksmith_x2C_PerkClip_x5F_4b253" image-rendering="auto"
	 xmlns="http://www.w3.org/2000/svg" xmlns:xlink="http://www.w3.org/1999/xlink" x="0px" y="0px" viewBox="0 0 240 240"
	 style="enable-background:new 0 0 240 240;" xml:space="preserve">
<style type="text/css">
	.st0{fill:#FFFFFF;}
</style>
<g>
	<rect width="240" height="240"/>
	<path class="st0" d="M144.2,172.6l-3.7,1.8l0.2,37.9l3.6-1.5L144.2,172.6 M136.2,176.4l-0.7,0.1h-0.2l0.2,34.2l3.7,1.5l-0.2-37.2
		L136.2,176.4 M109.8,137.1l-0.4,0.2l1.2,0.8l0.1-0.6l-0.6-0.4H109.8 M105.7,130.4l-1.5-0.3l0.2,0.5c0.9,1.8,2.1,3.5,3.5,5.2
		l0.2,0.2l0.8-0.1c0.1-0.1,0.1-0.1,0.2-0.1l0.1-0.1l-3.4-5.3H105.7 M110.8,125.7l-1.9-0.3c0,0.9,0.1,1.9,0.4,3l0.8,2.1l1.1,0.6
		c-0.4-1.1-0.6-1.8-0.5-2.3L110.8,125.7 M110.8,124.7l-0.6,0.1l0.6,0.1V124.7 M111.6,134c-0.2-0.5-0.2-1-0.2-1.4l-0.6-0.4L111.6,134
		 M113.2,135.7h-0.2c-0.5-0.1-0.8-0.4-1.1-0.9c0.1,0.4,0.1,0.8,0.1,1.2c0,0.6-0.2,1-0.6,1.1l0.1,0.4l0.1,0.9c0.5,0,1-0.4,1.3-1
		C113.1,136.9,113.2,136.3,113.2,135.7 M112.7,133.9l-0.3-0.8C112,133.6,112.1,133.9,112.7,133.9 M117.6,124.8c0-0.2,0-0.4,0.1-0.5
		l0.2-1l-5,1.2l0.1,0.7l1.9,0.3L117.6,124.8L117.6,124.8 M116.5,129.2l0.1,0.2l0.1,2.5l1-0.4c0.7-0.2,1.1-0.5,1.2-0.7
		c0.1-0.3,0-0.5-0.3-0.7l-0.7-0.1c-0.2,0-0.4-0.4-0.6-0.9c-0.1-0.7-0.2-1.4-0.2-2.2l-4-0.8l0.5,1.5c0.5,1.4,0.8,2.2,0.8,2.7l0.2,2.8
		l0.2-0.2c0.6-0.9,1-2.2,1.2-4.1l0.1-0.1L116.5,129.2 M111.6,122.8L111.6,122.8l-0.4,5.4c-0.1,0.7,0,1.3,0.2,1.7l1.8,4.1l0.4,1.8
		v0.9c-0.1,0.9-0.3,1.6-0.8,2.2c-0.5,0.6-1,0.8-1.6,0.6l-0.8-0.5c-0.5-0.4-1-0.8-1.6-1.3c-0.8-0.8-1.7-1.8-2.5-3
		c-0.9-1.1-1.7-2.5-2.4-4.2c-0.1-0.1-0.2-0.2-0.5-0.3l-1.8-0.6l-2.1-1.3l-1.2-1c-1.1-1.1-0.8-0.6,0.8,1.7l2.4,1.9
		c3.8,3.3,5.2,5.4,4.3,6.1l-0.2-0.1l-2.2-1.8l-1.3-0.7l0.2,0.4l1,2c0.5,0.8,0.9,1.4,1.4,1.7c1.8,1.3,3.4,2,4.8,2.1l1-0.1l0.2-0.1
		c2.1-0.6,3.6-2.1,4.4-4.5l0.4-1.4l0.3-2.1v-0.6l-0.2,0.7l0,0.1c-0.3,1-0.8,1.8-1.5,2.4l-0.2-0.2l-0.4-0.8l-0.1-0.4l0-2.6
		c0-0.9-0.2-1.8-0.5-2.6l-0.5-1.6l-0.5-2.6l-0.1-1.4c0-0.6,0-1.2,0.1-1.8C112,121.2,111.7,122,111.6,122.8 M111,122.9l-2,0.6
		l-0.1,0.4l2-0.1L111,122.9 M104.2,121.9l-0.2,1.4l-0.1,1.4c0.1,0.9,0.3,1.9,0.8,2.8l0.6,1.2h0.2l0.1,0.1l4.6,7.1l0.8,0.1l0-0.1
		c0.3-0.3,0.5-0.6,0.6-0.9l-2.2-5.6l-0.2-0.9c-0.5-1.7-0.7-3.2-0.6-4.7v-0.2l0.2-1.8c-0.8-0.6-1.6-0.9-2.3-1
		C105.4,120.9,104.7,121.2,104.2,121.9 M110.6,115.1L110.6,115.1c-1.5-1.3-3.1-1.5-4.8-0.6l-0.5,0.4c-0.4,0.6-0.8,1.3-1,2.1
		c-0.4,1.6-0.5,2.8-0.2,3.8v0.1c0.6-0.6,1.4-0.9,2.3-0.7c0.8,0.1,1.6,0.5,2.3,1.1l0.2-0.1l0.9-1.6l1-3.2
		C110.9,115.8,110.8,115.4,110.6,115.1 M145.2,130.8l-2.1-2.1l-0.1,1.8L145.2,130.8 M123.8,128.1l0.1,1.1l-0.2,0.2
		c-0.4,0.1-0.8,0.3-1,0.5c-0.2,0.4,0,0.7,0.7,0.9l1.2,0.2c1.2,0.3,2.1,0.6,2.6,0.9l1.5,0.6c0.6-0.1,0.9-0.5,0.9-1.2
		c-0.1-0.1-0.2-0.4-0.3-0.7c-0.1-0.3-0.1-0.6,0-0.8l0.6-0.8l-6.3-1.1L123.8,128.1 M134.2,135.4L134.2,135.4l-1.7-0.2
		c-0.8,0.1-1,0.4-0.8,0.8l1.3,2.1c0.1-0.6,0.3-1,0.7-1.2l1.5-0.1c0.5,0.2,0.8,0.8,1.1,1.6l30.5-2.7l-29.9-5.4v0.1l-0.3,0.9
		C135.9,133.1,135.1,134.4,134.2,135.4 M136.6,127.2c-1.3,0.4-2.5,0.9-3.5,1.5v0.1c-0.5,0.2-0.9,0.4-1.2,0.7h-0.1
		c-0.7,0.5-1.3,1-1.8,1.6c0.3,0.7,0.4,1.3,0.3,1.8c-0.1,0.7-0.4,1.1-0.9,1.2l-1.1,0.1l-0.4-0.1l-0.1-0.1l-3.1-1.3h-0.1l-1.6-0.2
		c-0.6-0.2-1-0.6-1.2-1.1c-0.4-0.9-0.5-1.7-0.2-2.4c0.1-0.3,0.3-0.6,0.7-0.8c0.3-0.2,0.5-0.2,0.6,0v-0.3l-0.2-1
		c-0.2-1-0.6-1.9-1.1-2.9l-0.2-0.4l-0.2-0.1l-1-1.6l-0.1-0.1l-0.3-0.4h-0.1v0.1l-0.3,0.6l-0.2,0.3l-0.2,0.5l-0.8,1.9L118,127v0.1
		l-0.1,1.5c0.9,0.2,1.5,0.9,1.8,2.1c0.2,0.9,0,1.6-0.8,2.1l-2.3,1l-0.4,2.2c-0.7,2.5-2,4.2-3.8,5l-1.7,0.3l-0.2,0.9v0.3l-0.4,1.2
		l-0.6,0.7c-0.4,0.4-0.9,0.4-1.4,0.1c-0.4-0.3-0.8-0.8-1.1-1.4c-1.1,0-2.3,0.4-3.6,0.9c-1.1,0.5-2.2,1.2-3.3,1.9
		c2.9,1.3,5.3,1.7,7.2,1.4v-0.1l0.2-0.6c0.4-0.7,0.9-1.1,1.4-1.1c0.7,0.1,1.2,0.5,1.7,1.2l0.8,2.1l0.5,0.8l-0.2-0.1l0.7,1.3
		c0.2,0.5,0.2,1,0.2,1.6c-0.1,0.7-0.7,1.1-1.7,1.1l0.1,0.1l-0.8-0.3c-1.4,1.4-2.4,3.6-3.1,6.6l4.7-2.5c0.8-0.5,1.5-1,1.9-1.5
		l-0.2-0.5l-0.2-0.2c-0.4-1.4-0.1-2.2,0.9-2.4c0.5-0.1,1.3,0.1,2.2,0.6c1.2,0.7,2,1,2.3,1.1l1.8,0.2c0.6,0.1,1,0.5,1.2,1
		c0.4,0.8,0.5,1.5,0.2,2.1h0.1l-0.1,0.4l-0.7,0.8c-0.4,0.2-0.6,0.2-0.6,0.1c0.1,1,0.5,2.2,1.2,3.5c0.6,1.2,1.3,2.3,2.1,3.4
		c0.2-0.1,0.5-1.1,1-2.9c0.5-1.8,0.8-3.3,0.9-4.4l-0.2-0.1h-0.1c-0.3-0.2-0.6-0.4-0.8-0.7c-0.3-0.3-0.5-0.8-0.7-1.4
		c-0.2-0.9,0-1.6,0.8-2.1l2.3-0.9l2.5-1.9c1.1-0.7,1.9-0.5,2.4,0.5c0.3,0.7,0.4,1.5,0.4,2.2l2.1,1l-0.1,0.1l5.1,1.5l-0.4-1.2
		l-0.9-1.5l-0.7-0.9l0.2-0.2c-1.2-1.8-1.9-2.6-2.1-2.4c-0.5,0.5-1.1,0.6-1.8,0.4c-0.6-0.1-1-0.5-1.3-1.2c-0.3-0.7-0.2-1.7,0.3-2.9
		l0.8-2.2h0.1l0.4,0.8l0.1,0.3c0,0.5,0.4,0.7,1,0.6c0.6-0.1,0.9-0.3,1.1-0.7c0.1-0.2,0.2-0.6,0.1-1v-0.2c0-0.1,0-0.2,0.1-0.2h0.1
		c0.2-1.4,0.2-2.7-0.1-3.9l-0.1-0.4c-0.3,0-0.5-0.4-0.6-1.2l-0.2-0.4l-1.2-0.1c-0.6,0.3-0.8,0.7-0.8,1.2v0.4l-0.2,0.1h-0.1l-0.3-0.5
		l-1.4-2.3c-0.6-0.9-0.9-1.8-0.7-2.5c0.1-0.7,0.4-1.1,1-1.3c0.6-0.3,1.2-0.2,1.8,0.1c0.2,0.1,0.7-0.6,1.3-2.1l0.6-1.4v-0.1l0.4-0.9
		v-0.1L136.6,127.2 M124.8,111.1l-1.3-0.6c-1.7,4.2-4.1,7.4-7.4,9.8c-1.1,0.7-2.2,1.3-3.4,1.8v1.5c1.5-0.6,2.9-1.3,4.2-2.2
		C120.5,119,123.2,115.5,124.8,111.1 M131.1,116.4l1.8-3.1l-1.4-0.2c-2.3,4-5.7,6.9-10.1,8.9l0.5,0.8l0.2,0.5
		C126,121.6,129,119.3,131.1,116.4 M65.4,156.6h0.2l57.9,10.1c-0.9-1.2-1.6-2.4-2.2-3.6c-0.9-1.9-1.4-3.6-1.3-5.1l0.1-0.2l1-0.6
		c0.3-0.3,0.1-0.6-0.7-0.8l-1.3-0.2c-1.1-0.3-1.9-0.7-2.5-1c-0.5-0.4-1.1-0.6-1.8-0.6l-0.6,1.1l0.4,0.7c0.1,0.4,0.1,0.7,0,0.8
		c-0.5,0.6-1.1,1.1-2,1.7l-4.1,2.2c-1,0.5-1.6,0.6-1.9,0.5c-0.1-0.1-0.3-0.4-0.4-0.7l-0.1-0.8c0.7-4.1,1.9-6.9,3.5-8.4
		c0-0.1,0.1-0.1,0.2-0.1l1.1,0.4c0.5,0,0.8-0.1,1-0.4c0.2-0.3,0.1-0.7-0.1-1.2l-0.7-1.1l-0.2-0.5c-0.3-0.7-0.6-1.1-0.8-1.4
		c-0.4-0.4-0.8-0.5-1.3-0.2c-0.6,0.3-0.8,0.8-0.8,1.4l-0.2,0.2l-3.2-0.2l-4.3-1.3c-0.5-0.2-0.9-0.4-1.2-0.7c-0.1,0.1-0.2,0-0.3-0.3
		l-0.2-0.6c0-0.3,0-0.5,0.1-0.6h-0.1c1.2-1,2.5-1.9,3.9-2.5c1.7-0.9,3.2-1.3,4.4-1.3c0.3,0,0.4,0.2,0.5,0.7c0.2,0.7,0.6,1,1.3,0.8
		c0.7-0.2,1-0.7,1.1-1.3l0.1-0.4c-1.2-0.1-2.5-0.6-3.8-1.5c-0.5-0.4-1.1-0.9-1.7-1.6l-0.9-1.3c-0.9-1.4-1.8-2.4-2.5-3
		c-0.1-0.1-0.1-0.2-0.2-0.6c-0.1-0.3-0.1-0.5,0-0.4h0.1c1.5,0.2,3,1,4.3,2.2l0.5,0.4l-0.1-0.2l-1.4-1.6c-0.8-0.9-1.9-1.8-3.1-2.6
		c-2.3-1.7-3.6-3.6-3.9-5.7l0.1-0.3c0-0.2,0-0.2,0.1,0c0.9,1,1.8,1.8,2.7,2.5c1,0.7,2,1.3,3.1,1.6l0.2,0.1c-0.1-0.4-0.1-0.6,0-0.6
		l0.2-0.1l1.1,0.1l-0.4-1.1l-0.5-1.5l-0.2-1.6l-25.8-4.6l-59.2,28.4L65.4,156.6 M80.9,131v-0.6c0.1-0.3,0.2-0.5,0.2-0.5v-0.1
		c1.5-0.5,3.1-0.8,4.6-0.8c1.9-0.1,3.4,0.1,4.6,0.6c0.2,0.1,0.2,0.4,0.2,0.9c-0.1,0.7,0.2,1,0.8,1.1v0c0.3-0.4,0.5-0.3,0.6,0.5
		c0.1,0.9-0.1,1.8-0.3,2.7c-0.3,1-0.7,1.3-1.1,0.9l-0.6-0.1c-0.6,0.1-1,0.4-1.3,0.9l-0.2,0.2c-0.9-0.2-1.9-0.7-3-1.5l-3.4-2.9
		l-0.8-0.9C81,131.5,80.9,131.3,80.9,131 M65.2,140.1c0-0.1,0.1-0.2,0.2-0.2c0.9-0.1,2,0.1,3.3,0.5l3,1.4c0.3,0.1,0.7,0.3,1.2,0.5
		s0.8,0.5,1,0.8c0.1,0,0.2,0.1,0.3,0.4l0,0.6l0,0.6v0.1c-1.3,0.8-2.7,1.5-4.2,2.1c-1.7,0.6-3.2,0.9-4.6,0.7c-0.1,0-0.2-0.3-0.3-0.8
		c-0.1-0.6-0.5-0.9-1.1-0.9c-0.3,0.4-0.5,0.3-0.8-0.3c-0.3-0.8-0.5-1.7-0.5-2.6c0-1,0.3-1.5,0.9-1.3h0.5
		C64.8,141.1,65.1,140.7,65.2,140.1 M77.3,142.3c-0.2,0.1-0.3-0.2-0.5-0.9c-0.1-0.3-0.1-0.5,0.1-0.5v-0.1c1.2-1,2.5-1.8,3.9-2.6
		c1.7-0.8,3.1-1.2,4.3-1.2c0.1,0,0.3,0.2,0.4,0.8c0.2,0.6,0.6,0.9,1.3,0.8c0.2-0.5,0.4-0.4,0.7,0.2c0.4,0.8,0.6,1.6,0.8,2.5
		c0.1,1.1-0.2,1.5-0.7,1.4l-0.5,0.2c-0.6,0.3-0.9,0.8-0.9,1.3c0,0.2,0,0.3-0.2,0.3l-3.2-0.1l-4.4-1.4
		C78,142.8,77.6,142.5,77.3,142.3 M86.9,141.1L86.9,141.1l-0.1-1h-0.1c-0.5-0.2-0.9-0.7-1.3-1.5c-2,0-4.3,1-7,2.8
		c3,1.3,5.3,1.7,7.2,1.4v-0.1l0.2-0.6l0.2-0.5C86.3,141.3,86.7,141.2,86.9,141.1 M65.7,141.4v0.2l-0.3,0.7l-0.2,0.3l-0.9,0.5l0,1
		c0.5,0.2,0.9,0.7,1.2,1.6c2.1,0.2,4.5-0.5,7.2-2C70,142.1,67.7,141.3,65.7,141.4 M90,131.9l-0.1-0.7c-1-0.4-2.2-0.6-3.6-0.6
		l-3.9,0.6c2.2,2.2,4.2,3.6,6,4l0.2-0.1l0.4-0.6l0.9-0.5h0.4l0.2-0.9v0C90.3,132.8,90.1,132.4,90,131.9 M19.3,170.9
		c-3.3,0-6-0.5-8.3-1.6l-2-1.2v2.4c0,1.1,1,2,2.9,2.9c2.1,1,4.5,1.4,7.4,1.4l4.6-0.5v-3.7L19.3,170.9 M35.7,168.4
		c0.7,0.5,1.7,0.9,3.1,1.3c3.1,1,7,1.4,11.5,1.4c4.5,0,8.3-0.5,11.5-1.4c2.8-0.9,4.2-1.8,4.2-2.8v-2.8l-30.3-5.2V168.4 M38.6,171.1
		l-2.9-1.2v3.6c0.7,0.4,1.7,0.9,3.1,1.3c3.1,1,7,1.5,11.5,1.5c4.5,0,8.3-0.5,11.5-1.5c2.8-0.9,4.2-1.8,4.2-2.8v-2.8
		c-0.9,0.7-2.3,1.3-4,1.8c-3.3,1-7.2,1.5-11.7,1.5C45.8,172.6,41.9,172.1,38.6,171.1 M36.2,172.6v-1.4c1.4,0.7,3.3,1.2,5.5,1.6v1.2
		C39.5,173.8,37.7,173.3,36.2,172.6 M63.9,171.2v1.4c-1.4,0.6-3.2,1.1-5.2,1.5v-1.3C60.8,172.4,62.5,171.9,63.9,171.2 M50,174.9
		l-6.2-0.4v-1.3l6.2,0.4l6.5-0.4v1.4L50,174.9 M29,157.8l-3.6-0.6v34.8l3.6,0.8V157.8 M34.2,158.6l-3.7-0.7v34.8
		c1.2-0.6,2.5-1.2,3.7-1.8V158.6 M19.3,143.1c-3.3,0-6-0.6-8.3-1.8c-0.8-0.3-1.5-0.7-2-1.2v25c0.1,1.1,1.1,2.1,2.9,3
		c2.1,0.9,4.5,1.3,7.4,1.3l4.6-0.4v-12.2l-7.4-1.3c-0.3-0.1-0.5-0.3-0.5-0.6v-6.9l13.6-6.5v-1.4c-0.5,0.4-1.2,0.8-2,1.1
		C25.4,142.5,22.6,143.1,19.3,143.1 M11.9,140.2c2.1,0.9,4.5,1.3,7.4,1.3c2.9,0,5.4-0.4,7.5-1.3c1.9-0.9,2.9-1.9,2.9-2.9v-2.5
		l-2,1.2c-2.3,1.1-5,1.6-8.4,1.6c-3.3,0-6-0.6-8.3-1.6c-0.8-0.4-1.5-0.8-2-1.2v2.5C9,138.4,10,139.3,11.9,140.2 M60,126.2l-0.1,1.1
		l0.2-0.1L60,126.2 M52.1,103.1v1.6c0,0.7-0.6,1-1.9,1c-1.2,0-1.9-0.3-2.1-0.8v-1.6h-1.1l0,0.1c-1,0.5-1.6,1-1.8,1.6l-0.1,0.4
		c0,0.6,0.5,1.2,1.5,1.7c1,0.6,2.3,0.9,3.8,0.9c1.4,0,2.7-0.3,3.7-0.9c1-0.5,1.5-1,1.5-1.7l0-0.4c-0.2-0.5-0.6-0.9-1.3-1.3
		C53.5,103.5,52.9,103.2,52.1,103.1 M61.8,120.7c2.2-0.7,3.6-1.4,4.2-2.2v-4c0-2-0.9-3.8-2.8-5.4c-1.6-1.5-3.7-2.6-6.3-3.2
		c-0.2,0.9-0.8,1.8-1.9,2.5c-1.3,0.8-2.9,1.1-4.7,1.1c-1.9,0-3.4-0.4-4.7-1.1c-1.2-0.7-1.8-1.6-1.9-2.5c-2.6,0.7-4.7,1.8-6.4,3.2
		c-1.8,1.6-2.8,3.4-2.8,5.4v4c0.6,0.8,1.9,1.5,4,2.2c3.2,0.9,7.1,1.4,11.7,1.4C54.9,122.1,58.8,121.6,61.8,120.7 M65.4,124.6
		c-0.3-0.4-0.6-0.4-0.9-0.1c-0.3,0.2-0.4,0.4-0.4,0.8L65.4,124.6 M66,119.5c-0.8,0.7-2.2,1.4-4.2,1.9c-3.2,1-7,1.4-11.5,1.4
		c-4.4,0-8.3-0.5-11.5-1.4c-1.9-0.5-3.3-1.2-4.2-1.9v19.9l12.9-6.2v-8.3l1.5,0v6.6l1.2,0.1v0.3c1-0.5,1.9-0.9,2.8-1.4l0-1.2
		c0-1.2,0.2-2.2,0.5-3c0.4-1,1-1.5,1.8-1.7c0.9-0.1,1.6,0.6,2,1.9l-1.5,1.1l-0.2-0.6l-0.3-0.3c-0.4,0-0.6,0.9-0.6,2.7v0.4l0.5-0.2
		v-1.1l2.2-0.2v0.3l1.2-0.5l0.5-3.6l1.9-0.4l0.5,2.6l1.1-0.5c0-0.6,0.2-1.2,0.4-1.8c0.3-0.8,0.8-1.4,1.3-1.8l1.2-0.5v2.7l0.6-0.2
		V119.5 M46.4,124.8v2.1l-1.4-0.2v1.2l1.2,0.2v2L45,130v1.3l1.4,0.1v2l-3-0.3v-8.5L46.4,124.8 M41,124.2l1.5,0.2v5.6
		c0,2.1-0.7,3-2,2.7c-1.3-0.3-1.9-1.5-1.9-3.6v-5.5l1.5,0.3l0,6.1l0.3,0.5l0.4-0.3l0.1-0.8V124.2 M36.2,122.7l1.5,0.6v2
		c-0.5-0.2-0.9-0.3-1.2-0.5v1.2l1.1,0.4v2.1l-1.1-0.6v3.3c-0.8-0.4-1.3-0.9-1.6-1.3v-8.5C35.2,122,35.7,122.4,36.2,122.7 M63,99.7
		l-0.8,0.4l-2.3,0.1c-0.3,0.5-0.8,0.7-1.2,0.7h0c-0.5,0-1-0.2-1.2-0.5l-2.6,0.1l-0.6-0.1c0.2,0.8,0.7,1.5,1.3,2
		c0.9,0.8,1.9,1.1,3,1.1l2.1-0.4l0.4-0.2l1.3,1.9c0.1,0.2,0.3,0.3,0.5,0.2l0.1-0.2c0.2-0.1,0.2-0.3,0.2-0.4l-1.3-2l0.2-0.2
		C62.5,101.3,62.9,100.5,63,99.7 M73.9,109c-0.6-1.6-1.6-2.7-3-3.4c-0.9-0.4-2.4-0.6-4.3-0.6l-2.5-0.1l-0.8,0.9l-0.2,0.1
		c1,0.5,2.2,0.7,3.6,0.6c1.8,0,3.1,0.1,3.7,0.5c1,0.4,1.7,1.3,2.2,2.7l1.1,3.8c0.3,1.7,0.7,3,1,4c0.3,0.8,0.7,1.5,1.1,2.2l1.4-0.6
		h0.1c-1.3-1.7-2.1-3.7-2.2-5.9L73.9,109 M58.7,98.1c-0.5,0.1-0.8,0.3-1,0.7L57.6,99l-2.8,0.1l-0.2,0.1l0,0.2c0,0.2,0.1,0.3,0.2,0.3
		l3-0.1l0.1,0.1c0.2,0.2,0.5,0.4,0.9,0.4v0.4l0-0.4c0.3,0,0.6-0.1,0.8-0.4l0.1-0.2l2.6-0.1c0.2,0,0.2-0.1,0.2-0.2l-0.3-0.3l-2.6,0.1
		l0-0.1C59.4,98.4,59,98.1,58.7,98.1 M58.8,90.9c0.4-0.4,0.7-0.8,0.7-1.4c0.1-0.5-0.1-0.9-0.5-1.4c-0.3-0.4-0.8-0.6-1.4-0.6
		c-0.6,0-1,0.2-1.3,0.5c-0.4,0.3-0.6,0.7-0.7,1.3c0,0.6,0.2,1.1,0.5,1.4c0.4,0.3,0.8,0.5,1.2,0.6h0.5l0.3,2.9l-0.5,0
		c-0.8,0.2-1.5,0.5-2.1,1.1c-0.6,0.6-1,1.2-1.2,1.9L54,97.8h-3v-2.5h-1.9v5.6l-0.8-0.4l-0.5-0.1h-1.9c-0.5,0-0.8,0.2-0.9,0.5
		l-0.2,0.4h-2l-0.1,0.1l0.1,0.1H45l0.1,0.1c0.2,0.4,0.5,0.5,0.9,0.6h1.9l1.2-0.6v2.9l1.1,0.2l0.8-0.1v-5.9h2.9v0.2l0.1-0.1
		c0.2-0.2,0.4-0.4,0.7-0.4l2.4-0.1c0.3-0.5,0.8-0.8,1.5-0.9h0.1c0.5,0,1,0.2,1.3,0.8l2.1-0.1c0.3,0,0.6,0.1,0.8,0.2l0.1,0.3
		c-0.1-1.1-0.5-2.1-1.3-2.9l-0.2-0.4l1.7-2.2l0.3,0.2l0.6,0.1c0.5,0,1-0.2,1.3-0.6c0.4-0.4,0.6-0.9,0.6-1.4c0-0.5-0.2-0.9-0.6-1.3
		c-0.4-0.4-0.8-0.6-1.3-0.6c-0.5,0-1,0.2-1.4,0.6c-0.4,0.4-0.6,0.8-0.6,1.3c0,0.5,0.2,0.9,0.5,1.3l0.2,0.3l-1.5,2.2l-0.5-0.2
		c-0.6-0.4-1.3-0.6-2-0.6h-0.4l-0.4-3l0.4-0.1L58.8,90.9 M47.1,93.5l2.8,0.4l2.8-0.4c0.7-0.2,1-0.5,1-0.7c0-0.2-0.3-0.5-1-0.8
		c-0.8-0.3-1.7-0.4-2.8-0.4c-1.1,0-2,0.1-2.8,0.4c-0.7,0.3-1.1,0.5-1.1,0.8S46.4,93.3,47.1,93.5 M19.3,75.3c-1.7,0-3.2-0.3-4.4-1
		c-0.8-0.5-1.4-1-1.8-1.6c-1.2,0.8-2.1,1.8-2.8,3c-0.9,1.4-1.4,3-1.4,4.6v51.7l0.1,0.3c0.2,0.9,1.2,1.8,2.8,2.5
		c2.1,0.9,4.5,1.4,7.4,1.4c2.9,0,5.4-0.5,7.5-1.4c1.9-0.9,2.9-1.8,2.9-2.8V80.4c0-1.7-0.4-3.2-1.2-4.6c-0.7-1.2-1.6-2.2-2.8-3
		c-0.4,0.6-1,1.1-1.8,1.6C22.5,75,21,75.3,19.3,75.3 M17.1,90.8c0-1.7,0.7-2.5,2.1-2.5c0.8,0,1.4,0.3,1.8,0.9
		c0.3,0.5,0.5,1.1,0.5,1.9c0,0.8-0.2,1.5-0.5,2.1c-0.4,0.8-1,1.1-1.8,1.1c-0.7,0-1.3-0.4-1.7-1.2C17.3,92.4,17.1,91.6,17.1,90.8
		 M19,95.9l0.3,1.4l0.5-1.4l1.7-0.3l-1.3,3.1l1.4,2.8l-1.7,0.1l-0.6-1.5l-0.5,1.5h-0.9c-0.4,0-0.6-0.2-0.7-0.4
		c0.3-0.2,0.5-0.5,0.8-1.1l0.5-1.5c-0.6-1.3-1.1-2.4-1.4-3.1C17.4,95.8,18.1,95.9,19,95.9 M21.5,113.3v0.2c0,2.3-0.7,3.4-2.1,3.4
		c-0.8,0-1.4-0.4-1.8-1.2c-0.3-0.6-0.5-1.3-0.5-2.2c0-1.7,0.8-2.6,2.3-2.6c0.9,0,1.6,0.4,1.9,1.1l-1.5,0.8c0-0.4-0.1-0.6-0.4-0.6
		c-0.4,0-0.7,0.6-0.7,1.7l0.1,0.9c0.1,0.3,0.3,0.5,0.5,0.5c0.2,0,0.3-0.1,0.4-0.2l0.1-0.5h-0.6v-1.2C20.3,113.6,21,113.5,21.5,113.3
		 M20.6,120.8v1.3l-1.1,0.1v0.8l1.3,0v1.3c-1,0.1-2,0.1-2.9-0.1v-5.8c0.9,0.2,1.9,0.2,2.9,0v1.4l-1.3,0.2v0.8L20.6,120.8
		 M17.1,103.1c0.2,0.1,0.5,0.2,0.8,0.2l0.8,0.1l0.5,1.8l0.6-1.8l1.6-0.1l-1.4,3.6v2.4h-1.6v-2.5L17.1,103.1 M20,129.8L20,129.8
		l-0.1-3.4l1.5-0.2v5.8l-1.5,0.2l-1.2-3.4l0.1,3.4l-1.5-0.3V126l1.5,0.3L20,129.8 M19.3,92.8c0.4,0,0.7-0.5,0.7-1.6
		c0-1-0.2-1.5-0.7-1.5c-0.4,0-0.6,0.5-0.6,1.5C18.7,92.3,18.9,92.8,19.3,92.8 M23.5,69.8c-0.6-0.4-1.3-0.6-2.1-0.8v1.6
		c0,0.7-0.7,1-2,1c-1.2,0-1.9-0.3-2.1-0.9V69c-0.9,0.2-1.6,0.5-2.1,0.9c-0.7,0.4-1,0.9-1,1.5l0.1,0.1c0.1,0.6,0.6,1.2,1.6,1.6
		c1,0.5,2.1,0.8,3.5,0.8c1.4,0,2.6-0.3,3.6-0.8c0.9-0.5,1.5-1,1.6-1.6l0-0.1C24.5,70.8,24.2,70.3,23.5,69.8 M40.3,56.1v0.4l-0.1,0.6
		l11-0.6c4.7,0,8.4,1.1,11,3.3c2.4,2.2,4,5.7,4.9,10.5l1,6.1c0.4,2.5,0.8,4.5,1.3,6.1c2.4,9.3,5.4,17.1,9,23.2
		c4.6,7.5,10.2,13,16.9,16.3l5,0.8c-1.1-0.4-2.2-1-3.2-1.6c-7-3.1-12.8-8.5-17.5-16.3c-3.5-5.9-6.4-13.5-8.8-22.8
		c-0.5-1.5-0.9-3.5-1.3-6l-1-6.1c-0.9-5-2.7-8.7-5.3-11.2c-3-2.5-7-3.7-12-3.8l-10.9,0.7L40.3,56.1 M20.3,48.1h-1.9v4l-0.3,0.1
		c-1.6,0.5-2.6,1.4-3.1,2.9l-0.1,0.4H9.4v-0.9H7.2c-0.4,0-0.8,0.2-1.1,0.5c-0.3,0.3-0.4,0.7-0.4,1.1v0.2c0,0.4,0.1,0.8,0.4,1.1
		c0.3,0.3,0.7,0.5,1.1,0.5h2.2v-0.8h5.4l0.2,0.5c0.2,0.7,0.6,1.4,1,1.9c0.6,0.6,1.2,1,2,1.2l0.4,0.2v9.3l1,0.1l0.9-0.1v-9.3l0.4-0.2
		c1.6-0.5,2.6-1.5,3-3.1l0.2-0.5H28l0.1,0.4c0.3,0.6,0.6,1.1,1.1,1.4c0.6,0.4,1.2,0.6,1.8,0.6c0.6,0,1.2-0.2,1.8-0.6
		c0.5-0.3,0.8-0.8,1.1-1.4l0.2-0.4H36l0.3-0.2l0.2-0.4h2.4c0.2,0,0.3-0.1,0.3-0.3v-0.4c0-0.2-0.1-0.3-0.3-0.3h-2.4l-0.2-0.2h-2.2
		L34,55.2c-0.4-0.9-1.2-1.5-2.2-1.8h-0.4v-1.8h-0.4v1.8h-0.4c-1,0.2-1.8,0.8-2.2,1.8l-0.1,0.4h-4.4l-0.1-0.4
		c-0.5-1.5-1.5-2.4-2.9-2.9l-0.4-0.1V48.1 M31.2,54.6c0.7,0,1.2,0.2,1.7,0.7c0.4,0.5,0.6,1,0.6,1.6c0,0.7-0.2,1.2-0.6,1.7
		c-0.5,0.5-1,0.7-1.7,0.7c-0.7,0-1.2-0.2-1.7-0.7c-0.5-0.5-0.8-1-0.8-1.7c0-0.6,0.2-1.2,0.8-1.6C30,54.8,30.5,54.6,31.2,54.6
		 M22.8,57c0,1-0.4,1.8-1,2.6c-0.7,0.7-1.5,1-2.5,1.1c-1,0-1.9-0.4-2.5-1.1C16,58.8,15.6,58,15.6,57c0-1,0.4-1.8,1.1-2.6
		c0.7-0.7,1.5-1,2.5-1c1,0,1.8,0.3,2.5,1C22.4,55.2,22.8,56,22.8,57 M21,58.8c0.5-0.5,0.7-1.1,0.7-1.8c0-0.7-0.2-1.3-0.7-1.8
		c-0.5-0.5-1.1-0.8-1.8-0.8c-0.7,0-1.3,0.2-1.8,0.8s-0.8,1.1-0.8,1.8c0,0.7,0.2,1.3,0.8,1.8c0.5,0.5,1.1,0.8,1.8,0.8
		C19.9,59.6,20.5,59.3,21,58.8 M31.2,58.2c0.3,0,0.6-0.1,0.9-0.4c0.2-0.3,0.4-0.6,0.4-1c0-0.3-0.1-0.6-0.4-0.9
		c-0.3-0.2-0.6-0.4-0.9-0.3c-0.4,0-0.7,0.1-0.9,0.3c-0.3,0.3-0.4,0.6-0.4,0.9c0,0.4,0.1,0.7,0.4,1C30.5,58.1,30.8,58.2,31.2,58.2
		 M31,47.8c-0.8,0-1.6,0.1-2.2,0.4s-0.9,0.6-0.9,0.9c0,0.4,0.3,0.7,0.9,1c0.6,0.3,1.2,0.5,2,0.5h0.6l0.1,0h0.2l1.5-0.5
		c0.5-0.3,0.8-0.6,0.8-1c0-0.3-0.3-0.6-0.8-0.9C32.5,47.9,31.8,47.8,31,47.8 M16.9,46.5c0.4,0.2,0.8,0.4,1.4,0.5l2.5-0.1l0.5-0.1
		c0.8-0.3,1.2-0.7,1.2-1.1c0-0.3-0.3-0.7-0.9-1c-0.6-0.3-1.4-0.5-2.2-0.5c-0.8,0-1.5,0.2-2.1,0.5c-0.6,0.3-0.9,0.6-0.9,1
		C16.3,45.9,16.5,46.2,16.9,46.5 M132.9,66.1c0.1,0.6,0.4,1.1,0.8,1.7l0.9,0.8l1-1.7l0.1-1.9l-1.9-0.1c-0.2-0.1-0.4-0.1-0.7,0
		C132.9,65.1,132.8,65.5,132.9,66.1 M122.7,70.4l-0.6,0.3l-0.7,0.6l0.2,0.4l1.3,3.8c1.5,5,2.5,10.3,2.8,15.9l0.2,2l1.5,0.6l-0.2-2.7
		c-0.3-5.6-1.2-11-2.8-16.2l-1.4-4L122.7,70.4 M119.6,92.6l0.5,0.4c1,1,1.7,2.3,2.1,3.7c0.4,1.5,0.6,2.9,0.5,4.1
		c-0.2,1.7-1.1,2.6-2.5,2.9l-0.3-0.2c-0.3,0.5-0.8,0.9-1.5,1.1l-2.7,0.4l5.9,3.2c2.6,1.3,4.9,2.3,7,2.8c3.4,0.8,6.6,0.8,9.4-0.1
		c3-1,5.5-2.9,7.6-5.7l0.9-6.1c0-0.2,0.1-0.1,0.4,0.3c0.2,0.5,0.3,0.8,0.2,1l-0.9,6.2l0,0l-1.5,10.5c2.3,2,4.7,3.5,7.2,4.5
		c0.6,0.2,0.9,0.1,1-0.4l-0.2-1.6l0.2-3.1c0.1-1.8,0.3-3.5,0.5-5.2c0.3-2.3,0.9-5,1.8-8.2l2.2-8.2l-3-1.6c-0.9-0.7-1.7-1.5-2.2-2.4
		c-3.7-1-6.9-2.9-9.6-5.7l-0.2,0.2c-4.1,1.6-8.4,4.6-12.6,9.2c1.6,0.4,2.9,0.4,3.8,0c0.1,0,0.3,0.2,0.5,0.8c0.2,0.5,0.2,0.9,0,1
		c-1.3,0.5-3.2,0.3-5.6-0.6L119.6,92.6 M114.2,87.8c-0.6,0-1.2,0.2-1.9,0.6v0.2L109.8,99c-0.8,1.2-0.8,3.1-0.1,5.6l0.2,0.4
		c0.2,0.6,0.2,1,0.2,1.2c-0.1,0.3-0.5,0.4-1.2,0.2l-1-0.1c0.4,0.6,0.4,1,0.1,1.1l-0.3,0.2v0.2l-1.4,5.5c1.5-0.6,2.8-0.3,4.2,0.8
		l1.7-7.5c-0.9-0.4-1.5-1-1.8-1.8c-0.1-0.4,0-0.9,0.1-1.3c0.5-1.4,1.7-2.9,3.3-4.6l2.2-10.4C115.4,88.1,114.9,87.8,114.2,87.8
		 M116.9,92.1c-0.2-0.1-0.3-0.4-0.4-0.9V91h-0.4l-1.9,8.8c0,0.1-0.1,0.1-0.2-0.1c-0.8,0.8-1.5,1.6-2.1,2.4c-0.7,0.9-1.1,1.7-1.2,2.3
		c0,0.3,0.2,0.6,0.5,0.9c0.3,0.2,0.7,0.4,1.1,0.4l1.1-0.1l1.6-1.4l1.2-0.4l1.2-0.1c1.3-0.2,2.1-0.7,2.5-1.4l0.2-0.4v-0.9
		c-0.1-1.4-0.9-2.7-2.2-3.9l-0.1-0.5c0-0.2,0-0.3,0.1-0.2c0.9,0.9,1.6,1.8,2.1,2.9c0.5,0.9,0.7,1.8,0.7,2.5c0.9-0.4,1.5-1.3,1.6-2.7
		c0.2-1.4-0.2-2.7-0.9-3.8c-0.4-0.7-1.1-1.3-2-1.9L116.9,92.1 M102.1,97.5c0-0.1,0.1,0,0.2,0.2s0.1,0.4,0.1,0.5
		c-0.6,0.9-1,1.9-1.1,3c-0.1,1.2,0.1,2.2,0.7,3.1c0.6,0.7,1.2,1.3,1.9,1.8c0.8,0.5,1.6,0.7,2.5,0.7l1.2-0.2l-0.7-0.7
		c-1.6-0.7-2.5-2.1-2.7-4.3c-0.5-2.1,0.1-4.2,1.8-6.4l0.3,0.2v0.5c-0.6,0.8-1.1,1.7-1.5,2.8c-0.4,1.1-0.5,2.1-0.4,3.1l0.6,1.2
		l1.7,1.9l0.2,0.1c1.2,0.6,2.1,0.7,2.8,0.5c0.2,0,0.1-0.6-0.3-1.8c-0.5-1.9-0.5-3.5-0.2-4.6l0-0.3l1.8-7.1
		c-5.8,1.3-9.4,3.5-10.6,6.4c-0.6,1.5-0.8,3.1-0.5,4.7c0.3,1.9,1.2,3.1,2.8,3.4l0.9,0.1c-0.9-0.8-1.7-1.7-2.2-2.8
		c-0.4-1-0.5-2-0.3-3.2C101.1,99.4,101.5,98.4,102.1,97.5 M119.2,75.9c-0.7-0.7-1.7-1.1-2.8-1.1c-1.2,0-2,0.5-2.2,1.6l-2.8,11.4
		l0.4-0.1l0.7-0.3c0.4-0.2,0.8-0.4,1.3-0.4c0.6,0,1,0.1,1.3,0.3l0.8,0.9c0.5,0.4,0.8,0.5,0.9,0.4l2.7-10.9
		C119.7,76.9,119.6,76.3,119.2,75.9 M119.8,68.9l0.8-0.6l0.2-0.1l-0.8-0.6c-1-0.3-1.9-0.1-2.6,0.8l-1.1,2.1
		c-0.3,1.1-0.7,2.3-0.9,3.6h1.3c0.1-0.5,0.3-1,0.6-1.4l0.5-1.6c0.6-1.5,1.1-2.2,1.7-2L119.8,68.9 M120.9,68.9l-0.7,0.6l-0.4,0.4
		c-0.7,0.7-1.3,1.6-1.8,2.8l-0.5,1.4c0.5,0.1,0.9,0.3,1.3,0.6c0.3-1.4,0.9-2.6,1.8-3.5l1.2-1l0.5-0.2l0.7-0.2
		c1.3-0.4,2.6-0.1,3.8,0.9c2.7,1.9,4.9,5.1,6.5,9.7c0.8,2.3,1.4,4.8,1.8,7.4l1.3-0.9c-0.3-2.4-0.9-4.7-1.7-6.9
		c-1.8-4.9-4.2-8.3-7.1-10.4c-1-0.7-2-1.1-3.2-1.2l-2.4,0.2L120.9,68.9 M194.4,182.9l-0.1-0.2c-1.2,0.9-2.5,1.6-4,2
		c-1.4,0.5-2.9,0.7-4.4,0.7l-2.6-0.1v2.2c0.6,0.7,1.3,1.4,2.3,2.1c1.8,1.2,3.6,1.8,5.4,1.9c2,0.1,3.4-1,4.2-3.3
		C196.3,185.8,196,184.1,194.4,182.9 M162.2,183.6c0.8-0.4,1.1-1.2,1.1-2.3c-4.8,1.1-8.6,1.4-11.4,1l-2.1-0.4
		c-0.8-0.2-1.4-0.6-1.8-1.1l-0.1,0.2l-2.2,0.9v5.2c1.6-0.1,3.2-0.3,4.8-0.7c2.6-0.7,5-1.7,7.2-3l0.2,0.1l0.7,0.7
		c0.2,0.2,0.5,0.3,0.8,0.2C160.6,184.3,161.5,184.1,162.2,183.6 M182,154.4l-3.6,1.8v37.9l3.6-1.8V154.4 M163.8,163.5v-0.4
		l-17.6,8.6l1.8,7.8l0.1,0.1c0.6,0.3,1.1,0.6,1.7,0.8l4.2,0.5l10.4-1.4h0.1l-0.1-2.2C163.9,171.2,163.8,166.6,163.8,163.5
		 M171.8,159.2l-2.3,1.1l2.3,7.1V159.2 M176.9,156.9l-3.7,1.8v33.7l3.7,1.8V156.9 M188.8,151.2l-5.4,2.5v29.8l2.8,0.1
		c2.5-0.1,4.7-0.7,6.8-1.9l1.6-1.1c0.5-0.4,0.7-0.9,0.7-1.5c0.1-1.7-0.3-4-1.1-7.1c-2.3-8.7-3.9-14.8-4.8-18.4L188.8,151.2
		 M191.9,146.4c-0.6,0.3-1.2,0.5-1.8,0.4c-1-0.1-1.8-0.6-2.5-1.5l-31.6,15.1h0.1l-19.9,9.6h-0.4L17.1,149.2v5.2l115.7,20.3v-0.1
		l3,0.6l57.1-27.4C192.5,147.6,192.2,147.1,191.9,146.4 M187.1,144.3l-0.2-0.4l-0.1-0.6v-0.1c-0.5-0.4-0.8-0.9-0.9-1.6l-48.8,4.4
		c0.1,0.8-0.1,1.3-0.6,1.8c-0.5,0.4-1.1,0.5-1.8,0.2c-0.3-0.1-0.6-0.4-0.8-0.8c-0.2,0.8-0.5,1.7-0.9,2.5l1.1,0.1
		c0.4-0.1,0.7-0.3,1-0.5h0.1c0.9,0.6,1.9,1.8,3.1,3.6l2.1,4.2l-0.1-0.1l0.4,0.8c0.1,0.3,0,0.5-0.1,0.6l-1.9-0.1l-4.5-1.4
		c-1-0.4-1.7-0.9-2.3-1.4l-0.4-0.7c-0.1-0.3-0.1-0.6,0-0.8c0.3-0.6,0.2-0.8-0.4-0.7c-0.5,0.1-0.9,0.2-1.3,0.6
		c-0.9,0.7-1.6,1.1-2.2,1.3l-1.5,0.6c-0.8,0.3-1.2,0.5-1.2,0.7c-0.2,0.4,0.1,0.7,1,0.8c0.2,0,0.4,0.3,0.6,1c0.2,1.4,0.1,3-0.4,4.8
		c-0.4,1.3-0.9,2.6-1.5,3.9l11.2,2c5.5-2.6,10.9-5.2,16.4-7.8v-0.1L187.1,144.3 M185.9,139.1v-2.5l-0.2-1l-48.8,4.4l0.4,1.6l0.1,0.8
		l-0.1,1.9l48.5-4.3L185.9,139.1 M186.9,133.5c-0.4,0-0.6,0.2-0.8,0.4l-0.1,0l-0.2,0.4v0.7l0.1,0.2l0.2,0.4l0.4,2.4v1.1l-0.2,1.4
		l0.2,0.8c0.2,0.5,0.6,0.6,1.2,0.3c0.6-0.3,0.9-0.7,1.1-1.2l0.1-0.1c0.2,0.2,0.5,0.3,0.8,0.3l0.2-0.3l0.4-0.5v0l0.6-1.1l0.5-1.3
		c0.3-1.1,0.1-2.1-0.6-3.1l-0.4-0.5c-0.8,0.2-1.4,0.4-1.8,0.8c-0.1,0.1-0.2-0.1-0.4-0.5C187.8,133.7,187.5,133.5,186.9,133.5
		 M185,133.9v-0.3l-0.8,0.5l0.8-0.1L185,133.9 M234,134.6c0.6-0.3,1-0.6,1.1-0.8c0.1-0.3,0.2-0.7,0.1-1.2v-0.2l-0.3-0.3l-1.1-0.4
		l-3-0.4l-2.8,0.2c0.4,1.4,0.5,2.8,0.4,4.3l2.8-0.2C232.3,135.5,233.2,135.1,234,134.6 M204.4,136.9l-0.1-0.4l-0.2,0.1
		c-1.5,0.4-2.9,0.2-4.3-0.6l-0.5-0.2c-1.6-0.9-2.8-2.2-3.7-3.9l-0.3-0.4c-0.4-0.9-0.8-1.8-1.1-2.6c-0.8-0.1-1.8,0.2-2.8,0.9
		c-0.8,0.6-1.5,1.4-2.1,2.3l0.1,0.1l0.2,0.1l0.1,0.2l1.4,1.2l0.3,0.6c0.4,0.8,0.6,1.7,0.6,2.9c0,0.6-0.1,1.2-0.3,1.8l-0.3,1.1v0.1
		l-0.2,0.5l-1.2,1.7l-1.1,1.1l0,0.1l-1.1,0.7l0.8,0.7l0.9,0.3c0.6,0.1,1.3,0,1.9-0.3l0.2-0.1h0c0.8-0.6,1.6-1.4,2.2-2.4l0,0l0.2-0.4
		l0.4-1.1c0.1-0.1,0.2,0,0.4,0.5v0.1l0.1,0.2l0.1,0.5l-0.1,0.1c-0.6,1.7-1.5,2.9-2.5,3.7c0.4,0.5,0.9,0.8,1.5,0.8h0.8l1-0.3l0.1-0.2
		l0.1-0.1l0,0l1-0.8c0.8-0.8,1.3-1.9,1.6-3.2c0.1-0.2,0.2-0.1,0.4,0.4c0.2,0.4,0.3,0.7,0.2,0.9c-0.3,1.5-0.9,2.7-1.9,3.7
		c0.9,0.3,1.8,0.1,2.8-0.8c0.9-0.7,1.6-1.6,2.2-2.7l1.2-2.5l0.2-0.8l0.1-0.1l0.4-1.2L204.4,136.9 M206.7,132.4l-1,2.7l-0.8,1.1
		c0.2,1,0.3,2,0.2,3.1l19.8-1.9c0.1,0,0.4,0.1,0.8,0.4l0.9,0.2l0.7-0.8v-0.9c0-0.3,0-0.4,0.1-0.4h0.2c0.3-1.6,0.3-3-0.1-4.4h-0.2
		c-0.3,0-0.5-0.3-0.6-1.1l-0.1-0.6l-1.2,0.1l-1.2,0.8L206.7,132.4 M179.3,81.1l-5.2-2c0.4,1.9,0.1,3.9-0.9,6
		c-1.3,2.8-3.3,4.9-5.9,6.2c-1.4,0.8-2.7,1.2-4,1.2c-1.4,0-2.7-0.4-3.9-1.3c-1.8,0.3-3.7,0.3-5.6,0c0.5,0.4,1.9,1.2,4.1,2.4l0.5,0.7
		l0.1,0.8l-2.7,10c-1,3.9-1.6,7.3-1.9,10.2c-0.2,2.7-0.3,5-0.3,7c0,0.8-0.1,1.2-0.4,1.2c-0.2,0-0.7-0.2-1.6-0.6
		c-2.4-1.1-4.7-2.6-6.9-4.6l-1.3,9.2c1.2,1.4,2.6,2.6,4.1,3.7l23.6,4.2l9.1-0.9c2-0.8,3.7-1.9,5.2-3.2c-0.4-3.5-0.6-6.9-0.7-10.3
		c-2.1,1.6-4.4,2.8-7.1,3.8c-2.5,0.9-5.1,1.4-7.8,1.5l-2.7,0.2c-1.2,0.1-2.1-0.1-2.6-0.5c-0.3-0.3-0.5-0.7-0.7-1.3l-0.1-1.3
		c-0.1-2-0.1-4.2,0.1-6.8l0.6-6.8c0.4-3.5,0.9-7,1.5-10.6l0.9-4.6c0-0.2,0.4-0.3,1.2-0.6l1.4-0.2c3.3-1,5.8-2.5,7.3-4.5
		C178.4,87,179.3,84.3,179.3,81.1 M180.4,81.6l-0.3-0.2c0.1,4.2-0.9,7.4-3,9.8c-2.2,2.3-5.1,3.9-8.8,4.6c-0.6,0.1-1,0.8-1.2,2
		l-1.4,9.3c-0.5,4.2-0.9,7-1,8.6c-0.3,3.3-0.3,6.2-0.1,8.7l2.1,0.3l5.4-0.5c2.3-0.4,4.3-0.9,6.1-1.6c2.5-1,4.7-2.2,6.5-3.7
		c0-3.9,0.4-7.6,1-11.1h-0.1l-1.6-1c-0.2-0.1-0.4-0.4-0.4-1c-0.1-0.5-0.1-0.7,0.1-0.6l0.4,0.2c3.6,2,6.4,4.6,8.4,7.7
		c2.2,3.5,3.1,7.4,2.7,11.5c-0.1,1.2-0.3,2.3-0.5,3.1l-0.1,0.3c0.1,0.7,0.4,1.4,0.8,2.1l1,1.6c1.2,1.7,2.7,2.7,4.5,3.1l0.9,0.1h1.8
		l0.8-0.2l0.4-0.7l1.4-3.3c1.1-3.3,1.6-7.1,1.4-11.5c-0.1-4.6-1-9.2-2.7-13.9c-2.1-5.8-5.9-11.2-11.6-16l-1.2-0.9
		C188.4,85.6,184.5,83.3,180.4,81.6 M165.9,65.8l0.1-0.1c0.2-0.2,0.1-1.1-0.2-2.9l-1.2-3.1c-0.9-1.8-2.1-3-3.8-3.4
		c-1.2-0.2-2.6-0.1-4.3,0.4c-0.9,0.2-2.5,0.7-4.6,1.5l-3.1,1v1c-0.1,0.7-0.7,1.2-1.8,1.7c-3.3,1.7-5,2.6-5.2,2.5
		c-0.2-0.1-0.5-0.5-0.9-1.3l-2.7,2.4c-1.1,0.8-1.9,1.7-2.5,2.8l-0.6,1.3c-0.3,1.6-0.1,3.5,0.6,5.5c0.5,1.4,1.1,2.6,1.8,3.4
		c0.4,0.4,0.9,0.6,1.8,0.5c0.7,0,1.3-0.2,1.9-0.5l2.4-1.6c1.1-0.9,1.7-1.7,1.9-2.4l0.2-1.3c0.1-2.1,0.6-3.3,1.4-3.6
		c0.5-0.2,1.4,0,2.8,0.4l3,0.6l3.4-0.4l2.8-0.8C160.6,68.8,162.9,67.6,165.9,65.8 M165,62.1c0.2,1.1-0.4,2.2-1.6,3.3
		c-1.1,0.9-2.5,1.6-4.3,2.2c-4.5,1.4-7.4,1.3-8.7-0.3c-1-1.2-1.6-2.4-1.9-3.6c-0.3-1.2-0.1-2.1,0.5-2.7c0.6-0.6,2.2-1.5,4.8-2.5
		c2.8-1.2,4.8-1.6,5.8-1.4c1.3,0.3,2.4,0.9,3.5,1.9C164.2,60,164.8,61.1,165,62.1 M143.6,68.4c0.5,1.1,0.6,2.1,0.4,2.8
		c-0.2,1.1-0.8,2.4-1.8,3.9c-1.1,1.4-2,2.3-2.9,2.7l-0.6,0.2c-0.4,0-0.8-0.2-1.2-0.9c-0.4-0.5-0.8-1.1-1.1-1.8
		c-0.3-1-0.6-1.9-0.8-2.9c-0.1-1-0.1-1.8,0.1-2.2c0.3-0.7,0.9-1.5,1.6-2.2c0.8-0.9,1.5-1.5,2.2-1.8l1-0.2c0.5,0,1.1,0.2,1.6,0.7
		C142.8,67.1,143.3,67.6,143.6,68.4 M138.5,67.4l-0.7,0.6c-0.7,0.7-1.2,1.4-1.6,2.1c-0.2,0.5-0.2,1.3,0,2.6s0.6,2.4,1.1,3.2
		c0.3,0.5,0.6,0.8,0.9,0.8l0.4-0.1c0.9-0.4,1.8-1.2,2.8-2.6l0.3-0.4c-2.3,1.7-3.7,2.2-4.2,1.4l-0.7-3.4
		C136.4,70.4,137,69,138.5,67.4 M162.6,65.2c1.3-1,1.8-2,1.7-3c-0.2-1.1-0.7-2-1.7-2.8c-0.8-0.7-1.8-1.2-2.8-1.4
		c-0.9-0.2-2.8,0.2-5.5,1.2c-2.6,1-4.2,1.8-4.8,2.4c-0.7,0.7-0.8,1.6-0.5,2.8c0.3,0.8,0.7,1.5,1.4,2.3c1.1,1.5,3.8,1.7,8.1,0.4
		C160.3,66.7,161.6,66,162.6,65.2 M162.3,60.6l0.3,0.6c0.2,0.6,0.3,1.2,0.2,1.9c0,0.8-0.2,1.3-0.5,1.6c-0.4,0.3-1.2,0.7-2.4,1.2
		c-2.7,1-4.8,1.5-6.1,1.4c-1.4-0.1-2.5-1.1-3.2-2.9v0.1l-0.1-0.5c-0.3-0.7-0.4-1.1-0.4-1.3c0-0.2,0.2-0.5,0.5-0.8
		c0.5-0.5,2-1.2,4.3-2.1c2.6-1.1,4.2-1.5,5.1-1.2C161,59,161.8,59.6,162.3,60.6 M170.7,62.2c0,0.6-0.2,1.1-0.6,1.4l-0.9,0.4
		l-0.6,0.1h-0.1l-2.1-0.9l0.1,1.4c0.1,1.4,0,2.2-0.3,2.4l-0.2,0.1c-3.2,2-5.4,3.1-6.5,3.4l-1.6,0.4c-2,0.4-3.8,0.5-5.4,0.1l-3.3-0.6
		v2.1c0,0.5,0.2,0.8,0.6,1l2,0.9l0.3,0.4l-0.1,0.4c-0.4,0.6-1,0.8-1.6,0.6l-2.4-1.3l-0.4-0.4l-0.1-0.5l0.6-3
		c-0.5,0.2-0.8,1.2-0.8,2.9l-0.2,1.6c-0.3,0.8-1.2,1.7-2.5,2.7l-2.6,1.7l-1.4,0.3c1.1,1.8,2.4,3.4,3.8,4.8c2,2,4.3,3.5,6.8,4.6
		c2.6,1,5.3,1.4,8,1.2c2.6-0.1,4.8-0.7,6.6-1.6l1.9-1.3h0.2c0.1,0.1-0.2,0.6-0.9,1.4l-1.9,1.4l-0.1,0.1c0.6,0.1,1.3-0.1,2.1-0.5
		c1.7-0.9,3.2-2.5,4.4-4.6c1.3-2.2,1.6-4.2,1-5.9c-0.7,1.4-1.5,2.3-2.4,2.8l-0.5,0.1c-0.1-0.1,0-0.3,0.2-0.7c1.8-3.2,2.7-7,2.8-11.3
		l0.6-0.2c1.8-0.9,2.6-2.4,2.4-4.4c-0.2-2.1-1.4-3.3-3.4-3.6l-0.1-0.2h-1.2l0.1,0.2V62.2 M162.6,71.8c0.5,0,0.8,0.2,0.9,0.6l1,3.1
		v0.4l-0.4-0.1l-0.8-1.3c-0.4-0.2-0.8-0.1-1.1,0.2l-1.8,3.2c-1.4,2.4-2.8,3.9-4.1,4.6c-1.3,0.7-2.9,1.1-4.8,1.2H149
		c-0.2,0-0.3,0.1-0.4,0.2c-0.1,0.1-0.1,0.3,0.1,0.5l0.2,0.3c0.2,0.3,0.1,0.4-0.3,0.2l-2.5-1.3l-0.2-0.2c-0.3-0.3-0.4-0.5-0.3-0.8
		l0.4-2.1l0.1-0.3l0.3,0.2l0.1,0.5l0.5,0.3c0.2,0.1,0.4,0.1,0.5,0l2.2-0.7c1.7-0.6,2.9-1.2,3.8-1.8c1.3-0.9,3-2.7,5.3-5.3l0.3-0.6
		c0-0.3-0.1-0.5-0.2-0.6l-0.9-0.8l-0.2-0.2c0-0.1,0-0.1,0.2-0.1h0.2L162.6,71.8 M156.4,85.1l-1.3,0.1l-0.4-0.1
		c0-0.1,0.1-0.2,0.2-0.3l1.9-1.4l0.4-0.4c0.5-0.3,0.8-0.3,1.1,0.1l0.2,0.6l-0.2,0.5C157.8,84.8,157.2,85.1,156.4,85.1 M161.7,74
		c0-0.3-0.1-0.5-0.6-0.6c-0.5-0.1-1,0.1-1.6,0.7c-1.9,2.4-3.7,4.2-5.3,5.2c-1,0.6-2.3,1.3-4.1,1.9l-2.2,0.9l-0.4,0.3
		c-0.1,0.2-0.1,0.3,0.1,0.5c0.3,0.4,0.7,0.5,1,0.4l4.4-0.8c0.7-0.1,1.6-0.5,2.6-1.1c1-0.6,1.8-1.2,2.3-1.9c0.7-0.8,1.8-2.4,3.4-4.9
		L161.7,74 M166.2,57.7l-1.2,1.9l1.2,2.3l2.4,1.2l0.4,0.1h0.7c0.2-0.1,0.3-0.4,0.3-0.7l-0.2-0.4l-1.5,0.2l0-0.2l-1.2-0.3
		c-0.5-0.3-0.9-0.7-1.1-1.2c-0.1-0.4,0-0.8,0.3-1.2l0.5-0.4h0l0.1-0.2c0.1-0.3,0.3-0.6,0.6-0.7l0.2,0h0.1l-0.4-0.7
		C167.3,57.1,166.9,57.3,166.2,57.7 M162.9,55.2c0-0.2,0.1-0.3,0.2-0.4l0.3-0.1c0.5-0.1,1.7,0.2,3.7,1c1.3,0.5,2.5,1.2,3.6,2h0.5
		c-1.1-1.6-2.6-2.7-4.7-3.3c-1.1-0.3-2.5-0.5-4.1-0.5c-0.3-0.1-0.4-0.2-0.4-0.4l0.1-0.5c1.2-1.8,1.2-3.2,0.1-4.3
		c-1-1-2.1-1.2-3.2-0.7l-0.2,0.1c-1.2,0.8-2,1.5-2.4,2.1l-1.4,1.2l-1.8,0.1c-1.9-0.7-3.6-0.7-5,0c-0.6,0.3-1,0.7-1.3,1.2
		c-0.8,1.2-1.5,2-2.2,2.3c-0.4,0.2-0.8,0.3-1.4,0.4h-0.9c-0.7,0-1.2,0.1-1.5,0.4c-0.3,0.2-0.5,0.4-0.6,0.5c-0.2,0.4-0.5,1.4-0.8,3
		l-0.6,2.8c-0.5,1.2-1.1,2.1-1.8,2.6l-0.1,1.2l0.9-0.8c1.7-1.3,2.6-2.1,2.8-2.5l0.2-0.2l3.4-2c1.9-1.1,3.4-1.6,4.4-1.6l7.7-2.7
		l3.9-0.3c2,0.2,3.5,1.3,4.6,3.2l1-1.6c0.7-0.4,1.3-0.6,1.6-0.6l-4.2-1.1C163,55.5,162.9,55.4,162.9,55.2 M172.2,61.1l0.1-2.3
		l-0.1-0.2l-4.4,0.1l-0.2,0.2l1.1,2.1C170,61,171.2,61,172.2,61.1 M166.4,45.4c-0.9-0.8-2-1.5-3.2-2.1c-1.6-0.8-2.8-1.2-3.8-1.1
		c-0.1,0-1.2-0.4-3.1-1.3c-1.7-0.8-3.2-1-4.5-0.5c-0.8,0.3-1.8,0.6-3.1,0.8l-1.3-0.1l-1.1-0.2l-2.7,0.2l-0.2,0.1
		c-0.5,0.3-0.8,1.6-1,3.9l-0.2,2.1c-0.1,0.4-0.4,0.6-0.7,0.8l-1.3,0.4c-0.7,0.1-1.2,0.2-1.7,0.4c-0.3,0.1-0.5,0.3-0.7,0.5
		c-0.6,0.6-1.3,2.4-2.1,5.5c-0.3,1.2-1,2.1-2,2.8c-0.7,0.3-1.5,0.4-2.3,0.2c-0.7-0.1-1.3-0.6-1.6-1.4c-0.2,0.7-0.3,1.5-0.2,2.4
		c0.1,1.1,0.6,2.1,1.5,3.1c0.9,1.1,1.9,1.8,3.1,2.2c0.6,0.2,1.1,0.1,1.8-0.2c0.8-0.4,1.5-1.2,1.9-2.4l0.5-2.6
		c0.3-1.7,0.6-2.8,0.9-3.2c0.4-0.6,0.8-1,1.2-1.2c0.2-0.1,0.5-0.2,0.9-0.3h2.1l0.4-0.1l0.8-0.9l2.3-3.9l0.4-0.4
		c0.7-0.4,2-0.2,3.9,0.4l3.2,1l0.2-0.1c0.3-0.2,0.8-0.7,1.6-1.7c0.8-1,1.4-1.6,1.8-1.8l0.6-0.5c1.1-0.6,2.2-0.6,3.2-0.2
		c0.8,0.4,1.4,0.9,1.9,1.7c0.4,0.5,0.6,1.4,0.4,2.5c-0.2,0.8-0.5,1.7-0.9,2.5l3.5,0.7c2,0.6,3.6,1.6,4.8,3.2c-0.2-1.4-0.5-2.8-1-4.4
		C169.6,49.2,168.2,46.9,166.4,45.4z"/>
</g>
</svg>
