<?xml version="1.0" encoding="utf-8"?>
<!-- Generator: Adobe Illustrator 25.4.1, SVG Export Plug-In . SVG Version: 6.00 Build 0)  -->
<svg version="1.1" id="Blacksmith_x2C_PerkClip_x5F_4b253" image-rendering="auto"
	 xmlns="http://www.w3.org/2000/svg" xmlns:xlink="http://www.w3.org/1999/xlink" x="0px" y="0px" viewBox="0 0 240 240"
	 style="enable-background:new 0 0 240 240;" xml:space="preserve">
<style type="text/css">
	.st0{fill:#FFFFFF;}
</style>
<g>
	<rect width="240" height="240"/>
	<path class="st0" d="M144.2,172.6l-3.7,1.8l0.2,37.9l3.7-1.5L144.2,172.6 M135.6,176.5h-0.2l0.2,34.2l3.6,1.5l-0.2-37.2l-2.8,1.3
		L135.6,176.5 M117.6,124.8c0-0.2,0-0.4,0.1-0.5l0.3-1.2c-1.4,0.6-2.9,1-4.5,1.3l-3.4,0.4l4.8,0.8L117.6,124.8 M123.8,129.2
		l-0.2,0.2c-0.4,0.1-0.8,0.3-1,0.5c-0.2,0.4,0,0.7,0.7,0.9l1.2,0.2c1.2,0.3,2.1,0.6,2.6,0.9l1.5,0.6c0.6-0.1,0.9-0.5,0.9-1.2
		c-0.1-0.1-0.2-0.4-0.3-0.7c-0.1-0.3-0.1-0.6,0-0.8l0.6-0.8l-6.3-1L123.8,129.2 M134.1,135.4l-1.6-0.2c-0.8,0.1-1,0.4-0.8,0.8
		l1.3,2.1c0.1-0.6,0.3-1,0.7-1.2l1.5-0.1c0.5,0.2,0.8,0.8,1.1,1.6l30.3-2.7l-15.6-2.8l-0.2-0.1l-13.9-2.5l-0.3,0.9
		C135.9,133.1,135.1,134.4,134.1,135.4L134.1,135.4 M136.6,127.2c-1.3,0.4-2.5,0.9-3.5,1.6c-0.5,0.2-0.9,0.4-1.3,0.7
		c-0.7,0.5-1.3,1-1.8,1.6c0.3,0.7,0.4,1.3,0.3,1.8c-0.1,0.7-0.4,1.1-0.9,1.2l-1.1,0.1l-0.4-0.1l-0.1-0.1l-3.1-1.3h-0.1l-1.6-0.2
		c-0.6-0.2-1-0.6-1.2-1.1c-0.4-0.9-0.5-1.7-0.2-2.4c0.1-0.3,0.3-0.6,0.7-0.8c0.3-0.2,0.5-0.2,0.6,0l-0.2-1.2
		c-0.2-1.1-0.7-2.2-1.4-3.3l-1.6-2.2l-0.4,0.9c-0.3,0.6-0.6,1.3-0.8,2l-0.2,0.5l-0.3,1.3l-0.2,2.5c0.9,0.2,1.5,0.9,1.8,2.1
		c0.2,0.9,0,1.6-0.8,2.1l-2.3,1l-2.2,1.6h0l-0.2,0.1l-1,0.3h-0.3c-0.5-0.1-0.8-0.4-1.1-0.9c-0.3-0.8-0.4-1.5-0.4-2.1
		c-0.8-0.6-2.2-1.1-4-1.7l-3.3-0.8c1,2.6,2.3,4.6,3.9,5.8h0.9c0.5-0.2,0.8-0.3,1-0.3c0.6,0,1,0.5,1.4,1.5c0.2,0.5,0.2,1.1,0.1,1.6
		l-0.5,1.6l-0.3,1.9v0.3l-0.4,1.2l-0.6,0.7c-0.4,0.4-0.9,0.4-1.4,0.1c-0.4-0.3-0.8-0.8-1.1-1.4c-1.1,0-2.3,0.4-3.6,0.9
		c-1.1,0.5-2.2,1.2-3.3,1.9c2.9,1.3,5.3,1.7,7.2,1.4v-0.1l0.2-0.6c0.4-0.7,0.9-1.1,1.4-1.1c0.7,0.1,1.2,0.5,1.7,1.2l0.8,2.1l0.5,0.8
		l-0.2-0.1l0.7,1.3c0.2,0.5,0.2,1,0.2,1.6c-0.1,0.7-0.7,1.1-1.7,1.1l0.1,0.1l-0.8-0.2c-1.4,1.3-2.4,3.5-3.1,6.5l4.7-2.5
		c0.8-0.5,1.5-1,1.9-1.5l-0.2-0.5l-0.2-0.2c-0.4-1.4-0.1-2.2,0.9-2.4c0.5-0.1,1.3,0.1,2.2,0.6c1.2,0.7,2,1,2.3,1.1l1.8,0.2
		c0.6,0.1,1,0.5,1.2,1c0.4,0.8,0.5,1.5,0.2,2.1h0.1l-0.1,0.4l-0.7,0.8c-0.4,0.2-0.6,0.2-0.6,0.1c0.1,1,0.5,2.2,1.2,3.5
		c0.6,1.2,1.3,2.3,2.1,3.4c0.2-0.1,0.5-1.1,1-2.9c0.5-1.8,0.8-3.3,0.9-4.4l-0.2-0.1h-0.1c-0.3-0.2-0.6-0.4-0.8-0.7
		c-0.3-0.3-0.5-0.8-0.7-1.4c-0.2-0.9,0-1.6,0.8-2.1l2.3-0.9l2.5-1.9c1.1-0.7,1.9-0.5,2.4,0.5c0.3,0.7,0.4,1.5,0.4,2.2l2.1,1
		l-0.1,0.1l5.1,1.5l-0.4-1.2l-0.9-1.5l-0.7-0.9l0.2-0.2c-1.2-1.8-1.9-2.6-2.1-2.4c-0.5,0.5-1.1,0.6-1.8,0.4c-0.6-0.1-1-0.5-1.3-1.2
		c-0.3-0.7-0.2-1.7,0.3-2.9l0.8-2.2h0.1l0.4,0.8l0.1,0.3c0,0.5,0.4,0.7,1,0.6c0.6-0.1,0.9-0.3,1.1-0.7c0.1-0.2,0.2-0.6,0.1-1v-0.2
		c0-0.1,0-0.2,0.1-0.2h0.1c0.2-1.4,0.2-2.7-0.1-3.9l-0.1-0.4c-0.3,0-0.5-0.4-0.6-1.2l-0.2-0.4l-1.2-0.1c-0.6,0.3-0.8,0.7-0.8,1.2
		v0.4l-0.2,0.1h-0.1l-0.3-0.5l-1.4-2.3c-0.6-0.9-0.9-1.8-0.7-2.5c0.1-0.7,0.4-1.1,1-1.3c0.6-0.3,1.2-0.2,1.8,0.1
		c0.2,0.1,0.7-0.6,1.3-2.1l0.6-1.4L136.6,127.2 M124.8,120.1c5-4.8,9.1-11.2,12.3-19.1l-1.4-0.4c-3.1,7.7-7.1,13.8-11.8,18.4
		l-2.9,2.5l0.8,1.2C122.8,121.9,123.9,121.1,124.8,120.1 M19.3,170.9c-3.3,0-6-0.5-8.3-1.6c-0.8-0.4-1.4-0.9-1.9-1.3v2.4
		c0,1.1,1,2,2.9,2.9c2.1,1,4.5,1.4,7.4,1.4l4.6-0.5v-3.7L19.3,170.9 M35.6,168.4c0.7,0.5,1.7,0.9,3.2,1.3c3.2,1,7,1.4,11.5,1.4
		c4.5,0,8.4-0.5,11.5-1.4c2.8-0.9,4.2-1.8,4.2-2.8v-2.8l-30.4-5.3V168.4 M38.5,171.1c-1.2-0.4-2.2-0.7-3-1.1v3.5
		c0.7,0.5,1.7,0.9,3.2,1.3c3.1,1,7,1.5,11.5,1.5c4.5,0,8.4-0.5,11.5-1.5c2.8-0.9,4.2-1.8,4.2-2.8v-2.8c-0.9,0.7-2.3,1.3-4,1.8
		c-3.3,1-7.2,1.5-11.7,1.5C45.8,172.6,41.9,172.1,38.5,171.1 M36.2,172.7v-1.4c1.3,0.7,3.2,1.2,5.5,1.6v1.2
		C39.5,173.8,37.7,173.3,36.2,172.7 M63.9,171.2v1.4c-1.5,0.6-3.2,1.1-5.2,1.4v-1.2C60.9,172.5,62.6,171.9,63.9,171.2 M50,174.9
		l-6.2-0.4v-1.3l6.2,0.4l6.5-0.4v1.3L50,174.9 M29,157.8l-3.7-0.6v34.8l3.7,0.8V157.8 M34.2,158.6l-3.7-0.7v34.8
		c1.2-0.6,2.5-1.2,3.7-1.8V158.6 M19.3,143.1c-3.3,0-6-0.6-8.3-1.7c-0.8-0.4-1.4-0.8-1.9-1.3v25.1c0,1.1,1,2,2.9,2.9
		c2.1,0.9,4.5,1.3,7.4,1.3l4.6-0.4v-12.2l-7.4-1.3c-0.4-0.1-0.6-0.3-0.6-0.6v-6.9l13.7-6.4v-1.6l-2,1.2
		C25.4,142.5,22.6,143.1,19.3,143.1 M11.9,140.2c2.1,0.9,4.5,1.3,7.4,1.3c2.9,0,5.4-0.4,7.5-1.3c1.9-0.9,2.9-1.9,2.9-2.9v-2.5
		l-2,1.2c-2.3,1.1-5,1.7-8.4,1.7c-3.3,0-6-0.6-8.3-1.7c-0.8-0.4-1.4-0.8-1.9-1.2v2.5C9,138.4,10,139.3,11.9,140.2 M65.3,125.7
		l-0.2,0.1l-46.8,22.6l49.4,8.6h0.1l55.8,9.8c-0.9-1.3-1.6-2.5-2.2-3.8c-0.9-1.9-1.4-3.6-1.3-5.1l0.1-0.2l1-0.6
		c0.3-0.3,0.1-0.6-0.7-0.8l-1.3-0.2c-1.1-0.3-1.9-0.7-2.5-1c-0.5-0.4-1.1-0.6-1.8-0.6l-0.6,1.1l0.4,0.7c0.1,0.4,0.1,0.7,0,0.8
		c-0.5,0.6-1.1,1.1-2,1.7l-4.1,2.2c-1,0.5-1.6,0.6-1.9,0.5c-0.1-0.1-0.3-0.4-0.4-0.7l-0.1-0.8c0.7-4.1,1.9-6.9,3.5-8.4
		c0-0.1,0.1-0.1,0.2-0.1l1.1,0.4c0.5,0,0.8-0.1,1-0.4c0.2-0.3,0.1-0.7-0.1-1.2l-0.7-1.1l-0.2-0.5c-0.3-0.7-0.6-1.1-0.8-1.4
		c-0.4-0.4-0.8-0.5-1.3-0.2c-0.6,0.3-0.8,0.8-0.8,1.4l-0.2,0.2l-3.2-0.2l-4.3-1.3c-0.5-0.2-0.9-0.4-1.2-0.7c-0.1,0.1-0.2,0-0.3-0.3
		l-0.2-0.6c0-0.3,0-0.5,0.1-0.6h-0.1c1.2-1,2.5-1.9,3.9-2.5c1.7-0.9,3.2-1.3,4.4-1.3c0.3,0,0.4,0.2,0.5,0.7c0.2,0.7,0.6,1,1.3,0.8
		c0.7-0.2,1-0.7,1.1-1.3c0.1-0.8,0.3-1.5,0.5-2.1c0.2-0.3,0.3-0.7,0.4-1.4c0.2-0.8-0.1-1.2-0.7-1c-0.5,0.1-0.9,0.3-1.2,0.6l-0.1,0.1
		c-2-1.3-3.7-3.8-5.2-7.6l-0.2-0.6c-0.1-0.7-0.1-1,0-1l2.3,0.2l4.4,1.5c0.8,0.4,1.4,0.8,1.9,1.2l0.4,0.8c0.1,0.3,0.1,0.6,0,0.8
		c-0.3,0.6-0.2,0.8,0.4,0.8c0.6,0,1-0.1,1.4-0.4c1-0.8,1.7-1.3,2.1-1.4l1.5-0.6c0.7-0.2,1.1-0.5,1.2-0.7c0.1-0.3,0-0.5-0.3-0.7
		l-0.7-0.1c-0.2,0-0.4-0.4-0.6-0.9c-0.1-0.7-0.2-1.4-0.2-2.2l-21.4-3.8h-0.2l-18.1-3.2L65.3,125.7 M80.9,131v-0.6
		c0.1-0.3,0.2-0.5,0.2-0.5v-0.1c1.5-0.5,3.1-0.8,4.6-0.8c1.9-0.1,3.4,0.1,4.6,0.6c0.2,0.1,0.2,0.4,0.2,0.9c-0.1,0.7,0.2,1,0.8,1.1v0
		c0.3-0.4,0.5-0.3,0.6,0.5c0.1,0.9-0.1,1.8-0.3,2.7c-0.3,1-0.7,1.3-1.1,0.9l-0.6-0.1c-0.6,0.1-1,0.4-1.3,0.9l-0.2,0.2
		c-0.9-0.2-1.9-0.7-3-1.5l-3.4-2.9l-0.8-0.9C81,131.5,80.9,131.3,80.9,131 M65.2,140.1c0-0.1,0.1-0.2,0.2-0.2c0.9-0.1,2,0.1,3.3,0.5
		l3,1.4c0.3,0.1,0.7,0.3,1.2,0.5s0.8,0.5,1,0.8c0.1,0,0.2,0.1,0.3,0.4l0,0.6l0,0.6v0.1c-1.3,0.8-2.7,1.5-4.2,2.1
		c-1.7,0.6-3.2,0.9-4.6,0.7c-0.1,0-0.2-0.3-0.3-0.8c-0.1-0.6-0.5-0.9-1.1-0.9c-0.3,0.4-0.5,0.3-0.8-0.3c-0.3-0.8-0.5-1.7-0.5-2.6
		c0-1,0.3-1.5,0.9-1.3h0.5C64.8,141.1,65.1,140.7,65.2,140.1 M77.3,142.3c-0.2,0.1-0.3-0.2-0.5-0.9c-0.1-0.3-0.1-0.5,0.1-0.5v-0.1
		c1.2-1,2.5-1.8,3.9-2.6c1.7-0.8,3.1-1.2,4.3-1.2c0.1,0,0.3,0.2,0.4,0.8c0.2,0.6,0.6,0.9,1.3,0.8c0.2-0.5,0.4-0.4,0.7,0.2
		c0.4,0.8,0.6,1.6,0.8,2.5c0.1,1.1-0.2,1.5-0.7,1.4l-0.5,0.2c-0.6,0.3-0.9,0.8-0.9,1.3c0,0.2,0,0.3-0.2,0.3l-3.2-0.1l-4.4-1.4
		C78,142.8,77.6,142.5,77.3,142.3 M86.9,141.1L86.9,141.1l-0.1-1h-0.1c-0.5-0.2-0.9-0.7-1.3-1.5c-2,0-4.3,1-7,2.8
		c3,1.3,5.3,1.7,7.2,1.4v-0.1l0.2-0.6l0.2-0.5C86.3,141.3,86.7,141.2,86.9,141.1 M65.7,141.4v0.2l-0.3,0.7l-0.2,0.3l-0.9,0.5l0,1
		c0.5,0.2,0.9,0.7,1.2,1.6c2.1,0.2,4.5-0.5,7.2-2C70,142.1,67.7,141.3,65.7,141.4 M90,131.9l-0.1-0.7c-1-0.4-2.2-0.6-3.6-0.6
		l-3.9,0.6c2.2,2.2,4.2,3.6,6,4l0.2-0.1l0.4-0.6l0.9-0.5h0.4l0.2-0.9v0C90.3,132.8,90.1,132.4,90,131.9 M60,127.2l0-1l-0.1,1.1
		L60,127.2 M52.1,103.1v1.6c0,0.7-0.6,1-1.9,1c-1.3,0-2-0.3-2.1-0.8v-1.6h-1.1l0,0.2c-1,0.4-1.6,0.9-1.8,1.6l-0.1,0.3
		c0,0.6,0.5,1.2,1.5,1.7c1,0.6,2.3,0.9,3.7,0.9c1.5,0,2.7-0.3,3.8-0.9c1-0.5,1.5-1,1.5-1.7l-0.1-0.3c-0.2-0.5-0.6-1-1.3-1.4
		C53.5,103.5,52.9,103.2,52.1,103.1 M61.8,120.7c2.2-0.6,3.6-1.4,4.2-2.2v-4c0-2-0.9-3.8-2.8-5.4c-1.7-1.4-3.8-2.5-6.3-3.2
		c-0.2,1-0.8,1.8-1.9,2.5c-1.3,0.8-2.9,1.1-4.8,1.1c-1.8,0-3.4-0.4-4.7-1.1c-1.1-0.7-1.8-1.5-1.9-2.5c-2.6,0.7-4.7,1.8-6.4,3.2
		c-1.8,1.6-2.8,3.4-2.8,5.4v4c0.6,0.8,1.9,1.6,4,2.2c3.2,1,7,1.5,11.7,1.5C54.9,122.2,58.8,121.7,61.8,120.7 M64.1,125.2l1.3-0.6
		l-0.9-0.1C64.2,124.7,64.1,124.9,64.1,125.2 M64.3,122.5l1.1-0.5v2.6l0.6-0.3v-4.8c-0.8,0.7-2.2,1.4-4.2,2
		c-3.2,0.9-7.1,1.3-11.5,1.3c-4.4,0-8.2-0.4-11.5-1.3c-1.9-0.6-3.3-1.3-4.2-2v19.9l12.8-6.1v-8.3l1.7,0.2v6.5h1.2v0.3
		c1-0.4,1.9-0.9,2.8-1.3l0-1.3c0-1.2,0.2-2.2,0.5-3c0.4-1,1-1.5,1.8-1.6c0.4,0,0.8,0.1,1.2,0.5c0.3,0.3,0.6,0.8,0.8,1.3l-1.5,1.1
		c-0.1-0.6-0.3-0.9-0.5-0.9c-0.4,0.1-0.7,1-0.7,2.7l0,0.4l0.5-0.3v-1.1l2.2-0.2l0,0.2l1.2-0.5l0.5-3.6l1.9-0.4l0.4,2.6l1.2-0.5
		c0-0.6,0.2-1.2,0.4-1.8C63.3,123.5,63.7,122.9,64.3,122.5 M46.4,124.8v2.1l-1.4-0.1v1.2l1.2,0.1v2L45,130v1.3l1.4,0.1v2l-2.9-0.3
		v-8.5L46.4,124.8 M41,124.2l1.5,0.2v5.6c0,2.1-0.7,3-2,2.8c-1.3-0.3-2-1.5-2-3.7v-5.5l1.6,0.3l0,6.1c0,0.3,0.1,0.5,0.3,0.5
		c0.2,0,0.3-0.1,0.4-0.3L41,124.2 M35,121.5c0.2,0.5,0.6,0.9,1.2,1.2l1.5,0.6v2l-1.2-0.5v1.2l1.2,0.4v2.1l-1.2-0.4v3.2l-0.8-0.4
		c-0.3-0.2-0.6-0.5-0.7-0.9V121.5 M62.9,99.8c-0.2,0.2-0.4,0.3-0.7,0.3l-2.2,0.1c-0.3,0.4-0.8,0.7-1.2,0.7h0c-0.5,0-0.9-0.2-1.3-0.5
		l-2.5,0.2c-0.2,0-0.4-0.1-0.6-0.2c0.2,0.8,0.7,1.5,1.3,2.1c0.9,0.8,1.9,1.1,3,1.1l2.1-0.4l0.4-0.2l1.3,1.9c0.1,0.2,0.3,0.2,0.4,0.2
		l0.2-0.2c0.2-0.1,0.2-0.2,0.1-0.4l-1.3-2l0.2-0.3c0.7-0.7,1.1-1.5,1.2-2.3L62.9,99.8 M80.6,108.4l-0.5,0c3.2,5.3,8.4,9.9,15.6,13.8
		l4.9,0.9c-4.3-2-7.9-4.1-10.8-6.4c-3.5-2.7-6.3-5.6-8.4-8.9l-0.2,0.2v0.1L80.6,108.4 M74.4,110.6c-0.5-1.8-1.3-3.3-2.4-4.4
		c-1.1-0.9-2.7-1.3-4.9-1.3l-3-0.1c-0.1,0.3-0.3,0.6-0.6,0.8l-0.2,0.2l-0.1,0.1c1.1,0.5,2.4,0.8,4,0.7c1.9-0.1,3.2,0.2,3.9,0.9
		c0.8,0.7,1.5,1.9,1.9,3.6l1.1,4.4c0.3,1.6,0.8,3,1.7,4.2l1.4-0.7c-0.9-1.1-1.5-2.4-1.7-3.9L74.4,110.6 M59.5,98.8
		c-0.1-0.4-0.4-0.6-0.8-0.6c-0.5,0.1-0.8,0.3-1,0.7l-0.1,0.2l-2.8,0.1c-0.2,0.1-0.3,0.2-0.3,0.3l0.3,0.3l3-0.1l0,0.2
		c0.2,0.2,0.5,0.3,0.9,0.3c0.4,0,0.6-0.2,0.8-0.4l0.1-0.1l2.6-0.2c0.2,0,0.2-0.1,0.2-0.3c0-0.2-0.1-0.3-0.2-0.3l-2.6,0.1L59.5,98.8
		 M58,91.4l0.4-0.2l0.4-0.3c0.4-0.4,0.6-0.8,0.7-1.3c0-0.5-0.2-1-0.5-1.4c-0.4-0.4-0.8-0.6-1.4-0.6c-0.6,0-1,0.2-1.3,0.5
		c-0.5,0.3-0.7,0.7-0.7,1.3c0,0.5,0.2,1,0.5,1.4c0.3,0.3,0.7,0.5,1.2,0.6h0.5l0.3,2.9l-0.5,0.1c-0.8,0.2-1.5,0.5-2.1,1.1
		c-0.6,0.5-1,1.1-1.2,1.9L54,97.9h-3v-2.6h-1.9v5.6l-0.8-0.3l-0.5-0.2h-1.9c-0.4,0-0.7,0.2-0.9,0.5l-0.2,0.4h-2l-0.1,0.1l0.1,0.1H45
		l0.1,0.2c0.2,0.3,0.5,0.4,0.8,0.4h1.9l0.5-0.1l0.8-0.6v2.9l1.1,0.1l0.8-0.1v-5.9h2.9v0.2l0.1-0.1c0.2-0.2,0.4-0.3,0.7-0.4l2.4-0.1
		c0.3-0.5,0.8-0.8,1.5-0.9h0.1c0.5,0,1,0.2,1.3,0.8l2.1-0.1c0.3,0,0.6,0.1,0.8,0.2l0.2,0.4c-0.1-1.2-0.5-2.2-1.2-3l-0.3-0.4l1.7-2.2
		l0.9,0.2c0.5,0,1-0.2,1.3-0.5c0.4-0.4,0.6-0.9,0.6-1.4c0-0.6-0.2-1-0.6-1.4c-0.4-0.4-0.8-0.6-1.3-0.6c-0.5,0-1,0.2-1.4,0.6
		s-0.6,0.9-0.6,1.4c0,0.5,0.2,0.9,0.5,1.2l0.2,0.4l-1.6,2.1l-0.4-0.2c-0.6-0.3-1.2-0.5-2-0.6h-0.4L58,91.4 M47.1,93.5
		c0.7,0.3,1.7,0.4,2.8,0.4l2.8-0.4c0.7-0.2,1-0.5,1-0.7c0-0.2-0.3-0.5-1-0.7c-0.8-0.3-1.8-0.5-2.8-0.5c-1.1,0-2,0.1-2.8,0.5
		c-0.7,0.2-1.1,0.5-1.1,0.7S46.4,93.3,47.1,93.5 M19.3,75.3c-1.7,0-3.2-0.3-4.4-0.9c-0.9-0.5-1.5-1-1.8-1.6
		c-1.2,0.8-2.1,1.9-2.8,3.1c-0.9,1.4-1.3,3-1.3,4.6v51.8c0,0.6,0.3,1.1,0.9,1.7l2,1.2c2.1,0.9,4.5,1.3,7.4,1.3
		c2.9,0,5.4-0.4,7.5-1.3c1.9-0.9,2.9-1.8,2.9-2.9V80.4c0-1.7-0.4-3.2-1.3-4.6c-0.7-1.2-1.7-2.2-2.8-3.1c-0.4,0.6-1,1.2-1.8,1.6
		C22.5,75,21,75.3,19.3,75.3 M17.1,90.8c0-1.7,0.7-2.5,2.1-2.5c0.8,0,1.4,0.3,1.8,0.9c0.3,0.5,0.5,1.1,0.5,1.9
		c0,0.8-0.2,1.5-0.5,2.1c-0.4,0.8-1,1.1-1.8,1.1c-0.7,0-1.3-0.4-1.7-1.2C17.3,92.4,17.1,91.6,17.1,90.8 M18.5,98.8l-1.4-3.2
		c0.2,0.1,0.5,0.2,0.9,0.3l1,0.1l0.3,1.4l0.4-1.4l1.8-0.2l-1.3,3.1l1.4,2.8l-1.7,0.2l-0.6-1.6l-0.2,0.7l-0.4,0.9l-0.9-0.1
		c-0.3,0-0.6-0.2-0.8-0.4c0.3-0.2,0.6-0.5,0.9-1.1L18.5,98.8 M21.5,113.3l0,0.2c0,2.3-0.7,3.4-2.1,3.4c-0.8,0-1.4-0.4-1.8-1.2
		c-0.3-0.6-0.5-1.3-0.5-2.2c0-1.7,0.8-2.6,2.2-2.6c1,0.1,1.6,0.4,2,1.1c-0.3,0.2-0.8,0.5-1.5,0.8l-0.1-0.3c-0.1-0.2-0.2-0.3-0.3-0.2
		c-0.5,0-0.8,0.6-0.8,1.7l0.1,0.9c0.1,0.3,0.3,0.5,0.5,0.5c0.4,0,0.5-0.3,0.5-0.8h-0.6v-1.2L21.5,113.3 M20.6,120.8v1.3l-1.1,0.1
		v0.8l1.3,0v1.4l-2.9-0.1v-5.8c0.9,0.2,1.9,0.2,2.9,0v1.4l-1.3,0.1v0.8L20.6,120.8 M17.1,103.1l0.8,0.2l0.8,0.1l0.6,1.9l0.6-1.8
		l1.6-0.2l-1.4,3.6v2.4h-1.6v-2.5C17.9,105.3,17.4,104.1,17.1,103.1 M19.9,132.1l-1.1-3.3l0.1,3.3l-1.5-0.4v-5.7l1.4,0.2l1.3,3.5
		l-0.1-3.5l1.5-0.2v5.8L19.9,132.1 M19.9,91.2c0-1-0.2-1.6-0.6-1.6c-0.4,0-0.6,0.5-0.6,1.6s0.2,1.6,0.6,1.6
		C19.7,92.8,19.9,92.3,19.9,91.2 M24.5,71.4c0-0.6-0.4-1.1-1.1-1.6c-0.6-0.4-1.2-0.6-2-0.8v1.6c0,0.7-0.7,1-2,1
		c-1.2,0-1.9-0.3-2.1-0.8v-1.8c-0.9,0.2-1.6,0.5-2.1,0.8c-0.7,0.4-1,0.9-1,1.5v0.2c0.1,0.6,0.6,1.1,1.6,1.6c1,0.5,2.2,0.8,3.5,0.8
		c1.4,0,2.6-0.3,3.6-0.8c0.9-0.5,1.5-1,1.6-1.6V71.4 M40.3,56.5l-0.1,0.6l11.5-0.6c4.9,0.1,8.6,1.4,11.2,3.9
		c2.1,2.4,3.7,6.2,4.6,11.4c1.2,7.1,2,11.3,2.5,12.7c2.5,9.1,5.7,16.7,9.7,23v-0.4l0.5-1.5c-3.6-6-6.6-13.2-8.8-21.4
		c-1.1-4.2-2-8.4-2.6-12.5c-0.4-2.7-0.9-4.8-1.5-6.4c-0.8-2.3-1.9-4.2-3.3-5.7c-3-2.9-7-4.3-12.2-4.4l-11.5,0.6l0.1,0.4V56.5
		 M31,47.8c-0.8,0-1.6,0.1-2.2,0.4c-0.6,0.3-0.9,0.6-0.9,0.9c0,0.4,0.3,0.8,0.9,1.1c0.6,0.3,1.3,0.4,2,0.4h0.5
		c0.8-0.1,1.4-0.2,2-0.5c0.5-0.3,0.7-0.6,0.7-1c0-0.3-0.3-0.6-0.9-0.9C32.5,47.9,31.8,47.8,31,47.8 M19.3,48.2l-0.8-0.1v4L18,52.2
		c-1.5,0.5-2.5,1.4-3,2.9l-0.1,0.4H9.4v-0.9H7.2c-0.4,0-0.8,0.2-1.2,0.5c-0.3,0.3-0.4,0.7-0.4,1.1v0.2c0,0.5,0.1,0.9,0.4,1.1
		c0.3,0.3,0.7,0.5,1.2,0.5h2.1v-0.7h5.4l0.1,0.4c0.3,0.8,0.7,1.4,1.1,2c0.6,0.5,1.2,0.9,2,1.1l0.4,0.1v9.3h1.9v-9.3l0.4-0.1l2-1.1
		c0.5-0.6,0.8-1.2,1-2l0.1-0.4H28l0.1,0.4c0.2,0.6,0.6,1,1.1,1.4c0.6,0.3,1.2,0.5,1.8,0.5c0.6,0,1.2-0.2,1.8-0.5
		c0.5-0.3,0.8-0.8,1.1-1.4l0.2-0.4H36l0.3-0.2l0.2-0.4h2.4l0.3-0.3v-0.4c0-0.2-0.1-0.3-0.3-0.3h-2.4L36,55.6h-2L34,55.2
		c-0.5-1-1.2-1.5-2.2-1.7l-0.5-0.1v-1.8h-0.4v1.8l-0.4,0.1c-1,0.2-1.8,0.7-2.2,1.7l-0.1,0.4h-4.4l-0.2-0.4c-0.5-1.4-1.4-2.4-2.9-2.9
		l-0.4-0.1v-4.1L19.3,48.2 M31.2,54.6c0.6,0,1.2,0.2,1.7,0.6c0.4,0.5,0.6,1,0.6,1.7c0,0.7-0.2,1.2-0.6,1.7c-0.5,0.5-1.1,0.7-1.7,0.7
		c-0.7,0-1.3-0.2-1.7-0.7c-0.5-0.4-0.8-1-0.8-1.7c0-0.7,0.3-1.2,0.8-1.7C29.9,54.8,30.5,54.6,31.2,54.6 M22.8,57c0,1-0.4,1.9-1,2.6
		s-1.5,1-2.5,1.1c-1,0-1.9-0.4-2.5-1.1C16,58.9,15.6,58,15.6,57c0-1,0.4-1.8,1.1-2.6c0.7-0.7,1.5-1,2.5-1c1,0,1.8,0.3,2.5,1
		C22.4,55.2,22.8,56,22.8,57 M21,58.8c0.5-0.5,0.7-1.1,0.7-1.8c0-0.7-0.2-1.3-0.7-1.8c-0.5-0.5-1.1-0.8-1.8-0.8
		c-0.7,0-1.3,0.3-1.8,0.8s-0.8,1.1-0.8,1.8c0,0.7,0.2,1.3,0.8,1.8c0.5,0.5,1.1,0.8,1.8,0.8C19.9,59.6,20.5,59.3,21,58.8 M32.5,56.9
		l-0.3-0.9c-0.3-0.3-0.6-0.4-1-0.4c-0.4,0-0.7,0.1-1,0.4c-0.2,0.3-0.4,0.6-0.4,0.9c0,0.4,0.1,0.7,0.4,0.9c0.3,0.3,0.6,0.4,1,0.4
		c0.3,0,0.6-0.1,1-0.4L32.5,56.9 M17.1,44.6c-0.6,0.3-0.9,0.6-0.9,1c0,0.3,0.2,0.6,0.6,0.9c0.4,0.2,0.8,0.4,1.4,0.5l2.5-0.1l0.5-0.1
		c0.8-0.3,1.2-0.7,1.2-1.2c0-0.3-0.3-0.7-0.9-1c-0.6-0.3-1.3-0.5-2.2-0.5C18.5,44.2,17.8,44.3,17.1,44.6 M142.6,77.6l1.3,0.4
		l0.3-1.6l-1.1-2.9L142.6,77.6 M131.2,98.8l-1.3-0.6c-2.6,6.9-5.3,12.3-8.2,16.5c-3,4.7-7.7,7.8-14,9.3l5.4-0.2l3-1.7
		c2.7-1.8,5-4,6.7-6.5C126,111.1,128.8,105.5,131.2,98.8 M141.6,60.9l-1.1-1.8l-0.4,4.1c-0.5,3.8-1.5,8.2-2.9,13.2l1.4,0.2
		c1-3.3,1.8-6.5,2.4-9.5l-0.2-2C140.8,63.5,141.1,62.1,141.6,60.9 M139,53.9l-2.1,0.1l-2,0.6c0.2,0.5,0.2,1,0.2,1.5v0.1
		c1.8-0.8,3.3-1,4.4-0.7l0.4,0.1l0.2,0.1l0.3-1.4l-0.6-0.2L139,53.9 M139,51.5l-2.1-0.2c-1,0.1-2.2,0.5-3.6,1.2l0.8,0.7l0.2,0.4
		c1-0.5,1.9-0.8,2.8-0.9c0.9-0.1,1.6,0.1,2.1,0.6l0.6,0.1C139.5,52.8,139.2,52.2,139,51.5 M142.6,56.1c-0.3-0.2-0.5-0.2-0.7-0.2
		c-0.1,0-0.2,0-0.2,0.1l-0.3,0.3l-0.1,0.6l0.1,0.8c0,0.4,0.1,0.7,0.3,1.1l0.6,1.2l0.6-0.6l0.9-0.8l0.6-1.8h-0.5
		c-0.4-0.1-0.7-0.2-1-0.4L142.6,56.1 M157.7,55.5l0.3-0.8l-4.1,0.4l-3.6,0.9l0.3,1.4l5.4-0.9h0.1C156.9,56.3,157.5,56,157.7,55.5
		 M113.3,75.9l-1.3-1.1c2.3,8.3,6.2,14.4,11.5,18.1c3.9,2.8,7.9,4.8,11.9,6c2.1,0.6,4,1,5.6,1.2c2,0.2,3.8,0.1,5.5-0.5h0.1l0.1-0.5
		c0-0.2,0.1-0.1,0.4,0.3l0.2,1.1l-2.4,16.7c2.3,2,4.7,3.5,7.2,4.6c0.6,0.2,0.9,0,1-0.5l-0.2-1.5l0.1-3.1c0.2-2.4,0.4-4.1,0.6-5.3
		c0.4-2.4,1-5.4,1.8-8.8l2.1-7.6l-2.3-1.3c-1.1-0.7-1.9-1.5-2.5-2.4c-1.3-1.9-1.9-3.9-2-6.2c-0.9-0.7-1.8-1.5-2.6-2.4l-1.8-2.2
		c-2.9-1.2-5.9-2-9.1-2.6l-9.1-0.5c0.8,1.1,1.7,1.7,2.6,1.7c0.3,0,0.5,0.3,0.6,0.9c0.1,0.5,0,0.8-0.2,0.8c-0.7,0-1.4-0.4-2.2-1.1
		c-0.6-0.5-1.1-1.2-1.5-1.9l-0.2-0.4l-4.8-10.6l0.4,2.8c0.1,1.4-0.2,2.7-0.8,3.8c-0.8,1.4-1.7,2.4-2.5,3.1c-1.3,1-2.5,1.1-3.8,0.3
		l-0.3-0.6l-0.1,0.1C114.7,76.4,114,76.2,113.3,75.9 M88.7,90.9c-0.2,0.1-0.3,0.1-0.4,0.2l-1.1,1.8c-0.6,0.7-1.2,0.9-2,0.7
		c-0.9-0.2-1.3-0.9-1.4-1.9l0.1-1.5v-0.1l0.1-0.6v-0.1c0-0.2,0-0.3-0.2-0.4l-0.5-0.4l0.1,0.1c-0.1-0.1-0.3-0.1-0.5,0l-1,0.6
		c-0.5,0.3-1,0.8-1.4,1.3l-0.8,1.2l-0.3,0.7c-0.3,0.8-0.6,1.8-0.7,2.9l0,1.2l0.1,0.5l0.3,0.2l0.6-0.1l0.3-0.3
		c0.5-0.8,0.9-1.3,1.3-1.6l0.2,0.1v0.1c-0.7,1.3-1,2.6-1,3.8l0.1,2.2l0.1,0.2l-0.1,0l0,1.9l-0.1,0.1l-0.3,2l-0.5,1.3
		c-0.1,0.2-0.1,0.3,0,0.5l0.3,0.4l0.5,0.1v0.1l0.5-0.3l0.6-0.9c0.6-1,1-2,1.2-3l0-0.1v-0.1c0.3-1.5,0.8-2.8,1.5-4l0.1-0.1h0.1
		l0.1-0.3l0.1-0.1l0.2,0.2l-0.3,1.2l0.2,0.5l0.5,0.3l0.4-0.1l0.4-0.4l0.1-0.2c0.1-0.3,0.4-0.7,0.9-1.2l0.1-0.1l1.2-1.4
		c0.8-1.2,1.3-2,1.5-2.4l0.1-0.1c0.4-0.8,0.7-1.5,0.7-2.1v-0.1l-0.2-0.8v-0.1c-0.2-0.7-0.5-1.3-0.8-1.8l-0.4-0.3L88.7,90.9
		L88.7,90.9 M86.2,97.9L86.2,97.9l0.2-0.1L86.2,97.9L86.2,97.9 M92.4,82.1l1.7-1.3c-0.2-0.9-0.5-1.7-1-2.2c-0.5-0.6-1.3-0.9-2.2-0.9
		c-1.1,0.7-1.8,1.2-2.2,1.7c-0.8,0.8-1.4,1.9-1.8,3.1l-2.2,9.4c-0.1,0.3,0.1,0.5,0.5,0.6c0.4,0.1,0.8,0,1.1-0.2l2.4-5.5
		c0.4-0.9,0.9-1.7,1.4-2.4L92.4,82.1 M97.5,73.6l-0.7,0c-0.7,0.1-1.5,0.3-2.2,0.8c-1.4,0.8-2.4,1.6-2.9,2.4l0,0.1
		c0.9,0,1.6,0.4,2.1,1.1c0.4,0.7,0.7,1.6,0.8,2.6l2-0.4l1.8-0.8l1.1-0.8c0.5-0.4,0.8-0.7,0.8-1.1h0.1
		C100.2,75.6,99.3,74.3,97.5,73.6 M107.9,70.2c-0.2,0.2-0.3,0.5-0.2,0.9c0,0.4,0.2,0.7,0.4,1.1c0.1,0,0.2,0,0.1,0.1
		c0.3,0.3,0.5,0.5,0.8,0.6l2,0.2c0.4,0.1,0.7,0.3,1.1,0.5l0.9,0.9c0.9,0.7,1.7,1,2.5,0.9c0-0.3,0-0.4,0.1-0.3l0.2,0.1
		c0.4-0.1,0.7-0.4,0.9-0.7c0.9-1,1.4-2.5,1.4-4.3c0-0.1,0.1-0.2,0.2-0.4c0.2-0.2,0.3-0.2,0.3-0.1c0,1.3-0.2,2.5-0.6,3.7
		c-0.4,1-0.8,1.7-1.4,2.2c0.6,0.1,1.2,0,1.8-0.4c0.8-0.4,1.6-1.2,2.3-2.2c0.7-1.1,1.2-2.4,1.2-3.6c0-0.9-0.1-2.1-0.5-3.7v-0.1
		l-0.2-0.6l-7.4,4.7c-0.1,0-0.2,0-0.1-0.2l-3.2,0.2C109.2,69.7,108.4,69.9,107.9,70.2 M111.6,60.5c0.1,0,0.1,0.1,0,0.4l-0.4,0.3
		c-1,0.1-2,0.4-3,0.9c-1.1,0.5-1.9,1.1-2.6,1.8l-0.5,1.3l-0.2,2.4l0.1,0.3c0.4,1.2,0.9,2,1.5,2.4c0.2,0.1,0.5-0.4,1.1-1.4
		c1-1.8,2.1-2.9,3.2-3.4l0.1-0.3l6.4-3.6c-5-3.4-9-4.5-11.9-3.2c-1.6,0.6-2.8,1.5-3.8,2.8c-1.1,1.6-1.3,3-0.6,4.4l0.6,0.8
		c-0.1-1.1,0.1-2.3,0.6-3.5c0.4-0.9,1.1-1.7,2.1-2.4c0.9-0.6,1.9-1.1,2.9-1.3v0.4l-0.4,0.4c-1.1,0.1-2,0.5-2.8,1.2
		c-1,0.7-1.6,1.6-1.8,2.6c-0.2,0.9-0.2,1.8,0,2.7c0.2,0.9,0.6,1.7,1.2,2.3l1,0.8v-0.9c-0.6-1.7-0.2-3.4,1.2-5
		C106.8,61.9,108.8,60.8,111.6,60.5 M120.8,60.4l-0.2,0.1l-9.2,5.4c-1.4,0.3-2.7,1.5-4,3.8l-0.2,0.3l-0.8,0.9
		c-0.3,0.1-0.6-0.1-0.9-0.6l-0.6-0.8c-0.2,0.7-0.4,0.9-0.8,0.8l-0.4-0.2l-0.2,0.2l-5,2.9c1.4,0.6,2.2,1.8,2.4,3.6l6.6-4.1
		c-0.4-0.8-0.3-1.6,0.2-2.4c0.2-0.4,0.5-0.7,0.9-0.9c1.3-0.6,3.1-0.9,5.5-0.8l9.1-5.6c0.1-0.7-0.1-1.2-0.6-1.7
		C122,60.9,121.5,60.6,120.8,60.4 M120.7,59.3c-0.1,0.1,0,0.1,0.3,0.2l0.8,0.1c0.4,0.2,0.8,0.4,1.1,0.8c0.4,0.4,0.7,0.8,0.8,1.2
		l0,1.2c0,0.6,0.1,1,0.2,1l9.7-5.6l0.5-0.3c0.4-0.3,0.6-0.7,0.6-1.1v-0.4l0-0.4l-0.4-1.1l-0.8-1.1l-0.9-0.8
		c-0.6-0.2-1.2-0.2-1.8,0.2L120.7,59.3 M194.4,182.9L194.4,182.9c-1.1,0.6-2.2,1.2-3.4,1.6c-1.7,0.6-3.4,0.9-5.1,0.9l-2.6-0.1v2.1
		c0.5,0.6,1.2,1.2,2.1,1.9c1.9,1.3,3.8,2,5.6,2.2c2,0.1,3.4-1,4.2-3.4C196.3,185.8,196,184.1,194.4,182.9 M163.3,182.1l0.1-0.7
		l-4.9,0.9c-2.5,0.3-4.6,0.4-6.4,0.1l-2.7-0.6c-0.6-0.2-1-0.5-1.2-0.9l-0.2,0.2l-2.2,0.9v5.2c1.6-0.1,3.2-0.3,4.8-0.7
		c2.6-0.7,5-1.7,7.2-3l0.2,0.1l0.7,0.7c0.2,0.3,0.5,0.4,0.8,0.3c1.1-0.2,2.1-0.6,2.9-1C162.8,183.4,163.2,182.9,163.3,182.1
		 M182,154.4l-3.6,1.8v37.9l3.6-1.8V154.4 M163.8,163.6v-0.5l-17.7,8.6l1.8,7.8l0.2,0.1c0.7,0.4,1.3,0.6,1.7,0.7
		c1.3,0.4,2.6,0.6,4.1,0.6l10.4-1.4h0.1l-0.1-0.1l-0.1-2C163.9,171.2,163.8,166.7,163.8,163.6 M171.8,167.4v-8.1l-2.2,1L171.8,167.4
		 M176.9,156.9l-3.8,1.8v33.7l3.8,1.8V156.9 M189.3,153.6l-0.6-2.4l-5.3,2.6v29.8l2.8,0.1c2.5-0.1,4.7-0.7,6.8-1.9l1.6-0.9
		c0.5-0.5,0.7-1,0.7-1.6c0-1-0.1-2.2-0.3-3.6l-0.8-3.4C191.8,163.3,190.2,157.2,189.3,153.6 M190.1,146.9c-1-0.1-1.8-0.6-2.4-1.5
		l-31.6,15.1l0.1,0.1l-20.2,9.6l-0.1-0.1L29,151.4l-0.2-0.1l-11.7-2v5.2l118.7,20.8l57.1-27.5c-0.4-0.3-0.8-0.8-1-1.4
		C191.3,146.8,190.7,146.9,190.1,146.9 M187.1,144.3l-0.2-0.4l-0.1-0.6v-0.1c-0.5-0.4-0.8-0.9-0.9-1.6l-48.8,4.4
		c0.1,0.8-0.1,1.3-0.6,1.8c-0.5,0.4-1.1,0.5-1.8,0.2c-0.3-0.1-0.6-0.4-0.8-0.8c-0.2,0.8-0.5,1.7-0.9,2.5l1.1,0.1
		c0.4-0.1,0.7-0.3,1-0.5h0.1c0.9,0.6,1.9,1.8,3.1,3.6l2.1,4.2l-0.1-0.1l0.4,0.8c0.1,0.3,0,0.5-0.1,0.6l-1.9-0.1l-4.5-1.4
		c-1-0.4-1.7-0.9-2.3-1.4l-0.4-0.7c-0.1-0.3-0.1-0.6,0-0.8c0.3-0.6,0.2-0.8-0.4-0.7c-0.5,0.1-0.9,0.2-1.3,0.6
		c-0.9,0.7-1.6,1.1-2.2,1.3l-1.5,0.6c-0.8,0.3-1.2,0.5-1.2,0.7c-0.2,0.4,0.1,0.7,1,0.8c0.2,0,0.4,0.3,0.6,1c0.2,1.4,0.1,3-0.4,4.8
		c-0.4,1.3-0.9,2.6-1.5,4l11.2,1.9L187.1,144.3 M185.7,140l0.2-0.9v-2.5l-0.2-1l-48.8,4.4l0.4,1.6l0.1,0.8l-0.1,1.9L185.7,140
		 M185,133.9v-0.3l-0.6,0.5l0.7-0.1L185,133.9 M186.9,133.5c-0.4,0-0.6,0.2-0.8,0.4c-0.1,0.1-0.2,0.2-0.2,0.3l-0.1,0.2v0.7l0.1,0.2
		l0.2,0.4c0.4,1.2,0.5,2.4,0.4,3.6l-0.2,1.4l0.2,0.8c0.2,0.5,0.6,0.6,1.2,0.3c0.6-0.3,0.9-0.7,1.1-1.2l0.1-0.1
		c0.2,0.2,0.5,0.3,0.8,0.3l0.2-0.3l0.4-0.5l0.6-1.1l0.5-1.3c0.3-1.1,0.1-2.1-0.6-3.1l-0.4-0.5c-0.8,0.2-1.4,0.4-1.8,0.8
		c-0.1,0.1-0.2-0.1-0.4-0.5C187.8,133.7,187.5,133.5,186.9,133.5 M234,134.6c0.6-0.3,1-0.6,1.1-0.8c0.1-0.3,0.2-0.7,0.1-1.2v-0.2
		l-0.3-0.3l-1.1-0.4l-3-0.4l-2.8,0.2c0.4,1.4,0.5,2.8,0.4,4.3l2.8-0.2C232.3,135.5,233.2,135.1,234,134.6 M204.4,136.5l-0.2,0.1
		c-1.5,0.4-2.9,0.2-4.3-0.6l-0.5-0.2c-1.6-0.9-2.8-2.2-3.7-3.9l-0.3-0.4c-0.4-0.9-0.8-1.8-1.1-2.6c-0.8-0.1-1.8,0.2-2.8,0.9
		c-0.8,0.6-1.5,1.4-2.1,2.3l0.1,0.1l0.2,0.1l0.1,0.2l1.4,1.2l0.3,0.6c0.4,0.8,0.6,1.7,0.6,2.9c0,0.6-0.1,1.2-0.3,1.8l-0.3,1.2
		l-0.2,0.5l-1.2,1.7l-1.1,1.2l-1.1,0.7c0.2,0.3,0.5,0.6,0.8,0.7l0.9,0.3c0.6,0.1,1.3,0,1.9-0.3l0.2-0.1h0c0.8-0.6,1.6-1.4,2.2-2.4
		l0.2-0.4l0.4-1.1c0.1-0.1,0.2,0,0.4,0.5v0.1l0.1,0.3l0.1,0.4l-0.1,0.1c-0.6,1.7-1.5,2.9-2.5,3.7c0.4,0.5,0.9,0.8,1.5,0.8h0.8l1-0.3
		l0.1-0.2c0-0.1,0.1-0.2,0.1-0.1l0,0l1-0.8c0.8-0.8,1.3-1.9,1.6-3.2c0.1-0.2,0.2-0.1,0.4,0.4c0.2,0.4,0.3,0.7,0.2,0.9
		c-0.3,1.5-0.9,2.7-1.9,3.7c0.9,0.3,1.8,0.1,2.8-0.8c0.9-0.7,1.6-1.6,2.2-2.7l1.2-2.5l0.2-0.8l0.1-0.1l0.4-1.2l0.1-2.5L204.4,136.5
		 M206.7,132.4l-1,2.7l-0.8,1.1c0.2,1,0.3,2,0.2,3.1l19.8-1.9c0.1,0,0.4,0.1,0.8,0.4l0.9,0.2l0.7-0.8v-0.9c0-0.3,0-0.4,0.1-0.4h0.2
		c0.3-1.6,0.3-3-0.1-4.4h-0.2c-0.3,0-0.5-0.3-0.6-1.1l-0.1-0.6l-1.2,0.1l-1.2,0.8L206.7,132.4 M168.6,95.7c-0.6,0.1-0.9,0.3-1.1,0.6
		l-0.9,4.2c-0.4,2.4-0.8,4.6-1,6.6c-0.6,4.3-0.9,7.3-1,9.1c-0.3,3.1-0.3,5.9-0.1,8.3l1.8,0.3l5.6-0.4c2.5-0.4,4.5-1,6.1-1.6
		c2.6-1,4.7-2.3,6.5-3.7c0-4,0.3-7.8,0.9-11.1l-1.6-1c-0.2-0.1-0.4-0.4-0.4-1c-0.1-0.5-0.1-0.7,0.1-0.6l0.4,0.2
		c3.6,2,6.4,4.6,8.4,7.7c2.2,3.5,3.1,7.4,2.7,11.5c-0.1,1.2-0.3,2.3-0.5,3.1l-0.1,0.3c0.1,0.7,0.4,1.4,0.8,2.1l1,1.6
		c1.2,1.7,2.7,2.7,4.5,3.1l0.9,0.1h1.8l0.8-0.2l0.4-0.7l1.4-3.3c1.1-3.3,1.6-7.1,1.4-11.5c-0.1-4.6-1-9.2-2.7-13.9
		c-2.1-5.8-5.9-11.2-11.6-16l-1.2-0.9c-3.6-2.9-7.6-5.2-11.8-6.9c0.5,4.9-0.4,8.4-2.9,10.6c-1.1,1-2.5,1.8-4.1,2.4
		C172,95,170.5,95.4,168.6,95.7 M179.7,81.2l-2.8-1.1c0.1,2.3-0.7,4.5-2.6,6.6c-2.1,2.3-4.6,3.8-7.5,4.3l-4.2-0.1
		c-1.4-0.4-2.5-1.2-3.4-2.3c-2.9-0.4-5.6-1.5-7.9-3.1l0,0.2c0.1,2,0.8,3.7,2.1,5c0.9,0.9,2.4,1.9,4.4,3c0.2,0,0.4,0.2,0.5,0.6
		l0.1,0.8l-2.8,10c-1,3.9-1.6,7.3-1.9,10.2c-0.2,2.4-0.2,4.8-0.2,7c0,0.7-0.1,1.1-0.4,1.2l-1.5-0.6c-2.5-1.2-4.8-2.7-6.9-4.6
		l-1.3,9.2c1.1,1.4,2.5,2.6,4.1,3.8l23.4,4.1l9.4-0.9c2-0.8,3.7-1.9,5.1-3.1c-0.4-3.7-0.7-7.1-0.7-10.4c-1.9,1.5-4.1,2.7-6.5,3.5
		c-2.7,1-5.5,1.6-8.3,1.8l-2.7,0.2c-1.2,0.1-2.1-0.1-2.6-0.5c-0.3-0.3-0.5-0.7-0.7-1.2l-0.1-1.3c-0.1-2-0.1-4.3,0.1-6.8l0.6-6.9
		c0.4-3.5,0.9-7,1.5-10.5l0.9-4.6c0-0.2,0.4-0.4,1.1-0.5l1.4-0.2l4-1.1c1.4-0.5,2.6-1.2,3.5-2.1C179.1,88.4,180.1,85.3,179.7,81.2
		 M165.6,68.9l-1.8,0c-2.1-0.2-3.8-0.8-5.1-1.6c-1.2-0.7-2.2-1.2-3.1-1.4l-0.6,2c-0.1,0.4,0,0.8,0.3,1.1l1.6,1.5
		c0.1,0.1,0.2,0.2,0.2,0.4l-0.2,0.3c-0.6,0.5-1.2,0.5-1.7,0.1l-1.9-1.9c-0.3-0.3-0.4-0.7-0.1-1.1l1.3-2.7c-0.5,0-1.1,0.9-1.7,2.6
		l-0.6,1.4c-0.5,0.6-1.6,1.2-3.1,1.8l-3.1,0.9l-1.1-0.1l-0.3-0.1l0.1,0.1l0.1,0.2l0.6,1.8c0.5,1.3,1,2.5,1.7,3.8
		c1.4,2.4,3.1,4.5,5.1,6.1c2.2,1.8,4.6,2.9,7.2,3.5l6.7,0.3l2.2-0.6l0.2,0c0.1,0.1-0.4,0.5-1.4,1.1l-2.2,0.9h-0.2l2.2,0.1
		c1.9-0.3,3.8-1.3,5.6-3c1.9-1.8,2.8-3.6,2.7-5.3c-1.1,1.1-2.1,1.8-3.1,1.9l-0.6-0.1c0-0.1,0.1-0.3,0.4-0.6c2.7-2.5,4.6-5.9,5.9-9.9
		l0.6-0.1c2-0.4,3.2-1.6,3.6-3.5c0.4-2.1-0.3-3.6-2.1-4.5l-0.1-0.1l-1.2-0.4l0.1,0.2v0.1c-0.1,0.7-0.5,1.1-1.1,1.2l-1.4,0.1
		l-1.9-1.6l-0.2,1.3c-0.3,1.4-0.6,2.1-1,2.2h-0.1C169.4,68.4,167,68.9,165.6,68.9 M163.9,69.1l0.2,0.1l4,1.7c0.4,0.1,0.6,0.4,0.6,1
		v3.2l-0.1,0.4c-0.1,0-0.2,0-0.4-0.2l-0.4-1.6l-1.1-0.1l-2.7,2.7c-2,1.8-3.8,2.9-5.2,3.1l-4.9-0.3l-2.5-0.8c-0.2,0-0.3,0.1-0.4,0.2
		c-0.1,0.1-0.2,0.2-0.1,0.4l0.1,0.4c0.1,0.4,0,0.5-0.4,0.2l-2-2l-0.1-0.2c-0.2-0.4-0.2-0.7-0.1-1l0.9-1.8l0.3-0.2l0.1,0.3l0.1,0.5
		l0.3,0.5c0.1,0.2,0.3,0.2,0.5,0.2l2.4-0.1l4.1-0.6c1.5-0.5,3.7-1.7,6.6-3.5l0.4-0.5c0.2-0.3,0.2-0.5,0.1-0.6l-0.7-0.9
		C163.6,69.3,163.7,69.1,163.9,69.1 M159.8,80.2c0.1-0.1,0.3-0.1,0.6,0c0.2,0.1,0.3,0.2,0.4,0.4v0.5l-0.4,0.4
		c-0.7,0.5-1.4,0.6-2.2,0.4l-1.2-0.3l-0.3-0.2l0.3-0.2L159.8,80.2 M166.6,72.8c0.1-0.3,0-0.5-0.4-0.8c-0.5-0.2-1.1-0.1-1.7,0.2
		c-2.6,1.8-4.8,2.9-6.6,3.5l-6.9,0.7c-0.2,0-0.4,0.1-0.5,0.2c-0.2,0.1-0.2,0.3-0.1,0.5c0.2,0.4,0.5,0.7,0.8,0.7l4.6,0.6l2.8-0.4
		c1.2-0.3,2.1-0.6,2.8-1l4.7-3.6L166.6,72.8 M170.9,55.6c-1.1-0.6-2.5-0.9-4.3-1l-8.1,0.2l-0.2,0.8c-0.2,0.4-0.6,0.8-1.1,0.9l-1,0.2
		c-3.6,0.7-5.6,1-5.9,0.8c-0.2-0.1-0.3-0.6-0.3-1.4c-0.6,0.4-1.7,0.9-3.2,1.4l-0.1,0.1l-0.4,0.1l-0.7,0.3c-0.5,0.2-0.9,0.4-1.2,0.7
		l-0.8,0.7l-0.9,1.1c-0.4,0.7-0.6,1.6-0.8,2.5l-0.2,1v1.9c0,0.7,0.1,1.3,0.2,1.9l0.4,1.6l0.1,0.2c0.1,0.2,0.3,0.5,0.7,0.7l0.6,0.2
		l1.4,0.2l0.8-0.1l2.7-0.9c1.3-0.5,2.1-1.1,2.6-1.6l0.5-1.2c0.7-2,1.5-3,2.4-3.1c0.5,0,1.3,0.4,2.6,1.2l2.7,1.5
		c1.3,0.5,3.4,0.7,6.3,0.7c1.6,0,4.1-0.4,7.5-1.3h0.2c0.2-0.2,0.4-1.2,0.6-2.9l-0.3-3.3C173.1,57.8,172.2,56.4,170.9,55.6
		 M163.4,55.8c3.1-0.3,5.1-0.2,6,0.3c1.1,0.6,2,1.6,2.8,2.8c0.7,1.2,1,2.4,0.9,3.5c-0.2,1.1-1,2-2.5,2.8c-1.3,0.5-2.8,0.8-4.7,0.8
		c-4.7,0.1-7.5-0.8-8.2-2.8c-0.6-1.4-0.8-2.7-0.8-3.9c0-1.2,0.4-2,1.2-2.4C158.9,56.3,160.7,56,163.4,55.8 M143.2,61.1L143.2,61.1
		l1.4-1.1l0.4-0.2c0.9-0.5,1.8-0.9,2.6-0.9l1,0.1c0.5,0.1,0.9,0.5,1.4,1.1c0.4,0.6,0.7,1.3,0.8,2.1v1.4l-0.4,1.3
		c-0.6,1-1.5,2.1-2.9,3.1l-1.9,1.2l-0.6,0.3l-1.1,0.2h-0.4l-0.4-0.2l-0.2-0.1l-0.5-0.8v-0.2c-0.2-0.6-0.4-1.3-0.4-2.1v-1
		c0-0.6,0-1.3,0.1-1.9l0.2-1.1l0.5-1.1L143.2,61.1 M146.1,59.8l-0.9,0.4v0.1c-0.3,0.1-0.5,0.2-0.6,0.3l-1.4,1.1l-0.4,0.9
		c-0.1,0.4-0.2,1-0.2,1.7c-0.2,1.3-0.1,2.4,0.1,3.3l0.2,0.7l0.4,0.4h0.5l1.2-0.4l0.7-0.4l1.4-0.9l0.4-0.4l-1.8,0.7l-0.6,0.1
		c-0.7,0.1-1.2,0.1-1.6,0l-0.5-0.4l0.2-3.6l0.2-0.9c0.2-0.6,0.6-1.1,1.2-1.6c0.1-0.2,0.3-0.4,0.6-0.5L146.1,59.8 M169.2,56.5
		c-0.9-0.4-2.8-0.5-5.7-0.3c-2.8,0.2-4.5,0.6-5.2,0.9c-1.4,0.8-1.5,2.6-0.5,5.2c0.6,1.7,3.2,2.6,7.8,2.6c1.7,0,3.2-0.3,4.4-0.8
		c1.4-0.6,2.2-1.3,2.2-2.3c0.2-1.1-0.1-2.2-0.8-3.2C170.9,57.8,170.2,57.1,169.2,56.5 M163.9,56.9l5.4,0.2c0.8,0.5,1.3,1.4,1.6,2.4
		l0.2,0.7l-0.2,1.9c-0.3,0.7-0.6,1.2-1,1.4l-2.6,0.4l-6.2-0.3c-1.4-0.5-2.2-1.6-2.4-3.6v-1.8c0.1-0.2,0.3-0.4,0.6-0.6
		C159.8,57.6,161.4,57.2,163.9,56.9 M177.8,59.2l1.1,0.2l-1.3-1.2L177.8,59.2 M175.6,60.4c-0.3,0.2-0.4,0.4-0.4,0.8
		c0,0.3,0.2,0.6,0.5,0.9l0.7,0.5l-0.4-2.2l0-0.1C175.7,60.3,175.6,60.4,175.6,60.4 M176.9,60l-0.3,0.1l0.5,2.4
		c1.2,0.2,2.3,0.6,3.2,1l0.8-2.2v-0.2C179.8,60.6,178.5,60.2,176.9,60L176.9,60 M177,58.4l-1.4,0.1l-1.7,1.5l0.5,2.5l2.1,1.8
		l0.4,0.3l0.5,0.1c0.3-0.1,0.4-0.3,0.5-0.6l0-0.4l-1.4-0.3l-0.1-0.2l-0.8-0.4l-0.2-0.2c-0.5-0.4-0.7-0.9-0.7-1.4
		c0-0.5,0.2-0.9,0.6-1.1c0.3-0.2,0.5-0.3,0.6-0.3h0.1l0.2-0.2c0.2-0.3,0.4-0.4,0.7-0.4h0.3L177,58.4 M164.8,48.6
		c-0.8-0.6-1.6-1-2.4-1.3l-2.4-0.2c-0.6,0.1-1.2,0.4-1.6,0.8c-1.1,0.9-2,1.4-2.8,1.6h-1.4c-1-0.4-1.8-0.6-2.5-0.4
		c-0.2,0.1-0.4,0.2-0.6,0.3c-0.3,0.3-0.9,1.1-1.7,2.6l-1.3,2.6c-0.7,0.9-1.5,1.6-2.5,1.9l-0.3,1.1l1.1-0.5c1.9-0.7,3-1.2,3.3-1.5
		l0.2-0.1l3.9-1.1l4.8-0.2c3.5-0.2,6.1-0.2,8-0.2c1.7,0,3,0.3,3.9,0.7c1.8,0.8,3,2.3,3.4,4.4l1.3-1.1l0.2-0.1l1.7-0.1l-2.7-1.7
		l-1-0.5c-0.2-0.1-0.3-0.2-0.2-0.4c0-0.2,0.1-0.3,0.3-0.4h0.3c0.5,0.1,1.6,0.7,3.2,1.9c1.1,0.9,2.1,1.9,2.9,3l0.6,0.2
		c-0.6-1.8-1.8-3.3-3.6-4.5c-0.9-0.6-2.2-1.2-3.8-1.8c-0.3-0.1-0.4-0.3-0.4-0.5l0.2-0.4c1.7-1.4,2.1-2.8,1.4-4.1
		c-0.7-1.3-1.7-1.8-3-1.6l-0.2,0.1c-1.2,0.4-2.2,0.8-2.9,1.2l-1.8,0.8C165.9,49.2,165.3,49.1,164.8,48.6 M163.6,37.7
		c-0.4-0.1-0.8-0.2-1.2-0.4l-1.1-0.6c-1.1-0.5-2-0.7-2.7-0.5l-0.2,0.1c-0.6,0.2-1.2,1.4-2.1,3.5l-0.8,1.9l-0.9,0.5l-1.4-0.1
		c-0.6-0.1-1.2-0.1-1.8,0l-0.8,0.3c-0.5,0.2-1.1,0.9-1.9,2.1l-1.6,2.6c-0.7,1.1-1.6,1.8-2.8,2c-0.8,0.2-1.6,0.1-2.3-0.4
		c-0.6-0.4-1-1-1.1-1.8c-0.5,0.7-0.8,1.4-0.9,2.2c-0.1,0.8-0.1,1.5,0.1,2.3l0.4,1.1c0.6,1.3,1.4,2.2,2.4,2.9l0.7,0.3h1.1
		c0.9-0.2,1.7-0.8,2.5-1.8l1.2-2.4c0.9-1.5,1.5-2.5,1.9-2.8c0.5-0.5,1-0.8,1.5-0.9l1.9,0.3l1.1,0.3l0.4,0.1c0.3,0,0.7-0.2,1.1-0.7
		l3.3-3c0.2-0.1,0.4-0.2,0.6-0.2c0.8-0.1,2,0.4,3.6,1.6l2.8,1.8h0.2c0.3,0,1-0.4,1.9-1.1c1-0.7,1.8-1.2,2.3-1.2l0.8-0.2
		c1.2-0.2,2.2,0,3.1,0.8c0.6,0.6,1.1,1.3,1.4,2.1c0.2,0.7,0.1,1.5-0.4,2.5c-0.5,0.8-1,1.5-1.6,2.2c1.5,0.7,2.6,1.2,3.1,1.6
		c1.7,1.1,2.9,2.6,3.7,4.5c0.2-1.3,0.3-2.8,0.3-4.6c-0.1-3.4-0.8-6-2.1-7.8l-2.4-3c-1.3-1.2-2.4-1.9-3.3-2.1l-2.5-2.1
		c-1.4-1.3-2.9-1.9-4.2-1.7L163.6,37.7z"/>
</g>
</svg>
