<?xml version="1.0" encoding="utf-8"?>
<!-- Generator: Adobe Illustrator 25.4.1, SVG Export Plug-In . SVG Version: 6.00 Build 0)  -->
<svg version="1.1" id="Hacker_x2C_PerkClip_x5F_52403" image-rendering="auto"
	 xmlns="http://www.w3.org/2000/svg" xmlns:xlink="http://www.w3.org/1999/xlink" x="0px" y="0px" viewBox="0 0 240 240"
	 style="enable-background:new 0 0 240 240;" xml:space="preserve">
<style type="text/css">
	.st0{fill:#FFFFFF;}
</style>
<g>
	<rect width="240" height="240"/>
	<path class="st0" d="M139,89l0.1,0.4c0.1,0.3,0.4,0.4,0.7,0.2l12.1-6.8l-0.3-2.3l-12.5,8.1L139,89 M150.9,71.1l0-2.5l-21.2,5.1
		c-0.3,0.1-0.5,0.3-0.4,0.7c0.1,0.3,0.3,0.5,0.7,0.4L150.9,71.1 M147.9,52.2c-0.3-0.1-0.6,0.1-0.7,0.4c-0.1,0.4,0,0.6,0.3,0.7
		c2.9,1.1,4.3,1.9,4.3,2.2l0.3-2.5L147.9,52.2 M142.8,57.5c-0.4,0-0.6,0.2-0.6,0.5c-0.1,0.4,0.1,0.6,0.5,0.6c2.8,0.6,5.7,1.3,8.7,2
		l0.2-2.6L142.8,57.5 M132.8,37.2c-0.3-0.1-0.6-0.1-0.7,0.2c-0.1,0.3-0.1,0.6,0.2,0.7L152.7,50l0.4-2.5l-10-5.2
		C137.7,39.5,134.2,37.8,132.8,37.2 M159.7,30.7c-0.3,0.2-0.4,0.5-0.2,0.8l1.9,3.7l2.7-0.2c-0.6-1-1.8-2.4-3.6-4.2
		C160.2,30.6,160,30.5,159.7,30.7 M151.5,31.7c-0.3,0.2-0.3,0.5,0,0.7l3.6,4.7l1.7-1.5l-4.4-3.9L151.5,31.7 M180.2,33
		c-0.3-0.7-0.7-1.8-1-3.2c-0.1-0.3-0.3-0.5-0.6-0.5c-0.3,0.1-0.5,0.2-0.5,0.6c-0.1,2.4-0.1,3.7,0.1,4l2.3-0.2L180.2,33 M173,26.3
		c-0.1-0.3-0.3-0.4-0.7-0.4c-0.4,0.1-0.5,0.3-0.5,0.7l0.5,3.8c0,0.9,0.2,2.1,0.6,3.8l2.6-0.2L173,26.3 M196.8,28.4l-2.3,4l2.6-0.2
		c0.1-1,0.3-2,0.7-3.2c0.1-0.4,0-0.6-0.3-0.7C197.3,28,197,28.1,196.8,28.4 M191.8,25.3c-0.3-0.1-0.6,0-0.7,0.4l-2.6,7.2l2.6-0.2
		l1.1-6.7C192.3,25.6,192.1,25.4,191.8,25.3z"/>
	<path class="st0" d="M70.8,197.2l-3,0.2c-4.1,0.1-7.7-1-10.7-3.1l-0.1,0.1c-2.2,1.7-2.8,4-1.5,6.9c1.2,2.9,3.2,3.9,6,3
		C66.7,202.7,69.7,200.3,70.8,197.2 M99.5,195.4l0.1,0c2.7,1.7,5.6,2.9,8.8,3.7l2.2,0.5v-6.3c-0.8,0.4-1.9,0.7-3.3,0.8
		c-3.5,0.4-8.2,0-13.9-1.3c-0.1,1.1,0,1.7,0,2c0.2,0.4,0.6,0.8,1.4,1.2l2,0.7c0.9,0.2,1.5,0.2,1.8-0.2L99.5,195.4 M110.6,137.7
		l-0.1,0.1c-2.5,1.7-5.3,3.2-8.5,4.4c-6.8,2.7-13.5,3.6-20.2,2.8c-5.7-0.7-10.7-2-15.2-3.9l-1.5,8.9c-1.5,8.2-3.2,15.7-5.2,22.4
		l-2.8,9c-1.1,3.6-1.6,6.7-1.6,9.2l0,1.1l0.6,0.5l2,1.2c2.3,1.3,4.6,2,6.9,2.2c4.8,0.3,8.1-0.5,9.8-2.4c1.5-1.6,3-4.1,4.5-7.5
		c1.2-2.6,2.4-5.9,3.7-9.9l3.2-10.1c1.5-4.3,2.8-7.5,3.7-9.7c1.6-3.6,3.2-6.6,5-9.1c0.1-0.2,0.3,0,0.5,0.6c0.2,0.6,0.3,1,0.1,1.2
		c-1.6,2.2-3.1,4.8-4.4,7.7c1.1,4.7,1.5,10.4,1.5,17c0,3.8-0.3,9.5-0.7,17.2l7.9,1.5l7.8-0.3l2.6-0.7V137.7 M146,104.5v2l2.1-0.6v-2
		L146,104.5 M141.9,105.7v2l2.1-0.6v-1.9L141.9,105.7 M150.1,105.4l0.7-0.2c0.6-0.2,1.2-0.5,1.7-1v-1.5l-2.4,0.6V105.4 M133.8,110
		l2.1-0.6v-1.8l-2.1,0.5V110 M129.8,109.4v1.8l2.1-0.6v-1.7L129.8,109.4 M125.7,110.6v1.7l2.1-0.6v-1.6L125.7,110.6 M140,106.4
		l-2.1,0.5v1.9l2.1-0.6V106.4 M133.9,93.2L133.9,93.2l0.6,0.7c0.9,0.9,1.7,2.1,2.5,3.4c0.9,1.6,1.4,3.1,1.5,4.4l0.2,0.1
		c0.6,0.7,1.4,1.3,2.4,1.6c1.2,0.4,1.9,0.1,2-1.1c0.1-1.3-0.3-2.9-1.3-4.7c-1.2-2.2-2.3-3.7-3.2-4.5
		C136.9,91.7,135.3,91.7,133.9,93.2 M147.6,96.1c-0.9-1-2.1-2.1-3.8-3.3c-2.2-1.6-3.4-1.7-3.5-0.5l-0.1,0.2c1.4,1.2,2.6,3.2,3.7,5.8
		l0.6,1.9l0.3,0c1.9,1,3.1,1.2,3.5,0.7c0.6-0.7,0.7-1.5,0.5-2.5C148.7,97.7,148.2,96.9,147.6,96.1 M119.9,103.5
		c-0.7,2.7,0.4,4.9,3.1,6.4l4.5-1.3l0.8-0.5c0.6-0.4,1.1-0.6,1.5-0.6h1.5l3-0.9c1.5-1.3,1-2.4-1.5-3.2c-2.2,0.4-4.4,0.3-6.7-0.1
		c-0.4-0.1-0.4-0.2,0-0.5c0.4-0.3,0.8-0.4,1-0.3l3.6,0.2l-1.4-3.2l-0.5,0.7l-1,0.3c-0.5,0-0.7-0.1-0.5-0.3l1.2-1.6l-0.1-1.7
		c0-0.3,0.2-0.5,0.7-0.6c0.5-0.1,0.8-0.1,0.9,0.2c0.7,2.3,1.5,4.3,2.4,6.1l2.4,0.1c0.7,0.1,1.3,0.6,1.7,1.5c0.5-1.2,0.3-2.9-0.6-4.9
		c-0.7-1.6-1.6-3-2.6-4.2c-1.2-1.4-2.2-2.3-3.2-2.6c-1.3-0.4-2.6,0-4,1.3c-1.1,0.9-1.9,1.9-2.6,3
		C121.6,99.8,120.3,102.1,119.9,103.5 M121.7,111.8v1.6l2.1-0.6v-1.6L121.7,111.8 M119.7,112.5l-2.1,0.5v1.6l2.1-0.6V112.5
		 M113.2,114.3v1.6l2.2-0.7l0.2-0.1v-1.4L113.2,114.3 M107.4,76.3l-0.2,0.2c0.6,1.8,1,3.3,1.1,4.3c0.2,1.7,0.2,3.1-0.3,4.4
		c-0.6,1.8-1.6,3.3-3,4.5c-1,0.9-2.5,1.8-4.6,2.9c2.9,11.6,4.8,22,5.5,31.4c0.6,0,1.7-0.5,3.2-1.3l2-1.2l0.5-3.8v-4.3l3.5-1
		l-1.8-14.8c-0.1-0.6,0-0.6,0.3-0.2l0.5,1.1l1.2,9.5l1.2-0.1c1.3,1.6,3,2.5,5.1,2.5c-2.9-1.6-3.8-4.1-2.9-7.5
		c0.8-2.7,2.5-5.4,5.2-8.1c-1.5-4.3-3.5-8-6.2-11.1C114.7,80.5,111.3,78,107.4,76.3 M111.8,43.2l1-3c0.1-0.9,0-1.6-0.2-2.2
		c-0.2-0.6-0.6-0.9-1-0.9l-0.7,0.4c-0.6,0.6-1.2,1.1-1.9,1.3L111.8,43.2 M82.8,89.8c-2.4-1.2-4.3-2.6-5.7-4.2c-2.6-3-4-6.3-4.1-10.1
		l-4.1,2.1c1.5,2.4,1.6,4.7,0.5,6.9l0.1,0.1c1.6,2.6,2.8,5.4,3.5,8.4c0.7,3.1,1,6.1,0.7,9.1c0,0.2-0.3,0.4-0.8,0.5
		c-0.6,0.1-0.8,0-0.8-0.2c0.3-2.7,0.1-5.6-0.6-8.4c-0.6-2.8-1.7-5.4-3.1-7.9c-1,1.2-2.4,2.2-4.1,3.1c-1.7,0.8-3.4,1.2-5.2,1.4
		l-1.8-0.1c-0.9,3.8-1.5,7.6-1.5,11.4c-0.1,4.3,0.4,8.2,1.4,11.4c0.8,2.6,2.3,4.6,4.4,6.1c2.3,1.6,4.6,1.9,6.8,0.8
		c0-0.1,0-0.1,0.1,0c0.8-0.4,1.6-1.1,2.4-1.8c1.6-1.8,2.9-3.9,3.8-6.4c0.8-2.3,1.3-4.7,1.5-7.3c0-0.3,0.3-0.5,0.8-0.6
		c0.6-0.1,0.8,0.1,0.8,0.4c-0.1,2.9-0.7,5.6-1.7,8.1c-1.2,2.9-2.7,5.2-4.7,6.8c-0.7,0.6-1.6,1.1-2.5,1.5l0.2,0.9l-0.6,4.4
		c6.2,2.5,12.5,3.5,18.7,3.1l2.6-0.2c1.4-0.1,2.2-0.4,2.2-0.7L91.3,108c-0.3-4.1-0.8-7.7-1.3-11l-1.2-5.2L82.8,89.8 M78.2,73.1
		l-4.7,2.1l0.3,1c0,2.7,1.1,5.2,3.1,7.5c1.8,2,4.1,3.6,6.8,4.8l5,1.6c0.2,0.1,0.3,0.3,0.5,0.7l0.2,0.9c1.2,4.6,2.1,10.1,2.7,16.7
		c0.4,4.5,0.7,9.7,0.9,15.7l0.1,5.2l-0.2,1c-0.6,0.4-1.5,0.7-2.7,0.8l-10.6-0.5c-4-0.6-7.7-1.5-10.9-2.9l-0.1-0.1l-1.6,11.8
		c5.7,2.3,11.5,3.6,17.2,3.8c6.1,0.2,11.9-0.7,17.3-3c3.6-1.5,6.6-3.1,9.1-4.9l0-10.8l0.1-0.8c-1.5,0.9-3,1.6-4.6,2.2
		c-0.5,0.2-1-1.2-1.3-4.3l-0.5-5.4c-0.7-6.5-2.4-14.6-4.9-24.4c-0.1-0.6-0.1-1,0-1l3.7-2c1.3-0.9,2.3-1.9,3-3
		c0.8-1.4,1.2-2.9,1.2-4.4c0-1.3-0.3-2.8-0.9-4.5c-1.4,1.1-3,2.1-4.8,2.8c-0.7,1.6-1.7,2.8-3.2,3.7c-1.3,0.8-2.9,1.3-4.7,1.4
		c-3.5,0.3-6.8-0.6-9.8-2.7c-3.3-2.2-5-4.9-5.1-8.3L78.2,73.1 M59.1,71.5c-0.3-1.4-0.7-2.5-1.2-3.4c-2.1-3.2-3.7-4.3-4.8-3.4
		c-2.3,2-3.1,4.1-2.4,6.1l3.4-0.1c0.3,0,0.5,0,0.5,0.1l1.3,1.2c0.7,0.6,1.3,1,1.9,1.2C59,73.8,59.4,73.2,59.1,71.5 M59.7,65.9
		l-0.2-0.1l-3.1-3.5c-0.7-0.9-1.3-1.8-1.8-2.9l-1.4-3.1c-0.4-0.9-0.9-1.6-1.5-2.2c-0.9-0.7-1.4-0.6-1.7,0.6
		c-0.4,1.4-0.4,2.8-0.1,4.4c0.4,2.2,1.1,3.9,2.1,5.1c0.5-0.3,1-0.6,1.5-0.7c2-0.6,4,0.8,6,4.1L59.7,65.9 M63.5,65.1
		c-1.3-1.1-2.1-0.6-2.4,1.5c-0.3,3.2,0,5.4,0.9,6.7c0.7,1,1.2,0.9,1.6-0.2c0.4-0.9,0.5-1.8,0.3-2.7c-0.1-0.4,0.2-0.7,0.7-0.8
		s0.8,0,0.9,0.4c0.2,1.4,0.1,2.7-0.4,3.7c-0.6,1.2-1.6,1.7-3,1.6c-0.9-0.1-1.5-0.6-2-1.7c-0.4,0.4-0.9,0.7-1.5,0.8h-1.2l0.5,1.5
		c0.6,2.5,0,3.9-1.9,4.2l1.2,1.3c1.7-1.4,3.7-1.9,6.1-1.5c0.2,0,0.1,0.1-0.4,0.3L62,80.5c-1.7-0.2-3.1,0.3-4.2,1.5
		c-0.1,0.2-0.4,0.3-0.7,0.4c-0.3,0.1-0.6,0.1-0.8,0c-1.6-0.8-3-2.6-4.2-5.4l0.1-0.2h0c0.2-0.1,0.4-0.2,0.7-0.3l0.7,0
		c1.9,2.7,2.9,3.3,2.9,1.7c0-1.4-0.4-2.8-1.3-4.2L54,72.4l-1-0.9l0-0.1c-0.8-0.7-1.4-0.8-1.9-0.3c-1,1-1.7,2.2-2.2,3.5
		c-0.5,1.4-0.5,2.8-0.2,4.1c0.9,3,2.6,5.7,5.3,8.1c3.1,2.8,6,3.5,8.7,2.2c2.8-1.3,4.5-3,5.3-4.9c0.9-2.1,0.5-4.4-1.3-6.8l0,0l0-0.3
		c0.4-2.9,0.2-5.6-0.8-8.2C65.5,67.3,64.6,66.1,63.5,65.1 M94,34c-0.9,0.1-2.1-0.3-3.6-1c-0.6-0.3-1.3-0.4-2.1-0.3
		c-1.9,0.1-3.6,1.2-5,3.1c-0.4,0.6-1.1,0.9-1.8,1L75.6,36h-0.3c-1.5,0.1-2.5,1-2.9,2.7C72,40.4,73,41.9,75.3,43
		c0.6,0.3,0.7,0.7,0.1,1.1c-1.6,1.1-2.9,2.1-3.7,3.1c-2,2.2-2.9,4.7-2.7,7.3c0.8-2.2,1.7-4.1,2.9-5.7c1.6-1.9,2.6-3,3.2-3.2l0.3-0.1
		c0.3,0,0.5,0.1,0.5,0.3c0.1,0.2,0,0.4-0.2,0.5c-1.1,0.9-2.1,2-3,3c-1.1,1.3-2.3,3.4-3.5,6.3l0.2,1c0.2-0.7,0.6-1.6,1.1-2.5
		c0.6-1.2,1.3-2.2,2-3c0.9-1.1,1.8-1.8,2.6-2.2l0.2,0c0.3,0,0.4,0.1,0.5,0.4c0,0.3-0.1,0.6-0.5,0.9c-0.8,0.5-1.5,1.1-2,1.7
		c-0.7,0.8-1.5,1.9-2.3,3.3l-1.3,2.3v0c0.1,0.3,0.1,0.6,0,0.9l1.4-0.5L71,58.3c-1.9,1.6-2.2,3.5-1.1,5.7c1.1,2.1,2.8,3.1,5.2,3
		l0.7-0.1c2.8,4.3,6.1,7.5,9.9,9.6c0.4,0.2,0.6,0.4,0.5,0.5c0,0.1-0.2,0.2-0.5,0.2c-1.2,0.1-2.5-0.4-4.2-1.3c0.4,2,2,3.8,4.7,5.3
		c2.6,1.4,5,2,7.3,1.8c1,0,1.8-0.3,2.5-0.8l-0.2,0l-2.8-0.4c-1.3-0.3-1.9-0.6-1.8-0.8c0-0.1,0.1-0.1,0.2-0.1l2.7,0
		c2.3-0.2,4.8-1,7.5-2.4c4.9-2.6,8.4-6.8,10.5-12.6c2-5.5,2.2-11.1,0.6-16.7c-0.9-3.4-2.6-6.9-5.1-10.4c-1-0.1-2.2-0.6-3.4-1.4
		l-2.2-2.5c-1.4-1.5-2.3-2.4-2.7-2.6l-0.8-0.1c-0.5,0-1.1,0.2-1.7,0.6l-1,0.6L94,34 M84.8,43.5c-0.8,0.2-1.8,0.7-3,1.6l-1,0.2
		c-0.5,0-0.6,0-0.5-0.1c1.3-1,2.3-1.7,3.1-2c1.1-0.6,2.3-0.8,3.5-0.7c0.4,0,1.5,0.6,3.3,1.7c1.7,1,2.6,1.4,2.7,1.3
		c0.1-0.2,0.4-0.3,0.9-0.3l0.7,0c-0.4,0.6-0.9,0.9-1.5,1l-1.9-0.1l-1.7-0.9L88,44C87,43.4,85.9,43.2,84.8,43.5 M75.3,52.1l0.1,0
		c0.2,0,0.4,0.1,0.5,0.3c0.1,0.2,0,0.5-0.3,0.7l-1.5,1.2c-0.2,0.2-0.6,0.6-1,1.3l-0.8,0.8l-0.2-0.2c-0.1-0.2,0-0.6,0.3-1.2
		c0.2-0.5,0.6-1,0.9-1.5C73.9,53,74.5,52.4,75.3,52.1 M75.6,55.2c0.2,0,0.4,0.1,0.5,0.3c0.1,0.2,0,0.4-0.2,0.5l-0.5,0.5
		c-0.4,0.4-0.5,0.7-0.5,1c0,0.3-0.2,0.4-0.5,0.5c-0.3,0-0.5-0.2-0.5-0.6c0-0.4,0.2-0.9,0.5-1.3l0.9-0.9L75.6,55.2 M87.5,51.7
		c-0.4-0.5-0.6-1.2-0.6-1.9c-0.1-0.8,0-1.5,0.2-2c0.2-0.6,0.5-0.9,1-1h0c0.4,0,0.8,0.2,1.2,0.7c0.3,0.5,0.5,1.1,0.6,1.9
		c0.1,0.8,0,1.5-0.2,2c-0.2,0.6-0.6,0.9-1,1C88.3,52.4,87.9,52.2,87.5,51.7 M88.9,65l-0.4,0c-0.4,0.1-0.7,0.2-0.8,0.5l0.1,1.9
		l-0.3,0.2c-0.1,0.1-0.2-0.1-0.3-0.3l-1.1-3.7c-0.1-0.6,0.1-1,0.5-1.3l3.9-3.3l0.3-0.1c0.2,0,0.3,0.2,0.1,0.5l-0.4,1.3
		c-0.1,0.2,0,0.4,0.2,0.7l0.7,0.4l3.3,0.9c2.4,0.6,4.2,0.9,5.4,0.9h1.1c1.9-0.1,4-0.6,6.4-1.3l0.6-0.4l0.2-0.6l-0.1-0.6
		c0-0.3,0-0.4,0.1-0.4l0.3,0.2l1.7,1.8c0.4,0.4,0.5,0.8,0.2,1.3l-1.6,2.9l-0.3,0.3l-0.2-0.4v-0.4c-0.1-0.4-0.3-0.6-0.6-0.6l-0.2,0
		l-2.5,1.7c-2,1.2-3.9,1.8-5.6,2h0c-1.7,0.1-4-0.5-6.9-1.9L88.9,65 M107.5,48.2c0.1,0.8,0,1.5-0.2,2c-0.2,0.6-0.6,0.9-1,0.9h0
		c-0.4,0.1-0.8-0.2-1.1-0.7c-0.4-0.5-0.6-1.2-0.7-2c-0.1-0.8,0-1.5,0.2-2c0.2-0.6,0.6-0.9,1-0.9c0.4,0,0.8,0.2,1.2,0.7
		C107.2,46.8,107.4,47.4,107.5,48.2 M99.5,44l0.5,0.1c0.1,0.1,0.4-0.8,0.9-2.7c0.6-2,1-3,1.2-3.2c0.5-0.3,1.2,0,2,0.8l2.2,2.2
		l-0.2,0.2l-0.6,0c-0.8-0.6-1.5-0.9-1.9-0.9c-0.6,0-1.1,0.4-1.4,1.2l-0.5,1.4l-0.6,1.2c-0.2,0.4-0.6,0.5-0.9,0.5
		c-0.4,0-0.7-0.2-1-0.7C99.1,44.2,99.2,44.1,99.5,44 M96.7,46.3L96.7,46.3c0.3,0,0.6,0.2,0.8,0.6l2,3.2c0.6,0.9,1.8,2.2,3.6,4.1
		c0.4,0.4,0.4,0.9,0.2,1.3l-1.7,2.9c-0.3,0.4-0.6,0.6-1,0.6l-0.7,0l-0.3-0.1l-0.4-0.3c-0.1-0.2-0.1-0.3,0-0.5l1.4-2.2
		c0.3-0.5,0.3-1,0-1.4l-2-3.2l-2-4.1C96.3,46.7,96.4,46.4,96.7,46.3 M103,70.5l-0.3,0.3l-1.4,0.9l-1.1,0.2h-1l-0.4-0.1l-0.6-0.4
		c-0.2-0.2-0.2-0.4-0.2-0.6c0.1-0.5,0.3-0.7,0.9-0.7l3.7,0.2C102.8,70.3,103,70.4,103,70.5 M88.9,63.9l0.7,0.5l6.5,2.5l4.2,0.2
		l2.6-0.5l5-2.1c0.4-0.1,0.6-0.4,0.7-1c0.1-0.5-0.1-0.7-0.7-0.6h-0.1c-2.5,0.7-4.8,1.2-6.9,1.3l-1.2,0l-5.5-0.9l-3.1-0.9l-1-0.1
		c-0.4,0.1-0.8,0.2-1,0.5C88.7,63.3,88.7,63.6,88.9,63.9 M92.9,25.3c-0.4,0.1-0.8-0.1-1.1-0.4l-1.6-1.9c-1.6-2.2-2.7-3.3-3.4-3.3
		h-0.2c-0.8,0.1-1.8,0.6-2.9,1.5l-1,1l-1.2,0.8l-3.6,1.2c-1.6,0.3-3,1.4-4.2,3.3l-2.2,3.2c-1,0.5-2.1,1.7-3.2,3.4
		c-0.7,1.2-1.4,2.6-1.9,4.1c-0.9,2.5-0.8,5.7,0.1,9.6c0.5,2,1,3.7,1.7,5.1c0.3-2.4,1.2-4.4,2.8-6.2l3.1-2.9c-0.9-0.5-1.7-1.2-2.5-2
		c-0.9-1-1.3-1.9-1.3-2.7c0.1-1.1,0.4-2.1,1-2.9c0.8-1.1,1.9-1.7,3.3-1.8h1c0.6,0,1.6,0.3,3,0.8c1.3,0.5,2.2,0.7,2.6,0.7l0.2,0
		l2.6-3c1.5-1.9,2.7-2.8,3.7-2.9l0.7,0.1c0.5,0.2,1.4,0.7,2.9,1.5l1.8,0.9l1.3,0.4l0.5-0.2l2.2-1.3c0.4-0.2,0.7-0.3,1.1-0.3
		c0.6,0,1.2,0.2,2,0.5c0.6,0.3,1.6,1.2,3,2.7l2.2,2.4c1.3,0.9,2.4,1.3,3.4,1.2c0.7,0,1.3-0.3,1.9-0.9c0.9-1.1,1.6-2.4,1.8-4
		c0.2-1.6,0.1-2.9-0.5-4.1c-0.4-0.9-0.9-1.7-1.7-2.4c0.2,1.1-0.1,1.9-0.7,2.5c-0.7,0.7-1.5,1-2.5,1.1c-1.4,0.1-2.6-0.4-3.7-1.5
		c-2.7-2.7-4.5-4.1-5.5-4.3l-1,0c-0.6,0.1-1.2,0.2-2,0.5L92.9,25.3 M211.9,208.6l2.7-1.3c-0.5-2.2-0.8-4.6-1-7.3
		C213.5,203,212.9,205.9,211.9,208.6 M216.9,202.4l0.5,3.6l6.3-3c-0.9-5.6-3.2-12-6.9-19.2C216.2,190.4,216.2,196.6,216.9,202.4
		 M212.4,198.4c0.2-6.1-1.2-13.1-4.3-20.9c-3.5,7.7-5.8,13.6-6.8,17.7c-2.2,9.3-3.4,16-3.6,20.3l12.3-6
		C211.5,206,212.3,202.3,212.4,198.4 M214.5,179.3l-4-7l-1.5,3.4c2.4,6,3.9,11.5,4.5,16.4C213.5,188,213.8,183.7,214.5,179.3
		 M186.5,133.6c-0.6-0.6-1.3-1-2.1-1l-68-6c-0.8-0.1-1.5,0.2-2,0.7c-0.6,0.5-0.8,1.1-0.8,2v78.2c0,0.8-0.1,1.5-0.4,2.1l-0.1,0.2
		l75.1,10.5l-0.4-0.5c-0.3-0.6-0.4-1.3-0.4-2.1v-81.7C187.3,134.9,187,134.2,186.5,133.6 M196.8,147.9c0.2,1.5,0.8,3.5,2,6.1l8.6,18
		l1.3-2.9c-2.5-4.3-4.3-7.7-5.5-10.1c-1.6-3.4-2.5-6.2-2.7-8.6c-0.6-4.7-0.3-10.1,0.7-16.2C197.8,139.5,196.4,144,196.8,147.9
		 M193,131.6c-0.8,0.2-1.4,0.7-2,1.5c-0.6,0.7-0.8,1.5-0.8,2.3v82c0,0.7-0.1,1.3-0.3,1.8l4.9-2.4v-1.3c0.1-4.5,1.4-11.6,3.7-21.1
		c0.7-2.7,1.8-6,3.3-9.7c0.9-2.4,2.5-5.9,4.7-10.7l0.1-0.3l-5.3-11.1c-1.9-3.8-3.2-6.5-3.9-8.1c-1.1-2.7-1.8-4.8-2-6.4
		c-0.3-2.7,0.2-5.7,1.5-8.9c1-2.5,2.6-5.4,4.9-8.5l0.4-2L193,131.6 M206.8,127.1l-0.8,0.2l-2.8,3.8c-1.4,7.6-1.9,14-1.2,19.1
		c0.2,2.1,1.1,4.7,2.5,7.8c1.1,2.3,2.7,5.4,5,9.3c2.8-6.5,4.7-11.8,5.7-15.8c1.3-5.4,1.4-9.9,0.2-13.4
		C213.7,133.7,210.9,130,206.8,127.1 M230.6,141.5v-19.2c0-0.8-0.3-1.4-0.8-1.8c-0.5-0.4-1.2-0.5-2-0.2l-17.5,5.7
		c3.7,3,6.3,6.8,7.9,11.3c1.4,4.1,1.3,9.3-0.3,15.5c-1.1,4.4-3.3,10.3-6.6,17.7l0.1,0.1l3.6,6.2c0.8-4.7,1.8-9,3.2-13
		c1.4-4.1,3-7.5,4.7-10.3L230.6,141.5 M230.6,147l-5.4,8.3c-2,3-3.7,6.9-5.1,11.5c-1.4,4.4-2.4,9.1-3,14.3c2.3,4.4,4.1,8.4,5.4,11.9
		c1.2,3.2,2,6.3,2.5,9.2l6-2.9l-0.1-0.2c-0.3-0.6-0.5-1.3-0.5-2.1L230.6,147 M203.9,111.4c1.5,1.7,2.1,3.7,1.8,6l-0.8,5.2l2,1.1
		l3.7-5.2c1.1-1.7,1.7-3.1,1.9-4.2c0.2-1.7-0.1-3-1.1-3.9c-1.1-1.1-3-1.8-5.5-2.1c-1.9-0.2-3.9-0.2-6.3,0v0.3
		C201.5,109.3,202.9,110.3,203.9,111.4 M221.3,87l-0.7-1l-11.4,2.5l1.4,1.6l11.8-2L221.3,87 M184.4,112.4l-26.5-4.8l-2.9-0.1
		l-2.8,0.4l-35.2,10c-0.8,0.2-1.5,0.6-2.1,1.2c-0.6,0.6-1,1.3-1,2v0.6c0.1,0.4,0.3,0.8,0.6,1.2c0.5,0.5,1.1,0.8,1.8,0.9h0.2l67.8,6
		c0.8,0.1,1.5-0.2,2.1-0.7c0.6-0.5,0.8-1.2,0.8-2v-11.2c0-0.8-0.3-1.5-0.8-2.2C185.9,112.9,185.2,112.5,184.4,112.4 M187.4,48.7
		l-28.1-6.4c-0.7,0.7-1,1.4-1,2.2l-1.7,57c0,0.8,0.2,1.5,0.8,2.2c0.6,0.7,1.2,1.1,2,1.2l25.1,4.6c0.8,0.1,1.5,0,2-0.5
		c0.6-0.5,0.8-1.1,0.8-1.9L187.4,48.7 M222.6,65.5c-0.9,2.1-1.5,4.5-1.8,7c-0.2,2.6-0.1,5,0.4,7.3c0.5,2.2,1.3,4,2.4,5.4
		c0.9,1.1,1.9,1.7,3,1.8c1.1,0.1,2.2-0.3,3.2-1.2c1.3-1.1,2.5-2.7,3.4-4.8c0.9-2.1,1.5-4.5,1.7-7.1c0.2-2.5,0.1-5-0.4-7.2
		c-0.5-2.3-1.3-4.1-2.4-5.4c-0.9-1.1-1.9-1.7-3-1.8c-1.1-0.1-2.1,0.3-3.2,1.2C224.7,61.7,223.5,63.4,222.6,65.5 M207.6,61.7
		l11.6,4.4l0.4-1.1l-11.1-4.8L207.6,61.7 M204.9,69.6c-0.2,1.4-0.4,2.9-0.4,4.3c0,4.3,1,8.3,3,11.9l11.8-2.5
		c-1.3-3.2-1.7-6.9-1.3-11.1L204.9,69.6 M206.4,64.4c-0.2,0.6-0.5,1.3-0.8,2.4l12.8,2.6l0.1-0.4L206.4,64.4 M193.1,48.5
		c-0.8,0.1-1.5,0.4-2,1.1c-0.6,0.6-0.9,1.3-0.9,2.1v74.9c0,0.8,0.3,1.4,0.8,1.8c0.5,0.4,1.2,0.5,2,0.2l9.8-3.2l0.1-0.4
		c-1.8-0.9-3.7-1.5-5.7-2c-0.2,1.4-0.5,2.6-1.1,3.5c-0.6,0.9-1.2,1.4-2,1.4c-0.9,0-1.6-0.6-2.2-1.8c-0.6-1.2-0.9-2.7-0.9-4.5
		c0-1.7,0.3-3.2,0.9-4.4c0.6-1.2,1.4-1.9,2.2-1.9c0.7,0,1.4,0.4,2,1.3c0.6,0.9,0.9,2,1.1,3.4c2.1,0.4,4.3,1.1,6.4,2l0.7-4.7
		c0.3-3.3-1.2-5.7-4.7-7.2c-0.2,1.4-0.6,2.5-1.1,3.3c-0.6,0.9-1.2,1.3-1.9,1.3c-0.9,0-1.6-0.6-2.2-1.8c-0.6-1.2-0.9-2.7-0.9-4.5
		s0.3-3.2,0.9-4.4c0.6-1.2,1.4-1.9,2.2-1.9c0.7,0,1.4,0.4,2,1.3c0.6,0.9,0.9,2,1.1,3.4c6.4-0.5,10.7,0.3,12.9,2.5
		c1.4,1.3,1.9,3.1,1.5,5.2c-0.3,1.9-1.9,4.9-4.9,8.8l18.7-6.1c0.8-0.2,1.4-0.7,2-1.5c0.6-0.7,0.8-1.5,0.8-2.3v-3.7l-1.3-0.2
		c-0.2,1.8-0.6,3.3-1.3,4.5c-0.7,1.2-1.6,1.8-2.5,1.8c-1.1,0-2-0.8-2.7-2.3c-0.8-1.5-1.2-3.4-1.2-5.5c0-2.1,0.4-4,1.2-5.5
		c0.7-1.5,1.7-2.3,2.7-2.3c0.9,0,1.8,0.6,2.5,1.8c0.7,1.2,1.2,2.7,1.3,4.5l1.3,0.2V88.8c-1.1,0.6-2.2,1-3.2,1l0,0.2l-17.1,3
		c-0.5,0.1-0.9,0-1.2-0.4c-2.3-2.2-4.1-4.9-5.4-8.3c-1.3-3.3-2-6.8-2-10.5c0-6.4,1.8-11.9,5.4-16.5c3.5-4.6,7.8-6.9,12.8-6.9
		c2.6,0,5.1,0.7,7.5,2.1l0.3,0.2l2.9,2.9v-8.2c0-0.5-0.1-1-0.4-1.4v5.3l-1.1-1.1l-0.5-0.3c-0.8-0.4-1.8-0.9-3-1.3v-3l3.7-0.5
		c-0.6-0.3-1.1-0.5-1.7-0.4L193.1,48.5 M212.1,49.4v-1.8l4.5-0.6v1C215.1,48.3,213.5,48.8,212.1,49.4 M209.9,47.9v2.8
		c-1.6,1-3.1,2.3-4.5,3.9v-6.1L209.9,47.9 M218.8,47.7v-1l4.5-0.6v2l-3.8-0.5L218.8,47.7 M191.8,50.3l4.5-0.6v6.8l-4.5,0.6V50.3
		 M198.6,56.2v-6.8l4.5-0.6v6.8L198.6,56.2 M203,57.7c-1.4,2.3-2.5,4.7-3.2,7.2l-1.2,0.2v-6.8L203,57.7 M191.8,59.2l4.5-0.6v6.8
		l-4.5,0.6V59.2 M191.8,77l4.5-0.6v6.8l-4.5,0.6V77 M191.8,68.1l4.5-0.6v6.8l-4.5,0.6V68.1 M208.4,96.4l1.5-0.3v3l-4.5,0.6v-6.4
		L208.4,96.4 M223.4,93.6v3.7l-4.5,0.6v-3.5L223.4,93.6 M212.1,95.7l4.5-0.8v3.4l-4.5,0.6V95.7 M191.8,85.8l4.5-0.6V92l-4.5,0.6
		V85.8 M191.8,94.7l4.5-0.6v6.8l-4.5,0.6V94.7 M203.1,90.4v0.7l-4.5,0.6v-6.8l1.7-0.2C201,86.6,202,88.5,203.1,90.4 M198.6,93.8
		l4.5-0.6v6.8l-4.5,0.6V93.8 M225.6,97v-3.8L227,93l0-0.2c1.1-0.1,2.2-0.3,3.2-0.7v4.3L225.6,97 M219.8,53.5c-2,0-3.9,0.5-5.7,1.5
		c-1.7,1-3.3,2.3-4.7,4.1l10.8,4.7c1.1-2.3,2.4-4.1,3.9-5.4c1.1-0.8,2.1-1.4,3.2-1.6l-1.6-1.6C223.9,54.1,221.9,53.5,219.8,53.5
		 M220.5,42.8c0.8-0.1,1.2-0.2,1.2-0.4c0-0.2-0.4-0.4-1.2-0.6l-14-3.4l-2.9-0.4c-1.1-0.1-2.1-0.1-2.9,0l-34.4,2.8l22.6,5.2v0
		L220.5,42.8z"/>
</g>
</svg>
