<?xml version="1.0" encoding="utf-8"?>
<!-- Generator: Adobe Illustrator 25.4.1, SVG Export Plug-In . SVG Version: 6.00 Build 0)  -->
<svg version="1.1" id="Hacker_x2C_PerkClip_x5F_52403" image-rendering="auto"
	 xmlns="http://www.w3.org/2000/svg" xmlns:xlink="http://www.w3.org/1999/xlink" x="0px" y="0px" viewBox="0 0 240 240"
	 style="enable-background:new 0 0 240 240;" xml:space="preserve">
<style type="text/css">
	.st0{fill:#FFFFFF;}
</style>
<rect width="240" height="240"/>
<path class="st0" d="M139,89l0.1,0.4c0.1,0.3,0.4,0.4,0.7,0.2l12.1-6.8l-0.3-2.3l-12.5,8.1L139,89 M150.9,71.1l0-2.5l-21.2,5.1
	c-0.3,0.1-0.5,0.3-0.4,0.7c0.1,0.3,0.3,0.5,0.7,0.4L150.9,71.1 M151.9,55.4l0.3-2.5l-4.3-0.7c-0.3-0.1-0.6,0.1-0.7,0.4
	c-0.1,0.4,0,0.6,0.3,0.7C150.5,54.4,151.9,55.1,151.9,55.4 M142.8,57.5c-0.4,0-0.6,0.2-0.6,0.5c-0.1,0.4,0.1,0.6,0.5,0.6
	c2.8,0.6,5.7,1.3,8.7,2l0.2-2.6L142.8,57.5 M132.8,37.2c-0.3-0.1-0.6-0.1-0.7,0.2c-0.1,0.3-0.1,0.6,0.2,0.7L152.7,50l0.4-2.5
	l-10-5.2C137.7,39.5,134.2,37.8,132.8,37.2 M151.5,32.5l3.6,4.7l1.7-1.5l-4.4-3.9l-0.8,0C151.3,32,151.3,32.2,151.5,32.5
	 M159.7,30.7c-0.3,0.2-0.4,0.5-0.2,0.8l1.9,3.7l2.7-0.2c-0.6-1-1.8-2.4-3.6-4.2C160.2,30.6,160,30.5,159.7,30.7 M180.2,33
	c-0.3-0.7-0.7-1.8-1-3.2c-0.1-0.3-0.3-0.5-0.6-0.5c-0.3,0.1-0.5,0.2-0.5,0.6c-0.1,2.4-0.1,3.7,0.1,4l2.3-0.2L180.2,33 M173,26.3
	c-0.1-0.3-0.3-0.4-0.7-0.4c-0.4,0.1-0.5,0.3-0.5,0.7l0.5,3.8c0,0.9,0.2,2.1,0.6,3.8l2.6-0.2L173,26.3 M194.5,32.4l2.6-0.2
	c0.1-1,0.3-2,0.7-3.2c0.1-0.4,0-0.6-0.3-0.7c-0.3-0.1-0.6-0.1-0.7,0.2L194.5,32.4 M192.2,26c0.1-0.3-0.1-0.6-0.5-0.7
	c-0.3-0.1-0.6,0-0.7,0.4l-2.6,7.2l2.6-0.2L192.2,26z"/>
<path class="st0" d="M217.5,205.9l6.2-3c-0.9-5.6-3.2-12-6.9-19.2c-0.7,6.7-0.6,12.9,0.1,18.6L217.5,205.9 M213.8,200
	c-0.2,3-0.8,5.9-1.8,8.6l2.8-1.3C214.3,205.1,213.9,202.6,213.8,200 M98.7,196.4l0.9-1h0.1c2.7,1.6,5.6,2.8,8.8,3.6l2.1,0.4v-6.2
	c-0.8,0.4-1.9,0.6-3.2,0.8c-3.6,0.4-8.3,0-13.9-1.3c-0.1,1-0.1,1.7,0.1,2c0.2,0.5,0.6,0.9,1.4,1.2l1.9,0.8L98.7,196.4 M115.7,115.1
	v-1.4l-2.4,0.6v1.6l2.2-0.7L115.7,115.1 M119.8,112.4l-2.1,0.6v1.6l2.1-0.7V112.4 M121.7,111.8v1.6l2.1-0.6v-1.6L121.7,111.8
	 M127.8,110.1l-2,0.5v1.7l2-0.6V110.1 M140.1,108.2v-1.9l-2.1,0.5v1.9L140.1,108.2 M135.9,107.6l-2.1,0.5v1.8l2.1-0.6V107.6
	 M131.9,110.5v-1.7l-2.1,0.6v1.8L131.9,110.5 M148.1,105.9v-2l-2.1,0.6v2L148.1,105.9 M142,105.7v2l2.1-0.6v-1.9L142,105.7
	 M152.5,104.1v-1.5l-2.4,0.6v2.1l0.7-0.2C151.5,105,152,104.6,152.5,104.1 M70.9,197.2l-2.2,0.2c-2.6,0.2-5-0.1-7.1-0.9
	c-2-0.7-3.4-1.4-4.4-2.1c-2.2,1.8-2.8,4.1-1.6,6.9c1.2,2.8,3.2,3.8,6,2.9C66.7,202.8,69.8,200.4,70.9,197.2 M57.3,181.3
	c-1,3.6-1.5,6.7-1.5,9.2l0,1.1l0.6,0.5l1.9,1.2c2.3,1.3,4.7,2,7,2.2c4.9,0.3,8.1-0.5,9.8-2.4c1.5-1.6,3-4.1,4.6-7.4
	c1.2-2.6,2.4-5.9,3.8-9.9l3.2-10.1c1.5-4.3,2.7-7.6,3.7-9.8c1.5-3.6,3.2-6.6,5-9.1c0.1-0.2,0.3,0.1,0.5,0.7c0.3,0.6,0.3,1,0.1,1.2
	c-1.5,2.1-3,4.7-4.4,7.6c1.1,4.7,1.6,10.4,1.5,17.1c0,3.8-0.3,9.6-0.8,17.2l7.9,1.5l7.9-0.3l2.5-0.8v-53.4l-0.1,0.1
	c-2.5,1.7-5.3,3.2-8.4,4.4c-6.8,2.7-13.5,3.6-20.2,2.8c-5.7-0.7-10.8-2-15.2-3.9l-1.4,8.9c-1.4,7.7-3.2,15.2-5.2,22.4L57.3,181.3
	 M43.6,68.1c0.3,0,0.5,0,0.6,0.1l1.3,1.2c0.6,0.5,1.3,0.9,1.9,1.2c1.2,0.5,1.6-0.1,1.3-1.8c-0.3-1.4-0.7-2.5-1.2-3.4
	c-2.1-3.2-3.7-4.3-4.8-3.4c-2.3,2-3.1,4.1-2.4,6.1L43.6,68.1 M39.5,52.1c-0.4,1.4-0.4,2.8-0.1,4.4c0.4,2.2,1.1,3.9,2.1,5.1
	c0.5-0.3,1-0.6,1.5-0.7c2-0.6,4,0.8,6,4.1l0.2-1.6l-0.2-0.1L46,59.8c-0.7-0.9-1.3-1.9-1.8-2.9l-1.4-3.1c-0.4-0.9-0.9-1.6-1.5-2.1
	C40.3,50.8,39.8,51,39.5,52.1 M38.6,72c-0.5,1.5-0.5,2.8-0.1,4.1c0.8,3,2.6,5.7,5.3,8.1c3.1,2.8,6,3.5,8.7,2.2
	c2.8-1.3,4.5-2.9,5.3-4.8c0.9-2.1,0.5-4.4-1.3-6.8h0l0-0.3c0.5-2.9,0.2-5.6-0.8-8.2c-0.6-1.5-1.5-2.8-2.6-3.8
	c-1.3-1.1-2.1-0.6-2.3,1.5c-0.3,3.2,0,5.4,0.8,6.7c0.7,1,1.2,0.9,1.6-0.1c0.4-1,0.5-1.9,0.3-2.7c-0.1-0.4,0.2-0.7,0.7-0.9
	s0.8,0,0.9,0.4c0.2,1.4,0.1,2.7-0.4,3.7c-0.6,1.2-1.6,1.7-3,1.6c-0.8-0.1-1.5-0.6-2-1.6c-0.4,0.4-0.9,0.7-1.5,0.8H47l0.5,1.5
	c0.6,2.4,0,3.8-1.9,4.2l1.2,1.3c1.7-1.4,3.7-1.9,6.1-1.5l-0.5,0.3l-0.9,0.2c-1.7-0.2-3.1,0.3-4.1,1.5l-0.8,0.4
	c-0.3,0.1-0.6,0.1-0.8,0c-1.6-0.8-3-2.6-4.2-5.4l0.1-0.2h0c0.2-0.1,0.5-0.2,0.8-0.3h0.8c1.9,2.8,2.9,3.4,2.9,1.8
	c0-1.4-0.4-2.8-1.3-4.2l-1.2-1.7l-0.9-1l-0.1-0.1c-0.8-0.6-1.4-0.7-1.8-0.2C39.8,69.5,39.1,70.7,38.6,72 M27,63.9
	c1.8,10.8,6.1,19.5,13,26l1-0.1c0.4-0.3,0.4-0.6,0.2-0.9c-3.6-3.4-6.4-7.3-8.5-11.8c-1.9-4-3.3-8.7-4.1-13.8c0-0.4-0.3-0.5-0.8-0.3
	C27.1,63.2,26.9,63.5,27,63.9 M132.9,97c-3-0.9-5.6-1-7.8-0.4c-2.6,0.7-4.3,2.5-5.1,5.3c-1,3.6,0,6.2,3.1,8l4.6-1.4l1.1-0.7
	c0.4-0.3,0.8-0.4,1.1-0.4h1.6l2.6-0.8c0.4-0.4,0.6-0.9,0.6-1.6c0-1.3-0.9-1.8-2.8-1.6l-5.9-0.2c-0.4-0.1-0.4-0.3,0-0.5
	c0.4-0.3,0.8-0.4,1-0.4l3.9,0.2c1.8-0.1,3.1-0.1,3.8,0c0.4,0.1,0.8,0.3,1.2,0.7h0.1l3.3,0.4c1.3,0.1,2.2-0.2,2.6-0.8
	c0.4-0.6,0.1-1.3-1.1-2.1C138.7,99.2,136,97.9,132.9,97 M141.4,91.9c-1.7-1-3.5-1-5.2-0.1c-1.5,0.7-2.8,2-4,3.9l2.1,0.6
	c2.1,0.7,4,1.5,5.8,2.4c3.1,1.6,4.3,2.9,3.8,3.9c2.4,0.1,4.3-0.1,5.6-0.7c0.8-0.4,1.4-0.9,1.7-1.6c0.3-0.8,0.1-1.5-0.8-2
	c-1.1-0.6-2.5-1-4.1-0.9c-0.3,0.9-1.1,1.5-2.2,1.7c-2,0.4-4-0.7-5.9-3.4c-0.2-0.3-0.1-0.6,0.4-0.8c0.5-0.2,0.8-0.2,1,0.1
	c1.9,2.6,3.3,3.6,4.4,2.9c1.2-0.7,1.3-1.8,0.3-3.2C143.5,93.5,142.5,92.6,141.4,91.9 M107.5,76.2l-0.2,0.2c0.6,1.8,1,3.2,1.1,4.3
	c0.3,1.7,0.2,3.2-0.3,4.4c-0.6,1.8-1.6,3.3-3,4.5c-1,0.9-2.5,1.9-4.6,2.9c2.9,11.6,4.8,22,5.5,31.4c0.6,0,1.7-0.5,3.2-1.3l2-1.2
	l0.5-3.8v-4.2l3.5-1.1l-0.3-2.5l-0.3-0.2c-0.2-0.1-0.1-0.3,0.2-0.5l-1.4-11.5c-0.1-0.6,0-0.6,0.3-0.2l0.5,1.1l1.4,10.4l0.6,0.1
	c1.2,1.1,2.6,1.8,4.2,1.9l1.2-0.4c-2.2-1.4-3.4-3.5-3.5-6.3c0-3,1.3-5.4,3.9-7c0.6-0.4,1.3-0.7,2-1l0,0c-1.3-4.6-3.3-8.5-5.9-11.9
	C115.1,80.7,111.6,78,107.5,76.2 M90.1,97l-1.2-5.2l-3.2-0.9c-1.3-0.4-2.3-0.8-3.1-1.2c-2.5-1.4-4.5-2.9-5.8-4.5
	c-2.5-3-3.7-6.4-3.7-10l-1.1,0.6c-4.2,2.6-7.6,6.4-10.2,11.6c1.4,4.1,2,8.1,1.6,12.1c0,0.2-0.3,0.4-0.8,0.5c-0.6,0.1-0.8,0-0.8-0.2
	c0.3-2.7,0.1-5.5-0.6-8.4c-0.6-2.8-1.7-5.4-3.1-7.9c-1,1.2-2.4,2.2-4.1,3.1c-1.7,0.8-3.4,1.3-5.2,1.4L47,87.6
	c-1.1,4.4-1.5,8.8-1,13.2c0.5,5,1.9,9.1,4.3,12.4c2.1,2.8,4.6,4.9,7.7,6.2c3.7,1.6,6.7,1.2,9-1.1c1.9-1.8,3.3-4,4.4-6.6
	c1.1-2.5,1.7-5.1,1.8-7.8c0-0.3,0.3-0.5,0.9-0.6c0.5-0.1,0.8,0,0.8,0.4c-0.2,2.4-0.7,4.8-1.5,7.1c-1,2.6-2.2,4.8-3.7,6.6l0,0.4l-1,8
	c6.2,2.5,12.5,3.5,18.8,3.2l2.6-0.2c1.4-0.2,2.2-0.4,2.2-0.7L91.4,108C91.1,103.9,90.6,100.2,90.1,97 M98.8,83.4
	c-1.3,0.8-2.9,1.3-4.7,1.5c-3.5,0.3-6.8-0.6-9.9-2.7c-3.3-2.2-5-4.9-5.1-8.2l-0.8-0.8l-4.5,1.6l0,0.4c-0.2,2.7,0.6,5.2,2.2,7.5
	c1.5,2.1,3.5,3.8,6.2,5.1c0.8,0.4,1.8,0.7,3,1.1l3.1,0.9l0.8,0.6l0.3,1c1.3,5.9,2.2,10.9,2.6,15c0.5,5.5,0.8,10.9,1,16.4l0.2,6.1
	l-0.2,1c-0.4,0.6-1.3,1-2.6,1.1l-10.8-0.5c-4-0.6-7.6-1.5-10.9-2.8l-0.2-0.2l-1.5,11.9c5.7,2.3,11.5,3.6,17.2,3.8
	c6.1,0.3,11.9-0.7,17.3-3c3.6-1.4,6.6-3,9.1-4.8l0.1-10.8l0.2-0.8c-1.5,0.9-3,1.6-4.6,2.2c-0.5,0.2-1-1.2-1.3-4.3l-0.4-5.3
	c-0.8-6.7-2.4-14.9-4.9-24.4c-0.1-0.6-0.1-1,0.1-1.1l3.8-2c1.3-0.9,2.3-1.9,2.9-3c0.8-1.4,1.2-2.9,1.2-4.5c0-1.3-0.3-2.8-0.9-4.5
	c-1.4,1.1-3,2.1-4.8,2.8C101.3,81.3,100.2,82.5,98.8,83.4 M111.1,37.4c-0.6,0.6-1.2,1.1-1.8,1.3l2.7,4.4c0.6-1.4,1-2.4,1-2.9
	c0.1-0.9,0-1.6-0.2-2.2c-0.3-0.6-0.6-0.9-1-0.9C111.5,37.1,111.3,37.2,111.1,37.4 M95.7,33.6L94.1,34c-0.9,0.1-2.1-0.2-3.6-0.9
	c-0.6-0.3-1.3-0.4-2.1-0.4c-1.9,0.1-3.6,1.2-5,3.2c-0.5,0.6-1.1,0.9-1.8,0.9l-5.9-0.9h-0.3c-1.5,0.1-2.4,1-2.8,2.7
	c-0.4,1.8,0.5,3.2,2.8,4.3c0.7,0.3,0.7,0.7,0.2,1.1c-1.5,1-2.8,2-3.8,3.1c-2,2.2-2.9,4.6-2.7,7.2c0.7-2,1.6-3.9,2.9-5.7
	c1.6-1.9,2.7-2.9,3.2-3.1l0.3-0.1c0.3,0,0.5,0.1,0.5,0.2c0.1,0.2,0,0.4-0.2,0.6c-1.1,1-2.1,2-3,3.1c-0.8,0.9-1.6,2.1-2.3,3.5
	l-1.2,2.8l0.2,1c0.9-2.3,2-4.2,3.2-5.6c0.9-1,1.8-1.8,2.6-2.2l0.2-0.1c0.3,0,0.4,0.1,0.4,0.4c0,0.3-0.2,0.6-0.5,0.9
	c-0.8,0.6-1.5,1.2-1.9,1.7c-0.7,0.8-1.4,1.9-2.3,3.4l-1.3,2.2l0.1,0.1c0.1,0.3,0.1,0.6,0,0.9l1.4-0.5c0.1,0.1,0,0.3-0.2,0.6
	c-1.9,1.6-2.2,3.6-1.1,5.8c1.1,2.1,2.8,3.1,5.2,2.9l0.7-0.1c2.7,4.2,6,7.4,9.8,9.6c0.4,0.2,0.6,0.3,0.6,0.5c0,0.1-0.2,0.2-0.6,0.2
	c-1.2,0.1-2.5-0.4-4.1-1.3c0.4,2,2,3.8,4.7,5.2c2.6,1.4,5,2,7.3,1.8c1,0,1.8-0.3,2.4-0.8l-0.2,0.1l-2.8-0.4
	c-1.3-0.3-1.9-0.6-1.9-0.8l0.2-0.1l2.7,0.1c2.3-0.2,4.8-1,7.6-2.4c4.9-2.6,8.4-6.8,10.5-12.6c2-5.5,2.2-11.1,0.6-16.8
	c-0.9-3.4-2.6-6.9-5.1-10.4c-1-0.1-2.2-0.5-3.4-1.4L102,35c-1.4-1.5-2.3-2.4-2.8-2.6l-0.8-0.1c-0.5,0-1.1,0.2-1.8,0.6L95.7,33.6
	 M84.9,43.4c-0.8,0.2-1.8,0.7-3,1.6L81,45.3l-0.5-0.1c1.3-1,2.3-1.7,3.1-2.1c1.1-0.6,2.3-0.8,3.5-0.7c0.4,0,1.5,0.6,3.3,1.7
	c1.7,1,2.6,1.4,2.7,1.3c0.1-0.2,0.5-0.3,1-0.3l0.6,0c-0.4,0.5-0.9,0.9-1.5,1.1l-1.9-0.1c-0.5-0.2-1-0.5-1.7-0.9L88.1,44
	C87.1,43.3,86,43.1,84.9,43.4 M87.2,47.7c0.3-0.6,0.6-0.9,1-1h0.1c0.4,0,0.8,0.2,1.1,0.8c0.4,0.5,0.6,1.2,0.7,1.9
	c0,0.8-0.1,1.4-0.2,2c-0.3,0.6-0.6,0.9-1,1h-0.1c-0.4,0-0.8-0.2-1.1-0.7c-0.4-0.5-0.6-1.1-0.7-1.9C86.9,48.9,87,48.2,87.2,47.7
	 M96.8,46.3L96.8,46.3c0.3-0.1,0.6,0.2,0.8,0.6l1.9,3.2c0.6,0.8,1.8,2.2,3.6,4.1c0.4,0.4,0.4,0.8,0.1,1.3l-1.6,2.9
	c-0.3,0.4-0.6,0.6-1.1,0.6h-0.6l-0.3-0.1c-0.2,0-0.4-0.1-0.4-0.3c-0.1-0.2-0.1-0.4,0-0.6l1.4-2.1c0.3-0.5,0.3-1,0-1.4l-4-7.2
	l-0.1-0.6L96.8,46.3 M99.6,44c0.3,0,0.4,0,0.5,0.1c0.1,0.1,0.4-0.8,0.9-2.6c0.6-2,1-3.1,1.2-3.1c0.5-0.3,1.2-0.1,2,0.8l2.2,2.2
	l-0.2,0.2l-0.5-0.1c-0.8-0.6-1.5-0.9-1.9-0.9c-0.6,0-1.1,0.4-1.4,1.2l-0.4,1.4l-0.6,1.2c-0.2,0.4-0.5,0.5-0.9,0.5
	c-0.4,0-0.8-0.2-1.1-0.6L99.6,44 M104.6,48.4c-0.1-0.8,0-1.4,0.2-2c0.2-0.6,0.5-0.9,1-0.9c0.4,0,0.8,0.2,1.1,0.7
	c0.3,0.5,0.6,1.2,0.7,2c0.1,0.8,0,1.4-0.2,2c-0.2,0.6-0.6,0.9-1,0.9c-0.4,0-0.8-0.2-1.2-0.8C104.8,49.9,104.6,49.2,104.6,48.4
	 M108.4,60.6c0-0.3,0-0.4,0.2-0.4l0.3,0.1l1.7,1.8c0.4,0.4,0.4,0.8,0.1,1.3l-1.5,2.9l-0.3,0.2c-0.1,0-0.2-0.1-0.2-0.3v-0.4
	c-0.1-0.5-0.3-0.7-0.6-0.6l-0.2,0.1l-2.5,1.8c-2,1.2-3.9,1.8-5.6,1.9h-0.1c-1.7,0.1-4-0.5-6.9-1.9L89,65l-0.3-0.1
	c-0.4,0.1-0.7,0.2-0.8,0.5l0.1,1.9l-0.3,0.2c-0.1,0.1-0.2,0-0.3-0.3l-1.1-3.7c0-0.2,0-0.5,0.1-0.7c0.1-0.3,0.2-0.5,0.4-0.6l3.9-3.3
	l0.3-0.1c0.2,0,0.3,0.2,0.2,0.5l-0.5,1.3c0,0.2,0.1,0.4,0.2,0.7c0.2,0.2,0.4,0.4,0.7,0.4l8.7,1.8h1.1c1.9-0.1,4-0.6,6.4-1.4l0.6-0.3
	c0.2-0.2,0.2-0.4,0.1-0.7L108.4,60.6 M102.8,70.8l-1.4,0.8l-1.1,0.2h-1l-0.4-0.1l-0.6-0.4c-0.2-0.2-0.2-0.4-0.2-0.6
	c0.1-0.5,0.3-0.7,0.8-0.7l3.7,0.2l0.4,0.1L102.8,70.8 M75.4,52.1l0.2-0.1c0.2,0,0.4,0.1,0.5,0.4c0.1,0.2,0,0.5-0.3,0.8
	c-0.5,0.3-1,0.7-1.6,1.1l-1.8,2.1l-0.2-0.1c-0.1-0.2,0.1-0.6,0.4-1.2l0.9-1.4C74,52.9,74.6,52.4,75.4,52.1 M75.4,55.2l0.2-0.1
	c0.2,0,0.4,0.1,0.5,0.4c0.1,0.2,0.1,0.4-0.1,0.5l-0.6,0.6c-0.3,0.4-0.5,0.7-0.6,0.9c0,0.3-0.2,0.5-0.4,0.5c-0.4,0-0.5-0.2-0.5-0.6
	c0-0.4,0.2-0.9,0.5-1.3L75.4,55.2 M108,63h-0.2c-2.5,0.7-4.8,1.2-6.9,1.4l-1.1,0l-5.5-0.9l-3.1-0.9l-1-0.1c-0.4,0.1-0.8,0.2-1,0.4
	c-0.3,0.3-0.4,0.7-0.2,1c0.1,0.2,0.4,0.4,0.7,0.5l6.6,2.6l4.2,0.2l2.6-0.5l5.1-2.1c0.4-0.1,0.6-0.5,0.7-1
	C108.8,63.2,108.6,63,108,63 M86.9,19.7h-0.2c-0.9,0.1-1.9,0.6-3,1.4l-1,1c-0.4,0.4-0.8,0.6-1.2,0.8c-1.3,0.6-2.5,1-3.6,1.2
	c-1.6,0.3-3,1.4-4.2,3.3l-2.2,3.2c-1,0.5-2.1,1.7-3.2,3.4c-0.7,1.2-1.3,2.6-1.9,4.1c-0.9,2.5-0.8,5.7,0.1,9.6c0.5,2,1.1,3.7,1.7,5.2
	c0.4-2.4,1.3-4.5,2.8-6.2l3.1-2.9c-0.9-0.5-1.7-1.2-2.4-1.9c-0.9-1-1.4-1.9-1.3-2.7c0.1-1.1,0.4-2.1,0.9-2.9
	c0.8-1.1,1.9-1.7,3.4-1.8h0.9c0.6,0,1.6,0.2,3,0.8c1.3,0.5,2.2,0.7,2.6,0.7l0.2-0.1l2.6-3c1.5-1.9,2.7-2.8,3.7-2.9l0.6,0.1
	c0.5,0.2,1.5,0.7,3,1.6l1.8,0.9c0.5,0.3,1,0.4,1.3,0.4l0.5-0.2l2.1-1.3l1.1-0.3c0.6,0,1.2,0.2,1.9,0.5c0.6,0.3,1.6,1.1,3,2.6
	l2.2,2.4c1.2,0.9,2.4,1.3,3.5,1.2c0.7,0,1.4-0.4,1.9-0.9c0.9-1,1.5-2.4,1.8-4c0.2-1.6,0.1-2.9-0.4-4.1c-0.4-0.9-1-1.7-1.8-2.4
	c0.2,1.1-0.1,1.9-0.7,2.4c-0.7,0.7-1.6,1-2.5,1.1c-1.4,0.1-2.6-0.4-3.8-1.4c-1.3-1.2-2.2-2.1-2.7-2.4c-1.3-1.1-2.2-1.7-2.8-1.8
	l-1-0.1c-0.7,0.1-1.3,0.2-2,0.6L93,25.3c-0.4,0-0.8-0.1-1.2-0.4l-1.5-1.8C88.7,20.9,87.6,19.8,86.9,19.7 M208.2,177.5
	c-3.5,7.7-5.8,13.6-6.8,17.7c-2.2,9.3-3.4,16-3.6,20.3l12.3-6c1.4-3.5,2.2-7.2,2.3-11.1C212.7,192.3,211.2,185.3,208.2,177.5
	 M213.5,192.1c0-4.1,0.4-8.4,1.1-12.8l-4.1-7.1l-1.6,3.4C211.4,181.7,212.9,187.2,213.5,192.1 M217.2,181.1
	c2.3,4.4,4.1,8.4,5.4,11.9c1.2,3.2,2,6.3,2.5,9.2l6-2.9l-0.1-0.2c-0.3-0.6-0.4-1.3-0.4-2.1v-50l-5.4,8.2c-2,3-3.7,6.9-5.1,11.5
	C218.8,171.2,217.8,176,217.2,181.1 M201.1,134.2c-3.3,5.2-4.7,9.8-4.2,13.6c0.2,1.5,0.8,3.6,2,6.2l8.6,18l1.2-2.9
	c-2.5-4.3-4.3-7.7-5.4-10.1c-1.6-3.4-2.5-6.2-2.8-8.6C199.9,145.8,200.1,140.4,201.1,134.2 M186.6,133.6c-0.6-0.6-1.3-0.9-2.1-1
	l-68-6.1c-0.8,0-1.5,0.2-2,0.7c-0.6,0.5-0.8,1.1-0.8,1.9v78.2c0,0.8-0.1,1.5-0.4,2l-0.1,0.2l75.1,10.4l-0.3-0.6
	c-0.3-0.6-0.4-1.2-0.4-2.1v-81.7C187.4,134.9,187.1,134.2,186.6,133.6 M201.9,130.6l0.3-2l-9.1,3c-0.8,0.3-1.4,0.8-1.9,1.5
	c-0.6,0.8-0.9,1.6-0.9,2.3v82c0,0.7-0.1,1.3-0.2,1.8l4.9-2.4v-1.3c0.1-4.5,1.4-11.6,3.7-21.1c0.7-2.7,1.8-6,3.2-9.8
	c1-2.3,2.5-5.9,4.6-10.6l0.1-0.3l-5.3-11.2c-1.9-3.8-3.2-6.5-3.9-8.1c-1.1-2.7-1.8-4.8-2-6.4c-0.3-2.7,0.2-5.7,1.5-8.9
	C198,136.7,199.6,133.8,201.9,130.6 M186.6,113.6c-0.6-0.7-1.2-1.1-2.1-1.2l-26.4-4.8l-2.9-0.1l-2.8,0.4l-35.2,10
	c-0.8,0.2-1.5,0.6-2.1,1.2c-0.6,0.6-0.9,1.3-1,1.9l0,0.7c0.1,0.4,0.3,0.8,0.6,1.2c0.5,0.5,1.1,0.8,1.8,0.8h0.2l67.8,6
	c0.8,0,1.5-0.2,2.1-0.7c0.5-0.5,0.8-1.2,0.8-2v-11.1C187.4,115,187.1,114.3,186.6,113.6 M184.5,109.4c0.8,0.1,1.5,0,2.1-0.5
	c0.5-0.5,0.8-1.1,0.8-1.9l0.1-58.4l-28.1-6.4c-0.7,0.7-1,1.4-1,2.2l-1.7,57c0,0.8,0.2,1.5,0.8,2.2c0.5,0.7,1.2,1.1,2,1.2
	L184.5,109.4 M215.4,138.2c-1.6-4.6-4.4-8.3-8.5-11.1l-0.9,0.2l-2.8,3.8c-1.4,7.6-1.9,14-1.2,19.1c0.2,2.1,1.1,4.8,2.5,7.8
	c1,2.3,2.7,5.4,5,9.4c2.8-6.5,4.7-11.8,5.7-15.9C216.5,146.2,216.6,141.8,215.4,138.2 M211.6,110.4c-1.1-1.1-3-1.8-5.6-2.1
	c-1.8-0.2-3.9-0.2-6.2,0v0.4c1.8,0.7,3.2,1.7,4.2,2.8c1.5,1.6,2.1,3.6,1.8,6l-0.8,5.2l2,1.2l3.7-5.2c1.1-1.7,1.8-3.2,1.9-4.2
	C212.9,112.6,212.5,111.3,211.6,110.4 M230.6,122.3c0-0.8-0.3-1.4-0.8-1.8c-0.5-0.4-1.2-0.5-1.9-0.2l-17.6,5.7
	c3.7,3,6.3,6.8,7.8,11.3c1.4,4.1,1.3,9.3-0.3,15.6c-1.1,4.4-3.3,10.3-6.6,17.8l0.1,0.1l3.5,6.2c0.8-4.7,1.9-9,3.2-13
	c1.4-4.1,3-7.5,4.7-10.2l7.8-12.2V122.3 M209.2,88.4l1.4,1.6l11.8-2l-1-1.1l-0.7-1L209.2,88.4 M205,69.6c-0.3,1.4-0.4,2.8-0.4,4.3
	c0,4.3,1,8.3,2.9,12l11.8-2.6c-1.3-3.2-1.7-6.9-1.2-11.1L205,69.6 M206.4,64.4c-0.3,0.5-0.5,1.3-0.8,2.4l12.8,2.6l0.1-0.4
	L206.4,64.4 M208.6,60.2l-0.9,1.4l11.6,4.4l0.4-1.1L208.6,60.2 M229.3,59.4c-1.1-0.1-2.1,0.2-3.2,1.2c-1.3,1.1-2.5,2.7-3.4,4.8
	c-1,2.1-1.6,4.5-1.8,7.1c-0.2,2.6-0.1,5,0.4,7.2c0.5,2.3,1.3,4,2.4,5.4c0.9,1.1,1.9,1.7,3,1.8c1.1,0.1,2.2-0.3,3.2-1.2
	c1.3-1.1,2.4-2.7,3.4-4.9c0.9-2.1,1.5-4.5,1.8-7c0.2-2.5,0.1-4.9-0.4-7.2c-0.5-2.3-1.3-4.1-2.4-5.4
	C231.3,60.1,230.4,59.5,229.3,59.4 M227.4,56.8l-1.6-1.6c-1.9-1.1-3.8-1.6-5.9-1.6c-2,0-3.9,0.5-5.7,1.5c-1.7,1-3.3,2.3-4.7,4.1
	l10.8,4.6c1.1-2.3,2.4-4.1,3.9-5.3C225.2,57.5,226.3,57,227.4,56.8 M229.4,45.4c-0.6-0.3-1.1-0.5-1.7-0.4l-34.5,3.4
	c-0.8,0.1-1.5,0.5-2.1,1.1c-0.6,0.6-0.9,1.3-0.9,2.1v74.9c0,0.8,0.3,1.4,0.9,1.8c0.5,0.4,1.2,0.4,1.9,0.2l9.8-3.2l0.1-0.4
	c-1.8-0.8-3.7-1.5-5.8-2c-0.2,1.4-0.5,2.6-1.1,3.5c-0.6,0.9-1.2,1.4-1.9,1.4c-0.9,0-1.6-0.6-2.2-1.8s-0.9-2.7-0.9-4.5
	c0-1.7,0.3-3.2,0.9-4.4c0.6-1.3,1.4-1.9,2.2-1.9c0.7,0,1.4,0.5,1.9,1.4c0.5,0.9,0.9,2,1.1,3.4c2.1,0.4,4.3,1.1,6.4,2.1l0.8-4.7
	c0.3-3.3-1.2-5.7-4.8-7.2c-0.2,1.4-0.5,2.5-1.1,3.3c-0.6,0.9-1.2,1.3-1.9,1.3c-0.9,0-1.6-0.6-2.2-1.8c-0.6-1.3-0.9-2.8-0.9-4.5
	c0-1.8,0.3-3.2,0.9-4.4c0.6-1.3,1.4-1.9,2.2-1.9c0.7,0,1.3,0.4,1.9,1.3c0.5,0.9,0.9,2,1.1,3.4c6.4-0.5,10.7,0.4,12.9,2.6
	c1.4,1.3,1.9,3.1,1.5,5.2c-0.3,1.9-1.9,4.8-4.9,8.8l18.7-6.1c0.8-0.3,1.4-0.8,1.9-1.5c0.5-0.8,0.8-1.5,0.8-2.3v-3.7l-1.2-0.2
	c-0.2,1.8-0.7,3.3-1.4,4.6c-0.7,1.2-1.5,1.8-2.5,1.8c-1.1,0-2-0.8-2.8-2.2c-0.8-1.5-1.1-3.4-1.1-5.5c0-2.1,0.4-4,1.1-5.5
	c0.8-1.5,1.7-2.2,2.8-2.2c1,0,1.8,0.6,2.4,1.8c0.7,1.2,1.2,2.7,1.4,4.5l1.3,0.2V88.8c-1.1,0.6-2.2,0.9-3.2,1l0.1,0.2l-17.1,3
	c-0.5,0.1-0.9,0-1.2-0.4c-2.3-2.2-4.1-5-5.4-8.3c-1.3-3.3-2-6.8-2-10.5c0-6.4,1.8-11.9,5.4-16.4c3.6-4.6,7.8-6.9,12.8-6.8
	c2.6,0,5.1,0.7,7.5,2l0.3,0.2l2.9,2.9v-8.2c0-0.5-0.1-1-0.4-1.4v5.3l-1.1-1.1l-0.5-0.2c-0.8-0.5-1.8-0.9-2.9-1.3v-2.9L229.4,45.4
	 M205.4,48.5l4.6-0.6v2.8c-1.6,1-3.1,2.3-4.6,4V48.5 M212.1,49.4v-1.8l4.6-0.6v0.9C215.1,48.3,213.6,48.8,212.1,49.4 M218.9,47.7v-1
	l4.6-0.6v2l-3.8-0.4H218.9 M196.4,49.6v6.9l-4.5,0.6v-6.8L196.4,49.6 M199.9,64.9l-1.2,0.2v-6.8l4.5-0.6
	C201.7,60,200.6,62.4,199.9,64.9 M191.9,65.9v-6.8l4.5-0.6v6.8L191.9,65.9 M191.9,68.1l4.5-0.6v6.8l-4.5,0.6V68.1 M198.6,84.9
	l1.8-0.2c0.7,2,1.6,3.9,2.8,5.7v0.8l-4.6,0.6V84.9 M196.4,76.3v6.8l-4.5,0.6v-6.8L196.4,76.3 M196.4,85.2V92l-4.5,0.6v-6.8
	L196.4,85.2 M191.9,94.7l4.5-0.6v6.8l-4.5,0.6V94.7 M208.5,96.4l1.4-0.3v3.1l-4.6,0.5v-6.4L208.5,96.4 M212.1,98.8v-3.2l4.6-0.8v3.3
	L212.1,98.8 M218.9,97.9v-3.4l4.6-0.8v3.7L218.9,97.9 M225.7,93.2l1.4-0.2l-0.1-0.2c1.1,0,2.2-0.2,3.2-0.6v4.3l-4.5,0.6V93.2
	 M198.6,93.8l4.6-0.6v6.8l-4.6,0.7V93.8 M198.6,49.4l4.6-0.6v6.8l-4.6,0.6V49.4 M206.6,38.4l-2.9-0.4c-1.1-0.1-2.1-0.1-2.9,0
	l-34.4,2.8l22.6,5.2v0.1l31.4-3.3c0.8-0.1,1.2-0.2,1.2-0.4c0-0.2-0.4-0.4-1.2-0.6L206.6,38.4z"/>
</svg>
