<?xml version="1.0" encoding="utf-8"?>
<!-- Generator: Adobe Illustrator 25.4.1, SVG Export Plug-In . SVG Version: 6.00 Build 0)  -->
<svg version="1.1" id="Hacker_x2C_PerkClip_x5F_52403" image-rendering="auto"
	 xmlns="http://www.w3.org/2000/svg" xmlns:xlink="http://www.w3.org/1999/xlink" x="0px" y="0px" viewBox="0 0 240 240"
	 style="enable-background:new 0 0 240 240;" xml:space="preserve">
<style type="text/css">
	.st0{fill:#FFFFFF;}
</style>
<g>
	<rect width="240" height="240"/>
	<path class="st0" d="M139,89l0.1,0.4c0.1,0.3,0.4,0.4,0.7,0.2l12.1-6.8l-0.3-2.3l-12.5,8.1L139,89 M150.9,71.1l0-2.5l-21.2,5.1
		c-0.3,0.1-0.5,0.3-0.4,0.7c0.1,0.3,0.3,0.5,0.7,0.4L150.9,71.1 M147.9,52.2c-0.3-0.1-0.6,0.1-0.7,0.4c-0.1,0.4,0,0.6,0.3,0.7
		c2.9,1.1,4.3,1.9,4.3,2.2l0.3-2.5L147.9,52.2 M142.8,57.5c-0.4,0-0.6,0.2-0.6,0.5c-0.1,0.4,0.1,0.6,0.5,0.6c2.8,0.6,5.7,1.3,8.7,2
		l0.2-2.6L142.8,57.5 M132.8,37.2c-0.3-0.1-0.6-0.1-0.7,0.2c-0.1,0.3-0.1,0.6,0.2,0.7L152.7,50l0.4-2.5l-10-5.2
		C137.7,39.5,134.2,37.8,132.8,37.2 M159.7,30.7c-0.3,0.2-0.4,0.5-0.2,0.8l1.9,3.7l2.7-0.2c-0.6-1-1.8-2.4-3.6-4.2
		C160.2,30.6,160,30.5,159.7,30.7 M151.5,31.7c-0.3,0.2-0.3,0.5,0,0.7l3.6,4.7l1.7-1.5l-4.4-3.9L151.5,31.7 M180.2,33
		c-0.3-0.7-0.7-1.8-1-3.2c-0.1-0.3-0.3-0.5-0.6-0.5c-0.3,0.1-0.5,0.2-0.5,0.6c-0.1,2.4-0.1,3.7,0.1,4l2.3-0.2L180.2,33 M173,26.3
		c-0.1-0.3-0.3-0.4-0.7-0.4c-0.4,0.1-0.5,0.3-0.5,0.7l0.5,3.8c0,0.9,0.2,2.1,0.6,3.8l2.6-0.2L173,26.3 M196.8,28.4l-2.3,4l2.6-0.2
		c0.1-1,0.3-2,0.7-3.2c0.1-0.4,0-0.6-0.3-0.7C197.3,28,197,28.1,196.8,28.4 M191.8,25.3c-0.3-0.1-0.6,0-0.7,0.4l-2.6,7.2l2.6-0.2
		l1.1-6.7C192.3,25.6,192.1,25.4,191.8,25.3z"/>
	<path class="st0" d="M70.9,197.2l-2.2,0.2c-2.6,0.2-4.9-0.1-7.1-0.9c-2-0.7-3.4-1.4-4.4-2c-2.2,1.8-2.8,4.1-1.6,6.9
		c1.2,2.9,3.2,3.8,6,3C66.7,202.8,69.8,200.4,70.9,197.2 M93.4,192.7c-0.1,1-0.1,1.7,0,2c0.2,0.4,0.6,0.8,1.4,1.2l2,0.7l1.8-0.2
		l0.9-1l0.2,0c2.7,1.7,5.6,2.9,8.8,3.7l2.1,0.5v-6.2c-0.8,0.4-1.9,0.6-3.3,0.7C103.7,194.3,99.1,193.9,93.4,192.7 M110.6,137.7
		l-0.1,0.1c-2.5,1.7-5.3,3.2-8.4,4.4c-6.8,2.7-13.5,3.6-20.2,2.8c-5.7-0.7-10.8-2-15.2-3.9l-1.5,8.9c-1.4,7.7-3.1,15.2-5.2,22.4
		l-2.8,9c-1,3.6-1.5,6.7-1.5,9.2l0,1.1l0.6,0.5l2,1.2c2.3,1.3,4.6,2,6.9,2.2c4.8,0.3,8.1-0.5,9.8-2.4c1.5-1.6,3-4.1,4.5-7.5
		c1.2-2.6,2.4-5.9,3.7-9.9l3.2-10.1c1.5-4.3,2.8-7.5,3.7-9.7c1.6-3.6,3.2-6.6,5-9.1c0.1-0.2,0.2,0,0.5,0.6c0.2,0.6,0.3,1,0.1,1.2
		c-1.5,2.1-3,4.7-4.4,7.6c1.1,4.7,1.6,10.4,1.5,17c0,3.9-0.3,9.6-0.7,17.2l7.9,1.5l7.9-0.3l2.6-0.7V137.7 M146,104.5v2l2.1-0.6v-2
		L146,104.5 M144.1,105.2l-2.1,0.5v2l2.1-0.6V105.2 M150.1,103.3v2.1l0.7-0.2c0.6-0.2,1.2-0.5,1.7-1v-1.5L150.1,103.3 M133.9,110
		l2.1-0.6v-1.8l-2.1,0.5V110 M129.8,109.4v1.8l2.1-0.6v-1.7L129.8,109.4 M125.8,112.3l2.1-0.6v-1.6l-2.1,0.5V112.3 M140,106.4
		l-2.1,0.5v1.9l2.1-0.6V106.4 M144.3,94.7c-0.8-1.1-1.8-2-3-2.7c-1.7-1-3.5-1-5.3,0c-1.5,0.7-2.8,2-4,3.9l2.1,0.5
		c2.1,0.7,4,1.5,5.8,2.4c3.1,1.6,4.3,2.9,3.8,3.9c2.4,0.1,4.3-0.1,5.7-0.7c0.8-0.4,1.4-0.9,1.7-1.6c0.3-0.8,0.1-1.4-0.8-1.9
		c-1.1-0.6-2.5-1-4.1-1c-0.3,0.9-1.1,1.5-2.2,1.7c-2,0.4-4-0.7-5.9-3.4c-0.2-0.3-0.1-0.6,0.4-0.8c0.5-0.2,0.9-0.2,1.1,0.1
		c1.9,2.6,3.3,3.6,4.4,3C145.2,97.2,145.3,96.1,144.3,94.7 M119.9,102c-1,3.6,0,6.2,3.1,8l4.7-1.4l1-0.7c0.4-0.3,0.8-0.4,1.1-0.4
		h1.6l2.6-0.8c0.4-0.4,0.7-0.9,0.6-1.6c0-1.3-1-1.9-2.9-1.6l-5.9-0.2c-0.4-0.1-0.4-0.2,0-0.5c0.4-0.3,0.8-0.4,1-0.3l3.9,0.2
		c1.8-0.1,3.1-0.1,3.8,0c0.4,0.1,0.8,0.3,1.2,0.7h0.2l3.3,0.5c1.3,0.1,2.1-0.2,2.5-0.8c0.4-0.6,0.1-1.3-1-2.1
		c-2.2-1.6-4.8-2.8-7.9-3.7c-3-0.9-5.6-1.1-7.8-0.4C122.4,97.4,120.7,99.1,119.9,102 M121.7,111.8v1.6l2.1-0.6v-1.6L121.7,111.8
		 M119.7,114v-1.5l-2.1,0.5v1.6L119.7,114 M113.3,114.3v1.6l2.2-0.7l0.2-0.1v-1.4L113.3,114.3 M107.5,76.2l-0.2,0.2
		c0.6,1.8,1,3.3,1.1,4.3c0.2,1.7,0.2,3.1-0.3,4.4c-0.6,1.8-1.6,3.3-3,4.5c-1,0.9-2.5,1.8-4.6,2.9c2.9,11.6,4.8,22,5.5,31.4
		c0.6,0,1.7-0.5,3.2-1.3l2-1.2l0.5-3.9v-4.3l3.5-1l-0.3-2.5l-0.3-0.2c-0.2-0.1-0.1-0.3,0.2-0.5l-1.4-11.6c-0.1-0.6,0-0.6,0.3-0.2
		l0.5,1.1l1.4,10.4l0.6,0.1c1.2,1.1,2.6,1.7,4.2,1.9l1.2-0.4c-2.2-1.4-3.4-3.5-3.4-6.3c0-3,1.2-5.4,3.8-7c0.6-0.4,1.3-0.7,2.1-1
		l0-0.1c-1.3-4.6-3.3-8.5-5.9-11.8C115.1,80.7,111.6,78,107.5,76.2 M112.9,40.2c0.1-0.9,0-1.6-0.2-2.2c-0.2-0.6-0.6-0.9-1-0.9
		c-0.3,0.1-0.5,0.2-0.7,0.4c-0.6,0.6-1.2,1.1-1.9,1.3l2.7,4.4C112.6,41.8,112.9,40.8,112.9,40.2 M47.4,65.5
		c-2.1-3.2-3.7-4.3-4.8-3.4c-2.3,2-3.1,4.1-2.4,6.1l3.4-0.1c0.3,0,0.5,0,0.5,0.1l1.3,1.2c0.6,0.5,1.3,0.9,1.9,1.2
		c1.2,0.5,1.6-0.1,1.3-1.8C48.4,67.5,48,66.4,47.4,65.5 M27.6,63.1c-0.4,0.2-0.7,0.5-0.6,0.8c1.8,10.8,6.1,19.5,13,26.1l1-0.1
		c0.4-0.3,0.4-0.6,0.2-0.9c-3.5-3.4-6.4-7.3-8.5-11.7c-1.9-4-3.3-8.7-4.2-13.9C28.4,63,28.1,62.9,27.6,63.1 M25,75.5
		c-0.5,0.2-0.7,0.4-0.6,0.7C26.7,83.8,30.9,89,37.1,92c0.3,0.2,0.6,0.1,0.9-0.3c0.3-0.3,0.3-0.6,0-0.7c-6-2.8-10-7.9-12.1-15.2
		C25.8,75.4,25.5,75.3,25,75.5 M41.2,51.6c-0.9-0.7-1.4-0.6-1.7,0.6c-0.4,1.4-0.4,2.8-0.1,4.4c0.4,2.2,1.1,3.9,2.1,5.1
		c0.5-0.3,1-0.6,1.5-0.7c2-0.6,4,0.8,6,4.1l0.2-1.7l-0.2-0.1L46,59.8c-0.7-0.9-1.3-1.8-1.8-2.9l-1.4-3.1
		C42.4,52.9,41.9,52.1,41.2,51.6 M73,75.1L72,75.7c-4.2,2.6-7.6,6.4-10.2,11.6c1.4,4.1,2,8.1,1.6,12.1c0,0.2-0.3,0.4-0.8,0.5
		c-0.6,0.1-0.8,0-0.8-0.2c0.3-2.7,0.1-5.6-0.6-8.4c-0.6-2.8-1.7-5.4-3.1-7.9c-1,1.2-2.4,2.2-4.1,3.1c-1.7,0.8-3.4,1.2-5.2,1.4
		L47,87.6c-1.1,4.4-1.4,8.8-1,13.3c0.5,5,1.9,9.1,4.3,12.4c2,2.8,4.6,4.9,7.6,6.2c3.7,1.6,6.7,1.2,9-1.1c1.9-1.8,3.3-4,4.4-6.6
		c1.1-2.5,1.6-5.1,1.8-7.8c0-0.3,0.3-0.5,0.8-0.6c0.6-0.1,0.8,0.1,0.8,0.4c-0.1,2.4-0.6,4.8-1.5,7.1c-1,2.6-2.2,4.8-3.7,6.5l0,0.4
		l-1,7.9c6.3,2.5,12.5,3.5,18.8,3.2l2.6-0.2c1.4-0.1,2.2-0.4,2.2-0.7L91.4,108c-0.3-4.1-0.8-7.7-1.3-11l-1.2-5.2l-3.2-1
		c-1.3-0.4-2.3-0.8-3.1-1.2c-2.5-1.4-4.5-2.9-5.9-4.5C74.2,82.1,73,78.8,73,75.1 M78.3,73.1l-4.5,1.6l0.1,0.4
		c-0.2,2.7,0.5,5.2,2.2,7.5c1.5,2.1,3.6,3.8,6.2,5.1c0.7,0.4,1.7,0.8,3,1.1l3,1l0.7,0.6l0.3,1c1.3,5.9,2.2,10.9,2.6,15
		c0.5,5.5,0.8,10.9,1,16.3l0.2,6.1l-0.2,1c-0.4,0.6-1.3,1-2.7,1.1l-10.7-0.5c-4-0.6-7.6-1.5-10.9-2.9l-0.2-0.1l-1.5,11.9
		c5.7,2.3,11.5,3.6,17.2,3.8c6.1,0.2,11.9-0.7,17.3-3c3.6-1.4,6.6-3.1,9.1-4.9l0-10.8l0.1-0.7c-1.5,0.9-3,1.6-4.5,2.2
		c-0.5,0.2-1-1.2-1.3-4.3l-0.5-5.4c-0.8-6.7-2.4-14.8-4.9-24.4c-0.1-0.6-0.1-1,0-1l3.7-2c1.3-0.9,2.3-1.9,3-3
		c0.8-1.4,1.2-2.9,1.2-4.4c0-1.3-0.3-2.8-0.9-4.5c-1.4,1.1-3,2.1-4.8,2.8c-0.6,1.6-1.7,2.8-3.1,3.7c-1.3,0.8-2.9,1.3-4.7,1.4
		c-3.5,0.3-6.8-0.6-9.8-2.7c-3.3-2.2-5-4.9-5.1-8.3L78.3,73.1 M56.5,74.8l0-0.3c0.4-2.9,0.2-5.6-0.8-8.2c-0.6-1.5-1.4-2.8-2.5-3.7
		c-1.3-1.1-2.1-0.6-2.4,1.5c-0.3,3.2,0,5.4,0.9,6.7c0.7,1,1.2,0.9,1.6-0.2c0.4-0.9,0.5-1.8,0.3-2.7c-0.1-0.4,0.2-0.7,0.7-0.8
		c0.5-0.1,0.8,0,0.9,0.4c0.2,1.4,0.1,2.7-0.4,3.7c-0.6,1.2-1.6,1.7-3,1.6c-0.9-0.1-1.5-0.6-2-1.7c-0.4,0.4-0.9,0.7-1.5,0.8h-1.2
		l0.5,1.5c0.6,2.4,0,3.9-1.9,4.2l1.2,1.3c1.7-1.4,3.7-1.9,6.1-1.5l-0.4,0.3L51.6,78c-1.7-0.2-3.1,0.3-4.2,1.5l-0.7,0.4
		c-0.3,0.1-0.6,0.1-0.8,0c-1.6-0.8-3-2.6-4.2-5.4l0.1-0.2h0c0.2-0.1,0.5-0.2,0.7-0.3l0.7,0c1.9,2.7,2.9,3.3,2.9,1.7
		c0-1.4-0.4-2.8-1.3-4.2l-1.2-1.7l-1-0.9l0-0.2c-0.8-0.6-1.4-0.7-1.9-0.2c-1,1-1.7,2.2-2.2,3.5c-0.5,1.5-0.6,2.8-0.2,4.1
		c0.9,3,2.6,5.7,5.3,8.1c3.1,2.8,6,3.5,8.7,2.2c2.8-1.3,4.5-3,5.3-4.9C58.6,79.5,58.2,77.2,56.5,74.8L56.5,74.8 M95.6,33.6L94.1,34
		c-0.9,0.1-2.1-0.3-3.6-1c-0.6-0.3-1.3-0.4-2.1-0.3c-1.9,0.1-3.6,1.2-5,3.1c-0.4,0.6-1.1,0.9-1.8,1L75.7,36h-0.3
		c-1.5,0.1-2.5,1-2.9,2.7c-0.4,1.8,0.5,3.2,2.8,4.3c0.7,0.3,0.7,0.7,0.2,1.1c-1.5,1-2.7,2-3.7,3.1c-2,2.2-2.9,4.7-2.7,7.3
		c0.7-2,1.6-3.9,2.9-5.7c1.6-1.9,2.6-3,3.1-3.2l0.3-0.1c0.3,0,0.5,0.1,0.5,0.3c0.1,0.2,0,0.4-0.2,0.5c-1.1,0.9-2.1,2-3,3
		c-0.8,0.9-1.6,2.1-2.3,3.5l-1.2,2.8l0.2,1c0.9-2.3,1.9-4.2,3.2-5.6c0.9-1.1,1.8-1.8,2.6-2.2l0.2,0c0.2,0,0.4,0.1,0.4,0.4
		c0,0.3-0.1,0.6-0.5,0.9c-0.8,0.6-1.4,1.1-1.9,1.7c-0.7,0.8-1.5,1.9-2.3,3.3l-1.3,2.3l0,0c0.1,0.3,0.1,0.6,0,0.9l1.4-0.5
		c0.1,0.1,0,0.3-0.2,0.6c-1.9,1.6-2.2,3.5-1.1,5.7c1.1,2.1,2.8,3.1,5.2,3l0.7-0.1c2.7,4.2,6,7.4,9.9,9.6c0.4,0.2,0.6,0.4,0.5,0.5
		c0,0.1-0.2,0.2-0.5,0.2c-1.2,0.1-2.6-0.4-4.2-1.3c0.4,2,2,3.8,4.7,5.3c2.6,1.4,5,2,7.3,1.8c1,0,1.8-0.3,2.5-0.8l-0.2,0L93,81.9
		c-1.3-0.3-1.9-0.6-1.8-0.8l0.2-0.1l2.7,0c2.3-0.2,4.8-1,7.6-2.4c4.9-2.6,8.4-6.8,10.5-12.6c2-5.5,2.2-11.1,0.6-16.7
		c-0.9-3.4-2.6-6.9-5.1-10.4c-1-0.1-2.2-0.6-3.4-1.4L102,35c-1.4-1.5-2.3-2.4-2.7-2.6l-0.8-0.1c-0.5,0-1.1,0.2-1.7,0.6L95.6,33.6
		 M89.6,45.2L88.1,44c-1-0.7-2.1-0.9-3.2-0.6c-0.8,0.2-1.8,0.7-3,1.6l-1,0.2l-0.5-0.1c1.3-1,2.3-1.7,3.1-2c1.1-0.6,2.3-0.8,3.5-0.7
		c0.4,0,1.5,0.6,3.4,1.7c1.7,1,2.6,1.4,2.7,1.3c0.1-0.2,0.4-0.3,0.9-0.3l0.7,0c-0.4,0.6-0.9,0.9-1.5,1l-1.9-0.1
		C90.8,46,90.3,45.7,89.6,45.2 M76,52.4c0.1,0.2,0,0.5-0.3,0.7c-0.5,0.3-1,0.7-1.5,1.2l-1.8,2.2l-0.2-0.2c-0.1-0.2,0-0.6,0.3-1.2
		l0.9-1.5c0.5-0.7,1.2-1.2,2-1.6l0.1,0C75.8,52,75.9,52.1,76,52.4 M75.7,55.2c0.2,0,0.4,0.1,0.5,0.3c0.1,0.2,0,0.4-0.2,0.5l-0.5,0.5
		c-0.3,0.4-0.5,0.7-0.5,1c0,0.3-0.2,0.4-0.5,0.5c-0.4,0-0.5-0.2-0.5-0.6c0-0.4,0.2-0.9,0.5-1.3l1-0.9L75.7,55.2 M87,49.7
		c-0.1-0.8,0-1.5,0.2-2c0.2-0.6,0.6-0.9,1-1h0c0.4,0,0.8,0.2,1.1,0.7c0.4,0.5,0.6,1.2,0.7,1.9c0.1,0.8,0,1.5-0.2,2
		c-0.2,0.6-0.6,0.9-1,1h0c-0.4,0-0.8-0.2-1.1-0.7C87.3,51.2,87,50.5,87,49.7 M88.6,65c-0.4,0.1-0.7,0.2-0.8,0.5l0.1,1.9l-0.3,0.2
		c-0.1,0.1-0.2-0.1-0.3-0.3l-1-3.7c-0.1-0.2,0-0.5,0-0.7c0.1-0.3,0.3-0.5,0.5-0.6l3.9-3.3l0.3-0.1c0.2,0,0.3,0.2,0.1,0.5l-0.4,1.3
		c-0.1,0.2,0,0.4,0.2,0.7c0.2,0.2,0.4,0.4,0.7,0.4l8.7,1.8h1.1c1.9-0.1,4-0.6,6.4-1.3l0.5-0.4c0.2-0.2,0.2-0.4,0.2-0.6l0-0.6
		c0-0.3,0-0.4,0.1-0.4l0.3,0.2l1.7,1.8c0.4,0.4,0.5,0.9,0.2,1.3l-1.5,2.9l-0.3,0.3c-0.1,0-0.2-0.1-0.2-0.4v-0.4
		c-0.1-0.4-0.3-0.6-0.6-0.6l-0.2,0l-2.5,1.7c-2,1.2-3.9,1.8-5.6,2h0c-1.7,0.1-4-0.5-6.9-1.9L89,65L88.6,65 M107.6,48.2
		c0.1,0.8,0,1.5-0.2,2c-0.2,0.6-0.6,0.9-1,0.9h0c-0.4,0.1-0.8-0.2-1.1-0.7c-0.4-0.5-0.6-1.2-0.7-2s0-1.5,0.2-2
		c0.2-0.6,0.6-0.9,1-0.9c0.4,0,0.8,0.2,1.2,0.7C107.3,46.8,107.5,47.4,107.6,48.2 M101.2,44.4c-0.2,0.4-0.6,0.5-0.9,0.5
		c-0.4,0-0.7-0.2-1.1-0.7l0.3-0.2c0.3-0.1,0.5,0,0.5,0.1c0.1,0.1,0.4-0.8,0.9-2.7c0.6-2,1-3,1.2-3.2c0.5-0.3,1.2,0,2,0.8l2.2,2.2
		l-0.2,0.2l-0.5,0c-0.8-0.6-1.5-0.9-1.9-0.9c-0.6,0-1.1,0.4-1.4,1.2l-0.5,1.4L101.2,44.4 M96.8,46.3L96.8,46.3
		c0.3,0,0.5,0.2,0.8,0.6l2,3.2c0.6,0.9,1.8,2.2,3.6,4.1c0.4,0.4,0.4,0.9,0.1,1.3l-1.6,2.9c-0.3,0.4-0.6,0.6-1.1,0.6l-0.6,0l-0.3-0.1
		c-0.2,0-0.4-0.1-0.5-0.3c-0.1-0.2,0-0.3,0.1-0.5l1.4-2.2c0.3-0.5,0.3-1,0-1.4l-2-3.2l-2-4.1l-0.1-0.6L96.8,46.3 M102.6,70.3
		l0.5,0.1l-0.3,0.3l-1.4,0.9l-1.1,0.2h-1l-0.4-0.1l-0.6-0.4c-0.2-0.2-0.2-0.4-0.2-0.6c0.1-0.5,0.3-0.7,0.9-0.7L102.6,70.3 M89,63.9
		c0.1,0.2,0.4,0.4,0.7,0.5l6.5,2.5l4.2,0.2l2.6-0.5l5-2.1c0.4-0.1,0.6-0.4,0.7-1c0.1-0.5-0.1-0.7-0.7-0.6h-0.1
		c-2.5,0.7-4.8,1.2-6.9,1.3l-1.2,0l-5.5-0.9l-3.1-0.9l-1-0.1c-0.4,0.1-0.8,0.2-1,0.5C88.8,63.3,88.8,63.6,89,63.9 M97.6,24.3l-1,0
		c-0.7,0.1-1.3,0.3-2,0.5L93,25.3c-0.4,0.1-0.8-0.1-1.1-0.4l-1.6-1.9c-1.6-2.2-2.7-3.3-3.4-3.3h-0.2c-0.9,0.1-1.8,0.6-2.9,1.5l-1,1
		c-0.4,0.4-0.8,0.6-1.2,0.8c-1.3,0.6-2.5,1-3.6,1.2c-1.6,0.3-3,1.4-4.2,3.3l-2.2,3.2c-1,0.5-2.1,1.7-3.2,3.4
		c-0.7,1.2-1.4,2.6-1.9,4.1c-0.9,2.5-0.9,5.7,0.1,9.6c0.5,2,1.1,3.7,1.7,5.1c0.4-2.4,1.3-4.5,2.8-6.2l3.1-2.9
		c-0.9-0.5-1.7-1.2-2.5-2c-0.9-1-1.3-1.9-1.3-2.7c0.1-1.1,0.4-2.1,1-2.9c0.8-1.1,1.9-1.7,3.3-1.8h0.9c0.6,0,1.6,0.3,3,0.8
		c1.3,0.5,2.2,0.7,2.6,0.7l0.2,0l2.6-3c1.5-1.9,2.7-2.8,3.7-2.9l0.7,0.1c0.5,0.2,1.5,0.7,3,1.5l1.8,0.9c0.6,0.3,1,0.4,1.3,0.4
		l0.5-0.2l2.2-1.3l1.1-0.3c0.6,0,1.2,0.2,2,0.5c0.6,0.3,1.6,1.2,3,2.7l2.2,2.4c1.2,0.9,2.4,1.3,3.4,1.2c0.7,0,1.3-0.3,1.9-0.9
		c0.9-1.1,1.6-2.4,1.8-4c0.2-1.6,0.1-2.9-0.5-4.1c-0.4-0.9-0.9-1.7-1.7-2.4c0.2,1.1-0.1,1.9-0.7,2.5c-0.7,0.7-1.6,1-2.5,1.1
		c-1.4,0.1-2.6-0.4-3.7-1.5c-1.3-1.2-2.1-2.1-2.6-2.5C99.2,25.1,98.2,24.4,97.6,24.3 M212,208.6l2.7-1.3c-0.5-2.2-0.8-4.6-1-7.3
		C213.5,203,212.9,205.9,212,208.6 M216.9,202.4l0.5,3.6l6.3-3c-0.9-5.6-3.2-12-6.9-19.2C216.2,190.4,216.2,196.6,216.9,202.4
		 M212.4,198.4c0.2-6.1-1.2-13.1-4.3-20.9c-3.5,7.7-5.8,13.6-6.8,17.7c-2.2,9.3-3.4,16-3.6,20.3l12.3-6
		C211.5,206,212.3,202.3,212.4,198.4 M210.5,172.3l-1.5,3.4c2.4,6,3.9,11.5,4.5,16.4c0-4.1,0.4-8.4,1-12.8L210.5,172.3 M187.3,135.7
		c0-0.8-0.3-1.5-0.8-2.2c-0.6-0.6-1.3-1-2.1-1l-68-6c-0.8-0.1-1.5,0.2-2,0.7c-0.6,0.5-0.8,1.1-0.8,2v78.2c0,0.8-0.1,1.5-0.4,2.1
		l-0.1,0.2l75.1,10.5l-0.4-0.5c-0.3-0.6-0.4-1.3-0.4-2.1V135.7 M196.9,147.9c0.2,1.5,0.8,3.5,2,6.1l8.6,18l1.3-2.9
		c-2.5-4.3-4.3-7.7-5.5-10.1c-1.6-3.4-2.5-6.2-2.7-8.6c-0.6-4.7-0.3-10.1,0.7-16.2C197.9,139.5,196.4,144,196.9,147.9 M193,131.6
		c-0.8,0.2-1.4,0.7-2,1.5c-0.6,0.7-0.8,1.5-0.8,2.3v82c0,0.7-0.1,1.3-0.3,1.8l4.9-2.4v-1.3c0.1-4.5,1.4-11.6,3.7-21.1
		c0.7-2.7,1.8-6,3.3-9.7c0.9-2.4,2.5-5.9,4.7-10.7l0.1-0.3l-5.3-11.1c-1.9-3.8-3.2-6.5-3.9-8.1c-1.1-2.7-1.8-4.8-2-6.4
		c-0.3-2.7,0.2-5.7,1.5-8.9c1-2.5,2.6-5.4,4.9-8.5l0.4-2L193,131.6 M206.8,127.1l-0.8,0.2l-2.8,3.8c-1.4,7.6-1.9,14-1.2,19.1
		c0.2,2.1,1.1,4.7,2.5,7.8c1.1,2.3,2.7,5.4,5,9.3c2.8-6.5,4.7-11.8,5.7-15.8c1.3-5.4,1.4-9.9,0.2-13.4
		C213.8,133.7,210.9,130,206.8,127.1 M230.6,141.5v-19.2c0-0.8-0.3-1.4-0.8-1.8c-0.5-0.4-1.2-0.5-2-0.2l-17.5,5.7
		c3.7,3,6.3,6.8,7.9,11.3c1.4,4.1,1.3,9.3-0.3,15.5c-1.1,4.4-3.3,10.3-6.6,17.7l0.1,0.1l3.6,6.2c0.8-4.7,1.8-9,3.2-13
		c1.4-4.1,3-7.5,4.7-10.3L230.6,141.5 M230.6,147l-5.4,8.3c-2,3-3.7,6.9-5.1,11.5c-1.4,4.4-2.4,9.1-3,14.3c2.3,4.4,4.1,8.4,5.4,11.9
		c1.2,3.2,2,6.3,2.5,9.2l6-2.9l-0.1-0.2c-0.3-0.6-0.5-1.3-0.5-2.1L230.6,147 M204,111.4c1.5,1.7,2.1,3.7,1.8,6l-0.8,5.2l2,1.1
		l3.7-5.2c1.1-1.7,1.7-3.1,1.9-4.2c0.2-1.7-0.1-3-1.1-3.9c-1.1-1.1-3-1.8-5.5-2.1c-1.9-0.2-3.9-0.2-6.3,0v0.3
		C201.5,109.3,202.9,110.3,204,111.4 M221.4,87l-0.7-1l-11.4,2.5l1.4,1.6l11.8-2L221.4,87 M184.5,112.4l-26.5-4.8l-2.9-0.1l-2.8,0.4
		l-35.2,10c-0.8,0.2-1.5,0.6-2.1,1.2c-0.6,0.6-1,1.3-1,2l0,0.7c0.1,0.4,0.2,0.8,0.6,1.1c0.5,0.5,1.1,0.8,1.8,0.9h0.1l67.8,6
		c0.8,0.1,1.5-0.2,2.1-0.7c0.6-0.5,0.8-1.2,0.8-2v-11.2c0-0.8-0.3-1.5-0.8-2.2C186,112.9,185.3,112.5,184.5,112.4 M187.4,48.7
		l-28.1-6.4c-0.7,0.7-1,1.4-1,2.2l-1.7,57c0,0.8,0.2,1.5,0.8,2.2c0.6,0.7,1.2,1.1,2,1.2l25.1,4.6c0.8,0.1,1.5,0,2-0.5
		c0.6-0.5,0.8-1.1,0.8-1.9L187.4,48.7 M222.7,65.5c-0.9,2.1-1.5,4.5-1.8,7c-0.2,2.6-0.1,5,0.4,7.3c0.5,2.2,1.3,4,2.4,5.4
		c0.9,1.1,1.9,1.7,3,1.8c1.1,0.1,2.2-0.3,3.2-1.2c1.3-1.1,2.5-2.7,3.4-4.8c0.9-2.1,1.5-4.5,1.7-7.1c0.2-2.5,0.1-5-0.4-7.2
		c-0.5-2.3-1.3-4.1-2.4-5.4c-0.9-1.1-1.9-1.7-3-1.8c-1.1-0.1-2.1,0.3-3.2,1.2C224.7,61.7,223.6,63.4,222.7,65.5 M219.7,65.1
		l-11.1-4.8l-0.9,1.5l11.6,4.4L219.7,65.1 M205,69.6c-0.2,1.4-0.4,2.9-0.4,4.3c0,4.3,1,8.3,3,11.9l11.8-2.5
		c-1.3-3.2-1.7-6.9-1.3-11.1L205,69.6 M206.4,64.4c-0.2,0.6-0.5,1.3-0.8,2.4l12.8,2.6l0.1-0.4L206.4,64.4 M193.2,48.5
		c-0.8,0.1-1.5,0.4-2,1.1c-0.6,0.6-0.9,1.3-0.9,2.1v74.9c0,0.8,0.3,1.4,0.8,1.8c0.5,0.4,1.2,0.5,2,0.2l9.8-3.2l0.1-0.4
		c-1.8-0.9-3.7-1.5-5.7-2c-0.2,1.4-0.5,2.6-1.1,3.5c-0.6,0.9-1.2,1.4-2,1.4c-0.9,0-1.6-0.6-2.2-1.8c-0.6-1.2-0.9-2.7-0.9-4.5
		c0-1.7,0.3-3.2,0.9-4.4c0.6-1.2,1.4-1.9,2.2-1.9c0.7,0,1.4,0.4,2,1.3c0.6,0.9,0.9,2,1.1,3.4c2.1,0.4,4.3,1.1,6.4,2l0.7-4.7
		c0.3-3.3-1.2-5.7-4.7-7.2c-0.2,1.4-0.6,2.5-1.1,3.3c-0.6,0.9-1.2,1.3-1.9,1.3c-0.9,0-1.6-0.6-2.2-1.8c-0.6-1.2-0.9-2.7-0.9-4.5
		c0-1.7,0.3-3.2,0.9-4.4c0.6-1.2,1.4-1.9,2.2-1.9c0.7,0,1.4,0.4,2,1.3c0.6,0.9,0.9,2,1.1,3.4c6.4-0.5,10.7,0.3,12.9,2.5
		c1.4,1.3,1.9,3.1,1.5,5.2c-0.3,1.9-1.9,4.9-4.9,8.8l18.7-6.1c0.8-0.2,1.4-0.7,2-1.5c0.6-0.7,0.8-1.5,0.8-2.3v-3.7l-1.3-0.2
		c-0.2,1.8-0.6,3.3-1.3,4.5c-0.7,1.2-1.6,1.8-2.5,1.8c-1.1,0-2-0.8-2.7-2.3c-0.8-1.5-1.2-3.4-1.2-5.5c0-2.1,0.4-4,1.2-5.5
		c0.7-1.5,1.7-2.3,2.7-2.3c0.9,0,1.8,0.6,2.5,1.8c0.7,1.2,1.2,2.7,1.3,4.5l1.3,0.2V88.8c-1.1,0.6-2.2,1-3.2,1l0,0.2l-17.1,3
		c-0.5,0.1-0.9,0-1.2-0.4c-2.3-2.2-4.1-4.9-5.4-8.3c-1.3-3.3-2-6.8-2-10.5c0-6.4,1.8-11.9,5.4-16.5c3.5-4.6,7.8-6.9,12.8-6.9
		c2.6,0,5.1,0.7,7.5,2.1l0.3,0.2l2.9,2.9v-8.2c0-0.5-0.1-1-0.4-1.4v5.3l-1.1-1.1l-0.5-0.3c-0.8-0.4-1.8-0.9-3-1.3v-3l3.7-0.5
		c-0.6-0.3-1.1-0.5-1.7-0.4L193.2,48.5 M212.1,49.4v-1.8l4.5-0.6v1C215.1,48.3,213.6,48.8,212.1,49.4 M209.9,47.9v2.8
		c-1.6,1-3.1,2.3-4.5,3.9v-6.1L209.9,47.9 M219.6,47.7l-0.7,0v-1l4.5-0.6v2L219.6,47.7 M196.4,49.7v6.8l-4.5,0.6v-6.8L196.4,49.7
		 M198.6,56.2v-6.8l4.5-0.6v6.8L198.6,56.2 M203.1,57.7c-1.4,2.3-2.5,4.7-3.2,7.2l-1.2,0.2v-6.8L203.1,57.7 M191.9,59.2l4.5-0.6v6.8
		l-4.5,0.6V59.2 M191.9,74.8v-6.8l4.5-0.6v6.8L191.9,74.8 M191.9,77l4.5-0.6v6.8l-4.5,0.6V77 M208.4,96.4l1.5-0.3v3l-4.5,0.6v-6.4
		L208.4,96.4 M223.4,93.6v3.7l-4.5,0.6v-3.5L223.4,93.6 M212.1,95.7l4.5-0.8v3.4l-4.5,0.6V95.7 M191.9,85.8l4.5-0.6V92l-4.5,0.6
		V85.8 M191.9,94.7l4.5-0.6v6.8l-4.5,0.6V94.7 M203.2,90.4v0.7l-4.5,0.6v-6.8l1.7-0.2C201.1,86.6,202,88.5,203.2,90.4 M198.6,93.8
		l4.5-0.6v6.8l-4.5,0.6V93.8 M225.7,93.2L227,93l0-0.2c1.1-0.1,2.2-0.3,3.2-0.7v4.3l-4.5,0.6V93.2 M219.9,53.5c-2,0-3.9,0.5-5.7,1.5
		c-1.7,1-3.3,2.3-4.7,4.1l10.8,4.7c1.1-2.3,2.4-4.1,3.9-5.4c1.1-0.8,2.1-1.4,3.2-1.6l-1.6-1.6C223.9,54.1,222,53.5,219.9,53.5
		 M221.7,42.4c0-0.2-0.4-0.4-1.2-0.6l-14-3.4l-2.9-0.4c-1.1-0.1-2.1-0.1-2.9,0l-34.4,2.8l22.6,5.2v0l31.4-3.3
		C221.3,42.7,221.7,42.6,221.7,42.4z"/>
</g>
</svg>
