<?xml version="1.0" encoding="utf-8"?>
<!-- Generator: Adobe Illustrator 25.4.1, SVG Export Plug-In . SVG Version: 6.00 Build 0)  -->
<svg version="1.1" id="Hacker_x2C_PerkClip_x5F_52403" image-rendering="auto"
	 xmlns="http://www.w3.org/2000/svg" xmlns:xlink="http://www.w3.org/1999/xlink" x="0px" y="0px" viewBox="0 0 240 240"
	 style="enable-background:new 0 0 240 240;" xml:space="preserve">
<style type="text/css">
	.st0{fill:#FFFFFF;}
</style>
<g>
	<g id="Layer2_0_FILL18">
		<path d="M240,0H0v240h240V0z"/>
	</g>
</g>
<g transform="matrix(.831 0 0 .831 163.55 58.1)">
	<g id="Symbol-4f0r1">
		<g>
			<g id="Layer3_0_FILL18">
				<path class="st0" d="M139,89l0.1,0.4c0.1,0.3,0.4,0.4,0.7,0.2l12.1-6.8l-0.3-2.3l-12.5,8.1L139,89 M150.9,71.1l0-2.5l-21.2,5.1
					c-0.3,0.1-0.5,0.3-0.4,0.7c0.1,0.3,0.3,0.5,0.7,0.4L150.9,71.1 M151.9,55.4l0.3-2.5l-4.3-0.7c-0.3-0.1-0.6,0.1-0.7,0.4
					c-0.1,0.4,0,0.6,0.3,0.7C150.5,54.4,151.9,55.1,151.9,55.4 M142.8,57.5c-0.4,0-0.6,0.2-0.6,0.5c-0.1,0.4,0.1,0.6,0.5,0.6
					c2.8,0.6,5.7,1.3,8.7,2l0.2-2.6L142.8,57.5 M132.8,37.2c-0.3-0.1-0.6-0.1-0.7,0.2c-0.1,0.3-0.1,0.6,0.2,0.7L152.7,50l0.4-2.5
					l-10-5.2C137.7,39.5,134.2,37.8,132.8,37.2 M151.5,32.5l3.6,4.7l1.7-1.5l-4.4-3.9l-0.8,0C151.3,32,151.3,32.2,151.5,32.5
					 M159.7,30.7c-0.3,0.2-0.4,0.5-0.2,0.8l1.9,3.7l2.7-0.2c-0.6-1-1.8-2.4-3.6-4.2C160.2,30.6,160,30.5,159.7,30.7 M180.2,33
					c-0.3-0.7-0.7-1.8-1-3.2c-0.1-0.3-0.3-0.5-0.6-0.5c-0.3,0.1-0.5,0.2-0.5,0.6c-0.1,2.4-0.1,3.7,0.1,4l2.3-0.2L180.2,33 M173,26.3
					c-0.1-0.3-0.3-0.4-0.7-0.4c-0.4,0.1-0.5,0.3-0.5,0.7l0.5,3.8c0,0.9,0.2,2.1,0.6,3.8l2.6-0.2L173,26.3 M194.5,32.4l2.6-0.2
					c0.1-1,0.3-2,0.7-3.2c0.1-0.4,0-0.6-0.3-0.7c-0.3-0.1-0.6-0.1-0.7,0.2L194.5,32.4 M192.2,26c0.1-0.3-0.1-0.6-0.5-0.7
					c-0.3-0.1-0.6,0-0.7,0.4l-2.6,7.2l2.6-0.2L192.2,26z"/>
			</g>
		</g>
	</g>
</g>
<g>
	<g id="Layer1_0_FILL18">
		<path class="st0" d="M217.5,205.9l6.2-3c-0.9-5.6-3.2-12-6.9-19.2c-0.7,6.7-0.6,12.9,0.1,18.6L217.5,205.9 M213.8,200
			c-0.2,3-0.8,5.9-1.8,8.6l2.8-1.3C214.3,205.1,213.9,202.6,213.8,200 M98.7,196.4l1-1h0.2c2.6,1.6,5.5,2.8,8.8,3.6l2,0.4v-6.2
			c-0.8,0.4-1.9,0.6-3.2,0.8c-3.5,0.4-8.1,0-13.8-1.3c-0.1,1.1,0,1.7,0.1,2c0.2,0.5,0.6,0.9,1.4,1.2l2,0.8
			C97.8,196.8,98.4,196.7,98.7,196.4 M115.5,115.2l0.2-0.1v-1.4l-2.4,0.6v1.6L115.5,115.2L115.5,115.2 M119.8,112.4l-2.1,0.6v1.6
			l2.1-0.7V112.4 M121.7,111.8v1.6l2.1-0.6v-1.6L121.7,111.8 M127.8,110.1l-2,0.5v1.7l2-0.6V110.1 M140.1,108.2v-1.8l-2.1,0.5v1.9
			L140.1,108.2 M133.9,109.9l2.1-0.5v-1.8l-2.1,0.6V109.9 M131.9,110.5v-1.7l-2.1,0.5v1.8L131.9,110.5 M148.1,105.9v-2l-2.1,0.6v2
			L148.1,105.9 M142,105.7v2l2.1-0.6v-1.9L142,105.7 M152.5,104.1v-1.4l-2.4,0.6v2.1l0.7-0.2C151.5,105,152,104.6,152.5,104.1
			 M70.9,197.2l-2.2,0.2c-2.6,0.2-5-0.1-7.1-0.9c-1.9-0.7-3.3-1.4-4.3-2.1c-2.2,1.8-2.8,4.1-1.5,6.9c1.2,2.8,3.2,3.8,6,2.9
			C66.8,202.7,69.9,200.3,70.9,197.2 M57.4,181.3c-1.1,3.6-1.6,6.7-1.6,9.2l0,1.1l0.6,0.5l2,1.2c2.4,1.3,4.7,2,6.9,2.2
			c4.9,0.3,8.1-0.5,9.8-2.4c1.5-1.6,3-4.1,4.5-7.4c1.2-2.6,2.5-5.9,3.8-9.9l3.2-10.1c1.5-4.3,2.8-7.6,3.7-9.8c1.6-3.6,3.2-6.6,5-9.1
			c0.1-0.2,0.3,0.1,0.6,0.7c0.2,0.6,0.3,1,0.1,1.2c-1.5,2.1-3,4.6-4.4,7.6c1.1,4.7,1.6,10.4,1.5,17.1l-0.7,17.2l7.8,1.5l7.8-0.3
			l2.5-0.8v-53.3h0c-2.5,1.7-5.3,3.2-8.5,4.4c-6.8,2.7-13.5,3.6-20.2,2.8c-5.7-0.7-10.8-2-15.2-3.9l-1.4,8.9
			c-1.5,8.2-3.2,15.6-5.2,22.4L57.4,181.3 M43.7,68.1l0.5,0.2l0.5,0.4c0.3,0.2,0.6,0.5,0.8,0.8l1.9,1.2c1.2,0.5,1.6-0.1,1.3-1.8
			c-0.3-1.4-0.7-2.6-1.2-3.3c-2.1-3.2-3.7-4.3-4.8-3.4c-2.3,2-3.1,4-2.5,6.1L43.7,68.1 M39.5,52.1c-0.4,1.4-0.4,2.8-0.1,4.4
			c0.3,2.2,1,3.9,2.1,5c0.6-0.4,1.1-0.6,1.6-0.7c2-0.6,4,0.8,6,4.1l0.1-0.8l0.2-0.8l-0.2-0.1L46,59.8c-0.7-0.9-1.3-1.9-1.8-3
			l-1.5-3.1c-0.3-0.8-0.8-1.6-1.5-2.2C40.4,50.8,39.8,51,39.5,52.1 M38.7,72c-0.5,1.5-0.6,2.8-0.2,4.1c0.9,3,2.7,5.7,5.3,8.1
			c3.1,2.8,6,3.5,8.7,2.2c2.8-1.3,4.5-2.9,5.3-4.8c0.8-2.1,0.4-4.4-1.3-6.8l0-0.3c0.5-2.8,0.2-5.6-0.8-8.2c-0.6-1.5-1.4-2.8-2.5-3.8
			c-1.3-1.1-2.1-0.6-2.4,1.5c-0.3,3.1,0,5.4,0.9,6.7c0.7,1,1.2,1,1.6-0.1c0.4-1,0.5-1.9,0.3-2.7c-0.1-0.4,0.2-0.7,0.7-0.8
			c0.6-0.1,0.9,0,0.9,0.4c0.3,1.4,0.1,2.6-0.4,3.7c-0.6,1.2-1.5,1.7-3,1.6C51,72.6,50.2,72,49.8,71c-0.3,0.4-0.8,0.7-1.5,0.8H47
			l0.5,1.5c0.6,2.4,0,3.8-1.9,4.2l1.2,1.3c1.7-1.4,3.7-1.9,6.1-1.5l-0.4,0.3l-1,0.2c-1.7-0.2-3.1,0.3-4.1,1.5l-0.7,0.5
			c-0.4,0.1-0.6,0.1-0.8,0c-1.5-0.8-2.9-2.6-4.2-5.4l0.1-0.2h0c0.2-0.1,0.5-0.2,0.8-0.3h0.8c0.6,0.9,1.2,1.6,1.7,2.1
			c0.8,0.9,1.2,0.8,1.2-0.3c0-1.5-0.5-2.9-1.3-4.2l-1.2-1.7l-1-0.9l0-0.2c-0.8-0.6-1.4-0.7-1.8-0.2C39.8,69.5,39.1,70.7,38.7,72
			 M27,63.8c1.8,10.8,6.1,19.5,13,26.1l1-0.1c0.4-0.3,0.4-0.6,0.2-0.9c-3.6-3.4-6.4-7.3-8.5-11.8c-1.9-4-3.3-8.7-4.1-13.8
			c0-0.4-0.3-0.5-0.8-0.3C27.1,63.2,26.9,63.5,27,63.8 M140.1,92.3l-0.1,0.2c1.4,1.3,2.7,3.2,3.7,5.8l0.6,1.9l0.4,0
			c1.9,0.9,3.1,1.2,3.5,0.7c1.1-1.3,0.8-2.9-0.8-4.9c-0.8-1-2-2.1-3.8-3.3C141.3,91.3,140.2,91.1,140.1,92.3 M133.6,93.2L133.6,93.2
			l0.6,0.7c0.9,1,1.7,2.1,2.4,3.5c0.9,1.6,1.4,3.1,1.6,4.4c0.1,0,0.2,0.1,0.2,0.2c0.6,0.7,1.4,1.2,2.4,1.6c1.2,0.4,1.8,0.1,1.9-1.1
			c0.2-1.3-0.3-2.9-1.3-4.7c-1.1-2.1-2.2-3.6-3.2-4.5C136.6,91.7,135.1,91.7,133.6,93.2 M130,92.3c-1.3-0.4-2.6,0-3.9,1.3
			c-1.1,1-2,1.9-2.6,2.9c-2.1,3.2-3.4,5.5-3.8,7c-0.7,2.7,0.3,4.9,3.2,6.4v0.1l5.2-1.6l0.4-0.3c0.4-0.4,0.8-0.6,1.1-0.7l2.1-0.1
			l2.4-0.8c1.6-1.4,1.2-2.5-1.3-3.3c-2.2,0.4-4.5,0.3-6.7-0.1c-0.4-0.1-0.4-0.3,0-0.5c0.4-0.3,0.7-0.4,1-0.3l3.5,0.2l-1.3-3.2
			l-0.6,0.8c-0.2,0.2-0.5,0.3-1,0.3c-0.5,0-0.7-0.1-0.5-0.3l1.2-1.6l-0.1-1.7c0-0.3,0.2-0.5,0.8-0.7c0.5-0.1,0.8-0.1,0.9,0.2
			c0.8,2.5,1.6,4.5,2.4,6.2l2.4,0.1c0.8,0.1,1.4,0.6,1.7,1.6c0.5-1.2,0.3-2.9-0.6-5c-0.7-1.6-1.6-3-2.7-4.2
			C132,93.5,131,92.7,130,92.3 M107.3,76.4L107.3,76.4c0.6,1.9,0.9,3.3,1.1,4.4c0.3,1.7,0.2,3.2-0.3,4.4c-0.6,1.8-1.6,3.3-3,4.5
			c-1,0.9-2.5,1.8-4.7,2.9c2.9,11.6,4.8,22,5.5,31.4c1,0,2.7-0.9,5.1-2.5l0.5-3.9v-4.2l3.6-1.1l-0.2-1.8c-0.1-0.1-0.1-0.2,0-0.2
			l-1.6-12.7c-0.1-0.6,0-0.6,0.3-0.2l0.5,1l1.4,11.4l0.8,0.1c0.6,0.7,1.2,1.1,2,1.4l2.9-0.9h0c-2.9-1.6-4-4.1-3.1-7.5
			c0.8-2.7,2.5-5.4,5.2-8.1c-1.4-4.2-3.4-7.9-6-11C114.6,80.6,111.3,78.1,107.3,76.4 M98.8,83.4c-1.3,0.8-2.8,1.3-4.7,1.4
			c-3.5,0.3-6.8-0.6-9.8-2.7c-3.3-2.2-5-4.9-5.2-8.2l-0.8-0.8l-3.2,1.2c-1.2,0.4-2.2,0.9-3.1,1.4c-4.2,2.6-7.6,6.4-10.2,11.6
			c1.5,4,2,8,1.6,12c0,0.2-0.3,0.4-0.9,0.5c-0.5,0.1-0.8,0-0.8-0.2c0.3-2.7,0.1-5.5-0.5-8.4c-0.7-2.8-1.7-5.4-3.2-7.9
			c-1,1.2-2.3,2.2-4,3.1c-1.6,0.8-3.4,1.3-5.2,1.4L47,87.6c-1.1,4.4-1.4,8.8-1,13.2c0.5,5,2,9.1,4.4,12.4c2,2.8,4.5,4.9,7.6,6.2
			c3.7,1.6,6.7,1.2,9-1.1c1.9-1.8,3.3-4,4.4-6.6c1.1-2.5,1.7-5.1,1.8-7.8c0-0.3,0.3-0.5,0.8-0.6c0.5-0.1,0.8,0,0.8,0.4
			c-0.1,2.4-0.6,4.8-1.4,7.2c-1,2.6-2.2,4.8-3.7,6.6l0.1,0.4l-1.1,8c6.3,2.5,12.6,3.5,18.9,3.2l2.5-0.2c1.5-0.2,2.2-0.4,2.2-0.7
			L91.4,108c-0.3-4.1-0.8-7.8-1.3-11l-1.2-5.2l-6-2c-2.4-1.2-4.2-2.5-5.6-3.9c-2.8-3-4.2-6.4-4.2-10.3c0-0.4,0.1-0.4,0.4,0.2
			l0.4,1.1c0,2.6,1,5.1,3.1,7.2c1.8,1.9,4,3.4,6.8,4.5l5,1.4c0.2,0.1,0.3,0.3,0.5,0.8l0.1,0.9c1.3,4.6,2.2,10.1,2.7,16.7
			c0.5,5.2,0.8,10.5,0.9,15.7l0.1,5.1l-0.2,1c-0.6,0.4-1.5,0.7-2.7,0.8l-10.6-0.4c-4-0.6-7.6-1.5-10.9-2.8l-0.2-0.2l-1.6,11.9
			c5.8,2.3,11.5,3.6,17.2,3.8c6.2,0.3,12-0.7,17.4-3c3.5-1.4,6.5-3,9-4.8l0.1-10.8l0.2-0.8c-1.5,0.9-3,1.6-4.5,2.2
			c-0.5,0.2-1-1.2-1.3-4.3l-0.4-5.3c-0.8-6.5-2.4-14.6-4.9-24.4c-0.1-0.6-0.1-1,0-1l3.7-2.1c1.3-0.9,2.3-1.9,3-3
			c0.8-1.4,1.2-2.9,1.2-4.4c0-1.3-0.3-2.8-0.8-4.5c-1.4,1.1-3,2.1-4.8,2.8C101.3,81.3,100.2,82.5,98.8,83.4 M111.2,37.4
			c-0.6,0.6-1.2,1.1-1.8,1.3l2.7,4.5l1-3c0.1-0.9,0-1.7-0.2-2.2c-0.2-0.6-0.5-0.9-0.9-0.9C111.6,37.1,111.3,37.2,111.2,37.4
			 M95.7,33.5L94.2,34c-0.9,0.1-2.1-0.2-3.6-1c-0.6-0.3-1.3-0.4-2.1-0.3c-1.9,0.1-3.6,1.2-5,3.1c-0.4,0.6-1,0.9-1.8,1l-6-0.8h-0.3
			c-1.5,0.1-2.4,1-2.8,2.6c-0.4,1.8,0.5,3.3,2.8,4.4c0.6,0.3,0.7,0.7,0.2,1c-1.5,1-2.8,2.1-3.8,3.1c-2,2.3-2.9,4.7-2.7,7.2
			c0.8-2.2,1.7-4.1,2.9-5.7c1.6-1.9,2.6-3,3.2-3.2l0.3,0c0.3,0,0.5,0,0.6,0.2c0.1,0.2,0,0.4-0.2,0.5c-1.1,1-2.1,2-3,3
			c-1.1,1.3-2.3,3.3-3.5,6.2l0.2,1l1.1-2.5c0.7-1.2,1.3-2.2,2-3c1-1.1,1.8-1.8,2.7-2.2l0.1,0c0.3,0,0.4,0.1,0.5,0.5
			c0,0.3-0.1,0.6-0.5,0.8c-0.8,0.5-1.5,1.1-2,1.7c-0.7,0.8-1.5,1.9-2.3,3.3l-1.3,2.2v0c0.1,0.3,0.1,0.6,0.1,0.9l1.4-0.5l-0.2,0.5
			c-1.8,1.6-2.2,3.6-1.1,5.8c1.1,2.1,2.8,3.1,5.1,2.9l0.7-0.1c2.8,4.3,6.1,7.5,9.9,9.6c0.4,0.2,0.6,0.3,0.6,0.5
			c0,0.1-0.2,0.2-0.6,0.2c-1.2,0.1-2.5-0.4-4.2-1.3c0.4,2,2,3.8,4.7,5.2c2.6,1.4,5,2,7.3,1.8c1,0,1.8-0.3,2.5-0.8l-0.2,0.1l-2.8-0.3
			c-1.3-0.3-1.9-0.6-1.8-0.8c0-0.1,0-0.1,0.1-0.1l2.8,0.1c2.3-0.2,4.8-1,7.6-2.4c1.8-1,3.5-2.2,4.8-3.7c0-0.2,0.1-0.2,0.2-0.2h0.1
			c3.1-3.1,5.2-7.1,6.2-11.9c1.1-4.6,1-9.2-0.3-13.7c-1-3.5-2.7-6.9-5.1-10.4c-1-0.1-2.2-0.5-3.4-1.4l-5-5l-0.9-0.2
			c-0.5,0-1,0.2-1.7,0.6L95.7,33.5 M84.9,43.5c-0.8,0.2-1.8,0.7-2.9,1.6l-1,0.2c-0.5,0-0.6,0-0.4-0.1c1.3-1,2.3-1.7,3-2
			c1.1-0.6,2.3-0.8,3.6-0.7c0.4,0,1.5,0.6,3.3,1.7c1.7,1,2.6,1.4,2.7,1.3c0.1-0.2,0.4-0.3,0.9-0.4l0.7,0.1c-0.4,0.5-0.9,0.9-1.5,1
			l-1.9-0.1l-1.7-0.9L88.2,44C87.1,43.3,86,43.1,84.9,43.5 M89.4,47.5c0.3,0.5,0.6,1.2,0.7,2c0.1,0.8,0,1.4-0.2,2
			c-0.3,0.6-0.6,0.9-1,0.9c-0.4,0-0.8-0.2-1.2-0.7c-0.4-0.5-0.6-1.2-0.6-2c-0.1-0.8,0-1.4,0.2-2c0.2-0.6,0.5-0.9,0.9-1h0.1
			C88.7,46.7,89.1,47,89.4,47.5 M99.6,44c0.3,0,0.4,0,0.6,0.2c0.1,0.1,0.4-0.8,0.9-2.7c0.6-2,0.9-3,1.1-3.2c0.5-0.3,1.2-0.1,2.1,0.8
			l2.2,2.2l-0.2,0.2l-0.6,0c-0.8-0.6-1.4-0.9-1.9-0.9c-0.6,0-1.1,0.4-1.4,1.2l-0.5,1.4l-0.6,1.2c-0.2,0.4-0.5,0.5-0.9,0.5
			c-0.4,0-0.7-0.2-1-0.7C99.2,44.1,99.3,44.1,99.6,44 M96.8,46.3L96.8,46.3c0.3,0,0.6,0.2,0.8,0.7l1.9,3.2c0.6,0.8,1.8,2.2,3.6,4.1
			c0.3,0.4,0.4,0.8,0.2,1.3l-1.7,2.9c-0.3,0.4-0.7,0.5-1.1,0.5h-0.7l-0.3-0.1l-0.5-0.4c-0.1-0.2,0-0.3,0.1-0.5l1.4-2.2
			c0.3-0.5,0.3-1,0-1.4l-4-7.2C96.5,46.7,96.5,46.4,96.8,46.3 M104.8,46.5c0.2-0.6,0.6-0.9,1-1c0.4,0,0.8,0.2,1.2,0.7
			c0.4,0.5,0.6,1.2,0.6,2c0.1,0.8,0,1.4-0.2,2c-0.2,0.6-0.6,0.9-1,1h-0.1c-0.4,0-0.8-0.2-1.1-0.8c-0.4-0.5-0.6-1.2-0.7-2
			C104.5,47.7,104.6,47,104.8,46.5 M108.4,60.7c0-0.3,0-0.4,0.1-0.4l0.3,0.2l1.7,1.8c0.4,0.4,0.5,0.8,0.2,1.3l-1.6,2.9l-0.3,0.2
			l-0.2-0.3v-0.4c-0.1-0.5-0.3-0.7-0.7-0.6l-0.2,0l-2.6,1.8c-2,1.2-3.8,1.8-5.5,2h-0.1c-1.7,0.1-4-0.5-6.9-1.9L89.1,65l-0.4-0.1
			c-0.4,0.1-0.6,0.2-0.8,0.5l0.1,2l-0.3,0.2c-0.2,0.1-0.3,0-0.3-0.3l-1.1-3.7c-0.1-0.6,0.1-1,0.5-1.3l3.9-3.3l0.3-0.1
			c0.2,0,0.3,0.1,0.2,0.4l-0.4,1.4c0,0.2,0.1,0.4,0.2,0.6l0.7,0.4l8.6,1.8h1.2c1.9-0.1,4-0.6,6.5-1.3l0.5-0.4l0.2-0.6L108.4,60.7
			 M102.8,70.8l-1.3,0.8l-1.1,0.2h-1l-0.5-0.1c-0.6-0.1-0.9-0.5-0.8-1c0.1-0.5,0.3-0.7,0.8-0.7l3.7,0.2c0.3,0,0.4,0,0.5,0.1
			L102.8,70.8 M75.4,52l0.2,0c0.2,0,0.4,0.1,0.5,0.3c0.1,0.2,0,0.5-0.3,0.8l-1.6,1.2l-1.8,2.2l-0.2-0.2c-0.1-0.2,0-0.6,0.3-1.2
			l0.9-1.5C74,52.9,74.7,52.4,75.4,52 M75.5,55.2l0.2,0c0.2,0,0.4,0.1,0.5,0.3c0.1,0.2,0,0.4-0.2,0.5l-0.5,0.5
			c-0.4,0.4-0.5,0.7-0.5,1c0,0.3-0.2,0.5-0.5,0.5c-0.3,0-0.5-0.2-0.5-0.6c0-0.4,0.2-0.8,0.5-1.4C74.9,55.7,75.2,55.5,75.5,55.2
			 M108.1,63h-0.2c-2.5,0.7-4.8,1.2-6.9,1.3l-1.2,0.1c-1.4,0-3.2-0.3-5.5-0.9l-3.1-0.8l-1-0.2c-0.4,0.1-0.8,0.2-1.1,0.5
			c-0.3,0.3-0.4,0.7-0.1,1l0.7,0.5l6.5,2.6l4.2,0.2l2.7-0.5l5-2.1c0.4-0.1,0.7-0.5,0.8-1C108.9,63.2,108.7,63,108.1,63 M86.9,19.7
			h-0.2c-0.8,0.1-1.8,0.6-2.8,1.4c-0.9,0.9-1.6,1.5-2.3,1.8l-3.6,1.2c-1.6,0.3-3,1.4-4.2,3.3l-2.2,3.2c-1,0.5-2.1,1.7-3.2,3.4
			c-0.7,1.2-1.3,2.6-1.9,4c-0.9,2.5-0.8,5.7,0.2,9.6c0.5,2,1,3.7,1.7,5.1c0.3-2.3,1.2-4.4,2.8-6.2l3.1-2.9c-0.9-0.5-1.8-1.2-2.5-2
			c-0.9-1-1.4-1.9-1.3-2.7c0.1-1.1,0.4-2.1,0.9-2.9c0.8-1.1,1.9-1.7,3.3-1.8h1c0.6,0,1.5,0.2,2.9,0.8c1.3,0.5,2.2,0.7,2.6,0.7l0.2,0
			l2.6-3c1.5-1.9,2.7-2.8,3.7-2.8l0.7,0c0.5,0.2,1.4,0.7,2.9,1.5l1.9,0.9c0.5,0.3,0.9,0.4,1.2,0.4l0.5-0.1l2.2-1.3
			c0.4-0.2,0.7-0.3,1.1-0.4l1.9,0.5c0.6,0.3,1.6,1.2,2.9,2.7l2.2,2.4c1.3,0.9,2.4,1.3,3.4,1.2c0.7,0,1.4-0.3,1.9-1
			c0.9-1,1.5-2.3,1.8-3.9c0.2-1.6,0.1-2.9-0.5-4.1c-0.4-0.9-0.9-1.6-1.8-2.3c0.2,1.1-0.1,1.9-0.7,2.4c-0.7,0.7-1.6,1-2.6,1.1
			c-1.4,0.1-2.6-0.4-3.7-1.5c-2.7-2.7-4.5-4.1-5.5-4.2l-1,0c-0.6,0.1-1.2,0.2-2,0.5l-1.6,0.5c-0.4,0-0.8-0.1-1.1-0.4L90.3,23
			C88.7,20.9,87.6,19.8,86.9,19.7 M208.2,177.5c-3.5,7.7-5.8,13.6-6.8,17.7c-2.2,9.3-3.4,16-3.6,20.3l12.3-6
			c1.4-3.5,2.2-7.2,2.3-11.1C212.7,192.3,211.2,185.3,208.2,177.5 M213.5,192.1c0-4.1,0.4-8.4,1.1-12.8l-4.1-7.1l-1.6,3.4
			C211.4,181.7,212.9,187.2,213.5,192.1 M217.2,181.1c2.3,4.4,4.1,8.4,5.4,11.9c1.2,3.2,2,6.3,2.5,9.2l6-2.9l-0.1-0.2
			c-0.3-0.6-0.4-1.3-0.4-2.1v-50l-5.4,8.2c-2,3-3.7,6.9-5.1,11.5C218.8,171.2,217.8,176,217.2,181.1 M201.1,134.2
			c-3.3,5.2-4.7,9.8-4.2,13.6c0.2,1.5,0.8,3.6,2,6.2l8.6,18l1.2-2.9c-2.5-4.3-4.3-7.7-5.4-10.1c-1.6-3.4-2.5-6.2-2.8-8.6
			C199.9,145.8,200.1,140.4,201.1,134.2 M186.6,133.6c-0.6-0.6-1.3-0.9-2.1-1l-68-6.1c-0.8,0-1.5,0.2-2,0.7
			c-0.6,0.5-0.8,1.1-0.8,1.9v78.2c0,0.8-0.1,1.5-0.4,2l-0.1,0.2l75.1,10.4l-0.3-0.6c-0.3-0.6-0.4-1.2-0.4-2.1v-81.7
			C187.4,134.9,187.1,134.2,186.6,133.6 M201.9,130.6l0.3-2l-9.1,3c-0.8,0.3-1.4,0.8-1.9,1.5c-0.6,0.8-0.9,1.6-0.9,2.3v82
			c0,0.7-0.1,1.3-0.2,1.8l4.9-2.4v-1.3c0.1-4.5,1.4-11.6,3.7-21.1c0.7-2.7,1.8-6,3.2-9.8c1-2.3,2.5-5.9,4.6-10.6l0.1-0.3l-5.3-11.2
			c-1.9-3.8-3.2-6.5-3.9-8.1c-1.1-2.7-1.8-4.8-2-6.4c-0.3-2.7,0.2-5.7,1.5-8.9C198,136.7,199.6,133.8,201.9,130.6 M186.6,113.6
			c-0.6-0.7-1.2-1.1-2.1-1.2l-26.4-4.8l-2.9-0.1l-2.8,0.3l-35.2,10c-0.8,0.2-1.5,0.6-2.1,1.2c-0.6,0.6-0.9,1.3-1,1.9l0,0.7
			c0.1,0.4,0.3,0.8,0.6,1.2c0.5,0.5,1.1,0.8,1.9,0.8h0.1l67.8,6c0.8,0,1.5-0.2,2.1-0.7c0.5-0.5,0.8-1.2,0.8-2v-11.1
			C187.4,115,187.1,114.3,186.6,113.6 M184.5,109.4c0.8,0.1,1.5,0,2.1-0.5c0.5-0.5,0.8-1.1,0.8-1.9l0.1-58.3l-28.1-6.5
			c-0.7,0.7-1,1.4-1,2.2l-1.7,56.9c0,0.8,0.2,1.5,0.8,2.2c0.5,0.7,1.2,1.1,2,1.2L184.5,109.4 M215.4,138.2
			c-1.6-4.6-4.4-8.3-8.5-11.1l-0.9,0.2l-2.8,3.8c-1.4,7.6-1.9,14-1.2,19.1c0.2,2.1,1.1,4.8,2.5,7.8c1,2.3,2.7,5.4,5,9.4
			c2.8-6.5,4.7-11.8,5.7-15.9C216.5,146.2,216.6,141.8,215.4,138.2 M211.6,110.3c-1.1-1.1-3-1.8-5.6-2.1c-1.8-0.2-3.9-0.2-6.2,0v0.3
			c1.8,0.7,3.2,1.7,4.2,2.8c1.5,1.6,2.1,3.6,1.8,6l-0.8,5.2l2,1.2l3.7-5.2c1.1-1.7,1.8-3.2,1.9-4.2
			C212.9,112.6,212.5,111.3,211.6,110.3 M230.6,122.3c0-0.8-0.3-1.4-0.8-1.8c-0.5-0.4-1.2-0.5-1.9-0.2l-17.6,5.7
			c3.7,3,6.3,6.8,7.8,11.3c1.4,4.1,1.3,9.3-0.3,15.6c-1.1,4.4-3.3,10.3-6.6,17.8l0.1,0.1l3.5,6.2c0.8-4.7,1.9-9,3.2-13
			c1.4-4.1,3-7.5,4.7-10.2l7.8-12.2V122.3 M209.2,88.4l1.4,1.6l11.8-2l-1-1.1l-0.7-1L209.2,88.4 M205,69.6c-0.3,1.4-0.4,2.8-0.4,4.3
			c0,4.3,1,8.3,2.9,11.9l11.8-2.5c-1.3-3.2-1.7-6.9-1.2-11.1L205,69.6 M206.4,64.4c-0.3,0.5-0.5,1.3-0.8,2.3l12.8,2.6l0.1-0.4
			L206.4,64.4 M208.6,60.2l-0.9,1.5l11.6,4.5l0.4-1.1L208.6,60.2 M229.3,59.5c-1.1-0.1-2.1,0.2-3.2,1.1c-1.3,1.1-2.5,2.7-3.4,4.8
			c-1,2.1-1.6,4.5-1.8,7.1c-0.2,2.6-0.1,5,0.4,7.2c0.5,2.3,1.3,4,2.4,5.3c0.9,1.1,1.9,1.7,3,1.8c1.1,0.1,2.2-0.3,3.2-1.2
			c1.3-1.1,2.4-2.7,3.4-4.8c0.9-2.1,1.5-4.5,1.8-7.1c0.2-2.5,0.1-4.9-0.4-7.2c-0.5-2.3-1.3-4.1-2.4-5.5
			C231.3,60.1,230.4,59.5,229.3,59.5 M227.4,56.8l-1.6-1.7c-1.9-1.1-3.8-1.6-5.9-1.6c-2,0-3.9,0.5-5.7,1.5c-1.7,1-3.3,2.3-4.7,4
			l10.8,4.7c1.1-2.3,2.4-4.1,3.9-5.4C225.2,57.5,226.3,57,227.4,56.8 M229.4,45.3c-0.6-0.3-1.1-0.5-1.7-0.3l-34.5,3.5
			c-0.8,0.1-1.5,0.5-2.1,1.1c-0.6,0.6-0.9,1.3-0.9,2.1v74.9c0,0.8,0.3,1.4,0.9,1.8c0.5,0.4,1.2,0.4,1.9,0.2l9.8-3.2l0.1-0.4
			c-1.8-0.8-3.7-1.5-5.8-2c-0.2,1.4-0.5,2.6-1.1,3.5c-0.6,0.9-1.2,1.4-1.9,1.4c-0.9,0-1.6-0.6-2.2-1.8s-0.9-2.7-0.9-4.5
			c0-1.7,0.3-3.2,0.9-4.4c0.6-1.3,1.4-1.9,2.2-1.9c0.7,0,1.4,0.5,1.9,1.4c0.5,0.9,0.9,2,1.1,3.4c2.1,0.4,4.3,1.1,6.4,2.1l0.8-4.7
			c0.3-3.3-1.2-5.7-4.8-7.2c-0.2,1.4-0.5,2.5-1.1,3.3c-0.6,0.9-1.2,1.3-1.9,1.3c-0.9,0-1.6-0.6-2.2-1.8c-0.6-1.3-0.9-2.8-0.9-4.5
			c0-1.8,0.3-3.2,0.9-4.5c0.6-1.3,1.4-1.9,2.2-1.9c0.7,0,1.3,0.4,1.9,1.3c0.5,0.9,0.9,2,1.1,3.3c6.4-0.5,10.7,0.3,12.9,2.6
			c1.4,1.3,1.9,3.1,1.5,5.2c-0.3,1.9-1.9,4.8-4.9,8.8l18.7-6.1c0.8-0.3,1.4-0.8,1.9-1.5c0.5-0.8,0.8-1.5,0.8-2.3v-3.7l-1.2-0.2
			c-0.2,1.8-0.7,3.3-1.4,4.6c-0.7,1.2-1.5,1.8-2.5,1.8c-1.1,0-2-0.8-2.8-2.2c-0.8-1.5-1.1-3.4-1.1-5.5c0-2.1,0.4-4,1.1-5.5
			c0.8-1.5,1.7-2.2,2.8-2.2c1,0,1.8,0.6,2.4,1.8c0.7,1.2,1.2,2.7,1.4,4.5l1.3,0.2v-18c-1.1,0.6-2.2,0.9-3.2,1l0.1,0.2l-17.1,3
			c-0.5,0.1-0.9,0-1.2-0.4c-2.3-2.2-4.1-5-5.4-8.3c-1.3-3.3-2-6.8-2-10.5c0-6.4,1.8-11.9,5.4-16.5c3.6-4.6,7.8-6.9,12.8-6.9
			c2.6,0,5.1,0.7,7.5,2.1l0.3,0.2l2.9,2.9v-8.2c0-0.5-0.1-1-0.4-1.4v5.3l-1.1-1.1l-0.5-0.2c-0.8-0.5-1.8-0.9-2.9-1.4v-3L229.4,45.3
			 M205.4,48.5l4.6-0.6v2.8c-1.6,1-3.1,2.3-4.6,3.9V48.5 M212.1,49.4v-1.8l4.6-0.6v1C215.1,48.3,213.6,48.8,212.1,49.4 M218.9,47.7
			v-1l4.6-0.6v2.1l-3.8-0.5H218.9 M196.4,49.7v6.8l-4.5,0.5v-6.8L196.4,49.7 M199.9,64.9l-1.2,0.2v-6.8l4.5-0.5
			C201.7,60,200.6,62.4,199.9,64.9 M191.9,65.9v-6.8l4.5-0.6v6.8L191.9,65.9 M191.9,68.1l4.5-0.6v6.8l-4.5,0.6V68.1 M198.6,84.9
			l1.8-0.2c0.7,2,1.6,3.9,2.8,5.7v0.8l-4.6,0.6V84.9 M196.4,76.3v6.8l-4.5,0.5v-6.8L196.4,76.3 M196.4,85.2V92l-4.5,0.6v-6.8
			L196.4,85.2 M191.9,94.7l4.5-0.6v6.8l-4.5,0.6V94.7 M208.5,96.3l1.4-0.3v3l-4.6,0.6v-6.5L208.5,96.3 M212.1,98.8v-3.2l4.6-0.8v3.3
			L212.1,98.8 M218.9,97.9v-3.5l4.6-0.8v3.7L218.9,97.9 M225.7,93.2l1.4-0.2l-0.1-0.2c1.1,0,2.2-0.2,3.2-0.7v4.3l-4.5,0.6V93.2
			 M198.6,93.8l4.6-0.6v6.8l-4.6,0.7V93.8 M198.6,49.4l4.6-0.6v6.8l-4.6,0.7V49.4 M206.6,38.4l-2.9-0.4c-1.1-0.1-2.1-0.1-2.9,0
			l-34.4,2.8l22.6,5.2v0l31.4-3.3c0.8-0.1,1.2-0.2,1.2-0.4s-0.4-0.4-1.2-0.5L206.6,38.4z"/>
	</g>
</g>
</svg>
