<?xml version="1.0" encoding="utf-8"?>
<!-- Generator: Adobe Illustrator 25.4.1, SVG Export Plug-In . SVG Version: 6.00 Build 0)  -->
<svg version="1.1" id="Hacker_x2C_PerkClip_x5F_52403" image-rendering="auto"
	 xmlns="http://www.w3.org/2000/svg" xmlns:xlink="http://www.w3.org/1999/xlink" x="0px" y="0px" viewBox="0 0 240 240"
	 style="enable-background:new 0 0 240 240;" xml:space="preserve">
<style type="text/css">
	.st0{fill:#FFFFFF;}
</style>
<g>
	<rect width="240" height="240"/>
	<path class="st0" d="M139,89l0.1,0.4c0.1,0.3,0.4,0.4,0.7,0.2l12.1-6.8l-0.3-2.3l-12.5,8.1L139,89 M150.9,71.1l0-2.5l-21.2,5.1
		c-0.3,0.1-0.5,0.3-0.4,0.7c0.1,0.3,0.3,0.5,0.7,0.4L150.9,71.1 M147.9,52.2c-0.3-0.1-0.6,0.1-0.7,0.4c-0.1,0.4,0,0.6,0.3,0.7
		c2.9,1.1,4.3,1.9,4.3,2.2l0.3-2.5L147.9,52.2 M142.8,57.5c-0.4,0-0.6,0.2-0.6,0.5c-0.1,0.4,0.1,0.6,0.5,0.6c2.8,0.6,5.7,1.3,8.7,2
		l0.2-2.6L142.8,57.5 M132.8,37.2c-0.3-0.1-0.6-0.1-0.7,0.2c-0.1,0.3-0.1,0.6,0.2,0.7L152.7,50l0.4-2.5l-10-5.2
		C137.7,39.5,134.2,37.8,132.8,37.2 M159.7,30.7c-0.3,0.2-0.4,0.5-0.2,0.8l1.9,3.7l2.7-0.2c-0.6-1-1.8-2.4-3.6-4.2
		C160.2,30.6,160,30.5,159.7,30.7 M151.5,31.7c-0.3,0.2-0.3,0.5,0,0.7l3.6,4.7l1.7-1.5l-4.4-3.9L151.5,31.7 M180.2,33
		c-0.3-0.7-0.7-1.8-1-3.2c-0.1-0.3-0.3-0.5-0.6-0.5c-0.3,0.1-0.5,0.2-0.5,0.6c-0.1,2.4-0.1,3.7,0.1,4l2.3-0.2L180.2,33 M173,26.3
		c-0.1-0.3-0.3-0.4-0.7-0.4c-0.4,0.1-0.5,0.3-0.5,0.7l0.5,3.8c0,0.9,0.2,2.1,0.6,3.8l2.6-0.2L173,26.3 M196.8,28.4l-2.3,4l2.6-0.2
		c0.1-1,0.3-2,0.7-3.2c0.1-0.4,0-0.6-0.3-0.7C197.3,28,197,28.1,196.8,28.4 M191.8,25.3c-0.3-0.1-0.6,0-0.7,0.4l-2.6,7.2l2.6-0.2
		l1.1-6.7C192.3,25.6,192.1,25.4,191.8,25.3z"/>
	<path class="st0" d="M65.3,197.4c-3.3-0.5-6-1.5-8-3l0,0.1c-2.2,1.7-2.8,4-1.5,6.9c1.2,2.9,3.2,3.9,6,3c5-1.7,8.1-4,9.2-7.1
		C69.1,197.7,67.2,197.7,65.3,197.4 M97,196.5l1.8-0.2l0.9-1l0.2,0c2.7,1.7,5.6,2.9,8.8,3.7l1.9,0.4v-6.1c-0.8,0.3-1.8,0.6-3.1,0.7
		c-3.5,0.4-8.2,0-13.9-1.3c-0.1,1.1,0,1.7,0,2c0.2,0.4,0.6,0.8,1.4,1.2L97,196.5 M90.4,156c1.6-3.6,3.2-6.6,5-9.1
		c0.1-0.2,0.3,0,0.5,0.6c0.2,0.6,0.3,1,0.1,1.2c-1.6,2.1-3,4.7-4.4,7.6c1.1,4.7,1.6,10.4,1.5,17c0,3.9-0.3,9.6-0.7,17.2l7.6,1.4
		c2.9,0.3,5.4,0.3,7.5-0.1c1.2-0.2,2.2-0.5,3-0.9v-54.1c-1.4,0.8-2.9,1.6-4.5,2.4c-4.3,1.9-8.8,3.2-13.7,3.9
		c-4.5,0.6-8.9,0.5-13-0.2c-4.8-0.9-8.9-2.5-12-5l-2,12.8c-1.4,7.6-3.1,14.8-5,21.6l-2.8,9c-1.1,3.6-1.6,6.7-1.6,9.2l0,1.1l0.6,0.5
		l2,1.2c2.4,1.3,4.7,2,7,2.2c4.8,0.3,8.1-0.5,9.8-2.4c1.5-1.7,3-4.2,4.6-7.5c1.2-2.6,2.4-5.9,3.7-9.9l3.2-10.1
		C88.3,161.5,89.5,158.2,90.4,156 M11.5,95.9c-1.1,0.4-1.9,1-2.3,1.7c-0.6,0.8-0.6,1.5-0.2,2c0.2,0.4,0.9,0.9,1.8,1.5
		c1.1-1.4,3.1-2.3,6.1-2.7c2-0.3,3.6-0.3,4.8,0v0c0.9-0.5,1.1-1.1,0.8-1.9c-0.3-0.6-0.9-1.1-1.7-1.4c-1.8-0.6-3.9-0.6-6.4,0
		C13,95.4,12.1,95.7,11.5,95.9 M148.1,104l-2.1,0.5v2l2.1-0.6V104 M144,107.1v-1.9l-2.1,0.5v2L144,107.1 M150.1,103.3v2.1l0.7-0.2
		c0.6-0.2,1.2-0.5,1.7-1v-1.5L150.1,103.3 M133.8,110l2.1-0.6v-1.8l-2.1,0.5V110 M129.8,109.4v1.8l2.1-0.6v-1.7L129.8,109.4
		 M127.8,110.1l-2.1,0.5v1.7l2.1-0.6V110.1 M140,106.4l-2.1,0.5v1.9l2.1-0.6V106.4 M131.1,96.2c0.5-0.1,0.8-0.1,0.9,0.2
		c0.6,2,1.4,4,2.2,5.8c1.3,0.3,2.1,1.1,2.3,2.2c0.1,0.6,0,1-0.1,1.5l0.7,0l0.5-0.2c1.2-0.6,1.5-2,0.9-4.4c-0.6-2.2-1.5-4.1-2.7-5.7
		c-1.1-1.5-2.1-2.5-3-3c-1.4-0.8-2.7-0.6-4,0.5c-1.3,1.1-2.3,2.2-3.1,3.3l-1.7,1.7c-0.8,0.7-1.4,1.3-1.7,1.8c-2.5,3.7-2,7,1.5,9.7
		l3-0.9l2.2-1.6l3.3-0.2c1.9-0.3,2.5-1.1,2.1-2.4c-0.5-1.2-1.6-1.8-3.2-1.5l-1.8,0.3c-0.5,0.2-0.7,0.1-0.8-0.2
		c-0.1-0.3,0.1-0.6,0.6-0.7c1.2-0.3,2.2-0.5,3.1-0.5l-1-2.5l-0.5,0.7c-0.2,0.2-0.5,0.3-1,0.3c-0.5,0-0.7-0.1-0.5-0.3l1.2-1.6
		l-0.1-1.7C130.3,96.5,130.6,96.3,131.1,96.2 M142.1,92.4l-0.1,0.2c1.4,1.3,2.7,3.2,3.7,5.8l0.6,1.9l0.3,0c1.9,1,3.1,1.2,3.5,0.7
		c0.6-0.7,0.7-1.5,0.5-2.5c-0.2-0.8-0.7-1.6-1.3-2.4c-0.8-1-2-2.1-3.7-3.3C143.5,91.3,142.3,91.1,142.1,92.4 M143.6,97.6
		c-1.1-2.1-2.2-3.6-3.2-4.5c-1.6-1.4-3.1-1.5-4.6,0c1.2,1,2.2,2.3,3,3.9c0.8,1.6,1.2,3.2,1.2,4.6l0.4,0.2c0.6,0.7,1.4,1.3,2.4,1.6
		c1.2,0.4,1.9,0.1,2-1.1C145,101,144.6,99.5,143.6,97.6 M117.6,114.6l2.1-0.6v-1.5l-2.1,0.5V114.6 M121.7,111.8v1.6l2.1-0.6v-1.6
		L121.7,111.8 M113.2,114.3v1.6l2.2-0.7h0l0.2-0.1v-1.4L113.2,114.3 M107.6,76.2l0.1,0.2c1,3.4,1,6.3-0.1,8.5
		c-0.7,1.4-1.7,2.7-3.1,3.7c-0.9,0.7-2.3,1.5-4.1,2.5c1.7,6.6,2.9,11.9,3.7,15.9c1.1,5.8,1.8,11.2,2,16.1c1-0.1,2.7-1.1,5.2-2.9
		l0.3-2.5v-4.3l3.5-1l-2.5-16.1c-0.1-0.6,0-0.8,0.2-0.6c0.2,0.2,0.4,0.5,0.5,1v0.2l2.3,15.4l0.8-0.2l5.9-1.7c-2.1-1.7-3.1-3.7-3-5.9
		c0.1-2.2,1.3-4.3,3.4-6.3l1.2-1.2v-0.1c-1.6-7.1-4.8-12.5-9.8-16.3C112.2,78.8,110,77.4,107.6,76.2 M24.6,101.8
		c-0.4-0.6-0.9-1-1.7-1.3c-1.8-0.6-4-0.6-6.4,0l-3,0.9c-1.2,0.5-2,1.1-2.4,1.9c-0.4,0.8-0.3,1.5,0.3,2c0.4,0.3,1.1,0.6,2.1,1
		c0.8-0.9,2.4-1.6,4.6-2.2l5.8-0.3l0.1-0.2C24.9,103,25.1,102.5,24.6,101.8 M31.9,92.3c1.5,1,2.7,2.3,3.7,4c0.9,1.7,1.4,3.5,1.6,5.5
		c0.2,1.7,0.1,3.3-0.3,4.9c-0.4,1.9-1.1,3.4-2.1,4.4c11.1-0.2,21.7-2.1,31.8-5.5c0-0.2,0-0.4,0.1-0.4l0.3,0.2l4.5-1.6
		c0.2-0.1,0.4,0.2,0.6,0.8c0.2,0.6,0.1,1-0.1,1.1l-4.4,1.6c0.7,4.5,1.1,9.3,1,14.4c2.3,1.6,4.8,2.8,7.6,3.7c3,0.9,5.9,1.5,8.7,1.6
		l4.1,0.2c1.9-0.1,3-0.6,3.2-1.5c0.2-0.7,0.2-1.7,0.2-2.9l-1.4-17.7c-0.6-4.8-1.3-9.3-2-13.5l-5.9-1.9c-2.4-1.2-4.2-2.5-5.5-3.9
		c-2.5-2.6-4-5.8-4.5-9.5c-3,0.4-6.1,1.3-9.4,2.9c-1.8,0.9-4.8,2.5-8.8,4.8C47.3,88.6,39.7,91.3,31.9,92.3 M28.4,92.7l-0.2-0.1
		l-0.2,0l0.5,0.8c1.3,2.4,2,4.5,2.1,6.1l0,0.1c0.8,2,1.1,4,0.8,6.1c-0.2,2.2-1.1,4-2.5,5.4l1.7,0l0.1-0.1c1.9-0.3,3.3-1.3,4.3-3.2
		c0.9-1.6,1.3-3.4,1.4-5.4c0-2.5-0.7-4.7-2.2-6.5C32.9,94.2,30.9,93.1,28.4,92.7 M26.9,92.5l-1.9-2c-1.3-1.2-2.7-2.2-4-2.8
		c-1.8-0.9-3.4-1.1-4.8-0.8c-1.3,0.3-2.2,1.1-2.7,2.4c-0.4,1.1-0.5,2.4-0.2,3.9l1.4-0.3l3.3-0.2l0.1-0.1c1-0.7,1.5-1.4,1.5-2.3
		c0.1-0.4,0.2-0.5,0.4-0.1c0.3,0.4,0.4,0.9,0.4,1.4L20,93.1c1.2,0.4,2.1,1,2.8,2c0.8,1.4,1,2.7,0.5,3.8c0.7,0.4,1.2,1,1.7,1.6
		c0.4,0.6,0.6,1.2,0.7,2c0.1,0.8,0.1,1.5-0.2,2l0.3,0.4c0.4,0.6,0.7,1.2,0.8,2c0.1,0.9-0.1,1.5-0.5,2c-0.9,1.1-2.2,1.7-3.7,2
		l-4.2-0.4c-0.2-0.1-0.4-0.4-0.5-1c-0.1-0.6-0.1-0.9,0.2-0.8l3.4,0.5c1.3-0.1,2.4-0.4,3.2-1.1c1-0.7,1.2-1.4,0.8-1.9
		c-0.4-0.5-1.2-0.7-2.3-0.7c-2,0-4.2,0.5-6.6,1.5c-3,1.2-3.4,2.6-1.2,4c3.4,2.3,7.1,2.3,11.1,0c4-2.3,5.4-5.5,4.3-9.5l-0.7,1.3
		c-0.1,0.2-0.2,0-0.5-0.6c-0.2-0.6-0.3-1-0.2-1.2C30.5,98.7,29.8,96,26.9,92.5L26.9,92.5 M76,76.2l-2.3,0.1v0.1
		c0.2,2.5,1.2,4.8,3,6.9c1.6,1.9,3.6,3.5,6.1,4.6c0.6,0.3,1.6,0.6,2.9,1l2.8,0.9c0.6,0.2,0.9,0.7,1,1.3c1.5,7.7,2.5,15.5,3.1,23.4
		l0.5,6.7c0.1,2.5,0.1,4.8-0.1,6.7c-0.2,1.5-3.4,1.8-9.8,0.9c-5.8-0.7-10.6-2.5-14.6-5.3c-0.1,4.3-0.5,8.6-1,12.9
		c3.4,2.5,7.6,4.1,12.6,4.8c4.5,0.6,8.9,0.5,13.5-0.3c4.8-0.9,9.1-2.3,13-4.2c1.4-0.7,2.8-1.4,4-2.2l0-10l0.3-2l-3.8,2l-1.2,0.2
		c-0.3-0.1-0.5-0.5-0.6-1.1c-0.2-0.9-0.3-2.1-0.3-3.8l-0.2-3.8c-0.4-3.9-1.1-8.2-2.1-13l-3.2-12.9c-0.2-0.6-0.2-0.9,0-1l3.2-1.7
		c1.2-0.7,2.1-1.5,2.7-2.4c2-2.6,2.5-5.3,1.7-8.2c-0.1-0.4-0.2-0.7,0-1.1l-2.9-1.4c-0.3,3.2-2.1,5.8-5.3,7.8c-3,1.9-6.2,2.8-9.6,2.5
		c-1.8-0.1-3.4-0.6-4.7-1.4c-1.4-0.9-2.5-2.1-3.1-3.7C79.6,78.9,77.7,77.7,76,76.2 M70.5,40.2c0.1,0.7,0.4,1.7,1,3
		c0.9-1.6,1.7-3.1,2.7-4.4c-0.6-0.2-1.3-0.7-1.9-1.3c-0.2-0.2-0.4-0.3-0.6-0.4c-0.4,0-0.7,0.3-1,0.9C70.5,38.6,70.5,39.4,70.5,40.2
		 M95.1,32.7c-0.7-0.1-1.4,0-2,0.3c-1.5,0.7-2.7,1-3.7,1l-1.5-0.5c-1-0.8-1.9-1.2-2.7-1.2l-0.9,0.1c-0.4,0.2-1.4,1.1-2.7,2.6
		l-2.2,2.5c-1.2,0.9-2.3,1.3-3.4,1.4c-2.4,3.5-4.1,7-5.1,10.4c-1.6,5.6-1.4,11.2,0.6,16.7c2,5.8,5.5,10,10.5,12.6
		c2.8,1.4,5.3,2.2,7.6,2.4l2.7,0l0.2,0.1c0.1,0.2-0.6,0.5-1.8,0.8l-2.8,0.4l-0.2,0c0.6,0.5,1.4,0.7,2.5,0.8c2.3,0.2,4.7-0.4,7.3-1.8
		c2.7-1.5,4.3-3.2,4.7-5.3c-1.6,0.9-3,1.4-4.1,1.3c-0.4,0-0.5-0.1-0.5-0.2c0-0.2,0.2-0.3,0.5-0.5c3.8-2.1,7.1-5.3,9.9-9.6l0.6,0.1
		c2.4,0.2,4.1-0.8,5.2-3c1.1-2.2,0.7-4.1-1.1-5.7c-0.2-0.2-0.2-0.4-0.2-0.6l1.5,0.5c-0.1-0.2-0.1-0.5,0-0.9v0
		c-1.3-2.4-2.5-4.3-3.6-5.6c-0.6-0.7-1.2-1.2-2-1.7c-0.4-0.2-0.5-0.5-0.5-0.9c0-0.3,0.2-0.4,0.4-0.4l0.2,0c0.8,0.4,1.7,1.1,2.6,2.2
		c1.2,1.4,2.2,3.2,3.2,5.6l0.2-1l-1.2-2.8c-0.7-1.4-1.5-2.6-2.3-3.5l-3-3c-0.2-0.2-0.3-0.3-0.2-0.5c0.1-0.2,0.3-0.3,0.6-0.3l0.3,0.1
		c0.6,0.2,1.6,1.3,3.1,3.2c1.2,1.7,2.2,3.6,2.9,5.7c0.2-2.6-0.7-5.1-2.7-7.3c-1-1.1-2.2-2.1-3.7-3.1c-0.3-0.2-0.4-0.5-0.2-0.7
		l0.4-0.3c2.3-1.1,3.3-2.5,2.8-4.3c-0.4-1.7-1.3-2.5-2.9-2.7h-0.3l-5.9,0.8c-0.8-0.1-1.4-0.4-1.8-1C98.6,33.9,97,32.9,95.1,32.7
		 M86.7,46.3L86.7,46.3l0.2,0.3l-0.1,0.6c-0.6,1.4-1.2,2.8-2,4.1l-2,3.2c-0.3,0.4-0.3,0.9,0,1.4l1.4,2.2c0.1,0.2,0.2,0.4,0.1,0.5
		l-0.5,0.3L83,59c-0.4,0-0.8-0.2-1-0.6l-1.7-2.9c-0.1-0.2-0.2-0.4-0.1-0.7c0-0.2,0.1-0.5,0.3-0.6l3.6-4.1l1.9-3.2
		C86.2,46.5,86.4,46.3,86.7,46.3 M79.7,39c0.2-0.1,0.3-0.1,0.5-0.1c0.3,0.1,0.5,0.3,0.5,0.7l0.1,0.8c0,0.3-0.1,0.5-0.2,0.7
		c-0.2,0.2-0.4,0.3-0.7,0.3l-3.4-0.1l-0.4-0.2c0-0.1,0.1-0.2,0.3-0.3L79.7,39 M77.7,45.5L77.7,45.5c0.5,0.1,0.8,0.4,1,0.9
		c0.2,0.6,0.3,1.3,0.2,2s-0.3,1.4-0.6,2c-0.4,0.5-0.7,0.8-1.2,0.7c-0.4,0-0.8-0.3-1-0.9c-0.2-0.6-0.3-1.3-0.2-2
		c0.1-0.8,0.3-1.4,0.7-2C76.9,45.8,77.3,45.5,77.7,45.5 M82.2,63.6h1.2c1.9-0.1,4.8-0.7,8.6-1.8l0.7-0.4c0.2-0.2,0.3-0.4,0.2-0.7
		l-0.4-1.3c-0.1-0.3,0-0.5,0.1-0.5l0.3,0.1l3.9,3.3l0.4,0.6l0,0.7l-1,3.7l-0.3,0.3l-0.3-0.2l0.1-1.9c-0.2-0.3-0.5-0.4-0.9-0.5
		l-0.3,0l-3.8,2.1c-2.9,1.4-5.2,2-6.9,1.9h0c-1.7-0.1-3.5-0.8-5.6-2l-2.5-1.7l-0.2,0c-0.4-0.1-0.6,0.1-0.6,0.6l0,0.4l-0.2,0.4
		l-0.2-0.3l-1.6-2.9c-0.2-0.5-0.2-0.9,0.2-1.3l1.7-1.8l0.3-0.2c0.1,0,0.2,0.1,0.2,0.4L75,61.2c0,0.2,0,0.4,0.2,0.6l0.5,0.4l2.2,0.6
		C79.6,63.2,81,63.5,82.2,63.6 M80.7,70.8l-0.2-0.3c0-0.1,0.2-0.1,0.4-0.1l3.7-0.2c0.5,0,0.8,0.2,0.8,0.7c0.1,0.5-0.2,0.8-0.8,1
		l-1.5,0.1l-1.1-0.2L80.7,70.8 M107.8,53.1c-0.3-0.2-0.4-0.5-0.3-0.7c0.1-0.2,0.3-0.4,0.5-0.3l0.2,0c0.8,0.4,1.4,0.9,1.9,1.6l1,1.5
		c0.3,0.6,0.4,1,0.3,1.2l-0.2,0.2c-0.1,0-0.4-0.3-0.8-0.8l-1-1.3L107.8,53.1 M107.3,55.6c0.1-0.2,0.2-0.4,0.5-0.3l0.2,0l1,0.9
		c0.4,0.5,0.5,1,0.5,1.3c0,0.4-0.2,0.6-0.5,0.6c-0.3-0.1-0.5-0.2-0.5-0.5c0-0.2-0.2-0.6-0.5-1l-0.5-0.5
		C107.3,56,107.2,55.8,107.3,55.6 M99.9,44.4c-0.2,0-0.6-0.2-1.2-0.7l-3.9-2.3c-0.1-0.2,0.1-0.5,0.5-1l0.6-0.7
		c0.2-0.2,0.4-0.4,0.7-0.4l0.4,0.2l1.7,1.9C99.8,42.7,100.2,43.8,99.9,44.4L99.9,44.4 M94.1,47.5c0.3-0.5,0.7-0.8,1.1-0.7
		c0.4,0.1,0.8,0.4,1,1c0.2,0.6,0.3,1.2,0.2,2c-0.1,0.8-0.3,1.4-0.6,1.9c-0.4,0.5-0.7,0.8-1.2,0.7h0c-0.4,0-0.7-0.3-1-1
		c-0.2-0.6-0.3-1.3-0.2-2C93.6,48.6,93.8,48,94.1,47.5 M83.7,64.4l-1.2,0L75.7,63h-0.2c-0.6-0.1-0.8,0.2-0.7,0.6
		c0.1,0.6,0.4,0.9,0.7,1l5,2.1l2.6,0.5l4.2-0.2c1.2-0.3,3.4-1.1,6.5-2.5l0.7-0.5c0.2-0.3,0.2-0.7-0.2-1c-0.3-0.2-0.6-0.4-1-0.5
		l-1,0.1C88.8,63.8,85.9,64.4,83.7,64.4 M102,22.9l-1.2-0.8l-1-1c-1.1-0.9-2-1.4-2.9-1.5h-0.2c-0.7,0.1-1.8,1.2-3.4,3.3l-1.6,1.9
		c-0.3,0.3-0.7,0.4-1.1,0.4c-0.3,0-0.8-0.2-1.6-0.5c-0.7-0.3-1.3-0.5-2-0.5l-1,0c-1,0.2-2.8,1.6-5.5,4.3c-1.1,1.1-2.4,1.5-3.7,1.5
		c-1-0.1-1.8-0.5-2.6-1.1c-0.6-0.6-0.9-1.4-0.7-2.5c-0.7,0.6-1.3,1.4-1.8,2.4c-0.5,1.2-0.6,2.5-0.4,4.1c0.2,1.6,0.8,2.9,1.8,4
		c0.5,0.6,1.1,0.9,1.9,0.9c1.1,0.1,2.2-0.3,3.5-1.2l2.2-2.4c1.4-1.5,2.4-2.4,2.9-2.7l2-0.5c0.4,0.1,1.1,0.4,2.1,1l1.1,0.7l0.5,0.2
		l1.3-0.4l3.2-1.7c0.7-0.4,1.3-0.6,1.5-0.7L96,30c1,0.1,2.2,1,3.7,2.9l2.6,3l0.3,0c0.4,0,1.3-0.2,2.6-0.7c1.4-0.5,2.4-0.8,3-0.8h0.9
		c1.5,0.1,2.6,0.7,3.4,1.8c0.6,0.8,0.9,1.8,0.9,2.9c0.1,0.8-0.4,1.7-1.3,2.7c-0.7,0.7-1.5,1.4-2.4,2l3.1,2.9
		c1.6,1.8,2.5,3.9,2.8,6.2c0.7-1.4,1.2-3.1,1.7-5.1c1-3.9,1-7.1,0.1-9.6c-0.5-1.4-1.1-2.8-1.9-4.1c-1.1-1.8-2.1-2.9-3.2-3.4
		l-2.2-3.2c-1.2-1.9-2.7-3-4.3-3.3C104.6,23.9,103.4,23.5,102,22.9 M211.9,208.6l2.7-1.3c-0.5-2.2-0.8-4.6-1-7.3
		C213.5,203,212.9,205.9,211.9,208.6 M216.9,202.4l0.5,3.6l6.3-3c-0.9-5.6-3.2-12-6.9-19.2C216.2,190.4,216.2,196.6,216.9,202.4
		 M212.4,198.4c0.2-6.1-1.2-13.1-4.3-20.9c-3.5,7.7-5.8,13.6-6.8,17.7c-2.2,9.3-3.4,16-3.6,20.3l12.3-6
		C211.5,206,212.3,202.3,212.4,198.4 M210.4,172.3l-1.5,3.4c2.4,6,3.9,11.5,4.5,16.4c0-4.1,0.4-8.4,1-12.8L210.4,172.3 M187.3,135.7
		c0-0.8-0.3-1.5-0.8-2.2c-0.6-0.6-1.3-1-2.1-1l-68-6c-0.8-0.1-1.5,0.2-2,0.7c-0.6,0.5-0.8,1.1-0.8,2v78.2c0,0.8-0.1,1.5-0.4,2.1
		l-0.1,0.2l75.1,10.5l-0.4-0.5c-0.3-0.6-0.4-1.3-0.4-2.1V135.7 M196.8,147.9c0.2,1.5,0.8,3.5,2,6.1l8.6,18l1.3-2.9
		c-2.5-4.3-4.3-7.7-5.5-10.1c-1.6-3.4-2.5-6.2-2.7-8.6c-0.6-4.7-0.3-10.1,0.7-16.2C197.8,139.5,196.4,144,196.8,147.9 M193,131.6
		c-0.8,0.2-1.4,0.7-2,1.5c-0.6,0.7-0.8,1.5-0.8,2.3v82c0,0.7-0.1,1.3-0.3,1.8l4.9-2.4v-1.3c0.1-4.5,1.4-11.6,3.7-21.1
		c0.7-2.7,1.8-6,3.3-9.7c0.9-2.4,2.5-5.9,4.7-10.7l0.1-0.3l-5.3-11.1c-1.9-3.8-3.2-6.5-3.9-8.1c-1.1-2.7-1.8-4.8-2-6.4
		c-0.3-2.7,0.2-5.7,1.5-8.9c1-2.5,2.6-5.4,4.9-8.5l0.4-2L193,131.6 M206.8,127.1l-0.8,0.2l-2.8,3.8c-1.4,7.6-1.9,14-1.2,19.1
		c0.2,2.1,1.1,4.7,2.5,7.8c1.1,2.3,2.7,5.4,5,9.3c2.8-6.5,4.7-11.8,5.7-15.8c1.3-5.4,1.4-9.9,0.2-13.4
		C213.7,133.7,210.9,130,206.8,127.1 M230.6,141.5v-19.2c0-0.8-0.3-1.4-0.8-1.8c-0.5-0.4-1.2-0.5-2-0.2l-17.5,5.7
		c3.7,3,6.3,6.8,7.9,11.3c1.4,4.1,1.3,9.3-0.3,15.5c-1.1,4.4-3.3,10.3-6.6,17.7l0.1,0.1l3.6,6.2c0.8-4.7,1.8-9,3.2-13
		c1.4-4.1,3-7.5,4.7-10.3L230.6,141.5 M230.6,147l-5.4,8.3c-2,3-3.7,6.9-5.1,11.5c-1.4,4.4-2.4,9.1-3,14.3c2.3,4.4,4.1,8.4,5.4,11.9
		c1.2,3.2,2,6.3,2.5,9.2l6-2.9l-0.1-0.2c-0.3-0.6-0.5-1.3-0.5-2.1L230.6,147 M203.9,111.4c1.5,1.7,2.1,3.7,1.8,6l-0.8,5.2l2,1.1
		l3.7-5.2c1.1-1.7,1.7-3.1,1.9-4.2c0.2-1.7-0.1-3-1.1-3.9c-1.1-1.1-3-1.8-5.5-2.1c-1.9-0.2-3.9-0.2-6.3,0v0.3
		C201.5,109.3,202.9,110.3,203.9,111.4 M221.3,87l-0.7-1l-11.4,2.5l1.4,1.6l11.8-2L221.3,87 M184.4,112.4l-26.5-4.8l-2.9-0.1
		l-2.8,0.4l-35.2,10c-0.8,0.2-1.5,0.6-2.1,1.2c-0.4,0.4-0.7,0.9-0.9,1.3L114,121c-0.1,0.7,0.1,1.3,0.6,1.8c0.5,0.5,1.1,0.8,2,0.9
		h0.1l67.7,6c0.8,0.1,1.5-0.2,2.1-0.7c0.6-0.5,0.8-1.2,0.8-2v-11.2c0-0.8-0.3-1.5-0.8-2.2C185.9,112.9,185.2,112.5,184.4,112.4
		 M159.3,42.2c-0.7,0.7-1,1.4-1,2.2l-1.7,57c0,0.8,0.2,1.5,0.8,2.2c0.6,0.7,1.2,1.1,2,1.2l25.1,4.6c0.8,0.1,1.5,0,2-0.5
		c0.6-0.5,0.8-1.1,0.8-1.9l0.1-58.3L159.3,42.2 M222.6,65.5c-0.9,2.1-1.5,4.5-1.8,7c-0.2,2.6-0.1,5,0.4,7.3c0.5,2.2,1.3,4,2.4,5.4
		c0.9,1.1,1.9,1.7,3,1.8c1.1,0.1,2.2-0.3,3.2-1.2c1.3-1.1,2.5-2.7,3.4-4.8c0.9-2.1,1.5-4.5,1.7-7.1c0.2-2.5,0.1-5-0.4-7.2
		c-0.5-2.3-1.3-4.1-2.4-5.4c-0.9-1.1-1.9-1.7-3-1.8c-1.1-0.1-2.1,0.3-3.2,1.2C224.7,61.7,223.5,63.4,222.6,65.5 M219.6,65.1
		l-11.1-4.8l-0.9,1.5l11.6,4.4L219.6,65.1 M204.9,69.6c-0.2,1.4-0.4,2.9-0.4,4.3c0,4.3,1,8.3,3,11.9l11.8-2.5
		c-1.3-3.2-1.7-6.9-1.3-11.1L204.9,69.6 M206.4,64.4c-0.2,0.6-0.5,1.3-0.8,2.4l12.8,2.6l0.1-0.4L206.4,64.4 M193.1,48.5
		c-0.8,0.1-1.5,0.4-2,1.1c-0.6,0.6-0.9,1.3-0.9,2.1v74.9c0,0.8,0.3,1.4,0.8,1.8c0.5,0.4,1.2,0.5,2,0.2l9.8-3.2l0.1-0.4
		c-1.8-0.9-3.7-1.5-5.7-2c-0.2,1.4-0.5,2.6-1.1,3.5c-0.6,0.9-1.2,1.4-2,1.4c-0.9,0-1.6-0.6-2.2-1.8c-0.6-1.2-0.9-2.7-0.9-4.5
		c0-1.7,0.3-3.2,0.9-4.4c0.6-1.2,1.4-1.9,2.2-1.9c0.7,0,1.4,0.4,2,1.3c0.6,0.9,0.9,2,1.1,3.4c2.1,0.4,4.3,1.1,6.4,2l0.7-4.7
		c0.3-3.3-1.2-5.7-4.7-7.2c-0.2,1.4-0.6,2.5-1.1,3.3c-0.6,0.9-1.2,1.3-1.9,1.3c-0.9,0-1.6-0.6-2.2-1.8c-0.6-1.2-0.9-2.7-0.9-4.5
		s0.3-3.2,0.9-4.4c0.6-1.2,1.4-1.9,2.2-1.9c0.7,0,1.4,0.4,2,1.3c0.6,0.9,0.9,2,1.1,3.4c6.4-0.5,10.7,0.3,12.9,2.5
		c1.4,1.3,1.9,3.1,1.5,5.2c-0.3,1.9-1.9,4.9-4.9,8.8l18.7-6.1c0.8-0.2,1.4-0.7,2-1.5c0.6-0.7,0.8-1.5,0.8-2.3v-3.7l-1.3-0.2
		c-0.2,1.8-0.6,3.3-1.3,4.5c-0.7,1.2-1.6,1.8-2.5,1.8c-1.1,0-2-0.8-2.7-2.3c-0.8-1.5-1.2-3.4-1.2-5.5c0-2.1,0.4-4,1.2-5.5
		c0.7-1.5,1.7-2.3,2.7-2.3c0.9,0,1.8,0.6,2.5,1.8c0.7,1.2,1.2,2.7,1.3,4.5l1.3,0.2V88.8c-1.1,0.6-2.2,1-3.2,1l0,0.2l-17.1,3
		c-0.5,0.1-0.9,0-1.2-0.4c-2.3-2.2-4.1-4.9-5.4-8.3c-1.3-3.3-2-6.8-2-10.5c0-6.4,1.8-11.9,5.4-16.5c3.5-4.6,7.8-6.9,12.8-6.9
		c2.6,0,5.1,0.7,7.5,2.1l0.3,0.2l2.9,2.9v-8.2c0-0.5-0.1-1-0.4-1.4v5.3l-1.1-1.1l-0.5-0.3c-0.8-0.4-1.8-0.9-3-1.3v-3l3.7-0.5
		c-0.6-0.3-1.1-0.5-1.7-0.4L193.1,48.5 M209.9,47.9v2.8c-1.6,1-3.1,2.3-4.5,3.9v-6.1L209.9,47.9 M212.1,49.4v-1.8l4.5-0.6v1
		C215.1,48.3,213.5,48.8,212.1,49.4 M218.8,47.7v-1l4.5-0.6v2l-3.8-0.5L218.8,47.7 M196.4,49.7v6.8l-4.5,0.6v-6.8L196.4,49.7
		 M198.6,56.2v-6.8l4.5-0.6v6.8L198.6,56.2 M203,57.7c-1.4,2.3-2.5,4.7-3.2,7.2l-1.2,0.2v-6.8L203,57.7 M191.8,59.2l4.5-0.6v6.8
		l-4.5,0.6V59.2 M191.8,74.8v-6.8l4.5-0.6v6.8L191.8,74.8 M191.8,77l4.5-0.6v6.8l-4.5,0.6V77 M208.4,96.4l1.5-0.3v3l-4.5,0.6v-6.4
		L208.4,96.4 M223.4,93.6v3.7l-4.5,0.6v-3.5L223.4,93.6 M212.1,95.7l4.5-0.8v3.4l-4.5,0.6V95.7 M191.8,85.8l4.5-0.6V92l-4.5,0.6
		V85.8 M191.8,94.7l4.5-0.6v6.8l-4.5,0.6V94.7 M203.1,90.4v0.7l-4.5,0.6v-6.8l1.7-0.2C201,86.6,202,88.5,203.1,90.4 M198.6,93.8
		l4.5-0.6v6.8l-4.5,0.6V93.8 M227,93l0-0.2c1.1-0.1,2.2-0.3,3.2-0.7v4.3l-4.5,0.6v-3.8L227,93 M219.8,53.5c-2,0-3.9,0.5-5.7,1.5
		c-1.7,1-3.3,2.3-4.7,4.1l10.8,4.7c1.1-2.3,2.4-4.1,3.9-5.4c1.1-0.8,2.1-1.4,3.2-1.6l-1.6-1.6C223.9,54.1,221.9,53.5,219.8,53.5
		 M220.5,42.8c0.8-0.1,1.2-0.2,1.2-0.4c0-0.2-0.4-0.4-1.2-0.6l-14-3.4l-2.9-0.4c-1.1-0.1-2.1-0.1-2.9,0l-34.4,2.8l22.6,5.2v0
		L220.5,42.8z"/>
</g>
</svg>
