<?xml version="1.0" encoding="utf-8"?><svg id="Name_Clip" image-rendering="auto" baseProfile="basic" version="1.1" x="0px" y="0px" width="240" height="240" xmlns="http://www.w3.org/2000/svg" xmlns:xlink="http://www.w3.org/1999/xlink"><g id="Scene-1f3r1" overflow="visible"><path fill="#FFF" stroke="none" d="M101.9,210.2 L105.25,208.25 Q106.75,207.1 107,204.7 104.6,206 100.9,206.1 L91.95,205.55 Q90,205.35 89,204.75 84.25,206.25 80.4,209.5 78.5,211.1 77.6,213.2 76.45,216 79.2,216.4 83.2,217.05 88.6,214.75 L97.25,210.15 Q97.45,210 97.9,210.3 L98.45,210.8 Q99.15,211.6 101.9,210.2 M142.3,186.9 Q137.8,189.05 133.15,188.35 133.15,198.25 134.9,216.05 135.65,224.5 136.65,230.85 L138.15,237.7 Q138.4,238.25 138.95,237.4 140.05,235.9 140.5,232.8 L141.05,227.9 Q141.75,221.9 142.15,211.85 L142.55,199.4 Q142.65,192.35 142.3,186.9 M96.7,187.35 Q90.35,188.3 91.35,180.25 92.05,174.7 95.1,168.5 85.45,164.05 79.2,158.7 79.55,173 82.4,184.05 84.35,191.75 88.45,201.2 L89.4,203.25 90.1,203.45 95.65,204.4 Q100.6,204.9 104.8,203.7 105.85,203.3 106.9,202.6 L106.95,202.6 108.1,179.7 Q102.55,186.5 96.7,187.35 M93.85,176.7 Q92.1,182.65 93.5,184.85 93.25,180 100.3,169.95 107.3,160.05 113,157 103.8,158.1 96.95,168.95 95.15,172.1 93.85,176.7 M117,166.15 Q116,168.35 113.9,171.4 L123.7,177.5 123.7,177.45 126.25,164.95 Q121.95,166 117,166.15 M108.85,162.65 Q107.3,164.25 103.85,168.6 99,174.95 96.15,181.15 95.9,181.6 95.45,183.3 94.95,185.2 95,185.8 96.3,186.15 98.3,185.35 106.4,182.4 114.05,167.55 L108.85,162.65 M116.7,159.4 Q116.6,156.65 113.5,158.6 111.4,159.95 109.25,162.15 L109.6,162.4 114.35,166.9 115.55,164.45 Q116.85,161.6 116.7,159.4 M103.35,139.9 L107.55,144.7 Q112.65,150.6 116.6,156.25 L116.65,156.3 Q117.8,156.75 118.25,158.25 119.1,161 117.55,164.85 122.05,164.55 126.3,163.3 L126.6,163.3 128.3,156.2 127.85,155.65 Q126.7,150.9 124.5,146.8 122.05,142.15 118.75,139.25 L116.4,139.25 Q113.45,139.2 110.55,138.1 L110.7,138.75 Q110.75,139.15 110.3,139.05 105.25,137.4 98.35,135.7 100.7,137.1 103.35,139.9 M132.25,140 L131.8,139.85 Q129.5,138.85 128,136.65 123.95,138.75 119.65,139.2 125.85,144.85 128.7,154.45 L132.25,140 M139.05,141.25 Q136.1,141.25 133.35,140.4 L124.9,178.05 124.85,178.1 Q129.55,180.5 133.7,181.1 135.35,181.4 137.15,181.05 L137.05,180.7 Q138,175.25 141.15,168.5 L146.85,156.9 Q150.75,148.65 152.45,142.45 L152.9,140.25 Q149.05,140.55 145,140.4 L144.9,140.4 Q142.25,141.3 139.05,141.25 M139.6,120.55 Q139.35,121 138.55,121.4 L137.4,121.9 140,121.8 139.6,120.55 M134.25,116.75 Q134.3,116.4 134.8,116.4 137.3,116.95 139,118.15 141.05,119.55 141.45,121.65 L143.15,121.3 Q143.05,118.45 140.65,116.6 138.6,115.05 135.5,114.6 L135.35,114.55 Q133.3,116.35 126.2,116.85 L109.95,116.95 Q103.65,116.55 101,114.85 101.5,124.6 105.6,131.85 108.55,137.25 115.4,137.8 121.4,138.3 127.1,135.15 L127.25,135.15 Q126.45,132.8 127.85,131.1 L127.85,131.05 127.15,130.3 Q125.65,128.55 126.45,126.65 127.2,124.8 129.45,124.35 128.5,122.3 129.4,120.45 130.2,118.65 132.25,117.55 L134.2,117 134.25,116.75 M128.4,114.8 L128.6,114.9 Q131.85,114.3 133.95,113 134.9,112.45 131.9,111.5 130,110.85 128.4,110.5 L117.9,109.8 109,109.95 Q101.8,110.6 101,112.85 101.55,114.15 106.45,114.7 117.55,113.1 128.4,114.8 M148.95,116.25 L147.9,116.95 Q149.8,118.2 151.3,120.2 152.8,122.05 153.6,124 154.9,127.35 153.6,131.3 152.45,134.8 149.7,137.55 L147.85,139.05 151.7,138.8 Q157.55,135.5 156,127.1 154.6,119 148.95,116.25 M149.65,119.8 Q146.15,115.6 142.2,116.4 144.65,118.6 144.8,121.8 L144.75,122.15 Q144.05,123.7 139.7,123.4 135.4,123.05 135.8,120.95 L136.4,120.5 137.2,120.15 Q138.65,119.7 136.3,118.2 134.9,117.95 133.2,118.95 131.65,119.9 130.95,121.15 129.45,123.75 132.2,126.55 134.3,128.7 137.25,129.85 137.8,130.05 138.05,130.75 138.3,131.45 137.5,131.15 132.55,129.25 130.2,125.75 128.6,126.25 127.95,127.5 127.25,128.9 128.3,130.3 129.75,132.35 134.2,134.45 L134.95,135.25 Q135.25,135.9 134.5,135.55 130.95,133.75 129.2,132.3 126.95,135.15 130.2,137.5 132.7,139.2 136.05,139.55 144.25,140.45 148.95,135.7 151.9,132.8 152.55,127.65 153.05,123.8 149.65,119.8 M47.9,173.8 Q44.95,182.05 43.2,187.9 L41.75,192.9 Q41.05,195.9 41.25,197.95 41.3,198.45 41.95,197.85 L43,196.7 45.75,192.6 Q48.4,188 52.6,178.95 59.6,163.8 62.5,155.45 58.7,153.45 56,151.7 L47.9,173.8 M71.35,128.45 L71.1,128.35 Q69.05,129.6 66.8,129.45 L66.8,130.8 84.55,132.25 Q91.05,133 101.25,135.5 L109.1,137.7 109.1,137.5 Q107.85,136.95 107.15,136.1 105.2,133.95 103.8,131.15 L71.35,128.45 M54.05,117.35 Q50.45,106.85 58,101.8 L57.5,101.2 Q53.2,102.9 51.7,107 50.75,109.7 50.95,113.45 51.05,115.7 51.85,119.95 L54.75,133 Q55.25,135.5 55,142.15 54.75,147.95 56,151.05 L56.05,151.1 Q64.3,156.3 77.6,161.35 L77.45,157.15 74.8,154.4 Q62.9,149.7 55.5,144.95 55.1,144.65 55,144.3 54.95,143.95 55.5,144.3 62.8,149 73.95,153.45 69.15,147.7 66.8,142.25 63.75,135.25 65.25,129.6 L65.25,129.25 Q61.8,128.4 58.7,125 55.6,121.65 54.05,117.35 M79,111.4 Q78.25,112.25 76.4,112.65 L71.15,113.15 71.15,114.1 72.3,114.35 Q75.05,114.85 76.55,115.45 78.9,116.4 80.05,118 82.7,121.55 76.95,122.35 L77,122.7 Q75.95,125.4 73.15,126.35 L73.05,126.75 71.7,127.95 71.9,127.95 101.7,130.45 102.7,130.65 103.4,130.5 Q99.45,122.95 99.3,112.55 L99.3,112.25 99.6,111.65 99.4,110.8 79,111.4 M68.15,113.3 Q67.1,113.4 67.6,113.45 L70.4,114 70.4,113.15 68.15,113.3 M76.55,110.75 Q78.95,109.75 77.4,108.8 75.5,107.7 71.95,107.45 L66.25,107.25 63.95,107.4 61.75,107.1 Q61,106.7 60.1,105.6 L58.7,103.5 Q55,106.35 54.8,111.45 54.6,116 57.05,120.65 59.5,125.2 63.05,127.1 66.95,129.2 70.3,126.75 L68.65,126.55 Q68.15,126.45 67.75,125.75 67.35,125.1 68.05,125.2 L72.05,125 Q74.05,124.3 75.1,122.55 L69.6,122.4 66.05,121.75 Q65.5,121.55 65.25,120.9 65.1,120.2 65.85,120.5 68.5,121.6 71.6,121.7 74.9,121.85 77.4,120.9 80.2,119.8 77.95,117.9 76.15,116.4 73.8,115.85 L68.9,114.9 Q66.15,114.35 65.75,113.2 65.35,112 68.55,111.8 L73.45,111.6 Q74.75,111.45 76.55,110.75 M75.25,95.7 L60.3,95.95 68.05,105.85 80.2,105.85 75.25,95.7 M54.35,65.15 Q50.5,68.1 44.6,70 L64.95,68.9 60.15,56.6 Q59.3,61.45 54.35,65.15 M48,59.9 Q48.35,57.75 46.1,55.75 44.05,53.9 41.85,53.65 L40.45,53.4 47,62 48,59.9 M57.7,59.5 L57.65,59.5 54.6,55.4 Q54.8,62.7 47.55,67.6 54.9,64.35 57.7,59.5 M38.4,70.85 Q38,70.4 38.5,70.25 42,69.35 45,67.65 48.25,65.8 50.35,63.35 L50.15,63.05 49.45,61.65 Q48.8,63.95 44.95,66.4 L34.8,71.7 Q34.45,71.9 34.9,71.95 L44.95,72.25 72.8,71.5 Q74.1,71.9 76,73 L79.1,74.8 Q84.25,77.5 86.9,79.05 L79.8,66.5 79.8,66.35 Q75.8,68.3 70.1,69.45 63.9,70.65 54.7,71 L39.2,71.3 Q38.75,71.3 38.4,70.85 M126.75,93.5 Q124.65,90.65 122.25,88.8 L119.8,92.95 119.1,101.85 120,100.5 Q122.1,97.4 126.75,93.5 M140.6,72.05 L139.5,71.85 138.65,72.95 Q139.35,78.4 134.6,82.95 130.2,87.1 124.35,87.65 L123.2,87.7 Q125.4,89.3 127.9,92.6 135.05,86.8 137.15,84.15 141.25,78.8 140.6,72.05 M142.05,72.4 L142.05,72.45 Q143.1,80.85 136.3,87.8 L129.85,93.5 Q125.4,97.15 123.35,99.3 120,102.8 117.3,108.25 L123.35,108.35 Q126,106.4 128.6,104.75 132.45,102.3 136.25,100.45 L136.3,100.4 132.35,95 132.25,94.7 Q132.3,94.55 132.5,94.6 L138.35,95 Q139.7,95.15 140.15,94.7 L141.2,92.9 Q144.15,87.65 145.45,83.7 147.25,78.25 146.55,73.85 144.15,72.9 142.05,72.4 M115.5,98.6 L117.8,92 117.3,88.85 Q115.6,89.75 113.8,91.25 115,95.35 115.5,98.6 M104.05,85.15 L104.25,85.85 110.85,89.6 111.45,90.05 Q111.8,90.5 111.5,90.6 L105.6,92.55 107.4,98.85 Q108.85,104.05 109.7,108.6 L113.8,108.3 114.25,104.85 Q114.85,99.15 112.6,91.2 112.05,90.65 112.35,90.2 L109.9,81.75 Q106.3,79.95 103.25,76.9 L104.05,85.15 M118.2,86.55 Q116.1,85.4 114.95,83.55 L111.35,82.4 113.25,89.4 Q116.2,87.1 118.2,86.55 M89.7,81.75 Q88.45,80.9 85.8,79.45 L78.35,75.05 Q75.6,73.35 74.45,72.9 L75.8,80.55 Q85.8,79.6 92.1,83.7 L89.7,81.75 M101.2,74.5 Q98.65,75.1 95.45,77.25 92.7,79.05 90.35,81.3 L90.35,81.4 Q93.55,83.75 95.1,86.35 97.1,89.65 98.8,94.65 L103.3,109.7 108.45,108.75 Q107,100.75 104.1,91.8 104,91.6 104.2,91.55 L109.4,89.7 103.1,85.95 Q102.65,85.6 102.55,84.75 L102.4,83.35 Q101.75,79.25 101.7,75.15 L101.2,74.5 M93.4,85.3 L93.3,85.25 Q90.2,82.6 85.05,81.8 80.9,81.2 75.95,81.8 L75.1,81.5 Q74.55,81.15 74.5,80.75 L73.05,72.75 45.8,73.75 35.25,73.1 41.55,80.15 Q51.7,91.85 60.8,104.15 L62.2,105.85 67.15,105.9 Q65.85,104.65 63.75,101.45 L59.3,95.8 59.25,95.45 59.5,95.25 75.35,94.9 75.55,95 75.8,95.25 81.05,106.15 Q81.25,106.6 80.85,106.6 L73.9,106.6 74.6,106.75 Q79.2,107.6 79.45,109.75 L79.35,110.75 99.3,110.2 99.7,110.4 100.05,110.7 100.1,111.05 Q100.85,110.45 102.1,110 L97.3,93.75 Q95.55,88.65 93.4,85.3 M86.85,85.55 Q86.7,85.2 87.05,85.15 87.4,85.1 87.6,85.4 L90.35,90.5 90.4,90.8 90.15,90.95 56.5,91.25 Q54.6,91.2 53.6,90.15 L43.3,78.65 43.2,78.3 Q43.25,78.1 43.45,78.1 L71.45,77.45 Q71.8,77.35 71.95,77.85 72.05,78.2 71.65,78.2 L44.4,78.85 54.5,90.1 54.65,90.4 89.4,90.15 86.85,85.55 M90.95,92.5 Q91.3,92.4 91.5,92.9 L96.25,104.5 96.15,104.75 Q95.6,104.75 95.55,104.4 L90.95,93.2 80.2,93.65 80.4,93.8 85.5,106.05 94.45,106.4 94.7,106.5 94.95,106.9 94.75,107.05 85.45,106.75 84.9,106.35 79.5,93.3 Q79.4,92.95 79.65,92.95 L90.95,92.5 M97.05,39.1 Q96.7,38.8 96.25,38.8 95.6,38.9 95.4,39.95 95.15,41.05 95.55,42.5 95.8,43.45 97.2,45.45 98.1,42.75 99.3,40.15 98.2,40 97.05,39.1 M94.65,36.55 Q92.45,33.45 93.1,30.2 81.85,26.15 81.4,27.55 80.8,30.15 84.95,33.7 88.6,36.7 93.8,38.95 94.05,37.45 94.65,36.55 M94.5,30.7 Q94.3,32.65 95.15,34.85 96.05,37.1 97.7,38.4 98.55,39.1 99.85,39 101.7,38.85 103.4,37.05 L105.35,34.15 94.5,30.7 M122,26.7 Q127.1,27.55 134.45,29.65 L131.3,28.1 134.5,28.15 131.4,26.25 134.9,26.45 131.65,24.5 134.7,24.95 132.55,23.45 Q124.8,21.2 111.9,18.25 110.6,19.1 109.2,21.25 108.05,22.95 107.45,24.45 L122,26.7 M132.9,30.5 Q126.6,28.75 121.75,28 L106.55,25.6 87,27 101.7,31.9 Q106.75,33.45 123.5,35.5 143.1,37.85 152.15,36.85 153.7,36.65 144.95,34 L132.9,30.5 M139.5,38.4 L138.7,39.1 142.55,41.75 Q145.6,44.2 146.75,47.95 147.95,43.4 147.75,38.5 L139.5,38.4 M122.2,39.3 Q121.85,38.9 123.05,37.25 115.1,36.2 106.75,34.4 L104.5,37.85 Q102.8,39.6 101.1,40.05 98.1,46.2 97.45,52.3 96.45,61.95 101.2,70.5 106.15,79.4 114.95,82.3 119.85,83.9 123.65,83.55 L126.6,82.95 126.8,83 Q127,83.35 124.95,84.2 123,85.05 122,85.15 L121.8,85.15 Q122.9,85.8 124.6,85.55 128.45,85.25 132.2,82.3 136.3,79.1 136.4,75.65 133.9,77.7 132.1,77.85 131.5,77.9 131.45,77.7 131.4,77.4 131.95,77 135.05,74.5 137.6,70.8 137.45,70.45 137.9,70.35 139.6,67.85 141,64.75 L141.7,64.75 Q145.6,64.35 146.8,60.55 148,56.65 144.55,54.5 144.25,54.2 144.25,53.9 L145.85,54.1 Q145.65,53.65 145.8,53.2 L145.8,53.15 Q143.05,49.55 140.8,47.7 L138.4,46.2 Q137.7,45.9 137.65,45.4 137.65,44.85 138.05,44.85 L138.25,44.85 Q139.55,45.2 141.5,46.75 142.85,47.8 144.25,49.65 L145.95,52.25 146.05,51.15 144.25,48.35 Q142.65,46.2 141.1,44.95 L137.25,42.2 Q136.8,42 136.9,41.65 137,41.3 137.45,41.25 L137.8,41.25 Q138.75,41.45 141.8,44.15 144.35,46.65 146.05,49.8 145.65,45.45 141.75,42.4 139.85,40.95 137.1,39.7 136.5,39.45 136.7,38.95 L137.05,38.45 137.25,38.35 136.8,38.35 125.3,37.5 Q128.65,40.15 128.4,41.6 L128.35,41.6 122.2,39.3 M122.25,48.25 Q122.15,46.95 123.85,46.85 125.5,46.7 125.6,48 125.7,49.3 125.3,50.25 124.85,51.25 124.2,51.3 L124.15,51.3 Q123.45,51.3 122.9,50.45 122.3,49.55 122.25,48.25 M138,48.9 Q138.15,48.45 138.5,48.4 L138.7,48.4 Q140.05,48.8 141.1,49.8 L142.4,51.25 142.95,52.45 142.8,52.65 140.4,50.65 Q139.6,50.1 138.7,49.7 L138.65,49.65 138.5,49.6 Q137.9,49.3 138,48.9 M106.75,40.75 L106.65,41.6 Q106.4,41.95 105.95,42 L102.25,42.5 102.15,42.5 101.7,42.4 102.05,41.95 105.35,39.45 105.8,39.25 Q106.3,39.15 106.55,39.85 L106.75,40.75 M113.55,46.95 Q113.85,46.2 114.3,46.1 L114.35,46.1 114.6,46.4 114.65,47.05 114.3,48.6 111.65,55.7 Q111.3,56.6 111.95,57.25 L113.8,59.4 114,59.95 113.55,60.35 112.6,60.7 Q111.75,60.7 111.35,60.25 L109,57.45 Q108.4,56.65 108.95,56 111.35,52.4 112.05,50.8 L113.55,46.95 M103.5,52.35 Q102.95,51.45 102.85,50.15 102.75,48.9 104.45,48.8 106.15,48.65 106.25,49.95 106.3,51.25 105.9,52.2 105.5,53.1 104.8,53.15 104.05,53.25 103.5,52.35 M104.3,63.9 L104.35,64.55 Q104.35,64.9 104.6,65.25 104.95,65.5 105.3,65.5 L112.6,65.75 113.8,65.55 Q115.7,65.2 119.55,63.6 L122.95,62 123.6,61.45 Q123.85,61 123.7,60.7 L123,59.3 Q122.7,58.9 123.05,58.8 L123.35,58.9 128.3,61.7 Q129.1,62.1 129.05,63.05 L128.55,67.25 Q128.5,67.7 128.3,67.75 L127.85,67.45 127.7,65.4 Q127.25,64.95 126.7,64.95 L126.25,65.1 122.5,68.15 Q118.1,71.2 115.3,71.45 L115.25,71.45 Q112.45,71.75 108.8,70.35 L105.75,68.9 105.55,68.9 Q104.95,69 104.95,69.65 L105,70.1 104.9,70.6 104.55,70.3 102.3,67.45 Q102.05,67.15 102.05,66.7 102.05,66.3 102.25,65.95 L103.75,63.75 104.05,63.5 104.3,63.9 M111.9,73.6 L112.35,73.4 116.35,72.5 Q117.2,72.4 117.4,73.15 117.65,73.95 116.7,74.35 L115.15,74.75 113.9,74.65 112.3,73.95 111.9,73.6 M138.95,51.9 L139.2,51.95 Q139.8,52.25 140.4,52.75 141.1,53.35 141.25,54.05 141.35,54.75 140.75,54.85 140.25,54.9 140.15,54.35 140.1,53.95 139.45,53.45 L138.75,53 Q138.4,52.8 138.45,52.4 138.55,51.95 138.95,51.9 M105.3,66.4 L105.15,66.4 Q104.15,66.5 104.45,67.25 104.8,68.15 105.45,68.2 L111.3,69.6 Q112.35,69.8 114.25,69.65 117.2,69.35 118.75,68.6 L125.4,64.65 126.1,63.9 Q126.35,63.3 125.7,62.9 125.15,62.5 124.5,62.6 L123.45,62.9 120.25,64.4 Q116.6,66 114.35,66.4 L113.1,66.55 Q109.6,66.9 105.3,66.4 M141.7,30.4 L138.45,30.35 141,31.55 148.1,33.9 148.1,34 150.6,34.35 150.75,33.2 147.2,30.25 Q143.9,27.85 140.6,26.25 L141.95,27.2 138.9,26.75 142.1,28.7 138.65,28.5 141.7,30.4 M152.25,22.9 Q147.1,13.2 142.3,12.25 L140.5,11.9 Q136.2,11 132.8,9.75 L139.95,16.9 138.9,18.05 Q137.45,18.9 135.5,17.45 132.65,15.45 128.3,7.6 L125.85,5.4 Q122.7,2.15 121.3,2.55 120.5,2.75 120.1,4.25 L119.65,7.2 Q119.3,9.25 116.35,11.95 115.5,12.7 114.1,14.75 112.6,16.9 113.15,17.05 130.75,21.4 137.1,23.45 144.2,25.75 151.05,31.7 L152.25,22.9 M182.4,165.6 L182.6,165.75 200.35,195 203.15,198.6 Q205.55,201.6 205.7,201.2 206.05,199.85 205.25,197.2 L195.2,171.4 Q192.85,165.65 191.55,161.75 L182.4,165.6 M200.15,153.9 L200.45,149.2 Q198.15,151.6 194.7,153.6 192.2,155.05 188.1,156.8 L178.45,160.6 Q172.65,162.95 168.9,164.7 157.8,169.9 147.1,177.5 143.4,180.15 140.55,181.15 136.95,182.45 133.15,181.85 129.6,181.3 125.05,178.95 L113.6,171.9 110.85,175.95 121.9,183 Q128.35,186.75 133.7,187.6 137.6,188.2 142.2,185.65 L142.2,185.5 142.5,185.5 149.15,180.95 Q156.7,175.7 167.9,170.3 173.1,167.75 184.7,163.3 190.05,161.3 193.05,159.65 197.6,157.15 200.15,153.9 M167.6,111.25 L167.15,111.15 Q165,110.15 162.7,110.8 166.35,111.5 168.85,114.4 169.35,115.05 168.7,114.85 L167.7,114.3 Q164.8,110.85 159,111.95 154.75,112.8 149.55,115.85 152.5,117.55 154.5,120.1 156.55,122.75 157.25,125.9 157.95,129.05 157.45,132.35 156.85,136.15 154.9,138.4 159.5,137.65 163.25,136.35 171.2,133.75 174.75,127.55 178.05,121.75 177.4,113.25 176.7,104.05 172,95.95 167.7,88.45 160.15,82.25 156.8,83.05 154.55,86.3 152.55,89.1 152,92.85 L151.15,92.8 Q150.35,92.35 150.45,91.9 151.05,88.15 153.05,85.25 155.35,81.95 158.7,81.05 L158,80.5 Q152.95,76.65 148,74.5 149.55,83.15 141.35,96.35 L141.1,96.4 133.75,95.85 Q134.1,95.9 135.8,98.2 L137.85,101.1 Q138.05,101.4 137.85,101.5 131.3,104.65 125.8,108.5 136.05,109.2 136.1,112.85 L136.05,113.3 136.05,113.35 Q138.65,113.95 140.65,115.2 143.25,114.5 146.25,115.9 153.55,111 159.65,110.65 159.55,110.45 159.75,110.3 161.25,109.35 163.25,109.35 165.1,109.3 166.8,110.1 167.65,110.5 167.75,111 L167.6,111.25 M205.15,107.6 L205.1,107.6 Q201.4,107.5 197.1,109 195.1,109.75 189.7,112.3 185.05,114.6 179.15,116 179.3,122.15 177.15,126.8 L180.15,125.65 Q182.95,124.55 196.1,120.35 205.95,117.15 211.7,114.2 211.7,108.95 205.15,107.6 M209.65,121.35 Q211.15,118.05 211.55,115.75 206.35,118.25 197,121.2 185.9,124.65 182.25,126.15 L176.35,128.45 Q173.05,134.05 166.45,136.9 161.3,139.25 154.4,140.05 L152.05,148.05 Q150.7,151.85 144.55,164.25 139.6,174.15 138.35,180.8 140.85,180.1 144,178.05 L149.15,174.45 Q156.7,169.2 167.9,163.8 173.1,161.25 184.7,156.8 190,154.85 193.1,153.1 197.6,150.6 200.2,147.35 L200.6,147.35 Q202.05,136.9 207,126.8 L209.65,121.35 M195.85,72.55 Q197.05,64.8 198.7,61.2 201.45,55.15 206.75,54.5 197.3,51.85 185.9,50.15 L164.65,47.7 Q162.3,50.05 158.4,51.2 154,52.5 148.15,52.05 L147.6,53.45 147.1,54.2 147.8,54.25 Q150.7,57.1 148.95,61.45 147.2,65.7 143.7,66 L143.2,66.05 Q142.35,67.95 140.35,70.7 148.75,72.4 158.7,79.6 166.9,85.55 171.9,93.45 177.1,101.6 178.7,111.35 L179.05,114.6 183,113.45 Q184.35,103.1 190,89.4 L193.45,81.15 Q195.2,76.55 195.85,72.55 M198.6,64.6 Q197.2,69.05 196.1,78.3 195.45,81.4 193.4,85.8 L190,93.05 Q185.8,103.65 184.55,112.9 188,111.7 191.35,110.05 195.1,108.25 197.8,107.45 201.4,106.4 204.65,106.45 204.35,106.25 204.35,106 204.45,96.2 205.25,89.3 206.35,80.05 208.95,73 212,64.75 212.4,62.25 213.65,54.85 207.7,55.7 201.05,56.6 198.6,64.6 M165.85,42.95 Q165.95,42.15 165.35,41.35 163.9,39.6 159,39 L149.95,38.55 Q150.15,41.3 149.85,43.7 149.55,47.2 148.55,50.75 155.75,51.1 160.5,48.95 165.25,46.85 165.85,42.95 M163.35,41.85 Q164.35,43.55 162.85,45.35 161.25,47.15 157.45,48.35 153.95,49.45 153.15,48.95 152.75,48.7 155.7,47.8 159.35,46.65 160.2,45.95 161.1,45.15 160.85,42.95 160.65,40.9 161.25,40.7 162.45,40.2 163.35,41.85Z"/></g></svg>