<?xml version="1.0" encoding="utf-8"?><svg id="Name_Clip" image-rendering="auto" baseProfile="basic" version="1.1" x="0px" y="0px" width="240" height="240" xmlns="http://www.w3.org/2000/svg" xmlns:xlink="http://www.w3.org/1999/xlink"><g id="Scene-1f9r1" overflow="visible"><path fill="#FFF" stroke="none" d="M101.9,210.2 L105.25,208.25 Q106.75,207.1 107,204.7 104.6,206 100.9,206.1 L91.95,205.55 Q90,205.35 89,204.75 84.25,206.25 80.4,209.5 78.5,211.1 77.6,213.2 76.45,216 79.2,216.4 83.2,217.05 88.6,214.75 L97.25,210.15 Q97.45,210 97.9,210.3 L98.45,210.8 Q99.15,211.6 101.9,210.2 M142.3,186.9 Q137.8,189.05 133.15,188.35 133.15,198.25 134.9,216.05 135.65,224.5 136.65,230.85 L138.15,237.7 Q138.4,238.25 138.95,237.4 140.05,235.9 140.5,232.8 L141.05,227.9 Q141.75,221.9 142.15,211.85 L142.55,199.4 Q142.65,192.35 142.3,186.9 M96.7,187.35 Q90.35,188.3 91.35,180.25 92.1,174.65 95.15,168.5 85.5,164.1 79.2,158.7 79.55,173 82.4,184.05 84.35,191.75 88.45,201.2 L89.4,203.25 90.1,203.45 95.65,204.4 Q100.6,204.9 104.8,203.7 105.85,203.3 106.9,202.6 L106.95,202.6 108.1,179.7 Q102.55,186.5 96.7,187.35 M93.85,176.7 Q92.1,182.65 93.55,184.85 93.25,180 100.3,169.95 107.3,160.05 113,157 103.8,158.1 96.95,168.95 95.15,172.1 93.85,176.7 M117,166.15 Q116,168.35 113.9,171.4 L123.7,177.5 123.7,177.45 126.25,164.95 Q121.95,166 117,166.15 M108.85,162.65 Q107.3,164.25 103.85,168.6 99,174.95 96.15,181.15 95.9,181.6 95.45,183.3 94.95,185.2 95,185.8 96.3,186.15 98.3,185.35 106.5,182.35 114.05,167.55 L108.85,162.65 M116.75,159.4 Q116.65,156.65 113.5,158.6 111.6,159.8 109.25,162.15 L109.6,162.4 114.35,166.9 115.55,164.45 Q116.85,161.6 116.75,159.4 M109.9,135.2 L109.85,135.2 110.7,138.75 Q110.75,139.15 110.3,139.05 105.25,137.4 98.35,135.7 100.7,137.1 103.35,139.9 L107.55,144.7 Q112.65,150.6 116.6,156.25 L116.7,156.3 Q117.8,156.8 118.25,158.25 119.1,161 117.55,164.85 122.05,164.55 126.3,163.3 L126.6,163.3 Q127.1,160.9 128.3,156.1 L128,155.65 Q126.1,147.85 121.95,142.4 116.85,135.85 109.9,135.2 M134.3,136.5 Q133.2,140.3 131.85,147.85 L127.3,166.2 124.9,178.05 124.85,178.1 Q129.5,180.45 133.7,181.1 135.35,181.4 137.15,181.05 L137.05,180.7 Q138,175.25 141.15,168.5 L146.85,156.9 Q150.75,148.65 152.45,142.45 153.3,139.2 153.05,136.6 152.75,133.5 147.85,129.85 142.95,126.1 139.85,126.8 136.15,129.9 134.3,136.5 M138.45,126.35 Q138.3,126 138.55,125.9 L139.2,125.75 Q140.35,124.75 141.85,123.95 L143.3,123.25 Q136.75,115.65 133.6,103.7 115.85,113.2 111.35,125.15 110.25,129.4 110.15,134.2 116.85,135.35 122,141.4 126.5,146.65 128.8,154.1 L131,145.55 Q132.45,138.45 133.45,135.15 135.2,129.45 138.45,126.35 M131.2,131.6 Q131.5,132.2 130.75,131.9 L123.9,129.5 Q119.95,128.3 116.9,128.5 L118.95,128.7 Q121.1,129.3 124,131.05 129.3,134.35 131.8,139.05 132.15,139.65 131.4,139.4 130.6,139.15 130.4,138.7 127.7,133.65 121.6,130.75 120,130 117.1,129.85 114,129.7 112.65,129.2 L112,128.65 Q111.5,128.1 111.9,127.95 116.1,126.5 121.3,127.7 123.15,128.1 130.4,130.75 130.9,130.95 131.2,131.6 M128.6,104.75 L133.15,102.1 132.85,100.75 Q127.7,101.45 123.05,99.65 117.8,105.3 113.95,116.4 L113.75,117.3 Q118.4,111.3 128.6,104.75 M47.9,173.8 Q44.95,182.05 43.2,187.9 L41.75,192.9 Q41.05,195.9 41.25,197.95 41.3,198.45 41.95,197.85 L43,196.7 45.75,192.6 Q48.4,188 52.6,178.95 59.6,163.8 62.5,155.45 58.7,153.45 56,151.7 L47.9,173.8 M54.05,117.35 Q50.45,106.85 58,101.8 L57.5,101.15 Q53.2,102.9 51.7,107 50.75,109.7 50.95,113.45 51.05,115.7 51.85,119.95 L54.75,133 Q55.25,135.5 55,142.15 54.75,147.95 56,151.05 L56.05,151.1 Q64.3,156.3 77.6,161.35 L77.45,157.15 74.8,154.4 Q62.9,149.7 55.5,144.95 55.1,144.65 55,144.3 54.95,143.95 55.5,144.3 62.8,149 73.95,153.45 69.15,147.7 66.8,142.25 63.75,135.25 65.25,129.6 L65.25,129.25 Q61.8,128.4 58.7,125 55.6,121.65 54.05,117.35 M79,111.4 Q78.25,112.25 76.45,112.65 L71.15,113.15 71.15,114.1 72.3,114.35 Q75.05,114.85 76.6,115.45 78.9,116.4 80.1,118 82.65,121.55 76.95,122.35 L77,122.7 Q75.95,125.4 73.15,126.35 L73.1,126.75 71.7,127.95 71.9,127.95 101.7,130.45 102.9,130.65 Q103.55,130.75 103.45,130.25 L99.4,110.8 79,111.4 M68.15,113.3 Q67.1,113.4 67.6,113.45 L70.4,114 70.4,113.15 68.15,113.3 M76.55,110.75 Q78.95,109.75 77.4,108.8 75.5,107.7 71.95,107.45 L66.25,107.25 63.95,107.4 61.75,107.1 Q60.6,106.5 58.7,103.5 55,106.35 54.8,111.45 54.6,116.05 57.1,120.65 59.55,125.2 63.1,127.1 66.95,129.2 70.35,126.75 L68.65,126.55 Q68.15,126.45 67.75,125.75 67.35,125.1 68.05,125.2 L72.05,125 Q74.05,124.3 75.1,122.55 L69.6,122.4 66.05,121.75 Q65.5,121.55 65.3,120.9 65.1,120.2 65.85,120.5 68.5,121.6 71.6,121.7 74.9,121.85 77.45,120.9 80.25,119.8 77.95,117.9 76.15,116.4 73.8,115.85 L68.9,114.9 Q66.15,114.35 65.75,113.2 65.35,112 68.55,111.8 L73.5,111.6 Q74.8,111.45 76.55,110.75 M75.25,95.7 L60.3,95.95 68.05,105.85 80.25,105.85 79.9,105.35 75.25,95.7 M54.35,65.15 Q50.5,68.1 44.6,70 L64.95,68.9 60.15,56.6 Q59.3,61.45 54.35,65.15 M48,59.9 Q48.35,57.75 46.1,55.75 44.05,53.9 41.85,53.65 L40.45,53.4 47,62 48,59.9 M57.7,59.5 L57.65,59.5 54.6,55.4 Q54.8,62.7 47.55,67.6 54.9,64.4 57.7,59.5 M38.4,70.85 Q38,70.4 38.5,70.25 42,69.35 45,67.65 48.25,65.8 50.35,63.35 L50.15,63.05 49.45,61.65 Q48.8,63.95 44.95,66.4 L34.8,71.7 34.7,71.8 Q34.6,71.85 34.7,71.9 L34.9,71.95 35.65,72.05 45,72.25 72.8,71.5 Q74.1,71.9 76,73 L79.1,74.8 Q84.25,77.5 86.9,79.05 L79.85,66.5 79.8,66.35 Q75.8,68.3 70.1,69.45 63.9,70.65 54.7,71 L39.2,71.3 Q38.8,71.3 38.4,70.85 M145.3,86.2 L145.1,86.05 Q145.45,88.95 144.1,92.15 142.9,95 140.7,97.2 138.35,99.55 134.3,100.5 L135.4,105.05 Q137.8,105.45 140.4,104.55 142.8,103.7 144.8,101.95 148.35,98.8 148.45,94.45 148.6,90.2 145.5,86.55 L145.3,86.2 M153.65,84.45 Q156,81.65 159.1,80.95 153.65,76.7 147.95,74.3 148.95,79.55 146.45,86.35 L150.75,90.4 Q151.7,86.9 153.65,84.45 M129.5,81.1 L128.3,81.55 130.9,81.5 130.55,80.2 129.5,81.1 M140.6,72.05 L139.5,71.9 138.65,72.95 Q138.9,74.5 138.5,76.35 L140.25,77.7 Q140.9,75.05 140.6,72.05 M142.05,72.4 L142.1,72.45 Q142.5,76.05 141.65,79.15 143.5,81.2 144.55,83.7 L144.9,84.95 144.95,85.05 Q147.4,78.75 146.55,73.75 144.2,72.95 142.05,72.4 M106.2,98.85 Q102.05,98.4 99.6,97 L101.5,103.35 Q104.35,112.7 107.65,126.15 L108.75,130.6 Q109.1,127 109.7,124.6 L109.7,124.45 Q110.05,112.95 106.2,98.85 M114.1,98.2 Q110.8,99.1 107.45,98.95 110.55,110.5 111.15,119.6 L112,117 Q113.55,111.15 114.25,104.85 114.55,101.75 114.1,98.2 M121.4,98.75 L119.5,97.05 119.1,101.85 121.4,98.75 M115.75,97.7 L115.35,97.85 115.5,98.6 115.75,97.7 M118.9,87.15 Q118.15,88.6 119.2,90 120.65,91.9 125.1,94.1 125.55,94.3 125.9,94.95 126.2,95.55 125.5,95.2 122.35,93.7 120.2,91.95 117.9,94.85 121.15,97.1 123.65,98.85 126.95,99.25 135.15,100.15 139.9,95.4 142.85,92.4 143.5,87.35 143.95,83.5 140.65,79.45 137.15,75.3 133.15,76.05 135.6,78.35 135.75,81.5 L135.65,81.8 Q135,83.4 130.7,83.05 126.3,82.7 126.7,80.6 126.75,80.3 127.3,80.15 L128.1,79.85 Q129.6,79.3 127.25,77.9 125.9,77.6 124.2,78.65 122.65,79.55 121.9,80.85 120.35,83.45 123.15,86.25 125.25,88.4 128.25,89.5 128.8,89.75 129.05,90.45 129.2,91.1 128.45,90.8 123.55,88.95 121.15,85.35 119.55,85.9 118.9,87.15 M92,84.3 Q88.9,82.3 84.2,81.75 80.35,81.25 75.95,81.8 L75.1,81.5 Q74.6,81.15 74.55,80.75 L73.05,72.75 45.8,73.75 35.65,73.2 35.25,73.1 41.55,80.15 Q51.7,91.85 60.8,104.15 L62.2,105.85 67.15,105.9 59.3,95.8 59.25,95.45 59.5,95.25 75.35,94.9 75.55,95 75.8,95.25 81.05,106.15 Q81.25,106.6 80.85,106.6 L73.9,106.6 74.65,106.75 Q79.25,107.6 79.45,109.75 L79.35,110.75 99.3,110.2 99.7,110.4 100.05,110.7 104.3,131.15 104.2,131.2 71.35,128.45 71.1,128.35 Q69.05,129.6 66.8,129.45 L66.8,130.8 84.55,132.25 Q91.05,133 101.25,135.5 L109.1,137.7 Q105.55,122 102.15,110.1 L97.9,95.55 Q93.85,90.8 92,84.3 M86.85,85.55 Q86.7,85.2 87.05,85.15 87.4,85.1 87.6,85.4 L90.35,90.5 90.4,90.8 90.15,90.95 56.5,91.25 Q54.6,91.2 53.6,90.15 L43.35,78.65 Q43.15,78.45 43.2,78.3 43.25,78.1 43.45,78.1 L71.45,77.45 Q71.8,77.35 71.95,77.85 72.05,78.2 71.65,78.2 L44.4,78.85 54.5,90.1 54.65,90.4 89.4,90.15 86.85,85.55 M90.95,92.5 Q91.3,92.4 91.5,92.9 L96.25,104.5 Q96.4,104.75 96.15,104.75 95.7,104.75 95.55,104.4 L90.95,93.2 80.2,93.65 80.4,93.8 85.45,105.95 85.5,106.05 94.45,106.4 94.7,106.5 95,106.9 94.75,107.05 85.45,106.75 84.9,106.35 79.5,93.3 Q79.4,92.95 79.65,92.95 L90.95,92.5 M90.35,81.3 L90.35,81.4 91.45,82.25 91.1,80.6 90.35,81.3 M100.9,76.65 Q94.5,76.2 91.95,74.5 92.45,84.3 96.5,91.5 99.55,96.9 106.35,97.5 112.35,98 118.05,94.8 L118.15,94.8 Q117.35,92.5 118.75,90.8 L118.8,90.75 118.05,89.95 Q116.6,88.2 117.35,86.3 118.15,84.45 120.35,84.05 119.45,82 120.3,80.1 121.15,78.3 123.2,77.25 L125.15,76.7 125.2,76.45 125.4,76.15 125.7,76.1 Q128.25,76.55 129.95,77.8 131.95,79.25 132.45,81.35 L134.1,81 Q133.95,78.15 131.55,76.3 129.6,74.75 126.45,74.2 L126.25,74.15 Q124.25,75.95 117.15,76.5 L100.9,76.65 M91.75,83.55 L91.7,83.4 89.7,81.75 Q88.45,80.9 85.8,79.45 L78.35,75.05 Q75.6,73.35 74.45,72.9 L75.85,80.55 Q85.5,79.6 91.75,83.55 M102.85,72.4 Q106.3,70.75 108.35,70.8 110.3,70.8 113.85,72.4 117.8,74.2 119.3,74.45 L119.6,74.6 Q122.7,74 124.95,72.7 125.85,72.15 122.8,71.15 L119.3,70.2 108.9,69.5 Q102.2,69.5 99.9,69.65 92.75,70.3 91.95,72.55 92.3,73.35 94.3,73.85 L97.4,74.4 Q99,74.15 102.85,72.4 M97.05,39.1 Q96.7,38.8 96.25,38.8 95.6,38.9 95.4,39.95 95.15,41.05 95.55,42.5 95.85,43.6 97.25,45.45 97.85,43.5 99.3,40.15 98.15,40 97.05,39.1 M94.5,30.7 Q94.3,32.65 95.15,34.85 96.05,37.1 97.7,38.4 98.6,39.1 99.9,39 101.65,38.85 103.45,37.05 L105.35,34.15 94.5,30.7 M94.7,36.55 Q92.45,33.45 93.1,30.2 81.85,26.15 81.4,27.55 80.8,30.15 84.95,33.7 88.6,36.7 93.8,38.95 94.1,37.3 94.7,36.55 M122,26.7 Q127.25,27.6 134.45,29.65 L131.3,28.1 134.5,28.15 131.45,26.25 134.9,26.45 131.7,24.5 134.7,24.95 132.55,23.45 Q124.8,21.2 111.9,18.25 110.6,19.1 109.2,21.25 108.05,22.95 107.45,24.45 L122,26.7 M132.9,30.5 Q126.6,28.75 121.75,28 L106.6,25.6 87,27 101.7,31.9 Q106.75,33.45 123.5,35.5 143.1,37.85 152.15,36.85 153.7,36.65 144.95,34 L132.9,30.5 M139.5,38.4 L138.7,39.1 142.55,41.75 Q145.6,44.2 146.75,47.95 147.95,43.4 147.75,38.5 L139.5,38.4 M124.9,40.2 L122.2,39.3 Q122,39.05 123.05,37.25 115,36.15 106.75,34.4 L104.5,37.85 Q102.8,39.6 101.1,40.05 99.1,44.2 98.1,48.4 L98.55,48.25 100.2,48.7 Q100.9,48.95 100.9,49.55 L101.5,49.65 102.05,50.15 Q102.65,51.1 103.3,51.3 L105,51 106.2,49.7 Q106.65,48.9 106.6,48 106.55,47.35 107.35,47.7 108.1,48.05 108.15,48.55 108.25,50 107.4,51.2 106.6,52.5 105.2,52.75 102.75,53.25 100.85,50.25 L100.7,49.9 99.95,49.85 99.15,49.65 Q98.8,49.65 98.45,49.3 98.1,48.95 98.05,48.65 97.55,50.85 97.45,52.3 96.65,60.6 100.15,68.3 L108.05,67.95 108.65,67.55 Q106.85,66.25 106.75,65.35 106.6,64.35 107.45,63.8 L110.55,62.25 112.35,60.7 Q111.7,60.65 111.35,60.25 L109,57.45 Q108.45,56.75 108.95,56 111.35,52.4 112.05,50.8 L113.6,46.95 Q113.8,46.2 114.3,46.1 L114.35,46.1 114.6,46.4 114.65,47.05 114.3,48.6 111.65,55.7 Q111.3,56.6 111.95,57.25 L113.8,59.4 114,59.95 113.5,60.4 Q112.85,61.8 110.15,63.05 L112.1,63.15 Q112.85,63.3 113.3,63.8 113.8,64.3 113.55,64.85 L112.55,64.75 Q111.35,64.1 110.85,64.1 L109.25,64.2 Q108.25,64.45 108.15,64.85 108.05,65.5 108.4,65.85 L108.85,66.2 Q109.1,65.75 109.45,65.6 110.05,65.4 110.75,65.95 111.45,66.5 111.8,67.5 L112,67.95 Q126.9,68.1 127.05,72.55 L127,73 Q129.4,73.55 131.55,74.85 L134.45,74.7 Q138.45,70.55 141,64.75 L141.7,64.75 Q145.6,64.35 146.8,60.55 148,56.65 144.55,54.5 L144.25,53.9 145.85,54.1 Q145.65,53.65 145.8,53.2 L145.8,53.15 140.8,47.7 Q140.05,47.05 138.4,46.2 137.7,45.9 137.65,45.4 137.65,44.85 138.05,44.85 L138.25,44.85 Q139.55,45.2 141.5,46.75 144.05,48.8 146,52.25 L146.05,51.15 144.25,48.35 Q142.65,46.2 141.1,44.95 L137.25,42.2 Q136.8,42 136.9,41.65 137,41.3 137.45,41.25 L137.8,41.25 Q138.8,41.5 141.85,44.15 144.35,46.65 146.05,49.8 145.65,45.45 141.75,42.4 140.1,41.1 137.15,39.7 136.1,39.25 137.1,38.45 L137.25,38.35 136.8,38.35 125.3,37.5 Q128.65,40.05 128.4,41.6 127.85,41.65 124.9,40.2 M126.4,47.45 Q127.2,47.8 127.2,48.35 127.25,49.75 126.45,50.95 125.6,52.25 124.25,52.5 121.8,53.05 119.85,50.05 119.4,49.3 120.1,49.35 120.8,49.35 121.15,49.9 121.75,50.85 122.4,51.1 123.1,51.3 124.05,50.75 124.8,50.3 125.25,49.5 125.65,48.65 125.6,47.8 125.55,47.15 126.4,47.45 M128.45,48.1 L130.75,48.25 Q131.5,48.4 131.8,49 L131.75,49.55 131.3,49.65 129,49.55 Q128.4,49.55 128,48.85 127.65,48.1 128.45,48.1 M138.5,48.4 L138.7,48.4 Q140.05,48.8 141.1,49.8 L142.4,51.25 Q143.05,52.05 143,52.45 L142.8,52.65 140.4,50.65 Q139.6,50.1 138.7,49.7 L138.65,49.65 138.5,49.6 Q137.95,49.3 138.05,48.9 138.15,48.45 138.5,48.4 M106.55,39.85 L106.75,40.75 106.65,41.6 Q106.4,41.95 105.95,42 L102.25,42.5 102.15,42.5 101.75,42.4 102.05,41.95 105.35,39.45 105.8,39.25 Q106.3,39.15 106.55,39.85 M138.95,51.9 L139.2,51.95 Q139.8,52.25 140.4,52.75 141.1,53.35 141.25,54.05 141.35,54.75 140.75,54.85 140.25,54.9 140.15,54.35 140.15,53.95 139.45,53.45 138.9,53 138.75,53 138.4,52.8 138.45,52.4 138.55,51.95 138.95,51.9 M130,50.15 Q130.55,50.15 131.1,50.75 131.5,51.3 131.1,51.3 L129.05,51 127.9,50.35 Q127.5,49.8 127.9,49.8 L130,50.15 M141.7,30.4 L138.5,30.35 141,31.55 148.15,33.9 148.1,34 150.6,34.35 150.75,33.2 147.2,30.25 Q143.9,27.85 140.6,26.25 L141.95,27.2 138.9,26.75 142.1,28.7 138.65,28.5 141.7,30.4 M152.25,22.9 Q147.1,13.2 142.3,12.25 L140.5,11.9 Q136.2,11 132.8,9.75 L139.95,16.9 138.95,18.05 Q137.5,18.9 135.5,17.45 132.75,15.5 128.35,7.6 L125.85,5.4 Q122.7,2.15 121.3,2.55 120.5,2.75 120.1,4.25 L119.65,7.2 Q119.3,9.25 116.35,11.95 115.5,12.7 114.1,14.75 112.65,16.9 113.15,17.05 130.75,21.4 137.15,23.45 144.2,25.75 151.05,31.7 L152.25,22.9 M182.4,165.6 L182.6,165.75 200.35,195 203.15,198.6 Q205.55,201.6 205.7,201.2 206.05,199.85 205.25,197.2 L195.2,171.4 Q192.85,165.65 191.55,161.75 L182.4,165.6 M200.15,153.9 L200.45,149.2 Q198.2,151.6 194.7,153.6 192.25,155.05 188.1,156.8 L178.45,160.6 Q172.65,162.95 168.9,164.7 157.8,169.9 147.1,177.5 143.4,180.15 140.55,181.15 136.95,182.45 133.15,181.85 129.6,181.3 125.05,178.95 L113.6,171.9 110.85,175.95 121.9,183 Q128.35,186.75 133.7,187.6 137.6,188.2 142.2,185.65 L142.2,185.5 142.5,185.5 149.15,180.95 Q156.7,175.7 167.9,170.3 173.1,167.75 184.7,163.3 190.05,161.3 193.05,159.65 197.6,157.15 200.15,153.9 M166.55,108.5 Q165.75,108.15 165.65,107.75 164.95,105.5 161.25,103.3 163.7,107.6 164.2,111.75 164.25,112.05 163.55,111.65 162.75,111.2 162.7,110.85 161.95,105.25 157.4,98.95 154.1,94.35 148.05,88.75 150.15,92.1 149.95,95.55 149.7,99.15 146.95,102.3 144.95,104.65 141.85,105.75 L135.65,106.05 Q139,117.25 144.95,123.5 152.45,131.35 162.35,129.05 167.9,127.8 171.5,124.7 175.55,121.3 176.5,116.15 177.5,110.55 175.5,103.95 173.8,98.2 170.25,92.75 166.55,87.05 160.55,82.1 L160.5,82.15 Q157.25,82.85 154.95,85.75 153,88.25 152.2,91.75 157.45,97.1 160.45,101.85 L160.6,101.95 Q166.1,105.15 167.15,108.4 167.3,108.85 166.55,108.5 M205.15,107.6 L205.1,107.6 Q201.4,107.5 197.1,109 195.1,109.75 189.7,112.3 184.7,114.75 178.2,116.25 177.65,121.15 174.3,124.6 171.45,127.45 166.05,129.6 159.65,132.15 153.85,130.45 148.7,129 144.25,124.3 L142.75,124.95 141.55,125.65 Q144.7,126.05 148.45,129.35 151.1,131.65 153.6,135 L153.8,135.35 180.15,125.65 Q182.95,124.55 196.1,120.35 205.95,117.15 211.7,114.2 211.7,108.95 205.15,107.6 M209.65,121.35 Q211.15,118.05 211.55,115.75 206.35,118.25 197,121.2 185.9,124.65 182.25,126.15 173.4,129.7 154.25,136.45 154.9,138.7 153.9,142.55 L152.05,148.05 Q150.7,151.85 144.55,164.25 139.6,174.15 138.35,180.8 140.9,180.1 144,178.05 L149.15,174.45 Q156.7,169.2 167.9,163.8 173.1,161.25 184.7,156.8 190,154.85 193.1,153.1 197.6,150.6 200.2,147.35 L200.65,147.35 Q202,136.95 207,126.8 L209.65,121.35 M195.85,72.55 Q197.05,64.8 198.7,61.2 201.45,55.15 206.75,54.5 197.3,51.85 185.9,50.15 L164.65,47.7 Q162.3,50.05 158.4,51.2 154,52.5 148.15,52.05 L147.6,53.45 147.1,54.2 147.8,54.25 Q150.7,57.1 148.95,61.45 147.2,65.7 143.7,66 L143.2,66.05 Q142.35,67.95 140.35,70.7 148.9,72.35 157.5,78.5 165.15,84 170.9,91.55 174.55,96.4 176.5,102.5 178.5,108.65 178.3,114.65 L178.25,114.8 183,113.45 Q184.35,103.1 190,89.4 L193.45,81.15 Q195.2,76.55 195.85,72.55 M198.6,64.6 Q197.2,69.05 196.1,78.3 195.45,81.4 193.4,85.8 L190,93.05 Q185.8,103.7 184.6,112.9 188.1,111.65 191.35,110.05 195.1,108.25 197.8,107.45 201.4,106.4 204.65,106.45 204.35,106.25 204.35,106 204.45,96.2 205.25,89.3 206.35,80.05 208.95,73 212,64.75 212.4,62.25 213.65,54.85 207.7,55.7 201.05,56.6 198.6,64.6 M165.9,42.95 Q165.95,42.05 165.35,41.35 163.9,39.6 159,39 L149.95,38.55 149.9,43.7 Q149.5,47.3 148.55,50.75 155.75,51.1 160.5,48.95 165.25,46.85 165.9,42.95 M163.35,41.85 Q164.35,43.55 162.85,45.35 161.25,47.15 157.45,48.35 153.95,49.45 153.15,48.95 152.75,48.7 155.75,47.8 159.35,46.65 160.2,45.95 161.1,45.15 160.85,42.95 160.65,40.9 161.25,40.7 162.45,40.2 163.35,41.85Z"/></g></svg>