<?xml version="1.0" encoding="utf-8"?><svg id="Name_Clip" image-rendering="auto" baseProfile="basic" version="1.1" x="0px" y="0px" width="240" height="240" xmlns="http://www.w3.org/2000/svg" xmlns:xlink="http://www.w3.org/1999/xlink"><g id="Scene-1f10r1" overflow="visible"><path fill="#FFF" stroke="none" d="M105.2,208.25 Q106.75,207.15 106.95,204.7 102.95,206.8 94.75,205.8 L91.9,205.55 Q89.95,205.35 88.95,204.75 84.25,206.25 80.4,209.5 78.5,211.1 77.6,213.2 76.45,216 79.2,216.4 83.2,217.05 88.6,214.75 90.85,213.75 97.2,210.15 97.65,209.9 98.4,210.8 99.1,211.6 101.9,210.2 L105.2,208.25 M142.3,186.9 Q137.75,189.05 133.15,188.35 133.15,198.25 134.9,216.05 135.75,225.25 136.65,230.85 137.1,233.85 137.7,235.95 L138.15,237.7 Q138.4,238.25 138.95,237.4 140.05,235.85 140.5,232.8 L141,227.9 Q141.8,221.5 142.1,211.85 142.85,195.65 142.3,186.9 M96.65,187.35 Q90.3,188.3 91.3,180.25 92.05,174.65 95.1,168.5 85.3,164 79.2,158.7 79.55,172.95 82.35,184.05 84.4,191.8 88.45,201.2 L89.35,203.25 90.1,203.45 95.65,204.4 Q100.5,204.9 104.75,203.7 L106.9,202.6 106.95,202.6 108.1,179.7 Q102.55,186.5 96.65,187.35 M93.85,176.7 Q92.1,182.65 93.5,184.85 93.25,180 100.3,169.95 107.3,160.05 113,157 103.75,158.1 96.9,168.95 95.1,172.25 93.85,176.7 M116.95,166.15 Q115.85,168.55 113.9,171.4 L118.7,174.5 Q121.5,176.35 123.65,177.5 L123.65,177.45 126.2,164.95 Q121.95,166 116.95,166.15 M108.85,162.65 L103.85,168.6 Q99.1,174.75 96.1,181.15 L95.45,183.3 Q94.95,185.25 94.95,185.8 96.25,186.1 98.3,185.35 106.45,182.35 114,167.55 L108.85,162.65 M116.7,159.4 Q116.6,156.65 113.5,158.6 111.4,159.95 109.25,162.15 L114.35,166.9 115.55,164.45 Q116.8,161.55 116.7,159.4 M109.9,135.2 L109.85,135.2 110.7,138.75 Q110.75,139.15 110.3,139.05 105.25,137.4 98.35,135.7 100.7,137.1 103.3,139.9 L107.5,144.7 Q112.5,150.5 116.6,156.25 L116.65,156.3 Q117.8,156.75 118.25,158.25 119.05,160.9 117.55,164.85 122,164.55 126.25,163.3 L126.55,163.3 128.3,156.1 128,155.65 Q126.1,147.85 121.95,142.4 116.85,135.85 109.9,135.2 M134.3,136.5 Q133.2,140.3 131.8,147.85 L127.25,166.2 Q126.85,168.2 126.2,172.15 L124.9,178.05 124.85,178.1 Q129.55,180.5 133.65,181.1 135.3,181.4 137.15,181.05 L137,180.7 Q137.95,175.25 141.1,168.5 L146.85,156.9 Q150.75,148.5 152.4,142.45 153.3,139 153.05,136.6 152.75,133.5 147.8,129.85 142.9,126.1 139.85,126.8 136.15,129.9 134.3,136.5 M138.5,125.9 L139.15,125.75 141.85,123.95 143.3,123.25 Q136.8,115.75 133.55,103.7 115.85,113.2 111.35,125.15 110.25,129.05 110.1,134.2 116.8,135.35 122,141.4 126.45,146.6 128.8,154.1 L131,145.55 Q132.45,138.45 133.45,135.15 135.15,129.45 138.45,126.35 138.25,126.05 138.5,125.9 M131.2,131.6 Q131.45,132.2 130.7,131.9 L123.85,129.5 Q119.95,128.3 116.9,128.5 L118.9,128.7 Q121.1,129.3 124,131.05 129.3,134.35 131.8,139.05 132.1,139.65 131.35,139.4 L130.35,138.7 Q127.75,133.7 121.55,130.75 119.95,130 117.1,129.85 114,129.7 112.65,129.2 L112,128.65 Q111.45,128.1 111.9,127.95 116.05,126.5 121.3,127.7 123.15,128.1 130.4,130.75 130.9,130.95 131.2,131.6 M128.55,104.75 Q130.1,103.8 133.15,102.05 L132.85,100.75 Q127.7,101.45 123.05,99.65 117.7,105.4 113.9,116.4 L113.7,117.3 Q118.25,111.4 128.55,104.75 M43.2,187.9 L41.7,192.9 Q41,195.9 41.2,197.95 41.3,198.6 42.95,196.7 L45.7,192.6 Q48.15,188.4 52.6,178.95 59.65,163.8 62.45,155.45 L55.95,151.7 47.85,173.8 Q45.2,181.25 43.2,187.9 M54.05,117.35 Q50.45,106.85 58,101.8 L57.5,101.15 Q53.15,102.95 51.7,107 50.75,109.7 50.95,113.45 51.05,115.7 51.85,119.95 L54.75,133 Q55.25,135.5 55,142.15 54.75,147.95 56,151.05 L56,151.1 Q64.25,156.3 77.55,161.35 L77.45,157.15 74.8,154.4 Q62.9,149.7 55.5,144.95 55.1,144.65 55,144.3 54.95,143.95 55.5,144.3 62.8,149.05 73.95,153.45 69.15,147.7 66.8,142.25 63.75,135.25 65.2,129.6 L65.25,129.25 Q61.8,128.4 58.7,125 55.6,121.65 54.05,117.35 M79,111.4 Q78.25,112.25 76.4,112.65 L71.1,113.15 71.15,114.1 72.3,114.35 Q75,114.85 76.55,115.45 78.85,116.4 80.05,118 82.7,121.5 76.9,122.35 L76.95,122.7 Q75.95,125.4 73.1,126.35 L73.05,126.75 71.7,127.95 71.9,127.95 102.9,130.65 Q103.5,130.75 103.4,130.25 L99.4,110.8 79,111.4 M70.4,113.15 L68.15,113.3 Q67.1,113.4 67.6,113.45 L70.4,114 70.4,113.15 M76.55,110.75 Q78.95,109.75 77.35,108.8 75.5,107.7 71.9,107.45 L66.25,107.25 63.95,107.4 61.75,107.1 Q60.95,106.7 60.05,105.6 L58.7,103.5 Q55,106.35 54.8,111.45 54.6,116.05 57.05,120.65 59.5,125.2 63.05,127.1 66.9,129.2 70.3,126.75 L68.65,126.55 Q68.15,126.45 67.75,125.75 67.35,125.1 68.05,125.2 L72.05,125 Q74.05,124.3 75.1,122.55 L69.6,122.4 66.05,121.75 Q65.5,121.55 65.25,120.9 65.05,120.2 65.8,120.5 68.45,121.6 71.6,121.7 74.9,121.85 77.4,120.9 80.2,119.8 77.95,117.9 76.15,116.4 73.8,115.85 L68.9,114.9 Q66.15,114.35 65.75,113.2 65.35,112 68.55,111.8 L73.45,111.6 Q74.75,111.45 76.55,110.75 M75.25,95.7 L60.3,95.95 68.05,105.85 80.2,105.85 79.85,105.35 75.25,95.7 M60.15,56.6 Q59.25,61.45 54.35,65.15 50.45,68.1 44.6,70 L64.95,68.9 60.15,56.6 M47.95,59.9 Q48.3,57.75 46.05,55.75 44.05,53.9 41.8,53.65 L40.4,53.4 47,62 Q47.8,60.9 47.95,59.9 M57.65,59.5 L54.6,55.4 Q54.8,62.7 47.55,67.6 54.95,64.35 57.65,59.5 M38.35,70.85 Q37.95,70.4 38.5,70.25 41.95,69.35 44.95,67.65 48.25,65.8 50.35,63.35 L50.15,63.05 49.4,61.65 Q48.75,63.95 44.9,66.4 L34.75,71.7 Q34.4,71.9 34.9,71.95 L44.95,72.25 72.75,71.5 Q74.1,71.9 76,73 L86.85,79.05 79.8,66.5 79.8,66.35 Q75.8,68.3 70.1,69.45 63.9,70.65 54.7,71 L39.2,71.3 Q38.75,71.3 38.35,70.85 M145.3,86.2 L145.1,86.05 Q145.45,88.95 144.1,92.15 142.85,95 140.65,97.2 138.35,99.55 134.3,100.5 L135.4,105.05 Q137.8,105.45 140.4,104.55 142.75,103.7 144.75,101.95 148.35,98.8 148.45,94.45 148.6,90.2 145.45,86.55 L145.3,86.2 M153.65,84.45 Q155.95,81.65 159.05,80.95 153.75,76.8 147.95,74.3 148.95,79.55 146.45,86.35 L150.75,90.35 Q151.65,86.9 153.65,84.45 M128.3,81.55 L130.9,81.5 130.55,80.2 129.5,81.1 128.3,81.55 M139.45,71.9 L138.65,72.95 Q138.85,74.7 138.5,76.35 L140.25,77.7 Q140.85,75.05 140.6,72.05 L139.45,71.9 M146.5,73.75 Q144.25,72.95 142,72.4 L142.05,72.45 Q142.5,76 141.65,79.15 143.6,81.35 144.5,83.7 L144.85,84.95 144.95,85.05 Q147.35,78.7 146.5,73.75 M106.15,98.85 Q102.05,98.4 99.6,97 L101.5,103.35 Q104.35,112.7 107.65,126.15 L108.75,130.6 Q109,127.45 109.7,124.6 L109.7,124.45 Q110.05,112.85 106.15,98.85 M114.1,98.2 Q111,99.05 107.4,98.95 110.55,110.45 111.1,119.6 L112,117 Q113.6,110.55 114.2,104.85 114.55,101.85 114.1,98.2 M121.35,98.75 L119.5,97.05 119.1,101.85 121.35,98.75 M115.75,97.7 L115.35,97.85 115.45,98.6 115.75,97.7 M118.9,87.15 Q118.15,88.6 119.2,90 120.65,91.95 125.1,94.1 125.55,94.3 125.9,94.95 126.15,95.55 125.45,95.2 122.2,93.6 120.15,91.95 117.9,94.85 121.1,97.1 123.65,98.85 126.95,99.25 135.15,100.15 139.9,95.4 142.85,92.4 143.5,87.35 143.95,83.45 140.6,79.45 137.1,75.3 133.15,76.05 135.55,78.3 135.7,81.5 L135.65,81.8 Q134.95,83.4 130.65,83.05 126.3,82.7 126.7,80.6 126.75,80.3 127.3,80.15 L128.1,79.85 Q129.6,79.3 127.25,77.9 125.85,77.6 124.15,78.65 122.6,79.55 121.85,80.85 120.35,83.45 123.15,86.25 125.25,88.4 128.2,89.5 128.75,89.75 129,90.45 129.2,91.1 128.45,90.8 123.5,88.95 121.1,85.35 119.55,85.9 118.9,87.15 M92,84.3 Q88.9,82.3 84.2,81.75 80.35,81.25 75.95,81.8 L75.1,81.5 Q74.55,81.15 74.5,80.75 L73.05,72.75 45.8,73.75 35.25,73.1 41.55,80.15 62.15,105.85 67.1,105.9 Q65.8,104.65 63.75,101.45 L59.3,95.8 59.2,95.45 59.45,95.25 75.35,94.9 75.55,95 75.8,95.25 81,106.15 Q81.3,106.6 80.8,106.6 L73.9,106.6 74.6,106.75 Q79.25,107.6 79.45,109.75 L79.35,110.75 99.3,110.2 99.7,110.4 100,110.7 104.3,131.15 104.15,131.2 71.3,128.45 71.05,128.35 Q69,129.6 66.8,129.45 L66.75,130.8 84.55,132.25 Q91.05,133 101.25,135.5 L109.1,137.7 Q105.8,123.2 102.15,110.1 L97.9,95.55 Q93.9,90.9 92,84.3 M86.85,85.55 Q86.7,85.2 87.05,85.15 87.4,85.1 87.55,85.4 L90.35,90.5 90.35,90.8 90.15,90.95 56.5,91.25 Q54.55,91.2 53.6,90.15 L43.3,78.65 43.2,78.3 Q43.25,78.1 43.45,78.1 L71.4,77.45 Q71.7,77.4 71.95,77.85 L71.65,78.2 44.35,78.85 54.65,90.4 89.4,90.15 86.85,85.55 M90.95,92.5 Q91.3,92.4 91.5,92.9 L96.25,104.5 96.15,104.75 Q95.6,104.75 95.55,104.4 L90.95,93.2 80.2,93.65 80.4,93.8 85.45,105.95 85.5,106.05 94.45,106.4 94.7,106.5 94.95,106.9 94.75,107.05 85.4,106.75 84.9,106.35 79.5,93.3 Q79.4,92.95 79.65,92.95 L90.95,92.5 M90.3,81.3 L90.35,81.4 91.45,82.25 91.05,80.6 90.3,81.3 M100.9,76.65 Q94.5,76.2 91.95,74.5 92.45,84.3 96.5,91.5 99.55,96.9 106.35,97.5 112.35,98 118.05,94.8 L118.15,94.8 Q117.35,92.5 118.75,90.8 L118.8,90.75 118.05,89.95 Q116.6,88.2 117.35,86.3 118.15,84.45 120.35,84.05 119.45,82 120.3,80.1 121.15,78.3 123.2,77.25 L125.15,76.7 125.2,76.45 125.4,76.15 125.7,76.1 Q128.25,76.55 129.95,77.8 131.95,79.25 132.45,81.35 L134.1,81 Q133.95,78.15 131.55,76.3 129.6,74.75 126.45,74.2 L126.25,74.15 Q124.25,75.95 117.15,76.5 L100.9,76.65 M91.75,83.55 L91.7,83.4 89.7,81.75 78.35,75.05 Q75.6,73.35 74.45,72.9 L75.8,80.55 Q85.4,79.65 91.75,83.55 M119.3,70.2 L108.85,69.5 99.9,69.65 Q92.7,70.3 91.95,72.55 92.3,73.35 94.25,73.85 L97.4,74.4 Q108.45,72.8 119.3,74.45 L119.55,74.6 Q122.65,74 124.9,72.7 125.8,72.15 122.8,71.15 L119.3,70.2 M105.15,66.4 Q104.15,66.5 104.45,67.25 104.65,67.8 104.95,68 L119.15,68.4 125.4,64.65 126.1,63.9 Q126.35,63.3 125.7,62.9 125.1,62.5 124.45,62.6 L123.4,62.9 120.25,64.4 Q116.6,66 114.35,66.4 L113.05,66.55 Q109.6,66.9 105.3,66.4 L105.15,66.4 M99.3,40.15 Q98.2,40 97.05,39.1 96.6,38.8 96.25,38.8 95.6,38.9 95.4,39.95 95.15,41.05 95.55,42.5 95.8,43.6 97.2,45.45 98.1,42.75 99.3,40.15 M94.65,36.55 Q92.5,33.45 93.05,30.2 81.85,26.1 81.35,27.55 80.75,30.2 84.95,33.7 88.6,36.7 93.8,38.95 94.05,37.45 94.65,36.55 M94.5,30.7 Q94.3,32.7 95.1,34.85 96,37.1 97.65,38.4 98.55,39.1 99.85,39 101.7,38.85 103.4,37.05 L105.35,34.15 94.5,30.7 M121.95,26.7 Q127.2,27.55 134.4,29.65 L131.3,28.1 134.45,28.15 131.4,26.25 134.9,26.45 131.65,24.5 134.7,24.95 132.55,23.45 Q124.8,21.2 111.9,18.25 110.6,19.1 109.2,21.25 108.05,22.95 107.4,24.45 L121.95,26.7 M132.9,30.5 Q126.6,28.75 121.75,28 L106.55,25.6 86.95,27 Q90.7,28.05 97.4,30.35 L101.7,31.9 Q106.75,33.45 123.5,35.5 143.1,37.85 152.15,36.85 153.65,36.65 144.9,34 L132.9,30.5 M139.5,38.4 L138.7,39.1 Q140.9,40.4 142.55,41.75 145.6,44.2 146.75,47.95 147.95,43.4 147.75,38.5 L139.5,38.4 M128.4,41.6 L128.35,41.6 122.15,39.3 Q121.85,38.95 123.05,37.25 115.2,36.2 106.75,34.4 L104.5,37.85 Q102.8,39.6 101.05,40.05 98.05,46.4 97.4,52.3 96.6,60.6 100.1,68.3 L102.75,68.1 102.3,67.45 102.05,66.7 Q102,66.3 102.2,65.95 L103.75,63.75 104.05,63.5 104.3,63.9 104.35,64.55 Q104.35,64.9 104.6,65.25 104.95,65.5 105.3,65.5 L112.55,65.75 113.8,65.55 Q115.7,65.2 119.5,63.6 L122.9,62 123.55,61.45 Q123.85,61 123.7,60.7 L123,59.3 Q122.7,58.9 123.05,58.8 L123.35,58.9 128.25,61.7 128.85,62.25 129.05,63.05 128.55,67.25 Q128.5,67.7 128.3,67.75 L127.85,67.45 127.65,65.4 Q127.25,64.95 126.65,64.95 L126.25,65.1 121.45,68.8 Q127,69.95 127.05,72.55 L127,73 Q129.4,73.55 131.55,74.85 L134.4,74.7 Q138.4,70.55 140.95,64.75 L141.7,64.75 Q145.6,64.35 146.8,60.55 148,56.65 144.5,54.5 L144.25,53.9 145.85,54.1 Q145.65,53.65 145.8,53.2 L145.8,53.15 140.75,47.7 Q139.9,46.95 138.35,46.2 137.7,45.9 137.65,45.4 137.6,44.85 138.05,44.85 L138.25,44.85 Q139.55,45.2 141.5,46.75 142.85,47.85 144.25,49.65 L145.95,52.25 146.05,51.15 Q143.3,46.75 141.05,44.95 139.3,43.45 137.25,42.2 136.8,42 136.9,41.65 137,41.3 137.45,41.25 L137.8,41.25 Q138.75,41.5 141.8,44.15 144.15,46.4 146.05,49.8 145.65,45.5 141.75,42.4 139.85,40.95 137.1,39.7 136.45,39.45 136.65,38.95 L137.05,38.45 137.25,38.35 136.8,38.35 125.3,37.5 Q128.65,40.15 128.4,41.6 M123.75,45 Q124.4,44.95 124.95,45.85 125.5,46.7 125.6,48 125.65,49.35 125.25,50.25 124.85,51.25 124.15,51.3 123.4,51.3 122.85,50.45 122.3,49.55 122.25,48.25 122.15,47 122.6,46.05 123,45.1 123.7,45 L123.75,45 M138.5,48.4 L138.65,48.4 Q139.95,48.75 141.05,49.8 L142.4,51.25 142.95,52.45 142.8,52.65 Q142.55,52.7 141.75,51.9 L140.4,50.65 138.5,49.6 Q137.9,49.3 138,48.9 138.15,48.45 138.5,48.4 M106.75,40.75 L106.65,41.6 105.9,42 102.25,42.5 102.15,42.5 101.7,42.4 102.05,41.95 105.35,39.45 105.8,39.25 Q106.35,39.15 106.5,39.85 L106.75,40.75 M103.25,47.95 Q103.65,47.05 104.35,46.95 105.05,46.9 105.6,47.8 106.15,48.65 106.2,49.95 106.3,51.25 105.9,52.2 105.5,53.1 104.8,53.15 L104.75,53.15 Q104.05,53.25 103.5,52.35 102.95,51.45 102.85,50.15 102.75,48.9 103.25,47.95 M114.35,46.1 L114.6,46.4 114.65,47.05 111.65,55.7 Q111.3,56.5 111.9,57.25 L113.8,59.4 Q114.05,59.65 113.95,59.95 L113.55,60.35 112.6,60.7 Q111.75,60.7 111.3,60.25 L109,57.45 Q108.4,56.7 108.9,56 L112.05,50.8 113.55,46.95 Q113.8,46.2 114.3,46.1 L114.35,46.1 M138.95,51.9 L139.2,51.95 Q139.8,52.25 140.4,52.75 L141.25,54.05 Q141.35,54.75 140.75,54.85 140.25,54.9 140.15,54.35 L139.4,53.45 138.75,53 Q138.4,52.8 138.45,52.4 138.55,51.95 138.95,51.9 M138.45,30.35 L141,31.55 148.1,33.9 148.1,34 150.55,34.35 150.75,33.2 Q146,28.8 140.55,26.25 L141.95,27.2 138.9,26.75 142.05,28.7 138.65,28.5 141.7,30.4 138.45,30.35 M152.25,22.9 Q147.1,13.2 142.3,12.25 L140.5,11.9 Q136.2,11 132.8,9.75 L139.9,16.9 138.9,18.05 Q137.45,18.9 135.5,17.45 132.65,15.45 128.3,7.6 L125.85,5.4 Q124.3,3.85 123.5,3.25 122.15,2.3 121.25,2.55 120.45,2.75 120.1,4.25 L119.65,7.2 Q119.3,9.1 116.35,11.95 115.5,12.7 114.1,14.75 112.6,16.9 113.15,17.05 130.55,21.4 137.1,23.45 144.35,25.8 151,31.7 L152.25,22.9 M182.4,165.6 L182.6,165.75 193.7,184.55 200.35,195 203.15,198.6 Q205.55,201.6 205.7,201.2 206.05,199.85 205.25,197.2 L195.15,171.4 Q192.8,165.6 191.5,161.75 L182.4,165.6 M200.15,153.9 Q200.15,151.55 200.45,149.2 198.15,151.6 194.7,153.6 192.2,155.05 188.05,156.8 L178.45,160.6 Q172.55,162.95 168.9,164.7 157.6,170.05 147.1,177.5 143.45,180.15 140.5,181.15 136.9,182.45 133.15,181.85 129.55,181.3 125.05,178.95 L113.6,171.9 110.85,175.95 121.85,183 Q128.35,186.75 133.65,187.6 137.55,188.2 142.2,185.65 L142.2,185.5 142.5,185.5 149.1,180.95 Q156.55,175.8 167.9,170.3 172.75,167.9 184.65,163.3 190,161.3 193.05,159.65 197.55,157.15 200.15,153.9 M176.5,116.15 Q177.5,110.55 175.5,103.95 173.8,98.2 170.25,92.75 166.45,86.95 160.55,82.1 L160.45,82.15 Q157.2,82.85 154.95,85.75 152.95,88.25 152.2,91.75 157.45,97.1 160.45,101.85 L160.6,101.95 Q166.05,105.1 167.15,108.4 167.3,108.85 166.55,108.5 L165.6,107.75 Q164.85,105.45 161.25,103.3 163.7,107.7 164.2,111.75 164.25,112.05 163.5,111.65 162.75,111.2 162.7,110.85 161.6,102.6 152,92.65 L151.95,92.85 151.15,92.8 Q150.35,92.35 150.45,91.9 L150.6,91.15 148,88.75 Q150.15,92.1 149.9,95.55 149.65,99.15 146.95,102.3 144.9,104.65 141.8,105.75 L135.65,106.05 Q139,117.3 144.95,123.5 152.4,131.35 162.3,129.05 167.85,127.8 171.5,124.7 175.55,121.3 176.5,116.15 M205.1,107.6 L205.05,107.6 Q201.35,107.5 197.1,109 195,109.8 189.65,112.3 184.75,114.7 178.2,116.25 177.65,121.15 174.25,124.6 171.4,127.45 166.05,129.6 159.65,132.15 153.85,130.45 148.7,129 144.25,124.3 L141.5,125.65 Q144.7,126.05 148.4,129.35 151.15,131.7 153.55,135 L153.75,135.35 180.15,125.65 Q183,124.55 196.05,120.35 205.9,117.15 211.65,114.2 211.7,108.95 205.1,107.6 M209.65,121.35 Q211.1,118.05 211.5,115.75 206.25,118.25 197,121.2 185.8,124.7 182.2,126.15 173,129.85 154.25,136.45 154.9,138.75 153.9,142.55 L152,148.05 Q150.7,151.95 144.55,164.25 139.6,174.15 138.35,180.8 140.85,180.1 144,178.05 L149.1,174.45 Q156.55,169.3 167.9,163.8 172.75,161.4 184.65,156.8 190,154.8 193.1,153.1 197.6,150.6 200.2,147.35 L200.6,147.35 Q201.9,137.15 207,126.8 L209.65,121.35 M195.85,72.55 Q197.05,64.8 198.7,61.2 201.45,55.15 206.75,54.5 197.3,51.85 185.9,50.15 L164.6,47.7 Q162.3,50.05 158.4,51.2 154,52.5 148.15,52.05 L147.6,53.45 147.1,54.2 147.75,54.25 Q150.7,57.1 148.95,61.45 147.2,65.7 143.7,66 L143.2,66.05 Q142.1,68.3 140.3,70.7 148.85,72.35 157.45,78.5 165.1,84 170.85,91.55 174.55,96.4 176.5,102.5 178.45,108.65 178.25,114.65 L178.25,114.8 182.95,113.45 Q184.25,103.45 190,89.4 L193.45,81.15 Q195.2,76.55 195.85,72.55 M198.6,64.6 Q197.2,69.05 196.05,78.3 195.4,81.4 193.35,85.8 L190,93.05 Q185.7,103.9 184.55,112.9 188.25,111.6 191.35,110.05 195.15,108.25 197.8,107.45 201.4,106.4 204.65,106.45 204.35,106.25 204.35,106 204.4,96.3 205.25,89.3 206.3,80.05 208.9,73 211.95,64.75 212.35,62.25 213.6,54.85 207.65,55.7 201.05,56.6 198.6,64.6 M165.85,42.95 Q165.95,42.15 165.3,41.35 163.9,39.6 158.95,39 L149.9,38.55 Q150.15,41.5 149.85,43.7 149.5,47.35 148.5,50.75 155.75,51.1 160.5,48.95 165.2,46.85 165.85,42.95 M163.35,41.85 Q164.35,43.55 162.8,45.35 161.25,47.15 157.45,48.35 153.95,49.45 153.15,48.95 152.75,48.7 155.7,47.8 159.3,46.65 160.15,45.95 161.05,45.15 160.8,42.95 160.65,40.9 161.25,40.7 162.45,40.2 163.35,41.85Z"/></g></svg>