<?xml version="1.0" encoding="utf-8"?><svg id="Intelligence" image-rendering="auto" baseProfile="basic" version="1.1" x="0px" y="0px" width="240" height="240" xmlns="http://www.w3.org/2000/svg" xmlns:xlink="http://www.w3.org/1999/xlink"><g id="Scene-1f4r1" overflow="visible"><path fill="#FFF" stroke="none" d="M96.95,217.6 Q96.75,216.15 96.35,215.05 L95,211.5 85.05,216.1 Q89.15,219.85 92.5,220.75 L94.55,220.8 96.45,219.95 Q97.2,219.55 96.95,217.6 M127.2,208.3 L126.65,208.25 Q122.7,207.75 122.3,208.95 L121.2,211.6 Q119.45,215.5 120.15,223.25 120.45,226.7 122.15,229.85 123.55,232.6 125.3,234.05 126.1,233.8 127.4,232.85 129.65,231.25 131.25,231.4 L133.65,231.8 Q134.45,231.95 173.8,224.6 L214.3,217.05 Q216.45,216.75 215.95,215 215.4,213.3 213.65,213.65 L172.1,222.4 Q133.9,230.3 132.6,229.75 131.65,229.4 129.9,230.3 L127.4,231.95 125.75,232.05 Q124.9,231.55 125.25,230.5 L123.9,226.1 Q122.6,221.1 122.85,218.25 123.1,215.5 124.8,211.8 L126.4,208.65 127.2,208.3 M82.75,191.6 L85.7,194.5 Q91.85,202 95.6,209 L98.05,213.95 Q99.3,217.15 98.95,219.4 103.65,216.15 103.55,208.9 99.95,203.9 94.1,199.3 89.55,195.65 82.75,191.6 M84.75,156 L82.15,154.65 82.9,163.4 Q83.35,166.8 86.5,169.95 L87.75,171.05 Q89.65,167.3 91.55,164.15 L89.9,157.35 Q87.8,157.5 84.75,156 M69.5,187.7 Q66.7,188.45 67.55,191.7 70.3,201.85 82.65,213.8 L83.2,214.35 93.8,209.5 93.95,209.4 Q91.05,203.7 84.45,195.6 79.7,190.3 74.9,188.3 71.85,187.05 69.5,187.7 M72.2,183.95 L71.2,183.9 70.5,183.05 69.15,179.4 Q67.55,181.1 65.15,181.5 L61.25,181.15 Q61.3,185.7 62.9,190.45 64.15,194.1 65.6,196.4 L68.7,198.5 Q67.25,196 66.45,194 64.35,188.8 66.1,186.75 67.95,184.6 71.75,185.3 74.65,185.85 77.5,187.6 L79.85,189.2 80.05,188.2 85.95,174.65 Q79.05,177.6 72.2,183.95 M32.4,149.4 Q31.35,155.4 37.2,161.8 42.45,167.45 49.15,170.9 50.7,171.7 51.85,171.95 L54.65,172.05 Q56.7,171.85 57.55,172.45 58.55,173.15 58.95,174.55 L59.45,177.05 Q60,179.85 63.4,179.45 66.65,179.1 68.1,176.95 65.7,171.55 62.5,166.6 L60.75,164.2 Q58.95,162.05 56.5,159.8 L50.7,155.1 Q44.1,151.15 38.55,149 35.85,147.9 34.95,147.8 32.7,147.45 32.4,149.4 M72.6,132.6 L65.85,139.25 Q58.35,147 52.5,154.3 56.25,157.1 59,159.8 L62.9,164.2 64.15,166.05 Q69.1,174.15 71.7,181.15 78.4,175.15 85.3,172.4 82.35,169.65 79.95,163.8 L79.85,155.35 Q78.5,155.45 75.7,151.45 72.4,146.75 74.6,142.35 L72.6,132.6 M74,114.2 L71.05,112.6 77.1,142.3 76.95,143.15 Q75.1,146.45 80.7,149.75 84.2,151.8 89.45,153.35 L81.4,115.4 Q77.8,115.9 74,114.2 M67,81.85 L63.8,79.55 Q61.2,77.5 65.3,75.15 64.1,74.6 63,74.5 61.6,74.4 61.15,75.25 60.3,76.85 67.4,101 L67.4,101.05 67.1,102.2 Q65.95,103.4 69.75,105.95 74,108.8 80.35,110.1 80.7,106.15 77.5,94.1 74.85,84.05 73.75,81.65 72.3,82.55 70.15,82.55 68.3,82.55 67,81.85 M68.75,45.75 L67.4,39.5 66.4,40.45 66.1,47.95 64.65,42 63.1,42.1 68.1,76.1 68,66.5 69.3,75.85 69.95,66.3 Q70.1,66.3 70.45,71.05 L70.7,74.05 Q70.85,75.8 70.95,75.8 L72.7,65 72.15,75.9 72.8,74.1 72.85,74.05 73.25,72.55 Q74.3,68.6 74.85,64.6 75.85,57.55 74.65,52.95 72.3,43.45 72.15,35.15 L71.5,45.35 70.25,36.9 69.35,37.75 68.75,45.75 M61.3,42.25 L62.75,40.8 61.65,38.65 Q60.35,36.7 59.4,37.6 58.5,38.5 61.15,55.45 62.5,63.95 64,72.25 L66.5,73.3 61.3,42.25 M101.2,70.35 Q90.4,69.95 82.8,72.55 80.9,73.2 79.2,74.05 76.7,75.3 74.65,76.9 L73.1,78.15 73.4,78.5 74.8,78.85 77.65,77 Q81.05,75.15 84.1,75.5 82.1,76.15 78.95,77.85 75.95,79.5 76.2,79.65 L76.65,79.95 79.85,78.55 Q83.75,77.1 88.05,77.45 83.25,78.35 80.85,79.65 78.6,80.85 79.65,80.75 L159.4,69.9 157.35,67.75 150.15,68.05 156.45,66.75 156,66.25 149.3,66.85 154.75,64.85 153.7,63.75 Q135.25,70.85 122.3,71.4 L117.85,71.5 101.2,70.35 M83.95,66.3 L89.95,65.25 73.3,35.05 Q74.65,45.85 76.7,53.3 78,57.95 76.75,65.25 76.15,68.95 75.25,71.65 77.55,68.05 83.95,66.3 M112.45,68.5 Q108.1,68.55 110.15,64.9 96.4,63.65 84.95,67.6 81.05,68.95 78.2,70.65 75.9,72 75.7,72.55 L75.15,74.05 74.45,75.4 75.9,74.05 Q76.95,73.3 78.55,72.55 80.95,71.45 84.55,70.45 88.35,69.35 100.1,69.1 L117.7,69.95 Q117.65,68.7 115.9,68.45 L112.45,68.5 M106.25,34.4 L105.35,34.25 Q104.65,34.45 104.65,35.65 104.65,36.9 105.3,38.3 105.9,39.55 107.7,41.15 108.05,38.3 108.85,35.05 107.65,35.15 106.25,34.4 M145.9,17.95 L145.55,18.1 Q142.8,19.3 141.65,20.2 140.25,21.2 139.25,21.5 137.85,21.85 136.8,21.15 133.1,18.8 129.85,19.7 128.5,20.1 127.65,20.95 125.55,23.05 123.95,23.5 L122.05,23.65 118.4,23.4 Q117.85,23.55 117.5,23.9 116.9,24.55 115.5,27.9 L113.95,31.6 Q112.5,33.8 110.7,34.6 108.9,41.4 109.25,47.4 L109.3,48.4 Q110.15,58.9 116.9,67.05 L119.15,69.5 129.1,68.5 128.95,68.3 129.35,67.95 133.25,66.3 133.45,66.25 Q134.4,65.95 134.7,66.7 L134.8,67.3 144.55,64.45 153.6,61.1 Q154.4,60.75 155,61.45 L155.15,61.65 Q157.05,57.8 158.2,53.05 L158.95,52.85 Q163.05,51.7 163.55,47.4 164.1,43 159.95,41.4 159.15,40.8 159.75,40.2 L160.5,39.75 160.55,39.35 154.65,34.9 Q153.4,34.2 151.75,33.8 151,33.6 150.85,33 150.65,32.5 151.1,32.35 L151.35,32.35 Q152.8,32.45 155.2,33.75 157,34.75 158.75,36.35 L160.95,38.6 161,38.6 160.9,37.55 158.4,34.9 Q156.35,33 154.4,31.95 L149.75,29.75 Q149.25,29.6 149.3,29.2 149.3,28.75 149.75,28.65 L150.15,28.6 Q151.15,28.65 155,30.9 L158.75,34 160.65,36.1 Q160.05,34.05 158.75,32.4 157.15,30.4 154.55,29.05 152.7,28.05 149.1,27.1 148.4,26.9 148.5,26.35 L148.8,25.8 Q152.05,22.55 150.2,19.8 148.5,17.2 145.9,17.95 M136.65,32.85 Q133.8,34.55 132.7,35.7 L130.85,38.2 Q130.45,38.3 128.4,36.3 126.35,34.3 126.65,34.05 L128.05,34.45 129.85,34.55 Q131.3,33.55 134.55,32.2 138.35,30.65 139.2,31.1 139.2,31.35 136.65,32.85 M126.05,44.8 L125.1,49.25 Q125,49.65 125.2,50.1 L125.7,50.8 128.15,52.7 128.45,53.3 128.05,53.8 127.1,54.35 125.65,54.15 122.6,51.6 Q121.9,51 122.25,50 L124.6,43.95 125.4,39.5 Q125.6,38.6 126,38.45 L126.05,38.45 Q126.6,38.35 126.6,39.4 L126.05,44.8 M139.8,40.95 Q139.75,42.3 138.95,42.75 L137.35,42.6 Q136.4,42.1 135.6,40.95 134.4,41.35 132.95,40.6 L132.65,40.1 132.75,39.55 Q133.1,38.95 133.8,39.35 L135.3,39.45 135.45,39.4 136.9,38.55 Q137.8,38.05 138.2,36.8 L139,38.05 Q139.8,39.55 139.8,40.95 M152.35,36.1 L152.5,36.1 Q153.95,36.2 155.35,37.05 156.25,37.6 157,38.35 157.85,39.15 157.85,39.55 L157.75,39.8 154.8,38.1 152.55,37.4 Q151.85,37.15 151.9,36.7 151.95,36.25 152.35,36.1 M153.5,39.75 L153.75,39.75 Q154.3,39.8 155.2,40.35 156.05,40.85 156.35,41.6 156.65,42.3 156,42.5 L155.6,42.5 155.3,42.15 Q155.15,41.75 154.3,41.3 L153.5,40.9 Q153.05,40.8 153.05,40.35 153.1,39.85 153.5,39.75 M120.75,40.95 L119.85,41.15 114.7,39.7 Q113.6,39.45 114.65,39.05 L119.4,38.85 120.4,36.95 Q120.85,36.8 121.1,37.75 L121.25,39.15 121.15,40.15 120.75,40.95 M114.8,45.65 L114.75,45.1 Q114.9,44.4 115.7,44.6 L116.75,44.55 117.85,43.9 Q118.75,43.4 119.05,42.2 L120.1,43.7 Q120.75,44.95 120.7,46.1 120.7,47 120.3,47.4 L120,47.6 118.6,47.45 118.55,47.4 Q117.75,46.95 117.15,46 L115.25,46.05 114.8,45.65 M118.75,63.45 Q118.35,63.1 118.5,62.65 L119.15,62.55 121.9,63.1 Q124.2,63.25 125.8,62.3 130.25,59.2 132.95,58.7 133.15,57.15 133.75,55.5 135,52.2 137.3,51.4 139.35,50.75 141.05,52.8 142.45,54.6 142.65,56.15 L144.95,56.65 Q146,57.2 146.4,58.4 146.2,58.95 145.5,58.75 L144.9,58.2 144.5,57.6 141.55,57.5 141.45,57.55 Q137.3,58.8 133.6,60.55 131.8,61.4 129.4,62.9 L126.35,64.8 121.7,64.9 Q119.65,64.2 118.75,63.45 M138.1,54.75 L138.95,54.2 Q139.7,55.35 139.15,57.1 L140.95,56.6 Q141,54.3 139.7,53.15 138.75,52.4 137.75,52.65 136.55,53 135.65,54.8 134.8,56.5 134.8,58.05 L134.7,58.8 137.8,57.6 Q138.75,55.9 138.1,54.75 M148.2,10.3 L144.35,7.6 Q141.15,5.25 138.2,5.65 L133.65,5.8 130.35,4.75 Q127.95,3.95 126.5,4.35 L126.25,4.45 Q125.35,4.8 124.25,8.05 L122.75,12.35 Q122.35,13 121.6,13.25 L117.15,13.55 116.05,14 Q115.55,14.3 114.95,15.15 113.6,16.9 111.6,21.1 110.45,23.6 108,24.25 L104.7,24.05 Q103.25,23.45 102.9,21.6 102,23.15 101.85,24.95 101.7,27.25 103.1,29.75 104.5,32.35 106.75,33.5 107.85,34.1 109.25,33.75 111.1,33.2 112.65,30.95 L114.15,27.4 Q115.55,24 116.35,23.2 117.45,22.1 118.4,21.85 L121.2,22 122.7,22.3 123.3,22.25 124.65,21.3 128.95,16.6 Q129.35,16.25 129.7,16.2 131.4,15.7 135.05,17.95 138.85,20.25 139.2,20.25 L139.5,20.15 Q140.25,19.95 142.15,18.35 144.2,16.6 145.15,16.2 L146.15,15.85 Q148.7,15.1 150.7,16.55 152.15,17.55 152.95,19.4 153.5,20.7 152.6,22.95 L150.7,26.2 Q153.85,27.35 155.35,28.15 L158.75,30.75 Q160.15,32.15 161.05,34 161.25,31.15 160.85,27.55 160.3,22.7 158.75,19.45 158,17.9 157,16.7 L153.15,12.9 Q150.3,10.55 148.2,10.3 M206.45,188.75 L205.9,189.05 Q205.4,189.4 205.55,189 L133.4,206.3 Q130.85,207.75 129.1,208.2 L130.35,212.25 Q130.4,212.5 149.95,208.2 169.5,203.9 169.55,204.15 169.6,204.4 150.25,209.75 130.85,215.05 130.9,215.3 L130.9,218.55 130.5,221.5 Q130.4,221.95 148.15,219.2 165.9,216.5 165.8,216.9 L147.65,221.4 Q129.5,225.65 129.45,225.9 L128.9,227.8 Q131.65,226.45 133.6,227.3 L142.7,227 212.4,211.15 210.1,208.6 Q209.85,208.35 189.6,212.15 169.35,215.95 169.1,215.6 168.95,215.35 188.35,210.4 207.8,205.5 207.65,205.2 L206.35,202.75 176.15,208.1 Q176.05,207.7 190.65,203.5 205.35,199.25 205.3,198.85 L205.15,196.4 Q205.15,196 193.15,198.4 L181.2,200.45 Q181.25,200.1 193.4,196.2 205.55,192.35 205.6,192.05 205.95,190.05 206.45,188.75 M176.85,179.3 Q170.9,185.45 163.65,188.55 149.7,194.6 130,185.5 L127.7,190.85 Q124.85,196.85 122.05,200.85 118.45,206 114,210.8 110.5,214.55 108.9,215.7 L107.75,215.85 Q107.25,215.6 107.05,215 L105.4,211.8 Q104.75,216.9 101.4,219.95 L101.15,220.2 Q113.55,228.3 119.45,231.85 116.35,227.75 115.95,223.6 115.6,219.8 116.7,215.95 117.3,213.7 118.8,210.5 L119.75,208.15 Q120.45,205.95 122.95,205.5 L128.05,205.7 Q129.15,205.7 132.2,203.9 L132.55,203.75 207.95,184.05 207.1,184 Q206.25,184 179.65,176.2 L176.85,179.3 M184.6,164.9 L184.55,164.8 Q183,159.4 177.95,156.75 174.1,154.75 169.45,154.9 L169.25,160.9 151.65,163.35 155.3,170.3 Q155.75,171.3 154.75,171.2 153.75,171.15 153.4,170.3 L153.3,170.05 Q147.75,157.9 138.75,150.75 127.75,142.1 116.05,145.5 107.95,147.85 101.35,154.85 96.4,160.15 91.25,169.45 85.8,179.4 82.3,188.7 89.95,193.15 95.1,197.5 101.55,202.8 105.5,208.8 L105.55,208.8 107.9,212.85 112.4,208.75 Q116.7,204.75 119.5,200.65 123.4,195 127.45,186.45 L132.25,175.6 Q132.55,174.8 133.45,174.75 134.3,174.7 134.05,175.65 133,179.15 130.2,183.35 L142.7,186.75 Q156.55,189.5 163.15,186.2 169.85,182.9 175.45,177.25 181.05,171.7 184.6,164.9 M169.45,146.8 L169.65,146.9 169.6,148.85 169.5,152.75 Q174,152.8 177.95,154.75 183.3,157.35 185.6,162.55 187.15,158.65 188.35,154.4 L188.5,153.95 189.05,149.55 Q183.05,141.25 169.8,138.3 L169.45,146.8 M177.2,122.95 L177.05,122.25 176.1,122.05 Q173.8,121.35 170.5,119.65 L169.85,137.2 Q184.55,139.75 189.05,147.5 L192.7,136.5 Q188.8,135.4 185,132.15 180.75,128.55 177.2,122.95 M173.2,93.7 Q173.35,96.75 173,96.75 L172.95,96.75 165.15,95.95 157.75,96.3 Q155.05,96.65 154.5,97.25 153.9,97.95 155.1,98.55 156.1,99.05 158.85,99.65 160.8,100.05 165.9,101.75 170.95,103.45 170.8,103.65 170.45,104 169.35,104 167.5,104 163.15,102.85 L158.65,101.65 158.6,101.7 158.4,101.95 158.15,102.55 Q157.9,105.85 164.3,108.35 L170,110.55 168.7,110.85 Q167.25,110.85 164.4,109.8 L161.4,108.7 161.3,108.75 Q160.95,109.4 161.05,110.25 161.2,111.75 162.75,112.65 L168.45,116.25 Q173.3,119.15 176.65,120.1 L178.85,120.4 Q182.6,117.1 183.45,113.3 183.95,111.05 184,108 L183.9,102.5 180.1,96.45 Q176.55,91.65 173.35,90.65 173.05,90.65 173.2,93.7 M162.15,94 L166.5,94 166.6,91.4 149.9,76.5 114.9,80.35 Q80.6,84.25 80.3,85 80.05,85.55 87,119.15 L95.15,158.65 98.45,154.4 Q111.05,139.9 126.4,142.85 133.65,144.25 140.2,149.6 145.7,154 150.1,160.65 L165.55,158.15 166,117.1 161.7,114.35 Q159.8,113.25 159.25,111.35 158.75,109.65 159.4,108.05 155.95,105.7 156.2,102.4 L156.2,102.2 156.35,101.65 156.05,101 Q152.95,100.1 152.45,98.5 151.95,97.15 153,95.95 L153.05,95.9 Q154.85,94 162.15,94 M167.1,80.05 Q166.9,75.6 166.55,74.5 L154.95,76.05 Q156.95,77.5 160.25,80.65 164.85,85 167.05,88.5 167.4,85.1 167.1,80.05 M181.05,72.85 L180.55,72.55 Q171.7,67.35 161.4,65.05 L157.85,64.35 157.9,65.05 162.3,70.5 166.3,69.65 170.45,69.35 Q170.8,69.85 171,72.55 L171.1,74.05 Q171.35,79.35 171.25,90.4 L171.8,89.3 Q172.45,88.65 173.35,88.65 L173.65,88.65 173.95,88.75 Q175.1,89.1 176.65,90.25 178.45,91.6 180.75,94.1 L184.65,98.6 Q189,99.6 192.55,103.05 195.75,106.25 197.6,110.65 198,111.7 197,111.6 196,111.55 195.7,110.7 193.3,104.85 185.75,102.45 L186.05,108.85 Q186.05,112.25 185.25,115.05 183.85,119.6 179.35,123.15 180.9,125.4 183.25,127.95 191.7,137.1 198.5,134.4 207.5,130.9 210.55,124.4 215.75,113.55 205.3,97.25 197.05,84.3 185.65,75.65 L183.25,74.05 181.05,72.95 181,72.9 181.05,72.85Z"/><path fill="#000" stroke="none" d="M169.65,146.9 L169.45,146.8 169.4,148.75 169.6,148.85 169.65,146.9Z"/></g></svg>