<?xml version="1.0" encoding="utf-8"?><svg id="Strength" image-rendering="auto" baseProfile="basic" version="1.1" x="0px" y="0px" width="240" height="240" xmlns="http://www.w3.org/2000/svg" xmlns:xlink="http://www.w3.org/1999/xlink"><g id="Scene-1f0r1" overflow="visible"><path fill="#FFF" stroke="none" d="M109.85,137.05 L103.6,131.25 102.75,134.65 99,142.15 Q95.1,149.4 95.15,157.65 95.2,165 97.4,165.3 97.55,169.25 99.6,180.7 L96.5,178.65 96,170.65 Q95.55,170 94.95,169.7 93.8,169.1 93.25,170.75 92.4,173.25 93.1,178.3 L93.45,181.05 91.4,182.1 Q91.2,182.1 90.35,183.6 89.2,185.6 88.5,188.25 87.75,191 88.05,196.2 L88.5,202.55 Q88.5,205.15 87.4,208.9 86.05,213.45 84.25,213.7 83.1,213.9 78.8,215.4 74.6,216.85 72.15,217.9 71.15,220.45 70.9,221.9 L72.45,222.25 70.7,223.45 Q70.65,224.65 71.25,224.95 73.05,225.85 75,225.65 78.3,225.35 82.9,222.2 L85.8,220.25 Q87.45,219.3 89.45,219.25 92.25,219.1 93.7,217.7 94.85,216.6 95.1,214.95 L96,209 93.2,212.25 93.05,210.35 97.6,204.3 Q100.35,200.5 101.85,197.45 103.25,194.7 103.35,190.6 L103.2,187.05 101.85,185.85 106.1,180.9 Q108.1,178.7 107.85,177.3 L107.1,176.25 105.25,176.1 108,171.3 115.25,162.05 110.9,165.15 109.35,163.95 122.95,152 Q120.45,150.5 118.35,148.55 115.25,145.65 114.15,142.7 113.35,140.55 109.85,137.05 M103.6,22.8 Q102.7,21.8 102.05,22.8 101.35,23.75 101.5,25.55 101.65,26.75 102.65,28.7 L105.6,24.25 103.6,22.8 M131,20.05 L127,19.8 124.05,20.55 Q122.5,20.65 121.15,19.9 118.55,17.95 117.05,18.5 116.3,18.75 113.95,20.95 L111.35,23.35 Q109.5,24.55 107.5,24.6 103.35,29.7 101.65,35.05 98.95,43.75 102.2,52.65 105.6,62 113.95,66.65 119,69.45 125.25,68.1 127.3,67.65 132.05,65.6 138.45,62.85 143.35,56.35 147.6,57.4 149.8,54.05 152.05,50.65 148.75,47.7 148.3,46.95 148.95,46.7 L149.75,46.6 149.95,46.3 Q147.5,42.1 146.2,40.6 L144,38.7 Q143.35,38.2 143.45,37.7 143.6,37.15 144.1,37.4 145.5,38.1 147.05,39.9 149.2,42.35 150.6,45.95 L150.85,45 Q148.85,40.25 146.95,38.15 L143.6,34.75 Q143.15,34.4 143.45,34.05 L144.3,34 Q145.25,34.45 147.85,37.6 149.9,40.3 151.1,43.75 151.5,39.65 148.1,35.95 146.6,34.35 143.9,32.4 143.3,32 143.6,31.6 L144.05,31.3 Q148.15,29.8 147.25,26.8 146.4,24 143.75,23.95 L137.15,24.4 Q135.75,24.3 135,23.25 133.25,20.95 131,20.05 M133.35,28.85 Q135.15,31.15 134.75,32.2 134.45,32.2 133.45,31.45 L128.95,28.65 Q128.8,28.4 129.5,27.65 L130.25,26.9 Q130.7,26.2 131.5,26.75 L133.35,28.85 M129.45,34.3 Q130.2,34.4 131.3,36.15 132.45,38 132.3,39.15 132.2,40.15 130.9,40.1 L127.2,39.45 Q126.1,39.15 125.9,38.15 125.65,37.05 127.2,35.6 128.65,34.15 129.45,34.3 M126.35,49.4 Q126.7,49.05 126.6,48.7 L126.15,47.3 Q125.9,46.5 126.65,47 L131.05,50.7 Q131.8,51.25 131.6,52.05 L130.35,55.85 Q130.1,56.7 129.65,55.9 L129.8,53.95 Q129.35,53.15 128.45,53.35 L124.05,55.3 Q119.1,57.15 116.2,56.75 113.35,56.35 109.9,54.25 L107.05,52.25 Q106.7,52.1 106.45,52.25 106.15,52.4 106.15,52.75 L106.1,53.2 Q106,54 105.6,53.25 L103.85,50.1 Q103.65,49.8 103.75,49.4 103.8,49 104.05,48.75 L105.95,47.05 Q106.6,46.5 106.5,47.3 L106.4,47.9 Q106.35,48.3 106.6,48.6 L107.2,49 110.3,49.95 115.8,51 Q119,51.1 125.6,49.75 L126.35,49.4 M143.55,41.85 Q142.95,41.4 143.25,41 143.55,40.6 143.95,40.8 145.15,41.45 146.1,42.6 L147.15,44.25 Q147.65,45.2 147.5,45.5 147.35,45.95 146.65,44.95 L145.3,43.25 143.65,41.95 143.55,41.85 M145.5,46.55 Q145.5,47.2 144.95,47.2 144.35,47.15 144.35,46.65 144.35,46.25 143.8,45.6 L143.2,45 Q142.8,44.7 143.1,44.3 L143.85,44.2 144.9,45.15 Q145.5,46.05 145.5,46.55 M112.7,25 L113.05,25.65 113.1,26.5 Q113.15,26.95 112.85,27.25 112.55,27.55 112.05,27.5 L108.25,27.1 107.75,26.9 Q107.7,26.75 108.15,26.55 L111.9,25 Q112.35,24.8 112.7,25 M118.85,33.75 Q119.3,33 119.8,33.2 L120.05,33.5 119.95,34.1 Q119,36.3 117.65,38.25 L115.4,41.4 Q114.9,42.1 115.35,42.9 L116.9,45.25 Q117.1,45.6 116.95,45.85 116.85,46.1 116.45,46.15 115.05,46.6 114.25,45.55 L112.4,42.4 Q111.95,41.6 112.6,41 L116.65,37 118.85,33.75 M106.75,35.45 Q106.9,34.25 107.9,32.9 108.9,31.55 109.6,31.65 110.35,31.8 111.05,33.25 111.8,34.75 111.65,35.95 111.5,37 110.45,37.15 L107.3,36.75 Q106.6,36.5 106.75,35.45 M112.75,58.35 L112.45,58 Q112.5,57.85 112.9,57.85 L113.95,57.95 116.9,57.95 Q117.95,57.95 118.05,58.8 118.15,59.6 117.15,59.7 115.5,60 114.3,59.35 L112.75,58.35 M112.55,54.15 L116.3,54.9 Q118.75,55.15 120.2,54.9 L127.6,52.75 128.45,52.2 Q128.85,51.75 128.25,51.2 127.5,50.55 125.95,50.7 119.9,52.1 116.2,51.9 113.85,51.75 110.25,50.8 L107.1,49.85 Q106.65,49.7 106.35,49.85 106,50 106.05,50.4 106.25,51.3 106.9,51.5 L112.55,54.15 M148.65,18.7 L146.15,15.15 Q144.1,12.1 141.35,11.4 139.7,10.95 137.3,9.85 L135.95,8.95 134.75,7.85 Q132.6,6.15 131.2,6.1 130.1,6.1 127.3,9.3 L125.5,11.2 122.75,11 Q120.45,9.95 119.05,10.1 117.2,10.25 112.8,14.15 111.2,15.45 109.15,15.45 107.15,15.4 105.65,14 104.6,13.05 104.9,11.4 103.6,12.3 102.9,13.7 102,15.45 102.4,17.95 102.8,20.55 104.4,22.25 105.2,23.2 106.45,23.35 L106.55,23.25 107.3,23.4 Q108.85,23.35 110.4,22.35 L112.9,20.05 Q115.35,17.85 116.3,17.5 L118.9,17.25 Q119.35,17.35 120.9,18.3 L122.15,19.1 Q122.85,19.5 123.85,19.1 L129.6,16.8 Q131.4,16.3 134.15,19.6 L137.4,23.35 144,22.3 Q147.05,22.35 148.6,24.3 149.75,25.75 149.85,27.65 149.9,28.9 148.35,30.35 L145.6,32.25 149.05,35.5 Q151.7,38.5 152.15,42.2 153.3,40 154.15,37 155.8,31 154.3,26.95 153.45,24.65 152.2,22.55 150.45,19.65 148.65,18.7 M163.45,171 Q163.95,169.65 164.1,167.05 164.4,161.95 162.6,155.6 161.2,150.75 157.15,143 155.1,142.2 153.8,141.15 151.8,139.65 150.85,136.4 150.05,133.75 150.2,130.7 L147.95,127.2 Q142.7,130.35 138.2,135.25 130.7,143.4 130.45,152.05 L133.35,158.05 Q136.15,163.8 138.65,167.45 L141.05,171.05 Q143.55,174.85 144.65,175.65 145.1,176 147.7,176.8 L150.1,177.15 150.65,178.85 153.35,185.35 155.4,188.45 152.85,187.4 152.85,191.5 Q153.25,196.25 155.2,200.05 158.45,206.2 163.85,213.7 L163.9,213.75 163.9,213.8 166.9,220.55 Q169.8,227.45 169.85,230.55 169.9,231.8 170.95,233.4 172.2,235.35 173.95,235.35 175.2,235.35 175.95,234.5 L176.5,233.5 177.1,230.75 178.85,232.65 185.6,230.9 Q186.6,230.6 186.75,230.05 186.85,229.8 185.7,228.65 L170.8,211.6 173,211.45 173.8,204.55 Q174.3,197.05 172.85,193.25 171,188.35 166.45,179.5 165.15,186.65 165.15,187.6 165.15,188.7 164.75,188.5 L163.8,187.75 Q163.4,187.45 163.55,186.3 L163.8,183.65 162.4,174.75 160.4,171.55 Q158.65,169.05 158.65,168.6 158.65,168.05 159.5,167.95 L160.35,167.95 163.45,171 M154.5,180.7 Q154.8,183.5 155.4,183.85 156.25,184.35 155.05,185.7 L153.3,181.9 Q151.6,178.05 151.8,177.5 152,176.95 153.25,176.85 L154.4,176.8 Q154.2,178.2 154.5,180.7 M164.1,136.05 Q163.15,135.1 162.4,134.8 L161.8,134.65 162.2,135.3 162.85,136.75 Q163.05,137.4 162.55,138.75 L161.45,141.3 160.5,142.55 162.15,143 164.15,140.6 Q164.85,139.75 164.95,138.6 165.15,137.1 164.1,136.05 M163.05,133.1 Q162.7,133.45 164.5,134.85 166.55,136.45 166.7,137.15 166.95,138.1 165.65,140.2 164.5,142.1 163.55,142.85 L163.1,143.2 165.6,143.65 Q168.1,138.7 169.05,137.3 L164.95,132.9 163.95,132.6 Q163.55,132.6 163.05,133.1 M168.5,84.15 L167,80.5 Q165.8,78.85 163.9,77.1 160.15,73.55 156.4,72.55 151.95,71.35 148.5,71.9 L149.8,72.9 Q151.3,73.95 151.2,74.3 151.1,74.65 150.1,74.65 L147.5,74.5 143.7,75 Q141.4,75.35 141.25,75 141.05,74.65 143.6,73.3 L146.1,72.05 Q145.3,71.45 144.1,70.95 141.7,69.9 139.65,70.1 L138.25,70.95 Q137.1,71.7 137.05,71.5 L135.9,65.75 Q124.95,71.9 113.7,67.8 110.5,66.35 107.35,63.7 L105.65,70.7 104.25,73.1 103.55,71.15 103.1,70.75 Q102.2,70.6 99.9,71.7 97.8,72.65 96.9,73.8 L96.4,74.65 100.1,77.1 92.9,75.7 90.1,76.3 Q86.85,77.3 84.4,79.35 81.95,81.45 80.45,83.85 79.75,85.05 79.5,85.8 78.7,91.95 78.25,92.25 77.9,92.55 77.2,90.25 L76.55,87.9 73,90.7 Q69.3,94.25 68.15,98.2 L67.25,100.05 Q66.5,101.35 66.6,101.7 66.65,102 67.6,102.1 68.35,102.2 68.15,102.75 64.3,112.25 63.45,115.1 72.15,125.45 76.3,128.85 77.85,130.1 77.1,128.45 L74.35,123.7 Q69.4,115.25 70.6,113.9 71.15,117.2 77.7,124.9 81.05,128.75 84.35,132.05 L87.85,135.25 88.25,136.4 Q88.4,137.4 88.2,137.6 L86.3,139.2 Q84.8,142.2 84.55,142.15 L84.45,138.85 Q84.3,138.3 83.35,138.05 L82.3,137.95 Q81.6,138.3 81.1,140.15 L80.2,143.55 81.3,147.15 Q81.75,148.8 82.1,149.1 L83.65,148.75 Q89.2,147.45 90.35,148.3 91.05,148.85 92.45,149.1 93.25,145.2 95.15,141.6 L98.8,134.05 Q98.55,132.75 97.8,131.7 L95.4,128 Q94,125.8 92.25,124 90.35,122.15 89.2,120.1 L88.2,117.9 Q88,117.4 89.9,118.65 L91.9,120 90.75,116.85 Q89.15,113.45 86.65,112.15 84.85,112.3 79,109.6 73.3,106.95 70.75,107.45 71.85,105.4 76.9,106.55 L84.2,108.65 Q86.25,109.1 88.2,107.85 L89.75,106.5 91.9,102.65 Q85.7,99.45 84.2,97.15 L84.25,96.9 Q84.8,96.9 87.15,97.85 L93.55,100.45 Q97.4,101.9 99.2,102.05 L107.05,102.75 Q108.7,102.75 110.75,102 L114.2,100.65 Q114.7,100.45 115.2,101.05 115.6,101.55 115.6,102.05 115.6,102.45 113.45,103.15 L104.2,105.4 Q100.95,106.3 99.4,105.9 97.25,105.3 93.15,103.3 L93.6,106.05 94.6,109.3 Q95.85,112.55 97.1,112.7 97.85,112.8 98.1,110.1 98.3,107.6 98.85,107.95 L100.75,116.5 104.1,126.65 Q105.9,127.95 109.9,129.05 115.9,130.65 123.1,130.3 130.25,129.9 137.5,126.7 141.75,124.8 144.75,122.6 L146.8,115.1 Q147.15,113.4 147.65,112.45 148.6,110.65 149.5,114 L153.8,109.7 Q156.7,106.85 156.75,105.7 L154.4,100.2 Q148.8,105.8 146.3,106.05 144.05,106.25 141.6,105.15 138.4,103.7 136.9,103.45 L131.85,103 123,103.5 Q120.75,103.7 120.15,103.1 119.5,102.45 119.15,100.85 L118.9,99.4 119.9,100.3 Q121.1,101.3 122.05,101.5 L134.95,100.45 145.8,101 Q147.55,100.75 150.4,99.4 L157.45,94.9 Q159.3,93.7 159.4,94.7 L154.9,99.65 158.95,104.75 164.4,107 168.45,103.6 Q172.85,100.05 174.9,99.4 175.8,98.7 174.9,91.55 L176.35,94 Q177.65,96.75 177,98.7 L179.85,98.95 Q181.65,99.45 181.35,99.75 L179.6,99.9 Q177.55,100 175.5,100.9 169.15,103.6 166,107.8 L163.15,111.45 Q161.9,113.05 160.95,115 159.9,117.05 156,122.9 L152.95,127.8 Q152.25,129.25 152.6,133.35 153,137.9 154.65,140 L156.1,140.9 158.5,141.65 159.45,140.65 160.25,139.55 Q160.8,139 160.75,137.85 L160.6,135.9 Q160.6,134.5 157.45,134.5 156.9,134.5 157.3,135.9 157.7,137.45 157.3,137.6 156.7,137.85 156.15,136.1 155.7,134.55 155.7,133.25 155.7,132.4 156.85,132.15 L158,132.05 Q159.2,130.65 159.2,129.05 159.2,127.9 159.65,126.9 160.1,125.95 160.6,125.95 L161,126.55 161.3,127.5 160.8,131.5 161.8,131.25 163.55,131 Q164.1,131 166.45,132.65 L168.8,134.3 169.35,131.65 Q169.7,130.8 168.9,129.9 168.15,129 166.7,128.4 L162.7,129.05 166.55,126.5 172.45,123.75 Q178.8,120.35 181.7,117.05 184.45,113.9 187.35,108.15 189.65,103.55 190.2,101.4 L184.05,93.2 Q178.35,86.1 175.25,84.3 172.05,82.4 170.45,82.6 170.2,82.65 171.05,85.95 171.95,89.45 171.05,90.35 170.7,90.7 168.8,90.35 L165.65,90 Q164.5,90.15 162.7,91 L161.3,91.05 Q160.75,89.85 163.65,89.05 166.6,88.25 169.15,89.15 169.8,87.95 168.5,84.15 M98.5,79.5 Q95.9,78.25 95.9,77.8 95.9,77.2 98.3,77.35 L101.3,77.8 107.95,81.1 Q109.95,82.05 111.8,83.75 113.85,85.7 113.15,86.5 112.55,87.25 109.2,85.2 L103.55,81.8 98.5,79.5 M118.2,80.75 Q119.95,80.15 120.45,76.15 121,72.15 121.2,72.05 121.9,71.75 122.3,73.85 122.75,76 122.25,77.95 121.75,79.9 120.35,81.15 119.2,82.2 117.7,82.5 115.25,83 115.25,81.3 115.25,80.75 116.1,80.85 L118.2,80.75 M114.85,86.45 Q115.15,84.95 116.1,84.95 117.85,84.95 116.3,89.65 115.9,90.95 115.9,95 115.9,98.45 115.45,98.55 114.8,98.65 114.4,95.55 114,92.4 114.4,90.2 L114.85,86.45 M129.05,71.85 Q130.5,71.75 129.7,74.15 L128.5,77.45 Q128.5,78.3 127.2,78.4 125.95,78.55 125.55,77.95 125.1,77.35 126.4,74.7 127.8,71.95 129.05,71.85 M130.45,79.8 Q139.55,76.2 141.05,76.2 142.3,76.2 142.75,76.6 143.15,76.9 143.15,77.6 143.15,78.2 138.85,79.35 L132.35,80.95 Q130.7,81.35 127.1,83.65 123.7,85.8 123.3,85.8 122.65,85.8 121.85,85.1 L121.2,84.4 Q121.2,83.45 130.45,79.8 M125.1,113.85 Q125.75,115.25 124.65,115.65 L116.45,115.65 112.05,116.15 109.65,116 Q109.8,114.8 113.65,113.6 117.55,112.35 121.2,112.35 124.35,112.35 125.1,113.85 M127.4,122.3 L124.3,122.45 116.45,122.1 112.3,122.55 Q110.45,122.75 110.55,122.1 110.7,121.1 118.05,119.65 120.3,119.25 123.5,119.6 126.9,120 127.65,120.9 128.45,121.8 127.4,122.3 M133.4,114.25 Q133,115 127.4,112.4 121.05,109.45 119.95,109.35 L116.7,109.7 113.85,110.75 110,112.95 Q107.75,114.2 107.75,113.05 109.45,111.4 111.8,109.8 116.45,106.65 119.6,107.1 123.35,107.6 128.65,110.4 133.95,113.2 133.4,114.25Z"/><path fill="#FFF" stroke="none" d="M119.75,151.4 Q119.65,151.8 119.9,152.15 120.1,152.45 120.55,152.55 L123.95,153.15 124,153.15 Q128.25,153.65 131.75,153.05 132.15,152.95 132.4,152.65 L132.55,151.9 Q132.45,151.45 132.15,151.25 L131.4,151.1 Q128.15,151.65 124.25,151.15 L124.3,151.2 120.9,150.6 Q120.45,150.5 120.15,150.75 119.8,150.95 119.75,151.4 M103.75,119.65 Q103.45,119.95 103.45,120.4 L103.55,124.5 Q103.45,132 102.7,134.55 102.6,134.95 102.8,135.35 L103.35,135.8 104.15,135.75 104.6,135.15 Q105.45,132.45 105.55,124.5 L105.45,120.35 105.15,119.65 Q104.85,119.35 104.45,119.35 104,119.35 103.75,119.65 M144.05,121 L143.3,121.05 142.8,121.65 Q142.65,122.05 142.85,122.4 143.05,122.75 143.45,122.9 145.5,123.65 146.7,126.75 147.3,128.4 147.5,129.9 L147.9,130.55 148.65,130.75 149.3,130.4 149.5,129.65 Q149.3,127.9 148.55,126 146.9,121.85 144.05,121Z"/></g></svg>