<?xml version="1.0" encoding="utf-8"?><svg id="Strength" image-rendering="auto" baseProfile="basic" version="1.1" x="0px" y="0px" width="240" height="240" xmlns="http://www.w3.org/2000/svg" xmlns:xlink="http://www.w3.org/1999/xlink"><g id="Scene-1f1r1" overflow="visible"><path fill="#FFF" stroke="none" d="M109.95,137.05 L103.7,131.25 Q96.2,137.65 95.4,151.85 95.1,157 95.85,161.25 96.55,165.2 97.5,165.3 97.65,169.25 99.7,180.7 L96.65,178.65 96.15,170.65 95.1,169.7 Q93.9,169.1 93.35,170.75 92.5,173.25 93.25,178.3 L93.55,181.05 91.5,182.1 90.5,183.6 Q89.3,185.6 88.6,188.25 87.85,191 88.2,196.2 L88.65,202.55 Q88.65,205.15 87.55,208.9 86.2,213.45 84.4,213.7 83.25,213.9 78.9,215.4 74.7,216.85 72.3,217.9 71.45,219.95 71,221.9 L72.6,222.25 70.8,223.45 Q70.8,224.7 71.35,224.95 73.15,225.85 75.1,225.65 78.45,225.35 83.05,222.2 L85.9,220.25 Q87.6,219.3 89.6,219.25 94.6,219 95.25,214.95 L96.15,209 93.35,212.25 93.15,210.35 97.75,204.3 101.95,197.45 Q103.35,194.7 103.45,190.6 L103.3,187.05 101.95,185.85 106.2,180.9 Q108.25,178.7 107.95,177.3 L107.25,176.25 105.35,176.1 108.1,171.3 115.4,162.05 111,165.15 109.45,163.95 123.1,152 Q120.6,150.55 118.45,148.55 115.35,145.65 114.25,142.7 113.45,140.55 109.95,137.05 M103.75,22.8 Q102.85,21.8 102.15,22.8 101.5,23.75 101.65,25.55 101.7,26.5 102.75,28.7 L105.75,24.25 Q104.65,23.8 103.75,22.8 M131.1,20.05 L127.15,19.8 124.15,20.55 Q122.6,20.65 121.25,19.9 118.65,17.95 117.2,18.5 116.4,18.75 114.05,20.95 L111.5,23.35 Q109.5,24.55 107.65,24.6 103.5,29.7 101.8,35.05 99.1,43.75 102.3,52.65 105.7,62 114.05,66.65 119.1,69.45 125.4,68.1 127.25,67.7 132.2,65.6 138.55,62.8 143.45,56.35 147.7,57.4 149.9,54.05 152.15,50.65 148.85,47.7 148.4,46.95 149.1,46.7 L149.9,46.6 150.05,46.3 Q147.6,42.1 146.3,40.6 L144.1,38.7 Q143.45,38.2 143.6,37.7 143.7,37.15 144.25,37.4 145.65,38.15 147.2,39.9 149,41.95 150.5,45.45 L150.85,44.65 Q149.1,40.4 147.05,38.15 L143.7,34.75 Q143.25,34.4 143.55,34.05 L144.45,34 Q145.45,34.5 147.95,37.6 150.15,40.45 151.2,43.75 151.6,39.65 148.2,35.95 L144,32.4 Q143.45,32 143.75,31.6 144,31.3 144.2,31.3 148.25,29.8 147.35,26.8 146.5,24 143.9,23.95 L137.3,24.4 Q135.9,24.3 135.1,23.25 133.35,20.95 131.1,20.05 M133.5,28.85 Q135.3,31.15 134.9,32.2 L129.05,28.65 Q128.9,28.4 129.6,27.65 L130.35,26.9 Q130.55,26.6 130.95,26.55 131.3,26.5 131.6,26.75 L133.5,28.85 M129.6,34.3 Q130.35,34.4 131.45,36.15 132.55,37.95 132.4,39.15 132.3,40.15 131,40.1 L127.3,39.45 Q126.2,39.15 126,38.15 125.75,37.05 127.3,35.6 128.8,34.15 129.6,34.3 M126.5,49.4 L126.75,48.7 126.3,47.3 Q126.15,46.95 126.3,46.85 126.45,46.75 126.75,47 L131.15,50.7 Q131.95,51.25 131.7,52.05 L130.5,55.85 129.75,55.9 129.9,53.95 Q129.45,53.15 128.55,53.35 L124.2,55.3 Q119.25,57.15 116.35,56.75 113.45,56.35 110.05,54.25 L107.2,52.25 Q106.85,52.1 106.55,52.25 L106.25,52.75 106.2,53.2 106.05,53.55 105.75,53.25 103.95,50.1 103.85,49.4 Q103.9,48.95 104.2,48.75 L106.1,47.05 Q106.35,46.8 106.5,46.9 L106.6,47.3 106.55,47.9 Q106.5,48.3 106.7,48.6 L107.35,49 110.45,49.95 Q113.9,50.95 115.9,51 119.1,51.1 125.75,49.75 L126.5,49.4 M143.65,41.85 Q143.05,41.4 143.35,41 143.65,40.6 144.05,40.8 145.15,41.35 146.2,42.6 L147.25,44.25 Q147.75,45.2 147.65,45.5 147.5,45.95 146.75,44.95 L145.4,43.25 143.75,41.95 143.65,41.85 M144.5,46.65 Q144.5,46.25 143.9,45.6 L143.3,45 Q142.9,44.7 143.2,44.3 L143.95,44.2 Q144.65,44.65 145,45.15 145.6,45.9 145.6,46.55 145.6,47.2 145.05,47.2 144.5,47.15 144.5,46.65 M112.05,25 Q112.45,24.8 112.8,25 L113.15,25.65 113.25,26.5 Q113.3,26.95 112.95,27.25 112.65,27.55 112.15,27.5 L108.4,27.1 Q107.9,27.05 107.9,26.9 107.85,26.75 108.25,26.55 L112.05,25 M119,33.75 Q119.45,33 119.9,33.2 L120.15,33.5 120.05,34.1 117.8,38.25 115.5,41.4 Q114.95,42.1 115.5,42.9 L117,45.25 117.1,45.85 116.6,46.15 Q115.15,46.6 114.35,45.55 L112.5,42.4 Q112.05,41.65 112.7,41 L116.8,37 119,33.75 M106.85,35.45 Q107,34.25 108,32.9 109,31.55 109.7,31.65 110.45,31.8 111.15,33.25 111.9,34.75 111.8,35.95 111.65,37 110.6,37.15 L107.4,36.75 Q106.7,36.5 106.85,35.45 M114.4,59.35 L112.9,58.35 Q112.05,57.85 113.05,57.85 L114.1,57.95 117.05,57.95 Q118.05,57.95 118.2,58.8 L117.95,59.4 117.25,59.7 Q115.6,60 114.4,59.35 M112.65,54.15 L116.4,54.9 Q118.85,55.15 120.35,54.9 L127.75,52.75 128.6,52.2 Q128.95,51.75 128.4,51.2 127.65,50.55 126.1,50.7 120.05,52.1 116.3,51.9 113.95,51.75 110.35,50.8 L107.2,49.85 Q106.75,49.7 106.45,49.85 106.1,50 106.2,50.4 106.35,51.3 107,51.5 L112.65,54.15 M148.8,18.7 L146.3,15.15 Q144.25,12.1 141.5,11.4 139.7,10.95 137.45,9.85 L136.05,8.95 134.85,7.85 Q132.8,6.15 131.35,6.1 130.25,6.1 127.45,9.3 L125.6,11.2 122.85,11 Q120.55,9.95 119.15,10.1 117.5,10.25 112.9,14.15 111.3,15.45 109.3,15.45 107.25,15.4 105.8,14 104.7,13.05 105,11.4 103.65,12.4 103,13.7 102.1,15.5 102.5,17.95 102.9,20.55 104.5,22.25 105.6,23.45 107.4,23.4 108.95,23.35 110.55,22.35 L113.05,20.05 Q115.45,17.85 116.4,17.5 L119.05,17.25 121.05,18.3 122.25,19.1 Q122.95,19.5 124,19.1 L129.7,16.8 Q131.5,16.3 134.3,19.6 L137.55,23.35 144.1,22.3 Q147.2,22.35 148.75,24.3 149.85,25.7 149.95,27.65 150.05,28.9 148.5,30.35 L145.7,32.25 149.15,35.5 Q151.55,38.25 152.15,41.5 L152.15,41.45 152.3,42.15 Q153.55,39.65 154.35,36.6 155.85,30.85 154.45,26.95 L152.3,22.55 Q150.55,19.65 148.8,18.7 M163.55,171 L163.85,167.15 Q163.85,162.15 162.7,155.6 161.05,146.15 154.55,135.95 L148.1,127.2 Q142.9,130.25 138.3,135.25 130.85,143.4 130.6,152.05 L133.45,158.05 Q136.25,163.75 138.75,167.45 L141.2,171.05 Q143.7,174.85 144.8,175.65 L147.85,176.8 150.25,177.15 150.75,178.85 153.5,185.35 155.55,188.45 152.95,187.4 152.95,191.5 Q153.35,196.25 155.35,200.05 158.55,206.2 164,213.7 L164,213.8 167.05,220.55 Q169.95,227.45 170,230.55 170,231.8 171.05,233.4 172.3,235.35 174.05,235.35 175.35,235.35 176.1,234.5 L176.65,233.5 177.25,230.75 178.95,232.65 185.75,230.9 Q186.75,230.6 186.9,230.05 186.95,229.8 185.85,228.65 L170.9,211.6 173.15,211.45 173.95,204.55 Q174.45,197.05 173,193.25 171.25,188.85 166.6,179.5 165.3,185.85 165.3,187.6 165.3,188.7 164.85,188.5 L163.9,187.75 Q163.5,187.45 163.65,186.3 L163.9,183.65 162.55,174.75 160.55,171.55 Q158.8,169.05 158.8,168.6 158.8,168.05 159.65,167.95 L160.5,167.95 163.55,171 M153.35,176.85 L154.5,176.8 Q154.35,178.25 154.65,180.7 155,183.5 155.55,183.85 156.4,184.35 155.2,185.7 L153.45,181.9 Q151.75,178.05 151.95,177.5 152.15,176.95 153.35,176.85 M189.6,128.75 Q189.1,127.35 187.7,126.9 L185.65,126.5 185.05,126.65 185.7,127.05 186.9,128.05 Q187.4,128.55 187.55,130 L187.7,132.75 Q187.75,133.65 187.4,134.3 L189.1,133.95 Q189.05,133.5 189.35,132.45 L189.8,130.9 Q190,129.8 189.6,128.75 M192.45,132.95 Q192.35,128.05 192.7,125.75 187.9,123.6 187.05,123.7 L186,123.85 Q185.6,124.05 185.4,124.7 185.25,125.2 187.5,125.65 190.05,126.15 190.5,126.7 191.15,127.45 190.95,129.9 190.8,132 190.3,133.2 L190,133.7 192.45,132.95 M177.3,82.3 L179.7,83.8 Q182.1,85.7 182.4,87.75 183.15,86.95 185.05,86.65 L186.75,86.7 185.25,87.6 Q183.45,88.65 182,90.35 177.55,95.65 176.65,100.8 L175.75,105.35 Q175.35,107.4 175.4,109.5 L174.55,118.8 Q174,123.4 174,124.55 174,126.15 176.2,129.65 178.6,133.55 181,134.65 L182.7,134.8 185.2,134.4 185.85,131.7 Q186.05,131 185.5,130 L184.5,128.3 Q183.9,127.1 181.05,128.45 180.55,128.7 181.55,129.85 182.6,131 182.3,131.35 181.9,131.85 180.65,130.5 179.55,129.3 178.95,128.15 178.55,127.35 179.45,126.65 L180.4,126.05 Q180.9,124.25 180.2,122.85 179.65,121.8 179.6,120.75 179.55,119.65 180,119.4 L180.65,119.75 Q181.3,120.15 181.35,120.5 L182.7,124.3 183.45,123.6 Q184.35,122.9 184.95,122.6 L191.1,123.2 190.65,121.9 190.4,120.6 Q190.35,119.7 189.2,119.2 188.15,118.75 186.55,118.85 186.4,118.85 184.85,120.15 L183.3,121.3 Q183.2,121.1 184.3,119.25 L185.6,117.25 190.35,112.9 Q195.3,107.55 196.55,102.4 197.5,98.45 196.7,91.7 196.25,87.75 195.4,84.2 189.6,80.25 184.2,77.7 173.7,72.75 169.3,76.3 169.1,76.45 171.35,79 173.75,81.7 173.35,82.95 173.2,83.45 171.3,83.95 169.05,84.55 168.35,85.05 167.4,85.7 166.15,87.25 165.35,88.25 164.95,87.95 163.9,87.1 166.15,85.1 168.4,83.05 171.1,82.7 171.15,81.35 168.25,78.5 L165.3,75.95 Q163.4,74.85 160.85,73.9 155.7,72.05 151.95,72.85 141.65,75.65 141.35,75 141.15,74.65 143.75,73.3 L146.25,72.05 Q145.45,71.45 144.25,70.95 141.85,69.9 139.8,70.1 L138.4,70.95 Q137.25,71.7 137.2,71.5 L136,65.75 Q125.05,71.9 113.8,67.8 110.5,66.3 107.5,63.7 L105.8,70.7 104.4,73.1 Q104.25,73.15 104.05,72.2 L103.7,71.15 Q103.65,70.85 103.2,70.75 102.35,70.6 100,71.7 97.9,72.65 97,73.8 L96.55,74.65 96,73.95 Q94.5,71.7 92.1,70.05 87.35,66.75 81.25,68.35 78.1,69.15 75.7,70.45 L73.85,71.65 Q70.15,76.6 69.65,76.7 69.2,76.75 69.7,74.4 L70.2,72 Q68.25,72.1 65.75,72.75 60.8,74.05 57.9,76.95 L56.2,78.1 Q54.95,78.9 54.85,79.25 54.75,79.55 55.5,80.1 56.15,80.55 55.7,80.95 49.25,86.15 45.6,89.45 48,102.25 50.2,107.7 50.95,109.55 51.05,107.75 L50.95,102.25 Q50.7,92.4 52.45,91.85 51.3,95 53.35,104.9 54.35,109.9 55.65,114.4 L57.15,118.9 56.95,120.1 56.35,121.15 53.9,121.6 Q51.15,123.55 50.95,123.35 50.8,123.25 51.55,121.9 L52.45,120.4 Q52.6,119.85 51.9,119.2 51.3,118.6 50.95,118.6 50.2,118.55 48.9,119.9 L46.45,122.45 45.65,126.1 Q45.25,127.8 45.4,128.25 L46.95,128.7 Q52.4,130.2 53,131.55 53.3,132.2 54.45,133.25 58.7,133.6 63.05,129.65 67.55,125.55 67.6,120.65 L67.45,116.25 Q67.25,113.95 66.45,111.2 65.35,107.45 65.9,103.95 65.95,103.4 67,105.45 L68.1,107.55 Q68.55,106.1 68.65,104.2 68.85,100.5 67.3,98.15 65.65,97.4 61.85,92.2 58.15,87.15 55.7,86.3 57.65,85.05 61.5,88.5 L66.85,93.9 Q68.7,95.4 71.15,95.1 L73.25,94.4 73.85,94 73.8,94.15 Q76.45,92.85 77.85,90.3 79.1,88 79.55,84.3 79.75,82.85 80.6,81.3 81.4,79.8 82.55,78.75 86.7,74.95 92.35,74.2 93.6,74.05 93.05,75.25 92.5,76.45 91.6,76.55 89.05,76.85 86.85,77.9 83.75,79.4 82.6,82.55 81.95,84.45 81,88.8 79.4,93.85 73.5,96.4 82.55,102.65 90.9,105.2 91.75,105.1 93.75,106.05 L94.75,109.3 Q95.95,112.55 97.25,112.7 98,112.8 98.25,110.1 98.45,107.6 99,107.95 L100.9,116.5 104.2,126.65 Q106.05,127.95 110.05,129.05 116,130.65 123.2,130.3 130.4,129.9 137.65,126.7 142.05,124.7 144.85,122.6 L147.75,112.45 Q148.7,110.65 149.6,114 149.6,114.2 151.95,112.8 154.6,111.2 156.5,109.3 L162.7,101.55 Q161.2,100.5 160.4,98.85 162.35,100.45 164.65,101.2 L171.5,101.75 174.85,100.8 176.95,95.95 Q179.3,90.8 180.85,89.3 181.3,88.3 177.3,82.3 M84.4,96.9 Q84.9,96.9 87.3,97.85 L93.7,100.45 Q97.55,101.9 99.35,102.05 L107.2,102.75 Q108.85,102.75 110.9,102 L114.35,100.65 Q114.85,100.45 115.3,101.05 115.7,101.55 115.7,102.05 115.7,102.45 113.55,103.15 L104.3,105.4 Q101.05,106.3 99.5,105.9 L94.9,103.95 Q91.2,102.25 90.8,102 L88.25,100.5 Q85.25,98.55 84.35,97.15 L84.4,96.9 M98.6,79.5 Q96,78.25 96,77.8 96,77.2 98.4,77.35 L101.4,77.8 Q102.3,78.15 108.05,81.1 110.05,82.05 111.9,83.75 114,85.7 113.3,86.5 112.7,87.25 109.35,85.2 L103.7,81.8 98.6,79.5 M115.35,81.3 Q115.35,80.75 116.2,80.85 L118.35,80.75 Q121,79.95 121.15,76.05 120.9,72.25 121.3,72.05 122,71.75 122.4,73.85 122.85,76 122.35,77.95 121.85,79.9 120.45,81.15 119.3,82.2 117.8,82.5 115.35,83 115.35,81.3 M115,86.45 Q115.3,84.95 116.25,84.95 117.1,84.95 117.1,86.35 117.1,87.6 116.4,89.65 116,90.95 116,95 116,98.45 115.55,98.55 114.9,98.65 114.5,95.55 114.15,92.4 114.5,90.2 L115,86.45 M129.15,71.85 Q130.65,71.75 129.8,74.15 L128.65,77.45 Q128.65,78.3 127.35,78.4 126.1,78.55 125.65,77.95 125.2,77.35 126.55,74.7 127.9,71.95 129.15,71.85 M130.6,79.8 Q139.7,76.2 141.2,76.2 142.45,76.2 142.9,76.6 143.3,76.9 143.3,77.6 143.3,78.4 132.45,80.95 130.8,81.35 127.2,83.65 123.85,85.8 123.4,85.8 122.75,85.8 121.95,85.1 L121.3,84.4 Q121.3,83.45 130.6,79.8 M159.5,94.7 L157.2,97.15 Q154.85,99.7 154.55,100.3 148.45,105.85 146.4,106.05 144.15,106.25 141.7,105.15 138.5,103.7 137,103.45 L131.95,103 123.15,103.5 Q120.85,103.7 120.25,103.1 119.6,102.45 119.25,100.85 L119.05,99.4 120.05,100.3 Q121.2,101.3 122.2,101.5 L135.1,100.45 145.9,101 Q147.65,100.75 150.5,99.4 L157.6,94.9 Q159.4,93.7 159.5,94.7 M125.2,113.85 Q125.85,115.2 124.8,115.65 L116.6,115.65 112.2,116.15 109.8,116 Q109.9,114.8 113.75,113.6 117.65,112.35 121.3,112.35 124.5,112.35 125.2,113.85 M127.75,120.9 Q128.55,121.8 127.55,122.3 L124.45,122.45 116.6,122.1 112.45,122.55 Q110.55,122.75 110.65,122.1 110.9,121.1 118.15,119.65 120.4,119.25 123.6,119.6 127,120 127.75,120.9 M133.5,114.25 Q133.1,115 127.5,112.4 121.15,109.45 120.1,109.35 L116.85,109.7 114,110.75 110.15,112.95 Q107.85,114.2 107.85,113.05 L111.9,109.8 Q116.6,106.65 119.75,107.1 123.5,107.6 128.8,110.4 134.05,113.2 133.5,114.25Z"/><path fill="#FFF" stroke="none" d="M119.75,151.4 Q119.65,151.8 119.9,152.15 120.1,152.45 120.55,152.55 L123.95,153.15 124,153.15 Q128.25,153.65 131.75,153.05 132.15,152.95 132.4,152.65 L132.55,151.9 Q132.45,151.45 132.15,151.25 L131.4,151.1 Q128.15,151.65 124.25,151.15 L124.3,151.2 120.9,150.6 Q120.45,150.5 120.15,150.75 119.8,150.95 119.75,151.4 M103.75,119.65 Q103.45,119.95 103.45,120.4 L103.55,124.5 Q103.45,132 102.7,134.55 102.6,134.95 102.8,135.35 L103.35,135.8 104.15,135.75 104.6,135.15 Q105.45,132.45 105.55,124.5 L105.45,120.35 105.15,119.65 Q104.85,119.35 104.45,119.35 104,119.35 103.75,119.65 M144.05,121 L143.3,121.05 142.8,121.65 Q142.65,122.05 142.85,122.4 143.05,122.75 143.45,122.9 145.5,123.65 146.7,126.75 147.3,128.4 147.5,129.9 L147.9,130.55 148.65,130.75 149.3,130.4 149.5,129.65 Q149.3,127.9 148.55,126 146.9,121.85 144.05,121Z"/></g></svg>