<?xml version="1.0" encoding="utf-8"?><svg id="Strength" image-rendering="auto" baseProfile="basic" version="1.1" x="0px" y="0px" width="240" height="240" xmlns="http://www.w3.org/2000/svg" xmlns:xlink="http://www.w3.org/1999/xlink"><g id="Scene-1f2r1" overflow="visible"><path fill="#FFF" stroke="none" d="M109.9,137.05 L103.65,131.25 Q96.15,137.65 95.35,151.85 95.05,157 95.8,161.25 96.5,165.2 97.45,165.3 97.6,169.25 99.65,180.7 L96.6,178.65 96.1,170.65 95.05,169.7 Q93.85,169.1 93.3,170.75 92.45,173.25 93.2,178.3 L93.5,181.05 91.45,182.1 90.45,183.6 Q89.25,185.6 88.55,188.25 87.8,191 88.15,196.2 L88.6,202.55 Q88.6,205.15 87.5,208.9 86.15,213.45 84.35,213.7 83.2,213.9 78.85,215.4 74.65,216.85 72.25,217.9 71.4,219.95 70.95,221.9 L72.55,222.25 70.75,223.45 Q70.75,224.7 71.3,224.95 73.1,225.85 75.05,225.65 78.4,225.35 83,222.2 L85.85,220.25 Q87.55,219.3 89.55,219.25 94.55,219 95.2,214.95 L96.1,209 93.3,212.25 93.1,210.35 97.7,204.3 101.9,197.45 Q103.3,194.7 103.4,190.6 L103.25,187.05 101.9,185.85 106.15,180.9 Q108.2,178.7 107.9,177.3 L107.2,176.25 105.3,176.1 108.05,171.3 115.35,162.05 110.95,165.15 109.4,163.95 123.05,152 Q120.55,150.55 118.4,148.55 115.3,145.65 114.2,142.7 113.4,140.55 109.9,137.05 M103.7,22.8 Q102.8,21.8 102.1,22.8 101.45,23.75 101.6,25.55 101.65,26.5 102.7,28.7 L105.7,24.25 Q104.6,23.8 103.7,22.8 M127.1,19.8 L124.1,20.55 Q122.55,20.65 121.2,19.9 118.6,17.95 117.15,18.5 116.35,18.75 114,20.95 L111.45,23.35 Q109.45,24.55 107.6,24.6 103.45,29.7 101.75,35.05 99.05,43.75 102.25,52.65 105.65,62 114,66.65 119.05,69.45 125.35,68.1 127.2,67.7 132.15,65.6 138.5,62.8 143.4,56.35 147.65,57.4 149.85,54.05 152.1,50.65 148.8,47.7 148.35,46.95 149.05,46.7 L149.85,46.6 150,46.3 Q147.55,42.1 146.25,40.6 L144.05,38.7 Q143.4,38.2 143.55,37.7 143.65,37.15 144.2,37.4 145.6,38.15 147.15,39.9 149.2,42.25 150.65,45.95 L150.95,45 Q148.95,40.3 147,38.15 L143.65,34.75 Q143.2,34.4 143.5,34.05 L144.4,34 Q145.4,34.5 147.9,37.6 150.1,40.45 151.15,43.75 151.55,39.65 148.15,35.95 L143.95,32.4 Q143.4,32 143.7,31.6 143.95,31.3 144.15,31.3 148.2,29.8 147.3,26.8 146.45,24 143.85,23.95 L137.25,24.4 Q135.85,24.3 135.05,23.25 133.3,20.95 131.05,20.05 L127.1,19.8 M133.45,28.85 Q135.25,31.15 134.85,32.2 L129,28.65 Q128.85,28.4 129.55,27.65 L130.3,26.9 Q130.5,26.6 130.9,26.55 131.25,26.5 131.55,26.75 L133.45,28.85 M129.55,34.3 Q130.3,34.4 131.4,36.15 132.5,37.95 132.35,39.15 132.25,40.15 130.95,40.1 L127.25,39.45 Q126.15,39.15 125.95,38.15 125.7,37.05 127.25,35.6 128.75,34.15 129.55,34.3 M126.7,48.7 L126.25,47.3 Q126.1,46.95 126.25,46.85 126.4,46.75 126.7,47 L131.1,50.7 Q131.9,51.25 131.65,52.05 L130.45,55.85 129.7,55.9 129.85,53.95 Q129.4,53.15 128.5,53.35 L124.15,55.3 Q119.2,57.15 116.3,56.75 113.4,56.35 110,54.25 L107.15,52.25 Q106.8,52.1 106.5,52.25 L106.2,52.75 106.15,53.2 106,53.55 105.7,53.25 103.9,50.1 103.8,49.4 Q103.85,48.95 104.15,48.75 L106.05,47.05 Q106.3,46.8 106.45,46.9 L106.55,47.3 106.5,47.9 Q106.45,48.3 106.65,48.6 L107.3,49 110.4,49.95 Q113.85,50.95 115.85,51 119.05,51.1 125.7,49.75 L126.45,49.4 126.7,48.7 M143.6,41.85 Q143,41.4 143.3,41 143.6,40.6 144,40.8 145.1,41.35 146.15,42.6 L147.2,44.25 Q147.7,45.2 147.6,45.5 147.45,45.95 146.7,44.95 L145.35,43.25 143.7,41.95 143.6,41.85 M145,47.2 Q144.45,47.15 144.45,46.65 144.45,46.25 143.85,45.6 L143.25,45 Q142.85,44.7 143.15,44.3 L143.9,44.2 Q144.6,44.65 144.95,45.15 145.55,45.9 145.55,46.55 145.55,47.2 145,47.2 M112.75,25 L113.1,25.65 113.2,26.5 Q113.25,26.95 112.9,27.25 112.6,27.55 112.1,27.5 L108.35,27.1 Q107.85,27.05 107.85,26.9 107.8,26.75 108.2,26.55 L112,25 Q112.4,24.8 112.75,25 M118.95,33.75 Q119.4,33 119.85,33.2 L120.1,33.5 120,34.1 117.75,38.25 115.45,41.4 Q114.9,42.1 115.45,42.9 L116.95,45.25 117.05,45.85 116.55,46.15 Q115.1,46.6 114.3,45.55 L112.45,42.4 Q112,41.65 112.65,41 L116.75,37 118.95,33.75 M106.8,35.45 Q106.95,34.25 107.95,32.9 108.95,31.55 109.65,31.65 110.4,31.8 111.1,33.25 111.85,34.75 111.75,35.95 111.6,37 110.55,37.15 L107.35,36.75 Q106.65,36.5 106.8,35.45 M112.85,58.35 Q112,57.85 113,57.85 L114.05,57.95 117,57.95 Q118,57.95 118.15,58.8 L117.9,59.4 117.2,59.7 Q115.55,60 114.35,59.35 L112.85,58.35 M112.6,54.15 L116.35,54.9 Q118.8,55.15 120.3,54.9 L127.7,52.75 128.55,52.2 Q128.9,51.75 128.35,51.2 127.6,50.55 126.05,50.7 120,52.1 116.25,51.9 113.9,51.75 110.3,50.8 L107.15,49.85 Q106.7,49.7 106.4,49.85 106.05,50 106.15,50.4 106.3,51.3 106.95,51.5 L112.6,54.15 M148.75,18.7 L146.25,15.15 Q144.2,12.1 141.45,11.4 139.65,10.95 137.4,9.85 L136,8.95 134.8,7.85 Q132.75,6.15 131.3,6.1 130.2,6.1 127.4,9.3 L125.55,11.2 122.8,11 Q120.5,9.95 119.1,10.1 117.45,10.25 112.85,14.15 111.25,15.45 109.25,15.45 107.2,15.4 105.75,14 104.65,13.05 104.95,11.4 103.6,12.4 102.95,13.7 102.05,15.5 102.45,17.95 102.85,20.55 104.45,22.25 105.55,23.45 107.35,23.4 108.9,23.35 110.5,22.35 L113,20.05 Q115.4,17.85 116.35,17.5 L119,17.25 121,18.3 122.2,19.1 Q122.9,19.5 123.95,19.1 L129.65,16.8 Q131.45,16.3 134.25,19.6 L137.5,23.35 144.05,22.3 Q147.15,22.35 148.7,24.3 149.8,25.7 149.9,27.65 150,28.9 148.45,30.35 L145.65,32.25 149.1,35.5 Q151.7,38.45 152.25,42.2 153.4,40 154.2,37 155.85,31 154.4,26.95 L152.25,22.55 Q150.5,19.65 148.75,18.7 M163.8,167.15 Q163.8,162.15 162.65,155.6 161,146.15 154.5,135.95 L148.05,127.2 Q142.85,130.25 138.25,135.25 130.8,143.4 130.55,152.05 L133.4,158.05 Q136.2,163.75 138.7,167.45 L141.15,171.05 Q143.65,174.85 144.75,175.65 L147.8,176.8 150.2,177.15 150.7,178.85 153.45,185.35 155.5,188.45 152.9,187.4 152.9,191.5 Q153.3,196.25 155.3,200.05 158.5,206.2 163.95,213.7 L163.95,213.8 167,220.55 Q169.9,227.45 169.95,230.55 169.95,231.8 171,233.4 172.25,235.35 174,235.35 175.3,235.35 176.05,234.5 L176.6,233.5 177.2,230.75 178.9,232.65 185.7,230.9 Q186.7,230.6 186.85,230.05 186.9,229.8 185.8,228.65 L170.85,211.6 173.1,211.45 173.9,204.55 Q174.4,197.05 172.95,193.25 171.2,188.85 166.55,179.5 165.25,185.85 165.25,187.6 165.25,188.7 164.8,188.5 L163.85,187.75 Q163.45,187.45 163.6,186.3 L163.85,183.65 162.5,174.75 160.5,171.55 Q158.75,169.05 158.75,168.6 158.75,168.05 159.6,167.95 L160.45,167.95 163.5,171 163.8,167.15 M153.3,176.85 L154.45,176.8 Q154.3,178.25 154.6,180.7 154.95,183.5 155.5,183.85 156.35,184.35 155.15,185.7 L153.4,181.9 Q151.7,178.05 151.9,177.5 152.1,176.95 153.3,176.85 M169.4,49.95 Q169.25,49.45 167.15,50.4 164.8,51.4 164.1,51.25 163.15,51 161.9,48.9 160.8,47 160.55,45.8 L160.5,45.25 158.9,47.25 Q161.85,51.35 162.85,53.3 L165.7,52.7 Q168.25,52.1 168.65,51.75 L169.4,51 Q169.6,50.6 169.4,49.95 M164.65,46.85 L162.9,44.7 Q162.35,44.05 162.25,43.25 L161.1,44.5 162.25,47.4 Q162.7,48.4 163.65,49.05 164.9,49.95 166.3,49.5 168.3,48.9 168.6,48.15 L166.25,48.1 Q165.55,48 164.65,46.85 M168.1,42.75 Q168.15,42.1 169.95,42.5 171.55,42.8 172.7,43.4 173.5,43.85 173.15,44.95 L172.7,46 173.2,46.95 Q173.9,48 174.75,48.45 175.8,49 176.45,49.85 177.1,50.7 176.85,51.2 L175.15,51.05 171.85,48.7 Q171.5,50.5 171,51.4 170.6,52.2 165.6,54.45 165.95,54.6 166.7,55.25 L167.7,56.2 Q168.3,56.9 169.5,56.65 170.6,56.4 171.85,55.4 L172.45,53.35 Q172.95,51.45 173.1,51.55 173.4,51.7 174.4,56.85 L174.45,56.85 174.5,57.15 175.35,66.4 Q175.3,68.5 175.7,70.55 L176.6,75.15 Q177.5,80.3 181.95,85.6 183.4,87.3 185.2,88.3 L186.7,89.2 185,89.3 Q183.15,89 182.35,88.2 182.05,90.25 179.65,92.15 L177.25,93.65 Q181.25,87.65 180.8,86.6 179.45,85.3 177.45,81.1 L175.05,75.65 Q170.9,73.1 165.8,75.85 162.8,77.5 159.65,82.55 L157.05,87.25 Q158.9,78.75 163.9,75.25 156.95,71.8 151.9,72.85 L150.4,73.15 149.9,73.5 141.3,75 Q141.1,74.65 143.7,73.3 L146.2,72.05 Q145.4,71.45 144.2,70.95 141.8,69.9 139.75,70.1 L138.35,70.95 Q137.2,71.7 137.15,71.5 L135.95,65.75 Q125,71.9 113.75,67.8 110.45,66.3 107.45,63.7 L105.75,70.7 104.35,73.1 Q104.2,73.15 104,72.2 L103.65,71.15 Q103.6,70.85 103.15,70.75 102.3,70.6 99.95,71.7 97.85,72.65 96.95,73.8 L96.5,74.65 93.85,73.7 94.35,72.8 Q86.7,67.3 81.2,68.35 78,68.95 75.6,70.35 L73.8,71.65 Q67.15,83 66.65,83.1 66.15,83.15 68.15,77.6 L70.15,72 66.45,72.55 61.15,77.85 Q57.55,81.05 55.65,79.8 58.1,79 61.8,73.95 65.6,68.75 67.25,68 68.8,65.65 68.6,61.9 L68.05,58.6 Q65.95,63.1 65.85,62.2 65.35,58.65 66.4,54.9 67,52.9 69.05,51.8 70.8,50.9 70.75,49.3 L67.3,43.5 69.6,42.15 71.2,45.9 74,45.4 75.55,44.55 Q77,43.8 77.1,43.9 77.3,44.1 75.35,46.7 75.15,47.25 75.8,48 L76.65,48.65 Q77.4,48.75 78.85,47.5 L81.5,45.15 83,39.5 81.5,38.9 Q78.4,37.7 74.4,33.7 70.05,32.95 65.75,35.5 61.15,38.25 60.75,42.7 60.55,43.15 60.4,44.75 L60.25,46.6 Q59.6,46.4 54.45,54 48.8,62.4 47.55,67.55 46.15,73.3 48.7,85.75 61.3,92.55 69.05,95.1 72.1,96.1 78.9,95 L85.05,93.75 82.05,95.65 Q78.95,97.2 73.95,97.55 76.65,100 85.45,103.25 L93.7,106.05 94.7,109.3 Q95.9,112.55 97.2,112.7 97.95,112.8 98.2,110.1 98.4,107.6 98.95,107.95 L100.85,116.5 104.15,126.65 Q106,127.95 110,129.05 115.95,130.65 123.15,130.3 130.35,129.9 137.6,126.7 142,124.7 144.8,122.6 L147.7,112.45 Q148.65,110.65 149.55,114 149.55,114.2 151.9,112.8 154.55,111.2 156.45,109.3 L162.4,101.85 Q161.25,101.35 160.25,100.6 L159,99.75 165.2,101 Q171.95,102.1 175.05,101.1 182.7,98.55 195.35,91.75 196.2,88.05 196.65,84.25 197.45,77.45 196.5,73.55 195.8,70.65 192,65.5 L185.55,56.85 Q183.75,54.25 182.55,51.15 L181.7,48.55 178.85,43.55 Q177.9,42.25 174.1,40.6 169.85,38.85 167.25,39.3 L165.8,40.15 164,41.9 Q164,42.45 164.4,43.2 L165.05,44.45 Q165.25,45.2 166.3,45.7 L168.1,46.5 Q169.3,47.1 170.8,44.4 171.05,43.9 169.6,43.6 168.05,43.2 168.1,42.75 M84.35,96.9 Q84.85,96.9 87.25,97.85 L93.65,100.45 Q97.5,101.9 99.3,102.05 L107.15,102.75 Q108.8,102.75 110.85,102 L114.3,100.65 Q114.8,100.45 115.25,101.05 115.65,101.55 115.65,102.05 115.65,102.45 113.5,103.15 L104.25,105.4 Q101,106.3 99.45,105.9 L94.85,103.95 Q91.15,102.25 90.75,102 L88.2,100.5 Q85.2,98.55 84.3,97.15 L84.35,96.9 M98.55,79.5 Q95.95,78.25 95.95,77.8 95.95,77.2 98.35,77.35 L101.35,77.8 Q102.25,78.15 108,81.1 110,82.05 111.85,83.75 113.95,85.7 113.25,86.5 112.65,87.25 109.3,85.2 L103.65,81.8 98.55,79.5 M115.3,81.3 Q115.3,80.75 116.15,80.85 L118.3,80.75 Q120.95,79.95 121.1,76.05 120.85,72.25 121.25,72.05 121.95,71.75 122.35,73.85 122.8,76 122.3,77.95 121.8,79.9 120.4,81.15 119.25,82.2 117.75,82.5 115.3,83 115.3,81.3 M116.2,84.95 Q117.05,84.95 117.05,86.35 117.05,87.6 116.35,89.65 115.95,90.95 115.95,95 115.95,98.45 115.5,98.55 114.85,98.65 114.45,95.55 114.1,92.4 114.45,90.2 L114.95,86.45 Q115.25,84.95 116.2,84.95 M129.1,71.85 Q130.6,71.75 129.75,74.15 L128.6,77.45 Q128.6,78.3 127.3,78.4 126.05,78.55 125.6,77.95 125.15,77.35 126.5,74.7 127.85,71.95 129.1,71.85 M130.55,79.8 Q139.65,76.2 141.15,76.2 142.4,76.2 142.85,76.6 143.25,76.9 143.25,77.6 143.25,78.2 138.95,79.35 L132.4,80.95 Q130.75,81.35 127.15,83.65 123.8,85.8 123.35,85.8 122.7,85.8 121.9,85.1 L121.25,84.4 Q121.25,83.45 130.55,79.8 M157.55,94.9 Q159.35,93.7 159.45,94.7 L157.15,97.15 Q154.8,99.7 154.5,100.3 148.4,105.85 146.35,106.05 144.1,106.25 141.65,105.15 138.45,103.7 136.95,103.45 L131.9,103 123.1,103.5 Q120.8,103.7 120.2,103.1 119.55,102.45 119.2,100.85 L119,99.4 120,100.3 Q121.15,101.3 122.15,101.5 L135.05,100.45 145.85,101 Q147.6,100.75 150.45,99.4 L157.55,94.9 M125.15,113.85 Q125.8,115.2 124.75,115.65 L116.55,115.65 112.15,116.15 109.75,116 Q109.85,114.8 113.7,113.6 117.6,112.35 121.25,112.35 124.45,112.35 125.15,113.85 M127.5,122.3 L124.4,122.45 116.55,122.1 112.4,122.55 Q110.5,122.75 110.6,122.1 110.85,121.1 118.1,119.65 120.35,119.25 123.55,119.6 126.95,120 127.7,120.9 128.5,121.8 127.5,122.3 M133.45,114.25 Q133.05,115 127.45,112.4 121.1,109.45 120.05,109.35 L116.8,109.7 113.95,110.75 110.1,112.95 Q107.8,114.2 107.8,113.05 L111.85,109.8 Q116.55,106.65 119.7,107.1 123.45,107.6 128.75,110.4 134,113.2 133.45,114.25Z"/><path fill="#FFF" stroke="none" d="M119.75,151.4 Q119.65,151.8 119.9,152.15 120.1,152.45 120.55,152.55 L123.95,153.15 124,153.15 Q128.25,153.65 131.75,153.05 132.15,152.95 132.4,152.65 L132.55,151.9 Q132.45,151.45 132.15,151.25 L131.4,151.1 Q128.15,151.65 124.25,151.15 L124.3,151.2 120.9,150.6 Q120.45,150.5 120.15,150.75 119.8,150.95 119.75,151.4 M103.75,119.65 Q103.45,119.95 103.45,120.4 L103.55,124.5 Q103.45,132 102.7,134.55 102.6,134.95 102.8,135.35 L103.35,135.8 104.15,135.75 104.6,135.15 Q105.45,132.45 105.55,124.5 L105.45,120.35 105.15,119.65 Q104.85,119.35 104.45,119.35 104,119.35 103.75,119.65 M144.05,121 L143.3,121.05 142.8,121.65 Q142.65,122.05 142.85,122.4 143.05,122.75 143.45,122.9 145.5,123.65 146.7,126.75 147.3,128.4 147.5,129.9 L147.9,130.55 148.65,130.75 149.3,130.4 149.5,129.65 Q149.3,127.9 148.55,126 146.9,121.85 144.05,121Z"/></g></svg>