<?xml version="1.0" encoding="utf-8"?><svg id="Strength" image-rendering="auto" baseProfile="basic" version="1.1" x="0px" y="0px" width="240" height="240" xmlns="http://www.w3.org/2000/svg" xmlns:xlink="http://www.w3.org/1999/xlink"><g id="Scene-1f4r1" overflow="visible"><g id="Symbol-6"><path fill="#FFF" stroke="none" d="M114.15,142.65 Q110.9,141 108.25,137.25 104.6,132.15 103.6,131.2 96.1,137.6 95.3,151.8 95,156.95 95.75,161.2 96.45,165.15 97.4,165.25 97.6,169.2 99.65,180.65 L96.55,178.6 96.05,170.6 Q95.6,169.95 95,169.65 93.8,169.05 93.25,170.7 92.4,173.2 93.15,178.25 L93.45,181 91.4,182.05 Q90.95,182.55 90.4,183.55 89.2,185.55 88.5,188.2 87.8,190.95 88.1,196.15 L88.55,202.5 Q88.55,205.1 87.45,208.85 86.1,213.4 84.3,213.65 83.15,213.85 78.8,215.35 74.6,216.8 72.2,217.85 71.25,220.3 70.9,221.85 L72.5,222.2 70.7,223.4 Q70.7,224.65 71.25,224.9 73.1,225.8 75,225.6 78.35,225.3 82.95,222.15 L85.8,220.2 Q87.5,219.25 89.5,219.2 94.5,218.95 95.15,214.9 L96.05,208.95 93.25,212.2 93.1,210.3 97.65,204.25 Q100.35,200.45 101.85,197.4 103.25,194.65 103.35,190.55 L103.2,187 101.85,185.8 106.1,180.85 Q108.15,178.65 107.85,177.25 L107.15,176.2 105.25,176.05 108,171.25 115.3,162 110.9,165.1 109.35,163.9 123,151.95 Q122.4,151.6 119.85,147.9 117.35,144.3 114.15,142.65 M92.75,52.85 Q92.9,50.6 92.4,50.6 91.7,50.65 91.45,50.95 91.25,51.15 91,51.9 90.8,52.45 91.15,55.05 L91.55,57.9 98.6,59.5 99.9,57.3 99.35,57.45 96,57.25 Q93.6,56.85 93,56.05 92.6,55.45 92.75,52.85 M101.2,54.95 L99.55,54.85 96.95,54 Q95.6,53.5 95.25,52.9 L94.6,51.45 94.35,50.7 94.1,51.25 Q93.85,52.05 93.9,53.35 94,54.85 95.25,55.7 96.2,56.35 97.3,56.4 L100.4,56.5 101.2,54.95 M144.2,24.9 L139.2,19.35 136.65,19.45 134.95,20.2 132,20.45 Q130.8,20.2 129.15,19.3 127.45,18.45 125.2,19 122.8,19.6 120.8,21.65 119.85,22.6 118.45,22.55 L112,21.2 Q109.4,20.9 108.15,23.55 106.85,26.4 110.7,28.45 111.75,29.05 110.75,29.55 107.85,31.05 106.1,32.5 102.2,35.75 102.1,39.85 103.6,36.8 106.15,34.15 109.1,31.4 110.1,31.1 110.75,30.9 111,31.25 111.25,31.65 110.75,31.9 L106.95,34.85 Q104.7,36.75 102.15,41.1 L102.3,42.1 Q104.15,38.7 106.6,36.55 108.55,34.85 109.85,34.5 110.4,34.3 110.5,34.85 110.55,35.4 109.8,35.8 108.2,36.65 107.35,37.4 106.05,38.6 104.35,40.7 L102.55,42.95 102.55,43 102.6,43.6 Q104.75,47 104.55,49 104.5,50.45 103.8,52.3 105.7,53.6 108.1,53.4 112,60.35 118.05,64.05 122.6,66.75 124.5,67.45 130.5,69.6 135.85,67.5 144.8,63.95 149.4,55.15 153.8,46.75 152.25,37.8 151.25,32.3 147.85,26.65 145.9,26.35 144.2,24.9 M142.95,28.9 Q142.45,28.9 142.2,28.6 141.95,28.25 142.05,27.8 L142.2,26.95 Q142.3,26.55 142.65,26.4 L143.4,26.45 146.95,28.55 147.3,28.95 146.75,29.05 142.95,28.9 M135.95,38.85 L134.25,34.45 134.25,33.85 Q134.3,33.6 134.5,33.55 135.1,33.45 135.35,34.25 L137.1,37.75 140.65,42.25 Q141.2,42.95 140.65,43.65 L138.4,46.5 Q137.8,47.15 136.9,47.05 L136.1,46.8 Q135.7,46.75 135.65,46.45 135.55,46.2 135.8,45.9 L137.65,43.75 Q138.25,43 137.8,42.3 L135.95,38.85 M142.2,37.35 Q142.25,36.15 143.15,34.8 144.1,33.45 144.85,33.4 145.55,33.35 146.35,34.85 147.15,36.3 147.15,37.5 147.15,38.55 146.45,38.75 L143.25,38.7 Q142.2,38.4 142.2,37.35 M145.8,49.3 Q145.8,48.95 145.95,48.9 146.15,48.85 146.4,49.1 L148.05,51.05 148.3,51.75 148.05,52.45 145.9,55.35 Q145.4,56 145.4,55.2 L145.45,54.75 145.25,54.25 144.6,54.15 Q143.35,54.95 141.5,55.75 137.85,57.35 134.95,57.4 132,57.4 127.35,54.9 L123.25,52.4 Q122.9,52.25 122.5,52.4 L121.85,52.8 121.7,54.75 121.3,55 Q121.1,54.95 121.05,54.6 L120.35,50.7 120.5,50 Q120.7,49.6 121.05,49.4 L125.9,46.3 126.35,46.25 126.35,46.65 125.7,48.05 Q125.55,48.35 125.85,48.75 L126.55,49.2 130.15,50.35 Q134.15,51.55 136.1,51.75 139.3,52.05 144.9,50.9 145.3,50.85 145.55,50.6 L145.8,49.95 145.8,49.3 M138.05,58.9 L138.5,59.1 138.15,59.45 136.5,60.2 134.6,60.4 133.65,60.2 Q133.25,60.1 133,59.8 132.75,59.5 132.85,59.15 132.95,58.8 133.3,58.6 L134.1,58.5 138.05,58.9 M123.35,28.9 Q120.3,30.6 119.8,30.55 119.55,29.45 121.65,27.4 L123.8,25.6 124.5,25.5 125,25.9 Q126.35,27.45 126.05,27.85 L123.35,28.9 M110.25,38.15 Q110.5,38.6 109.8,39 L109.75,39.05 109.75,39 107.9,40.1 106.35,41.6 Q105.5,42.5 105.4,42.05 105.25,41.3 107.2,39.35 108.4,38.25 109.6,37.9 110,37.7 110.25,38.15 M109.25,41.25 Q109.75,41.05 109.95,41.45 110.2,41.9 109.75,42.15 L109.1,42.65 Q108.45,43.25 108.4,43.6 108.3,44.1 107.75,44.05 107.2,44.05 107.25,43.4 107.4,42.65 108.05,42.1 108.65,41.5 109.25,41.25 M127.8,37.65 Q127.45,38.6 126.35,38.75 L122.6,38.9 Q121.35,38.8 121.35,37.75 121.35,36.6 122.7,34.95 124,33.35 124.8,33.35 125.6,33.3 126.85,34.9 128.2,36.6 127.8,37.65 M145.65,51.85 L144.9,51.75 135.6,52.55 Q133.3,52.4 129.45,51.25 L126.05,50.1 123.7,50.3 Q123.1,50.75 123.4,51.25 L124.15,51.85 126.95,53.2 Q130,54.65 131.2,55 L135.1,55.55 138.95,55.25 144.85,53.4 Q145.5,53.3 145.85,52.45 146,52.05 145.65,51.85 M151.95,25.4 Q150.95,26.2 149.75,26.55 L152.1,31.4 Q153.45,29.4 153.65,28.45 154.05,26.7 153.5,25.65 152.95,24.55 151.95,25.4 M122.1,18.15 Q125.3,15.25 127,16 127.8,16.3 130.15,17.8 L132.35,19.05 134.05,19.25 135.4,18.65 Q137.1,17.9 137.55,17.85 138.6,17.7 140.1,18.5 141,18.95 143.1,21.45 L145.25,24.05 Q146.75,25.25 148.25,25.5 150,25.8 151.25,24.75 153.1,23.25 153.85,20.75 154.55,18.35 153.85,16.5 153.4,15.05 152.2,13.95 152.3,15.55 151.1,16.4 149.45,17.6 147.4,17.35 145.4,17.1 144,15.6 140.05,11.15 138.35,10.75 137,10.45 134.55,11.15 L131.8,10.95 128.6,6.55 Q127.55,5.3 126.8,5.2 125.55,5 123.05,6.45 L121.75,7.35 Q121,7.9 120.25,8.1 L116.05,9.1 Q113.25,9.45 110.8,12.2 L107.85,15.35 Q105.95,16.05 103.85,18.7 102.25,20.6 101.15,22.75 99.1,26.55 100,32.75 100.4,35.85 101.25,38.2 102.25,34.5 105.2,31.95 106.35,31 109.1,29.2 107.6,28.15 106.6,26.95 105.2,25.3 105.45,24.05 105.9,22.15 107.15,20.9 108.95,19.2 112,19.55 112.95,19.65 115.45,20.7 117.65,21.6 118.35,21.45 L122.1,18.15 M173.05,211.4 L173.85,204.5 Q174.35,197 172.9,193.2 171.15,188.8 166.5,179.45 165.2,185.8 165.2,187.55 165.2,188.65 164.75,188.45 L163.8,187.7 Q163.4,187.4 163.55,186.25 L163.8,183.6 162.45,174.7 160.45,171.5 Q158.7,169 158.7,168.55 158.7,168 159.55,167.9 L160.4,167.9 163.5,170.95 163.75,167.1 Q163.75,162.05 162.6,155.55 160.95,146.1 154.45,135.9 L148,127.15 Q146.75,127.9 144.35,133.15 L139.75,143.9 Q137.75,148.6 133.55,150.45 L129.75,151.35 132.7,157.15 Q136.1,163.65 138.65,167.4 L141.1,171 Q143.6,174.8 144.7,175.6 145.15,175.95 147.75,176.75 L150.15,177.1 150.65,178.8 153.4,185.3 155.45,188.4 152.9,187.35 152.9,191.45 Q153.3,196.2 155.25,200 158.45,206.15 163.9,213.65 L163.9,213.75 166.95,220.5 Q169.85,227.4 169.9,230.5 169.95,231.8 170.95,233.35 172.2,235.3 173.95,235.3 175.25,235.3 176,234.45 L176.55,233.45 177.15,230.7 178.85,232.6 185.65,230.85 Q186.65,230.55 186.8,230 186.85,229.75 185.75,228.6 L170.8,211.55 173.05,211.4 M151.85,177.45 Q152.05,176.9 153.25,176.8 L154.4,176.75 Q154.25,178.2 154.55,180.65 154.9,183.45 155.45,183.8 156.3,184.3 155.1,185.65 L153.35,181.85 Q151.65,178 151.85,177.45 M175.95,49.4 L176.75,51.65 Q177,52.5 173.3,49.2 L174.1,52.45 Q175.4,55.95 177.8,57.5 179.6,57.5 185.2,60.75 190.55,63.9 193.15,63.65 191.9,65.55 187.35,64.1 L180.35,61.35 177.75,62 176.75,62.35 180.8,66.7 Q184.85,71 184.4,71.1 183.9,71.2 173.25,63.45 172.5,63.15 171.1,63 L165.15,63.45 Q159.45,64.8 154.45,73.55 L153.7,75.35 152.75,74.1 Q151.3,72.6 149.2,71.65 146.85,70.55 146,70.7 L145.5,71.1 144.8,73.05 143.4,70.65 142.25,65.8 Q139.15,67.7 135.95,68.65 123.95,71.3 113.65,63.25 L112.05,71.45 Q112,71.65 110.8,70.9 L109.4,70.05 Q107.35,69.85 105,70.9 L102.95,72 105.5,73.25 Q108.05,74.6 107.85,74.95 107.65,75.3 104.4,74 L99.8,72.15 99.4,71.95 97.5,71.3 Q91.7,69.8 88.45,69.6 90.5,74.55 88.8,81.9 L88.6,77.6 Q88.1,72.65 86.75,69.65 L86.7,69.65 86.6,69.35 85.75,67.85 Q82.3,63.15 77.45,63.7 L73,67.6 Q69.35,70.55 67.6,71.15 67.05,71.6 67.35,75.35 L67.75,79 66.25,76.6 Q64.9,73.85 65.5,71.9 L62.65,71.75 Q60.85,71.25 61.1,70.95 L62.85,70.8 Q64.9,70.65 66.95,69.7 73.3,66.8 76.25,62.55 L79.05,58.85 84.65,49.15 84.7,49.1 86.05,46.95 89.6,47.7 86.4,50.25 Q85.9,51.7 86.1,52.85 86.3,54.05 87.15,54.35 L89.5,55.75 89.75,52.9 Q90.1,50.05 90.45,49.6 91.15,48.85 92.7,47.85 L89.35,45.6 Q89.05,45.5 88.8,44.75 L88.65,44.05 90,43.95 Q91.05,44.3 91.9,45.05 93.1,46.1 94.95,46.1 L95.75,45.3 97.35,45.2 Q98.35,46.1 99.2,47.45 100.15,49 99.6,49.3 99.2,49.5 98.3,48.2 97.45,46.95 97.1,47.35 95.05,49.7 96.1,50.6 L97.45,52 Q98.3,52.85 99.05,52.8 L101.8,52.85 102.85,50.55 103.15,48.9 Q102.65,46.3 99.5,42.95 96.65,39.95 95.1,39.5 L89.4,38.6 Q83.1,40.45 76.15,43.15 62.35,48.45 59,52.6 56.4,55.75 54.25,62.2 53,65.95 52.25,69.55 L57.45,76.4 Q62.75,83.05 66.6,86.7 68.95,88.95 75.55,90.85 L81.65,92.35 79.9,92.65 76.75,92.75 Q79.65,96.65 92.7,109.25 95.7,112.3 99.6,113.95 100.5,110.6 101.45,112.4 101.95,113.35 102.25,115.05 L104.35,122.55 Q107.15,124.65 111.55,126.65 118.8,129.85 126,130.25 133.05,130.6 139.65,127.6 142.25,126.4 145.9,123.85 L148.3,116.45 150.25,107.9 Q150.75,107.55 150.95,110.05 151.2,112.75 151.95,112.65 153.25,112.5 154.45,109.25 L155.45,106 164.9,99.65 Q175.4,92.55 180.55,88.75 176.85,89.85 173.9,88.9 172.05,88.35 169.15,86.3 162.8,81.75 156.75,82.45 160.3,80.75 163.85,81.85 164.7,82.1 170.1,84.85 174,86.8 177.2,86.75 181.7,86.7 187,83.05 193,77.65 201.9,66.3 199.3,54 195.6,49.2 192.7,45.45 182.25,38.2 171.3,30.6 166.7,29.7 163.1,30.85 158.8,33.2 154.65,35.55 153.9,36.7 155.4,42.65 154.1,48.75 L158.6,50.25 162,49.4 Q163.85,48.95 164.2,48.25 L164.15,47.2 Q163.9,46.25 163.35,46.1 L160.05,45.9 Q160,45.75 161.45,45.05 L163.05,44.25 164.65,42.35 165.45,42.3 Q165.25,41.35 165.3,38.25 L165.25,34.75 167.9,35.05 167.45,38.45 Q166.9,41.5 167.05,41.8 167.7,43.25 169.65,43.4 171.95,43.55 173.3,45.2 175,47.25 175.95,49.4 M126.8,73.8 Q127.2,71.7 127.9,72 128.35,72.2 128.05,76 128.2,79.9 130.85,80.7 L133,80.8 Q133.85,80.7 133.85,81.25 133.85,82.95 131.4,82.45 129.9,82.15 128.75,81.1 127.35,79.85 126.85,77.9 126.35,75.95 126.8,73.8 M120.05,71.8 Q121.3,71.9 122.65,74.65 124,77.3 123.55,77.9 123.1,78.5 121.85,78.35 120.55,78.25 120.55,77.4 L119.4,74.1 Q118.55,71.7 120.05,71.8 M127.9,84.35 Q126.85,85.75 125.8,85.75 125.4,85.75 122,83.6 118.4,81.3 116.75,80.9 105.9,78.35 105.9,77.55 105.9,76.85 106.3,76.55 106.75,76.15 108,76.15 109.5,76.15 118.6,79.75 127.9,83.4 127.9,84.35 M93.5,90.2 L93.55,86.7 Q94.1,85.45 94.95,87.6 95.65,89.3 96.15,91.8 96.5,93.85 98.05,96.55 99.75,99.5 101.4,100.45 103.8,101.85 110.5,103.05 L124.25,103.45 Q125.75,103.1 127.4,101.35 126.95,104 125.95,105.3 125.3,106 123.15,105.65 L119,105.1 109.8,105.15 Q108.35,105.2 104.75,106.25 102.05,107.05 99.7,106.35 98.05,105.9 96.15,102.7 94.25,99.55 93.85,96.6 93.5,94.15 93.5,90.2 M124,113.8 Q124.7,112.3 127.9,112.3 131.55,112.3 135.45,113.55 139.3,114.75 139.4,115.95 L137,116.1 132.6,115.6 124.4,115.6 Q123.35,115.15 124,113.8 M121.7,112.35 Q116.1,114.95 115.7,114.2 115.15,113.15 120.4,110.35 125.75,107.55 129.45,107.05 132.65,106.6 137.3,109.75 139.65,111.35 141.35,113 141.35,114.15 139.05,112.9 L135.2,110.7 132.4,109.65 129.1,109.3 Q128.05,109.4 121.7,112.35 M150.8,77.3 Q153.2,77.15 153.2,77.75 153.2,78.2 150.6,79.45 L145.5,81.75 139.85,85.15 Q136.55,87.2 135.9,86.45 135.2,85.65 137.3,83.7 139.15,82 141.15,81.05 L147.8,77.75 150.8,77.3 M158.85,93.15 Q158.7,91.8 158.9,91.75 159.45,91.6 160.15,92.95 161.05,94.45 160.85,96.35 160.2,102.05 150.4,106.85 L145.65,106.5 136.5,104.25 Q134.3,103.55 134.3,103.15 134.3,102.65 134.7,102.15 135.15,101.55 135.65,101.7 L139.05,103.1 Q141.1,103.85 142.75,103.85 L150.5,103.15 Q157.8,101.05 158.8,96.25 159.05,94.95 158.85,93.15 M134.25,86.4 L134.7,90.15 Q135.1,92.35 134.7,95.5 134.35,98.6 133.65,98.5 133.25,98.4 133.25,94.95 133.25,90.9 132.8,89.6 132.1,87.55 132.1,86.3 132.1,84.9 132.95,84.9 133.95,84.9 134.25,86.4 M138.55,122.05 Q138.65,122.7 136.75,122.5 L132.6,122.05 124.75,122.4 121.65,122.25 Q120.65,121.75 121.45,120.85 122.2,119.95 125.6,119.55 128.8,119.2 131.05,119.6 138.3,121.05 138.55,122.05Z"/></g><path fill="#FFF" stroke="none" d="M119.75,151.4 Q119.65,151.8 119.9,152.15 120.1,152.45 120.55,152.55 L123.95,153.15 124,153.15 Q128.25,153.65 131.75,153.05 132.15,152.95 132.4,152.65 L132.55,151.9 Q132.45,151.45 132.15,151.25 L131.4,151.1 Q128.15,151.65 124.25,151.15 L124.3,151.2 120.9,150.6 Q120.45,150.5 120.15,150.75 119.8,150.95 119.75,151.4 M103.75,119.65 Q103.45,119.95 103.45,120.4 L103.55,124.5 Q103.45,132 102.7,134.55 102.6,134.95 102.8,135.35 L103.35,135.8 104.15,135.75 104.6,135.15 Q105.45,132.45 105.55,124.5 L105.45,120.35 105.15,119.65 Q104.85,119.35 104.45,119.35 104,119.35 103.75,119.65 M144.05,121 L143.3,121.05 142.8,121.65 Q142.65,122.05 142.85,122.4 143.05,122.75 143.45,122.9 145.5,123.65 146.7,126.75 147.3,128.4 147.5,129.9 L147.9,130.55 148.65,130.75 149.3,130.4 149.5,129.65 Q149.3,127.9 148.55,126 146.9,121.85 144.05,121Z"/></g></svg>