<?xml version="1.0" encoding="utf-8"?><svg id="Strength" image-rendering="auto" baseProfile="basic" version="1.1" x="0px" y="0px" width="240" height="240" xmlns="http://www.w3.org/2000/svg" xmlns:xlink="http://www.w3.org/1999/xlink"><g id="Scene-1f5r1" overflow="visible"><g id="Symbol-5"><path fill="#FFF" stroke="none" d="M114.2,142.65 Q113.4,140.5 109.9,137 L103.65,131.2 Q96.15,137.6 95.35,151.8 95.05,156.95 95.8,161.2 96.5,165.15 97.45,165.25 97.65,169.2 99.7,180.65 L96.6,178.6 96.1,170.6 95.05,169.65 Q93.85,169.05 93.3,170.7 92.45,173.2 93.2,178.25 L93.5,181 91.45,182.05 90.45,183.55 Q89.25,185.55 88.55,188.2 87.85,190.95 88.15,196.15 L88.6,202.5 Q88.6,205.1 87.5,208.85 86.15,213.4 84.35,213.65 83.2,213.85 78.85,215.35 74.65,216.8 72.25,217.85 71.3,220.3 70.95,221.85 L72.55,222.2 70.75,223.4 Q70.75,224.65 71.3,224.9 73.15,225.8 75.05,225.6 78.4,225.3 83,222.15 L85.85,220.2 Q87.55,219.25 89.55,219.2 94.55,218.95 95.2,214.9 L96.1,208.95 93.3,212.2 93.15,210.3 97.7,204.25 Q100.4,200.45 101.9,197.4 103.3,194.65 103.4,190.55 L103.25,187 101.9,185.8 106.15,180.85 Q108.2,178.65 107.9,177.25 L107.2,176.2 105.3,176.05 108.05,171.25 115.35,162 110.95,165.1 109.4,163.9 123.05,151.95 Q120.55,150.5 118.4,148.5 115.3,145.6 114.2,142.65 M97.25,25.4 Q96.25,24.55 95.65,25.65 95.1,26.7 95.5,28.45 95.7,29.4 97.05,31.4 L99.4,26.55 Q98.2,26.2 97.25,25.4 M156.8,50.6 Q156.3,50.6 156.4,52.85 156.55,55.5 156.15,56.05 155.55,56.85 153.15,57.25 L149.8,57.45 149.25,57.3 150.55,59.5 Q156.2,58.05 157.6,57.9 L158.2,51.9 157.75,50.95 Q157.45,50.65 156.8,50.6 M152.2,54 L149.6,54.85 148,54.95 148.75,56.5 151.85,56.4 Q152.95,56.35 153.95,55.7 155.15,54.85 155.25,53.35 155.35,52.05 155.1,51.25 L154.8,50.7 153.9,52.9 152.2,54 M138.05,28.8 L138.45,28.45 Q142.3,26.4 141,23.55 139.75,20.9 137.15,21.2 L130.7,22.55 Q129.3,22.6 128.35,21.65 126.35,19.6 123.95,19 121.7,18.45 120,19.3 L117.2,20.45 114.2,20.2 Q113.35,19.75 112.5,19.45 L109.95,19.35 Q109.25,19.75 107.2,22.2 L105,24.9 Q103.15,26.4 101.3,26.65 97.9,32.3 96.9,37.8 95.4,46.75 99.8,55.15 104.4,63.95 113.3,67.5 118.7,69.6 124.7,67.45 126.55,66.75 131.1,64.05 137.1,60.4 141.05,53.4 143.45,53.6 145.35,52.3 144.65,50.45 144.6,49 144.4,46.95 146.6,43.6 L146.6,43 146.65,42.95 Q143.95,39.35 141.8,37.4 L139.35,35.8 Q138.6,35.4 138.7,34.85 138.75,34.3 139.3,34.5 140.6,34.85 142.55,36.55 145,38.7 146.85,42.1 L147,41.1 Q144.45,36.75 142.2,34.85 L138.45,31.9 Q137.9,31.65 138.15,31.25 138.4,30.9 139.05,31.1 140.05,31.4 143,34.15 145.6,36.8 147.05,39.85 146.95,35.75 143.05,32.5 141.3,31.05 138.4,29.55 137.75,29.25 138.05,28.8 M139.35,39 Q138.7,38.6 138.95,38.15 139.15,37.7 139.55,37.9 140.75,38.25 141.95,39.35 L143.25,40.85 Q143.8,41.7 143.75,42.05 143.65,42.5 142.8,41.6 L141.25,40.1 139.4,39 139.4,39.05 139.35,39 M140.8,43.6 L140.05,42.65 139.4,42.15 Q138.95,41.9 139.2,41.45 139.4,41.05 139.9,41.25 L141.1,42.1 Q141.75,42.65 141.9,43.4 141.95,44.05 141.4,44.05 140.85,44.1 140.8,43.6 M124.15,25.9 L124.65,25.5 125.35,25.6 127.5,27.4 Q129.6,29.45 129.35,30.55 L123.1,27.85 Q122.9,27.6 123.5,26.75 L124.15,25.9 M114.65,33.55 Q115.15,33.65 114.9,34.45 114.25,36.75 113.2,38.85 L111.35,42.3 Q110.9,43 111.55,43.75 L113.35,45.9 113.5,46.45 113.05,46.8 Q111.7,47.5 110.75,46.5 L108.5,43.65 Q107.95,42.95 108.55,42.25 L112.05,37.75 113.8,34.25 Q114.15,33.45 114.65,33.55 M122.8,38.75 Q121.7,38.6 121.35,37.65 120.95,36.6 122.3,34.9 123.55,33.3 124.35,33.35 125.15,33.35 126.45,34.95 127.8,36.6 127.8,37.75 127.8,38.8 126.55,38.9 L122.8,38.75 M101.85,28.95 Q101.8,28.8 102.2,28.55 L105.75,26.45 106.5,26.4 106.95,26.95 107.15,27.8 Q107.25,28.25 106.95,28.6 L106.2,28.9 102.4,29.05 101.85,28.95 M106,34.8 Q106.9,36.15 106.95,37.35 106.95,38.4 105.95,38.7 L102.7,38.75 Q102,38.55 102,37.5 102,36.25 102.8,34.85 103.6,33.35 104.35,33.4 105.1,33.45 106,34.8 M103.2,48.9 L103.35,49.3 103.35,49.95 103.6,50.6 104.25,50.9 107.45,51.45 113.05,51.75 Q116.2,51.4 122.6,49.2 L123.3,48.75 Q123.65,48.35 123.45,48.05 L122.8,46.65 Q122.65,46.35 122.8,46.25 L123.25,46.3 128.1,49.4 Q128.95,49.85 128.85,50.7 L128.15,54.6 127.9,55 127.45,54.75 127.3,52.8 Q127.05,52.5 126.65,52.4 126.25,52.25 125.9,52.4 L121.8,54.9 Q117.15,57.4 114.2,57.4 111.3,57.35 107.65,55.75 L104.55,54.15 103.9,54.25 Q103.65,54.4 103.7,54.75 L103.75,55.2 Q103.75,56 103.25,55.35 L101.1,52.45 100.9,51.75 101.1,51.05 102.8,49.1 Q103.05,48.85 103.2,48.9 M115.85,58.6 Q116.25,58.8 116.3,59.15 L116.2,59.8 115.55,60.2 Q113.95,60.7 112.65,60.2 L111,59.45 110.65,59.1 Q110.7,58.95 111.1,58.9 L115.1,58.5 115.85,58.6 M104.25,51.75 Q103.1,51.65 103.35,52.45 103.6,53.25 104.3,53.4 L110.2,55.25 114.05,55.55 117.95,55 Q119.9,54.4 125,51.85 L125.75,51.25 Q126.05,50.75 125.45,50.3 124.6,49.65 123.1,50.1 117.3,52.3 113.55,52.55 L107.5,52.25 104.25,51.75 M98.1,16.4 Q96.95,15.65 96.95,13.95 95.75,15.05 95.3,16.5 94.6,18.35 95.35,20.75 96.05,23.25 97.9,24.75 99.15,25.8 100.9,25.5 102.4,25.25 103.9,24.05 L106.05,21.45 Q108.15,18.95 109.05,18.5 110.55,17.7 111.65,17.85 L115.1,19.25 116.8,19.05 120.55,16.9 Q121.7,16.2 122.15,16 123.85,15.25 127.05,18.15 L130.8,21.45 Q131.5,21.6 133.7,20.7 136.2,19.65 137.15,19.55 140.2,19.2 142,20.9 143.3,22.15 143.7,24.05 143.95,25.3 142.6,26.95 L140.1,29.2 143.95,31.95 Q146.9,34.5 147.9,38.2 148.75,35.85 149.15,32.75 150.05,26.55 148,22.75 L145.35,18.7 Q143.2,16.05 141.3,15.35 L138.35,12.2 Q135.95,9.45 133.15,9.1 L128.9,8.1 Q128.2,7.9 127.4,7.35 L126.1,6.45 Q123.7,5 122.35,5.2 121.3,5.35 118.9,8.85 L117.35,10.95 114.6,11.15 110.8,10.75 Q109.3,11.1 105.15,15.6 103.75,17.1 101.75,17.35 99.75,17.6 98.1,16.4 M173.1,211.4 L173.9,204.5 Q174.4,197 172.95,193.2 171.2,188.8 166.55,179.45 165.25,185.8 165.25,187.55 165.25,188.65 164.8,188.45 L163.85,187.7 Q163.45,187.4 163.6,186.25 L163.85,183.6 162.5,174.7 160.5,171.5 Q158.75,169 158.75,168.55 158.75,168 159.6,167.9 L160.45,167.9 163.55,170.95 163.8,167.1 Q163.8,162.05 162.65,155.55 161,146.1 154.5,135.9 L148.05,127.15 Q142.85,130.2 138.25,135.2 130.8,143.35 130.55,152 L133.4,158 Q136.2,163.7 138.7,167.4 L141.15,171 Q143.65,174.8 144.75,175.6 L147.8,176.75 150.2,177.1 150.7,178.8 153.45,185.3 155.5,188.4 152.95,187.35 152.95,191.45 Q153.35,196.2 155.3,200 158.5,206.15 163.95,213.65 L163.95,213.75 167,220.5 Q169.9,227.4 169.95,230.5 170,231.8 171,233.35 172.25,235.3 174,235.3 175.3,235.3 176.05,234.45 L176.6,233.45 177.2,230.7 178.9,232.6 185.7,230.85 Q186.7,230.55 186.85,230 186.9,229.75 185.8,228.6 L170.85,211.55 173.1,211.4 M153.3,176.8 L154.45,176.75 Q154.3,178.2 154.6,180.65 154.95,183.45 155.5,183.8 156.35,184.3 155.15,185.65 L153.4,181.85 Q151.7,178 151.9,177.45 152.1,176.9 153.3,176.8 M194.9,62.2 Q192.75,55.75 190.15,52.6 186.8,48.45 173,43.15 L159.75,38.6 154.05,39.5 Q152.5,39.95 149.7,42.95 146.55,46.3 146.05,48.9 L146.3,50.55 147.35,52.85 150.1,52.8 Q150.85,52.85 151.7,52 L153.05,50.6 Q153.7,50.05 153.15,48.95 L152.05,47.35 Q151.7,46.95 150.85,48.2 149.95,49.5 149.55,49.3 149,49 150,47.45 150.85,46.1 151.8,45.2 L153.4,45.3 154.2,46.1 155.3,45.95 Q156.5,45.7 157.25,45.05 158.15,44.3 159.15,43.95 L160.55,44.05 Q160.3,45.4 159.8,45.6 L156.45,47.85 158.7,49.6 Q159.3,50.3 159.65,55.75 L162,54.35 Q162.9,54.05 163.05,52.85 163.25,51.7 162.75,50.25 L161.05,48.95 Q159.45,47.8 159.55,47.7 L163.1,46.95 164.45,49.1 164.5,49.15 168,55.25 Q168.9,57.15 170.15,58.85 L172.9,62.55 Q175.85,66.8 182.2,69.7 184.25,70.65 186.3,70.8 L188.05,70.95 Q188.3,71.25 186.55,71.75 L183.65,71.9 Q184.25,73.85 182.9,76.6 L181.4,79 181.8,75.35 Q182.15,71.6 181.6,71.15 179.8,70.55 176.2,67.6 L171.7,63.7 Q166.85,63.15 163.45,67.85 L162.55,69.35 162.45,69.65 162.4,69.65 Q161.05,72.65 160.6,77.6 160.35,80.05 160.4,81.9 158.65,74.55 160.7,69.6 157.45,69.8 151.65,71.3 L149.75,71.95 149.35,72.15 144.75,74 Q141.5,75.3 141.3,74.95 141.1,74.6 143.7,73.25 L146.2,72 Q145.4,71.4 144.2,70.9 141.8,69.85 139.75,70.05 L138.35,70.9 Q137.2,71.65 137.15,71.45 L135.5,63.25 Q125.2,71.3 113.2,68.65 110,67.7 106.9,65.8 L105.75,70.65 104.35,73.05 103.65,71.1 103.2,70.7 Q102.3,70.55 100,71.65 97.85,72.6 96.45,74.1 L95.45,75.35 94.7,73.55 Q89.7,64.8 84,63.45 L78.1,63 75.9,63.45 70.5,67.35 Q65.05,71.15 64.75,71.1 64.3,71 68.35,66.7 L72.45,62.35 68.8,61.35 Q64.35,63.3 61.8,64.1 57.25,65.55 56,63.65 58.55,63.9 64,60.75 69.6,57.5 71.4,57.5 73.8,55.95 75.05,52.45 L75.85,49.2 74.05,50.75 Q72.25,52.15 72.4,51.65 L73.2,49.4 Q74.15,47.25 75.85,45.2 77.2,43.55 79.5,43.4 81.5,43.25 82.1,41.8 L81.25,35.05 83.9,34.75 83.9,38.25 Q83.95,41.35 83.7,42.3 L84.5,42.35 86.1,44.25 Q89.15,45.65 89.1,45.9 L85.8,46.1 Q85.25,46.25 85,47.2 84.8,48 84.95,48.25 85.3,48.95 87.15,49.4 L90.6,50.25 Q92.4,49.55 95.05,48.75 93.75,42.65 95.25,36.7 94.5,35.55 90.35,33.2 86.05,30.85 82.45,29.7 77.85,30.6 66.9,38.2 56.45,45.45 53.55,49.2 51.05,52.4 49.1,58.95 48,62.6 47.3,66.3 L52.7,73 Q58.2,79.45 62.15,83.05 67.45,86.7 71.95,86.75 75.15,86.8 79.1,84.85 84.45,82.1 85.3,81.85 88.9,80.75 92.4,82.45 88.3,82 85,83.3 83.15,84.05 80,86.3 77.1,88.35 75.25,88.9 72.35,89.85 68.6,88.75 76.9,94.85 93.7,106 L94.7,109.25 Q95.9,112.5 97.2,112.65 97.95,112.75 98.2,110.05 98.4,107.55 98.95,107.9 L100.85,116.45 104.15,126.6 Q106.05,127.9 110,129 115.95,130.6 123.2,130.25 130.35,129.85 137.6,126.65 142,124.65 144.8,122.55 L147.7,112.4 Q148.65,110.6 149.55,113.95 149.55,114.15 151.9,112.75 154.6,111.15 156.5,109.25 L163.85,102 Q170.55,95.3 172.4,92.75 L169.25,92.65 167.5,92.35 173.65,90.85 Q180.2,88.95 182.55,86.7 188.65,80.9 196.9,69.55 196.15,65.95 194.9,62.2 M122.4,73.8 Q122.8,75.9 122.3,77.9 121.8,79.85 120.4,81.1 119.25,82.15 117.75,82.45 115.35,82.95 115.35,81.25 115.35,80.7 116.2,80.8 L118.3,80.7 Q120.95,79.9 121.1,76 120.85,72.2 121.25,72 121.95,71.75 122.4,73.8 M127.3,78.35 Q126.05,78.5 125.6,77.9 125.15,77.3 126.5,74.65 127.85,71.9 129.1,71.8 130.6,71.7 129.75,74.1 L128.6,77.4 Q128.6,78.25 127.3,78.35 M117.05,86.3 Q117.05,87.55 116.35,89.6 115.95,90.9 115.95,94.95 115.95,98.4 115.5,98.5 114.85,98.6 114.45,95.5 114.1,92.35 114.45,90.15 L114.95,86.4 Q115.25,84.9 116.2,84.9 117.05,84.9 117.05,86.3 M113.25,86.45 Q112.65,87.2 109.3,85.15 L103.65,81.75 98.55,79.45 Q95.95,78.2 95.95,77.75 95.95,77.15 98.35,77.3 L101.35,77.75 Q102.25,78.1 108,81.05 110,82 111.85,83.7 113.95,85.65 113.25,86.45 M121.9,85.05 L121.25,84.35 Q121.25,83.4 130.55,79.75 139.65,76.15 141.15,76.15 142.4,76.15 142.85,76.55 143.25,76.85 143.25,77.55 143.25,78.35 132.4,80.9 130.75,81.3 127.15,83.6 123.8,85.75 123.35,85.75 122.7,85.75 121.9,85.05 M90.3,91.75 Q90.5,91.8 90.35,93.15 90.15,94.95 90.4,96.25 91.35,101.05 98.65,103.15 L106.4,103.85 Q108.05,103.85 110.1,103.1 L113.5,101.7 Q114,101.55 114.45,102.15 114.85,102.65 114.85,103.15 114.85,103.55 112.7,104.25 L103.5,106.5 98.75,106.85 Q88.95,102.05 88.35,96.35 88.15,94.45 89.05,92.95 89.8,91.6 90.3,91.75 M122.75,102.25 Q124,103.25 124.95,103.45 L138.7,103.05 Q145.35,101.85 147.75,100.45 149.4,99.5 151.1,96.55 152.65,93.85 153,91.8 153.5,89.3 154.2,87.6 155.05,85.45 155.6,86.7 L155.65,90.2 Q155.65,94.15 155.3,96.6 154.95,99.55 153,102.7 151.1,105.9 149.45,106.35 147.1,107.05 144.4,106.25 140.8,105.2 139.35,105.15 L130.15,105.1 126,105.65 Q123.85,106 123.25,105.3 122.6,104.5 122.1,102.85 L121.75,101.35 122.75,102.25 M113.95,110.7 L110.1,112.9 107.85,113 111.9,109.75 Q116.55,106.6 119.7,107.05 123.45,107.55 128.75,110.35 134,113.15 133.45,114.2 133.05,114.95 127.45,112.35 121.1,109.4 120.05,109.3 L116.8,109.65 Q116.2,109.8 113.95,110.7 M109.75,115.95 Q109.85,114.75 113.7,113.55 117.6,112.3 121.25,112.3 124.45,112.3 125.15,113.8 125.8,115.15 124.75,115.6 L116.55,115.6 112.15,116.1 109.75,115.95 M127.5,122.25 L124.4,122.4 116.55,122.05 112.4,122.5 Q110.5,122.7 110.6,122.05 110.8,121.05 118.1,119.6 120.35,119.2 123.55,119.55 126.95,119.95 127.7,120.85 128.5,121.75 127.5,122.25Z"/></g><path fill="#FFF" stroke="none" d="M119.75,151.4 Q119.65,151.8 119.9,152.15 120.1,152.45 120.55,152.55 L123.95,153.15 124,153.15 Q128.25,153.65 131.75,153.05 132.15,152.95 132.4,152.65 L132.55,151.9 Q132.45,151.45 132.15,151.25 L131.4,151.1 Q128.15,151.65 124.25,151.15 L124.3,151.2 120.9,150.6 Q120.45,150.5 120.15,150.75 119.8,150.95 119.75,151.4 M103.75,119.65 Q103.45,119.95 103.45,120.4 L103.55,124.5 Q103.45,132 102.7,134.55 102.6,134.95 102.8,135.35 L103.35,135.8 104.15,135.75 104.6,135.15 Q105.45,132.45 105.55,124.5 L105.45,120.35 105.15,119.65 Q104.85,119.35 104.45,119.35 104,119.35 103.75,119.65 M144.05,121 L143.3,121.05 142.8,121.65 Q142.65,122.05 142.85,122.4 143.05,122.75 143.45,122.9 145.5,123.65 146.7,126.75 147.3,128.4 147.5,129.9 L147.9,130.55 148.65,130.75 149.3,130.4 149.5,129.65 Q149.3,127.9 148.55,126 146.9,121.85 144.05,121Z"/></g></svg>