<?xml version="1.0" encoding="utf-8"?>
<!-- Generator: Adobe Illustrator 25.4.1, SVG Export Plug-In . SVG Version: 6.00 Build 0)  -->
<svg version="1.1" id="Awareness_x2C_PerkClip_x5F_d2287" image-rendering="auto"
	 xmlns="http://www.w3.org/2000/svg" xmlns:xlink="http://www.w3.org/1999/xlink" x="0px" y="0px" viewBox="0 0 240 240"
	 style="enable-background:new 0 0 240 240;" xml:space="preserve">
<style type="text/css">
	.st0{fill:#FFFFFF;}
</style>
<g>
	<rect width="240" height="240"/>
	<path class="st0" d="M84.9,107.4c-0.1,0.6-0.4,1.2-0.9,1.7l-1.2,0.9l1.8-0.2c0.5-0.2,0.8-0.5,0.9-0.8
		C85.6,108.4,85.4,107.9,84.9,107.4 M86.9,103.9l0.3-0.8l-3.3-1.2c-0.1,0-0.2-0.1-0.2-0.3c0-0.2,0-0.3,0.1-0.5l0.3-0.3l0.4-0.1
		L88,102l0.6-0.6l-5-1.8l-0.6,0.5c-0.4,0.5-0.8,1.1-1,1.7s-0.4,1.2-0.4,1.9c0,0.3,0,0.6,0.1,0.8l5.1,1.8l-0.1-0.9l-3.5-1.2l-0.2-0.3
		c-0.1-0.1-0.1-0.3,0-0.5l0.3-0.4l0.4-0.1L86.9,103.9 M103.6,106.9c0-0.3,0-0.5-0.2-0.6c-0.1-0.1-0.3,0-0.6,0.3
		c-0.2,0.3-0.4,0.6-0.6,1.1c-0.2,0.4-0.3,0.8-0.3,1.2c0,0.3,0,0.5,0.2,0.6c0.1,0.1,0.3,0,0.6-0.3l0.7-1.1L103.6,106.9 M101.7,107.3
		c0.2-0.4,0.4-0.8,0.7-1.2l-13.1-4.6c-0.1,0-0.2,0.1-0.4,0.2c-0.3,0.2-0.6,0.6-0.8,1l-0.1,0.2l-0.4,0.8c-0.3,0.6-0.4,1.1-0.5,1.6
		c-0.1,0.5-0.1,0.7,0.1,0.8c0.3,0.1,0.7-0.4,1.2-1.4l12.8,4.7C101.2,108.7,101.4,108,101.7,107.3 M114.1,110.9L114.1,110.9
		L114.1,110.9L114.1,110.9 M111.4,110.2L111.4,110.2L111.4,110.2L111.4,110.2 M112.2,110.5L112.2,110.5L112.2,110.5l-0.1-0.1h-0.1
		v-0.1l0,0.1v-0.1l-0.1,0l0,0h-0.1v0h-0.1v0l0,0.1v-0.1l-0.1,0.1l0-0.1l0.1-0.1v-0.1l-0.1,0.1h0l-0.1,0.1h-0.1l0.1,0h-0.1v-0.1h0
		l-0.1,0.1v-0.1l0,0.1v-0.1l-0.1-0.1v0.1l-0.1-0.1v-0.1H111l0.1-0.1l-0.1,0.1l0-0.1v0.1h-0.1l0.1,0.1l0-0.1v0.1l0.1-0.1l-0.1,0.1
		l0.1,0v0h0v0.1h0.1v0.1l0.1-0.1v0.1l0-0.1v0.1l0.1,0v0h0l0.1,0.1v-0.1l0.1,0.1h0v0.1l0.1-0.1v0.1h0.2l0.1,0.1l0.1,0v0l0.1,0h0.1
		l-0.1,0.1h0.2l0.1,0.1h0v0.1h0.1l0,0.1v0h0.1l0.1,0v0.1l0-0.1v0.1l0.1-0.1v0.1h0.2l0,0.1h0.2v0.1l0-0.1v0.1h0.1l0,0.1v-0.1l0.1,0.1
		l0.1-0.1v0.1l0,0l0.1,0.1v0.1l0-0.1v0.1h0.1l0,0.1h0.1v0.1l0-0.1l0.1,0.1h0.1v0l0.1,0v0h0.2v0.1l0-0.1l0.2,0.1l0.2,0.1h0.1l0.2,0
		l0.1,0.1v-0.1h0.1v0.1l0-0.1v0.1l0.1,0.1v-0.1h0h0.1v0.1h0.1l0,0.1h0.1v0l0.1,0l0.2,0.2h0.2l0,0.1v-0.1h0.1l0.2,0.1l0,0.1l0.2-0.1
		v0.1l0.2,0.2l0.2,0h0.1v0.1h0.1l0.1,0.1c0,0,0.2,0.1,0.6,0.3l0.8,0l0.1,0h0.1V113l-0.1-0.1l-0.1,0.1v-0.2l0,0l-0.1,0l0.1-0.1h-0.1
		l0-0.1h0v0l-0.1,0l0.1,0h-0.1l0.1-0.1l-0.2-0.2l0-0.1h-0.1l-0.1,0l-0.2-0.2l-0.1,0l-0.3-0.2l-0.5-0.2v0.1l-0.1-0.1
		c-0.1-0.1-0.2-0.1-0.2-0.1l-0.1-0.1h-0.2l0-0.1l-0.4-0.2l-0.1,0.1l0-0.1v0.1h-0.1l0.1-0.1h-0.2l0-0.1v0.1h-0.1v-0.1l-0.2,0h0v-0.1
		H115l-0.1-0.1v0.1l-0.1-0.1l-0.3-0.1l-0.1,0.1v-0.1h-0.1v0l-0.1-0.1h-0.1l-0.1,0.1l-0.1,0h-0.1l0,0l-0.1,0v0h0v-0.1h-0.1v-0.1
		l-0.1,0.1v0.1h0l0-0.1h-0.1v0.1h-0.1l0.1-0.1h-0.1v0.1l-0.1,0.1l0-0.1v-0.1h-0.1v0.1l0-0.1v0.1l-0.1-0.1h-0.1l-0.1,0.1l0-0.1h0v0
		H113l-0.1,0l-0.1,0.1v-0.1h0.1l-0.1,0h0v0h-0.1l0.1,0h-0.1l-0.1,0v0l0,0v0l-0.1-0.1v0.1h0l0-0.1l0,0.1v-0.1l-0.1-0.1v0.1l-0.2,0.1
		l0,0.1v-0.1v0.1L112.2,110.5L112.2,110.5 M111.1,114.7L111.1,114.7L111.1,114.7L111.1,114.7L111.1,114.7L111.1,114.7 M110.2,113.2
		L110.2,113.2L110.2,113.2L110.2,113.2 M114,107.5v-0.1V107.5L114,107.5 M114.4,107.1L114.4,107.1L114.4,107.1h-0.1v-0.1l-0.1,0.1
		v-0.1h-0.2l0,0.1l-0.1-0.1v0.1l-0.1-0.1v0.1h-0.1v0.1l-0.1,0v0l-0.1,0l0,0v0h-0.1v0.1h-0.1v-0.1h-0.1v0.1h0l-0.1,0.1l0-0.1
		l-0.1,0.1h-0.2l-0.1-0.1v0.1l-0.2,0.1v-0.1l0,0.1h-0.1v0.1h0v-0.1h-0.1v0.1h-0.1l-0.1,0h0v0.1l-0.1-0.1l-0.1,0v0l-0.1,0h-0.1
		l-0.1,0v0.1l-0.1-0.1h0l-0.1,0.1l0-0.1l-0.1,0.1l-0.1-0.1h-0.2l0,0.1l-0.1,0.1l0-0.1v0.1h-0.1v-0.1l0,0.1H111l-0.1,0.1v-0.1h0v0.1
		l-0.1-0.1h-0.1v0.1l-0.1-0.1v0.1l-0.2-0.1l-0.2,0.1v0.1l-0.2-0.1l0-0.2l0.1-0.3l0.1-0.2v-0.3l0.1-0.4v-0.1l0,0.1v-0.9h0.1l-0.1-0.2
		v-0.1l0-0.2l0,0.1l0-0.4v0.1l-0.1-0.2h0.1l-0.1-0.1v-0.1l-0.1-0.3v0.1c-0.3-0.3-0.6-0.5-0.7-0.6v-0.1l-0.2,0.1v-0.1h-0.1l-0.5,0.1
		l-0.3,0.1h0l-0.2,0.1l0,0.1l-0.1,0.1l-0.2,0.1h0l0,0.1v-0.1l-0.3,0.3l-0.1,0.1l0,0.1v0.1l-0.2,0.1l-0.3,0.2l-0.1,0.1l0,0.1h-0.1
		l-0.4,0.5v0l0,0.1l-0.1,0.1l0,0.1l-0.1,0.1l-0.1,0.2l-0.1-0.1l0,0.2l-0.1,0.2l-0.1,0.1l-0.1,0.3l-0.1,0.1h0.1l-0.4,0.6v0l-0.4,0.9
		v-0.1l-0.1,0.6l-0.1-0.1v0.1l-0.1,0.1v0.1h-0.1v0.2h0l-0.1,0.2l0.1-0.1v0.1h-0.1l0,0.2l-0.1,0.1l0,0.1l0,0.1v0.1l-0.1,0.1v0.3
		l0,0.1l0,0.1l-0.1,0.1l0.1,0l-0.2,1.1v0.5l-0.1,0.2l0.1-0.1l0,1.2h0l0.2,0.4l-0.1,0.1l0.1,0.1h0v0.1l0.1,0.1l-0.1,0.1l0.3,0.4
		c0.1,0.1,0.3,0.2,0.6,0.2c0.3,0.1,0.5,0.1,0.7,0l0.2-0.1l0.1,0l0.4-0.3l0.1-0.1l0.2-0.1c0.1,0,0.3-0.2,0.7-0.5l1.1-1.5h0v0.1
		l0.1,0.1v0l0.1-0.1v0.1l0.1,0.1v-0.1l0.1,0.1v0.1l0-0.1l0.1,0.1l-0.1,0.1l0.1,0l0.2,0.1h0.1l-0.1,0.1l0.1,0l0,0v0h0.2v0h0.1v0h0.1
		v0.1l0,0v0l0.1,0h0.1l0.1,0v0.2h0v0.1l0.1,0l0.1,0v0h0l0,0h0l0,0.1h0.1v0.1l0.1-0.1h0.1l-0.1,0.1h0.1l0-0.1v0.1h0.1l-0.1,0.1h0.1
		l-0.1,0v0.1l0.1-0.1h0.1l0.1,0v0.2l0-0.1v0.1h0.1v0.1h0.1l-0.1,0h0.1l-0.1,0.1h0.1v0.1l0-0.1v0.1l0.1-0.1v0.1l0,0.1h0l0.1-0.1v0.2
		l0.1-0.1h0v0.1l0.1-0.1l0,0.1h0.1l-0.1,0.1h0.1v0l0.1,0v-0.1l0,0v-0.1H111l0.1-0.1v-0.1H111l0.1,0h-0.1l0.1-0.1h-0.1l0.1-0.1h-0.1
		v-0.1h0l-0.1,0h0.1l-0.1-0.1l0-0.1h0v0h-0.1l-0.1-0.1v-0.1h-0.1l0.1-0.1h-0.1v0l0-0.1v0h-0.1v-0.1h-0.1l-0.1-0.1l0.1,0l-0.1,0l0,0
		l0-0.1l-0.1,0.1l-0.1-0.1h0.1l-0.1-0.1l0,0v-0.1h-0.1v0H110v-0.2h-0.1v-0.1l0,0h-0.1v-0.1l-0.1,0.1l0.1-0.1h-0.1v0h-0.1v-0.1h-0.1
		v0h0l-0.1-0.1v0l-0.1,0l-0.1-0.1h0l-0.1,0l0.1-0.1h-0.1v-0.1l-0.1,0.1v-0.1l0,0H109v-0.1h-0.1v0h-0.1V112l0,0.1V112
		c0.4-0.7,0.6-1.2,0.5-1.6l0-0.1l0-0.1l-0.2,0.2v0.1l-0.1,0.1h0l-0.1,0.1v0l-0.1,0.1l0,0.1l-0.1,0.1v-0.1l0,0.1l-0.1,0.1v-0.1
		l-0.1,0.1l-0.1,0.1l0,0.2v-0.1l-0.1,0.1v-0.1l-0.3,0.3h0l-0.1-0.1l-0.2-0.1h-0.1v-0.1l0,0.1h-0.1v-0.1h-0.1
		c0.1-0.1-0.1-0.1-0.5-0.2c-0.4-0.1-0.6,0-0.7,0.2v0.1l-0.1,0l0.1,0.1h0.1v0.1l0-0.1v0.1h0.1l0,0.1h0.1v0.1l0.2,0.1v0.1l0,0.1
		l0.2,0.1l0.1-0.1l0.2,0.2l0.2,0.2l-0.5,0.6l0,0.2l-0.9,0.8l-0.6,0.4l-0.5,0.1l-0.1,0l-0.1-0.2l-0.1-0.1l-0.2-0.7h0l0-0.1v-0.3h-0.1
		v-0.1h0.1l-0.1,0v-0.6l0.1-0.2l0.1-0.7l0-0.1l0-0.1v-0.1c-0.1,0.2-0.1,0.2,0-0.1V111h0.1l0.1-0.6l0-0.1v-0.1h0l0-0.1v0.1l0.1-0.1v0
		l0.1-0.5v0.1l0.1-0.2v0.1l0.1-0.1v-0.1l0.1-0.2l0,0.1l0.1-0.3v0l0.6-1.2l0.1-0.2h0l0.1-0.2l0.1,0.1l0.2-0.3l0-0.1v0l0.2-0.4v-0.1
		l-0.1,0.1v-0.1l0.1-0.2l0.2-0.1l0.1-0.2l0.1-0.1l0.1-0.1v0.1l0.1-0.1v-0.1h0l0.1-0.1v0.1l0.1-0.1h0l0.2-0.2v0l-0.1-0.1l0.1-0.1
		l0.1-0.1l0,0.1v0.2l0-0.1V105l0.1-0.1h-0.1v-0.1l0.2-0.1v0.1c0.1-0.1,0.2-0.1,0.2-0.1l0,0.1l0.1-0.1v-0.1h0.1v-0.1l0.2-0.1h0.1
		l0.2-0.1l-0.2,0.1v0l0.2-0.1l0.1-0.1l0.1,0l0,0v0h0.2l0.2-0.2l0.1,0.1h-0.1l0.1,0.1h0.1V104l0.1,0.1v0.1h0.2l0.1,0h-0.1l0.1,0.1
		l0,0.2h0.1l0.1,0.1l-0.1,0.1l0.1,0.1l-0.1,0.1l0.1,0.2l0-0.1l0.1,0.1l0.1,0.2V105l0.1,0.1c0,0-0.1,0.1-0.1,0.2l0.1-0.1v0.2
		l-0.1,0.1l0.1,0.1v0.2h0l-0.1,0.2h-0.1l0.1,0.2l-0.1,0l-0.1,0.1l0.1,0.2l-0.1,0.1h0l-0.1,0.2l0.1,0.1l-0.1,0.1l0.1,0h-0.1l0.1,0.2
		h-0.1l0,0.1l0.1,0l0,0.1h-0.4l-0.1-0.1h-0.1l-0.4-0.1c-0.3-0.1-0.5-0.1-0.7,0l0,0.1l-0.1,0.1h0.1v0.1h0v0.1h0l0.1,0.1l-0.1,0.1h0.1
		v0h0.1v0.1l0.1,0.2l0.1,0l-0.1,0.1l0.1,0.1l0.6,0.2l0.3,0.1h0v0.1h0v0.1l-0.1,0l-0.1,0.2l0,0c-0.1,0-0.1,0.2-0.1,0.4v0.1h-0.1
		l0,0.2l-0.1,0v0c-0.1,0.1-0.1,0.1,0,0.1l0,0.1l-0.1,0l0.1,0c0,0,0,0.1,0,0.2l0.1-0.2v-0.2h0.1v-0.1l0.1,0v-0.1l0,0.1l0.1-0.2v-0.1
		l0,0.1l0.1-0.1v-0.1l0.1,0.1v-0.1l0,0v0l0.1-0.3l0.1-0.1l0.1-0.4c0,0.1,0,0.1,0.1,0h0.2v0.1h0.1v-0.1h0.1l0.1,0.1l0.1-0.1l0.1,0.1
		h0.2v-0.1l0.1,0v0.1l0.2-0.1l0,0.1v-0.1h0.2v0.1l0.1-0.1h0.1l0.1,0.1l0.3-0.1l0.1-0.1v0.1l0.1-0.1l0,0.1h0.1l0-0.1v0.1l0.1-0.2
		v-0.1h0.1v0l0,0v0l0.1,0h0.1v0l0-0.1h0.2l-0.1-0.1l0.1,0.1v-0.1l0.1,0.1V108h0.1l0.1,0.1V108l0.1-0.1v0.1l0.1-0.1h0.1v-0.1h0
		l0.1-0.1h0v-0.1l0.1,0.1v-0.1l0.1,0.1l0-0.2v0l0.1,0.1v-0.1l0.1,0h0.1v-0.1h0l0.1,0.1v-0.1l0,0.1l0.1-0.1l0.1,0.1v-0.1l0.1-0.1
		v-0.1l0.1,0.1v-0.1h0.1v0.1h0l0.1,0v-0.1l0,0.1h0.1v-0.1L114.4,107.1L114.4,107.1v0.1V107.1L114.4,107.1L114.4,107.1h0.1H114.4
		L114.4,107.1 M61.9,165.4c0.8-0.3,1.5-0.6,1.9-0.9l0.3-0.2l-0.3-0.2c-1.7-1-3.7-1.8-6-2.2l0-0.1c-0.2,0.4-0.8,0.8-1.7,1.1l-1.7,0.5
		l-7.2,0.2c0.1,0.8,0.2,1.3,0.3,1.4l1,0.4l1.1,0.2c0.5,0,0.8-0.1,0.9-0.2l0.5-0.7l0.1,0c1.6,0.7,3.4,1.2,5.3,1.3
		C58.5,166.1,60.3,165.9,61.9,165.4 M28.6,166.1L28.6,166.1c-1.9,0.5-3.5,0.6-4.9,0.3l-2.9-0.6c-0.8,0.7-1.1,1.6-1,2.8
		c0.1,1.2,0.5,2.1,1.4,2.6c0.4,0.2,0.9,0.3,1.4,0.3l1.4-0.4C27.1,170,28.5,168.3,28.6,166.1 M25.6,121.6L25.6,121.6
		c-0.9-0.5-2.2-0.2-3.7,0.8h0c-1.3,0.2-2.4,1-3.2,2.3c-0.6,0.9-1,2.2-1.4,3.9c0.4,0.9,0.7,1.6,1,2.2c1.2,1.9,2.7,3.2,4.6,4.1
		c0.7,0.4,1.4,0.6,1.9,0.7c0.8,0.1,1.3-0.1,1.4-0.8c-1.4-0.4-2.8-1.4-4.1-2.9c-0.1-0.1-0.2-0.3-0.2-0.7c0-0.3,0-0.4,0.1-0.3
		c1.4,1.5,2.8,2.5,4.1,2.8l1.5,0.1l0-0.1h0.1c0.6-0.2,0.9-0.6,0.9-1.2c-0.8-0.2-1.6-0.6-2.5-1.2l-2-1.9c-0.1-0.1-0.2-0.3-0.2-0.7
		c0-0.4,0-0.5,0.1-0.3c2.6,2.6,4.5,3.7,5.7,3.1c0.4-0.2,0.7-0.6,0.7-0.9l-0.2-0.3l-2.9-2c-0.5-0.3-0.9-0.7-1.2-1.3
		c-0.1,0-0.3-0.2-0.4-0.7c-0.3-0.7-0.4-1.5-0.4-2.3S25.3,122.3,25.6,121.6 M37.8,104.3l-3.8-0.8c-1.8-0.5-3.2-1.1-4.1-1.8
		c-2-1.5-3-3.6-2.9-6.4c-4.1,1.3-7.8,3-11.1,5.1c-3.7,2.5-6.5,5.3-8.3,8.4c-0.8,1.4-1.1,2.9-1,4.5c0.1,1.3,0.5,2.8,1.2,4.5
		c1.6,3.4,3.7,6.2,6.1,8.2c0.8,0.6,1.6,1.1,2.3,1.5l0.5,0.2c0.4-1.7,0.8-3.1,1.4-4.1c0.8-1.4,1.9-2.2,3.2-2.5
		c-1.1-4.3-2.9-7.4-5.2-9.2c-0.1-0.1-0.2-0.3-0.2-0.7c0-0.3,0-0.5,0-0.4c0.7,0.5,1.4,1.1,2,1.9c2.6-0.9,4.9-1.6,6.9-2.1
		c0-0.1,0.1-0.1,0.2-0.1l3-0.7c0.2,0,0.3,0.1,0.3,0.6c0.1,0.4,0.1,0.6,0,0.6l-3,0.6c0.4,3.2,0.7,6.3,0.8,9.2
		c0.1,0.1,0.2,0.3,0.2,0.6c0.1,0.2,0.1,0.4,0,0.5l-0.2,0.4v1.8c1.5,1.1,3.1,1.8,5,2.3c1.8,0.5,3.6,0.7,5.3,0.7l1.6,0.1
		c0.7,0,1.2-0.1,1.5-0.3c0.3-0.2,0.4-0.7,0.4-1.7C39.6,117.6,39,110.6,37.8,104.3 M42,138.4c0.1,0.3,0.2,0.6,0,0.7l-1.8,3
		c3.6,7.2,5.5,14,5.8,20.3l4.1,0.2c1.6,0,2.9-0.1,4.1-0.4c1.4-0.3,2.4-0.7,3.1-1.3c0.1-0.1,0.2-0.2,0.2-0.1v-0.3
		c-0.2-7-0.6-12.8-1.1-17.2c-0.4-4-1-8.9-1.8-14.7c-1.6,2.3-4.2,4.2-7.8,5.8c-3.1,1.3-6.2,2-9.3,2.2c-3.4,0.2-6.5-0.4-9.3-1.7
		l-0.8,0.1l-0.6-0.1c0.1,1.5-0.6,2.1-2.1,1.7l-1.6,5.4c-0.7,2.3-1.2,4.1-1.6,5.5c-0.8,3.5-1.4,7-1.6,10.4c-0.1,1.8-0.2,3.2-0.2,4.4
		c0,0.8,0,1.3,0.1,1.7l0.3,0.2l0.9,0.5c1.1,0.5,2.2,0.7,3.5,0.8l3.5-0.3l1.4-0.3c0.7-0.2,1.1-0.4,1.1-0.5l1.1-4.6c0.8-3,2-6,3.4-9.1
		c2.4-5.1,4.7-9.3,6.9-12.6C41.7,138,41.8,138.1,42,138.4 M76.3,112.9l-0.4-0.1c-0.9-0.3-1.7-0.4-2.4-0.2c-0.7,0.1-1.1,0.4-1.2,0.8
		c0,0.2,0,0.5,0.2,0.8c0.3,0.6,1.2,1.2,2.7,1.6l2.5,0.3c0.7-0.1,1-0.3,1.1-0.8c0.1-0.3,0-0.6-0.2-1c-0.2-0.4-0.6-0.7-1.1-1
		L76.3,112.9 M65.6,106.4L65.6,106.4c-0.2-1.4,0-2.7,0.5-4c-0.9,1.1-1.6,2.5-2.2,4.2c-0.6,1.9-1,3.6-1.1,5c-0.1,2.3,0.4,3.7,1.6,4.4
		h3c-1.3-1.2-2.1-2.7-2.4-4.4S64.8,108.1,65.6,106.4 M78.3,108.2c0.7,0.6,1.5,1.1,2.6,1.4c0.1,0,0.3-0.1,0.8-0.4l1.3-1.1
		c0.3-0.3,0.5-0.7,0.5-1.1c0.1-0.4,0-0.6-0.1-0.7c-1.7-0.7-3.1-1.1-4.2-0.9c-1,0.1-1.6,0.4-1.8,1.1
		C77.4,107.1,77.7,107.6,78.3,108.2 M73,108.9c-0.7-0.1-1.3-0.3-1.8-0.7l-0.4-0.4l-0.4,0.4l-0.5,0.9c-0.4,0.6-0.7,1.4-1,2.2
		c-0.3,0.8-0.3,1.3-0.2,1.6l0.4,0.3l1.7,0.5l0.6,0.1c0-0.2,0-0.4,0.1-0.5c0.2-0.5,0.6-0.9,1.2-1.1c0.6-1.6,1.1-2.7,1.4-3.2L73,108.9
		 M71.8,110.1c0.2,0,0.3,0.1,0.3,0.2c0.1,0.1,0.1,0.3,0.1,0.4c0,0.1-0.1,0.2-0.2,0.3l-0.4,0.1c-0.2,0-0.3-0.1-0.3-0.2
		c-0.1-0.1-0.1-0.2-0.1-0.4c0-0.1,0.1-0.3,0.2-0.4L71.8,110.1 M75.2,110.3c-0.1,0.3,0,0.6,0.2,0.9c0.2,0.4,0.6,0.7,1.2,1l1.3,0.6
		l2.4,0.2c0.7-0.2,1.1-0.4,1.2-0.8c0.1-0.4-0.1-0.9-0.6-1.3c-0.6-0.5-1.3-0.9-2.2-1.2l-2.5-0.1C75.7,109.6,75.2,109.9,75.2,110.3
		 M74.5,111.4c-0.3-0.4-0.3-0.8-0.2-1.2c0.2-0.6,0.8-1.1,1.6-1.2l1.9-0.1c-0.9-0.6-1.4-1.3-1.3-2.1l-0.2,0.1c-0.3,0.1-0.6,0.5-1,1.1
		c-0.3,0.5-0.6,1-0.9,1.5l-1.1,2.4l1.6-0.1L74.5,111.4 M75.8,101.5c-0.9-0.8-2.2-1.2-3.9-1.4c-1.7-0.2-3,0-3.9,0.6l-0.1,0.5l0,0.1
		c-0.9,0.9-1.5,1.9-1.8,3.2c-0.3,1.3-0.1,2.5,0.5,3.6l0,0.1c0.1,0.8,0.1,1.1-0.1,0.8l-0.1-0.2l-0.6-1.1c-0.7,1.8-0.7,3.5,0,5.1
		c0.6,1.6,1.8,2.8,3.6,3.7l0,0v0c1,0.4,2,0.7,3,0.7c1,0,1.7-0.1,2.2-0.5l-0.4-0.2c-0.5-0.2-0.9-0.5-1.4-0.8c-0.5-0.4-0.8-0.8-0.9-1
		l-3.6-1.1c-0.2-0.1-0.3-0.2-0.3-0.3l-0.2-0.7l0.1-0.6c0.3-1.1,0.8-2.2,1.4-3.4c0.5-0.8,0.8-1.4,1.2-1.8v0c0-0.3-0.1-0.6-0.1-1
		l0.1-1.8l0.8-0.2c-0.1,0.7-0.2,1.4-0.1,2.1c0.1,1,0.4,1.6,0.8,1.9c0.5,0.3,0.9,0.5,1.3,0.6c0.4,0,0.7-0.1,0.9-0.2
		c0.8-1.5,1.3-2.7,1.7-3.8C76.2,102.7,76.2,101.8,75.8,101.5 M76.4,100.8l-0.1,0.1c0.3,0.4,0.4,0.8,0.5,1.4c0,0.7-0.2,1.5-0.5,2.3
		c-0.2,0.6-0.4,1.4-0.8,2.2l0.5-0.5c0.4-0.3,0.7-0.8,1-1.5C77.7,103.3,77.5,101.9,76.4,100.8 M48.3,94.1l0.7,2.4
		c0.2,0.9,0.2,1.7,0,2.4c-0.2,1.2-0.8,2.2-1.6,3c-0.6,0.6-1.6,1.2-2.9,1.9c1.4,5.7,2.5,12.6,3.2,20.8c0.4,0,1.1-0.3,1.9-0.9l3.7-3.4
		l-2-12.6c-0.1-0.4,0-0.5,0.2-0.4c0.1,0.1,0.2,0.3,0.3,0.6c0.1,0.7,0.4,1.5,1,2.4c0.5,0.8,1,1.4,1.7,2c2.2,2,5.1,3.2,8.9,3.6
		c-0.5-0.8-0.8-2-0.9-3.4c-0.1-1.1,0-2.2,0.1-3.4c0.6-3.6,1.7-6.2,3.2-8c-2.4-0.1-4.6-0.6-6.7-1.4c-1.1-0.5-3.1-1.5-6.1-3
		c-1.9-1-3.4-2-4.3-2.9L48.3,94.1 M49.5,72.4l-1.5,1c0.5,0.7,1.1,1.6,1.6,2.6c0.4-0.7,0.6-1.3,0.6-1.7c0-0.5,0-1-0.2-1.4
		C49.9,72.6,49.7,72.4,49.5,72.4 M30.3,94.4l-3,0.9l0.2,0.5c-0.1,2.4,0.9,4.1,3,5.4c1.3,0.8,3.4,1.4,6.3,1.9l0.9,0.1
		c0.2,0.1,0.4,0.4,0.5,0.7l0.4,2.6c0.4,2.6,0.7,5.2,1,8c0.4,3.9,0.6,7.2,0.7,9.9l0.2,1.8c0,0.8-0.1,1.4-0.3,1.7
		c-0.2,0.3-0.6,0.5-1.3,0.5h-1.7c-4.4,0.1-8.1-0.9-11-3l-0.1-0.1v0.9c0.3,0.4,0.7,0.8,1.3,1.2l1.5,1l1.1,0.9
		c0.4,0.4,0.6,0.8,0.7,1.2c0.1,0.6,0,1.1-0.1,1.6c-0.2,0.5-0.7,0.8-1.3,0.7l-0.3-0.1c0.1,0.6,0,1.2-0.1,1.6c2.8,1,5.8,1.4,9,1.2
		c3.1-0.2,6-1,8.9-2.3c3.6-1.7,6.1-3.6,7.5-5.7l0.1,0l-0.8-5.7l-4,3.4c-0.8,0.6-1.5,0.8-1.9,0.7c-0.2-0.1-0.3-0.3-0.3-0.8
		c-0.8-8.8-1.9-16-3.3-21.6c-0.1-0.3-0.1-0.5,0-0.6l2.4-1.4c0.8-0.6,1.4-1.3,1.8-2.1c0.3-0.7,0.5-1.6,0.4-2.5c0-0.7-0.2-1.5-0.5-2.4
		c-1.2,1.4-2.7,2.4-4.4,3.2c-0.4,0.9-1,1.6-1.8,2.1c-0.8,0.5-1.7,0.8-2.8,0.9c-2,0.2-3.9-0.3-5.7-1.5C31.5,97.9,30.5,96.3,30.3,94.4
		 M28,71.8c-0.9,0.1-1.5,0.6-1.7,1.6c-0.2,1,0.3,1.9,1.6,2.5c0.4,0.2,0.4,0.4,0.1,0.6c-1,0.7-1.8,1.4-2.2,1.9
		c-1.2,1.3-1.7,2.7-1.6,4.3c0.4-1.2,1-2.3,1.8-3.3c0.9-1.1,1.5-1.7,1.9-1.9l0.1,0c0.2,0,0.3,0,0.3,0.1c0.1,0.1,0,0.2-0.1,0.4
		c-0.7,0.6-1.2,1.2-1.8,1.8c-0.5,0.5-0.9,1.2-1.4,2.1l-0.8,1.7l0.1,0.5c0.5-1.4,1.2-2.5,1.9-3.3c0.5-0.6,1-1.1,1.5-1.3H28
		c0.2,0,0.2,0.1,0.2,0.2c0,0.2-0.1,0.4-0.3,0.5c-0.4,0.3-0.8,0.6-1.1,1c-0.4,0.5-0.8,1.1-1.4,1.9l-0.8,1.4v0c0.1,0.2,0.1,0.4,0,0.5
		l0.9-0.3l-0.1,0.3c-1.1,1-1.3,2.1-0.6,3.4c0.6,1.2,1.7,1.8,3.1,1.7l0.3-0.1c1.7,2.6,3.6,4.5,5.9,5.6l0.3,0.3c0,0.1-0.1,0.2-0.3,0.2
		c-0.7,0.1-1.5-0.2-2.5-0.8c0.2,1.2,1.2,2.2,2.8,3.1c1.5,0.8,2.9,1.2,4.3,1.1c0.7-0.1,1.1-0.2,1.5-0.5h-0.1l-1.6-0.2
		c-0.7-0.2-1.1-0.4-1-0.5l0.1-0.1l1.6,0.1c1.4-0.1,2.9-0.6,4.5-1.5c2.9-1.5,5-4,6.2-7.4c1.2-3.3,1.3-6.6,0.3-9.9
		c-0.6-2-1.6-4.1-3-6.1c-0.7-0.1-1.3-0.4-2-0.9l-1.3-1.4c-0.8-0.9-1.4-1.4-1.7-1.5l-0.4-0.1c-0.5,0-1,0.3-1.7,0.8
		c-0.4,0.2-0.7,0.2-0.9,0.2c-0.5,0.1-1.2-0.1-2.1-0.6c-0.4-0.2-0.8-0.2-1.2-0.2c-1.1,0.1-2.1,0.7-3,1.8c-0.3,0.3-0.7,0.5-1.1,0.6
		l-3.5-0.5H28 M39,72.9c0.4,0.2,0.9,0.6,1.2,1.2c0.4,0.7,0.5,1.4,0.5,2.1l-0.3,0.9C40.3,76,40,75,39.7,74.2
		c-0.3-0.7-0.9-1.3-1.7-1.7L39,72.9 M35.7,78.9h0.1l-0.6-1c-0.2-0.2-0.5-0.3-1-0.2l-0.9,0.2l0.7-0.5c0.4-0.3,0.8-0.5,1-0.6
		c0.3,0,0.7,0.2,1.2,0.6l1,1c0.3,0.2,0.6,0.1,1-0.1c0.2,0.3,0,0.6-0.5,0.9l-1.2,0.3l0.3,0.9c0.1,0.4,0.1,0.8,0,1.2
		c-0.1,0.3-0.3,0.5-0.5,0.6c-0.2,0.1-0.5-0.1-0.7-0.4c-0.2-0.3-0.4-0.6-0.5-1.1c-0.1-0.4,0-0.8,0.1-1.2
		C35.3,79.1,35.5,78.9,35.7,78.9 M28.5,81.4c0.1,0.1,0,0.3-0.2,0.5l-0.9,0.7l-1.1,1.3l-0.1-0.1c0-0.1,0-0.4,0.2-0.7
		c0.2-0.3,0.3-0.6,0.5-0.9c0.3-0.4,0.7-0.7,1.1-0.9h0.1C28.3,81.2,28.4,81.3,28.5,81.4 M28.1,83.1l0.1,0c0.2,0,0.3,0.1,0.3,0.2
		c0.1,0.1,0,0.2-0.1,0.3l-0.3,0.3c-0.2,0.2-0.3,0.4-0.3,0.6c0,0.2-0.1,0.3-0.2,0.3c-0.2,0-0.3-0.1-0.3-0.4c0-0.2,0.1-0.4,0.3-0.8
		L28.1,83.1 M46,77.4c0.4,0.2,0.7,0.6,0.9,1.4c0.1,0.4,0,0.8,0,1.2c-0.1,0.3-0.3,0.5-0.6,0.6c-0.2,0.1-0.5-0.1-0.7-0.4
		c-0.2-0.3-0.4-0.6-0.5-1.1c-0.1-0.3-0.1-0.6,0-1c-0.9,0.1-1.4-0.1-1.3-0.6c0.4,0.2,0.7,0.1,0.8-0.1l0.5-1c0.3-0.5,0.5-0.7,0.8-0.8
		c0.3-0.1,0.7,0,1.3,0.2l0.1,0.1c-0.7,0.1-1.1,0.2-1.2,0.5L46,77.4 M40.9,79.1l-0.3-0.8c-0.1-0.2-0.1-0.4,0-0.5l0.1-0.2
		c0.2,0,0.4,0.1,0.5,0.4l1,1.8c0.4,0.5,1,1.3,2,2.4l0.2,0.3c0.1,0.2,0.1,0.4,0,0.7l-1,1.7c-0.1,0.2-0.4,0.3-0.7,0.3l-0.3,0l-0.2-0.1
		c-0.2-0.1-0.3-0.2-0.2-0.4c-0.1-0.1-0.1-0.2,0-0.4l0.9-1.2l0.1-0.4l-0.1-0.2L40.9,79.1 M43.7,86.2c0.3,0,0.4,0.1,0.3,0.3l-0.5,0.6
		c-0.1,0.1-0.1,0.4,0,0.9l0.2,0.6l0.5,0.2c0.3,0.2,0.5,0.3,0.6,0.5c0.2,0.3,0.3,0.8,0.2,1.4c-0.1,0.8-0.5,1.3-1.2,1.5
		c-0.8,0.3-1.5,0.1-2.1-0.4c-0.6-0.5-1-1.3-1-2.4c0-1,0.5-1.8,1.5-2.5C42.7,86.6,43.2,86.4,43.7,86.2 M43.9,93l-0.2,0.4
		c-0.2,0.2-0.5,0.4-0.8,0.4c-0.4,0-0.8,0-1.1-0.2l-0.3-0.3L43.9,93 M42.2,89.4c0.1-0.2,0.3-0.4,0.6-0.5c0.1-0.1,0.3-0.1,0.4-0.1
		c-0.2-0.3-0.3-0.7-0.2-1.1l0.1-0.5c-0.5,0.2-0.9,0.6-1.2,1.2c-0.2,0.3-0.3,0.8-0.2,1.3l0.2,0.7L42.2,89.4 M29.5,64.8
		c-1,0.2-1.8,0.8-2.5,1.9l-1.4,1.9c-0.6,0.3-1.2,1-1.9,2c-0.4,0.7-0.8,1.5-1.1,2.4c-0.5,1.5-0.5,3.3,0,5.6c0.3,1.2,0.6,2.2,1,3
		c0.2-1.4,0.8-2.6,1.6-3.6l1.8-1.7l-1.4-1.2c-0.5-0.6-0.8-1.1-0.8-1.6c0-0.6,0.2-1.2,0.6-1.7c0.4-0.6,1.1-1,1.9-1h0.6l3.2,0.8h0.1
		l1.5-1.8c0.9-1.1,1.6-1.7,2.2-1.7l0.4,0.1c0.3,0.1,0.9,0.4,1.8,0.9l1.1,0.6l0.8,0.2l0.3-0.1l0.6-0.4c0.6-0.4,1.1-0.6,1.3-0.6
		l1.1,0.3c0.3,0.2,0.9,0.7,1.8,1.6l1.2,1.4c0.8,0.5,1.5,0.8,2,0.7c0.5,0,0.8-0.2,1.1-0.6c0.6-0.6,0.9-1.4,1.1-2.4
		c0.1-0.9,0.1-1.7-0.2-2.4c-0.3-0.6-0.7-1.1-1-1.4c0.1,0.6-0.1,1.1-0.4,1.5c-0.4,0.4-1,0.6-1.5,0.6c-0.8,0.1-1.5-0.2-2.1-0.9
		l-1.6-1.4c-0.7-0.6-1.3-1-1.7-1.1l-0.6,0c-0.3,0-0.7,0.1-1.1,0.3l-1,0.3c-0.2,0-0.5,0-0.7-0.2l-0.9-1.1c-0.9-1.3-1.6-1.9-2-1.9
		h-0.1c-0.5,0-1.1,0.3-1.8,0.9l-0.6,0.6l-0.7,0.5C30.7,64.5,30,64.7,29.5,64.8 M83.7,98.6l0.2,0.2l18.9,6.8l0.3-0.2l0.3-0.6
		c-0.2-0.2-0.7-0.3-1.3-0.4l-1-0.2l-17.2-6.1c-0.2,0-0.3,0.1-0.3,0.2C83.5,98.4,83.5,98.5,83.7,98.6 M82.2,98.9l-0.3-0.4
		c-0.8,0.7-1.2,0.9-1.3,0.6l-0.3-0.8c-0.1-0.1-0.2-0.2-0.3-0.1c-0.1,0-0.1,0.1-0.1,0.3v0.2l0.1,0.8c0,0.3-0.2,0.5-0.3,0.6l-1.5,0.2
		l-0.9-0.1l-0.2,0.3l0.5,0.6c0.4,0.5,0.6,0.9,0.6,1.4c0.1,0.9-0.1,1.8-0.5,2.7l0.6-0.2h3.2c-0.1-0.3-0.2-0.7-0.2-1.2
		c-0.1-0.9,0.1-1.8,0.4-2.4c0.4-0.8,0.9-1.4,1.3-1.9l0.6-0.5l-0.1-0.8C83,98.4,82.6,98.6,82.2,98.9 M79.4,101.9l0.5-0.1
		c0.1,0,0.2,0.1,0.3,0.2l0.1,0.4l-0.2,0.3l-0.4,0.1l-0.3-0.2c-0.1-0.1-0.1-0.3-0.1-0.4L79.4,101.9z"/>
	<path class="st0" d="M154.4,170.8c0.9,0,1.6,0.3,2.2,0.9c0.6,0.6,0.9,1.3,0.9,2.2l0.8-0.1c1.2,0,2.3-0.2,3.3-0.5
		c0.5-0.7,0.5-1.4,0-2.1c-0.5-0.7-1.1-1.1-2-1.1C158.8,170.4,157.1,170.6,154.4,170.8 M143.5,172.6c-0.3-0.4-0.8-0.5-1.2-0.3h-0.1
		c-4.2,1-6.3,2.5-6.1,4.6c0.8-0.2,1.7-0.6,2.9-1.2c1.4-0.7,2.4-1.2,2.9-1.4c0.7-0.2,1.4-0.4,2.2-0.5
		C143.9,173.3,143.8,172.9,143.5,172.6 M145.1,171.9c-0.2,0-0.3,0-0.4-0.1l-0.1-0.1l-1.4,0.2c0.7,0.3,1.2,0.9,1.4,1.8l1.4-0.2
		c0.1-0.5,0-0.8-0.1-1.1C145.8,172.1,145.5,171.9,145.1,171.9 M145.6,171.6c0.3,0.1,0.5,0.3,0.8,0.5c0.3,0.3,0.4,0.8,0.4,1.5h0.4
		c1.1,0,2.7,0,4.9,0.1l4.9,0.2c0.1-0.7-0.1-1.4-0.5-1.9c-0.5-0.5-1.1-0.8-1.8-0.8c-0.1,0-0.2-0.1-0.3-0.1c-0.1-0.1-0.1-0.2-0.1-0.2
		L145.6,171.6 M125.2,146l-0.3-0.1c-0.6-0.5-1.2-0.9-1.6-1.1l-1.8,0.1l-2.7,1.8c-0.5,0.5-0.7,1-0.6,1.6c0.2,1.1,0.5,2.1,1,3.2
		c0.5,1.1,1.1,2.1,1.8,2.9c1,1.1,2.2,2.1,3.8,3c1.4,0.8,2.8,1.5,4.4,2.1l0.3,0.2c0,0.1,0,0.2-0.2,0.2c-2.4,0.4-4.6,0.4-6.6,0.1
		c-0.5-0.1-1.1-0.3-1.7-0.6l-1.7-0.8c-1.7-0.7-2.8-0.7-3.4,0.1l-1,1.1l-1.8,1.2c-0.8,0.6-1.2,1.1-1.3,1.7c-0.1,0.3,0.2,0.2,0.9-0.3
		c0.5-0.7,1.1-1.2,2-1.7c0.9-0.5,1.8-0.6,2.6-0.6c0.2,0,0.4,0.2,0.4,0.4c0.1,0.2,0,0.2-0.3,0.2c-0.6-0.1-1.3,0.2-2,0.8l-1.9,1.6
		c-0.3,0.5,0,0.7,0.8,0.5c0.6-0.2,1.2-0.4,1.8-0.7l1.8-1c0.7-0.3,1.4-0.4,2-0.4c0.5,0.1,0.9,0.2,1.2,0.4c0.4,0.2,0.6,0.4,0.8,0.8
		c0.3,0.8,1.6,1.1,3.7,0.9l4.2-0.6l0.1,0.1c0.9-0.3,1.7-0.4,2.5-0.4l5.1,0.8c-2.7-0.8-5-2.3-7.1-4.5c-1.6-1.7-2.9-3.7-3.8-5.9
		C125.8,150.7,125.3,148.4,125.2,146 M135.1,129.4c-0.3-0.3-0.5-0.5-0.6-0.8c0-0.3,0-0.5,0-0.8l-0.1-0.8l-0.2-0.7l-4.1,7.8
		c0.3,0,0.4,0.1,0.6,0.2c0.1,0.1,0.1,0.2,0,0.2l-0.2,0.1l-1.2,0.1c-0.7,0.1-1.1,0.4-1.1,0.8c-0.2,0.5,0.3,0.8,1.6,0.8
		c0.3,0,0.5,0.1,0.6,0.2c0.1,0.2,0,0.3-0.2,0.3l-1.3-0.2c-0.7,1.4-1.2,2.6-1.6,3.7l0.5,0.1c0.3,0.2,0.4,0.3,0.2,0.4
		c-0.1,0.1-0.3,0.1-0.6,0l-0.5-0.2l-0.3-0.1c-0.6-0.1-0.9,0.1-1.2,0.6c-0.2,0.4,0,0.8,0.6,1l0.8,0.2c0.3,0.1,0.5,0.2,0.5,0.3
		c0,0.1-0.1,0.2-0.4,0.2l-0.3,0c-0.4,2.1-0.5,4.4-0.1,6.8c0.5,2.6,1.3,4.7,2.4,6.3c1.3,1.8,2.8,3.4,4.6,4.7c2,1.5,3.9,2.4,5.9,2.7
		l0.1,0.1l3.8-0.3c-3-1.2-5.4-2.8-7.2-4.7c-0.7-0.8-1.2-1.8-1.6-3l-1.1-3.2c-0.5-1-0.9-1.7-1.1-2.2c-0.3-0.8-0.3-1.5,0.1-2.3
		c0.3-0.5,0.6-0.8,0.9-0.8c0.6,0,1.2-0.1,1.8-0.4l1.6-0.8c0.9-0.5,2.2-0.3,3.8,0.6l1.5,0.8c1.2-1.2,1.9-2.3,1.9-3.1
		c0-0.6-0.1-1.3-0.5-2.1c-0.4-1-0.7-1.7-0.8-2.1c-0.1-0.8-0.1-2.1,0.2-3.8c0.2-1.7,0.2-3-0.1-3.9c-0.6,0.2-1.1,0.6-1.5,0.9
		c-0.4,0.4-0.9,0.7-1.4,0.8c-0.4,0.1-0.8,0-1.2-0.3c-0.4-0.3-0.7-0.6-0.9-1l-0.7-1.3l-1.1-1.1L135.1,129.4 M133.6,136.1
		c0.1-0.4,0.4-0.7,0.8-1c0.3-0.2,0.7-0.2,1.2-0.2c0.3,0,0.5,0.1,0.6,0.2c0.1,0.1,0.1,0.2,0,0.2l-0.2,0.1c-0.4,0-0.7,0.1-0.9,0.4
		c-0.3,0.2-0.4,0.5-0.4,0.9h0.5c0.3-0.1,0.5,0,0.7,0.2l0.1,0.2l-0.2,0.1l-1.5-0.1c-0.3-0.1-0.5-0.3-0.6-0.5
		C133.6,136.4,133.6,136.3,133.6,136.1 M135.8,141.7c0.2,0,0.4,0,0.6,0.2l0.1,0.2l-0.2,0.1c-0.8,0.2-1.5,0.5-1.9,1
		c-0.2,0.2-0.3,0.4-0.2,0.6c0.1,0.1,0.2,0.2,0.4,0.2h0.5c0.3,0,0.5,0.1,0.6,0.2l-0.1,0.2l-0.2,0.1l-1.4-0.2
		c-0.7-0.3-0.9-0.6-0.7-1.1C133.7,142.5,134.5,142,135.8,141.7 M133.7,125.2l-0.1-0.2l-8,3.1l-1.5,0.4l-3.7,0.2l-2.2-0.7
		c-0.8-0.2-1.5-0.2-2.1,0.2c1.1,0.1,2.1,0.5,2.8,1.1c0.1,0.1,0.1,0.2,0.1,0.3c-0.5,0.4-1.7,0.7-3.5,0.9c-1.5,0.1-2.4,0.6-2.9,1.4
		l5.6-1.1l0.5,0.1c0.2,0.1,0.3,0.2,0.2,0.3c-0.2,0.5-1.1,1.2-2.6,2c-1.4,0.7-2.1,1.4-2.2,2l2.3-1.6c0.9-0.6,1.8-1,2.6-1.2l0.5,0.1
		c0.2,0.1,0.3,0.2,0.3,0.4c0,0.5-0.4,1.3-1.2,2.4c-0.7,1-1,1.8-0.9,2.4c1.3-1.5,2.2-2.8,2.8-4.1c0.1-0.1,0.2-0.1,0.3-0.1
		c0.8,0,1.6-0.4,2.6-1.2c1.2-0.9,2.1-1.4,2.5-1.6l6.6-3.1l0.1-0.1L133.7,125.2 M147.8,89.6c0.1-0.4,0.1-0.8,0.1-1.3
		c-0.1-0.7-0.5-1-1.4-1c-0.9,0.5-1.7,1.4-2.4,2.8c-0.4,0.9-0.6,1.6-0.7,2.1c-0.1,0.5-0.1,1,0,1.3c0,0.7,0.5,1,1.4,1
		c1-0.6,1.8-1.5,2.3-2.8C147.6,90.8,147.8,90.1,147.8,89.6 M144.2,92.5c-0.1,0-0.2-0.2-0.2-0.4c0-0.3,0.1-0.6,0.2-0.9
		s0.3-0.6,0.5-0.8c0.2-0.2,0.4-0.2,0.5-0.1c0.1,0,0.2,0.2,0.1,0.4c0,0.3-0.1,0.5-0.2,0.9l-0.5,0.8C144.5,92.5,144.3,92.6,144.2,92.5
		 M139.9,92.4c0.7-0.7,1.2-1.5,1.5-2.6c0.3-3.1-0.1-4.2-1.1-3.3c-0.6,0.6-1.1,1.4-1.5,2.6c-0.1,0.6-0.1,1.4-0.1,2.3
		C138.8,92.6,139.2,92.9,139.9,92.4 M139.8,89c0.1,0,0.2,0.1,0.2,0.4l-0.1,0.7l-0.3,0.7c-0.1,0.2-0.3,0.2-0.4,0.2
		c-0.1,0-0.2-0.1-0.2-0.3c0-0.2,0-0.4,0.1-0.7c0.1-0.3,0.2-0.5,0.3-0.7S139.7,89,139.8,89 M130.7,98.6l0.2,0.2
		c0.2,0.6,0.3,1.5,0.2,2.6v2.6c0.2,1.6,0.4,2.7,0.8,3.4c0.3,0.5,0.8,0.9,1.4,1.3l1.5,1.1c0.5,0.4,0.5,0.8,0.2,1.3l-0.9,1.2
		c-0.6,1-0.7,2.1-0.2,3.4l1.2,3.3l3.2,2.9l0.6-0.1l0.9,0.1c0.3,0.1,0.6,0.2,1,0.6c0.2,0.1,0.4,0.4,0.6,0.7l0.3,0.1l0.3-0.2
		c0.4-1,0.5-2.7,0.4-5c-0.1-2.2,0.1-3.8,0.6-4.9c0.4-0.9,0.9-1.5,1.5-2l1.1-0.8c0.5-0.4,0.8-0.7,0.8-1.1c0.1-0.6-0.1-1.3-0.6-2.1
		l-1.2-1.9c-1.1-1.9-1.7-3.6-1.8-4.9c0-1-0.1-1.9-0.4-2.5c-0.3-0.7-0.9-1.3-1.7-1.9c-1.3-0.8-2.2-1.4-2.7-1.8
		c-0.9-0.7-1.6-1.4-2.1-2.2c-0.1,0.7-0.4,1.3-0.9,2.1l-1.6,1.7c0.6,0.7,1,1.3,1.1,1.8c0.2,0.7,0.4,1.7,0.5,3c0.1,1.5,0.2,2.5,0.4,3
		l0.4,1.7c0.2,0.6,0.5,1.1,0.9,1.4c0.5,0.4,0.9,0.5,1.2,0.4c0.5-0.7,0.9-1.5,1.1-2.2c0-0.2,0.2-0.2,0.5-0.1c0.3,0.1,0.4,0.2,0.4,0.4
		c-0.1,1-0.4,1.7-1,2.1l-1.3,1.7c-0.1,0.1-0.3,0.1-0.6,0c-0.3-0.1-0.4-0.2-0.3-0.3l0.8-0.9c-0.5,0-1-0.2-1.4-0.6
		c-0.5-0.4-0.8-0.9-1.1-1.5c-0.3-0.9-0.6-1.9-0.7-3.2l-0.4-3.3c-0.1-0.9-0.5-1.7-1.1-2.6l-0.8,0.8L130.7,98.6 M135.8,96.9
		c0-0.1,0.2-0.2,0.5-0.1c0.3,0.1,0.4,0.2,0.4,0.4v0.2c0,0.2-0.1,0.2-0.4,0.1c-0.3-0.1-0.5-0.2-0.5-0.3V96.9 M138,97.2l0.2-0.1h0.2
		c0.3,0,0.5,0.1,0.6,0.3v0.2l-0.2,0h-0.1c-0.3,0-0.5-0.1-0.7-0.2C137.9,97.3,137.9,97.2,138,97.2 M136.9,98.9v-0.3
		c0-0.1,0.1-0.2,0.4-0.1s0.5,0.2,0.5,0.4v0.3c0,0.2-0.2,0.2-0.5,0.1C137.1,99.2,136.9,99.1,136.9,98.9 M140.1,100.1
		c0,0.1-0.1,0.2-0.4,0.1c-0.3-0.1-0.5-0.2-0.5-0.4c0-0.2,0.1-0.4,0.3-0.4c0.3,0,0.5,0,0.7,0.2l0.1,0.2l-0.1,0.1V100.1 M136.7,99.9
		c0.2,0,0.4,0.1,0.6,0.3c0.1,0.2,0.1,0.2-0.2,0.2c-0.2,0-0.4-0.1-0.6-0.2C136.3,100,136.4,99.9,136.7,99.9 M138.4,102.9
		c-0.2-0.2-0.1-0.2,0.2-0.2c0.2,0,0.4,0.1,0.6,0.2c0.2,0.2,0.1,0.3-0.2,0.3C138.7,103.2,138.6,103.1,138.4,102.9 M129.6,94.8v0.1
		c-1.8,2.2-2.5,4.8-2.1,7.9v0.1l0.2,0.1c0.8-2.7,2.3-5.2,4.7-7.4C131.4,94.6,130.6,94.4,129.6,94.8 M126.4,95
		c-0.3,0.7-0.5,1.3-0.6,1.9c-0.3,1.9-0.2,3.6,0.2,5.2l0,0.2l0.4,0.2c-0.3-3.1,0.5-5.8,2.2-8l-0.1-0.2c0-0.6-0.1-1-0.3-1.2h-1
		L126.4,95 M129.5,88.6l-1.8,4c0.5,0,0.9,0.1,1.2,0.3c0.4,0.2,0.6,0.6,0.7,1.1c1.2-0.4,2-0.2,2.6,0.6l0.6,0.7c2-1.9,2.7-3.6,1.9-5.2
		c-0.5-1.1-1.4-1.9-2.6-2.5C130.8,86.9,129.9,87.3,129.5,88.6 M131,89.7c-0.4,0.4-0.6,0.8-0.6,1.3c0,0.2-0.2,0.2-0.5,0.1
		c-0.3-0.1-0.5-0.2-0.5-0.4c0-0.5,0.3-1,0.7-1.4c0.1-0.1,0.3-0.1,0.6,0C131,89.5,131.1,89.6,131,89.7 M131.6,91.9
		c-0.3-0.1-0.4-0.3-0.2-0.4l0.6-1.1c0.1-0.2,0.3-0.2,0.6-0.1s0.5,0.2,0.4,0.3l-0.8,1.2C132.1,92,131.8,92,131.6,91.9 M163.6,172.5
		c0.4-0.8,0.3-1.4-0.3-2.1c-0.5-0.6-1.2-0.9-2.2-1l-0.9,0.4c0.8,0.2,1.4,0.7,1.9,1.2c0.5,0.6,0.6,1.3,0.4,1.9L163.6,172.5
		 M163.8,162c1.1,0,2.1,0.4,2.9,1.2c-0.2-0.5-0.5-1.1-0.8-1.6c-0.5-0.7-1.2-1.4-2.1-2.1c-1-0.1-1.9,0.1-2.6,0.8
		c-0.7,0.7-1,1.6-0.9,2.6v0.1c0.5,0.2,0.8,0.3,1.1,0.5C161.8,162.5,162.6,162,163.8,162 M165.5,166.9c-0.6-0.6-1.4-0.9-2.3-0.9
		c0.1,1.2-0.5,2.3-1.7,3.1c0.8,0.2,1.5,0.5,2.1,0.9c0.6,0.6,0.9,1.2,0.8,1.9c1-0.7,1.7-1.6,2.2-2.8
		C166.5,168.3,166.2,167.6,165.5,166.9 M163.2,165.8c0.8,0,1.5,0.2,2.2,0.6c0.7,0.4,1.2,1,1.5,1.8c0.2-1,0.3-2,0.2-3
		c-0.2-1.3-1-2.2-2.4-2.6c-1.4-0.4-2.4,0.1-2.9,1.4C162.6,164.4,163,165,163.2,165.8 M162.5,121.8c0.3-0.9,0.3-1.9,0-3.1l-0.9-2.9
		l-0.4,0.2c-0.1,0.1-0.3,0-0.6-0.1c-0.3-0.2-0.3-0.3-0.2-0.3c0.4-0.2,0.7-0.4,0.9-0.7c0.2-0.3,0.3-0.7,0.2-1.1l-0.2-0.6l-0.3-0.3
		l-1-0.1c-0.2,0.1-0.4,0-0.6-0.2c-0.2-0.2-0.2-0.3,0-0.3c0.5-0.1,1-0.1,1.6,0v-3.6h-1.1c-0.2,0-0.3-0.1-0.5-0.3
		c-0.2-0.2-0.1-0.2,0.2-0.2h1.4l-0.2-2.8l-1.1,0.5l-0.7-0.1c-0.3-0.2-0.3-0.3-0.1-0.4c0.5-0.3,1-0.5,1.6-0.7
		c-0.2-0.6-0.7-1.1-1.4-1.3c-0.4,0.4-0.8,0.9-1.1,1.5l-0.6,0c-0.3-0.1-0.4-0.3-0.3-0.4l1.1-1.4h-0.2c-0.4-0.1-0.8-0.2-1.3-0.5
		c-0.6-0.4-1.1-1.2-1.4-2.6l-0.6-2.9c-0.4-1.2-0.9-2.3-1.6-3.2l-1.1,0.6l-0.4-0.1c-0.2-0.1-0.2-0.2-0.1-0.2c0.4-0.1,0.8-0.4,1.2-0.8
		c-0.3-0.5-0.7-0.8-1.1-1.1l-0.8,1c-0.1,0.1-0.2,0.1-0.4,0c-0.2-0.1-0.3-0.1-0.2-0.2c0.3-0.3,0.6-0.7,0.9-1.2l-0.4-0.3l-0.2,0
		l-0.3,0.8l-0.4,0.1c-0.2-0.1-0.2-0.2-0.2-0.2l0.3-1l-1.6-0.6l-0.4,1.2c-0.5,1-1,1.7-1.6,2.3c-0.9,0.8-1.7,1.1-2.5,0.9
		c-1-0.3-1.5-1.1-1.6-2.2c0-0.8,0.2-1.8,0.6-2.9l-0.2-0.1h-0.5l0,0.1c-0.3,0.9-0.6,1.7-1.1,2.2c-0.6,0.8-1.3,1-2.1,0.9
		c-1.1-0.3-1.6-1.4-1.5-3.2l-2.3-0.4c0.2,0.4,0.4,0.7,0.5,1.1v0.1c0.4,1,0.9,1.8,1.5,2.6c0.6,0.7,1.5,1.3,2.5,1.9l1.5,0.9
		c0.6,0.4,1,0.8,1.3,1.2c0.4,0.5,0.6,1.2,0.7,2.1l0.2,2.2c0.2,0.8,0.6,1.6,1,2.5l2.1,3.7c0.3,0.6,0.4,1.1,0.2,1.5
		c-0.2,0.5-0.7,1.2-1.6,1.9c-0.9,0.7-1.5,1.4-1.8,2c-0.4,1.1-0.6,2.6-0.5,4.7c0.1,2.2,0,3.7-0.3,4.6l1.9-0.6v-0.1
		c0.3-0.7,0.6-1.9,0.8-3.7c0.2-1.5,0.6-2.7,1.1-3.3c-0.3-0.1-0.5-0.2-0.4-0.4c0.4-1.5,1.3-2.7,2.7-3.3c1.2-0.6,2.7-0.9,4.4-0.8
		c0.2,0,0.4,0.1,0.6,0.2c0.2,0.2,0.1,0.3-0.2,0.2c-1.4,0-2.7,0.2-3.7,0.6c-1.2,0.5-2.1,1.4-2.6,2.5c0.3-0.3,0.7-0.5,1.1-0.7
		c3-1.6,5.5-2,7.6-1.2c0.3,0.1,0.4,0.2,0.2,0.3h-0.6c-1.1-0.4-2.5-0.4-4.2,0.2c-1.7,0.6-3,1.3-3.8,2.3c-0.6,0.7-1,1.8-1.2,3.2
		l-0.6,3.4c0.6-0.3,1-0.8,1.3-1.4l1.1-2.1c0.5-0.7,1-1.3,1.5-1.7c1-0.7,2-1,3-0.9c1,0.1,1.8,0.7,2.5,1.7c0.1,0.2,0,0.3-0.3,0.2
		c-0.3,0-0.5-0.1-0.6-0.2c-1.2-1.8-2.5-1.8-4-0.2c-0.5,0.5-1,1.3-1.6,2.2l-1,1.8c-0.5,0.8-1.3,1.3-2.4,1.5c-1.4,0.4-2.2,0.7-2.6,1
		c0.8,0.4,1.3,1,1.4,1.7c0,0.2-0.1,0.3-0.4,0.2c-0.3-0.1-0.5-0.2-0.5-0.3c-0.1-0.7-0.5-1.1-1.1-1.3l-0.4-0.1h-0.1
		c0.2,0.5,0.3,1.3,0.4,2.4c0,0.2-0.1,0.3-0.4,0.2c-0.3-0.1-0.5-0.2-0.6-0.4l-0.5-2.5c-0.2-0.5-0.5-0.8-1-1l-1.6-0.3
		c-0.2,0-0.4-0.2-0.7-0.6l-8.9-8l-1.2,0.4l-1.5,0.3l-1.5-0.5c-1.1-0.4-2.2-0.3-3.3,0.2c0.8,0,1.4,0.3,1.9,0.7
		c0.1,0.1,0.1,0.2,0.1,0.3l-3,2.1c-1.1,0.8-1.9,1.7-2.3,2.7c0.4-0.2,1.1-0.7,2-1.5c0.8-0.7,1.6-1.1,2.2-1.2l0.4,0.1
		c0.2,0.1,0.3,0.2,0.3,0.3l-1.6,3c-0.6,1.1-0.8,2.2-0.7,3.1c0.2-0.2,0.7-1.1,1.4-2.7c0.5-1.1,1.2-1.8,2-2l0.5,0
		c0.2,0.1,0.3,0.2,0.3,0.3c0,0.4-0.2,1.3-0.5,2.6c-0.3,1.1-0.3,1.9-0.2,2.5l0.4-2.6c0.2-1,0.6-1.7,1.2-2c0.2-0.1,0.6-0.2,1.2-0.2
		c0.5-0.1,0.9-0.2,1.2-0.5l1.1-1.1c0.1-0.1,0.2-0.1,0.4-0.1c0.2,0,0.3,0.1,0.4,0.2c1.3,1,2.3,2.3,3.1,4l1.2,2c0.6,0.8,0.9,1.5,1.2,2
		c0.3,0.6,0.4,1.4,0.6,2.3c0.2,0.7,0.7,1.4,1.4,1.9c0.4,0.3,0.7,0.7,1,1.3l0.8,1.5c0.3,0.4,0.8,0.3,1.4-0.2l1.2-1.1l2.6-0.8
		c2.2-0.6,4.4-1.9,6.4-3.7l1.5-1.3c0.6-0.5,1.2-0.8,1.8-0.9l2.5-0.4c0.8-0.3,1.2-0.9,1.2-1.9c0-0.2,0.2-0.3,0.5-0.2
		c0.3,0,0.4,0.1,0.4,0.3c0,0.7-0.1,1.3-0.2,1.6c-0.2,0.4-0.7,0.7-1.3,0.8l-2.6,0.4c-0.6,0.2-1.2,0.5-1.8,1.1l-1.6,1.4
		c-2,1.6-3.8,2.7-5.4,3.1l-2.2,0.7c0.4,1,0.5,2.6,0.2,4.6c-0.3,2.1-0.2,3.6,0.2,4.6c0.5,1.3,0.7,2.4,0.6,3.4
		c-0.2,0.9-0.8,1.9-1.8,2.9l3.4,1.4c2.3-0.4,4.7,0.3,7.1,2.1c2.5,1.8,3.8,3.8,3.9,6.1c0,0.2-0.1,0.2-0.4,0.2c-0.3,0-0.5-0.1-0.5-0.3
		c-0.1-2-1.1-3.8-3.1-5.5c-2-1.6-3.9-2.4-5.9-2.2c2.6,1.3,4.5,2.6,5.6,4.1c0.1,0.2,0,0.2-0.3,0.2c-0.3,0-0.5-0.1-0.6-0.2
		c-1-1.2-2.5-2.4-4.6-3.4c-2.4-1-4.2-1.8-5.3-2.4c-1-0.6-1.7-1-2.3-1.2c-1-0.4-1.9-0.4-2.5,0.1l-0.9,0.6c-0.4,0.3-0.7,0.4-0.9,0.4
		l-1.2,0.2c-0.4,0.1-0.7,0.5-0.8,1s0.1,1.4,0.6,2.4l1.1,2.4c0.3,1.2,0.6,2.1,0.9,2.8c0.4,0.9,1,1.7,1.7,2.4c1.5,1.3,3.1,2.4,4.8,3.3
		c1.9,1,3.7,1.6,5.6,2c0.3,0,0.4,0.1,0.5,0.3c0.1,0.2,0,0.2-0.3,0.2c-1.1-0.2-2.2-0.5-3.4-0.9l-0.1,0.1l-4.5,0.4l-4.6-0.2l-2.2-0.4
		l-2.2,0.1c-1,0.3-2,0.7-3,1.2l-1.1,0.6c-0.4,0.3-0.8,0.5-0.9,0.8c0.2-0.2,0.9-0.5,2-0.9l2-0.6l2.1,0.1c0.2,0.1,0.3,0.2,0.3,0.3
		c-0.2,0.4-0.7,0.7-1.3,0.9l-1.6,0.6c-1.2,0.7-2,1.3-2.6,1.8c-0.4,0.5-0.6,0.7-0.6,0.8l0.9-0.4c0.5-0.3,1.2-0.5,1.9-0.8l3.5-1.1
		l1.4,0c1,0.2,1.1,0.7,0.6,1.3c-0.5,0.5-1.1,1-1.9,1.3c-0.6,0.3-1.3,0.5-2.1,0.6l-2.2,0.4c-0.8,0-0.6,0.2,0.6,0.5l6.2-1
		c1-0.2,1.8-0.5,2.4-0.8l2-1c0.8-0.4,1.5-0.7,2.1-0.8l4.8-0.3l10.7,0.4c1,0,1.5-0.2,1.5-0.6c0.1-0.5-0.4-1-1.3-1.5
		c-1.3-0.7-3.2-1.3-5.5-1.9c-0.2,0-0.4-0.1-0.4-0.2c-0.4-2-2.2-4-5.2-6.1c-1.3-0.9-2.4-1.6-3.4-2.1c-1.4-0.6-2.6-1-3.8-1.1
		c-0.1,0-0.2-0.1-0.4-0.1c-0.2-0.1-0.2-0.2-0.1-0.3l0.4-0.6c0.1-0.2,0.3-0.2,0.6-0.2c0.3,0.1,0.5,0.2,0.4,0.4l-0.2,0.4
		c2,0.3,4.1,1.3,6.6,2.9c1.4,1,2.5,1.8,3.3,2.5c1.2,1.1,2,2.2,2.5,3.2c0.1,0.2,0.1,0.5,0.1,0.7c0,0.1,0.1,0.2,0.2,0.2l2,0.6l1.6-0.1
		c0.8-0.2,1.1-0.5,0.9-0.9c0-0.1,0-0.2,0.2-0.2h0.3l2.4,0.7c-0.1-1.1,0.2-2,0.9-2.7c0.7-0.6,1.7-0.9,2.8-0.9l-1.8-1.4
		c-1.1-1-1.9-1.9-2.3-2.8c-0.5-1-0.6-2.2-0.3-3.4c0.6-2.4,1-4.3,1.1-5.5c0.1-0.8,0.1-1.9,0.1-3.5c0-1.5,0.1-2.7,0.1-3.5
		c0.1-1,0.2-2.2,0.2-3.5l-0.1-3.6l-3.3-0.9c-0.3-0.1-0.4-0.2-0.3-0.4c0-0.1,0.2-0.2,0.4-0.1l3.2,0.9v-1.9l-3.6,0.4
		c-0.2,0-0.4-0.1-0.6-0.2c-0.2-0.2-0.2-0.3,0.1-0.3l4.1-0.4c0-0.7,0.1-1.3,0.2-1.9c0.1-0.8,0.4-1.7,0.8-2.8L162.5,121.8
		 M154.9,102.6c1.1,0.6,1.5,1.5,1.2,2.6c-0.4,1.6-1.2,2.5-2.5,2.7c-1.4,0.2-2.6-0.1-3.6-0.8c-0.2-0.2-0.2-0.3,0-0.4l0.6,0.1
		c1,0.7,2.1,0.8,3.1,0.3c1-0.5,1.5-1.4,1.6-2.6c0-0.8-0.4-1.4-1.2-1.8c-0.3-0.1-1.1-0.3-2.3-0.6c-0.3-0.1-0.4-0.2-0.4-0.4
		c0.1-0.2,0.2-0.2,0.5-0.1C153.3,101.8,154.3,102.2,154.9,102.6 M153.4,103.2c0.1,0.3,0.2,0.6,0.1,0.9c0,0.3-0.2,0.6-0.4,0.8
		c-0.4,0.5-1,0.6-1.8,0.5c-0.3,0-0.5-0.1-0.6-0.3c0-0.1,0.1-0.2,0.1-0.2h0.3c0.5,0.1,0.9-0.1,1.2-0.5c0.2-0.4,0.2-0.8,0-1.3
		c-0.1-0.1,0.1-0.2,0.4-0.2C153.1,102.9,153.3,103,153.4,103.2 M156.1,135.3l-0.6-0.2c-0.3-0.2-0.3-0.3-0.1-0.3
		c0.7-0.2,1.3-0.2,2,0.1c0.7,0.3,1.1,0.8,1.4,1.5c0.3,0.7,0.2,1.3-0.2,1.7c-0.4,0.4-1,0.6-1.9,0.5c-0.3,0-0.4-0.2-0.5-0.4
		c-0.1-0.2,0.1-0.2,0.3-0.2c1.2,0.2,1.7-0.3,1.4-1.5c-0.1-0.4-0.3-0.8-0.6-1.1C156.9,135.2,156.6,135.1,156.1,135.3 M149.8,135.6
		c0.3,0,0.5,0.1,0.6,0.3l-0.1,0.2l-0.2,0.1l-0.9,0.1c-0.2,0.1-0.4,0-0.6-0.2c-0.2-0.2-0.1-0.3,0.1-0.3L149.8,135.6 M149.9,138.9
		l0.2-0.2c0.3,0,0.5,0,0.7,0.2c0.6,0.4,1.1,0.7,1.4,0.9c0.3,0.2,0.4,0.3,0.2,0.4l-0.3,0.1l-0.3-0.1c-0.7-0.3-1.3-0.7-1.9-1.1
		L149.9,138.9 M147.1,139.8c0.3,0.1,0.5,0.2,0.5,0.3c0.1,0.7,0.4,1.2,0.8,1.7c0.1,0.2,0,0.3-0.2,0.3c-0.3,0-0.5-0.1-0.7-0.2
		c-0.4-0.5-0.6-1.1-0.8-1.9C146.6,139.8,146.8,139.8,147.1,139.8 M151.2,146.7c-0.2-0.2-0.2-0.3,0.1-0.3l0.6,0.2
		c1.4,1.1,2.9,2.6,4.4,4.4c0.1,0.2,0.1,0.2-0.2,0.2l-0.6-0.2C154,149.2,152.6,147.8,151.2,146.7 M155.7,147.4
		c0.3,0.1,0.4,0.2,0.4,0.4c0,0.1-0.2,0.2-0.6,0.1l-2.1-0.8c-0.3-0.1-0.5-0.3-0.4-0.4s0.1-0.1,0.2-0.1l0.3,0L155.7,147.4z"/>
</g>
</svg>
