<?xml version="1.0" encoding="utf-8"?>
<!-- Generator: Adobe Illustrator 25.4.1, SVG Export Plug-In . SVG Version: 6.00 Build 0)  -->
<svg version="1.1" id="Awareness_x2C_PerkClip_x5F_d2287" image-rendering="auto"
	 xmlns="http://www.w3.org/2000/svg" xmlns:xlink="http://www.w3.org/1999/xlink" x="0px" y="0px" viewBox="0 0 240 240"
	 style="enable-background:new 0 0 240 240;" xml:space="preserve">
<style type="text/css">
	.st0{fill:#FFFFFF;}
</style>
<g>
	<rect width="240" height="240"/>
	<path class="st0" d="M28.7,166L28.7,166c-1.9,0.5-3.5,0.6-4.9,0.4c-1.2-0.2-2.1-0.4-2.8-0.7c-0.8,0.7-1.1,1.6-1.1,2.8
		c0.1,1.2,0.5,2.1,1.4,2.6c0.4,0.2,0.9,0.4,1.4,0.3l1.5-0.4C27.1,170,28.6,168.3,28.7,166 M57.8,161.9L57.8,161.9
		c-0.4,0.6-1.5,1.1-3.4,1.5l-7.2,0.2c0,0.8,0.2,1.3,0.3,1.3l1.1,0.4l1,0.2c0.5,0,0.8,0,1-0.2l0.4-0.6l0.1,0c1.7,0.7,3.4,1.2,5.3,1.3
		c2,0.2,3.8,0,5.4-0.5c0.9-0.2,1.5-0.5,1.9-0.9l0.2-0.2l-0.2-0.2C62.1,163.1,60.1,162.3,57.8,161.9 M25.6,121.5L25.6,121.5
		c-0.9-0.5-2.2-0.2-3.7,0.8l0,0c-1.3,0.2-2.4,1-3.2,2.3c-0.6,0.9-1.1,2.3-1.4,3.9c0.4,1,0.8,1.7,1.1,2.2c1.2,1.8,2.7,3.2,4.5,4.1
		c0.8,0.4,1.4,0.6,2,0.6c0.8,0.1,1.3-0.2,1.4-0.8c-1.4-0.4-2.8-1.4-4.2-2.9c-0.1-0.1-0.1-0.3-0.2-0.7c0-0.3,0-0.5,0.1-0.3
		c1.4,1.5,2.8,2.5,4.1,2.8l1.5,0.1l0.1-0.1l0.1,0c0.6-0.2,0.8-0.6,0.8-1.3c-0.8-0.2-1.6-0.6-2.5-1.3l-2.1-1.9
		c-0.1-0.1-0.2-0.3-0.2-0.7c0-0.3,0-0.5,0.1-0.3c2.6,2.6,4.5,3.7,5.7,3.1c0.4-0.2,0.7-0.5,0.7-1l-0.2-0.3l-2.9-2
		c-0.5-0.3-0.9-0.8-1.2-1.3c-0.1,0-0.3-0.2-0.4-0.7c-0.3-0.7-0.4-1.5-0.4-2.3C25.2,123,25.3,122.2,25.6,121.5 M54.5,128.5
		c-1.6,2.3-4.3,4.2-7.9,5.7c-3.1,1.3-6.2,2-9.3,2.2c-3.4,0.2-6.5-0.4-9.4-1.6l-0.7,0.1l-0.6-0.1c0.1,1.5-0.6,2.1-2.2,1.7l-1.7,5.5
		c-0.7,2.3-1.2,4.1-1.5,5.5c-0.8,3.4-1.3,6.8-1.6,10.4c-0.1,1.8-0.2,3.2-0.2,4.4c0,0.8,0,1.3,0.1,1.7l0.3,0.2l0.9,0.4h0l0.1,0.1
		c1.1,0.4,2.2,0.7,3.4,0.8l3.5-0.3l1.4-0.3c0.7-0.2,1.1-0.4,1.1-0.5l1.2-4.6c0.9-3.1,2-6.1,3.4-9c2.4-5,4.7-9.2,6.9-12.6
		c0-0.1,0.1,0,0.3,0.4c0.1,0.3,0.2,0.6,0.1,0.7l-1.9,3c3.6,7.2,5.6,13.9,5.7,20.3l4.1,0.2l4.1-0.4c1.4-0.3,2.4-0.7,3.1-1.3
		c0.1-0.1,0.2-0.2,0.2-0.1l0-0.3c-0.2-7-0.5-12.7-1-17.2C55.9,138.7,55.3,133.8,54.5,128.5 M33.4,99c-1.9-1.2-2.9-2.8-3.1-4.7
		l-3,0.8l0.1,0.5c-0.1,2.3,0.9,4.1,3,5.3c1.3,0.8,3.4,1.4,6.3,1.9l0.9,0.2c0.3,0.1,0.4,0.3,0.5,0.6l0.4,2.6c0.4,2.4,0.7,5.1,1,8
		c0.3,3.6,0.6,6.9,0.7,9.9l0.1,1.7c0,0.8-0.1,1.4-0.3,1.6c-0.2,0.3-0.7,0.5-1.4,0.6h-1.6c-4.4,0.1-8.1-0.9-11-3l0,0l0,0.9
		c0.3,0.4,0.7,0.9,1.3,1.3l1.6,1c0.5,0.4,0.9,0.7,1.1,0.9c0.4,0.4,0.6,0.8,0.6,1.2c0.1,0.6,0.1,1.2-0.1,1.6
		c-0.2,0.5-0.7,0.8-1.3,0.7l-0.3,0c0.1,0.7,0,1.2-0.1,1.6c2.8,1,5.8,1.4,9.1,1.2c3.1-0.2,6-1,8.9-2.3c3.6-1.7,6-3.5,7.5-5.6l0.1,0
		l-0.9-5.7c-0.8,0.9-1.6,1.6-2.3,2.1l-1.7,1.3c-0.8,0.6-1.4,0.8-1.9,0.6c-0.1,0-0.3-0.3-0.3-0.8c-0.7-8.6-1.8-15.8-3.3-21.6
		c-0.1-0.4-0.1-0.6,0-0.6l2.4-1.4c0.8-0.6,1.4-1.3,1.8-2.1c0.3-0.8,0.5-1.6,0.4-2.4c0-0.7-0.2-1.5-0.5-2.5c-1.2,1.3-2.7,2.4-4.4,3.1
		c-0.4,0.9-1,1.6-1.8,2.2c-0.8,0.5-1.7,0.8-2.8,0.8C37.1,100.7,35.2,100.2,33.4,99 M43.8,71.2c-0.8-0.9-1.4-1.4-1.6-1.5l-0.5-0.1
		c-0.5,0-1,0.3-1.6,0.7l-0.9,0.2c-0.5,0-1.3-0.1-2.1-0.5l-1.2-0.2c-1.1,0.1-2.1,0.7-2.9,1.8c-0.3,0.3-0.6,0.5-1.1,0.6l-3.5-0.5h-0.2
		c-0.9,0.1-1.4,0.6-1.7,1.6c-0.2,1,0.3,1.9,1.7,2.5c0.4,0.2,0.4,0.4,0.1,0.6c-1.1,0.8-1.8,1.4-2.2,1.8c-1.2,1.3-1.7,2.7-1.6,4.3
		c0.5-1.3,1-2.4,1.7-3.3c0.9-1.1,1.5-1.7,1.8-1.9l0.2,0c0.2,0,0.3,0,0.3,0.2c0,0.1,0,0.2-0.1,0.3c-0.7,0.6-1.2,1.2-1.8,1.8
		c-0.5,0.5-0.9,1.2-1.4,2l-0.7,1.6l0.1,0.5c0.1-0.4,0.4-0.9,0.7-1.5c0.4-0.7,0.8-1.3,1.2-1.8c0.6-0.6,1.1-1.1,1.5-1.3l0.1,0
		c0.2,0,0.3,0.1,0.3,0.2c0,0.2-0.1,0.4-0.3,0.5c-0.5,0.3-0.9,0.7-1.1,1c-0.4,0.5-0.9,1.1-1.4,2l-0.8,1.4l0,0.5l0.8-0.3l-0.1,0.4
		c-1.1,1-1.3,2.1-0.7,3.4c0.6,1.3,1.7,1.8,3,1.7l0.4,0c1.6,2.5,3.6,4.4,5.8,5.6c0.2,0.1,0.3,0.2,0.3,0.3c0,0.1-0.1,0.1-0.3,0.1
		c-0.7,0.1-1.5-0.2-2.4-0.8c0.2,1.2,1.2,2.3,2.8,3.1c1.5,0.8,2.9,1.2,4.3,1.1c0.6,0,1.1-0.2,1.4-0.5l-0.1,0l-1.6-0.2
		c-0.8-0.2-1.1-0.3-1.1-0.5l0.1,0l1.6,0c1.4-0.1,2.9-0.6,4.4-1.4c2.9-1.5,5-4,6.2-7.4c1.1-3.3,1.3-6.5,0.3-9.9
		c-0.6-2.1-1.6-4.1-3-6.1c-0.6,0-1.3-0.3-2-0.8L43.8,71.2 M47.4,75.8l0.1,0.2c-0.7,0-1.1,0.2-1.2,0.5l-0.2,0.9
		c0.4,0.2,0.7,0.6,0.9,1.4c0.1,0.4,0.1,0.8,0,1.2c-0.1,0.3-0.3,0.5-0.5,0.6c-0.2,0-0.5-0.1-0.7-0.3c-0.2-0.3-0.4-0.7-0.5-1.1
		c-0.1-0.3-0.1-0.6,0-1c-0.9,0.1-1.3-0.1-1.3-0.6l0.3,0.1c0.2,0,0.4,0,0.5-0.2l0.5-1c0.3-0.5,0.5-0.7,0.8-0.8
		C46.4,75.5,46.8,75.6,47.4,75.8 M41.8,80.8l-1.2-2.4c-0.1-0.2-0.1-0.4,0-0.5l0.1-0.2h0c0.2,0,0.3,0.1,0.4,0.4l1.1,1.9l2.1,2.4
		l0.1,0.4c0.1,0.2,0.1,0.4,0,0.6l-1,1.7c-0.1,0.2-0.3,0.3-0.6,0.3l-0.4,0l-0.2,0c-0.2,0-0.3-0.2-0.2-0.4c-0.1-0.1-0.1-0.3,0-0.4
		l0.8-1.3l0.1-0.4l-0.1-0.2L41.8,80.8 M40.7,76.2l-0.3,0.9c-0.1-1.1-0.4-2.1-0.8-3c-0.3-0.7-0.9-1.3-1.7-1.7l1.1,0.4
		c0.4,0.2,0.8,0.6,1.2,1.3C40.7,74.8,40.8,75.5,40.7,76.2 M43.8,86.2c0.3,0,0.4,0.1,0.3,0.3L43.6,87c-0.1,0.1-0.1,0.5,0,0.9l0.2,0.7
		l0.4,0.2c0.3,0.2,0.6,0.3,0.7,0.5c0.2,0.3,0.3,0.8,0.2,1.4c-0.1,0.8-0.5,1.3-1.3,1.5c-0.8,0.3-1.5,0.1-2.1-0.3
		c-0.6-0.5-1-1.3-1-2.5c0-1,0.5-1.8,1.5-2.5C42.7,86.6,43.2,86.3,43.8,86.2 M28.1,81.2L28.1,81.2l0.4,0.1c0.1,0.2,0,0.3-0.2,0.5
		c-0.3,0.2-0.6,0.4-0.9,0.7l-1.1,1.3l-0.1-0.1c0-0.1,0-0.3,0.2-0.7l0.5-0.9C27.3,81.7,27.6,81.4,28.1,81.2 M27.6,83.6l0.6-0.5l0.1,0
		c0.1,0,0.2,0.1,0.3,0.2c0,0.1,0,0.3-0.1,0.3l-0.3,0.3c-0.2,0.2-0.3,0.4-0.3,0.6c0,0.2-0.1,0.3-0.3,0.3l-0.2-0.1
		c-0.1-0.1-0.1-0.2-0.1-0.3C27.3,84.2,27.4,83.9,27.6,83.6 M35.1,76.7c0.3,0,0.7,0.2,1.2,0.7l1,1c0.3,0.2,0.6,0.2,1-0.1
		c0.2,0.3,0,0.6-0.5,0.9c-0.4,0.2-0.8,0.3-1.2,0.3h0l0.3,0.9c0.1,0.4,0.1,0.8,0,1.2c-0.1,0.4-0.3,0.6-0.5,0.6
		c-0.2,0-0.5-0.1-0.7-0.3c-0.2-0.3-0.4-0.6-0.5-1.1c-0.1-0.5,0-0.9,0-1.2c0.1-0.3,0.3-0.5,0.5-0.6h0.1l-0.6-1
		c-0.2-0.2-0.5-0.3-1.1-0.2l-0.8,0.2l0.7-0.5C34.5,76.9,34.9,76.7,35.1,76.7 M43.8,93.4c-0.2,0.2-0.5,0.4-0.9,0.4
		c-0.4,0-0.8,0-1.1-0.2l-0.3-0.3l2.4-0.3L43.8,93.4 M43,87.7l0.1-0.5c-0.5,0.2-0.9,0.6-1.2,1.1c-0.2,0.3-0.3,0.8-0.2,1.3l0.2,0.7
		l0.4-1c0.1-0.2,0.3-0.4,0.6-0.5c0.1-0.1,0.2-0.1,0.3-0.1C43,88.4,42.9,88,43,87.7 M50.1,72.9c-0.1-0.4-0.3-0.6-0.6-0.5l-0.4,0.2
		L48,73.4c0.6,0.8,1.1,1.7,1.6,2.6c0.4-0.8,0.6-1.4,0.6-1.7C50.3,73.7,50.2,73.3,50.1,72.9 M16,100.5c-3.7,2.5-6.5,5.3-8.3,8.4
		c-0.8,1.4-1.2,2.9-1.1,4.4c0.1,1.4,0.5,2.9,1.3,4.5c1.6,3.4,3.7,6.2,6.2,8.2c0.8,0.7,1.5,1.2,2.2,1.5l0.5,0.2c0.4-1.7,0.9-3,1.4-4
		c0.8-1.4,1.9-2.3,3.2-2.5c-1.1-4.3-2.8-7.4-5.2-9.3c-0.1-0.1-0.2-0.3-0.2-0.7c0-0.3,0-0.5,0-0.4c0.7,0.5,1.3,1.1,1.9,1.9l0,0
		c2.6-0.9,4.9-1.7,6.9-2.2c0-0.1,0.1-0.1,0.2,0l3-0.6c0.1,0,0.2,0.2,0.3,0.5c0.1,0.4,0.1,0.6,0,0.6l-3,0.6c0.4,3.2,0.7,6.3,0.8,9.2
		h0c0.1,0.1,0.2,0.3,0.2,0.5s0,0.4,0,0.5l-0.2,0.4v1.8c1.5,1,3.1,1.8,5,2.3c1.8,0.5,3.5,0.7,5.3,0.6l1.6,0l1.5-0.3
		c0.3-0.2,0.4-0.7,0.4-1.6c-0.2-7.9-0.9-14.8-2-20.9c-0.4-0.2-1.1-0.3-1.9-0.4l-1.9-0.3c-1.8-0.5-3.2-1-4.2-1.7
		c-2-1.5-3-3.6-2.9-6.4C22.8,96.6,19.2,98.4,16,100.5 M34.8,62.2h-0.1c-0.5,0-1,0.3-1.7,0.8l-0.6,0.6l-0.7,0.5l-2.1,0.7
		c-0.9,0.2-1.8,0.8-2.5,1.9l-1.3,1.9c-0.6,0.3-1.2,1-1.8,2c-0.5,0.8-0.8,1.6-1.1,2.4c-0.5,1.5-0.5,3.4,0,5.7c0.3,1.1,0.6,2.1,1,3
		c0.2-1.4,0.7-2.6,1.6-3.7l1.8-1.7l-1.4-1.2C25.3,74.6,25,74,25,73.6c0-0.7,0.2-1.2,0.6-1.7c0.5-0.7,1.1-1,2-1.1h0.6
		c0.3,0,0.9,0.2,1.7,0.5l1.5,0.4l0.1,0l1.5-1.8c0.9-1.1,1.6-1.7,2.2-1.7l0.4,0c0.3,0.1,0.9,0.4,1.7,0.9l1.1,0.5
		c0.3,0.2,0.6,0.2,0.8,0.2l0.3-0.1l1.3-0.8c0.2-0.1,0.4-0.2,0.6-0.2c0.3,0,0.7,0.1,1.2,0.3c0.3,0.2,0.9,0.7,1.7,1.6l1.3,1.4
		c0.8,0.5,1.4,0.8,2,0.7c0.4,0,0.8-0.2,1.1-0.5c0.6-0.6,0.9-1.4,1.1-2.4c0.1-0.9,0-1.7-0.3-2.4c-0.2-0.6-0.6-1-1-1.4
		c0.1,0.6,0,1.1-0.4,1.4c-0.4,0.4-0.9,0.6-1.5,0.7c-0.8,0.1-1.5-0.2-2.2-0.9c-1.6-1.6-2.6-2.4-3.2-2.5l-0.6,0
		c-0.3,0-0.7,0.1-1.2,0.3l-1,0.3c-0.2,0-0.4,0-0.6-0.2c-0.2-0.2-0.6-0.6-1-1.1C35.9,62.8,35.3,62.2,34.8,62.2 M103.8,100
		c-0.1,0-0.3,0.1-0.5,0.4c-0.2,0.3-0.4,0.7-0.5,1.1c-0.1,0.5-0.2,0.9-0.2,1.2c0,0.3,0.1,0.5,0.2,0.6s0.3-0.1,0.5-0.4l0.5-1.1
		c0.1-0.4,0.2-0.8,0.2-1.2C104.1,100.2,104,100,103.8,100 M85.6,103.3c0,0.7-0.3,1.3-0.7,1.8l-1.1,1.1c0.7-0.1,1.3-0.2,1.7-0.5
		c0.5-0.3,0.7-0.6,0.8-1C86.3,104.2,86.1,103.7,85.6,103.3 M88.9,97.2c-0.3,0.2-0.5,0.6-0.7,1.1l-0.3,1c-0.2,0.6-0.3,1.2-0.3,1.6
		c0,0.5,0,0.7,0.2,0.8c0.3,0.1,0.6-0.4,1-1.5l13.3,3.1c-0.1-0.6,0-1.3,0.2-2c0.1-0.4,0.3-0.9,0.5-1.3l-13.5-3
		C89.2,97,89,97,88.9,97.2 M82.8,96.3c-0.4,0.5-0.6,1.1-0.8,1.7c-0.3,1-0.3,1.9,0,2.7l5.2,1.2c-0.1-0.2-0.1-0.5-0.2-0.9l-3.7-0.8
		c-0.1,0-0.2-0.1-0.3-0.3c-0.1-0.1-0.1-0.3,0-0.5c0-0.2,0.1-0.3,0.3-0.4c0.1-0.1,0.3-0.1,0.4-0.1l3.4,0.8l0.1-0.4l0.1-0.5L84,98
		l-0.3-0.3c-0.1-0.1-0.1-0.3,0-0.5c0.1-0.4,0.3-0.6,0.7-0.5l3.7,0.8l0.5-0.6l-5.2-1.2L82.8,96.3 M83.1,94.5l0.1,0.3l0.3,0.2
		l19.5,4.5l0.3-0.3l0.2-0.7c-0.2-0.1-0.7-0.2-1.4-0.3l-1,0l-17.7-3.9C83.3,94.3,83.2,94.4,83.1,94.5 M77.7,109.8l-0.4-0.1l-2.5,0.1
		c-0.7,0.2-1,0.5-1.1,1c0,0.2,0,0.5,0.2,0.7c0.4,0.6,1.4,1,2.8,1.2c1,0.2,1.8,0.2,2.5,0c0.7-0.2,1-0.5,1.1-0.9
		c0-0.3-0.1-0.6-0.4-0.9c-0.3-0.3-0.7-0.6-1.3-0.9L77.7,109.8 M76.2,107.3c0,0.3,0.1,0.6,0.4,0.9c0.3,0.3,0.7,0.6,1.3,0.8l1.4,0.4
		l2.5-0.1c0.7-0.2,1-0.5,1.1-1c0.1-0.4-0.2-0.8-0.7-1.3c-0.6-0.5-1.4-0.8-2.3-0.9l-2.5,0.1C76.6,106.6,76.3,106.9,76.2,107.3
		 M73.9,106.2c-0.7,0-1.3-0.1-1.8-0.4l-0.5-0.4l-0.3,0.4l-0.5,0.9c-0.2,0.5-0.5,1.3-0.7,2.3c-0.2,0.9-0.2,1.4,0,1.6
		c0.1,0.1,0.2,0.2,0.4,0.2l1.8,0.3l0.6,0c-0.1-0.2-0.1-0.4,0-0.5c0.2-0.5,0.5-0.9,1-1.3c0.3-1.4,0.6-2.5,1-3.4L73.9,106.2
		 M73.3,107.8l0.1,0.4l-0.2,0.4c-0.1,0.1-0.2,0.1-0.4,0.1c-0.2,0-0.3-0.1-0.4-0.2c-0.1-0.1-0.1-0.2-0.1-0.4c0-0.2,0.1-0.3,0.2-0.4
		c0.1-0.1,0.3-0.1,0.4-0.1C73,107.6,73.2,107.6,73.3,107.8 M78.2,103.3c-0.1,0.6,0.2,1.1,1,1.6c0.7,0.5,1.7,0.9,2.7,1.1l0.8-0.5
		c0.5-0.4,0.9-0.8,1.2-1.2c0.2-0.4,0.4-0.7,0.4-1.2c0-0.4,0-0.6-0.2-0.6c-1.7-0.5-3.2-0.7-4.3-0.4C78.8,102.3,78.3,102.7,78.2,103.3
		 M77.1,103.6l-0.2,0.1c-0.3,0.2-0.6,0.6-0.9,1.2c-0.3,0.5-0.5,1.1-0.7,1.6l-0.8,2.6l1.5-0.2l-0.5-0.4c-0.3-0.3-0.4-0.8-0.3-1.2
		c0.2-0.7,0.6-1.2,1.4-1.4c0.6-0.2,1.2-0.3,1.9-0.3C77.7,105,77.2,104.3,77.1,103.6 M63.9,110.9c-0.2-1.1-0.2-2.3-0.2-3.5
		c0.2-3.6,1-6.2,2.2-8c-2.3,0.1-4.6-0.1-6.8-0.6c-4.8-1.3-8.3-3-10.4-5l-0.3,0.4l0.7,2.4c0.2,0.9,0.2,1.7,0,2.4
		c-0.3,1.2-0.8,2.2-1.7,3c-0.6,0.6-1.6,1.2-2.9,1.9c1.4,5.7,2.5,12.7,3.2,20.8c0.4,0,1.1-0.3,1.9-0.9l3.7-3.3l-1.7-11.7v-0.4
		l-0.1-0.3c-0.1-0.2-0.1-0.5,0-0.6c0.1-0.2,0.2-0.1,0.3,0.2c0.3,0.7,0.8,1.4,1.5,2.3c0.7,0.8,1.4,1.4,2.2,1.9
		c2.6,1.7,5.8,2.6,9.7,2.5C64.5,113.5,64.1,112.4,63.9,110.9 M66.3,104.6c-0.4-1.4-0.4-2.8,0.1-4.2c-0.9,1.2-1.5,2.8-1.8,4.8
		c-0.4,2-0.5,3.7-0.4,5.1c0.1,2.2,0.9,3.6,2.2,4.1l2.9-0.3c-1.4-1-2.3-2.4-2.8-4.1C65.8,108.1,65.8,106.4,66.3,104.6L66.3,104.6
		 M75.8,98.5c-1-0.6-2.3-1-4-1c-1.7,0-3,0.4-3.9,1.1c0,0.3,0,0.4-0.1,0.5l0,0.1c-0.8,1.1-1.3,2.2-1.4,3.4c-0.1,1.3,0.2,2.4,1,3.5
		l0.2,0.7c0,0.3,0,0.4-0.2,0.2l-1-1.4l0.1,0.3c-0.3,1.2-0.3,2.3-0.1,3.3c0.2,1.2,0.8,2.3,1.7,3.1c0.8,0.8,1.8,1.4,3.1,1.8l0.1,0
		l2.9,0.3c0.9-0.1,1.7-0.3,2.1-0.8l-0.5-0.2c-0.5-0.1-1-0.4-1.5-0.7c-0.6-0.4-0.9-0.7-1.1-0.9h0l-3.1-0.5l-0.5-0.1l-0.4-0.2
		c-0.1-0.1-0.2-0.3-0.2-0.6l0-0.6c0.2-1.1,0.5-2.3,1-3.6c0.3-0.9,0.6-1.5,0.9-2l0,0l-0.2-0.9l0-0.4c-0.1-0.6-0.1-1.1-0.1-1.4
		l0.7-0.3c0,0.7,0,1.4,0.2,2c0.2,0.9,0.5,1.5,1,1.7c0.5,0.2,1,0.4,1.4,0.3c0.4,0,0.7-0.1,0.9-0.3C76.3,101.2,76.6,99.1,75.8,98.5
		 M76.3,97.9c0.3,0.3,0.5,0.7,0.6,1.3c0.1,0.7,0,1.5-0.1,2.4l-0.5,2.3l0.5-0.5c0.3-0.3,0.6-0.8,0.9-1.6c0.4-1.7,0-3-1.3-4L76.3,97.9
		 M78,97.2l-0.9,0l-0.2,0.4l0.6,0.5c0.4,0.4,0.7,0.9,0.8,1.4c0.2,0.8,0.1,1.7-0.1,2.7l0.5-0.3c0.3-0.1,0.8-0.2,1.7-0.3l1.4-0.1
		c-0.2-0.3-0.3-0.7-0.4-1.2c-0.2-0.9-0.2-1.7,0.1-2.5c0.3-0.8,0.7-1.5,1.1-2.1l0.5-0.5l-0.1-0.8c-0.3,0.1-0.7,0.4-1.1,0.8l-0.4-0.3
		c-0.7,0.8-1.1,1-1.3,0.8l-0.4-0.8c-0.1-0.1-0.2-0.2-0.3-0.1c-0.1,0.1-0.1,0.2,0,0.3l0.1,0.2l0.2,0.7c0,0.3-0.1,0.6-0.3,0.7
		C79.1,96.9,78.6,97.1,78,97.2 M80.3,98.6c0.1,0.1,0.1,0.2,0.1,0.4l-0.2,0.4l-0.4,0.1c-0.1,0-0.3-0.1-0.4-0.2
		c-0.1-0.1-0.2-0.3-0.1-0.4c0-0.1,0.1-0.3,0.2-0.4c0.1-0.1,0.3-0.1,0.4-0.1C80.1,98.4,80.2,98.5,80.3,98.6z"/>
	<path class="st0" d="M154.4,170.8c0.9,0,1.7,0.3,2.2,0.9c0.6,0.6,0.9,1.3,0.8,2.2l0.8-0.1c1.2,0,2.3-0.2,3.3-0.5
		c0.5-0.7,0.5-1.4,0-2.1c-0.5-0.7-1.1-1.1-1.9-1.1L154.4,170.8 M142.2,172.3h-0.1c-4.2,1-6.3,2.5-6.1,4.6c0.8-0.2,1.7-0.6,2.9-1.2
		c1.4-0.7,2.4-1.2,2.9-1.4c0.6-0.2,1.4-0.4,2.2-0.5c-0.1-0.5-0.3-0.9-0.6-1.2C143.2,172.3,142.8,172.2,142.2,172.3 M144.6,171.8
		l-1.4,0.2c0.7,0.3,1.2,0.9,1.4,1.8l1.4-0.2c0.1-0.5,0-0.8-0.1-1.1c-0.1-0.4-0.4-0.6-0.8-0.6L144.6,171.8L144.6,171.8 M145.6,171.6
		c0.3,0.1,0.6,0.3,0.8,0.5c0.3,0.4,0.5,0.9,0.4,1.5h0.4c1.1,0,2.8,0,4.9,0.1l4.9,0.2c0-0.7-0.1-1.4-0.5-1.9c-0.4-0.5-1-0.8-1.8-0.8
		c-0.1,0-0.2-0.1-0.3-0.1c-0.1-0.1-0.1-0.2-0.1-0.2L145.6,171.6 M125.2,146l-0.3-0.1c-0.6-0.5-1.2-0.9-1.6-1.1l-1.8,0.1l-2.6,1.8
		c-0.5,0.5-0.7,1-0.6,1.6c0.2,1.1,0.5,2.1,1,3.2c0.5,1.1,1.1,2.1,1.8,2.9c1,1.1,2.2,2.1,3.8,3c1.4,0.8,2.8,1.5,4.4,2.1l0.3,0.2
		c0,0.1,0,0.2-0.2,0.2c-2.4,0.4-4.6,0.4-6.6,0.1c-0.5-0.1-1.1-0.3-1.7-0.6l-1.7-0.8c-1.7-0.7-2.8-0.7-3.4,0.1l-1,1.1l-1.8,1.2
		c-0.8,0.6-1.2,1.1-1.3,1.7c-0.1,0.2,0.2,0.1,0.9-0.3c0.5-0.7,1.1-1.2,2-1.7c0.9-0.5,1.8-0.6,2.6-0.6c0.2,0,0.4,0.2,0.4,0.4
		c0.1,0.2,0,0.2-0.3,0.2c-0.6-0.1-1.3,0.2-2,0.8l-1.9,1.6c-0.3,0.5,0,0.7,0.8,0.5c0.6-0.2,1.2-0.4,1.8-0.7l1.8-1
		c0.7-0.3,1.4-0.4,2-0.4c0.5,0.1,0.9,0.2,1.2,0.4c0.4,0.2,0.6,0.4,0.8,0.8c0.3,0.8,1.6,1.1,3.7,0.9l4.2-0.6l0.1,0.1
		c0.9-0.3,1.7-0.4,2.5-0.4l5.1,0.8c-2.7-0.8-5-2.3-7.1-4.5c-1.6-1.7-2.9-3.7-3.8-5.9C125.8,150.7,125.3,148.4,125.2,146
		 M136.1,129.9c-0.4-1.1-0.7-1.8-0.9-2c-0.5-0.4-0.9-0.8-1.1-1.2l-3.9,7.4c0.3,0,0.5,0.1,0.6,0.2v0.2l-0.2,0.1l-1.2,0.1
		c-0.7,0.1-1.1,0.4-1.1,0.8c-0.2,0.5,0.4,0.8,1.6,0.8c0.3,0,0.5,0.1,0.6,0.2c0.1,0.1,0,0.2-0.2,0.3l-1.3-0.2
		c-0.7,1.4-1.2,2.6-1.6,3.7l0.5,0.1c0.3,0.2,0.4,0.3,0.2,0.4c-0.1,0.1-0.3,0.1-0.6,0l-0.5-0.2l-0.3-0.1c-0.6-0.1-0.9,0.1-1.2,0.6
		c-0.2,0.4,0,0.8,0.6,1l0.8,0.2c0.3,0.1,0.5,0.2,0.5,0.3c0,0.1-0.1,0.2-0.4,0.2l-0.3,0c-0.4,2.1-0.5,4.4-0.1,6.8
		c0.5,2.6,1.3,4.7,2.4,6.3c1.3,1.8,2.8,3.4,4.6,4.7c2,1.5,3.9,2.4,5.9,2.7l0.1,0.1l3.8-0.3c-3-1.2-5.4-2.8-7.2-4.7
		c-0.7-0.8-1.2-1.8-1.6-3l-1.1-3.2c-0.5-1-0.9-1.7-1.1-2.2c-0.3-0.8-0.3-1.5,0.1-2.3c0.2-0.5,0.5-0.8,0.9-0.8c0.6,0,1.2-0.1,1.8-0.4
		l1.6-0.8c0.9-0.5,2.2-0.3,3.8,0.6l1.5,0.8c1.6-1.6,2.2-3.1,1.7-4.4l-0.8-2.1c-0.3-0.8-0.5-1.5-0.4-2.1l0.5-3.3
		c0.1-1.3,0-2.4-0.3-3.4c-0.3-0.7-0.4-1.3-0.3-1.7l-0.7,0.2c-0.3,0.1-1,0.4-2,1c-0.8,0.5-1.5,0.6-2.2,0.4
		C136.9,131.4,136.5,130.8,136.1,129.9 M135.6,134.9c0.3,0,0.5,0.1,0.6,0.2s0.1,0.3-0.2,0.3c-0.4,0-0.7,0.1-0.9,0.4
		c-0.3,0.2-0.4,0.5-0.4,0.9h0.5c0.2-0.1,0.5,0,0.7,0.2l0.1,0.2l-0.2,0.1l-1.5-0.1c-0.3-0.1-0.5-0.3-0.6-0.5v-0.5
		c0.1-0.4,0.4-0.7,0.8-1C134.8,135,135.2,134.9,135.6,134.9 M135.8,141.7c0.2,0,0.4,0,0.6,0.2l0.1,0.2l-0.1,0.1
		c-0.9,0.2-1.5,0.5-1.9,1c-0.2,0.2-0.3,0.4-0.2,0.6l0.4,0.2h0.5c0.3,0,0.5,0.1,0.6,0.2l-0.1,0.2l-0.2,0.1l-1.5-0.2
		c-0.7-0.3-0.9-0.6-0.6-1.1C133.7,142.5,134.5,142,135.8,141.7 M122.4,122.9c-0.1-0.4-0.3-0.8-0.6-1.3c-0.4-0.6-0.6-1-0.7-1.3
		l-0.2-2.4c-0.1-0.8-0.3-1.5-0.8-1.9c0.4,1,0.4,2,0.2,2.8h-0.8c-0.6-0.3-1.1-0.8-1.5-1.5l-1.5-2.7l-1,0.2l3.1,4.3v0.2l-0.2,0.1
		c-0.7,0-1.4-0.3-2.1-0.7l-1.8-1.3c-0.5-0.3-0.8-0.4-1.1-0.2c-0.3,0.2-0.2,0.4,0.3,0.7l1.8,1.1c0.9,0.6,1.5,1.2,2,1.8
		c0.1,0.1,0,0.2-0.1,0.2c-0.3,0.1-1.3,0.2-2.9,0.1c-1.4-0.1-2.3,0.1-2.7,0.5c1.9,0.6,3.5,0.8,4.8,0.8c0.4,0,0.6,0.1,0.7,0.2
		c0.5,1,1.5,1.8,3,2.6c1.3,0.6,2.6,1,3.9,1.1c3.3,0.2,6.3,0.2,9-0.2l0.2-0.6c0-0.1,0.1-0.3,0.2-0.4l0.1-0.1l0.1-0.1
		c0.2-0.3,0.1-0.8-0.1-1.5l-10.8-0.2C122.7,123.2,122.5,123.2,122.4,122.9 M147.8,89.6c0.1-0.4,0.1-0.8,0.1-1.3
		c-0.1-0.7-0.5-1-1.4-1c-0.9,0.5-1.7,1.4-2.4,2.8c-0.4,0.8-0.6,1.5-0.7,2.1c-0.1,0.5-0.1,1,0,1.3c0,0.7,0.5,1,1.4,1
		c1-0.6,1.8-1.5,2.3-2.8C147.6,90.8,147.8,90.1,147.8,89.6 M144.2,92.5c-0.1,0-0.2-0.2-0.2-0.4c0-0.3,0.1-0.6,0.2-0.9l0.5-0.8
		c0.2-0.2,0.4-0.2,0.4-0.1c0.1,0,0.2,0.2,0.2,0.4c0,0.3-0.1,0.5-0.2,0.9l-0.5,0.8C144.5,92.5,144.3,92.6,144.2,92.5 M139.9,92.4
		c0.7-0.7,1.2-1.5,1.5-2.6c0.3-3.1-0.1-4.2-1.1-3.3c-0.6,0.5-1.1,1.4-1.5,2.6c-0.1,0.6-0.1,1.4-0.1,2.3
		C138.9,92.6,139.3,92.9,139.9,92.4 M139.8,89c0.1,0,0.2,0.1,0.2,0.4l-0.1,0.7l-0.3,0.7c-0.1,0.2-0.3,0.2-0.4,0.2
		c-0.1,0-0.2-0.1-0.2-0.3c0-0.2,0-0.4,0.1-0.7c0.1-0.3,0.2-0.5,0.3-0.7S139.7,89,139.8,89 M130.7,98.6l0.2,0.2
		c0.2,0.6,0.2,2.1,0.2,4.6c0,1.9,0.3,3.4,1.1,4.4c0.1,0.2,0.7,0.6,1.8,1.2c0.8,0.5,1.3,1,1.3,1.5c0,0.2-0.1,0.6-0.5,1.1
		c-0.4,0.6-0.7,1-0.7,1.3c0,0.1-0.1,0.2-0.3,0.2l2.6,4.2c0.9,1.4,1.6,2.2,2.1,2.2c1.2,0.1,2,0.7,2.4,1.8l0.4,0.1
		c0.3-0.2,0.7-0.4,1.2-0.5c-0.1,0-0.2-0.1-0.2-0.2c-0.1-2.3-0.2-4-0.1-5.1c0.1-2,0.8-3.6,1.9-4.5l1.7-1.6c0.4-0.6,0.3-1.3-0.2-2.2
		l-2.1-3.5c-0.3-0.7-0.6-1.4-0.7-2.3l-0.2-2.3c-0.1-0.8-0.4-1.6-1-2.2c-0.4-0.5-1-0.9-1.9-1.4c-1.9-1.1-3.3-2.3-4-3.6
		c-0.1,0.7-0.4,1.4-0.9,2.1l-1.6,1.7c0.6,0.7,1,1.3,1.1,1.8c0.2,0.7,0.4,1.7,0.4,3l0.4,3l0.4,1.7c0.2,0.6,0.5,1.1,0.9,1.4
		c0.5,0.4,0.9,0.5,1.2,0.4c0.5-0.7,0.8-1.5,1-2.2c0.1-0.2,0.3-0.2,0.6-0.1c0.3,0.1,0.4,0.2,0.4,0.4c-0.1,1-0.4,1.7-1,2.1l-1.3,1.7
		c-0.1,0.1-0.3,0.1-0.6,0c-0.3-0.1-0.4-0.2-0.3-0.3l0.8-0.9c-0.5,0-1-0.2-1.4-0.6s-0.8-0.9-1.1-1.5c-0.3-0.9-0.6-1.9-0.7-3.2
		l-0.4-3.3c-0.1-0.9-0.5-1.7-1.1-2.6l-0.8,0.8L130.7,98.6 M135.8,96.9c0-0.1,0.2-0.2,0.5-0.1c0.3,0.1,0.4,0.2,0.4,0.4v0.2
		c0,0.2-0.1,0.2-0.4,0.1c-0.3-0.1-0.5-0.2-0.5-0.3V96.9 M138.4,97.1c0.3,0,0.5,0.1,0.6,0.3v0.2l-0.2,0h-0.1c-0.3,0-0.5-0.1-0.7-0.2
		c0-0.1,0-0.2,0.1-0.2l0.2-0.1H138.4 M137.4,98.5c0.3,0.1,0.5,0.2,0.5,0.4v0.3c0,0.2-0.2,0.2-0.5,0.1c-0.3-0.1-0.4-0.2-0.4-0.4v-0.3
		C136.9,98.5,137.1,98.4,137.4,98.5 M139.4,99.3c0.3,0,0.5,0,0.7,0.2l0.1,0.2l-0.1,0.1v0.2c0,0.1-0.1,0.2-0.4,0.1
		c-0.3-0.1-0.5-0.2-0.5-0.4C139.1,99.5,139.2,99.3,139.4,99.3 M136.7,99.9c0.2,0,0.4,0.1,0.6,0.3c0.1,0.2,0.1,0.2-0.2,0.2
		c-0.2,0-0.4-0.1-0.6-0.2C136.3,100,136.4,99.9,136.7,99.9 M138.9,103.2c-0.2,0-0.3-0.1-0.5-0.3c-0.2-0.2-0.1-0.2,0.2-0.2
		c0.2,0,0.4,0.1,0.6,0.2C139.3,103.1,139.2,103.2,138.9,103.2 M129.6,94.8v0.1c-1.8,2.2-2.5,4.8-2.1,7.9l-0.1,0.1l0.2,0.1
		c0.8-2.7,2.4-5.2,4.7-7.4C131.4,94.6,130.6,94.4,129.6,94.8 M126.4,95c-0.3,0.7-0.5,1.3-0.6,1.9c-0.3,1.9-0.2,3.7,0.2,5.2l0,0.2
		l0.4,0.2c-0.3-3.1,0.5-5.8,2.2-8v-0.2c0-0.6-0.1-1-0.4-1.2h-1L126.4,95 M129.5,88.6l-1.8,4c0.5,0,0.9,0.1,1.2,0.3
		c0.4,0.2,0.6,0.6,0.7,1.1c1.2-0.4,2-0.2,2.6,0.6l0.6,0.7c2-1.9,2.7-3.6,1.9-5.2c-0.5-1.1-1.4-1.9-2.6-2.5
		C130.8,86.9,129.9,87.3,129.5,88.6 M131,89.7c-0.4,0.4-0.6,0.8-0.6,1.3c0,0.2-0.2,0.2-0.5,0.1c-0.3-0.1-0.5-0.2-0.5-0.4
		c0-0.5,0.2-1,0.7-1.4c0.1-0.1,0.3-0.1,0.6,0C131,89.5,131.1,89.6,131,89.7 M131.6,91.9c-0.3-0.1-0.4-0.3-0.2-0.4l0.6-1.1
		c0.1-0.2,0.3-0.2,0.6-0.1s0.4,0.2,0.4,0.3c-0.3,0.6-0.5,1.1-0.7,1.2C132,92,131.8,92,131.6,91.9 M162,171.1
		c0.5,0.6,0.6,1.3,0.4,1.9l1.2-0.6c0.4-0.8,0.3-1.4-0.3-2.1c-0.6-0.6-1.3-0.9-2.2-1l-0.9,0.4C160.9,170.1,161.5,170.6,162,171.1
		 M163.8,162c1.1,0,2,0.4,2.9,1.2c-0.2-0.5-0.5-1.1-0.9-1.6c-0.5-0.7-1.2-1.4-2.1-2.1c-1-0.1-1.9,0.1-2.6,0.8
		c-0.7,0.7-1.1,1.6-0.9,2.6v0.1l1.1,0.5C161.7,162.5,162.6,162,163.8,162 M163.1,165.8c0.8,0,1.6,0.2,2.2,0.6c0.7,0.4,1.2,1,1.5,1.8
		c0.2-1,0.3-2,0.2-3c-0.2-1.4-1-2.2-2.4-2.6c-1.4-0.4-2.4,0.1-2.9,1.4C162.5,164.4,163,165,163.1,165.8 M165.5,166.9
		c-0.6-0.6-1.4-0.9-2.3-0.9c0.1,1.2-0.5,2.3-1.7,3.1c0.8,0.2,1.5,0.5,2.1,0.9c0.6,0.6,0.9,1.2,0.8,1.9c1-0.7,1.7-1.6,2.2-2.8
		C166.5,168.3,166.1,167.6,165.5,166.9 M162.5,121.8c0.3-0.9,0.3-1.9,0-3.1l-1-2.9l-0.4,0.2l-0.6-0.1c-0.3-0.2-0.3-0.3-0.1-0.3
		c0.4-0.2,0.7-0.4,0.9-0.7c0.3-0.3,0.4-0.7,0.3-1.1l-0.2-0.6l-0.2-0.3l-1-0.1c-0.2,0.1-0.4,0-0.6-0.2c-0.2-0.2-0.2-0.3,0.1-0.3
		c0.5-0.1,1-0.1,1.5,0v-3.6h-1.1c-0.2,0-0.4-0.1-0.6-0.3c-0.2-0.2-0.1-0.2,0.2-0.2h1.4l-0.1-1.9l-0.1-0.9c-0.2,0.1-0.6,0.3-1.1,0.5
		l-0.6-0.1c-0.3-0.2-0.3-0.3-0.1-0.4c0.5-0.3,1.1-0.5,1.6-0.7c-0.3-0.6-0.7-1.1-1.4-1.3c-0.3,0.4-0.7,0.9-1.1,1.5l-0.6,0
		c-0.3-0.1-0.4-0.3-0.3-0.4c0.3-0.4,0.6-0.9,1.1-1.4h-0.1c-0.4-0.1-0.8-0.2-1.4-0.5c-0.6-0.4-1.1-1.2-1.4-2.6
		c-0.2-1.5-0.4-2.4-0.5-2.9c-0.5-1.3-1-2.4-1.6-3.2l-1.1,0.6l-0.4-0.1c-0.2-0.1-0.2-0.2-0.1-0.2l1.2-0.8c-0.3-0.4-0.7-0.8-1.1-1.1
		l-0.8,1c-0.1,0.1-0.2,0.1-0.4,0c-0.2-0.1-0.2-0.1-0.1-0.2l0.8-1.2l-0.4-0.3l-0.2,0l-0.4,0.8l-0.3,0.1c-0.2-0.1-0.2-0.2-0.2-0.2
		l0.3-1l-1.6-0.6l-0.4,1.2c-0.5,1-1,1.7-1.6,2.3c-0.9,0.8-1.7,1.1-2.5,0.9c-1-0.3-1.5-1.1-1.6-2.2c0-0.8,0.2-1.8,0.6-2.9l-0.2-0.1
		h-0.5l0,0.1c-0.3,0.9-0.6,1.7-1.1,2.2c-0.6,0.8-1.3,1-2.1,0.9c-1.1-0.3-1.6-1.4-1.5-3.2l-2.3-0.4c0.2,0.4,0.4,0.7,0.5,1.1v0.2
		c0.5,1.3,1.4,2.4,2.8,3.4l3.7,2.8c0.7,0.7,1,1.6,1,2.9c0,1.8,0.6,3.6,1.7,5.4l1.5,2.7c0.4,1.1,0.2,2-0.6,2.5
		c-1.6,1.2-2.6,2.8-2.9,4.8c-0.2,1.2-0.2,3.1-0.1,5.7l2.1-0.3l0.6-3c0.2-1.1,0.5-2,0.9-2.7c-0.3-0.1-0.5-0.2-0.4-0.4
		c0.4-1.5,1.3-2.7,2.7-3.3c1.2-0.6,2.6-0.9,4.3-0.8c0.2,0,0.4,0.1,0.6,0.2c0.2,0.2,0.1,0.3-0.2,0.2c-1.5,0-2.7,0.2-3.7,0.6
		c-1.2,0.5-2.1,1.4-2.6,2.5c0.3-0.3,0.7-0.5,1.1-0.7c3-1.6,5.5-2,7.5-1.2c0.3,0.1,0.4,0.2,0.2,0.3h-0.6c-1.1-0.4-2.5-0.4-4.2,0.2
		c-1.7,0.6-3,1.3-3.7,2.3c-0.5,0.6-0.9,1.5-1.1,2.5c-0.1,0.6-0.3,1.5-0.4,2.7c0.4-0.3,0.8-0.6,1-1.1l1.3-1.8
		c0.5-0.6,1.1-1.1,1.7-1.4c1.1-0.7,2.1-0.9,3-0.7c1,0.2,1.8,0.9,2.4,2c0.1,0.2,0,0.3-0.3,0.2c-0.3,0-0.5-0.1-0.6-0.2
		c-0.9-1.9-2.2-2.2-3.8-0.8c-0.5,0.4-1.1,1.1-1.8,1.9l-1.3,1.7c-0.5,0.6-1.1,0.9-1.8,1.1l-0.3,1.1c-0.1,0.2-0.2,0.2-0.6,0.1
		c-0.3-0.1-0.5-0.2-0.4-0.3l0.2-0.7c-1.2,0.1-2,0.3-2.6,0.6c0.7,0.4,1.1,1.1,1.2,1.9c0,0.2-0.1,0.2-0.4,0.2
		c-0.3-0.1-0.5-0.2-0.5-0.3c-0.1-0.7-0.4-1.2-0.9-1.5c-0.2,0-0.3-0.1-0.5-0.2h-0.1l0.2,2.5c0,0.2-0.2,0.3-0.5,0.2
		c-0.3-0.1-0.5-0.2-0.5-0.3c-0.1-1.5-0.1-2.4-0.2-2.6c-0.3-0.7-1.1-1.2-2.3-1.6l-0.5-0.4l-6.2-8.9c-0.2-0.3-0.5-0.6-1-0.9l-1.1-0.9
		l-1.1-2.4c-0.3-0.9-0.8-1.5-1.4-1.9c0.5,0.6,0.8,1.2,0.8,1.9l-0.2,0.2l-0.3-0.1l-2.8-1c-1.2-0.5-2.4-0.7-3.7-0.5l0.1,0.6l3.1,0.8
		c0.6,0.2,1.1,0.5,1.4,0.9c0.2,0.2,0.1,0.3-0.1,0.3l-4,0.6c-1.2,0.3-2,0.7-2.4,1.2c-0.1,0.2,0.2,0.2,1,0.2l3.3-0.4
		c0.8,0,1.4,0.2,2,0.6c0.1,0.1,0.2,0.2,0.1,0.3c-0.3,0.2-1.2,0.6-2.8,1.2c-1.1,0.5-1.8,1.1-2.1,1.8l1.9-1c0.8-0.4,1.5-0.6,2.1-0.6
		h0.6c0.3,0,0.5,0.1,0.6,0.3c0.5,0.9,1.5,1.4,3.1,1.5c0.4,0,0.6,0.1,0.6,0.3c0.1,0.8,0.6,1.6,1.4,2.4l1.9,2.1
		c0.4,0.5,0.8,1.2,1.2,2.2l1.1,2.2c0.4,0.7,0.5,1.4,0.4,2l-0.1,0.7v0c-0.1,0.4-0.1,0.7-0.1,0.8c0.2,0.4,0.6,1,1.2,1.7
		c0.6,0.7,0.9,1.3,1.1,1.8c0.2,0.7,0.7,1,1.4,0.9c0.3,0,0.9-0.3,1.7-0.7c0.3-0.2,0.7-0.3,1.3-0.4l1.4-0.1c2.2-0.3,4.3-1.1,6.2-2.4
		l1.9-1.3c0.8-0.5,1.5-0.8,2.2-0.9l2.5-0.1c0.8-0.2,1.3-0.8,1.3-1.8c0-0.2,0.2-0.2,0.6-0.1c0.3,0.1,0.4,0.2,0.4,0.4
		c-0.1,0.7-0.3,1.2-0.5,1.5c-0.3,0.4-0.8,0.6-1.4,0.6h-1.9c-0.8,0-1.4,0.2-1.9,0.5l-3.1,2.1c-0.9,0.5-1.9,1-3,1.4l-3.1,0.7
		c-0.2,0.4-0.2,1,0.1,1.6l0.4,1.7c0.1,0.6,0,1.7-0.3,3.3c-0.2,1.4-0.2,2.5-0.1,3.3c0.1,0.4,0.4,1.1,0.9,2.1c0.4,1,0.5,1.7,0.3,2.2
		c-0.3,1.1-1,2.2-1.9,3.2l3.3,1.4c2.3-0.4,4.7,0.3,7.1,2.1c2.5,1.8,3.8,3.8,3.9,6.1c0,0.2-0.2,0.2-0.5,0.2c-0.3,0-0.4-0.1-0.4-0.3
		c-0.1-2-1.2-3.8-3.1-5.5c-2-1.6-3.9-2.4-5.9-2.2c2.6,1.3,4.5,2.6,5.6,4.1c0.1,0.2,0,0.2-0.3,0.2c-0.3,0-0.5-0.1-0.6-0.2
		c-1-1.2-2.5-2.4-4.6-3.4c-2.4-1-4.2-1.8-5.3-2.4c-1-0.6-1.7-1-2.3-1.2c-1-0.4-1.9-0.4-2.5,0.1l-0.9,0.6c-0.4,0.3-0.7,0.4-0.9,0.4
		l-1.2,0.2c-0.4,0.1-0.7,0.5-0.8,1s0.1,1.4,0.6,2.4l1.1,2.4c0.3,1.2,0.6,2.1,0.9,2.8c0.4,0.9,1,1.7,1.7,2.4c1.5,1.3,3.1,2.4,4.8,3.3
		c1.9,1,3.7,1.6,5.6,2c0.3,0,0.4,0.1,0.5,0.3c0.1,0.2,0,0.2-0.3,0.2c-1.1-0.2-2.2-0.5-3.4-0.9l-0.1,0.1l-4.5,0.4l-4.6-0.2l-2.2-0.4
		l-2.2,0.1c-1,0.3-2,0.7-3,1.2l-1.1,0.6c-0.4,0.3-0.8,0.5-0.9,0.8c0.1-0.2,0.4-0.3,0.8-0.5l3.2-0.9l2.1,0.1c0.2,0.1,0.3,0.2,0.2,0.3
		c-0.2,0.4-0.6,0.7-1.3,0.9l-1.6,0.6c-1.2,0.7-2,1.3-2.6,1.8c-0.4,0.5-0.6,0.7-0.6,0.8l0.9-0.4c0.5-0.3,1.2-0.5,1.9-0.8l3.5-1.1
		l1.4,0c1,0.2,1.1,0.7,0.6,1.3c-0.5,0.5-1.1,1-1.9,1.3c-0.6,0.3-1.3,0.5-2.1,0.6l-2.2,0.4c-0.8,0-0.6,0.2,0.6,0.5l6.2-1
		c1-0.2,1.8-0.5,2.4-0.8l2-1c0.8-0.4,1.5-0.7,2.1-0.8l4.8-0.3l10.7,0.4c1,0,1.5-0.2,1.5-0.6c0-0.5-0.4-1-1.3-1.5
		c-1.3-0.7-3.1-1.3-5.4-1.9c-0.2,0-0.4-0.1-0.4-0.2c-0.4-2-2.2-4.1-5.2-6.1c-1.3-0.9-2.4-1.6-3.4-2.1c-1.4-0.6-2.6-1-3.8-1.1
		c-0.1,0-0.2-0.1-0.4-0.1c-0.2-0.1-0.2-0.2-0.1-0.3l0.4-0.6c0.1-0.2,0.3-0.2,0.6-0.2c0.3,0.1,0.5,0.2,0.4,0.4l-0.2,0.4
		c2,0.3,4.1,1.3,6.6,2.9c1.5,1,2.6,1.8,3.3,2.5c1.2,1.1,2,2.2,2.5,3.2c0.1,0.2,0.1,0.5,0.1,0.7c0,0.1,0.1,0.2,0.2,0.2l2,0.6h0.1
		l1.4-0.1c0.8-0.2,1.1-0.5,0.9-0.9c-0.1-0.1,0-0.2,0.2-0.2h0.3l2.4,0.7c-0.1-1.1,0.2-2,0.9-2.7c0.7-0.6,1.6-0.9,2.7-0.9l-1.8-1.4
		c-1.1-1-1.9-1.9-2.3-2.8c-0.5-1-0.6-2.2-0.2-3.4c0.6-2.4,1-4.3,1.1-5.5c0.1-0.8,0.2-1.9,0.2-3.5c0-1.5,0-2.7,0.1-3.5
		c0.1-1,0.2-2.2,0.1-3.5l0-3.6l-3.3-0.9c-0.3-0.1-0.4-0.2-0.4-0.4c0.1-0.1,0.2-0.2,0.5-0.1l3.1,0.9l0.1-1.9l-3.6,0.4
		c-0.2,0-0.4-0.1-0.6-0.2c-0.2-0.2-0.2-0.3,0-0.3l4.2-0.4l0.1-1.9c0.1-0.8,0.4-1.7,0.9-2.8L162.5,121.8 M154.9,102.6
		c1.1,0.6,1.5,1.5,1.2,2.6c-0.4,1.6-1.2,2.5-2.5,2.7c-1.3,0.2-2.5-0.1-3.6-0.8c-0.2-0.2-0.2-0.3,0-0.4l0.6,0.1
		c1,0.7,2.1,0.8,3.1,0.3c1-0.5,1.5-1.4,1.6-2.6c0-0.8-0.4-1.4-1.2-1.8l-2.2-0.6c-0.3-0.1-0.4-0.2-0.4-0.4c0.1-0.2,0.2-0.2,0.5-0.1
		C153.3,101.8,154.3,102.2,154.9,102.6 M153.4,103.2c0.3,0.7,0.2,1.3-0.3,1.7c-0.4,0.5-1,0.6-1.8,0.5c-0.3,0-0.5-0.1-0.6-0.3
		c0-0.1,0.1-0.2,0.1-0.2h0.3c0.5,0.1,0.9-0.1,1.1-0.5c0.2-0.4,0.3-0.8,0.1-1.3c-0.1-0.1,0.1-0.2,0.4-0.2
		C153.1,102.9,153.3,103,153.4,103.2 M156.1,135.3l-0.6-0.2c-0.3-0.2-0.3-0.3-0.1-0.3c0.7-0.2,1.3-0.2,2,0.1
		c0.7,0.3,1.1,0.8,1.4,1.5c0.2,0.7,0.2,1.3-0.2,1.7c-0.4,0.4-1.1,0.6-2,0.5c-0.2,0-0.4-0.2-0.4-0.4c-0.1-0.2,0-0.2,0.3-0.2
		c1.2,0.2,1.7-0.3,1.4-1.5c-0.1-0.4-0.3-0.8-0.7-1.1C156.9,135.2,156.5,135.1,156.1,135.3 M149.8,135.6c0.3,0,0.5,0.1,0.6,0.3v0.2
		l-0.2,0.1l-0.9,0.1c-0.2,0.1-0.4,0-0.6-0.2c-0.2-0.2-0.1-0.3,0.1-0.3L149.8,135.6 M149.9,138.9l0.2-0.2c0.3,0,0.5,0,0.7,0.2
		c0.6,0.4,1.1,0.7,1.4,0.9c0.3,0.1,0.4,0.3,0.2,0.4l-0.3,0.1l-0.3-0.1c-0.7-0.3-1.3-0.7-1.9-1.1L149.9,138.9 M147.1,139.8
		c0.3,0.1,0.5,0.2,0.5,0.3c0.2,0.7,0.4,1.3,0.8,1.7c0.1,0.1,0.1,0.2,0,0.2l-0.2,0.1c-0.3,0-0.5-0.1-0.7-0.2
		c-0.4-0.5-0.6-1.2-0.8-1.9C146.6,139.8,146.7,139.8,147.1,139.8 M151.2,146.7c-0.2-0.2-0.2-0.3,0.1-0.3l0.6,0.2
		c1.4,1.1,2.9,2.6,4.4,4.4c0.1,0.2,0,0.2-0.3,0.2c-0.3,0-0.5-0.1-0.6-0.2C154.1,149.3,152.7,147.8,151.2,146.7 M155.6,147.4
		c0.3,0.1,0.5,0.2,0.5,0.4c0,0.1-0.2,0.2-0.6,0.1l-2.2-0.8c-0.3-0.1-0.4-0.2-0.4-0.4c0-0.1,0.1-0.1,0.2-0.1l0.3,0L155.6,147.4z"/>
</g>
</svg>
