<?xml version="1.0" encoding="utf-8"?>
<!-- Generator: Adobe Illustrator 25.4.1, SVG Export Plug-In . SVG Version: 6.00 Build 0)  -->
<svg version="1.1" id="Awareness_x2C_PerkClip_x5F_d2287" image-rendering="auto"
	 xmlns="http://www.w3.org/2000/svg" xmlns:xlink="http://www.w3.org/1999/xlink" x="0px" y="0px" viewBox="0 0 240 240"
	 style="enable-background:new 0 0 240 240;" xml:space="preserve">
<style type="text/css">
	.st0{fill:#FFFFFF;}
</style>
<g>
	<rect width="240" height="240"/>
	<path class="st0" d="M84.9,107.4c-0.1,0.6-0.4,1.2-0.9,1.7l-1.2,0.9l1.8-0.2c0.5-0.2,0.8-0.5,0.9-0.8
		C85.6,108.4,85.4,107.9,84.9,107.4 M86.9,103.9l0.3-0.8l-3.3-1.2c-0.1,0-0.2-0.1-0.2-0.3c0-0.2,0-0.3,0.1-0.5l0.3-0.3l0.4-0.1
		L88,102l0.6-0.6l-5-1.8l-0.6,0.5c-0.4,0.5-0.8,1.1-1,1.7s-0.4,1.2-0.4,1.9c0,0.3,0,0.6,0.1,0.8l5.1,1.8l-0.1-0.9l-3.5-1.2l-0.2-0.3
		c-0.1-0.1-0.1-0.3,0-0.5l0.3-0.4l0.4-0.1L86.9,103.9 M103.6,106.9c0-0.3,0-0.5-0.2-0.6c-0.1-0.1-0.3,0-0.6,0.3
		c-0.2,0.3-0.4,0.6-0.6,1.1c-0.2,0.4-0.3,0.8-0.3,1.2c0,0.3,0,0.5,0.2,0.6c0.1,0.1,0.3,0,0.6-0.3l0.7-1.1L103.6,106.9 M101.7,107.3
		c0.2-0.4,0.4-0.8,0.7-1.2l-13.1-4.6c-0.1,0-0.2,0.1-0.4,0.2c-0.3,0.2-0.6,0.6-0.8,1l-0.1,0.2l-0.4,0.8c-0.3,0.6-0.4,1.1-0.5,1.6
		c-0.1,0.5-0.1,0.7,0.1,0.8c0.3,0.1,0.7-0.4,1.2-1.4l12.8,4.7C101.2,108.7,101.4,108,101.7,107.3 M114,110.9L114,110.9L114,110.9
		L114,110.9 M111.4,110.2L111.4,110.2L111.4,110.2L111.4,110.2 M112.1,110.6l0-0.1h-0.1v-0.1l0,0.1v-0.1l-0.1,0l0,0h-0.1v0h-0.1v0
		l0,0.1v-0.1l-0.1,0.1l0-0.1l0.1-0.1v-0.1l-0.1,0.1h0l-0.1,0.1h-0.1l0.1,0h-0.1v-0.1h0l-0.1,0.1v-0.1l0,0.1v-0.1l-0.1-0.1v0.1
		l-0.1-0.1v-0.1H111l0.1-0.1l-0.1,0.1l0-0.1v0.1h-0.1l0.1,0.1l0-0.1v0.1l0.1-0.1l-0.1,0.1l0.1,0v0h0v0.1h0.1v0.1l0.1-0.1v0.1l0-0.1
		v0.1l0.1,0v0h0l0.1,0.1v-0.1l0.1,0.1h0v0.1l0.1-0.1v0.1h0.2l0.1,0.1l0.1,0v0l0.1,0h0.1l-0.1,0.1h0.2l0.1,0.1h0v0.1h0.1l0,0.1v0h0.1
		l0.1,0v0.1l0-0.1v0.1l0.1-0.1v0.1h0.2l0,0.1h0.2v0.1l0-0.1v0.1h0.1l0,0.1v-0.1l0.1,0.1l0.1-0.1v0.1l0,0l0.1,0.1v0.1l0-0.1v0.1h0.1
		l0,0.1h0.1v0.1l0-0.1l0.1,0.1h0.1v0l0.1,0v0h0.2v0.1l0-0.1l0.2,0.1l0.2,0.1h0.1l0.2,0l0.1,0.1v-0.1h0.1v0.1l0-0.1v0.1l0.1,0.1v-0.1
		h0h0.1v0.1h0.1l0,0.1h0.1v0l0.1,0l0.2,0.2h0.2l0,0.1v-0.1h0.1l0.2,0.1l0,0.1l0.2-0.1v0.1l0.2,0.2l0.2,0h0.1v0.1h0.1l0.1,0.1
		c0,0,0.2,0.1,0.6,0.3l0.8,0l0.1,0h0.1V113l-0.1-0.1l-0.1,0.1v-0.2l0,0l-0.1,0l0.1-0.1h-0.1l0-0.1h0v0l-0.1,0l0.1,0h-0.1l0.1-0.1
		l-0.2-0.2l0-0.1h-0.1l-0.1,0l-0.2-0.2l-0.1,0l-0.3-0.2l-0.5-0.2v0.1l-0.1-0.1c-0.1-0.1-0.2-0.1-0.2-0.1l-0.1-0.1h-0.2l0-0.1
		l-0.4-0.2l-0.1,0.1l0-0.1v0.1h-0.1l0.1-0.1h-0.2l0-0.1v0.1h-0.1v-0.1l-0.2,0h0v-0.1H115l-0.1-0.1v0.1l-0.1-0.1l-0.3-0.1l-0.1,0.1
		v-0.1h-0.1v0l-0.1-0.1h-0.1l-0.1,0.1l-0.1,0h-0.1l0,0l-0.1,0v0h0v-0.1h-0.1v-0.1l-0.1,0.1v0.1h0l0-0.1h-0.1v0.1h-0.1l0.1-0.1h-0.1
		v0.1l-0.1,0.1l0-0.1v-0.1h-0.1v0.1l0-0.1v0.1l-0.1-0.1h-0.1l-0.1,0.1l0-0.1h0v0H113l-0.1,0l-0.1,0.1v-0.1h0.1l-0.1,0h0v0h-0.1
		l0.1,0h-0.1l-0.1,0v0l0,0v0l-0.1-0.1v0.1h0l0-0.1l0,0.1v-0.1l-0.1-0.1v0.1l-0.2,0.1l0,0.1v-0.1v0.1h-0.1H112.1L112.1,110.6
		L112.1,110.6 M111.1,114.7L111.1,114.7L111.1,114.7L111.1,114.7L111.1,114.7L111.1,114.7 M110.2,113.2L110.2,113.2L110.2,113.2
		L110.2,113.2 M114,107.5v-0.1V107.5L114,107.5 M114.4,107.1L114.4,107.1L114.4,107.1L114.4,107.1l-0.1,0.1v-0.1l-0.1,0.1v-0.1h-0.2
		l0,0.1l-0.1-0.1v0.1l-0.1-0.1v0.1h-0.1v0.1l-0.1,0v0l-0.1,0l0,0v0h-0.1v0.1h-0.1v-0.1h-0.1v0.1h0l-0.1,0.1l0-0.1l-0.1,0.1h-0.2
		l-0.1-0.1v0.1l-0.2,0.1v-0.1l0,0.1h-0.1v0.1h0v-0.1h-0.1v0.1h-0.1l-0.1,0h0v0.1l-0.1-0.1l-0.1,0v0l-0.1,0h-0.1l-0.1,0v0.1l-0.1-0.1
		h0l-0.1,0.1l0-0.1l-0.1,0.1l-0.1-0.1h-0.2l0,0.1l-0.1,0.1l0-0.1v0.1h-0.1v-0.1l0,0.1H111l-0.1,0.1v-0.1h0v0.1l-0.1-0.1h-0.1v0.1
		l-0.1-0.1v0.1l-0.2-0.1l-0.2,0.1v0.1l-0.2-0.1l0-0.2l0.1-0.3l0.1-0.2v-0.3l0.1-0.4v-0.1l0,0.1v-0.9h0.1l-0.1-0.2v-0.1l0-0.2l0,0.1
		l0-0.4v0.1l-0.1-0.2h0.1l-0.1-0.1v-0.1l-0.1-0.3v0.1c-0.3-0.3-0.6-0.5-0.7-0.6v-0.1l-0.2,0.1v-0.1h-0.1l-0.5,0.1l-0.3,0.1h0
		l-0.2,0.1l0,0.1l-0.1,0.1l-0.2,0.1h0l0,0.1v-0.1l-0.3,0.3l-0.1,0.1l0,0.1v0.1l-0.2,0.1l-0.3,0.2l-0.1,0.1l0,0.1h-0.1l-0.4,0.5v0
		l0,0.1l-0.1,0.1l0,0.1l-0.1,0.1l-0.1,0.2l-0.1-0.1l0,0.2l-0.1,0.2l-0.1,0.1l-0.1,0.3l-0.1,0.1h0.1l-0.4,0.6v0l-0.4,0.9v-0.1
		l-0.1,0.6l-0.1-0.1v0.1l-0.1,0.1v0.1h-0.1v0.2h0l-0.1,0.2l0.1-0.1v0.1h-0.1l0,0.2l-0.1,0.1l0,0.1l0,0.1v0.1l-0.1,0.1v0.3l0,0.1
		l0,0.1l-0.1,0.1l0.1,0l-0.2,1.1v0.5l-0.1,0.2l0.1-0.1l0,1.2h0l0.2,0.4l-0.1,0.1l0.1,0.1h0v0.1l0.1,0.1l-0.1,0.1l0.3,0.4
		c0.1,0.1,0.3,0.2,0.6,0.2c0.3,0.1,0.5,0.1,0.7,0l0.2-0.1l0.1,0l0.4-0.3l0.1-0.1l0.2-0.1c0.1,0,0.3-0.2,0.7-0.5l1.1-1.5h0v0.1
		l0.1,0.1v0l0.1-0.1v0.1l0.1,0.1v-0.1l0.1,0.1v0.1l0-0.1l0.1,0.1l-0.1,0.1l0.1,0l0.2,0.1h0.1l-0.1,0.1l0.1,0l0,0v0h0.2v0h0.1v0h0.1
		v0.1l0,0v0l0.1,0h0.1l0.1,0v0.2h0v0.1l0.1,0l0.1,0v0h0l0,0h0l0,0.1h0.1v0.1l0.1-0.1h0.1l-0.1,0.1h0.1l0-0.1v0.1h0.1l-0.1,0.1h0.1
		l-0.1,0v0.1l0.1-0.1h0.1l0.1,0v0.2l0-0.1v0.1h0.1v0.1h0.1l-0.1,0h0.1l-0.1,0.1h0.1v0.1l0-0.1v0.1l0.1-0.1v0.1l0,0.1h0l0.1-0.1v0.2
		l0.1-0.1h0v0.1l0.1-0.1l0,0.1h0.1l-0.1,0.1h0.1v0l0.1,0v-0.1l0,0v-0.1H111l0.1-0.1v-0.1H111l0.1,0h-0.1l0.1-0.1h-0.1l0.1-0.1h-0.1
		v-0.1h0l-0.1,0h0.1l-0.1-0.1l0-0.1h0v0h-0.1l-0.1-0.1v-0.1h-0.1l0.1-0.1h-0.1v0l0-0.1v0h-0.1v-0.1h-0.1l-0.1-0.1l0.1,0l-0.1,0l0,0
		l0-0.1l-0.1,0.1l-0.1-0.1h0.1l-0.1-0.1l0,0v-0.1h-0.1v0H110v-0.2h-0.1v-0.1l0,0h-0.1v-0.1l-0.1,0.1l0.1-0.1h-0.1v0h-0.1v-0.1h-0.1
		v0h0l-0.1-0.1v0l-0.1,0l-0.1-0.1h0l-0.1,0l0.1-0.1h-0.1v-0.1l-0.1,0.1v-0.1l0,0H109v-0.1h-0.1v0h-0.1V112l0,0.1V112
		c0.4-0.7,0.6-1.2,0.5-1.6l0-0.1l0-0.1l-0.2,0.2v0.1l-0.1,0.1h0l-0.1,0.1v0l-0.1,0.1l0,0.1l-0.1,0.1v-0.1l0,0.1l-0.1,0.1v-0.1
		l-0.1,0.1l-0.1,0.1l0,0.2v-0.1l-0.1,0.1v-0.1l-0.3,0.3h0l-0.1-0.1l-0.2-0.1h-0.1v-0.1l0,0.1h-0.1v-0.1h-0.1
		c0.1-0.1-0.1-0.1-0.5-0.2c-0.4-0.1-0.6,0-0.7,0.2v0.1l-0.1,0l0.1,0.1h0.1v0.1l0-0.1v0.1h0.1l0,0.1h0.1v0.1l0.2,0.1v0.1l0,0.1
		l0.2,0.1l0.1-0.1l0.2,0.2l0.2,0.2l-0.5,0.6l0,0.2l-0.9,0.8l-0.6,0.4l-0.5,0.1l-0.1,0l-0.1-0.2l-0.1-0.1l-0.2-0.7h0l0-0.1v-0.3h-0.1
		v-0.1h0.1l-0.1,0v-0.6l0.1-0.2l0.1-0.7l0-0.1l0-0.1v-0.1c-0.1,0.2-0.1,0.2,0-0.1V111h0.1l0.1-0.6l0-0.1v-0.1h0l0-0.1v0.1l0.1-0.1v0
		l0.1-0.5v0.1l0.1-0.2v0.1l0.1-0.1v-0.1l0.1-0.2l0,0.1l0.1-0.3v0l0.6-1.2l0.1-0.2h0l0.1-0.2l0.1,0.1l0.2-0.3l0-0.1v0l0.2-0.4v-0.1
		l-0.1,0.1v-0.1l0.1-0.2l0.2-0.1l0.1-0.2l0.1-0.1l0.1-0.1v0.1l0.1-0.1v-0.1h0l0.1-0.1v0.1l0.1-0.1h0l0.2-0.2v0l-0.1-0.1l0.1-0.1
		l0.1-0.1l0,0.1v0.2l0-0.1V105l0.1-0.1h-0.1v-0.1l0.2-0.1v0.1c0.1-0.1,0.2-0.1,0.2-0.1l0,0.1l0.1-0.1v-0.1h0.1v-0.1l0.2-0.1h0.1
		l0.2-0.1l-0.2,0.1v0l0.2-0.1l0.1-0.1l0.1,0l0,0v0h0.2l0.2-0.2l0.1,0.1h-0.1l0.1,0.1h0.1V104l0.1,0.1v0.1h0.2l0.1,0h-0.1l0.1,0.1
		l0,0.2h0.1l0.1,0.1l-0.1,0.1l0.1,0.1l-0.1,0.1l0.1,0.2l0-0.1l0.1,0.1l0.1,0.2V105l0.1,0.1c0,0-0.1,0.1-0.1,0.2l0.1-0.1v0.2
		l-0.1,0.1l0.1,0.1v0.2h0l-0.1,0.2h-0.1l0.1,0.2l-0.1,0l-0.1,0.1l0.1,0.2l-0.1,0.1h0l-0.1,0.2l0.1,0.1l-0.1,0.1l0.1,0h-0.1l0.1,0.2
		h-0.1l0,0.1l0.1,0l0,0.1h-0.4l-0.1-0.1h-0.1l-0.4-0.1c-0.3-0.1-0.5-0.1-0.7,0l0,0.1l-0.1,0.1h0.1v0.1h0v0.1h0l0.1,0.1l-0.1,0.1h0.1
		v0h0.1v0.1l0.1,0.2l0.1,0l-0.1,0.1l0.1,0.1l0.6,0.2l0.3,0.1h0v0.1h0v0.1l-0.1,0l-0.1,0.2l0,0c-0.1,0-0.1,0.2-0.1,0.4v0.1h-0.1
		l0,0.2l-0.1,0v0c-0.1,0.1-0.1,0.1,0,0.1l0,0.1l-0.1,0l0.1,0c0,0,0,0.1,0,0.2l0.1-0.2v-0.2h0.1v-0.1l0.1,0v-0.1l0,0.1l0.1-0.2v-0.1
		l0,0.1l0.1-0.1v-0.1l0.1,0.1v-0.1l0,0v0l0.1-0.3l0.1-0.1l0.1-0.4c0,0.1,0,0.1,0.1,0h0.2v0.1h0.1v-0.1h0.1l0.1,0.1l0.1-0.1l0.1,0.1
		h0.2v-0.1l0.1,0v0.1l0.2-0.1l0,0.1v-0.1h0.2v0.1l0.1-0.1h0.1l0.1,0.1l0.3-0.1l0.1-0.1v0.1l0.1-0.1l0,0.1h0.1l0-0.1v0.1l0.1-0.2
		v-0.1h0.1v0l0,0v0l0.1,0h0.1v0l0-0.1h0.2l-0.1-0.1l0.1,0.1v-0.1l0.1,0.1V108h0.1l0.1,0.1V108l0.1-0.1v0.1l0.1-0.1h0.1v-0.1h0
		l0.1-0.1h0v-0.1l0.1,0.1v-0.1l0.1,0.1l0-0.2v0l0.1,0.1v-0.1l0.1,0h0.1v-0.1h0l0.1,0.1v-0.1l0,0.1l0.1-0.1l0.1,0.1v-0.1l0.1-0.1
		v-0.1l0.1,0.1v-0.1h0.1v0.1h0l0.1,0v-0.1l0,0.1h0.1v-0.1l0.1-0.1L114.4,107.1v0.2v-0.1h0.1L114.4,107.1l0.1,0.1L114.4,107.1
		 M61.9,165.4c0.8-0.3,1.5-0.6,1.9-0.9l0.3-0.2l-0.3-0.2c-1.7-1-3.7-1.8-6-2.2l0-0.1c-0.2,0.4-0.8,0.8-1.7,1.1l-1.7,0.5l-7.2,0.2
		c0.1,0.8,0.2,1.3,0.3,1.4l1,0.4l1.1,0.2c0.5,0,0.8-0.1,0.9-0.2l0.5-0.7l0.1,0c1.6,0.7,3.4,1.2,5.3,1.3
		C58.5,166.1,60.3,165.9,61.9,165.4 M28.6,166.1L28.6,166.1c-1.9,0.5-3.5,0.6-4.9,0.3l-2.9-0.6c-0.8,0.7-1.1,1.6-1,2.8
		c0.1,1.2,0.5,2.1,1.4,2.6c0.4,0.2,0.9,0.3,1.4,0.3l1.4-0.4C27.1,170,28.5,168.3,28.6,166.1 M21.9,122.3L21.9,122.3
		c-1.4,0.2-2.5,1-3.2,2.3c-0.6,0.9-1,2.2-1.4,3.9c0.4,0.9,0.7,1.6,1,2.2c1.2,1.9,2.7,3.2,4.6,4.1c0.7,0.4,1.4,0.6,1.9,0.7
		c0.8,0.1,1.3-0.1,1.4-0.8c-1.4-0.4-2.8-1.4-4.1-2.9c-0.1-0.1-0.2-0.3-0.2-0.7c0-0.3,0-0.4,0.1-0.3c1.4,1.5,2.8,2.5,4.1,2.8l1.5,0.1
		l0-0.1h0.1c0.6-0.2,0.9-0.6,0.9-1.2c-0.8-0.2-1.6-0.6-2.5-1.2l-2-1.9c-0.1-0.1-0.2-0.3-0.2-0.7c0-0.4,0-0.5,0.1-0.3
		c2.6,2.6,4.5,3.7,5.7,3.1c0.4-0.2,0.7-0.6,0.7-0.9l-0.2-0.3l-2.9-2c-0.5-0.3-0.9-0.7-1.2-1.3c-0.1,0-0.3-0.2-0.4-0.7
		c-0.3-0.7-0.4-1.5-0.4-2.3s0.2-1.6,0.5-2.3v-0.1C24.7,121,23.4,121.3,21.9,122.3 M37.8,104.3l-3.8-0.8c-1.8-0.5-3.2-1.1-4.1-1.8
		c-2-1.5-3-3.6-2.9-6.4c-4.1,1.3-7.8,3-11.1,5.1c-3.7,2.5-6.5,5.3-8.3,8.4c-0.8,1.4-1.1,2.9-1,4.5c0.1,1.3,0.5,2.8,1.2,4.5
		c1.6,3.4,3.7,6.2,6.1,8.2c0.8,0.6,1.6,1.1,2.3,1.5l0.5,0.2c0.4-1.7,0.8-3.1,1.4-4.1c0.8-1.4,1.9-2.2,3.2-2.5
		c-1.1-4.3-2.9-7.4-5.2-9.2c-0.1-0.1-0.2-0.3-0.2-0.7c0-0.3,0-0.5,0-0.4c0.7,0.5,1.4,1.1,2,1.9c2.6-0.9,4.9-1.6,6.9-2.1
		c0-0.1,0.1-0.1,0.2-0.1l3-0.7c0.2,0,0.3,0.1,0.3,0.6c0.1,0.4,0.1,0.6,0,0.6l-3,0.6c0.4,3.2,0.7,6.3,0.8,9.2
		c0.1,0.1,0.2,0.3,0.2,0.6c0.1,0.2,0.1,0.4,0,0.5l-0.2,0.4v1.8c1.5,1.1,3.1,1.8,5,2.3c1.8,0.5,3.6,0.7,5.3,0.7l1.6,0.1
		c0.7,0,1.2-0.1,1.5-0.3c0.3-0.2,0.4-0.7,0.4-1.7C39.6,117.6,39,110.6,37.8,104.3 M41.7,138.1c0.1-0.1,0.2,0,0.3,0.3
		c0.1,0.3,0.2,0.6,0,0.7l-1.8,3c3.6,7.2,5.5,14,5.8,20.3l4.1,0.2c1.6,0,2.9-0.1,4.1-0.4c1.4-0.3,2.4-0.7,3.1-1.3
		c0.1-0.1,0.2-0.2,0.2-0.1v-0.3c-0.2-7-0.6-12.8-1.1-17.2c-0.4-4-1-8.9-1.8-14.7c-1.6,2.3-4.2,4.2-7.8,5.8c-3.1,1.3-6.2,2-9.3,2.2
		c-3.4,0.2-6.5-0.4-9.3-1.7l-0.8,0.1l-0.6-0.1c0.1,1.5-0.6,2.1-2.1,1.7l-1.6,5.4c-0.7,2.3-1.2,4.1-1.6,5.5c-0.8,3.5-1.4,7-1.6,10.4
		c-0.1,1.8-0.2,3.2-0.2,4.4c0,0.8,0,1.3,0.1,1.7l0.3,0.2l0.9,0.5c1.1,0.5,2.2,0.7,3.5,0.8l3.5-0.3l1.4-0.3c0.7-0.2,1.1-0.4,1.1-0.5
		l1.1-4.6c0.8-3,2-6,3.4-9.1C37.1,145.6,39.4,141.4,41.7,138.1 M76.3,112.9l-0.4-0.1c-0.9-0.3-1.7-0.4-2.4-0.2
		c-0.7,0.1-1.1,0.4-1.2,0.8c0,0.2,0,0.5,0.2,0.8c0.3,0.6,1.2,1.2,2.7,1.6l2.5,0.3c0.7-0.1,1-0.3,1.1-0.8c0.1-0.3,0-0.6-0.2-1
		c-0.2-0.4-0.6-0.7-1.1-1L76.3,112.9 M65.6,106.4L65.6,106.4c-0.2-1.4,0-2.7,0.5-4c-0.9,1.1-1.6,2.5-2.2,4.2c-0.6,1.9-1,3.6-1.1,5
		c-0.1,2.3,0.4,3.7,1.6,4.4h3c-1.3-1.2-2.1-2.7-2.4-4.4S64.8,108.1,65.6,106.4 M78.3,108.2c0.7,0.6,1.5,1.1,2.6,1.4
		c0.1,0,0.3-0.1,0.8-0.4l1.3-1.1c0.3-0.3,0.5-0.7,0.5-1.1c0.1-0.4,0-0.6-0.1-0.7c-1.7-0.7-3.1-1.1-4.2-0.9c-1,0.1-1.6,0.4-1.8,1.1
		C77.4,107.1,77.7,107.6,78.3,108.2 M74.1,108.8l-1.1,0.1c-0.7-0.1-1.3-0.3-1.8-0.7l-0.4-0.4l-0.4,0.4l-0.5,0.9
		c-0.4,0.6-0.7,1.4-1,2.2c-0.3,0.8-0.3,1.3-0.2,1.6l0.4,0.3l1.7,0.5l0.6,0.1c0-0.2,0-0.4,0.1-0.5c0.2-0.5,0.6-0.9,1.2-1.1
		C73.2,110.5,73.7,109.4,74.1,108.8 M71.2,110.6c0-0.1,0.1-0.3,0.2-0.4l0.4-0.1c0.2,0,0.3,0.1,0.3,0.2c0.1,0.1,0.1,0.3,0.1,0.4
		c0,0.1-0.1,0.2-0.2,0.3l-0.4,0.1c-0.2,0-0.3-0.1-0.3-0.2C71.2,110.9,71.1,110.7,71.2,110.6 M75.2,110.3c-0.1,0.3,0,0.6,0.2,0.9
		c0.2,0.4,0.6,0.7,1.2,1l1.3,0.6l2.4,0.2c0.7-0.2,1.1-0.4,1.2-0.8c0.1-0.4-0.1-0.9-0.6-1.3c-0.6-0.5-1.3-0.9-2.2-1.2l-2.5-0.1
		C75.7,109.6,75.2,109.9,75.2,110.3 M74.5,111.4c-0.3-0.4-0.3-0.8-0.2-1.2c0.2-0.6,0.8-1.1,1.6-1.2l1.9-0.1
		c-0.9-0.6-1.4-1.3-1.3-2.1l-0.2,0.1c-0.3,0.1-0.6,0.5-1,1.1c-0.3,0.5-0.6,1-0.9,1.5l-1.1,2.4l1.6-0.1L74.5,111.4 M75.8,101.5
		c-0.9-0.8-2.2-1.2-3.9-1.4c-1.7-0.2-3,0-3.9,0.6l-0.1,0.5l0,0.1c-0.9,0.9-1.5,1.9-1.8,3.2c-0.3,1.3-0.1,2.5,0.5,3.6l0,0.1
		c0.1,0.8,0.1,1.1-0.1,0.8l-0.1-0.2l-0.6-1.1c-0.7,1.8-0.7,3.5,0,5.1c0.6,1.6,1.8,2.8,3.6,3.7l0,0v0c1,0.4,2,0.7,3,0.7
		c1,0,1.7-0.1,2.2-0.5l-0.4-0.2c-0.5-0.2-0.9-0.5-1.4-0.8c-0.5-0.4-0.8-0.8-0.9-1l-3.6-1.1c-0.2-0.1-0.3-0.2-0.3-0.3l-0.2-0.7
		l0.1-0.6c0.3-1.1,0.8-2.2,1.4-3.4c0.5-0.8,0.8-1.4,1.2-1.8v0c0-0.3-0.1-0.6-0.1-1l0.1-1.8l0.8-0.2c-0.1,0.7-0.2,1.4-0.1,2.1
		c0.1,1,0.4,1.6,0.8,1.9c0.5,0.3,0.9,0.5,1.3,0.6c0.4,0,0.7-0.1,0.9-0.2c0.8-1.5,1.3-2.7,1.7-3.8C76.2,102.7,76.2,101.8,75.8,101.5
		 M76.4,100.8l-0.1,0.1c0.3,0.4,0.4,0.8,0.5,1.4c0,0.7-0.2,1.5-0.5,2.3c-0.2,0.6-0.4,1.4-0.8,2.2l0.5-0.5c0.4-0.3,0.7-0.8,1-1.5
		C77.7,103.3,77.5,101.9,76.4,100.8 M49,96.6c0.2,0.9,0.2,1.7,0,2.4c-0.2,1.2-0.8,2.2-1.6,3c-0.6,0.6-1.6,1.2-2.9,1.9
		c1.4,5.7,2.5,12.6,3.2,20.8c0.4,0,1.1-0.3,1.9-0.9l3.7-3.4l-2-12.6c-0.1-0.4,0-0.5,0.2-0.4c0.1,0.1,0.2,0.3,0.3,0.6
		c0.1,0.7,0.4,1.5,1,2.4c0.5,0.8,1,1.4,1.7,2c2.2,2,5.1,3.2,8.9,3.6c-0.5-0.8-0.8-2-0.9-3.4c-0.1-1.1,0-2.2,0.1-3.4
		c0.6-3.6,1.7-6.2,3.2-8c-2.4-0.1-4.6-0.6-6.7-1.4c-1.1-0.5-3.1-1.5-6.1-3c-1.9-1-3.4-2-4.3-2.9l-0.4,0.4L49,96.6 M49.5,72.4l-1.5,1
		c0.5,0.7,1.1,1.6,1.6,2.6c0.4-0.7,0.6-1.3,0.6-1.7c0-0.5,0-1-0.2-1.4C49.9,72.6,49.7,72.4,49.5,72.4 M30.3,94.4l-3,0.9l0.2,0.5
		c-0.1,2.4,0.9,4.1,3,5.4c1.3,0.8,3.4,1.4,6.3,1.9l0.9,0.1c0.2,0.1,0.4,0.4,0.5,0.7l0.4,2.6c0.4,2.6,0.7,5.2,1,8
		c0.4,3.9,0.6,7.2,0.7,9.9l0.2,1.8c0,0.8-0.1,1.4-0.3,1.7c-0.2,0.3-0.6,0.5-1.3,0.5h-1.7c-4.4,0.1-8.1-0.9-11-3l-0.1-0.1v0.9
		c0.3,0.4,0.7,0.8,1.3,1.2l1.5,1l1.1,0.9c0.4,0.4,0.6,0.8,0.7,1.2c0.1,0.6,0,1.1-0.1,1.6c-0.2,0.5-0.7,0.8-1.3,0.7l-0.3-0.1
		c0.1,0.6,0,1.2-0.1,1.6c2.8,1,5.8,1.4,9,1.2c3.1-0.2,6-1,8.9-2.3c3.6-1.7,6.1-3.6,7.5-5.7l0.1,0l-0.8-5.7l-4,3.4
		c-0.8,0.6-1.5,0.8-1.9,0.7c-0.2-0.1-0.3-0.3-0.3-0.8c-0.8-8.8-1.9-16-3.3-21.6c-0.1-0.3-0.1-0.5,0-0.6l2.4-1.4
		c0.8-0.6,1.4-1.3,1.8-2.1c0.3-0.7,0.5-1.6,0.4-2.5c0-0.7-0.2-1.5-0.5-2.4c-1.2,1.4-2.7,2.4-4.4,3.2c-0.4,0.9-1,1.6-1.8,2.1
		c-0.8,0.5-1.7,0.8-2.8,0.9c-2,0.2-3.9-0.3-5.7-1.5C31.5,97.9,30.5,96.3,30.3,94.4 M28.2,71.8H28c-0.9,0.1-1.5,0.6-1.7,1.6
		c-0.2,1,0.3,1.9,1.6,2.5c0.4,0.2,0.4,0.4,0.1,0.6c-1,0.7-1.8,1.4-2.2,1.9c-1.2,1.3-1.7,2.7-1.6,4.3c0.4-1.2,1-2.3,1.8-3.3
		c0.9-1.1,1.5-1.7,1.9-1.9l0.1,0c0.2,0,0.3,0,0.3,0.1c0.1,0.1,0,0.2-0.1,0.4c-0.7,0.6-1.2,1.2-1.8,1.8c-0.5,0.5-0.9,1.2-1.4,2.1
		l-0.8,1.7l0.1,0.5c0.5-1.4,1.2-2.5,1.9-3.3c0.5-0.6,1-1.1,1.5-1.3H28c0.2,0,0.2,0.1,0.2,0.2c0,0.2-0.1,0.4-0.3,0.5
		c-0.4,0.3-0.8,0.6-1.1,1c-0.4,0.5-0.8,1.1-1.4,1.9l-0.8,1.4v0c0.1,0.2,0.1,0.4,0,0.5l0.9-0.3l-0.1,0.3c-1.1,1-1.3,2.1-0.6,3.4
		c0.6,1.2,1.7,1.8,3.1,1.7l0.3-0.1c1.7,2.6,3.6,4.5,5.9,5.6l0.3,0.3c0,0.1-0.1,0.2-0.3,0.2c-0.7,0.1-1.5-0.2-2.5-0.8
		c0.2,1.2,1.2,2.2,2.8,3.1c1.5,0.8,2.9,1.2,4.3,1.1c0.7-0.1,1.1-0.2,1.5-0.5h-0.1l-1.6-0.2c-0.7-0.2-1.1-0.4-1-0.5l0.1-0.1l1.6,0.1
		c1.4-0.1,2.9-0.6,4.5-1.5c2.9-1.5,5-4,6.2-7.4c1.2-3.3,1.3-6.6,0.3-9.9c-0.6-2-1.6-4.1-3-6.1c-0.7-0.1-1.3-0.4-2-0.9l-1.3-1.4
		c-0.8-0.9-1.4-1.4-1.7-1.5l-0.4-0.1c-0.5,0-1,0.3-1.7,0.8c-0.4,0.2-0.7,0.2-0.9,0.2c-0.5,0.1-1.2-0.1-2.1-0.6
		c-0.4-0.2-0.8-0.2-1.2-0.2c-1.1,0.1-2.1,0.7-3,1.8c-0.3,0.3-0.7,0.5-1.1,0.6L28.2,71.8 M39,72.9c0.4,0.2,0.9,0.6,1.2,1.2
		c0.4,0.7,0.5,1.4,0.5,2.1l-0.3,0.9C40.3,76,40,75,39.7,74.2c-0.3-0.7-0.9-1.3-1.7-1.7L39,72.9 M37.8,79.1l-1.2,0.3l0.3,0.9
		c0.1,0.4,0.1,0.8,0,1.2c-0.1,0.3-0.3,0.5-0.5,0.6c-0.2,0.1-0.5-0.1-0.7-0.4c-0.2-0.3-0.4-0.6-0.5-1.1c-0.1-0.4,0-0.8,0.1-1.2
		c0.1-0.4,0.3-0.6,0.5-0.6h0.1l-0.6-1c-0.2-0.2-0.5-0.3-1-0.2l-0.9,0.2l0.7-0.5c0.4-0.3,0.8-0.5,1-0.6c0.3,0,0.7,0.2,1.2,0.6l1,1
		c0.3,0.2,0.6,0.1,1-0.1C38.5,78.5,38.3,78.8,37.8,79.1 M28.5,81.4c0.1,0.1,0,0.3-0.2,0.5l-0.9,0.7l-1.1,1.3l-0.1-0.1
		c0-0.1,0-0.4,0.2-0.7c0.2-0.3,0.3-0.6,0.5-0.9c0.3-0.4,0.7-0.7,1.1-0.9h0.1C28.3,81.2,28.4,81.3,28.5,81.4 M28.1,83.1l0.1,0
		c0.2,0,0.3,0.1,0.3,0.2c0.1,0.1,0,0.2-0.1,0.3l-0.3,0.3c-0.2,0.2-0.3,0.4-0.3,0.6c0,0.2-0.1,0.3-0.2,0.3c-0.2,0-0.3-0.1-0.3-0.4
		c0-0.2,0.1-0.4,0.3-0.8L28.1,83.1 M46,77.4c0.4,0.2,0.7,0.6,0.9,1.4c0.1,0.4,0,0.8,0,1.2c-0.1,0.3-0.3,0.5-0.6,0.6
		c-0.2,0.1-0.5-0.1-0.7-0.4c-0.2-0.3-0.4-0.6-0.5-1.1c-0.1-0.3-0.1-0.6,0-1c-0.9,0.1-1.4-0.1-1.3-0.6c0.4,0.2,0.7,0.1,0.8-0.1l0.5-1
		c0.3-0.5,0.5-0.7,0.8-0.8c0.3-0.1,0.7,0,1.3,0.2l0.1,0.1c-0.7,0.1-1.1,0.2-1.2,0.5L46,77.4 M40.6,77.9l0.1-0.2
		c0.2,0,0.4,0.1,0.5,0.4l1,1.8c0.4,0.5,1,1.3,2,2.4l0.2,0.3c0.1,0.2,0.1,0.4,0,0.7l-1,1.7c-0.1,0.2-0.4,0.3-0.7,0.3l-0.3,0l-0.2-0.1
		c-0.2-0.1-0.3-0.2-0.2-0.4c-0.1-0.1-0.1-0.2,0-0.4l0.9-1.2l0.1-0.4l-0.1-0.2l-2-3.6l-0.3-0.8C40.5,78.2,40.5,78,40.6,77.9
		 M43.7,86.2c0.3,0,0.4,0.1,0.3,0.3l-0.5,0.6c-0.1,0.1-0.1,0.4,0,0.9l0.2,0.6l0.5,0.2c0.3,0.2,0.5,0.3,0.6,0.5
		c0.2,0.3,0.3,0.8,0.2,1.4c-0.1,0.8-0.5,1.3-1.2,1.5c-0.8,0.3-1.5,0.1-2.1-0.4c-0.6-0.5-1-1.3-1-2.4c0-1,0.5-1.8,1.5-2.5
		C42.7,86.6,43.2,86.4,43.7,86.2 M41.8,93.6l-0.3-0.3l2.4-0.3l-0.2,0.4c-0.2,0.2-0.5,0.4-0.8,0.4C42.5,93.9,42.1,93.9,41.8,93.6
		 M41.8,88.4c-0.2,0.3-0.3,0.8-0.2,1.3l0.2,0.7l0.4-1c0.1-0.2,0.3-0.4,0.6-0.5c0.1-0.1,0.3-0.1,0.4-0.1c-0.2-0.3-0.3-0.7-0.2-1.1
		l0.1-0.5C42.6,87.4,42.2,87.8,41.8,88.4 M29.5,64.8c-1,0.2-1.8,0.8-2.5,1.9l-1.4,1.9c-0.6,0.3-1.2,1-1.9,2
		c-0.4,0.7-0.8,1.5-1.1,2.4c-0.5,1.5-0.5,3.3,0,5.6c0.3,1.2,0.6,2.2,1,3c0.2-1.4,0.8-2.6,1.6-3.6l1.8-1.7l-1.4-1.2
		c-0.5-0.6-0.8-1.1-0.8-1.6c0-0.6,0.2-1.2,0.6-1.7c0.4-0.6,1.1-1,1.9-1h0.6l3.2,0.8h0.1l1.5-1.8c0.9-1.1,1.6-1.7,2.2-1.7l0.4,0.1
		c0.3,0.1,0.9,0.4,1.8,0.9l1.1,0.6l0.8,0.2l0.3-0.1l0.6-0.4c0.6-0.4,1.1-0.6,1.3-0.6l1.1,0.3c0.3,0.2,0.9,0.7,1.8,1.6l1.2,1.4
		c0.8,0.5,1.5,0.8,2,0.7c0.5,0,0.8-0.2,1.1-0.6c0.6-0.6,0.9-1.4,1.1-2.4c0.1-0.9,0.1-1.7-0.2-2.4c-0.3-0.6-0.7-1.1-1-1.4
		c0.1,0.6-0.1,1.1-0.4,1.5c-0.4,0.4-1,0.6-1.5,0.6c-0.8,0.1-1.5-0.2-2.1-0.9l-1.6-1.4c-0.7-0.6-1.3-1-1.7-1.1l-0.6,0
		c-0.3,0-0.7,0.1-1.1,0.3l-1,0.3c-0.2,0-0.5,0-0.7-0.2l-0.9-1.1c-0.9-1.3-1.6-1.9-2-1.9h-0.1c-0.5,0-1.1,0.3-1.8,0.9l-0.6,0.6
		l-0.7,0.5C30.7,64.5,30,64.7,29.5,64.8 M83.7,98.6l0.2,0.2l18.9,6.8l0.3-0.2l0.3-0.6c-0.2-0.2-0.7-0.3-1.3-0.4l-1-0.2l-17.2-6.1
		c-0.2,0-0.3,0.1-0.3,0.2C83.5,98.4,83.5,98.5,83.7,98.6 M82.2,98.9l-0.3-0.4c-0.8,0.7-1.2,0.9-1.3,0.6l-0.3-0.8
		c-0.1-0.1-0.2-0.2-0.3-0.1c-0.1,0-0.1,0.1-0.1,0.3v0.2l0.1,0.8c0,0.3-0.2,0.5-0.3,0.6l-1.5,0.2l-0.9-0.1l-0.2,0.3l0.5,0.6
		c0.4,0.5,0.6,0.9,0.6,1.4c0.1,0.9-0.1,1.8-0.5,2.7l0.6-0.2h3.2c-0.1-0.3-0.2-0.7-0.2-1.2c-0.1-0.9,0.1-1.8,0.4-2.4
		c0.4-0.8,0.9-1.4,1.3-1.9l0.6-0.5l-0.1-0.8C83,98.4,82.6,98.6,82.2,98.9 M79.4,101.9l0.5-0.1c0.1,0,0.2,0.1,0.3,0.2l0.1,0.4
		l-0.2,0.3l-0.4,0.1l-0.3-0.2c-0.1-0.1-0.1-0.3-0.1-0.4L79.4,101.9z"/>
	<path class="st0" d="M145.9,170.4c0.2,0.4,0.2,0.9,0,1.5l9.9,2.3c0.2-0.7,0.2-1.4-0.1-2c-0.3-0.6-0.9-1-1.6-1.2
		c-0.2,0-0.2-0.1-0.2-0.2c0-0.1,0.1-0.1,0.2-0.1h0c0.9,0.2,1.6,0.6,2,1.3c0.5,0.7,0.6,1.5,0.4,2.3l1.2,0.2l2.9,0.1
		c0.6-0.6,0.7-1.2,0.4-2.1s-0.9-1.3-1.7-1.5l-0.7,0.1l-13.5-1.4C145.5,169.8,145.8,170,145.9,170.4 M143.3,171.6
		c0-0.5-0.1-1-0.3-1.4c-0.2-0.4-0.6-0.6-1.1-0.6h-0.2c-4.4,0.1-6.7,1.2-6.8,3.4l3.1-0.6c1.3-0.4,2.3-0.6,3.1-0.7L143.3,171.6
		 M144.4,169.8l0-0.1l-1.5-0.1c0.7,0.4,1,1.1,1,2.1l1.5,0.1c0.1-0.4,0.2-0.8,0.1-1.2c-0.1-0.4-0.3-0.7-0.8-0.7
		C144.6,169.9,144.5,169.8,144.4,169.8 M134.8,131.6c-0.5-0.5-1.2-0.7-2.1-0.7c-0.7,0-1.3,0-1.7,0.1c-0.7,0-1.2,0.2-1.4,0.6
		c-0.4,0.5-0.7,1.3-0.9,2.3c-0.3,1.1-0.3,2,0,2.5c0.6,0.8,1.2,2.1,1.8,3.8c0.7,1.9,1.3,3.2,1.7,3.9c0.1,0.2,0,0.3-0.2,0.3l-0.5-0.2
		c-2.5-1.4-4.2-2.8-5.2-4.1l-2.2-4.2c-0.2-0.4-0.5-0.7-0.7-0.9c-0.3-0.2-0.7-0.2-1-0.1l-1.1,0.2l-2-0.1l-2,0.1
		c-1.1,0.3-1,0.6,0.2,0.9l2.9,0.1c1.1,0.2,1.8,0.6,2.2,1.1c0.2,0.2,0.1,0.3-0.2,0.3c-0.3,0-0.5,0-0.6-0.1c-0.4-0.4-1.1-0.7-1.8-0.8
		h-2.2c-0.5,0.1-0.8,0.3-0.8,0.4c0,0.3,0.3,0.5,1.2,0.8l2.2,0.5c0.9,0.2,1.6,0.4,2.1,0.6c0.9,0.4,1.5,0.9,1.9,1.6
		c0.2,0.2,0.2,0.6,0.1,1.2c-0.2,0.5-0.1,0.9,0.2,1.2c0.6,0.7,1.5,1.5,2.9,2.3c1.6,0.9,2.6,1.6,3.1,2.1c2.7,2.6,4.3,3.5,4.9,2.6
		c0-0.1,0.1-0.1,0.2-0.2c-1.2-2.6-1.8-5.3-1.8-8.1c0-2.9,0.7-5.6,2.1-8.1C135.4,132.6,135.1,132,134.8,131.6 M150.1,119.7l0.6-0.6
		c0.4-0.4,0.6-1,0.7-1.8l-9.9-4.3l-0.3-0.3c0.1-0.3,0-0.9-0.1-1.7c-0.1-0.7-0.1-1.3,0-1.6l0.6-1.9c0.2-0.7,0.3-1.2,0.2-1.8
		c-0.1,0.9-0.4,1.6-0.9,2.2l-0.4,0c-0.2-0.1-0.3-0.1-0.4-0.2c-0.4-0.5-0.6-1.5-0.9-3.1c-0.2-1.5-0.6-2.4-1.1-2.9
		c0,0.8,0.2,1.8,0.5,3l0.7,3c0,0.1-0.1,0.2-0.2,0.2l-0.4-0.1c-0.6-0.3-1.1-0.8-1.6-1.4l-1.5-2.5l-0.9-0.2l1.3,1.8
		c0.9,1.2,1.5,2.2,1.7,3.1c0.1,0.2,0,0.3-0.3,0.2c-0.9,0-1.8-0.4-2.8-1.1c-0.5-0.4-1.1-0.6-1.8-0.6c-0.7,0-0.6,0.3,0.2,0.9
		c1,0.8,2.2,1.5,3.4,2.1l0.3,0.2c0.1,1.1,0.7,2.2,1.8,3.4c1,1.1,2,1.9,3,2.5C144.3,117.7,147.2,118.8,150.1,119.7 M151.1,122.1
		l-0.6-1.6l-6.4,5.3l0.3,0.2c0.3,0.1,0.4,0.2,0.2,0.3c-0.1,0.1-0.2,0.1-0.3,0.1l-1.2-0.4l-0.6-0.1c-0.4,0-0.6,0.1-0.8,0.3
		c-0.2,0.5,0.3,1,1.4,1.5l0.2,0.1c0.1,0.1,0.1,0.2,0,0.2h-0.6c-0.3-0.1-0.7-0.3-1-0.4c-1.1,1-2,1.8-2.8,2.6l0.5,0.5
		c0.2,0.2,0.2,0.3-0.1,0.3c-0.3,0-0.5,0-0.6-0.1l-0.5-0.4l-0.2-0.2c-0.5-0.2-0.8-0.2-1,0.1c-0.3,0.4-0.2,0.8,0.3,1.3l0.2,0.1
		l0.5,0.3c0.2,0.2,0.3,0.3,0.1,0.4l-0.6-0.1l-0.1-0.1l-0.7,1.2l0.1,0.2c0.1,0.1,0,0.2-0.2,0.2c-1.2,2.4-1.9,4.9-1.9,7.6
		c-0.1,2.7,0.4,5.2,1.6,7.7l2.4-6.4c0.7-1.6,1.4-2.8,2.2-3.6c0.5-0.4,1.1-0.6,2-0.4l2.2,0.1c1.2-0.3,2.4,0.3,3.7,1.6l1.4,1.5
		c1.9-0.8,2.9-1.7,3.1-2.8l0.1-2.8c0.1-1.1,0.3-2,0.7-2.7c0.3-0.6,0.8-1.4,1.5-2.5c0.6-0.9,0.9-1.8,0.9-2.7c0.1-0.9,0.2-1.5,0.5-2
		l-4.7-0.2c-0.7-0.3-1-1-1-2C151.3,123.1,151.2,122.3,151.1,122.1 M149.4,129.1c-0.1,0.1-0.3,0.1-0.6,0h-0.9
		c-0.3,0.1-0.4,0.4-0.6,0.7c0.2,0.2,0.4,0.3,0.6,0.3c0.3,0.1,0.5,0.2,0.5,0.4l-0.1,0.1H148c-0.5-0.1-1-0.3-1.6-0.8l-0.1-0.2
		c0.1-0.6,0.5-1,1.1-1.1c0.5-0.1,1.1,0,1.7,0.2C149.4,128.9,149.5,129,149.4,129.1 M146.6,135.6c-0.9-0.1-1.6-0.1-2.1,0.2
		c-0.4,0.3-0.2,0.6,0.6,1.1c0.3,0.1,0.4,0.3,0.3,0.4c-0.2,0.1-0.4,0.1-0.6,0c-1.5-0.7-1.9-1.4-1.2-1.9c0.6-0.5,1.6-0.6,2.9-0.4
		c0.3,0,0.5,0.1,0.5,0.3l-0.1,0.2H146.6 M158.8,89.1l-0.1,0.1c-2.5,1.3-4.2,3.5-5,6.5l-0.1,0.1l0.2,0.2c0.7-0.9,1.5-1.7,2.3-2.4
		c0.7-0.5,1.4-1,2.3-1.4c0.5-0.3,1.4-0.6,2.4-1.1C160.4,89.9,159.7,89.2,158.8,89.1 M157.9,88.8v-0.1c0.2-0.5,0.3-0.8,0.3-1.1
		c-0.1-0.4-0.4-0.6-1-0.8l-1.6,1.3c-0.5,0.5-1,1-1.2,1.6c-0.9,1.5-1.5,3.1-1.7,4.8c0,0.2,0,0.4,0.2,0.7
		C153.7,92.2,155.4,90.1,157.9,88.8 M162.8,174.1c0.5-0.7,0.5-1.4,0-2.1c-0.4-0.7-1.1-1.1-1.9-1.4l-1,0.2c0.7,0.3,1.3,0.9,1.6,1.6
		c0.4,0.7,0.4,1.4-0.1,2L162.8,174.1 M165.7,169.1c-0.5-0.8-1.3-1.2-2.2-1.4v0.2c-0.1,1.1-0.9,1.9-2.1,2.5c0.8,0.3,1.4,0.8,1.9,1.4
		c0.5,0.6,0.7,1.3,0.4,1.9c1.1-0.5,1.9-1.2,2.6-2.1C166.5,170.7,166.3,169.9,165.7,169.1 M165.4,161.4c-1-0.3-1.9-0.2-2.8,0.2
		c-0.8,0.5-1.3,1.3-1.4,2.4l0.9,0.8c0.7-0.9,1.6-1.3,2.7-1.1c1,0.2,1.9,0.8,2.6,1.7c-0.2-1.2-0.7-2.3-1.4-3.3L165.4,161.4
		 M165.6,164.4c-1.3-0.5-2.2-0.2-2.9,1.1c0.5,0.7,0.8,1.3,0.8,1.9c0.9,0.2,1.6,0.6,2.2,1.1c0.7,0.6,1.1,1.3,1.2,2.1l0.5-1.3
		c0.2-0.7,0.3-1.5,0.3-2.2C167.5,165.8,166.8,164.9,165.6,164.4 M176.2,88.9c-0.8,0.3-1.6,0.8-2.3,1.4c-1.3,1.3-2,2.4-2,3.4
		c0,1,0.6,1.4,1.8,1c0.9-0.3,1.7-0.8,2.3-1.5c1.3-1.2,2-2.3,2-3.3C177.9,88.8,177.4,88.5,176.2,88.9 M175.8,89.4
		c0.3-0.1,0.4-0.1,0.6,0c0.1,0.1,0,0.3-0.1,0.5l-0.6,0.7l-0.8,0.5h-0.5c-0.1-0.1-0.1-0.3,0.1-0.5c0.1-0.3,0.3-0.5,0.6-0.8
		C175.3,89.7,175.5,89.5,175.8,89.4 M166.4,91.7c-0.5-0.9-0.8-1.8-0.9-2.6c-0.4,0.6-0.9,1-1.6,1.4c-0.4,0.3-1.1,0.6-2.1,0.9
		c0.2,0.8,0.3,1.4,0.3,1.8c-0.1,0.8-0.3,1.7-0.6,2.9l-0.9,2.8c-0.3,1.4-0.4,2.4-0.2,3c0.1,0.5,0.3,1,0.6,1.2
		c0.2,0.3,0.5,0.4,0.9,0.4c0.6-0.4,1.1-0.9,1.6-1.5h0.6c0.3,0.1,0.4,0.2,0.4,0.4l-0.1,0c-0.4,0.8-1,1.3-1.7,1.6l-1.9,1.1
		c-0.2,0.1-0.4,0-0.6-0.1c-0.3-0.2-0.3-0.3-0.2-0.3l1.2-0.7c-0.5-0.2-0.9-0.5-1.2-1.1c-0.3-0.5-0.5-1.2-0.4-2c0-0.9,0.2-1.9,0.6-3.2
		l0.9-3.2c0.2-0.8,0.1-1.7-0.1-2.8l-0.9,0.4l-1.8,1l0.1,0.2c-0.1,0.5-0.6,2-1.6,4.5c-0.8,1.8-0.9,3.4-0.4,4.6l1.1,1.7
		c0.6,0.8,0.8,1.4,0.6,1.8c-0.1,0.2-0.4,0.5-0.9,0.9c-0.6,0.3-0.9,0.6-1.1,0.9l-0.4,0.1l1.6,7.7c0,0.2,0.3,0.4,0.9,0.8
		c0.6,0.4,0.9,0.8,0.9,1.2v0.8l0.4,0.2l0.8,0l1.7-4.1c0.6-1.6,1.4-2.7,2.4-3.5c0.2-0.2,1-0.5,2.4-1c1.2-0.4,1.8-0.9,1.9-1.4
		c0.1-0.6,0.1-1.4-0.1-2.3l-0.4-2.4c-0.1-0.9-0.1-1.8,0.1-2.7l0.7-2.7c0.2-0.7,0.2-1.5,0-2.2c-0.2-0.6-0.6-1.3-1.1-2
		C167.3,93.2,166.7,92.4,166.4,91.7 M166.1,94.9c0.3,0.1,0.4,0.3,0.2,0.4c-0.1,0.1-0.4,0.1-0.7,0l-0.1-0.1c-0.3-0.1-0.4-0.3-0.2-0.4
		c0.1-0.1,0.4-0.1,0.6,0L166.1,94.9 M163.9,95.7c0-0.1,0.2-0.2,0.5-0.1c0.3,0.1,0.5,0.2,0.4,0.3l-0.2,0.4c-0.1,0.2-0.3,0.2-0.6,0.1
		c-0.3-0.1-0.4-0.2-0.4-0.3L163.9,95.7 M163.7,94.2c-0.3-0.1-0.4-0.2-0.3-0.4l0-0.1c0.1-0.2,0.3-0.2,0.6-0.1
		c0.3,0.1,0.5,0.2,0.4,0.4l-0.1,0.1C164.2,94.3,164,94.4,163.7,94.2 M163.1,96.8c0.2,0,0.4,0.1,0.5,0.2s0.1,0.3-0.2,0.2
		c-0.2,0-0.4-0.1-0.6-0.2S162.8,96.8,163.1,96.8 M165.8,98c-0.3-0.1-0.4-0.2-0.4-0.4c0.2-0.4,0.4-0.5,0.8-0.4
		c0.3,0.1,0.5,0.3,0.4,0.4l-0.2,0.2l0,0.1C166.3,98.1,166.1,98.1,165.8,98 M163.8,99.9c0.2,0,0.4,0.1,0.6,0.3
		c0.2,0.2,0.1,0.2-0.2,0.2c-0.2,0-0.4-0.1-0.5-0.2C163.4,100,163.5,99.9,163.8,99.9 M168.1,91.4c-1-0.7-1.1-1.9-0.1-3.6l-1.9-1.2v1
		l-0.1,0.2c0,1.3,0.4,2.7,1.2,4l2.3,3.8c0.5,1.1,0.5,2.2,0,3.4c-0.7,1.7-0.8,3.7-0.4,6.1l0.3,1.9c0.1,0.7,0.1,1.4-0.1,1.9
		c-0.2,0.4-0.7,0.8-1.5,1c-0.9,0.2-1.5,0.3-1.8,0.4c-1.3,0.7-2.4,1.9-3.1,3.6l-1.8,4.6l2.1,0.4l1.7-2.6c0.6-1,1.3-1.7,2-2.1
		c-0.2,0-0.3-0.1-0.4-0.2c-0.1-0.1-0.1-0.2,0-0.2c0.9-1.3,2.2-2,3.9-2.1c1.4-0.1,2.9,0.2,4.6,1c0.3,0.1,0.3,0.3,0.2,0.4h-0.6
		c-1.4-0.6-2.6-0.9-3.8-0.8c-1.3,0.1-2.4,0.6-3.2,1.7c0.5-0.2,1-0.3,1.6-0.4c1.3-0.2,2.6-0.2,3.9,0.1c1.5,0.3,2.7,0.8,3.6,1.6
		c0.2,0.2,0.1,0.3-0.2,0.3c-0.3,0-0.5,0-0.6-0.2c-1-0.9-2.5-1.4-4.5-1.5c-2.1-0.1-3.7,0.3-4.6,1.3c-0.4,0.5-0.9,1.1-1.3,1.8
		l-1.2,2.1c0.5-0.1,1-0.3,1.5-0.6l1.9-1.2c0.7-0.4,1.4-0.6,2.1-0.7c1.3-0.2,2.3,0,3.1,0.4c0.9,0.5,1.3,1.4,1.4,2.7
		c0,0.2-0.1,0.3-0.4,0.2c-0.3-0.1-0.5-0.2-0.5-0.4c-0.2-3.2-2.5-3.3-6.8-0.5l-1.3,0.7l-1.4,0.2l-0.6,0.6c-0.1,0.1-0.3,0.1-0.6,0
		c-0.3-0.1-0.4-0.2-0.2-0.3l0.5-0.5l-1.2-0.4l-1.3-0.2c0.5,0.7,0.7,1.4,0.4,2.2c0,0.2-0.2,0.2-0.6,0.2c-0.3-0.1-0.4-0.2-0.4-0.4
		c0.2-0.8,0-1.5-0.5-2.1l-0.1-0.1l-0.7,2.1c-0.1,0.2-0.3,0.2-0.6,0.1c-0.3-0.1-0.4-0.2-0.4-0.3c0.5-1.5,0.8-2.4,0.8-2.8
		c0-0.9-0.5-1.6-1.6-2.2l-0.2-0.3l-1.8-9.2c-0.2-1.2-0.4-2-0.7-2.4l-0.8-1c-0.2-0.4-0.3-0.7-0.3-1.1v-2.1c0-0.7-0.2-1.3-0.4-1.8
		c0.1,0.4,0,0.8-0.2,1.2c-0.1,0.1-0.2,0.2-0.4,0.2l-0.4-0.2l-2.3-2c-1-1-1.9-1.6-2.6-1.8c-0.8,0.2-0.8,0.6,0.1,1l1.8,1.2
		c0.6,0.5,1.1,1,1.4,1.6c0.1,0.2,0,0.2-0.4,0.2l-3.4-0.9c-1.4-0.3-2.3-0.4-2.8-0.3c-0.4,0.1-0.4,0.3,0,0.7s0.9,0.6,1.5,0.7l1.1,0.2
		c1.4,0.2,2.4,0.8,2.8,1.6c0.1,0.1,0,0.2-0.2,0.2l-3,0.1c-1.2,0-2.1,0.3-2.7,0.9l2.6-0.2c0.9,0.1,1.7,0.3,2.6,0.7
		c0.2,0.1,0.3,0.3,0.4,0.6c0.1,0.4,0.2,0.7,0.3,0.8c0.6,0.6,1.3,1.2,2,1.6c0.2,0.1,0.3,0.2,0.3,0.3c-0.2,0.8-0.1,1.7,0.2,2.8
		l1.1,2.6c0.2,0.6,0.3,1.4,0.3,2.4l0.1,2.5c0,0.5,0,1-0.1,1.5c-0.1,0.7-0.4,1.1-0.8,1.2l-0.2,0.2c-0.1,0.2,0.1,0.9,0.4,2l0.5,2
		c-0.1,0.9,0,1.6,0.3,1.9c0.3,0.4,0.9,0.4,1.9,0.2l1.5,0.1l4,0.7c1.5,0.2,2.8,0.2,4.1-0.1l2.3-0.5l2.4-0.1c0.6,0.1,1.4,0.3,2.4,0.8
		c0.9,0.3,1.6,0,2.1-0.9c0.1-0.1,0.3-0.2,0.6-0.1c0.3,0.1,0.4,0.2,0.3,0.3c-0.4,0.8-0.9,1.2-1.3,1.4c-0.4,0.1-1.1,0-1.9-0.3
		c-1.3-0.5-3.1-0.6-5.2-0.3l-5.2,0.5l-2.8-0.4c-0.3,0.4-0.4,0.9-0.5,1.6l-0.2,1.7c-0.2,0.6-0.7,1.5-1.6,2.9
		c-0.8,1.2-1.2,2.2-1.2,2.9c0,0.5,0,1.3,0,2.6c-0.1,1.1-0.4,1.8-0.9,2.3c-0.7,0.7-1.6,1.2-2.6,1.7l2.5,2.8c2.3,0.5,4.2,2.1,5.8,4.6
		c1.6,2.5,2,4.9,1.2,7.1c-0.1,0.2-0.2,0.2-0.5,0.1c-0.3-0.1-0.5-0.2-0.4-0.4c0.6-1.8,0.4-3.9-0.8-6.2c-1.2-2.3-2.8-3.8-4.7-4.5
		l0.2,0.3c1.9,2.1,3.1,4,3.6,5.6c0.1,0.2-0.1,0.2-0.4,0.2c-0.3-0.1-0.5-0.2-0.5-0.4c-0.5-1.7-1.6-3.4-3.4-5.4
		c-2.1-2.1-3.6-3.6-4.4-4.7c-0.6-0.8-1.2-1.3-1.9-1.6c-0.7-0.3-1.6-0.4-2.7-0.2h-0.7l-0.6-0.2c-0.7-0.2-1.3,0.1-1.8,0.9
		c-1.2,2-2.2,4.4-3.2,7.1l-1.1,3.1v0.2c-0.6,2.2-0.5,3.6,0.4,4.2c0.2,0.2,0.1,0.3-0.1,0.3l-0.7-0.1c-0.4-0.3-0.7-0.8-0.8-1.3l-3.6-1
		c-1.4-0.4-2.5-0.9-3.5-1.4l-3.7-1.9c-1.4-0.7-2.7-1.1-3.9-1.1c-1.4,0-2.6,0.1-3.3,0.3c-0.5,0.2-0.4,0.3,0.3,0.4l3.6,0.2
		c0.8,0.2,1.4,0.4,1.8,0.8c0.1,0.1,0.1,0.2,0.1,0.2c-0.4,0.3-1.1,0.5-2.2,0.4c-1.3-0.1-2.1-0.1-2.4,0c-0.5,0.1-1,0.3-1.7,0.6
		c-0.7,0.4-0.6,0.6,0.2,0.5l2-0.1l3.1,0.3c1.8,0.3,2.7,0.8,2.4,1.2c-0.2,0.5-0.9,0.9-2.2,1.1l-2.2,0.2c-0.8,0.1-1.5,0.3-2.1,0.5
		c-0.2,0.1-0.5,0.3-0.9,0.6l-0.8,0.6c1.2-0.6,2.5-0.9,3.9-0.8l4.2,0.6l5.7,0.1c0.7,0,1.4,0.2,2.2,0.5l2.1,0.8c2.6,1,4.6,1.8,5.9,2.5
		l2.6,1.3c1.1,0.5,2,0.9,2.7,1.1c0.6,0.1,1.1-0.5,1.3-1.9c0.2-1.3,0.3-2.9,0.1-4.9c-0.4-4.9-1.4-7.7-2.9-8.5l-0.1-0.2
		c0-0.1,0-0.2,0-0.2l0.7-0.4h0.6c0.3,0.1,0.4,0.2,0.2,0.4l-0.4,0.3c-0.1,0,0,0.1,0.1,0.2l0.8,0.8c0.6,0.9,1,2,1.3,3.3
		c0.5,2.3,0.8,4.6,0.7,7.1v0.1c0.6,0.6,1.5,1.2,2.7,1.8l5.1,2.1c1,0.3,1.6,0.2,1.6-0.3c0-0.1,0.1-0.2,0.3-0.2c0.2,0,0.3,0.1,0.4,0.2
		c0.8,0.5,1.5,1,2.2,1.5c0.2-1,0.7-1.8,1.6-2.2c0.8-0.5,1.8-0.6,2.8-0.3c-1.1-1.3-1.7-2.4-2-3.2c-0.4-1.3-0.3-2.5,0.2-3.6l2.1-3.1
		c1.3-1.9,2.3-3.7,3-5.4c0.3-0.7,0.7-1.6,1.3-2.8l1.4-2.7l1.8-4.9l-2.9-2.2c-0.2-0.2-0.2-0.3,0.1-0.3l0.6,0.2l2.4,1.8l0.7-1.7
		c-1.3-0.5-2.6-0.9-3.6-1.1c-0.3-0.1-0.4-0.2-0.4-0.3c0-0.2,0.2-0.2,0.5-0.1c1.2,0.3,2.4,0.6,3.7,1.1c0.3-0.7,0.6-1.2,0.9-1.8
		c0.4-0.7,1-1.4,1.8-2.1l2-2c0.6-0.8,1-1.7,1.2-2.9l0.2-3.1h-0.5c-0.3,0-0.5-0.1-0.6-0.2c-0.1-0.1-0.1-0.2,0-0.2c0.1,0,0.2,0,0.2,0
		c0.5,0,1-0.2,1.3-0.7c0.3-0.4,0.4-0.8,0.3-1.3c-0.1-0.1-0.1-0.2-0.1-0.3v-0.1c-0.1-0.3-0.4-0.4-0.9-0.5c-0.2,0-0.4-0.1-0.4-0.3
		c-0.1-0.2,0-0.2,0.3-0.2c0.5,0,0.9,0.2,1.4,0.4l1.4-3.3l-1.2-0.6c-0.3-0.1-0.4-0.2-0.2-0.3h0.6l1.1,0.4l0.9-2.8l-1.2,0.1
		c-0.1,0-0.3,0-0.6-0.2c-0.2-0.2-0.2-0.3,0.1-0.3l1.8-0.1c0.1-0.8-0.2-1.5-0.8-2l-1.6,0.9l-0.6-0.1c-0.3-0.1-0.3-0.3-0.2-0.4
		l1.7-0.9l-1.2-0.9c-0.5-0.5-0.6-1.2-0.4-2.1c0.5-2,0.7-3.7,0.6-5.2c-0.1-0.8-0.2-1.5-0.4-2.2l-1.1,0.2c-0.1,0-0.2-0.1-0.3-0.2
		c-0.1-0.1-0.1-0.2,0.1-0.2l1.2-0.2c-0.2-0.5-0.4-1-0.7-1.4l-0.8,0.4l-0.4-0.1c-0.2-0.1-0.2-0.2-0.1-0.2l1.1-0.6l-0.4-0.6l-0.4,0.4
		l-0.4-0.1c-0.2-0.1-0.2-0.1-0.1-0.2l0.6-0.6l-1.3-1.3l-0.7,0.8c-2.1,1.8-3.8,2.2-5.2,1.4c-0.8-0.5-1-1.4-0.4-2.6
		c0.4-0.9,1-1.7,1.8-2.4l-0.7-0.3c-0.6,0.7-1.2,1.2-1.9,1.6C169.5,91.7,168.7,91.8,168.1,91.4 M176.2,103.9l0.6,0.1
		c1.3,0.9,2.2,1.7,2.6,2.4c0.6,1.1,0.5,2.1-0.5,3.1c-1,1-2.1,1.3-3.2,0.9c-1.2-0.4-2.2-1.1-2.8-1.9c-0.1-0.2,0-0.2,0.3-0.2
		c0.3,0,0.5,0.1,0.6,0.2c0.3,0.5,0.7,0.9,1.2,1.2c0.6,0.3,1.2,0.4,1.7,0.3c0.4-0.1,0.9-0.4,1.3-0.8c0.4-0.4,0.7-0.9,0.8-1.3
		c0.2-0.7-0.1-1.4-0.7-2.1l-1.8-1.4C175.9,104.1,175.9,104,176.2,103.9 M175,106.9c0.4,0.2,0.7,0.2,1.1-0.1c0.3-0.3,0.4-0.6,0.4-1.1
		c0-0.2,0.2-0.2,0.4-0.1c0.3,0.1,0.5,0.2,0.5,0.4c0,0.8-0.4,1.3-1.1,1.5c-0.7,0.2-1.3,0.2-2-0.2l-0.2-0.2c0-0.1,0-0.1,0.1-0.2
		L175,106.9 M162,134.9c0.3,0.1,0.3,0.2,0.2,0.3c-0.1,0.1-0.3,0.1-0.6,0c-0.3-0.1-0.5-0.1-0.7-0.1c-0.3,0-0.5-0.1-0.5-0.4
		c0-0.1,0.1-0.2,0.4-0.2L162,134.9 M169.8,138.9c-0.1,0.8-0.5,1.3-1.2,1.4c-0.6,0.1-1.2,0-1.9-0.4c-0.3-0.2-0.3-0.3,0-0.3l0.6,0.1
		c1,0.5,1.5,0.2,1.6-1.1c0.1-1.2-0.3-1.9-1.2-1.9c-0.3,0-0.5-0.1-0.6-0.2c0-0.1,0-0.2,0.1-0.2l0.2-0.1c0.7,0,1.3,0.3,1.8,0.9
		C169.6,137.5,169.8,138.1,169.8,138.9 M162.6,139.7l-0.2,0.1c-0.3,0-0.5-0.1-0.7-0.2l-1.1-1.6c-0.1-0.2,0-0.3,0.3-0.3
		c0.3,0,0.5,0.1,0.5,0.2l1.2,1.6C162.6,139.6,162.6,139.7,162.6,139.7 M162.9,147.9c0.2,0.2,0.1,0.3-0.1,0.4c-0.2,0.1-0.4,0-0.7-0.1
		l-1.7-1.6c-0.2-0.2-0.1-0.3,0.1-0.4c0.2,0,0.4,0,0.6,0.2L162.9,147.9 M157.1,137.6c0-0.2,0.2-0.2,0.6-0.1c0.3,0.1,0.4,0.2,0.4,0.3
		c-0.1,0.7-0.1,1.3,0.1,1.9c0,0.2-0.1,0.2-0.4,0.2c-0.3,0-0.5-0.1-0.5-0.3C157,139.1,156.9,138.4,157.1,137.6 M158.8,145.6
		c-0.1-0.2,0-0.3,0.3-0.2c0.3,0,0.5,0.1,0.6,0.2c0.9,1.6,1.7,3.5,2.4,5.8c0.1,0.2-0.1,0.2-0.4,0.2c-0.3,0-0.5-0.1-0.6-0.4
		C160.4,148.9,159.6,147,158.8,145.6 M169.4,87.3c-1,1.5-1.4,2.6-1.1,3.3c0.2,0.5,0.8,0.5,1.6,0c0.6-0.5,1.1-0.9,1.4-1.4
		c1-1.5,1.4-2.6,1-3.3c-0.2-0.5-0.8-0.5-1.6,0C170.2,86.3,169.8,86.8,169.4,87.3 M171.3,86.2l0.4-0.1c0.1,0.1,0.1,0.2,0.1,0.4
		l-0.4,0.6l-0.5,0.5l-0.4,0.1c-0.1-0.1-0.1-0.2-0.1-0.4c0.1-0.2,0.2-0.4,0.4-0.6S171.1,86.4,171.3,86.2 M165.1,86.1
		c-0.3-1.1-0.8-2.1-1.6-2.8c-0.9-0.9-1.8-0.9-2.6,0.1l-3.3,3.1c1.2,0.4,1.7,1.1,1.4,2.1c1.2,0,1.9,0.3,2.2,1.1l0.5,1.2
		c1.2-0.6,2.1-1.2,2.6-1.8C165,88.2,165.3,87.2,165.1,86.1 M163,86.2c0.3,0.1,0.4,0.2,0.2,0.4l-1.1,0.8c-0.2,0.1-0.4,0.1-0.7-0.1
		l-0.2-0.2c0-0.1,0-0.1,0.1-0.2l1-0.8L163,86.2 M159.9,85.6c0.2-0.5,0.6-0.8,1.2-1.1l0.7,0.1l0.1,0.2c0,0.1,0,0.2-0.1,0.2
		c-0.5,0.2-0.8,0.5-1,0.9c-0.1,0.2-0.3,0.2-0.6,0.1C159.9,85.9,159.8,85.7,159.9,85.6z"/>
</g>
</svg>
