<?xml version="1.0" encoding="utf-8"?>
<!-- Generator: Adobe Illustrator 25.4.1, SVG Export Plug-In . SVG Version: 6.00 Build 0)  -->
<svg version="1.1" id="Awareness_x2C_PerkClip_x5F_d2287" image-rendering="auto"
	 xmlns="http://www.w3.org/2000/svg" xmlns:xlink="http://www.w3.org/1999/xlink" x="0px" y="0px" viewBox="0 0 240 240"
	 style="enable-background:new 0 0 240 240;" xml:space="preserve">
<style type="text/css">
	.st0{fill:#FFFFFF;}
</style>
<g>
	<rect width="240" height="240"/>
	<path class="st0" d="M82.8,109.9l1.8-0.2c0.5-0.2,0.8-0.5,0.9-0.8c0.1-0.5,0-1-0.5-1.5c-0.1,0.6-0.4,1.2-0.9,1.7L82.8,109.9
		 M86.9,103.9l0.3-0.8l-3.3-1.2c-0.1,0-0.2-0.1-0.2-0.3c0-0.2,0-0.3,0.1-0.5l0.3-0.3l0.4-0.1L88,102l0.6-0.6l-5-1.8l-0.6,0.5
		c-0.4,0.5-0.8,1.1-1,1.7s-0.4,1.2-0.4,1.9c0,0.3,0,0.6,0.1,0.8l5.1,1.8l-0.1-0.9l-3.5-1.2l-0.2-0.3c-0.1-0.1-0.1-0.3,0-0.5l0.3-0.4
		l0.4-0.1L86.9,103.9 M115.7,112.2L115.7,112.2L115.7,112.2L115.7,112.2 M103.6,106.9c0-0.3,0-0.5-0.2-0.6c-0.1-0.1-0.3,0-0.6,0.3
		c-0.2,0.3-0.4,0.6-0.6,1.1c-0.2,0.4-0.3,0.8-0.3,1.2c0,0.3,0,0.5,0.2,0.6c0.1,0.1,0.3,0,0.6-0.3l0.7-1.1L103.6,106.9 M101.7,107.3
		c0.2-0.4,0.4-0.8,0.7-1.2l-13.1-4.6c-0.1,0-0.2,0.1-0.4,0.2c-0.3,0.2-0.6,0.6-0.8,1l-0.1,0.2l-0.4,0.8c-0.3,0.6-0.4,1.1-0.5,1.6
		c-0.1,0.5-0.1,0.7,0.1,0.8c0.3,0.1,0.7-0.4,1.2-1.4l12.8,4.7C101.2,108.7,101.4,108,101.7,107.3 M113.8,110.8L113.8,110.8
		L113.8,110.8L113.8,110.8 M64.1,164.4l-0.3-0.2c-1.7-1-3.7-1.8-6-2.2l0-0.1c-0.2,0.4-0.8,0.8-1.7,1.1l-1.7,0.5l-7.2,0.2
		c0.1,0.8,0.2,1.3,0.3,1.4l1,0.4l1.1,0.2c0.5,0,0.8-0.1,0.9-0.2l0.5-0.7l0.1,0c1.6,0.7,3.4,1.2,5.3,1.3c2,0.2,3.8,0,5.5-0.5
		c0.8-0.3,1.5-0.6,1.9-0.9L64.1,164.4 M28.6,166.1L28.6,166.1c-1.9,0.5-3.5,0.6-4.9,0.3l-2.9-0.6c-0.8,0.7-1.1,1.6-1,2.8
		c0.1,1.2,0.5,2.1,1.4,2.6c0.4,0.2,0.9,0.3,1.4,0.3l1.4-0.4C27.1,170,28.5,168.3,28.6,166.1 M25.6,121.5c-0.9-0.5-2.2-0.2-3.7,0.8h0
		c-1.3,0.2-2.4,1-3.2,2.3c-0.6,0.9-1,2.2-1.4,3.9c0.4,0.9,0.7,1.6,1,2.2c1.2,1.9,2.7,3.2,4.6,4.1c0.7,0.4,1.4,0.6,1.9,0.7
		c0.8,0.1,1.3-0.1,1.4-0.8c-1.4-0.4-2.8-1.4-4.1-2.9c-0.1-0.1-0.2-0.3-0.2-0.7c0-0.3,0-0.4,0.1-0.3c1.4,1.5,2.8,2.5,4.1,2.8l1.5,0.1
		l0-0.1h0.1c0.6-0.2,0.9-0.6,0.9-1.2c-0.8-0.2-1.6-0.6-2.5-1.2l-2-1.9c-0.1-0.1-0.2-0.3-0.2-0.7c0-0.4,0-0.5,0.1-0.3
		c2.6,2.6,4.5,3.7,5.7,3.1c0.4-0.2,0.7-0.6,0.7-0.9l-0.2-0.3l-2.9-2c-0.5-0.3-0.9-0.7-1.2-1.3c-0.1,0-0.3-0.2-0.4-0.7
		c-0.3-0.7-0.4-1.5-0.4-2.3S25.3,122.3,25.6,121.5L25.6,121.5 M37.8,104.3l-3.8-0.8c-1.8-0.5-3.2-1.1-4.1-1.8c-2-1.5-3-3.6-2.9-6.4
		c-4.1,1.3-7.8,3-11.1,5.1c-3.7,2.5-6.5,5.3-8.3,8.4c-0.8,1.4-1.1,2.9-1,4.5c0.1,1.3,0.5,2.8,1.2,4.5c1.6,3.4,3.7,6.2,6.1,8.2
		c0.8,0.6,1.6,1.1,2.3,1.5l0.5,0.2c0.4-1.7,0.8-3.1,1.4-4.1c0.8-1.4,1.9-2.2,3.2-2.5c-1.1-4.3-2.9-7.4-5.2-9.2
		c-0.1-0.1-0.2-0.3-0.2-0.7c0-0.3,0-0.5,0-0.4c0.7,0.5,1.4,1.1,2,1.9c2.6-0.9,4.9-1.6,6.9-2.1c0-0.1,0.1-0.1,0.2-0.1l3-0.7
		c0.2,0,0.3,0.1,0.3,0.6c0.1,0.4,0.1,0.6,0,0.6l-3,0.6c0.4,3.2,0.7,6.3,0.8,9.2c0.1,0.1,0.2,0.3,0.2,0.6c0.1,0.2,0.1,0.4,0,0.5
		l-0.2,0.4v1.8c1.5,1.1,3.1,1.8,5,2.3c1.8,0.5,3.6,0.7,5.3,0.7l1.6,0.1c0.7,0,1.2-0.1,1.5-0.3c0.3-0.2,0.4-0.7,0.4-1.7
		C39.6,117.6,39,110.6,37.8,104.3 M42,138.4c0.1,0.3,0.2,0.6,0,0.7l-1.8,3c3.6,7.2,5.5,14,5.8,20.3l4.1,0.2c1.6,0,2.9-0.1,4.1-0.4
		c1.4-0.3,2.4-0.7,3.1-1.3c0.1-0.1,0.2-0.2,0.2-0.1v-0.3c-0.2-7-0.6-12.8-1.1-17.2c-0.4-4-1-8.9-1.8-14.7c-1.6,2.3-4.2,4.2-7.8,5.8
		c-3.1,1.3-6.2,2-9.3,2.2c-3.4,0.2-6.5-0.4-9.3-1.7l-0.8,0.1l-0.6-0.1c0.1,1.5-0.6,2.1-2.1,1.7l-1.6,5.4c-0.7,2.3-1.2,4.1-1.6,5.5
		c-0.8,3.5-1.4,7-1.6,10.4c-0.1,1.8-0.2,3.2-0.2,4.4c0,0.8,0,1.3,0.1,1.7l0.3,0.2l0.9,0.5c1.1,0.5,2.2,0.7,3.5,0.8l3.5-0.3l1.4-0.3
		c0.7-0.2,1.1-0.4,1.1-0.5l1.1-4.6c0.8-3,2-6,3.4-9.1c2.4-5.1,4.7-9.3,6.9-12.6C41.7,138,41.8,138.1,42,138.4 M77.6,116.1
		c0.7-0.1,1-0.3,1.1-0.8c0.1-0.3,0-0.6-0.2-1c-0.2-0.4-0.6-0.7-1.1-1l-1-0.4l-0.4-0.1c-0.9-0.3-1.7-0.4-2.4-0.2
		c-0.7,0.1-1.1,0.4-1.2,0.8c0,0.2,0,0.5,0.2,0.8c0.3,0.6,1.2,1.2,2.7,1.6L77.6,116.1 M65.6,106.4L65.6,106.4c-0.2-1.4,0-2.7,0.5-4
		c-0.9,1.1-1.6,2.5-2.2,4.2c-0.6,1.9-1,3.6-1.1,5c-0.1,2.3,0.4,3.7,1.6,4.4h3c-1.3-1.2-2.1-2.7-2.4-4.4S64.8,108.1,65.6,106.4
		 M78.3,108.2c0.7,0.6,1.5,1.1,2.6,1.4c0.1,0,0.3-0.1,0.8-0.4l1.3-1.1c0.3-0.3,0.5-0.7,0.5-1.1c0.1-0.4,0-0.6-0.1-0.7
		c-1.7-0.7-3.1-1.1-4.2-0.9c-1,0.1-1.6,0.4-1.8,1.1C77.4,107.1,77.7,107.6,78.3,108.2 M74.1,108.8l-1.1,0.1
		c-0.7-0.1-1.3-0.3-1.8-0.7l-0.4-0.4l-0.4,0.4l-0.5,0.9c-0.4,0.6-0.7,1.4-1,2.2c-0.3,0.8-0.3,1.3-0.2,1.6l0.4,0.3l1.7,0.5l0.6,0.1
		c0-0.2,0-0.4,0.1-0.5c0.2-0.5,0.6-0.9,1.2-1.1C73.2,110.5,73.7,109.4,74.1,108.8 M72.2,110.4c0.1,0.1,0.1,0.3,0.1,0.4
		c0,0.1-0.1,0.2-0.2,0.3l-0.4,0.1c-0.2,0-0.3-0.1-0.3-0.2c-0.1-0.1-0.1-0.2-0.1-0.4c0-0.1,0.1-0.3,0.2-0.4l0.4-0.1
		C72,110.1,72.1,110.2,72.2,110.4 M74.5,111.4c-0.3-0.4-0.3-0.8-0.2-1.2c0.2-0.6,0.8-1.1,1.6-1.2l1.9-0.1c-0.9-0.6-1.4-1.3-1.3-2.1
		l-0.2,0.1c-0.3,0.1-0.6,0.5-1,1.1c-0.3,0.5-0.6,1-0.9,1.5l-1.1,2.4l1.6-0.1L74.5,111.4 M75.2,110.3c-0.1,0.3,0,0.6,0.2,0.9
		c0.2,0.4,0.6,0.7,1.2,1l1.3,0.6l2.4,0.2c0.7-0.2,1.1-0.4,1.2-0.8c0.1-0.4-0.1-0.9-0.6-1.3c-0.6-0.5-1.3-0.9-2.2-1.2l-2.5-0.1
		C75.7,109.6,75.2,109.9,75.2,110.3 M75.8,101.5c-0.9-0.8-2.2-1.2-3.9-1.4c-1.7-0.2-3,0-3.9,0.6l-0.1,0.5l0,0.1
		c-0.9,0.9-1.5,1.9-1.8,3.2c-0.3,1.3-0.1,2.5,0.5,3.6l0,0.1c0.1,0.8,0.1,1.1-0.1,0.8l-0.1-0.2l-0.6-1.1c-0.7,1.8-0.7,3.5,0,5.1
		c0.6,1.6,1.8,2.8,3.6,3.7l0,0v0c1,0.4,2,0.7,3,0.7c1,0,1.7-0.1,2.2-0.5l-0.4-0.2c-0.5-0.2-0.9-0.5-1.4-0.8c-0.5-0.4-0.8-0.8-0.9-1
		l-3.6-1.1c-0.2-0.1-0.3-0.2-0.3-0.3l-0.2-0.7l0.1-0.6c0.3-1.1,0.8-2.2,1.4-3.4c0.5-0.8,0.8-1.4,1.2-1.8v0c0-0.3-0.1-0.6-0.1-1
		l0.1-1.8l0.8-0.2c-0.1,0.7-0.2,1.4-0.1,2.1c0.1,1,0.4,1.6,0.8,1.9c0.5,0.3,0.9,0.5,1.3,0.6c0.4,0,0.7-0.1,0.9-0.2
		c0.8-1.5,1.3-2.7,1.7-3.8C76.2,102.7,76.2,101.8,75.8,101.5 M76.4,100.8l-0.1,0.1c0.3,0.4,0.4,0.8,0.5,1.4c0,0.7-0.2,1.5-0.5,2.3
		c-0.2,0.6-0.4,1.4-0.8,2.2l0.5-0.5c0.4-0.3,0.7-0.8,1-1.5C77.7,103.3,77.5,101.9,76.4,100.8 M48.3,94.1l0.7,2.4
		c0.2,0.9,0.2,1.7,0,2.4c-0.2,1.2-0.8,2.2-1.6,3c-0.6,0.6-1.6,1.2-2.9,1.9c1.4,5.7,2.5,12.6,3.2,20.8c0.4,0,1.1-0.3,1.9-0.9l3.7-3.4
		l-2-12.6c-0.1-0.4,0-0.5,0.2-0.4c0.1,0.1,0.2,0.3,0.3,0.6c0.1,0.7,0.4,1.5,1,2.4c0.5,0.8,1,1.4,1.7,2c2.2,2,5.1,3.2,8.9,3.6
		c-0.5-0.8-0.8-2-0.9-3.4c-0.1-1.1,0-2.2,0.1-3.4c0.6-3.6,1.7-6.2,3.2-8c-2.4-0.1-4.6-0.6-6.7-1.4c-1.1-0.5-3.1-1.5-6.1-3
		c-1.9-1-3.4-2-4.3-2.9L48.3,94.1 M49.5,72.4l-1.5,1c0.5,0.7,1.1,1.6,1.6,2.6c0.4-0.7,0.6-1.3,0.6-1.7c0-0.5,0-1-0.2-1.4
		C49.9,72.6,49.7,72.4,49.5,72.4 M30.3,94.4l-3,0.9l0.2,0.5c-0.1,2.4,0.9,4.1,3,5.4c1.3,0.8,3.4,1.4,6.3,1.9l0.9,0.1
		c0.2,0.1,0.4,0.4,0.5,0.7l0.4,2.6c0.4,2.6,0.7,5.2,1,8c0.4,3.9,0.6,7.2,0.7,9.9l0.2,1.8c0,0.8-0.1,1.4-0.3,1.7
		c-0.2,0.3-0.6,0.5-1.3,0.5h-1.7c-4.4,0.1-8.1-0.9-11-3l-0.1-0.1v0.9c0.3,0.4,0.7,0.8,1.3,1.2l1.5,1l1.1,0.9
		c0.4,0.4,0.6,0.8,0.7,1.2c0.1,0.6,0,1.1-0.1,1.6c-0.2,0.5-0.7,0.8-1.3,0.7l-0.3-0.1c0.1,0.6,0,1.2-0.1,1.6c2.8,1,5.8,1.4,9,1.2
		c3.1-0.2,6-1,8.9-2.3c3.6-1.7,6.1-3.6,7.5-5.7l0.1,0l-0.8-5.7l-4,3.4c-0.8,0.6-1.5,0.8-1.9,0.7c-0.2-0.1-0.3-0.3-0.3-0.8
		c-0.8-8.8-1.9-16-3.3-21.6c-0.1-0.3-0.1-0.5,0-0.6l2.4-1.4c0.8-0.6,1.4-1.3,1.8-2.1c0.3-0.7,0.5-1.6,0.4-2.5c0-0.7-0.2-1.5-0.5-2.4
		c-1.2,1.4-2.7,2.4-4.4,3.2c-0.4,0.9-1,1.6-1.8,2.1c-0.8,0.5-1.7,0.8-2.8,0.9c-2,0.2-3.9-0.3-5.7-1.5C31.5,97.9,30.5,96.3,30.3,94.4
		 M28.2,71.8H28c-0.9,0.1-1.5,0.6-1.7,1.6c-0.2,1,0.3,1.9,1.6,2.5c0.4,0.2,0.4,0.4,0.1,0.6c-1,0.7-1.8,1.4-2.2,1.9
		c-1.2,1.3-1.7,2.7-1.6,4.3c0.4-1.2,1-2.3,1.8-3.3c0.9-1.1,1.5-1.7,1.9-1.9l0.1,0c0.2,0,0.3,0,0.3,0.1c0.1,0.1,0,0.2-0.1,0.4
		c-0.7,0.6-1.2,1.2-1.8,1.8c-0.5,0.5-0.9,1.2-1.4,2.1l-0.8,1.7l0.1,0.5c0.5-1.4,1.2-2.5,1.9-3.3c0.5-0.6,1-1.1,1.5-1.3H28
		c0.2,0,0.2,0.1,0.2,0.2c0,0.2-0.1,0.4-0.3,0.5c-0.4,0.3-0.8,0.6-1.1,1c-0.4,0.5-0.8,1.1-1.4,1.9l-0.8,1.4v0c0.1,0.2,0.1,0.4,0,0.5
		l0.9-0.3l-0.1,0.3c-1.1,1-1.3,2.1-0.6,3.4c0.6,1.2,1.7,1.8,3.1,1.7l0.3-0.1c1.7,2.6,3.6,4.5,5.9,5.6l0.3,0.3c0,0.1-0.1,0.2-0.3,0.2
		c-0.7,0.1-1.5-0.2-2.5-0.8c0.2,1.2,1.2,2.2,2.8,3.1c1.5,0.8,2.9,1.2,4.3,1.1c0.7-0.1,1.1-0.2,1.5-0.5h-0.1l-1.6-0.2
		c-0.7-0.2-1.1-0.4-1-0.5l0.1-0.1l1.6,0.1c1.4-0.1,2.9-0.6,4.5-1.5c2.9-1.5,5-4,6.2-7.4c1.2-3.3,1.3-6.6,0.3-9.9
		c-0.6-2-1.6-4.1-3-6.1c-0.7-0.1-1.3-0.4-2-0.9l-1.3-1.4c-0.8-0.9-1.4-1.4-1.7-1.5l-0.4-0.1c-0.5,0-1,0.3-1.7,0.8
		c-0.4,0.2-0.7,0.2-0.9,0.2c-0.5,0.1-1.2-0.1-2.1-0.6c-0.4-0.2-0.8-0.2-1.2-0.2c-1.1,0.1-2.1,0.7-3,1.8c-0.3,0.3-0.7,0.5-1.1,0.6
		L28.2,71.8 M39,72.9c0.4,0.2,0.9,0.6,1.2,1.2c0.4,0.7,0.5,1.4,0.5,2.1l-0.3,0.9C40.3,76,40,75,39.7,74.2c-0.3-0.7-0.9-1.3-1.7-1.7
		L39,72.9 M38.3,78.2c0.2,0.3,0,0.6-0.5,0.9l-1.2,0.3l0.3,0.9c0.1,0.4,0.1,0.8,0,1.2c-0.1,0.3-0.3,0.5-0.5,0.6
		c-0.2,0.1-0.5-0.1-0.7-0.4c-0.2-0.3-0.4-0.6-0.5-1.1c-0.1-0.4,0-0.8,0.1-1.2c0.1-0.4,0.3-0.6,0.5-0.6h0.1l-0.6-1
		c-0.2-0.2-0.5-0.3-1-0.2l-0.9,0.2l0.7-0.5c0.4-0.3,0.8-0.5,1-0.6c0.3,0,0.7,0.2,1.2,0.6l1,1C37.6,78.6,37.9,78.5,38.3,78.2
		 M28,81.2L28,81.2c0.2,0,0.3,0,0.4,0.1s0,0.3-0.2,0.5l-0.9,0.7l-1.1,1.3l-0.1-0.1c0-0.1,0-0.4,0.2-0.7c0.2-0.3,0.3-0.6,0.5-0.9
		C27.2,81.8,27.6,81.5,28,81.2 M28.2,83.1c0.2,0,0.3,0.1,0.3,0.2c0.1,0.1,0,0.2-0.1,0.3l-0.3,0.3c-0.2,0.2-0.3,0.4-0.3,0.6
		c0,0.2-0.1,0.3-0.2,0.3c-0.2,0-0.3-0.1-0.3-0.4c0-0.2,0.1-0.4,0.3-0.8l0.6-0.5L28.2,83.1 M46,77.4c0.4,0.2,0.7,0.6,0.9,1.4
		c0.1,0.4,0,0.8,0,1.2c-0.1,0.3-0.3,0.5-0.6,0.6c-0.2,0.1-0.5-0.1-0.7-0.4c-0.2-0.3-0.4-0.6-0.5-1.1c-0.1-0.3-0.1-0.6,0-1
		c-0.9,0.1-1.4-0.1-1.3-0.6c0.4,0.2,0.7,0.1,0.8-0.1l0.5-1c0.3-0.5,0.5-0.7,0.8-0.8c0.3-0.1,0.7,0,1.3,0.2l0.1,0.1
		c-0.7,0.1-1.1,0.2-1.2,0.5L46,77.4 M40.6,78.4c-0.1-0.2-0.1-0.4,0-0.5l0.1-0.2c0.2,0,0.4,0.1,0.5,0.4l1,1.8c0.4,0.5,1,1.3,2,2.4
		l0.2,0.3c0.1,0.2,0.1,0.4,0,0.7l-1,1.7c-0.1,0.2-0.4,0.3-0.7,0.3l-0.3,0l-0.2-0.1c-0.2-0.1-0.3-0.2-0.2-0.4c-0.1-0.1-0.1-0.2,0-0.4
		l0.9-1.2l0.1-0.4l-0.1-0.2l-2-3.6L40.6,78.4 M43.7,86.2c0.3,0,0.4,0.1,0.3,0.3l-0.5,0.6c-0.1,0.1-0.1,0.4,0,0.9l0.2,0.6l0.5,0.2
		c0.3,0.2,0.5,0.3,0.6,0.5c0.2,0.3,0.3,0.8,0.2,1.4c-0.1,0.8-0.5,1.3-1.2,1.5c-0.8,0.3-1.5,0.1-2.1-0.4c-0.6-0.5-1-1.3-1-2.4
		c0-1,0.5-1.8,1.5-2.5C42.7,86.6,43.2,86.4,43.7,86.2 M43.9,93l-0.2,0.4c-0.2,0.2-0.5,0.4-0.8,0.4c-0.4,0-0.8,0-1.1-0.2l-0.3-0.3
		L43.9,93 M42.2,89.4c0.1-0.2,0.3-0.4,0.6-0.5c0.1-0.1,0.3-0.1,0.4-0.1c-0.2-0.3-0.3-0.7-0.2-1.1l0.1-0.5c-0.5,0.2-0.9,0.6-1.2,1.2
		c-0.2,0.3-0.3,0.8-0.2,1.3l0.2,0.7L42.2,89.4 M29.5,64.8c-1,0.2-1.8,0.8-2.5,1.9l-1.4,1.9c-0.6,0.3-1.2,1-1.9,2
		c-0.4,0.7-0.8,1.5-1.1,2.4c-0.5,1.5-0.5,3.3,0,5.6c0.3,1.2,0.6,2.2,1,3c0.2-1.4,0.8-2.6,1.6-3.6l1.8-1.7l-1.4-1.2
		c-0.5-0.6-0.8-1.1-0.8-1.6c0-0.6,0.2-1.2,0.6-1.7c0.4-0.6,1.1-1,1.9-1h0.6l3.2,0.8h0.1l1.5-1.8c0.9-1.1,1.6-1.7,2.2-1.7l0.4,0.1
		c0.3,0.1,0.9,0.4,1.8,0.9l1.1,0.6l0.8,0.2l0.3-0.1l0.6-0.4c0.6-0.4,1.1-0.6,1.3-0.6l1.1,0.3c0.3,0.2,0.9,0.7,1.8,1.6l1.2,1.4
		c0.8,0.5,1.5,0.8,2,0.7c0.5,0,0.8-0.2,1.1-0.6c0.6-0.6,0.9-1.4,1.1-2.4c0.1-0.9,0.1-1.7-0.2-2.4c-0.3-0.6-0.7-1.1-1-1.4
		c0.1,0.6-0.1,1.1-0.4,1.5c-0.4,0.4-1,0.6-1.5,0.6c-0.8,0.1-1.5-0.2-2.1-0.9l-1.6-1.4c-0.7-0.6-1.3-1-1.7-1.1l-0.6,0
		c-0.3,0-0.7,0.1-1.1,0.3l-1,0.3c-0.2,0-0.5,0-0.7-0.2l-0.9-1.1c-0.9-1.3-1.6-1.9-2-1.9h-0.1c-0.5,0-1.1,0.3-1.8,0.9l-0.6,0.6
		l-0.7,0.5C30.7,64.5,30,64.7,29.5,64.8 M83.9,98.1c-0.2,0-0.3,0.1-0.3,0.2c0,0.1,0,0.2,0.1,0.3l0.2,0.2l18.9,6.8l0.3-0.2l0.3-0.6
		c-0.2-0.2-0.7-0.3-1.3-0.4l-1-0.2L83.9,98.1 M82.2,98.9l-0.3-0.4c-0.8,0.7-1.2,0.9-1.3,0.6l-0.3-0.8c-0.1-0.1-0.2-0.2-0.3-0.1
		c-0.1,0-0.1,0.1-0.1,0.3v0.2l0.1,0.8c0,0.3-0.2,0.5-0.3,0.6l-1.5,0.2l-0.9-0.1l-0.2,0.3l0.5,0.6c0.4,0.5,0.6,0.9,0.6,1.4
		c0.1,0.9-0.1,1.8-0.5,2.7l0.6-0.2h3.2c-0.1-0.3-0.2-0.7-0.2-1.2c-0.1-0.9,0.1-1.8,0.4-2.4c0.4-0.8,0.9-1.4,1.3-1.9l0.6-0.5
		l-0.1-0.8C83,98.4,82.6,98.6,82.2,98.9 M79.4,101.9l0.5-0.1c0.1,0,0.2,0.1,0.3,0.2l0.1,0.4l-0.2,0.3l-0.4,0.1l-0.3-0.2
		c-0.1-0.1-0.1-0.3-0.1-0.4L79.4,101.9z"/>
	<path class="st0" d="M132.1,170.2c0.7,0.1,1.8,0,3.2-0.1c1.4-0.1,2.4-0.1,3.1-0.1l2.1,0.3c0.1-0.5,0.1-1,0-1.4
		c-0.2-0.5-0.5-0.8-1-0.8l-0.2-0.1C135.1,167.4,132.7,168.1,132.1,170.2 M158,172.6l-0.9,0c0.7,0.5,1.1,1.2,1.3,2
		c0.2,0.9,0,1.5-0.6,2h1.3c0.8-0.6,1-1.3,0.6-2.2C159.4,173.7,158.9,173,158,172.6 M156.4,172.6l-0.6,0c-0.7-0.1-2.1-0.5-4.1-1.2
		c0.8,0.4,1.3,0.9,1.6,1.7c0.3,0.8,0.3,1.5-0.1,2.3l0.9,0.3c1.1,0.4,2.1,0.7,2.9,0.9c0.8-0.4,1.1-1.1,0.9-2.1
		C157.7,173.6,157.2,173,156.4,172.6 M143.2,171.1l0.4,0.1c1.2,0.4,2.7,1.1,4.6,1.9c2.2,1,3.7,1.7,4.5,2c0.3-0.7,0.4-1.3,0.1-2
		c-0.2-0.7-0.7-1.2-1.4-1.5c-0.2-0.1-0.2-0.1-0.1-0.2l0.4-0.1c-4.1-1.4-7.1-2.3-8.8-2.7c0.4,0.2,0.6,0.5,0.7,0.8
		C143.6,170,143.5,170.5,143.2,171.1 M142.1,168.7l0.1-0.1l-1.5-0.3c0.6,0.5,0.8,1.2,0.6,2.2l1.4,0.4c0.2-0.4,0.3-0.8,0.3-1.1
		c0-0.5-0.2-0.8-0.7-0.9L142.1,168.7 M149.9,121.8c-0.7-0.3-1.6,0.1-2.6,1.1c-1.1,1-1.6,1.8-1.5,2.6c0.1,1,0,2.3-0.2,4.1
		c-0.3,1.9-0.4,3.3-0.4,4.2c0,0.2-0.1,0.3-0.4,0.2c-0.3,0-0.4-0.1-0.5-0.2c-1.8-2.9-2.7-5.6-2.6-7.9c0.1-1.3,0.1-2.3,0-2.9
		c-0.1-1-0.5-1.8-1.1-2.5l-1.5-1.8c-0.4-0.4-1-0.7-1.9-0.8c-1-0.1-1.6,0.1-1.9,0.6l1.6-0.1c0.6,0,1.1,0.2,1.5,0.6
		c0.5,0.5,0.9,1.1,1.2,2c0.2,0.5,0.3,1.3,0.4,2.4c0,0.2-0.1,0.2-0.4,0.2c-0.3-0.1-0.5-0.2-0.6-0.3c-0.6-2.6-2.2-2.4-4.8,0.5
		l-0.5,0.5c0.5,0,1.3-0.2,2.3-0.6c0.9-0.2,1.6,0.1,2.1,0.7c0.8,0.9,1.2,1.6,1.4,2.2c0.1,0.5,0.1,0.8-0.1,1.1
		c-0.3,0.3-0.5,0.6-0.6,0.9c-0.2,1,0.1,2.3,1.1,3.8c1.3,2.1,2,3.3,2.1,3.7c1.3,3.7,2.2,5.3,2.9,4.8h0.2c0.2-2.9,0.9-5.5,2.3-8
		c1.4-2.5,3.3-4.5,5.7-6.1l0.2-1.5c0.1-0.6,0-1-0.2-1.3C152.8,123.1,151.7,122.5,149.9,121.8 M163.2,174.6c0.3-0.9,0.3-1.7,0-2.6
		c-0.3-0.8-0.8-1.5-1.5-2.1l-0.4,0.8c-0.6,0.9-1.6,1.6-2.9,1.9c0.8,0.5,1.4,1.1,1.8,1.9c0.4,0.8,0.3,1.6-0.2,2.2
		c0.5-0.1,0.9-0.3,1.3-0.6C162,175.7,162.6,175.2,163.2,174.6 M164.6,167c0.8,0.6,1.4,1.4,1.6,2.5c0.3-1.3,0.2-2.8-0.1-4.4
		c-0.7-0.8-1.6-1.1-2.4-1.1c-0.9,0.1-1.7,0.5-2.3,1.4v0.1l0.4,1.3C162.8,166.3,163.7,166.4,164.6,167 M165.2,171.8
		c0.7-1.2,0.7-2.4-0.1-3.7c-0.8-1.4-1.9-1.6-3.2-0.9c0.2,0.8,0.2,1.6,0,2.3c0.7,0.6,1.3,1.2,1.7,1.9c0.4,0.8,0.6,1.6,0.5,2.4
		c0.5-0.6,0.9-1.2,1.2-1.9L165.2,171.8 M163.4,123.5l-0.8-0.6c-0.2-0.1-0.4-0.1-0.5,0c-0.4,0.4-0.2,1.2,0.7,2.2v0.2l-0.2,0
		c-0.3,0-0.5-0.1-0.6-0.2l-0.7-0.8l-3.4,0.9l0.3,0.8c0,0.2-0.1,0.2-0.4,0.2c-0.3-0.1-0.5-0.2-0.6-0.3c-0.1-0.6-0.4-1-0.6-1.3
		l-0.4-0.2H156c-0.5,0.2-0.5,0.7-0.2,1.5l0.3,0.7c0.1,0.2,0,0.2-0.3,0.2c-0.3,0-0.4-0.1-0.6-0.2l-0.1-0.2l-0.9,0.6l-0.1,0.2
		c0,0.1-0.1,0.2-0.4,0.1c-2.2,1.5-3.9,3.5-5.2,5.9c-1.3,2.3-2.1,4.8-2.2,7.5l4.9-4.3c1.3-1.1,2.5-1.7,3.5-2l1.3-0.2
		c0.5,0,0.8,0.2,1.1,0.6c0.3,0.4,0.7,0.7,1.4,0.9c0.9,0.3,1.4,0.5,1.6,0.7c0.7,0.5,1.2,1.2,1.4,2l0.8,2.8c1.2,0.1,2.2-0.1,2.9-0.6
		c0.7-0.4,1.4-1.2,2-2.4c0.8-1.4,1.8-2.3,3-2.9c2-0.9,3.3-2,4-3.5c0.3-0.5,0.7-0.9,1.3-1.1c-0.8-0.9-1.6-1.4-2.2-1.5
		c-0.8-0.2-1.3-0.4-1.7-0.6c-0.7-0.4-0.9-0.9-0.8-1.4l0.8-1.4c0.4-0.5,0.6-1,0.6-1.3l0.1-1.2c0-0.5,0.1-0.9,0.2-1.2l-8.1,1.7
		l0.4,0.4c0.1,0.1,0.1,0.2,0,0.2l-0.2,0.1c-0.3,0-0.5-0.1-0.6-0.2L163.4,123.5 M167.6,128.9l-0.2,0.1c-0.3,0-0.5,0-0.6-0.2
		c-0.4-0.5-0.8-0.6-1.1-0.3c-0.1,0.1-0.2,0.2-0.2,0.2l0.1,0.3l0.4,0.4c0.2,0.2,0.2,0.3,0,0.4l-0.6-0.1c-0.3-0.2-0.6-0.6-0.9-1.2
		v-0.1c0.4-0.5,1-0.7,1.7-0.6c0.6,0.1,1.1,0.4,1.6,0.9V128.9 M162.4,133.1c0.2,0.2,0.1,0.3-0.1,0.3c-0.2,0-0.4,0-0.7-0.2
		c-0.6-0.5-1.2-0.7-1.8-0.7c-0.3,0-0.3,0.3-0.1,0.7l0.5,0.8l-0.1,0.2l-0.2,0.1c-0.3,0-0.5-0.1-0.6-0.2c-0.4-0.5-0.6-0.9-0.6-1.2
		c-0.1-0.5,0.1-0.8,0.8-0.9C160.4,131.9,161.4,132.3,162.4,133.1 M171.2,107.9c-0.3,0.6-0.5,1.5-0.8,2.7l-0.8,2.8
		c0,0.1-0.2,0.2-0.4,0.1c-0.2,0-0.4-0.1-0.5-0.2c-0.4-0.6-0.6-1.4-0.6-2.4l-0.1-2.6c-0.1-0.3-0.2-0.5-0.4-0.6
		c-0.2-0.1-0.2,0.2-0.1,0.7l0.4,2.2c0.1,1.1,0.1,2.1-0.1,2.8c0,0.1-0.2,0.2-0.4,0.2l-0.4-0.1c-0.5-0.3-0.9-0.7-1.3-1.3l-0.9-1.6
		c-0.2-0.3-0.5-0.6-0.8-0.8c-0.4-0.2-0.4,0-0.2,0.6l0.4,1c0.5,1.1,1.2,2.1,1.9,3.1l0.1,0.1c-0.5,1.1-0.4,2.6,0.2,4.6l0.1,0.4
		l-0.1,0.5c0,0.4,0.1,0.9,0.5,1.2l1.1,0.9l2.9-0.6l-2.1-2.5V119c0.2-0.3,0.5-0.8,0.7-1.5c0.2-0.7,0.5-1.2,0.8-1.5l1.5-1.4
		c0.5-0.5,0.8-1,0.9-1.5c-0.5,0.6-1,1-1.6,1.2h-0.4c-0.2,0-0.4-0.1-0.4-0.3c-0.1-0.6,0.2-1.7,0.8-3.2
		C171.4,109.6,171.6,108.6,171.2,107.9 M200.2,105.1c-0.1-1.5,0-2.8,0.4-3.8c-0.8,0.4-2.1,0.6-3.9,0.5h-0.4l-0.1,0.6
		c-0.2,0.8-0.7,1.6-1.6,2.5l-2.1,2.1c-1.2,1.2-1.9,2.1-2.1,2.8c-0.3,0.6-0.3,1.2-0.2,1.7c0.1,0.6,0.4,0.9,0.9,0.9l1.6-0.4l0.6,0.1
		c0.3,0.1,0.3,0.2,0.1,0.3c-0.8,0.6-1.7,0.8-2.5,0.7l-2.1,0.1c-0.2,0-0.4-0.1-0.6-0.3c-0.2-0.2-0.1-0.3,0.2-0.2h1.4
		c-0.4-0.3-0.7-0.8-0.8-1.4c-0.1-0.6,0.1-1.3,0.6-2.1c0.5-0.8,1.1-1.6,2-2.5l2.3-2.4c0.6-0.7,1-1.6,1.3-2.6l-2.9-0.2l0,0.1
		c-0.3,0.5-1.5,1.6-3.4,3.1c-1.5,1.2-2.4,2.5-2.6,3.7c0,0.2,0,0.9,0.1,2.2c0.1,1,0.1,1.6-0.2,1.9c-0.2,0.2-0.6,0.3-1.3,0.4l-1.4,0.2
		h-0.4l-1.9,6.7c-0.1,0.5-0.1,0.9,0.1,1.3l0.5,1.3c0.1,0.5-0.1,0.9-0.4,1.4l0.3,0.7l0.7,0.3l3.2-2.8c1.4-1.1,2.6-1.7,3.8-1.9
		c0.9-0.1,1.5-0.1,1.9,0l1.3,0.3c0.6,0.2,1,0.2,1.2,0c0.5-0.3,0.8-0.8,1.1-1.5l0.6-1.8c0.3-1,0.6-1.7,0.8-2.2
		c0.3-0.8,0.7-1.4,1.2-1.9c0.4-0.4,1-1,1.8-1.7c0.7-0.7,1-1.4,1.1-2.2L200.2,105.1 M196.4,104.8l0.1-0.1h0.6
		c0.3,0.1,0.4,0.3,0.3,0.4l-0.1,0.1h-0.6C196.3,105.1,196.2,104.9,196.4,104.8 M195.9,107.2c-0.3-0.1-0.4-0.3-0.2-0.4l0.2-0.2
		c0.2-0.1,0.4-0.1,0.6,0l0.2,0.1c0.1,0.1,0.1,0.2,0,0.2l-0.2,0.2H195.9 M195.2,107.4c0.2,0.2,0.1,0.2-0.2,0.2
		c-0.2,0-0.3-0.1-0.5-0.2c-0.2-0.2-0.1-0.3,0.1-0.3C194.9,107.1,195.1,107.2,195.2,107.4 M193.6,110.6c-0.2-0.2-0.1-0.2,0.2-0.2
		c0.2,0,0.4,0.1,0.6,0.2c0.2,0.2,0.1,0.3-0.2,0.3C193.9,110.9,193.8,110.8,193.6,110.6 M196.6,109.5l-0.2-0.1
		c-0.1-0.1-0.1-0.2-0.1-0.2l1.2,0l0,0.2l-0.1,0.1l-0.2,0.1C197.2,109.6,196.9,109.6,196.6,109.5 M197.6,106.8
		c-0.1-0.1,0-0.2,0.2-0.3c0.3,0,0.5,0.1,0.6,0.2l0.1,0.1v0.2l-0.2,0.1C198.1,107.2,197.9,107.1,197.6,106.8L197.6,106.8
		 M211.3,107.9c0.2-0.8-0.1-1.3-0.9-1.5l-2.3-0.1l0.1,0.4c0,0.3,0.2,0.8,0.7,1.4l0.6,0.8l0.6,0.4
		C210.7,108.9,211.1,108.4,211.3,107.9 M203.6,107.4c0.5-0.5,1.2-0.9,2.2-1.2v-0.2c0-0.3,0.2-0.4,0.6-0.4l-0.4-0.4
		c-0.9,0.3-1.7,0.5-2.4,0.4c-1,0-1.7-0.2-2-0.8c-0.6-1-0.1-2.1,1.6-3.1c-0.5-0.7-0.8-1.3-1.1-1.9l-0.1,0.2l-0.5,0.8
		c-0.5,0.9-0.8,1.9-0.9,2.9c-0.1,0.9,0,1.9,0.2,3.1l0.2,1.8c0,0.7-0.1,1.3-0.2,1.8c-0.3,0.5-0.8,1.1-1.5,1.8
		c-0.8,0.7-1.3,1.3-1.6,1.7c-0.6,0.9-1.2,2.4-1.9,4.4c-0.3,0.9-0.6,1.6-0.9,1.9c-0.5,0.7-1.1,0.9-1.8,0.7c-2.1-0.5-4-0.3-5.7,0.8
		l-4.7,3.5l1.6,1.6c0.9-0.4,2.1-1,3.6-1.9c1.4-0.6,2.7-0.7,4.1-0.3c1.3,0.4,2.6,1,3.7,1.9c1.3,1,2.1,2,2.5,3.2
		c0,0.2-0.1,0.2-0.4,0.2c-0.3-0.1-0.5-0.2-0.6-0.4c-0.5-1.4-1.7-2.6-3.5-3.7c-1.9-1.1-3.6-1.4-4.9-0.8l-3.8,2.2
		c0.6,0.3,1.5,0.3,2.9,0.2c1.5-0.1,2.4-0.1,2.9,0c1.4,0.3,2.3,0.9,2.9,1.6c0.7,0.9,0.8,1.9,0.2,3.1c-0.1,0.2-0.3,0.2-0.6,0.1
		c-0.3-0.1-0.5-0.2-0.4-0.4c0.9-1.9,0.4-3.2-1.6-3.7l-5.2-0.2c-0.6,0-1.2-0.2-1.8-0.6l-0.8,0.3c-0.2,0-0.4,0-0.6-0.2
		c-0.2-0.2-0.2-0.3,0-0.3l0.8-0.3l-0.9-0.9c-0.4-0.4-0.7-0.7-1.1-0.9c0.1,0.8-0.1,1.4-0.7,2c-0.1,0.1-0.3,0.1-0.6,0
		c-0.3-0.1-0.4-0.2-0.3-0.3c0.6-0.6,0.8-1.3,0.6-2.1l-0.1-0.2l-1.4,1.2c-0.1,0.1-0.4,0.1-0.7,0c-0.3-0.1-0.4-0.2-0.2-0.3
		c1.1-1,1.8-1.8,2-2.2c0.4-0.8,0.3-1.7-0.4-2.8c0-0.1,0-0.2,0-0.4l0.1-0.4l2.8-9.8c0.5-1.5,0.3-3.1-0.6-4.8
		c-0.9-1.7-2.1-2.8-3.6-3.1c0.7,0.4,1.2,1,1.4,1.7c0,0.1-0.1,0.1-0.3,0.1h-3.6c-0.9,0-1.7,0.1-2.6,0.4c-0.3,0.9,0.1,1.2,1.1,0.7
		c1.3-0.2,2.4-0.1,3.2,0.3c0.3,0.1,0.4,0.3,0.2,0.4l-3.1,1.6c-1.2,0.7-2,1.5-2.4,2.4c0.5-0.1,1.4-0.5,2.8-1.4
		c1.1-0.6,2.1-0.8,3.1-0.5l0.2,0.1v0.2c-0.2,0.3-0.9,0.9-2.1,1.9c-0.9,0.7-1.4,1.4-1.5,2.1l1.5-1.6c0.7-0.5,1.5-0.9,2.4-1.1l0.4,0.1
		l0.3,0.2c0.3,0.6,0.4,1.3,0.2,2.1c-0.1,0.5-0.4,1.1-0.8,1.9l-1.5,2.5c-0.5,1-1,1.8-1.3,2.5c-0.8,1.8-1.6,2.7-2.4,2.7
		c-0.4,0-0.7,0.5-0.8,1.4l-0.3,2.1l-1.1,1.8c-0.3,0.9,0,1.4,1,1.6l1.6,0.5c0.5,0.3,1.5,1.1,3.1,2.4c1.2,1,2.4,1.7,3.4,2.1l2.7,0.9
		c1.1,0.3,2,0.7,2.6,1.1c0.4,0.3,1,0.9,1.7,1.8c0.6,0.7,1.3,0.8,2.1,0.3c0.1-0.1,0.3,0,0.6,0.1c0.3,0.1,0.3,0.2,0.1,0.3
		c-0.7,0.4-1.2,0.6-1.6,0.7c-0.5,0-1-0.2-1.5-0.7l-1.5-1.7c-0.6-0.6-1.2-1.1-2-1.2c-1.7-0.4-2.9-0.8-3.6-1.1c-1.1-0.4-2.2-1-3.4-1.8
		l-1.3-1.2c-0.4,0.2-0.9,0.7-1.5,1.5L173,134l-2.7,1.6c-1.1,0.6-1.9,1.4-2.3,2.2l-1.1,1.9c-0.4,0.7-1,1.1-1.6,1.4
		c-0.7,0.3-1.7,0.4-3,0.2l0.9,3.8c1.8,1.5,2.8,3.7,3,6.6c0.2,3-0.6,5.3-2.2,6.9c-0.1,0.1-0.4,0.1-0.7,0c-0.3-0.1-0.4-0.3-0.2-0.4
		c1.4-1.3,2.1-3.2,2.2-5.6c0.1-2.4-0.5-4.4-1.7-6.1c0.3,1.3,0.5,2.3,0.6,3.2c0.1,1.2,0.1,2.3-0.2,3.2c0,0.1-0.2,0.2-0.5,0.1
		c-0.3-0.1-0.4-0.2-0.4-0.3c0.3-1.1,0.3-2.4,0.2-3.8c-0.1-1-0.4-2.2-0.8-3.7l-0.8-2.6c-0.3-1-0.4-1.8-0.6-2.5
		c-0.2-1.1-0.4-1.9-0.6-2.4c-0.4-0.8-1.1-1.3-1.9-1.5c-0.7-0.2-1.2-0.4-1.5-0.5l-0.8-0.8c-0.3-0.2-0.7-0.1-1.1,0.1
		c-1.9,1.1-4,2.7-6.3,4.8l-2.4,2.2v0.1l-0.1,0.1c-1.5,1.7-2.1,3-1.6,3.9c0.1,0.2,0,0.3-0.3,0.3c-0.3,0-0.5-0.1-0.6-0.2
		c-0.2-0.5-0.3-1-0.1-1.6l-3.7-3.1c-0.9-1-1.5-1.9-1.7-2.7c-0.2-0.9-0.5-1.6-0.7-2.1c-0.4-0.9-0.9-1.3-1.5-1.1
		c-0.3,0.1-0.8,0.3-1.5,0.7c-0.6,0.4-1.1,0.6-1.5,0.6h-0.8l-0.8-0.1c-1-0.1-2,0-2.9,0.4c-1.1,0.5-1.8,1.2-2.1,2.1l0.8-0.8
		c0.3-0.2,0.6-0.4,0.8-0.4l0.9-0.1c0.4,0,1.1,0.1,1.9,0.5l1.7,0.8c0.2,0.1,0.3,0.3,0.2,0.4c-0.1,0.2-0.4,0.4-0.8,0.5l-0.8,0.2
		c-0.7,0.2-1.3,0.5-1.6,0.8c-0.4,0.3-0.8,0.8-1.1,1.4l-0.2,0.6c0.5-0.6,1.1-1,1.6-1.1l2.1-0.5l2.1-0.1c0.9,0.2,1.2,0.6,0.9,0.9
		c-0.3,0.5-1.1,1.1-2.4,1.7c-1.2,0.5-1.9,1.2-2.1,2c-0.3,0.7-0.4,1.2-0.5,1.5l0.3-0.6c0.3-0.6,0.8-1.1,1.4-1.2l1.8-0.6
		c0.8-0.4,1.8-1.1,3-2.1c1-0.6,2-0.3,2.8,0.9l9.1,12.6c0.8,0.7,1.4,0.7,2.1-0.1c1-1.3,1.9-2.8,2.6-4.4c0.9-2,1.6-3.5,1.9-4.6
		c0.5-2,0.4-3.6-0.3-4.6c0-0.1,0-0.2,0.1-0.2c0.1-0.1,0.1-0.1,0.2-0.1l0.8-0.1c0.2,0,0.4,0,0.6,0.2c0.2,0.2,0.2,0.3-0.1,0.4
		c-0.4,0.1-0.6,0.3-0.4,0.7l0.3,1.2c0,1.4-0.3,3-1,4.8c-0.7,2-1.5,3.7-2.2,4.9c0.3,0.9,0.7,1.8,1.4,2.8l3.4,4.2
		c0.8,0.9,1.3,1.2,1.5,0.9c0.1-0.1,0.2-0.2,0.5-0.1l0.4,0.2l1.1,2.4c0.6-0.7,1.4-1.1,2.4-1.2c0.9,0,1.8,0.3,2.6,0.9
		c-0.4-1.8-0.4-3.1-0.1-4c0.3-1.2,1.1-2.2,2.2-2.9c0.7-0.4,1.8-1,3.4-1.7c1.4-0.7,3-1.7,4.8-3.1l8.7-6.8c-0.7-1.4-1.2-2.6-1.6-3.6
		c-0.1-0.2,0-0.2,0.3-0.1c0.3,0,0.5,0.1,0.6,0.3l1.2,2.8l1.2-1.1c-1.1-1.2-2-2.2-2.8-3c-0.2-0.2-0.2-0.3,0.1-0.3
		c0.3,0,0.5,0,0.6,0.1l2.6,2.7l1.4-1c1-0.6,1.7-0.9,2.2-1.1l1.9-0.4c0.8-0.2,1.4-0.4,1.8-0.7c0.7-0.4,1.4-1.1,2.1-2.1l1.6-2.5
		l-0.9-0.3l-0.1-0.2l0.1-0.2c0.2-0.1,0.4-0.1,0.6,0.1l1.1,0.1c0.4-0.2,0.6-0.4,0.8-0.8l0.1-0.3c-0.1-0.1-0.1-0.2-0.1-0.2h0.1
		c0-0.5-0.2-0.9-0.7-1.2c-0.2-0.2-0.2-0.3,0-0.4l0.6,0.1c0.4,0.3,0.7,0.6,0.9,0.9l2.6-2.1l-1-1.2c-0.1-0.2-0.1-0.2,0.2-0.2
		s0.5,0.1,0.6,0.2l0.6,0.8l2-2l-1.3-0.7c-0.3-0.1-0.4-0.2-0.2-0.3l0.5-0.1l1.4,0.6c0.5-0.7,0.5-1.5,0-2.2l-1.7,0.1
		c-0.2,0-0.4-0.1-0.6-0.2c-0.2-0.2-0.1-0.3,0.2-0.3l1.8-0.1l-0.4-0.8c-0.4-1-0.1-2.2,0.9-3.5l2.4-3.2c0.4-0.8,0.7-1.7,0.9-2.6
		l-1.1-0.4c-0.2-0.1-0.2-0.2-0.1-0.2h0.4l0.9,0.3l0.1-1.7h-0.9l-0.3-0.2c0-0.1,0-0.1,0.2-0.1h1l-0.1-0.9l-0.5,0.2l-0.4-0.1
		c-0.1-0.1-0.1-0.2,0.1-0.2l0.8-0.2l-0.6-1.9l-0.9,0.2l-2.9,0.2c-1.3-0.1-2.1-0.6-2.4-1.3S203,108.1,203.6,107.4 M202.8,119.9
		c-0.1-0.2,0-0.3,0.3-0.3c0.3,0,0.5,0.1,0.6,0.2c0.6,1.3,1,2.2,1.1,2.8c0.2,1.2-0.2,2-1.2,2.5c-1.3,0.7-2.5,0.8-3.4,0.2
		c-0.6-0.4-1.1-0.9-1.6-1.5s-0.6-1.2-0.7-1.9c0-0.2,0.1-0.3,0.4-0.2c0.3,0.1,0.5,0.2,0.5,0.3c0.1,0.7,0.4,1.4,0.8,2
		c0.5,0.8,1.1,1.1,1.8,1c1.3-0.3,2-0.7,2.2-1.4c0.2-0.5,0.2-1.2,0-1.9L202.8,119.9 M202.9,121.4c0.3,0.1,0.4,0.2,0.4,0.3
		c-0.4,0.7-0.9,1-1.8,0.9c-0.8,0-1.3-0.4-1.8-1c-0.1-0.2,0-0.3,0.3-0.3c0.3,0,0.5,0.1,0.6,0.2c0.3,0.5,0.6,0.7,0.9,0.6
		c0.3-0.1,0.6-0.3,0.8-0.7C202.4,121.3,202.6,121.3,202.9,121.4 M170.7,140.4c0.3,0.1,0.4,0.2,0.3,0.4c-0.4,0.5-0.7,1-0.9,1.6
		c0,0.2-0.2,0.2-0.5,0.1c-0.3-0.1-0.5-0.2-0.4-0.4c0.1-0.6,0.4-1.1,0.9-1.7L170.7,140.4 M168.4,147.9c0.3,0,0.4,0.1,0.4,0.3
		c0,1.9-0.2,4-0.6,6.2c0,0.2-0.2,0.2-0.5,0.1c-0.3-0.1-0.5-0.2-0.4-0.4c0.5-2.3,0.7-4.3,0.6-6.1C167.9,147.9,168,147.9,168.4,147.9
		 M175.8,140.4c-0.3,0-0.5,0-0.6-0.2l-0.6-0.6c-0.2-0.2-0.3-0.3-0.1-0.4c0.2-0.1,0.4-0.1,0.7,0.1c0.2,0.2,0.5,0.4,0.9,0.8
		c0.1,0.1,0.1,0.2,0,0.2L175.8,140.4 M173,142.3c0-0.2,0.2-0.3,0.4-0.2c0.3,0,0.5,0.1,0.5,0.3c0,0.6,0.1,1.3,0.2,2
		c0,0.2-0.1,0.2-0.4,0.2c-0.3-0.1-0.5-0.2-0.6-0.4C173.1,143.7,173,143,173,142.3 M179.6,144.2l-0.2-0.1c0-0.1,0-0.2,0.1-0.2
		c0.2-0.1,0.4-0.1,0.7,0.1c0.6,0.3,1,0.8,1.1,1.5c0.1,0.7-0.1,1.3-0.5,1.9c-0.5,0.6-1.1,0.8-1.8,0.6c-0.7-0.2-1.2-0.6-1.6-1.2
		c-0.1-0.2,0-0.3,0.3-0.2c0.3,0,0.5,0.1,0.6,0.2l0.4,0.6c0.2,0.2,0.4,0.2,0.6,0.1c0.4-0.2,0.6-0.4,0.8-0.8c0.2-0.4,0.3-0.9,0.2-1.3
		C180.3,144.8,180,144.4,179.6,144.2 M197.8,126.7c0.1,0.2,0,0.2-0.2,0.2c-0.3,0-0.6-0.1-0.7-0.2c-2.1-2.7-4.3-3.5-6.5-2.4l-0.7-0.2
		c-0.3-0.1-0.3-0.2-0.1-0.3c1.5-0.7,3.1-0.7,4.6-0.1C195.5,124.3,196.7,125.3,197.8,126.7 M170.2,152.1c-0.3,0-0.5-0.1-0.6-0.2
		l-0.8-2.1c-0.1-0.2,0.1-0.2,0.4-0.1c0.3,0,0.5,0.1,0.6,0.2l0.8,2.1C170.7,152.2,170.5,152.2,170.2,152.1 M204.1,108.6
		c-0.3,0.9,0.1,1.4,1.2,1.6l2.6-0.1l0.6-0.2l-0.1-0.1c-0.5-0.3-1-0.7-1.4-1.3c-0.5-0.6-0.8-1.1-0.9-1.8
		C204.9,107.3,204.3,107.9,204.1,108.6 M206.1,104.3l-0.1-0.2c-0.7-0.6-1.3-1.4-1.7-2.2c-0.7,0.4-1.2,0.9-1.5,1.4
		c-0.3,0.4-0.4,0.8-0.3,1.1c0.1,0.4,0.6,0.6,1.2,0.5c0.7,0,1.3-0.2,2-0.5L206.1,104.3 M207.9,102.8c0.3-0.4,0.4-0.8,0.2-1.1
		c-0.1-0.4-0.6-0.6-1.2-0.5l-0.8,0.1c0.2,0.7,0.7,1.4,1.3,2.2L207.9,102.8 M194.6,98.2h-0.1c-2.8,0-5.2,1.1-7.4,3.3l-0.2,0.1
		l0.2,0.4c1.1-0.5,2.3-0.8,3.4-0.9l2.4-0.1l2.4,0.2C195.7,99.8,195.4,98.8,194.6,98.2 M195.8,96.6c0.1,0.3,0.1,0.7-0.2,1
		c-0.2,0.2-0.1,0.5,0.3,0.7c0.7,0.5,0.9,1.5,0.6,3l1.1,0.1c2.5-0.1,3.9-1.2,4.1-3.2c0.1-1,0.1-1.9-0.2-2.8c-0.4-1.2-1.1-1.6-2.1-1.2
		l-0.1,0h-0.1l-4.4,1.2C195.3,95.6,195.6,96.1,195.8,96.6 M197.3,96.1c-0.1-0.1-0.1-0.2-0.1-0.2c0.4-0.3,1.1-0.5,1.9-0.4
		c0.3,0,0.5,0.1,0.5,0.3c0,0.2-0.1,0.2-0.4,0.2c-0.4-0.1-0.8,0-1.1,0.2c-0.2,0.1-0.4,0.1-0.6,0L197.3,96.1 M197.8,97.9
		c0-0.1,0.1-0.2,0.4-0.2l1.1-0.2c0.2,0,0.5,0,0.7,0.2l0.1,0.2l-0.1,0.2l-1.6,0.2C198,98.2,197.8,98.1,197.8,97.9 M192.2,95.9
		c-0.7,0.2-1.3,0.4-1.8,0.8c-1.6,1-2.8,2.1-3.7,3.4c-0.1,0.1-0.1,0.4-0.1,0.8c2.1-2,4.6-3.1,7.3-3.1v-0.1c0.5-0.4,0.8-0.7,0.8-1
		c0.1-0.4-0.1-0.8-0.6-1.2L192.2,95.9z"/>
</g>
</svg>
