<?xml version="1.0" encoding="utf-8"?>
<!-- Generator: Adobe Illustrator 25.4.1, SVG Export Plug-In . SVG Version: 6.00 Build 0)  -->
<svg version="1.1" id="Awareness_x2C_PerkClip_x5F_d2287" image-rendering="auto"
	 xmlns="http://www.w3.org/2000/svg" xmlns:xlink="http://www.w3.org/1999/xlink" x="0px" y="0px" viewBox="0 0 240 240"
	 style="enable-background:new 0 0 240 240;" xml:space="preserve">
<style type="text/css">
	.st0{fill:#FFFFFF;}
</style>
<g>
	<rect width="240" height="240"/>
	<path class="st0" d="M100,122.8l-0.8,0.7l-0.5,0.9c-0.1,0.3-0.1,0.5,0,0.5c0.1,0.1,0.3,0.1,0.6-0.1l0.7-0.7l0.5-0.9
		c0.1-0.3,0.1-0.4,0-0.5C100.4,122.7,100.2,122.7,100,122.8 M84.7,121.7c0.4-0.1,0.7-0.2,0.9-0.5c0.2-0.3,0.2-0.8-0.2-1.3
		c-0.2,0.5-0.6,0.9-1.1,1.2l-1.2,0.4L84.7,121.7 M90.2,116.1c-0.4,0-0.8,0.2-1.2,0.7l-0.1,0.1l-0.4,0.6c-0.3,0.4-0.5,0.8-0.7,1.2
		c-0.2,0.4-0.2,0.6-0.1,0.7c0.2,0.1,0.6-0.2,1.2-0.9l9.3,6.4c0.1-0.5,0.3-1,0.8-1.5c0.2-0.3,0.5-0.6,0.8-0.8L90.2,116.1 M87.7,117.5
		l0.5-0.6l-2.4-1.6c-0.1-0.1-0.2-0.2-0.2-0.3c0-0.1,0-0.2,0.1-0.3l0.4-0.2h0.3l2.6,1.8l0.6-0.3l-3.7-2.5c-0.6,0.2-1.2,0.7-1.7,1.4
		c-0.3,0.4-0.5,0.9-0.6,1.4l-0.1,0.7l3.7,2.5c0-0.2,0.1-0.5,0.2-0.8l-2.6-1.8c-0.1-0.1-0.1-0.2-0.1-0.2c0-0.2,0-0.3,0.1-0.4l0.3-0.2
		h0.3L87.7,117.5 M86.2,112.3l0,0.2l0.2,0.2l13.8,9.3l0.3-0.2l0.3-0.4c-0.1-0.2-0.4-0.4-1-0.7l-0.8-0.3l-12.3-8.2l-0.2-0.1
		C86.3,112.2,86.2,112.2,86.2,112.3 M63.8,164.6l0.2-0.2l-0.2-0.2c-1.7-1-3.7-1.8-6-2.2l0-0.1c-0.2,0.4-0.8,0.8-1.6,1.1l-1.7,0.5
		l-7.2,0.2c0.1,0.8,0.2,1.3,0.3,1.4l1.1,0.4l1,0.2c0.5,0,0.8-0.1,1-0.2l0.4-0.7l0.1,0c1.6,0.7,3.4,1.2,5.3,1.3c2,0.2,3.8,0,5.5-0.5
		C62.8,165.2,63.4,164.9,63.8,164.6 M28.6,166.1L28.6,166.1c-1.8,0.5-3.5,0.6-4.9,0.3l-2.8-0.6c-0.8,0.7-1.1,1.6-1.1,2.8
		c0.1,1.2,0.5,2.1,1.5,2.6c0.4,0.2,0.9,0.3,1.4,0.3l1.5-0.4C27.1,170,28.6,168.3,28.6,166.1 M22,122.3L22,122.3
		c-1.4,0.2-2.5,1-3.2,2.3c-0.6,0.9-1.1,2.2-1.5,3.9c0.4,0.9,0.7,1.6,1,2.2c1.2,1.8,2.7,3.2,4.6,4.1c0.7,0.4,1.4,0.6,2,0.7
		c0.8,0.1,1.2-0.1,1.4-0.8c-1.4-0.4-2.8-1.4-4.2-2.9c-0.1-0.1-0.2-0.3-0.2-0.7c0-0.3,0-0.4,0.1-0.3c1.4,1.5,2.7,2.5,4,2.8l1.5,0.1
		l0.1-0.1h0.1c0.6-0.2,0.8-0.6,0.8-1.2c-1.3-0.3-2.8-1.4-4.5-3.1c-0.1-0.1-0.2-0.3-0.2-0.7c0-0.4,0-0.5,0.1-0.3c1,1,1.9,1.8,2.6,2.2
		c1.3,0.9,2.3,1.2,3.1,0.8c0.4-0.2,0.6-0.6,0.6-0.9l-0.2-0.3l-2.8-2c-0.5-0.3-0.9-0.7-1.2-1.3c-0.1,0-0.3-0.2-0.4-0.7
		c-0.3-0.7-0.4-1.5-0.4-2.3c0-0.8,0.1-1.6,0.4-2.3v-0.1C24.7,121,23.5,121.3,22,122.3 M37.9,104.3l-3.8-0.8
		c-1.8-0.5-3.2-1.1-4.1-1.8c-2-1.5-3-3.6-3-6.4c-4.1,1.3-7.8,3-11.1,5.1c-3.7,2.5-6.5,5.3-8.3,8.4c-0.8,1.4-1.2,2.9-1.1,4.5
		c0.1,1.3,0.5,2.8,1.2,4.5c1.6,3.4,3.7,6.1,6.2,8.2l2.3,1.5l0.5,0.2c0.4-1.7,0.8-3.1,1.4-4.1c0.8-1.4,1.9-2.2,3.2-2.5l-0.1-0.6
		c-1.1-4-2.8-6.9-5.1-8.7c-0.1-0.1-0.2-0.3-0.2-0.7c-0.1-0.3-0.1-0.5,0-0.4c0.7,0.5,1.4,1.1,1.9,1.9c2.6-0.9,4.9-1.6,6.9-2.1
		c0-0.1,0.1-0.1,0.2-0.1l3-0.7c0.2,0,0.3,0.1,0.4,0.6c0.1,0.4,0.1,0.6-0.1,0.6l-3,0.6v0.1c0.4,3.2,0.7,6.3,0.8,9.2
		c0.1,0.1,0.2,0.3,0.2,0.6c0.1,0.2,0.1,0.4,0,0.5l-0.2,0.4v1.8c1.5,1.1,3.1,1.8,5,2.3c1.8,0.5,3.5,0.7,5.3,0.7l1.5,0.1
		c0.7,0,1.2-0.1,1.5-0.3c0.2-0.1,0.3-0.3,0.4-0.8l0.1-0.9C39.7,117.5,39,110.6,37.9,104.3 M41.7,138.1c0.1-0.1,0.2,0,0.3,0.3
		c0.1,0.3,0.1,0.6,0,0.7l-1.8,3c3.6,7.2,5.5,14,5.8,20.3l4.1,0.2c1.6,0,2.9-0.1,4.1-0.4c1.4-0.3,2.4-0.7,3.1-1.3
		c0.1-0.1,0.2-0.2,0.2-0.1v-0.3c-0.2-7-0.6-12.8-1-17.2c-0.4-4-1-8.9-1.9-14.7c-1.6,2.3-4.2,4.2-7.8,5.8c-3.1,1.3-6.2,2-9.2,2.2
		c-3.4,0.2-6.5-0.4-9.4-1.7l-0.8,0.1l-0.6-0.1c0.1,1.5-0.6,2.1-2.2,1.7l-1.6,5.4c-0.7,2.3-1.2,4.1-1.5,5.5
		c-0.8,3.4-1.4,6.9-1.6,10.4c-0.1,1.9-0.2,3.4-0.2,4.4c0,0.8,0,1.3,0.1,1.7l0.3,0.2l0.9,0.4h0l0.1,0.1c1,0.5,2.2,0.7,3.4,0.8
		l3.5-0.3l1.4-0.3c0.7-0.2,1.1-0.4,1.1-0.5l1.1-4.6c0.8-3,2-6,3.4-9.1C37,145.8,39.3,141.6,41.7,138.1 M78.1,119.8
		c-0.6,0-1,0.2-1.2,0.4c-0.1,0.2-0.1,0.5,0.1,0.8c0.1,0.4,0.3,0.7,0.7,1.1l1,0.7c0.7,0.4,1.3,0.7,1.9,0.7c0.6,0,0.9-0.1,1.1-0.4
		c0.2-0.3,0.2-0.7-0.1-1.2c-0.3-0.6-0.8-1-1.5-1.4C79.3,120,78.7,119.8,78.1,119.8 M76.4,119.8c0.3-0.5,0.8-0.7,1.5-0.7
		c0.5,0,1,0.1,1.5,0.3c-0.6-0.7-0.8-1.3-0.6-1.9l-0.2,0c-0.5,0.1-1.2,0.6-2.1,1.7l-1.3,1.8c0.4,0,0.8,0.1,1.2,0.2
		C76.1,120.9,76,120.4,76.4,119.8 M79.7,117.7c-0.2,0.4-0.2,0.9,0.2,1.5c0.4,0.6,1,1.2,1.8,1.7l0.8-0.1c0.5-0.2,0.9-0.4,1.2-0.6
		c0.3-0.2,0.5-0.5,0.7-0.8c0.1-0.3,0.1-0.5,0-0.5c-1.2-0.9-2.2-1.5-3.1-1.7C80.5,117,79.9,117.2,79.7,117.7 M75.2,121.7
		c-0.6,0-1,0.1-1.1,0.4c-0.1,0.2-0.1,0.4-0.1,0.7c0.1,0.6,0.7,1.2,1.8,1.8c0.7,0.4,1.4,0.6,1.9,0.7c0.5,0.1,0.9,0,1.1-0.3
		c0.1-0.2,0.1-0.5,0-0.8c-0.1-0.3-0.4-0.7-0.7-1c-0.2-0.1-0.5-0.3-0.7-0.6l-0.3-0.2C76.4,122,75.8,121.7,75.2,121.7 M74.1,117.2
		l-0.4,0.2l-0.7,0.6c-0.4,0.5-0.8,1-1.2,1.6c-0.4,0.6-0.5,1-0.5,1.2l0.6,0.6l0.9,0.5l0.5,0.2c0-0.2,0.1-0.3,0.2-0.5
		c0.3-0.3,0.7-0.5,1.2-0.6c0.6-0.9,1.2-1.7,1.8-2.3l-0.9-0.2c-0.5-0.2-1-0.5-1.2-0.9C74.2,117.6,74.1,117.5,74.1,117.2 M74,119.3
		c0.1,0,0.2,0,0.3,0l0.2,0.2c0.1,0.1,0.1,0.2,0,0.3l-0.2,0.2c-0.3,0.1-0.5,0-0.6-0.2C73.6,119.7,73.7,119.5,74,119.3 M80.4,112.8
		l0.3,0.5c0.2,0.4,0.2,0.9,0.2,1.3c-0.1,0.7-0.5,1.3-1,2l0.5-0.1c0.2,0,0.7,0.1,1.4,0.3l1.2,0.4l0.1-1.1c0.1-0.8,0.4-1.4,0.8-1.8
		c0.8-0.9,1.5-1.4,2-1.6l0.1-0.7c-0.3,0-0.7,0.1-1.1,0.3l-0.2-0.3c-0.8,0.4-1.2,0.4-1.2,0.2c0-0.6-0.1-0.9-0.3-0.8
		c-0.1,0-0.1,0.1-0.1,0.2v0.2l-0.1,0.6c-0.1,0.3-0.2,0.4-0.4,0.4l-1.3-0.1l-0.7-0.2L80.4,112.8 M82.2,114.4c0.1-0.1,0.2-0.1,0.3,0
		l0.2,0.2c0.1,0.3,0.1,0.5-0.2,0.6c-0.3,0.1-0.5,0-0.6-0.2c0-0.1,0-0.3,0-0.4C81.9,114.5,82,114.4,82.2,114.4 M79.8,112.9
		c0.1,0.4,0.1,0.8,0.1,1.2l-0.8,1.8l-1.1,1.6l0.6-0.2c0.3-0.1,0.7-0.5,1.1-1C80.5,115.1,80.5,114,79.8,112.9L79.8,112.9 M70.1,115
		c0-0.8,0.2-1.6,0.6-2.3c-0.5,0.6-1.1,1.3-1.7,2.1c-0.9,1.3-1.5,2.6-1.9,3.8c-0.7,1.8-0.7,3.2,0,3.9l2.5,0.7
		c-0.8-1.2-1.2-2.6-1.1-4.1c0-1.5,0.5-2.9,1.4-4.1H70.1 M76.6,111.3c-1.3-0.5-2.4-0.6-3.3-0.4c0,0.3,0,0.4-0.1,0.4l0,0.1
		c-1,0.6-1.7,1.3-2.2,2.3c-0.5,1-0.7,2-0.3,3c0.1,0.3,0.1,0.5-0.1,0.6c-0.1,0-0.2-0.1-0.3-0.5l-0.2-0.6c-0.9,1.3-1.2,2.6-1.1,4
		c0.1,1.4,0.8,2.5,2.1,3.5l0,0.1l0.1,0c0.7,0.6,1.5,1,2.2,1.2l1.9,0.1l-0.3-0.3c-0.3-0.2-0.6-0.5-0.9-0.9s-0.5-0.8-0.6-1l-2.2-1.3
		c-0.4-0.3-0.6-0.5-0.6-0.6c-0.1-0.1-0.1-0.3,0-0.5l0.2-0.5c0.5-0.8,1.1-1.7,1.8-2.5l1.3-1.2c0-0.2,0-0.5,0.1-0.8l0.4-1.4l0.7,0
		c-0.2,0.5-0.3,1.1-0.4,1.6c-0.1,0.8-0.1,1.4,0.2,1.7c0.3,0.3,0.6,0.6,0.9,0.7c0.3,0.1,0.6,0.1,0.8,0c2.2-2.5,3.1-4.1,2.7-4.8
		C78.7,112.5,77.8,111.8,76.6,111.3 M48.5,94.5c0.6,1.9,0.8,3.4,0.5,4.4c-0.2,1.2-0.8,2.2-1.6,3c-0.6,0.6-1.6,1.2-2.9,1.9
		c1.4,5.7,2.5,12.6,3.2,20.8c0.4,0,1.1-0.3,1.9-0.9l3.7-3.4l-1.8-11.6c0-0.4,0-0.5,0.2-0.4c0.1,0.1,0.2,0.3,0.2,0.6l0.2,1
		c1.4,2.7,3.3,5.2,5.9,7.4c2.5,2.1,5.2,3.7,8.2,4.8c-0.3-0.8-0.3-1.7-0.2-2.8c0.1-0.9,0.4-1.7,0.8-2.6c1.2-3,2.7-5,4.4-6.1l-2.5-1.4
		c-1.4-0.9-2.6-1.8-3.5-2.8l-2.8-3.4c-1.8-2.1-4-4-6.8-5.7c-1.4-0.9-2.5-1.5-3.5-1.9C51,94.9,49.7,94.6,48.5,94.5 M49.5,72.4l-1.5,1
		c0.5,0.7,1.1,1.6,1.6,2.6c0.4-0.7,0.6-1.3,0.6-1.7c0.1-0.5,0-1-0.2-1.4C50,72.6,49.8,72.4,49.5,72.4 M27.4,95.2l0.1,0.5
		c-0.1,2.4,0.9,4.1,3,5.4c1.3,0.8,3.5,1.4,6.3,1.9l0.9,0.1c0.2,0.1,0.4,0.4,0.5,0.7l0.5,2.6c0.4,2.6,0.7,5.2,0.9,8
		c0.4,3.5,0.6,6.8,0.7,9.9l0.2,1.8c0,0.8-0.1,1.4-0.3,1.7c-0.2,0.3-0.7,0.5-1.4,0.5h-1.6c-4.4,0.1-8.1-0.9-11-3l0-0.1v0.9
		c0.3,0.4,0.7,0.8,1.3,1.2l1.6,1l1,0.9c0.4,0.4,0.6,0.8,0.7,1.2c0.1,0.6,0,1.1-0.2,1.6c-0.2,0.5-0.7,0.8-1.3,0.7l-0.3-0.1
		c0.1,0.6,0,1.2-0.2,1.6c2.8,1,5.8,1.4,9,1.2c3.1-0.2,6-1,8.9-2.3c3.6-1.7,6.1-3.6,7.5-5.7l0.2,0l-0.9-5.7l-4,3.4
		c-0.8,0.6-1.5,0.8-1.9,0.7c-0.1,0-0.2-0.2-0.2-0.4l0-0.4c-0.8-8.8-1.9-16-3.4-21.6c-0.1-0.3-0.1-0.5,0-0.6l2.4-1.4
		c0.8-0.6,1.4-1.3,1.8-2.1c0.3-0.7,0.5-1.6,0.4-2.5c0-0.7-0.2-1.5-0.5-2.4c-1.3,1.4-2.7,2.4-4.4,3.2c-0.4,0.9-1,1.6-1.8,2.1
		c-0.8,0.5-1.7,0.8-2.8,0.9c-2,0.2-3.9-0.3-5.7-1.5c-1.9-1.2-2.9-2.8-3.1-4.7L27.4,95.2 M28.2,71.8h-0.1c-0.9,0.1-1.5,0.6-1.7,1.6
		c-0.2,1,0.3,1.9,1.6,2.5c0.4,0.2,0.4,0.4,0.1,0.6c-1,0.7-1.7,1.3-2.2,1.9c-1.2,1.3-1.7,2.7-1.6,4.3c0.4-1.2,1-2.3,1.8-3.3
		c0.9-1.1,1.5-1.7,1.9-1.9l0.1,0c0.2,0,0.3,0,0.3,0.1c0.1,0.1,0,0.2-0.1,0.4c-0.6,0.6-1.2,1.2-1.8,1.8c-0.5,0.5-0.9,1.2-1.3,2.1
		l-0.8,1.7l0.1,0.5c0.5-1.4,1.2-2.5,1.9-3.3c0.5-0.6,1-1,1.5-1.3h0.1c0.2,0,0.2,0.1,0.2,0.2c0,0.2-0.1,0.4-0.3,0.5
		c-0.4,0.3-0.8,0.6-1.1,1c-0.4,0.5-0.8,1.1-1.4,1.9l-0.8,1.4v0l0.1,0.5l0.8-0.3c0,0.1,0,0.2-0.1,0.3c-1.1,1-1.3,2.1-0.6,3.4
		c0.6,1.2,1.6,1.8,3,1.7l0.4-0.1c1.7,2.6,3.6,4.5,5.9,5.6c0.2,0.1,0.3,0.2,0.3,0.3c0,0.1-0.1,0.2-0.3,0.2c-0.7,0.1-1.5-0.2-2.5-0.8
		c0.2,1.2,1.1,2.2,2.8,3.1c1.5,0.8,2.9,1.2,4.3,1.1c0.7-0.1,1.2-0.2,1.5-0.5h-0.1l-1.7-0.2c-0.7-0.2-1.1-0.4-1-0.5l0.1-0.1l1.6,0.1
		c1.4-0.1,2.9-0.6,4.4-1.5c2.9-1.5,5-4,6.2-7.4c1.1-3.3,1.2-6.6,0.4-9.9c-0.6-2-1.6-4.1-3-6.1c-0.7-0.1-1.4-0.4-2.1-0.9l-1.3-1.4
		c-0.8-0.9-1.3-1.4-1.6-1.5l-0.5-0.1c-0.5,0-1.1,0.3-1.7,0.8c-0.4,0.2-0.7,0.2-0.9,0.2c-0.6,0.1-1.3-0.1-2.2-0.6l-1.2-0.2
		c-1.1,0.1-2.1,0.7-3,1.8c-0.3,0.3-0.7,0.5-1.1,0.6L28.2,71.8 M34.6,73.9l0.2-0.1c0.2,0,0.3,0.1,0.4,0.2c0.5,0.5,0.8,0.9,0.7,1.1
		l-0.4,0.2c-0.4,0.2-0.7,0.3-0.9,0.5l-1.7,1.1c-0.2-0.4,0.1-1,0.7-1.9L34.6,73.9 M36.3,78.6c0.2,0.3,0.3,0.7,0.4,1.1
		c0.1,0.5,0,0.9-0.1,1.2c-0.1,0.4-0.3,0.6-0.5,0.6h0c-0.2,0-0.5-0.1-0.7-0.4c-0.2-0.3-0.3-0.7-0.3-1.2c-0.1-0.5,0-0.9,0.1-1.2
		c0.1-0.3,0.3-0.5,0.6-0.6S36.1,78.2,36.3,78.6 M37.2,85.4l0.1-0.1c0.1,0,0.1,0.1,0.1,0.3l-0.2,0.8c0,0.1,0,0.3,0.1,0.4
		c0.1,0.1,0.2,0.2,0.4,0.2l5.1,1h0.7c1.1-0.1,2.4-0.4,3.8-0.9c0.1,0,0.2-0.1,0.3-0.2l0.1-0.3v-0.4c0-0.2,0-0.2,0-0.2
		c0,0,0.1,0,0.2,0.1l1,1c0.2,0.3,0.2,0.5,0.1,0.8l-0.9,1.8L48,89.8c-0.1,0-0.1-0.1-0.2-0.2v-0.2c0-0.3-0.1-0.4-0.3-0.4h-0.1
		c-0.4,0.4-0.9,0.7-1.5,1.1c-1.2,0.7-2.3,1.1-3.3,1.2c-1,0.1-2.3-0.3-4-1.1l-2.3-1.2H36c-0.2,0-0.4,0.1-0.5,0.3l0,1.1l-0.1,0.2
		l-0.2-0.2l-0.7-2.1l0-0.5l0.2-0.3L37.2,85.4 M28.1,81.2L28.1,81.2c0.2,0,0.3,0,0.4,0.1s0,0.3-0.2,0.5c-0.3,0.2-0.6,0.4-0.9,0.7
		l-1.1,1.3l-0.1-0.1c0-0.1,0-0.4,0.2-0.7c0.2-0.3,0.4-0.6,0.6-0.9C27.3,81.8,27.7,81.5,28.1,81.2 M28.3,83.1l0.2,0.2
		c0.1,0.1,0,0.2-0.1,0.3l-0.3,0.3c-0.2,0.2-0.3,0.4-0.3,0.6c0,0.2-0.1,0.3-0.2,0.3c-0.2,0-0.4-0.1-0.4-0.4c0-0.2,0.1-0.4,0.4-0.8
		l0.5-0.5L28.3,83.1 M44.5,73.4l0.3,0.1l2,1l0.2,0.2l-0.2,0.1h0l-2,0.1c-0.2,0-0.3-0.1-0.4-0.2c-0.1-0.1-0.1-0.2-0.1-0.4l0-0.5
		C44.2,73.6,44.3,73.4,44.5,73.4 M47.1,78.9c0,0.5,0,0.9-0.1,1.2c-0.1,0.3-0.3,0.5-0.6,0.5c-0.2,0-0.5-0.1-0.6-0.4
		c-0.2-0.3-0.4-0.6-0.4-1.1c-0.1-0.5,0-0.9,0.1-1.2c0.1-0.4,0.3-0.6,0.6-0.6c0.2,0,0.5,0.2,0.7,0.4C46.9,78,47,78.4,47.1,78.9
		 M41.2,78.2l1.1,1.9l2.2,2.4l0.2,0.4l-0.1,0.4l-1,1.8c-0.1,0.2-0.3,0.3-0.6,0.4l-0.4-0.1l-0.2-0.1c-0.1,0-0.2-0.1-0.2-0.2
		c0-0.1,0-0.2,0-0.3l0.8-1.3c0.2-0.3,0.2-0.5,0-0.8l-2-3.5l-0.4-0.8l0-0.4c0-0.1,0.1-0.1,0.1-0.1h0C40.9,77.9,41,78,41.2,78.2
		 M41.8,92.7c-0.1-0.1-0.2-0.3-0.2-0.4c0-0.2,0.2-0.4,0.5-0.4h0.1l0.5,0.1h1.6c0.1,0,0.2,0,0.2,0.1s0,0.1-0.1,0.2l-0.9,0.5L43,92.9
		l-0.9-0.1L41.8,92.7 M36.2,88.3c0.1,0.1,0.2,0.2,0.4,0.3l3.9,1.4l2.5,0.1l1.5-0.2l3-1.3c0.2,0,0.3-0.2,0.4-0.6
		c0-0.3-0.1-0.4-0.4-0.4h-0.1c-1.5,0.4-2.8,0.7-4,0.8l-0.7,0.1c-0.8,0-1.9-0.2-3.3-0.5l-1.8-0.5l-0.6-0.1c-0.2,0-0.4,0.1-0.6,0.2
		C36.1,87.9,36.1,88.1,36.2,88.3 M29.5,64.8c-1,0.2-1.8,0.8-2.5,1.9l-1.3,1.9c-0.6,0.3-1.2,1-1.9,2c-0.5,0.8-0.8,1.6-1.1,2.4
		c-0.5,1.5-0.5,3.3,0,5.6c0.3,1.2,0.6,2.2,1,3c0.2-1.4,0.8-2.6,1.7-3.6l1.8-1.7l-1.4-1.2c-0.5-0.6-0.8-1.1-0.8-1.6
		c0-0.6,0.2-1.2,0.5-1.7c0.4-0.6,1.1-1,2-1h0.5l3.2,0.8h0.1l1.5-1.8c0.9-1.1,1.6-1.7,2.2-1.7l0.4,0.1c0.3,0.1,0.9,0.4,1.8,0.9l1,0.6
		l0.8,0.2l0.3-0.1l0.7-0.4c0.6-0.4,1-0.6,1.2-0.6l1.1,0.3c0.3,0.2,0.9,0.7,1.8,1.6l1.3,1.4c0.7,0.5,1.4,0.8,2,0.7
		c0.5,0,0.8-0.2,1.1-0.6c0.6-0.6,0.9-1.4,1.1-2.4c0.1-0.9,0-1.7-0.2-2.4c-0.3-0.6-0.6-1.1-1-1.4c0.1,0.6,0,1.1-0.4,1.5
		c-0.4,0.4-1,0.6-1.6,0.6c-0.8,0.1-1.5-0.2-2.1-0.9c-1.6-1.6-2.7-2.4-3.2-2.5l-0.6,0c-0.3,0-0.7,0.1-1.1,0.3l-1,0.3
		c-0.2,0-0.5,0-0.7-0.2l-1.9-2.4c-0.4-0.5-0.8-0.7-1-0.7h-0.2c-0.5,0-1,0.3-1.7,0.9l-1.3,1.1L29.5,64.8z"/>
	<path class="st0" d="M234,140.8l-0.1-1.4l-0.4-0.3l-0.7,0.1c-0.3,0-0.6-0.1-0.9-0.2l1.1,2C233.2,140.8,233.5,140.7,234,140.8
		 M232.8,134.8l0.3,0.2l0.3,0.3h0.5l0.2-1.3l-0.2,0.1l0,0.1L232.8,134.8 M234.8,127.8L234.8,127.8l-3.9-1.5c0.1,0.5,0.1,1,0,1.4
		c-0.1,0.2-0.3,0.4-0.8,0.6c-0.4,0.1-0.5,0.3-0.3,0.5c0.3,0.4,0.4,0.8,0.3,1.3c-0.1,0.4-0.3,0.8-0.7,1.1l-0.7,0.7
		c2.5,2.3,4.5,2.6,6.1,0.8c0.7-0.8,1.2-1.7,1.4-2.6C236.5,128.9,236,128.1,234.8,127.8L234.8,127.8 M234.6,129.3l-0.2,0.1
		c-0.3,0-0.5,0-0.7-0.2c-0.3-0.3-0.6-0.4-0.8-0.4c-0.3,0-0.5-0.1-0.6-0.2l0-0.2c0,0,0.1-0.1,0.2-0.1c0.7,0,1.3,0.2,2,0.8
		L234.6,129.3 M231.6,130.6c-0.2-0.2-0.1-0.3,0.1-0.3c0.2,0,0.5,0,0.7,0.2l1,0.5c0.3,0.1,0.4,0.3,0.2,0.4l-0.6,0l-0.7-0.3
		L231.6,130.6 M221,126.8h-0.2l-0.2,0.7c3.1,0.7,5.5,1.9,7.1,3.6l0.1,0.1l1.1-1c0.3-0.4,0.2-0.9-0.2-1.7l-0.1-0.1
		C226.4,126.8,223.8,126.3,221,126.8 M221.4,125.3c-0.2,0.1-0.3,0.4-0.5,0.9c3-0.4,5.6,0.1,7.9,1.7c1.2-0.1,1.6-0.7,1.1-2l0-0.1
		c-1-0.5-1.8-0.8-2.4-0.9C225.5,124.5,223.4,124.6,221.4,125.3 M140.8,168.9c-0.2-0.5-0.5-0.8-1-0.8l-0.2-0.1
		c-4.3-0.7-6.7,0.1-7.2,2.2c0.7,0.1,1.8,0,3.2-0.1c1.4-0.1,2.5-0.1,3.2-0.1l2.1,0.3C141,169.7,140.9,169.3,140.8,168.9 M142.2,168.6
		l0-0.1l-1.5-0.3c0.7,0.6,0.9,1.3,0.6,2.3l1.4,0.4c0.2-0.4,0.3-0.8,0.3-1.2c0-0.5-0.2-0.7-0.7-0.9L142.2,168.6 M151.7,171.3
		L151.7,171.3c0.9,0.4,1.4,1,1.5,1.9c0.1,0.8,0,1.6-0.5,2.4l0.3,0.2c1.3,0.7,2.5,1.1,3.9,1.2c0.7-0.5,1-1.2,1-2.3
		c0-1-0.5-1.7-1.3-2.1l-0.7-0.1C155.3,172.4,153.8,172,151.7,171.3c-3.9-1.3-6.8-2.2-8.7-2.7c0.4,0.2,0.7,0.5,0.7,0.8
		c0.1,0.5,0,1-0.3,1.6l0.3,0.1c1.4,0.5,2.8,1.1,4.3,1.9c0.9,0.5,2.3,1.3,4.1,2.3c0.4-0.7,0.5-1.4,0.4-2.1c-0.1-0.8-0.4-1.3-1.1-1.6
		c-0.1-0.1-0.2-0.1-0.1-0.2C151.4,171.3,151.5,171.3,151.7,171.3 M159.2,176.7c0.9-0.6,1.2-1.3,0.8-2.3c-0.3-0.8-0.9-1.5-1.8-1.9
		l-0.9,0.1c0.7,0.5,1.1,1.2,1.2,2.1c0.1,0.9-0.1,1.7-0.7,2.2L159.2,176.7L159.2,176.7 M164.4,166.7c0.7,0.4,1.1,1.1,1.4,1.9l0.9-2.2
		c-0.1-1-0.5-1.7-1.2-2.2c-0.7-0.6-1.5-0.7-2.4-0.4l-0.4,2.6C163.3,166.1,163.9,166.2,164.4,166.7 M161.1,170.5L161.1,170.5
		c-0.7,0.9-1.5,1.5-2.5,1.8c0.8,0.4,1.4,1,1.8,1.7c0.4,0.8,0.4,1.5,0,2.2c1.3-0.6,2.4-1.5,3.2-2.7c0-0.4-0.1-0.8-0.3-1.2
		C162.6,171.1,161.8,170.5,161.1,170.5 M162.5,167.2c-0.3,1.2-0.7,2.3-1.3,3c0.6,0.1,1.1,0.4,1.6,0.9c0.5,0.5,0.9,1.1,1.1,1.7
		l1.4-3.3c0-0.9-0.3-1.7-0.9-2.3c-0.3-0.4-0.7-0.6-1-0.7c-0.4-0.1-0.7,0.1-0.9,0.5L162.5,167.2 M179.5,128.3L179.5,128.3l-0.5,0.1
		l-0.4-0.2c-2.7,0-5.2,0.6-7.7,1.8c-2.4,1.2-4.4,2.9-6.1,5l6.1-0.6l4.3,0.1l1.2,0.4c0.5,0.2,0.8,0.5,0.9,0.8l-0.1,0.7
		c-0.1,0.2,0.1,0.6,0.5,1.1l1.2,1.6c0.2,0.3,0.3,0.8,0.2,1.3c0,0.5-0.2,0.9-0.3,1.3l-0.9,2.6c1.5,1.4,2.8,1.8,3.9,1.4l2-0.9
		c1.4-0.6,2.7-0.7,3.9-0.5l2.8,0.1l2.6-0.6l1.5-0.2l-0.3-1.3l-1.4-2.3c-0.6-1-0.4-1.7,0.4-2.2l1.6-0.8c0.5-0.3,1-0.7,1.4-1.1
		c0.5-0.6,1-0.9,1.4-1.1c-1.5-0.6-4.1-1.7-7.8-3.4l0,0.4c0,0.2-0.1,0.3-0.5,0.2c-0.3,0-0.5-0.2-0.5-0.3l-0.1-0.8l0-0.2l-0.2-0.7
		l-0.3-0.5l-0.1,0c-0.2,0.1-0.3,0.3-0.4,0.6c-0.1,0.4-0.1,0.9-0.1,1.5c0,0.2-0.1,0.3-0.5,0.2c-0.3,0-0.5-0.2-0.5-0.3
		c0-0.6,0-1,0-1.4l-3.2-1.2l-0.2,0.6c-0.1,0.2-0.3,0.2-0.6,0.1c-0.3-0.1-0.5-0.2-0.4-0.4c0.2-0.6,0.3-1.1,0.2-1.5l-0.2-0.5l-0.1-0.2
		l0,0l-0.1,0l-0.3,0.3c-0.2,0.3-0.4,0.8-0.4,1.5c0,0.2-0.2,0.2-0.5,0.1c-0.3-0.1-0.5-0.2-0.5-0.4l0-0.4L179.5,128.3 M187.3,135.5
		l0.6,0.1c0.9,0.3,1.3,0.9,1.4,1.8c0,0.2-0.1,0.3-0.5,0.2c-0.3,0-0.5-0.2-0.5-0.3c0-0.4-0.1-0.8-0.3-1c-0.1-0.2-0.3-0.3-0.5-0.2
		c-0.1,0.5-0.1,0.9,0,1.1c0.1,0.2-0.1,0.2-0.4,0.2c-0.3,0-0.5-0.1-0.5-0.3c-0.1-0.2-0.1-0.5-0.1-0.7l0.1-0.7
		C186.8,135.5,187,135.5,187.3,135.5 M182.2,138.3c-0.3,0-0.5-0.1-0.6-0.3c-0.2-0.8-0.6-1.4-1-1.8l0,0l-0.1,0.1
		c-0.1,0.2-0.2,0.6-0.2,1.2c0,0.2-0.2,0.3-0.5,0.2c-0.3,0-0.5-0.2-0.5-0.3l0-0.9c0-0.4,0.2-0.6,0.3-0.8l1.1,0
		c0.8,0.4,1.4,1.2,1.8,2.4C182.7,138.3,182.5,138.3,182.2,138.3 M211.1,134.1l-0.3-0.1l-5.7,4.5c-0.2,0.1-0.3,0.6-0.5,1.3
		c-0.1,0.7-0.4,1.2-0.7,1.4c-0.2,0.1-0.4,0.2-0.6,0.3l-0.1,0.8l0.4,0.8l4.4-0.3c1.7-0.1,3.1,0.2,4.3,0.8l2,1.7
		c0.8,0.8,1.5,1,2.1,0.7c0.5-0.2,1.1-0.6,1.8-1.2l1.8-1.2c1.6-0.9,2.9-1.4,3.9-1.4c1.1-0.1,1.9-0.3,2.6-0.8c0.7-0.4,1.2-1.1,1.7-2.1
		c1-1.9,2-3.3,2.9-4.1c-0.1-0.2-0.2-0.3-0.1-0.4c0-0.1,0.2-0.2,0.4-0.3c0.2,0,0.5,0,0.7,0l0,0c-1.3-0.1-2.6-0.8-4.1-2.1l-0.5,0.4
		c-0.7,0.5-1.6,0.8-2.9,1.1l-5,0.9c-0.7,0.2-1.3,0.6-1.7,1c-0.7,0.8-0.9,1.5-0.7,2.1c0.7,0.4,1.4,0.7,2.1,0.8c0.2,0,0.3,0.1,0.4,0.3
		c0.1,0.1,0,0.2-0.2,0.2c-1.1,0-1.9-0.3-2.5-0.9c-0.6-0.3-1.3-0.8-2-1.4c-0.2-0.2-0.2-0.3,0.1-0.3l0.6,0.1l0.6,0.4
		c-0.1-0.5,0-1,0.3-1.5c0.3-0.5,0.9-0.9,1.7-1.3c0.8-0.3,1.8-0.6,3-0.8l4.6-1c0.6-0.2,1-0.6,1.1-1l0.1-0.2c-0.8-0.7-1.6-1.4-2.3-1.8
		l-4.8,0.5c-2,0.1-3.4,0.7-4.3,1.7l-0.9,1.7c-0.4,0.8-0.8,1.2-1.3,1.3c-0.3,0.1-0.8-0.1-1.4-0.4
		C211.8,134.3,211.3,134.1,211.1,134.1 M226.6,135.1h0.2c0.3,0,0.5,0,0.6,0.2c0.1,0.1,0,0.2-0.3,0.3h-0.2c-0.3,0-0.5-0.1-0.6-0.3
		l0-0.2C226.4,135.1,226.5,135.1,226.6,135.1 M227.2,137.8c0,0.2-0.1,0.3-0.5,0.2c-0.3,0-0.5-0.2-0.5-0.3l0-0.2
		c0-0.2,0.1-0.2,0.5-0.2c0.3,0,0.5,0.2,0.5,0.3V137.8 M225.5,136.9l-0.3,0c-0.3,0-0.5,0-0.6-0.2c-0.1-0.1,0-0.2,0.2-0.3h0.3
		c0.3,0,0.5,0,0.6,0.2v0.2L225.5,136.9 M224.2,136.2c0.2,0.2,0.1,0.3-0.2,0.3c-0.2,0-0.4-0.1-0.5-0.3c-0.2-0.2-0.1-0.3,0.2-0.3
		C223.8,136,224,136.1,224.2,136.2 M224.1,138.6l0.6,0.1c0.2,0.1,0.4,0.2,0.4,0.4c0,0.1-0.1,0.2-0.3,0.2c-0.2,0-0.4,0-0.5-0.1
		l-0.5-0.2l0-0.2L224.1,138.6 M221.1,138c0.2,0,0.4,0.1,0.6,0.3c0.2,0.2,0.1,0.3-0.2,0.3c-0.2,0-0.4-0.1-0.5-0.3
		C220.7,138.1,220.8,138,221.1,138 M201.4,120.4l-1.3,2.5c-0.5,1-1.1,1.7-1.7,2.3l-0.5,0l-0.4-0.3c-0.2-0.4-0.2-1.3-0.1-2.6
		c0.1-1.2,0-2.1-0.3-2.5c-0.5,2-0.7,3.8-0.6,5.2l-0.1,0.2c-0.6,0.4-1.2,0.9-1.6,1.8c-0.3,0.5-0.6,1.3-0.9,2.3l-0.6,0.7
		c-0.3,0.2-0.4,0.5-0.3,0.8l0.5,2.1l2.4,1.1l-0.2-3c0-0.1,0-0.2,0.2-0.2c0.3-0.1,0.9-0.4,1.5-0.9c0.6-0.4,1.1-0.7,1.5-0.8l2.1-0.3
		c0.7-0.2,1.3-0.5,1.6-1l-2.5,0.1l-0.3-0.1c-0.1-0.1-0.2-0.2-0.1-0.2c0.3-0.6,1.1-1.4,2.5-2.2c1.2-0.8,1.9-1.6,2-2.4
		c-0.6,0.3-1.3,0.9-2.2,1.7l-2.2,1.8h-0.5c-0.2-0.1-0.4-0.2-0.4-0.3c0-0.5,0.4-1.5,1.3-2.8C201.2,121.9,201.6,121,201.4,120.4
		 M210.1,122.1c-0.4-0.3-0.8-0.5-1.2-0.7c-1.1,0.3-1.3,0.7-0.5,0.9l1.7,0.9c0.6,0.4,1,0.8,1.3,1.4c0.1,0.1,0,0.2-0.1,0.2l-0.3,0
		l-4.6-0.8c-0.7,0-1.2,0.4-1.4,1.2l4.2,0.6c0.5,0.2,1,0.5,1.3,1c0.1,0.1,0.1,0.2,0,0.2l-3,0.4c-1.2,0.1-2.1,0.5-2.6,1.2l1.4-0.3
		c0.6-0.2,1-0.2,1.3-0.2c0.8,0,1.7,0.2,2.5,0.5c0.2,0,0.3,0.1,0.3,0.3c-0.1,0.6-0.5,1.2-1.1,1.8l-1.9,1.1l-2.6,1.2
		c-1,0.5-1.9,0.9-2.6,1.3c-1.6,0.9-2.8,1.2-3.7,0.8c-0.4-0.2-0.8,0-1.2,0.6l-1.1,1.4l-1.4,0.6c-0.6,0.2-1,0.5-1.2,0.8
		c-0.4,0.5-0.3,1.1,0.2,1.7l1.1,1.4l1,3.9c0.4,1.4,1,2.6,1.6,3.6l1.8,2.2c0.8,0.9,1.2,1.7,1.4,2.4c0.1,0.5,0.2,1.4,0.2,2.6
		c0.2,1,0.7,1.5,1.6,1.6c0.2,0,0.4,0.1,0.5,0.3c0.1,0.2,0,0.2-0.3,0.2l-1.6-0.3c-0.6-0.2-0.9-0.6-1-1.2c0-1.3-0.1-2.3-0.2-2.9
		c-0.1-0.6-0.5-1.3-1-2l-1.4-1.7c-0.7-1-1.3-2-1.7-3.1c-0.3-0.8-0.7-1.9-1.1-3.2c-0.4-0.1-1.1,0-1.9,0.3l-1.9,0.6
		c-1,0.1-1.8,0-2.4,0l-2.7-0.1c-0.7,0.1-1.6,0.4-2.6,0.9c-1,0.5-2,0.7-2.9,0.5c-0.8-0.2-1.7-0.6-2.6-1.3l-1.3,3.6
		c0.5,2.2-0.1,4.5-1.7,6.9c-1.6,2.4-3.5,3.8-5.8,4.1c-0.2,0-0.4-0.1-0.6-0.2c-0.2-0.2-0.2-0.3,0-0.3c1.8-0.2,3.4-1.2,4.8-3
		c1.4-1.7,2.2-3.5,2.4-5.5c-0.9,1.9-2,3.4-3.1,4.4c-0.1,0.1-0.3,0.1-0.6,0c-0.3-0.1-0.4-0.3-0.2-0.4c1.3-1.1,2.4-2.9,3.3-5.2
		c0.9-2.6,1.6-4.6,2.2-5.8l0.9-1.8c0.3-0.8,0.4-1.4,0.3-1.9c-0.1-0.4-0.4-0.9-0.7-1.4l-0.9-1.3c-0.1-0.1-0.1-0.4-0.1-0.9
		c0-0.4-0.2-0.6-0.5-0.8l-0.9-0.2l-8.2,0.3l-2.4,0.3l-0.3,0.1c-2.1,0.4-3.3,1.2-3.5,2.3c0,0.2-0.2,0.2-0.5,0.1
		c-0.3-0.1-0.5-0.2-0.4-0.4c0.1-0.5,0.4-0.9,0.8-1.3l-0.7-2.2c-0.3-0.9-0.5-1.7-0.5-2.3c-0.1-0.8-0.1-1.5,0-2.3
		c0.1-0.6,0.3-1.3,0.5-2.3l0.3-1.1c0.1-0.4,0.1-0.8,0-1.1c-0.2-0.6-0.7-0.9-1.5-1.1l-2-0.2c-0.2,0-0.5-0.1-0.7-0.3l-0.6-0.5
		c-0.9-0.9-1.6-1.5-2.1-1.7c-0.8-0.4-1.8-0.4-2.8,0.1c-0.3,0.1-0.6,0.3-0.8,0.4l1.8-0.1c0.7,0.2,1.4,0.6,1.9,1.4
		c0.3,0.4,0.7,1.1,1.3,2.1c0.1,0.1,0,0.2,0,0.2c-0.4,0.2-1.1,0.1-2-0.2c-0.9-0.3-1.5-0.5-2-0.3c-0.9,0.3-1.7,0.8-2.5,1.4
		c1-0.5,1.9-0.6,2.5-0.3l2.1,0.8c0.8,0.3,1.4,0.7,1.9,1l0.6,0.7c0.2,0.3,0.1,0.6-0.3,0.7H150c-0.8,0.1-1.5,0.4-2,1l-1,0.9l0.5-0.3
		c0.6-0.4,1.2-0.6,1.7-0.8c0.5-0.1,1,0,1.7,0.3c0.8,0.4,1.3,0.6,1.6,0.6c0.9,0.1,2.1,0.1,3.6,0c1,0.2,1.4,1,1.4,2.6v12.7
		c0,1.6,0,2.7,0.2,3.2c0.1,0.4,0.3,0.6,0.5,0.7l0.9-0.2c1.6-0.5,3.1-1.2,4.7-2.1c2-1.1,3.3-2,4.1-2.7c1.6-1.3,2.4-2.7,2.5-4
		c0-0.1,0.1-0.2,0.4-0.1l1.1,0.5c0.3,0.1,0.4,0.3,0.2,0.4l-0.6,0l-0.2,0c-0.2,1-0.8,2-1.9,3c-0.7,0.6-1.6,1.4-2.9,2.2
		c-1.8,1.1-3.2,1.9-4.1,2.4c-0.3,0.9-0.5,2-0.5,3.3c0,0.8,0,1.9,0.1,3.4c0.2,2.6,0.5,3.8,0.7,3.7l0.5,0c0.2,0.1,0.3,0.2,0.3,0.3
		l-0.3,2.8c0.9-0.1,1.7,0,2.4,0.4c0.7,0.4,1.2,1.1,1.5,1.9l0.9-1.5c0.8-1.1,1.6-1.8,2.5-2.2c0.9-0.4,2-0.5,3.3-0.2l4.9,0.7
		c0.9,0.1,2.2,0.1,3.8,0l3.8-0.1c2.4,0,4.2,0,5.3-0.1l1.8-0.2c0.2-1.3,0.5-2.5,0.8-3.7c0-0.2,0.2-0.2,0.6-0.1
		c0.3,0.1,0.4,0.2,0.4,0.4c-0.3,1.2-0.5,2.3-0.7,3.3l1.5-0.1c-0.2-1.7-0.4-3.1-0.6-4.1c0-0.2,0.1-0.2,0.4-0.2c0.3,0,0.5,0.2,0.5,0.3
		c0.3,1.3,0.5,2.7,0.6,4l0.5,0c1.9,0,3.4,0.3,4.5,0.7c1.1,0.5,2,0.8,2.7,0.9c1,0.2,1.9,0,2.8-0.3c1.2-0.6,2.2-0.9,2.8-1.2
		c-0.3-0.3-0.5-0.5-0.6-0.9c-0.1-0.1,0-0.2,0.4-0.2c0.3,0,0.5,0.1,0.6,0.3c0.2,0.4,0.4,0.6,0.7,0.7l1-0.1l0.2-0.2
		c-0.1-0.1,0-0.2,0.1-0.2h0c0.3-0.4,0.3-0.9,0.1-1.5c-0.1-0.2,0.1-0.2,0.4-0.2c0.3,0,0.5,0.1,0.6,0.3c0.1,0.4,0.2,0.9,0,1.3l3.2-0.2
		l-0.1-1.5c0-0.2,0.1-0.3,0.5-0.2c0.3,0,0.5,0.2,0.5,0.3l0.1,1.3l2.6-0.3l-0.8-1.6c-0.1-0.2,0-0.3,0.3-0.2c0.3,0,0.5,0.1,0.6,0.2
		l0.7,1.3c0.6-0.3,0.9-0.8,1-1.4l0-0.5l-1.6-1.1c-0.2-0.2-0.3-0.3,0-0.3l0.6,0l1.1,0.7c0-0.3,0.1-0.6,0.2-0.9
		c0.4-0.8,1.2-1.4,2.4-1.8l3-0.9c1.4-0.6,2.5-1.3,3.4-2.2c-0.3-0.3-0.5-0.6-0.8-1.1c0-0.1,0-0.2,0.2-0.2c0.2,0,0.3,0,0.4,0.1
		l0.5,0.8l1-1.3l-1-0.7c-0.1-0.1-0.1-0.2,0.1-0.2l0.4,0.1l0.7,0.5l0.4-0.8l-0.7-0.2c-0.2-0.1-0.2-0.1-0.1-0.2l0.4,0l0.6,0.2l0.3-0.8
		c-0.4-0.1-0.7-0.2-0.9-0.3c-0.3-0.2-0.4-0.4-0.4-0.6l0-1.9l-1.9,1c-0.4,0.2-0.9,0.1-1.5-0.2c-0.7-0.3-0.8-0.6-0.3-0.9l3.3-2
		c-0.3-1-1-2.5-2.1-4.3c-0.1-0.1-0.1-0.3-0.1-0.4c0.1-0.2,0.3-0.3,0.7-0.3c0.4,0,0.7,0,1.1,0.2c0-0.1,0-0.2,0.1-0.3l1.2-1.2
		c-0.3-0.4-0.6-0.8-1-1.2c-0.8,0.7-1.5,1.6-2,2.7l-0.8,1.6c-0.3,0.6-0.6,1-1,1.4c-0.8,0.7-1.5,1.1-2.4,1.2c-1.2,0.1-2.2,0.3-3.2,0.7
		c-0.9,0.4-1.9,0.9-2.9,1.6l-2,1.4c-0.9,0.5-1.7,0.6-2.3,0.2c-0.4-0.2-0.7-0.5-0.9-0.8c-1.5-1.8-3.2-2.7-5.3-2.6l-5.1,0.4l0.5,2.4
		l2.9,0.3c1.1,0.1,2,0.3,2.7,0.7c-0.1-0.1-0.1-0.2-0.1-0.2l0.3,0c1.6,0.3,2.9,1.1,3.8,2.4c0.8,1.2,1.2,2.6,1.3,4.4
		c0,0.2-0.2,0.3-0.5,0.2c-0.3,0-0.5-0.2-0.5-0.3c-0.1-1.6-0.4-2.8-0.9-3.9c-0.7-1.3-1.7-2.1-3-2.3h0c0.4,0.3,0.8,0.6,1.2,1
		c0.9,1.2,1.6,2.4,2,3.7c0.5,1.6,0.6,2.9,0.2,4.1c0,0.2-0.2,0.2-0.5,0.1c-0.3-0.1-0.5-0.2-0.4-0.4c0.3-1,0.3-2.3-0.1-3.8
		c-0.4-1.3-1-2.4-1.8-3.4c-0.7-0.9-1.6-1.5-2.9-1.7l-3.4-0.4c0.3,0.7,0.8,1.2,1.5,1.6c1.5,0.8,2.6,1.6,3.3,2.4
		c0.9,0.9,1.2,1.9,1.2,2.8c-0.1,1-0.7,1.8-1.7,2.4c-0.1,0.1-0.4,0-0.6-0.1c-0.3-0.1-0.3-0.3-0.1-0.4c3-1.8,2-4.2-3.1-7.3
		c-0.6-0.4-1.1-1-1.4-1.7l-0.8-0.2c-0.3-0.1-0.4-0.2-0.3-0.4c0-0.2,0.2-0.2,0.5-0.1l0.5,0.1l-0.5-2.5c-0.4,0.5-0.9,0.8-1.5,0.9
		c-0.2,0-0.5,0-0.7-0.2l-0.1-0.2c0-0.1,0.1-0.1,0.2-0.1c0.8-0.1,1.3-0.6,1.6-1.4c-0.1-0.1-0.1-0.2,0-0.2l0-0.2l-1.9,0.2
		c-0.2,0-0.4-0.1-0.6-0.2c-0.2-0.2-0.2-0.3,0-0.3l2.4-0.3c0.9-0.3,1.5-0.8,1.6-1.5l0.1-0.9c0-0.3,0.2-0.5,0.4-0.7l8.3-6.6
		c1.1-0.9,1.8-2.1,2.1-3.8c0.3-1.6,0.1-3.1-0.6-4.3c0,0.4,0,0.7-0.1,1.1c0,0.1-0.2,0.2-0.3,0.1l-0.4-0.1L210.1,122.1 M188.4,150.5
		c0-0.1,0-0.1,0.1-0.2l0.3,0c0.3,0,0.5,0.1,0.5,0.3l0.2,1c0,0.2-0.1,0.3-0.4,0.2c-0.3,0-0.5-0.2-0.5-0.3L188.4,150.5 M186.2,151.9
		c0.3,0.1,0.4,0.3,0.3,0.4c-0.3,0.6-0.6,1.1-0.9,1.6c-0.1,0.2-0.3,0.2-0.6,0.1c-0.3-0.1-0.4-0.2-0.4-0.4c0.3-0.6,0.6-1.2,0.9-1.7
		L186.2,151.9 M184.4,148.7c0.2-0.1,0.5,0,0.7,0.2c0.2,0.1,0.1,0.3-0.1,0.3c-0.6,0.1-1.1,0.4-1.6,0.8l-0.6,0
		c-0.3-0.1-0.4-0.2-0.2-0.3C183.1,149.2,183.7,148.9,184.4,148.7 M187.5,158.4c0,0.8,0.1,1.2,0.4,1.4c0.2,0.1,0.5,0,1-0.2
		c0.4-0.2,0.7-0.6,0.9-1c0.2-0.4,0.2-0.9,0-1.3c-0.1-0.1,0-0.2,0.4-0.2c0.3,0,0.5,0.1,0.6,0.3c0.3,0.6,0.2,1.2-0.1,1.8
		c-0.4,0.6-0.9,0.9-1.6,1.1c-0.7,0.1-1.3,0-1.8-0.3c-0.5-0.3-0.7-1-0.6-1.8c0-0.1,0.2-0.2,0.5-0.1
		C187.4,158.1,187.6,158.2,187.5,158.4 M218.2,149.9c0.3,0.1,0.4,0.3,0.3,0.4c-0.6,1-0.7,2-0.4,3c0.2,0.6,0.6,1.1,1.2,1.4
		c0.6,0.4,1.3,0.4,1.8,0.2c0.6-0.3,1-0.8,1.3-1.7l0.4-2.2c0-0.2,0.2-0.2,0.5-0.1c0.3,0.1,0.5,0.2,0.4,0.4c-0.2,1.4-0.5,2.4-0.9,3
		c-0.6,1-1.4,1.4-2.6,1.2c-1.6-0.3-2.6-0.9-3-1.9c-0.5-1.3-0.4-2.5,0.3-3.7L218.2,149.9 M178,153.7l0.6,0c0.3,0.1,0.4,0.3,0.3,0.4
		c-0.9,1.4-2.3,2.9-4.1,4.7l-0.6,0c-0.3-0.1-0.4-0.2-0.3-0.3C175.7,156.7,177.1,155.1,178,153.7 M177.9,155.7c0-0.2,0.2-0.2,0.5-0.1
		c0.3,0.1,0.4,0.2,0.4,0.4l-0.6,2.2c0,0.2-0.2,0.2-0.5,0.1c-0.3-0.1-0.4-0.2-0.4-0.4L177.9,155.7 M219.4,150.7
		c0-0.2,0.2-0.2,0.5-0.1c0.3,0.1,0.5,0.2,0.4,0.4c0,0.5,0.1,0.9,0.4,1.1c0.2,0.2,0.5,0.2,0.9,0c0.1-0.1,0.4,0,0.6,0.1
		c0.3,0.1,0.3,0.2,0.1,0.3l-2.1-0.1C219.6,152.1,219.3,151.5,219.4,150.7 M170.7,110.2c-0.3,0-0.5,0.1-0.7,0.2
		c-0.4,0.2-0.6,0.3-0.7,0.2l1,0.6c0.4,0.3,0.6,0.5,0.8,0.8c0.4,0.7,0.5,1.6,0.2,2.5c-0.1,0.5-0.5,1.3-1.1,2.4
		c-0.1,0.2-0.3,0.2-0.6,0.1c-0.3-0.1-0.4-0.2-0.4-0.3c0.4-0.9,0.2-1.7-0.5-2.3c-0.7-0.6-1.5-0.8-2.4-0.6l-1.6,0.4
		c0.3,0,0.8,0.1,1.5,0.5c0.6,0.3,1.1,0.6,1.6,1c0.5,0.4,0.7,1.2,0.7,2.4c-0.1,1.2-0.4,2-1,2.3c-0.6,0.2-0.9,0.4-1.1,0.5
		c-0.3,0.2-0.6,0.5-0.7,1c-0.2,0.7-0.3,1.4-0.4,2.2l-0.5,4.4c-0.3,1-0.6,2.1-0.8,3.2c-0.3,1.8-0.2,2.7,0.3,2.8h0.1
		c1.8-2.2,4-3.9,6.6-5c2.6-1.2,5.3-1.8,8.1-1.7l1.3-1.4c0.4-0.6,0.4-1.2,0.1-1.8c-0.6-1.4-1.1-2.4-1.5-2.9c-0.4-0.6-1.3-0.8-2.6-0.6
		c-1.3,0.2-2.2,0.6-2.6,1.3c-0.5,0.8-1.3,1.9-2.6,3.2c-1.4,1.4-2.3,2.5-2.7,3.1l-0.5,0.1c-0.3-0.1-0.4-0.2-0.4-0.4
		c0.2-3.2,0.8-5.5,1.7-6.8l1.7-2.1c0.7-0.9,1.1-1.6,1.2-2.3c0.2-0.8,0.2-2,0-3.6l0-0.9c0-0.4-0.1-0.7-0.2-0.9
		C171.4,111.1,171.1,110.6,170.7,110.2z"/>
</g>
</svg>
