<?xml version="1.0" encoding="utf-8"?>
<!-- Generator: Adobe Illustrator 25.4.1, SVG Export Plug-In . SVG Version: 6.00 Build 0)  -->
<svg version="1.1" id="Awareness_x2C_PerkClip_x5F_d2287" image-rendering="auto"
	 xmlns="http://www.w3.org/2000/svg" xmlns:xlink="http://www.w3.org/1999/xlink" x="0px" y="0px" viewBox="0 0 240 240"
	 style="enable-background:new 0 0 240 240;" xml:space="preserve">
<style type="text/css">
	.st0{fill:#FFFFFF;}
</style>
<g>
	<rect width="240" height="240"/>
	<path class="st0" d="M93.4,127.9l-0.8,0.5c-0.2,0.2-0.4,0.5-0.5,0.7c-0.1,0.2-0.1,0.4-0.1,0.5l0.5,0c0.2-0.1,0.5-0.3,0.8-0.6
		l0.5-0.8c0.1-0.2,0.1-0.4,0.1-0.5L93.4,127.9 M82.9,122.7c-0.2,0.3-0.2,0.5-0.1,0.6c0.2,0.1,0.6-0.1,1.2-0.7l7.5,6.8
		c0.1-0.4,0.4-0.8,0.9-1.2l0.8-0.7l-7.7-6.8c-0.4-0.1-0.8,0.1-1.2,0.5l-0.1,0.1L82.9,122.7 M82.3,117.2l0.1,0.2l11.2,10l0.3-0.1
		l0.3-0.4l-0.8-0.7l-0.6-0.4l-10-8.8c-0.2-0.2-0.4-0.3-0.5-0.1V117.2 M64.1,164.4l-0.3-0.2c-1.7-1-3.7-1.8-6-2.2l0-0.1
		c-0.2,0.4-0.8,0.8-1.7,1.1l-1.7,0.5l-7.2,0.2c0.1,0.8,0.2,1.3,0.3,1.4l1,0.4l1.1,0.2c0.5,0,0.8-0.1,0.9-0.2l0.5-0.7l0.1,0
		c1.6,0.7,3.4,1.2,5.3,1.3c2,0.2,3.8,0,5.5-0.5c0.8-0.3,1.5-0.6,1.9-0.9L64.1,164.4 M28.6,166.1L28.6,166.1
		c-1.9,0.5-3.5,0.6-4.9,0.3l-2.9-0.6c-0.8,0.7-1.1,1.6-1,2.8c0.1,1.2,0.5,2.1,1.4,2.6c0.4,0.2,0.9,0.3,1.4,0.3l1.5-0.4
		C27.1,170,28.5,168.3,28.6,166.1 M25.6,121.6L25.6,121.6c-0.9-0.5-2.2-0.2-3.7,0.8h0c-1.3,0.2-2.4,1-3.2,2.3
		c-0.6,0.9-1,2.2-1.4,3.9c0.4,0.9,0.7,1.6,1,2.2c1.2,1.8,2.7,3.2,4.6,4.1c0.7,0.4,1.4,0.6,1.9,0.7c0.8,0.1,1.3-0.1,1.4-0.8
		c-1.4-0.4-2.8-1.4-4.1-2.9c-0.1-0.1-0.2-0.3-0.2-0.7c0-0.3,0-0.4,0.2-0.3c1.4,1.5,2.7,2.5,4,2.8l1.5,0.1l0-0.1h0.1
		c0.6-0.2,0.9-0.6,0.9-1.2c-1.3-0.3-2.8-1.4-4.5-3.1c-0.1-0.1-0.2-0.3-0.2-0.7c0-0.4,0-0.5,0.1-0.3c1,1,1.9,1.8,2.6,2.2
		c1.3,0.9,2.3,1.2,3.1,0.8c0.4-0.2,0.7-0.6,0.7-0.9l-0.2-0.3l-2.9-2c-0.5-0.3-0.9-0.7-1.2-1.3c-0.1,0-0.3-0.2-0.4-0.7
		c-0.3-0.7-0.4-1.5-0.4-2.3C25.1,123,25.3,122.3,25.6,121.6 M37.8,104.3l-3.8-0.8c-1.8-0.5-3.2-1.1-4.1-1.8c-2-1.5-3-3.6-2.9-6.4
		c-4.1,1.3-7.8,3-11.1,5.1c-3.7,2.5-6.5,5.3-8.3,8.4c-0.8,1.4-1.1,2.9-1,4.5c0.1,1.3,0.5,2.8,1.2,4.5c1.6,3.4,3.7,6.1,6.1,8.2
		l2.3,1.5l0.5,0.2c0.4-1.7,0.8-3.1,1.4-4.1c0.8-1.4,1.9-2.2,3.2-2.5c-1.1-4.3-2.9-7.4-5.2-9.2c-0.1-0.1-0.2-0.3-0.2-0.7
		c-0.1-0.3-0.1-0.5,0-0.4c0.7,0.5,1.4,1.1,2,1.9c2.6-0.9,4.9-1.6,6.9-2.1c0-0.1,0.1-0.1,0.2-0.1l3-0.7c0.2,0,0.3,0.1,0.3,0.6
		c0.1,0.4,0.1,0.6,0,0.6l-3,0.6c0.4,3.2,0.7,6.3,0.8,9.2c0.1,0.1,0.2,0.3,0.2,0.6c0.1,0.2,0.1,0.4,0,0.5l-0.2,0.4v1.8
		c1.5,1.1,3.1,1.8,5,2.3c1.8,0.5,3.5,0.7,5.3,0.7l1.6,0.1c0.7,0,1.2-0.1,1.5-0.3c0.2-0.1,0.3-0.3,0.4-0.8l0-0.9
		C39.6,117.5,39,110.6,37.8,104.3 M74.4,126.5c-0.1-0.3-0.2-0.6-0.5-1l-0.8-0.8c-0.6-0.4-1.1-0.7-1.7-0.8c-0.5-0.1-0.8,0-1,0.2
		c-0.1,0.2-0.2,0.4-0.1,0.6c0.1,0.5,0.5,1.1,1.4,1.8c0.6,0.5,1.1,0.8,1.6,0.9c0.5,0.1,0.8,0.1,1-0.2
		C74.5,127.1,74.5,126.8,74.4,126.5 M78.6,124.7l1.3,0.3c0.4,0,0.7-0.1,0.8-0.3c0.3-0.3,0.3-0.7,0.1-1.2c-0.3,0.4-0.6,0.7-1.1,0.9
		L78.6,124.7 M41.7,138.1c0.1-0.1,0.2,0,0.3,0.3c0.1,0.3,0.2,0.6,0,0.7l-1.8,3c3.6,7.2,5.5,14,5.8,20.3l4.1,0.2
		c1.6,0,2.9-0.1,4.1-0.4c1.4-0.3,2.4-0.7,3.1-1.3c0.1-0.1,0.2-0.2,0.2-0.1v-0.3c-0.2-7-0.6-12.8-1.1-17.2c-0.4-4-1-8.9-1.8-14.7
		c-1.6,2.3-4.2,4.2-7.8,5.8c-3.1,1.3-6.2,2-9.2,2.2c-3.4,0.2-6.5-0.4-9.4-1.7l-0.8,0.1l-0.6-0.1c0.1,1.5-0.6,2.1-2.1,1.7l-1.6,5.4
		c-0.7,2.3-1.2,4.1-1.6,5.5c-0.8,3.4-1.4,6.9-1.6,10.4c-0.1,1.9-0.2,3.4-0.2,4.4c0,0.8,0,1.3,0.1,1.7l0.3,0.2l0.9,0.4h0l0.1,0.1
		c1,0.5,2.2,0.7,3.4,0.8l3.5-0.3l1.4-0.3c0.7-0.2,1.1-0.4,1.1-0.5l1.1-4.6c0.8-3,2-6,3.4-9.1C37,145.8,39.3,141.6,41.7,138.1
		 M79.3,123.6l0.6-0.6c0.2-0.3,0.2-0.4,0.1-0.5c-0.9-1-1.8-1.6-2.6-1.8c-0.7-0.2-1.2-0.1-1.5,0.2c-0.2,0.3-0.2,0.8,0.1,1.4
		c0.3,0.6,0.8,1.2,1.4,1.7l0.7,0L79.3,123.6 M79.6,120l-0.2,0.6l3,2.7l0-0.2c0-0.2,0.1-0.3,0.2-0.5l-2.2-1.9
		c-0.2-0.1-0.2-0.3,0.1-0.6c0.3-0.2,0.5-0.3,0.6-0.1l2,1.7l0.4-0.5l-1.9-1.7c-0.2-0.2-0.2-0.4,0-0.6c0.1-0.1,0.2-0.2,0.3-0.2
		l0.3,0.1l2.1,1.8l0.6-0.2l-3-2.7c-0.6,0.1-1.2,0.5-1.7,1.1C80,119.2,79.8,119.6,79.6,120 M73.2,122.8c-0.1,0.2-0.2,0.4-0.1,0.8
		c0.1,0.3,0.2,0.6,0.5,1l0.8,0.8c0.6,0.4,1.1,0.7,1.7,0.8c0.5,0.1,0.9,0,1.1-0.2c0.2-0.2,0.2-0.6-0.1-1c-0.2-0.5-0.6-1-1.2-1.4
		c-0.5-0.5-1.1-0.8-1.6-0.8C73.8,122.5,73.5,122.5,73.2,122.8 M76.8,116.6L76.8,116.6c0,0.4,0,0.8-0.2,1.2l-0.9,1.5l-1.2,1.3
		l0.6-0.2c0.3-0.1,0.7-0.4,1.1-0.8C76.9,118.7,77.2,117.7,76.8,116.6 M78.1,116.8l-0.7-0.3l-0.2,0.2l0.2,0.5c0.1,0.4,0.1,0.8,0,1.2
		c-0.2,0.6-0.6,1.2-1.1,1.7h0.5c0.2,0,0.6,0.1,1.2,0.4l0.9,0.5l0.2-0.9c0.2-0.6,0.5-1.2,0.9-1.6c0.8-0.7,1.5-1,2-1.1l0.2-0.6l-1,0.2
		l-0.1-0.3l-1.1,0V116l-0.2-0.2c0,0-0.1,0.1-0.1,0.2l-0.1,0.2l-0.1,0.5c-0.1,0.2-0.3,0.4-0.4,0.4C78.8,117.1,78.5,117,78.1,116.8
		 M79.1,118.6l-0.1,0.3l-0.3,0.2l-0.3-0.1c-0.1-0.1-0.2-0.2-0.2-0.2c-0.1-0.3,0-0.5,0.3-0.5l0.3,0.1L79.1,118.6 M68.2,122.8l0.2,0.2
		l1,0.9l0.5,0.2l0.2-0.3c0.3-0.3,0.6-0.4,1.1-0.4c0.8-0.8,1.4-1.5,1.9-1.9c-0.2,0-0.4-0.1-0.8-0.2c-0.5-0.2-0.8-0.5-1-0.9l-0.2-0.5
		l-1,0.6c-0.4,0.3-0.9,0.7-1.3,1.2C68.3,122.2,68.1,122.5,68.2,122.8 M70.4,121.9c0.1-0.1,0.2-0.2,0.3-0.2l0.3,0.1l0.2,0.2l0,0.3
		l-0.3,0.2c-0.3,0.1-0.4,0-0.5-0.3L70.4,121.9 M68.1,119.3c0,0.3,0,0.4-0.2,0.2c-0.2-0.2-0.3-0.5-0.3-0.7v-0.1
		c-0.9,1-1.3,2.1-1.4,3.2c-0.1,1.2,0.3,2.3,1.2,3.3l0.1,0.2l0-0.1c0.6,0.6,1.2,1,1.8,1.3c0.7,0.3,1.2,0.4,1.7,0.2l-0.2-0.3
		c-0.2-0.2-0.5-0.5-0.8-0.9c-0.2-0.5-0.3-0.8-0.3-0.9l-2.2-1.8l-0.2-0.3c0-0.2,0.1-0.5,0.3-0.8c0.5-0.7,1.2-1.4,1.9-2l1.3-1l0.8-1.8
		h0.6c-0.3,0.4-0.5,0.9-0.7,1.4c-0.2,0.7-0.2,1.2,0,1.5c0.5,0.7,1,1,1.5,0.8c0.9-0.8,1.7-1.5,2.2-2.2c0.7-0.8,0.9-1.4,0.8-1.8
		c-0.4-0.8-1.1-1.4-2.2-2.1c-1.1-0.6-2.1-0.8-2.9-0.7v0c0,0.3,0,0.5-0.1,0.5c-1,0.4-1.7,1-2.2,1.9C68.2,117.4,68,118.3,68.1,119.3
		 M67.5,117.3h0.2c0.1-0.5,0.3-1,0.5-1.5l-1.1,1.1c-0.9,1-1.7,2-2.2,3c-0.9,1.6-1.1,2.8-0.7,3.7c0.7,0.4,1.4,0.7,2.2,1
		c-0.6-1.2-0.8-2.5-0.5-3.8C66,119.5,66.5,118.3,67.5,117.3 M49,96.6c0.1,0.9,0.1,1.6,0,2.3c-0.2,1.2-0.8,2.2-1.6,3
		c-0.6,0.6-1.6,1.2-2.9,1.9c1.4,5.7,2.5,12.6,3.2,20.8c0.6,0,1.8-0.8,3.5-2.2l2.1-2.1l-1.5-10.1l-0.3-0.9c-0.1-0.2-0.1-0.3,0-0.6
		c0-0.2,0.1-0.2,0.1-0.1c0-0.3,0-0.4,0.2-0.3c0.1,0.1,0.2,0.3,0.2,0.6l0.2,1.2c1.1,2.7,2.6,5.2,4.5,7.5c2,2.3,4.2,4.1,6.7,5.5
		c-0.3-1.7,0.3-3.6,1.9-5.9c1.5-2.1,3.1-3.4,4.6-3.9c0.1,0,0.2,0.1,0.3,0.3l0.1-0.1l-5.6-8.4c-1.1-1.5-2.2-2.7-3.2-3.7
		c-2.3-2.1-4.6-3.8-7.1-5.1c-1.2-0.6-2.2-1.1-2.9-1.4c-1.1-0.5-2.2-0.7-3.1-0.8L49,96.6 M49.5,72.4l-1.5,1c0.5,0.7,1.1,1.6,1.6,2.6
		c0.4-0.7,0.6-1.3,0.6-1.7c0.1-0.5,0-1-0.2-1.4C49.9,72.6,49.7,72.4,49.5,72.4 M27.3,95.2l0.2,0.5c-0.1,2.4,0.9,4.1,3,5.4
		c1.3,0.8,3.4,1.4,6.3,1.9l0.9,0.1c0.2,0.1,0.4,0.4,0.5,0.7l0.4,2.6c0.4,2.6,0.7,5.2,1,8c0.4,3.5,0.6,6.8,0.7,9.9l0.2,1.8
		c0,0.8-0.1,1.4-0.3,1.7c-0.2,0.3-0.6,0.5-1.3,0.5h-1.7c-4.4,0.1-8.1-0.9-11-3l-0.1-0.1v0.9c0.3,0.4,0.7,0.8,1.3,1.2l1.5,1l1.1,0.9
		c0.4,0.4,0.6,0.8,0.7,1.2c0.1,0.6,0,1.1-0.1,1.6c-0.2,0.5-0.7,0.8-1.3,0.7l-0.3-0.1c0.1,0.6,0,1.2-0.1,1.6c2.8,1,5.8,1.4,9,1.2
		c3.1-0.2,6-1,8.9-2.3c3.6-1.7,6.1-3.6,7.5-5.7l0.1,0l-0.8-5.7l-4,3.4c-0.8,0.6-1.5,0.8-1.9,0.7c-0.1,0-0.2-0.2-0.2-0.4l-0.1-0.4
		c-0.8-8.8-1.9-16-3.3-21.6c-0.1-0.3-0.1-0.5,0-0.6l2.4-1.4c0.8-0.6,1.4-1.3,1.8-2.1c0.3-0.7,0.5-1.6,0.4-2.5c0-0.7-0.2-1.5-0.5-2.4
		c-1.3,1.4-2.7,2.4-4.4,3.2c-0.4,0.9-1,1.6-1.9,2.1c-0.8,0.5-1.7,0.8-2.8,0.9c-2,0.2-3.9-0.3-5.7-1.5c-1.9-1.2-2.9-2.8-3.1-4.7
		L27.3,95.2 M28.2,71.8H28c-0.9,0.1-1.5,0.6-1.7,1.6c-0.2,1,0.3,1.9,1.6,2.5c0.4,0.2,0.4,0.4,0.1,0.6c-1,0.7-1.7,1.3-2.2,1.9
		c-1.2,1.3-1.7,2.7-1.6,4.3c0.4-1.2,1-2.3,1.8-3.3c0.9-1.1,1.5-1.7,1.9-1.9l0.1,0c0.2,0,0.3,0,0.3,0.1c0.1,0.1,0,0.2-0.1,0.4
		c-0.6,0.6-1.2,1.2-1.8,1.8c-0.5,0.5-0.9,1.2-1.4,2.1l-0.8,1.7l0.1,0.5c0.5-1.4,1.2-2.5,1.9-3.3c0.5-0.6,1-1,1.5-1.3H28
		c0.2,0,0.2,0.1,0.2,0.2c0,0.2-0.1,0.4-0.3,0.5c-0.4,0.3-0.8,0.6-1.1,1c-0.4,0.5-0.8,1.1-1.4,1.9l-0.8,1.4v0l0,0.5l0.8-0.3
		c0,0.1,0,0.2-0.1,0.3c-1.1,1-1.3,2.1-0.6,3.4c0.6,1.2,1.7,1.8,3.1,1.7l0.3-0.1c1.7,2.6,3.6,4.5,5.9,5.6c0.2,0.1,0.3,0.2,0.3,0.3
		c0,0.1-0.1,0.2-0.3,0.2c-0.7,0.1-1.5-0.2-2.5-0.8c0.2,1.2,1.2,2.2,2.8,3.1c1.5,0.8,2.9,1.2,4.3,1.1c0.7-0.1,1.1-0.2,1.5-0.5h-0.1
		l-1.6-0.2c-0.7-0.2-1.1-0.4-1-0.5l0.1-0.1l1.6,0.1c1.4-0.1,2.9-0.6,4.5-1.5c2.9-1.5,5-4,6.2-7.4c1.1-3.3,1.2-6.6,0.3-9.9
		c-0.6-2-1.6-4.1-3-6.1c-0.7-0.1-1.3-0.4-2-0.9l-1.3-1.4c-0.8-0.9-1.4-1.4-1.7-1.5l-0.4-0.1c-0.5,0-1,0.3-1.7,0.8
		c-0.4,0.2-0.7,0.2-0.9,0.2c-0.6,0.1-1.3-0.1-2.1-0.6l-1.2-0.2c-1.1,0.1-2.1,0.7-3,1.8c-0.3,0.3-0.7,0.5-1.1,0.6L28.2,71.8
		 M34.8,73.8c0.2,0,0.3,0.1,0.4,0.2c0.5,0.5,0.8,0.9,0.6,1.1l-0.4,0.2c-0.4,0.2-0.7,0.3-0.9,0.5l-1.7,1.1c-0.2-0.4,0.1-1,0.7-1.9
		l1-1.1L34.8,73.8 M35.6,78.1c0.3,0,0.5,0.1,0.7,0.4c0.2,0.3,0.3,0.7,0.4,1.1c0.1,0.5,0,0.9-0.1,1.2c-0.1,0.4-0.3,0.6-0.5,0.6h0
		c-0.2,0-0.5-0.1-0.7-0.4c-0.2-0.3-0.3-0.7-0.3-1.2c-0.1-0.5,0-0.9,0.1-1.2S35.3,78.2,35.6,78.1 M37.1,85.4l0.2-0.1
		c0.1,0,0.1,0.1,0.1,0.3l-0.2,0.8c0,0.1,0,0.3,0.2,0.4c0.1,0.1,0.2,0.2,0.3,0.2l5.2,1h0.7c1.1-0.1,2.4-0.4,3.8-0.9
		c0.1,0,0.2-0.1,0.3-0.2l0-0.3v-0.4c0-0.2,0-0.2,0.1-0.2c0,0,0.1,0,0.2,0.1l1,1c0.2,0.3,0.2,0.5,0.1,0.8L48,89.6l-0.1,0.2
		c-0.1,0-0.1-0.1-0.2-0.2v-0.2c0-0.3-0.1-0.4-0.3-0.4h-0.1c-0.4,0.4-0.9,0.7-1.5,1.1c-1.2,0.7-2.3,1.1-3.3,1.2c-1,0.1-2.4-0.3-4-1.1
		l-2.3-1.2H36c-0.2,0-0.4,0.1-0.5,0.3l0,1.1l-0.2,0.2l-0.2-0.2l-0.7-2.1l0-0.5l0.2-0.3L37.1,85.4 M28,81.2L28,81.2
		c0.2,0,0.3,0,0.4,0.1s0,0.3-0.2,0.5c-0.3,0.2-0.6,0.4-0.9,0.7l-1.1,1.3l-0.1-0.1c0-0.1,0-0.4,0.2-0.7c0.2-0.3,0.3-0.6,0.5-0.9
		C27.2,81.8,27.6,81.5,28,81.2 M28.1,83.1l0.1,0l0.2,0.2c0.1,0.1,0,0.2-0.1,0.3l-0.3,0.3c-0.2,0.2-0.3,0.4-0.3,0.6
		c0,0.2-0.1,0.3-0.2,0.3c-0.2,0-0.3-0.1-0.3-0.4c0-0.2,0.1-0.4,0.3-0.8L28.1,83.1 M44.2,73.8c0-0.2,0.1-0.4,0.3-0.4l0.3,0.1l2,1
		l0.2,0.2l-0.2,0.1h-0.1l-1.9,0.1c-0.2,0-0.3-0.1-0.4-0.2c-0.1-0.1-0.2-0.2-0.2-0.4L44.2,73.8 M47,78.9c0,0.5,0,0.9-0.1,1.2
		c-0.1,0.3-0.3,0.5-0.6,0.5c-0.2,0-0.4-0.1-0.6-0.4c-0.2-0.3-0.4-0.6-0.4-1.1c-0.1-0.5,0-0.9,0.1-1.2c0.1-0.4,0.3-0.6,0.6-0.6
		c0.2,0,0.5,0.2,0.7,0.4C46.9,78,47,78.4,47,78.9 M40.7,77.9c0.2,0,0.3,0.1,0.4,0.3l1.2,1.9l2.2,2.4l0.2,0.4l-0.1,0.4l-1,1.8
		c-0.1,0.2-0.3,0.3-0.6,0.4l-0.4-0.1l-0.2-0.1c-0.1,0-0.2-0.1-0.2-0.2c0-0.1,0-0.2,0.1-0.3l0.8-1.3c0.2-0.3,0.2-0.5,0-0.8l-2-3.5
		l-0.4-0.8l0-0.4C40.5,77.9,40.6,77.9,40.7,77.9L40.7,77.9 M42.2,91.9l0.4,0.1h1.7c0.1,0,0.2,0,0.2,0.1s0,0.1-0.2,0.2l-0.8,0.5
		l-0.6,0.2L42,92.9l-0.3-0.2c-0.1-0.1-0.2-0.3-0.2-0.4c0-0.2,0.2-0.4,0.5-0.4H42.2 M36.8,87.4c-0.2,0-0.4,0.1-0.6,0.2
		c-0.2,0.2-0.2,0.4-0.1,0.6c0.1,0.1,0.2,0.2,0.4,0.3l3.9,1.4l2.5,0.1l1.5-0.2l3-1.3c0.2,0,0.3-0.2,0.4-0.6c0-0.3-0.1-0.4-0.5-0.4h0
		c-1.5,0.4-2.8,0.7-4,0.8l-0.7,0.1c-0.8,0-1.9-0.2-3.3-0.5l-1.8-0.5L36.8,87.4 M29.5,64.8c-1,0.2-1.8,0.8-2.5,1.9l-1.4,1.9
		c-0.6,0.3-1.2,1-1.9,2c-0.5,0.8-0.8,1.6-1.1,2.4c-0.5,1.5-0.5,3.3,0,5.6c0.3,1.2,0.6,2.2,1,3c0.2-1.4,0.8-2.6,1.6-3.6l1.8-1.7
		l-1.4-1.2c-0.5-0.6-0.8-1.1-0.8-1.6c0-0.6,0.2-1.2,0.6-1.7c0.4-0.6,1.1-1,1.9-1h0.6l3.2,0.8h0.1l1.5-1.8c0.9-1.1,1.6-1.7,2.2-1.7
		l0.4,0.1c0.3,0.1,0.9,0.4,1.8,0.9l1.1,0.6l0.8,0.2l0.3-0.1l0.7-0.4c0.6-0.4,1-0.6,1.2-0.6l1.1,0.3c0.3,0.2,0.9,0.7,1.8,1.6l1.3,1.4
		c0.7,0.5,1.4,0.8,2,0.7c0.5,0,0.8-0.2,1.1-0.6c0.6-0.6,0.9-1.4,1.1-2.4c0.1-0.9,0.1-1.7-0.2-2.4c-0.3-0.6-0.7-1.1-1-1.4
		c0.1,0.6,0,1.1-0.4,1.5c-0.4,0.4-1,0.6-1.5,0.6c-0.8,0.1-1.5-0.2-2.1-0.9c-1.6-1.6-2.7-2.4-3.2-2.5l-0.6,0c-0.3,0-0.7,0.1-1.1,0.3
		l-1,0.3c-0.2,0-0.5,0-0.7-0.2l-1.9-2.4c-0.4-0.5-0.8-0.7-1-0.7h-0.1c-0.5,0-1,0.3-1.7,0.9l-1.4,1.1L29.5,64.8z"/>
	<path class="st0" d="M233.9,139.3l-0.4-0.3l-0.7,0.1c-0.3,0-0.6-0.1-0.9-0.2l1.1,2c0.1-0.2,0.5-0.3,1-0.2L233.9,139.3 M232.8,134.8
		l0.3,0.2l0.3,0.3h0.5l0.2-1.3l-0.2,0.1l0,0.1L232.8,134.8 M234.9,127.9L234.9,127.9l-0.1,0l-3.8-1.5c0.1,0.5,0.1,1,0,1.4
		c-0.1,0.2-0.3,0.4-0.8,0.6c-0.4,0.1-0.5,0.3-0.3,0.5c0.3,0.4,0.4,0.8,0.3,1.3c-0.1,0.4-0.3,0.8-0.7,1.1l-0.7,0.7
		c2.5,2.3,4.5,2.6,6.1,0.8c0.7-0.8,1.2-1.7,1.4-2.6C236.5,128.9,236,128.1,234.9,127.9 M234.6,129.3l-0.2,0.1c-0.3,0-0.5,0-0.7-0.2
		c-0.3-0.3-0.6-0.4-0.8-0.4c-0.3,0-0.5-0.1-0.6-0.2l0-0.2c0,0,0.1-0.1,0.2-0.1c0.7,0,1.3,0.2,1.9,0.8L234.6,129.3 M233,131.3
		l-0.7-0.3l-0.7-0.4c-0.2-0.2-0.1-0.3,0.1-0.3c0.2,0,0.5,0,0.7,0.2l1,0.5c0.3,0.1,0.4,0.3,0.2,0.4L233,131.3 M221,126.8h-0.2
		l-0.2,0.7c3.1,0.7,5.4,1.9,7.1,3.6l0.1,0.1l1.1-1c0.3-0.4,0.2-0.9-0.2-1.7l-0.1-0.1C226.3,126.8,223.8,126.3,221,126.8
		 M221.4,125.3c-0.1,0.1-0.3,0.4-0.5,0.9c3-0.4,5.6,0.2,7.9,1.7c1.2-0.1,1.6-0.7,1.1-2l0-0.1c-1-0.5-1.8-0.8-2.4-0.9
		C225.5,124.5,223.4,124.6,221.4,125.3 M139.8,168l-0.2-0.1c-4.3-0.7-6.7,0.1-7.2,2.2c0.7,0.1,1.8,0,3.2-0.1
		c1.4-0.1,2.5-0.1,3.2-0.1l2.1,0.3c0.1-0.5,0.1-1,0-1.4C140.6,168.4,140.3,168.1,139.8,168 M142.2,168.6l0-0.1l-1.5-0.3
		c0.6,0.5,0.9,1.3,0.6,2.3l1.4,0.4c0.2-0.4,0.3-0.8,0.3-1.2c0-0.5-0.2-0.7-0.7-0.9L142.2,168.6 M151.4,171.4
		c0.1-0.1,0.2-0.1,0.3-0.1l0.1,0c0.8,0.4,1.3,1,1.4,1.9c0.1,0.8,0,1.6-0.5,2.4l0.3,0.2c1.2,0.7,2.5,1.1,3.9,1.2c0.7-0.5,1-1.2,1-2.3
		c0-1-0.5-1.7-1.3-2.1l-0.7-0.1c-0.7-0.1-2.1-0.5-4.2-1.2c-3.9-1.3-6.8-2.2-8.7-2.7c0.4,0.2,0.7,0.5,0.7,0.8c0.1,0.5,0,1-0.3,1.6
		l0.3,0.1c1.4,0.5,2.8,1.1,4.3,1.9c0.9,0.5,2.3,1.3,4.1,2.3c0.4-0.7,0.5-1.4,0.4-2.1c-0.1-0.8-0.4-1.3-1.1-1.6
		C151.4,171.5,151.3,171.5,151.4,171.4 M159.2,176.7c0.9-0.6,1.2-1.3,0.8-2.3c-0.3-0.8-0.9-1.5-1.8-1.9l-0.9,0.1
		c0.7,0.5,1.1,1.2,1.2,2.1c0.1,0.9-0.1,1.7-0.7,2.2L159.2,176.7L159.2,176.7 M164.4,166.7c0.7,0.4,1.1,1.1,1.4,1.9l0.9-2.2
		c-0.1-1-0.5-1.7-1.2-2.2c-0.7-0.6-1.5-0.7-2.4-0.4l-0.4,2.6C163.3,166.1,163.8,166.2,164.4,166.7 M162.7,167.1l-0.1,0.1
		c-0.3,1.2-0.7,2.3-1.3,3c0.6,0.1,1.1,0.4,1.6,0.9c0.5,0.5,0.9,1.1,1.1,1.7l1.4-3.3c0-0.9-0.3-1.7-0.9-2.3c-0.3-0.4-0.7-0.6-1-0.7
		C163.2,166.5,162.8,166.6,162.7,167.1 M161.1,170.5L161.1,170.5c-0.7,0.9-1.5,1.5-2.5,1.8c0.8,0.4,1.4,1,1.8,1.7
		c0.4,0.8,0.4,1.5,0,2.2c1.3-0.6,2.4-1.5,3.2-2.7c0-0.4-0.1-0.8-0.3-1.2C162.6,171.1,161.8,170.5,161.1,170.5 M180.4,128.8l0-0.4
		l-1-0.1l-0.1,0.1l-0.4,0.1l-0.4-0.2c-2.7,0-5.2,0.6-7.7,1.8c-2.4,1.2-4.4,2.9-6.1,5l6.1-0.6l4.3,0.1l1.2,0.4
		c0.5,0.2,0.8,0.5,0.9,0.8l-0.1,0.7c-0.1,0.2,0.1,0.6,0.5,1.1l1.2,1.6c0.2,0.3,0.3,0.8,0.2,1.3c0,0.5-0.2,0.9-0.3,1.3l-0.9,2.7
		c1.6,1.3,2.9,1.8,3.9,1.3l2-0.9c1.4-0.6,2.7-0.7,3.9-0.5l2.8,0.1l2.6-0.6l1.5-0.2l-0.3-1.3l-1.4-2.3c-0.6-1-0.4-1.7,0.4-2.2
		l1.6-0.8c0.5-0.3,1-0.7,1.4-1.1c0.5-0.6,1-0.9,1.4-1.1c-1.5-0.6-4.1-1.7-7.8-3.4l0,0.4c0,0.2-0.1,0.3-0.5,0.2
		c-0.3,0-0.5-0.2-0.5-0.3l-0.1-0.8l0-0.2l-0.2-0.7l-0.3-0.5l-0.1,0c-0.2,0.1-0.3,0.3-0.4,0.6c-0.1,0.4-0.1,0.9-0.1,1.5
		c0,0.2-0.1,0.3-0.5,0.2c-0.3,0-0.5-0.2-0.5-0.3c0-0.6,0-1,0-1.4l-3.2-1.2l-0.2,0.6c-0.1,0.2-0.3,0.2-0.6,0.1
		c-0.3-0.1-0.5-0.2-0.4-0.4c0.2-0.6,0.3-1.1,0.2-1.5l-0.2-0.5l-0.1-0.2l0,0l-0.1,0l-0.3,0.3c-0.2,0.3-0.4,0.8-0.4,1.5
		c0,0.2-0.2,0.2-0.5,0.1C180.5,129.1,180.4,129,180.4,128.8 M187.3,135.5l0.6,0.1c0.9,0.3,1.3,0.9,1.4,1.8c0,0.2-0.1,0.3-0.5,0.2
		c-0.3,0-0.5-0.2-0.5-0.3c0-0.4-0.1-0.8-0.3-1c-0.1-0.2-0.3-0.3-0.5-0.2c-0.1,0.5-0.1,0.9,0,1.1c0.1,0.2-0.1,0.2-0.4,0.2
		c-0.3,0-0.5-0.1-0.5-0.3c-0.1-0.2-0.1-0.4-0.1-0.7l0.1-0.7C186.8,135.5,187,135.5,187.3,135.5 M182.2,138.3c-0.3,0-0.5-0.1-0.6-0.3
		c-0.2-0.8-0.6-1.4-1-1.8l0,0l-0.1,0.1c-0.1,0.2-0.2,0.6-0.2,1.2c0,0.2-0.2,0.3-0.5,0.2c-0.3,0-0.5-0.2-0.5-0.3l0-0.9
		c0-0.4,0.2-0.6,0.3-0.8l1.1,0c0.8,0.4,1.4,1.2,1.8,2.4C182.7,138.3,182.5,138.3,182.2,138.3 M180,126.3c0.4-0.6,0.4-1.2,0.1-1.8
		c-0.6-1.4-1.1-2.4-1.5-2.9c-0.4-0.6-1.3-0.8-2.6-0.6c-1.3,0.2-2.2,0.6-2.6,1.3c-0.5,0.8-1.3,1.9-2.6,3.2c-1.4,1.4-2.3,2.5-2.7,3.1
		l-0.5,0.1c-0.3-0.1-0.4-0.2-0.4-0.4c0-0.9,0.3-2.1,0.7-3.6l0.9-3.6c0.2-1.2,0.2-2.3,0.1-3.2c-0.2-1.5-0.8-2.5-1.6-2.9l-5.5-1.2
		c-1.2-0.1-2,0-2.4,0.5c-0.4,0.5-0.7,1-0.9,1.5c0.4-0.5,0.8-0.8,1.1-0.9c0.4-0.3,0.9-0.4,1.5-0.3c0.7,0.1,1.4,0.4,2.1,0.9l1.8,1.4
		c0.2,0.2,0.2,0.3-0.1,0.3c-0.3,0-0.5,0-0.6-0.1c-1.2-0.8-2.1-0.7-2.7,0.4c-0.4,0.7-0.6,1.6-0.7,2.7l0,0.7l0.7-1.3
		c0.3-0.5,0.6-0.7,0.9-0.9l1.9-0.1c0.7,0.1,1.3,0.3,2,0.6c0.9,0.4,1.3,0.9,1.2,1.5l-2.7,6.8c-1.5,4.4-1.8,6.6-0.9,6.7h0.1
		c1.8-2.2,4-3.9,6.6-5c2.6-1.2,5.3-1.8,8.1-1.7L180,126.3 M211.1,134.1l-0.3-0.1l-5.7,4.5c-0.2,0.1-0.3,0.6-0.5,1.3
		c-0.1,0.7-0.4,1.2-0.7,1.4c-0.2,0.1-0.4,0.2-0.6,0.3l-0.1,0.8l0.4,0.8l4.4-0.3c1.7-0.1,3.1,0.2,4.3,0.8l2,1.7
		c0.8,0.8,1.5,1,2.1,0.7c0.5-0.2,1.1-0.6,1.8-1.2l1.8-1.2c1.6-0.9,2.9-1.4,3.9-1.4c1.1-0.1,1.9-0.3,2.6-0.8c0.7-0.4,1.2-1.1,1.7-2.1
		c1-1.9,2-3.3,2.9-4.1c-0.1-0.2-0.2-0.3-0.1-0.4c0-0.1,0.2-0.2,0.4-0.3c0.2,0,0.5,0,0.7,0l0,0c-1.3-0.1-2.6-0.8-4.1-2.1l-0.5,0.4
		c-0.7,0.5-1.6,0.8-2.9,1.1l-5,0.9c-0.7,0.2-1.3,0.6-1.7,1c-0.7,0.8-0.9,1.5-0.7,2.1c0.7,0.4,1.4,0.7,2.1,0.8c0.2,0,0.3,0.1,0.4,0.3
		c0.1,0.1,0,0.2-0.2,0.2c-1.6,0-2.6-0.4-3.1-1.2l-1.4-1c-0.2-0.2-0.2-0.3,0.1-0.3l0.6,0.1l0.4,0.3c0-0.5,0.3-1.1,0.8-1.6
		c0.4-0.4,0.9-0.8,1.4-1c0.8-0.3,1.8-0.6,3-0.8l4.6-1c0.6-0.2,1-0.6,1.1-1l0.1-0.2c-0.8-0.7-1.6-1.4-2.3-1.8l-4.8,0.5
		c-2,0.1-3.4,0.7-4.3,1.7l-0.9,1.7c-0.4,0.8-0.8,1.2-1.3,1.3c-0.3,0.1-0.8-0.1-1.4-0.4C211.8,134.3,211.3,134.1,211.1,134.1
		 M226.3,135.4l0-0.2l0.2-0.1h0.2c0.3,0,0.5,0,0.6,0.2c0.1,0.1,0,0.2-0.2,0.3h-0.2C226.7,135.6,226.4,135.6,226.3,135.4 M226.8,138
		c-0.3,0-0.5-0.2-0.5-0.3l0-0.2c0-0.2,0.1-0.2,0.5-0.2c0.3,0,0.5,0.2,0.5,0.3v0.2C227.2,138,227.1,138,226.8,138 M224.8,136.4h0.3
		c0.3,0,0.5,0,0.6,0.2c0.1,0.2,0,0.3-0.2,0.3l-0.3,0c-0.3,0-0.5,0-0.6-0.2C224.5,136.5,224.5,136.4,224.8,136.4 M224.2,136.2
		c0.2,0.2,0.1,0.3-0.2,0.3c-0.2,0-0.4-0.1-0.5-0.3c-0.2-0.2-0.1-0.3,0.2-0.3C223.8,136,224,136.1,224.2,136.2 M224.1,138.6l0.6,0.1
		c0.2,0.1,0.4,0.2,0.4,0.4c0,0.1-0.1,0.2-0.3,0.2c-0.2,0-0.4,0-0.5-0.1l-0.5-0.2l0-0.2L224.1,138.6 M221.1,138
		c0.2,0,0.4,0.1,0.6,0.3c0.2,0.2,0.1,0.3-0.2,0.3c-0.2,0-0.4-0.1-0.5-0.3C220.7,138.1,220.8,138,221.1,138 M201.4,120.4l-1.3,2.5
		c-0.5,1-1.1,1.7-1.7,2.3l-0.5,0l-0.4-0.3c-0.2-0.4-0.2-1.3-0.1-2.6c0.1-1.2,0-2.1-0.3-2.5c-0.5,2-0.7,3.8-0.6,5.2l-0.1,0.2
		c-0.6,0.4-1.2,0.9-1.6,1.8c-0.3,0.5-0.6,1.3-0.9,2.3l-0.6,0.7c-0.3,0.2-0.4,0.5-0.3,0.8l0.5,2.1l2.4,1.1l-0.2-3
		c0-0.1,0-0.2,0.2-0.2c0.3-0.1,0.8-0.4,1.5-0.9c0.6-0.4,1.1-0.7,1.6-0.8l2.1-0.3c0.7-0.2,1.3-0.5,1.6-1l-2.5,0.1
		c-0.3-0.1-0.5-0.2-0.4-0.4c0.3-0.6,1.1-1.4,2.5-2.2c1.2-0.8,1.9-1.6,2-2.4c-0.6,0.3-1.3,0.9-2.2,1.7l-2.2,1.8h-0.5
		c-0.2-0.1-0.4-0.2-0.4-0.3c0-0.5,0.4-1.5,1.3-2.8C201.2,121.9,201.5,121,201.4,120.4 M210.1,122.1c-0.4-0.3-0.8-0.5-1.2-0.7
		c-1.1,0.3-1.3,0.7-0.5,0.9l1.7,0.9c0.6,0.4,1,0.9,1.3,1.4c0.1,0.1,0,0.2-0.1,0.2l-0.3,0l-4.6-0.8c-0.7,0-1.2,0.4-1.4,1.2l4.2,0.6
		c0.5,0.2,1,0.5,1.3,1c0.1,0.1,0.1,0.2,0,0.2l-3,0.4c-1.2,0.1-2.1,0.5-2.6,1.2l1.4-0.3c0.6-0.2,1-0.2,1.3-0.2c0.8,0,1.7,0.2,2.5,0.5
		c0.2,0,0.3,0.1,0.3,0.3c-0.1,0.6-0.5,1.2-1.1,1.8l-1.9,1.1l-2.6,1.2c-1,0.5-1.9,0.9-2.6,1.3c-1.6,0.9-2.8,1.2-3.7,0.8
		c-0.4-0.2-0.8,0-1.2,0.6l-1.1,1.4l-1.4,0.6c-0.6,0.2-1,0.5-1.2,0.8c-0.4,0.5-0.3,1.1,0.2,1.7l1.1,1.4l1,3.9c0.4,1.4,1,2.6,1.6,3.6
		l1.8,2.2c0.8,0.9,1.2,1.7,1.4,2.4c0.1,0.5,0.2,1.4,0.2,2.6c0.2,1,0.7,1.5,1.6,1.6c0.2,0,0.4,0.1,0.5,0.3c0.1,0.2,0,0.2-0.3,0.2
		l-1.6-0.3c-0.6-0.2-0.9-0.6-1-1.2c0-1.3-0.1-2.3-0.2-2.9c-0.1-0.6-0.5-1.3-1-2l-1.4-1.7c-0.7-1-1.3-2-1.7-3.1
		c-0.3-0.8-0.7-1.9-1.1-3.2c-0.4-0.1-1.1,0-1.9,0.3l-1.9,0.6c-1,0.1-1.8,0-2.4,0l-2.7-0.1c-0.7,0.1-1.6,0.4-2.6,0.9
		c-1,0.5-2,0.7-2.9,0.5c-0.8-0.2-1.7-0.6-2.6-1.3l-1.3,3.6c0.5,2.2-0.1,4.5-1.7,6.9c-1.6,2.4-3.5,3.8-5.8,4.1
		c-0.2,0-0.4-0.1-0.6-0.2c-0.2-0.2-0.2-0.3,0-0.3c1.8-0.2,3.4-1.2,4.8-3c1.4-1.7,2.2-3.5,2.4-5.5c-0.9,1.9-2,3.4-3.1,4.4
		c-0.1,0.1-0.3,0.1-0.6,0c-0.3-0.1-0.4-0.3-0.3-0.4c1.3-1.1,2.4-2.9,3.3-5.2c0.9-2.6,1.6-4.6,2.2-5.8l0.9-1.8
		c0.3-0.8,0.4-1.4,0.3-1.9c-0.1-0.4-0.4-0.9-0.7-1.4l-0.9-1.3c-0.1-0.1-0.1-0.4-0.1-0.9c0-0.4-0.2-0.6-0.5-0.8l-0.9-0.2l-8.2,0.3
		l-2.4,0.3l-0.3,0.1c-2.1,0.4-3.3,1.2-3.5,2.3c0,0.2-0.2,0.2-0.5,0.1c-0.3-0.1-0.5-0.2-0.4-0.4c0.1-0.5,0.4-0.9,0.8-1.3l-0.7-2.2
		c-0.3-0.9-0.5-1.7-0.5-2.3c-0.1-0.8-0.1-1.5,0-2.3c0.1-0.6,0.3-1.3,0.5-2.3l0.3-1.1c0.1-0.4,0.1-0.8,0-1.1
		c-0.2-0.6-0.7-0.9-1.5-1.1l-2-0.2c-0.2,0-0.5-0.1-0.7-0.3l-0.6-0.5c-0.9-0.9-1.6-1.5-2.1-1.7c-0.8-0.4-1.8-0.4-2.8,0.1
		c-0.3,0.1-0.6,0.3-0.8,0.4l1.8-0.1c0.7,0.2,1.4,0.6,1.9,1.4c0.3,0.4,0.7,1.1,1.3,2.1c0.1,0.1,0,0.2,0,0.2c-0.4,0.2-1.1,0.1-2-0.2
		c-0.9-0.3-1.5-0.5-2-0.3c-0.9,0.3-1.7,0.8-2.5,1.4c1-0.5,1.9-0.6,2.5-0.3l2.1,0.8c0.8,0.3,1.4,0.7,1.9,1l0.6,0.7
		c0.2,0.3,0.1,0.6-0.3,0.7H150c-0.8,0.1-1.5,0.4-2,1l-1,0.9l0.4-0.3c0.6-0.4,1.2-0.6,1.8-0.8c0.5-0.1,1,0,1.7,0.3
		c0.8,0.4,1.3,0.6,1.6,0.6c0.9,0.1,2.1,0.1,3.6,0c1,0.2,1.4,1,1.4,2.6v12.7c0,1.6,0,2.7,0.2,3.2c0.1,0.4,0.3,0.6,0.5,0.7l0.9-0.2
		c1.6-0.5,3.1-1.2,4.7-2.1c2-1.1,3.3-2,4.1-2.7c1.6-1.3,2.4-2.7,2.5-4c0-0.1,0.1-0.2,0.4-0.1l1.1,0.5c0.3,0.1,0.4,0.3,0.2,0.4
		l-0.6,0l-0.2,0c-0.2,1-0.8,2-1.9,3c-0.7,0.6-1.6,1.4-2.9,2.2c-1.8,1.1-3.2,1.9-4.1,2.4c-0.3,0.9-0.5,2-0.5,3.3c0,0.8,0,1.9,0.1,3.4
		c0.2,2.6,0.5,3.8,0.7,3.7l0.5,0c0.2,0.1,0.3,0.2,0.3,0.3l-0.3,2.8c0.9-0.1,1.7,0,2.4,0.4c0.7,0.4,1.2,1.1,1.5,1.9l0.9-1.5
		c0.8-1.1,1.6-1.8,2.5-2.2c0.9-0.4,2-0.5,3.3-0.2l4.9,0.7c0.9,0.1,2.2,0.1,3.8,0l3.8-0.1c2.4,0,4.2,0,5.3-0.1l1.8-0.2
		c0.2-1.3,0.5-2.5,0.8-3.7c0-0.2,0.2-0.2,0.6-0.1c0.3,0.1,0.4,0.2,0.4,0.4c-0.3,1.2-0.5,2.3-0.7,3.3l1.5-0.1
		c-0.2-1.7-0.4-3.1-0.6-4.1c0-0.2,0.1-0.2,0.4-0.2c0.3,0,0.5,0.2,0.5,0.3c0.3,1.3,0.5,2.6,0.6,4l0.5,0c1.9,0,3.4,0.3,4.5,0.7
		c1.1,0.5,2,0.8,2.7,0.9c1,0.2,1.9,0,2.7-0.3c1.4-0.6,2.3-1,2.8-1.2c-0.3-0.3-0.5-0.5-0.6-0.9c-0.1-0.1,0-0.2,0.4-0.2
		c0.3,0,0.5,0.1,0.6,0.3c0.2,0.4,0.4,0.6,0.7,0.7l1-0.1l0.2-0.2c-0.1-0.1,0-0.2,0.1-0.2h0c0.3-0.4,0.3-0.9,0.1-1.5
		c-0.1-0.2,0.1-0.2,0.4-0.2c0.3,0,0.5,0.1,0.6,0.3c0.1,0.4,0.2,0.9,0,1.3l3.2-0.2l-0.1-1.5c0-0.2,0.1-0.3,0.5-0.2
		c0.3,0,0.5,0.2,0.5,0.3l0.1,1.3l2.6-0.3l-0.8-1.6c-0.1-0.2,0-0.3,0.3-0.2c0.3,0,0.5,0.1,0.6,0.2l0.7,1.3c0.6-0.3,0.9-0.8,1-1.4
		l0-0.5l-1.6-1.1c-0.2-0.2-0.3-0.3,0-0.3l0.6,0l1.1,0.7c0-0.3,0.1-0.6,0.2-0.9c0.4-0.8,1.2-1.4,2.4-1.8l3-0.9
		c1.4-0.6,2.5-1.3,3.4-2.2c-0.3-0.3-0.5-0.6-0.8-1.1c0-0.1,0-0.2,0.2-0.2c0.2,0,0.3,0,0.4,0.1l0.5,0.8l1-1.3l-1-0.7
		c-0.1-0.1-0.1-0.2,0.1-0.2l0.4,0.1l0.7,0.5l0.4-0.8l-0.7-0.2c-0.2-0.1-0.2-0.1-0.1-0.2l0.4,0l0.6,0.2l0.3-0.8
		c-0.4-0.1-0.7-0.2-0.9-0.3c-0.3-0.2-0.4-0.4-0.4-0.6c0-0.7,0-1.3,0-1.9l-1.9,1c-0.4,0.2-0.9,0.1-1.5-0.2c-0.7-0.3-0.8-0.6-0.3-0.9
		l3.3-2c-0.3-1-1-2.5-2.1-4.3c-0.1-0.1-0.1-0.3-0.1-0.4c0.1-0.2,0.3-0.3,0.7-0.3c0.4,0,0.7,0,1.1,0.2c0-0.1,0-0.2,0.1-0.3l1.2-1.2
		c-0.3-0.4-0.6-0.8-1-1.2c-0.8,0.7-1.5,1.6-2,2.7l-0.8,1.6l-1,1.4c-0.7,0.7-1.5,1.1-2.4,1.2c-1.2,0.1-2.2,0.3-3.2,0.7
		c-0.9,0.4-1.9,0.9-2.9,1.6l-2,1.4c-0.9,0.5-1.7,0.6-2.3,0.2c-0.4-0.2-0.7-0.5-0.9-0.8c-1.5-1.8-3.2-2.7-5.3-2.6l-5.1,0.4l0.5,2.4
		l2.9,0.3c1.1,0.1,2,0.3,2.7,0.7c-0.1-0.1-0.1-0.2-0.1-0.2l0.3,0c1.6,0.3,2.9,1.1,3.8,2.4c0.8,1.2,1.2,2.6,1.2,4.4
		c0,0.2-0.1,0.3-0.5,0.2c-0.3,0-0.5-0.2-0.5-0.3c-0.1-1.6-0.4-2.8-0.9-3.9c-0.7-1.3-1.7-2.1-3-2.3h0c0.4,0.3,0.8,0.6,1.2,1
		c0.9,1.2,1.6,2.4,2,3.7c0.5,1.6,0.6,2.9,0.2,4.1c0,0.2-0.2,0.2-0.5,0.1c-0.3-0.1-0.5-0.2-0.4-0.4c0.3-1,0.3-2.3-0.1-3.8
		c-0.4-1.3-1-2.4-1.8-3.4c-0.7-0.9-1.6-1.5-2.9-1.7l-3.4-0.4c0.3,0.7,0.8,1.2,1.5,1.6c1.5,0.8,2.6,1.6,3.3,2.4
		c0.9,0.9,1.2,1.9,1.2,2.8c-0.1,1-0.7,1.8-1.7,2.4c-0.1,0.1-0.4,0-0.6-0.1c-0.3-0.1-0.3-0.3-0.1-0.4c3-1.8,2-4.2-3.1-7.3
		c-0.6-0.4-1.1-1-1.4-1.7l-0.8-0.2c-0.3-0.1-0.4-0.2-0.3-0.4c0-0.2,0.2-0.2,0.5-0.1l0.5,0.1l-0.5-2.5c-0.4,0.5-0.9,0.8-1.5,0.9
		c-0.2,0-0.5,0-0.7-0.2l-0.1-0.2c0-0.1,0.1-0.1,0.2-0.1c0.8-0.1,1.3-0.6,1.6-1.4c-0.1-0.1-0.1-0.2,0-0.2l0-0.2l-1.9,0.2
		c-0.2,0-0.4-0.1-0.6-0.2c-0.2-0.2-0.2-0.3,0-0.3l2.4-0.3c0.9-0.3,1.5-0.8,1.6-1.5l0.1-0.9c0-0.3,0.2-0.5,0.4-0.7l8.3-6.6
		c1.1-0.9,1.8-2.1,2.1-3.8c0.3-1.6,0.1-3.1-0.6-4.3c0,0.4,0,0.7-0.1,1.1c0,0.1-0.2,0.2-0.3,0.1l-0.4-0.1L210.1,122.1 M185.6,152
		l0.6,0c0.3,0.1,0.4,0.3,0.3,0.4c-0.3,0.6-0.6,1.1-0.9,1.6c-0.1,0.2-0.3,0.2-0.6,0.1c-0.3-0.1-0.4-0.2-0.4-0.4
		C184.9,153.1,185.2,152.5,185.6,152 M188.4,150.5c0-0.1,0-0.1,0.1-0.2l0.3,0c0.3,0,0.5,0.1,0.5,0.3l0.2,1c0,0.2-0.1,0.3-0.5,0.2
		c-0.3,0-0.5-0.2-0.5-0.3L188.4,150.5 M184.4,148.7c0.2-0.1,0.5,0,0.7,0.2c0.2,0.1,0.1,0.3-0.1,0.3c-0.6,0.1-1.1,0.4-1.6,0.8l-0.6,0
		c-0.3-0.1-0.4-0.2-0.3-0.3C183.1,149.2,183.7,148.9,184.4,148.7 M187.5,158.4c0,0.8,0.1,1.2,0.4,1.4c0.2,0.1,0.5,0,1-0.2
		c0.4-0.2,0.7-0.6,0.9-1c0.2-0.4,0.1-0.9,0-1.3c-0.1-0.1,0.1-0.2,0.4-0.2c0.3,0,0.5,0.1,0.6,0.3c0.3,0.6,0.2,1.2-0.1,1.8
		c-0.4,0.6-0.9,0.9-1.6,1.1c-0.7,0.1-1.3,0-1.8-0.3c-0.5-0.3-0.7-1-0.6-1.8c0-0.1,0.2-0.2,0.5-0.1
		C187.4,158.1,187.6,158.2,187.5,158.4 M218.5,150.2c-0.3,0.4-0.5,0.9-0.5,1.5c-0.1,0.6,0,1.1,0.1,1.6c0.2,0.6,0.6,1.1,1.2,1.4
		c0.6,0.4,1.3,0.4,1.8,0.2c0.6-0.3,1-0.8,1.3-1.7l0.4-2.2c0-0.2,0.2-0.2,0.5-0.1c0.3,0.1,0.5,0.2,0.4,0.4c-0.2,1.4-0.5,2.4-0.9,3
		c-0.6,1-1.4,1.4-2.6,1.2c-1.5-0.3-2.5-0.9-3-1.8c-0.3-0.5-0.4-1.2-0.3-1.9c0-0.7,0.2-1.3,0.5-1.8c0.1-0.1,0.3-0.2,0.6-0.1
		C218.5,150,218.6,150.1,218.5,150.2 M178,153.7l0.6,0c0.3,0.1,0.4,0.3,0.3,0.4c-0.9,1.4-2.3,2.9-4.1,4.7l-0.6,0
		c-0.3-0.1-0.4-0.2-0.3-0.3C175.7,156.7,177.1,155.1,178,153.7 M177.7,158.2c-0.3-0.1-0.4-0.2-0.4-0.4l0.6-2.2
		c0-0.2,0.2-0.2,0.5-0.1c0.3,0.1,0.4,0.2,0.4,0.4l-0.6,2.2C178.2,158.3,178,158.3,177.7,158.2 M219.4,150.7c0-0.2,0.2-0.2,0.5-0.1
		c0.3,0.1,0.5,0.2,0.4,0.4c0,0.5,0.1,0.9,0.4,1.1c0.2,0.2,0.5,0.2,0.9,0c0.1-0.1,0.4,0,0.6,0.1c0.3,0.1,0.3,0.2,0.1,0.3l-2-0.1
		C219.6,152.1,219.3,151.5,219.4,150.7z"/>
</g>
</svg>
