<?xml version="1.0" encoding="utf-8"?>
<!-- Generator: Adobe Illustrator 25.4.1, SVG Export Plug-In . SVG Version: 6.00 Build 0)  -->
<svg version="1.1" id="AnimalFriend_x2C_PerkClip_x5F_1e67f" image-rendering="auto"
	 xmlns="http://www.w3.org/2000/svg" xmlns:xlink="http://www.w3.org/1999/xlink" x="0px" y="0px" viewBox="0 0 240 240"
	 style="enable-background:new 0 0 240 240;" xml:space="preserve">
<style type="text/css">
	.st0{fill:#FFFFFF;}
</style>
<g>
	<rect width="240" height="240"/>
	<path class="st0" d="M89.5,214c1,2.3,1.5,4.2,1.4,5.9c1.6-1,3.2-2.6,4.9-4.7c-1.8-3.5-3.8-6.6-6.1-9.1c-2.8-3.1-5.8-5.1-9.1-6.1
		c2.4,3.1,4.4,6.1,6.1,9.1L89.5,214 M102.1,191.9l0,0.2c0.2,1.3,0.9,2.8,1.9,4.7c1.1,2,2.2,3.4,3.3,4.3c-0.2-1.3-0.8-3-1.9-5.1
		C104.2,194.1,103.1,192.7,102.1,191.9 M106,189.3l-0.2,0.2c-0.2,0.5-0.1,1.2,0.1,2.2c0.2,1.1,0.6,2.2,1.1,3.3
		c0.5,1.2,1.2,2.2,1.9,3c0.6,0.8,1.2,1.2,1.7,1.4l0.2,0.1l0.1-0.3c0.2-0.4,0.2-1.1,0-2.1c-0.2-1.1-0.6-2.2-1.1-3.4
		c-0.7-1.5-1.5-2.6-2.4-3.5C106.7,189.5,106.2,189.2,106,189.3 M110.5,189.1c-0.1,0.4,0,1,0.2,1.9c0.4,1.1,1,2.3,1.8,3.4
		c0.7,1.1,1.5,2,2.3,2.7c0.8,0.6,1.4,1,1.9,1.1h0.2l0.1-0.2c0.1-0.5-0.1-1.2-0.4-2.1c-0.4-1-0.9-2.1-1.6-3.1l-0.2-0.4
		C113.5,191.1,112,190.1,110.5,189.1 M111.6,181.8c0.2-0.2,0.3-0.3,0.5-0.5c-1.8-1.5-3.5-2-5-1.7c-1,0.2-1.9,0.8-2.8,1.8
		c-0.1,0.1-0.2,0.3-0.3,0.4c-0.3,0.4-0.5,0.8-0.7,1.1h0v0.1l-0.8,1.9c-0.4,1.5-0.3,2.8,0.2,4c2.1-1.7,4.1-2.4,6.1-2.2
		C108.8,185,109.8,183.3,111.6,181.8 M116.9,176.4c-0.2-0.2-0.3-0.5-0.4-1l-1.2,3.9c1.2,0,2.4,0.2,3.6,0.8c0.9,0.4,1.6,1,2.3,1.7
		c0.3,0.3,0.6,0.7,0.8,1.1c1.4,2.1,2.6,5.1,3.6,9l1.1,6.5l2.3-6c-2.2-4.2-4.5-7.7-6.8-10.6C120.5,179.6,118.7,177.8,116.9,176.4
		 M101.2,183.4c-1.3,0.1-2.1,0.5-2.5,1.1c-0.4,0.7-0.5,1.7-0.2,3c0.3,0.9,0.6,1.8,1,2.6l0.1,0.1l0.7,1.6l0.1-0.9
		c0.1-0.4,0.3-0.7,0.7-0.9l0.2-0.1C100.2,188,100.2,185.9,101.2,183.4 M71.5,195.6c-1.5-0.3-3.1-0.3-4.6,0c-2,0.3-2.9,1.2-2.8,2.7
		c0.1,1.2,0.5,2.5,1.3,3.9l2.2,3.5c1.8,2.6,4,5.2,6.4,7.7l2.6,2.5l10.2-4.7c0.2-0.1,0.4,0.2,0.6,0.9c0.2,0.7,0.2,1.1,0,1.2l-9.1,4.1
		l3.2,2.2c1.2,0.7,2.2,1.1,2.9,1.4l3.2,0.2l1.6-0.6l0.1-0.2c1-1.5,0.8-3.8-0.7-6.9l-4-6.3c-1.7-2.6-3.6-5.2-5.6-7.8
		C76.6,197.4,74.1,196.1,71.5,195.6 M77.5,146.8l-1.9-1.2l-2-1.5c0.4,4.3,1.8,8.6,4.2,13c2.2,3.9,5,7.5,8.4,10.8
		c0.6-5.1,0.9-9.9,1-14.6c0-0.4,0.2-0.4,0.4,0.1l0.4,1.2c-0.1,5.9-0.6,12.3-1.5,19.4c-0.3,2.8-0.7,5.4-1.1,7.8
		c-0.5,2.7-1,5.2-1.6,7.2c-1.1,4-2.2,7-3.4,9c3.4,1,6.6,3.2,9.6,6.6c2.4,2.8,4.5,6.1,6.4,9.9l0.1-0.1c2.8-3.5,5.5-7.8,8.2-12.8
		l-6.8-10.7c-0.5-0.9-0.9-1.9-1.2-3c-0.4-1.8-0.3-3.2,0.4-4.3c0.6-0.9,1.6-1.5,2.9-1.8c0.6-0.1,1.2-0.1,1.9-0.1
		c1.2-2.1,2.8-3.4,4.7-3.8c2-0.4,4.2,0.2,6.4,2.1l0.8-0.3c2.2-6.7,3.7-12.6,4.7-17.7c1.2-6.6,1.7-12.6,1.3-18.1
		c-1.6,1.6-3.4,2.9-5.5,3.9c-3,1.5-6.3,2.5-10,3.2l-10.4,0.8C87.9,151.4,82.5,149.8,77.5,146.8 M58.7,138.9
		c-0.1,2.5-0.9,4.1-2.3,4.8l0.7,3.7c0.4,1.8,0.6,3.1,0.6,3.8c0,1.4-0.3,2.3-0.9,2.8l-0.2,0.1l1.8,1.6l2.2,0.2
		c0.6-0.5,0.4-1.6-0.5-3.2c-1-1.8-1.5-2.8-1.5-3h0.2l1.9,2.2c1.1,1.1,2,1.4,2.6,0.9c0.4-0.3-0.1-1.7-1.6-4.1l-2.6-3.8l1.2-1.8
		l0.8-2.2l0.2-1.4L58.7,138.9 M48.5,139.6c0.1-0.4,0.5-0.5,1-0.5c0.5,0,0.8,0.2,0.8,0.7l0.2,5.4c0.4,3.4,1.6,5.6,3.5,6.8
		c0.9,0.5,1.4,0.7,1.6,0.6c0.4-0.3,0.3-1.9-0.3-4.9l-0.9-5.2l0.8-0.2l1.1-0.8c0.7-0.7,1-1.8,1-3.1l-1.4-0.6
		c-2.6-1.3-4.4-3.7-5.4-7.2c-2.9,5.1-4.3,9.2-4.2,12.5c0,3.9,1.7,8,5,12.4l0.7,0.9l0.9,0.8c1.9,1.4,3.2,1.9,4,1.3
		c0.3-0.2,0.5-0.5,0.6-0.9c0-0.4,0-0.7-0.2-0.9l-1.2-2.4c-0.7,0.2-1.7-0.1-3-0.8c-2.3-1.4-3.8-4-4.5-7.9
		C48.1,142.6,48.1,140.6,48.5,139.6 M68.7,111.9c-0.8-4.1-0.9-7.7-0.3-10.6c-3.8,4.4-7.3,9.3-10.5,14.8c-2,3.2-3.7,6.3-5.1,9.3
		l-0.2,0.3c-0.4,0.8-0.6,1.4-0.5,1.8c0,1.3,0.3,2.6,0.8,3.8c0.8,2.2,2,3.7,3.5,4.5c2.6,1.3,4.4,1.8,5.5,1.6c2.8-4.4,6.1-8.5,10-12.2
		C70.3,119.3,69.2,114.9,68.7,111.9 M75.4,95.4l-0.2-1.1c-1.8,1.6-3.3,3-4.5,4.4c-1.6,2.5-2.2,5.7-1.8,9.6c0.2,1.9,0.8,5.2,1.8,9.9
		l2.7,11.9l0.3,4.2l0.4-0.3l2.1,1.9c1.8,1.3,3.8,1.9,5.8,2c0.1-0.6-0.1-2.8-0.5-6.6c-0.8-6.6-1.2-11.9-1.2-16c0-1.5,0.3-4.2,1-8.3
		c0.6-3.4,0.9-5.4,0.8-5.9C78.2,99.6,76,97.8,75.4,95.4 M70.4,47.1c-0.4,0-0.7,0.4-0.9,1.1s-0.2,1.5-0.1,2.4c0.1,0.6,0.6,1.6,1.3,3
		c0.7-1.7,1.5-3.4,2.4-4.9c-0.7-0.2-1.4-0.6-2-1.2C70.9,47.3,70.6,47.2,70.4,47.1 M150.9,94.8c-0.1-0.6-0.2-1.2-0.1-1.9
		c-2.4,1.2-5.5,2-9.2,2.2l0.8,8.6l-0.2,0.6c-0.2,0.2-0.4,0.3-0.7,0.3l-6.3,0.1l-6.9,9.1l0.3-0.1c0.4-0.1,0.8,0,1,0.4
		c0.3,0.3,0.3,0.6,0.1,0.9c-0.9,1.2-1.6,2.5-2.2,3.7c-0.6,1.2-0.9,2-0.8,2.5l1.6-0.6c0.4-0.2,0.8-0.2,1.1,0.2c0.3,0.4,0.3,0.8,0,1.2
		c-1.5,1.8-2.7,3.5-3.7,5.1c-0.9,1.6-1.2,2.5-1,2.8l0.7,0.1c0.3,0,0.5,0.1,0.7,0.3c0.2,0.2,0.3,0.5,0.2,0.8l-1.7,9.9
		c-0.7,7.3,0,13,2,17.1l4.4,5.1c0.4,0.4,0.4,0.8,0,1.1c-0.3,0.4-0.7,0.5-1.1,0.2c-1.4-0.9-2.6-2-3.6-3.4c1.6,7.4,4.1,13.2,7.6,17.5
		l1.5-5.1c2.2-7.8,4.1-14.4,5.9-19.7l0.9,2.9c-1.4,4.2-3.1,10-5.1,17.3c-0.8,2.7-1.5,5.4-2.3,7.9c-2.6,8.6-5.2,16-7.8,22.4l-0.4,0.4
		l-0.6,0.1c-0.5-0.1-0.7-0.4-0.7-0.9c0-1.5-0.1-3.4-0.4-5.7c-0.5-4.5-1.5-8.6-3.1-12.2c-0.8-2-1.8-3.3-2.8-4.1
		c-0.4-0.3-0.9-0.5-1.3-0.6l-2.5,0.2l-1.1,0.6H114c-1.5,1.1-2.6,2.2-3.1,3.2c-0.3,0.7-0.4,1.3-0.2,1.9l0.5,0.1
		c1.5,0.3,3.1,1.6,4.9,4c1.9,1.9,3.4,4,4.4,6.4c1,2.3,1.7,5.7,2.1,10.1c0.2,2.2,0.3,4.3,0.3,6.2h-1.8l-0.3-5.9
		c-0.4-4.3-1.1-7.5-2-9.8l0-0.1l-0.1,0.3c-0.1,0.6-0.3,1-0.8,1.3c-0.5,0.3-1,0.4-1.6,0.2c-1.1-0.2-2.2-0.9-3.5-2.3
		c0.1,0.8,0,1.6-0.2,2.2c-0.2,0.5-0.5,0.9-1,1.2c-0.5,0.2-1.1,0.2-1.7,0l-1-0.6v1.4c-0.1,0.4-0.3,0.8-0.7,0.9l-1.2,0.1l-0.2-0.1
		l2.1,4.3c2.4,5,4.2,8.6,5.5,10.8c2.2,3.9,4.1,6.2,5.6,6.8c1.7,0.8,3.7-0.3,5.9-3.2l3.7-6.1c0.2-0.7,0.5-1.3,0.8-1.9l4.6-9.9
		c1.9-3.9,4.6-9.9,7.9-18c-0.1-0.2,0-0.3,0.1-0.4l5.9-14.8c-1.2-1.1-1.9-2.6-2.2-4.6c-0.1-0.4-0.2-2.8-0.4-7.1
		c-0.1-3.2,0.4-10.1,1.8-20.8c0.9-7.1,1.8-13.8,2.7-20.2l-1.1-0.3c-0.8-0.5-1.1-1.8-0.8-4.1l-0.4-0.3c-0.8-1.4-1.3-3.2-1.4-5.4
		c-0.3-4.3,1.2-8.3,4.4-12L150.9,94.8 M142.5,116.1c0.8,0.9,1.6,2.2,2.4,3.9c1.3,3,1.8,5.6,1.4,8c-2.6-4.9-4.2-8.3-4.9-10.2
		c-0.4-1.1-0.4-1.8,0.2-1.9L142.5,116.1 M147.5,87.2l0.4,1.1h5.9l0.9-1.1l0.8-1.3L147.5,87.2 M147.8,90.1l3.8,0.3l1.5-1.2H148v0.1
		L147.8,90.1 M134.3,91.1l-2.7,0.6l-0.8,0.1l-3.9,9.6l5.7,0.8L134.3,91.1 M139.6,92.6c-1.2-0.2-2.3-0.6-3.3-1.2l-0.1,11.6l4.3-0.1
		L139.6,92.6 M141.4,92.9v0.4c3.5-0.1,6.5-0.8,8.9-2.1l-3.1-0.2l-0.6,0.6C145.3,92.6,143.6,93,141.4,92.9 M141.4,90.4l0.1-0.9
		l4.4,0.4l0.4-0.7H142v-0.9h4.1l-0.2-0.4l-0.4-0.4l-3.4,0.5l-0.2-0.9l2.5-0.4c-0.9-0.5-1.9-0.9-3.1-1.1c-0.5-0.1-1.5,0.4-3.1,1.6
		l-2.1,1.7c0.9,1.1,2.4,1.8,4.4,2.1l3.9-0.4L141.4,90.4 M129.1,84.8c-1.1,0.1-1.8,0.5-2.3,1.2l2.2,0.5l-0.2,0.9l-2.6-0.6l-0.1,0.1
		l-0.2,0.4l4.2,0.8l-0.1,0.9l-4.2-0.8l0,0.2l0.9,0.9c1.1,0.7,2.7,1,4.7,0.8c1.3-0.2,2.5-0.6,3.5-1.2C131.7,86,129.8,84.6,129.1,84.8
		 M129.3,69.4c-0.8,0-1.6,0.4-2.2,1l-0.1,1.6l0.2,2.5c0-1,0.2-1.9,0.6-2.6c0.3-0.7,0.7-1.1,1.2-1.1c0.5,0,0.9,0.4,1.3,1.1
		c0.3,0.7,0.5,1.6,0.5,2.8s-0.2,2-0.5,2.8c-0.4,0.8-0.8,1.2-1.3,1.2c-0.2,0-0.4-0.1-0.6-0.3c0.8,1.4,1.6,2.1,2.4,2.1
		c0.9,0,1.7-0.8,2.4-2.2c0.8-1.6,1.2-3.5,1.2-5.8C132.5,70.3,130.8,69.3,129.3,69.4 M130.8,63.6c-0.6,0-1.2,0.4-1.9,1.2
		c-0.6,0.8-1.1,1.9-1.4,3.3c0.6-0.3,1.2-0.4,1.8-0.4c1.6-0.1,3.3,0.6,5.1,2.1c-0.2-1.8-0.7-3.4-1.4-4.5
		C132.2,64.2,131.5,63.6,130.8,63.6 M112.8,87.4c0.3,3-0.4,5.7-2.2,8.2c-1.5,2.1-3.5,3.8-6,5.1c-2.3,1.2-4.6,1.9-6.8,2.1
		c-0.3,0-0.6,0.4-0.9,1.1c-1.2,3-1.4,9.2-0.8,18.8c0.5,9,1.3,14.4,2.3,16.2c5.9-0.5,11.1-1.8,15.7-3.8c2.3-1,3.9-2,5-3l0.2,0.2
		c0.3-4.6,1.2-10.1,2.5-16.6l-5.4,1.2l-1.6-0.9l12-3.5l5.8-8.5l-7-0.9l-0.7-0.4c-0.1-0.2-0.2-0.4,0-0.8l3.5-9.1l-1-0.6
		C123.5,90.3,118.7,88.7,112.8,87.4 M87.8,95.4c-1.6-0.8-2.8-2.1-3.6-3.7c-1.1-0.4-2.4-0.9-3.8-1.6l-3.1,2.3c-0.4,1-0.5,1.8-0.3,2.6
		c0.5,1.8,2.4,3.2,5.8,4.3l0.2,0.1c0.6,0.3,0.8,1.1,0.8,2.2c0,0.9-0.3,2.7-0.8,5.6c-0.7,4-1.1,6.7-1.1,8c0.1,4,0.5,9.2,1.2,15.8
		l0.5,5.8c0,1.2-0.1,2-0.4,2.4c-0.3,0.3-0.6,0.4-1,0.4c-3.1,0-6-1.2-8.6-3.5l-0.2,6.3c4.7,4,10.5,6.4,17.6,7.1
		c6.5,0.7,12.8-0.1,19-2.3c2.2-0.8,4.1-1.6,5.5-2.6c1.2-0.8,2.2-1.5,2.8-2.1l0.7-0.6c0.4-0.4,0.7-0.5,0.7-0.4
		c-0.5-2.5-0.7-4.7-0.7-6.6l0-0.6c-1.9,1.3-4.2,2.5-7,3.6c-4.2,1.5-8.9,2.5-14.1,2.8h-0.2c-0.6,0-1-0.6-1.4-1.8
		c-0.6-1.9-1.2-5.3-1.8-10.3c-0.6-5.8-0.8-10.8-0.8-15.2c0.1-8,1.3-12.1,3.6-12.4c2-0.2,4.1-0.8,6.2-1.9c2.4-1.2,4.2-2.7,5.6-4.6
		c1.6-2.3,2.1-4.8,1.6-7.4l-3.3-0.7c-0.7,2.9-2.6,5.3-5.7,7.2c-2.8,1.9-5.8,2.8-9,2.8C91,96.5,89.3,96.1,87.8,95.4 M88.9,42.6
		l-1.7-0.4c-1.1-0.7-2.1-1-3-1l-0.9,0.2c-0.4,0.3-1.3,1.2-2.7,2.9L78.4,47c-1.2,1-2.4,1.6-3.5,1.8c-2.3,3.8-3.8,7.6-4.6,11.4
		c-1.2,6.1-0.6,12,2,17.7c2.6,6,6.6,10.2,12.1,12.6c3,1.3,5.7,2,8.2,2l2.8-0.2l0.2,0.1c0.1,0.2-0.6,0.5-1.9,0.9l-2.9,0.6h-0.2
		c0.7,0.4,1.6,0.6,2.7,0.6c2.5,0,5-0.8,7.6-2.5c2.8-1.8,4.3-3.8,4.6-5.9c-1.6,1.1-3,1.7-4.3,1.7c-0.3,0-0.5-0.1-0.5-0.2
		c0-0.2,0.1-0.4,0.5-0.6c3.9-2.6,7.1-6.2,9.8-10.9l0.7,0.1c2.5,0,4.2-1.2,5.2-3.6c1-2.4,0.4-4.4-1.7-5.9c-0.3-0.5-0.2-0.9,0.2-1.1
		l0.8-0.1l0.2-0.4c-1.7-2.6-3.1-4.3-4-5.2c-0.5-0.5-1.2-1.1-2.2-1.6c-0.4-0.2-0.7-0.5-0.7-0.9c0-0.3,0.2-0.5,0.5-0.5l0.2,0.1
		c0.8,0.3,1.8,1,2.9,2.1c1.4,1.3,2.7,3.2,3.8,5.5h0.1l0.2-0.9c-1.5-2.9-2.9-5-4.2-6.3c-0.7-0.7-1.4-1.4-2.3-2.1l-1.2-0.9
		c-0.3-0.1-0.3-0.3-0.2-0.6c0.1-0.2,0.2-0.4,0.6-0.4l0.3,0.1c0.7,0.3,1.8,1.3,3.6,3.1c1.4,1.6,2.5,3.5,3.5,5.8
		c0-2.8-1.1-5.3-3.4-7.5c-1-1-2.4-1.9-4.2-2.9c-0.4-0.2-0.5-0.5-0.3-0.8l0.3-0.4c2.4-1.3,3.3-2.9,2.7-4.8c-0.6-1.7-1.7-2.6-3.2-2.6
		h-0.3c-1.7,0.2-3,0.5-3.8,0.8l-2.3,0.6c-0.8,0-1.5-0.3-2-0.9c-1.7-1.9-3.5-2.9-5.6-2.9c-0.8,0-1.5,0.2-2.2,0.5
		C91.2,42.1,89.9,42.6,88.9,42.6 M96.2,48c0.2-0.3,0.4-0.4,0.7-0.4l0.5,0.1l1.9,1.9c1.2,1.4,1.8,2.5,1.6,3.2h0
		c-0.2,0-0.6-0.2-1.3-0.6l-1.9-1.1L95.2,50c-0.1-0.2,0-0.6,0.5-1.1L96.2,48 M110.1,60.1L110.1,60.1c1,0.4,1.7,0.9,2.3,1.6l1.1,1.5
		c0.4,0.6,0.5,1,0.5,1.2l-0.2,0.2c-0.1,0-0.4-0.3-0.9-0.8l-1.2-1.4l-1.8-1.1c-0.4-0.2-0.5-0.5-0.4-0.8
		C109.6,60.3,109.8,60.2,110.1,60.1 M110.2,63.6l0.2,0.1c0.4,0.2,0.8,0.5,1.1,0.9c0.5,0.5,0.7,0.9,0.7,1.3c0,0.5-0.1,0.8-0.5,0.8
		c-0.3,0-0.5-0.2-0.5-0.5c0-0.3-0.2-0.6-0.6-1l-0.6-0.5c-0.2-0.1-0.3-0.3-0.2-0.6C109.7,63.7,109.9,63.6,110.2,63.6 M96.1,55.6
		L96.1,55.6c0.5,0,0.9,0.3,1.2,0.9c0.3,0.6,0.4,1.3,0.4,2.1c0,0.8-0.2,1.5-0.5,2.1c-0.3,0.6-0.7,0.9-1.1,0.9H96
		c-0.4,0-0.8-0.3-1.1-0.9c-0.3-0.6-0.5-1.3-0.5-2.1c0.1-0.8,0.3-1.5,0.6-2.1C95.3,55.9,95.7,55.6,96.1,55.6 M84.4,60.1l1.8-3.6
		c0.2-0.5,0.5-0.7,0.8-0.7h0l0.2,0.3l-0.1,0.6l-0.5,1.4l-3.1,6.6c-0.3,0.5-0.2,0.9,0,1.4l1.7,2.2c0.2,0.2,0.2,0.4,0.2,0.6l-0.4,0.4
		l-1,0.2c-0.5,0-0.8-0.2-1.2-0.6l-2-2.9c-0.3-0.5-0.3-1,0.1-1.4C82.8,62.6,83.9,61,84.4,60.1 M93.8,71.8l0.7-0.4
		c0.2-0.3,0.2-0.5,0.1-0.7l-0.5-1.4c-0.1-0.3-0.1-0.5,0.1-0.5l0.3,0.2L99,72c0.5,0.3,0.7,0.7,0.6,1.3l-0.8,4l-0.4,0.4l-0.3-0.2v-2.1
		c-0.2-0.3-0.6-0.5-0.9-0.5l-0.3,0.1l-3.9,2.6c-3,1.7-5.4,2.6-7.2,2.6h0c-1.8,0-3.8-0.6-6.1-1.7l-2.8-1.6l-0.2-0.1
		c-0.4,0-0.6,0.2-0.6,0.7v0.4l-0.1,0.4l-0.3-0.2l-1.9-3c-0.3-0.5-0.3-1,0.1-1.4l1.7-2l0.3-0.2c0.1,0,0.2,0.1,0.2,0.4v0.6
		c0,0.2,0,0.4,0.2,0.6l0.6,0.4l6.9,0.9l1.2-0.1C86.8,74.1,89.8,73.3,93.8,71.8 M82.2,81.9c0-0.1,0.2-0.2,0.4-0.2l3.7-0.4l0.2-0.1
		c0.5,0,0.9,0.2,1,0.7c0.1,0.2,0,0.4-0.2,0.7L86.8,83l-1.5,0.3l-1.2-0.2l-1.5-0.8C82.4,82.1,82.2,82,82.2,81.9 M79.5,48.4
		c0.4,0,0.6,0.2,0.7,0.6l0.2,0.9c0.1,0.3,0,0.6-0.2,0.8l-0.8,0.4l-3.6,0.1l-0.4-0.1c0-0.1,0.1-0.2,0.3-0.4l3.4-2.1L79.5,48.4
		 M77.2,61.7c-0.4,0-0.8-0.3-1.1-0.9c-0.3-0.6-0.4-1.3-0.4-2.1c0-0.8,0.2-1.5,0.5-2.1c0.3-0.6,0.7-0.9,1.2-0.9c0.5,0,0.9,0.4,1.2,1
		c0.3,0.6,0.4,1.3,0.4,2.1c0,0.8-0.2,1.5-0.5,2.1C78.1,61.4,77.7,61.7,77.2,61.7L77.2,61.7 M95.3,72.4l-1.1,0.2
		c-3.7,1.5-6.7,2.3-9.1,2.5L84,75.2l-4.9-0.4l-2.5-0.5h-0.2c-0.6,0-0.9,0.2-0.8,0.8c0.2,0.5,0.5,0.9,0.9,1l5.5,1.9l2.8,0.3l4.4-0.6
		c1.2-0.4,3.5-1.5,6.8-3.2l0.7-0.6c0.2-0.4,0.1-0.7-0.2-1C96.1,72.6,95.7,72.4,95.3,72.4 M98.9,28.1c-1.3-0.9-2.3-1.3-3.2-1.3h-0.2
		c-0.7,0.1-1.8,1.4-3.3,3.8l-1.5,2.1c-0.3,0.3-0.7,0.5-1.2,0.5l-3.8-0.9l-1.1,0.2c-0.7,0.2-1.6,0.9-2.9,2.1l-2.6,2.8
		c-1,1.2-2.3,1.9-3.8,1.9c-1,0-2-0.3-2.8-0.9c-0.7-0.6-1-1.5-0.9-2.6c-0.7,0.7-1.3,1.6-1.7,2.6c-0.4,1.3-0.5,2.7-0.1,4.3
		c0.4,1.7,1.1,3.1,2.2,4.1c0.6,0.6,1.3,0.8,2.1,0.8c1.1,0,2.3-0.5,3.5-1.6l2.2-2.6c1.4-1.7,2.3-2.8,2.9-3.1c0.8-0.5,1.5-0.7,2.1-0.7
		l2.3,0.8c0.6,0.4,1,0.6,1.2,0.6l0.6,0.1c0.3,0,0.8-0.2,1.3-0.5l4.8-2.9l0.8-0.2c1,0,2.4,0.9,4.1,2.8c1.8,1.9,2.8,2.9,3,3l0.2,0.1
		c0.4,0,1.3-0.3,2.7-0.9c1.4-0.6,2.4-1,3-1.1l1-0.1c1.6,0,2.8,0.6,3.7,1.7c0.7,0.8,1.1,1.8,1.2,2.9c0.1,0.8-0.2,1.8-1.2,2.9
		c-0.7,0.8-1.5,1.6-2.4,2.3l3.5,2.8c1.8,1.8,2.9,3.9,3.4,6.4c0.6-1.6,1.1-3.4,1.5-5.6c0.7-4.2,0.5-7.6-0.7-10.2
		c-0.6-1.4-1.4-2.8-2.3-4.1c-1.3-1.8-2.5-2.9-3.7-3.4c-0.2-0.1-1-1.1-2.6-3.2c-1.4-1.9-3-2.9-4.8-3.1c-1.2-0.2-2.5-0.5-3.9-1
		c-0.5-0.2-0.9-0.4-1.4-0.8L98.9,28.1 M166.6,190.6c-0.6,0.9-1.4,1.5-2.4,1.8c-1.7,0.5-3.6-0.4-5.8-2.9c-1.9-2.1-3.7-4.7-5.4-7.8
		c-1.1-1.9-2.2-3.9-3.2-6.1l-4.5,10.3c3.3,3.1,5.5,5.4,6.8,6.9c2.5,3,4,5.6,4.6,8c0.5,2.5,0,4.8-1.7,7.1c-1.6,2.1-3.6,3.5-6.1,4.2
		c3.9,2,5.8,3.6,5.4,4.9c-0.1,0.4-0.4,0.6-0.9,0.6c-0.6,0.1-0.8,0-0.8-0.4c0.1-0.7-0.9-1.7-3.2-3c-2.6-1.6-5-2.6-7.1-3.1
		c-2.8-0.6-5.3-0.3-7.5,0.9c-1,0.5-1.8,1.1-2.5,1.9l-1.3,2.5c-0.1,0.8-0.1,1.6,0.1,2.3c0.3,1.2,0.7,2,1.2,2.4c0.6,0.6,1.3,0.3,2-0.9
		l1.6-3.2c0.1-0.3,0.5-0.5,1-0.5c0.6,0,0.8,0.2,0.6,0.7L137,218c-0.5,1.4-0.6,2.7-0.4,3.7c0.3,1.3,1.2,2.1,2.7,2.6l3.7-0.2
		c1.1-0.6,1.7-1.6,1.9-3c0.1-0.3,0.4-0.5,0.9-0.6c0.5-0.2,0.8-0.1,0.9,0.3c0.1,2.4,0.7,4.1,1.8,5.1c2.1,2.1,4.8,2,8-0.3
		c2.6-1.8,4.5-4.1,5.9-6.8c1.8-3.5,3.6-8.1,5.4-13.8c0.8-2.4,1.3-5.1,1.6-7.9c0.3-3.2,0.2-5.9-0.3-7.9c-0.2-0.9-0.6-1.1-1.1-0.5
		L166.6,190.6 M165.2,151.6c-0.6-0.4-1.3-0.6-2.1-0.5c-0.6,0.4-1.1,1-1.4,1.7l-1.2,4.4c-0.2,0.6-0.5,0.8-1.1,0.6
		c-0.6-0.1-0.8-0.4-0.8-0.9c0.2-1.9,0.7-3.4,1.4-4.8l0.5-1.6c-0.2-1-0.5-1.6-1.1-1.8c-0.6-0.3-1.3-0.2-2.1,0.2
		c-0.5,2.1-0.8,4.1-1,6.1c-0.2,2.4,0,4.2,0.5,5.4l0.8,1c1,0.6,2.4,0.4,4.2-0.5l1.1-0.7l0.6-0.1l0.6,0.4l0.1,0.7l-0.3,0.5l-1.1,0.7
		c-2.7,1.6-4.8,1.8-6.2,0.8c-0.6-0.4-1.1-1-1.4-1.8c-1.5-2.7-1.4-8,0.4-15.9c2.2-9.8,4.3-20,6.2-30.5c-3,2.9-5.3,4.1-6.9,3.6
		c-0.5-0.2-0.9-0.6-1.2-1.2c-0.1-0.3-0.2-0.8-0.1-1.5l-1.2,1.1c-3.3,22.8-4.8,36.7-4.6,41.9c0.1,3,0.4,5.2,0.8,6.8
		c0.5,1.6,1.3,2.9,2.4,3.9l0.6,0.4v0.1l2.8,1.6l-0.1,0.2l3.8,0.3c2.2-0.1,4.2-1.4,6.2-4c1.4-1.8,2.3-3.7,2.9-5.9
		c0.6-2.1,0.7-4.1,0.4-5.9C167.4,153.9,166.5,152.4,165.2,151.6 M163.1,141.1c0.4-0.3,0.7-0.9,0.8-1.7c0-0.7-0.2-1.5-0.5-2.5l-1,2.1
		c-0.2,0.3-0.5,0.4-0.8,0.4l-0.8-0.5l-1.3-2.3l-2.4,10.7c1.1-0.4,2.1-0.4,3.1-0.1s1.5,1.2,1.9,2.4l0.2-0.1l0.2-0.1l1.1-0.1
		c0.9,0,1.7,0.3,2.4,0.8l1.1,0.9c0.6-0.4,1.1-1.2,1.3-2.6c-1-0.1-1.9-0.7-2.7-1.8c-0.2-0.2-0.2-0.5-0.1-0.8c0.1-0.3,0.2-0.4,0.5-0.5
		c0.5-0.2,0.9-0.5,1.1-1c0.2-0.5,0.2-1.2-0.1-2.1l-1,0.6l-2,0l-1.1-0.4c-0.3-0.2-0.4-0.4-0.4-0.7
		C162.8,141.5,162.9,141.2,163.1,141.1 M171.8,106.2c-1.1,2.2-2.8,3.4-5,3.6l-2.5,3l-2.1,11.2c3.5-1.4,6.1-3.8,7.9-7.2
		c1.4-2.6,2.1-5,2.1-7.3L171.8,106.2 M168.1,97.4c-1.7-1.6-3.4-3-5.3-4.1c-2.1-1.3-3.6-1.6-4.6-1.1c-4.7,3.2-7.7,6.7-8.9,10.6
		c-0.8,2.6-0.9,5.1-0.1,7.6l1.6-3.7c0.9-2.4,1.9-4.7,3.2-7.1l0.5-0.4c0.2-0.1,0.4-0.1,0.6,0l0.4,0.5v0.7l-2.8,6.2
		c-1,2.5-1.7,4.6-2.2,6.3c-0.5,1.8-0.5,2.8-0.2,3.2h0.4c1.1-0.3,2.6-2.2,4.6-5.5c1-2.5,2.6-5.5,4.6-8.9l0.5-0.4l0.6,0.1l0.5,0.6
		c0.1,0.2,0.1,0.4-0.1,0.6c-1.2,2.9-2.7,5.8-4.6,8.9c-1.2,2.9-1.6,4.7-1.3,5.5l0,0.2c0.6,0.2,1.5-0.2,2.9-1.2
		c1.2-0.9,2.6-2.2,4.1-3.9l0-0.1h0.2l2.8-3.4c0.2-0.2,0.4-0.3,0.7-0.3c1.5,0,2.7-0.7,3.5-2.1c0.5-0.7,0.8-1.4,0.9-2.2l0.3,0.1
		l-1.6-4L168.1,97.4 M178.4,39.5l0.1,0.6l-0.8,8.1l-0.1,0.4l-1.1,8.8c-0.3,2.9-0.4,4.5-0.2,4.9c5.5-1.4,10-6.4,13.5-14.8
		c-1.3-2.9-2.8-5.5-4.5-7.9c-2.4-3.4-4.6-5.2-6.4-5.4c-1.9-0.2-5.8,2.2-11.8,7.2c-5.5,4.6-10.6,9.6-15.2,14.9
		c-0.2,0.3-0.5,0.3-0.9,0.2l-5.4-1.5c-0.5-0.2-0.7-0.5-0.6-1l0.7-12.3c0.4-8.9,0.2-15.3-0.6-19.2c-3.6-1.7-7-3.1-10.3-4.2
		c-4-1.4-6.7-2.1-8.1-2c-2,3.6-3.6,7.2-4.9,10.7c-1.5,4.2-1.9,7-1.2,8.3c0.2,0.4,0.5,0.6,0.9,0.7c2-3.5,4.2-6.1,6.3-7.9
		c3.7-3.1,8.3-4.7,13.8-5c0.5,0,0.8,0.2,0.9,0.8l-0.1,0.6l-0.5,0.4l-8.9,2.9l3.9,9.1c1.9,5.4,2.6,10.7,2.3,15.9
		c0,0.3-0.1,0.5-0.4,0.7l-0.8,0.1c-2.3-1.1-4.1-1.7-5.4-2c0.3,0.8,0.8,1.7,1.6,2.7c0.2,0.3,0.2,0.6,0,0.9c-0.2,0.4-0.5,0.5-0.9,0.4
		l-4.3-0.4c-1.4-0.1-2.4-0.1-3,0.1c0.9,0.6,2.2,1.1,3.9,1.6c0.2,0.1,0.4,0.3,0.6,0.6c0.1,0.2,0.1,0.5-0.1,0.8l-2.8,5.4
		c0.9-1.2,1.9-1.8,3.1-1.8c1.5,0,2.7,1,3.8,2.9c1,1.9,1.6,4.3,1.6,7.1s-0.5,5.2-1.6,7.1c-1,1.9-2.3,2.9-3.8,2.9
		c-1.5,0-2.8-1-3.8-2.9c-1-1.9-1.5-4.3-1.5-7.1c0-1.2,0.1-2.4,0.3-3.5c-2.6,7-3.1,12.6-1.6,16.8l0.8,0.2c0.6-0.8,1.1-1.4,1.5-1.6
		c0.6-0.4,1.4-0.7,2.4-0.9l3.7,0.2c1.2,0.3,2.1,0.7,2.8,1.3l2.9-0.5c1.3-0.1,2.4-0.1,3.2,0.1c2.4,0.3,4.2,1.2,5.4,2.4l9.1-1.4
		c1.5-3.8,1.6-8.7,0.2-14.8l-2.6-8.1c-0.2-0.4-0.1-0.8,0.3-1.1l20.8-12.3c0.1-0.9,0.4-2.3,1-4.3l1.1-4.4c0-0.2,0.1-0.4,0.3-0.6
		c0.2-0.1,0.4-0.2,0.6-0.2C177.9,39.2,178.2,39.3,178.4,39.5 M146.9,64.9c1.1,2.1,1.6,4.7,1.6,7.7s-0.6,5.6-1.6,7.6
		c-1.1,2.1-2.4,3.1-4.1,3.1c-1.6,0-3-1-4.1-3.1c-1.1-2.1-1.6-4.6-1.6-7.6s0.5-5.6,1.6-7.7c1.1-2.1,2.5-3.1,4.1-3.1
		C144.4,61.8,145.8,62.8,146.9,64.9 M138.9,70.8l-0.1,1.8l0.2,2.7c0-1.1,0.2-2.1,0.6-2.9c0.4-0.8,0.8-1.1,1.3-1.1
		c0.5,0,1,0.4,1.4,1.2c0.4,0.8,0.6,1.8,0.6,3s-0.2,2.2-0.6,2.9c-0.4,0.8-0.8,1.2-1.4,1.2c-0.3,0-0.5-0.1-0.8-0.3
		c0.8,1.5,1.7,2.3,2.6,2.3c0.9,0,1.8-0.8,2.6-2.4c0.9-1.7,1.3-3.8,1.4-6.3c-2-2.2-3.8-3.2-5.5-3.2C140.4,69.8,139.6,70.1,138.9,70.8
		 M146.6,70.4c-0.2-2-0.7-3.6-1.5-5c-0.7-1.3-1.5-1.9-2.3-1.9c-0.7,0-1.4,0.4-2,1.4c-0.7,0.9-1.2,2.1-1.5,3.6
		c0.6-0.3,1.2-0.4,1.8-0.4C142.9,68,144.8,68.7,146.6,70.4z"/>
</g>
</svg>
