<?xml version="1.0" encoding="utf-8"?>
<!-- Generator: Adobe Illustrator 25.4.1, SVG Export Plug-In . SVG Version: 6.00 Build 0)  -->
<svg version="1.1" id="AnimalFriend_x2C_PerkClip_x5F_1e67f" image-rendering="auto"
	 xmlns="http://www.w3.org/2000/svg" xmlns:xlink="http://www.w3.org/1999/xlink" x="0px" y="0px" viewBox="0 0 240 240"
	 style="enable-background:new 0 0 240 240;" xml:space="preserve">
<style type="text/css">
	.st0{fill:#FFFFFF;}
</style>
<g>
	<rect width="240" height="240"/>
	<path class="st0" d="M108.9,215.7c0.5-0.9,0.5-2,0-3.3l-1.2-2.5c-2.3,2.7-5,4.4-8,5.4c-3.3,1-6.5,0.7-9.4-0.9
		c-2.1,1.3-4.4,3.1-7.1,5.4c-3.6,3.1-4.8,5-3.6,5.6c3.1,1.6,7.7,1.2,13.8-1.1c1.8-0.7,3.4-1.7,5-3.1l4.1-4.2
		c0.2-0.2,0.5,0.1,0.7,0.8l0.2,0.1l0.6,0.3c0.8,0.2,1.6,0.1,2.4-0.3C107.6,217.2,108.5,216.5,108.9,215.7 M120.6,173
		c-0.8-0.7-1.6-0.7-2.3,0h-0.1c-1.4,7.4-3.4,15.2-6,23.5c1.7,6.4,3.7,9.2,6,8.3c1-0.4,1.8-1.3,2.5-2.9c1-2.2,1.6-4.8,1.8-8l0.2-5.3
		c0-0.7-0.3-1.4-0.8-2.2l-1.3-2c-1-1.9-1.2-3.1-0.6-3.7c0.2-0.2,0.6-0.4,1.1-0.6l1.1-0.3c1-0.4,0.9-1.9-0.2-4.7
		C121.7,174.3,121.2,173.5,120.6,173 M74.3,140.4c-0.2,7.7,0.9,15,3.2,22c2.6,7.7,6.4,13.9,11.4,18.8l0,0.1
		c0.2-10,1.1-19.3,2.5-28.1c0-0.3,0.2-0.2,0.5,0.4c0.3,0.6,0.4,1,0.3,1.2c-2.8,17.3-3.5,36.6-1.9,57.8c2.9,1.5,6,1.7,9.2,0.6
		c3-1,5.5-2.8,7.7-5.4c3.3-9.6,5.9-18.1,7.8-25.6l2.4-10.9c2.1-10.8,3.1-21.2,3.1-31l-0.7,0.6c-4.2,3.7-10,5.9-17.5,6.8
		c-5.3,0.6-10.2,0.4-14.8-0.7C82.5,145.8,78,143.7,74.3,140.4 M66.3,135.4l-2.6-0.3c0.1,2.5-0.6,4.1-2,4.9l0.9,3.6
		c0.5,1.8,0.8,3.1,0.9,3.8c0.1,1.3-0.1,2.3-0.7,2.8l-0.2,0.1c1.9,1.8,3.3,2.3,4.1,1.5c0.5-0.5,0.3-1.6-0.8-3.1l-1.7-2.9h0.2l2.1,2
		c1.2,1.1,2,1.3,2.6,0.7c0.4-0.3-0.2-1.6-1.8-3.9l-2.8-3.6l1-1.9l0.6-2.2L66.3,135.4 M59.8,139l0.7-0.3l1-0.8
		c0.7-0.8,0.9-1.9,0.8-3.2l-1.4-0.5c-2.7-1.1-4.7-3.4-6-6.9c-2.4,5.3-3.5,9.6-3.3,12.8c0.2,2.4,1,4.8,2.5,7.3c1,1.7,2.2,3.2,3.5,4.7
		l0.8,0.8l1,0.7c0.8,0.5,1.5,0.9,2.2,1.1l2-0.1c0.3-0.2,0.5-0.6,0.5-0.9c0-0.4,0-0.7-0.2-0.9l-1.4-2.2c-0.8,0.3-1.8,0.1-3.1-0.6
		c-2.4-1.2-4.1-3.7-5-7.5c-0.7-3-0.8-5-0.5-6c0.2-0.4,0.5-0.6,1-0.6c0.5,0,0.8,0.2,0.8,0.7c0.1,2.5,0.3,4.3,0.5,5.4
		c0.7,3.3,2,5.5,4,6.5c0.9,0.4,1.5,0.6,1.8,0.4c0.3-0.3,0.1-1.8-0.8-4.7L59.8,139 M70.9,114.6c-0.9-3.7-1.5-6.2-1.7-7.7
		c-0.5-2.9-0.6-5.6-0.2-7.8c-3,4.4-5.8,9.1-8.2,14.1c-1.6,3.2-2.9,6.1-3.9,8.8l-0.1,0.3c-0.4,1-0.5,1.6-0.5,1.9
		c0.1,1.3,0.5,2.6,1,3.9c0.9,2.1,2.2,3.5,4,4.2l0.5,0.1l-0.1-0.3l1.8,0.8l0,0.2l3.3,0.3c2.1-3.8,4.2-7,6.3-9.6L70.9,114.6
		 M71.1,96.2l-0.6,1.5c-0.8,2.7-0.9,5.8-0.5,9.2c0.2,2,0.9,5,1.9,9.1c1,4,1.8,7.3,2.2,9.9l0.1,0.4l0,0l0.4,3.6
		c0.6,0.8,1.4,1.5,2.4,2.1c1.7,1.1,3.5,1.6,5.4,1.8c0.1-0.7-0.1-2.9-0.5-6.6c-0.7-6.7-1.1-12.1-1.1-16c0-1.6,0.4-4.4,1.2-8.3
		c0.7-3.2,1-5.2,0.8-5.9c-3.9-1.3-6.1-3.2-6.7-5.6L76,90.3c-1.4,1.4-2.6,2.9-3.8,4.4L71.1,96.2 M70.5,43.1c-0.4,0-0.7,0.3-0.9,1
		c-0.2,0.7-0.3,1.5-0.1,2.4c0.1,0.7,0.5,1.7,1.3,3c0.7-1.5,1.5-3.2,2.5-4.9c-0.7-0.2-1.4-0.6-2.1-1.2L70.5,43.1 M151,90.7
		c-0.2-0.6-0.2-1.2-0.1-1.9c-2.5,1.2-5.6,1.9-9.2,2.1l0.8,8.6l-0.2,0.7c-0.1,0.2-0.3,0.3-0.6,0.3l-6.4,0.1l-6.8,9.1l0.3-0.1
		c0.4-0.1,0.7,0.1,1,0.3c0.3,0.3,0.3,0.7,0,1.1l-2.1,3.6c-0.6,1.2-0.9,2-0.9,2.4l1.6-0.6c0.4-0.2,0.8-0.2,1.1,0.2
		c0.3,0.4,0.3,0.8,0,1.2c-1.5,1.7-2.7,3.4-3.6,5.1c-0.9,1.6-1.2,2.5-1,2.8l0.7,0.1c0.3,0,0.5,0.1,0.7,0.3c0.2,0.3,0.2,0.5,0.1,0.8
		l-1.6,9.8c-0.7,7.3,0,13,2,17.1l4.5,5c0.4,0.4,0.4,0.8,0,1.2c-0.3,0.4-0.7,0.4-1.1,0.1c-1.4-0.8-2.5-1.9-3.5-3.3
		c1.6,7.5,4.2,13.3,7.5,17.5l1.5-5.1c2.1-7.4,3.9-13.4,5.4-18.2l1.1,2.3c-1.4,4.3-3,9.8-4.9,16.4l-3.2,12
		c-2.1,7.2-4.3,13.3-6.6,18.4c-1.7,3.9-4,8.2-6.9,13l-5,8.2c2.1,0.4,4.1,1.1,5.8,2c1.9,0.9,3.2,2,4.1,3.1c0.3,0.3,0.2,0.6-0.3,0.8
		l-1.2-0.1c-1.8-2.2-5-3.8-9.5-4.6c-4.9-0.8-8,0.1-9.2,2.7c-0.7,1.4-1.1,2.6-1.1,3.8c0,0.6,0.1,1.3,0.2,2c0.4,1.6,1.6,1.6,3.4,0.2
		c0.3-1.1,0.8-1.8,1.4-2.1c0.3-0.2,0.6-0.2,1,0c0.3,0.2,0.4,0.4,0.2,0.8c-0.4,0.5-0.5,1.2-0.3,2.1c0.1,0.9,0.4,1.6,0.8,2
		c1.2,1.2,2.5,1.4,3.9,0.4c0.6-0.4,1.5-1.4,2.6-2.9c0.2-0.3,0.6-0.4,1.1-0.3c0.5,0.1,0.7,0.3,0.4,0.6c-0.9,2.1-0.5,3.7,1.4,4.8
		c1.8,1.1,3.6,0.9,5.3-0.6c1.1-1,2.3-2.3,3.5-3.8c2.3-3.2,4.2-6.6,5.8-10.2c0.7-1.6,1.8-4.6,3.2-8.8l2.1-7l0.6-2.9
		c0.3-2.1-0.8-2.6-3.4-1.5l-1.8,4.1c-0.2-0.2-0.4-0.8-0.6-1.9c-0.1-1-0.3-1.6-0.5-1.8c2.4-5.5,7.3-17.5,14.7-36
		c-1.2-1.1-1.9-2.6-2.2-4.4c-0.1-0.5-0.2-2.9-0.3-7.2c-0.2-5.1,1.3-18.7,4.4-41l-1.1-0.3c-0.8-0.5-1.1-1.8-0.7-4l-0.3-0.3
		c-0.8-1.5-1.3-3.3-1.4-5.4c-0.3-4.3,1.2-8.3,4.4-12L151,90.7 M142.6,111.9l2.2,4c1.4,3,1.9,5.6,1.5,8c-2.6-4.9-4.3-8.3-5-10.2
		c-0.4-1.2-0.3-1.8,0.2-1.9L142.6,111.9 M148.1,85.2l-0.2,0.8l3.8,0.3l1.5-1.1L148.1,85.2L148.1,85.2 M154,84.2l1.6-2.4l-8,1.2
		c0.2,0.4,0.4,0.8,0.4,1.1H154 M141.4,88.8l0.1,0.4c3.6-0.1,6.5-0.8,8.9-2.1l-2.9-0.2l-0.7,0.6C145.4,88.4,143.6,88.9,141.4,88.8
		 M136.2,98.9l4.3-0.2l-0.9-10.2c-1.2-0.2-2.3-0.6-3.3-1.2L136.2,98.9 M130.9,87.7l-3.9,9.7l5.7,0.8l1.7-11.2l-2.6,0.7L130.9,87.7
		 M125.8,84l0.1,0.1l0.9,1c1.1,0.7,2.7,1,4.7,0.8c1.3-0.2,2.5-0.6,3.5-1.2c-3.3-2.8-5.2-4.1-5.9-4.1c-1,0.2-1.8,0.6-2.3,1.2l2.2,0.6
		l-0.2,0.9l-2.5-0.7l-0.1,0.1l-0.2,0.4l4.2,0.8l-0.2,0.9L125.8,84 M136.2,84.9L136.2,84.9c0.9,1.1,2.4,1.8,4.4,2l4-0.3l-3.2-0.3
		l0.1-0.9l4.3,0.4l0.4-0.6h-4.2v-0.9h4.1l-0.2-0.5l-0.3-0.3l-3.5,0.5l-0.1-0.9l2.5-0.4c-1-0.6-2.1-0.9-3.2-1c-0.5-0.1-1.5,0.4-3,1.5
		C136.9,84.2,136.1,84.8,136.2,84.9 M129.1,66.6c0.5,0,0.9,0.4,1.3,1.1c0.3,0.8,0.5,1.7,0.5,2.8c0,1.1-0.2,2-0.5,2.8
		c-0.4,0.8-0.8,1.1-1.3,1.1l-0.7-0.2c0.8,1.4,1.6,2.2,2.4,2.2c0.9,0,1.7-0.8,2.4-2.2c0.8-1.6,1.2-3.6,1.2-5.9c-1.9-2-3.6-3-5.1-2.9
		c-0.9,0-1.6,0.3-2.1,0.9l-0.1,1.7l0.2,2.5c0-1.1,0.2-1.9,0.5-2.6C128.2,67,128.6,66.6,129.1,66.6 M130.8,59.5
		c-0.6,0-1.2,0.4-1.8,1.2c-0.6,0.8-1.1,2-1.4,3.4c0.6-0.3,1.1-0.4,1.7-0.4c1.7-0.1,3.4,0.6,5.1,2.2c-0.2-1.8-0.7-3.4-1.4-4.6
		C132.3,60.1,131.6,59.5,130.8,59.5 M114.8,84.3c0.3,2.1-0.4,4.2-2,6.3c-1.5,2.2-3.7,4.1-6.4,5.7c-2.8,1.6-5.5,2.6-8,2.8
		c-0.3,0.1-0.5,0.5-0.8,1.1c-1.3,3-1.7,9.3-1.2,18.8c0.5,9,1.2,14.4,2.2,16.2c5.9-0.4,11.2-1.5,15.9-3.2c2.4-0.9,4.1-1.7,5.3-2.6
		l0.2,0.2c0.3-5.1,1.2-11.1,2.8-18.1l-6.2,1.4l-1.6-1l12-3.4l3.7-5.3c1.5-2.1,2.2-3.2,2-3.2l-6.9-0.9l-0.7-0.4
		c-0.1-0.2-0.1-0.4-0.1-0.8l3.4-8.3c-1.5-1-3.4-1.9-5.7-2.6L114.8,84.3 M83.7,95.4h0.2c0.6,0.3,0.9,1.1,0.8,2.4l-0.8,5.5
		c-0.7,3.8-1.1,6.4-1.2,7.9c0,3.9,0.4,9.2,1.1,15.8l0.5,5.9c0,1.2-0.1,1.9-0.5,2.3l-0.8,0.4h-0.1c-3,0-5.7-1-8.1-3.1l-0.3,6.2
		c4.7,4,10.6,6.4,17.6,7.1c6.5,0.7,12.9-0.1,19-2.3c2.3-0.8,4.2-1.7,5.6-2.6l3.4-2.7l0.7-0.4c-0.5-2.4-0.7-4.6-0.7-6.5
		c-2,1.2-4.3,2.2-7.1,3c-4.4,1.4-9.2,2.2-14.4,2.6h-0.2c-0.6,0-1-0.6-1.4-1.8c-0.6-1.9-1.2-5.3-1.7-10.3c-0.5-5.7-0.7-10.8-0.6-15.3
		c0.2-7.9,1.5-12,3.7-12.3c2.2-0.2,4.7-1.1,7.2-2.6c2.6-1.5,4.5-3.2,5.9-5.1c1.5-2,2-4,1.5-5.8l0.2-0.1c-2.1-0.6-4-1.1-5.5-1.4
		c-0.8,2.9-2.6,5.3-5.6,7.2c-2.8,1.8-5.8,2.8-9.1,2.8c-1.9,0-3.6-0.4-5.1-1.2c-1.6-0.8-2.8-2-3.6-3.6l-3.8-1.8l-1.8,1.6
		c-0.9,1.3-1.2,2.5-0.8,3.6C78.3,92.8,80.2,94.3,83.7,95.4 M89,38.4l-1.7-0.3c-1.1-0.8-2.1-1.2-3-1.2l-0.9,0.2
		c-0.4,0.3-1.3,1.2-2.7,2.9l-2.2,2.8c-1.1,1-2.2,1.6-3.5,1.8c-2.3,3.8-3.8,7.6-4.6,11.4c-1.2,6.1-0.6,12,1.9,17.8
		C75,79.8,79,84,84.4,86.4c3,1.3,5.7,2,8.2,2l2.9-0.3l0.2,0.1c0.1,0.2-0.5,0.6-1.8,1L91,89.8l-0.2-0.1c0.6,0.4,1.5,0.7,2.7,0.7
		c2.5,0,5-0.8,7.6-2.5c2.8-1.7,4.3-3.7,4.6-5.9c-1.7,1.2-3.1,1.8-4.3,1.8l-0.6-0.2c0-0.2,0.2-0.4,0.6-0.6c3.9-2.5,7.1-6.2,9.7-11
		l0.8,0.1c2.5,0,4.2-1.2,5.2-3.6c1-2.4,0.5-4.4-1.6-6c-0.3-0.4-0.3-0.7,0-0.9l1.2,0.2l0.1-0.3v-0.1l-4.3-5.6l-2.2-1.7
		c-0.4-0.2-0.6-0.5-0.6-0.9c0-0.3,0.2-0.5,0.4-0.5l0.2,0.1c0.8,0.3,1.8,1,2.9,2.1c1.5,1.5,2.8,3.3,3.8,5.6l0.2-1
		c-1.5-3-2.9-5.1-4.2-6.4l-3.4-3c-0.3-0.1-0.3-0.3-0.2-0.6c0.1-0.2,0.3-0.3,0.6-0.3l0.3,0.1c0.7,0.3,1.9,1.3,3.6,3.1
		c1.4,1.6,2.5,3.6,3.5,5.8c0-2.8-1.2-5.3-3.5-7.5c-1-1-2.4-2-4.1-2.9c-0.4-0.2-0.5-0.5-0.4-0.8l0.4-0.4c2.4-1.3,3.2-2.9,2.7-4.8
		c-0.6-1.7-1.7-2.6-3.2-2.6l-0.3,0.1c-1.6,0.2-2.9,0.5-3.8,0.8l-2.3,0.6c-0.9,0-1.6-0.3-2.1-0.9c-1.7-2-3.5-2.9-5.5-2.9
		c-0.8,0-1.5,0.2-2.2,0.5C91.2,38,89.9,38.4,89,38.4 M97.1,43.4l0.4,0.1l1.9,1.9c1.2,1.4,1.8,2.4,1.6,3.2l-5.7-2.7
		c-0.1-0.2,0-0.6,0.4-1.2l0.7-0.8C96.5,43.6,96.7,43.4,97.1,43.4 M114,60.3l-0.2,0.2l-2.1-2.1l-1.7-1.2c-0.4-0.2-0.5-0.5-0.4-0.8
		c0.1-0.3,0.3-0.4,0.6-0.4h0.1c0.9,0.4,1.6,0.9,2.2,1.6l1.1,1.5C113.9,59.7,114,60.1,114,60.3 M111.5,60.4c0.4,0.5,0.7,0.9,0.7,1.3
		c0,0.5-0.1,0.7-0.5,0.7c-0.3,0-0.5-0.2-0.5-0.5c0-0.3-0.2-0.6-0.6-0.9l-0.7-0.5c-0.2-0.1-0.2-0.3-0.2-0.6c0-0.3,0.2-0.4,0.4-0.4
		l0.3,0.1C110.8,59.7,111.1,59.9,111.5,60.4 M97.3,52.4c0.3,0.6,0.5,1.3,0.4,2.1c0,0.8-0.2,1.5-0.5,2.1c-0.3,0.6-0.7,0.9-1.2,0.9
		c-0.5,0-0.8-0.4-1.2-0.9c-0.3-0.6-0.4-1.3-0.4-2.1c0-0.8,0.2-1.5,0.5-2.1c0.3-0.6,0.7-0.9,1.1-0.9h0.1C96.7,51.5,97,51.8,97.3,52.4
		 M81.1,60.6l3.5-4.6l1.8-3.6c0.2-0.5,0.4-0.7,0.8-0.7h0.1c0.3,0,0.3,0.3,0.2,0.9c-0.4,1.6-1,3.1-1.8,4.5l-1.9,3.5
		c-0.1,0.2-0.1,0.5-0.1,0.8c0,0.3,0.1,0.5,0.2,0.7l1.6,2.2c0.1,0.2,0.2,0.4,0.2,0.6l-0.4,0.4l-1,0.2c-0.5,0-0.9-0.2-1.2-0.5L81,62
		C80.7,61.6,80.7,61.1,81.1,60.6 M83.7,70.4l1.2-0.1c2-0.2,5-1.1,9-2.6l0.7-0.5c0.2-0.3,0.3-0.5,0.2-0.7l-0.6-1.4
		c-0.1-0.3,0-0.4,0.2-0.4l0.3,0.1l4.4,3.2c0.5,0.3,0.7,0.8,0.6,1.3l-0.8,4l-0.3,0.4l-0.4-0.2l0-2.1c-0.2-0.3-0.5-0.4-0.9-0.4l-0.3,0
		L93,73.5c-3,1.7-5.4,2.6-7.2,2.6h-0.1c-1.8,0-3.8-0.6-6.1-1.7l-2.8-1.6l-0.2-0.1c-0.4,0-0.6,0.2-0.5,0.7v0.5l-0.2,0.4l-0.3-0.3
		l-1.9-2.9c-0.3-0.5-0.3-1,0.1-1.4l1.6-2l0.3-0.2c0.1,0,0.2,0.1,0.2,0.4v0.6c0,0.2,0.1,0.4,0.2,0.7c0.1,0.2,0.3,0.3,0.5,0.3l2.4,0.5
		L83.7,70.4 M87.5,78.5l-0.7,0.4l-1.5,0.2l-1.2-0.2l-1.5-0.8l-0.3-0.3c0-0.1,0.2-0.2,0.5-0.2l3.7-0.5h0.2c0.6,0,0.9,0.2,1,0.7
		C87.7,78.1,87.7,78.3,87.5,78.5 M75.4,47c0-0.1,0.1-0.3,0.3-0.4l3.4-2.2l0.4-0.1c0.3,0,0.6,0.2,0.7,0.6l0.2,0.9
		c0.1,0.3,0,0.6-0.2,0.8C80,46.9,79.8,47,79.4,47l-3.6,0.1L75.4,47 M76.3,52.4c0.3-0.6,0.7-0.9,1.2-0.9c0.5,0,0.8,0.3,1.2,0.9
		c0.3,0.6,0.4,1.3,0.4,2.1c0,0.8-0.2,1.5-0.5,2.1c-0.3,0.6-0.7,0.9-1.2,0.9h-0.1c-0.5,0-0.8-0.4-1.2-1c-0.3-0.6-0.4-1.3-0.3-2.1
		C75.8,53.7,76,53,76.3,52.4 M82.1,73.9l2.8,0.3l4.4-0.6l6.7-3.2l0.8-0.6c0.2-0.3,0.1-0.6-0.3-0.9c-0.4-0.3-0.8-0.4-1.2-0.4l-1,0.2
		c-3.7,1.5-6.7,2.4-9,2.6l-1.2,0l-5-0.4l-2.4-0.4h-0.1c-0.6,0-0.9,0.2-0.8,0.7c0.1,0.6,0.4,0.9,0.8,1L82.1,73.9 M99,24
		c-1.3-0.9-2.3-1.3-3.2-1.3h-0.2c-0.7,0.1-1.8,1.4-3.4,3.8l-1.5,2.2c-0.3,0.3-0.7,0.5-1.2,0.5l-3.9-0.8l-1,0.1c-1,0.2-2.8,1.9-5.5,5
		c-1.1,1.2-2.4,1.8-3.9,1.8c-1,0-2-0.3-2.8-1c-0.7-0.5-1-1.4-0.9-2.5c-0.8,0.8-1.3,1.6-1.7,2.6c-0.5,1.3-0.5,2.7-0.2,4.4
		c0.4,1.7,1.1,3,2.2,4.1c0.6,0.5,1.3,0.8,2,0.8c1.1,0,2.3-0.5,3.6-1.6l2.2-2.6c1.3-1.7,2.3-2.7,2.9-3.1c0.8-0.4,1.4-0.7,2.1-0.7
		l1.1,0.2l2.4,1.2l0.5,0.1l1.4-0.5l4.8-2.9l0.7-0.2c1.1,0,2.4,0.9,4.2,2.8c1.8,1.9,2.7,2.9,2.9,2.9l0.3,0.1l2.7-0.9
		c1.4-0.6,2.4-1,3.1-1.1l0.9-0.1c1.6,0,2.8,0.6,3.7,1.6c0.7,0.8,1.1,1.8,1.2,3c0.1,0.8-0.3,1.8-1.1,2.9c-0.7,0.8-1.5,1.6-2.5,2.3
		c1.5,1.1,2.7,2,3.5,2.8c1.8,1.7,2.9,3.9,3.5,6.4c0.6-1.6,1.1-3.4,1.4-5.5c0.7-4.2,0.5-7.7-0.7-10.2c-0.7-1.5-1.5-2.8-2.4-4.1
		c-1.3-1.8-2.5-3-3.6-3.5c-0.2,0-1.1-1.1-2.7-3.1c-1.4-1.9-3-2.9-4.8-3.2c-0.9-0.1-2.2-0.4-3.9-1.1l-1.4-0.8L99,24 M165.2,189.6
		l-0.1-2.3c-0.2-1.1-0.5-1.8-0.9-2.1c-0.9-0.6-1.7-0.5-2.4,0.2c-0.6,0.5-1.1,1.2-1.4,2.1l-0.8,0.5c-0.5,0.1-0.8,0.1-0.9,0
		c-3.7-3.7-7.2-7.9-10.5-12.4l-3.6,8.5c0.5,0.5,2.7,1.9,6.7,4.1c2.8,1.6,4.4,3.5,4.6,5.8c0.5,3.8-1.4,8.1-5.6,12.9l-3.1,3.4l1.7-0.3
		c2.6-0.1,4.8,0.7,6.5,2.2l1.1,1.2l-0.7,0.4c-0.6,0.2-0.9,0.2-1,0l-0.8-0.9c-1.4-1.3-3.7-1.8-6.8-1.6c-1.8,0.1-4.3,0.6-7.4,1.4
		c-1.2,4-2.7,7.7-4.4,11c1.2,0.8,2.2,0.7,3.2-0.3l1.9-2.9c0.1-0.2,0.5-0.3,1-0.4l0.7,0.1c-1,2.2-0.9,3.6,0.5,4.1
		c1.6,0.6,2.9,0.5,3.8-0.2c0.4-0.3,1.1-1.4,2.1-3.2c0.1-0.2,0.4-0.3,0.9-0.4l0.8,0.1c-0.3,0.6-0.3,1.3,0,2.1
		c0.3,0.7,0.7,1.3,1.3,1.7c1.6,1.1,3.1,1.1,4.8-0.1c1.3-0.9,2.3-2.3,3.1-4.2c0.9-2.1,1.7-4.6,2.4-7.4l2.9-15.2
		C165.2,194.4,165.3,191.9,165.2,189.6 M165.3,147.5c-0.6-0.4-1.3-0.6-2.1-0.5c-0.5,0.4-1,1-1.4,1.8l-1.3,4.4
		c-0.1,0.5-0.4,0.8-1,0.7c-0.5-0.1-0.8-0.5-0.7-1c0.2-1.8,0.6-3.4,1.4-4.8l0.5-1.6c-0.2-1-0.5-1.6-1-1.9c-0.6-0.3-1.3-0.2-2.2,0.2
		c-0.5,2.1-0.8,4.1-0.9,6.2c-0.2,2.4-0.1,4.2,0.4,5.4c0.2,0.5,0.5,0.8,0.8,1c1,0.6,2.4,0.5,4.2-0.4l1.1-0.7l0.7-0.1
		c0.2,0,0.4,0.1,0.6,0.4l0.1,0.6l-0.3,0.6l-1.1,0.7c-2.7,1.6-4.8,1.8-6.2,0.7c-0.6-0.4-1.1-1-1.4-1.8c-1.5-2.8-1.4-8.1,0.4-15.8
		c2.3-9.8,4.4-20,6.3-30.6c-3.1,2.9-5.4,4.1-7,3.5c-0.6-0.2-1-0.5-1.1-1.2c-0.1-0.3-0.2-0.8-0.1-1.5l-1.2,1.1
		c-0.7,4.5-1.6,11-2.6,19.3c-1.4,11.7-2.1,19.2-2,22.5c0.1,3,0.4,5.3,0.8,6.8c0.5,1.6,1.3,2.9,2.4,3.9c0.3,0.1,0.4,0.3,0.6,0.5v0
		c0.8,0.6,1.7,1.1,2.8,1.7l-0.1,0.1l3.8,0.4c2.2-0.1,4.3-1.4,6.2-3.9c1.4-1.8,2.4-3.8,3-5.9c0.6-2.1,0.7-4.1,0.3-5.9
		C167.4,149.8,166.5,148.3,165.3,147.5 M163.9,135.2c0-0.7-0.1-1.5-0.4-2.4l-1.1,2.1c-0.2,0.3-0.4,0.4-0.8,0.3
		c-0.3,0-0.5-0.1-0.8-0.4l-1.2-2.4l-2.3,10.7c1.2-0.4,2.2-0.4,3-0.1c0.9,0.5,1.5,1.3,1.9,2.5l0.4-0.2l1.2-0.2c0.9,0,1.7,0.3,2.4,0.8
		l1.1,0.9c0.6-0.4,1-1.3,1.3-2.6c-1-0.1-1.8-0.7-2.6-1.8c-0.2-0.2-0.2-0.5-0.1-0.8c0.1-0.3,0.2-0.5,0.5-0.6c0.5-0.1,0.9-0.4,1.1-0.9
		c0.2-0.6,0.2-1.2-0.1-2.1l-1,0.4l-2,0.1l-1-0.4c-0.3-0.1-0.5-0.4-0.5-0.7c-0.1-0.3,0-0.6,0.3-0.8
		C163.7,136.6,163.9,136,163.9,135.2 M166.9,105.6l-2.5,3l-2,11.3c3.4-1.4,6.1-3.8,7.9-7.2c1.4-2.6,2.1-5,2.1-7.3l-0.5-3.3
		C170.7,104.3,169.1,105.5,166.9,105.6 M169.6,95.8l-1.4-2.4c-1.7-1.7-3.5-3.1-5.3-4.2c-2.2-1.3-3.7-1.7-4.5-1.1
		c-4.7,3.2-7.7,6.7-9,10.5c-0.8,2.6-0.8,5.2,0,7.7l1.6-3.7c0.8-2.1,1.8-4.5,3.1-7.1l0.5-0.4l0.7,0c0.2,0.1,0.4,0.3,0.4,0.5v0.7
		l-2.8,6.2c-1,2.5-1.7,4.5-2.2,6.2c-0.5,1.8-0.6,2.8-0.2,3.2h0.3c1.1-0.4,2.7-2.2,4.6-5.6c1.1-2.5,2.6-5.5,4.6-8.8l0.6-0.4l0.6,0.1
		l0.4,0.5v0.6c-1.8,3.8-3.3,6.7-4.6,8.9c-1.2,2.8-1.7,4.7-1.4,5.4l0.1,0.2c0.5,0.2,1.5-0.2,2.9-1.2l4.1-3.8l0.1-0.2l0.1,0.1l2.9-3.4
		c0.1-0.2,0.3-0.4,0.6-0.4c1.5,0,2.7-0.7,3.6-2.1c0.4-0.7,0.7-1.4,0.9-2.2l0.3,0.1L169.6,95.8 M178.7,32.4c0.2,0,0.4,0.1,0.6,0.3
		l0.2,0.7l-0.7,8.1l-0.1,0.4l-1.1,8.8c-0.4,2.8-0.4,4.5-0.2,4.9c1,0.2,3-1.2,6.1-4.2c3.5-3.4,5.9-6.9,7.4-10.6
		c-1.3-2.9-2.8-5.5-4.5-7.9c-2.4-3.4-4.5-5.1-6.4-5.4c-1.8-0.2-5.9,2.7-12.2,8.6c-5.1,4.8-10.4,10.2-15.8,16.2
		c-0.2,0.3-0.5,0.4-0.9,0.3l-5.3-1.5c-0.5-0.2-0.7-0.5-0.6-0.9l1.2-13.7c0.6-9.8,0.6-16.6-0.2-20.5c-3.6-1.7-7.1-3.1-10.2-4.3
		c-4-1.4-6.8-2.1-8.2-2c-2,3.6-3.7,7.2-4.9,10.7c-1.5,4.3-1.9,7.1-1.2,8.4c0.2,0.4,0.5,0.6,0.9,0.7c2-3.5,4.1-6.1,6.3-7.9
		c3.7-3.1,8.4-4.7,13.9-5c0.5,0,0.8,0.2,0.9,0.8c0.1,0.5-0.1,0.8-0.6,1l-8.9,2.9c1.4,3.2,2.5,6.7,3.5,10.4
		c1.6,6.2,2.2,11.9,1.9,17.1c-0.1,0.4-0.2,0.6-0.4,0.7l-0.9,0.1c-2.4-1.1-4.2-1.7-5.4-1.9c0.3,0.8,0.8,1.7,1.5,2.7
		c0.2,0.4,0.2,0.7,0,1c-0.2,0.4-0.5,0.5-0.9,0.4l-7.3-0.4c0.9,0.6,2.2,1.1,3.9,1.7l0.6,0.5l-0.1,0.8l-2.8,5.5
		c0.9-1.2,1.9-1.8,3.1-1.8c1.5,0,2.8,1,3.8,2.9c1,1.9,1.5,4.3,1.5,7.1c0,2.8-0.5,5.2-1.5,7.2c-1,1.9-2.3,2.8-3.8,2.8
		c-1.5,0-2.7-0.9-3.8-2.8c-1-2-1.6-4.3-1.6-7.2c0-1.1,0.1-2.2,0.3-3.5c-2.5,7.1-3,12.7-1.6,16.8l0.8,0.2c0.6-0.8,1.1-1.4,1.4-1.6
		c0.6-0.5,1.4-0.8,2.4-0.9l3.7,0.1c1.1,0.3,2.1,0.7,2.8,1.2l3-0.4c1.3-0.1,2.4-0.1,3.2,0c2.3,0.3,4.1,1.2,5.3,2.4l9.1-1.4
		c1.5-3.8,1.6-8.8,0.2-14.9l-2.6-8.1c-0.2-0.5-0.1-0.8,0.3-1.1l21.8-14.9c0.1-0.9,0.4-2.4,1-4.4l1.1-4.4c0-0.2,0.1-0.4,0.3-0.5
		L178.7,32.4 M142.9,57.6c1.6,0,2.9,1,4.1,3.1c1.1,2.1,1.7,4.7,1.7,7.8c0,3-0.6,5.6-1.7,7.7c-1.1,2.1-2.5,3.2-4.1,3.2
		c-1.6,0-3-1.1-4.1-3.2c-1.1-2.1-1.7-4.7-1.7-7.7c0-3.1,0.6-5.6,1.7-7.8C139.9,58.6,141.3,57.6,142.9,57.6 M142.4,68.4
		c0.4,0.8,0.6,1.8,0.6,2.9c0,1.2-0.2,2.2-0.6,3c-0.4,0.8-0.9,1.2-1.4,1.2c-0.3,0-0.5-0.1-0.7-0.4c0.8,1.6,1.6,2.4,2.6,2.4
		c0.9,0,1.8-0.8,2.6-2.4c0.9-1.8,1.3-3.9,1.3-6.3c-2-2.2-3.8-3.2-5.4-3.2c-0.9,0-1.7,0.4-2.4,1l-0.1,1.8l0.2,2.7
		c0-1.1,0.2-2.1,0.6-2.9c0.4-0.8,0.8-1.2,1.3-1.2C141.5,67.1,142,67.5,142.4,68.4 M145.2,61.2c-0.7-1.2-1.5-1.8-2.3-1.9
		c-0.7,0-1.4,0.4-2,1.3c-0.7,0.9-1.2,2.1-1.5,3.7c0.6-0.3,1.2-0.4,1.9-0.5c1.7-0.1,3.6,0.7,5.4,2.3C146.5,64.2,146,62.6,145.2,61.2z
		"/>
</g>
</svg>
