<?xml version="1.0" encoding="utf-8"?>
<!-- Generator: Adobe Illustrator 25.4.1, SVG Export Plug-In . SVG Version: 6.00 Build 0)  -->
<svg version="1.1" id="AnimalFriend_x2C_PerkClip_x5F_1e67f" image-rendering="auto"
	 xmlns="http://www.w3.org/2000/svg" xmlns:xlink="http://www.w3.org/1999/xlink" x="0px" y="0px" viewBox="0 0 240 240"
	 style="enable-background:new 0 0 240 240;" xml:space="preserve">
<style type="text/css">
	.st0{fill:#FFFFFF;}
</style>
<g>
	<rect width="240" height="240"/>
	<path class="st0" d="M117.4,206.7l-1-2.1c-2.3,2.6-5,4.4-8.1,5.3c-3.4,1-6.5,0.7-9.5-0.9c-2.1,1.3-4.4,3.1-7,5.4
		c-3.6,3.1-4.8,5-3.6,5.7c3.1,1.6,7.7,1.2,13.8-1.1c1.8-0.7,3.4-1.7,5-3.1l4.1-4.2c0.2-0.2,0.4,0.1,0.6,0.8l0.2,0.1l0.6,0.4l1.8-0.1
		c1.1-0.4,1.9-0.9,2.4-1.3c0.8-0.7,1.2-1.5,1.2-2.4C117.9,208.4,117.8,207.6,117.4,206.7 M120.7,178.8c-0.5,4.5-1.2,9.6-2.2,15.3
		c3.2,0.5,4.6-1.6,4.2-6.2C122.5,185.3,121.8,182.2,120.7,178.8 M77,139.1c-1.3-0.8-2.2-1.5-2.7-2.1c-2.4,10.4-2.7,19.5-0.9,27.2
		c2.4,10.5,8.4,15.6,18.2,15.4l0.1,0c-2-12.6-2.2-23.7-0.6-33.4c0-0.3,0.2-0.1,0.4,0.4l0.3,1.2c-1.8,11.1-1.2,24.5,2,40.1
		c1.5,7.6,3.2,13.9,4.9,19.1c2.9,1.5,6,1.8,9.3,0.8c3-0.9,5.6-2.7,7.8-5.4c0-0.7,0.2-1.7,0.4-2.9l0.7-2.8l1.5-9
		c2.7-18.1,3.5-35.1,2.4-50.9c-0.8,0.9-2,1.8-3.7,2.7c-5.4,3.2-12,4.9-19.8,5.1c-6.5,0.2-12.3-1.2-17.6-4.1L77,139.1 M73.5,135.1
		v-1.6l-3.2,0.2c0.4,2.5,0,4.2-1.2,5.2l2.8,6.6C72.2,142.2,72.7,138.8,73.5,135.1 M60.3,127.3c-1.6,5.5-2.1,9.8-1.3,13.2
		c0.5,2.3,1.7,4.6,3.5,6.9c1.2,1.5,2.6,2.9,4.1,4.1l1,0.7l1,0.6c1.1,0.5,2.1,0.8,2.9,0.8v-3.9l-0.1-0.1l-0.3-0.3l-3.1-0.1
		c-2.6-0.8-4.6-3-6.1-6.6c-1.1-2.8-1.6-4.8-1.4-5.9c0.1-0.4,0.4-0.7,0.9-0.8c0.5-0.1,0.8,0.1,0.9,0.5c0.5,2.5,1,4.2,1.4,5.3
		c1.2,3.2,2.8,5.1,4.9,5.8l1.8,0.2c0.2-0.2,0.1-0.9-0.3-2.1l-3.2-7.4l0.7-0.4l0.8-0.9c0.5-0.9,0.6-2,0.3-3.3l-1.4-0.3
		C64.4,132.6,62.1,130.6,60.3,127.3 M63.6,112.1l-2.2,10.2c-0.3,0.9-0.3,1.5-0.2,1.9c0.4,1.3,0.9,2.5,1.6,3.6
		c1.2,1.9,2.7,3.1,4.5,3.5l5.7,0.3l0.8-2.4v-0.1l-0.6-0.7l0.6-0.3c0-2.5-0.2-4.8-0.7-7l-3.3-14.5c-0.9-4-1.3-7.5-1-10.5
		C66.8,100.9,65.1,106.2,63.6,112.1 M75.8,86.6c-1.9,1.7-3.3,3.2-4,4.6c-1.6,2.9-2.2,6.2-1.9,10.1c0.1,1.9,0.7,5.3,1.9,10.3
		l2.5,11.9l0.3,4l0.2-0.1l1.6,1.4c1.4,0.9,3.1,1.4,5.2,1.4c0.1-0.6-0.1-2.8-0.4-6.6c-0.7-6.9-1-12.2-0.9-16c0-1.6,0.5-4.4,1.2-8.3
		c0.7-3.3,1-5.3,0.9-5.9c-3.9-1.4-6.1-3.2-6.6-5.4L75.8,86.6 M69.5,44.3c0.1,0.6,0.5,1.6,1.3,3c0.8-1.7,1.6-3.4,2.5-4.9
		c-0.7-0.2-1.4-0.6-2.1-1.2c-0.2-0.3-0.5-0.4-0.7-0.4c-0.4,0-0.7,0.3-0.9,1.1C69.4,42.6,69.3,43.4,69.5,44.3 M148.1,82.9L148.1,82.9
		l-0.2,0.8l3.8,0.4l1.5-1.2H148.1 M154.8,80.9l0.8-1.3l-8,1.2c0.2,0.4,0.4,0.8,0.4,1.1h6L154.8,80.9 M141.4,86.5l0.1,0.4
		c3.6-0.1,6.5-0.8,8.9-2l-2.9-0.3l-0.7,0.6C145.5,86.2,143.7,86.6,141.4,86.5 M141.6,98.2l-6.4,0.1l-6.8,9.2l0.3-0.1
		c0.4-0.1,0.7,0,1,0.3c0.2,0.3,0.2,0.6,0,0.9l-2.1,3.7c-0.6,1.2-0.9,2-0.9,2.5l1.6-0.6c0.4-0.2,0.8-0.2,1.1,0.2
		c0.3,0.4,0.3,0.7,0,1.1c-1.5,1.8-2.7,3.5-3.6,5.1c-0.9,1.6-1.2,2.5-1,2.8l0.7,0.1c0.3,0,0.5,0.1,0.7,0.3c0.2,0.2,0.2,0.5,0.1,0.8
		l-1.6,9.9c-0.7,7.3,0,13,2,17.1l2.1,2.3l0.2,3.4c-0.9-0.7-1.8-1.6-2.5-2.6c1,10.7,2.8,18.2,5.2,22.5c2.1,3.8,4.9,5.3,8.5,4.5
		c0.1-2.8-0.7-8.5-2.3-17.2l-2.4-12.1l1.6,0.6l2.6,14c1.7,10.4,2.6,18.4,2.7,23.9c0,4.5-0.4,9-1.2,13.6l-1.8,7.9
		c4.8,0,8.4,1.1,10.8,3.3c0.3,0.3,0.2,0.6-0.4,0.8l-1.2-0.1c-1.2-1.1-2.9-1.9-5.3-2.5c-2.4-0.5-4.8-0.7-7.2-0.4
		c-6,0.6-8.9,2.9-8.7,7.1c0.1,1.8,0.8,3,2.2,3.7c1.4,0.6,2.3,0.1,2.8-1.4c0-0.6,0.1-1.2,0.3-1.9c0.1-0.5,0.4-0.9,0.9-1.2l1.1-0.1
		c0.4,0.1,0.5,0.4,0.2,0.8c-0.4,0.4-0.6,1-0.7,1.8c-0.1,0.7-0.1,1.3,0.2,1.8c0.4,1.1,1.7,2,3.9,2.5c2.3,0.5,3.5,0.1,3.5-1.1v-0.7
		c-0.3-1-0.1-1.9,0.4-2.9l0.4-0.6c0.3-0.3,0.6-0.4,1.1-0.3c0.5,0.1,0.6,0.4,0.3,0.8l-0.3,0.4v0.1l-0.1,0.2c-0.1,0.3-0.2,0.9-0.3,1.8
		c0.1,0.7,0.4,1.3,0.9,1.8c0.6,0.5,1.3,0.8,2.1,0.9c1.6,0.1,2.8-0.1,3.8-0.7c0.9-0.6,1.7-1.6,2.4-2.9c1.9-3.5,3.3-7.6,4.2-12.1
		c0.9-4.3,1.1-7.9,0.7-10.9l-1.2-6.9c-0.9-3-2.4-4.3-4.4-3.8l0.2,3.6c-0.3-0.1-0.7-0.6-1.2-1.4c-0.5-0.9-0.9-1.3-1.2-1.4l-0.5-15.5
		c-0.2-5.4-0.3-8.9-0.2-10.4c-1.2-1.1-1.9-2.6-2.2-4.5c-0.1-0.5-0.2-2.9-0.3-7.1c-0.2-5.1,1.3-18.8,4.4-41.1l-1.1-0.3
		c-0.8-0.5-1.1-1.8-0.7-4.1l-0.3-0.3c-0.8-1.4-1.3-3.2-1.4-5.4c-0.3-4.3,1.2-8.3,4.4-12l-0.6-0.9c-0.2-0.6-0.2-1.2-0.1-1.9
		c-2.4,1.2-5.5,1.9-9.2,2.1l0.8,8.6l-0.2,0.6C142,98.1,141.8,98.2,141.6,98.2 M144.9,113.7c1.3,2.9,1.8,5.6,1.5,8
		c-2.6-4.9-4.3-8.3-5-10.2c-0.4-1.1-0.3-1.8,0.2-1.9l1,0.2C143.3,110.6,144.1,111.9,144.9,113.7 M126.9,79.6l2.2,0.6l-0.2,0.9
		l-2.5-0.7l-0.1,0.1l-0.2,0.4l4.2,0.8l-0.1,0.9l-4.2-0.8l0,0.2l0.9,1c1.1,0.7,2.7,1,4.7,0.8c1.3-0.2,2.5-0.6,3.5-1.2
		c-3.3-2.8-5.2-4.2-5.9-4.1C128.2,78.6,127.4,79,126.9,79.6 M139.6,86.3c-1.2-0.2-2.3-0.6-3.3-1.2l-0.1,11.6l4.3-0.1L139.6,86.3
		 M141.4,84.1l0.1-0.9l4.3,0.4l0.4-0.7h-4.2v-0.9h4.1l-0.2-0.4l-0.3-0.4l-3.5,0.5l-0.1-0.8l2.5-0.4c-0.9-0.5-2-0.9-3.2-1
		c-0.5-0.1-1.5,0.4-3,1.6c-1.5,1.1-2.2,1.6-2.2,1.7c0.9,1.1,2.4,1.8,4.4,2.1l4-0.3L141.4,84.1 M134.4,84.8l-2.6,0.6l-0.9,0.1
		l-3.9,9.6l5.7,0.8L134.4,84.8 M127.9,65.5c0.3-0.7,0.7-1.1,1.2-1.1c0.5,0,0.9,0.4,1.3,1.2c0.3,0.7,0.5,1.7,0.5,2.8s-0.2,2-0.5,2.8
		c-0.4,0.8-0.8,1.1-1.3,1.1l-0.7-0.2c0.8,1.4,1.6,2.1,2.4,2.1c0.9,0,1.7-0.8,2.4-2.2c0.8-1.6,1.2-3.5,1.2-5.8c-1.9-2-3.6-3-5.1-2.9
		c-0.9,0-1.6,0.3-2.1,0.9l-0.1,1.6l0.2,2.5C127.3,67.1,127.5,66.2,127.9,65.5 M130.8,57.2c-0.6,0-1.2,0.4-1.8,1.2s-1.1,1.9-1.4,3.4
		c0.6-0.3,1.1-0.4,1.7-0.4c1.7-0.1,3.4,0.6,5.1,2.1c-0.2-1.8-0.7-3.4-1.4-4.6C132.3,57.8,131.6,57.2,130.8,57.2 M98,95.8
		c-0.2,0-0.5,0.4-0.8,1.1c-1.2,3-1.7,9.2-1.3,18.8c0.4,8.9,1.1,14.3,2,16.2c4.9-0.3,10.1-1.4,15.5-3.4c2.7-1,5-2,6.8-2.9l0.1,0.1
		c0.2-2.4,0.6-5.2,1.3-8.3l2.1-8.2l-7,1.5l-1.6-0.9l12-3.4l5.8-8.6l-7-0.9l-0.7-0.4c-0.1-0.2-0.1-0.5-0.1-0.8l3.3-8.3
		c-4.2-2.4-9.2-4.5-14.9-6.2c0.2,2-0.3,4.1-1.8,6.2c-1.5,2.2-3.5,4.1-6.1,5.7C102.9,94.7,100.4,95.5,98,95.8 M83.2,91.9l0.2,0.1
		c0.6,0.3,0.8,1.1,0.8,2.3l-0.9,5.5c-0.8,4-1.2,6.7-1.2,8c0,3.7,0.3,9,0.9,15.8l0.5,5.9c0,1.2-0.2,2-0.6,2.3
		c-0.3,0.3-0.6,0.4-0.8,0.4h-0.1c-2.8,0-5.3-0.8-7.3-2.4l-0.2,5.5c4.7,4,10.6,6.4,17.6,7.2c6.5,0.7,12.8-0.1,19-2.3
		c2.4-0.9,4.3-1.8,5.6-2.6c1.2-0.8,2.1-1.5,2.8-2.1l0.7-0.6c0.4-0.3,0.6-0.5,0.7-0.4c-0.5-2.7-0.7-4.9-0.6-6.6v-0.2
		c-2.6,1.3-5.4,2.4-8.4,3.3c-4.9,1.6-9.6,2.5-14.1,2.8h-0.2c-0.6,0-1-0.6-1.4-1.8c-0.6-1.9-1.2-5.5-1.6-10.7
		c-0.4-5.6-0.6-10.6-0.4-15c0.3-7.9,1.6-11.9,3.8-12.2c2.2-0.1,4.4-0.9,6.8-2.4c2.4-1.4,4.2-3.1,5.5-5.1c1.3-2.1,1.8-4.1,1.3-5.8
		l-3.6-0.9c-0.6,3-2.5,5.5-5.5,7.6c-2.9,1.9-6,2.9-9.3,2.9c-1.9,0-3.6-0.4-5.1-1.1c-1.6-0.8-2.8-2.1-3.6-3.7
		c-1.5-0.5-3.1-1.3-4.7-2.2c0.1,0.2,0,0.4-0.2,0.5l-0.6,0.5c-1.1,1.2-1.6,2.4-1.3,3.5C77.9,89.3,79.8,90.7,83.2,91.9 M94.9,34.4
		c-0.8,0-1.5,0.2-2.2,0.6c-1.5,0.8-2.8,1.2-3.8,1.2c-0.6,0-1.2-0.1-1.7-0.3c-1.1-0.7-2.1-1.1-3-1.1l-0.9,0.2
		c-0.4,0.3-1.3,1.2-2.7,2.9l-2.2,2.8c-1.2,1-2.3,1.6-3.4,1.8c-2.3,3.8-3.8,7.6-4.7,11.4c-1.2,6.1-0.6,12,1.9,17.8
		c2.6,6,6.7,10.2,12.1,12.5c3,1.3,5.7,2,8.2,2l2.9-0.2l0.2,0.1c0.1,0.2-0.5,0.5-1.8,0.9L91,87.6l-0.2-0.1c0.7,0.4,1.6,0.6,2.7,0.6
		c2.5,0,5.1-0.8,7.7-2.5c2.8-1.8,4.3-3.7,4.5-5.9c-1.6,1.1-3,1.6-4.3,1.6l-0.6-0.2c0-0.1,0.2-0.3,0.6-0.6c3.9-2.6,7.1-6.2,9.8-10.9
		h0.7c2.5,0,4.2-1.2,5.2-3.6c1-2.4,0.5-4.3-1.6-5.9l-0.2-0.6l1.5,0.3c-0.1-0.3-0.1-0.6,0.1-0.8v-0.1c-1.6-2.5-3-4.4-4.3-5.7
		l-2.2-1.6c-0.4-0.3-0.6-0.6-0.6-0.9c0-0.3,0.2-0.5,0.4-0.5l0.2,0c0.8,0.3,1.8,1,2.9,2.1c1.5,1.4,2.7,3.3,3.8,5.6l0.2-1l-1.5-2.8
		c-0.9-1.4-1.8-2.6-2.8-3.5l-3.4-3c-0.3-0.2-0.3-0.4-0.2-0.6c0.1-0.2,0.3-0.4,0.6-0.3l0.3,0c0.7,0.3,1.9,1.3,3.6,3.2
		c1.4,1.6,2.5,3.6,3.5,5.8c0-2.8-1.2-5.3-3.5-7.5c-1-1-2.4-1.9-4.1-3c-0.4-0.2-0.5-0.5-0.3-0.8l0.3-0.4c2.4-1.3,3.3-2.9,2.7-4.8
		c-0.6-1.7-1.7-2.6-3.2-2.6l-0.3,0.1c-1.7,0.2-3,0.5-3.8,0.8l-2.3,0.6c-0.8,0-1.5-0.3-2.1-0.9C98.8,35.4,97,34.4,94.9,34.4
		 M95.7,42.5l0.7-0.9c0.2-0.3,0.4-0.4,0.7-0.4l0.4,0.2l1.9,1.8c1.2,1.4,1.8,2.5,1.6,3.2l-5.7-2.8C95.2,43.5,95.3,43.1,95.7,42.5
		 M96.2,49.2L96.2,49.2c0.5,0,0.8,0.4,1.2,0.9c0.3,0.6,0.5,1.3,0.5,2.1c0,0.8-0.2,1.5-0.5,2.1c-0.3,0.6-0.7,0.9-1.2,0.9
		c-0.5,0-0.8-0.3-1.2-0.9c-0.3-0.6-0.4-1.3-0.4-2.2c0-0.8,0.2-1.5,0.5-2.1C95.4,49.6,95.8,49.2,96.2,49.2 M112.2,59.5
		c0,0.5-0.1,0.7-0.5,0.7c-0.3,0-0.5-0.2-0.5-0.5c0-0.3-0.2-0.6-0.6-0.9l-0.7-0.6c-0.2-0.1-0.2-0.3-0.2-0.6c0-0.3,0.2-0.4,0.4-0.4
		l0.3,0.1c0.4,0.3,0.8,0.6,1.1,0.9C111.9,58.7,112.2,59.1,112.2,59.5 M113.8,58.3l-2.2-2.2L110,55c-0.4-0.2-0.5-0.5-0.4-0.8
		c0.1-0.3,0.3-0.4,0.6-0.4l0.1,0.1c0.8,0.3,1.5,0.8,2.2,1.5l1.1,1.5c0.3,0.6,0.5,1,0.4,1.2L113.8,58.3 M85.6,54.9l-1.9,3.5
		c-0.3,0.5-0.2,1,0.1,1.5l1.6,2.2c0.1,0.2,0.2,0.4,0.2,0.5l-0.4,0.4l-1,0.2c-0.5,0-0.9-0.2-1.2-0.6l-2-2.9c-0.3-0.5-0.3-1,0.1-1.4
		l3.5-4.6l1.8-3.6c0.2-0.5,0.5-0.8,0.8-0.8l0.2,0.4l-0.1,0.6C86.9,52,86.3,53.4,85.6,54.9 M85.8,73.9L85.8,73.9
		c-1.8,0-3.9-0.6-6.1-1.7l-2.8-1.6l-0.3-0.1c-0.4,0-0.5,0.2-0.5,0.8v0.4L75.9,72l-0.3-0.2l-1.9-2.9c-0.3-0.5-0.3-0.9,0.1-1.4l1.6-2
		l0.3-0.2c0.1,0,0.2,0.1,0.2,0.5v0.6c0,0.2,0.1,0.5,0.2,0.7l0.6,0.3l2.3,0.5l4.6,0.4l1.2-0.1c2-0.2,5-1.1,9-2.7l0.7-0.4
		c0.2-0.3,0.3-0.5,0.2-0.8l-0.6-1.4c-0.1-0.3-0.1-0.5,0.1-0.5l0.3,0.1l4.4,3.1c0.5,0.3,0.7,0.8,0.6,1.3l-0.8,4l-0.3,0.4l-0.4-0.3v-2
		c-0.2-0.3-0.5-0.5-0.9-0.5l-0.3,0.1L93,71.2C90,73,87.6,73.9,85.8,73.9 M86.7,74.9c0.5,0,0.8,0.2,1,0.7c0.1,0.2,0,0.5-0.2,0.7
		l-0.7,0.4l-1.5,0.2l-1.2-0.2l-1.5-0.8l-0.3-0.3c0-0.1,0.2-0.2,0.5-0.2l3.7-0.4L86.7,74.9 M79.6,42.1c0.3,0,0.6,0.2,0.7,0.6l0.2,0.9
		c0.1,0.3,0,0.6-0.2,0.8c-0.2,0.2-0.4,0.3-0.8,0.4l-3.6,0.1l-0.4-0.1c0-0.1,0.1-0.2,0.3-0.4l3.4-2.1L79.6,42.1 M79.1,52.4
		c0,0.8-0.2,1.5-0.5,2.1c-0.3,0.6-0.7,0.9-1.2,0.9h-0.1c-0.5,0-0.8-0.3-1.2-0.9c-0.3-0.6-0.4-1.3-0.3-2.1c0-0.8,0.2-1.5,0.5-2.1
		c0.3-0.6,0.7-0.9,1.2-0.8c0.5,0,0.8,0.3,1.2,0.9C79,50.9,79.1,51.6,79.1,52.4 M82.1,71.6l2.8,0.4l4.4-0.6c1.2-0.4,3.4-1.5,6.8-3.2
		l0.7-0.6c0.2-0.4,0.1-0.7-0.3-1c-0.3-0.3-0.7-0.4-1.2-0.4l-1,0.2c-3.7,1.5-6.7,2.4-9,2.5h-1.2l-7.4-0.8l-0.1-0.1
		c-0.6,0-0.9,0.2-0.8,0.8c0.2,0.6,0.4,0.9,0.8,0.9L82.1,71.6 M105.4,24.4l-3.9-1l-1.4-0.8L99,21.8c-1.3-0.8-2.3-1.2-3.2-1.2h-0.2
		c-0.7,0.1-1.8,1.4-3.4,3.8l-1.5,2.1c-0.3,0.3-0.7,0.5-1.2,0.5l-3.9-0.8l-1,0.1c-1,0.3-2.9,1.9-5.5,4.9C78,32.4,76.7,33,75.2,33
		c-1,0-2-0.3-2.8-1c-0.7-0.6-1-1.5-0.9-2.5c-0.8,0.7-1.3,1.5-1.7,2.6c-0.5,1.3-0.5,2.7-0.2,4.4c0.4,1.7,1.1,3.1,2.2,4.1
		c0.6,0.6,1.2,0.9,2,0.9c1.1,0,2.3-0.5,3.6-1.6l2.2-2.7c1.3-1.7,2.3-2.7,2.9-3c0.8-0.5,1.4-0.7,2.1-0.7l2.3,0.8
		c0.6,0.4,1,0.6,1.2,0.7l0.5,0.1l1.4-0.4l4.8-3l0.8-0.1c1,0,2.4,0.9,4.1,2.8c1.8,1.9,2.7,2.9,2.9,3l0.3,0l2.7-0.9
		c1.4-0.6,2.4-0.9,3.1-1.1l0.9-0.1c1.6,0,2.8,0.6,3.7,1.7c0.7,0.8,1.1,1.8,1.2,2.9c0.1,0.8-0.3,1.8-1.1,2.9
		c-0.7,0.9-1.5,1.6-2.5,2.3l3.5,2.9c1.8,1.7,2.9,3.9,3.5,6.3c0.6-1.6,1.1-3.4,1.4-5.5c0.7-4.2,0.5-7.6-0.7-10.2
		c-0.6-1.5-1.4-2.9-2.4-4.2c-1.3-1.8-2.5-2.9-3.6-3.4l-2.7-3.2C108.8,25.7,107.2,24.7,105.4,24.4 M163.6,193.7
		c0.8-0.5,1.2-1.1,1.2-1.8c0-1.5-0.7-3.1-1.9-4.9l-3.5-4.1c-2.6-2.9-5.2-5.4-7.9-7.8l0.4,12.9c2.4-0.7,4.3,0.3,5.5,2.9
		c0.6,1.4,1.2,3.9,1.7,7.4c0.3,1.6,0.4,3.3,0.3,5.2c1.3-0.6,2.1-1.7,2.2-3.3l-0.4-4.2v-0.7c0-0.2,0.1-0.4,0.4-0.5
		C162,194.6,162.6,194.2,163.6,193.7 M165.3,145.3c-0.6-0.5-1.3-0.6-2.1-0.5c-0.5,0.4-1,1-1.4,1.7l-1.3,4.4c-0.1,0.6-0.5,0.8-1,0.7
		l-0.6-0.4c-0.1-0.2-0.2-0.4-0.1-0.6c0.2-1.9,0.7-3.4,1.4-4.8l0.5-1.5c-0.2-1-0.5-1.6-1-1.9c-0.6-0.3-1.3-0.2-2.2,0.2
		c-0.5,2.1-0.8,4.1-0.9,6.1c-0.2,2.4-0.1,4.2,0.4,5.4l0.8,1c1,0.6,2.4,0.4,4.2-0.6l1.1-0.6l0.7-0.2l0.6,0.4l0.1,0.7l-0.3,0.5
		l-1.1,0.7c-2.7,1.6-4.8,1.8-6.2,0.8c-0.6-0.5-1.1-1.1-1.4-1.9c-1.5-2.8-1.4-8.1,0.4-15.8c2.3-9.8,4.4-20,6.3-30.6
		c-3,2.9-5.4,4.1-7,3.6c-0.6-0.2-1-0.6-1.1-1.2c-0.1-0.3-0.2-0.9-0.1-1.6l-1.2,1.1c-3.2,22.8-4.8,36.7-4.6,41.9
		c0.1,3,0.4,5.3,0.8,6.8c0.5,1.6,1.3,2.9,2.4,3.9c0.3,0.1,0.4,0.2,0.6,0.4c0.9,0.6,1.8,1.2,2.8,1.7l-0.1,0.1l3.8,0.4
		c2.2-0.1,4.2-1.5,6.2-4.1c1.3-1.8,2.3-3.7,2.9-5.9c0.6-2.1,0.7-4.1,0.3-5.9C167.4,147.6,166.5,146.1,165.3,145.3 M163.2,134.7
		c0.5-0.3,0.7-0.9,0.8-1.7c0-0.7-0.1-1.5-0.4-2.4l-1.1,2.1c-0.2,0.3-0.4,0.4-0.8,0.4c-0.3,0-0.5-0.2-0.8-0.4l-1.2-2.4l-2.3,10.7
		c1.1-0.4,2.1-0.4,3.1,0c0.9,0.4,1.5,1.2,1.9,2.5l0.2-0.2l0.2,0l1.2-0.1c0.9,0,1.7,0.2,2.4,0.8l1.1,0.9c0.6-0.4,1-1.2,1.3-2.5
		c-1-0.2-1.9-0.8-2.6-1.8c-0.2-0.2-0.2-0.5-0.1-0.8c0.1-0.3,0.2-0.5,0.5-0.6c0.5-0.2,0.9-0.5,1.1-0.9c0.2-0.5,0.2-1.2-0.1-2.1
		l-1,0.6l-2,0.1l-1-0.4c-0.3-0.1-0.5-0.4-0.5-0.7C162.8,135.2,162.9,134.9,163.2,134.7 M171.9,99.9c-1.2,2.2-2.8,3.4-5,3.6l-2.5,3
		l-2,11.2c3.4-1.4,6.1-3.8,7.9-7.2c1.4-2.6,2.1-5,2.1-7.2L171.9,99.9 M169.6,93.4l-1.4-2.3c-1.7-1.7-3.4-3.1-5.3-4.2
		c-2.2-1.3-3.7-1.6-4.5-1.1c-4.7,3.2-7.7,6.7-9,10.6c-0.8,2.6-0.8,5.2,0,7.7l1.6-3.7c0.9-2.3,1.9-4.7,3.1-7l0.5-0.5
		c0.2-0.1,0.5-0.1,0.7,0l0.4,0.6v0.7l-2.8,6.1c-1,2.5-1.7,4.6-2.2,6.3c-0.5,1.8-0.6,2.8-0.2,3.1h0.3c1.1-0.3,2.6-2.2,4.6-5.5
		c1.1-2.5,2.6-5.5,4.6-8.8l0.6-0.4l0.6,0.1l0.4,0.5v0.6c-1.5,3.5-3.1,6.5-4.6,8.9c-1.2,2.9-1.7,4.7-1.4,5.5l0.1,0.1
		c0.5,0.2,1.5-0.2,2.9-1.2l4.1-3.8l0.1-0.2l0.1,0.1l2.9-3.4c0.1-0.2,0.3-0.4,0.7-0.4c1.5,0,2.7-0.7,3.6-2.1c0.4-0.7,0.7-1.5,0.9-2.2
		l0.3,0.1L169.6,93.4 M178.6,29.1c0-0.2,0.1-0.4,0.3-0.5l0.7-0.2c0.3,0,0.5,0.2,0.6,0.4l0.2,0.6l-0.8,8l-0.1,0.4l-1.1,8.8
		c-0.3,2.9-0.4,4.5-0.1,4.9c1,0.2,3-1.2,6.1-4.2c3.5-3.4,6-6.9,7.4-10.6c-1.3-2.9-2.8-5.6-4.5-7.9c-2.4-3.4-4.6-5.2-6.4-5.4
		c-1.7-0.2-5.9,3-12.6,9.5c-4.9,4.8-10.3,10.5-16.1,17.1c-0.3,0.3-0.6,0.4-0.9,0.2l-5.3-1.4c-0.5-0.1-0.7-0.5-0.6-0.9
		c0.6-4.5,1.1-9.4,1.6-14.6c0.9-10.4,1-17.5,0.2-21.4c-3.6-1.7-7-3.1-10.3-4.2c-4-1.5-6.7-2.1-8.2-2c-2,3.7-3.6,7.2-4.9,10.7
		c-1.5,4.3-1.9,7.1-1.1,8.4c0.2,0.4,0.4,0.6,0.8,0.7c2.1-3.5,4.2-6.1,6.3-7.9c3.7-3.1,8.4-4.7,13.9-5c0.5,0,0.8,0.2,0.9,0.8
		c0.1,0.5-0.1,0.8-0.6,1l-8.8,2.9c1,2.4,2,6.2,3,11.3c1.3,6.7,1.7,12.7,1.4,18.1c-0.1,0.4-0.2,0.6-0.4,0.7l-0.9,0.1
		c-2.2-1.1-4-1.7-5.4-1.9c0.3,0.8,0.8,1.7,1.5,2.7c0.2,0.4,0.2,0.7,0,1c-0.3,0.3-0.6,0.5-0.9,0.4l-7.3-0.4c0.9,0.6,2.2,1.1,3.9,1.6
		l0.6,0.5c0.1,0.2,0.1,0.5-0.1,0.8l-2.8,5.4c0.9-1.2,1.9-1.7,3.1-1.8c1.5,0,2.8,1,3.8,2.9c1,2,1.5,4.4,1.5,7.1
		c0,2.8-0.5,5.2-1.5,7.2c-1,1.9-2.3,2.9-3.8,2.9c-1.5,0-2.7-1-3.8-2.9c-1-1.9-1.6-4.3-1.6-7.2c0-1.1,0.1-2.3,0.3-3.5
		c-2.5,7.1-3,12.7-1.5,16.8l0.8,0.2c0.6-0.8,1.1-1.4,1.4-1.6c0.6-0.4,1.4-0.7,2.4-0.9c2.8-0.3,5,0.1,6.5,1.4
		c0.6-0.2,1.6-0.4,2.9-0.5c1.3-0.1,2.4-0.1,3.2,0.1c2.3,0.3,4.1,1.1,5.3,2.4l9.1-1.4c1.5-3.8,1.5-8.8,0.1-14.8l-2.6-8.1
		c-0.2-0.4-0.1-0.8,0.3-1.1l22.6-16.8c0.1-0.9,0.4-2.3,1.1-4.4L178.6,29.1 M142.9,55.4c1.6,0,2.9,1.1,4.1,3.2
		c1.1,2.1,1.7,4.7,1.7,7.7c0,3.1-0.6,5.6-1.7,7.7c-1.1,2.1-2.5,3.2-4.1,3.2c-1.6,0-3-1.1-4.1-3.2c-1.1-2.1-1.7-4.6-1.7-7.7
		c0-3,0.6-5.6,1.7-7.7C139.9,56.4,141.3,55.4,142.9,55.4 M142.4,66.1c0.4,0.8,0.6,1.8,0.6,3c0,1.2-0.2,2.1-0.6,2.9
		c-0.4,0.8-0.9,1.2-1.4,1.2c-0.3,0-0.5-0.1-0.7-0.3c0.7,1.5,1.6,2.3,2.6,2.3c0.9,0,1.8-0.8,2.6-2.4c0.9-1.7,1.3-3.8,1.3-6.3
		c-2-2.1-3.8-3.2-5.4-3.2c-0.8,0-1.6,0.3-2.4,1l-0.1,1.8l0.2,2.7c0-1.1,0.2-2.1,0.6-2.8c0.4-0.8,0.8-1.2,1.3-1.2
		C141.5,64.9,142,65.3,142.4,66.1 M145.2,59.1c-0.7-1.2-1.5-1.9-2.3-1.9c-0.7,0-1.4,0.4-2,1.3c-0.7,0.9-1.2,2.2-1.5,3.6
		c0.5-0.3,1.2-0.5,1.9-0.5c1.8,0,3.6,0.8,5.4,2.4C146.5,62,146,60.4,145.2,59.1z"/>
</g>
</svg>
