<?xml version="1.0" encoding="utf-8"?>
<!-- Generator: Adobe Illustrator 25.4.1, SVG Export Plug-In . SVG Version: 6.00 Build 0)  -->
<svg version="1.1" id="AnimalFriend_x2C_PerkClip_x5F_1e67f" image-rendering="auto"
	 xmlns="http://www.w3.org/2000/svg" xmlns:xlink="http://www.w3.org/1999/xlink" x="0px" y="0px" viewBox="0 0 240 240"
	 style="enable-background:new 0 0 240 240;" xml:space="preserve">
<style type="text/css">
	.st0{fill:#FFFFFF;}
</style>
<g>
	<rect width="240" height="240"/>
	<path class="st0" d="M124.9,197.2l-1.5-2.7c-0.8,3.8-2.2,6.7-4.1,8.7c-1.5,1.6-3.3,2.6-5.6,3.1c-2.4,0.6-4.5,0.3-6.2-0.9l-0.6,0.9
		c-1,1.4-1.9,2.7-2.6,4.1c-1.4,2.4-2.2,4.4-2.4,5.9c-0.2,1.3,0.7,2.1,2.7,2.3l4.3-0.2c2.9-0.6,5.6-2,8.1-4.3c2.1-2,3.9-4.5,5.4-7.6
		l0.2-2.6c0-1.3,0.2-2.1,0.8-2.4l1.3,0c0.4,0,0.6-0.3,0.8-1C125.6,199.4,125.4,198.3,124.9,197.2 M127.7,190.2
		c-0.5,3-0.3,5.3,0.7,6.8l1.1,1.8c0.6,0.7,1.1,0.7,1.4-0.1c0.1-0.2,0.3-0.4,0.8-0.5c0.5-0.1,0.8-0.1,0.8,0.2
		c0.4,1.5,0.9,2.7,1.4,3.5c0.7,1.2,1.6,1.7,2.5,1.3c0.9-0.3,1.6-1.2,2-2.5c0.1-0.2,0.3-0.3,0.7-0.4l0.8-0.1l2.7,1.2
		c-0.5-1.7-0.9-3.9-1.2-6.6l-0.8-11.3c-1.9,1.6-3.9,2.5-5.9,2.7c-2,0.2-3.7-0.4-5.1-1.8C128.7,186.4,128,188.3,127.7,190.2
		 M98.4,195.2c0.7-2.6,1-5.7,0.9-9.1l-1.1-2.7c-1.9,2.6-4,4.5-6.2,5.8c-2.9,1.6-5.5,1.7-7.9,0.2c0.7,4.4,1.5,7.7,2.5,9.9
		c1.7,3.8,3.9,4.9,6.8,3.3C95.7,201.3,97.4,198.9,98.4,195.2 M77.4,141.6c-1-0.6-1.7-1.2-2.2-1.8c-1.6,9.8-1.6,19.2-0.1,28.1
		c0.7,4.3,1.7,8,3,11c0.9,2.1,1.7,3.6,2.2,4.6c1.1,1.8,2.2,3.1,3.2,3.8c2.4,1.5,5.1,1.5,7.9,0c2.1-1.2,4.2-3.1,6.1-5.6
		c-2-5.2-3.6-9.7-4.7-13.8c-1.4-5-2.2-9.8-2.6-14.4c-0.1-0.6,0.1-0.7,0.4-0.2l0.4,1.1c0.4,4.8,1.4,10.1,3.1,15.9
		c0.9,3.1,2.3,7,4.2,11.5l9.1,21.9c1.8,1.1,3.8,1.3,6.2,0.6c2.3-0.6,4.1-1.7,5.3-3.4c1.9-2.4,3.1-5.3,3.7-8.6
		c0.5-2.3,0.7-4.4,0.7-6.4c0-4.9-0.7-9.3-2-13.2c-0.3,1.3-1.3,2.7-2.8,4.4l-3.3,3.3c-0.2,0.1-0.4-0.1-0.6-0.7
		c-0.3-0.6-0.3-1.1-0.1-1.2c4.3-4.2,7-10.3,7.9-18.2c0.6-5.4,0.4-12.3-0.7-20.5c-0.8,1-2.6,2.2-5.2,3.6c-5.8,3-12.6,4.4-20.2,4.4
		c-6.1-0.1-11.7-1.7-16.8-4.7L77.4,141.6 M76.9,89.6c-1.6,1.4-2.8,2.8-3.8,4.1c-1.9,2.5-2.7,5.9-2.4,10c0.1,1.9,0.7,5.3,1.9,10.3
		l2.6,11.9l0.3,3.8l2.7,0.4c0.2-0.7,0.3-2.9,0.2-6.7c-0.1-6.9,0.1-12.2,0.5-16c0.1-1.6,0.8-4.3,1.9-8.1c1-3.3,1.4-5.3,1.4-5.9
		C79.6,92.2,77.9,91,76.9,89.6 M69.6,43.9c-0.2,0.7-0.2,1.5,0,2.4c0.1,0.7,0.5,1.7,1.3,3c0.7-1.6,1.5-3.2,2.5-4.9
		c-0.7-0.2-1.4-0.6-2.1-1.2c-0.3-0.3-0.5-0.4-0.7-0.4C70.2,42.9,69.8,43.2,69.6,43.9 M151.6,91.5l-0.5-0.9c-0.2-0.6-0.3-1.2-0.1-1.9
		c-2.6,1.3-5.7,1.9-9.3,2.1l0.8,8.6l-0.2,0.7c-0.1,0.1-0.3,0.2-0.6,0.3h-6.4l-6.9,9.1l0.3-0.1c0.4-0.1,0.7,0,0.9,0.4
		c0.3,0.3,0.3,0.7,0,1l-2.1,3.6c-0.6,1.2-0.9,2-0.9,2.4l1.6-0.5c0.4-0.2,0.8-0.2,1.1,0.2c0.3,0.4,0.3,0.8,0,1.1
		c-1.5,1.8-2.7,3.5-3.6,5.2c-0.9,1.5-1.2,2.5-1,2.8l0.6,0.1c0.3,0,0.6,0.1,0.8,0.3c0.2,0.2,0.2,0.5,0.2,0.8l-1.7,9.9
		c-0.7,7.3,0,12.9,2,17l2.1,2.4l0.2,3.3c-1-0.6-1.9-1.6-2.8-3c-0.2,5.9,0,11.1,0.8,15.6c0.4,2.7,0.7,4.6,1,5.8
		c0.6,2.3,1.3,4.1,2.3,5.4l0.1,0l0.6,0.7c1.4,1.4,3.1,1.8,5,1.2c1.5-0.5,3-1.5,4.5-3.1l-3.4-17.1l-3.3-11.9
		c-0.1-0.3,0.2-0.5,0.8-0.6c0.6-0.2,0.9-0.1,1,0.2l3.4,12.4c1.3,4.8,2.2,9,2.9,12.6l1.6,19c0.4,3,1.1,5.4,2,7.2
		c2.6-0.7,5.4-0.2,8.4,1.3l2,1.1c0.2,0.1,0,0.3-0.5,0.5l-1.1,0.1l-1.5-0.9c-2.2-1.1-4.6-1.5-7.2-1.1l-1.2,0.2
		c-2.2,0.5-4.1,1.5-5.6,2.8c-1.4,1.2-2.6,2.7-3.5,4.5c-1,2-1.4,3.8-1.1,5.5c0.2,1.7,0.9,2.9,2.1,3.8c0.4,0.4,0.8,0.7,1.3,0.9
		c0.2-0.6,0.2-1.5,0.1-2.5l-0.1-0.7c-0.4-0.8-0.6-1.6-0.5-2.4v-0.1c0-0.2,0.3-0.4,0.9-0.5s0.8-0.1,0.9,0.1l0.5,1.9
		c0.7,1.3,1.7,2.3,2.9,2.9c1.3,0.6,2.2,0.3,2.6-1c0.4-1,0.6-2.3,0.6-3.9c-0.1-0.4-0.1-0.9-0.1-1.5v-0.2c0-0.2,0.3-0.3,0.8-0.4
		c0.6-0.1,0.9-0.1,0.9,0.1l0.1,1.6c0.4,2.1,1.7,3.6,3.8,4.6c2.3,0.9,4.2,0.6,5.9-0.9c3.4-3,4.6-8.3,3.6-15.9c-0.8-5.9-2-11-3.7-15.1
		l-1.1-2.8c-0.5-1.1-1.1-1.9-1.7-2.5h-2.2l0.5,12c-0.3-0.1-0.7-0.6-1.2-1.4c-0.6-0.9-1-1.4-1.3-1.4L149,174
		c-0.2-3.7-0.2-6.3-0.1-7.7c-1.2-1.1-1.9-2.6-2.2-4.5c-0.1-0.5-0.2-2.9-0.4-7.2c-0.2-5.1,1.3-18.8,4.4-41c-0.4,0.1-0.8,0-1.2-0.2
		c-0.9-0.5-1.1-1.9-0.7-4.1l-0.3-0.3c-0.8-1.5-1.3-3.3-1.5-5.4C146.8,99.2,148.3,95.2,151.6,91.5 M142.6,111.8l2.2,3.9
		c1.4,3,1.9,5.6,1.5,8c-2.6-4.9-4.3-8.3-5-10.2c-0.4-1.2-0.3-1.8,0.2-2L142.6,111.8 M148.1,85.1l-0.2,0.8l3.8,0.3l1.6-1.2h-5.1V85.1
		 M154.9,83.1l0.8-1.4l-8,1.2l0.4,1.2h6L154.9,83.1 M141.4,88.6l0.1,0.4c3.5-0.1,6.5-0.8,8.9-2.1l-3-0.2l-0.6,0.6
		C145.4,88.3,143.7,88.8,141.4,88.6 M136.4,87.2l-0.1,11.6l4.2-0.2l-0.9-10.2C138.4,88.1,137.3,87.7,136.4,87.2 M130.9,87.6
		l-3.8,9.7l5.7,0.8l1.6-11.2l-2.6,0.7L130.9,87.6 M126.3,82.5l0,0.1l-0.2,0.4l4.2,0.8l-0.2,0.9l-4.2-0.8l0,0.2l0.9,0.9
		c1.2,0.8,2.8,1,4.8,0.8c1.4-0.2,2.5-0.6,3.4-1.2c-3.3-2.8-5.2-4.1-5.8-4c-1.1,0.1-1.8,0.5-2.3,1.2l2.2,0.6l-0.3,0.8L126.3,82.5
		 M138.4,83.1c-1.5,1.1-2.2,1.6-2.2,1.7h0.1c0.9,1.1,2.4,1.8,4.4,2.1l3.9-0.4l-3.1-0.3l0.1-0.8l4.4,0.3l0.4-0.7h-4.2v-0.8h4.1
		l-0.6-0.9l-3.5,0.5l-0.1-0.9l2.6-0.4c-0.9-0.5-2-0.9-3.2-1.1C140.9,81.4,139.9,82,138.4,83.1 M129.1,66.5c0.5,0,0.9,0.4,1.2,1.1
		c0.3,0.8,0.5,1.7,0.5,2.8c0,1.1-0.2,2-0.5,2.8c-0.3,0.8-0.8,1.2-1.2,1.2l-0.7-0.4c0.7,1.5,1.5,2.2,2.4,2.2c0.9,0,1.7-0.8,2.4-2.2
		c0.8-1.6,1.2-3.6,1.2-5.8c-1.8-2-3.5-3-5.1-3c-0.8,0-1.5,0.4-2.2,1l0.1,4.1c0-1,0.2-1.9,0.6-2.6C128.3,66.9,128.7,66.5,129.1,66.5
		 M130.9,59.4c-0.6,0-1.2,0.4-1.9,1.2c-0.6,0.9-1.1,2-1.4,3.3l1.7-0.4c1.6-0.1,3.3,0.7,5.1,2.2c-0.2-1.9-0.6-3.4-1.3-4.6
		C132.3,59.9,131.6,59.3,130.9,59.4 M97.4,96.9c-0.3,0-0.6,0.3-0.9,1.1c-1.5,2.9-2.5,9.1-2.8,18.7c-0.4,9.1-0.2,14.5,0.6,16.3
		c4.4,0.7,9.1,0.5,14-0.6c2.8-0.6,6.2-1.6,10.1-3.1l2.7-0.9c0.2-2.7,0.6-5.5,1.2-8.3l1.2-4.5c0.5-1.8,0.8-3.3,0.8-4.5l-7.7,1.6
		l-1.6-0.9l11.9-3.4l5.8-8.5l-7-1l-0.6-0.4c-0.1-0.3-0.2-0.6-0.1-0.8l3.4-8.3c-1.3-0.9-3-1.8-5-2.5l-9.2-2.8c0.2,2.1-0.4,4.1-2,6.1
		c-1.5,2-3.7,3.6-6.5,4.9C102.7,96.3,100,97,97.4,96.9 M83.2,91.9c0.5,0.4,0.7,1.1,0.6,2.3l-1.4,5.4c-1.1,3.7-1.8,6.3-1.9,7.8
		c-0.3,3.8-0.5,9.1-0.5,15.8v5.8c-0.1,1.2-0.3,1.9-0.8,2.3l-0.8,0.3h-0.2l-2.8-0.4l-0.2,6.8c4.6,3.9,10.3,6.3,17.2,7.1
		c6.3,0.7,12.5,0.1,18.6-1.9c4.7-1.6,8-3.6,10-5.9l0.2-0.4l-0.5-4.9l0.1-1.9l-1.9,0.7c-3.2,1.2-5.9,2.1-8.2,2.7
		c-4,1-7.9,1.5-11.6,1.5l-5.6-0.4c-0.5-0.1-0.9-0.4-1.1-1.1c-0.4-1.1-0.6-3.3-0.8-6.5c-0.2-4.7-0.1-9.5,0.2-14.2
		c0.8-11.8,2.6-17.8,5.3-17.8h0.2c2.3,0,4.7-0.6,7.3-1.8c2.5-1.2,4.5-2.6,5.8-4.4c1.4-1.8,1.9-3.6,1.4-5.4l-4.5-1.1
		c-0.8,2.8-2.7,5.2-5.7,7.1c-2.8,1.8-5.8,2.7-8.9,2.7c-1.9,0-3.6-0.4-5.1-1.1c-1.6-0.8-2.8-2.1-3.6-3.7c-1.1-0.4-2.2-0.9-3.2-1.4
		l-2.9,2.3c0.8,1.3,2.4,2.4,4.9,3.5L83.2,91.9 M94.9,36.5c-0.8,0-1.5,0.2-2.1,0.5c-1.6,0.9-2.8,1.3-3.8,1.3l-1.7-0.4
		c-1.2-0.7-2.2-1.1-3-1.1l-0.9,0.2c-0.5,0.3-1.4,1.2-2.7,2.9l-2.1,2.8c-1.3,1-2.4,1.6-3.5,1.8c-2.3,3.9-3.9,7.7-4.6,11.4
		c-1.1,5.3-0.7,10.5,1.1,15.7c1.8,5.3,4.8,9.4,8.9,12.4l0.1-0.1l0.3,0.2c1.1,0.8,2.3,1.4,3.6,2.1c3.1,1.3,5.8,2,8.2,2l2.9-0.3
		l0.2,0.1c0.1,0.3-0.5,0.6-1.8,1L91,89.6h-0.2c0.7,0.5,1.5,0.7,2.6,0.7c2.4,0,4.9-0.8,7.5-2.4c2.8-1.7,4.3-3.7,4.7-5.9h0l-0.1-0.1
		c-1.6,1.1-2.9,1.7-4.1,1.7c-0.4,0-0.6-0.1-0.6-0.2c0-0.2,0.1-0.4,0.5-0.7c3.9-2.5,7.1-6.1,9.8-10.9l0.7,0.1c2.5,0,4.3-1.2,5.3-3.6
		c1-2.4,0.4-4.4-1.7-6c-0.3-0.5-0.3-0.8,0.1-1.1l0.8-0.2l0.1-0.2l0.1,0.1c-1.6-2.5-3-4.3-4-5.4c-0.6-0.6-1.4-1.1-2.2-1.6
		c-0.4-0.2-0.6-0.5-0.6-0.9c0-0.3,0.1-0.4,0.4-0.4l0.2,0.1c1,0.4,2,1.1,3,2.1c0.8,0.8,1.6,1.8,2.3,3l1.4,2.7l0.2-1.1
		c-1.5-2.9-2.9-5-4.2-6.3l-3.4-3c-0.2-0.1-0.3-0.3-0.2-0.6c0.1-0.2,0.2-0.4,0.5-0.4l0.3,0.1c0.6,0.2,1.8,1.2,3.6,3.1
		c1.4,1.7,2.6,3.6,3.5,5.8c0-2.8-1.2-5.3-3.4-7.5c-1-0.9-2.4-1.9-4.2-3c-0.4-0.2-0.5-0.5-0.3-0.8c0.1-0.3,0.3-0.4,0.4-0.4
		c2.4-1.3,3.2-2.9,2.7-4.8c-0.6-1.8-1.7-2.7-3.2-2.7h-0.3l-6.2,1.4c-0.9,0-1.6-0.3-2.1-0.9C98.8,37.5,97,36.5,94.9,36.5 M95.3,45.8
		c-0.1-0.2,0-0.6,0.4-1.1l0.7-0.9c0.1-0.3,0.4-0.4,0.7-0.4l0.5,0.1l1.9,1.9c1.2,1.4,1.8,2.5,1.6,3.2H101l-1.3-0.6l-1.8-1.1
		L95.3,45.8 M113.6,59c0.3,0.6,0.5,1,0.5,1.2l-0.2,0.2l-2.1-2.1l-1.7-1.1c-0.4-0.2-0.5-0.5-0.4-0.8c0.1-0.3,0.2-0.4,0.5-0.4l0.2,0.1
		c0.8,0.3,1.5,0.8,2.2,1.5L113.6,59 M111.6,60.2c0.4,0.4,0.6,0.9,0.6,1.3c0,0.5-0.1,0.7-0.5,0.7c-0.3,0-0.5-0.1-0.5-0.4
		c0-0.3-0.2-0.6-0.6-1l-0.6-0.5c-0.2-0.1-0.3-0.3-0.2-0.6c0-0.2,0.2-0.4,0.4-0.3l0.3,0L111.6,60.2 M96.2,51.4L96.2,51.4
		c0.5,0,0.8,0.3,1.2,0.9s0.4,1.3,0.4,2.1c0,0.8-0.2,1.5-0.5,2.1c-0.3,0.6-0.7,0.8-1.2,0.9c-0.5,0-0.8-0.3-1.2-0.9
		c-0.3-0.6-0.4-1.3-0.4-2.1c0-0.8,0.2-1.5,0.5-2.1C95.4,51.6,95.8,51.3,96.2,51.4 M84.6,55.9l1.8-3.6c0.2-0.5,0.5-0.8,0.8-0.8
		c0.3,0.1,0.4,0.4,0.2,0.9c-0.5,1.6-1.1,3.1-1.8,4.4l-1.8,3.6c-0.3,0.5-0.3,1,0.1,1.5l1.7,2.2c0.1,0.2,0.2,0.4,0.1,0.6l-0.4,0.4
		l-1,0.2c-0.4,0-0.8-0.2-1.2-0.5l-1.9-3c-0.1-0.2-0.2-0.4-0.2-0.7c0-0.3,0.1-0.5,0.2-0.7L84.6,55.9 M83.7,70.2l1.2-0.1
		c2-0.2,5-1.1,9-2.6l0.7-0.5c0.2-0.3,0.2-0.5,0.2-0.7L94.2,65c-0.1-0.3-0.1-0.5,0.1-0.5l0.3,0.1l4.4,3.1l0.5,0.6l0.1,0.7l-0.8,4.1
		c0,0.3-0.1,0.4-0.2,0.4l-0.3-0.3l-0.1-1.9c-0.2-0.3-0.5-0.5-0.9-0.5l-0.4,0.1L93,73.4c-3,1.7-5.3,2.5-7.2,2.5h0
		c-1.8,0-3.9-0.5-6.1-1.6l-2.8-1.7l-0.2,0c-0.4,0-0.6,0.2-0.6,0.6l0,0.4l-0.2,0.4l-0.3-0.2l-1.8-3l-0.2-0.7c0-0.3,0.1-0.5,0.2-0.7
		l1.6-2l0.4-0.2c0.1,0,0.1,0.1,0.1,0.4l0,0.6c0,0.6,0.3,0.9,0.8,1L83.7,70.2 M87.7,77.7c0.1,0.2,0,0.5-0.2,0.7l-0.6,0.4l-1.5,0.2
		l-1.2-0.2l-1.5-0.8c-0.2-0.1-0.3-0.3-0.3-0.4c0-0.1,0.2-0.2,0.4-0.2l3.7-0.4h0.2C87.3,77.1,87.6,77.3,87.7,77.7 M75.4,46.9l0.4-0.4
		l3.3-2.1l0.5-0.2c0.3,0,0.5,0.2,0.6,0.7l0.2,0.9c0.1,0.3,0,0.6-0.2,0.8c-0.2,0.2-0.4,0.3-0.7,0.4l-3.7,0.2
		C75.6,47.1,75.4,47,75.4,46.9 M78.7,52.4c0.3,0.6,0.5,1.3,0.4,2.1c0,0.8-0.2,1.5-0.5,2.1s-0.7,0.8-1.2,0.8c-0.5,0-0.9-0.3-1.2-0.9
		c-0.3-0.6-0.4-1.3-0.4-2.2c0-0.8,0.2-1.5,0.5-2.1c0.3-0.6,0.7-0.9,1.2-0.9h0.1C78,51.4,78.3,51.8,78.7,52.4 M82.1,73.8l2.8,0.3
		l4.5-0.6c1.2-0.4,3.4-1.5,6.7-3.2l0.7-0.7c0.2-0.4,0.2-0.7-0.2-1c-0.3-0.3-0.7-0.4-1.2-0.4l-1,0.2c-3.7,1.5-6.7,2.3-9.1,2.6
		l-1.2,0.1l-7.4-0.9h-0.1c-0.7,0-0.9,0.2-0.8,0.8c0.2,0.6,0.4,0.9,0.8,1L82.1,73.8 M95.8,22.6l-0.2,0.1c-0.7,0.1-1.8,1.4-3.4,3.8
		l-1.5,2.1C90.3,28.8,90,29,89.5,29l-3.9-0.9l-1,0.2c-1,0.3-2.8,1.9-5.5,4.9c-1.1,1.2-2.3,1.8-3.8,1.8c-1.1,0-2-0.3-2.8-0.9
		c-0.7-0.6-1-1.4-0.9-2.6c-0.8,0.7-1.4,1.6-1.8,2.6c-0.4,1.3-0.5,2.7-0.1,4.4c0.4,1.7,1.2,3.1,2.2,4.1c0.5,0.5,1.2,0.8,2,0.8h0.4
		l0.6-0.1c1-0.3,1.9-0.8,2.7-1.5l2.1-2.6c1.4-1.7,2.3-2.7,2.9-3.1c0.8-0.4,1.5-0.6,2.1-0.6l1.2,0.2l2.4,1.2l0.5,0.2
		c0.3,0,0.8-0.2,1.4-0.6l4.8-2.9l0.8-0.2c1,0,2.4,0.9,4.1,2.8l2.9,2.9l0.3,0.1c0.4,0,1.3-0.3,2.7-0.9c1.4-0.7,2.4-1,3-1.1l1-0.1
		c1.6,0,2.8,0.6,3.7,1.7c0.6,0.8,1,1.8,1.2,3c0.1,0.8-0.3,1.8-1.2,2.9l-2.4,2.3l3.4,2.8c1.8,1.8,3,3.9,3.5,6.4
		c0.6-1.6,1.1-3.4,1.4-5.6c0.7-4.2,0.5-7.6-0.7-10.2c-0.6-1.4-1.4-2.8-2.3-4.1c-1.3-1.8-2.5-2.9-3.7-3.4l-2.6-3.2
		c-1.4-1.9-3-2.9-4.8-3.1l-3.9-1c-0.4-0.2-0.9-0.4-1.4-0.8L99,23.9C97.8,23,96.7,22.6,95.8,22.6 M165.4,147.4
		c-0.7-0.4-1.4-0.6-2.1-0.5c-0.5,0.3-0.9,0.9-1.4,1.8l-1.3,4.5c-0.1,0.5-0.5,0.7-1,0.6s-0.8-0.4-0.7-0.9c0.2-1.8,0.6-3.4,1.3-4.8
		l0.6-1.6c-0.2-1-0.6-1.7-1.1-1.9c-0.5-0.2-1.2-0.1-2.2,0.3c-0.5,2.1-0.8,4.1-0.9,6.1c-0.2,2.4-0.1,4.2,0.4,5.4
		c0.3,0.4,0.6,0.8,0.9,1c1,0.6,2.4,0.5,4.2-0.5l1.1-0.6c0.2-0.2,0.4-0.2,0.7-0.1c0.3,0,0.4,0.1,0.6,0.3c0.3,0.5,0.3,0.9-0.2,1.2
		l-1,0.7c-2.7,1.6-4.8,1.8-6.3,0.8c-0.6-0.4-1.1-1-1.4-1.9c-1.5-2.7-1.3-8,0.5-15.8c2.2-9.6,4.3-19.8,6.3-30.6
		c-3.1,2.9-5.4,4.1-7,3.6c-0.6-0.2-0.9-0.6-1.1-1.2c-0.1-0.5-0.2-1-0.1-1.6l-1.2,1.1c-3.2,22.8-4.7,36.8-4.6,41.9
		c0.1,3,0.4,5.2,0.8,6.8c0.5,1.6,1.3,2.9,2.4,3.9l0.5,0.4h0c0.7,0.5,1.7,1.1,2.8,1.6l-0.1,0.2l3.8,0.4c2.2-0.2,4.2-1.5,6.2-4.1
		c1.4-1.8,2.4-3.7,2.9-5.8c0.6-2.1,0.7-4.1,0.3-5.9C167.4,149.8,166.6,148.2,165.4,147.4 M163.6,132.7l-1.1,2.1
		c-0.2,0.3-0.4,0.4-0.8,0.4l-0.7-0.5l-1.3-2.3l-2.3,10.7c1.1-0.4,2.1-0.4,3,0c0.9,0.4,1.5,1.2,1.9,2.4l0.4-0.2l1.2-0.1
		c0.9,0,1.7,0.3,2.4,0.8c0.4,0.2,0.8,0.5,1.1,0.9c0.6-0.4,1-1.2,1.3-2.6c-1-0.1-1.9-0.7-2.6-1.7c-0.2-0.2-0.2-0.5-0.2-0.8
		c0.1-0.3,0.3-0.5,0.6-0.6c0.5-0.2,0.8-0.5,1-0.9c0.2-0.5,0.2-1.2-0.1-2.1l-0.9,0.5c-0.9,0.3-2,0.2-3.1-0.3l-0.5-0.8
		c0-0.3,0.1-0.6,0.4-0.8c0.5-0.4,0.7-0.9,0.7-1.6C164,134.4,163.8,133.6,163.6,132.7 M166.9,105.6l-2.5,3.1l-2,11.1
		c3.4-1.4,6.1-3.8,7.9-7.2c1.4-2.6,2.1-5,2.1-7.3c0-1-0.2-2.1-0.5-3.2C170.8,104.2,169.1,105.4,166.9,105.6 M168.2,93.2
		c-1.7-1.6-3.4-3-5.3-4.1c-2.2-1.3-3.7-1.7-4.5-1.1c-4.7,3.1-7.7,6.6-8.9,10.6c-0.8,2.6-0.9,5.1-0.1,7.7l1.7-3.8
		c0.8-2.1,1.8-4.5,3.1-7.1l0.5-0.4l0.7,0.1c0.2,0.1,0.3,0.2,0.4,0.4v0.7l-2.7,6.2c-1,2.4-1.8,4.5-2.2,6.2c-0.5,1.8-0.6,2.8-0.2,3.2
		h0.3c1-0.3,2.6-2.1,4.6-5.4c1.3-3.1,2.8-6.1,4.6-8.9c0.3-0.5,0.7-0.6,1.2-0.3s0.6,0.6,0.4,1.1c-1.8,3.8-3.3,6.8-4.5,8.9
		c-1.2,2.9-1.7,4.7-1.4,5.5l0.1,0.2c1.2,0.4,3.5-1.3,7-5l0.1-0.2h0.1l2.9-3.4c0.2-0.2,0.4-0.3,0.7-0.3c1.5,0,2.7-0.7,3.6-2.1
		c0.6-0.9,0.8-1.6,0.8-2.2l0.4,0.1C170.1,96.2,169.1,94.1,168.2,93.2 M178.7,32.2c0.6,0.1,0.8,0.5,0.8,1l-0.8,8.1l-0.1,0.4l-1.1,8.9
		c-0.4,2.8-0.4,4.4-0.2,4.8c1,0.2,3-1.3,6.1-4.3c3.5-3.4,5.9-6.9,7.4-10.6c-1.3-2.9-2.8-5.6-4.5-7.9c-2.4-3.4-4.6-5.2-6.4-5.4
		c-1.8-0.2-5.9,2.7-12.1,8.6c-5.1,4.8-10.4,10.2-15.8,16.2c-0.2,0.3-0.5,0.3-0.9,0.2l-5.3-1.5c-0.5-0.2-0.7-0.5-0.7-1
		c0.5-4.2,0.9-8.8,1.2-13.6c0.6-9.8,0.5-16.6-0.2-20.4c-3.5-1.7-6.9-3.1-10.2-4.2c-4-1.5-6.7-2.2-8.2-2.1c-2,3.7-3.6,7.2-4.8,10.6
		c-1.5,4.3-1.9,7.1-1.2,8.5l0.9,0.6c2-3.5,4.1-6.1,6.3-7.9c3.7-3,8.3-4.7,13.9-4.9c0.2,0,0.4,0,0.6,0.2l0.3,0.5
		c0.1,0.5-0.1,0.9-0.6,1.1l-8.9,2.8c1.4,3.4,2.6,6.9,3.5,10.5c1.6,6.2,2.2,11.9,1.8,17.2l-0.4,0.8l-0.8,0c-2.3-1.1-4.1-1.8-5.4-1.9
		c0.2,0.7,0.7,1.6,1.5,2.7c0.2,0.3,0.2,0.6,0,1c-0.2,0.3-0.5,0.5-0.8,0.4l-4.4-0.5l-3,0.1c1,0.6,2.3,1.1,3.9,1.6l0.6,0.5
		c0.1,0.3,0.1,0.6,0,0.8l-2.8,5.4c0.9-1.2,1.9-1.8,3.1-1.8c1.5,0,2.8,1,3.8,2.9c1,1.9,1.6,4.3,1.6,7.1c0,2.8-0.5,5.2-1.6,7.1
		c-1,2-2.3,3-3.8,3s-2.8-1-3.8-3c-1-1.9-1.5-4.3-1.5-7.1c0-1.3,0.1-2.5,0.3-3.6c-2.5,7-3,12.7-1.5,16.9l0.8,0.2l1.4-1.6
		c0.6-0.4,1.4-0.7,2.5-0.9l3.6,0.1c1.1,0.3,2.1,0.7,2.8,1.3c0.6-0.2,1.6-0.4,2.9-0.5c1.3-0.1,2.4-0.1,3.2,0c2.4,0.3,4.2,1.2,5.4,2.4
		l9.1-1.4c1.5-3.8,1.6-8.8,0.2-14.9l-2.6-8.1c-0.2-0.4-0.1-0.8,0.3-1.1l21.7-15c0.1-0.9,0.4-2.4,1-4.4l1.1-4.3l0.4-0.6
		C178.2,32.3,178.5,32.2,178.7,32.2 M142.9,57.6c1.6,0,2.9,1.1,4.1,3.1c1.1,2.1,1.7,4.6,1.7,7.7c0,3-0.6,5.6-1.7,7.7
		c-1.1,2.1-2.4,3.1-4.1,3.1c-1.6,0-2.9-1.1-4-3.1c-1.1-2.1-1.7-4.7-1.7-7.7c0-3,0.6-5.6,1.7-7.7C139.9,58.6,141.3,57.6,142.9,57.6
		 M142.9,71.2c0,1.1-0.2,2.1-0.5,2.9c-0.4,0.8-0.9,1.2-1.4,1.2c-0.2,0-0.5-0.1-0.8-0.3c0.8,1.5,1.7,2.3,2.6,2.3c1,0,1.9-0.8,2.7-2.4
		c0.8-1.7,1.3-3.8,1.3-6.3c-2-2.2-3.8-3.2-5.5-3.1c-0.9,0-1.7,0.4-2.4,1l0.1,4.5c0-1.1,0.2-2.1,0.6-2.9c0.4-0.8,0.8-1.2,1.4-1.2
		c0.5,0,1,0.4,1.4,1.2C142.8,69,142.9,70,142.9,71.2 M145.2,61.1c-0.8-1.2-1.6-1.8-2.4-1.8c-0.7,0-1.3,0.4-1.9,1.3
		c-0.7,0.9-1.2,2.1-1.6,3.6l1.9-0.4c1.7-0.1,3.5,0.7,5.4,2.3C146.5,64.1,146,62.4,145.2,61.1z"/>
</g>
</svg>
