<?xml version="1.0" encoding="utf-8"?>
<!-- Generator: Adobe Illustrator 25.4.1, SVG Export Plug-In . SVG Version: 6.00 Build 0)  -->
<svg version="1.1" id="AnimalFriend_x2C_PerkClip_x5F_1e67f" image-rendering="auto"
	 xmlns="http://www.w3.org/2000/svg" xmlns:xlink="http://www.w3.org/1999/xlink" x="0px" y="0px" viewBox="0 0 240 240"
	 style="enable-background:new 0 0 240 240;" xml:space="preserve">
<style type="text/css">
	.st0{fill:#FFFFFF;}
</style>
<g>
	<rect width="240" height="240"/>
	<path class="st0" d="M74.2,207.7c0.1,0.3,0,0.5-0.2,0.6l-9.4,4.1c2.3,2,4.4,3.2,6.2,3.8c1.5,0.4,3,0.2,4.6-0.4l0-0.2
		C76.5,213.8,76,211.2,74.2,207.7 M72.8,203.9c1.3,2.1,2.2,3.8,2.7,5c1,2.3,1.5,4.2,1.4,5.8l1.3-1.1l3.6-3.6
		c-1.8-3.6-3.8-6.6-6.1-9.1c-2.8-3.1-5.8-5.1-9-6.1C69,197.9,71,200.9,72.8,203.9 M131.3,191.3l-1.2,3.8c-1.4,4.1-3.2,8.1-5.5,12.2
		l-3.2,5.2c2.5-1.4,4.6-3.5,6.4-6.3l1.6-2.4c0.5-0.9,0.7-1.8,0.7-2.6l-0.1-1.1l0.2-1.1c0.3-0.4,0.7-0.6,1.3-0.6l1.1-0.2
		C133.6,196.7,133.2,194.3,131.3,191.3 M103.4,183.1c-0.1,0.4,0,1,0.2,1.8c0.3,1,0.9,2.1,1.7,3.3l2.2,2.6l1.8,1.1h0.2l0.1-0.2
		c0.1-0.4,0-1.1-0.3-2.1c-0.4-1-0.9-1.9-1.5-2.9l-0.2-0.4C106.3,184.9,104.9,183.9,103.4,183.1 M100.3,194.4
		c-0.2-1.2-0.8-2.8-1.9-4.8c-1-1.9-2-3.3-3-4.1v0.2c0.2,1.2,0.8,2.7,1.8,4.5C98.3,192.4,99.3,193.7,100.3,194.4 M99.1,183.4
		c-0.2,0.4-0.2,1.1,0,2.1c0.2,1,0.5,2.1,1,3.1c0.5,1.1,1.1,2.1,1.8,2.9c0.6,0.7,1.1,1.1,1.6,1.3h0.2l0.2-0.2c0.2-0.4,0.2-1.1,0-2.1
		c-0.2-1-0.6-2.1-1.1-3.2c-0.6-1.4-1.4-2.6-2.2-3.4c-0.7-0.7-1.1-1-1.3-0.9L99.1,183.4 M94.5,177.5c-1.2,0.1-2,0.4-2.4,1.1
		c-0.4,0.7-0.5,1.6-0.2,2.9c0.2,0.9,0.5,1.7,1,2.4l0.8,1.6l0.1-0.8c0.1-0.4,0.3-0.7,0.6-0.8l0.2-0.1C93.6,182,93.6,179.9,94.5,177.5
		 M96.6,177.1L96.6,177.1l-0.8,1.9c-0.4,1.5-0.3,2.7,0.2,3.8c2.1-1.6,4-2.3,5.8-2.1c0.1-1.8,1.1-3.5,3.1-5.1
		c-1.8-1.4-3.3-1.9-4.8-1.6c-0.6,0.1-1.3,0.5-1.9,1l-0.2,0.2l-1.1,1.3L96.6,177.1L96.6,177.1 M97.1,152l-1-0.1
		c-0.7,6.9-0.1,13.9,1.8,21.1c0.7-0.4,1.3-0.7,1.9-0.8c1.9-0.4,3.9,0.3,6.1,2c1.3-0.7,2.7-0.8,4.3-0.3c1.8,0.5,3.2,1.6,4.2,3.1
		c1.4,2,2.5,4.9,3.4,8.6l1.1,6.2l1.1-2.8c2.3-8,3.8-18.4,4.5-31.1l0.1-0.4l-0.5-1.4c-1.2-3.3-1.8-7.4-1.6-12.3
		c-0.7,1-2.5,2.3-5.3,3.7C111.5,150.6,104.7,152.1,97.1,152 M65,194.4c-1.9-2-3.8-3.4-5.7-4.2c-1.6-0.7-3.1-0.9-4.5-0.4
		c-1.6,0.5-2.5,1.6-2.5,3.4c0,1.5,0.3,3.1,1.2,4.9c0.5,1.2,1.4,2.7,2.5,4.4c2.1,3.2,4.4,5.9,6.8,8.2l10.6-4.6l-2.6-4
		C68.7,199.2,66.8,196.6,65,194.4 M78,146.1c-1-0.6-1.7-1.2-2.2-1.8c-0.5,7.3-1.3,14.5-2.4,21.6c-0.7,4.9-1.5,9.1-2.2,12.6l-2.6,9.5
		c-0.6,1.9-1.4,3.5-2.2,4.8c3.3,1,6.5,3.3,9.5,6.7c2.4,2.7,4.5,5.9,6.4,9.8c2.2-2.8,4.4-6.1,6.5-10.1c1.5-2.7,3.2-6.3,5.1-10.8
		l-2.5-3.8c-0.5-0.9-0.9-1.8-1.1-2.8c-0.4-1.8-0.3-3.2,0.3-4.2c0.9-1.3,2.4-1.9,4.7-1.9c0.6-1,1.2-1.8,2-2.4
		c-2-7.3-2.7-14.4-2.2-21.4c-5.4-0.4-10.3-1.9-14.9-4.6L78,146.1 M77.2,94.2c-1.3,1.2-2.5,2.5-3.6,3.9c-1.9,2.5-2.7,5.8-2.4,9.9
		c0.1,1.9,0.7,5.3,1.9,10.3l2.6,12l0.4,4.6l0.1-0.5l2.4,0.6c0.2-0.8,0.3-3,0.2-6.6c-0.1-6.8,0.1-12.2,0.4-16
		c0.2-1.6,0.8-4.3,1.9-8.1c1-3.3,1.4-5.3,1.3-5.8C79.8,97.1,78,95.7,77.2,94.2 M70.5,46.6c-0.4,0-0.7,0.3-0.9,1
		c-0.2,0.7-0.3,1.5-0.1,2.5c0.1,0.7,0.5,1.7,1.3,3c0.7-1.6,1.5-3.2,2.5-4.9c-0.8-0.2-1.5-0.6-2.1-1.2C71,46.8,70.8,46.7,70.5,46.6
		 M154,87.8l0.9-1l0.8-1.4l-8,1.2l0.4,1.1H154 M148.1,88.6v0.1l-0.2,0.8l3.8,0.3l1.5-1.2H148.1 M139.6,92.1
		c-1.2-0.2-2.3-0.6-3.3-1.2l-0.1,11.6l4.3-0.1L139.6,92.1 M141.4,92.3l0.1,0.4c3.5-0.1,6.5-0.8,8.9-2.1l-3-0.2l-0.6,0.6
		C145.4,92,143.6,92.4,141.4,92.3 M134.4,90.6l-2.6,0.6l-0.9,0.1l-3.9,9.6l5.7,0.8L134.4,90.6 M136.2,88.4c0.9,1.1,2.4,1.8,4.4,2.1
		c1.5,0.2,2.8,0.1,4-0.3l-3.2-0.2l0.1-0.9l4.3,0.4l0.4-0.7h-4.2v-0.9h4.1l-0.2-0.4l-0.3-0.4l-3.5,0.6l-0.1-0.9l2.5-0.4
		c-0.8-0.5-1.9-0.9-3.2-1.1c-0.4-0.1-1.4,0.5-3,1.6C136.9,87.8,136.1,88.4,136.2,88.4 M126.3,86.2l-0.1,0.1l-0.2,0.4l4.2,0.8
		l-0.1,0.9l-4.2-0.8l0,0.1l0.9,1c1.2,0.7,2.8,1,4.7,0.7c1.3-0.1,2.5-0.5,3.5-1.2l-2.6-2.1c-1.8-1.4-2.8-2-3.2-1.9
		c-1.1,0.1-1.8,0.5-2.3,1.2l2.2,0.6l-0.2,0.9L126.3,86.2 M127.9,71.2c0.3-0.7,0.7-1.1,1.2-1.1c0.5,0,0.9,0.4,1.3,1.2
		c0.3,0.8,0.5,1.7,0.5,2.8c0,1.1-0.2,2-0.5,2.8c-0.4,0.8-0.8,1.1-1.3,1.1l-0.7-0.3c0.7,1.4,1.5,2.2,2.4,2.2c0.9,0,1.7-0.8,2.4-2.2
		c0.8-1.6,1.2-3.6,1.2-5.9c-1.9-2-3.6-3-5.1-2.9c-0.8,0-1.5,0.4-2.1,0.9l-0.1,1.6l0.2,2.5C127.3,72.9,127.5,72,127.9,71.2
		 M130.8,63.1c-0.6,0-1.2,0.4-1.8,1.2c-0.6,0.9-1.1,2-1.4,3.4l1.7-0.4c1.7,0,3.4,0.7,5.1,2.2c-0.2-1.9-0.7-3.4-1.4-4.6
		C132.3,63.6,131.6,63.1,130.8,63.1 M114.8,88.3c0.1,2.1-0.6,4.2-2.2,6.2c-1.7,2.1-3.9,3.8-6.7,5.2c-2.8,1.4-5.5,2.1-7.9,2.1
		c-0.3,0-0.6,0.4-1,1.1c-1.5,2.9-2.4,9.1-2.8,18.7c-0.4,9-0.2,14.4,0.6,16.2l11.9-0.5c5.4-0.8,10.3-2.1,14.8-3.9
		c0.5-7.7,1.2-13.9,2.1-18.5l-7,1.5l-1.6-0.9l12-3.4l5.8-8.5l-7-1l-0.7-0.4c-0.1-0.2-0.2-0.5-0.1-0.8l3.6-9l-1.1-0.7
		C124.2,90.6,119.9,89.4,114.8,88.3 M87.9,94.8c-1.6-0.8-2.8-2.1-3.6-3.7L82,90.2c-1.5,1.1-2.7,2.1-3.5,2.8c0.7,1.4,2.3,2.6,5.1,3.9
		l0.1,0c0.5,0.4,0.7,1.1,0.6,2.4l-1.4,5.4c-1.1,3.7-1.7,6.3-1.8,7.8c-0.3,3.8-0.5,9-0.4,15.8l-0.1,5.8c-0.1,1.2-0.3,2-0.8,2.3
		c-0.2,0.2-0.5,0.3-0.8,0.3h-0.1l-2.8-0.6l-0.2,6.4c4.8,4.1,10.8,6.5,18,7.2c6.7,0.6,13.2-0.2,19.3-2.6c2.4-1,4.2-1.9,5.4-2.8
		l2.2-1.5c0.9-0.8,1.3-1.4,1.2-1.9c-0.3-1.9-0.5-3.8-0.5-5.8c-3.8,1.4-7.9,2.6-12.4,3.3c-4.2,0.8-7.9,1.2-11.2,1.2l-3.8-0.2
		c-0.5-0.1-0.9-0.5-1.1-1.1c-0.4-1.1-0.6-3.3-0.8-6.6c-0.2-4.4-0.2-9.1,0.2-14.3c0.8-11.7,2.5-17.6,5.3-17.6H98c2.2,0,4.5-0.6,7.1-2
		c2.6-1.3,4.6-2.9,6-4.7c1.5-1.9,2.1-3.7,1.8-5.6l-5.5-1.1c-0.9,2.7-2.8,4.9-5.8,6.6c-2.8,1.7-5.7,2.5-8.7,2.5
		C91.1,95.9,89.4,95.5,87.9,94.8 M87.3,41.6c-1.1-0.7-2.1-1.1-3-1.1l-0.9,0.2C83,41,82.1,42,80.7,43.7l-2.2,2.8
		c-1.2,1-2.3,1.6-3.4,1.8c-2.3,3.8-3.9,7.6-4.7,11.4c-1.1,5.4-0.6,10.8,1.3,16.1c2,5.5,5.2,9.6,9.6,12.5l0.2-0.1
		c0.1-0.1,0.2,0.1,0.4,0.6l2.5,1.3c3.1,1.3,5.8,1.9,8.2,1.9l2.9-0.2l0.2,0.1c0.1,0.2-0.5,0.6-1.8,1L91,93.3h-0.2
		c0.7,0.4,1.6,0.6,2.7,0.6c2.5,0,5-0.8,7.6-2.4c2.8-1.8,4.3-3.8,4.5-5.9c-1.7,1.1-3.1,1.7-4.3,1.7c-0.3,0-0.5-0.1-0.6-0.2
		c0-0.1,0.1-0.3,0.5-0.6c3.8-2.5,7.1-6.2,9.8-10.9l0.7,0.1c2.5,0,4.2-1.2,5.2-3.6c1-2.4,0.5-4.4-1.6-6c-0.3-0.5-0.2-0.9,0.3-1.1
		l1,0.4l0.1-0.4v0c-1.6-2.5-3-4.4-4.3-5.7l-2.2-1.6c-0.4-0.2-0.6-0.5-0.6-0.9c0-0.3,0.2-0.5,0.4-0.5h0.2c0.8,0.3,1.8,1.1,2.9,2.2
		c1.4,1.3,2.6,3.2,3.8,5.6l0.2-1c-1.5-3-2.9-5.2-4.2-6.4l-3.4-3c-0.3-0.2-0.3-0.4-0.2-0.6c0.1-0.2,0.3-0.3,0.6-0.3l0.3,0.1
		c0.6,0.2,1.8,1.2,3.6,3.2c1.4,1.7,2.6,3.6,3.5,5.8c0.1-2.8-1.1-5.3-3.5-7.5c-0.9-0.8-2.2-1.8-4.1-3c-0.4-0.2-0.5-0.4-0.3-0.8
		l0.3-0.4c2.4-1.3,3.3-2.9,2.7-4.8c-0.6-1.7-1.7-2.6-3.3-2.6h-0.3c-1.8,0.3-3.1,0.5-3.8,0.8l-2.3,0.5c-0.8,0-1.5-0.3-2.1-0.8
		c-1.6-2-3.5-3-5.5-3c-0.7,0-1.4,0.2-2.2,0.6C91.2,41.6,90,42,89,42C88.4,42,87.8,41.9,87.3,41.6 M95.3,49.4c-0.1-0.2,0-0.5,0.4-1.1
		l0.7-0.8c0.2-0.3,0.4-0.4,0.7-0.4l0.4,0.1l1.9,1.9c1.2,1.4,1.8,2.4,1.6,3.2H101L95.3,49.4 M109.6,60c0.1-0.3,0.3-0.4,0.6-0.4l0.1,0
		c0.8,0.3,1.6,0.8,2.2,1.5l1.1,1.5c0.3,0.6,0.5,1,0.4,1.2l-0.2,0.2l-2.2-2.2c-0.4-0.3-0.9-0.6-1.5-1l-0.2-0.1
		C109.6,60.5,109.5,60.3,109.6,60 M109.8,63.4c0.1-0.3,0.2-0.4,0.4-0.4h0.2l1.1,0.8c0.4,0.5,0.6,1,0.6,1.4c0,0.4-0.1,0.6-0.5,0.6
		c-0.3,0-0.5-0.2-0.5-0.4c0-0.3-0.2-0.6-0.6-1l-0.7-0.5h0C109.7,63.9,109.7,63.7,109.8,63.4 M94.6,58c0-0.8,0.2-1.5,0.5-2.1
		c0.3-0.6,0.7-0.8,1.2-0.8s0.8,0.3,1.1,0.9c0.3,0.6,0.5,1.3,0.5,2.2c0,0.8-0.2,1.5-0.5,2.1c-0.3,0.6-0.7,0.9-1.2,0.9
		c-0.5,0-0.8-0.3-1.2-0.9C94.7,59.5,94.5,58.8,94.6,58 M87.2,55.2c0.3,0,0.4,0.3,0.2,0.9l-1.8,4.6l-1.9,3.5c-0.3,0.5-0.2,1,0.2,1.5
		l1.6,2.2l0.2,0.6l-0.4,0.4l-1,0.2c-0.4,0-0.8-0.2-1.2-0.6l-2-2.9l-0.2-0.7l0.2-0.7l3.5-4.6l1.8-3.6C86.5,55.5,86.8,55.2,87.2,55.2
		 M83.7,73.9l1.2,0c2-0.2,5-1.1,9-2.6l0.7-0.4c0.2-0.3,0.3-0.5,0.2-0.8l-0.6-1.4c-0.1-0.3-0.1-0.5,0.1-0.5l0.3,0.2l4.4,3.1l0.5,0.6
		c0.1,0.3,0.2,0.5,0.1,0.8l-0.8,3.9l-0.3,0.4l-0.4-0.2v-2c-0.2-0.3-0.5-0.5-0.9-0.5l-0.3,0.1L93,77.1c-3,1.7-5.4,2.5-7.2,2.5h-0.1
		c-1.8,0-3.8-0.6-6.1-1.7l-2.8-1.6h-0.2c-0.4,0-0.6,0.2-0.6,0.6v0.4l-0.2,0.5l-0.3-0.4l-1.9-2.9l-0.2-0.7l0.3-0.7l1.6-2
		c0.1-0.2,0.2-0.2,0.3-0.2l0.2,0.4l0,0.6c0,0.3,0.1,0.5,0.2,0.7l0.6,0.3L83.7,73.9 M85.3,82.7l-1.2-0.1l-1.5-0.8l-0.3-0.4l0.5-0.2
		l3.7-0.4l0.2-0.1c0.5,0,0.8,0.2,1,0.7c0.1,0.2,0,0.5-0.2,0.7l-0.7,0.4L85.3,82.7 M80.2,48.6l0.2,0.8c0.1,0.3,0,0.6-0.2,0.8
		c-0.2,0.2-0.4,0.4-0.8,0.4l-3.6,0.1l-0.4-0.1c0-0.1,0.1-0.2,0.3-0.4l3.4-2.1l0.4-0.2C79.9,47.9,80.2,48.1,80.2,48.6 M77.5,55.1
		L77.5,55.1c0.5,0,0.8,0.3,1.2,0.9c0.3,0.6,0.4,1.3,0.4,2.1c0,0.8-0.2,1.5-0.5,2.1c-0.3,0.6-0.7,0.9-1.2,0.8h-0.1
		c-0.5,0-0.8-0.3-1.2-0.9c-0.3-0.6-0.4-1.3-0.3-2.1c0-0.8,0.2-1.5,0.5-2.1C76.7,55.4,77.1,55.2,77.5,55.1 M95.4,71.9l-1.1,0.2
		c-3.7,1.5-6.7,2.4-9,2.6l-1.2,0.1l-7.4-0.9h-0.1c-0.7,0-0.9,0.2-0.8,0.8c0.2,0.6,0.4,0.9,0.8,0.9l5.4,1.9l2.8,0.3l4.4-0.6
		c1.2-0.4,3.5-1.5,6.8-3.2l0.7-0.6c0.2-0.4,0.1-0.7-0.3-1C96.2,72.1,95.8,71.9,95.4,71.9 M95.8,26.2l-0.2,0.1
		c-0.7,0.1-1.9,1.3-3.4,3.8l-1.5,2.1c-0.3,0.3-0.7,0.4-1.2,0.4l-3.9-0.8l-1,0.1c-1,0.3-2.9,1.9-5.5,4.9c-1.1,1.3-2.4,1.9-3.9,1.9
		c-1,0-1.9-0.4-2.8-1.1c-0.7-0.6-1-1.4-0.9-2.5c-0.8,0.8-1.3,1.6-1.7,2.6c-0.4,1.3-0.5,2.7-0.2,4.4c0.4,1.7,1.2,3,2.2,4.1
		c0.6,0.6,1.2,0.9,2,0.8c1.1,0,2.3-0.5,3.6-1.5l2.1-2.7c1.3-1.7,2.3-2.7,2.9-3c0.8-0.5,1.5-0.7,2.1-0.7l1.1,0.2l2.4,1.2l0.5,0.2
		c0.4,0,0.8-0.2,1.4-0.6l4.8-2.9l0.8-0.2c1,0,2.4,0.9,4.1,2.8c1.8,1.9,2.7,2.9,2.9,2.9h0.3c0.5,0,1.4-0.3,2.7-0.9
		c1.4-0.6,2.4-1,3.1-1.1l0.9,0c1.6,0,2.8,0.6,3.8,1.7c0.6,0.8,1,1.8,1.2,2.9c0.1,0.8-0.3,1.8-1.1,2.9c-0.7,0.9-1.5,1.6-2.5,2.3
		l3.5,2.9c1.8,1.7,2.9,3.8,3.5,6.3c0.6-1.6,1.1-3.4,1.4-5.5c0.7-4.2,0.5-7.6-0.7-10.2c-0.6-1.5-1.4-2.8-2.4-4.1
		c-1.3-1.8-2.5-2.9-3.6-3.4l-2.7-3.2c-1.4-1.9-3-2.9-4.8-3.1c-1.1-0.1-2.4-0.5-3.9-1c-0.4-0.2-0.9-0.4-1.4-0.8L99,27.6
		C97.8,26.7,96.7,26.2,95.8,26.2 M168.6,185.9l0.2-3.3c0.1-1.6-0.2-2.6-0.7-3c-1-0.8-2-0.8-3.1,0c-1,0.7-1.6,1.6-2,2.8l-0.2,0.1
		l-10.2-2.5c-0.5-0.1-0.8,0.1-0.8,0.6l0.2,1.6c0.1,0.6,0.1,0.8-0.2,0.7c-0.2-0.1-0.4-0.3-0.5-0.8c-0.7-2.4-1.3-6.1-1.8-11.4
		l-0.7-0.7c-1.2-1.1-1.9-2.6-2.2-4.5c-0.1-0.4-0.2-2.8-0.3-7.1c-0.1-3.2,0.4-10.1,1.8-20.8c0.9-7.3,1.8-14,2.7-20.2
		c-0.5,0-0.9-0.1-1.2-0.3c-0.8-0.5-1.1-1.8-0.7-4.1l-0.3-0.3c-0.8-1.4-1.3-3.2-1.4-5.4c-0.3-4.3,1.2-8.3,4.4-12l-0.6-0.9
		c-0.2-0.5-0.2-1.2-0.1-1.9c-2.6,1.3-5.6,2-9.2,2.1l0.8,8.6l-0.2,0.6c-0.1,0.2-0.3,0.3-0.6,0.3h-6.4l-6.8,9.2l0.3,0
		c0.4-0.1,0.7,0,0.9,0.3c0.2,0.3,0.2,0.7,0,1.1l-2.1,3.7c-0.6,1.2-0.9,2-0.8,2.4l1.5-0.6c0.4-0.2,0.8-0.2,1.1,0.2
		c0.3,0.4,0.3,0.7,0,1.1c-1.5,1.8-2.7,3.5-3.6,5.2c-0.9,1.5-1.2,2.5-1,2.8l0.7,0.1c0.3,0,0.5,0.1,0.7,0.3c0.2,0.2,0.3,0.5,0.1,0.8
		l-1.6,9.9c-0.7,7.3,0,13,2,17l2.1,2.4l0.2,3.3c-0.9-0.5-1.8-1.5-2.7-2.9c-0.5,6.7-1.1,12.7-2,17.8c-1.1,6.4-2.5,12.2-4.4,17.2h-0.1
		l-0.6,2.1c-0.2,0.4-0.5,0.6-0.9,0.5c-0.5-0.1-0.7-0.4-0.7-0.9l-0.3-5.4c-0.5-4.3-1.5-8.2-3-11.7c-1.1-2.6-2.4-4.1-3.9-4.5
		c-0.8-0.2-1.6-0.1-2.5,0.3l-1,0.6l-0.1,0.1c-2.4,1.7-3.5,3.4-3.2,4.9h0.5c1.5,0.3,3,1.6,4.7,3.8c1.9,1.8,3.3,3.8,4.2,6.1
		c0.9,2.3,1.6,5.5,2,9.6l0.3,5.9h-1.7l-0.3-5.6c-0.4-4.1-1-7.2-1.9-9.4l-0.1-0.1v0.2c-0.1,0.6-0.4,1.1-0.8,1.3l-1.6,0.2
		c-1-0.2-2.1-0.9-3.4-2.2c0.1,0.9,0.1,1.6-0.2,2.2c-0.2,0.5-0.5,0.9-1,1.1h-1.5l-1-0.5c0.1,0.6,0.1,1.1,0,1.4
		c-0.1,0.5-0.3,0.8-0.6,0.8l-1.1,0.2l-0.3-0.2l2,4.2c2.3,4.8,4,8.2,5.2,10.4c2.2,3.7,3.9,5.9,5.3,6.4c1.7,0.7,3.6-0.3,5.7-3l5.6-8.8
		c2.3-4,4-7.8,5.1-11.6c1.4-4.2,2.8-9.3,4.2-15.3l2.4-11.6l-1.9-10.3c0-0.4,0.2-0.6,0.8-0.8c0.6-0.1,0.9,0,1,0.4
		c1.7,9.1,3.1,16.1,4.4,21.1c0.8,2.9,1.6,5,2.4,6.4c1.3,2.1,3.1,3.5,5.4,4.4l9.6,0.2l0.1-0.2c0-0.2,0.2-0.1,0.4,0.2l5.2-1.6
		c0.5-0.2,0.8,0,0.9,0.4c0.1,0.4-0.1,0.6-0.6,0.8l-5,1.6v0.4c-0.8,4.5-2.8,8.9-6.2,13.2c1.5-0.2,2.8,0.1,3.9,0.7
		c1.3,0.6,2.3,1.6,3.1,2.9c0.3,1.5,0.3,2.1,0,1.8c-1.7-2.2-4.8-3-9.1-2.4c-3.3,0.5-6.5,1.6-9.6,3.2c-1.5,0.8-2.5,1.8-3.1,3
		c-0.6,1.3-0.9,2.4-0.9,3.2c0.1,1.2,0.9,1.6,2.4,1.2c1.4-0.4,2.3-1.4,2.9-3l0.3-1.6c0.1-0.3,0.3-0.2,0.6,0.4l0.2,1.2l-0.4,1.6
		c-0.2,1.4,0.3,2.3,1.5,2.7c1.9,0.5,3.3,0,4.2-1.7l0.9-2.5c0.5-1.4,0.9-2.1,1.3-2c0.2,0,0.4,0.3,0.5,0.9c0.2,0.5,0.2,0.9,0,1.1
		c-1.7,2.7-1.5,4.2,0.7,4.6l4.2,0.3c1.7-0.1,3.1-0.4,4-0.9c1-0.6,1.9-1.7,2.7-3.2l1.4-3.9c0.7-2.2,1.4-4.4,1.9-6.8
		C167.4,196.9,168.3,190.8,168.6,185.9 M142.6,115.6c0.6,0.6,1.4,1.9,2.3,3.9c1.3,3,1.8,5.6,1.5,8c-2.6-4.9-4.3-8.3-5-10.2
		c-0.4-1.1-0.3-1.8,0.2-1.9L142.6,115.6 M165.4,151.1c-0.7-0.4-1.4-0.6-2.2-0.5c-0.5,0.4-1,1-1.4,1.8l-1.3,4.4l-0.4,0.6l-0.6,0.1
		l-0.6-0.3c-0.1-0.2-0.2-0.4-0.1-0.6c0.2-1.8,0.7-3.4,1.4-4.8l0.5-1.5c-0.2-1-0.5-1.6-1-1.9c-0.5-0.2-1.3-0.1-2.2,0.3
		c-0.5,2.1-0.8,4.1-0.9,6.1c-0.2,2.4-0.1,4.2,0.4,5.4l0.9,1c1,0.6,2.4,0.4,4.2-0.6l1.1-0.7l0.7-0.1c0.2,0,0.4,0.2,0.6,0.4l0.1,0.7
		l-0.3,0.6l-1.1,0.7c-2.7,1.6-4.8,1.8-6.2,0.8c-0.6-0.4-1.1-1.1-1.4-1.9c-1.5-2.7-1.4-8,0.4-15.8c2.3-10,4.4-20.2,6.3-30.6
		c-3,2.9-5.4,4.1-7,3.5c-0.6-0.2-0.9-0.6-1.1-1.2c-0.1-0.3-0.2-0.9-0.1-1.6l-1.2,1.1c-3.2,23-4.8,36.9-4.6,41.8l0.3,5.3
		c0.3,2.4,0.9,4.2,1.7,5.2c1.7,2.1,4.5,3,8.4,2.9c1,0,2.1-0.4,3.2-1.2c1.1-0.7,2.1-1.7,3.1-2.9c1.3-1.8,2.3-3.7,2.9-5.9
		c0.6-2.1,0.7-4,0.3-5.8C167.4,153.5,166.6,151.9,165.4,151.1 M163.4,141.9c-0.3-0.1-0.5-0.4-0.5-0.7c0-0.3,0.1-0.6,0.3-0.8
		c0.5-0.4,0.8-1,0.8-1.8c0-0.7-0.1-1.5-0.4-2.4l-1.1,2.1c-0.2,0.2-0.4,0.4-0.8,0.4c-0.3-0.1-0.6-0.2-0.8-0.5l-1.2-2.4l-2.3,10.8
		c1.1-0.4,2.1-0.4,3.1-0.1c0.9,0.4,1.5,1.3,1.9,2.5l0.2-0.2l0.2-0.1l1.1-0.1c0.9,0,1.7,0.3,2.4,0.8l1.1,0.8c0.6-0.4,1-1.2,1.3-2.5
		c-1-0.1-1.9-0.7-2.6-1.8c-0.2-0.2-0.2-0.5-0.1-0.8c0.1-0.3,0.3-0.5,0.6-0.6c0.5-0.2,0.8-0.5,1-0.9c0.2-0.5,0.2-1.2-0.1-2.1
		l-0.9,0.5C165.5,142.6,164.4,142.5,163.4,141.9 M171.9,105.6c-1.1,2.3-2.8,3.5-5,3.6l-2.5,3l-2,11.2c3.4-1.4,6.1-3.8,7.9-7.2
		c1.4-2.6,2.1-5,2.1-7.2L171.9,105.6 M168.2,96.9c-1.7-1.7-3.5-3.1-5.3-4.1c-2.2-1.3-3.7-1.6-4.5-1.1c-4.7,3.1-7.7,6.7-9,10.6
		c-0.8,2.6-0.8,5.1,0,7.6l1.6-3.7c0.7-1.9,1.8-4.3,3.1-7.1l0.5-0.4c0.2-0.1,0.5-0.1,0.7,0c0.5,0.3,0.6,0.7,0.4,1.2l-2.8,6.2
		c-1,2.5-1.7,4.6-2.2,6.3c-0.4,1.8-0.5,2.8-0.2,3.2h0.3c1.1-0.3,2.6-2.2,4.6-5.5c1.3-2.9,2.8-5.9,4.6-8.9l0.6-0.4l0.6,0.1
		c0.5,0.3,0.6,0.6,0.4,1.1c-1.2,2.9-2.7,5.8-4.6,8.9c-1.2,2.8-1.6,4.7-1.4,5.5l0.1,0.1c0.5,0.2,1.5-0.2,2.9-1.1l4.1-3.9l0.1-0.1h0.1
		l2.9-3.4c0.2-0.2,0.4-0.4,0.7-0.4c1.5,0,2.7-0.7,3.6-2.1c0.4-0.7,0.7-1.4,0.9-2.2l0.3,0.1l-1.6-3.9L168.2,96.9 M178.4,38.9l0.2,0.7
		l-0.8,8l-0.2,0.4l-1.1,8.8c-0.4,2.8-0.4,4.5-0.2,4.9c1,0.2,3-1.2,6.1-4.2c3.5-3.4,5.9-6.9,7.4-10.6c-1.3-2.9-2.8-5.5-4.6-8
		c-2.4-3.4-4.5-5.1-6.4-5.3c-1.9-0.2-5.8,2.2-11.8,7.2c-5.5,4.7-10.6,9.6-15.2,14.9c-0.3,0.3-0.6,0.3-0.9,0.2l-5.3-1.5l-0.5-0.4
		l-0.1-0.6l0.8-12.4c0.3-8.9,0.1-15.2-0.7-19.1c-3.6-1.6-7-3.1-10.2-4.2c-4-1.4-6.7-2.1-8.2-2c-2,3.6-3.7,7.2-4.9,10.6
		c-1.5,4.3-1.9,7.1-1.2,8.4l0.9,0.7c2-3.5,4.1-6.1,6.3-8c3.7-3,8.3-4.7,13.9-4.9c0.5-0.1,0.8,0.2,0.9,0.7c0.1,0.5-0.1,0.9-0.6,1.1
		l-8.9,2.9l3.9,9.1c1.9,5.4,2.6,10.7,2.3,15.9c0,0.3-0.1,0.5-0.4,0.7l-0.8,0.1c-2.4-1.1-4.2-1.8-5.4-1.9c0.3,0.8,0.8,1.7,1.5,2.7
		c0.2,0.3,0.2,0.6,0,1c-0.2,0.3-0.5,0.4-0.8,0.4l-4.4-0.4c-1.4-0.1-2.4-0.1-3,0.1c0.9,0.6,2.2,1.1,3.9,1.6l0.6,0.6
		c0.1,0.2,0.1,0.5-0.1,0.8l-2.8,5.4c1-1.2,2-1.7,3.1-1.8c1.5,0,2.8,1,3.8,2.9c1,2,1.5,4.3,1.5,7.1s-0.5,5.2-1.5,7.2
		c-1,1.9-2.3,2.9-3.8,2.9c-1.5,0-2.7-1-3.8-2.9c-1-2-1.6-4.4-1.6-7.2c0-1.2,0.1-2.3,0.3-3.6c-2.5,7.1-3,12.7-1.5,16.9l0.8,0.1
		c0.6-0.8,1.1-1.3,1.4-1.5c0.6-0.5,1.4-0.8,2.4-0.9l3.7,0.1c1.1,0.3,2.1,0.7,2.8,1.3c0.6-0.2,1.6-0.4,2.9-0.5c1.3-0.1,2.4-0.1,3.2,0
		c2.4,0.3,4.1,1.1,5.3,2.4l9.1-1.4c1.5-3.9,1.5-8.8,0.1-14.8l-2.6-8.1l-0.1-0.6l0.3-0.5l20.9-12.3c0.1-0.9,0.4-2.4,1-4.4l1.1-4.3
		c0-0.2,0.1-0.4,0.3-0.5l0.7-0.2C178,38.7,178.2,38.8,178.4,38.9 M146.9,64.4c1.1,2.1,1.7,4.7,1.7,7.7c0,3.1-0.6,5.6-1.7,7.7
		c-1.1,2.1-2.5,3.1-4.1,3.1c-1.6,0-3-1-4.1-3.1c-1.1-2.1-1.7-4.6-1.7-7.7c0-3,0.6-5.6,1.7-7.7c1.1-2.1,2.5-3.2,4.1-3.2
		C144.5,61.2,145.8,62.2,146.9,64.4 M139,70.2l-0.1,1.8l0.2,2.7c0-1.1,0.2-2.1,0.6-2.9c0.4-0.8,0.8-1.2,1.3-1.2c0.5,0,1,0.4,1.4,1.2
		c0.4,0.8,0.6,1.8,0.6,2.9c0,1.2-0.2,2.1-0.6,3c-0.4,0.8-0.9,1.2-1.4,1.2c-0.2,0-0.4-0.1-0.7-0.3c0.8,1.5,1.7,2.3,2.6,2.3
		c1,0,1.8-0.8,2.6-2.5c0.9-1.7,1.3-3.8,1.3-6.2c-1.9-2.2-3.8-3.2-5.4-3.1C140.5,69.3,139.7,69.6,139,70.2 M145.2,64.9
		c-0.7-1.2-1.5-1.9-2.3-1.9c-0.7,0-1.4,0.4-2,1.3c-0.7,0.9-1.2,2.1-1.5,3.6c0.6-0.3,1.2-0.4,1.9-0.4c1.7-0.1,3.6,0.7,5.4,2.4
		C146.5,67.8,146,66.1,145.2,64.9z"/>
</g>
</svg>
