<?xml version="1.0" encoding="utf-8"?>
<!-- Generator: Adobe Illustrator 25.4.1, SVG Export Plug-In . SVG Version: 6.00 Build 0)  -->
<svg version="1.1" id="AnimalFriend_x2C_PerkClip_x5F_1e67f" image-rendering="auto"
	 xmlns="http://www.w3.org/2000/svg" xmlns:xlink="http://www.w3.org/1999/xlink" x="0px" y="0px" viewBox="0 0 240 240"
	 style="enable-background:new 0 0 240 240;" xml:space="preserve">
<style type="text/css">
	.st0{fill:#FFFFFF;}
</style>
<g>
	<rect width="240" height="240"/>
	<path class="st0" d="M103.2,208.6c0-0.8-0.2-1.6-0.5-2.4l-1.1-2.1c-2.3,2.7-5,4.5-8,5.4c-3.3,1-6.5,0.7-9.5-0.9
		c-2.1,1.4-4.5,3.2-7.1,5.4c-3.6,3.2-4.8,5.1-3.6,5.7c3,1.6,7.6,1.2,13.7-1.1c1.8-0.7,3.4-1.7,5-3.1l4.2-4.2
		c0.2-0.2,0.4,0.1,0.6,0.8c-0.1-0.2,0-0.2,0.2-0.1l0.5,0.4l1.8-0.1C102,211.4,103.2,210.2,103.2,208.6 M128.9,183.4
		c-0.7-0.7-2-1.6-3.9-2.6c0.3,4.7-0.1,8.6-1.2,11.8c-1.5,4.5-4.3,6.2-8.2,5c-0.5,2.6-0.5,5.2,0,7.6v0.1c3.1-0.9,5.9-1,8.4-0.4
		C127.4,199.6,129,192.5,128.9,183.4 M78.1,142c-1.3-0.7-2.3-1.4-2.9-2.1c-1,6.6-1.1,13.9-0.4,22.1c0.5,6,1.7,13.3,3.4,21.8
		c1.9,9,3.8,16.6,5.8,22.8c2.9,1.5,6,1.8,9.3,0.7c3-0.9,5.6-2.7,7.8-5.4l0.6-3.3c0.7-4.1,1-7.6,1-10.4c-2.2-2.4-3.9-4.9-5.3-7.4
		c-2.3-4.1-4.2-8.9-5.6-14.3c-1.3-4.8-2.1-9.9-2.5-15.2c0-0.6,0.1-0.7,0.3-0.2l0.5,1.1c0.2,3,0.7,6.2,1.5,9.6
		c0.9,4.2,1.8,7.7,2.8,10.5c1.3,3.8,2.8,7,4.7,9.6c2,2.9,4.3,5.5,7,7.9c2.8,2.4,5.8,4.3,8.9,5.8c3.9,1.2,6.6-0.5,8.1-5
		c1-3.1,1.4-6.9,1.1-11.4l-0.1-1.1c-0.3-2.6-0.6-4.8-1.1-6.6c-0.6-2.4-1.5-4.4-2.6-6l-0.2-0.4l-1.2,3.2c-1.9,4.2-4.4,7.1-7.6,8.9
		c-0.2,0.1-0.4-0.2-0.6-0.8c-0.2-0.7-0.2-1.1,0-1.2c3.8-2.5,6.6-6.3,8.5-11.3l0.2-0.7l0.2-0.2c2.2-6.5,2.8-14.4,1.9-23.7
		c-0.4,0.5-1.5,1.4-3.2,2.5c-5.2,3.3-11.7,5.1-19.5,5.4c-6.6,0.3-12.6-1-17.9-3.8L78.1,142 M73.7,92.1c-0.7,0.8-1.2,1.5-1.4,2.1
		c-1.3,3.1-1.9,6.5-1.6,10.2c0.1,1.8,0.7,5.2,1.8,10.3l2.5,11.5c0.2,1.6,0.3,3.3,0.3,5.1l2,0.4c0.2-0.6,0.3-2.8,0.2-6.6
		c-0.1-6.8,0.1-12.2,0.4-16c0.1-1.6,0.8-4.3,1.9-8.1c1-3.3,1.4-5.3,1.3-5.9c-2.9-1.3-4.8-2.9-5.8-4.8L73.7,92.1 M69.6,45.5
		c-0.2,0.7-0.3,1.5-0.1,2.4c0.1,0.6,0.5,1.7,1.3,3.1c0.8-1.7,1.6-3.4,2.5-4.9c-0.7-0.2-1.4-0.6-2.1-1.2c-0.2-0.2-0.4-0.4-0.7-0.4
		C70,44.4,69.8,44.8,69.6,45.5 M148.1,86.4v0.1l-0.2,0.8l3.8,0.3l1.5-1.2H148.1 M154.8,84.6l0.8-1.3l-8,1.2l0.4,1.1h5.9L154.8,84.6
		 M139.6,89.9c-1.2-0.2-2.3-0.7-3.3-1.2l-0.1,11.6l4.3-0.2L139.6,89.9 M141.4,90.1l0,0.4c3.5-0.2,6.5-0.9,8.9-2.1l-3-0.2l-0.7,0.6
		C145.4,89.8,143.7,90.2,141.4,90.1 M130.9,89.1l-3.9,9.7l5.7,0.8l1.7-11.2l-2.6,0.7L130.9,89.1 M135,86.1l-2.6-2.1
		c-1.8-1.4-2.8-2-3.2-1.9c-1.1,0.1-1.8,0.5-2.3,1.2l2.2,0.6l-0.2,0.9l-2.5-0.6l-0.1,0.1l-0.2,0.4l4.2,0.8l-0.1,0.8l-4.2-0.8l0.1,0.2
		l0.9,0.9c1.1,0.7,2.7,1,4.7,0.8C132.8,87.1,134,86.7,135,86.1 M138.3,84.6c-1.5,1.1-2.2,1.6-2.2,1.7c0.9,1.1,2.4,1.8,4.5,2.1
		l3.9-0.4l-3.2-0.3l0.1-0.8l4.4,0.4l0.4-0.8h-4.2v-0.8h4.1l-0.2-0.5l-0.3-0.4l-3.4,0.6l-0.1-0.9l2.5-0.4c-0.8-0.5-1.9-0.9-3.2-1.1
		C140.9,82.9,139.9,83.5,138.3,84.6 M128.9,62.1c-0.6,0.8-1.1,1.9-1.4,3.3l1.7-0.4c1.7,0,3.3,0.7,5.1,2.2c-0.2-1.8-0.6-3.4-1.4-4.6
		c-0.7-1.2-1.4-1.7-2.2-1.8C130.2,60.9,129.6,61.3,128.9,62.1 M129.4,66.6c-0.8,0-1.5,0.4-2.2,1l-0.1,1.7l0.2,2.5
		c0-1.1,0.2-1.9,0.6-2.7c0.3-0.7,0.7-1.1,1.2-1.1c0.5,0,0.9,0.4,1.3,1.1c0.3,0.7,0.5,1.7,0.5,2.8s-0.2,2-0.5,2.8
		c-0.4,0.8-0.8,1.2-1.3,1.2c-0.2,0-0.5-0.1-0.7-0.3c0.7,1.4,1.5,2.1,2.4,2.1c0.9,0,1.7-0.8,2.4-2.2c0.8-1.6,1.2-3.6,1.2-5.8
		C132.6,67.6,130.9,66.6,129.4,66.6 M111.2,91.9c-1.7,2.2-4,3.9-6.9,5.2c-2.7,1.2-5.2,1.7-7.7,1.6c-0.3,0-0.6,0.3-1,1.1
		c-1.5,2.9-2.4,9.1-2.8,18.7c-0.4,9.1-0.2,14.5,0.6,16.4c3.7,0.4,8.5-0.2,14.6-2.1c5.9-1.8,10-3.7,12.4-5.8l0.2,0.3
		c0.3-4.6,0.9-9.4,2-14.4l-6.2,1.3l-1.6-0.9l11.9-3.5l5.8-8.5l-7-0.9l-0.7-0.4c-0.1-0.2-0.1-0.5,0-0.8l3.6-9.1l-0.2-0.2h-0.2
		c-1.2-1-2.8-1.9-4.8-2.7l-9.5-3.2C114,87,113.1,89.6,111.2,91.9 M87.8,92.6c-1.6-0.8-2.8-2.1-3.5-3.7c-1.6-0.5-3.2-1.3-4.8-2.2
		l-0.1,0.2l-2.5,2.2c0.6,1.7,2.4,3.3,5.4,4.6l0.1,0.1c0.5,0.3,0.7,1.1,0.6,2.3l-1.3,5.4c-1.1,3.7-1.8,6.3-1.9,7.8
		c-0.3,3.8-0.5,9-0.4,15.8v5.8c-0.1,1.2-0.3,2-0.8,2.3c-0.2,0.2-0.5,0.4-0.8,0.4h-0.1l-2.3-0.5l-0.2,4.8c4.4,3.8,9.8,6.1,16.3,7
		c5.9,0.8,11.9,0.3,17.9-1.4c4.8-1.4,8.3-3.2,10.6-5.4l1.1-1c0.1-0.2,0.1-0.7,0-1.4c-0.2-1.1-0.3-2.1-0.3-3v-3.6
		c-2.6,1.9-6.5,3.6-11.5,5.2c-5.1,1.6-9.7,2.3-13.5,2.3l-2.7-0.2c-0.5-0.1-0.9-0.4-1.1-1c-0.4-1.1-0.6-3.2-0.8-6.4
		c-0.2-4.5-0.1-9.2,0.2-14C92,103,93.8,97,96.7,96.9h0.2c2.2,0,4.4-0.5,6.8-1.6c2.6-1.2,4.7-2.7,6.2-4.6c1.8-2.2,2.5-4.6,2.2-7.2
		l-4.1-1.1c-0.4,3.2-2.1,5.9-5.3,8.1c-3,2.1-6.2,3.2-9.7,3.2C91,93.8,89.3,93.4,87.8,92.6 M84.2,38.4l-0.9,0.2
		c-0.4,0.2-1.3,1.2-2.7,2.9l-2.2,2.8c-1.2,1-2.3,1.6-3.4,1.8c-2.3,3.8-3.8,7.6-4.7,11.4c-1.2,6.1-0.5,12,2,17.7
		c2.6,6,6.7,10.2,12.1,12.6c3,1.3,5.7,2,8.2,2l2.9-0.2l0.2,0.1c0.1,0.2-0.5,0.6-1.8,1l-2.9,0.6h-0.2c0.7,0.4,1.6,0.7,2.7,0.7
		c2.5,0,5-0.8,7.6-2.5c2.8-1.8,4.3-3.8,4.6-5.9c-1.7,1.1-3.1,1.7-4.3,1.7c-0.3,0-0.5-0.1-0.6-0.2c0-0.2,0.1-0.4,0.5-0.7
		c3.8-2.5,7.1-6.1,9.8-10.9l0.7,0.1c2.5,0,4.2-1.2,5.2-3.6c1-2.4,0.4-4.4-1.7-5.9l-0.2-0.7l1.5,0.4c-0.1-0.3-0.1-0.6,0-0.9v-0.1
		c-1.6-2.5-3-4.3-4.3-5.6l-2.2-1.6c-0.4-0.2-0.6-0.5-0.6-0.9c0-0.3,0.2-0.4,0.4-0.4l0.2,0.1c0.8,0.3,1.8,1,3,2.1
		c1.4,1.3,2.6,3.2,3.8,5.7l0.2-1.1c-1.5-3-3-5.1-4.2-6.4l-3.4-3c-0.3-0.1-0.4-0.3-0.2-0.5c0.1-0.2,0.2-0.4,0.5-0.4l0.4,0.1
		c0.7,0.3,1.8,1.3,3.5,3.1c1.4,1.6,2.5,3.5,3.5,5.8c0-2.8-1.1-5.3-3.4-7.5c-0.9-0.9-2.2-1.9-4.2-3c-0.4-0.2-0.5-0.5-0.3-0.8l0.4-0.4
		c2.4-1.3,3.3-2.9,2.7-4.8c-0.6-1.7-1.7-2.6-3.3-2.6h-0.3c-1.7,0.2-3,0.5-3.8,0.8l-2.4,0.6c-0.8,0-1.4-0.3-2-1
		c-1.6-1.9-3.5-2.8-5.5-2.8c-0.8,0-1.5,0.2-2.2,0.5c-1.5,0.8-2.8,1.2-3.8,1.2c-0.6,0-1.2-0.1-1.7-0.4C86.1,38.8,85.1,38.4,84.2,38.4
		 M95.7,46.1l0.7-0.9c0.2-0.3,0.4-0.4,0.7-0.4l0.4,0.1l2,1.9c1.2,1.4,1.8,2.4,1.6,3.2h-0.1l-5.7-2.8C95.1,47.1,95.2,46.7,95.7,46.1
		 M113.5,60.5c0.3,0.6,0.5,1,0.4,1.2l-0.1,0.2l-2.2-2.1l-1.7-1.1c-0.4-0.2-0.5-0.5-0.4-0.8c0.1-0.3,0.3-0.4,0.5-0.4l0.1,0.1
		c0.8,0.3,1.6,0.8,2.2,1.5L113.5,60.5 M109.8,61.9c-0.2-0.1-0.2-0.3-0.2-0.6c0.1-0.3,0.2-0.4,0.5-0.4l0.2,0c0.4,0.3,0.8,0.6,1,0.9
		c0.4,0.4,0.7,0.9,0.7,1.3c0,0.5-0.1,0.7-0.5,0.8c-0.3,0-0.5-0.2-0.6-0.5c0-0.3-0.2-0.6-0.6-1L109.8,61.9 M96.2,52.9
		c0.4,0,0.8,0.3,1.1,0.9c0.3,0.6,0.5,1.4,0.4,2.2c0,0.8-0.2,1.5-0.5,2.1c-0.3,0.6-0.7,0.9-1.2,0.9c-0.5,0-0.8-0.3-1.2-0.9
		c-0.3-0.6-0.4-1.3-0.4-2.1c0-0.8,0.2-1.6,0.6-2.2C95.4,53.2,95.8,52.9,96.2,52.9L96.2,52.9 M84.5,57.4l1.8-3.6
		c0.2-0.5,0.5-0.8,0.8-0.8v0.1l0.2,0.3l0,0.7c-0.4,1.6-1,3.1-1.8,4.4l-1.9,3.6c-0.3,0.5-0.2,0.9,0.1,1.4l1.7,2.2
		c0.1,0.2,0.2,0.4,0.2,0.6l-0.5,0.3l-1,0.2c-0.4,0-0.8-0.2-1.2-0.5l-2-2.9c-0.3-0.5-0.3-1,0.1-1.4L84.5,57.4 M83.6,71.7l1.2-0.1
		c2-0.2,5-1.1,9.1-2.6l0.7-0.4c0.2-0.3,0.3-0.5,0.2-0.7l-0.6-1.4c-0.1-0.3-0.1-0.5,0.1-0.5l0.3,0.1l4.5,3.2c0.5,0.3,0.7,0.7,0.6,1.3
		l-0.8,4L98.5,75l-0.3-0.2v-2c-0.2-0.3-0.6-0.5-1-0.5l-0.3,0.1l-3.9,2.5c-3,1.7-5.4,2.6-7.2,2.6h-0.1c-1.8,0-3.8-0.6-6-1.6l-2.8-1.7
		l-0.2,0c-0.4,0-0.6,0.2-0.6,0.6v0.4l-0.2,0.4l-0.3-0.2l-1.9-3l-0.2-0.7l0.3-0.7l1.7-2c0.1-0.1,0.2-0.2,0.3-0.2
		c0.1,0,0.2,0.2,0.2,0.4l-0.1,0.6c0,0.2,0.1,0.4,0.2,0.6l0.6,0.4L83.6,71.7 M86.7,78.6c0.5,0,0.8,0.2,0.9,0.7c0.1,0.2,0,0.5-0.2,0.6
		l-0.6,0.4l-1.5,0.2l-1.2-0.2l-1.5-0.8l-0.3-0.4l0.4-0.1l3.7-0.4L86.7,78.6 M75.3,48.4c0-0.1,0.1-0.2,0.3-0.4l3.4-2.1l0.5-0.1
		c0.3,0,0.5,0.2,0.6,0.6l0.2,0.9c0.1,0.3,0,0.6-0.2,0.8c-0.2,0.2-0.4,0.3-0.8,0.3l-3.6,0.2L75.3,48.4 M77.4,52.9
		c0.5,0,0.8,0.4,1.2,0.9c0.3,0.6,0.4,1.3,0.4,2.2c0,0.8-0.2,1.5-0.5,2.1c-0.3,0.6-0.7,0.9-1.2,0.9h0c-0.5,0-0.8-0.4-1.2-0.9
		c-0.3-0.6-0.4-1.3-0.3-2.1c0-0.8,0.2-1.5,0.5-2.1C76.6,53.2,77,52.9,77.4,52.9 M85.2,72.5l-1.2,0.1l-5-0.4l-2.6-0.5
		c-0.6,0-0.9,0.2-0.8,0.8c0.2,0.6,0.5,0.9,0.8,1l5.5,1.9l2.8,0.3l4.5-0.6c1.2-0.4,3.5-1.5,6.8-3.2l0.7-0.6c0.2-0.4,0.1-0.7-0.3-1.1
		c-0.3-0.3-0.7-0.4-1.1-0.4l-1,0.2C90.6,71.5,87.6,72.3,85.2,72.5 M95.8,24.1h-0.2c-0.7,0.1-1.8,1.4-3.3,3.8L90.6,30
		c-0.3,0.3-0.7,0.5-1.2,0.5l-3.9-0.8l-1.1,0.2c-1,0.3-2.9,1.9-5.5,4.9c-1.1,1.2-2.3,1.9-3.8,1.9c-1.1,0-2-0.3-2.8-1
		c-0.7-0.6-1-1.4-0.9-2.6c-0.8,0.8-1.3,1.6-1.7,2.6c-0.4,1.3-0.5,2.7-0.2,4.4c0.4,1.7,1.2,3.1,2.2,4.1c0.6,0.6,1.2,0.9,2.1,0.9
		c1.1,0,2.3-0.5,3.5-1.6l2.2-2.6c1.3-1.7,2.3-2.8,2.9-3.1c0.8-0.4,1.4-0.6,2-0.6l1.1,0.2l2.5,1.2l0.5,0.1l1.4-0.5l4.8-3l0.8-0.2
		c1,0,2.4,0.9,4.1,2.8c1.8,1.9,2.8,2.9,2.9,3h0.3c0.4,0,1.3-0.3,2.7-0.9c1.4-0.7,2.4-1,3.1-1.1l0.9-0.1c1.6,0,2.8,0.6,3.8,1.7
		c0.6,0.8,1,1.8,1.2,3c0.1,0.8-0.3,1.8-1.2,2.9c-0.7,0.8-1.5,1.6-2.4,2.3l3.5,2.8c1.8,1.8,2.9,3.9,3.4,6.4c0.6-1.6,1.1-3.4,1.4-5.6
		c0.7-4.2,0.5-7.6-0.7-10.2c-0.6-1.4-1.4-2.8-2.3-4.1c-1.3-1.8-2.5-2.9-3.6-3.4l-2.7-3.2c-1.4-1.9-3-2.9-4.8-3.1l-3.9-1
		c-0.4-0.2-0.9-0.4-1.3-0.8l-1.2-1C97.7,24.5,96.7,24.1,95.8,24.1 M166.9,173.2c-0.6-0.6-1.4-0.7-2.3-0.3c-1.5,0.6-2.2,1.9-2.3,3.9
		l-0.1,0.3l-11.1,0.4l0.7,1.8c0.2,1.5,0.2,1.9-0.2,1.4c-0.9-1.5-1.5-3.5-1.9-5.9c-0.2-1.7-0.3-3.8-0.3-6.4l-0.6-0.5
		c-1.2-1.1-1.9-2.7-2.2-4.6c-0.1-0.4-0.2-2.8-0.3-7.1c-0.1-3.2,0.4-10.1,1.8-20.8c0.9-7.1,1.8-13.8,2.7-20.2c-0.5,0-0.9-0.1-1.2-0.3
		c-0.8-0.5-1.1-1.8-0.7-4l-0.4-0.4c-0.8-1.4-1.3-3.2-1.4-5.4c-0.3-4.3,1.2-8.3,4.4-12l-0.6-0.9c-0.2-0.6-0.2-1.2-0.1-1.9
		c-2.5,1.2-5.6,1.9-9.2,2.1l0.8,8.6l-0.2,0.7c-0.1,0.2-0.3,0.3-0.6,0.3l-6.4,0l-6.8,9.2l0.3-0.1c0.4-0.1,0.7,0,1,0.3
		c0.2,0.3,0.2,0.7,0,1l-2.2,3.7c-0.6,1.2-0.9,2-0.8,2.4l1.5-0.6c0.4-0.2,0.8-0.2,1.1,0.2c0.3,0.4,0.3,0.8,0,1.1
		c-1.5,1.8-2.7,3.5-3.6,5.1c-0.9,1.5-1.2,2.5-1,2.8l0.7,0.1c0.3,0,0.5,0.1,0.7,0.3c0.2,0.2,0.3,0.5,0.2,0.8l-1.6,9
		c-0.7,6.7-0.3,12.2,1.2,16.3l0.1,0.7l0.5,0.4c1.9,6.8,3.2,13.9,3.7,21.4c0.5,6,0.5,11,0,15.1c-0.6,5.6-2.2,10.3-4.7,14.2
		c2.3,0.8,4.1,2.3,5.4,4.3c0.1,0.2-0.1,0.4-0.7,0.6l-1-0.1c-2.2-3.7-6.1-5.2-11.5-4.5c-5.3,0.6-8.9,2.9-10.6,6.8
		c-1,2.3-1.2,4-0.8,5.2c0.4,0.9,1,1.6,1.8,2.1c1,0.5,1.8,0.2,2.2-1.1l0.5-2.1c-0.1-1,0-1.9,0.3-2.9c0-0.2,0.3-0.3,0.9-0.4
		c0.5-0.2,0.8-0.1,0.8,0.1l-0.2,3.1c0.2,1.2,0.7,2.1,1.6,2.8c1.4,1,2.5,1.4,3.4,1.1c1-0.3,1.5-1.3,1.5-2.9c-0.2-0.7-0.2-1.4-0.2-2.2
		c0-0.3,0.3-0.5,0.9-0.7c0.5-0.1,0.8-0.1,0.8,0.2l0.2,2.3c0.3,1.3,0.9,2.3,1.7,3c0.9,0.8,2,1.1,3.4,1c2.8-0.2,5-1.4,6.6-3.5
		c1.2-1.6,2.2-3.9,3-7.1c0.5-1.9,1.4-4.6,2.8-8.1c1.4-3.6,2.4-6.3,2.9-8.1l0.7-2.8c0.2-1.2,0.2-2.1-0.2-2.7
		c-0.4-0.7-1.1-0.8-2.1-0.3l-2.1,1.2c-0.4,0.3-0.7,0.5-1,0.6c-0.4,0.3-0.5,0.2-0.5-0.1l0.6-12c-0.1-7.1-1.2-14.9-3.2-23.6
		c0-0.2,0.2-0.3,0.8-0.5l0.9,0.1c1.3,7.4,2.6,13.8,4.1,19.1l1.4,5.1c0.6,2,1.4,3.5,2.3,4.6c3.8,4.6,9.1,5.1,15.8,1.4
		c0-0.5,0.1-0.6,0.4-0.2l3.8-2.4c0.2-0.1,0.5-0.2,1.1-0.2l0.5,0.1c-1.8,1.2-3.5,2.2-5.1,3.1l0.1,0.3c0.5,2.4,0.5,4.8,0.1,7.4
		c-0.4,2.4-1.2,4.8-2.2,7c2.6-0.7,5-0.3,7.3,1.1l0.9,0.6l0.1,0.1c0.2,0.2,0.3,0.6,0.3,1.2c0,0.6,0,0.9-0.1,0.8l-1.3-0.8
		c-2.2-1.1-5.4-0.8-9.4,0.7c-5.2,2-8.4,4.4-9.6,7.2c-0.6,1.5-0.8,2.9-0.6,4.2c0.2,1.6,0.9,2.7,2.2,3.1c1.7,0.5,2.8,0.1,3.4-1.1
		c0.4-0.7,0.6-1.5,0.7-2.4c-0.3-1-0.2-2,0.1-3.1c0.1-0.3,0.3-0.2,0.5,0.3l0.4,1l0.1,1.9c0.4,0.8,1.2,1.2,2.4,1.4
		c1.2,0.2,2.2,0,3-0.4c0.5-0.4,1-0.9,1.4-1.8c0.3-0.7,0.4-1.4,0.5-2.1c-0.3-0.8-0.4-1.5-0.1-2c0.1-0.3,0.2-0.2,0.4,0.1l0.4,0.7
		l0.1,0.6l0.4,0.6l1.5,1l2.9,0.4c0.8-0.1,1.5-0.3,2.1-0.8c1.3-0.8,2.4-1.9,3.2-3.3c0.8-1.4,1.2-2.9,1.2-4.5c0.2-3.3,0-7.7-0.7-13.2
		l-1-7.7c-0.5-2.9-1.2-5.4-1.9-7.5C167.8,174.4,167.4,173.6,166.9,173.2 M142.6,113.3c0.7,0.9,1.5,2.2,2.3,4
		c1.3,2.9,1.8,5.6,1.4,7.9c-2.6-4.9-4.2-8.2-4.9-10.2c-0.4-1.2-0.3-1.8,0.2-1.9L142.6,113.3 M167.9,153.6c-0.5-2.4-1.4-4-2.6-4.8
		c-0.6-0.4-1.3-0.6-2.1-0.4c-0.5,0.3-0.9,0.8-1.4,1.7l-1.3,4.5l-0.4,0.5l-0.6,0.1c-0.6-0.1-0.8-0.4-0.8-0.9c0.2-1.9,0.7-3.5,1.4-4.8
		l0.6-1.6c-0.2-1-0.5-1.6-1.1-1.8c-0.6-0.3-1.3-0.2-2.2,0.3c-0.5,2.1-0.8,4.1-0.9,6.1c-0.2,2.4-0.1,4.2,0.4,5.4l0.8,1.1
		c1,0.6,2.5,0.4,4.2-0.6l1.2-0.6l0.6-0.1l0.6,0.4c0.1,0.2,0.2,0.4,0.1,0.6l-0.3,0.6l-1.1,0.7c-2.7,1.6-4.8,1.8-6.2,0.8
		c-0.6-0.4-1.1-1-1.4-1.8c-1.5-2.7-1.4-8,0.4-15.9c2.3-9.8,4.4-20,6.3-30.5c-3,2.9-5.4,4.1-6.9,3.5c-0.5-0.2-0.9-0.6-1.2-1.2
		c-0.1-0.3-0.2-0.8-0.1-1.6l-1.2,1.1c-3.2,22.8-4.8,36.7-4.6,41.8l0.3,5.2c0.3,2.5,0.9,4.2,1.6,5.2c1.1,1.4,2.7,2.3,4.8,2.7l3.6,0.2
		c2.2-0.1,4.2-1.4,6.2-4.1c1.3-1.8,2.3-3.7,2.9-5.8S168.2,155.4,167.9,153.6 M167.4,141.7c0.2-0.5,0.2-1.2,0-2.1l-1,0.5
		c-0.9,0.3-1.9,0.2-3.1-0.3c-0.3-0.2-0.4-0.4-0.4-0.7c0-0.3,0.1-0.6,0.3-0.8c0.5-0.4,0.8-0.9,0.8-1.7c0-0.7-0.1-1.5-0.4-2.4
		c-0.3,0.9-0.7,1.6-1.1,2.1c-0.2,0.2-0.4,0.3-0.8,0.3c-0.3,0-0.5-0.1-0.8-0.4l-1.2-2.3l-2.4,10.7c1.1-0.4,2.2-0.5,3.1-0.1
		s1.5,1.2,1.9,2.4l0.2-0.1l0.2-0.1l1.1-0.1c0.9,0,1.7,0.3,2.4,0.8l1.1,0.9c0.6-0.4,1-1.3,1.3-2.6c-1-0.1-1.9-0.7-2.7-1.8
		c-0.2-0.2-0.2-0.5-0.1-0.8c0.1-0.3,0.2-0.5,0.5-0.6C166.9,142.4,167.2,142.1,167.4,141.7 M166.9,107.1l-2.6,3l-2,11.2
		c3.4-1.4,6.1-3.8,7.9-7.2c1.4-2.6,2.1-5,2.1-7.3l-0.4-3.3C170.7,105.7,169.1,106.9,166.9,107.1 M168.1,94.7c-1.7-1.7-3.5-3-5.3-4.1
		c-2.2-1.3-3.7-1.6-4.6-1.1c-4.7,3.1-7.7,6.7-8.9,10.6c-0.8,2.6-0.9,5.1-0.1,7.6l1.6-3.8c0.9-2.4,2-4.7,3.2-7l0.4-0.4
		c0.2-0.1,0.5-0.1,0.7,0l0.4,0.5v0.7l-2.8,6.1c-1,2.5-1.7,4.6-2.2,6.3c-0.5,1.8-0.6,2.8-0.2,3.2h0.4c1.1-0.3,2.6-2.2,4.5-5.5
		c1.1-2.6,2.6-5.5,4.6-8.9c0.3-0.5,0.7-0.6,1.2-0.3l0.4,0.5l-0.1,0.6c-1.2,2.9-2.7,5.8-4.6,8.9c-1.2,2.9-1.7,4.7-1.4,5.5l0.1,0.1
		c0.5,0.2,1.5-0.2,2.9-1.2l4.1-3.8l0.1-0.2l0.1,0.1l2.9-3.5c0.2-0.2,0.4-0.3,0.7-0.3c1.5,0,2.7-0.7,3.6-2.1c0.4-0.7,0.7-1.4,0.9-2.2
		l0.3,0.1l-1.5-4L168.1,94.7 M177.8,36.5c0.2,0,0.4,0.1,0.6,0.3l0.2,0.6l-0.8,8.1l-0.2,0.4l-1,8.8c-0.4,2.9-0.4,4.5-0.2,4.9
		c1,0.2,3-1.2,6.1-4.2c3.5-3.4,5.9-6.9,7.4-10.6c-1.3-2.9-2.8-5.5-4.6-7.9c-2.4-3.4-4.5-5.2-6.4-5.4c-1.9-0.2-5.8,2.2-11.8,7.2
		c-5.5,4.7-10.6,9.7-15.2,14.9c-0.3,0.3-0.6,0.4-0.9,0.2l-5.3-1.5c-0.5-0.1-0.7-0.4-0.6-0.9l0.8-12.3c0.3-8.9,0.1-15.3-0.7-19.2
		c-3.6-1.7-7-3.1-10.2-4.2c-4-1.4-6.8-2.1-8.1-2c-2,3.6-3.7,7.2-4.9,10.7c-1.5,4.2-1.9,7-1.2,8.4l0.9,0.7c2-3.5,4.1-6.1,6.3-7.9
		c3.7-3,8.3-4.7,13.9-4.9c0.5,0,0.9,0.2,0.9,0.8l-0.1,0.6l-0.5,0.4l-8.9,2.9l3.9,9.1c1.9,5.4,2.6,10.7,2.3,15.9
		c0,0.3-0.2,0.5-0.4,0.7l-0.8,0c-2.3-1.1-4.1-1.7-5.4-1.9c0.3,0.8,0.8,1.7,1.5,2.7c0.2,0.3,0.2,0.6,0.1,1c-0.2,0.3-0.5,0.5-0.9,0.4
		l-4.3-0.4c-1.4-0.1-2.4-0.1-3,0.1c0.9,0.6,2.2,1.1,3.9,1.6l0.6,0.6c0.1,0.3,0.1,0.5-0.1,0.8l-2.8,5.4c1-1.2,2-1.8,3.1-1.8
		c1.5,0,2.8,1,3.8,2.9c1,1.9,1.6,4.3,1.6,7.2c0,2.8-0.5,5.2-1.6,7.1c-1,2-2.3,3-3.8,3c-1.5,0-2.7-1-3.8-3c-1-1.9-1.6-4.3-1.6-7.1
		c0-1.2,0.1-2.4,0.4-3.5c-2.6,7-3.1,12.6-1.6,16.8l0.8,0.2c0.6-0.8,1.1-1.4,1.4-1.7c0.6-0.4,1.4-0.7,2.4-0.9l3.7,0.1
		c1.1,0.3,2.1,0.7,2.8,1.3c0.6-0.2,1.6-0.4,3-0.5c1.3-0.1,2.4-0.1,3.2,0.1c2.3,0.3,4.1,1.1,5.3,2.4l9.1-1.4
		c1.5-3.8,1.6-8.8,0.1-14.9l-2.6-8c-0.2-0.5-0.1-0.8,0.3-1.1l20.8-12.4c0.1-0.9,0.4-2.3,1-4.3l1.1-4.4c0-0.2,0.1-0.4,0.3-0.6
		L177.8,36.5 M146.9,62.2c1.1,2.1,1.7,4.7,1.7,7.7s-0.6,5.6-1.7,7.7c-1.1,2.1-2.5,3.1-4,3.1c-1.6,0-3-1.1-4.1-3.1
		c-1.1-2.1-1.7-4.6-1.7-7.7s0.6-5.6,1.7-7.7c1.1-2.1,2.5-3.1,4.1-3.1C144.4,59.1,145.8,60.1,146.9,62.2 M142.4,69.8
		c0.4,0.8,0.5,1.8,0.5,3c0,1.1-0.2,2.1-0.5,2.9c-0.4,0.8-0.9,1.2-1.4,1.2c-0.2,0-0.4-0.1-0.7-0.3c0.8,1.5,1.7,2.3,2.6,2.3
		c1,0,1.8-0.8,2.6-2.4c0.9-1.7,1.3-3.8,1.3-6.3c-2-2.1-3.8-3.2-5.4-3.1c-0.8,0-1.6,0.4-2.4,1.1l-0.1,1.8c0,0.9,0.1,1.8,0.2,2.7
		c0-1.1,0.2-2.1,0.6-2.9c0.4-0.8,0.8-1.2,1.3-1.2C141.5,68.5,141.9,68.9,142.4,69.8 M146.6,67.6c-0.2-2-0.7-3.7-1.5-5
		c-0.7-1.2-1.5-1.8-2.3-1.8c-0.7,0-1.4,0.4-2,1.3c-0.7,0.9-1.2,2.1-1.5,3.6c0.6-0.3,1.2-0.4,1.8-0.4C143,65.3,144.8,66,146.6,67.6z"
		/>
</g>
</svg>
