<?xml version="1.0" encoding="utf-8"?>
<!-- Generator: Adobe Illustrator 25.4.1, SVG Export Plug-In . SVG Version: 6.00 Build 0)  -->
<svg version="1.1" id="AnimalFriend_x2C_PerkClip_x5F_1e67f" image-rendering="auto"
	 xmlns="http://www.w3.org/2000/svg" xmlns:xlink="http://www.w3.org/1999/xlink" x="0px" y="0px" viewBox="0 0 240 240"
	 style="enable-background:new 0 0 240 240;" xml:space="preserve">
<style type="text/css">
	.st0{fill:#FFFFFF;}
</style>
<g>
	<rect width="240" height="240"/>
	<path class="st0" d="M110.4,207.6l-1.6-3.4c-2.3,2.7-4.9,4.4-8,5.4c-3.3,1-6.5,0.7-9.4-0.9c-2.2,1.5-4.6,3.3-7,5.4
		c-3.6,3.2-4.9,5.1-3.7,5.7c3,1.6,7.6,1.2,13.8-1.1c1.8-0.7,3.4-1.7,5-3.1l4.1-4.2c0.2-0.2,0.4,0.1,0.7,0.8c-0.1-0.2,0-0.2,0.1-0.1
		l0.6,0.4c0.8,0.2,1.6,0.1,2.4-0.3c1.1-0.5,1.9-1.1,2.4-1.7C110.5,209.6,110.6,208.7,110.4,207.6 M117.8,185.7
		c-1.1,1-2.7,1.5-4.6,1.5c1,3.3,2,6,3.2,8.2c1.8,3.3,3.4,4.6,4.9,3.6c2-1.2,3.6-3.4,4.6-6.5c0.7-2.3,1.1-4.9,1.2-7.9
		c0-1.1-0.4-2.4-1.3-3.9c-1-1.6-1.6-2.9-1.7-3.8c-0.1-0.7,0.5-1.2,1.7-1.6c1.1-0.3,1.7-0.7,1.6-1.1c-0.3-1.8-0.8-3.4-1.5-4.6
		c-1.1-2-2.3-2.4-3.7-1.1h-0.1c0.7,3.2,0.7,6.3,0.1,9.3C121.4,181.2,120,183.8,117.8,185.7 M77.2,138.9l-2.5-1.8
		c-0.1,18.5,2.7,35.6,8.4,51.5c2.6,7.6,5.3,13.6,8,17.9c2.9,1.6,6.1,1.9,9.3,0.8c3.1-0.9,5.7-2.7,7.9-5.4
		c-0.3-6.7-1.5-12.3-3.5-16.9h0c-3.5-1.6-6.3-4.2-8.5-7.8c-1.5-2.5-3-6.1-4.4-10.9c-1.9-6.5-3.1-12.4-3.5-17.8
		c0-0.6,0.1-0.7,0.4-0.2l0.5,1.2c0.4,4.5,1.3,9.4,2.8,14.9c1.4,5,2.8,8.7,4.2,11.1c2.2,3.7,5.1,6.2,8.7,7.6c2.4,0.9,4.2,1.5,5.7,1.8
		c2.4,0.4,4.3,0.2,5.7-0.7c2.4-1.5,4-4,4.9-7.5c0.8-3.1,0.8-6.1,0.1-9.1c-0.7-1.3-1.5-3.3-2.6-6.1c-2.2,2.9-5.5,6.2-9.8,10.1
		c-0.2,0.2-0.4,0-0.6-0.6c-0.2-0.6-0.2-1.1-0.1-1.2c0.7-0.8,1.6-1.7,2.7-2.6l5.2-5.1l0.8-1.2c2.1-3.2,3.5-7.1,4.2-11.7
		c0.5-3.5,0.5-7.7,0.2-12.5c-0.8,0.9-2.3,2-4.4,3.1c-5.5,3.1-12.1,4.6-20,4.7c-6.2,0.1-11.9-1.4-17.2-4.4L77.2,138.9 M73.3,140.1
		c0.2-0.9,0.3-1.7,0.2-2.3l-0.2-1.5l-2.7,0.1c0.5,2.5,0.1,4.2-1.2,5.1l1.5,3.4c0.8,1.6,1.2,2.8,1.4,3.7c0.4,1.3,0.3,2.3-0.2,2.9
		l-0.2,0.1c1,0.7,1.9,1.1,2.6,1.3c-0.3-3.6-0.6-7.6-0.8-11.8l-0.1,2.1l-1.2-1.2L73.3,140.1 M67.8,135.9c-2.9-0.7-5.2-2.7-6.9-5.9
		c-1.7,5.5-2.2,9.9-1.4,13.1c0.9,3.8,3.5,7.5,7.7,11l0.9,0.7l1.1,0.6c2.1,1,3.6,1.1,4.3,0.4c0.3-0.2,0.4-0.6,0.3-1.1l-0.3-0.9
		l-1.5-1.7l-0.2-0.3l-3.2-0.1c-2.6-0.8-4.6-3-6.1-6.7c-1.1-2.8-1.6-4.7-1.5-5.8c0.1-0.4,0.4-0.6,0.9-0.8c0.5-0.1,0.8,0.1,0.9,0.6
		c0.5,2.5,0.9,4.2,1.3,5.2c1.2,3.2,2.8,5.1,4.9,5.8l1.8,0.2c0.3-0.4-0.2-1.9-1.5-4.7l-2-4.8l0.7-0.4l0.8-0.9c0.5-0.9,0.6-2,0.3-3.3
		L67.8,135.9 M73.5,120.5l-4.1-18.1c-3.3,7.2-5.8,14.6-7.5,22.1l-0.1,0.4c-0.2,1-0.2,1.6-0.1,1.9c0.3,1.2,0.8,2.4,1.6,3.6
		c1.3,1.9,2.8,3.1,4.6,3.6l5.7,0.2l0.2-0.7l0.4-4.6l-0.4-0.5l0.4-0.3C74.2,125.4,73.9,122.9,73.5,120.5 M76.2,86.6
		c-1.6,1.4-2.9,2.9-3.9,4.4c-1.8,2.7-2.5,6.1-2.2,10.2c0.2,1.8,0.9,5.3,2.1,10.4l2.5,11.9l0.3,4l0.2-0.2l1.7,1.4
		c1.4,0.9,3.1,1.4,5.2,1.4c0.1-0.7,0-3-0.4-6.7c-0.7-6.8-1-12.1-0.9-15.9c0-1.3,0.4-4,1.2-8.3c0.7-3.3,1-5.3,0.9-5.9
		c-3.9-1.4-6.1-3.2-6.6-5.4C76.2,87.6,76.2,87.1,76.2,86.6 M70.6,40.9c-0.4,0-0.7,0.4-1,1.1c-0.2,0.7-0.2,1.5,0,2.4
		c0.1,0.6,0.5,1.7,1.3,3.1c0.7-1.6,1.5-3.2,2.5-4.9c-0.7-0.2-1.4-0.6-2.1-1.2C71,41.1,70.8,40.9,70.6,40.9 M148.1,83.1l-0.2,0.8
		l3.8,0.3l1.5-1.2h-5.1V83.1 M154.9,81.1l0.8-1.3l-8,1.2c0.3,0.5,0.4,0.8,0.4,1.2h6L154.9,81.1 M141.4,86.6l0.1,0.4
		c3.5-0.1,6.5-0.8,8.9-2.1l-3-0.2l-0.6,0.6C145.4,86.3,143.7,86.8,141.4,86.6 M126.9,79.8l2.2,0.6l-0.2,0.9l-2.5-0.6l-0.1,0.1
		l-0.2,0.4l4.2,0.8l-0.2,0.8l-4.2-0.8l0.1,0.2l0.9,0.9c1.2,0.7,2.8,1,4.7,0.7c1.3-0.1,2.5-0.5,3.5-1.2c-3.3-2.8-5.3-4.1-5.9-4
		C128.2,78.7,127.4,79.1,126.9,79.8 M139.7,86.4c-1.2-0.2-2.3-0.7-3.3-1.2l-0.1,11.6l4.3-0.2L139.7,86.4 M141.5,84.1l0.1-0.8
		l4.3,0.4l0.4-0.8h-4.2v-0.8h4.1l-0.2-0.5l-0.4-0.4l-3.4,0.5l-0.1-0.9l2.5-0.3c-0.9-0.5-1.9-0.9-3.2-1.1c-0.4,0-1.4,0.5-3,1.6
		l-2.1,1.7c0.9,1.1,2.4,1.8,4.4,2.1c1.5,0.2,2.8,0.1,3.9-0.4L141.5,84.1 M134.4,84.9l-2.6,0.7l-0.9,0.1l-3.9,9.7l5.7,0.8L134.4,84.9
		 M129.4,63.1c-0.8,0-1.5,0.4-2.1,1l-0.1,1.7l0.2,2.4c0-1,0.2-1.9,0.6-2.6c0.3-0.7,0.7-1.1,1.2-1.1c0.5,0,0.9,0.4,1.2,1.1
		c0.4,0.7,0.6,1.7,0.6,2.8c0,1.1-0.2,2-0.6,2.8c-0.3,0.8-0.8,1.2-1.2,1.2l-0.7-0.4c0.8,1.5,1.6,2.2,2.4,2.2c0.9,0,1.7-0.8,2.4-2.2
		c0.8-1.6,1.2-3.6,1.2-5.8C132.7,64.1,131,63.1,129.4,63.1 M130.9,57.4c-0.6,0-1.2,0.4-1.8,1.2c-0.6,0.9-1.1,2-1.4,3.3
		c0.5-0.3,1.1-0.4,1.7-0.4c1.7,0,3.3,0.7,5,2.2c-0.2-1.9-0.6-3.4-1.3-4.6C132.3,57.9,131.6,57.3,130.9,57.4 M98.4,95.8
		c-0.2,0-0.5,0.4-0.8,1.1c-1.2,2.9-1.7,9.2-1.2,18.8c0.4,8.9,1,14.3,1.9,16.2c4.8-0.3,9.9-1.4,15.3-3.3c2.7-0.9,4.9-1.9,6.8-2.9
		c0.2-5.1,1-10.5,2.2-16.2l-6.1,1.3l-1.6-0.9l11.9-3.5l3.7-5.2c1.5-2.2,2.2-3.3,2.1-3.3l-7-1c-0.3,0-0.5-0.1-0.7-0.4
		c-0.1-0.2-0.2-0.5-0.1-0.8l3.3-8.3c-4-2-8.8-3.9-14.4-5.7c0.3,2-0.2,3.9-1.4,5.9c-1.4,2.1-3.5,3.9-6.2,5.4
		C103.6,94.7,101,95.5,98.4,95.8 M83.7,91.9l0.2,0.1c0.6,0.3,0.9,1.1,0.8,2.3l-0.9,5.5c-0.8,3.8-1.2,6.5-1.2,8
		c0,3.7,0.3,8.9,0.9,15.7l0.5,5.9c0,1.2-0.2,2-0.6,2.4c-0.2,0.3-0.5,0.4-0.8,0.4c-3,0-5.4-0.8-7.4-2.4l-0.2,5.6
		c4.6,3.9,10.3,6.3,17.1,7.1c6.3,0.7,12.5,0.1,18.6-2c4.6-1.5,7.9-3.4,10.1-5.9l0.2-0.4l-0.3-1.9l-0.2-4.5c-2.5,1.2-5.3,2.3-8.3,3.2
		c-4.9,1.5-9.5,2.4-14,2.6h-0.2c-0.6,0-1-0.6-1.4-1.8c-0.6-1.9-1.2-5.5-1.6-10.7c-0.5-5.3-0.6-10.3-0.4-15
		c0.3-7.9,1.6-11.9,3.8-12.2c2.3-0.1,4.7-0.9,7.2-2.3c2.5-1.4,4.3-3,5.5-4.9c1.3-1.9,1.6-3.8,1.1-5.6h0.1l-4.2-1.2
		c-0.6,3-2.5,5.5-5.5,7.5c-2.9,1.9-6,2.9-9.2,2.9c-1.9,0-3.6-0.4-5.1-1.1c-1.6-0.8-2.7-2.1-3.5-3.7c-1.6-0.5-3.1-1.2-4.3-2l-0.4,0.4
		c-1.3,1.3-1.9,2.6-1.7,3.8C78.4,89.3,80.2,90.7,83.7,91.9 M94.9,34.6c-0.7,0-1.4,0.1-2.1,0.4c-1.5,0.9-2.7,1.3-3.8,1.3l-1.7-0.4
		c-1.2-0.7-2.2-1.1-3-1.1l-0.9,0.2c-0.4,0.3-1.3,1.3-2.7,3l-2.2,2.8c-1.2,1-2.4,1.6-3.5,1.8c-2.3,3.8-3.8,7.6-4.6,11.4
		c-1.2,6.1-0.5,12,2,17.7c2.6,6,6.7,10.2,12.1,12.6c3.1,1.3,5.8,2,8.2,2l2.9-0.2l0.2,0.1c0.1,0.2-0.5,0.6-1.9,0.9
		c-1.3,0.4-2.3,0.6-2.9,0.6h-0.2c0.7,0.5,1.5,0.7,2.6,0.7c2.5,0,5-0.8,7.7-2.5c2.8-1.8,4.3-3.8,4.6-5.9c-1.7,1.1-3.1,1.7-4.3,1.7
		c-0.4,0-0.5-0.1-0.5-0.2c0-0.2,0.1-0.4,0.5-0.7c3.8-2.5,7.1-6.1,9.8-10.9l0.6,0.1c2.5,0,4.3-1.2,5.3-3.6c1-2.4,0.5-4.4-1.7-6
		c-0.3-0.5-0.3-0.8,0.2-1.1c0.2-0.1,0.5-0.2,0.8-0.2l0.2-0.4l-4-5.2c-0.4-0.4-1.1-1-2.2-1.7c-0.4-0.2-0.6-0.5-0.6-0.9
		c0-0.3,0.2-0.4,0.5-0.4h0.1c0.8,0.3,1.8,1,3,2.1c1.5,1.5,2.7,3.4,3.8,5.7l0.2-1.1l-1.6-2.8c-0.8-1.5-1.7-2.6-2.7-3.6l-3.4-3
		c-0.3-0.1-0.3-0.3-0.2-0.6c0.1-0.2,0.2-0.3,0.5-0.3l0.4,0.1c0.6,0.2,1.8,1.2,3.5,3.1c1.5,1.7,2.6,3.6,3.5,5.8
		c0-2.8-1.2-5.3-3.4-7.5c-0.9-0.9-2.2-1.9-4.2-3c-0.4-0.2-0.5-0.5-0.3-0.8l0.3-0.3c2.4-1.3,3.3-2.9,2.7-4.8
		c-0.6-1.8-1.7-2.7-3.2-2.7h-0.3c-1.8,0.3-3.1,0.6-3.8,0.9c-0.9,0.4-1.7,0.6-2.3,0.6c-0.8,0-1.5-0.3-2.1-0.9
		C98.9,35.5,97,34.6,94.9,34.6 M97.1,41.4l0.5,0.1l1.9,1.9c1.2,1.4,1.8,2.4,1.6,3.2h0l-4.9-2.4c-0.5-0.2-0.8-0.3-0.8-0.4
		c-0.1-0.2,0-0.6,0.4-1.1l0.7-0.9C96.6,41.5,96.8,41.4,97.1,41.4 M96.2,49.4L96.2,49.4c0.5,0,0.8,0.3,1.2,0.9
		c0.3,0.6,0.5,1.4,0.4,2.2c0,0.8-0.2,1.5-0.5,2.1c-0.3,0.6-0.7,0.9-1.2,0.9h-0.1c-0.4,0-0.8-0.3-1.1-0.9c-0.3-0.6-0.4-1.3-0.4-2.1
		c0.1-0.8,0.3-1.6,0.6-2.2C95.5,49.7,95.8,49.4,96.2,49.4 M111.6,58.3c0.4,0.4,0.7,0.9,0.7,1.3c0,0.5-0.2,0.7-0.6,0.7
		c-0.3,0-0.4-0.2-0.5-0.4c0-0.3-0.2-0.6-0.6-1l-0.6-0.5c-0.2-0.1-0.3-0.3-0.2-0.6c0.1-0.3,0.3-0.4,0.5-0.4l0.2,0L111.6,58.3
		 M114.1,58.2l-0.2,0.2l-2.2-2.1l-1.7-1.1c-0.4-0.2-0.5-0.5-0.4-0.8c0.1-0.3,0.2-0.4,0.5-0.4l0.2,0.1c0.8,0.3,1.6,0.8,2.2,1.5
		l1.1,1.5C113.9,57.6,114.1,58,114.1,58.2 M86.3,50.3c0.3-0.5,0.5-0.8,0.8-0.8h0l0.2,0.3l0,0.6c-0.4,1.6-1,3.1-1.8,4.5l-1.8,3.5
		c-0.3,0.5-0.2,1,0.1,1.5l1.7,2.2l0.1,0.6l-0.4,0.3l-1,0.2c-0.4,0-0.8-0.2-1.1-0.5l-2-2.9c-0.3-0.5-0.3-1,0.1-1.4
		c1.7-2.1,2.9-3.7,3.4-4.6L86.3,50.3 M83.7,68.2l1.2-0.1c2-0.2,5-1.1,9.1-2.6l0.7-0.4c0.2-0.3,0.3-0.5,0.2-0.8L94.3,63
		c-0.1-0.3-0.1-0.5,0.1-0.5l0.3,0.1l4.5,3.2l0.4,0.6l0.1,0.8l-0.8,4l-0.3,0.4l-0.3-0.2v-2c-0.2-0.3-0.5-0.5-0.9-0.5l-0.4,0.1
		c-1.1,0.8-2.4,1.7-3.9,2.5c-3,1.7-5.3,2.6-7.2,2.6h0c-1.8,0-3.8-0.6-6.1-1.6l-2.8-1.7l-0.3,0c-0.4,0-0.6,0.2-0.6,0.6v0.4l-0.2,0.4
		l-0.3-0.3l-1.9-3l-0.2-0.7l0.3-0.7l1.6-2l0.4-0.2c0.2,0,0.2,0.1,0.1,0.4v0.7c0,0.2,0.1,0.4,0.2,0.6c0.2,0.2,0.4,0.3,0.6,0.4
		L83.7,68.2 M86.8,75.1c0.5,0,0.8,0.2,0.9,0.7c0.1,0.2,0,0.5-0.1,0.6l-0.7,0.4l-1.5,0.2l-1.2-0.2l-1.5-0.8l-0.3-0.4
		c0-0.1,0.2-0.1,0.4-0.1l3.7-0.4L86.8,75.1 M79.2,42.4l0.5-0.1c0.3,0,0.6,0.2,0.7,0.6l0.1,0.9c0,0.3,0,0.6-0.2,0.8
		c-0.2,0.2-0.5,0.3-0.8,0.4l-3.7,0.2l-0.4-0.2c0-0.1,0.1-0.3,0.4-0.4L79.2,42.4 M78.7,50.4c0.3,0.6,0.4,1.3,0.4,2.1
		c0,0.8-0.2,1.5-0.5,2.1c-0.3,0.6-0.7,0.9-1.2,0.9c-0.5,0-0.9-0.4-1.2-0.9c-0.3-0.6-0.4-1.3-0.4-2.1c0-0.8,0.2-1.6,0.6-2.1
		c0.3-0.6,0.7-0.9,1.2-0.9C78,49.4,78.4,49.8,78.7,50.4 M82.2,71.8l2.8,0.3l4.5-0.6l6.7-3.2l0.8-0.6c0.2-0.4,0.1-0.7-0.3-1.1
		c-0.3-0.3-0.7-0.4-1.2-0.4l-1,0.2c-3.7,1.5-6.7,2.3-9.1,2.5l-1.2,0.1l-7.4-0.9h-0.2c-0.6,0-0.9,0.2-0.8,0.8c0.2,0.6,0.4,0.9,0.8,1
		L82.2,71.8 M105.5,24.6c-1.1-0.1-2.4-0.4-3.9-0.9c-0.4-0.2-0.9-0.4-1.3-0.8l-1.2-1c-1.3-0.9-2.3-1.3-3.2-1.3h-0.2
		c-0.7,0.1-1.8,1.4-3.4,3.8l-1.5,2.1C90.3,26.8,90,27,89.5,27l-3.9-0.8l-1,0.1c-1,0.3-2.9,1.9-5.5,4.9c-1.1,1.2-2.4,1.9-3.8,1.9
		c-1,0-1.9-0.3-2.8-1c-0.7-0.6-1-1.4-0.9-2.6c-0.8,0.8-1.3,1.6-1.7,2.6c-0.5,1.3-0.5,2.7-0.2,4.4c0.4,1.7,1.2,3.1,2.2,4.1
		c0.6,0.6,1.3,0.9,2.1,0.9c1.1,0,2.3-0.5,3.6-1.6l2.2-2.7c1.3-1.7,2.3-2.7,2.9-3.1c0.8-0.5,1.5-0.7,2-0.7l1.1,0.3l2.4,1.1l0.5,0.2
		l1.4-0.5l3.2-2.1c0.8-0.5,1.3-0.8,1.5-0.9l0.8-0.2c1.1,0,2.5,0.9,4.2,2.8c1.8,1.9,2.8,2.9,3,3h0.3c0.4,0,1.3-0.3,2.7-0.9
		c1.4-0.7,2.4-1,3-1.1l1-0.1c1.6,0,2.8,0.6,3.8,1.7c0.6,0.8,1,1.8,1.2,3c0.1,0.8-0.3,1.8-1.2,2.9l-2.4,2.4l3.5,2.8
		c1.8,1.8,2.9,3.9,3.4,6.4c0.6-1.6,1.1-3.4,1.4-5.6c0.7-4.2,0.5-7.6-0.7-10.2l-2.3-4.1c-1.3-1.8-2.5-2.9-3.7-3.4l-2.6-3.2
		C108.8,25.8,107.3,24.8,105.5,24.6 M162.2,171.9c0.1-0.3,0.5-0.5,1.1-0.5c0.6,0,0.8,0.3,0.6,0.7c-1,2.5-2.8,5.1-5.5,7.7
		c1.7,2.5,2.3,4.8,1.8,6.9c1.7-0.3,3.4,0,5.1,0.7l1.1,0.6c0.2,0.2,0.4,0.6,0.4,1.2c0.1,0.6,0.1,0.9-0.1,0.8l-1.1-0.6
		c-2.2-0.8-5.2-0.3-8.9,1.5c-5.4,2.8-8.5,5.7-9.2,8.9c-0.4,1.7-0.3,3.2,0.2,4.5c0.6,1.6,1.7,2.4,3.3,2.4c1.2-0.1,2-0.6,2.4-1.5
		c0.4-0.9,0.5-2,0.4-3.3c-0.2-0.7-0.3-1.4-0.3-2.2c0-0.4,0.1-0.4,0.4-0.1l0.4,0.9l0.2,1.3c0.3,0.7,0.9,1.1,1.8,1.4l2.5,0.2
		c1.5-0.3,2.3-1.1,2.4-2.3v-0.6c-1.6-1.4-2.1-2.7-1.6-3.9c0.3-0.7,0.8,0.1,1.6,2.2c2.3,1.9,4.6,2,7.1,0.5c2.3-1.5,3.7-3.7,4.2-6.6
		c0.5-2.5,0.2-5.3-0.9-8.5c-0.7-2.1-1.9-4.8-3.5-7.9l-3.1-5.4c-1.8-2.6-3.3-3.7-4.7-3.3l-0.4-0.3l-1.4,0.2c-2.1,0.1-4.1-0.2-6.1-0.9
		c1.1,3.4,0.4,7.6-2.1,12.8c-0.1,0.2-0.2-0.1-0.4-0.7c-0.3-0.6-0.3-1-0.2-1.2c0.9-2.1,1.6-3.8,2-5.2c0.6-2.3,0.6-4.1,0.1-5.5
		l-0.1-0.5c-1.2-0.5-2.2-1.2-2.8-2c-1.2-1.1-1.9-2.7-2.2-4.6c-0.1-0.4-0.2-2.8-0.4-7.1c-0.2-5.2,1.3-18.9,4.4-41.1l-1.2-0.3
		c-0.8-0.5-1.1-1.9-0.7-4.1l-0.3-0.4c-0.8-1.4-1.3-3.2-1.5-5.4c-0.3-4.3,1.2-8.3,4.5-12c-0.2-0.2-0.4-0.6-0.6-0.9
		c-0.2-0.6-0.2-1.2-0.1-1.9c-2.6,1.3-5.6,2-9.2,2.1l0.8,8.6l-0.2,0.7c-0.1,0.2-0.3,0.3-0.6,0.3h-6.4l-6.9,9.1h0.3
		c0.4-0.2,0.7-0.1,0.9,0.3c0.3,0.3,0.3,0.7,0,1l-2.1,3.7c-0.6,1.2-0.9,2-0.9,2.4l1.6-0.6c0.4-0.2,0.8-0.2,1.1,0.2
		c0.3,0.4,0.3,0.8,0,1.1c-1.5,1.8-2.7,3.5-3.6,5.1c-0.9,1.5-1.2,2.5-1,2.8l0.6,0.1c0.3,0,0.5,0.1,0.8,0.3c0.2,0.3,0.2,0.5,0.2,0.8
		l-1.6,9.4c-0.7,7-0.1,12.6,1.6,16.7l0.2,0.3l0.1,0.4l0.1,0.2c0.4,0.4,0.7,1.7,1,3.8c1.1,3.5,3.2,8.2,6.4,14.1
		c3.5,6.6,5.8,11.2,6.8,13.8c1.9,4.8,2.9,8.8,3,12c0.1,4.6-1.7,7.9-5.3,9.9c1.3,0.1,2.5,0.5,3.5,1.2c1.1,0.7,2.1,1.9,3.1,3.5
		c0.1,0.2-0.2,0.3-0.7,0.5l-1.1-0.1c-1.7-2.8-3.6-4.3-5.8-4.6l-1.1-0.1l-4.2,0.6c-2.6,0.2-4.9,0.8-6.9,1.9c-2.2,1.3-3.7,3.1-4.4,5.4
		c-0.6,2-0.7,3.5-0.2,4.5c0.4,0.9,1,1.5,1.8,1.8c1,0.4,1.6,0.1,2-1l0.6-2.2c-0.2-0.9-0.1-1.8,0.3-2.8c0.1-0.2,0.4-0.4,0.9-0.5
		c0.5-0.2,0.8-0.1,0.8,0.1l-0.3,3.1c0.2,1.2,0.7,2.1,1.6,2.7c1.4,1,2.5,1.3,3.4,1.1c1-0.3,1.5-1.2,1.5-2.8c-0.2-0.7-0.3-1.5-0.2-2.3
		c0-0.3,0.3-0.5,0.8-0.6c0.6-0.2,0.9-0.1,0.9,0.1l0.2,2.2c0.4,1.5,1.2,2.7,2.4,3.4c1.3,0.8,2.9,0.9,4.6,0.3c2.5-0.8,4.4-2.4,5.8-4.9
		c0.8-1.4,1.6-3.8,2.4-7.3c-0.8-0.4-1.5-1-2.1-1.9c-0.7-0.9-1.1-1.8-1.3-2.6c-1.4-5.2,0.5-9.6,5.6-13.1l1.5-0.9l0.2-3.6
		c0-1.5-0.3-2.6-0.8-3.2c-2.7,1.6-5.2,2.3-7.5,1.9c-2.6-0.4-4.6-2-6-4.9c-1.5-3.1-2.9-8.3-4.2-15.7c-1.3-6.9-2.8-12-4.7-15.3
		c-0.2-0.4-0.1-0.7,0.5-0.9c0.5-0.2,0.9-0.1,1.1,0.2l1.9,3.5c0.5,1.1,0.9,2.4,1.1,3.7c1.1,6.2,2.1,11.4,3.2,15.6
		c1.1,4.4,2.2,7.4,3.2,9c2,3.3,4.7,4.4,8,3.4c2.5-0.8,4.9-2.3,7.2-4.6S161.3,174.6,162.2,171.9 M144.9,113.8c1.3,3,1.8,5.6,1.4,8
		c-2.6-4.9-4.2-8.3-4.9-10.1c-0.4-1.2-0.3-1.8,0.2-1.9l0.9,0.2C143.3,110.5,144.1,111.8,144.9,113.8 M165.4,145.4
		c-0.7-0.4-1.4-0.5-2.1-0.4c-0.5,0.3-0.9,0.8-1.4,1.7l-1.3,4.5l-0.4,0.5l-0.6,0.1c-0.6-0.1-0.8-0.4-0.8-0.9c0.2-1.8,0.7-3.4,1.3-4.8
		l0.6-1.6c-0.2-1-0.5-1.6-1.1-1.8c-0.5-0.3-1.2-0.2-2.1,0.3c-0.5,2.1-0.8,4.1-0.9,6.1c-0.2,2.4-0.1,4.2,0.4,5.4l0.9,1.1
		c1,0.6,2.4,0.4,4.2-0.6l1.1-0.6l0.7-0.1c0.2,0,0.4,0.1,0.5,0.3c0.2,0.2,0.2,0.4,0.1,0.7l-0.3,0.6l-1.1,0.7
		c-2.7,1.6-4.8,1.8-6.2,0.8c-0.7-0.4-1.2-1.1-1.5-1.9c-1.5-2.7-1.3-8,0.5-15.8c2.3-10,4.4-20.2,6.3-30.6c-3,2.9-5.3,4.1-6.9,3.6
		c-0.6-0.2-1-0.6-1.1-1.2c-0.2-0.3-0.2-0.9-0.2-1.6l-1.1,1.2c-3.2,22.8-4.8,36.7-4.6,41.8l0.3,5.2c0.3,2.5,0.9,4.2,1.7,5.2
		c1.7,2.1,4.5,3.1,8.4,2.9c2.2-0.1,4.2-1.4,6.2-4.1c1.3-1.8,2.3-3.7,2.9-5.8c0.6-2.1,0.7-4.1,0.3-5.9
		C167.4,147.8,166.6,146.2,165.4,145.4 M162.9,135.6c0-0.3,0.1-0.6,0.3-0.8c0.5-0.4,0.7-0.9,0.8-1.7c0-0.7-0.2-1.5-0.4-2.4l-1.1,2.1
		c-0.2,0.2-0.4,0.3-0.8,0.3c-0.3,0-0.5-0.1-0.8-0.4l-1.3-2.3l-2.3,10.7c1.1-0.4,2.1-0.5,3-0.1c0.9,0.4,1.5,1.2,1.9,2.4l0.2-0.1
		l0.2-0.1l1.2-0.1c0.9,0,1.7,0.3,2.4,0.8l1.1,0.9c0.6-0.4,1-1.2,1.2-2.6c-1-0.1-1.8-0.7-2.6-1.8c-0.2-0.2-0.2-0.5-0.2-0.8
		c0.1-0.2,0.3-0.4,0.6-0.5c0.5-0.2,0.9-0.5,1-0.9c0.2-0.5,0.2-1.2,0-2.1c-0.4,0.3-0.7,0.4-1,0.5l-2.1,0.1l-1-0.4
		C163.1,136.1,162.9,135.9,162.9,135.6 M171.9,100c-1.1,2.2-2.8,3.4-5,3.6l-2.6,3l-2,11.1c3.4-1.4,6.1-3.8,7.9-7.1
		c1.4-2.6,2.1-5,2.1-7.3L171.9,100 M168.2,91.2c-1.7-1.7-3.5-3-5.3-4.1c-2.2-1.3-3.7-1.6-4.6-1.1c-4.7,3.1-7.7,6.7-8.9,10.6
		c-0.8,2.6-0.9,5.1-0.1,7.6l1.7-3.8c0.9-2.4,2-4.8,3.1-7.1l0.4-0.4c0.2-0.1,0.5-0.1,0.7,0c0.5,0.3,0.6,0.6,0.4,1.1l-2.7,6.2
		c-1,2.4-1.7,4.5-2.2,6.3c-0.5,1.8-0.6,2.8-0.2,3.2h0.3c1.1-0.3,2.6-2.2,4.6-5.5c1.2-2.9,2.8-5.9,4.6-8.9l0.5-0.4l0.6,0.1
		c0.5,0.3,0.6,0.6,0.4,1.1c-1.6,3.5-3.1,6.5-4.5,8.9c-1.2,2.8-1.7,4.7-1.4,5.5l0.1,0.1c0.6,0.2,1.5-0.2,2.9-1.1l4.1-3.9l0.1-0.2
		l0.1,0.1l2.9-3.5c0.2-0.2,0.4-0.3,0.7-0.3c1.5,0,2.7-0.7,3.6-2.1c0.4-0.7,0.7-1.4,0.9-2.2v0.1l0.3,0.1l-1.6-4L168.2,91.2
		 M177.6,33.6l1-4.3c0-0.2,0.1-0.4,0.3-0.6c0.2-0.2,0.4-0.2,0.7-0.2l0.6,0.3l0.1,0.6l-0.8,8.1l-0.1,0.4l-1.1,8.8
		c-0.3,2.9-0.4,4.5-0.1,4.9c1,0.2,3-1.2,6.1-4.2c3.5-3.4,6-6.9,7.4-10.5c-0.5-2.1-2-4.5-4.4-7.2c-2.1-2.4-4.3-4.4-6.5-6.1
		c-1.7-0.2-5.9,2.9-12.6,9.4c-5,4.9-10.4,10.6-16.1,17.1c-0.3,0.3-0.6,0.4-1,0.2l-5.3-1.5c-0.2,0-0.4-0.1-0.5-0.3l-0.1-0.6
		c0.6-4.5,1.1-9.3,1.6-14.6c1-10.4,1.1-17.5,0.3-21.4c-3.6-1.6-7-3.1-10.3-4.2c-4-1.4-6.7-2.1-8.2-2c-2,3.6-3.6,7.2-4.9,10.6
		c-1.5,4.3-1.9,7.1-1.2,8.5l0.8,0.7c2-3.5,4.2-6.2,6.4-8c3.7-3,8.3-4.7,13.9-4.9c0.5,0,0.8,0.2,0.9,0.7c0.1,0.5-0.1,0.9-0.6,1
		l-8.9,2.9c1.1,2.5,2.1,6.3,3.1,11.4c1.3,6.6,1.7,12.7,1.4,18.1c0,0.3-0.2,0.5-0.5,0.7l-0.8,0c-2.3-1.1-4.1-1.8-5.4-1.9
		c0.3,0.8,0.8,1.7,1.5,2.7c0.2,0.3,0.3,0.6,0.1,1c-0.2,0.3-0.5,0.5-0.9,0.4l-4.4-0.4c-1.4-0.1-2.4-0.1-3,0.1c0.9,0.6,2.2,1.1,4,1.6
		l0.6,0.6c0.1,0.3,0,0.5-0.1,0.8l-2.8,5.4c1-1.2,2-1.8,3.1-1.8c1.5,0,2.8,1,3.8,2.9c1,1.9,1.6,4.3,1.6,7.2c0,2.8-0.5,5.2-1.6,7.1
		c-1,2-2.3,3-3.8,3c-1.5,0-2.7-1-3.8-3c-1-1.9-1.5-4.3-1.5-7.1c0-1.2,0.1-2.4,0.3-3.6c-2.5,7.1-3.1,12.7-1.6,16.8l0.8,0.2
		c0.6-0.8,1.1-1.4,1.5-1.7c0.6-0.4,1.4-0.7,2.4-0.9l3.7,0.1c1.1,0.3,2.1,0.7,2.8,1.3l2.9-0.5c1.3-0.1,2.4-0.1,3.2,0.1
		c2.4,0.3,4.2,1.1,5.4,2.4l9.1-1.4c1.5-3.8,1.6-8.8,0.1-14.9l-2.6-8.1l0-0.6l0.3-0.5L176.6,38C176.7,37.1,177,35.6,177.6,33.6
		 M142.9,55.6c1.6,0,3,1.1,4.1,3.1c1.1,2.1,1.6,4.7,1.6,7.7s-0.6,5.6-1.6,7.7c-1.1,2.1-2.5,3.1-4.1,3.1c-1.6,0-2.9-1.1-4-3.1
		c-1.1-2.1-1.7-4.6-1.7-7.7s0.6-5.6,1.7-7.7C139.9,56.6,141.3,55.6,142.9,55.6 M145.6,73c0.8-1.7,1.3-3.8,1.3-6.3
		c-1.9-2.2-3.8-3.2-5.5-3.1c-0.8,0-1.6,0.4-2.4,1.1l0.1,4.4c0-1.1,0.2-2.1,0.6-2.9c0.4-0.8,0.8-1.1,1.3-1.1c0.5,0,1,0.4,1.4,1.2
		c0.4,0.8,0.6,1.8,0.6,3c0,1.1-0.2,2.1-0.6,2.9c-0.4,0.8-0.9,1.2-1.4,1.2l-0.7-0.3c0.7,1.5,1.6,2.3,2.5,2.3
		C143.9,75.4,144.8,74.6,145.6,73 M145.2,59.1c-0.7-1.2-1.5-1.8-2.4-1.8c-0.7,0-1.3,0.4-1.9,1.3c-0.7,0.9-1.2,2.1-1.6,3.6l1.9-0.4
		c1.7-0.1,3.5,0.7,5.4,2.3C146.5,62.1,146,60.4,145.2,59.1z"/>
</g>
</svg>
