<?xml version="1.0" encoding="utf-8"?>
<!-- Generator: Adobe Illustrator 25.4.1, SVG Export Plug-In . SVG Version: 6.00 Build 0)  -->
<svg version="1.1" id="AnimalFriend_x2C_PerkClip_x5F_1e67f" image-rendering="auto"
	 xmlns="http://www.w3.org/2000/svg" xmlns:xlink="http://www.w3.org/1999/xlink" x="0px" y="0px" viewBox="0 0 240 240"
	 style="enable-background:new 0 0 240 240;" xml:space="preserve">
<style type="text/css">
	.st0{fill:#FFFFFF;}
</style>
<g>
	<rect width="240" height="240"/>
	<path class="st0" d="M113.7,208.4c1.8-0.5,3-1.1,3.4-1.8c0.9-1.5,0.7-3.6-0.5-6.3c-2.5,2.6-5.2,4.3-8.1,5c-1.5,2.3-3.3,4.1-5.4,5.4
		c-1.6,0.9-3.3,1.6-5.1,2.1c-2.4,0.6-4.1,0.3-5.1-0.8c-0.8-0.9-1.3-2.2-1.4-3.8c-1.8,1.4-3.1,2.6-3.8,3.6l-0.7,1.1
		c-0.2,0.5-0.1,0.8,0.3,1.1l2,0.9l8.4-0.2l4.7-1.1c1.6-0.6,3-1.4,4.1-2.4l4.2-4c0.2-0.2,0.5,0.2,0.7,1.1c0-0.2,0-0.2,0.1-0.1
		l0.5,0.3C112.5,208.6,113.1,208.6,113.7,208.4 M148.1,210.8c0.2,0.8,0.1,1.5-0.2,2.1c-0.7,1.2-1.9,1.9-3.6,2.3
		c-1.2,0.3-2.2,0.1-3.1-0.6c-0.1,0.9-0.6,1.6-1.4,2.1c-1.6,0.8-3.1,0.7-4.6-0.5c-1.3-1-2-2.4-2.2-4.2c-0.2-1.6,0-3.1,0.6-4.6
		c-2.1,0.3-3.7,1-5,1.9c-1.5,1.1-2.5,2.6-2.8,4.4c-0.4,2.6-0.1,4.3,1,5.1c1.1,0.8,2.1-0.4,3.2-3.6l0.2-1c0.1-0.3,0.4-0.4,1-0.5
		c0.5-0.1,0.8,0.1,0.8,0.3l-0.2,0.7c-0.3,1.4-0.4,2.6-0.1,3.6c0.3,1.3,1,2.1,2.1,2.5l4.6-0.1c1-0.7,1.6-1.9,1.6-3.6
		c0-0.3,0.3-0.5,0.9-0.6s0.9,0,0.9,0.4c-0.2,2.1,0.4,3.5,1.9,4.4c1.5,0.9,3.1,0.6,4.8-1.1c2.6-2.5,4.6-5.3,6-8.4l-3.2,0.1
		C150,211.7,149,211.3,148.1,210.8 M142.8,180.5l3.4-2.4l-2.1-5.1C142.9,175.7,142.5,178.2,142.8,180.5 M99.3,196.9l-2.2-0.9
		c-0.8,1.4-1.5,2.9-2.3,4.7l-1.2,2.8c-0.5,1.3-0.9,2.4-1.1,3.3c0.1,0.5,0.1,0.8-0.1,0.9l-0.1,0.1c-0.1,0.8,0,1.4,0.1,2
		c0.2,1.1,1.9,1.4,4.9,0.9c2.4-0.5,4.3-1.2,5.8-2.3c1.6-1.1,3.1-2.6,4.4-4.4c0-0.3,0.1-0.5,0.2-0.5l0.2-0.1c1.2-1.8,2.2-3.8,3-6.1
		c0.2-0.7,0.3-1.4,0.2-2.1l-0.3-2.1c-0.1-0.6,0-1,0.3-1.3l1.1-0.4c0.5-0.1,0.8-0.2,0.9-0.5c0.2-1,0.1-2-0.2-2.9
		c-0.3-0.8-0.9-1.6-1.7-2.5l-1.1-1.2l-1.4,4.1c-1.1,2.9-2.2,5-3.2,6.3C103.7,196.8,101.6,197.6,99.3,196.9 M110.2,167.4l-3,2.4
		c2,3,3,7.3,3,12.8c2.1,2.2,3.3,4.3,3.7,6.5l0.2,2.7c-0.2,0.8-0.7,1.3-1.7,1.4c-0.6,0.1-0.8,0.6-0.7,1.5l0.4,2.1
		c0.1,0.5-0.1,1.2-0.4,2.1l-1.6,3.6c2.1-0.9,4.1-2.3,5.9-4.4l0.1-1.6C116.5,185.3,114.5,175.6,110.2,167.4 M79.7,142.9l-2.4-1.3
		c-1.1-0.6-2-1.3-2.5-1.9c-0.2,6.9,0.4,12.4,2,16.4c0.7,1.8,2.2,4.4,4.4,7.6l0,0.1c2.2-4.8,6-9.2,11.6-13.4c0.1-0.1,0.3,0.2,0.6,0.8
		c0.2,0.7,0.2,1.1,0,1.2c-4.8,3.6-8.3,7.5-10.7,11.9c-2.4,4.6-2.7,8.8-0.9,12.5c1.5,3.1,3.8,6.2,6.9,9.5c2,2.2,4.1,4.2,6.3,6.1
		c1.4,1.2,2.6,2,3.5,2.2c2.9,0.8,5.4-0.4,7.4-3.7c1.1-1.8,2.2-4.7,3.4-8.8c0.1-3.5-0.3-6.5-1.2-8.9l-1.1-2.3l-6.4,2.9
		c-0.2,0.1-0.4-0.2-0.6-0.9c-0.2-0.7-0.2-1.1,0-1.2c3.6-1.7,6.8-3.9,9.8-6.5c3.1-2.8,5.5-5.8,7.3-9.1c2.6-4.8,4-10.3,4.1-16.6
		c-0.7,0.7-2.1,1.7-4.2,2.9c-5.5,3.1-12.1,4.6-19.9,4.7C90.7,147.4,85,145.9,79.7,142.9 M66.7,135.4l-2.6-0.3c0,2.5-0.6,4.1-2,4.9
		l0.9,3.6c0.5,1.8,0.8,3.1,0.9,3.8c0.2,1.3-0.1,2.3-0.7,2.8l-0.2,0.1c1.9,1.8,3.3,2.3,4.1,1.5c0.5-0.5,0.3-1.6-0.8-3.1l-1.7-2.9h0.2
		l2.1,2c1.2,1.1,2,1.3,2.6,0.7c0.4-0.3-0.3-1.6-1.9-3.9l-2.9-3.6l1.1-1.9l0.6-2.2L66.7,135.4 M55.8,136.6c0.1,2.5,0.3,4.3,0.5,5.4
		c0.7,3.3,2,5.5,4,6.5c0.9,0.4,1.5,0.6,1.8,0.4c0.3-0.3,0.1-1.8-0.7-4.7L60,139l0.7-0.3l1-0.8c0.6-0.8,0.9-1.9,0.8-3.2l-1.5-0.5
		c-2.7-1.1-4.7-3.4-5.9-6.9c-2.4,5.3-3.5,9.6-3.3,12.8c0.3,4,2.3,8,6,12l0.8,0.8l0.9,0.7c0.8,0.5,1.5,0.9,2.2,1.1l2-0.1
		c0.3-0.2,0.4-0.6,0.4-0.9c0-0.4,0-0.7-0.2-0.9l-1.3-2.2c-0.8,0.3-1.9,0.1-3.2-0.6c-2.4-1.2-4.1-3.7-5-7.5c-0.7-3-0.8-5-0.5-6
		c0.2-0.4,0.5-0.6,1-0.6C55.5,135.9,55.8,136.1,55.8,136.6 M70.2,109.1c-0.8-3.6-1.2-6.9-1.1-9.8c-3,4.3-5.7,9-8.2,14.1
		c-1.5,3.1-2.8,6-3.8,8.7l-0.2,0.3c-0.4,1-0.5,1.6-0.5,1.9c0.1,1.3,0.5,2.6,1,3.9c1,2.1,2.3,3.5,4,4.2c2.5,1,4.4,1.4,5.6,1.1
		l1.9-3.3c1.4-2.3,2.9-4.5,4.5-6.6l-0.1-0.3L70.2,109.1 M75.9,91.4c-0.1-0.5-0.1-1.1-0.1-1.8c-1.5,1.4-2.7,2.7-3.5,3.9
		c-1.8,2.7-2.5,6.1-2.2,10.2c0.1,1.7,0.8,5.1,2,10.5l2.5,11.8c0.2,1.6,0.4,3.3,0.4,5.2l0.4-0.2l1.6,1.2c1.4,0.8,3.2,1.3,5.2,1.4
		c0.1-0.5-0.1-2.8-0.5-6.7c-0.7-6.7-1-12-1-16c0-1.4,0.4-4.2,1.2-8.3c0.6-3.4,0.9-5.4,0.8-5.9C78.7,95.7,76.5,93.8,75.9,91.4
		 M69.6,46.1c0.1,0.6,0.5,1.6,1.3,3c0.7-1.6,1.5-3.2,2.5-4.9c-0.7-0.2-1.4-0.6-2.1-1.2c-0.3-0.3-0.5-0.4-0.7-0.4
		c-0.4,0-0.7,0.4-1,1.1C69.4,44.4,69.4,45.2,69.6,46.1 M151.6,91.2c-0.2-0.2-0.4-0.5-0.6-0.9c-0.2-0.5-0.2-1.1-0.1-1.9
		c-2.6,1.3-5.7,2-9.3,2.1l0.8,8.6l-0.2,0.6c-0.1,0.2-0.3,0.3-0.6,0.4h-6.4l-6.9,9.1l0.3-0.1c0.4-0.1,0.7,0.1,0.9,0.4
		c0.3,0.4,0.3,0.7,0,1.1l-2.1,3.6c-0.6,1.2-0.9,2.1-0.9,2.4l1.6-0.5c0.4-0.2,0.8-0.2,1.1,0.2c0.3,0.4,0.3,0.7-0.1,1.1
		c-1.5,1.8-2.7,3.5-3.6,5.2c-0.9,1.5-1.2,2.5-1,2.8l0.6,0.1c0.3,0,0.6,0.1,0.8,0.3s0.2,0.5,0.2,0.8l-0.9,3.4
		c-0.7,2.8-1.1,5.5-1.3,8.2c-0.6,8.6,1.3,15.1,5.8,19.6l1.4-7c0.1-0.3,0.4-0.6,1-0.7c0.6-0.1,0.8,0.1,0.7,0.6
		c-2.2,11.2-3.5,20.6-4.1,28.2c-0.3,4.2-0.4,7.1-0.1,8.4c0.6,3.3,2.4,5.1,5.3,5.4c3,0.2,6-1,9.2-3.8c2.8-2.4,4.7-5.2,5.9-8.2
		c0.1-0.4,0.5-0.6,1.1-0.6c0.6,0,0.8,0.2,0.6,0.6c-1,2.8-2.8,5.4-5.2,7.8l0.2,0.2c2.6,3.5,2.8,6.3,0.4,8.5c3.4-1.1,6.1-1,8.1,0.2
		c0.2,0.1,0,0.2-0.5,0.4l-1.1,0.1c-2.4-1.1-5.5-0.8-9.3,1l-0.5,0.1c-1.6,0.9-3.1,1.9-4.3,3.1c-3.6,3.4-4.9,6.9-3.7,10.2
		c0.4,1,0.7,1.8,1,2.2c0.5,0.7,1.2,1.2,2,1.3c1.4,0.3,1.9-0.6,1.5-2.7l-0.8-3.1c-0.1-0.2,0.2-0.4,0.8-0.6l0.9,0.1l0.6,1.9
		c0.6,1.2,1.2,1.9,1.8,2.2c2.6,0.5,3.8-0.2,3.8-2.2l-0.5-2.6c-0.2-1.2-0.2-2,0.1-2.5c0.1-0.2,0.4-0.3,0.9-0.5l0.8,0.1
		c0,0.8,0.4,1.6,1.1,2.5c0.6,0.7,1.3,1.3,2.1,1.8c2,1.1,3.8,0.8,5.4-0.9c1.2-1.3,2.1-3.1,2.4-5.2c0.4-2.3,0.5-4.9,0.2-7.8
		c-0.2-2.2-0.7-4.8-1.4-7.8l-1.9-7c-0.9-2.6-1.9-4.8-3.1-6.4c-0.9-1.3-1.8-2.2-2.6-2.8c-1.2-0.9-1.7-0.3-1.4,1.7l0.5,2.7l-0.2,0.3
		l-6,4.4l-0.8,0.3c-0.4,0.1-0.7,0.1-0.7-0.1c-0.9-4.8,1.3-10.6,6.6-17.2c-0.6-1-1-2.4-1.1-4.1l-0.2-6.1c-0.2-5.1,1.3-18.7,4.4-41
		c-0.4,0-0.8-0.1-1.2-0.3c-0.9-0.5-1.1-1.9-0.7-4.1l-0.3-0.4c-0.8-1.5-1.3-3.3-1.5-5.4C146.8,98.9,148.3,94.9,151.6,91.2
		 M144.9,115.5c1.4,3,1.9,5.6,1.5,8c-2.6-4.9-4.2-8.3-4.9-10.2c-0.4-1.2-0.3-1.8,0.2-2l0.9,0.2L144.9,115.5 M147.9,85.6l3.8,0.3
		l1.5-1.2h-5.1v0.1L147.9,85.6 M154.9,82.8l0.8-1.4l-8,1.2l0.4,1.2h6L154.9,82.8 M141.4,88.4l0.1,0.4c3.5-0.1,6.5-0.8,8.9-2.1
		l-3-0.2l-0.6,0.6C145.4,88,143.7,88.5,141.4,88.4 M136.3,98.6l4.2-0.2l-0.9-10.2c-1.3-0.3-2.3-0.7-3.2-1.2L136.3,98.6 M130.9,87.4
		l-3.8,9.6l5.7,0.8l1.6-11.1l-2.6,0.6L130.9,87.4 M126.4,82.2l-0.3,0.6l4.2,0.8l-0.2,0.9l-4.2-0.8l0,0.1l0.9,1
		c1.2,0.8,2.8,1,4.8,0.8c1.3-0.2,2.5-0.6,3.5-1.2c-3.3-2.8-5.3-4.1-5.9-4.1c-1.1,0.2-1.8,0.6-2.3,1.2l2.2,0.6l-0.2,0.8L126.4,82.2
		 M136.2,84.5L136.2,84.5c1,1.1,2.4,1.8,4.5,2l3.9-0.4l-3.1-0.2l0.1-0.9l4.4,0.4l0.4-0.7h-4.2v-0.9h4.1l-0.6-0.9l-3.4,0.6l-0.1-0.9
		l2.6-0.4c-0.9-0.5-2-0.8-3.2-1c-0.4-0.1-1.4,0.5-3,1.6C136.9,83.8,136.2,84.4,136.2,84.5 M127.9,67.4c0.4-0.8,0.8-1.2,1.2-1.2
		c0.5,0,0.9,0.4,1.2,1.2c0.4,0.8,0.6,1.7,0.6,2.8c0,1.1-0.2,2-0.6,2.8c-0.3,0.8-0.8,1.2-1.2,1.2l-0.7-0.3c0.7,1.4,1.5,2.1,2.4,2.1
		c0.9,0,1.7-0.8,2.4-2.2c0.8-1.6,1.2-3.5,1.2-5.8c-1.9-2-3.6-3-5.1-2.9c-0.8,0-1.5,0.3-2.1,0.9l-0.1,1.7l0.2,2.5
		C127.4,68.9,127.6,68,127.9,67.4 M130.9,59.1c-0.6,0-1.2,0.4-1.8,1.2c-0.6,0.8-1.1,1.9-1.4,3.3c0.6-0.2,1.2-0.4,1.7-0.4
		c1.6-0.1,3.3,0.6,5,2.1c-0.2-1.8-0.6-3.4-1.3-4.6C132.3,59.7,131.6,59.1,130.9,59.1 M113.2,83.6c0.2,2.4-0.7,4.9-2.5,7.5
		c-1.5,2.2-3.4,4-5.8,5.5c-2.3,1.5-4.5,2.3-6.7,2.4c-0.2,0.1-0.5,0.4-0.8,1.1c-1.2,3-1.6,9.3-1.1,18.8c0.5,9,1.2,14.4,2.1,16.2
		c5.9-0.4,11.4-1.6,16.3-3.5c2.4-1,4.3-1.9,5.7-2.8l0.1,0.2c0.2-4.5,1.2-10.5,2.9-18.1l-6.8,1.5l-1.6-0.9l11.9-3.4l3.7-5.2
		c1.5-2.1,2.2-3.2,2.1-3.2l-6.9-1l-0.7-0.4c-0.1-0.3-0.2-0.6-0.1-0.8l3.4-8.3c-1.1-0.7-2.5-1.4-4.2-2L113.2,83.6 M87.9,90.9
		c-1.6-0.8-2.7-2.1-3.5-3.7c-1.3-0.5-2.6-1.1-3.9-1.8l-0.2,0.5l-1.7,1.3c-0.9,1.3-1.3,2.6-1,3.8c0.4,1.8,2.4,3.2,5.8,4.3h0.2
		c0.6,0.3,0.8,1.1,0.8,2.4l-0.8,5.5c-0.7,3.8-1.1,6.4-1.1,7.9c0,4.1,0.3,9.4,1,15.8l0.6,5.9c0,1.1-0.2,1.9-0.6,2.3
		c-0.2,0.3-0.5,0.4-0.9,0.4c-3.1,0-5.6-0.8-7.5-2.4l-0.2,4.6c4.8,4.1,10.8,6.5,18,7.2c6.7,0.6,13.1-0.2,19.3-2.6
		c2.2-0.8,4-1.7,5.5-2.7c2.4-1.5,3.5-2.5,3.4-3.1c-0.4-2.1-0.6-4-0.6-5.8c-2,1.2-4.5,2.3-7.5,3.3c-4.5,1.5-9.4,2.4-14.8,2.8h-0.1
		c-0.6,0-1.1-0.6-1.5-1.8c-0.6-1.9-1.1-5.3-1.6-10.3c-0.5-5.7-0.7-10.8-0.6-15.3c0.2-7.9,1.4-12,3.7-12.3c1.9-0.2,3.9-0.9,6-2.2
		c2.1-1.3,3.8-2.9,5.2-4.9c1.8-2.5,2.4-4.9,2-7l-3.7-0.9c-0.8,2.8-2.7,5.2-5.7,7.1c-2.8,1.8-5.8,2.7-8.9,2.7
		C91.2,91.9,89.4,91.6,87.9,90.9 M94.9,36.2c-0.8,0-1.5,0.2-2.1,0.6c-1.6,0.9-2.8,1.3-3.8,1.3l-1.7-0.4c-1.2-0.8-2.2-1.1-3-1.1
		l-0.9,0.2c-0.5,0.3-1.4,1.2-2.7,2.9l-2.2,2.8c-1.2,1-2.3,1.6-3.5,1.8c-2.3,3.8-3.8,7.6-4.6,11.3c-1.2,6.1-0.5,12.1,2,17.8
		c2.6,6,6.7,10.2,12.1,12.6c3.1,1.3,5.8,2,8.2,2l2.9-0.4l0.2,0.1c0.1,0.2-0.5,0.6-1.9,1c-1.3,0.4-2.3,0.6-2.9,0.6h-0.2
		c0.7,0.4,1.5,0.6,2.6,0.6c2.5,0,5-0.8,7.6-2.4c2.8-1.8,4.3-3.8,4.6-6c-1.7,1.2-3.1,1.8-4.3,1.8c-0.4,0-0.6-0.1-0.6-0.2
		s0.1-0.4,0.5-0.6c3.9-2.5,7.1-6.2,9.8-10.9l0.7,0.1c2.5,0,4.3-1.2,5.3-3.6c1-2.4,0.5-4.4-1.7-6c-0.3-0.5-0.3-0.8,0.2-1.1l0.7-0.2
		l0.1-0.2l0.2,0.1l-1.7-2.4c-0.9-1.3-1.7-2.3-2.4-3.1c-0.6-0.6-1.4-1.1-2.2-1.6c-0.4-0.2-0.6-0.5-0.6-0.9c0-0.3,0.2-0.5,0.5-0.5
		l0.1,0.1c1,0.4,2,1.1,3,2.2c1.6,1.5,2.8,3.4,3.8,5.6l0.2-1.1c-1.5-3-2.9-5.1-4.2-6.3l-3.5-3c-0.2-0.1-0.3-0.3-0.2-0.6
		c0.1-0.2,0.2-0.3,0.5-0.4l0.4,0.1c0.5,0.2,1.7,1.2,3.5,3.1c1.4,1.7,2.6,3.6,3.5,5.8c0-2.8-1.2-5.3-3.4-7.4c-1-0.9-2.4-1.9-4.2-3
		c-0.4-0.2-0.5-0.5-0.3-0.8c0.1-0.3,0.3-0.4,0.4-0.4c2.4-1.3,3.2-2.9,2.7-4.8c-0.6-1.7-1.7-2.6-3.2-2.6h-0.3
		c-1.8,0.3-3.1,0.6-3.8,0.9c-0.9,0.4-1.7,0.6-2.3,0.6c-0.9,0-1.6-0.3-2.1-0.9C98.8,37.2,97,36.2,94.9,36.2 M97.1,43.1l0.5,0.1
		l1.9,1.9c1.2,1.4,1.8,2.4,1.6,3.2l-1.4-0.6l-1.8-1.1l-2.5-1.1c-0.1-0.2,0-0.6,0.4-1.1l0.7-0.9C96.5,43.2,96.8,43.1,97.1,43.1
		 M111.6,59.9c0.4,0.5,0.6,0.9,0.6,1.4c0,0.5-0.1,0.7-0.5,0.7c-0.3,0-0.5-0.2-0.5-0.5c0-0.3-0.2-0.6-0.6-0.9l-0.6-0.5
		c-0.2-0.1-0.3-0.3-0.2-0.6c0-0.2,0.2-0.4,0.4-0.3l0.3,0L111.6,59.9 M112.5,57.2l1.1,1.6c0.3,0.5,0.5,0.9,0.5,1.2l-0.2,0.2l-2.1-2.1
		l-1.6-1.1v0l-0.1-0.1c-0.4-0.2-0.5-0.5-0.4-0.8c0.1-0.3,0.2-0.4,0.5-0.4l0.2,0.1C111.1,56,111.8,56.5,112.5,57.2 M96.2,51.1
		L96.2,51.1c0.5,0,0.8,0.3,1.2,0.9c0.3,0.6,0.5,1.3,0.4,2.1c0,0.8-0.2,1.5-0.5,2.1c-0.3,0.6-0.7,0.8-1.2,0.9c-0.5,0-0.8-0.3-1.2-0.9
		c-0.3-0.6-0.4-1.3-0.4-2.1c0-0.8,0.2-1.5,0.5-2.1C95.4,51.4,95.8,51.1,96.2,51.1 M81.1,60.2l3.5-4.6l1.8-3.6
		c0.2-0.5,0.5-0.8,0.8-0.8c0.3,0,0.4,0.3,0.2,0.9c-0.5,1.6-1.1,3.1-1.8,4.5l-1.8,3.6c-0.3,0.5-0.2,1,0.1,1.5l1.7,2.1
		c0.1,0.2,0.2,0.4,0.1,0.6l-0.4,0.4l-1,0.2c-0.5,0-0.9-0.2-1.2-0.5l-1.9-3c-0.1-0.2-0.2-0.4-0.2-0.7C80.9,60.6,81,60.4,81.1,60.2
		 M83.7,69.9l1.2-0.1c2-0.2,5-1.1,9.1-2.6l0.7-0.5c0.2-0.3,0.3-0.5,0.2-0.7l-0.6-1.4c-0.1-0.3-0.1-0.5,0.2-0.5l0.3,0.1l4.5,3.1
		c0.5,0.3,0.6,0.8,0.5,1.4l-0.8,4l-0.3,0.4l-0.3-0.2l-0.1-2c-0.2-0.3-0.5-0.5-0.9-0.5l-0.4,0.1c-1.1,0.9-2.4,1.7-3.9,2.6
		c-3,1.7-5.3,2.5-7.2,2.5h0c-1.8,0-3.9-0.6-6.1-1.6l-2.8-1.6l-0.2,0c-0.4,0-0.6,0.2-0.6,0.6v0.4l-0.2,0.4l-0.2-0.2l-1.9-3l-0.2-0.7
		l0.3-0.7l1.6-2c0.1-0.2,0.2-0.3,0.4-0.3c0.2,0,0.2,0.2,0.1,0.4v0.7c0,0.2,0.1,0.4,0.2,0.6l0.6,0.4L83.7,69.9 M86.6,76.8h0.2
		c0.5,0,0.8,0.2,0.9,0.7c0.1,0.2,0,0.5-0.1,0.7l-0.7,0.4l-1.5,0.2l-1.2-0.2l-1.5-0.8c-0.2-0.1-0.3-0.3-0.3-0.4
		c0-0.1,0.2-0.2,0.4-0.2L86.6,76.8 M75.8,46.8c-0.3,0-0.4-0.1-0.4-0.1l0.4-0.4l3.4-2.1l0.5-0.2c0.3,0,0.5,0.2,0.6,0.7l0.2,0.9
		c0,0.3,0,0.5-0.2,0.8c-0.2,0.2-0.4,0.3-0.7,0.4L75.8,46.8 M78.7,52.1c0.3,0.6,0.5,1.3,0.4,2.1c0,0.8-0.2,1.5-0.5,2.1
		c-0.3,0.6-0.7,0.8-1.2,0.8c-0.5,0-0.9-0.3-1.2-0.9c-0.3-0.6-0.4-1.4-0.4-2.2c0-0.8,0.2-1.5,0.6-2.1c0.3-0.6,0.7-0.9,1.2-0.9
		C78,51.2,78.3,51.5,78.7,52.1 M84.9,73.8l4.5-0.6c1.2-0.4,3.4-1.4,6.7-3.1l0.8-0.7c0.2-0.3,0.1-0.6-0.3-1c-0.3-0.3-0.7-0.4-1.2-0.4
		l-1,0.1c-3.7,1.5-6.7,2.4-9.1,2.6l-1.2,0.1l-7.4-0.9h-0.1c-0.6,0-0.9,0.2-0.8,0.8c0.2,0.6,0.4,0.9,0.8,1l5.5,1.9L84.9,73.8
		 M100.2,24.5l-1.1-0.9c-1.3-0.9-2.3-1.3-3.2-1.3l-0.2,0.1c-0.7,0.1-1.8,1.3-3.4,3.8l-1.5,2.1c-0.3,0.3-0.7,0.5-1.2,0.5l-3.9-0.9
		l-1,0.1c-1,0.2-2.8,1.9-5.5,5c-1.1,1.2-2.3,1.8-3.8,1.8c-1,0-2-0.3-2.8-1c-0.7-0.5-1-1.4-0.9-2.5c-0.8,0.7-1.3,1.6-1.7,2.6
		c-0.5,1.3-0.5,2.7-0.2,4.4c0.4,1.7,1.2,3,2.2,4.1c0.5,0.5,1.2,0.8,2.1,0.8c1.2,0,2.4-0.5,3.6-1.5l2.1-2.7c1.4-1.7,2.3-2.7,2.9-3.1
		c0.8-0.4,1.5-0.6,2.1-0.6c0.4,0,1.2,0.3,2.3,0.9l1.2,0.6l0.5,0.2c0.3,0,0.8-0.2,1.4-0.6l4.8-2.9l0.8-0.2c1,0,2.4,0.9,4.1,2.8
		c1.8,1.9,2.8,2.9,3,2.9l0.3,0.1c0.4,0,1.3-0.3,2.7-0.8c1.4-0.7,2.4-1.1,3-1.2l1-0.1c1.6,0,2.8,0.6,3.7,1.7c0.6,0.8,1,1.8,1.2,3
		c0.1,0.8-0.3,1.8-1.2,2.9l-2.4,2.3l3.5,2.8c1.8,1.8,2.9,3.9,3.4,6.4c0.6-1.6,1.1-3.4,1.4-5.6c0.7-4.2,0.5-7.6-0.7-10.2
		c-0.6-1.4-1.4-2.8-2.3-4.1c-1.3-1.8-2.5-3-3.7-3.5l-2.6-3.2c-1.4-1.9-3-2.9-4.8-3.1l-3.9-1.1C101.1,25.1,100.7,24.9,100.2,24.5
		 M163.7,189.6l-1.6,0.2c-0.9,0.2-1.5,0.5-1.9,0.7c0.2,1.2,0.4,4.2,0.4,8.9l2.4-3.9C164.3,193.1,164.5,191.1,163.7,189.6
		 M165.4,147.1c-0.7-0.4-1.4-0.6-2.1-0.5c-0.5,0.5-1,1.1-1.4,1.8l-1.3,4.4c-0.1,0.5-0.4,0.8-1,0.6c-0.5-0.1-0.8-0.4-0.7-0.9
		c0.2-1.7,0.6-3.3,1.3-4.8l0.6-1.6c-0.2-1-0.6-1.6-1.1-1.8c-0.5-0.2-1.2-0.1-2.1,0.3c-0.5,2-0.8,4.1-0.9,6.1
		c-0.2,2.4-0.1,4.2,0.4,5.4c0.3,0.4,0.6,0.8,0.9,1c1,0.7,2.4,0.5,4.2-0.5l1.1-0.7c0.2-0.1,0.4-0.2,0.7-0.1c0.3,0,0.4,0.1,0.6,0.3
		c0.3,0.5,0.3,0.9-0.2,1.2l-1,0.7c-2.7,1.6-4.8,1.8-6.3,0.8c-0.6-0.4-1.1-1.1-1.4-1.9c-1.5-2.8-1.3-8.1,0.5-15.9
		c2.2-9.6,4.3-19.8,6.3-30.5c-3.1,2.9-5.4,4.1-7,3.5c-0.6-0.2-0.9-0.6-1.1-1.2c-0.2-0.4-0.2-0.9-0.2-1.6l-1.2,1.1
		c-3.2,22.8-4.7,36.8-4.6,41.8l0.3,5.2c0.3,2.5,0.9,4.2,1.7,5.2c1.7,2.1,4.4,3,8.3,2.8c2.2-0.1,4.2-1.5,6.2-4
		c1.4-1.8,2.4-3.7,2.9-5.8c0.6-2.1,0.7-4.1,0.3-5.9C167.4,149.4,166.6,147.8,165.4,147.1 M163.9,134.8c0-0.7-0.1-1.5-0.4-2.4l-1.1,2
		c-0.2,0.3-0.4,0.4-0.8,0.4l-0.7-0.5l-1.3-2.3l-2.3,10.7c1.1-0.4,2.1-0.4,3-0.1c0.9,0.4,1.5,1.2,1.9,2.4l0.4-0.2l1.2-0.1
		c0.9,0,1.7,0.3,2.4,0.8c0.4,0.2,0.8,0.5,1.1,0.9c0.6-0.4,1-1.2,1.3-2.6c-0.5-0.1-1-0.3-1.5-0.6l-1.1-1.1c-0.2-0.3-0.2-0.5-0.2-0.8
		c0.1-0.3,0.3-0.5,0.6-0.6c0.5-0.2,0.8-0.5,1-0.9c0.2-0.5,0.2-1.2-0.1-2l-0.9,0.5l-2.1,0l-1-0.4c-0.3-0.2-0.4-0.4-0.5-0.7
		c0-0.3,0.1-0.6,0.4-0.8C163.7,136.1,163.9,135.6,163.9,134.8 M166.9,105.2l-2.6,3.1l-2,11.2c3.4-1.4,6.1-3.8,7.9-7.2
		c1.4-2.6,2.1-5,2.1-7.3c0-0.9-0.2-2-0.5-3.3C170.8,103.9,169.2,105.1,166.9,105.2 M168.2,92.9c-1.7-1.7-3.5-3.1-5.3-4.1
		c-2.2-1.3-3.7-1.7-4.6-1.1c-4.7,3.2-7.7,6.7-8.9,10.6c-0.8,2.6-0.9,5.2-0.1,7.7l1.7-3.7c0.8-2.1,1.8-4.5,3.1-7.1l0.5-0.4l0.7,0.1
		c0.2,0.1,0.3,0.3,0.4,0.5v0.6l-2.7,6.2c-1,2.5-1.8,4.5-2.2,6.2c-0.5,1.8-0.6,2.8-0.2,3.2h0.3c1.1-0.3,2.6-2.2,4.6-5.5
		c1-2.4,2.5-5.4,4.6-8.9c0.3-0.5,0.7-0.6,1.2-0.3s0.6,0.6,0.4,1.1c-1.8,3.8-3.3,6.7-4.5,8.9c-1.2,2.9-1.7,4.7-1.4,5.5l0.1,0.2
		c0.6,0.2,1.5-0.2,2.9-1.1l4.1-3.9l0.1-0.2h0.1l2.9-3.4c0.2-0.2,0.4-0.3,0.7-0.3c1.5,0,2.7-0.7,3.6-2.1c0.4-0.7,0.7-1.4,0.9-2.2
		l0.3,0.1l-1.6-3.9L168.2,92.9 M179.6,30.2c0.6,0.1,0.8,0.4,0.8,0.9l-0.7,8.1l-0.1,0.4l-1.1,8.9c-0.4,2.8-0.4,4.4-0.1,4.9
		c1,0.2,3-1.2,6.1-4.3c3.5-3.4,6-6.9,7.4-10.6c-1.3-2.9-2.8-5.5-4.5-7.9c-2.4-3.4-4.6-5.2-6.4-5.4c-1.8-0.2-6,3-12.6,9.5
		c-4.9,4.7-10.3,10.4-16.2,17.1c-0.2,0.3-0.5,0.4-0.9,0.3l-5.3-1.5c-0.5-0.1-0.7-0.4-0.7-1c0.6-4.5,1.2-9.4,1.6-14.5
		c1-10.4,1.1-17.5,0.3-21.4c-3.6-1.7-7-3.1-10.3-4.2c-4-1.5-6.7-2.1-8.2-2.1c-2,3.7-3.6,7.2-4.9,10.7c-1.5,4.3-1.9,7.1-1.2,8.4
		c0.2,0.3,0.4,0.6,0.8,0.6c2-3.4,4.1-6.1,6.4-7.9c3.7-3.1,8.3-4.7,13.9-5c0.5,0,0.8,0.2,0.9,0.8c0.1,0.5-0.1,0.9-0.6,1l-8.9,2.9
		c1.1,2.5,2.1,6.3,3.1,11.4c1.3,6.6,1.7,12.6,1.4,18.1l-0.5,0.7l-0.8,0.1c-2.3-1.1-4.1-1.8-5.4-2c0.2,0.7,0.7,1.6,1.5,2.7
		c0.2,0.4,0.2,0.8,0,1.1c-0.2,0.3-0.5,0.5-0.8,0.4l-4.4-0.5l-3,0.1c1,0.6,2.3,1.1,3.9,1.6c0.3,0,0.5,0.2,0.6,0.5
		c0.1,0.2,0.1,0.5,0,0.8l-2.8,5.4c0.9-1.2,1.9-1.8,3.1-1.8c1.5,0,2.8,1,3.8,2.9c1,2,1.6,4.4,1.6,7.1s-0.5,5.2-1.6,7.1
		c-1,1.9-2.3,2.9-3.8,2.9s-2.8-1-3.8-2.9c-1-1.9-1.5-4.3-1.5-7.1c0-1.3,0.1-2.5,0.3-3.6c-2.5,7.1-3,12.7-1.5,16.9l0.8,0.2
		c0.6-0.8,1.1-1.3,1.5-1.6c0.6-0.5,1.4-0.8,2.4-0.9l3.7,0.1c1.1,0.3,2.1,0.7,2.8,1.2c0.6-0.2,1.6-0.4,2.9-0.4s2.4-0.1,3.2,0
		c2.3,0.3,4.1,1.1,5.4,2.4l9.1-1.4c1.5-3.8,1.6-8.8,0.2-14.9l-2.6-8.1c-0.2-0.5-0.1-0.8,0.3-1.1l22.6-16.8c0.1-0.9,0.4-2.4,1-4.3
		l1.1-4.3c0-0.2,0.1-0.4,0.3-0.6C179.2,30.3,179.4,30.2,179.6,30.2 M142.9,57.2c1.6,0,3,1.1,4.1,3.1c1.1,2.1,1.6,4.6,1.6,7.7
		c0,3-0.6,5.6-1.6,7.7c-1.1,2.1-2.5,3.1-4.1,3.1c-1.6,0-2.9-1.1-4-3.1c-1.1-2.1-1.7-4.7-1.7-7.7c0-3.1,0.6-5.6,1.7-7.7
		C139.9,58.3,141.3,57.2,142.9,57.2 M143,70.9c0,1.2-0.2,2.2-0.6,3c-0.4,0.8-0.9,1.2-1.4,1.2c-0.2,0-0.4-0.1-0.8-0.3
		c0.8,1.5,1.7,2.3,2.6,2.3c1,0,1.9-0.8,2.7-2.4c0.8-1.8,1.3-3.9,1.3-6.3c-2-2.2-3.8-3.2-5.5-3.1c-0.8,0-1.6,0.4-2.4,1l0.1,4.5
		c0-1.1,0.2-2.1,0.6-2.9c0.4-0.8,0.8-1.2,1.4-1.2c0.5,0,1,0.4,1.4,1.2C142.8,68.8,143,69.8,143,70.9 M145.2,60.9
		c-0.7-1.2-1.5-1.8-2.4-1.8c-0.7,0-1.3,0.4-1.9,1.3c-0.7,0.9-1.2,2.1-1.6,3.6l1.9-0.4c1.7-0.1,3.5,0.7,5.4,2.3
		C146.5,63.8,146,62.2,145.2,60.9z"/>
</g>
</svg>
