<?xml version="1.0" encoding="utf-8"?>
<!-- Generator: Adobe Illustrator 25.4.1, SVG Export Plug-In . SVG Version: 6.00 Build 0)  -->
<svg version="1.1" id="Sniper_x2C_PerkClip_x5F_4c92a" image-rendering="auto"
	 xmlns="http://www.w3.org/2000/svg" xmlns:xlink="http://www.w3.org/1999/xlink" x="0px" y="0px" viewBox="0 0 240 240"
	 style="enable-background:new 0 0 240 240;" xml:space="preserve">
<style type="text/css">
	.st0{fill:#FFFFFF;}
</style>
<g>
	<rect width="240" height="240"/>
	<path class="st0" d="M139.4,161.5l0.3-2.9l-8.3-1l-0.4,2.9L139.4,161.5 M84.8,142.3l3.8,0.3c2.1,0,3.7-0.3,4.9-0.9l0.2-0.1
		l-2.1-0.7c-1.6-0.6-2.8-1.6-3.7-2.9l-3.9,0.1c-0.6,0.2-1.1,0.5-1.3,0.8L84.8,142.3 M99.6,131.3c-0.2-1-0.2-1.8,0-2.4
		c0.3-0.7,0.7-1.2,1.4-1.4c1.1-0.4,2.9,0.1,5.2,1.6c1.1,0.7,1.8,2,2.2,3.9c0.2,1.1,0.2,2.8,0.2,5c0,0.3,0.3,0.2,0.9-0.3v-16.1
		l-21.6,4.5l-0.1,0.8c0,2.8,0.1,5.3,0.4,7.8c0.2,1.5,1,2.8,2.3,3.9c0.6,0.6,1.3,1,1.9,1.2l8.7-0.2l0.3-1.2c0.1-0.4,0-1-0.2-1.8
		L99.6,131.3 M89.4,128.5l-0.2-1.3l17.9-3.3v2.2L89.4,128.5 M82.4,109.6c-0.3,0.2-0.6,0.5-0.8,0.9c-0.4,0.7-0.6,1.6-0.4,2.7
		c0.1,0.7,0.3,1.4,0.7,2.1l6.5-0.5c-0.1-1.6,0-2.8,0.1-3.5c0.1-0.6,0.6-0.8,1.5-0.8c0.1-1.4,0.5-2.6,1.2-3.7L82.4,109.6 M99.3,110.9
		c-0.2-1.1-0.1-2.3,0.1-3.5l-5,1.1c-0.7,1.1-0.9,2.3-0.8,3.6c0.1,0.7,0.3,1.2,0.7,1.7l3.1-0.7c1.2-0.3,1.9-0.6,2.2-0.8L99.3,110.9
		 M93.7,106.1c-0.7,0.4-1.3,1.1-1.8,2.1c-0.5,1-0.7,2.2-0.7,3.4c0,1.5,0.3,2.9,1.1,4.1c0.7,1.1,1.5,1.6,2.4,1.6c0.7,0,1.4-0.3,2-1
		l-1.4,0.1l-0.2-0.1l-1.3-1c-0.8-0.8-1.3-1.8-1.5-3c-0.1-1.1,0.1-2.2,0.5-3.2c0.3-0.7,0.5-1.2,0.8-1.4l0.1-0.2l2.9-0.8
		c-0.5-0.6-1.2-0.9-1.9-0.9c-0.3,0-0.6,0.1-0.9,0.2L93.7,106.1 M112.6,99.1l-10.8,5.5c-0.4,0.6-0.7,1.3-0.9,2
		c-0.4,1.4-0.5,2.7-0.3,4.1c0.1,0.7,0.3,1.5,0.8,2.5l10.4-3.4c-0.6-1.4-0.9-2.9-0.9-4.6C110.9,103.1,111.5,101,112.6,99.1
		 M119.5,122.4l-0.1-0.9h-8.7V138l7.8-0.1l1.5-1.1l-0.1-3.2l-4,0.1c-0.9,0-1.6-0.3-2.2-0.9c-0.8-0.8-1.2-1.9-1.2-3.4
		c0-1.7,0.3-3.1,1-4.3l1-1.4l0.1-0.1L119.5,122.4 M104.6,118.8v2.5l3.5-0.8v-1.9L104.6,118.8 M103.3,121.5v-3.7l-8.1,1.9l-0.1,3.4
		L103.3,121.5 M104.4,116.9l0.7,0.5l12.1-1.3l-0.9-0.6L104.4,116.9 M101.8,114l0.7,0.8l10.5-2.7l-0.7-1.2L101.8,114 M102.3,116.7
		l-0.7-0.8l-3.3,0.2l-0.5,0.7l0.1,0.9L102.3,116.7 M103.4,115.9l0.3,0.4l11-2l-0.6-0.6L103.4,115.9 M127.5,124.9
		c0.2-1.2,0.5-2.3,0.9-3.4l-13,3.2c-0.2,0.2-0.5,0.6-0.7,1c-0.3,0.7-0.6,1.5-0.7,2.4L127.5,124.9 M153.5,138.4
		c1.3,0,2.4-0.3,3.4-0.9c1-0.6,1.6-1.3,1.9-2.2l-10.2,0.8c0.4,0.7,1.1,1.3,2,1.7S152.4,138.4,153.5,138.4 M148.2,138.7l-1.6-2.1
		l-12.4,19.6c0.4,0.4,0.9,0.7,1.7,0.8L148.2,138.7 M127.6,128.9l-0.2-1.2l-13.5,1.8c0,0.5,0.1,1,0.2,1.3L127.6,128.9 M121.9,141.8
		c1.7-2.9,2.3-4.9,2-6c-0.3-1-0.8-1.8-1.8-2.2h-0.6c0,1.6-0.2,2.8-0.5,3.6c-0.4,0.8-1.4,1.8-3.1,3c-1.9,1.3-3.6,2-5,2l-3.2-0.2
		c-0.9-0.1-1.6-0.4-2.1-0.8c-0.5-0.5-0.8-1.2-0.8-2v-1.2c0.1-1.8,0-3.2-0.1-4.2c-0.2-1.7-0.7-2.8-1.4-3.3c-1.9-1.2-3.2-1.7-3.9-1.4
		c-0.1,0.1-0.2,0.2-0.3,0.5c-0.2,0.5,0.1,1.9,0.8,4.1l0.9,2.7c0.2,0.9,0.2,1.6,0.1,2.2c-0.3,1.5-0.9,2.7-1.7,3.6l-1.7,2.9
		c-0.9,1.9-0.9,3.4-0.1,4.3c2.2,2.7,5.3,3.9,9.4,3.6c4-0.3,6.9-1.9,8.8-4.6C119.6,145.6,121,143.3,121.9,141.8 M131.4,133.3l1.2,0.7
		l25.1-2.8l-1-1.1L131.4,133.3 M155.1,115.2c0.8-1.8,2-3.4,3.4-4.6l-24.8,6.2c-1,0.6-1.9,1.4-2.8,2.6c-1.6,2.1-2.4,4.6-2.4,7.5
		c0,2,0.5,3.7,1.6,5.1l25.2-4l-0.2-0.3l-16.6,1.8l-0.6-1.2l16.4-2.4c-0.4-1.5-0.7-3.1-0.7-4.6C153.9,119.2,154.3,117.2,155.1,115.2
		 M15.8,147.4c-0.3-2.1-0.1-4.1,0.6-5.9l0.5-1.1c0.1-0.1,0-0.1-0.3,0.1l-4.2,3.7c-0.9,0.6-2,1.6-3.2,3.1c-1.2,1.5-1.8,2.7-1.7,3.4
		c0,0.1,0.1,0.2,0.3,0.3c0.7,0.3,1.9,0,3.7-0.8c1.2-0.6,2.4-1.3,3.6-2.1L15.8,147.4 M79.2,127.3c-2.8,0-4.5,0.3-5.3,0.9
		c-0.2,0.8,0.2,1.6,1.2,2.6l3.1,2.6c1.3,1.1,2.7,2.6,4,4.4c1.1-1.1,2.9-1.5,5.3-1.2l-0.6-1.8c-0.2-1.3-0.4-3.3-0.4-6.2h-1.7
		l-0.2-0.2l-1.4-0.9L79.2,127.3 M44.2,130.4l-2,0.2c-1.6,0.3-3.1,1.1-4.4,2.3l-6.3,5.9c-0.4-0.2-0.8-0.4-1.4-0.4l-3.5,0.1l-6.1,1.5
		c-0.9,0.5-1.6,0.9-2,1.4c-1,1.2-1.3,2.8-1,5l5.9,3.3c3.5,1.7,6.4,2.9,8.8,3.4c3.9,0.9,7.7,1.3,11.3,1.2c-2.3-3.9-3.5-7.8-3.5-11.9
		c0-2.4,0.8-5.1,2.2-8.1L44.2,130.4 M46.2,131.4l-0.5-0.2c-1,1.3-1.8,2.7-2.5,4.2c-1,2.4-1.5,4.7-1.5,7c0,2.4,0.5,4.9,1.5,7.5
		c0.6,1.6,1.3,3,2.2,4.3l2.2-0.2c-2.1-2.7-3.5-6-4-9.8c-0.3-2.6-0.1-5.2,0.6-7.9C44.6,134.5,45.3,132.9,46.2,131.4 M57.8,124.8
		c-2.3,1.1-4.6,2.5-6.8,4.2c-1.2,0.9-2.3,1.8-3.2,2.6c-0.7,1.1-1.3,2.4-1.8,4.1c-0.9,2.8-1.2,5.5-0.9,8.2c0.4,2.8,1.3,5.4,2.7,7.7
		c0.7,1.1,1.3,2,2,2.6l-0.1,0.1l9,1.5l3.9-0.1c-2.7-3-4.9-6.2-6.7-9.6c-1.5-2.9-2.1-4.5-1.7-4.8c0.2-0.1,2,2,5.4,6.4
		c4.5,5.2,9.2,9.2,14.2,12.1c2,1.1,4.8,2.1,8.3,2.9l4.7,0.9l5.4-1.1c4.1-0.9,7.2-2,9.5-3.1c2.4-1.2,4.6-2.5,6.6-3.9
		c-2.5,0-4.7-0.5-6.6-1.6c-1.7-1-3-2.3-3.8-3.9c-0.8-1.6-0.7-3.7,0.4-6.1c0.2-0.4-0.1-0.7-0.7-0.9c-0.8-0.2-1.9,0-3.3,0.6l-8.9,0.4
		l-6.6-0.5l1.2-0.7c0.9-0.5,1.8-0.8,2.5-0.9c-0.6-0.9-1.5-2-2.7-3.3c-1.3-1.3-2.5-2.5-3.8-3.5l-7.9-6.5c-0.3-0.2-0.4-0.6-0.2-0.9
		c0.1-0.4,0.4-0.6,0.8-0.5l2.8,0.4l-0.3-0.3c-0.9-1.1-2.1-2-3.7-2.7C64.6,123.1,61.3,123.2,57.8,124.8 M131.6,97.2
		c-2.2-2.2-4.9-3.3-8.1-3.3c-3.1,0-5.8,1.1-7.9,3.3c-2.2,2.2-3.4,4.9-3.4,8.1c0,3.1,1.1,5.8,3.4,7.9c2.2,2.2,4.8,3.3,7.9,3.3
		c3.1,0,5.8-1.1,8.1-3.3c2.2-2.2,3.3-4.9,3.3-7.9C134.9,102.2,133.8,99.5,131.6,97.2 M116.4,98.4l0-0.1l0.2-0.1
		c2-2.1,4.4-3.1,7.3-3.1c2.8,0,5.1,1,7.1,2.9c2,2,2.9,4.3,2.9,7.1s-1,5.1-2.9,7.1c-2,2-4.3,3-7.1,3c-2.8,0-5.1-1-7.1-3
		c-2-2-2.9-4.3-2.9-7.1C113.8,102.5,114.7,100.3,116.4,98.4 M131.4,109.4l-2.5-0.4c-0.6,2-1.8,3.5-3.6,4.7c1.3-0.2,2.5-0.7,3.6-1.4
		C129.9,111.5,130.8,110.5,131.4,109.4 M126.8,110.3c0.8-1.2,1.2-2.5,1.2-4c0-2.1-0.8-3.9-2.2-5.4c-1.5-1.5-3.3-2.2-5.4-2.2
		c-1,0-2,0.2-3,0.6c-1.5,1.7-2.2,3.6-2.2,5.9c0,2.1,0.7,4,2.1,5.6c1.3,1.6,3,2.6,5.1,3c0.5-0.1,1-0.3,1.5-0.6
		C125.1,112.5,126.1,111.5,126.8,110.3 M123.1,104c0-0.5-0.2-1-0.6-1.4c-0.4-0.4-0.9-0.6-1.4-0.6c0.7-0.4,1.5-0.6,2.3-0.6
		c1.2,0,2.2,0.4,3.1,1.2c0.9,0.9,1.3,1.9,1.3,3.1c0,1.2-0.4,2.3-1.3,3.2c-0.9,0.9-1.9,1.3-3.1,1.3s-2.2-0.4-3.2-1.3
		c-0.9-0.9-1.3-1.9-1.3-3.2l0.1-1.1c0.4,0.9,1,1.4,1.9,1.4c0.6,0,1.1-0.2,1.5-0.6S123.1,104.6,123.1,104 M132.3,102.7l-0.4-0.9
		l-3.3,1.2l0.3,0.9L132.3,102.7 M132.6,105.6l0.1-0.4l-0.1-0.7l-3.4,0.7l0.1,0.7L132.6,105.6 M131.9,108.6l0.4-1.2l-3.1-0.2
		l-0.2,1.2L131.9,108.6 M84.1,87.8c-0.7-0.1-1.5,0.2-2.6,0.8l-0.9,0.6l-1.1,0.4l-2.8,0.6c-1.3,0.1-2.5,0.8-3.6,2.1L71,94.5
		c-0.9,0.3-1.8,1.1-2.8,2.3c-0.7,0.9-1.3,1.9-1.9,2.9c-0.9,1.8-1.2,4.3-0.9,7.4c0.2,1.5,0.4,2.9,0.8,4.1c0.5-1.8,1.5-3.3,2.8-4.4
		l2.7-1.9c-0.6-0.5-1.2-1.1-1.7-1.8c-0.6-0.8-0.8-1.6-0.7-2.2c0.2-0.9,0.6-1.7,1.2-2.2c0.8-0.8,1.9-1.1,3.3-0.8
		c0.4,0.1,1.2,0.4,2.3,1.1c1,0.5,1.6,0.7,1.9,0.6l2.6-2.2c1.5-1.4,2.6-1.8,3.3-1.4l3.6,2.5c0.4,0.3,0.8,0.3,1.1,0.2l2.4-0.9
		c0.5-0.1,1.1,0.1,1.8,0.6c0.4,0.3,1.1,1,2,2.4l1.4,2c0.7,0.6,1.3,1,2.1,1.2c0.8,0.2,1.4,0.1,2-0.4c0.8-0.7,1.4-1.7,1.8-2.8
		c0.4-1.2,0.4-2.3,0.1-3.2c-0.2-0.7-0.6-1.4-1.1-1.9c0,0.8-0.3,1.4-0.8,1.8c-0.7,0.5-1.5,0.7-2.4,0.6s-1.7-0.6-2.3-1.4
		c-1.7-2.3-3-3.6-3.8-3.9l-2.6,0.1c-0.9,0.2-1.5,0.2-1.9-0.2l-1-1.6C85.3,88.9,84.5,87.9,84.1,87.8 M85.4,98.4
		c-0.8-0.5-1.7-0.6-2.7-0.4c-1.1,0.2-2.1,0.8-3,1.8c-0.4,0.4-1,0.6-1.6,0.6c-0.4-0.1-1-0.2-1.6-0.6c-0.7-0.3-1.6-0.5-2.8-0.8
		c-1.2-0.2-2.1,0.3-2.7,1.6c-0.6,1.4-0.1,2.6,1.7,3.7c0.5,0.3,0.5,0.6,0,0.8c-1.4,0.7-2.5,1.4-3.2,2c-1.8,1.5-2.7,3.2-2.9,5.2
		c0.8-1.6,1.8-2.9,2.9-4.1c1.3-1.3,2.2-2,2.8-2.1c0.3-0.1,0.5,0,0.6,0.2c0.1,0.2,0,0.3-0.2,0.4c-0.9,0.6-1.8,1.3-2.6,2.1
		c-0.9,0.8-2,2.2-3.2,4.2l0.2,0.6c0.9-1.6,1.9-2.8,2.8-3.6c0.8-0.7,1.6-1.2,2.2-1.4c0.3-0.1,0.4,0,0.4,0.3c0,0.3-0.1,0.5-0.4,0.7
		l-1.7,1.1l-3.1,3.6l0.1,0.2l0.5,0.2c0.3,0.2,0.3,0.4,0,0.8c-1.3,0.9-1.8,2-1.7,3.4c0.2,1.4,0.8,2.4,2.1,3.1l1.3,0.4l0.3,0.2l1,1.1
		l1.3,1.8l11.9,0.2l1.2,1.5h1.1l0-1h0.1l0.2-1.3l7.2-1.5l0-0.7h-2.3c-0.2,0-0.3-0.1-0.5-0.2c-0.1-0.1-0.2-0.3-0.2-0.4v-0.6
		c0-0.2,0.1-0.3,0.2-0.5c0.1-0.1,0.3-0.2,0.5-0.2c0.5-0.2,0.8-0.4,0.8-0.5v-1.7c0-0.1,0-0.2,0.1-0.3l-9.4-0.4l-0.2-0.1
		c-0.5-0.2-0.9-0.5-1.4-1c-0.9-1-1.4-2.2-1.6-3.7c-0.2-1.5,0.1-2.8,0.8-3.8c0.4-0.5,0.8-0.8,1.2-1.1l0-0.1H82l2.6-0.8l-1.6-2.1
		c-0.5-0.6-1.7-0.7-3.5-0.1c-1.5,0.5-2.2,0.6-2.1,0.1c0.3-0.7,1.1-1.2,2.5-1.6c1.1-0.3,2.1-0.5,3-0.5c0.8,0,2.2,1.1,4.1,3.4l6.2-2
		c0.5-0.2,1-0.4,1.5-0.4c1.3,0,2.4,0.6,3.4,1.9l0.6-0.2l-0.8-1.6c-0.9-0.2-1.7-0.6-2.5-1.4l-1.4-2.1c-0.9-1.3-1.5-2.1-1.8-2.2
		l-1.8,0l-1.1,0.5h-2C86.8,99.2,86.2,98.9,85.4,98.4 M70.7,112.9l-1.1,1.1c-0.4,0.4-0.6,0.5-0.7,0.2c0-0.2,0.1-0.5,0.4-0.9l0.8-1
		c0.6-0.5,1.1-0.9,1.7-1c0.2-0.1,0.3,0,0.4,0.2s0,0.4-0.3,0.6L70.7,112.9 M70.4,115.8c-0.2,0-0.3-0.2-0.3-0.5c0.1-0.3,0.2-0.6,0.5-1
		c0.2-0.2,0.5-0.4,0.8-0.5c0.2-0.1,0.4,0,0.5,0.2c0.1,0.2,0.1,0.4-0.2,0.5l-0.4,0.3c-0.3,0.3-0.5,0.5-0.5,0.7
		C70.9,115.8,70.7,115.9,70.4,115.8 M177.4,152l3-2.2c0.2-0.2,0.5-0.3,0.8-0.3l-1.3-1.8l-2.7,2.1l0,0.1l0.1,2.4L177.4,152
		 M176,152.6l-0.1-2.3l-13.9-15.2h-0.5l-0.6,0.2l-0.1,0.2l-0.2,0.7l15.1,15.6L176,152.6 M175.7,121.3c0-3.3-1-6.2-3-8.5
		c-2-2.3-4.4-3.5-7.2-3.5c-2.8,0-5.2,1.2-7.2,3.5c-2,2.4-3.1,5.2-3.1,8.5c0,3.3,1,6.2,3.1,8.5c2,2.4,4.4,3.6,7.2,3.6
		c2.8,0,5.2-1.2,7.2-3.6S175.7,124.7,175.7,121.3 M169.4,119.4L169.4,119.4c0.3,0.8,0.5,1.5,0.5,2.4c0,1.4-0.4,2.6-1.3,3.6
		c-0.8,1-1.8,1.5-3,1.5c-1.1,0-2.1-0.4-2.9-1.3c-0.9-0.9-1.4-2-1.4-3.3v-0.5c0-1.4,0.4-2.6,1.2-3.6c0.8-1,1.8-1.5,3.1-1.5
		c0.8,0,1.5,0.2,2.1,0.8C168.4,117.9,168.9,118.5,169.4,119.4L169.4,119.4 M168.9,122.3l-0.7,1.1l-0.4,0.5l-0.9,0.7l-0.6,0.2
		l-0.7,0.1h-1.1l-0.6-0.1l-1-0.5l-0.1,0c0.7,1.1,1.6,1.6,2.7,1.6c0.8,0,1.6-0.3,2.2-1S168.8,123.3,168.9,122.3z"/>
	<path class="st0" d="M181.1,118.6c-0.5-0.4-0.9-0.6-1.3-0.5l-3.5,0.6c-0.4,0-0.7,0.2-0.9,0.5c-0.2,0.3-0.4,0.7-0.3,1.1l0,0.1l0,0
		c0,0.4,0.2,0.7,0.5,1c0.3,0.3,0.6,0.4,0.9,0.4l3.7,0c0.4,0,0.8-0.2,1.2-0.7c0.4-0.5,0.6-0.9,0.6-1.2
		C181.8,119.4,181.5,119,181.1,118.6 M179.1,119.2c0-0.1,0.1-0.1,0.2-0.1c0.1,0,0.2,0,0.1,0.1c-0.2,0.3-0.2,0.7-0.1,1.1
		c0.1,0.4,0.3,0.7,0.6,1c0.1,0,0,0.1-0.1,0.1l-0.3,0c-0.3-0.2-0.5-0.6-0.6-1C178.8,119.9,178.9,119.5,179.1,119.2z"/>
	<path class="st0" d="M102.6,94.2l-0.2-0.1l-0.2,0.1c-0.1,0.3,0,0.7,0.3,1.1c0.3,0.5,0.6,0.8,0.9,0.8l0.2-0.1l0-0.2
		c-0.3-0.2-0.5-0.4-0.6-0.7L102.6,94.2 M110.5,91.3c-0.1-0.1-0.3-0.2-0.4-0.3l-6.2,4.3c-0.1,0.1-0.2,0.1-0.2,0l0-0.2l6.1-4.2
		l-0.5-0.8c-0.1-0.2-0.1-0.5-0.1-0.7l-6.6,4.4l0,0.4l0.3,0.8c0.2,0.3,0.3,0.5,0.6,0.6l0,0l0.3,0.1L110.5,91.3 M110.9,89.6l-0.6-0.6
		l-0.5-0.1c-0.1,0.1-0.2,0.3-0.2,0.6l0.1,0.6l0.1,0.3c0.2,0.3,0.4,0.5,0.6,0.6L111,91c0.1-0.1,0.2-0.3,0.2-0.5l0-0.1L110.9,89.6z"/>
</g>
</svg>
