<?xml version="1.0" encoding="utf-8"?>
<!-- Generator: Adobe Illustrator 25.4.1, SVG Export Plug-In . SVG Version: 6.00 Build 0)  -->
<svg version="1.1" id="PerkClip_1d246b" image-rendering="auto"
	 xmlns="http://www.w3.org/2000/svg" xmlns:xlink="http://www.w3.org/1999/xlink" x="0px" y="0px" viewBox="0 0 240 240"
	 style="enable-background:new 0 0 240 240;" xml:space="preserve">
<style type="text/css">
	.st0{fill:#FFFFFF;}
</style>
<g>
	<rect width="240" height="240"/>
	<path class="st0" d="M57.9,123.7v-0.6H17.5l0.8,0.6C31.5,123.1,44.7,123.1,57.9,123.7 M172.1,127.4c0.6-0.1,0.6-0.2,0-0.3l-1.5,0.1
		l-1.4,0.6c-0.6,0.1-0.6,0.2,0,0.4l1.5-0.1C171.2,127.9,171.6,127.7,172.1,127.4 M174.6,128.1c-0.5,0.1-0.6,0.2-0.5,0.2
		c6.4,0,14.7,0.1,25.1,0.4c0.4,0,1-0.1,1.8-0.4c-10.2-0.2-18.6-0.3-25.1-0.3L174.6,128.1 M224.8,119.7c0.9,0.4,1.4,0.9,1.6,1.6
		l0.4-0.3c-0.3-1-1.2-1.7-2.8-2c-1.3-0.2-2.5-0.2-3.8,0.1c-0.7,0.2-1.3,0.5-1.6,0.9c-0.2,0.3-0.4,0.6-0.4,0.9
		c-0.1,0.2-0.4,0.3-1.1,0.2l-1.5-0.2c-1.8-0.2-3.1,0-4,0.6l-1.1,0.7c-0.1,0.1-0.7,0-1.8-0.3l-1.9-0.7c-1.2-0.2-2.5,0.2-3.9,1.2
		c-1,0.7-2,1.2-3,1.5l-7.4,0.4l-75.4-1.4v0.4l55,0.9c6.2,0.1,10.6,0.1,13.3,0.2l5.6,0.2c1.9,0.1,3.9,0.1,5.9,0.1l11.4-1
		c2.5-0.3,5.7-0.3,9.6,0l9.6,0.4l0.3-0.2c0.1-0.2,0-0.2-0.1-0.2l-9.1-0.4c-3.7-0.2-6.7-0.2-9.1,0l-8.8,1h-0.4l0.4-0.1
		c0.6-0.3,1.3-0.7,2.1-1.2c1.3-1,2.6-1.5,3.9-1.3c0.7,0.1,1.9,0.5,3.8,1.3c0.1,0,0.2-0.1,0.4-0.2c0.7-1,1.9-1.4,3.6-1.4
		c1,0,2.4,0.2,4.1,0.5l0.2-0.1c0.2-0.1,0.2-0.1,0.2-0.2c-0.2-0.7,0.1-1.3,0.8-1.8c0.6-0.3,1.5-0.5,2.5-0.5
		C223,119.2,223.9,119.4,224.8,119.7z"/>
	<path class="st0" d="M190.7,119.7c-0.3,0.4-0.3,0.8,0,1.2l7.6,0l2.1-0.2c1.3-0.2,1.3-0.4,0-0.6l-2.1-0.3L190.7,119.7L190.7,119.7
		 M194.2,108.6c0.6-0.5,0.6-0.7-0.2-0.6l-1.3,0.1l-4.3,1.7v0.1c0,0.5,0.1,0.9,0.4,1v0l4.2-1.7L194.2,108.6 M194.4,101.9l2-1.6
		l0.7-0.8c0-0.2-0.3-0.1-1.1,0.2l-2.2,1.1l-7.5,5v0c-0.1,0.6,0.1,0.9,0.6,1l0,0L194.4,101.9 M202.1,113.5c1.5-0.5,1.5-0.7-0.1-0.7
		l-2.6,0.1l-9.1,1.6l0,0c-0.2,0.3-0.2,0.6-0.1,0.8l0.4,0.4l9-1.6L202.1,113.5 M141.2,116.5L141.2,116.5l-20.2-2.7
		c-2.5-0.1-2.5,0.1-0.1,0.7l20.1,3.2l0.1,0C141.8,117.3,141.8,116.9,141.2,116.5 M126.3,120.6l3.1,0.3l11.1,0l0.1,0
		c0.5-0.4,0.5-0.8,0-1.1l-0.1,0l-10.9,0l-3.2,0.2C124.5,120.1,124.5,120.3,126.3,120.6 M142.1,113.2c0.5-0.3,0.6-0.7,0.3-1.1l0,0
		l-7.4-2l-2.2-0.4l-1,0l0.8,0.6c0.5,0.3,1.2,0.6,1.9,0.9L142.1,113.2L142.1,113.2 M144,108.4c0.6-0.2,0.7-0.5,0.5-1l0,0l-7.7-4.2
		l-2.4-1l-1-0.2c-0.2,0.1,0.1,0.3,0.7,0.8l2,1.4L144,108.4L144,108.4 M150.2,88.6l0.7,2.1l3.6,7.3l0,0c0.6,0.2,0.9,0,1-0.5v-0.1
		l-3.6-7.2l-1.3-1.9l-0.7-0.7C149.9,87.5,149.9,87.9,150.2,88.6 M157.5,84.6l-0.5-0.9c-0.2-0.1-0.2,0.3-0.1,1.1l0.3,2.5l2,8.9l0.1,0
		c0.5,0.3,0.9,0.2,1.1-0.3l0,0l-2-8.7L157.5,84.6 M136.5,95.1l-1.1-0.5c-0.2,0,0,0.3,0.7,1l2,2.1l8.2,6.9h0.1c0.7,0,0.9-0.3,0.7-0.9
		l0,0L136.5,95.1 M139.4,84.2c-0.2,0,0,0.5,0.6,1.6l10.5,14.6l0.1,0c0.7,0.2,1,0,0.9-0.7l0-0.1l-10.8-14.3L139.4,84.2 M194.3,76.6
		c0.7-1.2,1.1-2,1.1-2.2c0-0.3-0.6,0.3-1.7,1.8L179,98.3l-0.1,0.2c-0.1,0.6,0,0.8,0.3,0.9c0.2,0,0.4-0.1,0.7-0.3l0.1-0.1L194.3,76.6
		 M196,87.7c0-0.2-0.5,0.1-1.4,0.9l-12.1,12.6l0,0.1c-0.1,0.4,0,0.6,0.2,0.7h0.6l0.1,0l11.7-13L196,87.7 M163.7,79.6
		c-0.3-2-0.6-2-0.7,0c-0.1,0.9-0.1,2,0,3.4l0.8,12.2l0,0.1c0.5,0.5,0.8,0.5,1.1-0.1v-0.1L163.7,79.6 M179.4,84.1
		c-0.1-0.2-0.3,0.1-0.7,0.9l-1.2,2.4l-3.4,9.1v0.1c0.2,0.6,0.6,0.7,1.1,0.4l0,0l3.4-9l0.7-2.7L179.4,84.1 M173.5,76.2
		c-0.1-0.2-0.3,0.3-0.6,1.5l-3.3,17.6l0,0.1c0.3,0.7,0.7,0.7,1.1,0.2l0-0.1l2.7-17.6L173.5,76.2z"/>
	<path class="st0" d="M81.8,168.6l2.8,2.9l0.1,0.2l1.1-1.6c0.5-0.8,0.7-1.4,0.6-1.8l0-0.1l-0.1-0.1c-0.7-0.6-2.1-0.6-4,0.1
		L81.8,168.6 M103.6,164.5c0.8-1.8,1.1-3.3,0.8-4.3c-0.3-1-1-1.2-2-0.6c-0.5,0.3-1.1,0.9-1.9,1.6l-0.2-0.1l-0.8,3.9
		c-0.1,0.6-0.3,1.1-0.7,1.5c-0.3,0.3-0.8,0.7-1.3,1.1c-1.4,0.9-3.2,1.1-5.2,0.6c-0.2,2.1,0.4,3.4,1.8,3.9c0.9,0.3,1.9,0.3,3.1,0.1
		c1.3-0.3,2.1-0.8,2.5-1.7c0.1-0.2,0.1-0.4-0.1-0.8c-0.1-0.4-0.2-0.6-0.1-0.8c0.1-0.2,0.4-0.4,0.8-0.6l0.9-0.3
		C102,167.4,102.8,166.3,103.6,164.5 M106.5,140.4l1.3-0.1c-0.1-0.6,0-1.2,0.3-1.9c0.3-0.7,0.7-1.2,1.1-1.5c-0.1-0.6-0.5-0.9-1-0.8
		c-0.5,0-0.9,0.2-1.3,0.6c-0.9,0.9-1.4,1.8-1.6,2.7l0.1,0.5C105.5,140.1,105.9,140.3,106.5,140.4 M107.1,135.4
		c-0.3-0.8-0.9-1-1.8-0.5c-0.7,0.4-1.2,1-1.5,1.8c-0.3,0.6-0.5,1-0.6,1.2c-0.1,0.5,0,0.8,0.4,0.9l1.2,0.2l0-0.2
		c0.1-0.6,0.3-1.3,0.8-1.9C106.1,136.2,106.6,135.7,107.1,135.4 M113.3,135.5l-0.4-1.1c-0.7-1.2-1.5-2.1-2.5-2.8
		c-1.2-0.8-2.3-1-3.5-0.6h-0.1l-0.2,0.6c-0.2,0.3-0.5,0.5-0.8,0.6h-1.1c-0.3,0-0.5,0.1-0.8,0.3l-0.5,0.7c-0.4,0.6-0.7,1-0.8,1.4
		c-0.1,0.3-0.2,0.6-0.1,0.7l0.7,0.4l0.2,0.3c0.8-1.5,1.7-2.3,2.7-2.3c0.6,0,1,0.5,1.3,1.5c1-0.1,1.8-0.5,2.2-1.2
		c0-0.1,0.1,0.1,0.2,0.3c0.1,0.3,0.2,0.5,0.1,0.6c-0.2,0.3-0.5,0.6-0.8,0.8l0.5,1c0.8-0.5,1.3-0.4,1.5,0.4c0.2,0.7,0.2,1.5-0.2,2.2
		c0,0.1-0.1-0.1-0.2-0.4c-0.1-0.3-0.2-0.5-0.2-0.6c0.3-0.9,0.2-1.1-0.3-0.9c-0.6,0.3-1,0.8-1.3,1.2c-0.8,1.3-0.8,2-0.1,2.2
		c0.8,0.2,1.6,0,2.3-0.5c0.7-0.4,1.2-1.1,1.7-1.8c0.4-0.8,0.6-1.5,0.6-2.1C113.4,136.2,113.4,135.9,113.3,135.5 M100.3,132.6
		c-2.1,1.3-4.4,2.3-6.9,3c-2.6,0.7-5,1-7.4,0.9l-1.8-0.1l-2.2,4.1l4.8,0.3c2.5,0,4.9-0.3,7.2-0.9c2.6-0.6,4.8-1.4,6.8-2.6
		L100.3,132.6 M94,125.7h-0.7l-5.4,7.9c-0.4,0.5-0.8,0.9-1.2,1c-0.7,0.3-1.2,0.3-1.6,0.2l-0.6,1.2c0.9,0,1.9,0,2.8,0
		c2.3-0.1,4.5-0.5,6.7-1.1c2.3-0.7,4.4-1.6,6.3-2.8l-2.1-14.7l-4.2,7.2V125.7 M95.4,115.1l-3.2-1.1l-0.5,0l-5.6,8.9
		c-1.1,2-2.3,4.2-3.4,6.5c1.4,0.5,2.4,1.1,2.9,1.8c0.3,0.4,0.5,0.9,0.6,1.4c0.1,0.5,0,0.9-0.3,1.4c0.7-0.2,1.3-0.8,2.1-1.8l3.6-5.2
		l6.2-10.4C97.2,115.9,96.4,115.5,95.4,115.1 M83.9,109.1c-0.9-0.4-1.7-0.6-2.2-0.6l-0.9-0.1c0.9,1.2,2.3,2.1,4.2,2.5
		c1.7,0.4,3.3,0.4,4.9,0.1c0-0.2,0.1-0.6,0.2-0.9l0.3-0.6l-1.8,0.3c-0.9,0.1-1.8,0.1-2.5,0.1C85.7,109.7,84.9,109.5,83.9,109.1
		 M92.6,107.1l1-0.9c-0.1-0.5-0.1-1-0.1-1.4c-1.5,0.7-2.7,1.2-3.4,1.4c-1.3,0.4-2.5,0.4-3.7,0.2c-1.5-0.3-2.7-0.9-3.6-1.7
		c0.2,1.1,0.1,2.1-0.3,3l1.3,0.5c0.6,0.2,1,0.4,1.3,0.4c1.5,0.3,3.3,0.2,5.7-0.3l0.5-0.1C91.7,107.8,92.1,107.4,92.6,107.1
		 M94.2,106.9l-0.4,0.5l-1.2,1c-0.4,0.3-0.7,0.6-1,0.9l-0.2,0.2c-0.4,0.6-0.7,1-0.9,1.4l-0.1,0.1l0.1-0.1c0.6-0.7,1.2-1.3,1.8-1.6
		c0.3-0.2,0.6-0.3,0.9-0.4h0.6c0.3,0,0.5,0.1,0.8,0.4c0.1,0.1,0.2,0.2,0.3,0.4c0,0.2,0,0.4-0.1,0.5l-1.7,3.1
		c1.6,0.5,2.8,1.1,3.7,1.6l3.3-5.7c-0.9-0.1-1.9-0.4-3.1-0.9L94.2,106.9 M111,115.9c-1.2-1.7-2.6-3.2-4.1-4.5
		c-0.2,0.3-0.5,0.7-0.8,1c-0.9,0.8-1.8,1-2.7,0.7c-0.3-0.1-0.8-0.3-1.2-0.6c-0.6-0.4-0.9-0.6-0.8-0.8l-2.8,4.5
		c0.1,0.3,0.1,0.5,0,0.7l0.2,1.4c1.7,0.4,3.4,1.5,5.3,3.3c1.7,1.6,2.7,4,2.9,7l0.1,1.9c1.2-0.3,2.3,0,3.5,0.8c1,0.7,1.8,1.6,2.6,2.8
		l0.4-0.9c0.6-1.5,0.9-3.4,0.9-5.6C114.3,122.9,113.2,119,111,115.9 M75.3,171.1c-0.6,0.8-1,1.5-1.3,2c-0.5,0.9-0.6,1.6-0.5,2.2
		c0.2-1.5,1.4-3.1,3.5-5c1.5-1.3,3-2.3,4.5-2.8c1.1-0.4,2-0.6,2.6-0.6c-0.8-0.2-1.6-0.2-2.6,0c-0.9,0.2-1.7,0.4-2.4,0.8
		C77.7,168.5,76.4,169.6,75.3,171.1 M78.7,170.2c-1.3,1-2.3,1.9-3.1,2.9l-1.2,1.6c-0.5,0.9-0.6,1.5-0.3,1.8c0.8,0.7,2,0.9,3.6,0.4
		c1.3-0.3,2.4-0.8,3.4-1.6c1.1-0.8,2.2-1.9,3.2-3.3l-3.2-3.3C80.2,169.2,79.3,169.7,78.7,170.2 M63,157.1c-0.5,0.8-0.4,1.3,0.4,1.7
		l0.9,0.4l1-0.1l0.6-0.6l16.8-28.2l-0.4-0.1l-0.1-0.1c-0.1,0-0.2-0.2-0.2-0.4c0-0.2,0-0.4,0-0.5c1.3-2.6,2.7-5.2,4.2-7.8
		c0.8-1.3,1.6-2.7,2.4-4l2.9-4.5h0.1l0.9,0.2l1.8-3.1c-0.5-0.1-0.9,0-1.4,0.2l-1,0.7c-0.5,0.4-0.9,0.9-1.3,1.5
		c-0.1,0.4-0.5,0.9-1.1,1.7L63,157.1 M74.2,146l-1.2,2c-0.2,2.5-0.1,4.9,0.1,7c0.2,2.1,0.6,4.3,1.3,6.8c0.4,1.5,1.1,3.7,2.1,6.6
		l1-0.8c1-0.8,2.2-1.3,3.4-1.6c1.5-0.4,2.8-0.4,3.8,0.1c0.1-1.5,0-3.3-0.4-5.3c-0.2-1.3-0.6-3-1.2-5.2l-1.3,1.3
		c-0.1,0.1-0.2-0.1-0.3-0.4c-0.1-0.3-0.2-0.5-0.1-0.6c2.2-1.8,3.9-4,5.1-6.6c-1.4-0.3-2.6-0.7-3.7-1.2c-0.1-0.1-0.2-0.3-0.2-0.6
		c-0.1-0.3-0.1-0.4,0.1-0.4c2.3,1,5.4,1.6,9.2,1.7c0.2,0,0.3,0.2,0.3,0.6s0,0.5-0.1,0.5l-4.1-0.3c1,1.2,1.6,3.3,2,6.2l0.1,1.1
		c0.3,2.8,0.3,6,0.2,9.6c1.3,0.6,2.6,0.9,3.9,0.9c1.4,0,2.6-0.5,3.6-1.4c0.5-0.4,0.8-0.8,1-1.2l1.7-8.9c0.4-2.8,0.7-5.3,0.8-7.5
		c0.1-3-0.1-6.5-0.5-10.4c-2.1,1.2-4.5,2.1-7.2,2.7c-2.6,0.5-5.1,0.8-7.7,0.7l-4.2-0.4c-1.1,1.9-2,3.2-2.7,3.9
		C77.6,146.3,76,146.7,74.2,146 M74.8,145.2c1.5,0.3,2.8-0.1,4.1-1.3c0.6-0.7,1.4-1.7,2.2-3.1l3.8-7h0.1l0-0.2
		c0.9-0.6,1.2-1.2,0.7-1.8c-0.4-0.5-1.1-0.9-2.1-1.4l0,0.1L74.8,145.2 M76,134.2c-0.3-0.2-0.5-0.3-0.8-0.5l-0.5,2.6L76,134.2
		 M80.6,108.4c-1.5-0.1-2.9,0.1-4.3,0.5c-3.1,0.9-5.7,2.8-7.8,5.6c-2.2,2.9-3.2,6-3.1,9.2c0.1,2.5,0.6,4.3,1.6,5.2
		c1.2,1.1,2.7,1.5,4.5,1.2c1.6-0.3,3-0.9,4.2-2h0.2l1.2-6.8c-0.6-0.2-1.2-0.2-1.8,0.2c-0.5,0.3-1,0.7-1.5,1.2
		c-0.1,0.1-0.2,0.1-0.3-0.1c-0.1-0.1-0.2-0.2-0.1-0.3c0.5-0.6,1.1-1,1.7-1.3l2-0.1l1.1-6.5c0-0.1,0.1,0,0.2,0.2
		c0.1,0.3,0.2,0.5,0.2,0.6l-3.3,18l0.9,0.6l5.1-8.2h-0.2v-6.8h-0.9v-1.6l3.3-0.5v5.2l1.9-3.2h-0.2v-1.6l1.4-0.2l3.2-5.2l0.2-0.5
		l-0.8,0.1c-1.8,0.2-3.4,0-4.9-0.4C82.6,110.6,81.3,109.7,80.6,108.4 M114.8,91.4c2,1.9,3.6,3.5,4.6,4.8l1.7,2
		c0.8,1.1,1.2,1.9,1.2,2.6l0.9-0.2c0.1-0.5-0.2-1.2-0.9-2.2l-6.8-7.4L114.8,91.4 M116.6,90.1l-0.8,0.6c2,1.9,3.5,3.5,4.6,4.8
		l1.5,1.9c0.5,0.8,0.9,1.4,1.2,2l0.3,1.1l0.8-0.2c0.3-0.1,0.5-0.3,0.6-0.4c0.1-0.2,0-0.6-0.3-1.1l-2.2-2.8l-5.6-5.8H116.6
		 M109.6,95.5c-1.1,0.9-1.9,1.6-2.4,2c-0.8,0.8-1.4,1.6-1.9,2.4l-1.1,1.7c-0.5,0.5-1,0.9-1.5,1.2l-5.2,2.4l-0.5-0.1l-1.1-0.6
		l-1.2,1.7l3.1,1.4c1.1,0.4,2.1,0.6,3,0.6c0.1,0,0.2,0.1,0.3,0.4l0.1,0.6l-0.1,0.1l-3.5,6l0.3,0.2v0l3.1-4.8h0.2
		c0.8,0.8,1.6,1.2,2.6,1.3c1.1,0.1,1.9-0.4,2.5-1.3v0l0.4-0.5l0.1-0.1c0.1-0.3,0.1-0.5,0-0.6l-0.9-0.7c-0.4-0.2-0.8-0.4-1.1-0.5h0
		c-0.1-0.1-0.2-0.2-0.3-0.5s-0.1-0.4,0.1-0.5c1.2-1,2.5-1.9,3.8-2.8c1.5-1,3.3-1.7,5.4-2.1l8.3-1.6c0.1-0.4-0.2-1.2-0.8-2.2
		l-6.5-7.1L109.6,95.5 M102.6,108.8c0.2-0.2,0.4-0.3,0.7-0.4l0.3,0c0.4-0.1,0.8,0,1.1,0.2c0.3,0.2,0.5,0.4,0.6,0.8l0.1,0.3v0.6
		l-0.2,0.7v0.1c-0.2,0.4-0.5,0.7-0.9,0.9c-0.4,0.2-0.8,0.1-1.1-0.2c-0.3-0.3-0.6-0.6-0.8-1.1c-0.2-0.5-0.2-0.9-0.1-1.3
		C102.2,109.1,102.4,108.9,102.6,108.8 M103.8,109.4c-0.3,0.1-0.5,0.2-0.7,0.3l-0.4,0.3c-0.2,0.1-0.2,0.3-0.2,0.4l0.4,0.5
		c0.2,0.2,0.4,0.2,0.7,0.2c0.5,0,0.9-0.3,1.2-0.9l0.1-0.2L103.8,109.4 M94.9,82.9c-0.5-0.5-1-0.9-1.3-1l-1.9-0.2
		c-0.9,0-1.5-0.2-1.8-0.5c-0.8-0.9-1.4-1.4-1.8-1.7c-0.7-0.5-1.5-0.4-2.2,0.2l-1.4,1.2l-0.8,0.3l-0.8,0.1c-0.7,0.2-1.2,0.5-1.6,0.9
		c-0.2,0.2-0.5,0.7-1,1.6l-1.2,1.2c-0.6,0.4-1,0.8-1.2,1.1c-0.9,1.1-1.5,2.2-1.8,3.2c-0.4,1.4-0.4,3.1-0.1,5.1
		c0.4,1.8,1.1,3.3,2,4.6c0.7,1,1.4,1.9,2,2.6c0.6,0.6,1.2,1.1,1.5,1.3l1,0.4v0.1c0.5,0.6,1.2,1.1,2.1,1.5c0.8,0.4,1.6,0.6,2.5,0.6
		c1.2,0.1,2.4-0.1,3.7-0.6l3.4-1.6l1.6-1.2c1.4-1.4,2.4-3,3.1-5.1c0.6-1.9,0.9-3.9,0.7-5.9l-0.1-4c0-1.7-0.6-3.2-1.7-4.5
		c0.2,0.3,0.2,0.6-0.2,1c-0.4,0.4-0.7,0.5-1.1,0.3C96,83.8,95.5,83.4,94.9,82.9 M81.7,85.7c0,0.2,0,0.4-0.1,0.4
		c-1.3,0.4-2.3,1.2-3,2.4c-0.7,1.1-1,2.4-1,3.8c0,0.2-0.1,0.3-0.2,0.2s-0.1-0.2-0.1-0.4c-0.1-1.5,0.2-2.9,0.9-4.1
		c0.8-1.3,1.8-2.2,3.2-2.6C81.5,85.4,81.6,85.5,81.7,85.7 M83.2,84.6c0,0.1-0.2,0.2-0.4,0.3c-0.3,0-0.4,0-0.4-0.1
		c0-0.6,0.3-1.2,0.9-1.8c0.5-0.4,1.1-0.7,1.8-0.9c1.9-0.6,3.7-0.3,5.3,0.7c0.1,0,0,0.1-0.2,0.2l-0.6,0c-0.8-0.4-1.5-0.7-2.3-0.8
		c-0.9-0.1-1.7,0-2.4,0.3C83.8,83.1,83.2,83.8,83.2,84.6 M81.6,86.1c0.1-0.1,0.2,0,0.3,0.4c0.1,0.4,0.1,0.6,0,0.8
		c-1.7,2.2-2.1,4.9-1.2,7.9s2.7,5.1,5.4,6.1c0.2,0.1,0.3,0.3,0.3,0.8c0,0.4-0.1,0.6-0.2,0.5c-3.1-1.1-5.1-3.5-6.1-7.2
		C79.1,91.7,79.6,88.6,81.6,86.1 M83.2,86.5c0-0.4,0.1-0.5,0.3-0.4c2,1.9,3.4,4.1,4.3,6.7c0.9,2.7,1,5.3,0.3,7.9
		c-0.1,0.3-0.2,0.3-0.3,0s-0.2-0.6-0.2-0.8c0.5-2.3,0.4-4.6-0.4-6.9c-0.8-2.2-2-4.1-3.8-5.7C83.2,87.1,83.2,86.9,83.2,86.5
		 M83.6,85.1c0-0.4,0-0.6,0.2-0.6c2.7,0.2,5,1.3,6.8,3.4c1.9,2.2,2.5,4.6,1.9,7.2c-0.1,0.3-0.2,0.3-0.3-0.1
		c-0.1-0.3-0.2-0.6-0.2-0.8c0.5-2.2-0.2-4.2-2-5.9c-1.7-1.6-3.6-2.5-5.9-2.6C83.8,85.8,83.7,85.6,83.6,85.1 M96.2,96.2
		c0.2,0.3,0.3,0.5,0.3,0.8c-0.1,1.4-0.4,2.7-1.1,3.7c-0.7,1.1-1.8,1.8-3.1,2.1c-0.2,0-0.3-0.2-0.4-0.6c-0.1-0.4,0-0.7,0.2-0.7
		c1.2-0.2,2.1-0.8,2.8-1.8c0.6-0.9,1-1.9,1-3.2C95.9,96,96,95.9,96.2,96.2z"/>
</g>
</svg>
