<?xml version="1.0" encoding="utf-8"?>
<!-- Generator: Adobe Illustrator 25.4.1, SVG Export Plug-In . SVG Version: 6.00 Build 0)  -->
<svg version="1.1" id="PerkClip_1d246b" image-rendering="auto"
	 xmlns="http://www.w3.org/2000/svg" xmlns:xlink="http://www.w3.org/1999/xlink" x="0px" y="0px" viewBox="0 0 240 240"
	 style="enable-background:new 0 0 240 240;" xml:space="preserve">
<style type="text/css">
	.st0{fill:#FFFFFF;}
</style>
<g>
	<rect width="240" height="240"/>
	<path class="st0" d="M57.9,123.7v-0.6H17.5l0.8,0.6C31.5,123.1,44.7,123.1,57.9,123.7 M172.1,127.4c0.6-0.1,0.6-0.2,0-0.3l-1.5,0.1
		l-1.4,0.6c-0.6,0.1-0.6,0.2,0,0.4l1.5-0.1C171.2,127.9,171.6,127.7,172.1,127.4 M174.6,128.1c-0.5,0.1-0.6,0.2-0.5,0.2
		c6.4,0,14.7,0.1,25.1,0.4c0.4,0,1-0.1,1.8-0.4c-10.2-0.2-18.6-0.3-25.1-0.3L174.6,128.1 M226.8,121c-0.3-1-1.2-1.7-2.8-2
		c-1.3-0.2-2.5-0.2-3.8,0.1c-0.7,0.2-1.3,0.5-1.6,0.9c-0.2,0.3-0.4,0.6-0.4,0.9c-0.1,0.2-0.4,0.3-1.1,0.2l-1.5-0.2
		c-1.8-0.2-3.1,0-4,0.6l-1.1,0.7c-0.1,0.1-0.7,0-1.8-0.3l-1.9-0.7c-1.2-0.2-2.5,0.2-3.9,1.2c-1,0.7-2,1.2-3,1.5l-7.4,0.4l-75.4-1.4
		v0.4l55,0.9c6.2,0.1,10.6,0.1,13.3,0.2l5.6,0.2c1.9,0.1,3.9,0.1,5.9,0.1l11.4-1c2.5-0.3,5.7-0.3,9.6,0l9.6,0.4l0.3-0.2
		c0.1-0.2,0-0.2-0.1-0.2l-9.1-0.4c-3.7-0.2-6.7-0.2-9.1,0l-8.8,1h-0.4l0.4-0.1c0.6-0.3,1.3-0.7,2.1-1.2c1.3-1,2.6-1.5,3.9-1.3
		c0.7,0.1,1.9,0.5,3.8,1.3c0.1,0,0.2-0.1,0.4-0.2c0.7-1,1.9-1.4,3.6-1.4c1,0,2.4,0.2,4.1,0.5l0.2-0.1c0.2-0.1,0.2-0.1,0.2-0.2
		c-0.2-0.7,0.1-1.3,0.8-1.8c0.6-0.3,1.5-0.5,2.5-0.5c1,0,1.9,0.2,2.8,0.5c0.9,0.4,1.4,0.9,1.6,1.6L226.8,121z"/>
	<path class="st0" d="M190.7,119.7c-0.3,0.4-0.3,0.8,0,1.2l7.6,0l2.1-0.2c1.3-0.2,1.3-0.4,0-0.6l-2.1-0.3L190.7,119.7L190.7,119.7
		 M194.2,108.6c0.6-0.5,0.6-0.7-0.2-0.6l-1.3,0.1l-4.3,1.7v0.1c0,0.5,0.1,0.9,0.4,1v0l4.2-1.7L194.2,108.6 M194.4,101.9l2-1.6
		l0.7-0.8c0-0.2-0.3-0.1-1.1,0.2l-2.2,1.1l-7.5,5v0c-0.1,0.6,0.1,0.9,0.6,1l0,0L194.4,101.9 M202.1,113.5c1.5-0.5,1.5-0.7-0.1-0.7
		l-2.6,0.1l-9.1,1.6l0,0c-0.2,0.3-0.2,0.6-0.1,0.8l0.4,0.4l9-1.6L202.1,113.5 M141.2,116.5L141.2,116.5l-20.2-2.7
		c-2.5-0.1-2.5,0.1-0.1,0.7l20.1,3.2l0.1,0C141.8,117.3,141.8,116.9,141.2,116.5 M126.3,120.6l3.1,0.3l11.1,0l0.1,0
		c0.5-0.4,0.5-0.8,0-1.1l-0.1,0l-10.9,0l-3.2,0.2C124.5,120.1,124.5,120.3,126.3,120.6 M142.1,113.2c0.5-0.3,0.6-0.7,0.3-1.1l0,0
		l-7.4-2l-2.2-0.4l-1,0l0.8,0.6c0.5,0.3,1.2,0.6,1.9,0.9L142.1,113.2L142.1,113.2 M144,108.4c0.6-0.2,0.7-0.5,0.5-1l0,0l-7.7-4.2
		l-2.4-1l-1-0.2c-0.2,0.1,0.1,0.3,0.7,0.8l2,1.4L144,108.4L144,108.4 M150.2,88.6l0.7,2.1l3.6,7.3l0,0c0.6,0.2,0.9,0,1-0.5v-0.1
		l-3.6-7.2l-1.3-1.9l-0.7-0.7C149.9,87.5,149.9,87.9,150.2,88.6 M157.5,84.6l-0.5-0.9c-0.2-0.1-0.2,0.3-0.1,1.1l0.3,2.5l2,8.9l0.1,0
		c0.5,0.3,0.9,0.2,1.1-0.3l0,0l-2-8.7L157.5,84.6 M136.5,95.1l-1.1-0.5c-0.2,0,0,0.3,0.7,1l2,2.1l8.2,6.9h0.1c0.7,0,0.9-0.3,0.7-0.9
		l0,0L136.5,95.1 M139.4,84.2c-0.2,0,0,0.5,0.6,1.6l10.5,14.6l0.1,0c0.7,0.2,1,0,0.9-0.7l0-0.1l-10.8-14.3L139.4,84.2 M194.3,76.6
		c0.7-1.2,1.1-2,1.1-2.2c0-0.3-0.6,0.3-1.7,1.8L179,98.3l-0.1,0.2c-0.1,0.6,0,0.8,0.3,0.9c0.2,0,0.4-0.1,0.7-0.3l0.1-0.1L194.3,76.6
		 M196,87.7c0-0.2-0.5,0.1-1.4,0.9l-12.1,12.6l0,0.1c-0.1,0.4,0,0.6,0.2,0.7h0.6l0.1,0l11.7-13L196,87.7 M163.7,79.6
		c-0.3-2-0.6-2-0.7,0c-0.1,0.9-0.1,2,0,3.4l0.8,12.2l0,0.1c0.5,0.5,0.8,0.5,1.1-0.1v-0.1L163.7,79.6 M179.4,84.1
		c-0.1-0.2-0.3,0.1-0.7,0.9l-1.2,2.4l-3.4,9.1v0.1c0.2,0.6,0.6,0.7,1.1,0.4l0,0l3.4-9l0.7-2.7L179.4,84.1 M173.5,76.2
		c-0.1-0.2-0.3,0.3-0.6,1.5l-3.3,17.6l0,0.1c0.3,0.7,0.7,0.7,1.1,0.2l0-0.1l2.7-17.6L173.5,76.2z"/>
	<path class="st0" d="M85.9,161.4L85.9,161.4l-0.2-0.1c-0.8-0.3-1.9,0.1-3.4,1.2l-0.6,0.4l3.7,1.9l0.2,0.2
		C86.3,163.1,86.4,161.9,85.9,161.4 M101.2,166.4c0.5-0.7,0.9-1.4,1.1-1.9c0.3-0.8,0.4-1.5,0.3-2.2c-0.1-1.2-0.7-1.7-1.5-1.4
		c-0.7,0.2-1.4,0.6-2.1,1.3c0,0.1-0.1,0.1-0.2,0l-1.4,4.6l-0.2,0.3c-1,0.9-1.9,1.6-2.8,2.1c-1.1,0.6-2.2,0.8-3.2,0.6l-1-0.3
		c-0.1,1.9,0.4,3.1,1.6,3.6c0.8,0.4,1.8,0.4,3,0.2c1.2-0.2,2.1-0.7,2.7-1.5c0.2-0.2,0.2-0.5,0.1-0.9l-0.1-0.9c0-0.2,0.2-0.4,0.5-0.6
		l0.8-0.3c0.5-0.2,0.9-0.6,1.3-1.1L101.2,166.4 M103.1,137.7c-0.6,0.2-1.1,0.6-1.7,1.2l0.2,2.9l0.6,0.1l0.1,0c0-0.6,0.2-1.2,0.6-1.9
		c0.4-0.6,0.8-1.1,1.4-1.4C104.3,137.7,103.8,137.4,103.1,137.7 M101.2,137.6c0.4-0.4,0.8-0.7,1.2-0.9c-0.1-0.7-0.6-1-1.4-0.8
		L101.2,137.6 M100.3,132.6c-2.1,1.3-4.4,2.3-6.9,3c-2.5,0.7-5,1-7.4,0.9l-1.9-0.1l-2.3,4l5,0.3c2.5,0,4.9-0.2,7.2-0.8
		c2.5-0.6,4.8-1.4,6.8-2.6L100.3,132.6 M100.7,133.2l0.2,1.8c1-0.2,1.6,0.4,1.8,1.7h0.6c0.7-0.1,1.3-0.3,1.8-0.8
		c0.1-0.1,0.2,0,0.3,0.3c0.1,0.3,0.1,0.5,0,0.6c-0.3,0.3-0.6,0.5-1,0.7c0.1,0.3,0.2,0.6,0.2,1c0.8-0.3,1.3,0,1.4,0.8
		c0.1,0.7,0,1.4-0.4,2.1c-0.1,0.1-0.2-0.1-0.2-0.4c-0.1-0.3-0.2-0.5-0.1-0.6l0.4-0.8c0.1-0.3-0.1-0.4-0.6-0.2
		c-0.6,0.2-1.2,0.7-1.8,1.4l-0.6,0.9c-0.2,0.5-0.1,0.8,0.2,0.9c0.8,0.3,1.7,0.3,2.6-0.2c0.8-0.4,1.5-0.9,2-1.7
		c0.4-0.6,0.6-1.2,0.8-1.8c0.1-0.6,0.1-1.3-0.1-2v-0.2c-0.5-1.3-1.1-2.3-2-3.1c-1-0.9-2.1-1.3-3.3-1.2l-0.1-0.1
		c-0.2,0.4-0.4,0.7-0.8,0.8C101.8,133.3,101.3,133.3,100.7,133.2 M94.1,125.8h-0.7l-5.5,7.8c-0.4,0.5-0.9,0.8-1.3,1l-1.7,0.1
		l-0.6,1.2c0.9,0.1,1.9,0.1,2.9,0.1c2.3-0.1,4.5-0.5,6.7-1.1c2.3-0.7,4.4-1.6,6.3-2.8l-2-14.2l-4.2,6.8V125.8 M88.8,118.8
		c-0.8,1.2-1.5,2.4-2.3,3.8l-0.1,0.2c-1.2,1.9-2.3,4-3.6,6.3c1.4,0.5,2.4,1.1,2.9,1.9c0.3,0.4,0.5,0.9,0.5,1.4c0,0.5-0.1,1-0.3,1.4
		c0.6-0.2,1.3-0.8,2-1.8l10.2-15.4c-0.6-0.5-1.4-1-2.4-1.5l-3.1-1.2l-0.5-0.1L88.8,118.8 M83.2,108.9l-1-0.4l-1.4-0.2
		c0.9,1.2,2.3,2.1,4.3,2.5c1.7,0.4,3.4,0.4,5,0.1l0.3-0.1c0-0.2,0.1-0.5,0.2-0.8l0.3-0.6l-3.5,0.4C86,109.8,84.6,109.5,83.2,108.9
		 M92,108l1.7-1.5c-0.2-0.7-0.2-1.3-0.2-1.9c-1.5,0.8-2.7,1.2-3.4,1.5c-1.3,0.4-2.5,0.5-3.7,0.2c-1.5-0.3-2.7-0.9-3.6-1.7
		c0.2,1.2,0.1,2.2-0.3,3.1l1.6,0.6c1.4,0.4,3,0.6,4.8,0.3L92,108 M94.7,106.9l-0.5,0.5l-2,1.7l-0.3,0.4l-0.9,1.4l0.4-0.5
		c0.5-0.5,1-0.9,1.5-1.1l0.3-0.1c0.2-0.1,0.5-0.2,0.7-0.2c0.5,0,0.9,0.1,1.3,0.4c0.1,0.1,0.2,0.2,0.2,0.4c0.1,0.2,0.1,0.4,0,0.5
		l-1.8,3.1c1.5,0.5,2.7,1.1,3.6,1.7v0l3.5-5.6c-0.9-0.2-1.9-0.5-3.1-1.1L94.7,106.9 M106.7,112.6l-0.2,0.2c-0.9,0.7-1.9,1-2.8,0.7
		c-0.3-0.1-0.7-0.4-1.2-0.7c-0.6-0.4-0.9-0.6-0.8-0.8l-2.9,4.4c0.1,0.3,0.1,0.5,0,0.7l-0.1,0.2l0.2,2.2c0.3,0.1,0.6,0.3,0.9,0.6
		l0.7,0.8c0.8,0.9,1.4,1.7,1.8,2.3c0.6,0.9,0.9,1.8,1.1,2.6c0.4,2,0.4,3.9,0.1,5.6l-0.1,0.4c1.2-0.1,2.3,0.4,3.3,1.4
		c0.8,0.8,1.5,1.8,2,3.1l0.7-0.9c0.8-1.4,1.4-3.3,1.8-5.6c0.6-4.3,0.2-8.2-1.3-11.9C108.8,115.8,107.8,114,106.7,112.6 M77.1,173.1
		c0.9,0.4,1.9,0.2,3.2-0.6c1.1-0.6,1.9-1.3,2.6-2.2c0.9-1.1,1.7-2.6,2.4-4.4l0-0.1l-4.2-2.1l0-0.1c-0.8,0.7-1.4,1.4-1.9,2.1
		c-0.9,1.3-1.6,2.6-2,3.8l-0.6,1.9C76.4,172.3,76.6,172.8,77.1,173.1 M80.9,161.5c-0.7,0.4-1.3,0.9-1.9,1.4c-1,1-1.8,2.2-2.4,3.6
		c-0.4,1.2-0.7,2.1-0.8,2.8c-0.2,1.2-0.1,2.1,0.4,2.8v-0.8c0.1-1.4,0.6-2.9,1.4-4.5c1-1.9,2.2-3.4,3.7-4.6c0.8-0.7,1.5-1.1,2-1.4
		C82.5,160.8,81.7,161.1,80.9,161.5 M63.8,158.6l1-0.1l0.5-0.6l2.3-3.7l0.1-0.1l14.9-24.1l-0.4-0.2c-0.1,0-0.2-0.2-0.2-0.4
		c0-0.3,0-0.4,0-0.6l3.8-6.7c1-1.8,2.1-3.5,3.2-5.2l2.8-4.2h0.1l0.9,0.3l1.8-3.1c-0.7-0.2-1.4,0.1-2.2,0.6c-0.6,0.4-1.1,1-1.6,1.7
		l-0.5,0.8l-0.7,0.8l-27.2,42.5c-0.5,0.7-0.4,1.3,0.4,1.7L63.8,158.6 M78.6,143.6c0.7-0.6,1.4-1.6,2.2-2.9l3.9-7l0.1-0.1
		c0.8-0.4,1.1-0.9,0.9-1.4l-0.2-0.3l-0.8-0.7l-1.2-0.8l0,0.1l-9,14.4C75.9,145.3,77.3,144.8,78.6,143.6 M78.8,144.6
		c-1.5,1.4-3.1,1.8-4.9,1.1l-3.4,5.6l0.1,0.4c0.2,1,0.6,2.1,1.2,3.5c1.3,3,2.9,6.1,4.9,9.4c0.3-0.5,0.5-0.8,0.7-1.1
		c0.8-1,1.7-1.9,2.8-2.6c1.3-0.9,2.5-1.2,3.7-1.2c0-1.9-0.3-3.7-0.9-5.5l-1.2,0.7c-0.1,0-0.2-0.1-0.3-0.4c-0.1-0.3-0.1-0.5,0-0.6
		c1.1-0.6,2-1.3,2.9-2.1c0.9-0.9,1.7-1.8,2.2-2.9c-1.3-0.4-2.4-0.9-3.3-1.6c-0.1-0.1-0.2-0.3-0.2-0.6c-0.1-0.3-0.1-0.5,0-0.4
		c2,1.5,4.9,2.4,8.8,2.4c0.2,0,0.3,0.2,0.3,0.5s0,0.5-0.1,0.5l-4-0.4c0.8,0.8,1.3,2.1,1.5,3.7c0.2,1.1,0.2,2.4,0.2,4
		c-0.1,3.1-0.4,6.7-0.9,10.6c0.3,0.3,0.6,0.5,1,0.6c0-0.2,0.1-0.2,0.2,0.1c1,0.4,2.1,0.3,3.2-0.1c1-0.3,2-0.9,3-1.8
		c0.3-0.3,0.6-0.6,0.8-1.1l0.5-1.5c1-3.2,1.8-5.6,2.2-7.3c0.7-2.8,1.2-5.3,1.4-7.6c0.1-1.2,0.1-2.6,0.1-4.1l-0.5-6.6l0-0.3
		c-2.1,1.2-4.6,2-7.2,2.6c-2.5,0.5-5.1,0.8-7.7,0.6l-4.4-0.3C80.5,142.7,79.5,143.9,78.8,144.6 M75.3,133.7l-0.2,1.1l-0.5,0.9
		c-0.5,0.9-0.9,1.6-1.2,2.2l-0.3,0.5l2.8-4.3L75.3,133.7 M80.5,108.2c-1.7-0.1-3.2,0.1-4.7,0.5c-2.7,0.8-5,2.6-7,5.3
		c-1.8,2.5-3,5.2-3.5,8.2c-0.3,1.8-0.2,3.6,0.2,5.4c0.5,1.8,1.3,3.3,2.5,4.8c1.9,2.2,3.7,3.2,5.4,3.1c0.1,0,0.1,0.1,0.2,0.2l1-1.8
		l0.2-0.9l0.5-2.6c-1.5-1.6-2.1-3.8-1.7-6.5c0.4-2.7,1.6-4.5,3.7-5.2l0.1,0.1l0.8-4.4c0-0.1,0.1,0,0.2,0.2c0.1,0.3,0.2,0.5,0.2,0.6
		l-1.1,6.1c0.1,0.1,0.1,0.2,0,0.2l-1.7,8.9l0.1,0.5c0,0.1,0,0.1-0.1,0l-0.5,2.4l0.7,0.5l5.3-8.2h-0.2l0.1-6.8l-1-0.1l0.1-1.5
		l3.3-0.4l-0.1,5.2l2-3.1h-0.2l0-1.7l1.4-0.1l3.6-5.6l-0.1-0.1l-1,0.1c-1.8,0.2-3.5,0-5-0.4C82.5,110.6,81.2,109.6,80.5,108.2
		 M115.3,92.1c-1.8,1.3-3.5,2.6-5.1,3.8l-2.4,2c-0.8,0.7-1.5,1.5-2,2.4l-1.1,1.6c-0.5,0.5-1,0.9-1.5,1.2l-5.2,2.4l-0.5-0.1l-1.1-0.6
		l-1.2,1.7l3,1.4c1.2,0.5,2.2,0.7,3.1,0.8c0.1,0,0.2,0.1,0.2,0.4c0.1,0.3,0.1,0.4,0,0.6v0.1l-3.7,5.9l0.3,0.3l0.1-0.1l3.2-4.7h0.1
		c0.8,0.8,1.7,1.3,2.7,1.4c0.8,0.1,1.5-0.1,2-0.6l0.3-0.4l0.6-0.8c0.2-0.3,0.2-0.5,0.1-0.7c-0.3-0.3-0.6-0.5-0.9-0.7l-1.1-0.6
		c-0.1-0.1-0.2-0.2-0.2-0.5s-0.1-0.4,0-0.5l3.8-2.7c1.5-0.9,3.3-1.6,5.4-2l7.2-1.2h0.2l0.1-0.1l0.9-0.2c0.1-0.4-0.1-1.1-0.8-2.1
		L115.3,92.1 M102.9,109.1c0.2-0.2,0.4-0.3,0.8-0.4c0.5-0.2,1-0.1,1.4,0.2c0.3,0.3,0.5,0.6,0.6,1.1l0,0.6l-0.1,0.6l-0.1,0.1v0.1
		c-0.2,0.4-0.5,0.7-0.9,0.9c-0.4,0.2-0.8,0.1-1.2-0.2c-0.3-0.3-0.6-0.6-0.8-1.1c-0.2-0.5-0.2-0.9,0-1.3L102.9,109.1 M103.1,110.2
		c-0.2,0.2-0.2,0.3-0.2,0.4c0.1,0.2,0.2,0.4,0.4,0.6c0.2,0.2,0.4,0.2,0.6,0.2c0.4,0,0.8-0.2,1.1-0.7l-1.1-0.9l-0.5,0.1L103.1,110.2
		 M117.5,90.6l-1,0.7c1.9,1.8,3.4,3.4,4.5,4.8l1.4,1.9c0.6,0.8,1,1.5,1.2,2.1l0.3,1.1c0.9-0.2,1.3-0.4,1.4-0.6
		c0.1-0.2,0-0.6-0.3-1.1l-2.1-2.9L117.5,90.6 M116.2,91.5l-0.7,0.5c1.9,1.8,3.4,3.4,4.5,4.9l1.6,2c0.8,1.1,1.1,1.9,1.1,2.6l1-0.2
		c0.1-0.5-0.2-1.2-0.9-2.2L116.2,91.5 M94.9,82.8c-0.5-0.5-1-0.9-1.3-1.1l-1.9-0.2c-0.9,0-1.5-0.2-1.8-0.5c-0.8-0.8-1.4-1.4-1.8-1.7
		c-0.7-0.5-1.5-0.4-2.2,0.1l-1.4,1.2l-1.7,0.4c-0.7,0.2-1.2,0.5-1.6,0.9c-0.2,0.2-0.5,0.8-1,1.6c-0.2,0.4-0.6,0.8-1.2,1.2
		c-0.6,0.5-1,0.8-1.2,1.1c-0.9,1.2-1.5,2.3-1.8,3.3c-0.4,1.4-0.4,3.1-0.1,5c0.4,1.8,1.1,3.4,2,4.6c0.7,1.1,1.4,1.9,2,2.6
		c0.6,0.6,1.2,1.1,1.5,1.4l1,0.4v0.1c0.5,0.6,1.2,1.1,2.1,1.5c0.8,0.4,1.7,0.6,2.5,0.6c1.2,0.1,2.4-0.1,3.7-0.6l3.4-1.6l1.6-1.2
		c1.4-1.4,2.4-3.1,3.1-5.1c0.6-1.9,0.9-3.9,0.7-5.9l-0.1-3.9c0-1.8-0.6-3.3-1.7-4.5c0.2,0.3,0.2,0.6-0.2,0.9
		c-0.4,0.4-0.7,0.5-1.1,0.3C96,83.7,95.5,83.4,94.9,82.8 M81.7,85.6c0,0.2,0,0.3-0.1,0.4c-1.3,0.4-2.3,1.2-3,2.4
		c-0.7,1.1-1,2.4-1,3.8c0,0.2-0.1,0.3-0.2,0.2c-0.1-0.1-0.1-0.2-0.1-0.3c-0.1-1.5,0.2-2.9,0.9-4.1c0.8-1.3,1.8-2.2,3.2-2.6
		C81.5,85.3,81.6,85.4,81.7,85.6 M81.6,86c0.1-0.1,0.2,0,0.3,0.4c0.1,0.4,0.1,0.7,0,0.9c-1.7,2.2-2.1,4.9-1.2,7.9s2.7,5.1,5.4,6.1
		c0.2,0.1,0.3,0.4,0.3,0.8c0,0.4-0.1,0.6-0.2,0.6c-3.1-1.1-5.1-3.6-6.1-7.2C79.1,91.6,79.6,88.5,81.6,86 M83.2,86.4
		c0-0.4,0.1-0.5,0.3-0.3c2,1.9,3.4,4.1,4.3,6.7c0.9,2.7,1,5.3,0.3,7.9c-0.1,0.3-0.2,0.3-0.3,0c-0.2-0.3-0.2-0.6-0.2-0.8
		c0.5-2.3,0.4-4.6-0.4-6.9c-0.8-2.2-2-4.1-3.8-5.8C83.2,87.1,83.2,86.8,83.2,86.4 M82.8,84.9l-0.4-0.1c0-0.6,0.3-1.2,0.9-1.7
		c0.5-0.4,1.1-0.7,1.8-0.9c1.9-0.5,3.7-0.3,5.3,0.6c0.1,0.1,0,0.1-0.3,0.2l-0.5,0.1c-1.1-0.6-2.3-0.9-3.8-0.8
		c-1.7,0.2-2.6,0.9-2.6,2.2C83.2,84.7,83.1,84.8,82.8,84.9 M84,85.8c-0.2,0-0.3-0.2-0.3-0.6c-0.1-0.5,0-0.7,0.2-0.7
		c2.7,0.2,5,1.3,6.8,3.4c1.8,2.2,2.5,4.6,1.9,7.2c-0.1,0.3-0.2,0.3-0.3,0c-0.1-0.4-0.2-0.6-0.2-0.8c0.5-2.2-0.2-4.2-2-5.9
		C88.2,86.8,86.3,85.9,84,85.8 M95.9,96.3c0-0.4,0.1-0.4,0.3-0.2c0.2,0.3,0.3,0.5,0.3,0.8c-0.1,1.4-0.4,2.7-1.1,3.7
		c-0.7,1.1-1.8,1.8-3.1,2.1c-0.2,0.1-0.3-0.1-0.4-0.6c-0.1-0.4,0-0.7,0.2-0.7c1.2-0.2,2.1-0.8,2.8-1.8
		C95.5,98.7,95.9,97.6,95.9,96.3z"/>
</g>
</svg>
