<?xml version="1.0" encoding="utf-8"?>
<!-- Generator: Adobe Illustrator 25.4.1, SVG Export Plug-In . SVG Version: 6.00 Build 0)  -->
<svg version="1.1" id="PerkClip_1d246b" image-rendering="auto"
	 xmlns="http://www.w3.org/2000/svg" xmlns:xlink="http://www.w3.org/1999/xlink" x="0px" y="0px" viewBox="0 0 240 240"
	 style="enable-background:new 0 0 240 240;" xml:space="preserve">
<style type="text/css">
	.st0{fill:#FFFFFF;}
</style>
<g>
	<rect width="240" height="240"/>
	<path class="st0" d="M57.9,123.7v-0.6H17.5l0.8,0.6C31.5,123.1,44.7,123.1,57.9,123.7 M172.1,127.4c0.6-0.1,0.6-0.2,0-0.3l-1.5,0.1
		l-1.4,0.6c-0.6,0.1-0.6,0.2,0,0.4l1.5-0.1C171.2,127.9,171.6,127.7,172.1,127.4 M174.6,128.1c-0.5,0.1-0.6,0.2-0.5,0.2
		c6.4,0,14.7,0.1,25.1,0.4c0.4,0,1-0.1,1.8-0.4c-10.2-0.2-18.6-0.3-25.1-0.3L174.6,128.1 M226.8,121c-0.3-1-1.2-1.7-2.8-2
		c-1.3-0.2-2.5-0.2-3.8,0.1c-0.7,0.2-1.3,0.5-1.6,0.9c-0.2,0.3-0.4,0.6-0.4,0.9c-0.1,0.2-0.4,0.3-1.1,0.2l-1.5-0.2
		c-1.8-0.2-3.1,0-4,0.6l-1.1,0.7c-0.1,0.1-0.7,0-1.8-0.3l-1.9-0.7c-1.2-0.2-2.5,0.2-3.9,1.2c-1,0.7-2,1.2-3,1.5l-7.4,0.4l-75.4-1.4
		v0.4l55,0.9c6.2,0.1,10.6,0.1,13.3,0.2l5.6,0.2c1.9,0.1,3.9,0.1,5.9,0.1l11.4-1c2.5-0.3,5.7-0.3,9.6,0l9.6,0.4l0.3-0.2
		c0.1-0.2,0-0.2-0.1-0.2l-9.1-0.4c-3.7-0.2-6.7-0.2-9.1,0l-8.8,1h-0.4l0.4-0.1c0.6-0.3,1.3-0.7,2.1-1.2c1.3-1,2.6-1.5,3.9-1.3
		c0.7,0.1,1.9,0.5,3.8,1.3c0.1,0,0.2-0.1,0.4-0.2c0.7-1,1.9-1.4,3.6-1.4c1,0,2.4,0.2,4.1,0.5l0.2-0.1c0.2-0.1,0.2-0.1,0.2-0.2
		c-0.2-0.7,0.1-1.3,0.8-1.8c0.6-0.3,1.5-0.5,2.5-0.5c1,0,1.9,0.2,2.8,0.5c0.9,0.4,1.4,0.9,1.6,1.6L226.8,121z"/>
	<path class="st0" d="M190.7,119.7c-0.3,0.4-0.3,0.8,0,1.2l7.6,0l2.1-0.2c1.3-0.2,1.3-0.4,0-0.6l-2.1-0.3L190.7,119.7L190.7,119.7
		 M194.2,108.6c0.6-0.5,0.6-0.7-0.2-0.6l-1.3,0.1l-4.3,1.7v0.1c0,0.5,0.1,0.9,0.4,1v0l4.2-1.7L194.2,108.6 M194.4,101.9l2-1.6
		l0.7-0.8c0-0.2-0.3-0.1-1.1,0.2l-2.2,1.1l-7.5,5v0c-0.1,0.6,0.1,0.9,0.6,1l0,0L194.4,101.9 M202.1,113.5c1.5-0.5,1.5-0.7-0.1-0.7
		l-2.6,0.1l-9.1,1.6l0,0c-0.2,0.3-0.2,0.6-0.1,0.8l0.4,0.4l9-1.6L202.1,113.5 M141.2,116.5L141.2,116.5l-20.2-2.7
		c-2.5-0.1-2.5,0.1-0.1,0.7l20.1,3.2l0.1,0C141.8,117.3,141.8,116.9,141.2,116.5 M126.3,120.6l3.1,0.3l11.1,0l0.1,0
		c0.5-0.4,0.5-0.8,0-1.1l-0.1,0l-10.9,0l-3.2,0.2C124.5,120.1,124.5,120.3,126.3,120.6 M142.1,113.2c0.5-0.3,0.6-0.7,0.3-1.1l0,0
		l-7.4-2l-2.2-0.4l-1,0l0.8,0.6c0.5,0.3,1.2,0.6,1.9,0.9L142.1,113.2L142.1,113.2 M144,108.4c0.6-0.2,0.7-0.5,0.5-1l0,0l-7.7-4.2
		l-2.4-1l-1-0.2c-0.2,0.1,0.1,0.3,0.7,0.8l2,1.4L144,108.4L144,108.4 M150.2,88.6l0.7,2.1l3.6,7.3l0,0c0.6,0.2,0.9,0,1-0.5v-0.1
		l-3.6-7.2l-1.3-1.9l-0.7-0.7C149.9,87.5,149.9,87.9,150.2,88.6 M157.5,84.6l-0.5-0.9c-0.2-0.1-0.2,0.3-0.1,1.1l0.3,2.5l2,8.9l0.1,0
		c0.5,0.3,0.9,0.2,1.1-0.3l0,0l-2-8.7L157.5,84.6 M136.5,95.1l-1.1-0.5c-0.2,0,0,0.3,0.7,1l2,2.1l8.2,6.9h0.1c0.7,0,0.9-0.3,0.7-0.9
		l0,0L136.5,95.1 M139.4,84.2c-0.2,0,0,0.5,0.6,1.6l10.5,14.6l0.1,0c0.7,0.2,1,0,0.9-0.7l0-0.1l-10.8-14.3L139.4,84.2 M194.3,76.6
		c0.7-1.2,1.1-2,1.1-2.2c0-0.3-0.6,0.3-1.7,1.8L179,98.3l-0.1,0.2c-0.1,0.6,0,0.8,0.3,0.9c0.2,0,0.4-0.1,0.7-0.3l0.1-0.1L194.3,76.6
		 M196,87.7c0-0.2-0.5,0.1-1.4,0.9l-12.1,12.6l0,0.1c-0.1,0.4,0,0.6,0.2,0.7h0.6l0.1,0l11.7-13L196,87.7 M163.7,79.6
		c-0.3-2-0.6-2-0.7,0c-0.1,0.9-0.1,2,0,3.4l0.8,12.2l0,0.1c0.5,0.5,0.8,0.5,1.1-0.1v-0.1L163.7,79.6 M179.4,84.1
		c-0.1-0.2-0.3,0.1-0.7,0.9l-1.2,2.4l-3.4,9.1v0.1c0.2,0.6,0.6,0.7,1.1,0.4l0,0l3.4-9l0.7-2.7L179.4,84.1 M173.5,76.2
		c-0.1-0.2-0.3,0.3-0.6,1.5l-3.3,17.6l0,0.1c0.3,0.7,0.7,0.7,1.1,0.2l0-0.1l2.7-17.6L173.5,76.2z"/>
	<path class="st0" d="M88.6,170.9c0.1,0.8,0.6,1.4,1.5,1.7c1.6,0.6,2.8,0.8,3.7,0.5c1.1-0.4,1.7-1,1.7-1.9c0-0.2,0.1-0.4,0.2-0.6
		c0.2-0.2,0.5-0.2,0.9-0.2l1-0.1c1.1-0.4,2.3-1.3,3.5-2.8c1-1.2,1.6-2.3,1.7-3.3c0.2-1.2-0.6-1.5-2.5-0.9c-0.8,0.3-1.7,0.6-2.6,1.1
		l-1.1,3.3l-0.2,0.4l-0.4,0.2c-1.5,0.7-2.7,1-3.8,1c-1.2,0-2.3-0.2-3.2-0.8C88.5,169.5,88.4,170.3,88.6,170.9 M100.6,132.4
		c-2.2,1.4-4.7,2.5-7.4,3.2c-2.7,0.7-5.4,0.9-7.9,0.8l-1.3-0.2l-2.3,3.8v0.1c1.4,0.4,2.9,0.6,4.5,0.6c2.6,0.1,5.2-0.2,7.7-0.7
		c2.7-0.6,5.1-1.6,7.2-2.8l0.1,0.1L100.6,132.4 M94.3,125.9l-0.8,0l-5.7,7.7c-0.5,0.5-0.9,0.8-1.3,0.9l-1.7,0.1l-0.7,1.2l2.8,0.1
		c2.3,0,4.7-0.4,7-1.1c2.4-0.7,4.5-1.6,6.5-2.9h0.1l-2-13.4l-4.2,6.3L94.3,125.9 M98.6,116.9l-0.3-0.2c-0.5-0.4-1.2-0.9-2-1.2
		l-3.1-1.3l-0.5,0l-6,8.4l-3.8,6.5c1.4,0.6,2.3,1.2,2.8,1.9c0.3,0.5,0.5,0.9,0.5,1.4c0.1,0.5-0.1,0.9-0.3,1.3
		c0.6-0.1,1.3-0.7,2.1-1.6l4.7-6.1L98.6,116.9 M91.2,110.5l0.2-0.4c0.2-0.4,0.4-0.8,0.7-1.1l-3.4,0.7c-2.1,0.2-4-0.1-5.9-1.1
		l-0.1-0.1c-0.7-0.4-1.5-0.7-2.3-0.8c1,1.4,2.5,2.4,4.3,2.9c1.8,0.5,3.5,0.6,5.2,0.3L91.2,110.5 M95.7,107.3L95.7,107.3l-0.2-0.2
		l-1.8,1.4c-0.5,0.3-0.8,0.7-1.1,1.1l-1,1.4l0.1-0.1c0.6-0.7,1.2-1.1,1.9-1.4c0.9-0.4,1.6-0.4,2.3,0.1c0.1,0.1,0.2,0.2,0.2,0.4
		c0.1,0.2,0.1,0.4,0,0.6l-0.1,0.1l-1.8,2.9c1.6,0.6,2.8,1.2,3.5,1.8l0.1,0l3.7-5.5c-0.9-0.2-1.9-0.6-3.1-1.2L95.7,107.3 M93.8,107.2
		l0.2-0.1c-0.3-1-0.5-1.8-0.4-2.4c-1.5,0.7-2.7,1.2-3.4,1.4c-1.3,0.4-2.5,0.5-3.7,0.2c-1.5-0.3-2.7-0.9-3.6-1.7
		c0.2,1.1,0.1,2-0.3,2.9l0.1,0.1c1.3,0.6,2.6,0.9,4.1,1c1.3,0.1,2.7-0.1,4.2-0.5l2.3-0.5C93.5,107.5,93.6,107.3,93.8,107.2
		 M106.3,113.8c-0.7,0.3-1.4,0.4-2.1,0.1c-0.3-0.1-0.7-0.3-1.2-0.7c-0.6-0.4-0.9-0.7-0.8-0.8l-3.1,4.3c0.1,0.3,0.1,0.5,0,0.7
		l-0.3,0.6l1.3,9.4c1.2-1.9,1.7-3.7,1.5-5.3c0-0.3,0-0.4,0.1-0.3c0.1,0.1,0.2,0.3,0.2,0.5c0.1,1.1,0.1,2.2-0.2,3.3
		c-0.3,1.1-0.8,2.1-1.4,3c0.4,2.8,0.7,5.1,0.8,7h0c0-0.2,0-0.3,0.1-0.3c1.8,0.1,3.5-0.8,5.1-2.7c1.3-1.6,2.3-3.3,2.8-5.2
		c0.4-1.5,0.5-3,0.4-4.7c-0.1-1.6-0.4-3.1-0.9-4.7c-0.5-1.5-1.2-2.8-2-4L106.3,113.8 M78.8,154.2c-0.7,0.4-1.3,1-1.8,1.6
		c-1.1,1.2-1.8,2.7-2.2,4.3c-0.3,1.1-0.5,1.9-0.5,2.5c-0.1,1,0.1,1.8,0.5,2.4c-0.2-1.5,0.2-3.3,1.3-5.6c0.9-2,2.1-3.6,3.4-4.8
		l1.7-1.2C80.3,153.4,79.5,153.8,78.8,154.2 M80.2,155.2l-0.5,0.4l3.8,1.6l0.2,0.3c0.7-2,0.7-3.3,0.1-3.8v0l-0.2-0.1
		C82.7,153.5,81.6,154,80.2,155.2 M79,156.3c-0.7,0.7-1.2,1.4-1.6,2.1c-0.8,1.3-1.4,2.6-1.8,3.8c-0.3,0.9-0.5,1.6-0.5,2.1
		c-0.1,1,0.1,1.6,0.6,1.8c0.9,0.3,1.9,0.1,3.1-0.6c1-0.6,1.8-1.4,2.4-2.2c0.9-1.1,1.6-2.6,2.1-4.5l0.2-0.4L79,156.3L79,156.3
		 M73.2,144.1l0.1-0.1l9.4-14.1l-0.4-0.2c-0.1,0-0.2-0.2-0.2-0.4c-0.1-0.2-0.1-0.4,0-0.6c1.4-2.6,2.9-5.1,4.6-7.5
		c0.9-1.3,1.7-2.6,2.6-3.8l3.2-4.4h0.1l0.9,0.3l1.9-3c-0.7-0.2-1.4,0-2.2,0.6c-0.6,0.4-1.2,1-1.7,1.6l-29.5,42.9l-0.2,0.3
		c-0.5,0.8-0.4,1.3,0.3,1.8c0.9,0.5,1.5,0.6,2,0.4l0.7-0.6L73.2,144.1 M74,144.4c1.4,0.4,2.8,0,4.2-1.1c0.7-0.6,1.5-1.7,2.4-3.1
		l4-6.6l0.1-0.1l0-0.1c1-0.5,1.2-1.1,0.8-1.8c-0.3-0.5-1-1-2.1-1.4v0.1L74,144.4 M78.3,144.3c-1.5,1.3-3.1,1.6-4.8,0.9l-4.1,6.1
		c0.1,1.4,0.5,2.6,1.2,3.5c1,1.5,2.2,2.6,3.8,3.2l0.2,0.3c0.2-0.4,0.4-0.9,0.6-1.4c0.6-1.1,1.4-2,2.5-2.9c1.2-1,2.4-1.6,3.5-1.7
		c0.1-0.6,0.1-1.1-0.1-1.6c-0.2-0.5-0.6-0.9-1.1-1.2l-0.1-0.1c-1,0-2-0.2-2.9-0.5c-0.1,0-0.2-0.2-0.2-0.5c-0.1-0.3-0.1-0.5,0-0.5
		c2.3,0.8,5,0.7,8-0.1c-0.9-0.5-1.7-1-2.4-1.6c-0.1-0.1-0.2-0.3-0.2-0.6s0-0.4,0.1-0.3c1.3,1.1,2.8,1.9,4.6,2.5
		c1.6,0.5,3.3,0.8,5.2,0.9c0.1,0,0.2,0.2,0.3,0.5c0.1,0.3,0.1,0.5-0.1,0.5c-1.9-0.1-3.8-0.4-5.5-1.1c1.5,2.3,2.2,5.3,2.2,8.9
		c0,2.2-0.4,5.3-1.1,9.3c0.2,0.3,0.4,0.5,0.7,0.8l0.1-0.1c0,0,0.1,0.1,0.2,0.2c0.7,0.5,1.7,0.7,3,0.6c1,0,2-0.2,2.9-0.6
		s1.4-0.6,1.5-0.8l1.1-3.2c0-0.1,0-0.2,0.1-0.2c1.8-5.4,2.9-10.1,3.5-14.1c0.5-3.5,0.6-7.4,0.2-11.8c-2.3,1.4-4.9,2.4-7.9,3
		c-2.9,0.6-5.7,0.7-8.3,0.4c-1.2-0.1-2.4-0.4-3.5-0.7C80.2,142.3,79.2,143.6,78.3,144.3 M73.7,135.4l-2.8-0.1
		c-0.2,0.3-0.3,0.6-0.4,1c-0.3,1,0.1,1.8,1.2,2.3l0.2,0.2C72.4,137.6,73,136.4,73.7,135.4 M75.3,134.4l1-1.4l-0.6-0.8L75.3,134.4
		 M73.8,109.3c-2.3,1.8-4,4.7-5,8.5c-1,3.6-1.1,6.9-0.5,9.9c0.3,1.4,0.7,2.6,1.1,3.6l0.6,1.8c0.3,0.7,0.5,1,0.7,1.1
		c1.9,0.4,3.3,0.2,4.1-0.4l0.2-0.8l3.4-18.7c0-0.1,0.1-0.1,0.2,0.2c0.1,0.3,0.2,0.5,0.2,0.6l-3,16.7l0.7,0.8l5.1-7.4l-0.2-0.1
		l0.3-6.8l-0.9-0.1l0.1-1.6l3.3-0.2l-0.3,5.2l2.2-3.1h-0.2l0.1-1.6l1.4-0.1l3.5-5l0.2-0.4v-0.4c-0.6,0.2-1.3,0.3-2,0.4
		c-1.9,0.1-3.6-0.1-5.1-0.8c-1.7-0.7-3.1-1.7-4-3.1v-0.1c-1.1-0.1-2.2,0-3.2,0.3C75.7,108.2,74.7,108.7,73.8,109.3 M119.4,96.1
		c-0.9-1.1-1.9-2.1-2.8-3.1l-5.2,3.6c-1.2,0.9-2,1.5-2.5,1.9c-0.9,0.7-1.6,1.5-2.1,2.3l-1.2,1.6c-0.5,0.5-1,0.9-1.5,1.1l-5.3,2.2
		l-0.5-0.1l-1.1-0.7l-1.2,1.6l2.9,1.6c1.1,0.5,2,0.7,2.8,0.8h0.2l0.2,0.2v0.2c0.1,0.3,0.1,0.4,0,0.5l-0.1,0.1l-3.9,5.8l0.3,0.3v0
		l3.3-4.6l0.2,0.1c0.7,0.8,1.6,1.3,2.6,1.4h1l0.5-0.2c0.4-0.2,0.8-0.5,1.1-0.9c0.5-0.7,0.7-1.1,0.6-1.2l-0.9-0.8l-1.1-0.6
		c-0.1,0-0.2-0.2-0.2-0.4c0-0.3,0-0.5,0.1-0.6c1.4-1,2.7-1.8,3.9-2.5c1.5-0.9,3.4-1.6,5.5-1.8l8.4-1.2c0.1-0.4-0.1-1.2-0.8-2.2
		L119.4,96.1 M103.2,110.6c0-0.2,0-0.4,0.1-0.6l0.1-0.2c0.2-0.4,0.6-0.6,1.1-0.7c0.5-0.1,1-0.1,1.4,0.2c0.3,0.2,0.5,0.6,0.6,1.1
		c0,0.4-0.1,0.9-0.2,1.3l-0.1,0.1l-0.2,0.4l-0.4,0.3l-0.3,0.1c-0.4,0.1-0.8,0-1.2-0.2c-0.3-0.3-0.5-0.7-0.7-1.1
		C103.2,111.1,103.2,110.8,103.2,110.6 M103.6,110.9L103.6,110.9c0.1,0.3,0.2,0.5,0.4,0.6c0.2,0.2,0.4,0.3,0.7,0.2L103.6,110.9
		 M117.6,92.4l-0.8,0.5c2,2,3.4,3.7,4.3,5l1.6,2.1c0.7,1.1,1.1,1.9,1,2.6l1-0.2c0.1-0.5-0.2-1.2-0.8-2.3L117.6,92.4 M118.8,91.6
		l-1,0.6c1.8,1.9,3.3,3.5,4.3,4.9l1.4,1.9c0.5,0.8,0.9,1.5,1.1,2.1l0.4,1.1l0.8-0.2c0.4-0.1,0.6-0.2,0.6-0.4c0.1-0.2,0-0.6-0.3-1.1
		l-2-2.9L118.8,91.6 M95.1,82.7c-0.5-0.5-1-0.9-1.3-1l-1.9-0.2c-0.9,0-1.5-0.2-1.9-0.5c-0.8-0.8-1.4-1.4-1.8-1.7
		c-0.7-0.5-1.5-0.4-2.2,0.1l-1.4,1.2l-0.8,0.3l-0.9,0.2c-0.7,0.2-1.3,0.5-1.7,0.9c-0.2,0.2-0.5,0.7-1,1.6c-0.2,0.4-0.6,0.8-1.1,1.2
		c-0.6,0.5-1.1,0.8-1.2,1.1c-0.9,1.2-1.5,2.3-1.8,3.3c-0.4,1.4-0.5,3.1-0.1,5c0.4,1.8,1,3.3,1.9,4.7c0.7,1,1.4,1.9,2,2.5
		c0.6,0.6,1.1,1.1,1.6,1.4l0.5,0.2c0.2,0.1,0.3,0.1,0.4,0.2l0.1,0.1c0.5,0.6,1.2,1.2,2.1,1.6c0.8,0.4,1.6,0.6,2.5,0.6
		c1.2,0.1,2.4-0.1,3.7-0.6l3.4-1.6c0.1-0.2,0.4-0.4,0.8-0.6l0.8-0.6c1.4-1.4,2.4-3.1,3.1-5.1c0.6-2,0.9-3.9,0.7-5.9l-0.1-4
		c0-1.7-0.6-3.2-1.7-4.4c0.2,0.3,0.1,0.5-0.2,0.8c-0.4,0.4-0.7,0.5-1.1,0.4C96.1,83.6,95.6,83.3,95.1,82.7 M81.8,85.6
		c0,0.2,0,0.3-0.1,0.3c-1.3,0.4-2.3,1.2-3,2.4c-0.7,1.2-1,2.4-0.9,3.8c0,0.2,0,0.3-0.2,0.2L77.4,92c0-1.5,0.3-2.9,1-4.1
		c0.8-1.3,1.8-2.2,3.2-2.6C81.7,85.3,81.8,85.4,81.8,85.6 M81.8,85.9c0.1-0.1,0.2,0,0.3,0.4c0.1,0.4,0.1,0.7,0,0.8
		c-1.8,2.2-2.2,4.9-1.2,8c0.9,3,2.7,5,5.4,6.1c0.2,0.1,0.3,0.3,0.3,0.8c0,0.4-0.1,0.6-0.2,0.5c-3-1.1-5-3.5-6-7.2
		C79.3,91.6,79.8,88.5,81.8,85.9 M83,84.9c-0.3,0.1-0.4,0-0.4-0.2c0-0.6,0.3-1.2,0.9-1.7c0.5-0.4,1.1-0.7,1.8-0.9
		c1.9-0.5,3.7-0.3,5.3,0.6c0.2,0.1,0.1,0.2-0.2,0.4l-0.5,0.1c-1.1-0.6-2.3-0.9-3.8-0.8c-1.8,0.1-2.7,0.9-2.7,2.2
		C83.4,84.7,83.3,84.8,83,84.9 M84.2,85.7c-0.2,0-0.3-0.3-0.4-0.7c0-0.4,0-0.6,0.2-0.6c2.7,0.2,5,1.4,6.8,3.5
		c1.8,2.2,2.5,4.6,1.9,7.2c-0.1,0.3-0.2,0.3-0.3,0c-0.2-0.4-0.3-0.7-0.2-0.9c0.5-2.2-0.2-4.1-2-5.8C88.4,86.8,86.4,85.9,84.2,85.7
		 M83.3,86.4c0-0.4,0.1-0.5,0.3-0.4c2,1.9,3.5,4.1,4.3,6.7c0.9,2.6,1,5.3,0.3,7.9c-0.1,0.3-0.2,0.3-0.3-0.1
		c-0.2-0.3-0.2-0.6-0.2-0.8c0.6-2.3,0.5-4.5-0.3-6.9c-0.8-2.2-2.1-4.1-3.8-5.8C83.4,87,83.3,86.8,83.3,86.4 M96.1,96.2
		c0-0.4,0.1-0.5,0.3-0.2c0.2,0.3,0.2,0.5,0.2,0.8c-0.1,1.5-0.4,2.7-1.1,3.7c-0.7,1.1-1.8,1.8-3.1,2.1c-0.2,0-0.3-0.2-0.4-0.6
		s0-0.7,0.2-0.7c1.2-0.2,2.1-0.8,2.8-1.8C95.7,98.6,96,97.5,96.1,96.2z"/>
</g>
</svg>
