<?xml version="1.0" encoding="utf-8"?>
<!-- Generator: Adobe Illustrator 25.4.1, SVG Export Plug-In . SVG Version: 6.00 Build 0)  -->
<svg version="1.1" id="PerkClip_1d246b" image-rendering="auto"
	 xmlns="http://www.w3.org/2000/svg" xmlns:xlink="http://www.w3.org/1999/xlink" x="0px" y="0px" viewBox="0 0 240 240"
	 style="enable-background:new 0 0 240 240;" xml:space="preserve">
<style type="text/css">
	.st0{fill:#FFFFFF;}
</style>
<g>
	<rect width="240" height="240"/>
	<path class="st0" d="M57.9,123.7v-0.6H17.5l0.8,0.6C31.5,123.1,44.7,123.1,57.9,123.7 M172.1,127.4c0.6-0.1,0.6-0.2,0-0.3l-1.5,0.1
		l-1.4,0.6c-0.6,0.1-0.6,0.2,0,0.4l1.5-0.1C171.2,127.9,171.6,127.7,172.1,127.4 M174.6,128.1c-0.5,0.1-0.6,0.2-0.5,0.2
		c6.4,0,14.7,0.1,25.1,0.4c0.4,0,1-0.1,1.8-0.4c-10.2-0.2-18.6-0.3-25.1-0.3L174.6,128.1 M226.4,121.3l0.4-0.3c-0.3-1-1.2-1.7-2.8-2
		c-1.3-0.2-2.5-0.2-3.8,0.1c-0.7,0.2-1.3,0.5-1.6,0.9c-0.2,0.3-0.4,0.6-0.4,0.9c-0.1,0.2-0.4,0.3-1.1,0.2l-1.5-0.2
		c-1.8-0.2-3.1,0-4,0.6l-1.1,0.7c-0.1,0.1-0.7,0-1.8-0.3l-1.9-0.7c-1.2-0.2-2.5,0.2-3.9,1.2c-1,0.7-2,1.2-3,1.5l-7.4,0.4l-75.4-1.4
		v0.4l55,0.9c6.2,0.1,10.6,0.1,13.3,0.2l5.6,0.2c1.9,0.1,3.9,0.1,5.9,0.1l11.4-1c2.5-0.3,5.7-0.3,9.6,0l9.6,0.4l0.3-0.2
		c0.1-0.2,0-0.2-0.1-0.2l-9.1-0.4c-3.7-0.2-6.7-0.2-9.1,0l-8.8,1h-0.4l0.4-0.1c0.6-0.3,1.3-0.7,2.1-1.2c1.3-1,2.6-1.5,3.9-1.3
		c0.7,0.1,1.9,0.5,3.8,1.3c0.1,0,0.2-0.1,0.4-0.2c0.7-1,1.9-1.4,3.6-1.4c1,0,2.4,0.2,4.1,0.5l0.2-0.1c0.2-0.1,0.2-0.1,0.2-0.2
		c-0.2-0.7,0.1-1.3,0.8-1.8c0.6-0.3,1.5-0.5,2.5-0.5c1,0,1.9,0.2,2.8,0.5C225.6,120.1,226.2,120.6,226.4,121.3z"/>
	<path class="st0" d="M190.7,119.7c-0.3,0.4-0.3,0.8,0,1.2l7.6,0l2.1-0.2c1.3-0.2,1.3-0.4,0-0.6l-2.1-0.3L190.7,119.7L190.7,119.7
		 M194.2,108.6c0.6-0.5,0.6-0.7-0.2-0.6l-1.3,0.1l-4.3,1.7v0.1c0,0.5,0.1,0.9,0.4,1v0l4.2-1.7L194.2,108.6 M194.4,101.9l2-1.6
		l0.7-0.8c0-0.2-0.3-0.1-1.1,0.2l-2.2,1.1l-7.5,5v0c-0.1,0.6,0.1,0.9,0.6,1l0,0L194.4,101.9 M202.1,113.5c1.5-0.5,1.5-0.7-0.1-0.7
		l-2.6,0.1l-9.1,1.6l0,0c-0.2,0.3-0.2,0.6-0.1,0.8l0.4,0.4l9-1.6L202.1,113.5 M141.2,116.5L141.2,116.5l-20.2-2.7
		c-2.5-0.1-2.5,0.1-0.1,0.7l20.1,3.2l0.1,0C141.8,117.3,141.8,116.9,141.2,116.5 M126.3,120.6l3.1,0.3l11.1,0l0.1,0
		c0.5-0.4,0.5-0.8,0-1.1l-0.1,0l-10.9,0l-3.2,0.2C124.5,120.1,124.5,120.3,126.3,120.6 M142.1,113.2c0.5-0.3,0.6-0.7,0.3-1.1l0,0
		l-7.4-2l-2.2-0.4l-1,0l0.8,0.6c0.5,0.3,1.2,0.6,1.9,0.9L142.1,113.2L142.1,113.2 M144,108.4c0.6-0.2,0.7-0.5,0.5-1l0,0l-7.7-4.2
		l-2.4-1l-1-0.2c-0.2,0.1,0.1,0.3,0.7,0.8l2,1.4L144,108.4L144,108.4 M150.2,88.6l0.7,2.1l3.6,7.3l0,0c0.6,0.2,0.9,0,1-0.5v-0.1
		l-3.6-7.2l-1.3-1.9l-0.7-0.7C149.9,87.5,149.9,87.9,150.2,88.6 M157.5,84.6l-0.5-0.9c-0.2-0.1-0.2,0.3-0.1,1.1l0.3,2.5l2,8.9l0.1,0
		c0.5,0.3,0.9,0.2,1.1-0.3l0,0l-2-8.7L157.5,84.6 M136.5,95.1l-1.1-0.5c-0.2,0,0,0.3,0.7,1l2,2.1l8.2,6.9h0.1c0.7,0,0.9-0.3,0.7-0.9
		l0,0L136.5,95.1 M139.4,84.2c-0.2,0,0,0.5,0.6,1.6l10.5,14.6l0.1,0c0.7,0.2,1,0,0.9-0.7l0-0.1l-10.8-14.3L139.4,84.2 M194.3,76.6
		c0.7-1.2,1.1-2,1.1-2.2c0-0.3-0.6,0.3-1.7,1.8L179,98.3l-0.1,0.2c-0.1,0.6,0,0.8,0.3,0.9c0.2,0,0.4-0.1,0.7-0.3l0.1-0.1L194.3,76.6
		 M196,87.7c0-0.2-0.5,0.1-1.4,0.9l-12.1,12.6l0,0.1c-0.1,0.4,0,0.6,0.2,0.7h0.6l0.1,0l11.7-13L196,87.7 M163.7,79.6
		c-0.3-2-0.6-2-0.7,0c-0.1,0.9-0.1,2,0,3.4l0.8,12.2l0,0.1c0.5,0.5,0.8,0.5,1.1-0.1v-0.1L163.7,79.6 M179.4,84.1
		c-0.1-0.2-0.3,0.1-0.7,0.9l-1.2,2.4l-3.4,9.1v0.1c0.2,0.6,0.6,0.7,1.1,0.4l0,0l3.4-9l0.7-2.7L179.4,84.1 M173.5,76.2
		c-0.1-0.2-0.3,0.3-0.6,1.5l-3.3,17.6l0,0.1c0.3,0.7,0.7,0.7,1.1,0.2l0-0.1l2.7-17.6L173.5,76.2z"/>
	<path class="st0" d="M82.3,169.9l0.8,2.9c0.3,1,0.6,1.7,0.9,2.2c0.3,0.5,1,0.8,2.1,0.9c1.8,0.1,3.9-0.2,6.2-0.7
		c-0.4-0.4-0.9-0.9-1.4-1.5c-1.2-1.6-2.1-3.1-2.5-4.5l-0.2-0.8L82.3,169.9 M83.9,162.2c-0.3,0.1-0.7,0.3-1.1,0.5
		c-0.9,0.6-1.3,1.5-1.4,2.8c0,0.9,0.2,2,0.6,3.3l6-1.5c-0.4-1.5-0.8-2.7-1.2-3.4c-0.6-1.2-1.3-1.8-2.2-1.8L83.9,162.2 M90.8,166.8
		c0-0.3,0-0.4,0-0.4c-1.4-2.2-2.8-3.6-4.4-4.1c0.6,0.6,1.1,1.6,1.4,3.1l0.8,2.8c0.3,1.1,0.7,2,1.2,2.8c0.7,1.1,1.2,1.9,1.7,2.4
		c0.9,1,1.8,1.5,2.6,1.4l0.4-0.1c0.1-0.8,0-1.4-0.4-1.9c-0.4-0.6-1-0.9-1.8-1.1c-0.1,0-0.2-0.1-0.2-0.3l-0.1-0.5
		c0.2-1.7-0.1-2.9-0.8-3.6C90.9,167.2,90.9,167.1,90.8,166.8 M100.3,131.9c-2.2,1.3-4.6,2.3-7.2,3c-2.6,0.7-5.2,0.9-7.7,0.6
		l-2.7-0.4l-2.2,3.1l0.4,0.2c2.1,0.9,4.5,1.3,7.1,1.2c4.9-0.2,9.1-1.2,12.6-3.1L100.3,131.9 M98.9,120.2l-0.2-1.3l-4.4,5.6l-0.2,1.2
		l-0.8-0.1l-6.3,7.1c-0.5,0.5-1,0.7-1.4,0.8l-1.6-0.1l-1,1.3l3.6,0.4c2.3,0,4.7-0.3,7-0.9c2.4-0.7,4.6-1.6,6.6-2.8
		c-0.2-2.4-0.7-6-1.3-10.8l-0.1-0.2C98.8,120.3,98.8,120.2,98.9,120.2L98.9,120.2 M86.8,121.7l-0.1,0.2l-0.2,0.2
		c-1.3,1.7-2.6,3.6-4,5.5c1.3,0.7,2.2,1.4,2.7,2.3c0.3,0.5,0.4,0.9,0.4,1.4c0,0.5-0.2,0.9-0.5,1.3c0.6-0.1,1.4-0.6,2.2-1.5l5-5.5
		l6.5-8.2h0l0.1-0.1l0.3-0.4l-0.8-0.8c-0.4-0.3-0.8-0.7-1.3-0.9l-3-1.6c-0.3-0.1-0.4-0.2-0.5-0.1l-6.6,7.8l-0.1,0.1L86.8,121.7
		L86.8,121.7 M93.9,107.8l-2.1,0.8c-0.8,0.3-1.6,0.4-2.2,0.4c-2.2,0-4.5-0.4-6.9-1.2l0,0l-1.5-0.2c1,1.2,2.5,2.1,4.3,2.6
		c1.7,0.4,3.4,0.4,5,0.1c1.4-0.3,2.5-1,3.4-2.1L93.9,107.8 M92.8,110.5c0.7-0.7,1.4-1.2,2.1-1.4c0.9-0.3,1.7-0.2,2.3,0.3l0.2,0.4
		c0,0.3,0,0.5-0.1,0.6v0.1l-2.2,2.8c1.3,0.7,2.4,1.3,3.2,1.9l0.2,0.2l0.1,0l4.1-5.2c-0.8-0.2-1.8-0.7-3-1.4l-2.8-1.8l-0.5,0.4v0.1
		l-2.6,1.7L92.8,110.5 M93.2,106.9c0.5-0.2,0.8-0.3,1.2-0.3c-0.4-1.1-0.6-2-0.5-2.8c-1.5,0.7-2.7,1.2-3.4,1.4
		c-1.3,0.4-2.5,0.5-3.7,0.2c-1.5-0.3-2.7-0.9-3.6-1.7c0.2,1.1,0.1,2.1-0.3,2.9c1.8,0.6,3.3,0.9,4.6,1.1c1.7,0.2,3.2,0.1,4.6-0.4
		L93.2,106.9 M108.4,113.8l-0.5,0.3c-1,0.6-1.9,0.7-2.8,0.3l-1.2-0.8c-0.6-0.4-0.8-0.7-0.8-0.8l-3.4,4c0.1,0.3,0.1,0.5,0,0.7
		l-0.8,0.9l0.1,1.5c0.7-0.3,1.4-0.2,2.1,0.2c0.6,0.3,1.2,0.8,1.7,1.3c0.1,0.1,0.1,0.2,0,0.3l-0.2-0.1c-0.5-0.6-1-1-1.6-1.2l-1.8,0.1
		l0.8,6.5c1.1,0.9,2.3,1.6,3.7,1.9c1.5,0.4,2.9,0.3,4.1-0.2c0.7-0.3,1.3-0.7,1.7-1.2c0.4-0.5,0.7-1.1,0.9-1.9
		c0.5-1.4,0.6-2.8,0.5-4.4c-0.1-1.4-0.5-2.9-1.1-4.3C109.5,115.8,109,114.8,108.4,113.8 M77.4,153.1l-0.1-0.2
		c-0.1,0.2-0.4,0.4-0.8,0.5l-3.4,0.2c-1.2-0.2-2.2-0.8-2.9-1.6c-0.7-0.7-1.3-1.8-1.8-3.2l-0.9-0.4l-3,3.7l1,1.1
		c1.2,1.1,2.3,1.7,3.4,1.8l0.8,0.1c0.3,0.1,0.5,0.2,0.6,0.5c0.1,0.3,0.2,0.6,0.2,1c0,0.2,0.2,0.5,0.6,0.7c0.3,0.2,0.6,0.3,0.8,0.3
		c1.4,0.3,2.7,0.1,3.9-0.8C77.1,155.7,77.6,154.5,77.4,153.1 M73.9,146c-1.1-0.5-1.8-1-2.2-1.6l-0.1-0.5c-0.1-0.3,0-0.4,0.1-0.4
		l5.2,2.3c1.2,0.5,2.7,0.7,4.5,0.6c1.4-0.1,2.9-0.5,4.5-1l0.1,0.1c0-0.2,0-0.3,0.1-0.2c0.8,0.5,1.7,0.9,2.8,1.1l3.1,0.2
		c0.1,0,0.2,0.2,0.3,0.6s0.1,0.5,0,0.5l-3.2-0.2c-1.2-0.2-2.2-0.6-3-1.1c1,3.6,1.3,6.7,1.1,9.3c-0.2,1.9-0.9,3.8-2.3,5.6
		c2.4,0,4.6,2,6.7,5.9c2.9-3.2,5.1-6.9,6.8-10.9c1.7-4.2,2.6-8.3,2.6-12.4c0-1.7-0.1-3.7-0.2-6.1c-2.3,1.2-5,2.1-8.2,2.6
		c-5.3,0.8-9.5,0.4-12.6-1.3c-1.3,1.8-2.5,3-3.4,3.7c-1.6,1.2-3.2,1.3-4.9,0.4l-3.4,4.2l1,3l0.2,0.3l0.5,0.6
		c0.8,0.7,1.6,1.2,2.4,1.4c1.2,0.3,2.3,0.3,3.5,0c0.3-0.1,0.6-0.2,0.7-0.2l0.2-0.1l0-0.2c0.5-0.5,0.8-1.1,0.8-1.9
		c0-0.6-0.2-1.3-0.4-2.1l-0.3-0.9l-0.1,0.1L73.9,146 M76.6,141.5c0.8-0.6,1.7-1.6,2.8-3l4.5-6.1l0.1-0.1c0.8-0.4,1.2-0.8,1.1-1.4
		l-0.2-0.3l-0.4-0.6c-0.3-0.3-0.8-0.7-1.4-1.1L83,129l-10.6,13.2C73.8,142.8,75.2,142.5,76.6,141.5 M73.4,133.6
		c-0.8-0.1-1.6-0.1-2.3,0c-1.6,0.2-2.9,0.7-3.7,1.6c-0.9,0.9-1.2,2.4-1,4.2c0,0.5,0.2,1.2,0.4,2.2L73.4,133.6 M75.9,131.9l-0.1,0.1
		l-16.8,20.3c-0.6,0.7-0.5,1.3,0.2,1.8c0.8,0.5,1.5,0.7,1.9,0.5c0.2-0.1,0.5-0.2,0.6-0.4l20.5-25.6l-0.3-0.2l-0.1-0.1
		c-0.1,0-0.2-0.2-0.2-0.5c0-0.2,0-0.4,0.1-0.5l8.1-10.7l0-0.1l3.6-4l0.1-0.1l0.8,0.4l2.2-2.8c-0.7-0.2-1.4-0.1-2.2,0.4
		c-0.6,0.4-1.2,0.9-1.8,1.5L75.9,131.9 M74.2,132.8l0.5-0.6l-0.9,0.2c-0.6,0.1-1.1-0.1-1.4-0.6l-0.1-0.4c-1.6-0.1-3.1,0.6-4.4,2.1
		c0.9-0.5,2.1-0.8,3.6-0.9L74.2,132.8 M73.4,109.9c-3.2,2.1-5.5,4.5-7,7.3c-1.4,2.5-2.1,5.4-2.2,8.7c0,2.1,0.1,3.9,0.3,5.2
		c0.3,1.8,0.9,3.2,1.8,4.2l0.4-0.7c0.6-1.1,1.3-2,2.2-2.7c1-0.8,2.1-1.1,3.2-1c-0.3-1-0.4-2.4-0.2-4.3c0.1-1.3,0.4-2.4,1-3.4
		c0.5-0.9,1.2-1.9,2.2-2.8c0.5-0.5,0.9-0.9,1.2-1.2c0.5-0.4,1-0.7,1.4-0.9l0.8-4.8c0-0.1,0.1-0.1,0.2,0.2c0.1,0.3,0.2,0.5,0.2,0.6
		l-2.9,16l5.4-6.5h-0.1l0.9-6.8l-0.9-0.1l0.2-1.6l3.4,0l-0.8,5.2l2.4-2.9l-0.2,0l0.2-1.6H88l3.9-4.7l0.3-0.4v-0.4
		c0-0.2,0.1-0.5,0.3-0.9c-0.9,0.6-2,0.9-3.2,0.9c-1.7,0.1-3.3-0.1-4.8-0.5c-1.6-0.5-2.9-1.4-3.8-2.7C78.5,107.4,76,108.2,73.4,109.9
		 M124.7,97.4l-3.1-3.9l-1,0.6c1.6,2,2.9,3.8,3.9,5.3l1.2,2.1c0.5,0.8,0.8,1.5,1,2.2c0.1,0.5,0.2,0.8,0.2,1.1l0.8-0.1l0.7-0.4
		c0.1-0.2,0.1-0.6-0.2-1.1L124.7,97.4 M119.2,94.8c-2.4,1.4-4.2,2.4-5.4,3.1c-1.2,0.7-2.1,1.3-2.7,1.7c-0.9,0.7-1.7,1.4-2.3,2.1
		l-1.3,1.5c-0.5,0.5-1,0.8-1.6,1l-5.5,1.7c-0.2,0-0.3,0-0.5-0.2c-0.7-0.4-1-0.7-1-0.8l-1.3,1.5l2.8,1.8c1.1,0.6,2.1,1,3,1.2
		c0.1,0,0.2,0.2,0.2,0.5c0,0.3,0,0.4-0.1,0.6h-0.1l-4.3,5.5l0.2,0.3l0.1,0l3.7-4.3h0.1c0.6,0.9,1.5,1.5,2.5,1.7
		c0.8,0.2,1.5,0,2.2-0.5l1-1c0.2-0.3,0.2-0.5,0.1-0.6l-0.8-0.9l-1-0.7h-0.1c-0.1-0.1-0.2-0.2-0.2-0.5c0-0.3,0-0.5,0.2-0.5
		c1.4-0.8,2.7-1.5,4.1-2.2c1.7-0.8,3.5-1.2,5.6-1.4l8.5-0.5c0.2-0.4,0-1.2-0.6-2.2L119.2,94.8 M104.5,110.6c0.1-0.2,0.2-0.3,0.3-0.4
		l0.7-0.3h0.2c0.6-0.1,1,0,1.4,0.3c0.3,0.3,0.5,0.7,0.5,1.2l-0.1,0.6l-0.2,0.5l-0.2,0.2c-0.3,0.4-0.6,0.6-1,0.7
		c-0.4,0.1-0.8,0-1.1-0.3c-0.3-0.3-0.5-0.7-0.7-1.2C104.3,111.3,104.3,110.9,104.5,110.6 M105.8,110.9l-0.4,0.1
		c-0.5,0.3-0.7,0.5-0.7,0.6c0.1,0.2,0.2,0.4,0.4,0.6c0.2,0.2,0.4,0.3,0.6,0.3c0.4,0,0.8-0.2,1.1-0.6L105.8,110.9 M120.2,94.2
		l-0.7,0.4c1.7,2,3,3.8,3.8,5.4l1.3,2.2c0.6,1.1,0.9,2,0.8,2.7l1-0.1c0.2-0.5-0.1-1.2-0.7-2.4L120.2,94.2 M95.3,81.9
		c-0.5-0.5-1-0.9-1.3-1l-1.9-0.2c-0.9,0-1.5-0.2-1.9-0.5c-0.8-0.8-1.4-1.4-1.8-1.7c-0.7-0.5-1.5-0.4-2.2,0.1l-1.4,1.2l-0.8,0.3
		l-0.8,0.2c-0.7,0.2-1.2,0.5-1.6,0.9c-0.2,0.2-0.5,0.7-1,1.6c-0.2,0.4-0.6,0.8-1.1,1.2c-0.6,0.5-1,0.8-1.2,1.1
		c-0.9,1.1-1.4,2.2-1.8,3.2c-0.5,1.5-0.5,3.1-0.1,5c0.4,1.8,1,3.3,1.9,4.7c0.7,1,1.4,1.9,2,2.6l1.6,1.3l0.4,0.2
		c0.2,0.1,0.4,0.2,0.5,0.2v0c0.5,0.6,1.3,1.1,2.2,1.6c0.8,0.4,1.6,0.6,2.5,0.6c1.2,0.1,2.4-0.1,3.7-0.6l3.4-1.6l1.6-1.2
		c1.4-1.4,2.4-3.1,3.1-5.1c0.6-1.9,0.9-3.9,0.7-5.9l-0.2-4c0-1.7-0.6-3.2-1.7-4.5c0.2,0.3,0.2,0.6-0.2,0.9c-0.4,0.4-0.7,0.5-1.1,0.4
		C96.4,82.8,95.9,82.5,95.3,81.9 M83.7,82.1c0.5-0.4,1.1-0.8,1.8-1c1.9-0.6,3.7-0.3,5.3,0.7c0.2,0.1,0.2,0.3-0.1,0.4
		c-0.2,0.2-0.4,0.2-0.6,0.1c-1.5-0.9-3-1.1-4.5-0.6c-1.3,0.5-2,1.2-2,2.1c0,0.2-0.2,0.4-0.5,0.4c-0.3,0-0.4-0.1-0.4-0.2
		C82.8,83.2,83.1,82.6,83.7,82.1 M82,85.1c0.1-0.1,0.2,0,0.3,0.4c0.1,0.4,0.1,0.7,0,0.8c-1.7,2.2-2.1,4.9-1.2,8c0.9,3,2.7,5,5.4,6
		c0.2,0.1,0.3,0.3,0.3,0.8c0,0.4-0.1,0.6-0.2,0.5c-3.1-1.1-5.1-3.5-6.1-7.2C79.5,90.8,80,87.6,82,85.1 M82.1,84.8
		c0,0.2,0,0.4-0.1,0.4c-1.3,0.4-2.3,1.2-3,2.4c-0.7,1.1-1,2.4-0.9,3.8c0,0.2,0,0.3-0.2,0.2c-0.1-0.1-0.2-0.2-0.2-0.4
		c-0.1-1.5,0.3-2.8,1-4.1c0.8-1.4,1.8-2.2,3.2-2.6C82,84.5,82,84.5,82.1,84.8 M83.6,85.6c0-0.4,0.1-0.5,0.3-0.4
		c2,1.9,3.4,4.1,4.3,6.7c0.9,2.6,1,5.3,0.3,7.9c-0.1,0.3-0.2,0.3-0.3-0.1c-0.2-0.3-0.2-0.6-0.2-0.8c0.5-2.3,0.4-4.6-0.4-6.8
		c-0.8-2.2-2-4.1-3.8-5.8C83.6,86.2,83.6,86,83.6,85.6 M84,84.2c0-0.4,0-0.6,0.2-0.6c2.7,0.2,5,1.4,6.8,3.4c1.8,2.2,2.5,4.6,1.9,7.2
		c0,0.3-0.1,0.3-0.3-0.1c-0.2-0.3-0.2-0.6-0.2-0.8c0.5-2.2-0.2-4.2-2-5.9c-1.7-1.6-3.6-2.5-5.9-2.6C84.2,84.9,84.1,84.6,84,84.2
		 M95.3,98.6c0.6-0.9,1-1.9,1-3.2c0-0.4,0.1-0.5,0.3-0.2c0.2,0.3,0.3,0.5,0.3,0.8c-0.1,1.5-0.4,2.7-1.1,3.7
		c-0.7,1.1-1.8,1.8-3.1,2.1c-0.2,0-0.3-0.2-0.4-0.6c-0.1-0.4,0-0.7,0.2-0.7C93.7,100.2,94.6,99.6,95.3,98.6z"/>
</g>
</svg>
