<?xml version="1.0" encoding="utf-8"?>
<!-- Generator: Adobe Illustrator 25.4.1, SVG Export Plug-In . SVG Version: 6.00 Build 0)  -->
<svg version="1.1" id="PerkClip_1d246b" image-rendering="auto"
	 xmlns="http://www.w3.org/2000/svg" xmlns:xlink="http://www.w3.org/1999/xlink" x="0px" y="0px" viewBox="0 0 240 240"
	 style="enable-background:new 0 0 240 240;" xml:space="preserve">
<style type="text/css">
	.st0{fill:#FFFFFF;}
</style>
<g>
	<rect width="240" height="240"/>
	<path class="st0" d="M57.9,123.7v-0.6H17.5l0.8,0.6C31.5,123.1,44.7,123.1,57.9,123.7 M172.1,127.4c0.6-0.1,0.6-0.2,0-0.3l-1.5,0.1
		l-1.4,0.6c-0.6,0.1-0.6,0.2,0,0.4l1.5-0.1C171.2,127.9,171.6,127.7,172.1,127.4 M174.6,128.1c-0.5,0.1-0.6,0.2-0.5,0.2
		c6.4,0,14.7,0.1,25.1,0.4c0.4,0,1-0.1,1.8-0.4c-10.2-0.2-18.6-0.3-25.1-0.3L174.6,128.1 M226.8,121c-0.3-1-1.2-1.7-2.8-2
		c-1.3-0.2-2.5-0.2-3.8,0.1c-0.7,0.2-1.3,0.5-1.6,0.9c-0.2,0.3-0.4,0.6-0.4,0.9c-0.1,0.2-0.4,0.3-1.1,0.2l-1.5-0.2
		c-1.8-0.2-3.1,0-4,0.6l-1.1,0.7c-0.1,0.1-0.7,0-1.8-0.3l-1.9-0.7c-1.2-0.2-2.5,0.2-3.9,1.2c-1,0.7-2,1.2-3,1.5l-7.4,0.4l-75.4-1.4
		v0.4l55,0.9c6.2,0.1,10.6,0.1,13.3,0.2l5.6,0.2c1.9,0.1,3.9,0.1,5.9,0.1l11.4-1c2.5-0.3,5.7-0.3,9.6,0l9.6,0.4l0.3-0.2
		c0.1-0.2,0-0.2-0.1-0.2l-9.1-0.4c-3.7-0.2-6.7-0.2-9.1,0l-8.8,1h-0.4l0.4-0.1c0.6-0.3,1.3-0.7,2.1-1.2c1.3-1,2.6-1.5,3.9-1.3
		c0.7,0.1,1.9,0.5,3.8,1.3c0.1,0,0.2-0.1,0.4-0.2c0.7-1,1.9-1.4,3.6-1.4c1,0,2.4,0.2,4.1,0.5l0.2-0.1c0.2-0.1,0.2-0.1,0.2-0.2
		c-0.2-0.7,0.1-1.3,0.8-1.8c0.6-0.3,1.5-0.5,2.5-0.5c1,0,1.9,0.2,2.8,0.5c0.9,0.4,1.4,0.9,1.6,1.6L226.8,121z"/>
	<path class="st0" d="M190.7,119.7c-0.3,0.4-0.3,0.8,0,1.2l7.6,0l2.1-0.2c1.3-0.2,1.3-0.4,0-0.6l-2.1-0.3L190.7,119.7L190.7,119.7
		 M194.2,108.6c0.6-0.5,0.6-0.7-0.2-0.6l-1.3,0.1l-4.3,1.7v0.1c0,0.5,0.1,0.9,0.4,1v0l4.2-1.7L194.2,108.6 M194.4,101.9l2-1.6
		l0.7-0.8c0-0.2-0.3-0.1-1.1,0.2l-2.2,1.1l-7.5,5v0c-0.1,0.6,0.1,0.9,0.6,1l0,0L194.4,101.9 M202.1,113.5c1.5-0.5,1.5-0.7-0.1-0.7
		l-2.6,0.1l-9.1,1.6l0,0c-0.2,0.3-0.2,0.6-0.1,0.8l0.4,0.4l9-1.6L202.1,113.5 M141.2,116.5L141.2,116.5l-20.2-2.7
		c-2.5-0.1-2.5,0.1-0.1,0.7l20.1,3.2l0.1,0C141.8,117.3,141.8,116.9,141.2,116.5 M126.3,120.6l3.1,0.3l11.1,0l0.1,0
		c0.5-0.4,0.5-0.8,0-1.1l-0.1,0l-10.9,0l-3.2,0.2C124.5,120.1,124.5,120.3,126.3,120.6 M142.1,113.2c0.5-0.3,0.6-0.7,0.3-1.1l0,0
		l-7.4-2l-2.2-0.4l-1,0l0.8,0.6c0.5,0.3,1.2,0.6,1.9,0.9L142.1,113.2L142.1,113.2 M144,108.4c0.6-0.2,0.7-0.5,0.5-1l0,0l-7.7-4.2
		l-2.4-1l-1-0.2c-0.2,0.1,0.1,0.3,0.7,0.8l2,1.4L144,108.4L144,108.4 M150.2,88.6l0.7,2.1l3.6,7.3l0,0c0.6,0.2,0.9,0,1-0.5v-0.1
		l-3.6-7.2l-1.3-1.9l-0.7-0.7C149.9,87.5,149.9,87.9,150.2,88.6 M157.5,84.6l-0.5-0.9c-0.2-0.1-0.2,0.3-0.1,1.1l0.3,2.5l2,8.9l0.1,0
		c0.5,0.3,0.9,0.2,1.1-0.3l0,0l-2-8.7L157.5,84.6 M136.5,95.1l-1.1-0.5c-0.2,0,0,0.3,0.7,1l2,2.1l8.2,6.9h0.1c0.7,0,0.9-0.3,0.7-0.9
		l0,0L136.5,95.1 M139.4,84.2c-0.2,0,0,0.5,0.6,1.6l10.5,14.6l0.1,0c0.7,0.2,1,0,0.9-0.7l0-0.1l-10.8-14.3L139.4,84.2 M194.3,76.6
		c0.7-1.2,1.1-2,1.1-2.2c0-0.3-0.6,0.3-1.7,1.8L179,98.3l-0.1,0.2c-0.1,0.6,0,0.8,0.3,0.9c0.2,0,0.4-0.1,0.7-0.3l0.1-0.1L194.3,76.6
		 M196,87.7c0-0.2-0.5,0.1-1.4,0.9l-12.1,12.6l0,0.1c-0.1,0.4,0,0.6,0.2,0.7h0.6l0.1,0l11.7-13L196,87.7 M163.7,79.6
		c-0.3-2-0.6-2-0.7,0c-0.1,0.9-0.1,2,0,3.4l0.8,12.2l0,0.1c0.5,0.5,0.8,0.5,1.1-0.1v-0.1L163.7,79.6 M179.4,84.1
		c-0.1-0.2-0.3,0.1-0.7,0.9l-1.2,2.4l-3.4,9.1v0.1c0.2,0.6,0.6,0.7,1.1,0.4l0,0l3.4-9l0.7-2.7L179.4,84.1 M173.5,76.2
		c-0.1-0.2-0.3,0.3-0.6,1.5l-3.3,17.6l0,0.1c0.3,0.7,0.7,0.7,1.1,0.2l0-0.1l2.7-17.6L173.5,76.2z"/>
	<path class="st0" d="M94.9,166l0,0.1l-3.5,3.5l2.2,2.3c0.6,0.6,1.3,1.1,1.9,1.4c1.5,0.8,2.9,1.1,4.1,1.1c1.2-0.1,1.9-0.3,2.1-0.8
		c0.2-0.6,0.1-1.3-0.4-2.1c-0.3-0.5-0.8-1.1-1.5-1.8c-1-1-1.9-1.9-2.9-2.5L94.9,166 M89.8,165.5l-0.1,0.1h-0.1
		c-0.4,0.7,0.1,1.9,1.5,3.5c-0.1-0.2-0.1-0.3,0-0.4l3-3.1l-0.7-0.1c-0.8-0.2-1.4-0.4-1.8-0.4C90.8,165,90.2,165.1,89.8,165.5
		 M101.9,171.9l0.2,0.6c0.5-1.3-0.2-3-2.1-5.1c-1.2-1.4-2.5-2.3-3.8-2.8c-1.7-0.6-3.2-0.8-4.4-0.5c0.9,0.1,1.8,0.4,2.7,0.8
		c1.6,0.7,3,1.6,4.3,2.8C100.4,169.2,101.4,170.6,101.9,171.9 M100.8,131.6c-2.2,1.3-4.6,2.3-7.2,3c-2.7,0.7-5.2,1-7.7,0.9l-2.9-0.2
		l-2.8,4c2.3,0.4,4.6,0.6,7,0.5c2.5-0.1,5-0.5,7.5-1.1c2.6-0.8,4.9-1.8,6.9-3.1L100.8,131.6 M94.2,125.7l-0.7-0.1l-6.3,7.2
		c-0.5,0.5-0.9,0.8-1.3,0.9l-1.7-0.1l-0.9,1.3l3.9,0.1c2.3-0.1,4.7-0.5,7-1.1c2.3-0.6,4.5-1.5,6.5-2.7l-2.1-12l-4.2,5.4L94.2,125.7
		 M99.2,117l-1.2-1.1l-1-0.6c-0.5-0.3-1.3-0.8-2.4-1.3l-0.5-0.2c-0.3-0.1-0.5-0.2-0.6-0.1l-6.7,8.2c-1.3,1.7-2.6,3.6-4,5.6l-0.2,0.4
		c1.4,0.7,2.3,1.4,2.7,2.2c0.3,0.5,0.4,0.9,0.3,1.4c0,0.5-0.1,0.9-0.4,1.4c0.7-0.1,1.4-0.6,2.3-1.6l5.1-5.7L99.2,117 M91.3,107.6
		l2.7-0.9c-0.4-1.1-0.6-2.1-0.6-2.9c-1.5,0.7-2.7,1.2-3.4,1.4c-1.3,0.4-2.5,0.5-3.7,0.2c-1.6-0.3-2.8-0.9-3.6-1.7
		c0.2,1.1,0.1,2-0.2,2.9C86.2,107.8,89.2,108.1,91.3,107.6 M93.3,107.9l-1.7,0.7c-1.3,0.3-2.9,0.3-4.8,0c-0.5-0.1-1.5-0.3-2.8-0.8
		c-1.2-0.4-2.2-0.6-2.9-0.7l-0.3,0c1,1.3,2.4,2.1,4.1,2.6c1.6,0.5,3.3,0.5,4.9,0.2C91.2,109.6,92.4,109,93.3,107.9 M93.8,109.2
		l-1.1,1.4c0.7-0.7,1.4-1.2,2-1.5c0.9-0.3,1.7-0.2,2.3,0.3c0.1,0.1,0.2,0.3,0.2,0.5c0,0.2,0,0.4,0,0.5l-0.1,0.1l-2,2.8
		c1.1,0.5,2,1,2.8,1.5l0.6,0.5l4.1-5.2c-0.8-0.2-1.8-0.7-2.9-1.4l-2.8-1.7l-0.4,0.3l-1.4,0.9C94.5,108.6,94,108.9,93.8,109.2
		 M94.1,107.6l-0.3,0.5l0.6-0.5L94.1,107.6 M108.2,113.8l-0.4,0.2c-1,0.6-1.9,0.7-2.8,0.3c-0.3-0.1-0.7-0.4-1.2-0.8
		c-0.6-0.4-0.8-0.7-0.7-0.8l-3.4,4c0.1,0.3,0.1,0.6,0,0.7l-0.9,1.2l0.2,1.3c0.6-0.4,1.3-0.4,2.1-0.1c0.6,0.3,1.2,0.7,1.8,1.4
		c0.1,0.1,0.1,0.2,0,0.3l-0.2,0c-0.5-0.6-1.1-1-1.7-1.2c-0.7-0.3-1.3-0.2-1.9,0.2h0l1.2,7h0l0-0.4c0-0.1,0.1-0.1,0.2-0.1
		c1.4,1.2,3,1.9,4.8,2c2.1,0.2,3.6-0.6,4.4-2.2c0.8-1.3,1.2-2.8,1.2-4.5c0-1.6-0.2-3.1-0.8-4.6l-0.4-1
		C109.5,115.8,108.9,114.7,108.2,113.8 M61.5,155.1l0.7-0.5l20.2-25.9l-0.3-0.1l-0.1-0.1c-0.1,0-0.2-0.2-0.2-0.4c0-0.3,0-0.5,0-0.6
		c1.6-2.4,3.3-4.8,5.1-7.1c0.9-1.2,1.9-2.5,2.9-3.7l3.6-4.1l0.1,0l0.8,0.4l2.1-2.8c-0.6-0.2-1.4-0.1-2.2,0.4
		c-0.6,0.4-1.2,0.9-1.8,1.5l-0.6,0.8l-0.7,0.7l-31.7,39.2c-0.6,0.7-0.5,1.2,0.1,1.7c0.4,0.2,0.7,0.4,0.9,0.5L61.5,155.1 M73.7,160.8
		l-0.2-1.8c-0.9-1.1-1.8-1.9-2.6-2.5c-1.3-0.8-2.1-0.8-2.5,0.2c-0.3,0.7-0.4,1.5-0.1,2.4c0.2,0.8,0.6,1.5,1.1,2.3
		c1.3,1.9,2.4,2.9,3.3,3.1l1.2,0.1c0.5,0.1,0.9,0.2,1,0.6c0.1,0.3,0.2,0.6,0.2,0.8c0,0.3,0.1,0.6,0.5,0.9c0.3,0.2,0.6,0.3,0.9,0.4
		c0.6,0.1,1.3,0.1,2,0c0.7-0.1,1.4-0.3,2-0.6c1.4-0.7,1.7-2.1,0.9-4c-1.2,0.6-2.6,0.7-4.2,0.4l-1.7-0.3c-0.8-0.2-1.3-0.5-1.4-0.8
		C73.8,161.6,73.7,161.2,73.7,160.8 M76.9,142.8c-1.2,0.9-2.4,1.2-3.6,1c-0.2,2.3-0.4,4.6-0.4,6.7c0,2,0.2,4.7,0.8,8l0.1,0.2
		l0.1,0.5c0,0.3,0,0.4-0.1,0.3l0.3,1.8c2.9,1.1,5.2,1.2,6.9,0.3h0.1l0.7-0.4l0.3-0.5l0.4-1.8c0.6-2.8,1-4.8,1.3-6
		c0.6-2.3,1.3-4.2,2-5.9l-2,0.1c-0.1,0-0.2-0.2-0.3-0.5c-0.1-0.3-0.1-0.5,0-0.5c3.9-0.1,7.1-0.7,9.3-1.7c0.1,0,0.2,0.1,0.3,0.4
		c0.1,0.3,0.1,0.5-0.1,0.6c-1.1,0.5-2.5,0.9-4.1,1.2c0.5,1.1,1.2,2.3,2.2,3.4c0.9,1.2,1.9,2.2,2.9,3.1c0.1,0.1,0.2,0.3,0.2,0.6
		c0,0.3,0,0.5-0.2,0.4l-1.4-1.4l-1.2,5.2c-0.4,2-0.5,3.8-0.5,5.3c1.1-0.4,2.4-0.4,4,0.1c1.4,0.4,2.5,1,3.5,1.8l0.6,0.6v0
		c0.9-2.6,1.7-5.1,2.3-7.7c1.5-5.7,1.7-12.1,0.6-19.2l-0.4-2.6c-2.2,1.4-4.7,2.5-7.3,3.2c-2.7,0.7-5.3,1.1-7.9,1
		c-2.5,0-4.7-0.2-6.6-0.6C78.6,141.1,77.7,142.2,76.9,142.8 M73.1,142.7l0.4,0.1c1.1,0.1,2.2-0.2,3.4-1.1c0.6-0.5,1.3-1.2,2.1-2.2
		l0.4-0.4l4.7-6.6l0.1-0.1c0.7-0.3,1.1-0.7,1.1-1.1l-0.2-0.6l-0.4-0.6l-1.4-1l-0.1-0.1l0,0.1l-10.5,13.4L73.1,142.7 M70.4,134.4
		c-0.5-0.7-1-1.2-1.6-1.3c-0.6-0.2-1.1,0.1-1.4,0.8c0.9,0.9,1.4,2,1.7,3.5c0.9,0,1.5-0.2,1.8-0.7C71.2,136.1,71,135.4,70.4,134.4
		 M67.1,134.4c-0.5-0.3-0.9-0.4-1.2-0.2c-0.3,0.2-0.6,0.5-0.8,1c0.3,0.4,0.5,0.9,0.8,1.4c0.3,0.7,0.5,1.4,0.5,1.9
		c1.3,0.2,2.1,0,2.3-0.7l0-0.1c-0.1-0.3,0-0.5,0.1-0.4c0-0.5-0.2-1.1-0.6-1.7C67.9,135.1,67.5,134.7,67.1,134.4 M71.1,134.9
		c-0.2-0.5-0.2-0.7-0.1-0.8c1.3-0.3,1.3-1.2,0.2-2.9l-0.6-0.6l-0.9-0.1c-0.5,0-0.8-0.2-1.1-0.5l-0.4-0.7l0-0.2v0.1h-0.1
		c-1.2-0.5-2.4-0.4-3.7,0.4c-1,0.6-2,1.5-2.8,2.6v0.2c0,0.2-0.1,0.5-0.3,0.9c-0.2,0.4-0.3,0.7-0.3,0.9c-0.1,0.9,0.1,1.9,0.5,2.8
		c0.5,1,1.2,1.6,2.1,1.9c1,0.3,1.6,0.2,2-0.2c0.3-0.4,0.3-0.9,0.1-1.6c-0.2-0.6-0.6-1-1-1.4c-0.5-0.4-0.8-0.5-1-0.2
		c-0.3,0.2-0.3,0.6-0.2,1.2c0.1,0.3,0.1,0.5,0,0.5c-0.1,0-0.2-0.1-0.3-0.4c-0.4-1.3-0.4-2.1,0.1-2.3c0.4-0.3,0.8-0.2,1.3,0.3
		l0.1-0.1c0.2-0.5,0.4-0.9,0.7-1.2c-0.3-0.2-0.5-0.5-0.7-0.8c-0.1-0.2-0.1-0.4-0.1-0.6c0-0.3,0.1-0.3,0.2,0c0.4,0.6,1,1.1,1.9,1.2
		l0.4-0.5c0.2-0.4,0.3-0.6,0.5-0.7c0.5-0.3,1.1-0.2,1.7,0.2c0.4,0.3,0.8,0.8,1.1,1.4L71.1,134.9 M69.1,123.2
		c0.6-1.3,1.4-2.3,2.4-3.1c2.2-1.6,4.2-2.5,6-2.8l0.7-3.8c0-0.1,0.1,0,0.2,0.2l0.2,0.6l-3.1,17.2l6.1-7.4l-0.2-0.1l0.9-6.7l-1-0.2
		l0.2-1.6h3.3l-0.7,5.2l2.3-2.9l-0.2,0l0.2-1.6h1.3l4.2-5.1v-0.5c0-0.3,0.1-0.6,0.3-1l0.4-0.6c-1,1-2.3,1.5-3.9,1.6
		c-1.7,0.1-3.3-0.1-4.8-0.7c-1.7-0.6-2.9-1.6-3.8-2.8c-2.8-0.2-6,0.7-9.4,2.5c-2.7,1.4-4.8,3.2-6.4,5.3c-1.5,2-2.5,4.4-3.2,7.4
		c-0.4,1.8-0.7,3.3-0.8,4.5c-0.1,1.8,0.1,3.3,0.6,4.4l0.2,0.4c0.8-1.2,1.8-2,2.8-2.6c1.3-0.7,2.6-0.9,3.8-0.4l0.1,0.2
		c-0.1-0.6-0.1-1.2,0-1.9C68.3,125.5,68.7,124.2,69.1,123.2 M119,94.6l-5.4,3.2c-1.2,0.7-2.1,1.2-2.6,1.6c-0.9,0.7-1.7,1.4-2.3,2.1
		l-1.2,1.4c-0.5,0.5-1.1,0.9-1.6,1.1l-5.6,1.8l-0.5-0.2l-1-0.7l-1.3,1.4l2.8,1.8c1.1,0.6,2.1,1,3,1.2c0.1,0,0.2,0.2,0.2,0.4
		c0,0.3,0,0.5,0,0.6l-0.1,0.1l-4.3,5.5l0.3,0.3l0,0l3.6-4.3l0.2,0.1c0.7,0.9,1.5,1.4,2.5,1.6c0.8,0.2,1.6,0,2.2-0.4l0.9-1.1
		c0.2-0.3,0.3-0.5,0.2-0.6l-0.8-0.8c-0.3-0.2-0.6-0.4-0.9-0.7H107c-0.1-0.1-0.2-0.2-0.2-0.5c0-0.3,0-0.5,0.2-0.5l4.1-2.2
		c1.6-0.8,3.5-1.2,5.6-1.4l8.5-0.6c0.2-0.4,0-1.2-0.6-2.2l-1.2-1.9c-0.4-0.7-1-1.6-1.7-2.6L119,94.6 M104.8,110.1
		c0.2-0.2,0.4-0.3,0.8-0.3h0c0.5-0.1,1,0,1.3,0.4c0.3,0.3,0.5,0.7,0.5,1.2l0,0.4l-0.2,0.6l-0.1,0.2c-0.3,0.4-0.6,0.7-1,0.8
		c-0.4,0.1-0.8,0-1.2-0.4c-0.3-0.3-0.5-0.7-0.6-1.1c-0.1-0.6-0.1-1,0.1-1.4L104.8,110.1 M105.7,110.8c-0.2,0-0.3,0.1-0.4,0.1
		c-0.5,0.3-0.7,0.4-0.6,0.6c0.1,0.2,0.2,0.4,0.3,0.6c0.2,0.2,0.4,0.2,0.6,0.2c0.4,0.1,0.8-0.1,1.1-0.5L105.7,110.8 M120,94l-0.8,0.4
		c1.8,2.2,3.1,4,3.9,5.3l1.4,2.2c0.7,1.1,0.9,2,0.8,2.7l1-0.1c0.1-0.5-0.1-1.2-0.7-2.4L120,94 M121.3,93.3l-1.1,0.6
		c1.7,2.1,3,3.8,3.9,5.3l1.2,2.1c0.5,0.8,0.8,1.5,1,2.2c0.2,0.5,0.2,0.9,0.2,1.1l0.8-0.1l0.7-0.4c0.1-0.2,0.1-0.6-0.2-1.1l-1.8-3.1
		L121.3,93.3 M94.9,81.9c-0.5-0.6-1-0.9-1.3-1.1l-2-0.2c-0.9,0-1.5-0.2-1.8-0.5c-0.8-0.8-1.4-1.4-1.8-1.7c-0.7-0.4-1.5-0.4-2.2,0.2
		l-1.4,1.2c-0.2,0.1-0.5,0.2-0.8,0.2l-0.9,0.1c-0.7,0.2-1.2,0.5-1.6,0.9l-1.1,1.6c-0.2,0.4-0.5,0.8-1,1.2c-0.6,0.5-1.1,0.8-1.2,1.1
		c-0.9,1.2-1.5,2.3-1.8,3.3c-0.4,1.4-0.4,3.1,0,5c0.4,1.8,1,3.3,1.9,4.6c0.7,1,1.3,1.8,2,2.6c0.7,0.7,1.2,1.1,1.6,1.4l0.9,0.4
		l0.1,0.1c0.5,0.6,1.2,1.2,2.1,1.6c0.8,0.4,1.6,0.6,2.5,0.6c1.2,0.1,2.4-0.1,3.7-0.6l3.5-1.6c0.1-0.1,0.4-0.3,0.8-0.6l0.8-0.6
		c1.4-1.4,2.4-3,3-5.1c0.6-1.9,0.8-3.9,0.7-5.9c0-0.5,0-1.2,0-2v-2c0-1.7-0.6-3.2-1.7-4.4c0.2,0.3,0.1,0.6-0.2,0.9
		c-0.4,0.4-0.7,0.5-1.1,0.3C95.9,82.7,95.5,82.4,94.9,81.9 M83.3,86.2c-0.2-0.1-0.2-0.4-0.2-0.8c0-0.4,0.1-0.5,0.3-0.3
		c2,1.9,3.4,4.1,4.3,6.7c0.9,2.6,1,5.3,0.4,7.9c-0.1,0.3-0.2,0.3-0.4-0.1c-0.2-0.3-0.2-0.6-0.2-0.8c0.6-2.3,0.4-4.6-0.4-6.9
		C86.3,89.8,85.1,87.9,83.3,86.2 M81.6,84.7c0,0.2,0,0.3-0.1,0.4c-1.3,0.4-2.3,1.2-3,2.4c-0.7,1.1-1,2.4-0.9,3.8
		c0,0.2-0.1,0.2-0.2,0.1c-0.1-0.1-0.2-0.2-0.2-0.3c-0.1-1.5,0.2-2.9,0.9-4.1c0.8-1.3,1.8-2.2,3.2-2.7C81.5,84.4,81.6,84.5,81.6,84.7
		 M82.8,83.9c-0.3,0.1-0.4,0-0.4-0.2c0-0.6,0.3-1.2,0.9-1.7c0.5-0.4,1.1-0.8,1.8-0.9c1.9-0.5,3.6-0.3,5.3,0.6
		c0.1,0.1,0.1,0.2-0.2,0.4s-0.4,0.2-0.6,0.1c-1.1-0.7-2.3-0.9-3.8-0.8c-1.8,0.1-2.7,0.9-2.7,2.2C83.2,83.8,83,83.9,82.8,83.9
		 M81.9,85.4c0.1,0.4,0.1,0.7,0,0.9c-1.8,2.2-2.2,4.8-1.2,7.9c1,3,2.8,5.1,5.4,6.1c0.2,0.1,0.3,0.3,0.3,0.8c0,0.4-0.1,0.6-0.2,0.5
		c-3.1-1.1-5.1-3.5-6.1-7.2c-1-3.7-0.5-6.8,1.5-9.3C81.7,84.9,81.8,85,81.9,85.4 M83.9,84.8c-0.2,0-0.3-0.3-0.4-0.7
		c0-0.4,0-0.6,0.2-0.6c2.7,0.2,5,1.4,6.8,3.4c1.8,2.2,2.5,4.6,1.9,7.2c-0.1,0.3-0.2,0.3-0.4-0.1c-0.2-0.4-0.2-0.6-0.2-0.8
		c0.5-2.2-0.2-4.2-2.1-5.9C88.2,85.9,86.2,85,83.9,84.8 M94.8,98.6c0.6-0.9,0.9-2,1-3.2c0-0.4,0.2-0.5,0.3-0.2
		c0.2,0.3,0.2,0.5,0.2,0.8c-0.1,1.5-0.4,2.7-1.1,3.7c-0.7,1.1-1.8,1.8-3.1,2c-0.2,0.1-0.3-0.1-0.4-0.6c-0.1-0.4,0-0.7,0.2-0.7
		C93.2,100.1,94.2,99.5,94.8,98.6z"/>
</g>
</svg>
