<?xml version="1.0" encoding="utf-8"?>
<!-- Generator: Adobe Illustrator 25.4.1, SVG Export Plug-In . SVG Version: 6.00 Build 0)  -->
<svg version="1.1" id="PerkClip_1d246b" image-rendering="auto"
	 xmlns="http://www.w3.org/2000/svg" xmlns:xlink="http://www.w3.org/1999/xlink" x="0px" y="0px" viewBox="0 0 240 240"
	 style="enable-background:new 0 0 240 240;" xml:space="preserve">
<style type="text/css">
	.st0{fill:#FFFFFF;}
</style>
<g>
	<rect width="240" height="240"/>
	<path class="st0" d="M57.9,123.7v-0.6H17.5l0.8,0.6C31.5,123.1,44.7,123.1,57.9,123.7 M172.1,127.4c0.6-0.1,0.6-0.2,0-0.3l-1.5,0.1
		l-1.4,0.6c-0.6,0.1-0.6,0.2,0,0.4l1.5-0.1C171.2,127.9,171.6,127.7,172.1,127.4 M174.6,128.1c-0.5,0.1-0.6,0.2-0.5,0.2
		c6.4,0,14.7,0.1,25.1,0.4c0.4,0,1-0.1,1.8-0.4c-10.2-0.2-18.6-0.3-25.1-0.3L174.6,128.1 M226.8,121c-0.3-1-1.2-1.7-2.8-2
		c-1.3-0.2-2.5-0.2-3.8,0.1c-0.7,0.2-1.3,0.5-1.6,0.9c-0.2,0.3-0.4,0.6-0.4,0.9c-0.1,0.2-0.4,0.3-1.1,0.2l-1.5-0.2
		c-1.8-0.2-3.1,0-4,0.6l-1.1,0.7c-0.1,0.1-0.7,0-1.8-0.3l-1.9-0.7c-1.2-0.2-2.5,0.2-3.9,1.2c-1,0.7-2,1.2-3,1.5l-7.4,0.4l-75.4-1.4
		v0.4l55,0.9c6.2,0.1,10.6,0.1,13.3,0.2l5.6,0.2c1.9,0.1,3.9,0.1,5.9,0.1l11.4-1c2.5-0.3,5.7-0.3,9.6,0l9.6,0.4l0.3-0.2
		c0.1-0.2,0-0.2-0.1-0.2l-9.1-0.4c-3.7-0.2-6.7-0.2-9.1,0l-8.8,1h-0.4l0.4-0.1c0.6-0.3,1.3-0.7,2.1-1.2c1.3-1,2.6-1.5,3.9-1.3
		c0.7,0.1,1.9,0.5,3.8,1.3c0.1,0,0.2-0.1,0.4-0.2c0.7-1,1.9-1.4,3.6-1.4c1,0,2.4,0.2,4.1,0.5l0.2-0.1c0.2-0.1,0.2-0.1,0.2-0.2
		c-0.2-0.7,0.1-1.3,0.8-1.8c0.6-0.3,1.5-0.5,2.5-0.5c1,0,1.9,0.2,2.8,0.5c0.9,0.4,1.4,0.9,1.6,1.6L226.8,121z"/>
	<path class="st0" d="M190.7,119.7c-0.3,0.4-0.3,0.8,0,1.2l7.6,0l2.1-0.2c1.3-0.2,1.3-0.4,0-0.6l-2.1-0.3L190.7,119.7L190.7,119.7
		 M194.2,108.6c0.6-0.5,0.6-0.7-0.2-0.6l-1.3,0.1l-4.3,1.7v0.1c0,0.5,0.1,0.9,0.4,1v0l4.2-1.7L194.2,108.6 M194.4,101.9l2-1.6
		l0.7-0.8c0-0.2-0.3-0.1-1.1,0.2l-2.2,1.1l-7.5,5v0c-0.1,0.6,0.1,0.9,0.6,1l0,0L194.4,101.9 M202.1,113.5c1.5-0.5,1.5-0.7-0.1-0.7
		l-2.6,0.1l-9.1,1.6l0,0c-0.2,0.3-0.2,0.6-0.1,0.8l0.4,0.4l9-1.6L202.1,113.5 M141.2,116.5L141.2,116.5l-20.2-2.7
		c-2.5-0.1-2.5,0.1-0.1,0.7l20.1,3.2l0.1,0C141.8,117.3,141.8,116.9,141.2,116.5 M126.3,120.6l3.1,0.3l11.1,0l0.1,0
		c0.5-0.4,0.5-0.8,0-1.1l-0.1,0l-10.9,0l-3.2,0.2C124.5,120.1,124.5,120.3,126.3,120.6 M142.1,113.2c0.5-0.3,0.6-0.7,0.3-1.1l0,0
		l-7.4-2l-2.2-0.4l-1,0l0.8,0.6c0.5,0.3,1.2,0.6,1.9,0.9L142.1,113.2L142.1,113.2 M144,108.4c0.6-0.2,0.7-0.5,0.5-1l0,0l-7.7-4.2
		l-2.4-1l-1-0.2c-0.2,0.1,0.1,0.3,0.7,0.8l2,1.4L144,108.4L144,108.4 M150.2,88.6l0.7,2.1l3.6,7.3l0,0c0.6,0.2,0.9,0,1-0.5v-0.1
		l-3.6-7.2l-1.3-1.9l-0.7-0.7C149.9,87.5,149.9,87.9,150.2,88.6 M157.5,84.6l-0.5-0.9c-0.2-0.1-0.2,0.3-0.1,1.1l0.3,2.5l2,8.9l0.1,0
		c0.5,0.3,0.9,0.2,1.1-0.3l0,0l-2-8.7L157.5,84.6 M136.5,95.1l-1.1-0.5c-0.2,0,0,0.3,0.7,1l2,2.1l8.2,6.9h0.1c0.7,0,0.9-0.3,0.7-0.9
		l0,0L136.5,95.1 M139.4,84.2c-0.2,0,0,0.5,0.6,1.6l10.5,14.6l0.1,0c0.7,0.2,1,0,0.9-0.7l0-0.1l-10.8-14.3L139.4,84.2 M194.3,76.6
		c0.7-1.2,1.1-2,1.1-2.2c0-0.3-0.6,0.3-1.7,1.8L179,98.3l-0.1,0.2c-0.1,0.6,0,0.8,0.3,0.9c0.2,0,0.4-0.1,0.7-0.3l0.1-0.1L194.3,76.6
		 M196,87.7c0-0.2-0.5,0.1-1.4,0.9l-12.1,12.6l0,0.1c-0.1,0.4,0,0.6,0.2,0.7h0.6l0.1,0l11.7-13L196,87.7 M163.7,79.6
		c-0.3-2-0.6-2-0.7,0c-0.1,0.9-0.1,2,0,3.4l0.8,12.2l0,0.1c0.5,0.5,0.8,0.5,1.1-0.1v-0.1L163.7,79.6 M179.4,84.1
		c-0.1-0.2-0.3,0.1-0.7,0.9l-1.2,2.4l-3.4,9.1v0.1c0.2,0.6,0.6,0.7,1.1,0.4l0,0l3.4-9l0.7-2.7L179.4,84.1 M173.5,76.2
		c-0.1-0.2-0.3,0.3-0.6,1.5l-3.3,17.6l0,0.1c0.3,0.7,0.7,0.7,1.1,0.2l0-0.1l2.7-17.6L173.5,76.2z"/>
	<path class="st0" d="M92.5,160.9c0.8,0.4,1.6,1,2.4,1.8c1.2,1,2.3,2.4,3.2,4.1c0.9,1.6,1.5,3.2,1.7,4.7l0,0.6
		c0.7-1.1,0.7-2.7-0.1-4.8c-0.7-1.8-1.6-3.2-2.8-4.2c-0.6-0.6-1.3-1-2-1.3C94,161.1,93.2,160.9,92.5,160.9 M90.7,166.1l-0.1-0.1
		c0.8,2.2,1.7,3.8,2.5,4.8c0.8,0.8,1.7,1.5,2.6,2c1.3,0.7,2.3,0.9,3.1,0.4c1-0.6,1.1-1.8,0.3-3.7c-0.5-1.2-1.1-2.4-2-3.7
		c-0.6-0.8-1.2-1.5-1.9-2.1l0,0.1L90.7,166.1 M90.3,161.7c-0.6,0.6-0.6,1.9,0,3.8c0-0.2,0-0.4,0.1-0.4l4-2.1l-0.8-0.6
		c-0.7-0.4-1.2-0.7-1.5-0.8l-1.6-0.1L90.3,161.7L90.3,161.7 M100.8,132.4c-2.1,1.3-4.4,2.2-6.9,2.9c-2.5,0.7-5,1.1-7.3,1l-3.2-0.2
		l-2.6,4l6.6,0.4c2.5-0.1,5.1-0.5,7.7-1.2c2.6-0.8,5-1.8,7.2-3.1L100.8,132.4 M94.3,124.7l-0.1,1.2l-0.7,0l-6,7.4
		c-0.4,0.5-0.9,0.8-1.3,0.9c-0.7,0.2-1.2,0.2-1.7-0.1l-0.9,1.6l3.7,0.1c2.3-0.1,4.6-0.4,6.9-1.1c2.3-0.7,4.4-1.6,6.4-2.8l-0.2-0.4
		c-0.3-1-0.6-2.3-0.8-3.8l-1.5-8.6L94.3,124.7 M98.8,116.9l-0.8-0.7l-1.5-0.9l-3.1-1.3l-0.5-0.1l-3.6,4.7l-6.6,9.9
		c1.4,0.6,2.3,1.3,2.8,2.1c0.3,0.5,0.4,1,0.4,1.4c0,0.5-0.1,0.9-0.4,1.3c0.7-0.1,1.4-0.6,2.2-1.6l3.8-4.7L98.8,116.9 M92.6,108.6
		l-1,0.4l-2.6,0.3l-7.6-0.7c1,1.1,2.4,1.8,4.2,2.2c1.6,0.3,3.2,0.3,4.7-0.1c0.5-0.1,0.9-0.3,1.4-0.4c0-0.1,0.1-0.3,0.2-0.5
		C92,109.4,92.3,109,92.6,108.6 M95.9,107.1l-0.5,0.5l-1.3,0.8c-0.5,0.4-0.9,0.7-1.2,1.1l-1,1.2l-0.1,0.1l0.2-0.2
		c0.5-0.5,0.9-0.8,1.3-1c0.2-0.1,0.3-0.2,0.5-0.3c0.9-0.4,1.7-0.3,2.3,0.2c0.1,0.1,0.2,0.2,0.2,0.4c0,0.2,0,0.4-0.1,0.6l-1.9,2.9
		c1.2,0.6,2.2,1.1,2.9,1.5l0.6,0.4v-0.1l3.8-5.4c-0.9-0.2-1.9-0.6-3.1-1.2L95.9,107.1 M93.9,107.4l0.2-0.1c-0.4-1-0.5-1.9-0.4-2.6
		c-1.5,0.7-2.7,1.2-3.4,1.4c-1.3,0.4-2.5,0.5-3.7,0.2c-1.5-0.3-2.7-0.9-3.6-1.7c0.1,0.6,0.1,1.1,0.1,1.8c-0.1,0.6-0.3,1.1-0.5,1.5
		l4.8,0.5c1.8,0.1,3.3-0.1,4.6-0.5l1.2-0.5H93.9 M103.7,113.6l-0.3-0.2c-0.6-0.4-0.8-0.6-0.8-0.7l-3.2,4.2c0.1,0.3,0.2,0.6,0.1,0.7
		l-1,1.3l1.5,8.1c0.6-0.5,0.9-1.2,1-2.2c0.1-0.8,0-1.6-0.2-2.6c-0.1-0.2,0-0.2,0.2-0.2c0.1,0,0.2,0.1,0.2,0.2c0.2,1,0.3,1.9,0.2,2.8
		c-0.1,1.1-0.5,1.9-1.2,2.4h-0.3l0.9,4.1l1,3c0-0.1,0-0.2,0.1-0.2c1.4-0.3,2.7-1,3.9-2.2c1.3-1.5,2.1-3.4,2.2-5.7
		c0.2-1.9-0.1-3.9-0.7-6.1C106.7,117.6,105.4,115.4,103.7,113.6 M78.1,166.7c-0.2-0.4-0.4-0.8-0.6-1.4l-0.8-3.1l-1-0.9
		c-0.4-0.3-0.8-0.4-1.1-0.4c-0.3,0.1-0.6,0.3-0.8,0.6c-0.2,0.3-0.3,0.6-0.4,0.9c-0.3,1.5,0.3,3.2,1.9,5.1l0.6,0.8
		c0.2,0.3,0.5,0.4,0.8,0.6l1.2,0.5c0.4,0.2,0.6,0.6,0.7,1.1l-0.2,0.6c-0.2,0.5,0.1,1.1,0.9,1.6c0.8,0.4,1.9,0.6,3.2,0.6
		c2.1,0,3.2-1.3,3.2-3.7c-1.7,0.5-2.9,0.6-3.8,0.2c-0.9-0.3-1.9-1-2.8-2C78.7,167.5,78.3,167.1,78.1,166.7 M61.2,156.4
		c0.8,0.5,1.5,0.6,1.9,0.4c0.2-0.1,0.4-0.2,0.6-0.5l19-26.9l-0.5-0.1c-0.1-0.1-0.2-0.2-0.2-0.5c0-0.2,0-0.4,0.1-0.5l7.4-11.2
		l0.2-0.2l3.2-4.2h0.1l0.8,0.3l1.9-3c-0.6-0.2-1.4,0-2.2,0.5c-0.6,0.4-1.2,1-1.7,1.7c-0.1,0.3-0.5,0.9-1.2,1.6l-29.8,40.7
		C60.3,155.4,60.4,155.9,61.2,156.4 M77.8,143.8c-1,0.9-2.1,1.3-3.2,1.2c0,3.8,0.2,7.3,0.8,10.4c0.5,2.7,1.2,5.5,2,8.5l0.6,2
		l0.9,1.2c0.7,0.7,1.3,1.2,1.8,1.5c0.7,0.4,1.4,0.5,2.2,0.5c1.3-0.1,2.4-0.3,3.3-0.7l-0.3-4.8c-0.1-5.6,0.6-10.2,2.3-14.1l-4.4,0.4
		c-0.1,0-0.2-0.1-0.3-0.5c-0.1-0.3-0.1-0.5,0-0.5c3.9-0.1,6.9-0.9,8.8-2.4c0.1-0.1,0.2,0.1,0.2,0.4c0.1,0.3,0.1,0.5,0,0.6
		c-1,0.8-2.2,1.4-3.6,1.8c0.5,1,1.2,1.9,2.1,2.8c0.9,0.8,1.8,1.5,2.9,2c0.1,0.1,0.2,0.3,0.2,0.6c0,0.3,0,0.5,0,0.4l-1.2-0.7
		c-0.7,1.7-1.1,3.6-1.1,5.5c1.1,0,2.3,0.4,3.6,1.2c1.1,0.8,2,1.6,2.7,2.6l0.6,1.1v-0.1l0.8-1.1c1.4-2.1,2.6-4.1,3.5-6
		c0.8-1.7,1.4-3.1,1.7-4.2c0.5-1.6,0.7-3.1,0.7-4.4c-0.1-1.9-0.5-4-1.2-6.2c-0.4-1.2-1.1-3.2-2.2-5.9c-2.3,1.4-4.8,2.4-7.4,3.1
		c-2.7,0.8-5.4,1.2-7.9,1.1c-2.4,0-4.6-0.2-6.6-0.5C79.5,142.1,78.6,143.2,77.8,143.8 M71.7,138.4l1.2-1.7c-0.5-0.5-1-0.8-1.4-0.8
		c-0.6-0.1-1,0.2-1.2,0.9c0.5,0.4,1,0.9,1.3,1.5L71.7,138.4 M74.7,142.1L74.7,142.1l-1.2,1.6l0.7,0.1l0.5,0.1c1,0,2-0.4,3-1.2
		c0.6-0.5,1.2-1.2,2-2.2l4.8-7.4c1-0.5,1.2-1,0.8-1.7l-0.2-0.2l0-0.1l-0.2-0.2c-0.4-0.4-0.9-0.7-1.6-1l-0.1-0.1l0,0.1l-8,11.4v0.1
		L74.7,142.1 M69.8,137.4c-0.4-0.2-0.8-0.2-1.2,0c-0.3,0.2-0.5,0.5-0.6,1l1,1.4c0.3,0.5,0.5,1,0.6,1.4l1.8-2.4l-0.2-0.2
		C70.7,138,70.3,137.6,69.8,137.4 M73.6,133.8c-0.2-0.3-0.5-0.4-0.7-0.4l-0.8-0.1c-0.8,0-1.4-0.4-1.7-1.3c0,0.2,0,0.2,0,0.2
		c-1.2-0.3-2.4-0.1-3.6,0.8c-1,0.7-1.8,1.7-2.4,2.9l0.1,0.2c0,0.2-0.1,0.5-0.2,0.9c-0.1,0.4-0.2,0.7-0.2,0.9c0,0.9,0.3,1.8,0.8,2.6
		c0.6,0.8,1.3,1.4,2.2,1.7l1.2,0.1c0.5,0,0.8-0.2,1.1-0.4c0.3-0.4,0.2-0.9-0.2-1.6c-0.3-0.6-0.7-1-1.2-1.2c-0.5-0.3-0.8-0.3-1.1-0.2
		c-0.3,0.2-0.3,0.5,0,1.1c0.1,0.1,0.1,0.3,0,0.6c0,0.3,0,0.3-0.1,0c-0.6-1.2-0.7-2-0.4-2.5l1.5,0.1v-0.1c0.1-0.5,0.2-0.9,0.5-1.2
		l-0.7-0.7l-0.1-0.6c0-0.3,0.1-0.4,0.2-0.2c0.4,0.7,1.2,1,2.2,1.1l0.2-0.6l0.4-0.7c0.8-0.6,1.8-0.2,2.8,1.2h0.1l1.1-1.5L73.6,133.8
		 M71.1,112.2c-2.5,1.7-4.5,3.7-5.8,6c-1.3,2.2-2.1,4.9-2.5,7.9c-0.2,1.9-0.2,3.4-0.1,4.6c0.1,1.8,0.5,3.2,1.2,4.4l0.2,0.4
		c0.7-1.3,1.5-2.3,2.5-3c1.2-0.9,2.4-1.1,3.7-0.8l0.1,0.1c-0.1-0.6-0.2-1.2-0.2-2c0-1.5,0.2-2.9,0.7-4c0.5-1.3,1.2-2.4,2.1-3.4
		l2-1.8c0.8-0.7,1.6-1.2,2.3-1.4l0.2-2.2c0-0.2,0.1-0.2,0.2,0.1l0.2,0.6l-2.2,15.4l5.9-8h-0.2l0.5-6.8l-0.9-0.1l0.1-1.6l3.4-0.2
		l-0.4,5.2l2.2-3l-0.2-0.1l0.2-1.6l1.3-0.1l3.9-5.3V111c-0.6,0.2-1.2,0.4-2,0.4c-1.7,0.2-3.2,0.1-4.6-0.3c-1.7-0.5-3-1.3-3.9-2.4
		h-0.2C77.8,108.6,74.6,109.8,71.1,112.2 M120.2,96.7c-0.8-1-1.8-2.1-2.8-3.1l-5.2,3.4c-1.2,0.8-2,1.4-2.5,1.9
		c-0.9,0.7-1.6,1.4-2.2,2.2l-1.2,1.5c-0.5,0.5-1,0.8-1.6,1.1l-5.4,2.1c-0.2,0-0.3,0-0.5-0.1l-1.1-0.7l-1.2,1.6l2.9,1.6
		c1.1,0.6,2.1,0.9,3,0.9c0.1,0,0.2,0.2,0.2,0.4c0,0.3,0,0.4,0,0.6v0.1l-4.1,5.8l0.3,0.3v0l3.4-4.5h0.1c0.4,0.5,0.8,0.8,1.2,1.1
		c0.4,0.2,0.8,0.4,1.2,0.4c1.1,0.1,2-0.2,2.7-1.1l0.5-0.6c0.2-0.3,0.2-0.5,0.1-0.6l-0.9-0.8l-1.1-0.6c-0.1-0.1-0.2-0.2-0.2-0.5
		c0-0.3,0-0.5,0.1-0.6l4-2.4c1.6-0.8,3.4-1.4,5.5-1.6l8.5-1c0.1-0.5-0.1-1.2-0.8-2.2l-1.2-1.9C121.5,98.3,120.8,97.5,120.2,96.7
		 M104.8,109.4c0.6-0.1,1-0.1,1.4,0.2c0.3,0.3,0.5,0.7,0.5,1.2c0,0.4,0,0.8-0.2,1.2l-0.1,0.1c-0.3,0.4-0.6,0.7-0.9,0.8
		c-0.4,0.1-0.8,0-1.2-0.3c-0.3-0.3-0.5-0.7-0.7-1.2c-0.2-0.5-0.2-1,0-1.4C103.9,109.7,104.3,109.5,104.8,109.4 M118.4,92.9l-0.8,0.5
		c1.9,2,3.3,3.8,4.2,5.1l1.5,2.1c0.7,1.1,1,2,0.9,2.6l1-0.2c0.1-0.5-0.1-1.2-0.8-2.3L118.4,92.9 M119.8,92.1L119.8,92.1l-1.1,0.6
		c1.9,2.1,3.3,3.8,4.2,5.1l1.3,2c0.5,0.8,0.9,1.5,1.1,2.1c0.2,0.5,0.2,0.8,0.2,1.1l0.8-0.2c0.4-0.1,0.6-0.2,0.7-0.4
		c0.1-0.2,0-0.6-0.2-1.1l-1.9-3L119.8,92.1 M95.1,82.7c-0.5-0.5-1-0.9-1.3-1l-1.9-0.2c-0.9,0-1.5-0.2-1.9-0.5
		c-0.8-0.8-1.4-1.4-1.8-1.7c-0.7-0.5-1.5-0.4-2.2,0.1l-1.3,1.2l-0.9,0.3l-0.9,0.2c-0.7,0.2-1.2,0.5-1.6,0.9c-0.2,0.2-0.5,0.8-1,1.6
		c-0.2,0.4-0.6,0.8-1.1,1.2c-0.6,0.5-1,0.8-1.2,1.1c-0.9,1.1-1.4,2.2-1.8,3.3c-0.5,1.4-0.5,3.1-0.1,5c0.4,1.8,1,3.3,1.9,4.7
		c0.7,1,1.4,1.9,2,2.5c0.7,0.7,1.2,1.1,1.6,1.4l0.9,0.4l0.1,0.1c0.5,0.6,1.2,1.2,2.1,1.6c0.8,0.4,1.6,0.6,2.5,0.6
		c1.2,0.1,2.4-0.1,3.7-0.6l3.4-1.6l1.6-1.2c1.4-1.4,2.4-3.1,3.1-5.1c0.6-2,0.9-3.9,0.7-5.9l-0.2-4c0-1.7-0.6-3.2-1.7-4.4
		c0.2,0.3,0.2,0.6-0.2,0.9c-0.4,0.4-0.7,0.5-1.1,0.4C96.1,83.6,95.7,83.3,95.1,82.7 M81.8,85.9c0.1-0.1,0.2,0,0.3,0.4
		c0.1,0.4,0.1,0.7,0,0.8c-1.8,2.2-2.2,4.9-1.2,8c0.9,3,2.7,5,5.4,6.1c0.2,0.1,0.3,0.3,0.3,0.8s-0.1,0.6-0.2,0.5
		c-3-1.1-5.1-3.5-6.1-7.2C79.2,91.6,79.8,88.5,81.8,85.9 M81.6,85.3c0.1,0,0.2,0.1,0.2,0.3c0,0.2,0,0.3-0.1,0.3
		c-1.3,0.4-2.3,1.2-3,2.4c-0.7,1.2-1,2.4-0.9,3.8c0,0.2,0,0.3-0.2,0.2c-0.1-0.1-0.2-0.2-0.2-0.4c-0.1-1.5,0.3-2.9,1-4.1
		C79.2,86.6,80.2,85.7,81.6,85.3 M83,84.9c-0.3,0-0.4,0-0.4-0.2c0-0.6,0.3-1.2,0.9-1.8c0.5-0.4,1.1-0.8,1.8-0.9
		c1.9-0.5,3.6-0.3,5.3,0.7c0.2,0.1,0.2,0.3-0.1,0.4s-0.4,0.2-0.6,0.1c-1.6-0.9-3.1-1.1-4.5-0.6c-1.3,0.5-2,1.2-2,2.1
		C83.4,84.8,83.3,84.9,83,84.9 M84.2,85.7c-0.2,0-0.3-0.3-0.4-0.7c0-0.4,0-0.6,0.2-0.6c2.7,0.2,5,1.4,6.8,3.5
		c1.8,2.2,2.5,4.6,1.9,7.2c0,0.3-0.1,0.3-0.3,0c-0.2-0.4-0.2-0.7-0.2-0.9c0.5-2.2-0.2-4.1-2-5.8C88.4,86.8,86.4,85.9,84.2,85.7
		 M83.3,86.4c0-0.4,0.1-0.5,0.3-0.4c2,1.9,3.4,4.1,4.3,6.7c0.9,2.6,1,5.3,0.3,7.9c-0.1,0.3-0.2,0.3-0.3-0.1
		c-0.2-0.3-0.2-0.6-0.2-0.8c0.5-2.3,0.4-4.5-0.4-6.9c-0.8-2.2-2-4.1-3.8-5.8C83.4,87,83.3,86.8,83.3,86.4 M96.1,96.2
		c0-0.4,0.1-0.5,0.3-0.2c0.2,0.3,0.3,0.5,0.3,0.8c-0.1,1.5-0.4,2.7-1.1,3.7c-0.7,1.1-1.8,1.8-3.1,2.1c-0.2,0-0.3-0.2-0.4-0.6
		s0-0.7,0.2-0.7c1.2-0.2,2.1-0.8,2.8-1.8C95.7,98.6,96,97.5,96.1,96.2z"/>
</g>
</svg>
