<?xml version="1.0" encoding="utf-8"?>
<!-- Generator: Adobe Illustrator 25.4.1, SVG Export Plug-In . SVG Version: 6.00 Build 0)  -->
<svg version="1.1" id="PerkClip_1d246b" image-rendering="auto"
	 xmlns="http://www.w3.org/2000/svg" xmlns:xlink="http://www.w3.org/1999/xlink" x="0px" y="0px" viewBox="0 0 240 240"
	 style="enable-background:new 0 0 240 240;" xml:space="preserve">
<style type="text/css">
	.st0{fill:#FFFFFF;}
</style>
<g>
	<rect width="240" height="240"/>
	<path class="st0" d="M57.9,123.7v-0.6H17.5l0.8,0.6C31.5,123.1,44.7,123.1,57.9,123.7 M172.1,127.4c0.6-0.1,0.6-0.2,0-0.3l-1.5,0.1
		l-1.4,0.6c-0.6,0.1-0.6,0.2,0,0.4l1.5-0.1C171.2,127.9,171.6,127.7,172.1,127.4 M174.6,128.1c-0.5,0.1-0.6,0.2-0.5,0.2
		c6.4,0,14.7,0.1,25.1,0.4c0.4,0,1-0.1,1.8-0.4c-10.2-0.2-18.6-0.3-25.1-0.3L174.6,128.1 M226.8,121c-0.3-1-1.2-1.7-2.8-2
		c-1.3-0.2-2.5-0.2-3.8,0.1c-0.7,0.2-1.3,0.5-1.6,0.9c-0.2,0.3-0.4,0.6-0.4,0.9c-0.1,0.2-0.4,0.3-1.1,0.2l-1.5-0.2
		c-1.8-0.2-3.1,0-4,0.6l-1.1,0.7c-0.1,0.1-0.7,0-1.8-0.3l-1.9-0.7c-1.2-0.2-2.5,0.2-3.9,1.2c-1,0.7-2,1.2-3,1.5l-7.4,0.4l-75.4-1.4
		v0.4l55,0.9c6.2,0.1,10.6,0.1,13.3,0.2l5.6,0.2c1.9,0.1,3.9,0.1,5.9,0.1l11.4-1c2.5-0.3,5.7-0.3,9.6,0l9.6,0.4l0.3-0.2
		c0.1-0.2,0-0.2-0.1-0.2l-9.1-0.4c-3.7-0.2-6.7-0.2-9.1,0l-8.8,1h-0.4l0.4-0.1c0.6-0.3,1.3-0.7,2.1-1.2c1.3-1,2.6-1.5,3.9-1.3
		c0.7,0.1,1.9,0.5,3.8,1.3c0.1,0,0.2-0.1,0.4-0.2c0.7-1,1.9-1.4,3.6-1.4c1,0,2.4,0.2,4.1,0.5l0.2-0.1c0.2-0.1,0.2-0.1,0.2-0.2
		c-0.2-0.7,0.1-1.3,0.8-1.8c0.6-0.3,1.5-0.5,2.5-0.5c1,0,1.9,0.2,2.8,0.5c0.9,0.4,1.4,0.9,1.6,1.6L226.8,121z"/>
	<path class="st0" d="M190.7,119.7c-0.3,0.4-0.3,0.8,0,1.2l7.6,0l2.1-0.2c1.3-0.2,1.3-0.4,0-0.6l-2.1-0.3L190.7,119.7L190.7,119.7
		 M194.2,108.6c0.6-0.5,0.6-0.7-0.2-0.6l-1.3,0.1l-4.3,1.7v0.1c0,0.5,0.1,0.9,0.4,1v0l4.2-1.7L194.2,108.6 M194.4,101.9l2-1.6
		l0.7-0.8c0-0.2-0.3-0.1-1.1,0.2l-2.2,1.1l-7.5,5v0c-0.1,0.6,0.1,0.9,0.6,1l0,0L194.4,101.9 M202.1,113.5c1.5-0.5,1.5-0.7-0.1-0.7
		l-2.6,0.1l-9.1,1.6l0,0c-0.2,0.3-0.2,0.6-0.1,0.8l0.4,0.4l9-1.6L202.1,113.5 M141.2,116.5L141.2,116.5l-20.2-2.7
		c-2.5-0.1-2.5,0.1-0.1,0.7l20.1,3.2l0.1,0C141.8,117.3,141.8,116.9,141.2,116.5 M126.3,120.6l3.1,0.3l11.1,0l0.1,0
		c0.5-0.4,0.5-0.8,0-1.1l-0.1,0l-10.9,0l-3.2,0.2C124.5,120.1,124.5,120.3,126.3,120.6 M142.1,113.2c0.5-0.3,0.6-0.7,0.3-1.1l0,0
		l-7.4-2l-2.2-0.4l-1,0l0.8,0.6c0.5,0.3,1.2,0.6,1.9,0.9L142.1,113.2L142.1,113.2 M144,108.4c0.6-0.2,0.7-0.5,0.5-1l0,0l-7.7-4.2
		l-2.4-1l-1-0.2c-0.2,0.1,0.1,0.3,0.7,0.8l2,1.4L144,108.4L144,108.4 M150.2,88.6l0.7,2.1l3.6,7.3l0,0c0.6,0.2,0.9,0,1-0.5v-0.1
		l-3.6-7.2l-1.3-1.9l-0.7-0.7C149.9,87.5,149.9,87.9,150.2,88.6 M157.5,84.6l-0.5-0.9c-0.2-0.1-0.2,0.3-0.1,1.1l0.3,2.5l2,8.9l0.1,0
		c0.5,0.3,0.9,0.2,1.1-0.3l0,0l-2-8.7L157.5,84.6 M136.5,95.1l-1.1-0.5c-0.2,0,0,0.3,0.7,1l2,2.1l8.2,6.9h0.1c0.7,0,0.9-0.3,0.7-0.9
		l0,0L136.5,95.1 M139.4,84.2c-0.2,0,0,0.5,0.6,1.6l10.5,14.6l0.1,0c0.7,0.2,1,0,0.9-0.7l0-0.1l-10.8-14.3L139.4,84.2 M194.3,76.6
		c0.7-1.2,1.1-2,1.1-2.2c0-0.3-0.6,0.3-1.7,1.8L179,98.3l-0.1,0.2c-0.1,0.6,0,0.8,0.3,0.9c0.2,0,0.4-0.1,0.7-0.3l0.1-0.1L194.3,76.6
		 M196,87.7c0-0.2-0.5,0.1-1.4,0.9l-12.1,12.6l0,0.1c-0.1,0.4,0,0.6,0.2,0.7h0.6l0.1,0l11.7-13L196,87.7 M163.7,79.6
		c-0.3-2-0.6-2-0.7,0c-0.1,0.9-0.1,2,0,3.4l0.8,12.2l0,0.1c0.5,0.5,0.8,0.5,1.1-0.1v-0.1L163.7,79.6 M179.4,84.1
		c-0.1-0.2-0.3,0.1-0.7,0.9l-1.2,2.4l-3.4,9.1v0.1c0.2,0.6,0.6,0.7,1.1,0.4l0,0l3.4-9l0.7-2.7L179.4,84.1 M173.5,76.2
		c-0.1-0.2-0.3,0.3-0.6,1.5l-3.3,17.6l0,0.1c0.3,0.7,0.7,0.7,1.1,0.2l0-0.1l2.7-17.6L173.5,76.2z"/>
	<path class="st0" d="M98.4,156.6c-0.6-0.6-1.3-1.1-2-1.5c-0.8-0.5-1.6-0.8-2.4-0.8c0.6,0.4,1.3,0.9,2,1.6c1.3,1.2,2.3,2.7,3.1,4.4
		c0.9,1.8,1.4,3.4,1.5,4.8l0,0.7c0.6-0.9,0.8-2.3,0.4-4.1C100.6,159.6,99.7,157.8,98.4,156.6 M91.8,159.2l0.1,0.2
		c0.3,1.1,0.7,2,0.9,2.7c0.4,1,0.9,1.8,1.4,2.4c1,1.1,2,1.9,3.1,2.3c1.1,0.5,1.9,0.5,2.3,0.2c0.9-0.6,1.1-1.9,0.5-3.8
		c-0.4-1.2-1-2.5-1.9-3.9c-0.4-0.7-0.9-1.4-1.5-2l-0.1,0.1l-4.7,2L91.8,159.2 M95.9,156.6l-1-0.8c-0.5-0.4-1-0.7-1.3-0.8
		c-0.6-0.3-1.1-0.3-1.5-0.2l-0.2,0.2l0-0.1c-0.7,0.6-0.8,1.8-0.3,3.8c0-0.2,0-0.3,0.1-0.4L95.9,156.6 M100.6,135.2l0.5,0.7
		c0.9,1.2,1.6,2.5,2.3,3.8l0.1-0.1c0.7-0.4,1.2-1,1.5-1.8c0.2-0.7,0.2-1.5-0.1-2.3l-2.2,0.1c-0.8,0-1.5-0.3-2-0.8l-0.2-0.6
		L100.6,135.2 M100.4,135.8c-0.1-0.2-0.2-0.6-0.3-1.4l-0.4-2.2c-2,1.3-4.2,2.2-6.7,2.9c-2.4,0.6-4.8,0.9-7.2,0.8l-2.6-0.1l-2.6,4
		l6.4,0.4c2.4-0.1,4.7-0.5,7-1.2C96.5,138.2,98.6,137.2,100.4,135.8 M93.9,125.7l-0.7,0l-5.9,7.5c-0.4,0.5-0.9,0.8-1.4,0.9
		c-0.7,0.2-1.2,0.2-1.6,0l-0.8,1.3c1.1,0.1,2.3,0.1,3.5,0.1c2.2-0.1,4.4-0.4,6.5-1.1c2.2-0.6,4.2-1.5,6-2.7l-2.2-11.9l-3.3,4.8
		L93.9,125.7 M98.4,116.8c-0.4-0.4-0.9-0.8-1.5-1.2l-0.7-0.4l-3-1.3l-0.5-0.1l-6.3,8.4l-3.9,6.2c1.4,0.6,2.3,1.3,2.8,2.1
		c0.3,0.5,0.4,0.9,0.4,1.4c0,0.5-0.1,0.9-0.4,1.3c0.7-0.1,1.4-0.7,2.2-1.6l3.8-4.7L98.4,116.8 M91.4,109.8l0.4-0.6
		c-1.6,0.6-3.5,0.7-5.5,0.4l-4.7-1.2h-0.5c1,1,2.4,1.7,4.2,2.1c1.6,0.3,3.2,0.3,4.7-0.1c0.5-0.1,1-0.3,1.4-0.5L91.4,109.8
		 M92.6,107.6L92.6,107.6c0.4-0.3,0.9-0.5,1.2-0.7c-0.4-1.1-0.6-2-0.5-2.8c-1.5,0.7-2.6,1.2-3.4,1.4c-1.3,0.4-2.5,0.4-3.6,0.2
		c-1.5-0.3-2.7-0.9-3.6-1.7c0.1,0.6,0.1,1.3,0,1.9c-0.1,0.7-0.3,1.2-0.5,1.6l2.6,0.7l4,0.3C90.1,108.5,91.4,108.2,92.6,107.6
		 M95.1,107.4l-1.2,0.9c-0.3,0.3-0.6,0.5-0.9,0.8l-0.2,0.2v0.1h0l-1,1.3l-0.1,0.1l0.2-0.2c0.4-0.5,0.9-0.8,1.3-1.1l0.5-0.3
		c0.9-0.4,1.6-0.3,2.3,0.2c0.1,0.1,0.2,0.3,0.2,0.5s0.1,0.4-0.1,0.5l-1.9,3c1.2,0.5,2.2,1,3,1.4l0.6,0.3v0l3.6-5.4
		c-0.9-0.2-1.9-0.6-3-1.2l-2.8-1.6L95.1,107.4 M105.6,114.1c-0.5,0.1-0.9,0-1.3-0.2l-1.2-0.7c-0.6-0.4-0.8-0.7-0.8-0.8l-3.2,4.2
		c0.1,0.3,0.2,0.5,0,0.7l-1.4,2l2.7,14.7v-0.2c0-0.1,0.1-0.1,0.2,0c0.8,0.7,2.2,0.9,4.2,0.4c0.1,0,0.2-0.2,0.4-0.7l2-5.6
		c0.8-3.4,0.7-6.7-0.1-10.1C106.6,116.5,106.1,115.2,105.6,114.1 M74.4,164.2c-1.5-0.2-2.1,0.3-1.8,1.6c0.3,1.3,1.1,2.6,2.6,3.9
		c0.7,0.6,1.3,1,1.7,1.2c0.6,0.3,1.2,0.5,1.9,0.6c0.4,0,0.7,0.1,0.8,0.2c0.2,0.1,0.3,0.3,0.4,0.7l0.2,0.8c0.1,0.2,0.3,0.4,0.6,0.6
		c0.6,0.3,1.2,0.5,1.6,0.5c1.4,0,2.5-0.3,3.3-0.9c1.4-0.9,1.7-2.4,1-4.3l-0.8,0.4c-0.9,0.4-1.6,0.6-2.3,0.7l-2.4-0.1l-1.1-0.4
		c-0.5-0.2-0.8-0.4-1-0.6c-0.2-0.4-0.4-0.9-0.7-1.6l-0.5-2C76.6,164.8,75.4,164.4,74.4,164.2 M62.8,156.7c0.2-0.1,0.4-0.3,0.6-0.6
		l18.9-26.8l-0.3-0.2h-0.1c-0.1-0.1-0.2-0.2-0.2-0.5c0-0.2,0-0.4,0-0.5l5.1-7.9l5.7-7.6h0.1l0.9,0.3l2-3c-0.6-0.2-1.4,0-2.2,0.5
		c-0.6,0.4-1.2,1-1.7,1.7c-0.1,0.2-0.2,0.5-0.6,0.8l-0.7,0.8l-7.9,10.9l-0.1,0v0.1l-21.6,29.8c-0.6,0.7-0.5,1.3,0.2,1.7
		C61.7,156.8,62.3,156.9,62.8,156.7 M74.2,143.8c1.1,0.1,2.2-0.4,3.2-1.2c0.6-0.5,1.3-1.4,2.2-2.4l4.5-7.1V133l0.1-0.1
		c1-0.5,1.3-1,0.9-1.7l-0.1-0.1l-0.1-0.1l-0.2-0.2c-0.4-0.3-0.9-0.7-1.5-1.1l-0.1-0.1l-0.1,0.1l-9.8,13.9l0.6,0.1L74.2,143.8
		 M77.6,143.6c-1.1,0.9-2.2,1.3-3.4,1.2c0,1.9,0.1,3.7,0.2,5.3c0.6,4.2,1.8,9.1,3.6,14.6l1.2,3.5c0.5,0.3,0.9,0.5,1.2,0.6
		c1.8,0.7,3.8,0.4,5.9-0.7c0-0.2,0.1-0.2,0.2-0.1l1.1-0.7c-0.7-3.9-1.1-6.9-1.1-8.9c-0.1-3.4,0.5-6.3,1.9-8.6
		c-1.6,0.5-3.3,0.8-5,0.9c-0.1,0-0.2-0.2-0.3-0.5c-0.1-0.3-0.1-0.5,0-0.5c1.8,0,3.5-0.3,5.2-0.9c1.8-0.6,3.3-1.4,4.6-2.5
		c0.1-0.1,0.2,0.1,0.3,0.4c0.1,0.3,0.1,0.5,0,0.6c-0.8,0.7-1.6,1.2-2.5,1.6c2.9,0.8,5.4,0.8,7.7,0c0.1,0,0.2,0.1,0.3,0.4
		c0.1,0.3,0.1,0.5-0.1,0.6c-0.8,0.3-1.8,0.5-2.9,0.6h0c-0.5,0.3-0.9,0.7-1.2,1.2c-0.3,0.5-0.4,1-0.3,1.6c1.1,0.1,2.3,0.7,3.5,1.7
		c1,0.9,1.8,1.9,2.4,2.9l0.8,1.6c-0.1-0.4-0.1-0.6,0-0.6c0.5-0.2,0.9-0.5,1.2-0.8c2.6-1.8,3.9-4.5,3.8-8.2c0-2.9-0.8-6-2.4-9.2
		c-0.9-1.8-1.8-3.4-2.8-4.7c-1.9,1.5-4.1,2.6-6.6,3.4c-2.5,0.8-4.9,1.2-7.3,1.1l-6.4-0.5C79.3,141.9,78.3,143,77.6,143.6
		 M69.4,113.9c-1.2,1.8-2.1,3.8-2.8,6c-0.6,2.4-0.8,4.6-0.5,6.6c0.5,2.7,1.7,5,3.5,6.7c1.3,1.3,2.6,2,3.9,2.1l0.9-1.2
		c0.2-1.6,0.4-3.6,0.8-5.8c-0.6-1-1.1-2-1.4-3.1c-0.3-1.2-0.4-2.3-0.2-3.4c0-0.1,0.1-0.1,0.2,0.2c0.1,0.3,0.2,0.5,0.2,0.7
		c-0.2,1.6,0.2,3.2,1.3,4.9l1.4-9.9c0-0.2,0.1-0.2,0.2,0.1s0.2,0.5,0.2,0.6l-2,14.4l0.2,0.1l5.9-8.2h-0.2l0.6-6.8l-1-0.1l0.1-1.6
		l3.4-0.2l-0.4,5.2l2.2-3l-0.3-0.1l0.2-1.5l1.3-0.1l3.9-5.3v-0.7c-0.6,0.3-1.2,0.4-1.9,0.4c-1.6,0.2-3.2,0.1-4.6-0.3
		c-1.8-0.4-3.1-1.2-3.9-2.3c-2.2-0.2-4.3,0.2-6.4,1.2C72.3,110.6,70.6,112.1,69.4,113.9 M117.2,93.4l-7.8,5.2
		c-0.9,0.7-1.6,1.5-2.2,2.2l-1.2,1.5c-0.5,0.5-1,0.9-1.6,1.1l-5.4,2.1l-0.5-0.2l-1.1-0.6l-1.2,1.6l3.1,1.7l1.4,0.6l1.4,0.3
		c0.1,0,0.2,0.2,0.3,0.4v0.4l-0.1,0.2l-4,5.8l0.3,0.3v0l3.5-4.5l0.1,0.1c0.7,0.9,1.5,1.4,2.5,1.5l0.4,0.1l0.4-0.1
		c0.7-0.1,1.3-0.4,1.8-1.1l0.4-0.6c0.2-0.3,0.2-0.5,0.2-0.7l-0.9-0.8l-1.1-0.6c-0.1-0.1-0.2-0.3-0.2-0.6c0-0.3,0-0.4,0.1-0.5
		c1.5-1,2.8-1.8,4-2.4c1.6-0.9,3.4-1.5,5.4-1.7l8.4-1c0.2-0.4-0.1-1.2-0.7-2.2L117.2,93.4 M103.3,111.4c-0.1-0.3-0.1-0.6-0.1-0.9
		c0-0.2,0-0.3,0.1-0.4l0.1-0.2c0.2-0.4,0.6-0.6,1.1-0.7c0.6-0.1,1,0,1.4,0.3c0.3,0.3,0.5,0.6,0.5,1.1c0,0.4,0,0.9-0.2,1.2l0,0.1
		c-0.2,0.4-0.5,0.6-0.8,0.8l-0.3,0.1c-0.3,0-0.7-0.1-0.9-0.3C103.8,112.2,103.5,111.8,103.3,111.4 M103.7,110.9v0.1l0.4,0.6l0.2,0.2
		L103.7,110.9 M119.4,91.9l-0.1,0.1l-0.9,0.6c1.9,2.1,3.3,3.8,4.2,5l1.3,2c0.5,0.8,0.9,1.5,1.1,2.1l0.2,1.1c0.9-0.2,1.3-0.4,1.4-0.6
		c0.1-0.2,0-0.6-0.2-1.1l-3.8-5.4L119.4,91.9 M118.2,92.8l-0.8,0.4c1.9,2,3.3,3.7,4.2,5.1l1.5,2.1c0.7,1.1,1,2,1,2.7l1-0.2
		c0.1-0.5-0.2-1.2-0.8-2.3l-1.3-2L118.2,92.8 M94.8,82.3c-0.6-0.5-1-0.9-1.3-1l-2-0.2c-0.9,0-1.5-0.2-1.8-0.5
		c-0.8-0.9-1.4-1.4-1.8-1.7c-0.7-0.5-1.5-0.4-2.2,0.2l-1.3,1.2l-0.8,0.3l-0.9,0.1c-0.7,0.2-1.2,0.5-1.6,0.9c-0.2,0.2-0.5,0.7-1,1.6
		c-0.2,0.4-0.6,0.8-1.1,1.2c-0.6,0.5-1,0.8-1.2,1.1c-0.8,1.1-1.4,2.2-1.8,3.2c-0.4,1.5-0.5,3.1-0.1,5.1c0.4,1.8,1,3.3,1.9,4.6
		c0.7,1,1.3,1.8,2,2.6c0.7,0.7,1.2,1.1,1.5,1.3l0.5,0.2c0.2,0.1,0.3,0.2,0.5,0.2l0,0.1c0.5,0.6,1.2,1.1,2.1,1.5
		c0.8,0.4,1.7,0.6,2.5,0.6c1.2,0.1,2.4-0.1,3.8-0.6l3.4-1.6l1.6-1.2c1.4-1.4,2.4-3.1,3-5.1c0.6-1.9,0.9-3.9,0.7-5.9l-0.1-4
		c0-1.8-0.6-3.3-1.8-4.6c0.3,0.3,0.2,0.7-0.1,1c-0.4,0.4-0.7,0.5-1.1,0.3C95.8,83.2,95.4,82.9,94.8,82.3 M83.1,84.1
		c0,0.1-0.1,0.2-0.4,0.3c-0.3,0-0.4,0-0.4-0.1c0-0.7,0.3-1.2,0.9-1.8c0.5-0.4,1.1-0.7,1.8-0.9c1.9-0.6,3.7-0.3,5.3,0.7
		c0.1,0,0,0.1-0.2,0.2l-0.5,0.1c-0.7-0.4-1.5-0.7-2.3-0.8c-0.9-0.1-1.7,0-2.4,0.3C83.7,82.6,83.1,83.3,83.1,84.1 M81.5,85.6
		c0.1-0.1,0.2,0,0.3,0.4c0.1,0.4,0.1,0.7,0,0.8c-1.8,2.2-2.2,4.9-1.2,7.9s2.7,5.1,5.4,6.1c0.2,0.1,0.3,0.3,0.3,0.8
		c0,0.4-0.1,0.6-0.2,0.5c-3-1.1-5.1-3.5-6.1-7.2C79,91.1,79.5,88.1,81.5,85.6 M81.3,84.9c0.1,0,0.1,0.1,0.2,0.2
		c0.1,0.2,0,0.4-0.1,0.4c-1.3,0.4-2.3,1.2-3,2.4c-0.7,1.1-1,2.4-1,3.8c0,0.2,0,0.3-0.1,0.2s-0.2-0.2-0.2-0.3
		c-0.1-1.5,0.2-2.9,0.9-4.1C78.9,86.2,80,85.3,81.3,84.9 M83.1,85.9c0-0.4,0.1-0.6,0.2-0.3c2,1.9,3.5,4.1,4.3,6.7
		c0.9,2.6,1,5.3,0.4,7.9c-0.1,0.3-0.2,0.3-0.4-0.1c-0.2-0.3-0.2-0.6-0.2-0.8c0.5-2.3,0.4-4.6-0.4-6.9c-0.8-2.2-2.1-4.1-3.9-5.8
		C83.1,86.6,83,86.4,83.1,85.9 M83.5,84.6c-0.1-0.4,0-0.7,0.2-0.7c2.7,0.2,4.9,1.4,6.7,3.4c1.9,2.2,2.5,4.6,1.9,7.2
		c-0.1,0.3-0.2,0.3-0.3,0c-0.2-0.3-0.2-0.6-0.2-0.8c0.5-2.2-0.2-4.2-2.1-5.9c-1.7-1.6-3.6-2.5-5.8-2.6C83.7,85.3,83.5,85,83.5,84.6
		 M95.8,95.9c0-0.4,0.2-0.5,0.3-0.2s0.3,0.5,0.2,0.8c-0.1,1.5-0.4,2.7-1.1,3.7c-0.7,1.1-1.8,1.8-3.1,2.1c-0.2,0-0.3-0.2-0.3-0.6
		c-0.1-0.4-0.1-0.7,0.1-0.7c1.2-0.2,2.1-0.8,2.8-1.8C95.4,98.2,95.7,97.1,95.8,95.9z"/>
</g>
</svg>
