<?xml version="1.0" encoding="utf-8"?>
<!-- Generator: Adobe Illustrator 25.4.1, SVG Export Plug-In . SVG Version: 6.00 Build 0)  -->
<svg version="1.1" id="PerkClip_1d246b" image-rendering="auto"
	 xmlns="http://www.w3.org/2000/svg" xmlns:xlink="http://www.w3.org/1999/xlink" x="0px" y="0px" viewBox="0 0 240 240"
	 style="enable-background:new 0 0 240 240;" xml:space="preserve">
<style type="text/css">
	.st0{fill:#FFFFFF;}
</style>
<g>
	<rect width="240" height="240"/>
	<path class="st0" d="M57.9,123.7v-0.6H17.5l0.8,0.6C31.5,123.1,44.7,123.1,57.9,123.7 M172.1,127.4c0.6-0.1,0.6-0.2,0-0.3l-1.5,0.1
		l-1.4,0.6c-0.6,0.1-0.6,0.2,0,0.4l1.5-0.1C171.2,127.9,171.6,127.7,172.1,127.4 M174.6,128.1c-0.5,0.1-0.6,0.2-0.5,0.2
		c6.4,0,14.7,0.1,25.1,0.4c0.4,0,1-0.1,1.8-0.4c-10.2-0.2-18.6-0.3-25.1-0.3L174.6,128.1 M226.8,121c-0.3-1-1.2-1.7-2.8-2
		c-1.3-0.2-2.5-0.2-3.8,0.1c-0.7,0.2-1.3,0.5-1.6,0.9c-0.2,0.3-0.4,0.6-0.4,0.9c-0.1,0.2-0.4,0.3-1.1,0.2l-1.5-0.2
		c-1.8-0.2-3.1,0-4,0.6l-1.1,0.7c-0.1,0.1-0.7,0-1.8-0.3l-1.9-0.7c-1.2-0.2-2.5,0.2-3.9,1.2c-1,0.7-2,1.2-3,1.5l-7.4,0.4l-75.4-1.4
		v0.4l55,0.9c6.2,0.1,10.6,0.1,13.3,0.2l5.6,0.2c1.9,0.1,3.9,0.1,5.9,0.1l11.4-1c2.5-0.3,5.7-0.3,9.6,0l9.6,0.4l0.3-0.2
		c0.1-0.2,0-0.2-0.1-0.2l-9.1-0.4c-3.7-0.2-6.7-0.2-9.1,0l-8.8,1h-0.4l0.4-0.1c0.6-0.3,1.3-0.7,2.1-1.2c1.3-1,2.6-1.5,3.9-1.3
		c0.7,0.1,1.9,0.5,3.8,1.3c0.1,0,0.2-0.1,0.4-0.2c0.7-1,1.9-1.4,3.6-1.4c1,0,2.4,0.2,4.1,0.5l0.2-0.1c0.2-0.1,0.2-0.1,0.2-0.2
		c-0.2-0.7,0.1-1.3,0.8-1.8c0.6-0.3,1.5-0.5,2.5-0.5c1,0,1.9,0.2,2.8,0.5c0.9,0.4,1.4,0.9,1.6,1.6L226.8,121z"/>
	<path class="st0" d="M190.7,119.7c-0.3,0.4-0.3,0.8,0,1.2l7.6,0l2.1-0.2c1.3-0.2,1.3-0.4,0-0.6l-2.1-0.3L190.7,119.7L190.7,119.7
		 M196,99.7l-2.2,1.1l-7.5,5v0c-0.1,0.6,0.1,0.9,0.6,1l0,0l7.4-4.8l2-1.6l0.7-0.8C197.1,99.3,196.8,99.4,196,99.7 M194,108l-1.3,0.1
		l-4.3,1.7v0.1c0,0.5,0.1,0.9,0.4,1v0l4.2-1.7l1.1-0.7C194.9,108.1,194.8,107.9,194,108 M202.1,113.5c1.5-0.5,1.5-0.7-0.1-0.7
		l-2.6,0.1l-9.1,1.6l0,0c-0.2,0.3-0.2,0.6-0.1,0.8l0.4,0.4l9-1.6L202.1,113.5 M140.9,117.6l0.1,0c0.7-0.3,0.8-0.7,0.1-1.1l-0.1,0
		l-20.1-2.7c-2.5-0.1-2.5,0.1-0.1,0.7L140.9,117.6 M126.3,120.6l3.1,0.3l11.1,0l0.1,0c0.5-0.4,0.5-0.8,0-1.1l-0.1,0l-10.9,0
		l-3.2,0.2C124.5,120.1,124.5,120.3,126.3,120.6 M142.1,113.2L142.1,113.2c0.5-0.4,0.6-0.7,0.3-1.1l0,0l-7.4-2l-2.2-0.4l-1,0
		l0.8,0.6c0.5,0.3,1.2,0.6,1.9,0.9L142.1,113.2 M143.9,108.4L143.9,108.4c0.6-0.2,0.8-0.5,0.6-1l0,0l-7.7-4.2l-2.4-1l-1-0.2
		c-0.2,0.1,0.1,0.3,0.7,0.8l2,1.4L143.9,108.4 M150.2,88.6l0.7,2.1l3.6,7.3l0,0c0.6,0.2,0.9,0,1-0.5v-0.1l-3.6-7.2l-1.3-1.9
		l-0.7-0.7C149.9,87.5,149.9,87.9,150.2,88.6 M157.5,84.6l-0.5-0.9c-0.2-0.1-0.2,0.3-0.1,1.1l0.3,2.5l2,8.9l0.1,0
		c0.5,0.3,0.9,0.2,1.1-0.3l0,0l-2-8.7L157.5,84.6 M135.4,94.5c-0.2,0,0,0.3,0.7,1l2,2.1l8.2,6.9h0.1c0.7,0,0.9-0.3,0.7-0.9l0,0
		l-10.6-8.6L135.4,94.5 M140.6,85.3l-1.2-1.2c-0.2,0,0,0.5,0.6,1.6l10.5,14.6l0.1,0c0.7,0.2,1,0,0.9-0.7l0-0.1L140.6,85.3 M196,87.7
		c0-0.2-0.5,0.1-1.4,0.9l-12.1,12.6l0,0.1c-0.1,0.4,0,0.6,0.2,0.7h0.6l0.1,0l11.7-13L196,87.7 M194.3,76.6c0.7-1.2,1.1-2,1.1-2.2
		c0-0.3-0.6,0.3-1.7,1.8L179,98.3l-0.1,0.2c-0.1,0.6,0,0.8,0.3,0.9c0.2,0,0.4-0.1,0.7-0.3l0.1-0.1L194.3,76.6 M163.7,79.6
		c-0.3-2-0.6-2-0.7,0c-0.1,0.9-0.1,2,0,3.4l0.8,12.2l0,0.1c0.5,0.5,0.8,0.5,1.1-0.1v-0.1L163.7,79.6 M179.4,84.1
		c-0.1-0.2-0.3,0.1-0.7,0.9l-1.2,2.4l-3.4,9.1v0.1c0.2,0.6,0.6,0.7,1.1,0.4l0,0l3.4-9l0.7-2.7L179.4,84.1 M173.5,76.2
		c-0.1-0.2-0.3,0.3-0.6,1.5l-3.3,17.6l0,0.1c0.3,0.7,0.7,0.7,1.1,0.2l0-0.1l2.7-17.6L173.5,76.2z"/>
	<path class="st0" d="M89.1,166.9c-0.5,0.7-1,2.1-1.5,4.1l5.8,1.4c0.5-1.5,0.7-2.8,0.7-3.7c0-1.3-0.5-2.2-1.5-2.6
		C91.1,165.5,89.9,165.8,89.1,166.9 M87.3,171.9l-0.2,0.8c-0.6,1.7-1.4,3.3-2.7,4.7l-1.4,1.4c2.6,0.6,4.7,0.7,6.3,0.5l1-0.2
		c0.3-0.1,0.6-0.4,0.8-0.7c0.3-0.5,0.6-1.2,0.9-1.9l1-3.1L87.3,171.9 M84.6,170.2c0.1,0.3,0.2,0.5,0.1,0.6c-0.9,0.9-1.2,2.3-1,4.1
		v0.2l-0.1,0.1c-0.8,0.1-1.4,0.4-1.9,1.1c-0.4,0.6-0.6,1.2-0.6,2l0.2,0.1c1.3,0.1,2.7-1.2,4.3-4c0.4-0.8,0.8-1.6,1.1-2.6l0.8-2.8
		c0.4-1.4,0.8-2.3,1.2-2.9C87.2,166.7,85.9,168.1,84.6,170.2 M110.2,151.1c-0.9,0.2-1.9,0.6-3,1.2c-0.5,1.6-1.2,2.8-1.9,3.4
		c-0.8,0.7-1.8,1.2-3,1.4c-1.2,0.2-2.2,0.1-3.2-0.2l-0.7-0.5c-0.3,1-0.3,1.8,0,2.6c0.4,0.9,1.1,1.5,2,1.7l1.7,0.3
		c0.7,0,1.3-0.1,1.8-0.3c0.3-0.2,0.6-0.5,0.8-0.8l0.3-1c0.1-0.3,0.2-0.5,0.4-0.5l1.1-0.1c0.5,0,0.8-0.1,1.1-0.3
		c1.3-0.8,2.3-1.7,3.1-2.6c1.1-1.2,1.7-2.5,1.7-3.7C112.3,150.8,111.6,150.7,110.2,151.1 M100.9,132.9l0.1,2.7
		c1.4,0,2.7,0.2,3.8,0.5c1.5,0.4,2.7,1,3.5,1.8c0-0.2,0-0.5-0.1-0.8l-0.2-0.8v-0.1c-0.5-1.3-1.2-2.3-2-3.1c-1-0.9-2.1-1.3-3.3-1.1v0
		c-0.2,0.5-0.4,0.8-0.7,0.9L100.9,132.9 M100.6,136L100.6,136l-0.1-3.5c-2.1,1.3-4.4,2.3-6.8,3c-2.6,0.7-5,1-7.4,0.9l-1.8-0.1
		l-2.2,4.1l5.2,0.2c2.4-0.1,4.7-0.5,6.9-1.2C96.8,138.6,98.8,137.4,100.6,136 M99.1,120.6l-0.5-0.4c-0.2,0-0.3-0.2-0.3-0.5
		c-0.1-0.3-0.1-0.5,0-0.5c0.2,0,0.3,0.1,0.6,0.2l-0.6-1.9c-0.6,1-1.4,2.4-2.5,4.3l-1.4,2.5v1.2h-0.7l-5.4,7.9
		c-0.4,0.6-0.9,0.9-1.3,1.1c-0.6,0.3-1.2,0.3-1.7,0.1c0.1,0.1-0.1,0.4-0.4,0.9l-0.2,0.4c0.9,0.1,1.8,0.1,2.8,0
		c2.3-0.1,4.6-0.4,6.8-1.1c2.3-0.7,4.4-1.6,6.2-2.8l0.1-0.1C100.3,127.4,99.8,123.6,99.1,120.6 M93,114l-0.5-0.2h-0.6l-5.6,8.9
		c-1.1,2-2.3,4.1-3.4,6.4c1.4,0.5,2.4,1.1,3,1.9c0.3,0.4,0.5,0.9,0.5,1.4c0.1,0.5,0,0.9-0.2,1.3c0.6-0.2,1.3-0.8,2.1-1.8l4.3-6.3
		l5.5-9.2c-0.6-0.5-1.4-1-2.4-1.4C95,114.7,94.1,114.4,93,114 M83.2,108.8c-0.9-0.3-1.6-0.5-2.1-0.6l-0.1-0.1
		c0.9,1.3,2.3,2.1,4.3,2.6c1.7,0.4,3.4,0.4,5,0.1c0-0.2,0-0.6,0.2-0.9c0.1-0.3,0.3-0.6,0.5-0.9l-2.9,0.5c-1,0.1-1.8,0.1-2.7,0
		C84.9,109.4,84.2,109.2,83.2,108.8 M92,107.6l1.8-1.7c-0.1-0.5-0.1-0.9-0.1-1.3c-1.5,0.7-2.6,1.2-3.3,1.4c-1.3,0.4-2.5,0.5-3.7,0.2
		c-1.5-0.3-2.7-0.9-3.6-1.7c0.1,0.5,0.1,1.1,0,1.6s-0.2,1.1-0.4,1.5l1,0.4c1.4,0.4,3,0.5,4.8,0.3C89.5,108.3,90.7,108,92,107.6
		 M92.2,108.7l-0.5,0.6l-0.9,1.5l0.1-0.2c0.6-0.7,1.2-1.2,1.8-1.5c0.3-0.2,0.6-0.3,0.9-0.4h0.6c0.3,0.1,0.5,0.2,0.8,0.4
		c0.1,0.1,0.2,0.2,0.2,0.4s0.1,0.4,0,0.6l0,0l-1.7,3.1c1.6,0.5,2.8,1,3.7,1.6l3.4-5.6c-0.9-0.1-1.9-0.5-3.2-1l-2.9-1.4L92.2,108.7
		 M106.3,112.3c-0.9,0.7-1.8,0.9-2.8,0.6l-1.2-0.6c-0.6-0.3-0.9-0.5-0.8-0.7l-2.9,4.4c0.1,0.3,0.2,0.5,0.1,0.7l-0.2,0.4l0.8,2.6
		l0.6,0.6c0.8,0.9,1.4,1.7,1.8,2.4c0.6,0.9,1,1.8,1.2,2.7c0.4,1.7,0.5,3.5,0.2,5.4l-0.1,0.7c1.2-0.1,2.3,0.4,3.3,1.3
		c0.8,0.8,1.5,1.8,2,3.1l1-1.4c0.6-1.1,1-2.5,1.3-4c0.7-3.9,0.7-7.3-0.1-10c-0.8-3-2-5.5-3.4-7.5L106.3,112.3L106.3,112.3
		 M65.6,158.9l0.6-0.5l16.8-28.2l-0.4-0.2c-0.1,0-0.2-0.2-0.2-0.4c-0.1-0.2-0.1-0.4,0-0.5c1.3-2.6,2.7-5.2,4.1-7.8l5.4-8.6l0.1,0
		l0.9,0.3l1.8-3.1c-0.5-0.1-0.9,0-1.4,0.2l-0.7,0.4l-0.2,0.2c-0.5,0.4-1,0.9-1.4,1.6c-0.1,0.4-0.5,0.9-1.1,1.7l-26.4,43
		c-0.5,0.8-0.3,1.3,0.5,1.7C64.5,159.1,65.2,159.1,65.6,158.9 M79.3,144.8c-1.4,1.4-3,1.8-4.8,1.1v2.7c0.1,3.5,0.7,6.7,1.8,9.5
		c1.7,4.6,4.1,8.6,7.1,12.1l0.2,0.4l0.1-0.2c0.6-1.1,1.2-2,1.8-2.8c0.7-0.9,1.5-1.6,2.4-2.1c0.9-0.6,1.9-0.8,2.9-0.8
		c-2.6-3.3-3.2-8.1-1.8-14.2h-0.2c-0.8,0.3-1.7,0.5-2.7,0.6l-2.7,0.2c-0.2,0-0.3-0.2-0.3-0.5s-0.1-0.5,0-0.5l2.7-0.1
		c1-0.1,1.9-0.3,2.6-0.6l0.6-0.2l0.3-0.2l0.1-0.1c1.6,0.6,3.1,0.9,4.5,1c1.8,0.1,3.3-0.1,4.5-0.6l5.2-2.3c0.1,0,0.2,0.1,0.3,0.4
		s0.1,0.5,0,0.6l-0.8,0.8l-3.9,1.6c-0.3,0.1-0.5,0.2-0.5,0.3c-0.1,0.1-0.2,0.3-0.3,0.7c-0.3,0.9-0.5,1.6-0.5,2.1
		c-0.1,0.9,0.1,1.5,0.5,1.9l0.1,0.3h0.1l0.3,0.2l1.2,0.2c1.4,0.1,2.5,0,3.2-0.4c0.5-0.2,1-0.5,1.5-0.9c0.6-0.4,0.9-0.8,1.1-1.2
		c0.7-1.8,1.3-3.8,1.9-5.8c0.5-1.9,0.9-3.5,1.1-4.8l0.2-2.2c0-0.9-0.2-1.5-0.6-1.9c-1.6-1.5-4.1-2.3-7.6-2.4l-0.2-0.1
		c-1.7,1.5-3.8,2.6-6.2,3.4c-2.3,0.8-4.7,1.2-7,1.2l-5.6-0.3C81,142.7,80.1,144,79.3,144.8 M75,145.1c1.4,0.3,2.8-0.1,4.1-1.4
		c0.7-0.6,1.4-1.6,2.1-3l3.8-7.1l0.1-0.1c0.9-0.5,1.1-1.1,0.7-1.8c-0.3-0.5-1-0.9-2.1-1.4l0,0.1L75,145.1 M76.2,134.1l-0.8-0.5
		l-0.1-0.1l-0.2,2.4L76.2,134.1 M80.7,108.2L80.7,108.2c-2.5-0.3-4.7,0-6.5,0.9c-2.9,1.3-5.3,3.8-7.2,7.4c-1.5,2.9-2.2,5.4-2.2,7.6
		c0,1.7,0.4,3.3,1.1,4.9c0.7,1.5,1.6,2.9,2.8,4.2c2.1,2.1,3.9,3,5.5,2.9c0.1,0,0.2,0.1,0.2,0.3l0.1,0.5h0l0.7-6.2
		c-1.6-1.5-2.3-3.6-2-6.4c0.3-2.8,1.5-4.6,3.6-5.5l0.1-0.8c0-0.2,0.1-0.2,0.2,0.1c0.1,0.3,0.2,0.5,0.2,0.6l-0.1,0.3
		c0.1,0.4,0.1,0.6,0,0.7l-0.1,0.1l-1.7,13.5l0.9,0.7l5.1-8.2h-0.2v-6.8h-0.9v-1.6l3.3-0.4v5.2l1.9-3.2h-0.2v-1.6l1.4-0.2l3.4-5.6
		l-0.8,0.1c-1.8,0.2-3.4,0-4.9-0.4C82.8,110.5,81.5,109.5,80.7,108.2 M115.8,90.9l-0.7,0.5c2,1.9,3.5,3.4,4.5,4.8l1.7,2
		c0.8,1.1,1.2,1.9,1.2,2.5l1-0.2c0.1-0.5-0.2-1.2-1-2.2L115.8,90.9 M117,89.9h-0.2l-0.9,0.7c1.9,1.8,3.5,3.4,4.6,4.8l1.5,1.9
		c0.5,0.7,0.9,1.4,1.2,2l0.4,1.1l0.8-0.2c0.3-0.1,0.5-0.2,0.6-0.4c0.1-0.2,0-0.6-0.4-1.1l-2.1-2.8L117,89.9 M109.8,95.4
		c-1.1,0.9-1.9,1.5-2.4,2c-0.8,0.8-1.5,1.6-2,2.4l-1,1.6c-0.5,0.6-1,1-1.5,1.2l-5.2,2.4l-0.5-0.1l-1.1-0.6l-1.2,1.7l3,1.3
		c1.2,0.5,2.2,0.7,3.1,0.8c0.1,0,0.2,0.1,0.3,0.5c0.1,0.2,0.1,0.4,0,0.5v0l-3.6,6.1l0.3,0.2l0-0.1l3.1-4.8l0.2,0.1
		c0.7,0.8,1.6,1.2,2.6,1.3c0.7,0,1.3-0.1,1.8-0.5l0.3-0.3l0.8-1.1c0.2-0.3,0.2-0.5,0.1-0.6c-0.3-0.3-0.6-0.5-0.9-0.8
		c-0.4-0.2-0.8-0.4-1.1-0.5h-0.1c-0.1,0-0.2-0.2-0.2-0.5c-0.1-0.3-0.1-0.4,0.1-0.5c1.2-1,2.5-1.9,3.8-2.8c1.5-1,3.3-1.7,5.4-2.1
		l8.3-1.7c0.1-0.4-0.1-1.1-0.8-2.1l-1.4-1.8c-0.6-0.8-1.3-1.6-2-2.4l-3-2.9L109.8,95.4 M102.4,109.2c0-0.1,0.1-0.3,0.2-0.4
		c0.2-0.2,0.4-0.3,0.7-0.4l0.2-0.1c0.5-0.1,1-0.1,1.5,0.2c0.3,0.2,0.5,0.6,0.6,1.1c0.1,0.3,0.1,0.6,0,0.9l-0.2,0.4l0,0.1v0.1
		c-0.2,0.4-0.5,0.7-0.9,0.8c-0.4,0.2-0.8,0.1-1.2-0.2c-0.3-0.3-0.6-0.6-0.8-1.1C102.3,110,102.2,109.6,102.4,109.2 M102.8,110.1
		l0.4,0.6c0.2,0.1,0.4,0.2,0.6,0.2c0.3,0,0.6-0.2,0.9-0.5l-1.2-1l-0.2,0.1C102.8,109.8,102.7,110,102.8,110.1 M95.2,82.7
		c-0.6-0.5-1-0.9-1.3-1l-2-0.2c-0.9,0-1.5-0.2-1.8-0.5c-0.8-0.8-1.4-1.4-1.8-1.7c-0.7-0.5-1.4-0.4-2.2,0.1l-1.4,1.2l-0.8,0.3
		l-0.9,0.2c-0.7,0.2-1.2,0.5-1.6,0.9c-0.2,0.2-0.5,0.8-1,1.6c-0.2,0.4-0.6,0.8-1.1,1.2c-0.6,0.5-1,0.8-1.2,1.1
		c-0.9,1.2-1.5,2.3-1.8,3.3c-0.4,1.4-0.4,3.1-0.1,5c0.4,1.8,1,3.3,1.9,4.7c0.7,1,1.4,1.9,2.1,2.5c0.6,0.6,1.1,1.1,1.5,1.4l0.9,0.4
		l0.1,0.1c0.5,0.6,1.2,1.2,2.1,1.6c0.8,0.4,1.7,0.6,2.5,0.6c1.1,0.1,2.4-0.1,3.7-0.6l3.4-1.6c0.2-0.2,0.4-0.4,0.8-0.6l0.8-0.6
		c1.4-1.4,2.4-3.1,3.1-5.1c0.6-2,0.8-3.9,0.7-5.9l-0.1-4c0-1.7-0.6-3.2-1.7-4.4c0.2,0.3,0.2,0.5-0.2,0.8c-0.4,0.4-0.7,0.5-1.1,0.4
		C96.2,83.6,95.7,83.3,95.2,82.7 M83.6,83c0.5-0.4,1.1-0.8,1.8-0.9c1.9-0.5,3.7-0.3,5.3,0.6c0.1,0.1,0,0.2-0.2,0.2L89.9,83
		c-1.7-1-3.3-1.2-4.7-0.5c-1.1,0.5-1.7,1.2-1.8,2c0,0.1-0.1,0.2-0.4,0.3c-0.3,0.1-0.4,0-0.4-0.1C82.7,84.1,83,83.5,83.6,83
		 M81.8,85.6c0.1,0.2,0.1,0.3,0,0.3c-1.3,0.4-2.3,1.2-3.1,2.4c-0.7,1.2-1,2.4-0.9,3.8c0,0.2,0,0.3-0.1,0.2c-0.1-0.1-0.2-0.2-0.2-0.4
		c0-1.5,0.3-2.9,0.9-4.1c0.8-1.3,1.8-2.2,3.2-2.6C81.8,85.3,81.8,85.4,81.8,85.6 M81.8,85.9c0.1-0.1,0.2,0,0.3,0.4
		c0.1,0.4,0.1,0.7,0,0.8c-1.8,2.2-2.2,4.9-1.2,8c0.9,3,2.7,5,5.4,6.1c0.2,0.1,0.3,0.3,0.3,0.8c0,0.4-0.1,0.6-0.2,0.5
		c-3-1.1-5.1-3.5-6.1-7.2S79.8,88.5,81.8,85.9 M84.2,85.7c-0.2,0-0.3-0.3-0.4-0.7c-0.1-0.4,0-0.6,0.2-0.6c2.7,0.2,4.9,1.4,6.8,3.5
		c1.8,2.2,2.5,4.6,1.9,7.2c-0.1,0.3-0.2,0.3-0.3-0.1c-0.2-0.3-0.2-0.6-0.2-0.8c0.5-2.2-0.2-4.1-2-5.8C88.5,86.8,86.5,85.9,84.2,85.7
		 M83.4,86.4c0-0.4,0.1-0.5,0.3-0.4c2,1.9,3.4,4.1,4.2,6.7c0.9,2.6,1,5.3,0.4,7.9c-0.1,0.3-0.2,0.3-0.3-0.1
		c-0.2-0.3-0.2-0.6-0.2-0.8c0.5-2.3,0.4-4.5-0.4-6.9c-0.8-2.2-2.1-4.1-3.8-5.8C83.4,87,83.4,86.8,83.4,86.4 M96.4,96.1
		c0.2,0.3,0.3,0.5,0.2,0.8c-0.1,1.5-0.4,2.7-1,3.7c-0.7,1.1-1.8,1.8-3.1,2.1c-0.2,0-0.3-0.2-0.4-0.6c-0.1-0.4,0-0.6,0.2-0.7
		c1.2-0.2,2.2-0.8,2.8-1.8c0.6-0.9,0.9-2,1-3.2C96.2,95.9,96.2,95.8,96.4,96.1z"/>
</g>
</svg>
