<?xml version="1.0" encoding="utf-8"?><svg id="Perception" image-rendering="auto" baseProfile="basic" version="1.1" x="0px" y="0px" width="240" height="240" xmlns="http://www.w3.org/2000/svg" xmlns:xlink="http://www.w3.org/1999/xlink"><g id="Scene-1f1r1" overflow="visible"><g id="Symbol-2"><path fill="#FFF" stroke="none" d="M155.103,224.873 Q153.07,225.757 150.904,225.89 L141.18,225.492 Q140.87,227.216 141.445,228.277 142.417,229.912 145.335,231.724 148.871,233.979 151.699,233.581 156.385,232.918 156.606,228.984 156.694,227.879 155.103,224.873 M88.361,218.862 Q82.659,220.365 81.024,221.205 79.167,222.133 79.256,222.619 L80.14,223.105 80.582,223.238 Q86.195,224.608 92.074,224.21 95.919,223.813 101.09,222.442 L101.223,222.398 101.311,222.487 102.461,223.813 Q105.466,223.813 106.439,223.15 107.411,222.442 107.544,220.807 L98.571,221.249 Q94.195,220.94 88.361,218.862 M73.996,161.756 L73.731,162.065 Q71.565,164.806 71.521,165.866 71.388,167.458 72.228,169.137 72.802,170.286 73.642,171.17 73.598,170.463 73.863,169.402 L73.907,169.226 73.907,169.093 Q74.305,168.474 74.703,168.563 75.012,168.563 75.101,169.093 L75.101,169.137 Q75.233,170.552 75.543,171.347 75.985,172.496 77.178,173.69 78.195,174.751 79.388,175.237 L79.211,174.485 Q78.637,173.027 78.946,172.275 L79.167,172.054 Q79.388,171.878 79.609,171.922 L80.14,172.452 Q80.272,173.778 81.245,175.193 82.04,176.386 83.013,177.093 83.543,177.491 83.808,177.491 84.294,177.27 84.56,176.519 84.869,175.767 84.869,174.795 84.913,173.778 84.648,173.204 84.162,172.099 84.825,170.242 85.178,169.005 85.797,168.872 L86.151,169.005 Q86.504,169.447 86.018,170.507 85.797,171.48 86.416,172.762 L86.814,172.983 87.212,173.071 87.3,173.027 Q88.847,172.629 89.377,172.143 90.173,171.347 90.394,169.358 90.527,168.342 89.687,166.618 L83.764,166.795 Q81.024,166.353 78.725,164.275 76.913,162.596 75.587,160.165 L73.996,161.756 M144.009,164.01 Q140.031,165.645 131.854,166.927 125.975,168.076 121.29,168.076 112.406,168.076 104.317,165.645 L99.72,164.761 97.245,175.281 Q94.947,185.182 94.151,190 92.869,197.735 90.085,216.652 91.72,218.243 94.239,218.951 L99.367,219.614 107.676,219.216 108.03,218.951 Q111.035,204.63 113.378,197.204 114.837,192.475 117.268,186.508 L119.654,180.806 117.798,175.767 118.196,175.59 123.367,184.563 Q129.157,195.127 132.649,203.657 L136.981,215.636 Q139.323,222.619 139.677,222.973 140.87,223.68 144.804,223.945 147.987,224.166 150.064,224.034 L153.909,223.459 Q155.898,222.973 156.075,222.531 156.385,221.735 155.501,212.232 154.528,201.757 153.158,195.127 151.832,188.762 148.119,176.651 144.893,165 144.009,164.01 M106.439,107.699 L106.306,107.611 Q102.903,106.417 101.709,105.003 L101.4,104.561 Q98.129,107.08 95.079,110.661 89.466,117.025 85.488,125.91 81.687,134.484 79.211,144.562 77.753,150.617 77.046,155.966 L77.001,156.363 Q76.736,157.689 77.001,158.308 77.62,160.032 78.902,161.712 81.024,164.452 83.72,164.894 L89.377,164.673 Q90.04,161.977 91.278,158.573 93.576,152.297 96.759,147.037 L97.422,145.976 97.333,144.518 Q96.715,138.33 95.919,134.352 L93.444,122.153 94.107,122.02 97.024,131.302 Q98.041,134.882 98.88,142.352 L99.101,144.208 Q100.781,145.092 102.814,145.446 L102.77,144.341 Q102.682,141.601 102.726,137.446 102.77,130.551 103.345,125.954 103.963,121.269 105.378,115.257 106.483,110.484 107.057,108.937 107.323,108.053 106.792,107.832 L106.439,107.699 M104.14,103.014 L103.035,104.119 Q103.963,105.091 106.836,106.152 L106.881,106.196 107.455,106.373 Q108.251,106.727 108.56,107.611 108.87,108.495 108.516,109.467 L106.969,115.39 Q105.51,121.445 104.936,126.131 104.361,130.772 104.273,137.49 L104.361,144.385 Q104.45,146.197 103.919,146.684 103.477,147.126 102.593,146.993 101.356,146.86 99.322,146.021 100.162,154.419 99.897,162.375 L106.836,164.364 Q115.544,166.176 120.671,166.397 L121.467,166.397 133.047,165.336 Q139.81,164.319 143.567,162.684 143.036,154.286 143.39,147.037 L134.019,148.186 Q126.108,148.673 123.677,148.452 122.925,148.407 122.262,147.744 121.643,147.126 121.555,146.418 121.29,143.59 121.334,136.12 121.422,128.517 121.776,124.805 122.483,117.821 123.809,111.942 124.119,110.44 124.87,109.732 125.666,108.981 127.08,108.804 128.804,108.627 131.721,107.478 135.611,105.931 137.732,103.765 134.727,101.865 131.588,100.406 130.483,103.633 127.301,106.108 124.34,108.406 120.627,109.29 111.875,111.324 108.604,105.047 106.35,104.296 104.14,103.014 M135.787,58.681 Q134.727,55.941 132.251,56.295 129.467,56.781 128.406,57.223 L126.196,57.753 Q124.87,57.842 124.03,56.913 122.218,54.88 120.052,54.261 117.975,53.731 116.339,54.659 114.704,55.587 113.643,55.808 L110.903,55.632 109.356,54.88 106.969,54.792 Q106.306,55.19 104.317,57.797 L102.151,60.538 Q100.472,62.085 98.704,62.394 95.344,68.273 94.328,73.842 92.958,81.312 95.389,88.649 97.864,96.163 103.477,100.716 L103.521,100.671 103.787,100.937 Q106.262,102.837 108.737,103.854 113.466,105.843 117.223,105.71 L120.008,105.489 Q120.141,105.843 117.931,106.55 L115.058,107.125 Q117.886,108.937 123.544,106.152 129.334,103.279 129.732,99.169 127.566,100.716 125.71,100.892 123.898,101.069 125.4,100.097 131.191,96.207 134.992,89.047 139.014,89.489 140.738,85.776 142.506,81.975 139.147,79.544 138.66,78.837 139.279,78.483 139.589,78.306 139.986,78.262 L140.075,78.129 140.252,78.085 Q137.688,74.328 136.097,72.737 135.169,71.853 133.887,71.146 133.224,70.748 133.312,70.173 133.356,69.643 133.887,69.82 135.124,70.218 136.848,71.897 139.014,73.93 140.694,77.466 L140.87,76.45 Q138.705,72.118 136.583,70.173 L133.135,67.212 Q132.649,66.947 132.914,66.549 133.135,66.151 133.754,66.372 134.638,66.682 137.334,69.422 139.589,71.986 140.959,75.168 140.959,71.013 137.423,67.742 136.008,66.461 133.18,64.825 132.605,64.516 132.87,64.074 L133.224,63.676 Q136.892,61.554 135.787,58.681 M133.798,74.417 Q133.18,74.019 133.401,73.577 133.622,73.091 134.019,73.267 135.39,73.886 136.229,74.77 L137.379,76.273 Q137.865,77.113 137.821,77.466 137.732,77.908 136.937,77.069 L135.522,75.522 133.798,74.417 M133.754,77.643 Q133.312,77.422 133.577,76.936 133.798,76.494 134.285,76.715 L135.345,77.555 Q135.92,78.129 136.053,78.881 136.097,79.544 135.611,79.588 135.08,79.588 134.992,79.102 134.948,78.704 134.373,78.129 L133.754,77.643 M103.919,64.295 Q103.654,64.604 103.212,64.648 L99.676,64.825 99.146,64.693 99.499,64.295 102.814,62.129 103.521,62.041 Q103.875,62.173 103.963,62.615 L104.096,63.499 Q104.184,63.941 103.919,64.295 M99.543,71.411 L99.72,71.455 Q100.604,71.499 101.621,72.074 102.372,72.516 102.814,73.091 L103.168,73.577 Q103.742,74.461 103.345,74.991 103.035,75.566 102.019,75.477 101.002,75.477 99.985,74.814 98.925,74.196 98.35,73.356 97.864,72.472 98.217,71.941 98.571,71.323 99.543,71.411 M104.759,78.925 Q104.759,78.483 104.98,78.218 L108.383,73.533 110.107,69.952 Q110.505,69.113 110.947,69.201 L111.212,69.51 111.168,70.129 Q110.505,72.472 109.444,74.638 L107.632,78.174 Q107.234,78.969 107.765,79.676 L109.4,81.842 Q109.621,82.152 109.533,82.417 L109.091,82.77 108.339,82.991 Q107.499,83.124 106.969,82.505 L104.936,79.632 Q104.715,79.323 104.759,78.925 M123.102,62.836 Q125.003,64.869 124.693,65.974 124.428,66.019 123.411,65.4 L121.467,64.339 118.947,63.322 Q118.77,63.057 119.389,62.173 L120.008,61.289 Q120.406,60.538 121.157,60.98 L123.102,62.836 M118.417,70.969 L118.505,70.969 Q119.566,71.013 120.583,71.632 L121.555,72.339 122.174,73.135 Q122.704,73.975 122.395,74.549 121.997,75.124 121.025,75.08 L120.008,74.903 119.168,74.549 118.947,74.417 Q117.886,73.754 117.356,72.87 116.826,72.03 117.223,71.499 117.533,70.969 118.417,70.969 M118.152,82.019 L118.594,82.107 123.058,85.201 123.544,85.776 123.677,86.483 122.925,90.505 122.66,90.947 122.262,90.682 122.218,88.649 Q121.688,87.942 120.892,88.251 L117.002,90.903 Q112.582,93.511 109.886,93.511 107.146,93.555 103.787,91.964 L100.958,90.373 100.383,90.461 Q100.118,90.682 100.162,91.036 L100.162,91.434 Q100.162,92.273 99.72,91.61 L97.775,88.693 97.599,87.986 97.864,87.279 99.455,85.246 Q99.676,84.98 99.853,85.025 L99.941,85.467 99.941,86.085 100.162,86.748 Q100.427,87.014 100.781,87.058 L103.742,87.544 108.914,87.765 Q111.919,87.411 117.931,85.069 L118.594,84.583 Q118.903,84.185 118.726,83.875 L118.196,82.461 Q118.019,82.152 118.152,82.019 M110.638,94.616 L111.389,94.749 111.787,95.279 Q111.875,95.633 111.61,95.942 L110.991,96.384 108.339,96.428 106.836,95.677 106.483,95.367 Q106.527,95.191 106.925,95.146 L109.842,94.793 110.638,94.616 M120.538,86.13 Q119.964,85.688 119.301,85.732 L118.328,85.953 Q112.848,88.295 109.356,88.605 L103.742,88.384 100.737,87.898 Q99.632,87.898 99.853,88.649 100.118,89.489 100.737,89.621 L106.218,91.434 109.754,91.655 113.422,91.08 Q115.234,90.417 120.052,87.765 L120.759,87.102 Q121.113,86.572 120.538,86.13 M136.318,50.283 Q136.053,50.195 133.622,47.101 131.456,44.361 128.848,44.051 127.257,43.874 124.914,43.079 124.251,42.858 123.544,42.327 L122.351,41.443 Q120.273,40.029 118.903,40.206 117.886,40.383 115.588,44.007 L114.085,46.173 Q113.334,46.968 111.522,46.394 109.267,45.731 107.986,46.04 106.969,46.305 105.113,48.206 L102.593,51.035 Q101.267,52.626 99.367,52.891 L98.969,52.935 Q97.643,53.024 96.494,52.361 L96.007,52.007 Q94.858,51.123 95.035,49.488 93.93,50.593 93.355,52.096 92.692,54.04 93.311,56.471 93.974,59.035 95.61,60.538 96.715,61.554 98.35,61.245 99.809,60.936 101.179,59.698 L103.3,57.046 Q105.334,54.438 106.173,53.952 107.588,53.112 108.604,53.289 109.046,53.333 110.549,54.04 L111.743,54.659 113.334,54.438 118.417,51.212 Q120.052,50.46 122.925,53.377 L126.329,56.692 Q126.992,56.825 129.069,55.853 131.456,54.748 132.34,54.615 135.169,54.217 136.76,55.941 137.953,57.179 138.263,59.123 138.484,60.361 137.158,62.085 136.185,63.367 134.771,64.427 L138.263,67.168 Q141.003,69.82 141.799,73.488 142.638,71.102 143.125,67.919 144.097,61.599 142.329,57.753 141.357,55.587 139.942,53.643 138.042,50.991 136.318,50.283 M168.009,165.203 Q169.203,163.656 169.954,161.8 170.131,161.225 169.954,159.855 L169.866,159.457 Q169.247,154.374 167.7,148.054 165.269,138.02 161.423,129.446 157.49,120.694 151.876,114.152 147.589,109.29 143.788,106.815 L143.699,106.771 143.257,106.462 Q141.799,105.445 139.235,104.473 136.848,107.125 132.296,108.937 129.157,110.174 127.213,110.395 126.373,110.484 125.975,110.882 125.577,111.279 125.356,112.252 123.986,118.219 123.367,124.937 123.014,128.562 122.925,136.12 122.881,143.457 123.102,146.286 L123.367,146.639 123.809,146.86 Q126.638,147.17 133.887,146.595 L143.522,145.402 143.567,144.916 138.439,138.065 138.881,137.578 142.506,140.761 Q146.793,144.96 150.152,150.529 153.379,155.789 155.633,162.065 L157.534,168.165 163.191,168.386 Q165.888,167.944 168.009,165.203 M171.236,163.833 Q169.954,166.22 168.142,167.855 165.888,169.844 163.191,170.286 159.788,170.773 157.534,170.198 156.561,172.054 156.694,173.204 156.915,175.237 157.711,175.988 158.241,176.474 159.788,176.916 L159.876,176.916 160.274,176.872 160.628,176.651 Q161.247,175.502 161.07,174.397 160.628,173.292 160.893,172.894 L161.291,172.762 Q161.91,172.85 162.263,174.088 162.838,176.209 162.396,177.093 162.175,177.668 162.175,178.64 162.175,179.613 162.484,180.364 162.794,181.115 163.28,181.381 L164.031,180.939 165.843,179.082 Q166.816,177.668 166.948,176.342 L166.948,176.253 Q167.169,175.811 167.479,175.811 L167.921,175.944 168.098,176.121 168.142,176.121 168.142,176.165 Q168.407,176.961 167.877,178.331 L167.7,179.082 Q168.893,178.596 169.91,177.579 171.103,176.342 171.545,175.193 L171.943,172.983 171.987,172.983 Q172.031,172.496 172.385,172.408 172.739,172.364 173.136,172.983 L173.181,173.027 173.181,173.071 173.225,173.248 173.446,175.016 Q174.241,174.22 174.86,172.983 175.7,171.303 175.567,169.712 175.523,168.607 173.357,165.955 L173.092,165.645 171.236,163.833Z" vector-effect="non-scaling-stroke" stroke-width="1"/><path fill="#FFF" stroke="none" d="M33.995,122.285 L34.039,122.241 34.172,124.407 34.216,124.539 Q34.481,126.484 35.321,127.368 36.47,128.65 38.238,129.136 L40.978,129.269 41.465,129.225 41.597,129.225 42.835,129.401 43.321,129.667 Q43.851,130.02 43.896,130.418 43.984,131.125 43.277,132.23 L42.437,133.026 41.951,133.291 41.73,133.379 29.84,139.567 29.973,139.479 28.337,140.451 26.879,141.601 26.216,142.308 25.862,143.324 25.906,143.855 25.95,143.943 26.039,144.297 26.304,144.783 26.437,144.96 26.481,145.048 26.746,145.358 27.321,145.844 28.205,146.153 28.514,146.197 29.265,146.197 32.359,145.446 42.304,141.247 Q42.835,141.291 42.614,141.38 L34.304,148.452 Q31.917,150.308 31.122,151.899 30.415,153.048 30.547,154.153 L30.547,154.551 Q31.475,156.496 33.067,156.717 L33.288,156.761 33.818,156.761 35.365,156.231 Q37,155.391 40.404,152.12 L46.857,146.418 42.702,152.96 Q40.669,155.921 39.962,157.866 39.564,158.75 39.476,159.678 L39.387,160.341 Q39.564,162.33 41.686,162.817 43.719,163.347 44.868,161.756 L48.758,156.275 Q49.818,155.214 52.294,150.706 53.001,149.424 53.001,149.645 L50.216,158.794 Q49.509,160.386 50.305,162.109 51.144,164.01 53.045,163.656 L54.194,163.038 54.238,163.038 Q56.316,161.623 58.216,155.303 L59.719,149.291 62.283,147.479 Q65.156,145.092 66.438,142.352 L68.161,139.479 69.311,136.827 69.885,133.998 Q70.548,131.877 72.051,131.037 70.99,124.76 63.918,120.65 L63.432,120.429 62.813,119.987 59.41,123.125 59.056,123.081 59.145,123.081 55.918,122.462 49.553,122.197 41.553,122.418 34.083,122.153 34.083,122.064 34.039,122.153 34.039,122.064 33.995,122.153 33.995,122.285 M37.089,125.733 Q36.647,125.291 36.603,124.142 L44.956,124.009 Q51.056,123.788 52.47,123.876 L56.139,123.965 Q57.774,124.053 58.393,124.893 59.277,125.026 61.001,123.611 L61.62,123.169 62.371,122.462 62.283,122.462 62.769,122.02 64.095,122.771 Q65.686,123.788 66.88,125.114 68.824,127.236 70.15,130.285 L68.25,132.009 67.543,136.12 Q65.907,140.496 61.885,145.313 L58.658,147.744 54.636,159.855 53.664,161.623 Q53.001,162.33 52.338,161.933 51.719,161.623 51.586,160.783 L51.586,160.518 51.675,160.12 Q51.675,159.899 51.807,159.767 L52.028,158.529 55.078,148.54 Q55.52,147.789 55.388,147.258 L55.52,146.905 55.122,146.728 Q54.725,146.33 54.017,146.242 L53.575,146.021 53.266,146.021 53.178,146.197 44.78,159.104 Q43.675,160.739 42.481,161.137 40.713,161.004 41.111,159.148 41.42,157.734 42.525,156.275 L49.465,145.667 49.376,145.579 49.995,144.606 48.139,143.148 46.503,144.606 Q45.31,145.181 43.365,146.993 L37.177,152.96 Q33.906,155.303 32.359,153.004 34.039,150.794 37.442,148.01 L45.619,141.114 45.708,140.805 45.885,140.672 45.708,140.496 Q45.575,139.346 44.293,138.86 L44.161,138.772 44.072,138.816 43.63,138.772 30.945,143.987 28.249,143.899 Q27.409,142.617 29.398,141.733 31.696,140.496 35.277,138.728 L41.199,135.766 Q42.481,135.324 43.94,134.175 L46.459,132.274 Q47.034,132.319 48.669,133.777 50.481,135.368 51.542,135.678 52.957,136.12 52.912,134.794 52.824,133.424 51.807,133.379 50.702,132.761 49.155,131.39 L45.664,128.915 Q43.321,127.457 41.553,127.324 38.017,126.661 37.089,125.733 M45.752,136.385 Q45.443,136.473 45.31,136.915 L45.222,137.313 47.432,140.186 Q50.481,143.324 55.211,145.225 56.095,145.137 56.183,144.695 L56.006,144.12 55.785,143.811 Q51.365,142.043 48.537,139.17 L46.592,136.65 Q46.327,136.208 45.752,136.385Z" vector-effect="non-scaling-stroke" stroke-width="1"/></g></g></svg>