<?xml version="1.0" encoding="utf-8"?><svg id="Perception" image-rendering="auto" baseProfile="basic" version="1.1" x="0px" y="0px" width="240" height="240" xmlns="http://www.w3.org/2000/svg" xmlns:xlink="http://www.w3.org/1999/xlink"><g id="Scene-1f4r1" overflow="visible"><g id="Symbol-5"><path fill="#FFF" stroke="none" d="M156.606,228.94 Q156.694,227.835 155.103,224.829 153.07,225.713 150.904,225.846 L141.18,225.448 Q140.87,227.172 141.445,228.233 142.417,229.868 145.335,231.68 148.871,233.934 151.699,233.537 156.385,232.874 156.606,228.94 M88.361,218.818 Q82.659,220.321 81.024,221.161 79.167,222.089 79.256,222.575 L80.14,223.061 80.582,223.194 Q86.195,224.564 92.074,224.166 95.919,223.768 101.09,222.398 L101.223,222.354 101.311,222.442 102.461,223.768 Q105.466,223.768 106.439,223.105 107.411,222.398 107.544,220.763 L98.571,221.205 Q94.195,220.895 88.361,218.818 M73.996,161.712 L73.731,162.021 Q71.565,164.761 71.521,165.822 71.388,167.413 72.228,169.093 72.802,170.242 73.642,171.126 73.598,170.419 73.863,169.358 L73.907,169.181 73.907,169.049 Q74.305,168.43 74.703,168.518 75.012,168.518 75.101,169.049 L75.101,169.093 Q75.233,170.507 75.543,171.303 75.985,172.452 77.178,173.646 78.195,174.706 79.388,175.193 L79.211,174.441 Q78.637,172.983 78.946,172.231 L79.167,172.01 Q79.388,171.833 79.609,171.878 L80.14,172.408 Q80.272,173.734 81.245,175.148 82.04,176.342 83.013,177.049 83.543,177.447 83.808,177.447 84.294,177.226 84.56,176.474 84.869,175.723 84.869,174.751 84.913,173.734 84.648,173.159 84.162,172.054 84.825,170.198 85.178,168.96 85.797,168.828 L86.151,168.96 Q86.504,169.402 86.018,170.463 85.797,171.436 86.416,172.717 L86.814,172.938 87.212,173.027 87.3,172.983 Q88.847,172.585 89.377,172.099 90.173,171.303 90.394,169.314 90.527,168.297 89.687,166.574 L83.764,166.75 Q81.024,166.308 78.725,164.231 76.913,162.551 75.587,160.12 L73.996,161.712 M144.009,163.966 Q140.031,165.601 131.854,166.883 125.975,168.032 121.29,168.032 112.406,168.032 104.317,165.601 L99.72,164.717 97.245,175.237 Q94.947,185.138 94.151,189.955 92.869,197.69 90.085,216.608 91.72,218.199 94.239,218.906 L99.367,219.569 107.676,219.172 108.03,218.906 Q111.035,204.586 113.378,197.16 114.837,192.431 117.268,186.464 L119.654,180.762 117.798,175.723 118.196,175.546 123.367,184.519 Q129.157,195.083 132.649,203.613 L136.981,215.591 Q139.323,222.575 139.677,222.929 140.87,223.636 144.804,223.901 147.987,224.122 150.064,223.989 L153.909,223.415 Q155.898,222.929 156.075,222.487 156.385,221.691 155.501,212.188 154.528,201.713 153.158,195.083 151.832,188.718 148.119,176.607 144.893,165.955 144.009,163.966 M101.709,104.959 L101.4,104.517 Q98.129,107.036 95.079,110.616 89.466,116.981 85.488,125.865 81.687,134.44 79.211,144.518 77.753,150.573 77.046,155.921 L77.001,156.319 Q76.736,157.645 77.001,158.264 77.62,159.988 78.902,161.667 81.024,164.408 83.72,164.85 L89.377,164.629 Q90.04,161.933 91.278,158.529 93.576,152.253 96.759,146.993 L97.422,145.932 97.333,144.474 Q96.715,138.286 95.919,134.308 L93.444,122.108 94.107,121.976 97.024,131.258 Q98.041,134.838 98.88,142.308 L99.101,144.164 Q100.781,145.048 102.814,145.402 L102.77,144.297 Q102.682,141.556 102.726,137.402 102.77,130.506 103.345,125.91 103.963,121.224 105.378,115.213 106.483,110.44 107.057,108.893 107.323,108.009 106.792,107.788 L106.439,107.655 106.306,107.567 Q102.903,106.373 101.709,104.959 M104.14,102.97 L103.035,104.075 Q103.963,105.047 106.836,106.108 L106.881,106.152 107.455,106.329 Q108.251,106.683 108.56,107.567 108.87,108.451 108.516,109.423 L106.969,115.346 Q105.51,121.401 104.936,126.086 104.361,130.727 104.273,137.446 L104.361,144.341 Q104.45,146.153 103.919,146.639 103.477,147.081 102.593,146.949 101.356,146.816 99.322,145.976 100.162,154.374 99.897,162.33 L106.836,164.319 Q115.544,166.132 120.671,166.353 L121.467,166.353 133.047,165.292 Q139.81,164.275 143.567,162.64 143.036,154.242 143.39,146.993 L134.019,148.142 Q126.108,148.628 123.677,148.407 122.925,148.363 122.262,147.7 121.643,147.081 121.555,146.374 121.29,143.545 121.334,136.076 121.422,128.473 121.776,124.76 122.483,117.777 123.809,111.898 124.119,110.395 124.87,109.688 125.666,108.937 127.08,108.76 128.804,108.583 131.721,107.434 135.611,105.887 137.732,103.721 134.727,101.821 131.588,100.362 130.483,103.589 127.301,106.064 124.34,108.362 120.627,109.246 111.875,111.279 108.604,105.003 106.35,104.252 104.14,102.97 M132.251,56.25 Q129.467,56.737 128.406,57.179 L126.196,57.709 Q124.87,57.797 124.03,56.869 122.218,54.836 120.052,54.217 117.975,53.687 116.339,54.615 114.704,55.543 113.643,55.764 L110.903,55.587 109.356,54.836 106.969,54.748 Q106.306,55.145 104.317,57.753 L102.151,60.494 Q100.472,62.041 98.704,62.35 95.344,68.229 94.328,73.798 92.958,81.268 95.389,88.605 97.864,96.119 103.477,100.671 L103.521,100.627 103.787,100.892 Q106.262,102.793 108.737,103.81 113.466,105.799 117.223,105.666 L120.008,105.445 Q120.141,105.799 117.931,106.506 L115.058,107.08 Q117.886,108.893 123.544,106.108 129.334,103.235 129.732,99.124 127.566,100.671 125.71,100.848 123.898,101.025 125.4,100.053 131.191,96.163 134.992,89.003 139.014,89.445 140.738,85.732 142.506,81.931 139.147,79.5 138.66,78.792 139.279,78.439 139.589,78.262 139.986,78.218 L140.075,78.085 140.252,78.041 Q137.688,74.284 136.097,72.693 135.169,71.809 133.887,71.102 133.224,70.704 133.312,70.129 133.356,69.599 133.887,69.776 135.124,70.173 136.848,71.853 139.014,73.886 140.694,77.422 L140.87,76.406 Q138.705,72.074 136.583,70.129 L133.135,67.168 Q132.649,66.903 132.914,66.505 133.135,66.107 133.754,66.328 134.638,66.637 137.334,69.378 139.589,71.941 140.959,75.124 140.959,70.969 137.423,67.698 136.008,66.416 133.18,64.781 132.605,64.472 132.87,64.03 L133.224,63.632 Q136.892,61.51 135.787,58.637 134.727,55.897 132.251,56.25 M133.798,74.372 Q133.18,73.975 133.401,73.533 133.622,73.046 134.019,73.223 135.39,73.842 136.229,74.726 L137.379,76.229 Q137.865,77.069 137.821,77.422 137.732,77.864 136.937,77.024 L135.522,75.477 133.798,74.372 M133.754,77.599 Q133.312,77.378 133.577,76.892 133.798,76.45 134.285,76.671 L135.345,77.511 Q135.92,78.085 136.053,78.837 136.097,79.5 135.611,79.544 135.08,79.544 134.992,79.058 134.948,78.66 134.373,78.085 L133.754,77.599 M103.521,61.996 Q103.875,62.129 103.963,62.571 L104.096,63.455 Q104.184,63.897 103.919,64.251 103.654,64.56 103.212,64.604 L99.676,64.781 99.146,64.648 99.499,64.251 102.814,62.085 103.521,61.996 M102.461,70.085 L102.637,70.394 102.814,71.013 102.814,72.251 Q102.814,73.488 102.328,74.372 L102.019,74.814 Q101.665,75.256 101.179,75.256 100.737,75.256 100.383,74.903 99.588,74.019 99.588,72.207 99.632,70.969 100.118,70.085 L100.206,69.952 Q100.295,69.82 98.836,69.51 L97.422,69.157 98.836,68.892 Q100.162,68.803 101.179,69.201 L101.267,69.245 Q102.107,69.599 102.461,70.085 M104.759,78.881 Q104.759,78.439 104.98,78.174 L108.383,73.488 110.107,69.908 Q110.505,69.068 110.947,69.157 L111.212,69.466 111.168,70.085 Q110.505,72.428 109.444,74.593 L107.632,78.129 Q107.234,78.925 107.765,79.632 L109.4,81.798 Q109.621,82.107 109.533,82.373 L109.091,82.726 108.339,82.947 Q107.499,83.08 106.969,82.461 L104.936,79.588 Q104.715,79.279 104.759,78.881 M119.389,62.129 L120.008,61.245 Q120.406,60.494 121.157,60.936 L123.102,62.792 Q125.003,64.825 124.693,65.93 124.428,65.974 123.411,65.356 L121.467,64.295 118.947,63.278 Q118.77,63.013 119.389,62.129 M121.378,69.997 L121.555,71.853 Q121.555,73.091 121.069,73.975 120.583,74.859 119.92,74.859 119.478,74.859 119.124,74.505 118.328,73.621 118.328,71.809 118.373,70.571 118.859,69.687 L118.947,69.555 Q119.036,69.422 117.577,69.113 L116.163,68.759 117.577,68.494 120.008,68.847 Q121.113,69.334 121.378,69.997 M118.152,81.975 L118.594,82.063 123.058,85.157 123.544,85.732 123.677,86.439 122.925,90.461 122.66,90.903 122.262,90.638 122.218,88.605 Q121.688,87.898 120.892,88.207 L117.002,90.859 Q112.582,93.467 109.886,93.467 107.146,93.511 103.787,91.92 L100.958,90.329 100.383,90.417 Q100.118,90.638 100.162,90.992 L100.162,91.389 Q100.162,92.229 99.72,91.566 L97.775,88.649 97.599,87.942 97.864,87.235 99.455,85.201 Q99.676,84.936 99.853,84.98 L99.941,85.422 99.941,86.041 100.162,86.704 Q100.427,86.969 100.781,87.014 L103.742,87.5 108.914,87.721 Q111.919,87.367 117.931,85.025 L118.594,84.538 Q118.903,84.141 118.726,83.831 L118.196,82.417 Q118.019,82.107 118.152,81.975 M110.638,94.572 L111.389,94.704 111.787,95.235 Q111.875,95.588 111.61,95.898 L110.991,96.34 108.339,96.384 106.836,95.633 106.483,95.323 Q106.527,95.146 106.925,95.102 L109.842,94.749 110.638,94.572 M120.538,86.085 Q119.964,85.643 119.301,85.688 L118.328,85.909 Q112.848,88.251 109.356,88.561 L103.742,88.34 100.737,87.853 Q99.632,87.853 99.853,88.605 100.118,89.445 100.737,89.577 L106.218,91.389 109.754,91.61 113.422,91.036 Q115.234,90.373 120.052,87.721 L120.759,87.058 Q121.113,86.527 120.538,86.085 M133.622,47.057 Q131.456,44.316 128.848,44.007 127.257,43.83 124.914,43.035 124.251,42.814 123.544,42.283 L122.351,41.399 Q120.273,39.985 118.903,40.162 117.886,40.338 115.588,43.963 L114.085,46.129 Q113.334,46.924 111.522,46.35 109.267,45.687 107.986,45.996 106.969,46.261 105.113,48.162 L102.593,50.991 Q101.267,52.582 99.367,52.847 L98.969,52.891 Q97.643,52.98 96.494,52.317 L96.007,51.963 Q94.858,51.079 95.035,49.444 93.93,50.549 93.355,52.051 92.692,53.996 93.311,56.427 93.974,58.991 95.61,60.494 96.715,61.51 98.35,61.201 99.809,60.891 101.179,59.654 L103.3,57.002 Q105.334,54.394 106.173,53.908 107.588,53.068 108.604,53.245 109.046,53.289 110.549,53.996 L111.743,54.615 113.334,54.394 118.417,51.167 Q120.052,50.416 122.925,53.333 L126.329,56.648 Q126.992,56.781 129.069,55.808 131.456,54.703 132.34,54.571 135.169,54.173 136.76,55.897 137.953,57.134 138.263,59.079 138.484,60.317 137.158,62.041 136.185,63.322 134.771,64.383 L138.263,67.124 Q141.003,69.776 141.799,73.444 142.638,71.057 143.125,67.875 144.097,61.554 142.329,57.709 141.357,55.543 139.942,53.598 138.042,50.946 136.318,50.239 136.053,50.151 133.622,47.057 M169.866,159.413 Q169.247,154.33 167.7,148.01 165.269,137.976 161.423,129.401 157.49,120.65 151.876,114.108 147.589,109.246 143.788,106.771 L143.699,106.727 143.257,106.417 Q141.799,105.401 139.235,104.428 136.848,107.08 132.296,108.893 129.157,110.13 127.213,110.351 126.373,110.44 125.975,110.837 125.577,111.235 125.356,112.208 123.986,118.175 123.367,124.893 123.014,128.517 122.925,136.076 122.881,143.413 123.102,146.242 L123.367,146.595 123.809,146.816 Q126.638,147.126 133.887,146.551 L143.522,145.358 143.567,144.871 138.439,138.02 138.881,137.534 142.506,140.717 Q146.793,144.916 150.152,150.485 153.379,155.745 155.633,162.021 L157.534,168.121 163.191,168.342 Q165.888,167.9 168.009,165.159 169.203,163.612 169.954,161.756 170.131,161.181 169.954,159.811 L169.866,159.413 M171.236,163.789 Q169.954,166.176 168.142,167.811 165.888,169.8 163.191,170.242 159.788,170.728 157.534,170.154 156.561,172.01 156.694,173.159 156.915,175.193 157.711,175.944 158.241,176.43 159.788,176.872 L159.876,176.872 160.274,176.828 160.628,176.607 Q161.247,175.458 161.07,174.353 160.628,173.248 160.893,172.85 L161.291,172.717 Q161.91,172.806 162.263,174.043 162.838,176.165 162.396,177.049 162.175,177.624 162.175,178.596 162.175,179.568 162.484,180.32 162.794,181.071 163.28,181.336 L164.031,180.894 165.843,179.038 Q166.816,177.624 166.948,176.298 L166.948,176.209 Q167.169,175.767 167.479,175.767 L167.921,175.9 168.098,176.077 168.142,176.077 168.142,176.121 Q168.407,176.916 167.877,178.287 L167.7,179.038 Q168.893,178.552 169.91,177.535 171.103,176.298 171.545,175.148 L171.943,172.938 171.987,172.938 Q172.031,172.452 172.385,172.364 172.739,172.32 173.136,172.938 L173.181,172.983 173.181,173.027 173.225,173.204 173.446,174.972 Q174.241,174.176 174.86,172.938 175.7,171.259 175.567,169.668 175.523,168.563 173.357,165.911 L173.092,165.601 171.236,163.789Z" vector-effect="non-scaling-stroke" stroke-width="1"/><path fill="#FFF" stroke="none" d="M34.039,122.153 L34.039,122.064 33.995,122.153 33.995,122.285 34.039,122.241 34.172,124.407 34.216,124.539 Q34.481,126.484 35.321,127.368 36.47,128.65 38.238,129.136 L40.978,129.269 41.465,129.225 41.597,129.225 42.835,129.401 43.321,129.667 Q43.851,130.02 43.896,130.418 43.984,131.125 43.277,132.23 L42.437,133.026 41.951,133.291 41.73,133.379 29.84,139.567 29.973,139.479 28.337,140.451 26.879,141.601 26.216,142.308 25.862,143.324 25.906,143.855 25.95,143.943 26.039,144.297 26.304,144.783 26.437,144.96 26.481,145.048 26.746,145.358 27.321,145.844 28.205,146.153 28.514,146.197 29.265,146.197 32.359,145.446 42.304,141.247 Q42.835,141.291 42.614,141.38 L34.304,148.452 Q31.917,150.308 31.122,151.899 30.415,153.048 30.547,154.153 L30.547,154.551 Q31.475,156.496 33.067,156.717 L33.288,156.761 33.818,156.761 35.365,156.231 Q37,155.391 40.404,152.12 L46.857,146.418 42.702,152.96 Q40.669,155.921 39.962,157.866 39.564,158.75 39.476,159.678 L39.387,160.341 Q39.564,162.33 41.686,162.817 43.719,163.347 44.868,161.756 L48.758,156.275 Q49.818,155.214 52.294,150.706 53.001,149.424 53.001,149.645 L50.216,158.794 Q49.509,160.386 50.305,162.109 51.144,164.01 53.045,163.656 L54.194,163.038 54.238,163.038 Q56.316,161.623 58.216,155.303 L59.719,149.291 62.283,147.479 Q65.156,145.092 66.438,142.352 L68.161,139.479 69.311,136.827 69.885,133.998 Q70.548,131.877 72.051,131.037 70.99,124.76 63.918,120.65 L63.432,120.429 62.813,119.987 59.41,123.125 59.056,123.081 59.145,123.081 55.918,122.462 49.553,122.197 41.553,122.418 34.083,122.153 34.083,122.064 34.039,122.153 M37.089,125.733 Q36.647,125.291 36.603,124.142 L44.956,124.009 Q51.056,123.788 52.47,123.876 L56.139,123.965 Q57.774,124.053 58.393,124.893 59.277,125.026 61.001,123.611 L61.62,123.169 62.371,122.462 62.283,122.462 62.769,122.02 64.095,122.771 Q65.686,123.788 66.88,125.114 68.824,127.236 70.15,130.285 L68.25,132.009 67.543,136.12 Q65.907,140.496 61.885,145.313 L58.658,147.744 54.636,159.855 53.664,161.623 Q53.001,162.33 52.338,161.933 51.719,161.623 51.586,160.783 L51.586,160.518 51.675,160.12 Q51.675,159.899 51.807,159.767 L52.028,158.529 55.078,148.54 Q55.52,147.789 55.388,147.258 L55.52,146.905 55.122,146.728 Q54.725,146.33 54.017,146.242 L53.575,146.021 53.266,146.021 53.178,146.197 44.78,159.104 Q43.675,160.739 42.481,161.137 40.713,161.004 41.111,159.148 41.42,157.734 42.525,156.275 L49.465,145.667 49.376,145.579 49.995,144.606 48.139,143.148 46.503,144.606 Q45.31,145.181 43.365,146.993 L37.177,152.96 Q33.906,155.303 32.359,153.004 34.039,150.794 37.442,148.01 L45.619,141.114 45.708,140.805 45.885,140.672 45.708,140.496 Q45.575,139.346 44.293,138.86 L44.161,138.772 44.072,138.816 43.63,138.772 30.945,143.987 28.249,143.899 Q27.409,142.617 29.398,141.733 31.696,140.496 35.277,138.728 L41.199,135.766 Q42.481,135.324 43.94,134.175 L46.459,132.274 Q47.034,132.319 48.669,133.777 50.481,135.368 51.542,135.678 52.957,136.12 52.912,134.794 52.824,133.424 51.807,133.379 50.702,132.761 49.155,131.39 L45.664,128.915 Q43.321,127.457 41.553,127.324 38.017,126.661 37.089,125.733 M46.592,136.65 Q46.327,136.208 45.752,136.385 45.443,136.473 45.31,136.915 L45.222,137.313 47.432,140.186 Q50.481,143.324 55.211,145.225 56.095,145.137 56.183,144.695 L56.006,144.12 55.785,143.811 Q51.365,142.043 48.537,139.17 L46.592,136.65 M26.481,116.053 Q27.055,117.246 28.16,116.583 37.221,111.191 47.918,110.528 59.321,109.777 67.985,114.904 69.09,115.523 69.841,114.462 70.592,113.357 69.487,112.738 60.205,107.257 48.139,107.876 36.691,108.451 27.011,114.197 25.906,114.86 26.481,116.053 M52.161,102.837 L43.144,102.528 Q38.017,102.749 34.393,104.252 33.199,104.694 33.774,105.931 34.348,107.125 35.498,106.638 38.592,105.401 43.056,105.18 L50.747,105.401 59.587,106.417 Q64.449,107.39 67.985,109.202 69.09,109.821 69.841,108.716 70.592,107.611 69.487,107.036 65.863,105.136 61.045,104.075 L52.161,102.837 M63.609,59.123 L63.962,54.217 61.355,53.952 Q61.266,54.173 60.957,58.947 60.559,64.781 60.559,69.643 60.559,74.549 62.504,81.489 63.476,84.98 64.581,87.765 65.023,88.782 66.128,88.561 L66.88,88.074 Q67.189,87.677 67.145,87.19 L66.791,82.505 Q70.106,83.036 71.079,85.511 72.139,88.295 71.344,91.92 68.913,90.815 66.128,91.389 L65.775,91.522 65.377,91.478 Q63.697,91.478 62.504,92.141 61.31,92.804 61.31,93.776 L61.355,93.776 Q58.879,95.235 55.83,95.279 53.178,95.235 51.012,94.174 L51.056,93.776 Q51.056,92.804 49.863,92.141 48.669,91.478 46.99,91.478 L46.017,91.566 45.487,91.389 Q42.702,90.815 40.271,91.92 39.476,88.295 40.536,85.511 41.509,83.036 44.824,82.505 L44.47,87.19 Q44.426,87.677 44.735,88.074 45.045,88.472 45.487,88.561 46.592,88.782 47.034,87.765 L49.111,81.489 Q51.056,74.549 51.056,69.643 51.056,64.869 50.702,58.947 L50.305,53.952 47.653,54.217 48.05,59.123 Q48.404,64.914 48.404,69.643 48.404,73.709 46.769,79.897 L46.327,79.765 Q44.647,79.676 42.835,80.251 39.299,81.356 38.061,84.538 36.912,87.456 37.442,91.124 37.708,92.981 38.238,94.395 38.459,95.058 39.122,95.191 39.829,95.323 40.315,94.925 40.492,94.749 41.067,94.483 41.951,94.041 42.967,93.909 43.056,94.793 44.205,95.412 45.354,96.03 46.99,96.03 L48.537,95.854 Q51.763,97.754 55.432,97.931 L56.183,97.931 Q60.073,97.754 63.299,95.677 L65.377,96.03 Q66.924,96.03 68.073,95.456 69.222,94.881 69.399,94.041 70.548,94.307 71.3,94.925 71.786,95.323 72.493,95.191 73.156,95.058 73.377,94.395 L74.173,91.124 Q74.703,87.456 73.554,84.538 72.316,81.356 68.78,80.251 L65.288,79.765 Q65.067,79.765 64.846,79.897 63.211,73.709 63.211,69.643 63.211,64.914 63.609,59.123 M56.802,33.753 Q65.554,32.117 73.333,35.255 81.642,38.615 85.355,46.261 85.841,47.234 86.858,46.526 87.83,45.819 87.388,44.847 83.366,36.67 74.659,33.001 66.393,29.509 57.067,31.233 56.051,31.454 55.874,32.692 55.741,33.974 56.802,33.753 M66.438,27.476 Q69.178,27.432 72.316,28.846 74.128,29.642 77.62,31.719 85.134,36.316 87.919,41.178 88.405,42.106 89.466,41.399 90.482,40.692 89.952,39.808 88.317,36.847 85.399,34.195 83.234,32.25 79.742,29.951 76.162,27.653 73.598,26.548 69.929,24.913 66.703,24.957 65.686,25.001 65.554,26.239 65.421,27.52 66.438,27.476 M157.755,28.846 Q160.937,27.432 163.633,27.476 164.694,27.52 164.562,26.239 164.385,25.001 163.368,24.957 160.142,24.913 156.473,26.548 153.909,27.653 150.329,29.951 146.882,32.206 144.716,34.195 141.799,36.802 140.119,39.808 139.633,40.692 140.649,41.399 141.666,42.106 142.152,41.178 143.788,38.349 146.793,35.742 148.959,33.885 152.451,31.719 155.943,29.642 157.755,28.846 M96.626,21.509 Q99.853,27.476 105.643,30.968 111.433,34.416 118.196,34.416 125.003,34.416 130.793,30.968 136.583,27.476 139.81,21.509 L140.296,20.537 139.81,19.609 Q136.583,13.597 130.793,10.106 125.003,6.614 118.196,6.614 111.433,6.614 105.643,10.106 99.853,13.597 96.626,19.609 L96.14,20.537 96.626,21.509 M118.417,15.321 Q119.654,14.084 121.334,14.084 123.058,14.084 124.295,15.321 125.489,16.515 125.489,18.238 125.489,19.962 124.295,21.2 123.058,22.393 121.334,22.393 119.654,22.393 118.417,21.2 117.223,19.962 117.223,18.238 117.223,16.515 118.417,15.321 M126.594,14.702 Q124.782,12.139 121.864,11.034 126.152,11.829 129.732,14.305 133.312,16.78 135.611,20.537 133.312,24.294 129.732,26.769 126.152,29.244 121.864,29.996 124.782,28.891 126.594,26.371 128.45,23.763 128.45,20.537 128.45,17.31 126.594,14.702 M107.986,20.537 Q107.986,23.763 109.842,26.371 111.654,28.891 114.571,29.996 110.284,29.244 106.704,26.769 103.079,24.294 100.825,20.537 103.079,16.78 106.704,14.305 110.284,11.829 114.571,11.034 111.654,12.139 109.842,14.702 107.986,17.31 107.986,20.537 M180.474,57.665 Q178.087,57.665 174.949,59.654 172.12,61.466 171.413,62.925 170.75,64.206 170.882,66.019 171.015,67.875 171.855,69.51 L171.943,69.776 Q172.96,71.544 172.827,72.118 L172.606,72.207 Q170.529,72.914 169.777,74.24 168.982,75.61 168.982,78.439 168.982,81.754 169.512,84.273 170.352,88.34 172.341,88.34 173.357,88.34 174.507,87.146 L179.634,80.737 Q181.313,79.013 182.595,76.848 184.319,73.842 184.319,71.411 184.319,69.466 183.302,67.389 182.197,65.135 180.474,64.162 L178.264,64.206 175.965,65.532 Q177.954,67.035 178.352,66.682 178.882,66.284 179.148,66.461 180.164,67.035 180.96,68.626 181.667,70.129 181.667,71.411 181.667,73.046 180.429,75.301 179.28,77.334 177.733,78.837 176.849,79.721 174.418,79.986 171.634,80.339 171.634,78.439 171.634,76.273 172.076,75.566 172.385,75.08 173.446,74.726 174.772,74.284 175.302,73.135 175.479,72.737 174.772,69.466 174.109,66.284 175.037,64.251 175.435,63.455 176.849,62.527 178.573,61.466 180.253,61.466 181.976,61.466 183.479,63.19 185.115,65.135 185,68.803 186.617,71.499 184.186,76.494 182.418,80.074 180.12,83.08 L179.678,83.787 Q179.324,84.583 180.032,84.98 181.181,85.688 182.242,84.671 184.584,81.577 186.264,78.306 189.49,72.03 188.562,68.184 187.369,63.19 185.247,60.405 183.126,57.665 180.474,57.665 M169.998,58.681 L169.379,59.963 Q167.744,63.013 164.606,66.682 L161.733,68.715 162.794,68.803 164.738,68.45 Q166.02,67.831 167.965,65.974 170.44,63.632 171.722,61.201 L172.385,59.786 Q174.065,56.339 175.523,55.322 177.998,53.554 182.551,55.057 188.341,56.913 190.419,63.764 191.568,67.61 191.391,72.03 191.303,73.842 189.093,77.201 L181.844,87.014 Q179.987,89.975 177.689,91.876 175.081,93.953 173.004,93.644 169.866,93.157 168.54,89.666 L167.125,84.185 Q166.506,82.505 164.738,81.223 L163.059,80.251 165.888,90.152 Q168.186,95.633 172.606,96.251 175.7,96.693 179.015,94.174 181.8,92.052 184.098,88.428 L192.187,77.687 Q194.927,73.577 195.06,71.234 195.281,66.593 193.468,61.554 190.595,53.466 183.612,51.212 177.733,49.311 174.02,52.582 172.164,54.217 169.998,58.681 M173.269,33.753 Q174.33,33.974 174.197,32.692 174.065,31.454 173.004,31.233 163.678,29.509 155.412,33.001 146.705,36.67 142.683,44.847 142.241,45.819 143.257,46.526 144.23,47.234 144.716,46.261 148.473,38.615 156.738,35.255 164.517,32.117 173.269,33.753Z" vector-effect="non-scaling-stroke" stroke-width="1"/></g></g></svg>