<?xml version="1.0" encoding="utf-8"?><svg id="Perception" image-rendering="auto" baseProfile="basic" version="1.1" x="0px" y="0px" width="240" height="240" xmlns="http://www.w3.org/2000/svg" xmlns:xlink="http://www.w3.org/1999/xlink"><g id="Scene-1f5r1" overflow="visible"><path fill="#FFF" stroke="none" d="M101.25,222.4 L101.3,222.5 102.45,223.8 Q105.5,223.8 106.45,223.15 107.4,222.45 107.55,220.8 L98.6,221.25 Q94.2,220.95 88.35,218.85 82.65,220.35 81.05,221.2 79.15,222.15 79.25,222.6 L80.15,223.1 80.6,223.25 Q86.2,224.6 92.1,224.2 95.95,223.8 101.1,222.45 L101.25,222.4 M141.2,225.5 Q140.9,227.2 141.45,228.3 142.45,229.9 145.35,231.75 148.9,234 151.7,233.6 156.4,232.9 156.65,229 156.7,227.9 155.15,224.9 153.1,225.75 150.95,225.9 L141.2,225.5 M121.3,168.05 Q112.4,168.05 104.35,165.65 L99.75,164.75 97.25,175.25 Q94.95,185.15 94.15,190 92.9,197.75 90.1,216.65 91.75,218.25 94.25,218.95 L99.35,219.6 107.7,219.2 108.05,218.95 Q111.05,204.65 113.4,197.2 114.85,192.45 117.3,186.5 L119.65,180.8 117.8,175.75 118.2,175.6 123.4,184.55 Q129.2,195.1 132.65,203.65 L137,215.65 Q139.35,222.6 139.7,222.95 140.9,223.7 144.85,223.95 148,224.15 150.1,224.05 L153.95,223.45 Q155.95,222.95 156.1,222.55 156.4,221.75 155.55,212.25 154.55,201.75 153.2,195.1 151.85,188.75 148.15,176.65 144.9,166 144.05,164 140.05,165.65 131.85,166.9 126,168.05 121.3,168.05 M131.75,107.45 Q135.65,105.9 137.75,103.75 134.75,101.85 131.6,100.35 130.5,103.6 127.3,106.05 124.35,108.35 120.65,109.25 111.9,111.3 108.6,105 106.35,104.25 104.15,103 L103.05,104.1 Q103.95,105.05 106.85,106.1 L106.9,106.15 107.45,106.35 Q108.25,106.7 108.55,107.55 108.9,108.45 108.55,109.45 L107,115.35 Q105.5,121.4 104.95,126.1 104.35,130.75 104.3,137.45 L104.35,144.35 Q104.45,146.15 103.95,146.65 103.5,147.1 102.6,146.95 101.35,146.85 99.35,146 100.15,154.4 99.9,162.35 L106.85,164.35 Q115.55,166.15 120.7,166.4 L121.5,166.4 133.05,165.3 Q139.85,164.3 143.6,162.65 143.05,154.25 143.4,147 L134.05,148.15 Q126.1,148.65 123.7,148.45 122.95,148.4 122.3,147.7 121.65,147.1 121.55,146.4 121.3,143.55 121.35,136.1 121.45,128.5 121.8,124.75 122.5,117.8 123.85,111.9 124.15,110.4 124.9,109.7 125.7,108.95 127.1,108.75 128.8,108.6 131.75,107.45 M74,161.75 L73.75,162.05 Q71.55,164.8 71.5,165.85 71.4,167.45 72.25,169.1 72.8,170.25 73.65,171.15 73.6,170.45 73.85,169.4 L73.9,169.2 73.9,169.1 Q74.3,168.45 74.7,168.55 75,168.55 75.1,169.1 75.25,170.55 75.55,171.35 76,172.5 77.2,173.7 78.2,174.75 79.4,175.2 L79.2,174.45 Q78.65,173 78.95,172.25 L79.15,172.05 Q79.4,171.85 79.6,171.9 L80.15,172.45 Q80.25,173.75 81.25,175.2 82.05,176.35 83,177.1 83.55,177.5 83.8,177.5 84.3,177.25 84.55,176.5 84.85,175.75 84.85,174.8 84.9,173.75 84.65,173.2 84.15,172.1 84.85,170.25 85.2,169 85.8,168.85 L86.15,169 Q86.5,169.45 86,170.5 85.8,171.45 86.4,172.75 L86.8,172.95 87.2,173.05 87.3,173 Q88.85,172.6 89.4,172.15 90.2,171.35 90.4,169.35 90.55,168.35 89.7,166.6 L83.75,166.8 Q81.05,166.35 78.75,164.25 76.9,162.6 75.6,160.15 L74,161.75 M77.05,155.95 L77,156.35 Q76.75,157.65 77,158.3 77.6,160 78.9,161.7 81.05,164.45 83.7,164.9 L89.4,164.65 Q90.05,161.95 91.3,158.55 93.6,152.3 96.75,147 L97.45,145.95 97.35,144.5 Q96.7,138.3 95.95,134.3 L93.45,122.1 94.1,122 97.05,131.25 Q98.05,134.85 98.9,142.35 L99.1,144.2 Q100.8,145.05 102.8,145.4 L102.8,144.3 Q102.7,141.6 102.75,137.4 102.8,130.5 103.35,125.9 103.95,121.25 105.4,115.2 106.5,110.45 107.05,108.9 107.35,108 106.8,107.8 L106.45,107.65 106.3,107.55 Q102.9,106.4 101.7,104.95 L101.4,104.5 Q98.15,107.05 95.1,110.65 89.45,117 85.5,125.9 81.7,134.45 79.2,144.55 77.75,150.6 77.05,155.95 M120.05,54.2 Q118,53.7 116.35,54.6 114.7,55.55 113.65,55.75 L110.9,55.6 109.35,54.85 107,54.75 Q106.3,55.15 104.35,57.75 L102.15,60.5 Q100.5,62.05 98.7,62.35 95.35,68.2 94.35,73.8 92.95,81.25 95.4,88.6 97.85,96.1 103.5,100.7 L103.55,100.65 103.8,100.9 Q106.25,102.8 108.75,103.8 113.5,105.8 117.25,105.65 L120,105.45 Q120.15,105.8 117.95,106.5 L115.05,107.1 Q117.9,108.9 123.55,106.1 129.35,103.25 129.75,99.15 127.6,100.7 125.75,100.85 123.9,101.05 125.4,100.05 131.2,96.15 135,89 139.05,89.45 140.75,85.75 142.55,81.95 139.15,79.5 138.7,78.8 139.3,78.45 139.6,78.25 140,78.2 L140.1,78.1 140.25,78.05 Q137.7,74.3 136.1,72.7 135.2,71.8 133.9,71.1 133.25,70.7 133.35,70.1 133.4,69.6 133.9,69.75 135.15,70.15 136.85,71.85 139.05,73.9 140.7,77.4 L140.9,76.4 Q138.75,72.05 136.6,70.1 L133.15,67.15 Q132.65,66.9 132.95,66.5 133.15,66.1 133.75,66.3 134.65,66.65 137.35,69.35 139.6,71.95 141,75.1 141,70.95 137.45,67.7 136.05,66.4 133.2,64.75 132.6,64.45 132.9,64 L133.25,63.65 Q136.9,61.5 135.8,58.65 134.75,55.9 132.25,56.25 129.5,56.75 128.4,57.15 L126.2,57.7 Q124.9,57.8 124.05,56.85 122.25,54.85 120.05,54.2 M120,61.25 Q120.4,60.5 121.15,60.95 L123.1,62.8 Q125,64.8 124.7,65.9 124.45,65.95 123.45,65.35 L118.95,63.25 Q118.8,63 119.4,62.1 L120,61.25 M104.1,63.45 Q104.2,63.9 103.95,64.25 103.65,64.55 103.2,64.6 L99.7,64.75 99.15,64.65 99.5,64.25 102.8,62.1 103.55,62 Q103.9,62.1 103.95,62.55 L104.1,63.45 M102.5,71.2 L102.7,71.2 102.8,71.15 Q103.7,71.25 103.95,71.75 104.25,72.25 103.95,72.85 L103.75,73.2 Q103.25,74.05 102.2,74.65 L102.15,74.65 101.4,75 100.15,75.25 100.1,75.25 Q99.05,75.3 98.8,74.65 98.45,74.1 99,73.3 L99.05,73.2 99.6,72.55 99.7,72.5 100.6,71.8 101.5,71.4 102.5,71.2 M108.4,73.5 L110.1,69.9 Q110.5,69.05 110.95,69.15 L111.2,69.45 111.2,70.1 Q110.5,72.4 109.45,74.6 L107.65,78.15 Q107.25,78.9 107.8,79.65 L109.4,81.8 Q109.65,82.1 109.55,82.35 L109.1,82.75 108.35,82.95 Q107.5,83.1 107,82.45 L104.95,79.6 Q104.7,79.3 104.75,78.9 104.75,78.45 105,78.15 L108.4,73.5 M117.8,72.5 L118.75,71.8 119.65,71.4 120.65,71.2 120.8,71.2 120.95,71.15 Q121.85,71.25 122.1,71.75 122.35,72.25 122.1,72.85 L121.9,73.15 121.9,73.2 Q121.4,74.05 120.35,74.65 L120.3,74.65 119.6,75 119.55,75 118.25,75.25 118.2,75.25 Q117.2,75.3 116.95,74.65 116.55,74.1 117.1,73.3 L117.2,73.2 117.7,72.55 117.8,72.5 M99.95,85.4 L99.95,86.05 100.15,86.7 Q100.45,86.95 100.8,87 L103.75,87.5 108.95,87.7 Q111.95,87.35 117.95,85.05 L118.6,84.55 Q118.9,84.15 118.75,83.85 L118.2,82.4 Q118.05,82.1 118.15,81.95 L118.6,82.05 123.05,85.15 123.55,85.75 123.7,86.45 122.95,90.45 122.7,90.9 122.3,90.65 122.25,88.6 Q121.7,87.9 120.9,88.2 L117,90.85 Q112.6,93.45 109.9,93.45 107.15,93.5 103.8,91.9 L100.95,90.35 100.4,90.4 Q100.15,90.65 100.15,91 L100.15,91.4 Q100.15,92.25 99.75,91.55 L97.8,88.65 97.6,87.95 97.85,87.25 99.45,85.2 Q99.7,84.95 99.85,85 L99.95,85.4 M111,96.35 L108.35,96.4 106.85,95.65 106.5,95.35 Q106.55,95.15 106.95,95.1 L110.65,94.6 111.4,94.7 111.8,95.25 Q111.9,95.6 111.6,95.9 L111,96.35 M133.4,73.55 Q133.65,73.05 134.05,73.2 135.4,73.85 136.25,74.7 L137.4,76.25 Q137.9,77.05 137.85,77.4 137.75,77.85 136.95,77 L135.55,75.45 133.8,74.35 Q133.2,73.95 133.4,73.55 M135,79.05 Q134.95,78.65 134.4,78.1 L133.75,77.6 Q133.35,77.4 133.6,76.9 133.8,76.45 134.3,76.65 L135.35,77.5 Q135.95,78.1 136.05,78.85 136.1,79.5 135.65,79.55 135.1,79.55 135,79.05 M99.85,88.6 Q100.15,89.45 100.75,89.6 L106.25,91.4 109.75,91.6 113.45,91.05 Q115.25,90.4 120.05,87.7 L120.75,87.05 Q121.15,86.55 120.55,86.1 120,85.65 119.3,85.7 L118.35,85.9 Q112.85,88.25 109.35,88.55 L103.75,88.35 100.75,87.85 Q99.65,87.85 99.85,88.6 M133.65,47.05 Q131.45,44.3 128.85,44 127.25,43.8 124.95,43 124.25,42.8 123.55,42.25 L122.35,41.4 Q120.3,39.95 118.9,40.15 117.9,40.3 115.6,43.95 L114.1,46.1 Q113.35,46.9 111.55,46.35 109.3,45.65 108,46 107,46.25 105.1,48.15 L102.6,51 Q101.3,52.55 99.35,52.85 L99,52.9 Q97.65,52.95 96.5,52.3 L96,51.95 Q94.85,51.05 95.05,49.45 93.95,50.55 93.35,52.05 92.7,54 93.3,56.4 94,59 95.6,60.5 96.7,61.5 98.35,61.2 99.8,60.9 101.2,59.65 L103.3,57 Q105.35,54.4 106.2,53.9 107.6,53.05 108.6,53.25 109.05,53.3 110.55,54 L111.75,54.6 113.35,54.4 118.45,51.15 Q120.05,50.4 122.95,53.3 L126.35,56.65 Q127,56.75 129.1,55.8 131.45,54.7 132.35,54.55 135.2,54.15 136.8,55.9 137.95,57.15 138.3,59.05 138.5,60.3 137.2,62.05 136.2,63.3 134.8,64.4 L138.3,67.1 Q141,69.75 141.8,73.45 142.65,71.05 143.15,67.85 144.1,61.55 142.35,57.7 141.4,55.55 139.95,53.6 138.05,50.95 136.35,50.25 136.05,50.15 133.65,47.05 M171.25,163.8 Q170,166.2 168.15,167.85 165.9,169.85 163.2,170.25 159.8,170.75 157.55,170.2 156.6,172.05 156.7,173.2 156.95,175.2 157.75,175.95 158.25,176.45 159.8,176.9 L159.9,176.9 160.3,176.85 160.65,176.65 Q161.3,175.5 161.1,174.4 160.65,173.3 160.9,172.9 L161.3,172.75 Q161.95,172.85 162.3,174.05 162.85,176.2 162.4,177.1 162.2,177.65 162.2,178.65 162.2,179.6 162.5,180.35 162.8,181.1 163.3,181.35 L164.05,180.95 165.85,179.05 Q166.85,177.65 167,176.35 L167,176.25 Q167.2,175.8 167.5,175.8 L167.95,175.95 168.15,176.1 168.15,176.15 Q168.45,176.95 167.9,178.3 L167.75,179.05 Q168.9,178.6 169.95,177.55 171.15,176.35 171.6,175.2 L172,172.95 Q172.05,172.5 172.4,172.4 172.75,172.35 173.15,172.95 L173.2,173 173.2,173.05 173.25,173.25 173.5,175 Q174.25,174.2 174.9,172.95 175.75,171.3 175.6,169.7 175.55,168.6 173.4,165.95 L171.25,163.8 M170,159.85 L169.9,159.45 Q169.3,154.35 167.75,148.05 165.3,138 161.45,129.4 157.5,120.65 151.9,114.1 147.6,109.25 143.8,106.8 L143.7,106.75 143.3,106.45 Q141.8,105.4 139.25,104.45 136.85,107.1 132.3,108.9 129.2,110.15 127.25,110.35 126.4,110.45 126,110.85 125.6,111.25 125.35,112.2 124,118.2 123.4,124.9 123.05,128.55 122.95,136.1 122.9,143.45 123.1,146.25 L123.4,146.6 123.85,146.85 Q126.65,147.15 133.9,146.55 L143.55,145.4 143.6,144.9 138.45,138.05 138.9,137.55 142.55,140.75 Q146.8,144.95 150.2,150.5 153.4,155.75 155.65,162.05 L157.55,168.15 163.2,168.35 Q165.9,167.95 168.05,165.2 169.25,163.65 170,161.8 170.15,161.2 170,159.85Z"/><path fill="#FFF" stroke="none" d="M63.45,120.45 L62.8,120 59.4,123.15 59.05,123.1 59.15,123.1 55.9,122.5 49.55,122.2 41.55,122.45 34.05,122.15 34.05,122.1 34,122.15 34,122.3 34.05,122.25 34.15,124.4 34.2,124.55 Q34.45,126.5 35.3,127.4 36.45,128.65 38.25,129.15 L40.95,129.3 41.45,129.25 41.6,129.25 42.8,129.4 43.3,129.7 Q43.85,130.05 43.9,130.45 43.95,131.15 43.25,132.25 L42.45,133.05 29.85,139.6 29.95,139.5 28.3,140.45 26.85,141.6 26.2,142.35 25.85,143.35 25.9,143.85 25.95,143.95 26,144.3 26.4,145 26.45,145.05 26.75,145.4 27.3,145.85 28.2,146.15 28.5,146.2 29.25,146.2 32.35,145.45 42.3,141.25 Q42.8,141.3 42.6,141.4 L34.3,148.45 Q31.9,150.35 31.1,151.9 30.4,153.05 30.55,154.2 L30.55,154.55 Q31.45,156.5 33.05,156.75 L33.25,156.8 33.8,156.8 35.35,156.25 Q37,155.4 40.4,152.15 L46.85,146.45 42.7,153 Q40.65,155.95 39.95,157.9 39.55,158.8 39.45,159.7 L39.4,160.35 Q39.55,162.35 41.65,162.85 43.7,163.35 44.85,161.8 L48.75,156.3 Q49.8,155.25 52.3,150.75 53,149.45 53,149.65 L50.2,158.8 Q49.5,160.4 50.3,162.15 51.15,164.05 53.05,163.7 L54.2,163.05 54.25,163.05 Q56.3,161.65 58.2,155.35 L59.7,149.3 62.3,147.5 Q65.15,145.1 66.45,142.35 L68.15,139.5 69.3,136.85 69.9,134 Q70.55,131.9 72.05,131.05 71,124.75 63.9,120.65 L63.45,120.45 M61.6,123.2 L62.35,122.5 62.3,122.5 62.75,122.05 64.1,122.8 Q65.7,123.8 66.9,125.15 68.8,127.25 70.15,130.3 L68.25,132.05 67.55,136.15 Q65.9,140.5 61.9,145.35 L58.65,147.75 54.65,159.9 53.65,161.65 Q53,162.35 52.35,161.95 51.7,161.65 51.6,160.8 L51.6,160.55 51.65,160.15 Q51.65,159.9 51.8,159.8 L52,158.55 55.05,148.55 Q55.5,147.8 55.4,147.3 L55.5,146.95 55.1,146.75 Q54.7,146.35 54,146.25 L53.55,146.05 53.25,146.05 44.75,159.15 Q43.65,160.75 42.45,161.15 40.7,161.05 41.1,159.15 41.4,157.75 42.5,156.3 L49.45,145.7 49.35,145.6 50,144.65 48.15,143.15 46.5,144.65 Q45.3,145.2 43.35,147 L37.15,153 Q33.9,155.35 32.35,153.05 34.05,150.8 37.45,148.05 L45.6,141.15 45.7,140.8 45.9,140.7 45.7,140.5 Q45.55,139.35 44.3,138.9 L44.15,138.8 44.05,138.85 43.6,138.8 30.95,144 28.25,143.9 Q27.4,142.65 29.4,141.75 31.7,140.5 35.25,138.75 L41.2,135.8 Q42.45,135.35 43.95,134.2 L46.45,132.3 Q47,132.35 48.65,133.8 50.45,135.4 51.55,135.7 52.95,136.15 52.9,134.8 52.8,133.45 51.8,133.4 50.7,132.8 49.15,131.4 L45.65,128.95 Q43.3,127.45 41.55,127.35 38,126.7 37.1,125.75 36.65,125.3 36.6,124.15 L44.95,124 Q51.05,123.8 52.45,123.9 L56.15,124 Q57.75,124.05 58.4,124.9 59.25,125.05 61,123.6 L61.6,123.2 M46.6,136.65 Q46.3,136.25 45.75,136.4 45.45,136.5 45.3,136.95 L45.2,137.35 47.4,140.2 Q50.45,143.35 55.2,145.25 56.1,145.15 56.2,144.7 L56,144.15 55.8,143.85 Q51.35,142.05 48.55,139.2 L46.6,136.65 M69.85,114.45 Q70.6,113.35 69.5,112.75 60.2,107.25 48.15,107.9 36.7,108.45 27,114.2 25.9,114.85 26.45,116.05 27.05,117.25 28.15,116.6 37.2,111.2 47.9,110.55 59.3,109.8 68,114.9 69.1,115.55 69.85,114.45 M69.5,107.05 Q65.85,105.15 61.05,104.1 L52.15,102.85 43.15,102.55 Q38,102.75 34.4,104.25 33.2,104.7 33.75,105.95 34.35,107.15 35.5,106.65 38.6,105.4 43.05,105.2 L50.75,105.4 59.6,106.45 Q64.45,107.4 68,109.2 69.1,109.85 69.85,108.7 70.6,107.6 69.5,107.05 M38.05,84.55 Q36.9,87.45 37.45,91.15 37.7,93 38.25,94.4 38.45,95.05 39.1,95.2 39.8,95.35 40.3,94.95 40.5,94.75 41.05,94.5 41.95,94.05 42.95,93.9 43.05,94.8 44.2,95.4 45.35,96.05 47,96.05 L48.55,95.85 Q51.75,97.75 55.45,97.95 L56.2,97.95 Q60.05,97.75 63.3,95.7 L65.35,96.05 Q66.9,96.05 68.05,95.45 69.2,94.9 69.4,94.05 70.55,94.3 71.3,94.95 71.8,95.35 72.5,95.2 73.15,95.05 73.4,94.4 L74.15,91.15 Q74.7,87.45 73.55,84.55 72.3,81.35 68.8,80.25 L65.3,79.75 Q65.05,79.75 64.85,79.9 63.2,73.7 63.2,69.65 63.2,64.9 63.6,59.1 L63.95,54.2 61.35,53.95 Q61.25,54.15 60.95,58.95 60.55,64.75 60.55,69.65 60.55,74.55 62.5,81.5 63.45,85 64.6,87.75 65,88.8 66.15,88.55 L66.9,88.1 Q67.2,87.7 67.15,87.2 L66.8,82.5 Q70.1,83.05 71.1,85.5 72.15,88.3 71.35,91.9 68.9,90.8 66.15,91.4 L65.75,91.5 65.35,91.5 Q63.7,91.5 62.5,92.15 61.3,92.8 61.3,93.8 L61.35,93.8 Q58.85,95.25 55.8,95.3 53.15,95.25 51,94.2 L51.05,93.8 Q51.05,92.8 49.85,92.15 48.65,91.5 47,91.5 L46,91.55 45.5,91.4 Q42.7,90.8 40.25,91.9 39.45,88.3 40.55,85.5 41.5,83.05 44.8,82.5 L44.45,87.2 Q44.4,87.7 44.75,88.1 45.05,88.45 45.5,88.55 46.6,88.8 47,87.75 L49.1,81.5 Q51.05,74.55 51.05,69.65 51.05,64.85 50.7,58.95 L50.3,53.95 47.65,54.2 48.05,59.1 Q48.4,64.9 48.4,69.65 48.4,73.7 46.75,79.9 L46.3,79.75 Q44.65,79.7 42.8,80.25 39.3,81.35 38.05,84.55 M85.35,46.25 Q85.85,47.2 86.85,46.5 87.85,45.8 87.4,44.85 83.35,36.65 74.65,33 66.4,29.5 57.05,31.2 56.05,31.45 55.85,32.7 55.75,33.95 56.8,33.75 65.55,32.1 73.35,35.25 81.65,38.6 85.35,46.25 M89.95,39.8 Q88.3,36.85 85.4,34.2 83.25,32.25 79.75,29.95 76.15,27.65 73.6,26.55 69.95,24.9 66.7,24.95 65.7,25 65.55,26.2 65.4,27.5 66.45,27.45 69.2,27.4 72.3,28.85 74.15,29.6 77.6,31.7 85.15,36.3 87.9,41.15 88.4,42.1 89.45,41.4 90.5,40.7 89.95,39.8 M139.85,21.5 L140.3,20.5 139.85,19.6 Q136.6,13.55 130.8,10.1 125,6.6 118.2,6.6 111.45,6.6 105.65,10.1 99.85,13.55 96.65,19.6 L96.15,20.5 96.65,21.5 Q99.85,27.45 105.65,30.95 111.45,34.4 118.2,34.4 125,34.4 130.8,30.95 136.6,27.45 139.85,21.5 M124.3,15.3 Q125.5,16.5 125.5,18.2 125.5,19.95 124.3,21.2 123.05,22.35 121.35,22.35 119.65,22.35 118.45,21.2 117.25,19.95 117.25,18.2 117.25,16.5 118.45,15.3 119.65,14.05 121.35,14.05 123.05,14.05 124.3,15.3 M128.45,20.5 Q128.45,17.3 126.6,14.7 124.8,12.1 121.9,11 126.15,11.8 129.75,14.3 133.35,16.75 135.65,20.5 133.35,24.25 129.75,26.75 126.15,29.25 121.9,30 124.8,28.85 126.6,26.35 128.45,23.75 128.45,20.5 M114.6,11 Q111.65,12.1 109.85,14.7 108,17.3 108,20.5 108,23.75 109.85,26.35 111.65,28.85 114.6,30 110.3,29.25 106.7,26.75 103.1,24.25 100.85,20.5 103.1,16.75 106.7,14.3 110.3,11.8 114.6,11 M195.3,103 Q195.65,101.75 194.4,101.5 190.5,100.8 185.4,101.65 181.8,102.25 176.7,103.8 171.6,105.35 168.25,106.85 163.7,108.85 160.55,111.45 159.6,112.25 160.5,113.2 L162.45,113.3 Q167.7,109 178.55,106.05 183.45,104.65 186.1,104.2 190.45,103.5 193.75,104.1 194.95,104.3 195.3,103 M203,112.35 Q204.2,112.8 204.5,111.5 204.85,110.25 203.65,109.8 193,106.15 181.65,107.9 169.7,109.75 161.7,117.05 160.75,117.9 161.7,118.8 L163.6,118.85 Q171.05,112.05 182.4,110.45 193,108.9 203,112.35 M213.8,120.35 Q212,118.35 210.2,117.3 207.3,115.55 203.15,115.9 200.4,116.15 197.6,117.2 194.8,116.15 192.05,115.9 187.85,115.55 184.95,117.3 183.2,118.35 181.4,120.35 L176.2,126.75 Q174.95,128.1 174.1,128.2 173.45,128.35 173.2,129 172.95,129.65 173.45,130.2 177.8,135.45 178.85,137.8 180.15,140.7 183.45,142.8 186.1,148.55 189.6,151.5 193.1,154.5 197.15,154.5 L198,154.5 Q202.1,154.5 205.55,151.5 209.05,148.55 211.7,142.8 215.1,140.7 216.3,137.8 216.95,136.4 218.95,133.75 L221.75,130.2 Q222.2,129.65 222,129 221.65,128.35 221.05,128.2 219.75,128 216.7,123.95 L213.8,120.35 M216.35,129.35 L213.65,130.9 Q213.25,129.75 212.5,128.65 210.95,126.55 208.6,125.25 206.45,124.1 204.55,124.1 201.7,124.1 197.6,125.9 193.55,124.1 190.6,124.1 188.75,124.1 186.6,125.25 184.2,126.55 182.7,128.65 181.95,129.7 181.5,130.9 L178.85,129.35 Q182.95,126.3 186.15,124.55 188.2,123.4 192.15,123.05 194.75,122.85 197.55,122.95 200.35,122.85 203,123.05 206.95,123.4 209.05,124.55 212.4,126.45 216.35,129.35 M207.55,127.45 Q209.4,128.5 210.5,130.1 211.8,131.85 211.85,134 211.95,135.5 211.35,137.05 L209.5,141.6 209.4,142.1 Q204.55,152.1 198,152.1 L197.15,152.1 Q190.6,152.1 185.75,142.1 L185.65,141.6 Q184.6,139.3 183.8,137.05 183.3,135.55 183.3,133.95 183.4,131.85 184.65,130.1 185.8,128.5 187.6,127.45 189.25,126.5 190.6,126.5 192.85,126.5 196,127.85 L196.45,130.9 Q196.8,133.65 197.15,133.65 L198,133.65 Q198.35,133.65 198.75,130.9 L199.15,127.85 Q202.3,126.5 204.55,126.5 205.95,126.5 207.55,127.45 M188.6,68.2 Q187.4,63.2 185.3,60.4 183.15,57.65 180.5,57.65 178.1,57.65 175,59.65 172.15,61.45 171.45,62.9 170.8,64.2 170.9,66 171.05,67.85 171.9,69.5 L172,69.75 Q173,71.55 172.85,72.1 L172.65,72.2 Q170.55,72.9 169.8,74.25 169,75.6 169,78.45 169,81.75 169.55,84.25 170.4,88.35 172.35,88.35 173.4,88.35 174.55,87.15 L179.65,80.75 Q181.35,79 182.65,76.85 184.35,73.85 184.35,71.4 184.35,69.45 183.35,67.4 182.25,65.15 180.5,64.15 L178.3,64.2 176,65.55 Q178,67.05 178.4,66.7 178.9,66.3 179.2,66.45 180.2,67.05 181,68.6 181.7,70.1 181.7,71.4 181.7,73.05 180.45,75.3 179.3,77.35 177.75,78.85 176.9,79.7 174.45,80 171.65,80.35 171.65,78.45 171.65,76.25 172.1,75.55 172.4,75.1 173.5,74.7 174.8,74.3 175.35,73.15 175.5,72.75 174.8,69.45 174.15,66.3 175.05,64.25 175.45,63.45 176.9,62.5 178.6,61.45 180.3,61.45 182,61.45 183.5,63.2 185.15,65.15 186.05,68.8 186.65,71.5 184.2,76.5 182.45,80.05 180.15,83.1 L179.7,83.8 Q179.35,84.6 180.05,85 181.2,85.7 182.3,84.65 184.6,81.6 186.3,78.3 189.55,72.05 188.6,68.2 M195.1,71.25 Q195.3,66.6 193.5,61.55 190.65,53.45 183.65,51.2 177.75,49.3 174.05,52.55 172.2,54.2 170.05,58.65 L169.4,59.95 Q167.75,63 164.65,66.7 L161.75,68.7 162.8,68.8 164.75,68.45 Q166.05,67.85 168,65.95 170.45,63.65 171.75,61.2 L172.4,59.8 Q174.1,56.35 175.55,55.3 178.05,53.55 182.6,55.05 188.4,56.9 190.45,63.75 191.6,67.6 191.45,72.05 191.35,73.85 189.15,77.2 L181.9,87 Q180,90 177.7,91.9 175.1,93.95 173.05,93.65 169.9,93.15 168.55,89.65 L167.15,84.2 Q166.55,82.5 164.75,81.2 L163.1,80.25 165.9,90.15 Q168.2,95.65 172.65,96.25 175.75,96.7 179.05,94.2 181.85,92.05 184.15,88.45 L192.25,77.7 Q194.95,73.55 195.1,71.25 M163.65,27.45 Q164.7,27.5 164.6,26.2 164.4,25 163.4,24.95 160.15,24.9 156.5,26.55 153.95,27.65 150.35,29.95 146.9,32.2 144.75,34.2 141.8,36.8 140.15,39.8 139.65,40.7 140.65,41.4 141.7,42.1 142.15,41.15 143.8,38.35 146.8,35.75 149,33.85 152.5,31.7 155.95,29.6 157.8,28.85 160.95,27.4 163.65,27.45 M173.3,33.75 Q174.35,33.95 174.25,32.7 174.1,31.45 173.05,31.2 163.7,29.5 155.45,33 146.75,36.65 142.7,44.85 142.25,45.8 143.3,46.5 144.25,47.2 144.75,46.25 148.5,38.6 156.75,35.25 164.55,32.1 173.3,33.75Z"/></g></svg>