<?xml version="1.0" encoding="utf-8"?><svg id="Perception" image-rendering="auto" baseProfile="basic" version="1.1" x="0px" y="0px" width="240" height="240" xmlns="http://www.w3.org/2000/svg" xmlns:xlink="http://www.w3.org/1999/xlink"><g id="Scene-1f6r1" overflow="visible"><g id="Symbol-1"><path fill="#FFF" stroke="none" d="M156.606,228.94 Q156.694,227.835 155.103,224.829 153.07,225.713 150.904,225.846 L141.18,225.448 Q140.87,227.172 141.445,228.233 142.417,229.868 145.335,231.68 148.871,233.934 151.699,233.537 156.385,232.874 156.606,228.94 M88.361,218.818 Q82.659,220.321 81.024,221.161 79.167,222.089 79.256,222.575 L80.14,223.061 80.582,223.194 Q86.195,224.564 92.074,224.166 95.919,223.768 101.09,222.398 L101.223,222.354 101.311,222.442 102.461,223.768 Q105.466,223.768 106.439,223.105 107.411,222.398 107.544,220.763 L98.571,221.205 Q94.195,220.895 88.361,218.818 M73.996,161.712 L73.731,162.021 Q71.565,164.761 71.521,165.822 71.388,167.413 72.228,169.093 72.802,170.242 73.642,171.126 73.598,170.419 73.863,169.358 L73.907,169.181 73.907,169.049 Q74.305,168.43 74.703,168.518 75.012,168.518 75.101,169.049 L75.101,169.093 Q75.233,170.507 75.543,171.303 75.985,172.452 77.178,173.646 78.195,174.706 79.388,175.193 L79.211,174.441 Q78.637,172.983 78.946,172.231 L79.167,172.01 Q79.388,171.833 79.609,171.878 L80.14,172.408 Q80.272,173.734 81.245,175.148 82.04,176.342 83.013,177.049 83.543,177.447 83.808,177.447 84.294,177.226 84.56,176.474 84.869,175.723 84.869,174.751 84.913,173.734 84.648,173.159 84.162,172.054 84.825,170.198 85.178,168.96 85.797,168.828 L86.151,168.96 Q86.504,169.402 86.018,170.463 85.797,171.436 86.416,172.717 L86.814,172.938 87.212,173.027 87.3,172.983 Q88.847,172.585 89.377,172.099 90.173,171.303 90.394,169.314 90.527,168.297 89.687,166.574 L83.764,166.75 Q81.024,166.308 78.725,164.231 76.913,162.551 75.587,160.12 L73.996,161.712 M144.009,163.966 Q140.031,165.601 131.854,166.883 125.975,168.032 121.29,168.032 112.406,168.032 104.317,165.601 L99.72,164.717 97.245,175.237 Q94.947,185.138 94.151,189.955 92.869,197.69 90.085,216.608 91.72,218.199 94.239,218.906 L99.367,219.569 107.676,219.172 108.03,218.906 Q111.035,204.586 113.378,197.16 114.837,192.431 117.268,186.464 L119.654,180.762 117.798,175.723 118.196,175.546 123.367,184.519 Q129.157,195.083 132.649,203.613 L136.981,215.591 Q139.323,222.575 139.677,222.929 140.87,223.636 144.804,223.901 147.987,224.122 150.064,223.989 L153.909,223.415 Q155.898,222.929 156.075,222.487 156.385,221.691 155.501,212.188 154.528,201.713 153.158,195.083 151.832,188.718 148.119,176.607 144.893,165.955 144.009,163.966 M101.709,104.959 L101.4,104.517 Q98.129,107.036 95.079,110.616 89.466,116.981 85.488,125.865 81.687,134.44 79.211,144.518 77.753,150.573 77.046,155.921 L77.001,156.319 Q76.736,157.645 77.001,158.264 77.62,159.988 78.902,161.667 81.024,164.408 83.72,164.85 L89.377,164.629 Q90.04,161.933 91.278,158.529 93.576,152.253 96.759,146.993 L97.422,145.932 97.333,144.474 Q96.715,138.286 95.919,134.308 L93.444,122.108 94.107,121.976 97.024,131.258 Q98.041,134.838 98.88,142.308 L99.101,144.164 Q100.781,145.048 102.814,145.402 L102.77,144.297 Q102.682,141.556 102.726,137.402 102.77,130.506 103.345,125.91 103.963,121.224 105.378,115.213 106.483,110.44 107.057,108.893 107.323,108.009 106.792,107.788 L106.439,107.655 106.306,107.567 Q102.903,106.373 101.709,104.959 M104.14,102.97 L103.035,104.075 Q103.963,105.047 106.836,106.108 L106.881,106.152 107.455,106.329 Q108.251,106.683 108.56,107.567 108.87,108.451 108.516,109.423 L106.969,115.346 Q105.51,121.401 104.936,126.086 104.361,130.727 104.273,137.446 L104.361,144.341 Q104.45,146.153 103.919,146.639 103.477,147.081 102.593,146.949 101.356,146.816 99.322,145.976 100.162,154.374 99.897,162.33 L106.836,164.319 Q115.544,166.132 120.671,166.353 L121.467,166.353 133.047,165.292 Q139.81,164.275 143.567,162.64 143.036,154.242 143.39,146.993 L134.019,148.142 Q126.108,148.628 123.677,148.407 122.925,148.363 122.262,147.7 121.643,147.081 121.555,146.374 121.29,143.545 121.334,136.076 121.422,128.473 121.776,124.76 122.483,117.777 123.809,111.898 124.119,110.395 124.87,109.688 125.666,108.937 127.08,108.76 128.804,108.583 131.721,107.434 135.611,105.887 137.732,103.721 134.727,101.821 131.588,100.362 130.483,103.589 127.301,106.064 124.34,108.362 120.627,109.246 111.875,111.279 108.604,105.003 106.35,104.252 104.14,102.97 M135.787,58.637 Q134.727,55.897 132.251,56.25 129.467,56.737 128.406,57.179 L126.196,57.709 Q124.87,57.797 124.03,56.869 122.218,54.836 120.052,54.217 117.975,53.687 116.339,54.615 114.704,55.543 113.643,55.764 L110.903,55.587 109.356,54.836 106.969,54.748 Q106.306,55.145 104.317,57.753 L102.151,60.494 Q100.472,62.041 98.704,62.35 95.344,68.229 94.328,73.798 92.958,81.268 95.389,88.605 97.864,96.119 103.477,100.671 L103.521,100.627 103.787,100.892 Q106.262,102.793 108.737,103.81 113.466,105.799 117.223,105.666 L120.008,105.445 Q120.141,105.799 117.931,106.506 L115.058,107.08 Q117.886,108.893 123.544,106.108 129.334,103.235 129.732,99.124 127.566,100.671 125.71,100.848 123.898,101.025 125.4,100.053 131.191,96.163 134.992,89.003 139.014,89.445 140.738,85.732 142.506,81.931 139.147,79.5 138.66,78.792 139.279,78.439 139.589,78.262 139.986,78.218 L140.075,78.085 140.252,78.041 Q137.688,74.284 136.097,72.693 135.169,71.809 133.887,71.102 133.224,70.704 133.312,70.129 133.356,69.599 133.887,69.776 135.124,70.173 136.848,71.853 139.014,73.886 140.694,77.422 L140.87,76.406 Q138.705,72.074 136.583,70.129 L133.135,67.168 Q132.649,66.903 132.914,66.505 133.135,66.107 133.754,66.328 134.638,66.637 137.334,69.378 139.589,71.941 140.959,75.124 140.959,70.969 137.423,67.698 136.008,66.416 133.18,64.781 132.605,64.472 132.87,64.03 L133.224,63.632 Q136.892,61.51 135.787,58.637 M133.798,74.372 Q133.18,73.975 133.401,73.533 133.622,73.046 134.019,73.223 135.39,73.842 136.229,74.726 L137.379,76.229 Q137.865,77.069 137.821,77.422 137.732,77.864 136.937,77.024 L135.522,75.477 133.798,74.372 M133.754,77.599 Q133.312,77.378 133.577,76.892 133.798,76.45 134.285,76.671 L135.345,77.511 Q135.92,78.085 136.053,78.837 136.097,79.5 135.611,79.544 135.08,79.544 134.992,79.058 134.948,78.66 134.373,78.085 L133.754,77.599 M104.096,63.455 Q104.184,63.897 103.919,64.251 103.654,64.56 103.212,64.604 L99.676,64.781 99.146,64.648 99.499,64.251 102.814,62.085 103.521,61.996 Q103.875,62.129 103.963,62.571 L104.096,63.455 M101.311,69.201 Q102.019,69.201 102.461,70.085 102.903,70.969 102.903,72.207 102.858,73.488 102.372,74.328 101.886,75.212 101.223,75.168 100.56,75.168 100.118,74.284 99.632,73.4 99.676,72.162 99.676,70.925 100.162,70.041 100.648,69.157 101.311,69.201 M104.936,79.588 Q104.715,79.279 104.759,78.881 104.759,78.439 104.98,78.174 L108.383,73.488 110.107,69.908 Q110.505,69.068 110.947,69.157 L111.212,69.466 111.168,70.085 Q110.505,72.428 109.444,74.593 L107.632,78.129 Q107.234,78.925 107.765,79.632 L109.4,81.798 Q109.621,82.107 109.533,82.373 L109.091,82.726 108.339,82.947 Q107.499,83.08 106.969,82.461 L104.936,79.588 M123.102,62.792 Q125.003,64.825 124.693,65.93 124.428,65.974 123.411,65.356 L121.467,64.295 118.947,63.278 Q118.77,63.013 119.389,62.129 L120.008,61.245 Q120.406,60.494 121.157,60.936 L123.102,62.792 M120.008,68.847 Q120.671,68.847 121.113,69.731 121.599,70.615 121.555,71.853 121.555,73.091 121.069,73.975 120.583,74.859 119.92,74.859 119.212,74.814 118.77,73.93 118.328,73.091 118.328,71.809 118.373,70.571 118.859,69.687 119.345,68.803 120.008,68.847 M118.152,81.975 L118.594,82.063 123.058,85.157 123.544,85.732 123.677,86.439 122.925,90.461 122.66,90.903 122.262,90.638 122.218,88.605 Q121.688,87.898 120.892,88.207 L117.002,90.859 Q112.582,93.467 109.886,93.467 107.146,93.511 103.787,91.92 L100.958,90.329 100.383,90.417 Q100.118,90.638 100.162,90.992 L100.162,91.389 Q100.162,92.229 99.72,91.566 L97.775,88.649 97.599,87.942 97.864,87.235 99.455,85.201 Q99.676,84.936 99.853,84.98 L99.941,85.422 99.941,86.041 100.162,86.704 Q100.427,86.969 100.781,87.014 L103.742,87.5 108.914,87.721 Q111.919,87.367 117.931,85.025 L118.594,84.538 Q118.903,84.141 118.726,83.831 L118.196,82.417 Q118.019,82.107 118.152,81.975 M110.638,94.572 L111.389,94.704 111.787,95.235 Q111.875,95.588 111.61,95.898 L110.991,96.34 108.339,96.384 106.836,95.633 106.483,95.323 Q106.527,95.146 106.925,95.102 L109.842,94.749 110.638,94.572 M120.759,87.058 Q121.113,86.527 120.538,86.085 119.964,85.643 119.301,85.688 L118.328,85.909 Q112.848,88.251 109.356,88.561 L103.742,88.34 100.737,87.853 Q99.632,87.853 99.853,88.605 100.118,89.445 100.737,89.577 L106.218,91.389 109.754,91.61 113.422,91.036 Q115.234,90.373 120.052,87.721 L120.759,87.058 M136.318,50.239 Q136.053,50.151 133.622,47.057 131.456,44.316 128.848,44.007 127.257,43.83 124.914,43.035 124.251,42.814 123.544,42.283 L122.351,41.399 Q120.273,39.985 118.903,40.162 117.886,40.338 115.588,43.963 L114.085,46.129 Q113.334,46.924 111.522,46.35 109.267,45.687 107.986,45.996 106.969,46.261 105.113,48.162 L102.593,50.991 Q101.267,52.582 99.367,52.847 L98.969,52.891 Q97.643,52.98 96.494,52.317 L96.007,51.963 Q94.858,51.079 95.035,49.444 93.93,50.549 93.355,52.051 92.692,53.996 93.311,56.427 93.974,58.991 95.61,60.494 96.715,61.51 98.35,61.201 99.809,60.891 101.179,59.654 L103.3,57.002 Q105.334,54.394 106.173,53.908 107.588,53.068 108.604,53.245 109.046,53.289 110.549,53.996 L111.743,54.615 113.334,54.394 118.417,51.167 Q120.052,50.416 122.925,53.333 L126.329,56.648 Q126.992,56.781 129.069,55.808 131.456,54.703 132.34,54.571 135.169,54.173 136.76,55.897 137.953,57.134 138.263,59.079 138.484,60.317 137.158,62.041 136.185,63.322 134.771,64.383 L138.263,67.124 Q141.003,69.776 141.799,73.444 142.638,71.057 143.125,67.875 144.097,61.554 142.329,57.709 141.357,55.543 139.942,53.598 138.042,50.946 136.318,50.239 M175.567,169.668 Q175.523,168.563 173.357,165.911 L173.092,165.601 171.236,163.789 Q169.954,166.176 168.142,167.811 165.888,169.8 163.191,170.242 159.788,170.728 157.534,170.154 156.561,172.01 156.694,173.159 156.915,175.193 157.711,175.944 158.241,176.43 159.788,176.872 L159.876,176.872 160.274,176.828 160.628,176.607 Q161.247,175.458 161.07,174.353 160.628,173.248 160.893,172.85 L161.291,172.717 Q161.91,172.806 162.263,174.043 162.838,176.165 162.396,177.049 162.175,177.624 162.175,178.596 162.175,179.568 162.484,180.32 162.794,181.071 163.28,181.336 L164.031,180.894 165.843,179.038 Q166.816,177.624 166.948,176.298 L166.948,176.209 Q167.169,175.767 167.479,175.767 L167.921,175.9 168.098,176.077 168.142,176.077 168.142,176.121 Q168.407,176.916 167.877,178.287 L167.7,179.038 Q168.893,178.552 169.91,177.535 171.103,176.298 171.545,175.148 L171.943,172.938 171.987,172.938 Q172.031,172.452 172.385,172.364 172.739,172.32 173.136,172.938 L173.181,172.983 173.181,173.027 173.225,173.204 173.446,174.972 Q174.241,174.176 174.86,172.938 175.7,171.259 175.567,169.668 M169.866,159.413 Q169.247,154.33 167.7,148.01 165.269,137.976 161.423,129.401 157.49,120.65 151.876,114.108 147.589,109.246 143.788,106.771 L143.699,106.727 143.257,106.417 Q141.799,105.401 139.235,104.428 136.848,107.08 132.296,108.893 129.157,110.13 127.213,110.351 126.373,110.44 125.975,110.837 125.577,111.235 125.356,112.208 123.986,118.175 123.367,124.893 123.014,128.517 122.925,136.076 122.881,143.413 123.102,146.242 L123.367,146.595 123.809,146.816 Q126.638,147.126 133.887,146.551 L143.522,145.358 143.567,144.871 138.439,138.02 138.881,137.534 142.506,140.717 Q146.793,144.916 150.152,150.485 153.379,155.745 155.633,162.021 L157.534,168.121 163.191,168.342 Q165.888,167.9 168.009,165.159 169.203,163.612 169.954,161.756 170.131,161.181 169.954,159.811 L169.866,159.413Z" vector-effect="non-scaling-stroke" stroke-width="1"/></g><path fill="#FFF" stroke="none" d="M63.45,120.45 L62.8,120 59.4,123.15 59.05,123.1 59.15,123.1 55.9,122.5 49.55,122.2 41.55,122.45 34.05,122.15 34.05,122.1 34,122.15 34,122.3 34.05,122.25 34.15,124.4 34.2,124.55 Q34.45,126.5 35.3,127.4 36.45,128.65 38.25,129.15 L40.95,129.3 41.45,129.25 41.6,129.25 42.8,129.4 43.3,129.7 Q43.85,130.05 43.9,130.45 43.95,131.15 43.25,132.25 L42.45,133.05 29.85,139.6 29.95,139.5 28.3,140.45 26.85,141.6 26.2,142.35 25.85,143.35 25.9,143.85 25.95,143.95 26,144.3 26.4,145 26.45,145.05 26.75,145.4 27.3,145.85 28.2,146.15 28.5,146.2 29.25,146.2 32.35,145.45 42.3,141.25 Q42.8,141.3 42.6,141.4 L34.3,148.45 Q31.9,150.35 31.1,151.9 30.4,153.05 30.55,154.2 L30.55,154.55 Q31.45,156.5 33.05,156.75 L33.25,156.8 33.8,156.8 35.35,156.25 Q37,155.4 40.4,152.15 L46.85,146.45 42.7,153 Q40.65,155.95 39.95,157.9 39.55,158.8 39.45,159.7 L39.4,160.35 Q39.55,162.35 41.65,162.85 43.7,163.35 44.85,161.8 L48.75,156.3 Q49.8,155.25 52.3,150.75 53,149.45 53,149.65 L50.2,158.8 Q49.5,160.4 50.3,162.15 51.15,164.05 53.05,163.7 L54.2,163.05 54.25,163.05 Q56.3,161.65 58.2,155.35 L59.7,149.3 62.3,147.5 Q65.15,145.1 66.45,142.35 L68.15,139.5 69.3,136.85 69.9,134 Q70.55,131.9 72.05,131.05 71,124.75 63.9,120.65 L63.45,120.45 M61.6,123.2 L62.35,122.5 62.3,122.5 62.75,122.05 64.1,122.8 Q65.7,123.8 66.9,125.15 68.8,127.25 70.15,130.3 L68.25,132.05 67.55,136.15 Q65.9,140.5 61.9,145.35 L58.65,147.75 54.65,159.9 53.65,161.65 Q53,162.35 52.35,161.95 51.7,161.65 51.6,160.8 L51.6,160.55 51.65,160.15 Q51.65,159.9 51.8,159.8 L52,158.55 55.05,148.55 Q55.5,147.8 55.4,147.3 L55.5,146.95 55.1,146.75 Q54.7,146.35 54,146.25 L53.55,146.05 53.25,146.05 44.75,159.15 Q43.65,160.75 42.45,161.15 40.7,161.05 41.1,159.15 41.4,157.75 42.5,156.3 L49.45,145.7 49.35,145.6 50,144.65 48.15,143.15 46.5,144.65 Q45.3,145.2 43.35,147 L37.15,153 Q33.9,155.35 32.35,153.05 34.05,150.8 37.45,148.05 L45.6,141.15 45.7,140.8 45.9,140.7 45.7,140.5 Q45.55,139.35 44.3,138.9 L44.15,138.8 44.05,138.85 43.6,138.8 30.95,144 28.25,143.9 Q27.4,142.65 29.4,141.75 31.7,140.5 35.25,138.75 L41.2,135.8 Q42.45,135.35 43.95,134.2 L46.45,132.3 Q47,132.35 48.65,133.8 50.45,135.4 51.55,135.7 52.95,136.15 52.9,134.8 52.8,133.45 51.8,133.4 50.7,132.8 49.15,131.4 L45.65,128.95 Q43.3,127.45 41.55,127.35 38,126.7 37.1,125.75 36.65,125.3 36.6,124.15 L44.95,124 Q51.05,123.8 52.45,123.9 L56.15,124 Q57.75,124.05 58.4,124.9 59.25,125.05 61,123.6 L61.6,123.2 M46.6,136.65 Q46.3,136.25 45.75,136.4 45.45,136.5 45.3,136.95 L45.2,137.35 47.4,140.2 Q50.45,143.35 55.2,145.25 56.1,145.15 56.2,144.7 L56,144.15 55.8,143.85 Q51.35,142.05 48.55,139.2 L46.6,136.65 M69.85,114.45 Q70.6,113.35 69.5,112.75 60.2,107.25 48.15,107.9 36.7,108.45 27,114.2 25.9,114.85 26.45,116.05 27.05,117.25 28.15,116.6 37.2,111.2 47.9,110.55 59.3,109.8 68,114.9 69.1,115.55 69.85,114.45 M69.5,107.05 Q65.85,105.15 61.05,104.1 L52.15,102.85 43.15,102.55 Q38,102.75 34.4,104.25 33.2,104.7 33.75,105.95 34.35,107.15 35.5,106.65 38.6,105.4 43.05,105.2 L50.75,105.4 59.6,106.45 Q64.45,107.4 68,109.2 69.1,109.85 69.85,108.7 70.6,107.6 69.5,107.05 M38.05,84.55 Q36.9,87.45 37.45,91.15 37.7,93 38.25,94.4 38.45,95.05 39.1,95.2 39.8,95.35 40.3,94.95 40.5,94.75 41.05,94.5 41.95,94.05 42.95,93.9 43.05,94.8 44.2,95.4 45.35,96.05 47,96.05 L48.55,95.85 Q51.75,97.75 55.45,97.95 L56.2,97.95 Q60.05,97.75 63.3,95.7 L65.35,96.05 Q66.9,96.05 68.05,95.45 69.2,94.9 69.4,94.05 70.55,94.3 71.3,94.95 71.8,95.35 72.5,95.2 73.15,95.05 73.4,94.4 L74.15,91.15 Q74.7,87.45 73.55,84.55 72.3,81.35 68.8,80.25 L65.3,79.75 Q65.05,79.75 64.85,79.9 63.2,73.7 63.2,69.65 63.2,64.9 63.6,59.1 L63.95,54.2 61.35,53.95 Q61.25,54.15 60.95,58.95 60.55,64.75 60.55,69.65 60.55,74.55 62.5,81.5 63.45,85 64.6,87.75 65,88.8 66.15,88.55 L66.9,88.1 Q67.2,87.7 67.15,87.2 L66.8,82.5 Q70.1,83.05 71.1,85.5 72.15,88.3 71.35,91.9 68.9,90.8 66.15,91.4 L65.75,91.5 65.35,91.5 Q63.7,91.5 62.5,92.15 61.3,92.8 61.3,93.8 L61.35,93.8 Q58.85,95.25 55.8,95.3 53.15,95.25 51,94.2 L51.05,93.8 Q51.05,92.8 49.85,92.15 48.65,91.5 47,91.5 L46,91.55 45.5,91.4 Q42.7,90.8 40.25,91.9 39.45,88.3 40.55,85.5 41.5,83.05 44.8,82.5 L44.45,87.2 Q44.4,87.7 44.75,88.1 45.05,88.45 45.5,88.55 46.6,88.8 47,87.75 L49.1,81.5 Q51.05,74.55 51.05,69.65 51.05,64.85 50.7,58.95 L50.3,53.95 47.65,54.2 48.05,59.1 Q48.4,64.9 48.4,69.65 48.4,73.7 46.75,79.9 L46.3,79.75 Q44.65,79.7 42.8,80.25 39.3,81.35 38.05,84.55 M85.35,46.25 Q85.85,47.2 86.85,46.5 87.85,45.8 87.4,44.85 83.35,36.65 74.65,33 66.4,29.5 57.05,31.2 56.05,31.45 55.85,32.7 55.75,33.95 56.8,33.75 65.55,32.1 73.35,35.25 81.65,38.6 85.35,46.25 M89.95,39.8 Q88.3,36.85 85.4,34.2 83.25,32.25 79.75,29.95 76.15,27.65 73.6,26.55 69.95,24.9 66.7,24.95 65.7,25 65.55,26.2 65.4,27.5 66.45,27.45 69.2,27.4 72.3,28.85 74.15,29.6 77.6,31.7 85.15,36.3 87.9,41.15 88.4,42.1 89.45,41.4 90.5,40.7 89.95,39.8 M139.85,21.5 L140.3,20.5 139.85,19.6 Q136.6,13.55 130.8,10.1 125,6.6 118.2,6.6 111.45,6.6 105.65,10.1 99.85,13.55 96.65,19.6 L96.15,20.5 96.65,21.5 Q99.85,27.45 105.65,30.95 111.45,34.4 118.2,34.4 125,34.4 130.8,30.95 136.6,27.45 139.85,21.5 M124.3,15.3 Q125.5,16.5 125.5,18.2 125.5,19.95 124.3,21.2 123.05,22.35 121.35,22.35 119.65,22.35 118.45,21.2 117.25,19.95 117.25,18.2 117.25,16.5 118.45,15.3 119.65,14.05 121.35,14.05 123.05,14.05 124.3,15.3 M128.45,20.5 Q128.45,17.3 126.6,14.7 124.8,12.1 121.9,11 126.15,11.8 129.75,14.3 133.35,16.75 135.65,20.5 133.35,24.25 129.75,26.75 126.15,29.25 121.9,30 124.8,28.85 126.6,26.35 128.45,23.75 128.45,20.5 M114.6,11 Q111.65,12.1 109.85,14.7 108,17.3 108,20.5 108,23.75 109.85,26.35 111.65,28.85 114.6,30 110.3,29.25 106.7,26.75 103.1,24.25 100.85,20.5 103.1,16.75 106.7,14.3 110.3,11.8 114.6,11 M195.3,103 Q195.65,101.75 194.4,101.5 190.5,100.8 185.4,101.65 181.8,102.25 176.7,103.8 171.6,105.35 168.25,106.85 163.7,108.85 160.55,111.45 159.6,112.25 160.5,113.2 L162.45,113.3 Q167.7,109 178.55,106.05 183.45,104.65 186.1,104.2 190.45,103.5 193.75,104.1 194.95,104.3 195.3,103 M203,112.35 Q204.2,112.8 204.5,111.5 204.85,110.25 203.65,109.8 193,106.15 181.65,107.9 169.7,109.75 161.7,117.05 160.75,117.9 161.7,118.8 L163.6,118.85 Q171.05,112.05 182.4,110.45 193,108.9 203,112.35 M213.8,120.35 Q212,118.35 210.2,117.3 207.3,115.55 203.15,115.9 200.4,116.15 197.6,117.2 194.8,116.15 192.05,115.9 187.85,115.55 184.95,117.3 183.2,118.35 181.4,120.35 L176.2,126.75 Q174.95,128.1 174.1,128.2 173.45,128.35 173.2,129 172.95,129.65 173.45,130.2 177.8,135.45 178.85,137.8 180.15,140.7 183.45,142.8 186.1,148.55 189.6,151.5 193.1,154.5 197.15,154.5 L198,154.5 Q202.1,154.5 205.55,151.5 209.05,148.55 211.7,142.8 215.1,140.7 216.3,137.8 216.95,136.4 218.95,133.75 L221.75,130.2 Q222.2,129.65 222,129 221.65,128.35 221.05,128.2 219.75,128 216.7,123.95 L213.8,120.35 M216.35,129.35 L213.65,130.9 Q213.25,129.75 212.5,128.65 210.95,126.55 208.6,125.25 206.45,124.1 204.55,124.1 201.7,124.1 197.6,125.9 193.55,124.1 190.6,124.1 188.75,124.1 186.6,125.25 184.2,126.55 182.7,128.65 181.95,129.7 181.5,130.9 L178.85,129.35 Q182.95,126.3 186.15,124.55 188.2,123.4 192.15,123.05 194.75,122.85 197.55,122.95 200.35,122.85 203,123.05 206.95,123.4 209.05,124.55 212.4,126.45 216.35,129.35 M207.55,127.45 Q209.4,128.5 210.5,130.1 211.8,131.85 211.85,134 211.95,135.5 211.35,137.05 L209.5,141.6 209.4,142.1 Q204.55,152.1 198,152.1 L197.15,152.1 Q190.6,152.1 185.75,142.1 L185.65,141.6 Q184.6,139.3 183.8,137.05 183.3,135.55 183.3,133.95 183.4,131.85 184.65,130.1 185.8,128.5 187.6,127.45 189.25,126.5 190.6,126.5 192.85,126.5 196,127.85 L196.45,130.9 Q196.8,133.65 197.15,133.65 L198,133.65 Q198.35,133.65 198.75,130.9 L199.15,127.85 Q202.3,126.5 204.55,126.5 205.95,126.5 207.55,127.45 M188.6,68.2 Q187.4,63.2 185.3,60.4 183.15,57.65 180.5,57.65 178.1,57.65 175,59.65 172.15,61.45 171.45,62.9 170.8,64.2 170.9,66 171.05,67.85 171.9,69.5 L172,69.75 Q173,71.55 172.85,72.1 L172.65,72.2 Q170.55,72.9 169.8,74.25 169,75.6 169,78.45 169,81.75 169.55,84.25 170.4,88.35 172.35,88.35 173.4,88.35 174.55,87.15 L179.65,80.75 Q181.35,79 182.65,76.85 184.35,73.85 184.35,71.4 184.35,69.45 183.35,67.4 182.25,65.15 180.5,64.15 L178.3,64.2 176,65.55 Q178,67.05 178.4,66.7 178.9,66.3 179.2,66.45 180.2,67.05 181,68.6 181.7,70.1 181.7,71.4 181.7,73.05 180.45,75.3 179.3,77.35 177.75,78.85 176.9,79.7 174.45,80 171.65,80.35 171.65,78.45 171.65,76.25 172.1,75.55 172.4,75.1 173.5,74.7 174.8,74.3 175.35,73.15 175.5,72.75 174.8,69.45 174.15,66.3 175.05,64.25 175.45,63.45 176.9,62.5 178.6,61.45 180.3,61.45 182,61.45 183.5,63.2 185.15,65.15 186.05,68.8 186.65,71.5 184.2,76.5 182.45,80.05 180.15,83.1 L179.7,83.8 Q179.35,84.6 180.05,85 181.2,85.7 182.3,84.65 184.6,81.6 186.3,78.3 189.55,72.05 188.6,68.2 M195.1,71.25 Q195.3,66.6 193.5,61.55 190.65,53.45 183.65,51.2 177.75,49.3 174.05,52.55 172.2,54.2 170.05,58.65 L169.4,59.95 Q167.75,63 164.65,66.7 L161.75,68.7 162.8,68.8 164.75,68.45 Q166.05,67.85 168,65.95 170.45,63.65 171.75,61.2 L172.4,59.8 Q174.1,56.35 175.55,55.3 178.05,53.55 182.6,55.05 188.4,56.9 190.45,63.75 191.6,67.6 191.45,72.05 191.35,73.85 189.15,77.2 L181.9,87 Q180,90 177.7,91.9 175.1,93.95 173.05,93.65 169.9,93.15 168.55,89.65 L167.15,84.2 Q166.55,82.5 164.75,81.2 L163.1,80.25 165.9,90.15 Q168.2,95.65 172.65,96.25 175.75,96.7 179.05,94.2 181.85,92.05 184.15,88.45 L192.25,77.7 Q194.95,73.55 195.1,71.25 M163.65,27.45 Q164.7,27.5 164.6,26.2 164.4,25 163.4,24.95 160.15,24.9 156.5,26.55 153.95,27.65 150.35,29.95 146.9,32.2 144.75,34.2 141.8,36.8 140.15,39.8 139.65,40.7 140.65,41.4 141.7,42.1 142.15,41.15 143.8,38.35 146.8,35.75 149,33.85 152.5,31.7 155.95,29.6 157.8,28.85 160.95,27.4 163.65,27.45 M173.3,33.75 Q174.35,33.95 174.25,32.7 174.1,31.45 173.05,31.2 163.7,29.5 155.45,33 146.75,36.65 142.7,44.85 142.25,45.8 143.3,46.5 144.25,47.2 144.75,46.25 148.5,38.6 156.75,35.25 164.55,32.1 173.3,33.75Z"/></g></svg>