<?xml version="1.0" encoding="utf-8"?>
<!-- Generator: Adobe Illustrator 25.4.1, SVG Export Plug-In . SVG Version: 6.00 Build 0)  -->
<svg version="1.1" id="ActionBoy_x2C_PerkClip_x5F_4d869" image-rendering="auto"
	 xmlns="http://www.w3.org/2000/svg" xmlns:xlink="http://www.w3.org/1999/xlink" x="0px" y="0px" viewBox="0 0 240 240"
	 style="enable-background:new 0 0 240 240;" xml:space="preserve">
<style type="text/css">
	.st0{fill:#FFFFFF;}
</style>
<g>
	<rect width="240" height="240"/>
	<path class="st0" d="M83.1,192.8c-5.4,0-10.9-2.4-16.4-7.1c-1.8,9.1-3.5,17-5,23.5l-0.6,0.7c-4.8,2.3-8.8,4.3-11.9,6.1
		c-3.5,2.1-5.4,3.5-5.6,4.4c0.4,0.9,2.7,1.7,6.9,2.5l8.5,0.7c2.3-0.4,4.4-1.1,6.1-2.3l2.2-1.4l6.2-1.2c1.1-0.4,1.6-0.8,1.6-1.3
		l-0.4-9.2l0.1-0.6l2.2-3.5C78.7,201.1,80.8,197.3,83.1,192.8 M134.4,188.8c-2.5,0.4-5.1,0.4-7.6-0.1c0.7,1.2,1.2,2.8,1.6,4.9
		c0.4,1.7,0.7,3,1,3.9c0.6,1.7,1.6,3.5,2.9,5.5l5.3,7.2c0.9,1.2,1.3,2.5,1.3,4.1c0,2.6,0.1,4.3,0.4,5.1c0.6,1.8,1.9,3.2,4.1,4.1
		l4.9,2.5c2.5,1.4,4.4,2.3,5.6,2.8c2.1,0.8,4,1.2,5.9,1.1c2.2-0.1,3.5-0.5,3.8-1c0.2-0.3,0.2-0.7,0.1-1.4l-0.8-3
		c-0.3-1.2-2.1-3.1-5.3-5.8c-2.6-2.1-5.4-4.2-8.4-6.1c-0.3-0.2-0.4-0.4-0.4-0.6l-5.4-27.6C141.2,186.7,138.2,188.2,134.4,188.8
		 M105.1,130.8c3,0,6.1-0.3,9.4-1.1l-2-6.6l-15.2-0.5l-1.1,7.9L105.1,130.8 M133.4,137.4l0.8-0.8l0.1-0.5c-4.8,2-8.5,4.2-11.1,6.5
		c-5.5,5-9.3,11.9-11.2,20.9l5.9,9.9c3.8,6.2,6.4,10.6,7.8,13.2l0-0.2l2,0.4l4.7,0.2c4.8-0.4,8.6-2.8,11.1-7.1
		c-0.2-6.2-1-12.4-2.2-18.4c-1.3,0.2-2.2-0.4-2.8-1.6l-0.6-1.7c-1.1,0.5-2.2,0.8-3.1,0.8c-1.4,0-2.2-1.1-2.6-3.1
		c-0.3-1.6-0.2-3.1,0.2-4.4l0.8-2.4c-0.2-0.1-0.4-0.2-0.5-0.3c-0.3-0.2-0.5-0.6-0.6-1.2c-0.2-0.6-0.2-1-0.1-1.3
		c0.3-0.7,0.4-2.2,0.3-4.6C132.3,139.8,132.6,138.3,133.4,137.4 M141.6,141.4c-0.2,0-0.4-0.2-0.6-0.5l-1.9-1.9
		c-0.9-0.6-1.7-0.8-2.4-0.4c-1.4,0.6-2.3,1.4-2.7,2.3c-0.3,0.7-0.4,1.7-0.4,2.8v2.9l1.2-0.4l1.3-2.2l0.2-1.5
		c0.2-0.7,0.4-1.1,0.8-1.2c0.2-0.1,0.3,0.1,0.4,0.4c0.6,1,0.8,1.9,0.6,2.9c-0.1,0.6-0.6,1.6-1.3,2.8l-1.9,3.2
		c-0.7,1.3-1.1,2.4-1.4,3.4c-0.4,2,0.3,2.7,2.2,2l1.9-0.6c0.5,0,0.8,0.5,1.1,1.4l0.4,1.6c0.2,0.4,0.8,0.5,1.6,0.3
		c1.8-0.4,2.9-1.3,3.4-2.6c0.1-0.4,0.4-0.3,0.7,0.4l0.4,1.4l1.5-0.1l1.9-0.5c1.7-1,3-2.2,3.8-3.4c1.2-1.8,1.8-3.7,1.9-5.7
		c-1.5-2.3-3.2-4.1-5.4-5.3C146.5,141.4,144.1,140.9,141.6,141.4 M134.4,133.9l0.3-2.4l-8.8,2.2c-7.2,1.7-13.3,2.6-18.5,2.8
		l-14.7-0.6l-7.5-1.3c1.3,7.5,4.3,14.3,9.1,20.4c2.6,3.4,5.4,6.1,8.3,8.2h6.4c1.1-9.8,5.4-17.4,13-23.1
		C124.6,138,128.8,136,134.4,133.9 M144.4,123.1c0.8-1.9,1.8-3.3,2.9-4.1l-6.1-6.1c-1.6,5.9-2.7,11.6-3.4,16.9l-0.5,5.8
		c1,0.3,2.1,1.2,3.4,2.5c0.9-5,1.6-8.4,2.1-10.3L144.4,123.1 M78.1,151l-7.2,20.2c-1.7,4.7-2.9,8.5-3.5,11.6
		c2.4,2.2,4.2,3.8,5.6,4.6c3.7,2.4,7.4,3.5,11.2,3.3c3.2-6.2,6.5-11.5,9.9-16.1l6.8-8.4c-3.3-2.5-6.6-5.7-9.8-9.8
		c-5-6.3-8.3-12.9-10-19.8C80.9,140.8,79.8,145.6,78.1,151 M74.2,138.8c0.9,1.8,1.8,3.3,2.7,4.5l1.7-11.2l-0.6-1.8
		c-1.1,0.2-1.9,0.7-2.5,1.4C74.2,133.2,73.8,135.6,74.2,138.8 M95.8,91.3c-1.6,1.4-3.2,3-4.7,4.8c-2.4,2.9-4.1,5.8-5.2,8.8
		c-1.1,3-1.8,7.4-2,13c-0.1,3.4,0,7,0.2,10.6c1,0.5,2.1,0.9,3.2,1.1l4.9,0.6l0.2-1.4c0.4-4.1,0.8-7.1,1.2-8.9l0.3-1.7l21.5,0.6
		l2.5,9.6l12.8-2.8c-1-6.2-3.1-12.9-6.1-20.1c-1.8-4.2-3.8-8.2-5.8-11.8L95.8,91.3 M108.2,96.6l0.4,0.9c0.6,1.2,1.7,4.2,3.2,9.1
		l0.7,2.3l-13.9,1l-1.9-0.1v-1.9c0-3.3,0.6-6.2,1.9-8.7l2.1-2.8l0.7-0.6L108.2,96.6 M105.6,100.2l-2.7-0.3c-1.1,1.6-1.8,3.5-2.1,5.9
		l6.5-0.4L105.6,100.2 M89.2,92.2l4.8-4.6l-9.7-3.8c-2.1-0.6-4.2-0.2-6.5,1.1c-1.1,0.7-2.1,1.5-2.8,2.3c-6.8,4.8-11.8,8.9-15,12.4
		c-4.7,5.1-6.9,9.8-6.5,14.1c0.4,3.6,3,8,7.9,13.3c3.1,3.3,6.6,6.6,10.8,9.9c-0.1-2.8,0.5-5,1.8-6.6c0.9-1,2-1.6,3.2-1.9
		c-0.9-2-2.4-4.8-4.5-8.5l-4.6-8.3c-0.1-0.2-0.2-0.5-0.1-0.7l0.4-0.6c0.5-0.3,0.9-0.3,1.3,0.1l3.2,3.7c3.4-2.6,5.1-4,5.2-4l-0.2-5.9
		c-0.3-3.8-0.3-5.7-0.2-5.7l0.7,1.2l0.5,1.2l1.5,11.3c0.4-3.6,1-6.5,1.8-8.6C83.6,99.6,85.9,95.8,89.2,92.2 M96.1,79.6
		c-2.2-2.5-3.7-3.7-4.7-3.6c-0.7,0.1-1.1,0.3-1.2,0.6c-0.1,0.3-0.1,0.6,0.1,1.1c0.1,0.4,0.2,0.8,0.4,1.1c0.3,0.6,0.2,1-0.3,1.3
		l-0.8,0.2l-0.6-0.4c-0.6-0.8-1.5-1.5-2.7-2c-2.3-1.1-4.9-1.1-7.7,0.1c-2.2,0.9-3.7,2.2-4.2,3.8c-0.5,1.3-0.5,2.6,0.1,3.8v0.1
		c1.8-2,3-3.3,3.8-3.9c2.2-1.6,4.3-2,6.5-1.3c0.6,0.2,1.5,0.8,2.8,1.8l3.1,1.9c4.9,2,8.7,3.3,11.3,3.9l8.7,0.9
		c5.4,0,9.6-0.8,12.7-2.4l5.4-3.2c1.8-1.1,3.1-1.9,4-2.3c1.4-0.7,2.6-1.2,3.9-1.5l-0.1-0.5c-1.3-1.2-2.6-1.8-3.8-1.8
		c-0.7,0-1.4,0.4-2.1,1c-0.6,0.5-0.9,0.8-0.9,1l-3.9,4c-2.9,2.6-5.4,4-7.5,4.2l-0.9-0.6c-0.3-0.5,0.1-0.8,1.4-1.1
		c1.3-0.3,3-1.4,5-3.2l4.1-4.2c-0.6-1-2.2-1.8-4.7-2.2c-0.8,2.6-2.4,4.8-4.9,6.6c-2.3,1.6-5,2.6-8.1,2.9c-3.1,0.4-5.8,0.1-8.3-0.8
		C99.1,83.5,97.2,81.9,96.1,79.6 M113.6,61.2c0.3-0.3,0.3-0.7,0-1.1c-0.5-0.6-1.3-0.9-2.4-0.8l-10.5,0.5C99,59.6,97,59,94.5,58.1
		l-3.2-1.4c-0.8-0.2-1.2,0-1.2,0.6c0,0.7,0.2,1.1,0.7,1.2l5.6,3.5c0.9,0.5,2.1,0.9,3.8,1.2l4.2,0.3l8.2-1.9
		C113,61.7,113.3,61.5,113.6,61.2 M114.9,46.3c-0.2-0.7-0.1-1.6,0.1-2.4c0.4-1.4,1-2.4,1.8-2.8c-1,0-2,0.3-3,1.1
		c-1,0.8-1.8,1.9-2.4,3.2c-0.7,1.6-0.9,3.1-0.6,4.7c0.3,1.5,1.1,2.5,2.2,2.9c1.2,0.5,2.4,0.3,3.7-0.4c1.3-0.8,2.3-2,2.9-3.6
		c0.7-1.6,0.9-3.1,0.6-4.6c-0.3-1.5-1-2.5-2.1-3c0.6,0.8,0.7,1.9,0.3,3.3c-0.2,0.9-0.6,1.7-1.2,2.2c-0.5,0.6-1,0.8-1.5,0.7
		C115.4,47.5,115.1,47,114.9,46.3 M103.6,43l1-1.1c-0.8,0-1.6,0.2-2.5,0.6c-0.4,0.2-1.1,1.4-2.1,3.6L103.6,43 M89.1,42.1
		c-0.7,1.6-0.8,3.2-0.5,4.6c0.3,1.5,1.1,2.5,2.2,3s2.4,0.4,3.7-0.4c1.3-0.8,2.3-2,3-3.6c0.8-1.9,0.9-3.6,0.4-5.2
		c-0.3,0.8-0.7,1.5-1.2,2c-0.5,0.5-1,0.7-1.4,0.6c-0.5-0.1-0.8-0.6-1-1.3c-0.2-0.7-0.1-1.5,0.1-2.4l0.5-1.4
		c-1.1-0.2-2.2,0.1-3.3,0.9C90.5,39.5,89.7,40.6,89.1,42.1 M94.2,27.6c-0.8-0.4-1.4-1-2-1.8c-0.5-0.8-1.1-0.8-1.7-0.1
		c-0.6,0.7-1,1.7-1.1,3.1c0,0.8,0.2,2.1,0.7,3.6L94.2,27.6 M137.7,34.1c-0.3-2.2-1.4-3.4-3.2-3.6c-2-0.1-3.5-0.1-4.5-0.1
		c-1.1,0.1-1.9,0.1-2.6,0c-1-0.2-1.7-0.7-2.1-1.5c-1-1.8-2.2-3.1-3.7-3.9c-1.4-0.8-2.8-1-4.2-0.6l-3.2,0.6c-1.1,0-2.1-0.3-3-0.9
		l-1.5-1.2c-1-0.7-1.9-0.9-2.6-0.7c-0.6,0.2-1.8,1-3.7,2.6l-3.1,2.4c-1.5,0.8-3,1.2-4.3,1.1c-1.7,1.2-3.4,3.2-5.2,6
		c-1.4,2.1-2.5,4.1-3.3,5.9c-2.7,6.3-3.3,12.9-1.8,19.8c1.5,7.1,4.9,12.7,10.2,16.6c3.1,2.3,6.1,3.7,8.8,4.3l3.2,0.5
		c0,0.3-0.8,0.5-2.6,0.7l-3.3-0.2c1.7,1.8,4.9,2.2,9.5,1.2c4.8-1.1,7.7-3.1,8.7-6c-1.9,0.8-3.5,1.1-4.8,0.9c-1.4-0.2-1.4-0.5-0.1-1
		c4.9-1.8,9.3-5,13.4-9.6c2.9,1,5.3,0.3,7.2-2.1c2-2.4,1.9-4.8-0.1-7.2c-0.3-0.7-0.1-1.1,0.6-1.2v-0.2c-1.3-0.8-2.9-1.6-4.7-2.4
		l0.4,0.5c0.4,0.6,0.5,1.2,0.4,1.7c-0.1,0.5-0.3,0.7-0.7,0.6c-0.4-0.1-0.6-0.3-0.5-0.6c0-0.3-0.1-0.7-0.5-1.2l-0.5-0.7
		c-0.3-0.3-0.3-0.6,0-0.9c-2.3-1-4.1-1.6-5.6-1.9c-0.6-0.1-1.3-0.1-2.2,0s-1.4,0.3-1.6,0.6c-1,1.4-2.2,2.4-3.7,3.1
		c-1.5,0.7-2.9,0.8-4.2,0.5l3.6,4.1c0.5,0.5,0.6,1,0.3,1.6l-1.9,4.2c-0.3,0.6-0.5,0.6-0.8,0l0.4-2.2l-0.5-0.7l-0.8-0.1
		c-1.4,0.7-3.1,1.3-4.9,1.8c-3.7,1.1-6.6,1.4-8.6,1s-4.1-1.6-6.2-3.4l-2.7-2.5l-0.7-0.1L89.8,60l-0.1,0.4l-0.2,0.4l-0.3-0.4
		l-1.3-3.7c-0.1-0.2-0.1-0.5,0-0.9l0.4-0.7l2.3-1.8l0.4-0.1l0.1,0.4l-0.2,0.7c-0.1,0.3,0,0.5,0.1,0.8l0.5,0.5l3.2,1.3
		c2.4,0.9,4.2,1.5,5.7,1.7l10.6-0.6l0.8-0.4l0.3-0.8l-0.2-1.7v-0.1c-1.5-0.7-2.6-1.9-3.2-3.6c-0.7-1.7-0.8-3.5-0.3-5.5l0-1.4
		l-0.4-1.3l-1.8-1.2l-4.6,5.6c-0.5,0.5-0.6,1-0.3,1.7l1.2,2.8v0.7c-0.1,0.2-0.3,0.3-0.6,0.3c-1.1,0.3-1.8,0-2.2-0.9l-1.3-3.4
		c-1.1,1.5-2.5,2.5-4.1,3.1c-1.6,0.6-3.1,0.5-4.5-0.1c-0.9-0.4-1.7-1.1-2.3-1.9c-0.8-1.2-1.2-2.7-1-4.5c0.1-1.4,0.6-3,1.2-4.6
		c0.6-1.5,1.3-2.5,1.9-3.1c1.2-1.2,2.5-1.9,4-2.2c1.4-0.3,2.6-0.2,3.7,0.3c1.2,0.7,2,1.6,2.6,2.9l0.8,0.8l1.1,0.2c1-0.4,2-0.5,3-0.5
		l1.5,0.3l0.7-0.6l0.5-0.1l0.2,0.4l-0.2,0.6l-0.1,0.1l1.6,0.9l1.4,0.1c0.7-0.1,1.2-0.3,1.5-0.6c0.6-0.5,1.6-1,3-1.4l4.2-0.2
		c2.6,1.1,3.9,3.3,3.9,6.5c0,0.5,0.3,1.2,0.9,2.1c0.6,0.9,1.2,1.5,1.8,1.7c1.9,0.5,3.9,1.2,6,2.1l-0.7-0.6c-0.3-0.3-0.4-0.7-0.2-0.9
		c0.2-0.3,0.4-0.4,0.7-0.3l0.1,0.1c0.9,0.7,1.5,1.4,2,2.2l0.3,0.6l2.3,1.2l-1.8-3.7c-0.5-0.8-1.2-1.6-2-2.4
		c-0.4-0.4-0.6-0.8-0.4-1.2c0.1-0.4,0.4-0.5,0.8-0.2c0.8,0.5,1.7,1.5,2.7,3.1c0.9,1.5,1.6,3.2,2.2,5.3l0.8,0.5l0.1-0.1
		c-0.8-3.3-1.8-5.9-2.9-7.7l-1.9-2.9l-1.1-1.2c-0.3-0.3-0.3-0.6-0.1-0.8c0.2-0.3,0.6-0.3,0.9,0c0.6,0.4,1.7,1.8,3.2,4.4
		c1.2,2.3,2,4.7,2.4,7.2c0.7-3.1,0.1-6.1-1.9-9.1c-0.8-1.2-2.1-2.7-3.9-4.3c-0.4-0.3-0.4-0.6-0.1-0.9c0.2-0.2,0.4-0.3,0.6-0.3
		C136.7,38,138,36.4,137.7,34.1 M123.3,39.1c-0.2,0-0.6-0.4-1.3-1l-1.8-1.6l-2.4-1.8c-0.1-0.2,0.2-0.6,0.8-1.1l0.8-0.8
		c0.3-0.3,0.6-0.4,0.9-0.3l0.4,0.2l1.7,2.5C123.4,37.1,123.7,38.4,123.3,39.1 M96.6,30.9l4.1-1.5l0.6,0c0.4,0.1,0.6,0.3,0.5,0.8
		l-0.1,0.9c0,0.3-0.1,0.6-0.4,0.8c-0.2,0.2-0.5,0.3-0.9,0.2l-3.8-0.6l-0.1-0.1c-0.3,0-0.4-0.1-0.4-0.2L96.6,30.9 M96.2,66.4l4.2,0.4
		l0.8,0.3l0.3,0.7l-0.3,0.7l-0.8,0.3c-1.2,0.1-2.2-0.1-2.9-0.7l-1.5-1.2l-0.2-0.4L96.2,66.4 M127.6,11.5c-1.3-1.4-2.5-2.2-3.4-2.3
		c-0.8-0.1-2.4,1-4.7,3.3l-2.2,1.9c-0.7,0.4-1.7,0.3-2.8-0.4c-1.5-0.9-2.8-1.3-3.8-1.3c-1.2,0-3.6,1.4-7.3,4.1
		c-1.3,0.9-2.6,1.3-4,1.1c-1.4-0.1-2.6-0.8-3.5-1.9c-0.7-0.8-0.8-1.8-0.4-3c-1.1,0.7-1.9,1.5-2.5,2.4c-0.8,1.3-1.2,2.9-1.2,4.8
		c0,1.9,0.5,3.6,1.4,5.1c0.7,1,1.6,1.5,2.8,1.6c1.1,0,2.3-0.3,3.5-0.9l3-2.4c1.9-1.5,3.3-2.4,4-2.6l2.9-0.1c0.3,0.1,0.9,0.6,1.9,1.3
		l1.2,1c0.4,0.3,1,0.4,1.8,0.2l6.5-2.2c1.3-0.3,2.8,0.9,4.3,3.6l2.8,4.6l7.2-0.6c2.2,0.2,3.7,1,4.6,2.6c0.6,1.1,0.9,2.4,0.8,3.9
		c-0.1,1-0.7,1.9-2,2.9c-1,0.8-2.1,1.4-3.2,1.9l3.1,4c1.5,2.4,2.3,5,2.2,7.9c1-1.6,2-3.5,2.9-5.8c1.8-4.5,2.4-8.3,1.8-11.4
		c-0.3-1.7-0.8-3.4-1.5-5.2c-0.9-2.3-2-3.9-3.1-4.7l-2.1-4.2c-1.1-2.4-2.6-3.9-4.4-4.6c-1.1-0.4-2.5-1.1-4.1-2.1l-1.3-1.2
		L127.6,11.5 M164.6,133.9c2.1-4.4,3.1-9,3-13.9c-0.1-8.3-3.3-16.2-9.6-23.6c-5.5-6.6-12.5-11.8-20.8-15.6l-1.7,1.1
		c-1.2,0.4-3.1,1.5-5.7,3.1l-8.7,5.2l0.5,0.8l5.9,11.4c3.9,8.8,6.3,17,7.3,24.6l0.4-0.1c0.8-4.8,2.2-10,4.3-15.7l-2.6-2.6
		c-0.3-0.3-0.4-0.9-0.6-1.8c-0.1-0.9,0.1-1.2,0.4-0.9c5.1,5.3,9.2,9.4,12.4,12.4l0.7,1.5c0.2,0.8,0.1,1.2-0.2,1.3
		c-1.6,0.5-3,1.9-4.1,4.3c-0.6,1.2-1.2,3.2-1.9,5.9c-0.5,2-1,4.3-1.4,6.9c2.6,0,5,0.7,7.1,2.2l2.4,2.2c1.4,1.3,2.2,2.3,2.4,2.8
		c0.1-0.1,0.3-0.1,0.5,0.1l1.1-0.8C159.5,142,162.4,138.3,164.6,133.9 M178.1,113.8c-1.9-4.8-5.2-9.5-9.9-14
		c-3.5-3.4-8.1-6.9-13.8-10.6l-4.1-2.6c7.4,6.2,12.6,13,15.6,20.6c2.5,6.4,3.2,13.1,2.3,20c-1,7.4-3.9,13.4-8.5,17.9l4.8,3.6
		c1.9,1.5,3.6,2.6,5,3.2c2.6,1.3,5.2,1.3,7.9-0.1c2.4-1.2,4.4-3.1,6.1-5.8l1.8-3.2c0.8-1.2,1.6-2.1,2.4-2.8c1.7-1.3,4.1-1.5,7-0.7
		l-7.8-9.2C183.9,126,180.9,120.5,178.1,113.8 M179.2,98c-2.8-2.5-5.5-4.6-8-6.1c-5.3-3.3-12.5-6.3-21.6-8.9l-3.6-1
		c4.5,2.5,8.7,5.2,12.7,8.1c5.6,4.2,10,8.1,13.1,11.8c2.1,2.4,3.7,4.8,4.9,7l3.9,8.8c2.7,5.6,6.4,11,11,16.2
		c2.1,2.3,3.7,4.3,4.8,6.1l0.5,0.9l1.3,3.3c1,3.7,1.3,7.6,0.8,11.9c-0.5,3.9-1.6,7.8-3.3,11.6l1.5-1c8.7-5.8,14.8-11.6,18.3-17.4
		c3-5.1,3.9-9.5,2.8-13.2c-0.9-2.9-2.8-5.6-5.8-8.2l-8.2-6.3c-4.7-3.8-10.7-9.3-17.8-16.4L179.2,98z"/>
</g>
</svg>
