<?xml version="1.0" encoding="utf-8"?>
<!-- Generator: Adobe Illustrator 25.4.1, SVG Export Plug-In . SVG Version: 6.00 Build 0)  -->
<svg version="1.1" id="ActionBoy_x2C_PerkClip_x5F_4d869" image-rendering="auto"
	 xmlns="http://www.w3.org/2000/svg" xmlns:xlink="http://www.w3.org/1999/xlink" x="0px" y="0px" viewBox="0 0 240 240"
	 style="enable-background:new 0 0 240 240;" xml:space="preserve">
<style type="text/css">
	.st0{fill:#FFFFFF;}
</style>
<g>
	<rect width="240" height="240"/>
	<path class="st0" d="M83.1,192.8c-5.3,0-10.8-2.4-16.4-7.1c-1.8,9.1-3.5,17-5,23.5l-0.6,0.7c-4.8,2.3-8.7,4.3-11.9,6.1
		c-3.5,2.1-5.4,3.5-5.7,4.4c0.4,0.9,2.7,1.7,6.9,2.5l8.5,0.7c2.3-0.4,4.3-1.1,6-2.3l2.2-1.4l6.1-1.2c1.1-0.4,1.7-0.8,1.7-1.3
		l-0.4-9.2l0-0.6c0.1-0.3,0.9-1.5,2.2-3.5C78.8,201,80.8,197.2,83.1,192.8 M134.5,188.8c-2.6,0.4-5.1,0.4-7.7-0.1
		c0.7,1.2,1.2,2.8,1.5,4.9c0.3,1.6,0.7,2.9,1.1,3.9c0.6,1.7,1.6,3.5,2.9,5.5c1.8,2.7,3.6,5.1,5.3,7.2c0.9,1.2,1.3,2.5,1.3,4.1
		c0,2.6,0.1,4.2,0.4,5.1c0.6,1.8,1.9,3.2,4.1,4.1l4.9,2.5c2.4,1.4,4.3,2.3,5.5,2.8c2.1,0.8,4,1.2,5.9,1.1c2.2-0.1,3.4-0.5,3.8-1
		c0.3-0.4,0.1-1.6-0.4-3.6l-0.2-0.8c-0.3-1.2-2.1-3.1-5.3-5.8c-2.6-2.1-5.4-4.2-8.4-6.1l-0.4-0.6l-5.3-27.6
		C141.2,186.7,138.2,188.2,134.5,188.8 M103.9,123.2l-0.4-0.2l-6.2-0.3l-1.1,7.9l12.9,0.1c-1.4-0.6-2.6-1.3-3.5-2.2
		c-0.7-0.7-1.2-1.6-1.5-2.5C103.7,124.8,103.6,123.9,103.9,123.2 M111,109.1l-1.8,0.2l2,0.3L111,109.1 M107.3,105.4l-1.8-5.2
		l-2.6-0.3c-1.1,1.6-1.8,3.5-2.1,5.9L107.3,105.4 M131.4,134.9l-4.6-1.5c-7.6,1.8-14.1,2.8-19.5,3l-14.7-0.6l-7.6-1.3
		c1.3,7.5,4.3,14.3,9.1,20.4c2.6,3.3,5.4,6.1,8.3,8.2h6.3c0.9-8.2,4.1-14.9,9.7-20.2C122.1,139.4,126.4,136.8,131.4,134.9
		 M134.2,136.1c-4.8,2-8.5,4.2-11.1,6.5c-5.5,5-9.3,11.9-11.2,20.9l5.9,9.9c3.8,6.2,6.4,10.6,7.8,13.2l0.1-0.2l1.9,0.4l4.7,0.2
		c4.9-0.4,8.6-2.8,11.2-7.1c-0.3-9.5-2-19.3-5.1-29.4c-2.9-8.2-4.4-12.6-4.4-13L134.2,136.1 M121.9,121.3c0.8-2.6,0.7-4.7-0.2-6.4
		c-0.6-1.5-0.7-2.3-0.4-2.5l1.1-2.3c0.2-0.9-0.2-1.5-1.2-1.9l-3.4-0.1l-3.4,1.2l-1.3,0.3h-0.4l0.2,0.3l1.9,0.3
		c0-0.3,0.1-0.4,0.2-0.4l1.6-0.4c0.7,0,1.2,0.2,1.5,0.6l0.5,1.2c0.1,0.6,0.1,1-0.1,1.2c-0.5,0.6-1.4,0.8-2.9,0.7l-12.5-1.8
		c-3.8-0.1-6.4-0.1-7.8,0.1l-1,0.2l0.8,0.5c1,0.5,2,0.9,3,1.2l4.4,0.8c1.8,0.5,2.8,1.3,3.1,2.6c0.1,0.7,0,1.1-0.3,1.3l-1.5,0.5
		l-0.8,0.5c0,0.5,0.1,0.9,0.4,1.3l0.4,0.2c1,0.4,1.9,0.7,2.7,0.8c0.3,0.1,0.6,0.6,0.8,1.6h0l0.3,0.1h-0.3c0.1,0.7,0.1,1.1-0.2,1.2
		c-1.6,0.4-2.1,0.9-1.5,1.5c1.6,1.4,3.4,2.3,5.4,2.7c2.9,0.5,5.4,0.3,7.6-0.6l0.1-0.3C120.1,125.6,121.2,123.5,121.9,121.3
		 M78.1,151l-7.2,20.2c-1.7,4.6-2.9,8.5-3.5,11.6c2.4,2.2,4.2,3.8,5.7,4.6c3.7,2.4,7.4,3.5,11.1,3.3c3.1-6.1,6.4-11.5,9.9-16.1
		c1.9-2.5,4.2-5.3,6.9-8.4c-3.3-2.4-6.6-5.7-9.8-9.8c-5-6.3-8.3-12.9-10-19.8C80.9,140.8,79.9,145.6,78.1,151 M74.2,138.8
		c0.8,1.7,1.7,3.2,2.7,4.5l1.7-11.2l-0.6-1.8c-1,0.2-1.9,0.7-2.5,1.4C74.3,133.2,73.8,135.6,74.2,138.8 M137.2,80.8
		c-0.8,0.4-1.3,0.8-1.7,1.1c-1.2,0.5-3.1,1.5-5.7,3.1l-8.6,5.2l0.5,0.8c0.7,1,1.9,3.1,3.5,6.4c2.4,4.9,4.5,9.8,6.2,14.7
		c2.8,0.3,5.2,1.1,7.2,2.3l-5.4-9.4c-0.2-0.3-0.3-0.9-0.3-1.8c0-0.8,0.1-1,0.4-0.4l7.7,13.5c0.6,2.1,0.6,2.9,0.1,2.4
		c-3.9-3.6-10-4.8-18.3-3.6c0.7,2.2,0.9,4.5,0.5,6.8c-0.4,2.3-1.2,4.4-2.4,6.4c4.3,1.9,8.6,3.3,13,4.2c11.1,2.4,18.4,1,21.8-4.3
		c1.5-2.3,2.4-5.2,2.6-8.7c0.2-3-0.1-6.1-0.9-9.2c-1.3-5.3-3.8-10.5-7.4-15.7C145.9,89,141.6,84.3,137.2,80.8 M93.9,87.6l0.1-0.1
		l-9.7-3.8c-2.1-0.6-4.2-0.2-6.6,1.1L75,87.2c-6.8,4.8-11.8,8.9-15,12.4c-4.7,5.1-6.9,9.8-6.4,14.1c0.4,3.6,3,8,7.9,13.3
		c3,3.3,6.6,6.6,10.7,9.9c-0.1-2.8,0.5-5,1.9-6.6c0.8-1,1.9-1.6,3.2-1.9l-9.2-16.8c-0.1-0.2-0.2-0.5-0.1-0.7l0.4-0.6
		c0.2-0.2,0.4-0.2,0.7-0.2c0.3,0,0.5,0.1,0.6,0.3l3.2,3.7l5.3-4l-0.2-5.9c-0.2-3.9-0.3-5.8-0.2-5.7l0.7,1.2l0.5,1.2l1.5,11.3
		c0.4-3.4,1-6.3,1.8-8.6c1.5-3.9,3.8-7.7,7.1-11.3C90.9,90.3,92.4,88.8,93.9,87.6 M95.8,91.3c-1.6,1.4-3.2,3-4.7,4.8
		c-2.4,2.9-4.1,5.8-5.2,8.8c-1.1,3-1.8,7.4-2,13c-0.1,3.4,0,7,0.2,10.6c1,0.5,2.1,0.9,3.2,1.1l5,0.6l0.1-1.4
		c0.4-3.8,0.8-6.8,1.2-8.9l0.3-1.7l6.8,0.4l0-0.3c0-0.5,0-1.1,0.2-1.6c-2-0.4-3.5-0.9-4.7-1.4c-1.3-0.6-2.2-1.4-2.8-2.4
		c-0.7-1.2-0.9-2.4-0.6-3.7c0.2-0.7,1.4-1.1,3.8-1.2v-0.3c0-3.3,0.7-6.2,1.9-8.7c0.7-1.2,1.4-2.2,2.1-2.8l0.6-0.6l6.8,0.8l0.5,0.9
		c0.7,1.6,1.8,4.6,3.2,9.1l0,0.1c1.1-0.1,2.8-0.6,4.9-1.4c1.9-0.5,3.6-0.3,4.8,0.8c1.8,1.5,2.3,3.5,1.7,6l3.6-0.2
		c-2.1-6-4.9-12-8.2-18L95.8,91.3 M96.1,79.6c-2.2-2.5-3.8-3.7-4.8-3.6c-0.6,0.1-1,0.3-1.2,0.6c-0.2,0.5-0.1,1.2,0.4,2.2l0.2,0.8
		l-0.4,0.6c-0.5,0.4-1,0.3-1.4-0.2c-0.6-0.8-1.5-1.5-2.6-2c-2.3-1.1-4.9-1.1-7.7,0.1c-2.3,1-3.7,2.2-4.2,3.8
		c-0.5,1.3-0.4,2.6,0.2,3.8v0.1c1.8-2,3-3.3,3.8-3.9c2.1-1.6,4.3-2,6.4-1.3c0.6,0.2,1.5,0.8,2.9,1.8c1.4,1,2.4,1.7,3,1.9
		c4.9,2,8.7,3.3,11.3,3.9l8.7,0.9c5.4,0,9.7-0.8,12.8-2.4l9.3-5.6c1.4-0.7,2.7-1.2,3.9-1.5l-0.1-0.5c-1.4-1.2-2.6-1.8-3.8-1.8
		c-0.7,0-1.4,0.4-2.1,1l-0.9,1v0l-3.8,4c-2.9,2.6-5.4,4-7.5,4.2l-0.9-0.6c-0.3-0.5,0.2-0.8,1.5-1.1c1.3-0.3,3-1.4,5-3.2l4-4.2
		c-0.6-1-2.2-1.8-4.7-2.2c-0.8,2.6-2.5,4.8-5,6.6c-2.3,1.6-5,2.6-8.1,2.9c-3,0.4-5.8,0.1-8.3-0.8C99.1,83.5,97.2,81.9,96.1,79.6
		 M113.6,61.2c0.3-0.3,0.3-0.7,0-1.1c-0.5-0.6-1.3-0.9-2.3-0.8l-10.6,0.5C99,59.6,97,59,94.6,58.1l-3.2-1.4c-0.8-0.2-1.2,0-1.2,0.6
		c0,0.7,0.3,1.1,0.7,1.2l5.5,3.5c0.9,0.5,2.2,0.9,3.9,1.2l4.1,0.3l8.2-1.9L113.6,61.2 M114.9,46.3c-0.2-0.7-0.1-1.6,0.1-2.4
		c0.4-1.4,1-2.4,1.8-2.8c-1,0-2.1,0.3-3.1,1.1c-1,0.8-1.8,1.9-2.4,3.2c-0.7,1.6-0.9,3.1-0.5,4.7c0.3,1.5,1.1,2.5,2.2,2.9
		c1.2,0.5,2.4,0.3,3.7-0.4c1.3-0.8,2.3-2,3-3.6c0.7-1.6,0.8-3.1,0.5-4.6c-0.3-1.5-1-2.5-2-3c0.6,0.8,0.7,1.9,0.2,3.3
		c-0.2,0.9-0.6,1.6-1.1,2.2c-0.5,0.6-1,0.8-1.5,0.7C115.4,47.5,115.1,47,114.9,46.3 M103.7,43l0.9-1.1c-0.8,0-1.6,0.2-2.5,0.6
		c-0.4,0.2-1.1,1.4-2.1,3.6L103.7,43 M89.1,42.1c-0.7,1.6-0.9,3.2-0.5,4.6c0.3,1.5,1.1,2.5,2.2,3c1.1,0.5,2.4,0.4,3.7-0.4
		c1.3-0.8,2.3-2,2.9-3.6c0.8-1.9,0.9-3.6,0.4-5.2l-1.1,2c-0.5,0.5-1,0.7-1.4,0.6c-0.5-0.1-0.8-0.6-1-1.3c-0.2-0.7-0.2-1.5,0.1-2.4
		l0.6-1.4c-1.1-0.2-2.2,0.1-3.3,0.9C90.6,39.5,89.7,40.6,89.1,42.1 M94.2,27.6c-0.7-0.3-1.4-0.9-2-1.8c-0.5-0.8-1.1-0.8-1.7-0.1
		c-0.6,0.7-0.9,1.7-1,3.1c-0.1,0.7,0.2,1.9,0.7,3.6L94.2,27.6 M137.8,34.1c-0.3-2.2-1.4-3.4-3.2-3.6c-2-0.1-3.4-0.1-4.4-0.1
		c-1.1,0.1-2,0.1-2.6,0c-1-0.2-1.7-0.7-2.1-1.5c-1-1.8-2.2-3.1-3.7-3.9c-1.4-0.8-2.8-1-4.2-0.6l-3.2,0.6c-1.1,0-2.1-0.3-2.9-0.9
		c-1.6-1.6-3-2.3-4.1-1.9c-0.6,0.2-1.8,1-3.7,2.6l-3.1,2.4c-1.5,0.8-3,1.2-4.3,1.1c-1.6,1.2-3.4,3.2-5.2,6c-1.5,2.2-2.5,4.2-3.2,5.9
		c-2.7,6.3-3.3,12.9-1.8,19.8c1.5,7.1,4.9,12.7,10.2,16.6c3.1,2.3,6.1,3.7,8.8,4.3l3.1,0.5c0,0.3-0.8,0.5-2.6,0.7l-3.3-0.2
		c1.7,1.8,4.9,2.2,9.6,1.2c4.7-1.1,7.6-3.1,8.7-6c-1.9,0.8-3.5,1.1-4.9,0.9c-1.4-0.2-1.4-0.5-0.1-1c4.8-1.7,9.3-4.9,13.5-9.6
		c2.9,1,5.3,0.3,7.2-2.1c2-2.4,2-4.8,0-7.2c-0.3-0.7-0.1-1.1,0.6-1.2l0.1-0.2c-1.4-0.8-3-1.6-4.7-2.4l0.4,0.5
		c0.3,0.7,0.4,1.2,0.4,1.7c-0.1,0.5-0.3,0.7-0.7,0.6c-0.4-0.1-0.6-0.3-0.5-0.6c0-0.3-0.1-0.7-0.4-1.2l-0.6-0.7
		c-0.3-0.3-0.2-0.6,0.1-0.9c-2.2-1-4.1-1.6-5.7-1.9c-0.6-0.1-1.3-0.1-2.2,0c-0.9,0.1-1.4,0.3-1.6,0.6c-1,1.4-2.2,2.4-3.6,3.1
		c-1.5,0.7-2.9,0.8-4.3,0.5l3.6,4.1c0.5,0.5,0.6,1,0.3,1.6l-1.9,4.2l-0.3,0.4c-0.2,0-0.3-0.1-0.4-0.4l0.5-2.2l-0.6-0.7l-0.8-0.1
		l-5,1.8c-3.7,1.1-6.5,1.4-8.5,1s-4.1-1.6-6.2-3.4l-2.7-2.5l-0.6-0.1L89.9,60l-0.1,0.4c-0.2,0.6-0.3,0.6-0.6,0.1l-1.3-3.7
		c-0.1-0.2-0.1-0.5,0-0.9l0.4-0.7l2.3-1.8l0.5-0.1l0,0.4L91,54.5c-0.1,0.3,0,0.5,0.1,0.8l0.6,0.5l3.1,1.3c2.4,0.9,4.2,1.5,5.7,1.7
		l10.6-0.6l0.8-0.4l0.4-0.8l-0.2-1.7v-0.1c-1.5-0.7-2.6-1.9-3.2-3.6c-0.6-1.7-0.7-3.5-0.2-5.5l-0.1-1.4l-0.4-1.3
		c-0.6-0.6-1.2-1-1.8-1.2l-4.6,5.6c-0.2,0.2-0.3,0.5-0.4,0.8c-0.1,0.3,0,0.6,0.1,0.9l1.2,2.8l-0.1,0.7c-0.1,0.2-0.3,0.3-0.6,0.3
		c-1.1,0.3-1.8,0-2.3-0.9l-1.3-3.4c-1.1,1.5-2.5,2.5-4,3.1c-1.6,0.6-3.1,0.5-4.5-0.1c-0.9-0.4-1.7-1.1-2.3-1.9
		c-0.8-1.2-1.2-2.7-1.1-4.5c0.1-1.4,0.5-3,1.2-4.6c0.6-1.5,1.3-2.5,1.9-3.1c1.2-1.2,2.5-1.9,4.1-2.2c1.4-0.3,2.6-0.2,3.7,0.3
		c1.2,0.7,2,1.6,2.6,2.9l0.9,0.8l1,0.2c1-0.4,2-0.5,3.1-0.5l1.5,0.3l0.1-0.1c0.4-0.6,0.8-0.8,1.1-0.6c0.3,0.1,0.3,0.5,0,1.1l0,0.1
		l1.5,0.9l1.3,0.1c0.7-0.1,1.2-0.3,1.5-0.6c0.6-0.5,1.6-1,3-1.4l4.2-0.2c1.7,0.7,2.8,1.9,3.4,3.6c0.3,0.7,0.4,1.7,0.5,2.9
		c0,0.5,0.3,1.2,0.9,2.1c0.6,0.9,1.2,1.5,1.8,1.7c1.9,0.5,3.9,1.2,6,2.1l-0.6-0.6c-0.3-0.3-0.4-0.7-0.2-0.9c0.2-0.3,0.4-0.4,0.6-0.3
		l0.2,0.1c0.9,0.7,1.5,1.4,1.9,2.2l0.4,0.6l2.3,1.2l-1.8-3.7c-0.5-0.8-1.1-1.6-2-2.4c-0.4-0.4-0.6-0.8-0.4-1.2
		c0.2-0.4,0.4-0.5,0.8-0.2c0.8,0.5,1.7,1.5,2.7,3.1c0.9,1.4,1.6,3.2,2.2,5.3l0.8,0.5l0.1-0.1c-0.8-3.4-1.8-5.9-2.9-7.7l-3-4.1
		c-0.3-0.3-0.3-0.6-0.1-0.8c0.3-0.3,0.6-0.3,1,0c0.7,0.4,1.7,1.9,3.1,4.4c1.1,2.1,1.9,4.6,2.4,7.2c0.7-3,0.1-6.1-1.9-9.1
		c-0.8-1.2-2.1-2.7-3.9-4.3c-0.4-0.3-0.4-0.6-0.1-0.9l0.5-0.3C136.7,38,138.1,36.4,137.8,34.1 M123.3,39.1l-1.2-1l-1.8-1.6l-2.5-1.8
		c-0.1-0.2,0.2-0.6,0.8-1.1l0.8-0.8c0.3-0.3,0.6-0.4,0.9-0.3c0.2,0,0.3,0.1,0.4,0.2l1.7,2.5C123.4,37.1,123.8,38.4,123.3,39.1
		L123.3,39.1 M96.6,30.9l4.2-1.5l0.5,0c0.4,0.1,0.6,0.3,0.6,0.8l-0.1,0.9l-0.4,0.8c-0.2,0.2-0.5,0.3-0.8,0.2l-3.9-0.6l0-0.1
		c-0.3,0-0.5-0.1-0.5-0.2L96.6,30.9 M96.2,66.4l4.2,0.4c0.3,0,0.6,0.2,0.8,0.3c0.2,0.2,0.3,0.4,0.3,0.7l-0.3,0.7
		c-0.2,0.2-0.5,0.3-0.8,0.3c-1.2,0.1-2.2-0.1-3-0.7l-1.5-1.2l-0.2-0.4L96.2,66.4 M127.7,11.5c-1.3-1.4-2.5-2.2-3.5-2.3
		c-0.8-0.1-2.3,1-4.6,3.3l-2.2,1.9c-0.7,0.4-1.7,0.3-2.9-0.4c-1.5-0.9-2.8-1.3-3.8-1.3c-1.2,0-3.6,1.4-7.3,4.1
		c-1.3,0.9-2.6,1.3-4,1.1s-2.6-0.8-3.5-1.9c-0.6-0.8-0.8-1.8-0.4-3c-1.1,0.6-1.9,1.4-2.5,2.4c-0.8,1.3-1.2,2.9-1.2,4.8
		c0,2,0.5,3.7,1.4,5.1c0.6,1,1.6,1.5,2.8,1.6c1.1,0,2.3-0.3,3.5-0.9l3.1-2.4c1.9-1.5,3.3-2.4,4-2.6l2.8-0.1l3.1,2.3l1.8,0.2l6.4-2.2
		c1.3-0.3,2.8,0.9,4.4,3.6l2.8,4.6l7.2-0.6c2.1,0.2,3.6,1,4.6,2.6c0.6,1.1,0.8,2.4,0.8,3.9c-0.1,1-0.8,1.9-2,2.9
		c-1,0.8-2.1,1.4-3.2,1.9l3.1,4c1.5,2.4,2.3,5.1,2.2,7.9c1-1.6,2-3.5,3-5.8c1.8-4.5,2.4-8.3,1.8-11.4c-0.4-1.8-0.9-3.5-1.6-5.2
		c-0.9-2.3-1.9-3.9-3-4.7l-2.1-4.2c-1.1-2.4-2.6-3.9-4.4-4.6c-1.1-0.4-2.4-1.1-4.1-2.1l-1.3-1.2L127.7,11.5 M178.1,104.6
		c1.3,3.3,1.6,6.5,0.8,9.7c-1.2,4.9-2,9-2.3,12.2c-0.5,4.7-0.3,8.8,0.6,12.3l1.6,4.3c0.8,1.9,1.3,3.3,1.6,4.4
		c0.5,2.1,0.7,4.5,0.6,7.2l-0.5,4.7c-0.2,1.9-0.2,3.5-0.1,4.7c1.3,4.2,2.2,5.8,2.7,4.9c0.5-1,1-1.8,1.5-2.4c1.1-1.4,2.5-2.9,4.3-4.6
		l4.7-4.2c2-1.9,3.5-3.6,4.7-5.2c1.5-2.1,2.5-4.1,3-6.2c0.9-3.5,0.8-7.4-0.2-11.8c-0.7-2.9-2-6.7-4.1-11.4
		c-6.4-14.8-15.1-25.3-26.1-31.6c-5-2.9-10.5-5.3-16.3-7.3c7.5,3.6,13.5,7.7,17.9,12.2C175.1,99.1,177,101.8,178.1,104.6
		 M178.1,109.9c0.1-2.8-0.6-5.3-2.1-7.5c-2.4-3.4-5.7-6.6-10.1-9.6c-3.2-2.1-7.3-4.4-12.3-6.7c-5-2.3-9.5-4.1-13.7-5.4
		c4.9,4.5,9,9.7,12.4,15.4c3.1,5.3,5.2,10.6,6.4,15.8c1.4,6.4,1.1,12-0.9,16.8c-2.9,6.9-9.7,9.4-20.5,7.6l-0.1,0.6l0.6,2.3
		c3.5,3,6.8,5.2,10.1,6.8c4.1,1.9,7.8,2.5,11.2,1.9c1.4-0.2,2.9-0.8,4.6-1.6l6.8-3.4c1-0.5,1.9-0.7,2.6-0.7c1.3,0,2.6,0.8,3.9,2.3
		c0.7,0.8,1.6,2.2,2.8,4.3l-0.1-0.5c-0.2-1.2-0.8-2.9-1.7-5c-0.9-2.2-1.5-3.9-1.8-5c-1.2-5.5-1.1-12.3,0.6-20.5L178.1,109.9z"/>
</g>
</svg>
