<?xml version="1.0" encoding="utf-8"?>
<!-- Generator: Adobe Illustrator 25.4.1, SVG Export Plug-In . SVG Version: 6.00 Build 0)  -->
<svg version="1.1" id="ActionBoy_x2C_PerkClip_x5F_4d869" image-rendering="auto"
	 xmlns="http://www.w3.org/2000/svg" xmlns:xlink="http://www.w3.org/1999/xlink" x="0px" y="0px" viewBox="0 0 240 240"
	 style="enable-background:new 0 0 240 240;" xml:space="preserve">
<style type="text/css">
	.st0{fill:#FFFFFF;}
</style>
<g>
	<rect width="240" height="240"/>
	<path class="st0" d="M83.1,192.8c-5.3,0-10.8-2.4-16.4-7.1c-1.8,9.1-3.5,17-5,23.5l-0.6,0.7c-4.8,2.3-8.8,4.3-11.9,6.1
		c-3.5,2.1-5.4,3.5-5.6,4.4c0.4,0.9,2.7,1.7,6.9,2.5l8.5,0.7c2.3-0.3,4.4-1.1,6.1-2.3l2.2-1.4l6.1-1.2c1.1-0.4,1.7-0.8,1.7-1.3
		l-0.4-9.7l2.2-3.5C78.7,201.1,80.8,197.3,83.1,192.8 M134.5,188.8c-2.6,0.4-5.1,0.4-7.7-0.1c0.6,1.1,1.1,2.7,1.6,4.9
		c0.3,1.6,0.6,2.9,1,3.9c0.6,1.7,1.6,3.5,3,5.5l5.3,7.2c0.9,1.2,1.3,2.5,1.3,4.1c0,2.6,0.1,4.3,0.4,5.1c0.6,1.8,1.9,3.2,4.1,4.1
		l5,2.5c2.4,1.4,4.3,2.3,5.5,2.8c2.1,0.8,4,1.2,5.9,1.1c2.2-0.1,3.5-0.5,3.8-1c0.3-0.4,0.1-1.6-0.5-3.6l-0.2-0.8
		c-0.4-1.2-2.1-3.1-5.3-5.8c-2.6-2.2-5.4-4.2-8.4-6.1c-0.3-0.2-0.4-0.4-0.4-0.6l-5.3-27.6C141.2,186.7,138.2,188.2,134.5,188.8
		 M105.1,130.8c3,0,6.1-0.3,9.4-1.1l-2-6.6l-15.2-0.5l-1.1,7.9L105.1,130.8 M117.9,128.5l3.2-0.7c-1.1-0.4-2.4-1-3.8-1.8
		L117.9,128.5 M134.2,136.1c-4.7,2-8.4,4.2-11.1,6.6c-5.5,5-9.2,11.9-11.2,20.8l5.9,9.9c3.8,6.2,6.4,10.6,7.8,13.2l0.1-0.2l1.9,0.4
		l4.7,0.2c4.9-0.4,8.6-2.8,11.2-7.1c-0.3-9.5-2-19.3-5.1-29.4c-2.9-8.2-4.4-12.6-4.4-13L134.2,136.1 M134.6,131.4l-8.8,2.2
		c-7.1,1.7-13.3,2.6-18.5,2.8l-14.7-0.6l-7.5-1.3c1.3,7.5,4.3,14.3,9.1,20.4c2.6,3.3,5.4,6.1,8.3,8.2h6.3c1-9.8,5.4-17.4,13-23.1
		c2.7-2,6.9-4.1,12.5-6.2L134.6,131.4 M128.9,108.1l0.2-0.6l-0.7-0.5L128.9,108.1 M78.1,151l-7.2,20.2c-1.7,4.7-2.9,8.5-3.5,11.6
		c2.3,2.2,4.2,3.7,5.6,4.6c3.7,2.4,7.4,3.5,11.2,3.3c3.1-6.1,6.4-11.5,9.9-16.1c1.9-2.5,4.2-5.3,6.8-8.4c-3.3-2.4-6.6-5.7-9.8-9.8
		c-5-6.3-8.3-12.9-10-19.8C80.9,140.8,79.8,145.6,78.1,151 M74.2,138.8c0.9,1.9,1.8,3.4,2.7,4.5l1.7-11.2l-0.6-1.8
		c-1,0.2-1.8,0.7-2.5,1.4C74.3,133.2,73.8,135.5,74.2,138.8 M118.8,93.9l-3.2-0.4c0,0.5-0.1,1-0.3,1.4c-0.4,0.7-0.9,1.2-1.6,1.6
		c4.4,2.1,7.4,3.6,8.8,4.5L118.8,93.9 M118.3,87.3l-0.9-0.6c-0.3-0.5,0.1-0.8,1.4-1.1c1.4-0.3,3.1-1.4,5.1-3.2l4-4.2
		c-0.6-1-2.2-1.8-4.8-2.2c-0.8,2.8-2.7,5.1-5.5,6.9c-2.6,1.6-5.6,2.6-8.9,2.8c1.9,0.6,3.2,1.1,3.7,1.4c0.6,0.4,1.2,1,1.7,1.8
		c3.8-0.3,6.8-1.1,9.1-2.3l9.4-5.6c1.4-0.7,2.7-1.2,3.9-1.4l-0.1-0.4c-1.4-1.2-2.7-1.8-3.9-1.8c-0.7,0-1.4,0.4-2.1,1l-0.9,1v0
		l-3.8,4C123,85.7,120.5,87.1,118.3,87.3 M111.2,97.8l-0.3,1l-1.5,3.1c-2,2.8-5,4.7-8.9,5.6c2.2,3.5,5,6.7,8.2,9.7
		c3.8,3.6,7.7,6.2,11.8,7.8c2.7,1.1,5,1.8,6.9,2.2c2.8,0.5,5.2,0.2,7-0.7c3.6-1.8,6.7-4.5,9.1-8.2c2.3-3.5,3.8-7.4,4.4-11.6
		c0.9-5.2,0.4-10-1.4-14.6c-1.9-4.7-4.9-8.4-9.2-11.3c-0.8,0.4-1.3,0.8-1.7,1.1c-1.2,0.4-3.1,1.5-5.7,3.1l-8.6,5.2l3.1,5.4
		c1.9,3.6,3.6,7.3,5.1,11c0.4-1.4,0.9-2.5,1.6-3.3c0.2-0.2,0.5,0.1,0.8,0.9c0.4,0.9,0.4,1.4,0.2,1.8c-0.9,1.2-1.6,3.2-2.1,5.9
		c-0.1,0.6-0.5,0.2-1.1-1.4c-0.2-1.8-1.4-3.5-3.6-5.2c-1.3-1-3.2-2.2-5.7-3.5c-1-0.6-2.3-1.2-3.9-1.9l-4-1.8L111.2,97.8 M105.1,85.4
		l-1.9-0.4l1.8,1.8L105.1,85.4 M89.8,98.1L89.7,98c-1.7,2.4-3,4.7-3.8,6.9c-1.1,3-1.8,7.4-2,13c-0.1,3.4,0,7,0.2,10.6
		c1,0.5,2.1,0.9,3.2,1.1l5,0.6l0.1-1.4c0.4-4.1,0.8-7.1,1.2-8.9l0.4-1.7l14.1,0.7c-2.9-2.8-5.5-5.9-7.6-9.1l-3.7-0.1l0.1-2.9
		c-1.6-0.9-3.1-2.1-4.4-3.8C91.2,101.6,90.3,99.9,89.8,98.1 M91.1,86.4l-6.7-2.6c-2.1-0.6-4.2-0.2-6.5,1.1L75,87.2
		c-6.8,4.8-11.8,8.9-15,12.4c-4.7,5.1-6.9,9.8-6.4,14.1c0.4,3.6,3,8,7.9,13.3c3,3.3,6.6,6.6,10.7,9.9c-0.1-2.8,0.5-5,1.8-6.6
		c0.9-1,2-1.6,3.2-1.9c-0.9-2-2.4-4.8-4.5-8.5l-4.6-8.3c-0.1-0.2-0.2-0.5-0.1-0.7l0.5-0.6c0.5-0.4,0.9-0.3,1.3,0.1l3.2,3.7l5.2-4
		l-0.2-5.9c-0.2-3.8-0.3-5.7-0.2-5.7l0.7,1.2l0.5,1.2l1.5,11.3c0.4-3.6,1-6.5,1.8-8.6c1.7-4.6,4.6-9,8.8-13.1
		c-0.3-1.3-0.4-2.4-0.1-3.3L91.1,86.4 M89.6,80.3l-0.6-0.4c-0.6-0.8-1.5-1.5-2.7-2c-2.3-1.1-4.8-1.1-7.7,0.1c-2.3,1-3.7,2.2-4.3,3.8
		c-0.5,1.3-0.4,2.6,0.1,3.8v0.1c1.8-2,3-3.3,3.8-3.9c2.2-1.6,4.3-2,6.5-1.3c0.6,0.2,1.6,0.8,2.8,1.8l3.1,1.9l2.8,1.1l-2.6-4l-0.4-1
		L89.6,80.3 M96.7,80.6c-1.3-1.2-2.7-2.2-4-3c-1-0.6-1.5-0.5-1.7,0.2c-0.2,0.7,0,1.4,0.6,2.2l4.6,6.2c0.5,0.8,0.7,1.6,0.5,2.4
		L96.4,89l-1.1-0.2l-1-0.4c-1.2-0.3-2,0-2.2,1c-0.2,0.9,0.1,1.9,1,2.8c0.7,2,0.8,3,0.3,2.8c-2-0.9-2.9-0.4-2.8,1.4
		c0.1,1.7,0.7,3.2,1.8,4.5c1.9,2.1,3.9,3.5,5.9,4.1l0.2-0.2c2.7-0.5,5.1-1.5,7.2-3c2.3-1.7,3.7-3.9,4.2-6.4l0.2-0.5l0.1,0l2.1-0.9
		c0.8-0.4,1.4-0.9,1.7-1.4c0.7-1.3-0.2-2.4-2.6-3.4l-2-0.6l-2-0.9c-0.4-0.4-0.7-0.6-0.8-0.5l-0.4,0.9l0.8,0.8h0.1
		c1,0.6,1.8,1.1,2.2,1.6c0.6,0.7,0.8,1.6,0.7,2.6l-0.2,0.2c-0.4,0.1-0.9-0.1-1.5-0.5l-1.2-1.1l-7.3-8.1
		C98.5,82.7,97.5,81.8,96.7,80.6 M113.6,61.2c0.3-0.4,0.3-0.8,0-1.1c-0.5-0.6-1.3-0.9-2.4-0.8l-10.5,0.5C99,59.6,97,59,94.6,58.1
		l-3.2-1.4c-0.8-0.2-1.2,0-1.2,0.6c0,0.6,0.2,1,0.7,1.2l5.5,3.5c0.9,0.5,2.2,0.9,3.8,1.2l4.2,0.3l8.2-1.9L113.6,61.2 M114.9,46.3
		c-0.2-0.7-0.2-1.6,0.1-2.4c0.4-1.4,1-2.4,1.8-2.8c-1,0-2,0.3-3,1.1c-1,0.8-1.8,1.9-2.4,3.2c-0.7,1.6-0.8,3.1-0.5,4.7
		c0.3,1.5,1.1,2.5,2.2,2.9c1.2,0.5,2.4,0.3,3.7-0.4c1.3-0.8,2.3-2,3-3.6c0.7-1.6,0.8-3.1,0.5-4.6c-0.3-1.5-1-2.5-2.1-3
		c0.6,0.7,0.7,1.8,0.3,3.3c-0.2,0.9-0.6,1.6-1.1,2.2c-0.5,0.6-1,0.8-1.5,0.7C115.4,47.5,115.1,47,114.9,46.3 M103.7,43l0.9-1.1
		c-0.8,0-1.6,0.2-2.5,0.6c-0.5,0.3-1.2,1.5-2.1,3.6L103.7,43 M89.1,42.1c-0.7,1.6-0.9,3.2-0.5,4.6c0.3,1.5,1,2.5,2.2,3
		c1.1,0.5,2.4,0.4,3.7-0.4c1.3-0.8,2.3-2,3-3.6c0.8-1.9,0.9-3.6,0.4-5.2l-1.1,2c-0.5,0.5-1,0.7-1.4,0.6c-0.5-0.1-0.8-0.6-1-1.3
		c-0.2-0.7-0.1-1.5,0.1-2.4l0.6-1.4c-1.1-0.2-2.2,0.1-3.3,0.9C90.6,39.5,89.7,40.6,89.1,42.1 M94.2,27.6c-0.7-0.4-1.4-1-2-1.8
		c-0.5-0.8-1.1-0.8-1.7-0.1c-0.6,0.7-0.9,1.7-1,3.1c-0.1,0.8,0.2,2.1,0.7,3.6L94.2,27.6 M137.8,34.1c-0.3-2.2-1.4-3.4-3.2-3.6
		c-2-0.1-3.5-0.1-4.4-0.1c-1.1,0.1-2,0.1-2.6,0c-1-0.2-1.7-0.7-2.1-1.5c-1-1.8-2.2-3.1-3.7-3.9c-1.4-0.8-2.8-1-4.2-0.6l-3.2,0.6
		c-1.1,0-2.1-0.3-3-0.9c-1.6-1.6-2.9-2.3-4-1.9c-0.6,0.2-1.8,1-3.7,2.6l-3.1,2.4c-1.5,0.8-3,1.2-4.3,1.1c-1.6,1.2-3.4,3.2-5.2,6
		c-1.4,2.2-2.5,4.1-3.3,5.9c-2.6,6.3-3.2,12.9-1.8,19.8c1.5,7.1,4.9,12.7,10.2,16.6c3.1,2.3,6.1,3.7,8.8,4.3l3.1,0.5
		c0,0.3-0.8,0.5-2.6,0.7l-3.3-0.2c1.8,1.8,5,2.2,9.6,1.2c4.7-1.1,7.6-3.1,8.7-6c-1.9,0.8-3.5,1.1-4.9,0.9c-1.4-0.2-1.4-0.5-0.1-1
		c4.9-1.8,9.3-5,13.4-9.6c2.9,1,5.3,0.3,7.2-2.1c2-2.4,1.9-4.8-0.1-7.2c-0.3-0.7-0.1-1.1,0.6-1.2v-0.2c-1.3-0.8-2.8-1.6-4.6-2.4
		l0.3,0.5c0.4,0.6,0.5,1.2,0.4,1.7c0,0.5-0.2,0.7-0.7,0.6c-0.4-0.1-0.6-0.3-0.5-0.6c0.1-0.3-0.1-0.7-0.4-1.2l-0.6-0.7
		c-0.3-0.3-0.2-0.6,0.1-0.9c-2.4-1-4.3-1.6-5.7-1.9c-0.6-0.1-1.3-0.1-2.2,0c-0.9,0.1-1.4,0.3-1.6,0.6c-1,1.4-2.3,2.4-3.7,3.1
		c-1.4,0.7-2.8,0.8-4.2,0.5l3.6,4.1c0.5,0.5,0.6,1,0.3,1.6l-1.9,4.2l-0.3,0.4c-0.2,0-0.3-0.1-0.4-0.4l0.5-2.2l-0.6-0.7l-0.8-0.1
		l-5,1.8c-3.7,1.1-6.6,1.4-8.6,1c-2-0.5-4.1-1.6-6.2-3.4l-2.7-2.5l-0.7-0.1L89.8,60l-0.1,0.4l-0.2,0.4l-0.2-0.4l-1.3-3.7
		c-0.1-0.2-0.1-0.5,0-0.9l0.4-0.7l2.3-1.8l0.5-0.1v0.4l-0.2,0.7c-0.1,0.3,0,0.5,0.1,0.8l0.6,0.5l3.1,1.3c2.4,0.9,4.2,1.5,5.7,1.7
		l10.6-0.6l0.8-0.4l0.4-0.8l-0.2-1.7v-0.1c-1.5-0.7-2.6-1.9-3.2-3.6c-0.6-1.7-0.7-3.5-0.2-5.5l-0.1-1.4l-0.4-1.3
		c-0.6-0.6-1.2-1-1.8-1.2l-4.6,5.6c-0.2,0.2-0.3,0.5-0.4,0.8c-0.1,0.3,0,0.6,0.1,0.9l1.2,2.8c0.1,0.2,0.1,0.5,0,0.7
		s-0.3,0.3-0.6,0.3c-1.1,0.3-1.8,0-2.2-0.9l-1.3-3.4c-1.1,1.5-2.5,2.5-4,3.1c-1.6,0.6-3.1,0.5-4.6-0.1c-0.9-0.4-1.7-1.1-2.2-1.9
		c-0.8-1.2-1.2-2.7-1.1-4.5c0.1-1.4,0.6-3,1.2-4.6c0.6-1.5,1.3-2.5,1.9-3.1c1.2-1.2,2.5-1.9,4-2.2c1.4-0.3,2.7-0.2,3.7,0.3
		c1.2,0.7,2,1.6,2.6,2.9l0.8,0.8l1.1,0.2l3.1-0.5l1.5,0.3l0.1-0.1c0.4-0.6,0.8-0.8,1.1-0.6c0.3,0.1,0.3,0.5,0,1.1l-0.1,0.1l1.6,0.9
		l1.4,0.1c0.7-0.1,1.2-0.3,1.5-0.6c0.6-0.5,1.6-1,3-1.4l4.2-0.2c1.7,0.7,2.8,1.9,3.4,3.6c0.3,0.7,0.4,1.7,0.5,2.9
		c0,0.5,0.3,1.2,0.9,2.1c0.6,0.9,1.2,1.5,1.8,1.7c1.9,0.5,3.9,1.2,6,2.1l-0.7-0.6c-0.3-0.3-0.4-0.7-0.2-0.9c0.2-0.3,0.4-0.4,0.7-0.3
		l0.1,0.1c0.8,0.6,1.5,1.3,2,2.2l0.3,0.6l2.3,1.2l-1.8-3.7c-0.5-0.8-1.1-1.6-2-2.4c-0.4-0.4-0.6-0.8-0.4-1.2
		c0.1-0.4,0.4-0.5,0.8-0.2c0.8,0.5,1.7,1.5,2.7,3.1c0.8,1.3,1.6,3.1,2.2,5.3l0.8,0.5l0.1-0.1c-0.8-3.4-1.8-5.9-2.9-7.7l-1.9-2.9
		l-1.1-1.2c-0.3-0.3-0.3-0.6-0.1-0.8c0.3-0.3,0.6-0.3,1,0c0.6,0.4,1.6,1.8,3.1,4.4c1.2,2.3,2,4.7,2.4,7.2c0.7-3.1,0.1-6.1-1.8-9.1
		l-3.9-4.3c-0.4-0.3-0.4-0.6-0.2-0.9c0.2-0.2,0.4-0.3,0.6-0.3C136.7,38,138.1,36.4,137.8,34.1 M123.3,39.1c-0.2,0-0.6-0.4-1.3-1
		l-1.8-1.6l-2.4-1.8c-0.1-0.2,0.2-0.6,0.8-1.1l0.9-0.8c0.2-0.3,0.5-0.4,0.9-0.3l0.4,0.2l1.7,2.5C123.4,37.1,123.7,38.4,123.3,39.1
		L123.3,39.1 M96.6,30.9l4.1-1.5l0.6,0c0.4,0.1,0.6,0.3,0.6,0.8l-0.1,0.9l-0.4,0.8l-0.9,0.2l-3.8-0.6l-0.1-0.1
		c-0.3,0-0.4-0.1-0.4-0.2L96.6,30.9 M96.2,66.4l4.2,0.4c0.3,0,0.6,0.2,0.8,0.3l0.3,0.7l-0.3,0.7l-0.8,0.3c-1.2,0.1-2.1-0.1-2.9-0.7
		l-1.5-1.2l-0.2-0.4L96.2,66.4 M124.2,9.2c-0.5,0-1.3,0.3-2.2,1.1l-4.7,4.1c-0.7,0.4-1.6,0.3-2.8-0.4c-1.5-0.9-2.8-1.3-3.8-1.3
		c-0.8,0-2,0.6-3.7,1.6c-0.5,0.3-1.7,1.1-3.6,2.4c-1.3,0.9-2.6,1.3-4,1.1c-1.4-0.1-2.6-0.8-3.5-1.9c-0.7-0.8-0.8-1.8-0.4-3
		c-1,0.6-1.8,1.4-2.5,2.4c-0.8,1.3-1.2,2.9-1.2,4.8c0,2,0.5,3.7,1.4,5.1c0.6,1,1.6,1.5,2.8,1.6c1.1,0,2.3-0.3,3.5-0.9l3.1-2.4
		c1.9-1.5,3.2-2.4,3.9-2.6l2.9-0.1c0.3,0.1,0.9,0.6,1.9,1.3l1.2,1c0.4,0.3,1,0.4,1.8,0.2l6.5-2.2c1.3-0.3,2.8,0.9,4.4,3.6l2.8,4.6
		l7.1-0.6c2.2,0.2,3.7,1,4.6,2.6c0.6,1.1,0.9,2.4,0.8,3.9c-0.1,1-0.8,1.9-2.1,2.9c-1,0.8-2.1,1.4-3.2,1.9l3.1,4
		c1.5,2.4,2.2,5,2.2,7.9c1.1-1.6,2.1-3.5,2.9-5.8c1.9-4.5,2.5-8.3,1.9-11.4c-0.4-1.8-0.9-3.5-1.6-5.2c-0.9-2.3-2-3.9-3.1-4.7
		l-2.1-4.2c-1.1-2.4-2.6-3.9-4.4-4.6c-1.1-0.4-2.5-1.1-4.1-2.1l-1.3-1.2l-1.1-1.3C126.3,10.1,125.1,9.3,124.2,9.2 M179.8,120.7
		c-0.5-6-3.3-11.9-8.3-17.5c-3.7-4.1-8.7-8.4-15.2-12.8c-5.4-3.6-10.6-6.6-15.4-9.1c6.1,6.2,9,14.1,8.8,23.6
		c-0.3,9.7-3.9,17.2-10.9,22.4l-0.4,0.2c-0.6,4.9-0.9,8-0.9,9.3c8.3,2.5,15,2.6,20,0.4l4.1-1.9c1.6-0.6,3.1-0.9,4.4-0.8
		c1.5,0.2,3.1,0.9,4.6,2.4c1,0.8,2.1,2.2,3.5,4c0.2-0.9,0.8-2.3,1.6-4c1.6-3.3,2.7-5.9,3.3-7.9C179.7,126,180,123.2,179.8,120.7
		 M183.3,94.6c-3.8-2.7-8.6-5.4-14.5-8.3c-10.3-5-19.1-7.1-26.6-6.4c4.8,2.4,9.5,5.2,14.2,8.6c5.3,3.7,9.6,7.1,12.8,10.4
		c4.3,4.4,7.4,8.9,9.2,13.5c2.4,6.1,3,11.7,1.7,17c-0.4,1.7-1.3,3.8-2.5,6.4l-2.6,6.2c-0.5,1.5-0.4,3,0.3,4.6l2.6,4.1
		c2,3.1,4.4,6.4,7.2,9.7l7.6,8.4c-1.1-8.4-1.2-16.7-0.4-24.9c0.5-5.3,2-11.6,4.5-18.8c2.4-6.9,1.8-13.1-1.8-18.7
		C192.2,102.1,188.3,98.2,183.3,94.6z"/>
</g>
</svg>
