<?xml version="1.0" encoding="utf-8"?>
<!-- Generator: Adobe Illustrator 25.4.1, SVG Export Plug-In . SVG Version: 6.00 Build 0)  -->
<svg version="1.1" id="ActionBoy_x2C_PerkClip_x5F_4d869" image-rendering="auto"
	 xmlns="http://www.w3.org/2000/svg" xmlns:xlink="http://www.w3.org/1999/xlink" x="0px" y="0px" viewBox="0 0 240 240"
	 style="enable-background:new 0 0 240 240;" xml:space="preserve">
<style type="text/css">
	.st0{fill:#FFFFFF;}
</style>
<g>
	<rect width="240" height="240"/>
	<path class="st0" d="M83.1,192.8c-5.4,0-10.9-2.4-16.4-7.1c-1.8,9.1-3.5,17-5,23.5l-0.6,0.7c-4.8,2.3-8.8,4.3-11.9,6.1
		c-3.5,2.1-5.4,3.5-5.6,4.4c0.4,0.9,2.7,1.7,6.9,2.5l8.5,0.7c2.3-0.4,4.4-1.1,6.1-2.3l2.2-1.4l6.2-1.2c1.1-0.4,1.6-0.8,1.6-1.3
		l-0.4-9.2l0.1-0.6l2.2-3.5C78.7,201.1,80.8,197.3,83.1,192.8 M128.4,193.5c0.4,1.7,0.7,3,1,3.9c0.6,1.7,1.6,3.5,2.9,5.5l5.3,7.2
		c0.9,1.2,1.3,2.5,1.3,4.1c0,2.6,0.1,4.3,0.4,5.1c0.6,1.8,1.9,3.2,4.1,4.1l4.9,2.5c2.5,1.4,4.4,2.3,5.6,2.8c2.1,0.8,4,1.2,5.9,1.1
		c2.2-0.1,3.5-0.5,3.8-1c0.2-0.3,0.2-0.7,0.1-1.4l-0.8-3c-0.3-1.2-2.1-3.1-5.3-5.8c-2.6-2.1-5.4-4.2-8.4-6.1
		c-0.3-0.2-0.4-0.4-0.4-0.6l-5.4-27.6c-2.2,2.5-5.2,4-8.9,4.6c-2.5,0.4-5.1,0.4-7.6-0.1C127.5,189.8,128,191.5,128.4,193.5
		 M105.1,130.8c3,0,6.1-0.3,9.4-1.1l-2-6.6l-15.2-0.5l-1.1,7.9L105.1,130.8 M105.6,100.2l-2.7-0.3c-1.1,1.6-1.8,3.5-2.1,5.9l6.5-0.4
		L105.6,100.2 M134.4,133.9l0.3-2.4l-8.8,2.2c-7.2,1.7-13.3,2.6-18.5,2.8l-14.7-0.6l-7.5-1.3c1.3,7.5,4.3,14.3,9.1,20.4
		c2.6,3.4,5.4,6.1,8.3,8.2h6.4c1.1-9.8,5.4-17.4,13-23.1C124.6,138,128.8,136,134.4,133.9 M134.1,137l0-0.9
		c-4.7,1.9-8.4,4.1-11.1,6.6c-5.5,5-9.2,11.9-11.1,20.8l5.9,9.9c3.8,6.2,6.4,10.6,7.8,13.2l0-0.2l2,0.4l4.7,0.2
		c4.8-0.4,8.6-2.8,11.1-7.1c-0.3-9.5-2-19.3-5.1-29.4c-2.9-8.2-4.3-12.6-4.3-13L134.1,137 M78.1,151l-7.2,20.2
		c-1.7,4.7-2.9,8.5-3.5,11.6c2.4,2.2,4.2,3.8,5.6,4.6c3.7,2.4,7.4,3.5,11.2,3.3c3.2-6.2,6.5-11.5,9.9-16.1c1.9-2.5,4.2-5.3,6.8-8.4
		c-3.3-2.5-6.6-5.7-9.8-9.8c-5-6.3-8.3-12.9-10-19.8C80.9,140.8,79.8,145.6,78.1,151 M74.2,138.8c0.9,1.8,1.8,3.3,2.7,4.5l1.7-11.2
		l-0.6-1.8c-1,0.2-1.8,0.7-2.5,1.4C74.2,133.2,73.8,135.6,74.2,138.8 M145.8,87.6c1.5,2.9,2,5.8,1.5,8.7c-0.1,1-0.4,2.1-0.9,3.3
		l-4.8,12.1l0.1,0.1c-1.7,5.7-2.9,11.8-3.8,18.1l-0.6,6c3.4,0.4,6.5,2.2,9.4,5.3c2.4,2.6,4.4,5.8,5.9,9.6l-0.1-1.6
		c-0.2-5.2,0.5-11.6,2.1-19.2c0.5-2.2,1.6-6.2,3.4-11.9c1.6-5,2.6-9,3.1-12c0.8-5,0.4-9.4-1.3-13.2c-1.8-4.1-4.9-7.2-9.2-9.3
		c-3.5-1.7-7-2.7-10.6-3C142.6,82.7,144.5,85.1,145.8,87.6 M123.2,75.9c-0.2,0.9-0.6,1.7-1,2.4l2.4,3.3l3.3-3.5
		C127.3,77.1,125.7,76.3,123.2,75.9 M132.8,80.8c1.4-0.7,2.7-1.2,3.9-1.4l-0.1-0.4c-1.4-1.2-2.7-1.8-3.9-1.8c-0.7,0-1.4,0.4-2.1,1
		c-0.6,0.5-0.9,0.8-0.9,1l-0.1,0c-0.6,0.9-1.9,2.2-3.9,4.1l0.9,1.3L132.8,80.8 M95.8,91.3c-1.6,1.4-3.2,3-4.7,4.8
		c-2.4,2.9-4.1,5.8-5.2,8.8c-1.1,3-1.8,7.4-2,13c-0.1,3.4,0,7,0.2,10.6c1,0.5,2.1,0.9,3.2,1.1l4.9,0.6l0.2-1.4
		c0.4-4.1,0.8-7.1,1.2-8.9l0.3-1.7l21.5,0.6l2.5,9.6l12.8-2.8c-0.8-4.6-2.1-9.5-4-14.8c-6.7-2-12.5-6.1-17.4-12.2l3.3,10.1l-13.9,1
		l-1.9-0.1v-1.9c0-3.3,0.6-6.2,1.9-8.7c0.6-1.2,1.3-2.2,2.1-2.8l0.7-0.6l6.1,0.7l-2.6-4.1L95.8,91.3 M93.9,87.6L93.9,87.6l-9.6-3.9
		c-2.1-0.6-4.2-0.2-6.5,1.1L75,87.2c-6.8,4.8-11.8,8.9-15,12.4c-4.7,5.1-6.9,9.8-6.5,14.1c0.4,3.6,3,8,7.9,13.3
		c3.1,3.3,6.6,6.6,10.8,9.9c-0.1-2.8,0.5-5,1.8-6.6c0.9-1,2-1.6,3.2-1.9c-0.9-2-2.4-4.8-4.5-8.5l-4.6-8.3c-0.1-0.2-0.2-0.5-0.1-0.7
		l0.4-0.6c0.5-0.3,0.9-0.3,1.3,0.1l3.2,3.7l5.2-4l-0.2-5.9c-0.3-3.8-0.3-5.7-0.2-5.7l0.7,1.2l0.5,1.2l1.5,11.3
		c0.4-3.6,1-6.5,1.8-8.6c1.4-3.9,3.8-7.7,7-11.3C90.8,90.3,92.4,88.8,93.9,87.6 M96.1,79.6c-2.2-2.5-3.7-3.7-4.7-3.6
		c-0.7,0.1-1.1,0.3-1.2,0.6c-0.1,0.3-0.1,0.6,0.1,1.1c0.1,0.4,0.2,0.8,0.4,1.1c0.3,0.6,0.2,1-0.3,1.3l-0.8,0.2l-0.6-0.4
		c-0.6-0.8-1.5-1.5-2.7-2c-2.3-1.1-4.9-1.1-7.7,0.1c-2.2,0.9-3.7,2.2-4.2,3.8c-0.5,1.3-0.5,2.6,0.1,3.8v0.1c1.8-2,3-3.3,3.8-3.9
		c2.2-1.6,4.3-2,6.5-1.3c0.6,0.2,1.5,0.8,2.8,1.8l3.1,1.9c4.9,2,8.7,3.3,11.3,3.9l0.8,0.1l-1.5-3.8C98.8,83.3,97.1,81.7,96.1,79.6
		 M97,59.1l-0.1-0.2l-5.6-2.1c-0.8-0.2-1.2,0-1.2,0.6c0,0.7,0.2,1.1,0.7,1.2l3,1.9C94.5,58.7,95.5,58.2,97,59.1 M113.9,71.1l-2,2.3
		c-3.2,2.7-7.1,3.8-11.8,3.2l-0.1,0.2c1.7,8.4,5.3,15.6,10.9,21.6c6,6.5,13.1,10.1,21.2,10.9c0.4,0,0.7,0.5,0.9,1.5
		c0.2,1,0.2,1.4-0.1,1.4l-1.7-0.2c1.7,5.1,2.9,10,3.6,14.8l0.4-0.1c0.8-5.1,2.3-10.6,4.6-16.4l0.1,0.1l5.2-13.6
		c2.2-5.7-0.4-11.1-8-16.2l-1.7,1.1c-1.2,0.4-3.1,1.5-5.7,3.1L128,86c1.9,0.1,3.5,1.2,4.6,3.2c0.2,0.9,0.2,1.2,0,0.9
		c-1.1-1.9-2.6-2.9-4.5-3c2,3.8,2.7,7.1,2.1,9.8c-0.1,0.4-0.3,0.2-0.6-0.6c-0.4-0.8-0.5-1.4-0.5-1.8c0.3-1.8-0.2-4-1.7-6.6l-4.1-5.8
		c-2.1-2.9-4.8-6.1-8-9.6L113.9,71.1 M120.9,52.1c-1,1.4-2.2,2.4-3.7,3.1c-1.4,0.7-2.8,0.8-4.2,0.5l3.6,4.1l0.4,0.8l1.1,1.1
		c0.9,1.1,1.4,2.4,1.6,3.9c0.2,1.7,0,2.9-0.8,3.8c-0.6,0.8-1.7,1.3-3.2,1.6l3.6,4.1c3.5-1.9,6.6-4.5,9.4-7.7c2.9,1,5.3,0.3,7.2-2.1
		c2-2.4,1.9-4.8-0.1-7.2c-0.3-0.7-0.1-1.1,0.6-1.2v-0.2c-1.3-0.8-2.9-1.6-4.7-2.4l0.4,0.5c0.4,0.6,0.5,1.2,0.4,1.7
		c-0.1,0.5-0.3,0.7-0.7,0.6c-0.4-0.1-0.6-0.3-0.5-0.6c0-0.3-0.1-0.7-0.5-1.2l-0.5-0.7c-0.3-0.3-0.3-0.6,0-0.9
		c-2.3-1-4.1-1.6-5.6-1.9c-0.6-0.1-1.3-0.1-2.2,0C121.7,51.6,121.1,51.8,120.9,52.1 M114.9,46.3c-0.2-0.7-0.2-1.6,0.1-2.4
		c0.4-1.4,1-2.4,1.8-2.8c-1,0-2,0.3-3,1.1c-1,0.8-1.8,1.9-2.4,3.2c-0.7,1.6-0.9,3.1-0.6,4.7c0.3,1.5,1.1,2.5,2.2,2.9
		c1.2,0.5,2.4,0.3,3.7-0.4c1.3-0.8,2.3-2,2.9-3.6c0.7-1.6,0.9-3.1,0.6-4.6c-0.3-1.5-1-2.5-2.1-3c0.6,0.8,0.7,1.9,0.3,3.3
		c-0.2,0.9-0.6,1.7-1.2,2.2c-0.5,0.6-1,0.8-1.5,0.7C115.4,47.5,115.1,47,114.9,46.3 M103.4,46.5c-0.5-0.7-1-1.1-1.5-1.2
		c-0.6-0.1-1,0.4-1.2,1.4c-0.2,1.2,0.2,3.1,1.1,5.7l1.1,2.7c0.5,1.3,0.5,2.3,0.2,2.8l-0.2,0l-0.9-0.6l-0.9-0.8
		c-1.1-0.7-2-0.5-2.6,0.6c-0.6,1-0.7,2.1-0.2,3.3c0.4,1.9,0.4,2.6-0.1,2.1c-1.1-1-2-1.1-2.8-0.4c-0.7,0.7-1.1,1.7-1.1,3.1
		c0,1.6,0.5,3.1,1.3,4.7c0.9,1.6,1.9,2.8,3.2,3.8l0.2-0.1c2.8,0.4,5.4,0.2,7.8-0.6c2.7-0.9,4.8-2.5,6.1-4.8l0.2-0.1l2.1-0.2
		c0.8-0.1,1.5-0.3,2-0.6c0.9-0.6,1.3-1.3,1.2-2.2c-0.1-0.8-0.6-1.5-1.4-2.2l-3.3-2.9l-0.2-0.4c-0.1-0.1-0.2-0.1-0.3,0
		c-0.4,0.3-0.8,0.8-1.1,1.6l0.1,0.1l0.2,0.1c2,2.1,2.7,3.7,2.1,4.8l-0.1,0.1c-1-0.1-1.9-1.2-2.8-3.3l-1.6-4.4
		C107.5,53.2,105.4,49.2,103.4,46.5 M104.1,44.9l0.5,0.9c1.8,2.8,3.2,5.5,4.2,7.9l1.8,4.4h0.3l0.1-0.1c0.3-0.8,0.7-1.2,1.1-1.4
		l-0.2-1.3v-0.1c-1.5-0.7-2.6-1.9-3.2-3.6c-0.7-1.7-0.8-3.5-0.3-5.5l0-1.4l-0.4-1.3l-1.8-1.2L104.1,44.9 M104.6,41.9
		c-0.7,0-1.5,0.2-2.4,0.6l0.9,1L104.6,41.9 M89.1,42.1c-0.7,1.6-0.8,3.2-0.5,4.6c0.3,1.5,1.1,2.5,2.2,3s2.4,0.4,3.7-0.4
		c1.3-0.8,2.3-2,3-3.6c0.8-1.9,0.9-3.6,0.4-5.2c-0.3,0.8-0.7,1.5-1.2,2c-0.5,0.5-1,0.7-1.4,0.6c-0.5-0.1-0.8-0.6-1-1.3
		c-0.2-0.7-0.1-1.5,0.1-2.4l0.5-1.4c-1.1-0.2-2.2,0.1-3.3,0.9C90.5,39.5,89.7,40.6,89.1,42.1 M94.2,27.6c-0.8-0.4-1.4-1-2-1.8
		c-0.5-0.8-1.1-0.8-1.7-0.1c-0.6,0.7-1,1.7-1.1,3.1c0,0.8,0.2,2.1,0.7,3.6L94.2,27.6 M137.7,34.1c-0.3-2.2-1.4-3.4-3.2-3.6
		c-2-0.1-3.5-0.1-4.5-0.1c-1.1,0.1-1.9,0.1-2.6,0c-1-0.2-1.7-0.7-2.1-1.5c-1-1.8-2.2-3.1-3.7-3.9c-1.4-0.8-2.8-1-4.2-0.6l-3.2,0.6
		c-1.1,0-2.1-0.3-3-0.9l-1.5-1.2c-1-0.7-1.9-0.9-2.6-0.7c-0.6,0.2-1.8,1-3.7,2.6l-3.1,2.4c-1.5,0.8-3,1.2-4.3,1.1
		c-1.6,1.2-3.4,3.2-5.2,6c-1.4,2.2-2.5,4.1-3.3,5.9c-2.7,6.3-3.3,12.9-1.8,19.8c1.5,7.1,4.9,12.7,10.2,16.6c1.1,0.8,2.4,1.6,3.8,2.4
		l-0.5-2.4c-1.6-1.3-3-2.9-4.1-5c-1.1-2.1-1.7-4.1-1.8-6.1c-0.1-1.2,0-2.4,0.2-3.5l-2.5-2.4l-0.7-0.1L89.8,60l-0.1,0.4l-0.2,0.4
		l-0.3-0.4l-1.3-3.7c-0.1-0.2-0.1-0.5,0-0.9l0.4-0.7l2.3-1.8l0.4-0.1l0.1,0.4l-0.2,0.7c-0.1,0.3,0,0.5,0.1,0.8l0.5,0.5l5.2,2.1
		c-0.1-0.9,0-1.9,0.2-2.9c0.3-1,0.8-1.6,1.6-1.8s1.6,0.1,2.4,0.8l0.5,0.5l-1.9-2.1l-1.3-3.4c-1.1,1.5-2.5,2.5-4.1,3.1
		c-1.6,0.6-3.1,0.5-4.5-0.1c-0.9-0.4-1.7-1.1-2.3-1.9c-0.8-1.2-1.2-2.7-1-4.5c0.1-1.4,0.6-3,1.2-4.6c0.6-1.5,1.3-2.5,1.9-3.1
		c1.2-1.2,2.5-1.9,4-2.2c1.4-0.3,2.7-0.2,3.7,0.3c1.2,0.7,2,1.6,2.6,2.9l0.8,0.8l1.1,0.2c1-0.4,2-0.5,3-0.5l1.5,0.3l0.7-0.6l0.5-0.1
		l0.2,0.4l-0.2,0.6l-0.1,0.1l1.6,0.9l1.4,0.1c0.7-0.1,1.2-0.3,1.5-0.6c0.6-0.5,1.6-1,3-1.4l4.2-0.2c2.6,1.1,3.9,3.3,3.9,6.5
		c0,0.5,0.3,1.2,0.9,2.1c0.6,0.9,1.2,1.5,1.8,1.7c1.9,0.5,3.9,1.2,6,2.1l-0.7-0.6c-0.3-0.3-0.4-0.7-0.2-0.9c0.2-0.3,0.4-0.4,0.7-0.3
		l0.1,0.1c0.8,0.6,1.5,1.3,2,2.2l0.3,0.6l2.3,1.2l-1.8-3.7c-0.5-0.8-1.2-1.6-2-2.4c-0.4-0.4-0.6-0.8-0.4-1.2
		c0.1-0.4,0.4-0.5,0.8-0.2c0.8,0.5,1.7,1.5,2.7,3.1c0.9,1.5,1.6,3.2,2.2,5.3l0.8,0.5l0.1-0.1c-0.8-3.3-1.8-5.9-2.9-7.7l-1.9-2.9
		l-1.1-1.2c-0.3-0.3-0.3-0.6-0.1-0.8c0.2-0.3,0.6-0.3,0.9,0c0.6,0.4,1.7,1.8,3.2,4.4c1.2,2.3,2,4.7,2.4,7.2c0.7-3.1,0.1-6.1-1.9-9.1
		c-0.8-1.2-2.1-2.7-3.9-4.3c-0.4-0.3-0.4-0.6-0.1-0.9c0.2-0.2,0.4-0.3,0.6-0.3C136.7,38,138,36.4,137.7,34.1 M123.3,39.1
		c-0.2,0-0.6-0.4-1.3-1l-1.8-1.6l-2.4-1.8c-0.1-0.2,0.2-0.6,0.8-1.1l0.9-0.8c0.2-0.3,0.5-0.4,0.9-0.3l0.4,0.2l1.7,2.5
		C123.4,37.1,123.7,38.4,123.3,39.1 M96.6,30.9l4.1-1.5l0.6,0c0.4,0.1,0.6,0.3,0.5,0.8l-0.1,0.9c0,0.3-0.1,0.6-0.4,0.8
		c-0.2,0.2-0.5,0.3-0.9,0.2l-3.8-0.6l-0.1-0.1c-0.3,0-0.4-0.1-0.4-0.2L96.6,30.9 M127.6,11.5c-1.3-1.4-2.5-2.2-3.4-2.3
		c-0.8-0.1-2.4,1-4.7,3.3l-2.2,1.9c-0.7,0.4-1.7,0.3-2.8-0.4c-1.5-0.9-2.8-1.3-3.8-1.3c-1.2,0-3.6,1.4-7.3,4.1
		c-1.3,0.9-2.6,1.3-4,1.1c-1.4-0.1-2.6-0.8-3.5-1.9c-0.7-0.8-0.8-1.8-0.4-3c-1.1,0.7-1.9,1.5-2.5,2.4c-0.8,1.3-1.2,2.9-1.2,4.8
		c0,1.9,0.5,3.6,1.4,5.1c0.7,1,1.6,1.5,2.8,1.6c1.1,0,2.3-0.3,3.5-0.9l3-2.4c1.9-1.5,3.3-2.4,4-2.6l2.9-0.1c0.3,0.1,0.9,0.6,1.9,1.3
		l1.2,1c0.4,0.3,1,0.4,1.8,0.2l6.5-2.2c1.3-0.3,2.8,0.9,4.3,3.6l2.8,4.6l7.2-0.6c2.2,0.2,3.7,1,4.6,2.6c0.6,1.1,0.9,2.4,0.8,3.9
		c-0.1,1-0.7,1.9-2,2.9c-1,0.8-2.1,1.4-3.2,1.9l3.1,4c1.5,2.4,2.3,5,2.2,7.9c1-1.6,2-3.5,2.9-5.8c1.8-4.5,2.4-8.3,1.8-11.4
		c-0.3-1.7-0.8-3.4-1.5-5.2c-0.9-2.3-2-3.9-3.1-4.7l-2.1-4.2c-1.1-2.4-2.6-3.9-4.4-4.6c-1.1-0.4-2.5-1.1-4.1-2.1l-1.3-1.2
		L127.6,11.5 M173.1,138.7c-0.4-4.2-0.3-10.3,0.1-18.2l0.4-9.5c0-3.6-0.4-6.7-1.1-9.4c-0.9-3.6-2.3-7-4.2-10c-2.1-3.4-4.6-6-7.4-7.9
		c-4.2-2.7-9-4.1-14.5-4.2c3.7,1.2,6.8,2.9,9.1,5.1c2.9,2.6,5,5.9,6.1,10c1.1,3.7,1.3,7.7,0.8,11.9c-0.4,3-1.4,6.9-2.9,11.8
		c-1.8,5.8-2.9,9.7-3.4,11.6c-1,4.4-1.6,7.9-2.1,10.7c-0.5,4-0.7,7.6-0.4,10.8c0.6,7.6,5.1,12.9,13.6,15.9
		c6.6,2.4,14.3,3.1,23.1,2.2c-5.3-3.7-9.4-8.2-12.4-13.6C175.3,151.2,173.7,145.5,173.1,138.7z"/>
</g>
</svg>
