<?xml version="1.0" encoding="utf-8"?>
<!-- Generator: Adobe Illustrator 25.4.1, SVG Export Plug-In . SVG Version: 6.00 Build 0)  -->
<svg version="1.1" id="ActionBoy_x2C_PerkClip_x5F_4d869" image-rendering="auto"
	 xmlns="http://www.w3.org/2000/svg" xmlns:xlink="http://www.w3.org/1999/xlink" x="0px" y="0px" viewBox="0 0 240 240"
	 style="enable-background:new 0 0 240 240;" xml:space="preserve">
<style type="text/css">
	.st0{fill:#FFFFFF;}
</style>
<g>
	<rect width="240" height="240"/>
	<path class="st0" d="M83.1,192.8c-5.3,0-10.8-2.4-16.4-7.1c-1.8,9.1-3.5,17-5,23.5l-0.6,0.7c-4.8,2.3-8.7,4.3-11.9,6.1
		c-3.5,2.1-5.4,3.5-5.7,4.4c0.4,0.9,2.7,1.7,6.9,2.5l8.5,0.7c2.3-0.4,4.3-1.1,6-2.3l2.2-1.4l6.1-1.2c1.1-0.4,1.7-0.8,1.7-1.3
		l-0.4-9.2l0-0.6c0.1-0.3,0.9-1.5,2.2-3.5C78.8,201,80.8,197.2,83.1,192.8 M128.4,193.5c0.3,1.6,0.7,2.9,1.1,3.9
		c0.6,1.7,1.6,3.5,2.9,5.5c1.8,2.7,3.6,5.1,5.3,7.2c0.9,1.2,1.3,2.5,1.3,4.1c0,2.6,0.1,4.2,0.4,5.1c0.6,1.8,1.9,3.2,4.1,4.1l4.9,2.5
		c2.4,1.4,4.3,2.3,5.5,2.8c2.1,0.8,4,1.2,5.9,1.1c2.2-0.1,3.4-0.5,3.8-1c0.3-0.4,0.1-1.6-0.4-3.6l-0.2-0.8c-0.3-1.2-2.1-3.1-5.3-5.8
		c-2.6-2.1-5.4-4.2-8.4-6.1l-0.4-0.6l-5.3-27.6c-2.3,2.5-5.2,4-8.9,4.6c-2.6,0.4-5.1,0.4-7.7-0.1C127.5,189.8,128,191.5,128.4,193.5
		 M105.1,130.8c3,0,6.1-0.3,9.4-1.1l-2-6.6l-15.2-0.5l-1.1,7.9L105.1,130.8 M134.3,138.2c-0.2,0-0.4-0.3-0.5-0.7l-0.2-1.1
		c-4.5,1.8-8.2,4.1-11.1,6.8c-5.2,4.9-8.8,11.7-10.7,20.3l5.9,9.9c3.8,6.2,6.4,10.6,7.8,13.2l0.1-0.2l1.9,0.4l4.7,0.2
		c4.9-0.4,8.6-2.8,11.2-7.1c-0.3-8.9-1.9-18.1-4.6-27.6L134.3,138.2 M134.4,133.9l0.2-2.4l-8.8,2.2c-7.1,1.7-13.3,2.6-18.5,2.8
		l-14.7-0.6l-7.6-1.3c1.3,7.5,4.3,14.3,9.1,20.4c2.6,3.3,5.4,6.1,8.3,8.2h6.3c1.1-9.8,5.4-17.4,13-23.1
		C124.7,137.9,128.9,135.9,134.4,133.9 M78.1,151l-7.2,20.2c-1.7,4.6-2.9,8.5-3.5,11.6c2.2,2.1,4,3.6,5.6,4.6
		c3.7,2.4,7.4,3.5,11.2,3.3c3.1-6.1,6.4-11.5,9.9-16.1c1.9-2.5,4.2-5.3,6.9-8.4c-3.3-2.4-6.6-5.7-9.8-9.8c-5-6.3-8.3-12.9-10-19.8
		C80.9,140.8,79.9,145.6,78.1,151 M74.2,138.8c0.8,1.7,1.7,3.2,2.7,4.5l1.7-11.2l-0.6-1.8c-1,0.2-1.9,0.7-2.5,1.4
		C74.3,133.2,73.8,135.6,74.2,138.8 M145.4,87.9c1.8,3.2,2.4,6.3,1.9,9.4l-6.5,17.4c-1.3,5.1-2.3,10.2-2.9,15.1l-0.6,7l0.1,0.2
		c4.9,2.3,9.9,7.3,15,15.1c-0.2-0.9-0.3-1.9-0.3-3.1c-0.2-5.2,0.5-11.6,2.1-19.2c0.5-2.3,1.6-6.2,3.4-11.9c1.6-5,2.7-9,3.2-12
		c0.8-5,0.4-9.4-1.3-13.2c-1.8-4.1-4.9-7.2-9.2-9.3c-3.8-1.8-7.6-2.9-11.4-3.1C141.7,82.8,143.9,85.2,145.4,87.9 M123.2,75.9
		l-0.2,0.4l2.8,4.1l2.1-2.3C127.3,77.1,125.8,76.3,123.2,75.9 M132.7,80.9c1.4-0.7,2.6-1.2,3.9-1.5l0.1-0.4
		c-1.4-1.3-2.7-1.9-3.9-1.9c-0.7,0-1.4,0.4-2.1,1l-0.9,1v0l-2.8,3l0.9,1.6L132.7,80.9 M93.9,87.6l0.1-0.1l-9.7-3.8
		c-2.1-0.6-4.2-0.2-6.6,1.1L75,87.2c-6.8,4.8-11.8,8.9-15,12.4c-4.7,5.1-6.9,9.8-6.4,14.1c0.4,3.6,3,8,7.9,13.3
		c3,3.3,6.6,6.6,10.7,9.9c-0.1-2.8,0.5-5,1.9-6.6c0.8-1,1.9-1.6,3.2-1.9l-9.2-16.8c-0.1-0.2-0.2-0.5-0.1-0.7l0.4-0.6
		c0.2-0.2,0.4-0.2,0.7-0.2c0.3,0,0.5,0.1,0.6,0.3l3.2,3.7l5.3-4l-0.2-5.9c-0.2-3.9-0.3-5.8-0.2-5.7l0.7,1.2l0.5,1.2l1.5,11.3
		c0.4-3.4,1-6.3,1.8-8.6c1.5-3.9,3.8-7.7,7.1-11.3C90.9,90.3,92.4,88.8,93.9,87.6 M95.8,91.3c-1.6,1.4-3.2,3-4.7,4.8
		c-2.4,2.9-4.1,5.8-5.2,8.8c-1.1,3-1.8,7.4-2,13c-0.1,3.4,0,7,0.2,10.6c1,0.5,2.1,0.9,3.2,1.1l5,0.6l0.1-1.4
		c0.4-3.8,0.8-6.8,1.2-8.9l0.3-1.7l21.5,0.6l2.5,9.6l12.7-2.8c-0.8-4.6-2.1-9.6-4-14.9c-8.2-2.9-15-9-20.2-18.4L95.8,91.3
		 M101.4,95.8l6.8,0.8l0.5,0.9c0.7,1.6,1.8,4.6,3.2,9.1l0.7,2.3l-13.8,1l-2-0.1v-1.9c0-3.3,0.7-6.2,1.9-8.7c0.7-1.2,1.4-2.2,2.1-2.8
		L101.4,95.8 M105.6,100.2l-2.6-0.3c-1.1,1.6-1.8,3.5-2.1,5.9l6.5-0.4L105.6,100.2 M96.1,79.6c-2.2-2.5-3.8-3.7-4.8-3.6
		c-0.6,0.1-1,0.3-1.2,0.6c-0.2,0.5-0.1,1.2,0.4,2.2l0.2,0.8l-0.4,0.6c-0.5,0.4-1,0.3-1.4-0.2c-0.6-0.8-1.5-1.5-2.6-2
		c-2.3-1.1-4.9-1.1-7.7,0.1c-2.3,1-3.7,2.2-4.2,3.8c-0.5,1.3-0.4,2.6,0.2,3.8v0.1c1.8-2,3-3.3,3.8-3.9c2.1-1.6,4.3-2,6.4-1.3
		c0.6,0.2,1.5,0.8,2.9,1.8c1.4,1,2.4,1.7,3,1.9c4.9,2,8.7,3.3,11.3,3.9l2.4,0.2l-1.4-3.3C99.6,84,97.3,82.2,96.1,79.6 M93.2,60.1
		l0.1-2.6l-1.9-0.8c-0.8-0.2-1.2,0-1.2,0.6c0,0.7,0.3,1.1,0.7,1.2L93.2,60.1 M115.9,68.6l-2.1-2.7c0.2,0.3-0.2,0.9-1.2,1.9
		c-3.2,3.1-7.3,4.3-12.4,3.8v0.2c1.8,9.7,5.3,17.9,10.5,24.6c6,7.8,13.5,12.2,22.4,13.2c0.4,0,0.7,0.5,0.8,1.5
		c0.2,1,0.1,1.4-0.1,1.4l-2.4-0.3c1.8,5.3,3,10.2,3.6,14.8l0.3-0.1c0.5-3.1,2.1-8.3,4.8-15.6l5.2-13.3c2.2-5.7-0.4-11.1-8-16.2
		l-0.4-0.8l-1.3,0.8c-1.2,0.5-3.1,1.5-5.7,3.1l-0.9,0.6l0.8,1.4c1,0,2,0.3,2.9,0.9c0.9,0.6,1.6,1.4,2.1,2.4c0.2,0.9,0.2,1.2,0,0.9
		c-0.5-0.9-1.1-1.6-1.9-2.1c-0.8-0.6-1.7-0.9-2.6-0.9c1,2.4,1.6,4.5,1.9,6.4c0.1,0.9-0.1,1-0.4,0.4c-0.4-0.6-0.6-1.1-0.7-1.6
		c-0.2-1.6-0.8-3.3-1.8-5.2l-0.1-0.2l-4.6-7.3C122,77,119.2,73,115.9,68.6 M109.8,51.1l1.1,2.6l0.5-1.2
		C110.8,52.2,110.3,51.7,109.8,51.1 M118.1,56.6c0.8,1,1.4,2.3,1.6,3.9c0.2,1.7,0,3-0.8,3.9c-0.7,0.8-1.8,1.3-3.3,1.5l5.7,7.8
		c2.7-1.8,5.2-3.9,7.4-6.4c2.9,1,5.3,0.3,7.2-2.1c2-2.4,2-4.8,0-7.2c-0.3-0.7-0.1-1.1,0.6-1.2l-5.4-3.6c-2.5-1.4-4.7-2.5-6.4-3.1
		l-2.2-0.1c-0.9,0-1.4,0.2-1.7,0.4c-1.8,2.1-3.9,3.1-6.3,3.2L118.1,56.6 M132.6,56.3c-0.1,0.5-0.3,0.7-0.7,0.6
		c-0.4-0.1-0.6-0.3-0.5-0.6c0-0.3-0.1-0.7-0.4-1.2l-0.6-0.7c-0.3-0.3-0.3-0.5,0-0.8l0.8-0.1l1,1.2C132.5,55.3,132.6,55.9,132.6,56.3
		 M101.2,48.6l-0.1,0.5l0.4,0.4L101.2,48.6 M120.8,42.4c-0.2-1.5-0.8-2.6-1.9-3.2l-3.7,0.1c-1.4,0.7-2.5,1.8-3.3,3.3
		c-0.8,1.5-1.2,3.1-1,4.6c0.2,1.5,0.8,2.6,1.9,3.2l3.8-0.1c1.4-0.7,2.5-1.8,3.3-3.3C120.7,45.5,121,43.9,120.8,42.4 M117.7,41
		c0.5,0.1,0.8,0.6,1,1.3c0.2,0.7,0.2,1.6-0.1,2.4c-0.2,0.9-0.6,1.6-1.1,2.2c-0.5,0.6-1,0.8-1.5,0.7c-0.5-0.1-0.8-0.6-1-1.3
		c-0.2-0.7-0.1-1.6,0.1-2.4c0.2-0.9,0.6-1.6,1.1-2.2C116.7,41.1,117.2,40.9,117.7,41 M103.5,41.5c-0.6-0.9-1.2-1.3-1.8-1.2l-0.9,1.4
		c-0.2,1.2,0.2,3.1,1.1,5.6l1.1,2.7c0.5,1.3,0.5,2.3,0.2,2.8l-0.2,0l-1-0.6l-0.8-0.8c-1.1-0.7-2-0.5-2.6,0.6c-0.6,1-0.7,2.1-0.2,3.3
		c0.5,1.9,0.4,2.6-0.1,2.1c-1.1-1-2-1.1-2.8-0.4c-0.7,0.7-1.1,1.7-1.1,3.1c0,1.6,0.4,3.1,1.3,4.7c0.8,1.6,1.9,2.8,3.2,3.8l0.3-0.1
		c2.8,0.4,5.4,0.2,7.8-0.6c2.7-0.9,4.8-2.5,6.1-4.8l0.1-0.1l2.1-0.2c0.8-0.1,1.5-0.3,2-0.6c0.9-0.6,1.3-1.3,1.1-2.2
		c-0.1-0.8-0.6-1.6-1.4-2.2l-3.3-2.9l-0.2-0.4c0-0.1-0.1-0.1-0.3,0c-0.4,0.3-0.8,0.8-1.1,1.6l0,0.1l0.2,0.1c1.9,2.1,2.6,3.7,2,4.8
		l-0.1,0.1c-1-0.1-2-1.2-2.8-3.3l-1.7-4.4C107.7,48.4,105.6,44.3,103.5,41.5 M106.5,39.6l0.6-0.5c-0.4-0.3-0.9-0.4-1.5-0.6l-2.3,0.2
		l1.7,2.8L106.5,39.6 M109,41.7l-0.3-1.3l-0.9-0.9l-0.2,0.5l-1.8,2.8l2.7,5.2c-0.3-1.6-0.1-3.2,0.4-4.9L109,41.7 M89.7,47.1
		c-0.7-0.4-1.3-1-1.8-1.8c-0.7-1-1-2.2-0.9-3.6c-2.2,6.2-2.6,12.6-1.1,19c1.6,6.8,4.9,12,10,15.8c1.6,1.2,3.4,2.2,5.2,3.1
		c-0.8-2.7-1.5-5.4-2-8.1c-1.4-1.1-2.6-2.5-3.7-4.2c-1-1.7-1.7-3.5-2-5.3l-2.5-2.3l-0.6-0.1L89.9,60l-0.1,0.4
		c-0.2,0.6-0.3,0.6-0.6,0.1l-1.3-3.7c-0.1-0.2-0.1-0.5,0-0.9l0.4-0.7l2.3-1.8l0.5-0.1l0,0.4L91,54.5c-0.1,0.3,0,0.5,0.1,0.8l0.6,0.5
		l1.8,0.8c0.3-1.2,0.7-2.1,1.2-2.5c0.6-0.6,1.4-0.6,2.3,0c-0.3-1.5-0.2-2.8,0.2-4.1c0.2-0.8,0.5-1.3,1-1.6c-0.1-0.5,0.1-1,0.5-1.3
		l1.8-1.3l-0.6-2.5c-1.3,1.9-2.8,3.2-4.8,3.9C93.1,48,91.3,47.9,89.7,47.1 M99,36.9c-0.2-1.5-0.8-2.6-1.9-3.2l-3.8,0.1
		c-1.4,0.7-2.5,1.8-3.3,3.3c-0.8,1.6-1.2,3.1-0.9,4.6c0.2,1.5,0.8,2.6,1.9,3.2l3.7-0.1c1.4-0.7,2.5-1.8,3.3-3.3
		C98.9,39.9,99.2,38.4,99,36.9 M95.6,37c0.5-0.6,1-0.8,1.5-0.6c0.5,0.1,0.8,0.6,1,1.3c0.2,0.7,0.2,1.6-0.1,2.5
		c-0.2,0.9-0.6,1.6-1.1,2.2c-0.5,0.6-1,0.8-1.5,0.6c-0.5-0.1-0.8-0.6-1-1.3c-0.2-0.7-0.2-1.5,0.1-2.4C94.7,38.3,95.1,37.5,95.6,37
		 M94.2,27.6c-0.7-0.3-1.4-0.9-2-1.8c-0.5-0.8-1.1-0.8-1.7-0.1c-0.6,0.7-0.9,1.7-1,3.1c-0.1,0.7,0.2,1.9,0.7,3.6L94.2,27.6
		 M137.8,34.1c-0.3-2.2-1.4-3.4-3.2-3.6c-2-0.1-3.4-0.1-4.4-0.1c-1.1,0.1-2,0.1-2.6,0c-1-0.2-1.7-0.7-2.1-1.5
		c-1-1.8-2.2-3.1-3.7-3.9c-1.4-0.8-2.8-1-4.2-0.6l-3.2,0.6c-1.1,0-2.1-0.3-2.9-0.9c-1.6-1.6-3-2.3-4.1-1.9c-0.6,0.2-1.8,1-3.7,2.6
		l-3.1,2.4c-1.5,0.8-3,1.2-4.3,1.1c-1.2,0.9-2.4,2.2-3.8,3.9c1.3-0.7,2.6-1.1,3.9-1l0.4-0.2l4.2-1.5l0.5,0c0.4,0.1,0.6,0.3,0.6,0.8
		l-0.1,0.9l-0.4,0.8c-0.2,0.2-0.5,0.3-0.8,0.2l-1.6-0.2c1.1,0.8,1.8,1.8,2.2,3.1l0.8,0.9c0.4,0.3,0.8,0.5,1,0.4L106,36
		c1.5,0.2,2.8,0.9,4,2.1l1.4,0.2c0.7-0.1,1.2-0.2,1.5-0.4c0.7-0.5,1.7-0.9,3.1-1.2c1.8-0.4,3.2-0.3,4.2,0.2c1.6,0.9,2.6,2.2,3.1,3.9
		c0.2,0.7,0.2,1.7,0.2,2.9c0,0.5,0.2,1.2,0.7,2.1c0.5,1,1.1,1.6,1.6,1.8c1.8,0.7,3.4,1.5,4.9,2.3c0-0.2,0.1-0.4,0.2-0.5l0.5-0.1
		l0.2,0.1l1.9,2.1l2.6,1.6l-1.8-3.5c-0.5-0.8-1.1-1.6-2-2.4c-0.4-0.4-0.6-0.8-0.4-1.2c0.2-0.4,0.4-0.5,0.8-0.2
		c0.8,0.5,1.7,1.5,2.7,3.1c0.9,1.4,1.7,3.2,2.3,5.5l0.2,0.2v0.6l0.1,0.2l0.5-0.8c-0.8-3.4-1.8-5.9-2.9-7.7l-3-4.1
		c-0.3-0.3-0.3-0.6-0.1-0.8c0.3-0.3,0.6-0.3,1,0c0.7,0.4,1.7,1.9,3.1,4.4c1.1,2.1,1.9,4.6,2.4,7.2c0.7-3,0.1-6.1-1.9-9.1
		c-0.8-1.2-2.1-2.7-3.9-4.3c-0.4-0.3-0.4-0.6-0.1-0.9l0.5-0.3C136.7,38,138.1,36.4,137.8,34.1 M123.3,39.1l-1.2-1l-1.8-1.6l-2.5-1.8
		c-0.1-0.2,0.2-0.6,0.8-1.1l0.8-0.8c0.3-0.3,0.6-0.4,0.9-0.3c0.2,0,0.3,0.1,0.4,0.2l1.7,2.5C123.4,37.1,123.8,38.4,123.3,39.1
		L123.3,39.1 M127.7,11.5c-1.3-1.4-2.5-2.2-3.5-2.3c-0.8-0.1-2.3,1-4.6,3.3l-2.2,1.9c-0.7,0.4-1.7,0.3-2.9-0.4
		c-1.5-0.9-2.8-1.3-3.8-1.3c-1.2,0-3.6,1.4-7.3,4.1c-1.3,0.9-2.6,1.3-4,1.1s-2.6-0.8-3.5-1.9c-0.6-0.8-0.8-1.8-0.4-3
		c-1.1,0.6-1.9,1.4-2.5,2.4c-0.8,1.3-1.2,2.9-1.2,4.8c0,2,0.5,3.7,1.4,5.1c0.6,1,1.6,1.5,2.8,1.6c1.1,0,2.3-0.3,3.5-0.9l3.1-2.4
		c1.9-1.5,3.3-2.4,4-2.6l2.8-0.1l3.1,2.3l1.8,0.2l6.4-2.2c1.3-0.3,2.8,0.9,4.4,3.6l2.8,4.6l7.2-0.6c2.1,0.2,3.6,1,4.6,2.6
		c0.6,1.1,0.8,2.4,0.8,3.9c-0.1,1-0.8,1.9-2,2.9c-1,0.8-2.1,1.4-3.2,1.9l3.1,4c1.5,2.4,2.3,5.1,2.2,7.9c1-1.6,2-3.5,3-5.8
		c1.8-4.5,2.4-8.3,1.8-11.4c-0.4-1.8-0.9-3.5-1.6-5.2c-0.9-2.3-1.9-3.9-3-4.7l-2.1-4.2c-1.1-2.4-2.6-3.9-4.4-4.6
		c-1.1-0.4-2.4-1.1-4.1-2.1l-1.3-1.2L127.7,11.5 M170.3,95.3l-3.2-4.8c-1.3-1.8-2.6-3.3-3.8-4.4c-2.3-2.1-5-3.8-8.1-4.9
		c-3-1.1-6.1-1.6-9.4-1.6c2,0.6,3.8,1.4,5.4,2.3c3.2,1.9,5.8,4.4,7.7,7.5c1.9,3.1,2.9,6.5,3.2,10.2c0.2,2.8,0,5.8-0.6,8.8
		c-0.5,2.4-1.2,5.3-2.4,8.6c-3.1,9.5-5.1,18-5.8,25.5c-0.4,3.7-0.5,6.8-0.2,9.2c0.4,3.3,1.3,6.2,2.9,8.8c2.9,4.6,7,8.3,12.3,11.2
		c5.5,3,11.1,5,16.8,5.9c-5-7.1-8.6-13.9-11.1-20.5c-2.2-5.8-3.1-10.8-2.9-14.9c0.1-2.5,0.9-5.7,2.4-9.5l3.2-9.3
		c1.7-7.2,1.3-13.5-1.3-19C174.4,101.7,172.6,98.7,170.3,95.3z"/>
</g>
</svg>
