<?xml version="1.0" encoding="utf-8"?>
<!-- Generator: Adobe Illustrator 25.4.1, SVG Export Plug-In . SVG Version: 6.00 Build 0)  -->
<svg version="1.1" id="ActionBoy_x2C_PerkClip_x5F_4d869" image-rendering="auto"
	 xmlns="http://www.w3.org/2000/svg" xmlns:xlink="http://www.w3.org/1999/xlink" x="0px" y="0px" viewBox="0 0 240 240"
	 style="enable-background:new 0 0 240 240;" xml:space="preserve">
<style type="text/css">
	.st0{fill:#FFFFFF;}
</style>
<g>
	<rect width="240" height="240"/>
	<path class="st0" d="M83.1,192.8c-5.3,0-10.8-2.4-16.4-7.1c-1.8,9.1-3.5,17-5,23.5l-0.6,0.7c-4.8,2.3-8.8,4.3-11.9,6.1
		c-3.5,2.1-5.4,3.5-5.6,4.4c0.4,0.9,2.7,1.7,6.9,2.5l8.5,0.7c2.3-0.3,4.4-1.1,6.1-2.3l2.2-1.4l6.2-1.2c1.1-0.4,1.6-0.8,1.6-1.3
		l-0.4-9.2l0.1-0.6l2.2-3.5C78.7,201.1,80.8,197.3,83.1,192.8 M134.4,188.8c-2.5,0.4-5.1,0.4-7.6-0.1c0.6,1.1,1.1,2.7,1.6,4.9
		c0.3,1.6,0.6,2.9,1,3.9c0.6,1.7,1.6,3.5,3,5.5l5.3,7.2c0.9,1.2,1.3,2.5,1.3,4.1c0,2.6,0.1,4.3,0.4,5.1c0.6,1.8,1.9,3.2,4.1,4.1
		l5,2.5c2.4,1.4,4.3,2.3,5.5,2.8c2.1,0.8,4,1.2,5.9,1.1c2.2-0.1,3.5-0.5,3.8-1c0.3-0.4,0.1-1.6-0.5-3.6l-0.2-0.8
		c-0.4-1.2-2.1-3.1-5.3-5.8c-2.6-2.2-5.4-4.2-8.4-6.1c-0.3-0.2-0.4-0.4-0.4-0.6l-5.3-27.6C141.2,186.7,138.2,188.2,134.4,188.8
		 M105.1,130.8c3,0,6.1-0.3,9.4-1.1l-2-6.6l-15.2-0.5l-1.1,7.9L105.1,130.8 M105.6,100.2l-2.7-0.3c-1.1,1.5-1.8,3.5-2.1,5.9l6.5-0.4
		L105.6,100.2 M134.1,137.6l0.1-1.5c-4.8,2-8.5,4.2-11.1,6.5c-5.5,5-9.3,11.9-11.2,20.9l5.9,9.9c3.8,6.2,6.4,10.6,7.8,13.2l0-0.2
		l2,0.4l4.7,0.2c4.8-0.4,8.6-2.8,11.1-7.1c-0.3-9.5-2-19.3-5-29.4C135.6,142.4,134.1,138.1,134.1,137.6 M134.4,133.9l0.3-2.4
		l-8.8,2.2c-7.1,1.7-13.3,2.6-18.5,2.8l-14.7-0.6l-7.5-1.3c1.3,7.5,4.3,14.3,9.1,20.4c2.6,3.3,5.4,6.1,8.3,8.2h6.3
		c1-9.8,5.4-17.4,13-23.1C124.6,138,128.8,136,134.4,133.9 M78.1,151l-7.2,20.2c-1.7,4.7-2.9,8.5-3.5,11.6c2.3,2.2,4.2,3.7,5.6,4.6
		c3.7,2.4,7.4,3.5,11.2,3.3c3.1-6.1,6.4-11.5,9.9-16.1c1.9-2.5,4.2-5.3,6.8-8.4c-3.3-2.4-6.6-5.7-9.8-9.8c-5-6.3-8.3-12.9-10-19.8
		C80.9,140.8,79.8,145.6,78.1,151 M74.2,138.8c0.8,1.8,1.7,3.3,2.7,4.5l1.7-11.2l-0.6-1.8c-1,0.2-1.8,0.7-2.5,1.4
		C74.2,133.2,73.8,135.6,74.2,138.8 M123.2,75.9c-0.2,0.9-0.6,1.7-1,2.4l2.5,3.3l3.2-3.5C127.3,77.1,125.8,76.3,123.2,75.9
		 M136.6,78.9c-1.4-1.2-2.7-1.8-3.9-1.8c-0.7,0-1.4,0.4-2.1,1l-0.9,1c-0.6,1-2,2.3-3.9,4.1l0.9,1.3c0.7-0.4,1.5-0.9,2.2-1.4l4-2.4
		c1.4-0.7,2.7-1.2,3.9-1.4L136.6,78.9 M95.8,91.3c-1.6,1.3-3.1,2.9-4.7,4.8c-2.4,2.9-4.1,5.8-5.2,8.8c-1.1,3-1.8,7.4-2,13
		c-0.1,3.4,0,7,0.2,10.6c1,0.5,2.1,0.9,3.2,1.1l5,0.6l0.1-1.4c0.4-4.1,0.8-7.1,1.2-8.9l0.3-1.7l21.5,0.6l2.5,9.6l12.8-2.8
		c-0.8-4.6-2.1-9.5-4-14.8c-6.7-2-12.5-6.1-17.4-12.2l3.3,10.1l-13.9,1l-1.9-0.1v-1.9c0-3.3,0.7-6.2,1.9-8.7
		c0.7-1.2,1.3-2.2,2.1-2.8l0.7-0.6l6.1,0.7l-2.7-4.1L95.8,91.3 M93.9,87.6L93.9,87.6l-9.6-3.9c-2.1-0.6-4.2-0.2-6.5,1.1L75,87.2
		c-6.8,4.8-11.8,8.9-15,12.4c-4.7,5.1-6.9,9.8-6.4,14.1c0.4,3.6,3,8,7.9,13.3c3.1,3.4,6.7,6.7,10.8,9.9c-0.1-2.8,0.5-5,1.8-6.6
		c0.9-1,2-1.6,3.2-1.9c-0.9-2-2.4-4.8-4.5-8.5l-4.6-8.3c-0.1-0.2-0.2-0.5-0.1-0.7l0.5-0.6c0.5-0.4,0.9-0.3,1.3,0.1l3.2,3.7l5.2-4
		l-0.2-5.9c-0.2-3.8-0.3-5.7-0.2-5.7l0.7,1.2l0.5,1.2l1.5,11.3c0.4-3.6,1-6.5,1.8-8.6c1.5-3.9,3.8-7.7,7.1-11.3
		C90.9,90.3,92.4,88.8,93.9,87.6 M96.1,79.6c-2.2-2.5-3.7-3.7-4.7-3.6c-0.6,0.1-1,0.3-1.2,0.6c-0.1,0.3-0.1,0.6,0,1.1
		c0.1,0.4,0.2,0.8,0.4,1.1l0.2,0.8l-0.4,0.6l-0.8,0.2l-0.6-0.4c-0.6-0.8-1.5-1.5-2.7-2c-2.3-1.1-4.8-1.1-7.7,0.1
		c-2.3,1-3.7,2.2-4.3,3.8c-0.5,1.3-0.4,2.6,0.1,3.8v0.1c1.8-2,3-3.3,3.8-3.9c2.2-1.6,4.3-2,6.5-1.3c0.6,0.2,1.5,0.8,2.8,1.8l3.1,1.9
		c4.9,2,8.7,3.3,11.3,3.9l0.8,0.1l-1.5-3.8C98.8,83.3,97.1,81.7,96.1,79.6 M97,59.1l-0.1-0.2l-5.6-2.1c-0.8-0.2-1.2,0-1.2,0.6
		c0,0.6,0.2,1,0.7,1.2l2.9,1.9C94.5,58.7,95.6,58.2,97,59.1 M113.9,71.1l-2,2.3c-3.2,2.7-7.1,3.8-11.8,3.2l-0.1,0.2
		c1.7,8.4,5.3,15.6,10.9,21.6c6,6.5,13.1,10.1,21.2,10.9c0.4,0,0.7,0.5,0.9,1.5c0.2,1,0.1,1.4-0.1,1.4l-1.6-0.2
		c1.7,5.2,2.9,10.1,3.5,14.8l0.4-0.1c0.7-4.5,4.1-14.5,9.9-29.9c2.2-5.7-0.4-11.1-8-16.2l-1.7,1.1c-1.2,0.4-3.1,1.5-5.7,3.1
		l-1.8,1.1c0.9,0.1,1.8,0.4,2.6,1.1c0.8,0.6,1.4,1.3,1.9,2.2c0.2,0.9,0.2,1.2,0,0.9c-0.5-0.9-1.1-1.6-1.9-2.1
		c-0.8-0.6-1.7-0.9-2.6-0.9c2,3.8,2.7,7,2.1,9.8c-0.1,0.4-0.3,0.2-0.6-0.6c-0.4-0.8-0.5-1.4-0.5-1.8c0.4-1.8-0.2-4-1.7-6.6l-4.1-5.8
		c-2.2-3-4.9-6.2-8-9.6l-1.2-1.3L113.9,71.1 M121.2,42.4c-0.2-1.5-0.8-2.6-1.9-3.2l-3.7,0.1c-1.4,0.7-2.5,1.8-3.3,3.3
		c-0.8,1.5-1.2,3.1-1,4.6c0.2,1.5,0.8,2.6,1.9,3.2l3.7-0.1c1.4-0.7,2.5-1.8,3.3-3.3C121.1,45.5,121.4,43.9,121.2,42.4 M117.7,41
		c0.5,0.1,0.8,0.6,1,1.3c0.2,0.7,0.1,1.6-0.1,2.4c-0.2,0.9-0.6,1.7-1.1,2.2c-0.5,0.6-1,0.8-1.5,0.7c-0.5-0.1-0.8-0.6-1-1.3
		c-0.2-0.7-0.2-1.6,0.1-2.4c0.3-0.9,0.7-1.7,1.2-2.2C116.7,41.1,117.2,40.9,117.7,41 M103.5,46.5c-0.5-0.7-1.1-1.1-1.6-1.2
		c-0.6-0.1-1,0.4-1.2,1.4c-0.2,1.2,0.2,3.1,1.1,5.7l1.1,2.7c0.5,1.3,0.6,2.3,0.2,2.8l-0.2,0l-1-0.6l-0.8-0.8c-1.1-0.7-2-0.5-2.7,0.6
		c-0.6,1-0.7,2.1-0.2,3.3c0.5,1.9,0.4,2.6-0.1,2.1c-1-1-1.9-1.1-2.8-0.4c-0.8,0.7-1.1,1.7-1.1,3.1c0,1.6,0.4,3.1,1.3,4.7
		c0.8,1.6,1.9,2.8,3.2,3.8l0.2-0.1c2.8,0.4,5.4,0.2,7.8-0.6c2.8-0.9,4.8-2.5,6.2-4.8l0.1-0.1l2.2-0.2c0.8-0.1,1.4-0.3,1.9-0.6
		c0.9-0.6,1.3-1.3,1.2-2.2c-0.1-0.8-0.6-1.5-1.4-2.2l-3.3-2.9l-0.2-0.4c-0.1-0.1-0.2-0.1-0.3,0c-0.4,0.2-0.8,0.8-1.2,1.6l0.1,0.1
		l0.2,0.1c1.9,2.1,2.6,3.7,2,4.8l-0.2,0.1c-1-0.1-1.9-1.2-2.8-3.3l-1.6-4.4C107.7,53.4,105.6,49.4,103.5,46.5 M109.1,40.4l-1.3-1.1
		l-0.2,0.8l-3.1,4.5l-0.4,0.4l0.5,0.9c1.8,2.8,3.2,5.5,4.2,7.9l1.8,4.4h0.3l0.1-0.1c0.3-0.8,0.7-1.2,1.1-1.4l-0.2-1.3
		c0-0.3,0-0.4,0.2-0.4c0.1-0.1,0.2,0,0.5,0.1l4,4.6l0.4,0.8l1.1,1.1c0.8,1,1.4,2.3,1.6,3.9c0.2,1.7-0.1,2.9-0.8,3.8
		c-0.6,0.8-1.7,1.3-3.2,1.6l3.6,4.1c3.5-1.9,6.6-4.5,9.4-7.7c2.9,1,5.3,0.3,7.2-2.1c2-2.4,1.9-4.8-0.1-7.2c-0.3-0.7-0.1-1.1,0.6-1.2
		l0.1-0.2l-2.1-1.4h-0.1l-0.2-0.2c-3.7-2.4-6.8-4-9.2-4.8l-2.2-0.1c-0.9,0-1.4,0.2-1.6,0.4c-1.3,1.5-2.8,2.4-4.5,2.9
		c-1.7,0.5-3.3,0.3-4.7-0.5c-1.5-0.8-2.5-2.1-3-3.9c-0.5-1.8-0.4-3.6,0.3-5.6l0.1-1.4L109.1,40.4 M132.6,56.3
		c-0.1,0.5-0.3,0.7-0.7,0.6c-0.4-0.1-0.6-0.3-0.5-0.6c0-0.3-0.1-0.7-0.5-1.2l-0.5-0.7c-0.3-0.3-0.3-0.5,0-0.8l0.8-0.1l0.9,1.2
		C132.5,55.3,132.7,55.8,132.6,56.3 M106.5,39.6l0.8-0.6c-0.5-0.3-1-0.4-1.3-0.4l-2.7,0.4c-0.4,0.1-1.3,1.3-2.5,3.4l0.7-0.1
		c0.5,0.1,1.1,0.5,1.7,1.3l0.6-0.5L106.5,39.6 M90.1,47.1c-0.9-0.5-1.6-1.2-2.1-2.2c-0.7-1.3-0.9-2.8-0.6-4.5v0
		c-2.6,6.3-3.1,12.9-1.7,19.6c1.5,7.1,4.9,12.6,10.2,16.4c1.1,0.8,2.3,1.6,3.8,2.4l-0.5-2.4c-1.6-1.2-2.9-2.9-4-5
		c-1.1-2-1.7-4.1-1.9-6.1c-0.1-1.1-0.1-2.3,0.2-3.5l-2.5-2.4l-0.7-0.1L89.8,60l-0.1,0.4l-0.2,0.4l-0.3-0.4l-1.3-3.7
		c-0.1-0.2-0.1-0.5,0-0.9l0.4-0.7l2.3-1.8l0.5-0.1v0.4l-0.2,0.7c-0.1,0.3,0,0.5,0.1,0.8l0.6,0.5l5.2,2.1c-0.1-1.1,0-2.1,0.2-2.9
		c0.3-1,0.8-1.6,1.6-1.8s1.6,0.1,2.4,0.8l0.5,0.5l-0.4-1.1c-0.7,0-1.2-0.3-1.5-0.9l-1.5-3.7c-0.1-0.2-0.1-0.5,0-0.9l0.5-0.7l0.8-0.7
		v-0.2c-0.1-0.7,0-1.4,0.2-2.3c-1.3,1.7-2.8,2.9-4.6,3.4C93.2,48,91.6,47.9,90.1,47.1 M99.3,36.9c-0.2-1.5-0.8-2.6-1.9-3.2l-3.7,0.1
		c-1.4,0.7-2.5,1.8-3.3,3.3c-0.8,1.6-1.2,3.1-1,4.6c0.2,1.5,0.8,2.6,1.9,3.2l3.7-0.1c1.4-0.7,2.5-1.8,3.4-3.3
		C99.2,39.9,99.5,38.4,99.3,36.9 M95.5,37c0.5-0.6,1.1-0.8,1.6-0.6c0.5,0.1,0.8,0.6,1,1.3c0.2,0.7,0.1,1.6-0.1,2.5
		c-0.2,0.9-0.6,1.7-1.1,2.2c-0.5,0.6-1,0.8-1.5,0.6c-0.5-0.1-0.8-0.6-1-1.3c-0.2-0.7-0.1-1.5,0.1-2.4C94.6,38.3,95,37.5,95.5,37
		 M94.2,27.6c-0.8-0.4-1.5-1-2-1.8c-0.5-0.8-1.1-0.8-1.7-0.1c-0.6,0.7-1,1.7-1.1,3.1c0,0.8,0.2,2.1,0.7,3.6L94.2,27.6 M137.8,34.1
		c-0.3-2.2-1.4-3.4-3.2-3.6c-2-0.1-3.5-0.1-4.4-0.1c-1.1,0.1-2,0.1-2.6,0c-1-0.2-1.7-0.7-2.1-1.5c-1-1.8-2.2-3.1-3.7-3.9
		c-1.4-0.8-2.8-1-4.2-0.6l-3.2,0.6c-1.1,0-2.1-0.3-3-0.9c-1.6-1.6-3-2.3-4.1-1.9c-0.5,0.2-1.8,1-3.7,2.6l-3.1,2.4
		c-1.5,0.8-3,1.2-4.3,1.1c-1.3,0.9-2.7,2.4-4.1,4.2c1.4-0.9,2.8-1.3,4.2-1.3l0.4-0.2l4.1-1.5l0.6,0c0.4,0.1,0.6,0.3,0.6,0.8
		l-0.1,0.9l-0.4,0.8l-0.9,0.2l-1.1-0.2c1,0.8,1.7,1.8,2.1,3l0.8,0.9c0.4,0.3,0.8,0.4,1,0.4l3.2-0.2c1.5,0.2,2.8,0.9,4,2.1l1.3,0.2
		c0.7-0.1,1.2-0.2,1.5-0.4c0.7-0.5,1.8-0.9,3.2-1.2l4.2,0.2l0.6,0.4l-0.8-0.8l-2.4-1.8c-0.1-0.2,0.2-0.6,0.8-1.1l0.9-0.8
		c0.2-0.3,0.5-0.4,0.9-0.3l0.4,0.2l1.7,2.5c1,1.8,1.3,3.1,0.9,3.8h0l-0.9-0.6c1,1.3,1.4,3,1.3,5.2c0,0.5,0.2,1.2,0.7,2.1
		c0.5,1,1,1.6,1.6,1.8l4.6,2.1l0.3-0.4l0.4-0.1l0.1,0.1c0.6,0.4,1.2,1,1.8,1.8l2.6,1.7l-1.6-3.2c-0.5-0.8-1.1-1.6-2-2.4
		c-0.4-0.4-0.6-0.8-0.4-1.2c0.1-0.4,0.4-0.5,0.8-0.2c0.8,0.5,1.7,1.5,2.7,3.1c0.9,1.5,1.6,3.2,2.2,5.1l0.7,0.6l-0.1,0.4l0.2-0.4
		c-0.8-3.3-1.8-5.9-2.9-7.7l-1.9-2.9l-1.1-1.2c-0.3-0.3-0.3-0.6-0.1-0.8c0.2-0.3,0.6-0.3,0.9,0c0.6,0.4,1.7,1.8,3.2,4.4
		c1.2,2.3,2,4.7,2.4,7.2c0.7-3.1,0.1-6.1-1.8-9.1c-0.9-1.2-2.2-2.7-3.9-4.3c-0.4-0.3-0.4-0.6-0.1-0.9c0.2-0.2,0.4-0.3,0.6-0.3
		C136.7,38,138.1,36.4,137.8,34.1 M124.2,9.2c-0.5,0-1.3,0.3-2.2,1.1l-4.7,4.1c-0.7,0.4-1.7,0.3-2.8-0.4c-1.5-0.9-2.8-1.3-3.8-1.3
		c-0.8,0-2,0.6-3.7,1.6c-0.5,0.3-1.7,1.1-3.6,2.4c-1.3,0.9-2.6,1.3-4,1.1c-1.4-0.1-2.6-0.8-3.5-1.9c-0.7-0.8-0.8-1.8-0.4-3
		c-1,0.6-1.8,1.4-2.5,2.4c-0.8,1.3-1.2,2.9-1.2,4.8c0,2,0.5,3.7,1.4,5.1c0.7,1,1.6,1.5,2.8,1.6c1.1,0,2.3-0.3,3.5-0.9l3-2.4
		c1.9-1.5,3.3-2.4,4-2.6l2.9-0.1c0.3,0.1,0.9,0.6,1.9,1.3l1.2,1c0.4,0.3,1,0.4,1.8,0.2l6.5-2.2c1.3-0.3,2.8,0.9,4.3,3.6l2.8,4.6
		l7.2-0.6c2.2,0.2,3.7,1,4.6,2.6c0.6,1.1,0.9,2.4,0.8,3.9c-0.1,1-0.8,1.9-2.1,2.9c-1,0.8-2.1,1.4-3.2,1.9l3.1,4
		c1.5,2.4,2.3,5,2.2,7.9c1-1.6,2-3.5,2.9-5.8c1.9-4.5,2.5-8.3,1.9-11.4c-0.4-1.8-0.9-3.5-1.6-5.2c-0.9-2.3-2-3.9-3.1-4.7l-2.1-4.2
		c-1.1-2.4-2.6-3.9-4.4-4.6c-1.1-0.4-2.5-1.1-4.1-2.1l-1.3-1.2l-1.1-1.3C126.3,10.1,125.1,9.3,124.2,9.2 M180.5,120.7
		c-0.5-6-3.3-11.9-8.3-17.5c-3.7-4.1-8.7-8.4-15.2-12.8c-5.9-4-11.4-7.2-16.7-9.7c2.5,2.2,4.3,4.6,5.6,7.1c1.5,2.9,1.9,5.7,1.4,8.6
		l-5.8,15.4l-1.4,6.1c-1.1,4.7-1.9,8.8-2.2,12l-0.6,6.7c8.7,2.7,15.6,2.9,20.8,0.6l4.1-1.9c1.6-0.6,3.1-0.9,4.4-0.8
		c1.5,0.2,3.1,0.9,4.6,2.4c1,0.8,2.1,2.2,3.5,4c0.3-1.1,0.8-2.4,1.6-4l3.2-7.9C180.4,126,180.7,123.2,180.5,120.7 M184.1,94.6
		c-3.8-2.7-8.6-5.4-14.5-8.3c-10.3-5-19.1-7.1-26.6-6.4c4.8,2.4,9.5,5.2,14.2,8.6c5.3,3.7,9.6,7.1,12.8,10.4
		c4.3,4.4,7.4,8.9,9.2,13.5c2.4,6.1,3,11.7,1.7,17c-0.4,1.7-1.3,3.8-2.5,6.4c-1.4,3-2.2,5-2.6,6.2c-0.5,1.5-0.4,3,0.3,4.6l2.6,4.1
		c2.1,3.3,4.5,6.5,7.2,9.7c2.9,3.5,5.4,6.3,7.5,8.4c-1.1-8.4-1.2-16.7-0.4-24.9c0.5-5.3,2-11.6,4.5-18.8c2.4-6.9,1.8-13.1-1.8-18.7
		C193,102.1,189.1,98.2,184.1,94.6z"/>
</g>
</svg>
