<?xml version="1.0" encoding="utf-8"?>
<!-- Generator: Adobe Illustrator 25.4.1, SVG Export Plug-In . SVG Version: 6.00 Build 0)  -->
<svg version="1.1" id="ActionBoy_x2C_PerkClip_x5F_4d869" image-rendering="auto"
	 xmlns="http://www.w3.org/2000/svg" xmlns:xlink="http://www.w3.org/1999/xlink" x="0px" y="0px" viewBox="0 0 240 240"
	 style="enable-background:new 0 0 240 240;" xml:space="preserve">
<style type="text/css">
	.st0{fill:#FFFFFF;}
</style>
<g>
	<rect width="240" height="240"/>
	<path class="st0" d="M152.5,149.2c-0.1-2.5,0-5.2,0.4-8.2c-1.6,0.8-3.3,1.3-4.9,1.7c1.8,2.3,3.4,5,4.6,8.1L152.5,149.2 M168.2,91.6
		c-2.1-3.4-4.6-6-7.4-7.9c-4.2-2.7-9-4.1-14.5-4.2c3.7,1.2,6.8,2.9,9.2,5.1c2.9,2.6,5,5.9,6.1,10c0.5,1.8,0.9,3.7,1,5.6
		c1.8,2.3,3.2,4.9,4.4,7.9c1.2,3.3,1.8,6.4,1.8,9.5c0,7.9-3.2,14.3-9.5,19.3c-1.8,1.4-3.5,2.6-5.2,3.5l0,0.1
		c-0.5,4-0.7,7.6-0.5,10.8c0.6,7.6,5.1,12.9,13.6,15.9c6.6,2.4,14.3,3.1,23.1,2.2c-5.3-3.7-9.4-8.2-12.4-13.6
		c-2.6-4.8-4.2-10.5-4.9-17.3c-0.4-4.2-0.3-10.3,0.1-18.2l0.4-9.5c0-3.6-0.4-6.7-1-9.4C171.5,98,170.1,94.6,168.2,91.6 M159.9,92.8
		c-1.8-4.1-4.8-7.2-9.2-9.3c-3.5-1.7-7-2.7-10.6-3l5.4,3.4c3.5,2.2,6.1,4.1,7.9,5.7c1.8,1.6,3.3,3.2,4.7,4.9l3.6,4.4
		C161.3,96.7,160.7,94.7,159.9,92.8z"/>
	<path class="st0" d="M83.6,193.2c-5.4,0-10.9-2.4-16.4-7.1c-1.8,9.1-3.5,17-5,23.5l-0.6,0.7c-4.8,2.3-8.8,4.3-11.9,6.1
		c-3.5,2.1-5.4,3.5-5.6,4.4c0.4,0.9,2.7,1.7,6.9,2.5l8.5,0.7c2.3-0.4,4.4-1.1,6.1-2.3l2.2-1.4l6.2-1.2c1.1-0.4,1.6-0.8,1.6-1.3
		l-0.4-9.2l0.1-0.6l2.2-3.5C79.2,201.6,81.2,197.8,83.6,193.2 M134.9,189.2c-2.6,0.4-5.1,0.4-7.6-0.1c0.7,1.2,1.2,2.8,1.6,4.9
		c0.4,1.7,0.7,3,1,3.9c0.6,1.7,1.6,3.5,2.9,5.5l5.3,7.2c0.9,1.2,1.3,2.5,1.3,4.1c0,2.6,0.1,4.3,0.4,5.1c0.6,1.8,1.9,3.2,4.1,4.1
		l4.9,2.5c2.4,1.4,4.3,2.3,5.5,2.8c2.1,0.8,4,1.2,5.9,1.1c2.2-0.1,3.5-0.5,3.8-1c0.2-0.3,0.2-0.7,0.1-1.4l-0.8-3
		c-0.3-1.2-2.1-3.1-5.3-5.8c-2.7-2.2-5.5-4.2-8.5-6.1c-0.2-0.2-0.4-0.4-0.4-0.6l-5.4-27.6C141.6,187.2,138.7,188.7,134.9,189.2
		 M105.6,131.2c3,0,6.1-0.3,9.4-1.1l-2-6.6l-15.2-0.5l-1.1,7.9L105.6,131.2 M123.8,148.2h-0.3l-1.8-0.4l-1.4-1.2
		c-3.8,4.6-6.4,10.4-7.8,17.4l5.9,9.9c3.8,6.2,6.4,10.6,7.8,13.2l0-0.2l1.9,0.4l4.7,0.2c4.8-0.4,8.6-2.8,11.1-7.1
		c-0.3-9-1.9-18.3-4.6-27.9c-1.6,1.1-3.3,1.7-5,1.8c-0.9,0-1.8-0.2-2.5-0.6c-0.7-0.4-1.3-1-1.7-1.8c-1.2,0.8-2.4,0.9-3.6,0.5
		c-1.3-0.4-2.1-1.4-2.6-2.8C123.8,149.2,123.8,148.7,123.8,148.2 M123.3,137.5l-0.4-0.7c-0.4-0.9-0.4-1.6-0.2-1.9
		c-5.7,1.2-10.7,1.8-14.9,1.9l-14.7-0.6l-7.5-1.3c1.3,7.5,4.3,14.3,9.1,20.4c2.6,3.4,5.4,6.1,8.3,8.2h6.4c1-8.5,4.4-15.4,10.3-20.9
		c0.2-0.8,0.4-1.5,0.8-2.1C121.3,139.6,122.2,138.5,123.3,137.5 M139.1,125.4l1.2-1c3-2.6,5.4-4.2,7.3-5.1l-5.9-5.9
		C140.7,117.2,139.8,121.2,139.1,125.4 M134.4,133.9c-0.3,0-0.6-0.5-0.8-1.5c-0.7-2.2-1.8-3.1-3.2-2.9c-1.6,0.3-2.7,0.8-3.2,1.6
		c-0.4,0.6-0.8,1.3-1.2,2.3l-1,2.5h0.2l0.1,0l0.1,0l2.1-1.6l0.8-1.4c0.4-0.6,0.8-0.8,1.2-0.8c0.4,0.1,0.7,0.7,0.8,1.7
		c0.2,1-0.2,1.9-1,2.6l-2.5,1.8c-2.4,1.8-3.9,3.3-4.8,4.4l-0.8,1.3l-0.3,0.8l1.5,0.4l2.2,0.2c0.5,0.2,0.8,0.9,0.9,1.9l-0.2,1.2
		c-0.1,0.4-0.1,0.7,0.1,0.8c2,0.6,3.6,0.3,4.8-1c0.2-0.2,0.5,0.1,0.8,0.9c0.3,0.8,0.4,1.4,0.2,1.6c-0.1,0.4-0.1,0.4,0.1,0.1l2.4,0.3
		c2-0.2,3.7-0.8,5-1.7c2.1-1.6,3.5-3.4,4.4-5.5c-0.4-2.4-1.3-4.6-2.8-6.4C138.7,135.8,136.7,134.5,134.4,133.9 M78.6,151.5
		l-7.2,20.2c-1.7,4.7-2.9,8.5-3.5,11.6c2.4,2.2,4.2,3.8,5.6,4.6c3.7,2.4,7.4,3.5,11.2,3.3c3.2-6.2,6.5-11.5,9.9-16.1
		c1.9-2.5,4.2-5.3,6.8-8.4c-3.3-2.5-6.6-5.7-9.8-9.8c-5-6.3-8.3-12.9-10-19.8C81.4,141.3,80.3,146.1,78.6,151.5 M74.7,139.3
		c0.9,1.8,1.8,3.3,2.7,4.5l1.7-11.2l-0.6-1.8c-1.1,0.2-1.9,0.7-2.5,1.4C74.7,133.7,74.3,136.1,74.7,139.3 M137.7,81.2l-1.8,1.1
		c-1.2,0.4-3,1.5-5.6,3.1l-8.7,5.2l0.5,0.8l5.9,11.4c3.9,8.8,6.3,17,7.3,24.6l0.4-0.1c0.8-4.9,2.2-10.2,4.3-15.7l-2.6-2.6
		c-0.3-0.3-0.4-0.9-0.6-1.8s0-1.2,0.3-0.9l12.4,12.4l0.7,1.5c0.2,0.8,0.1,1.2-0.2,1.3c-1.7,0.4-3.5,1.3-5.4,2.6
		c-1.3,0.9-2.8,2.2-4.6,3.9l-3.9,3.8c1.9,1,3.5,2.5,4.9,4.6c1.2,1.8,2,3.9,2.6,6.3l0.2,0.2c7.4-1.7,13.4-5,18-9.8
		c5.2-5.5,7.1-11.8,5.6-18.8c-1.4-7-5.1-13.6-11.1-19.7C151.2,89,144.9,84.6,137.7,81.2 M96.2,91.8c-1.6,1.4-3.2,3-4.7,4.8
		c-2.4,2.9-4.1,5.8-5.2,8.8c-1.2,3-1.8,7.4-2,13c-0.1,3.4,0,6.9,0.2,10.6c1,0.5,2.1,0.9,3.2,1.1l4.9,0.6l1.7-11.9l21.5,0.6l2.5,9.6
		l12.8-2.8c-1-6.2-3.1-12.9-6.1-20.1c-1.8-4.3-3.7-8.2-5.8-11.8L96.2,91.8 M108.8,97.1l0.4,0.9c0.7,1.5,1.7,4.5,3.2,9.1l0.7,2.3
		l-13.9,1l-1.9-0.1v-1.9c0-3.3,0.6-6.2,1.9-8.7c0.6-1.2,1.3-2.2,2.1-2.8l0.7-0.6L108.8,97.1 M106.1,100.8l-2.7-0.3
		c-1.1,1.6-1.8,3.5-2.1,5.9l6.5-0.4L106.1,100.8 M94.4,88.1L94.4,88.1l-9.6-3.9c-2.1-0.6-4.2-0.2-6.5,1.1l-2.9,2.3
		c-6.8,4.8-11.8,8.9-15,12.4c-4.7,5.1-6.9,9.8-6.5,14.1c0.4,3.6,3,8,7.9,13.3c3.1,3.3,6.6,6.6,10.8,9.9c-0.1-2.8,0.5-5,1.8-6.6
		c0.8-1,1.9-1.6,3.2-1.9c-0.9-2-2.4-4.8-4.5-8.5l-4.6-8.3c-0.1-0.2-0.2-0.5-0.1-0.7l0.4-0.6c0.5-0.3,0.9-0.3,1.3,0.1l3.2,3.7l5.2-4
		l-0.2-5.9c-0.3-3.8-0.3-5.7-0.2-5.7l0.7,1.2l0.5,1.2l1.5,11.3c0.4-3.6,1-6.5,1.8-8.6c1.4-3.9,3.8-7.7,7-11.3
		C91.3,90.8,92.9,89.3,94.4,88.1 M96.6,80.1c-2.2-2.5-3.7-3.7-4.7-3.6c-0.7,0.1-1.1,0.3-1.2,0.6c-0.1,0.3-0.1,0.6,0.1,1.1
		c0.1,0.4,0.2,0.8,0.4,1.1c0.3,0.6,0.2,1-0.3,1.3l-0.8,0.2l-0.6-0.4c-0.6-0.8-1.5-1.5-2.7-2c-2.3-1.1-4.9-1.1-7.7,0.1
		c-2.2,0.9-3.7,2.2-4.2,3.8c-0.5,1.3-0.5,2.6,0.1,3.8v0.1c1.8-2,3-3.3,3.8-3.9c2.2-1.6,4.3-2,6.5-1.3c0.6,0.2,1.5,0.8,2.8,1.8
		l3.1,1.9c4.9,2,8.7,3.3,11.3,3.9l8.7,0.9c5.4,0,9.6-0.8,12.7-2.4l5.4-3.2c1.8-1.1,3.1-1.9,4-2.3c1.4-0.7,2.6-1.2,3.9-1.5l-0.1-0.5
		c-1.3-1.2-2.6-1.8-3.8-1.8c-0.8,0-1.5,0.4-2.1,1c-0.6,0.5-0.9,0.8-0.9,1l-3.9,4c-2.9,2.6-5.4,4-7.5,4.2l-0.9-0.6
		c-0.3-0.5,0.1-0.8,1.4-1.1c1.3-0.3,3-1.4,5-3.2l4-4.2c-0.6-1-2.2-1.8-4.7-2.2c-0.8,2.6-2.4,4.8-4.9,6.6c-2.3,1.6-5,2.6-8.1,2.9
		c-3.1,0.4-5.8,0.1-8.3-0.8C99.6,84,97.7,82.4,96.6,80.1 M120.3,49.1c0.7-1.6,0.9-3.1,0.5-4.7c-0.3-1.5-1-2.5-2.2-3
		c-1.1-0.5-2.4-0.3-3.7,0.5c-1.3,0.8-2.3,1.9-3,3.5c-0.7,1.6-0.9,3.2-0.5,4.7c0.3,1.5,1,2.5,2.2,3c1.1,0.5,2.4,0.4,3.7-0.4
		C118.6,51.9,119.6,50.6,120.3,49.1 M118.2,41.5c0.5,0.1,0.8,0.6,1,1.3c0.2,0.7,0.1,1.6-0.1,2.4c-0.2,0.9-0.6,1.7-1.2,2.2
		c-0.5,0.6-1,0.8-1.5,0.7c-0.5-0.1-0.8-0.6-1-1.3c-0.2-0.7-0.1-1.6,0.1-2.4c0.2-0.9,0.6-1.7,1.1-2.2
		C117.1,41.6,117.7,41.4,118.2,41.5 M100.3,46.6l-0.2,0.4l4-3.4l1.4-1.6h-0.2c-0.8-0.1-1.7,0.1-2.7,0.6
		C102.1,42.7,101.3,44.1,100.3,46.6 M89.7,41.9c-0.7,1.6-0.9,3.2-0.6,4.7c0.3,1.5,1.1,2.5,2.2,3c1.2,0.5,2.4,0.4,3.7-0.4
		c1.3-0.8,2.3-2,3.1-3.6c0.8-1.8,0.9-3.5,0.4-5.1l0,0.2c-0.2,0.9-0.6,1.6-1.1,2.2c-0.5,0.6-1,0.8-1.5,0.6c-0.5-0.1-0.8-0.6-1-1.3
		c-0.2-0.7-0.1-1.5,0.1-2.4c0.2-0.8,0.5-1.5,0.9-2c-1.1-0.3-2.2,0-3.4,0.8C91.2,39.2,90.3,40.4,89.7,41.9 M94.7,28.1
		c-0.8-0.4-1.4-1-2-1.8c-0.5-0.8-1.1-0.8-1.7-0.1c-0.6,0.7-1,1.7-1.1,3.1c0,0.8,0.2,2.1,0.7,3.6L94.7,28.1 M138.2,34.6
		c-0.3-2.2-1.4-3.4-3.2-3.6c-2-0.1-3.5-0.1-4.5-0.1c-1.1,0.1-1.9,0.1-2.6,0c-1-0.2-1.7-0.7-2.1-1.5c-1-1.8-2.2-3.1-3.7-3.9
		c-1.4-0.8-2.8-1-4.2-0.6l-3.2,0.6c-1.1,0-2.1-0.3-3-0.9c-1.6-1.6-3-2.3-4.1-1.9c-0.6,0.2-1.8,1-3.7,2.6l-3.1,2.4
		c-1.5,0.8-3,1.2-4.3,1.1c-1.7,1.2-3.4,3.2-5.2,6c-1.4,2.1-2.5,4.1-3.3,5.9c-2.7,6.3-3.3,12.9-1.8,19.8C87.7,67.4,91,73,96.3,76.9
		c3.1,2.3,6.1,3.7,8.8,4.3l3.2,0.5c0,0.3-0.8,0.5-2.6,0.7l-3.3-0.2c1.7,1.8,4.9,2.2,9.5,1.2c4.8-1.1,7.7-3.1,8.7-6
		c-1.9,0.8-3.5,1.1-4.8,0.9c-1.4-0.2-1.5-0.5-0.2-1c4.9-1.8,9.4-5,13.5-9.6c2.9,1,5.3,0.3,7.2-2.1c2-2.4,1.9-4.8-0.1-7.2
		c-0.3-0.7-0.1-1.1,0.6-1.2l0.1-0.4l-2.2-1.2h-0.1l-0.2-0.1c-3.8-2-6.9-3.2-9.4-3.8c-0.6-0.1-1.3-0.1-2.2,0
		c-0.9,0.1-1.5,0.3-1.7,0.6c-1.1,1.6-2.5,2.7-4.2,3.3c-1.7,0.6-3.2,0.6-4.7-0.1c-1.5-0.7-2.6-1.9-3.3-3.6c-0.6-1.7-0.7-3.6-0.2-5.6
		l-0.1-1.5l-0.4-1.3l-1.6-1.1l-4.9,6.1c-0.5,0.5-0.6,1-0.3,1.7l1.2,2.8v0.7c-0.1,0.2-0.3,0.3-0.6,0.3c-1.1,0.3-1.8,0-2.3-0.9
		l-1.4-3.7v-0.1c-1.2,1.4-2.5,2.4-4,2.9l-4.4-0.1c-0.9-0.4-1.7-1.1-2.2-2c-0.8-1.2-1.2-2.7-1.1-4.4c0.1-1.4,0.5-3,1.3-4.6
		c0.6-1.5,1.3-2.5,1.9-3.2c1.2-1.2,2.5-1.9,4-2.2c1.4-0.3,2.7-0.2,3.7,0.4c1.2,0.7,2,1.6,2.6,2.9l0.8,0.8l1.1,0.3c1-0.4,2-0.5,3-0.5
		l1.8,0.4c0.4-0.3,0.6-0.4,0.8-0.3c0.2,0.1,0.3,0.3,0.1,0.7l1.5,0.9l1.3,0.1l1.5-0.6c0.6-0.5,1.6-1,3-1.4l4.2-0.2
		c2.6,1.2,3.8,3.4,3.8,6.6c0,0.5,0.3,1.2,0.9,2.1c0.6,0.9,1.2,1.5,1.8,1.6c1.7,0.5,3.5,1.1,5.3,1.9c-0.3-0.3-0.4-0.6-0.2-0.9
		c0.2-0.3,0.4-0.4,0.7-0.3l0.1,0.1c0.9,0.7,1.5,1.4,2,2.2l0.1,0.1l2.3,1.2l-1.6-3.2c-0.5-0.8-1.2-1.6-2-2.4
		c-0.4-0.4-0.6-0.8-0.4-1.2c0.1-0.4,0.4-0.5,0.8-0.2c0.8,0.5,1.7,1.5,2.7,3.1c0.7,1.2,1.4,2.8,2.1,4.8l0.9,0.7
		c-0.9-3.3-1.8-5.8-2.9-7.5l-3-4.1c-0.3-0.3-0.3-0.6-0.1-0.8c0.2-0.3,0.6-0.3,0.9,0c0.6,0.4,1.7,1.8,3.2,4.4c1.2,2.3,2,4.7,2.4,7.2
		c0.7-3.1,0.1-6.1-1.9-9.1c-0.8-1.2-2.1-2.7-3.9-4.3c-0.4-0.3-0.4-0.6-0.1-0.9c0.2-0.2,0.4-0.3,0.6-0.3
		C137.2,38.5,138.5,36.9,138.2,34.6 M123.8,39.6c-0.2,0-0.6-0.4-1.3-1l-1.8-1.6l-2.4-1.8c-0.1-0.2,0.2-0.6,0.8-1.1l0.8-0.8
		c0.3-0.3,0.6-0.4,0.9-0.3l0.4,0.2l1.7,2.5C123.9,37.6,124.2,38.9,123.8,39.6 M97.1,31.4l4.1-1.5l0.6,0c0.4,0.1,0.6,0.3,0.5,0.8
		l-0.1,0.9l-0.4,0.8c-0.2,0.2-0.5,0.3-0.9,0.2L97.1,32L97,31.9c-0.3,0-0.4-0.1-0.4-0.2L97.1,31.4 M112.6,55.5l0.4,0.1l4.1,4.6
		c0.5,0.5,0.6,1,0.3,1.6l-1.9,4.2c-0.3,0.6-0.5,0.6-0.8,0l0.4-2.2l-0.5-0.7l-0.8-0.1c-1.4,0.7-3.1,1.3-4.9,1.8
		c-3.7,1.1-6.6,1.4-8.6,1s-4.1-1.6-6.2-3.4L91.4,60l-0.7-0.1l-0.4,0.6l-0.1,0.4L90,61.4L89.7,61l-1.3-3.7c-0.1-0.2-0.1-0.5,0-0.9
		l0.4-0.7l2.3-1.8l0.4-0.1l0.1,0.4L91.4,55c-0.1,0.3,0,0.5,0.1,0.8l0.5,0.5l3.2,1.3c2.4,0.9,4.2,1.5,5.7,1.7l10.6-0.6l0.8-0.4
		l0.3-0.8l-0.2-1.7L112.6,55.5 M96.7,66.9l4.2,0.4l0.8,0.3l0.3,0.7l-0.3,0.7l-0.8,0.3c-1.2,0.1-2.2-0.1-2.9-0.7l-1.5-1.2l-0.2-0.4
		L96.7,66.9 M133.1,56.8c-0.1,0.5-0.3,0.7-0.7,0.6c-0.4-0.1-0.6-0.3-0.5-0.6c0-0.3-0.1-0.7-0.5-1.2l-0.5-0.7c-0.3-0.3-0.3-0.5,0-0.8
		l0.8-0.1l0.9,1.2C133,55.8,133.2,56.3,133.1,56.8 M114.1,61.8c0.3-0.3,0.3-0.7,0-1.1c-0.5-0.6-1.3-0.9-2.4-0.8l-10.5,0.5
		c-1.6-0.2-3.7-0.8-6.2-1.8l-3.2-1.4c-0.8-0.2-1.2,0-1.2,0.6c0,0.7,0.3,1.1,0.7,1.2l5.6,3.5c0.9,0.5,2.1,0.9,3.8,1.2l4.2,0.3
		l8.2-1.9C113.5,62.2,113.8,62,114.1,61.8 M128.1,12c-1.3-1.4-2.5-2.2-3.5-2.3c-0.8-0.1-2.4,1-4.7,3.3l-2.2,1.9
		c-0.7,0.4-1.7,0.3-2.9-0.4c-1.5-0.9-2.8-1.3-3.8-1.3c-1.2,0-3.6,1.4-7.3,4.1c-1.3,0.9-2.6,1.3-4,1.1c-1.4-0.1-2.6-0.8-3.5-1.9
		c-0.7-0.8-0.8-1.8-0.4-3c-1.1,0.7-1.9,1.5-2.5,2.4c-0.8,1.3-1.2,2.9-1.2,4.8c0,1.9,0.5,3.6,1.4,5.1c0.6,1,1.6,1.5,2.8,1.6
		c1.1,0,2.3-0.3,3.5-0.9l3-2.4c1.9-1.5,3.3-2.4,4-2.6l2.9-0.1c0.3,0.1,0.9,0.6,1.9,1.3l1.2,1c0.4,0.3,1,0.4,1.8,0.2l6.5-2.2
		c1.3-0.3,2.8,0.9,4.3,3.6l2.9,4.6l7.1-0.6c2.2,0.2,3.7,1,4.6,2.6c0.6,1.1,0.9,2.4,0.8,3.9c-0.1,1-0.7,1.9-2,2.9
		c-1,0.8-2.1,1.4-3.2,1.9l3.1,4c1.5,2.4,2.3,5,2.2,7.9c1-1.6,2-3.5,2.9-5.8c1.8-4.5,2.4-8.3,1.8-11.4c-0.3-1.7-0.8-3.4-1.5-5.2
		c-0.9-2.3-2-3.9-3.1-4.7l-2.1-4.2c-1.1-2.4-2.6-3.9-4.4-4.6c-1.1-0.4-2.5-1.1-4.1-2.1l-1.3-1.2L128.1,12z"/>
</g>
</svg>
