<?xml version="1.0" encoding="utf-8"?><svg id="Endurance" image-rendering="auto" baseProfile="basic" version="1.1" x="0px" y="0px" width="240" height="240" xmlns="http://www.w3.org/2000/svg" xmlns:xlink="http://www.w3.org/1999/xlink"><g id="Scene-1f0r1" overflow="visible"><path fill="#FFF" stroke="none" d="M145.6,221.75 L145.15,222.3 Q145.05,222.7 145.45,223.2 148.6,227.8 154.8,231.05 159.25,233.4 166.6,235.65 167.6,235.95 167.95,235.05 168.3,234 167.35,233.7 160.2,231.6 156.1,229.4 150.15,226.35 147,221.85 146.7,221.55 146.4,221.45 146.05,221.35 145.6,221.75 M152.5,219.2 Q151.7,218.55 151.05,219.45 150.45,220.3 151.3,220.95 154.65,223.65 159.3,224.95 163.05,226 168.2,226.15 169.2,226.2 169.35,225.15 169.4,224.05 168.4,224.05 163.45,223.85 160,222.9 155.7,221.7 152.5,219.2 M110.3,164.7 Q105.5,163.55 101.45,161.9 97.6,176.6 96.8,189.15 96.4,195.05 96.55,197.8 96.9,203.05 98.95,206 L100.4,207.65 Q102.85,209.9 106.85,210.85 112.3,212.05 116.2,210 L115.65,209.15 114.9,207.65 Q111.2,199.7 113.2,186.7 114.5,179.05 116.65,173.15 L117.7,173.1 Q118.45,173.75 118.2,174.35 117,177.65 116.1,181.65 114.55,188.45 114.25,193.4 113.8,200.1 115.5,205.15 L116.6,207.65 Q118.7,211.65 122.85,213.7 L125.9,214.9 Q132.85,216.9 140.8,214.25 152,210.55 161.1,200.9 L161.35,200.55 162,195.05 Q162.15,192.85 161.85,191.15 161.45,188.55 159.35,185.6 L155.3,180.9 Q153.8,180.25 151.8,182.05 150.65,182.95 149.15,185.1 146.6,188.7 144.55,193.05 L143.75,195.1 Q143.15,196.6 142.6,197.05 142.25,197.35 141.15,197.6 L136.75,198.55 Q136.15,198.7 135.6,198 135.05,197.35 135.6,196.9 142,192 145.75,186.15 150.05,179.5 150.35,172.25 150.45,169.8 150.05,166.9 149.7,164.05 148.95,161.85 L139.7,164.55 Q131.7,166.55 125.45,166.55 117.8,166.55 110.3,164.7 M128.9,110.35 Q129.65,109.6 131.05,109.45 132.6,109.3 135.75,108 139.7,106.3 141.8,104.2 140.6,103.45 134.95,101.1 130.95,110 122.65,110.05 119.05,110.05 116.25,108.05 113.3,106.05 112.2,102.6 L110.15,101.4 110.1,101.4 108.9,102.05 Q107.35,102.9 106.25,104 106.85,104.6 108.9,105.7 L111.5,106.9 111.55,106.9 112.1,107.1 Q112.9,107.45 113.2,108.3 113.5,109.15 113.2,110.05 112.65,111.4 111.65,115.8 110.3,121.6 109.7,126.15 109.15,130.6 109.05,137.1 L109.15,145.05 Q109.1,145.65 108.7,145.95 108.3,146.35 107.45,146.25 102.25,145.4 100.9,144.9 L102.1,160.5 111,162.85 Q120.9,165.1 125.65,164.95 130.5,164.8 136.8,163.35 142.85,161.95 146.9,160.2 146.4,153 146.75,146.3 L137.7,147.35 127.75,147.65 Q127,147.55 126.4,146.95 125.8,146.35 125.7,145.7 125.45,142.9 125.55,135.75 125.6,128.4 125.95,124.85 126.45,119.35 127.9,112.45 128.2,111 128.9,110.35 M50,126.3 L60.45,127 Q61.45,126.35 61.5,125.55 61.55,124.85 60.6,124.1 L50.1,123.05 Q50.35,124.55 50,126.3 M43.35,118.15 Q41.85,115.5 41.65,112.65 41.4,109.3 43.2,106.85 46.9,101.75 57.75,101.75 62.8,101.75 69.45,103 81,105.2 89.7,113.9 L91.45,112.05 Q82.15,102.75 69.95,100.5 63.1,99.2 57.7,99.2 45.6,99.2 41.1,105.35 39.1,108.2 39.1,111.95 39.1,115.75 41.15,119.4 42.45,121.8 44.35,123.55 46.2,125.25 48.3,125.95 48.65,124.5 48.4,123.25 45.35,121.7 43.35,118.15 M77.75,122.3 L75.8,120.35 Q74.3,120.75 72,124.25 70.55,126.45 71.2,129.7 71.55,131.6 72.4,133.35 72.7,133.9 73.8,134.55 L74.1,134.8 Q77.4,137.05 82.75,138.45 90.5,140.55 97.75,138.85 97.8,134.2 98.2,127.75 L98.6,122.3 99.25,122.2 100.6,143.25 107.65,144.75 107.65,143.85 107.6,143.7 Q107.5,141 107.55,137.05 107.65,130.4 108.2,125.95 108.75,121.45 110.1,115.65 111.2,111.1 111.75,109.55 L111.8,108.95 111.5,108.5 111,108.3 Q107.75,107.15 106.55,105.75 L104.75,104.2 Q100.5,107 95.9,111.4 91,116.1 88.7,119.85 87.05,122.55 86.4,128 84.1,125.3 83.9,123.2 79.95,123.85 77.75,122.3 M64.05,118.8 L64.7,119.2 Q66.05,119.85 66.35,120.55 L66.35,120.85 66.15,121.25 Q65.9,121.4 65.45,121.25 L65.4,121.25 Q64.5,120.4 62.8,120.1 L60.3,119.95 Q59.65,120.05 59.5,120.2 59.3,120.7 59.65,121.4 L60.2,122.35 61.15,122.45 62.2,123.2 Q63,124.05 63.15,125.05 L63.65,125.9 Q64.25,127.05 63.95,127.5 L63.55,127.65 Q63.2,127.65 62.8,126.9 62.2,128 61,128.6 L60.8,128.7 59.45,128.6 Q59.75,129.4 60.45,130.25 61.05,131.1 62.8,131.7 L65.45,132.25 Q66.8,132.45 69.7,131.55 68.4,126.5 70.65,123.05 72.6,120.1 74.5,118.95 72.65,117.8 70.8,117.8 71.3,118.25 71.8,119.15 L71.9,119.3 72,119.35 72,119.85 71.8,120.3 71.15,120.15 69.4,118.95 Q68.3,118.45 66.65,118.4 65.4,118.35 64.05,118.8 M104.85,58.75 Q104.2,59.65 104.2,61.4 104.2,62.4 105,64.5 106.55,62.05 108.1,60.2 107.05,59.7 106.3,58.75 105.55,57.75 104.85,58.75 M121,55.05 Q119.65,54.3 118.75,54.6 118.1,54.85 115.8,57.05 L113.25,59.3 Q111.35,60.5 109.7,60.5 105.6,65.45 103.7,70.6 100.55,79.05 102.85,87.75 105.25,96.85 112.5,101.45 116.65,104.15 120.3,104.6 L123,104.9 Q123,105.25 120.8,105.55 118.6,105.85 118,105.6 118.1,107.1 120.15,107.55 L124.9,107.3 Q131.65,105.6 133.25,100.45 130.9,101.6 129.15,101.45 127.3,101.35 129,100.6 135,97.95 139.85,91.7 143.65,92.75 145.85,89.5 148.15,86.2 145.35,83.3 144.95,82.6 145.65,82.35 L146.35,82.25 146.55,81.95 145.35,79.45 Q144.4,77.55 143.55,76.4 L141.7,74.5 Q141.15,74.05 141.3,73.5 141.45,72.95 141.95,73.2 143.1,73.95 144.4,75.7 145.95,77.8 147,81.1 L147.4,80.35 Q146,76.1 144.4,74.05 L142.6,71.65 141.65,70.65 Q141.25,70.3 141.5,70 L142.35,69.95 Q143.15,70.35 145.25,73.45 146.9,76.15 147.75,79.5 148.45,75.5 145.6,71.8 144.65,70.6 142.05,68.35 141.55,68 141.9,67.6 L142.3,67.3 Q146.15,65.9 145.5,62.95 144.95,60.2 142.6,60.15 L136.55,60.55 Q135.3,60.4 134.65,59.4 133.25,57.15 131.25,56.2 129.35,55.35 127.7,55.95 125.95,56.6 124.95,56.65 123.55,56.8 122.4,56 L121,55.05 M113.65,60.9 Q114.05,60.75 114.35,60.9 114.65,61.1 114.65,61.55 L114.65,62.4 Q114.65,62.85 114.35,63.15 L113.6,63.35 110.2,62.95 Q109.75,62.9 109.75,62.8 109.75,62.6 110.1,62.45 L113.65,60.9 M111.25,72.45 Q110.6,73.2 110.05,73.1 109.4,72.95 109.1,72.05 108.8,71.15 109,69.95 109.2,68.8 109.85,68.05 110.45,67.3 111.1,67.4 111.75,67.5 112.05,68.45 112.3,69.35 112.05,70.55 111.85,71.75 111.25,72.45 M117.1,72.65 L119.3,69.5 Q119.8,68.85 120.2,68.95 120.4,69 120.4,69.25 L120.25,69.85 Q119.25,72 117.9,73.85 L115.6,76.95 Q115.1,77.6 115.5,78.4 L116.7,80.7 116.75,81.25 116.25,81.55 Q114.95,82 114.3,80.95 L112.85,77.85 Q112.65,77.55 112.75,77.15 L113.1,76.55 117.1,72.65 M104.5,84.6 L104.85,84 106.7,82.35 Q106.95,82.1 107.1,82.15 L107.15,82.6 107.05,83.2 Q106.95,83.55 107.15,83.85 L107.7,84.25 110.4,85.2 Q113.5,86.15 115.3,86.25 118.2,86.4 124.3,85.15 L125,84.75 125.25,84.15 124.95,82.7 Q124.8,81.95 125.4,82.45 L129.1,86.1 Q129.8,86.65 129.5,87.45 L128.15,91.1 Q127.9,91.9 127.5,91.15 L127.75,89.25 127.3,88.75 126.55,88.65 Q124.75,89.65 122.45,90.5 117.85,92.3 115.25,91.9 112.65,91.45 109.75,89.4 L107.3,87.4 Q107,87.3 106.75,87.4 L106.4,87.9 106.35,88.35 106.2,88.7 105.95,88.4 104.55,85.3 Q104.4,85 104.5,84.6 M115.05,93.1 L115.8,93.05 Q116.2,93.05 116.5,93.3 L116.8,93.85 Q116.8,94.65 115.85,94.8 114.35,95.05 113.35,94.4 L112.05,93.4 111.75,93.1 Q111.8,92.9 112.2,92.95 L115.05,93.1 M128.8,64.6 Q128.7,64.35 129.35,63.6 L130.1,62.9 Q130.3,62.6 130.65,62.6 131,62.55 131.25,62.8 L132.8,64.85 Q134.25,67.1 133.85,68.1 L128.8,64.6 M130.25,71.3 Q130.5,72.2 130.3,73.4 130.1,74.6 129.5,75.3 128.9,76.1 128.25,75.95 127.6,75.8 127.3,74.95 127,74 127.25,72.85 127.45,71.65 128.1,70.9 128.7,70.15 129.35,70.25 129.95,70.35 130.25,71.3 M140.85,76.7 Q141.15,76.35 141.5,76.55 142.6,77.25 143.35,78.35 L144.15,79.9 Q144.55,80.8 144.4,81.1 144.25,81.55 143.65,80.6 L142.55,78.95 141.1,77.55 Q140.55,77.1 140.85,76.7 M140.55,80.65 Q140.2,80.35 140.5,79.95 140.75,79.55 141.15,79.85 L142.05,80.8 Q142.55,81.6 142.5,82.15 142.45,82.8 141.95,82.75 141.4,82.7 141.45,82.25 141.5,81.85 141,81.2 L140.55,80.65 M110.3,86 L107.5,85.05 Q106.5,84.75 106.55,85.6 106.65,86.45 107.2,86.7 L112.1,89.3 Q113.25,89.85 115.45,90.1 117.65,90.35 119,90.1 120.85,89.8 125.85,88.05 L126.7,87.55 Q127,87.05 126.55,86.55 126.1,86.05 125.45,86 L124.5,86.05 Q118.95,87.35 115.55,87.1 L110.3,86 M141.3,47.9 Q139.9,47.5 137.7,46.4 L135.55,44.4 Q133.75,42.7 132.5,42.7 131.35,42.7 128.75,45.75 L126.95,47.6 Q126.1,48.15 124.45,47.35 122.45,46.35 121.2,46.45 119.55,46.6 115.2,50.35 113.7,51.6 111.85,51.6 110.05,51.55 108.8,50.15 107.9,49.15 108.3,47.6 107,48.55 106.3,49.9 105.35,51.6 105.5,54 105.7,56.5 107.05,58.2 107.95,59.4 109.55,59.35 110.9,59.3 112.5,58.35 L114.95,56.15 Q117.25,54 118.15,53.65 L120.55,53.4 123.35,55.25 124.9,55.3 130.2,53.05 Q131.9,52.6 134.2,55.85 L136.85,59.5 139.6,59.2 Q142,58.55 142.85,58.55 145.65,58.6 146.9,60.55 147.8,61.9 147.8,63.8 147.75,65 146.3,66.4 145.1,67.45 143.65,68.25 L146.5,71.45 Q148.65,74.3 148.85,78 150.05,75.85 151,72.9 152.95,67.1 151.9,63.15 151.3,60.9 150.3,58.8 148.9,56 147.4,55.05 L145.35,51.6 Q143.75,48.65 141.3,47.9 M171.4,193.5 Q169,187.45 164.65,185.25 L162.9,184.35 Q161.95,183.65 161.85,182.7 161.85,182.1 162.55,181.4 L163.3,180.9 Q163.35,180.7 162.8,180.5 L157.05,180.65 Q160.1,184 161.6,186.55 163.65,190.1 163.7,193.45 163.8,197.3 163.1,201.15 166.75,204.65 169.7,206.1 171.65,207.05 172.35,206.45 173.05,205.9 173,203.7 172.9,197.35 171.4,193.5 M184.35,133.95 L186.6,133.9 186.6,133.95 Q187.85,133.4 189,132.25 L190.25,130.5 183,131.95 Q182.5,132.2 182.4,132.7 L182.6,133.2 Q183.15,133.7 184.35,133.95 M188.6,129.45 Q190.35,128.6 191.45,126.45 192.1,125.15 192.1,123.9 L191.5,124.35 Q190.45,125.2 189.8,125.25 188.35,125.95 187.25,126.15 L186.15,126.4 183.2,126.8 Q182.65,127.1 182.7,128.1 182.7,128.9 183.7,129.4 184.8,130.05 186.6,129.95 L188.6,129.45 M182.2,134.85 L182.05,135.9 181.6,136.4 181.05,138.3 185.9,139.7 187.1,135.5 Q185.25,135.95 182.2,134.85 M176.55,134.4 Q173.85,132.85 172.85,130.25 172,128.15 172.15,125.45 172.4,123.35 172.25,123.3 169.25,123.7 163.5,125.85 156.75,128.3 155.55,130.15 156,127.05 158,125.1 159,124.15 159.9,123.8 159.05,122.1 157.25,119.3 153.5,113.8 148.4,108.65 L146.25,106.65 Q144.35,105.15 143.65,104.85 141.3,107.4 136.5,109.35 132.95,110.75 131.15,110.95 130.35,111.05 129.95,111.45 129.6,111.8 129.35,112.75 128.2,118.1 127.45,125 127.1,128.5 127,135.75 127,142.85 127.2,145.55 L127.45,145.9 127.9,146.1 Q130.65,146.4 137.6,145.85 L146.9,144.7 147,143.35 140.2,138.95 142.15,137.6 147.6,140.3 Q153.5,143.05 155.55,143.45 164.95,145.2 172.6,140.9 177.75,138 178.65,135.9 178.8,135.65 176.55,134.4 M185.8,120.6 L185.2,120.55 Q182.85,121.2 182.75,122.2 182.6,123.55 184,124.45 185.35,125.25 187.1,124.85 L188.95,124.2 189.8,123.75 189.85,123.85 Q190.85,123.25 191.65,122 L192.65,120.05 192.75,119.2 Q192.4,118.8 191.6,118.8 L189.9,119.05 Q189.05,119.35 188.6,119.8 187.85,120.45 185.8,120.6 M186.95,115.95 L182.95,115.4 Q180.3,115.05 178.85,116.45 L176.45,119.65 Q175.55,120.75 175.35,122.5 L175.1,124.4 Q174.1,125.95 175.15,129.2 176.45,131.05 179.35,132.6 L181.15,132.95 181.15,132.55 Q181.3,131.4 182.25,130.9 L182.45,130.45 182.25,129.95 Q181.5,129.2 181.45,128.1 181.45,127.35 181.65,126.8 L180.05,127.55 179.3,127.8 179.35,126.65 Q180.95,126.2 181.55,123.1 L181.45,122.1 Q181.65,120.45 184.05,119.6 185.25,119.15 186.7,119 187.9,118.1 187.8,116.95 187.75,116.15 186.95,115.95 M188.75,110.35 L188.55,110.25 187.45,114.2 Q188.75,114.4 189.25,114.85 189.9,115.4 189.7,116.7 L192,116.5 193.3,111.85 Q190.8,111.4 188.75,110.35 M201.15,98.1 L200.25,98.15 Q197.2,98.6 194.15,102.55 192.1,105.2 190.2,109.15 L192.7,109.95 Q194.35,106.5 196.15,104.15 198.55,101 200.65,100.7 L201.1,100.65 Q202.8,100.65 204.55,102.8 207.05,105.85 207.45,118.55 207.85,130.35 206.45,146.75 203.1,184.3 195.85,202.3 192.2,211.3 184.1,214.05 180.8,215.25 176.7,215.25 167.25,215.25 155.25,208.85 L152.95,210.5 Q166.15,217.8 176.75,217.8 181.15,217.8 184.95,216.5 189.5,214.9 192.85,211.55 196.25,208.2 198.2,203.25 201.55,195.1 204.45,179.9 207.35,164.8 208.95,147.5 210.15,134.15 210.15,123.5 210.1,105.65 206.55,101.2 204.1,98.1 201.15,98.1Z"/></g></svg>