<?xml version="1.0" encoding="utf-8"?><svg id="Endurance" image-rendering="auto" baseProfile="basic" version="1.1" x="0px" y="0px" width="240" height="240" xmlns="http://www.w3.org/2000/svg" xmlns:xlink="http://www.w3.org/1999/xlink"><g id="Scene-1f1r1" overflow="visible"><path fill="#FFF" stroke="none" d="M144.3,214.6 Q146.75,219.6 148.55,218.4 153.3,215.3 153.8,205.55 L153.8,203.45 Q153.7,202.4 153.15,201.5 L152,199.85 Q151.15,198.45 150.9,197.3 149.8,202.7 146.05,205.4 144,206.8 141.4,206.85 142.6,211.15 144.3,214.6 M150.65,188.25 Q151.7,192.35 151.05,196.35 151.3,196.05 152.9,195.6 154.1,195.2 154,194.4 L153.1,190.45 Q152.05,187.35 150.65,188.25 M101.9,158.55 Q99.8,169.05 101.4,179.15 103,189 108,193.9 114.15,199.9 125.45,199.1 122.4,195.15 120.25,187.8 117.3,178.15 116.65,170.15 116.6,169.25 117.45,169.55 118.3,169.9 118.4,170.6 118.9,176.95 120.9,184.4 123,192.05 124.7,195.35 127.7,201.1 132.8,203.15 L138.6,205 Q142.25,205.6 144.4,204.05 147.95,201.5 149.1,196.7 150.15,192.2 148.9,187.8 L146.15,182.95 144.55,184.8 Q141.65,189.2 137.1,192.15 136.55,192.55 135.9,191.85 135.2,191.1 135.75,190.65 L142.9,183.6 Q149.55,173.95 148.05,158.8 135.4,163.1 125.6,163.1 118.1,163.1 110.7,161.35 105.85,160.2 101.9,158.55 M135.65,104.75 Q139.4,103.25 141.45,101.15 138,99.05 135.1,97.7 131.05,106.6 122.75,106.6 119.25,106.6 116.4,104.65 113.5,102.65 112.35,99.2 L110.3,98 Q107.8,99.15 106.4,100.55 L109.1,102.3 111.7,103.45 111.75,103.45 112.3,103.7 Q113.05,104.05 113.35,104.9 113.65,105.75 113.3,106.6 112.75,108.4 111.8,112.4 110.4,118.2 109.85,122.75 109.3,127.2 109.2,133.7 L109.3,140.3 Q109.4,142.05 108.9,142.55 108.45,142.95 107.6,142.85 102.4,142 101.1,141.45 L102.25,157.1 111.2,159.45 Q121,161.7 125.8,161.55 130.65,161.35 136.95,159.9 143,158.55 147.05,156.8 146.6,149.6 146.9,142.9 L137.9,143.95 127.9,144.25 Q127.2,144.15 126.55,143.55 125.95,142.95 125.85,142.3 125.6,139.55 125.65,132.35 125.75,125.05 126.1,121.45 126.75,114.7 128.05,109.05 128.35,107.6 129.05,106.9 129.85,106.2 131.2,106.05 132.85,105.85 135.65,104.75 M47.4,111.5 L47.35,111.65 Q47.65,114.15 46.55,116.5 L58.1,118.8 Q59.8,118.25 60.1,116.8 60.25,115.9 59.65,115 L58.95,114.3 47.4,111.5 M69.85,116.6 Q68.2,118.6 68.4,121.95 68.55,123.8 69.15,125.65 69.35,126.2 70.4,127.05 L70.7,127.3 Q74.25,130.4 80.35,132.55 89.35,135.6 97.95,133.3 L98.8,118.9 99.4,118.75 100.8,139.85 107.8,141.35 107.75,140.3 Q107.7,137.65 107.75,133.65 107.75,127 108.3,122.55 108.9,118.05 110.3,112.25 111.35,107.65 111.9,106.15 112.15,105.3 111.65,105.1 L111.2,104.9 Q107.9,103.75 106.75,102.35 106.55,102.1 105.15,101.6 L105.15,101.65 Q100.55,103.4 95.45,106.75 89.8,110.5 86.95,114.1 85.7,115.7 84.55,119 L83.65,121.95 Q81.7,119 81.8,116.95 77.75,117.1 75.75,115.3 L74.05,113.15 Q72.4,113.55 69.85,116.6 M65.15,110.1 L62.55,110.3 63.15,110.75 Q64.45,111.5 64.65,112.25 L64.65,112.35 Q64.65,112.75 64.35,112.95 L63.65,112.85 63.65,112.8 Q62.8,111.85 61.15,111.4 59.9,110.95 58.7,110.95 L57.9,111.15 Q57.6,111.5 57.85,112.3 L59.65,112.7 59.95,112.95 61.1,114.2 Q62.1,115.6 61.75,117.15 L61.55,117.85 Q61.65,118.6 61.4,118.9 L61.05,119 60.9,118.95 Q59.8,120.15 58.6,120.45 L58.2,120.55 57.15,120.35 57.6,121.25 Q58.2,122.2 59.85,122.95 61.2,123.6 62.4,123.8 L66.65,123.6 Q66,118.4 68.65,115.25 70.9,112.5 72.9,111.6 71.25,110.25 69.4,110.05 L70.25,111.5 70.3,111.65 70.35,111.7 70.35,111.75 Q70.35,112.5 70.1,112.65 L69.45,112.45 69.4,112.45 69.4,112.4 67.8,111 Q66.8,110.35 65.15,110.1 M88.6,86.9 Q94.95,86.05 100.9,84.45 L100.4,81.9 Q94.5,83.55 88.2,84.4 64.1,87.75 51.6,95.5 41.25,101.95 41.6,109.25 41.75,113.2 45.2,115.25 45.75,113.8 45.7,112.5 44.2,111.2 44.15,109.2 43.9,103.55 52.9,97.85 64.8,90.2 88.6,86.9 M104.35,58 Q104.35,59 105.15,61.1 106.7,58.65 108.3,56.8 107.2,56.25 106.5,55.35 105.7,54.35 105.05,55.35 104.35,56.2 104.35,58 M121.2,51.65 Q119.8,50.9 118.95,51.2 118.25,51.45 115.95,53.65 L113.45,55.9 Q111.5,57.1 109.85,57.1 105.85,61.85 103.8,67.2 100.75,75.65 103.05,84.35 105.4,93.45 112.65,98.05 116.85,100.75 120.45,101.2 L123.15,101.45 Q123.2,101.85 120.95,102.15 118.75,102.45 118.15,102.2 118.25,103.7 120.35,104.15 L125,103.9 Q131.8,102.2 133.35,97.05 131.05,98.2 129.3,98.05 127.5,97.95 129.15,97.2 135.15,94.55 140,88.3 143.75,89.35 146.05,86.1 148.3,82.8 145.5,79.9 145.15,79.2 145.8,78.95 L146.85,78.8 Q144.7,74.35 143.75,72.95 L141.9,71.1 Q141.3,70.6 141.45,70.05 141.65,69.55 142.1,69.8 143.25,70.55 144.6,72.3 146.4,74.65 147.3,78.2 L147.65,77.25 Q146.35,72.9 144.6,70.6 L142.75,68.25 141.8,67.25 Q141.4,66.9 141.7,66.6 L142.5,66.55 Q143.35,66.95 145.45,70.05 147.1,72.75 147.95,76.1 148.55,72.05 145.75,68.4 L142.25,64.95 Q141.7,64.55 142,64.2 L142.45,63.9 Q146.3,62.5 145.7,59.55 145.1,56.8 142.75,56.75 L136.75,57.15 Q135.45,57 134.8,55.95 133.4,53.75 131.4,52.8 129.55,51.95 127.9,52.55 L125.1,53.25 Q123.7,53.35 122.55,52.6 L121.2,51.65 M113.8,57.5 Q114.25,57.35 114.5,57.5 114.8,57.7 114.8,58.15 L114.8,59 Q114.8,59.45 114.5,59.7 L113.75,59.95 110.35,59.55 109.9,59.4 Q109.9,59.2 110.3,59.05 L113.8,57.5 M110.05,64.6 Q110.6,63.9 111.25,64 111.85,64.1 112.15,65.05 112.45,66 112.25,67.15 112.05,68.3 111.45,69.05 110.8,69.8 110.2,69.7 109.55,69.55 109.25,68.6 108.95,67.75 109.15,66.55 109.4,65.4 110.05,64.6 M120.4,65.55 L120.55,65.85 120.4,66.45 Q119.4,68.6 118.1,70.45 L115.8,73.5 Q115.25,74.2 115.65,74.95 L116.9,77.25 116.95,77.8 Q116.75,78.1 116.4,78.1 115.1,78.6 114.45,77.55 L113,74.45 Q112.85,74.15 112.9,73.75 L113.25,73.15 117.25,69.2 119.5,66.1 Q119.95,65.45 120.4,65.55 M106.85,78.95 Q107.15,78.7 107.25,78.75 L107.3,79.2 107.15,79.8 107.3,80.45 107.85,80.85 110.6,81.8 Q113.7,82.75 115.5,82.85 118.35,83 124.45,81.75 L125.15,81.35 Q125.5,81.05 125.4,80.7 L125.1,79.3 Q125,78.95 125.15,78.9 125.3,78.8 125.6,79 L129.3,82.7 Q129.95,83.25 129.65,84.05 L128.3,87.7 128,88.05 Q127.8,88.1 127.65,87.75 L127.9,85.85 127.45,85.35 126.75,85.25 122.65,87.1 Q118.05,88.9 115.45,88.5 112.85,88.05 109.9,86 L107.45,84 Q107.15,83.85 106.9,84 L106.55,84.5 106.55,84.95 106.35,85.3 106.05,85 104.7,81.9 104.65,81.2 105,80.6 106.85,78.95 M116.65,89.9 L116.95,90.45 Q116.95,91.2 116.05,91.35 114.55,91.65 113.5,91 L112.2,90 111.95,89.65 Q112,89.5 112.35,89.55 L116,89.65 Q116.35,89.65 116.65,89.9 M128.95,61.2 Q128.85,60.95 129.55,60.2 L130.25,59.5 Q130.5,59.2 130.8,59.2 131.15,59.15 131.4,59.4 L132.95,61.4 Q134.45,63.7 133.95,64.7 133.7,64.65 132.85,63.95 L128.95,61.2 M127.35,71.05 Q127.1,70.15 127.3,68.95 127.55,67.75 128.15,67.05 128.75,66.3 129.35,66.4 130,66.55 130.3,67.45 130.6,68.35 130.4,69.55 130.2,70.7 129.55,71.5 128.95,72.2 128.3,72.1 127.65,72 127.35,71.05 M141.05,73.3 Q141.3,72.95 141.7,73.15 142.7,73.8 143.5,74.95 L144.3,76.5 Q144.7,77.4 144.6,77.7 144.4,78.15 143.8,77.2 L142.7,75.5 141.25,74.15 Q140.75,73.7 141.05,73.3 M141.65,78.85 Q141.7,78.45 141.15,77.8 L140.7,77.25 Q140.35,76.95 140.65,76.55 140.9,76.1 141.35,76.4 L142.25,77.4 Q142.7,78.2 142.65,78.75 142.6,79.4 142.1,79.35 141.6,79.3 141.65,78.85 M107.7,81.65 Q106.65,81.35 106.7,82.2 106.85,83.05 107.4,83.3 L112.3,85.9 Q113.45,86.45 115.6,86.7 117.8,86.95 119.2,86.7 121,86.4 126.05,84.65 L126.85,84.15 Q127.2,83.65 126.75,83.15 126.25,82.65 125.6,82.6 L124.7,82.65 Q119.1,83.95 115.75,83.7 L110.45,82.6 107.7,81.65 M127.1,44.15 Q126.25,44.75 124.65,43.95 122.65,42.95 121.35,43.05 119.75,43.2 115.4,46.95 113.85,48.2 112.05,48.15 110.2,48.15 108.95,46.75 108.05,45.75 108.45,44.2 107.15,45.05 106.45,46.45 105.5,48.15 105.7,50.6 105.9,53.1 107.2,54.8 108.1,55.95 109.75,55.95 111.1,55.9 112.65,54.95 L115.05,52.75 Q117.4,50.6 118.3,50.25 119.75,49.7 120.7,50 121.05,50.15 122.45,51.05 L123.55,51.85 125.05,51.9 130.4,49.65 Q132.05,49.2 134.35,52.45 L137.05,56.1 143.05,55.15 Q145.8,55.2 147.1,57.1 148,58.5 148,60.4 147.95,61.6 146.45,63 145.25,64.1 143.75,64.85 L146.65,68.05 Q148.85,70.9 149,74.6 150.2,72.45 151.2,69.5 153.1,63.7 152.1,59.7 151.45,57.4 150.45,55.4 149.05,52.55 147.5,51.6 147.3,51.5 145.5,48.2 143.9,45.25 141.45,44.5 140.05,44.1 137.9,42.95 L136.7,42.05 135.7,40.95 Q133.85,39.25 132.65,39.25 131.55,39.25 128.9,42.35 L127.1,44.15 M196.75,142.1 Q195.85,141.45 195.3,142.35 192.7,146.5 190.2,149 187,152.15 183.2,153.65 182.25,154.1 182.7,155.05 183.2,155.95 184.1,155.6 188.1,154 191.55,150.7 194.35,147.95 197.1,143.55 197.6,142.7 196.75,142.1 M184.9,127.8 Q185.15,128.25 184.9,128.8 L184.5,129.4 184.1,131.35 189.05,132.25 189.85,127.95 184.9,127.8 M173.85,117.25 Q170.85,118.05 165.4,120.7 159,123.8 157.9,125.7 158.1,122.55 159.9,120.45 160.8,119.45 161.65,119 160.05,116.4 156.85,112.9 150.55,105.9 142.9,101.8 140.6,104.4 136.25,106.15 133.2,107.35 131.35,107.55 130.5,107.65 130.15,108.05 129.75,108.4 129.55,109.35 128.2,115.1 127.6,121.6 127.3,125.05 127.2,132.35 127.15,139.45 127.35,142.15 L127.6,142.5 128.05,142.7 Q130.75,143 137.75,142.45 L147.05,141.3 147.45,138.1 143.55,136 145.35,134.5 151.05,136.6 Q157.2,138.85 159.3,139 168.8,139.85 176,134.8 180.85,131.4 181.5,129.15 181.6,128.95 179.25,127.9 176.4,126.6 175.15,124.15 174.15,122.1 174,119.45 L173.85,117.25 M192.5,122.65 L191.45,123.05 Q190.4,123.6 189.15,123.75 L187.05,124.35 Q185.8,124.6 185.45,124.85 184.95,125.1 184.9,125.65 L184.9,125.75 188.2,126.6 189.2,126.45 Q190.4,125.8 191.45,124.5 L192.5,122.65 M186.95,119.15 Q185.55,119.35 185.15,119.65 184.65,120.05 184.75,121 184.9,121.8 185.85,122.25 L188.85,122.5 190.75,121.8 Q192.4,120.85 193.25,118.5 193.8,117.1 193.7,115.95 L193.15,116.4 Q192.1,117.35 191.55,117.5 190.15,118.35 189.15,118.65 L188.05,119 186.95,119.15 M187.75,108.5 L183.75,108.35 Q181.1,108.3 179.75,109.8 L176,115.8 Q174.8,119.9 177.3,122.8 178.35,124.1 180.1,125.05 L182.9,126.3 183.5,126.05 183.65,125.6 Q183.7,124.5 184.6,123.9 L184.7,123.4 Q184.65,123.05 184.45,122.85 183.65,122.25 183.5,121.15 183.4,120.4 183.6,119.8 L182.1,120.75 181.35,121.05 181.3,119.9 Q182.85,119.3 183.15,116.15 L182.95,115.2 Q182.95,113.55 185.2,112.45 186.5,111.8 187.85,111.6 188.95,110.55 188.7,109.4 188.6,108.65 187.75,108.5 M193.85,111.2 Q193.55,110.85 192.7,110.9 191.9,110.95 191.05,111.35 L189.8,112.15 Q189.2,112.85 187.15,113.25 L186.5,113.25 Q184.25,114.1 184.25,115.2 184.25,116.55 185.65,117.25 L188.8,117.35 191.45,116 191.5,116.1 Q192.4,115.35 193.05,114.1 L193.85,112 193.85,111.2 M192.85,108.6 L193.7,103.8 Q191.15,103.6 189,102.75 L188.8,102.7 188.1,106.7 Q189.45,106.8 190,107.2 190.65,107.65 190.6,108.95 L192.85,108.6 M204.55,148.1 Q203.85,147.3 203.1,148.05 197.7,153.1 193.7,155.6 188,159.05 182.35,159.4 181.35,159.5 181.55,160.55 181.75,161.65 182.8,161.55 188.6,161.2 194.6,157.6 198.9,155 204.5,149.7 205.3,149 204.55,148.1 M180.9,34.95 Q190.6,34.95 199.75,40.95 207.65,46.15 212.85,54.25 218.05,62.35 217.95,69.3 217.75,78.45 212.85,83.9 209.9,87.2 202.35,91.25 197.6,93.85 195.5,95.4 192,98.1 190.45,101.45 L193,102 Q194.4,99.4 197.3,97.2 199.2,95.85 203.55,93.5 211.6,89.2 214.8,85.6 220.25,79.5 220.5,69.35 220.65,61.7 215.15,53.05 209.7,44.45 201.15,38.85 191.4,32.4 180.9,32.4 173.6,32.4 166.7,35.6 156.05,40.55 146.8,48.5 147.5,50.05 148.1,50.3 L148.4,50.45 Q157.3,42.75 167.75,37.9 174.15,34.95 180.9,34.95Z"/></g></svg>