<?xml version="1.0" encoding="utf-8"?><svg id="Endurance" image-rendering="auto" baseProfile="basic" version="1.1" x="0px" y="0px" width="240" height="240" xmlns="http://www.w3.org/2000/svg" xmlns:xlink="http://www.w3.org/1999/xlink"><g id="Scene-1f2r1" overflow="visible"><path fill="#FFF" stroke="none" d="M151.15,206.05 Q151.5,205.85 151.5,204.55 151.6,202.45 150.15,200.25 148.75,205.4 145.95,208.05 143.75,210.05 140.7,210.7 137.45,211.4 134.95,210.05 L134.25,210.95 Q132.65,213.3 131.65,215.2 L130.35,217.9 Q129.7,219.55 129.75,220.8 129.9,222.55 132.5,222.75 L136.45,222.35 Q141.05,221.2 144.3,217.55 149,212.45 148.85,209.95 L148.75,207.9 Q148.85,206.5 149.8,206.3 L151.15,206.05 M119.85,194.2 Q116.1,196.2 112.75,194.75 113.35,198.45 114.35,201.55 115.5,205.3 116.65,206.65 118.55,209.05 121.4,206.95 126.75,203 126.35,191 L125.6,189.25 Q122.85,192.7 119.85,194.2 M117.5,160.2 Q117.5,159.3 118.35,159.6 119.2,159.9 119.25,160.6 119.8,167.8 122.2,176.1 123.55,180.7 126.2,187.05 126.55,187.4 126.55,187.8 L135.1,208.45 Q137.6,210 141.1,208.65 144.3,207.45 145.9,204.9 148.1,201.5 148.8,197.75 148.75,197.2 148.95,196.25 L149.25,194.85 Q149.6,191.65 149.45,188.9 149.05,183.55 147.95,179.55 147.05,181.15 145.1,183.15 L142.55,185.55 Q142,186.1 141.4,185.3 140.7,184.55 141.2,184.05 147.1,178.35 148.95,168.25 150.2,161.25 149.65,150.15 145.1,151.75 140.25,152.9 132.8,154.6 126.95,154.6 119.1,154.6 111.35,152.7 106.5,151.5 102.7,149.85 101.15,162.4 103.55,174.3 105.85,186.4 111.8,192.45 112.3,192.95 113.5,193.25 L115.65,193.5 Q120.35,193.15 124.7,187.05 121.75,179.8 120.1,173.95 118.1,166.8 117.5,160.2 M72.15,101.15 L73.25,100.6 71.75,99.7 72.15,101.15 M48.25,93.65 L48.2,93.7 Q47.75,96.25 46,98.15 L55.6,103.25 Q56.35,102 57.7,101.45 57.45,100.35 57.6,99.1 L48.25,93.65 M60.5,97.4 Q60.1,97.75 60.1,98.55 L60.1,99 Q60.7,99.95 60.8,101.1 L61.1,101.6 Q61.9,102.3 62,104.3 62.1,105.55 61.6,105.85 L61.2,105.85 Q60.8,105.7 60.8,104.5 60.65,103.45 59.65,102.6 L59.3,102.5 58.9,102.6 58.8,102.6 Q57.6,103.55 57.3,104.15 56.8,105.15 57.3,107 57.55,108.05 58.9,109.3 L61.1,110.85 Q62.55,111.75 66.3,111.95 65.95,106.9 68.9,103.85 69.8,102.85 71.1,101.9 70.55,100.8 70,100.15 69.15,99.25 67.7,98.55 66.35,98 65.2,98 L65.65,98.55 Q66.6,99.65 66.6,100.45 L66.6,100.55 66.15,101 Q65.85,101.15 65.5,100.75 L65.45,100.7 Q64.9,99.6 63.55,98.6 62.45,97.85 61.3,97.5 L60.5,97.4 M52.1,14.5 Q51.45,13.8 50.6,14.35 47.15,16.95 44.7,21.05 42.7,24.4 41.2,29.35 40.9,30.3 41.85,30.65 42.9,31.05 43.2,30 44.65,25.4 46.4,22.25 48.7,18.5 52,16 52.8,15.3 52.1,14.5 M51.3,10.25 Q52.25,9.9 51.8,8.9 51.25,7.9 50.35,8.25 44.85,10.15 40,15.15 36.45,18.8 32.45,25.35 31.85,26.2 32.8,26.9 33.7,27.45 34.25,26.55 38.1,20.3 41.35,16.9 45.95,12 51.3,10.25 M107.75,92.05 Q108.3,92.65 110.4,93.75 112.1,94.6 113,94.95 L113.05,94.95 113.6,95.15 Q114.35,95.5 114.65,96.35 114.95,97.2 114.65,98.1 114.05,99.9 113.15,103.85 111.75,109.7 111.2,114.2 110.6,118.7 110.55,125.15 L110.6,131.8 Q110.7,133.55 110.2,134 109.75,134.45 108.9,134.3 103.7,133.45 102.4,132.95 102.9,141.05 103.55,148.6 L112.45,150.95 Q122.35,153.2 127.1,153 131.95,152.85 138.25,151.4 144.3,150.05 148.35,148.3 147.9,141.1 148.25,134.35 L139.2,135.45 129.25,135.7 Q128.5,135.65 127.9,135.05 127.3,134.45 127.2,133.75 126.95,131.05 127,123.85 127.05,116.5 127.4,112.95 128.1,106.2 129.35,100.55 129.65,99.1 130.4,98.4 131.15,97.7 132.5,97.5 134.2,97.35 137,96.25 140.75,94.75 142.8,92.65 139.35,90.5 136.4,89.2 132.4,98.05 124.1,98.1 120.55,98.1 117.75,96.15 114.8,94.15 113.7,90.7 L111.6,89.45 Q109.15,90.65 107.75,92.05 M108.05,93.85 Q107.9,93.6 106.15,92.95 101.4,94.4 96.2,97.4 90.3,100.7 87.2,104.1 85.85,105.55 84.5,108.8 L83.4,111.7 Q81.6,108.6 81.85,106.5 77.85,106.4 76,104.5 L74.45,102.2 Q72.85,102.4 70,105.3 68.15,107.2 68.15,110.55 68.1,112.55 68.65,114.3 68.85,114.95 69.8,115.8 L70.05,116.05 Q73.45,119.5 79.5,122 88.45,125.8 97.35,123.9 L99.35,123.35 100.1,110.35 100.75,110.25 102.1,131.35 Q102.85,131.7 109.15,132.85 L109.1,131.75 Q109,129.1 109.05,125.1 109.1,118.45 109.65,114.05 110.25,109.5 111.6,103.75 112.65,99.15 113.2,97.65 113.5,96.8 112.95,96.55 L112.6,96.45 112.5,96.35 Q109.2,95.2 108.05,93.85 M107.8,46.8 Q107.05,45.85 106.35,46.8 105.7,47.7 105.7,49.5 105.7,50.25 106.1,51.45 L106.5,52.5 107.2,51.45 Q108.4,49.65 109.6,48.25 108.55,47.75 107.8,46.8 M129.15,44.05 Q127.45,44.7 126.45,44.7 125,44.85 123.85,44.1 L122.5,43.15 Q121.15,42.4 120.25,42.7 119.55,42.95 117.25,45.1 L114.75,47.35 Q112.85,48.55 111.2,48.55 L108.95,51.45 Q106.55,54.95 105.15,58.7 103.7,62.55 103.45,66.45 103.1,71.1 104.35,75.8 106.75,84.95 114,89.55 118.15,92.2 121.8,92.7 L124.45,92.95 Q124.5,93.35 122.3,93.65 120.1,93.95 119.5,93.65 119.55,95.15 121.65,95.65 L126.35,95.4 Q133.1,93.65 134.7,88.5 132.35,89.65 130.6,89.55 128.8,89.4 130.45,88.7 136.45,86 141.35,79.8 145.1,80.8 147.35,77.55 149.6,74.3 146.85,71.4 146.45,70.65 147.15,70.4 L147.85,70.35 148,70.05 148.05,70.1 Q146.25,66.15 145.05,64.45 L143.2,62.55 Q142.6,62.1 142.8,61.55 142.9,61.05 143.4,61.3 144.55,62 145.9,63.75 147.75,66.3 148.6,69.7 L148.95,68.75 147.95,65.8 Q147.05,63.6 145.9,62.1 L144.05,59.7 143.15,58.75 Q142.7,58.4 143,58.05 L143.8,58 Q144.65,58.45 146.75,61.5 148.4,64.25 149.25,67.55 149.85,63.55 147.1,59.9 146.05,58.55 143.55,56.45 143.05,56.05 143.35,55.65 L143.75,55.35 Q147.6,53.95 146.95,51.05 146.4,48.25 144,48.2 L138.05,48.65 Q136.8,48.45 136.15,47.45 134.75,45.25 132.75,44.3 130.85,43.45 129.15,44.05 M115.15,49 Q115.55,48.8 115.8,49 116.1,49.2 116.1,49.6 L116.1,50.45 Q116.1,50.95 115.8,51.2 L115.1,51.4 111.7,51.05 111.2,50.85 Q111.2,50.7 111.6,50.5 L115.15,49 M118.6,60.7 L120.8,57.6 Q121.25,56.9 121.7,57.05 121.85,57.1 121.85,57.35 L121.75,57.95 Q120.7,60.05 119.4,61.95 L117.1,65 Q116.6,65.7 116.95,66.45 L118.2,68.75 118.25,69.3 117.75,69.6 Q116.4,70.05 115.8,69 L114.35,65.95 Q114.15,65.65 114.25,65.2 L114.6,64.6 118.6,60.7 M112.2,55.65 Q113.85,55.65 115.45,56.3 L115.25,58.8 Q114.45,58.15 113.2,57.8 110.65,57.15 108.6,58.75 108.9,55.65 112.2,55.65 M106,73.4 L106,72.65 106.3,72.05 108.15,70.4 108.6,70.25 108.6,70.65 108.5,71.25 108.6,71.95 Q108.85,72.25 109.15,72.35 L111.9,73.25 Q115,74.25 116.8,74.35 119.65,74.45 125.75,73.2 L126.45,72.85 Q126.8,72.55 126.75,72.2 L126.45,70.8 Q126.35,70.45 126.45,70.35 126.6,70.3 126.9,70.5 L130.6,74.15 Q131.3,74.7 131,75.5 L129.6,79.2 129.35,79.55 129,79.25 129.25,77.3 Q128.85,76.6 128.05,76.7 L123.95,78.6 Q119.35,80.4 116.75,79.95 114.15,79.55 111.2,77.5 L108.8,75.5 Q108.5,75.35 108.25,75.5 L107.9,76 107.85,76.4 107.7,76.75 107.4,76.45 106,73.4 M113.25,81.15 Q113.3,81 113.7,81 L116.55,81.15 117.3,81.1 Q117.7,81.1 118,81.35 L118.3,81.9 Q118.3,82.7 117.35,82.85 115.85,83.1 114.8,82.45 L113.5,81.5 113.25,81.15 M142.3,64.8 Q142.6,64.4 142.95,64.6 144,65.15 144.85,66.4 L145.65,68 Q146.05,68.9 145.9,69.2 145.75,69.65 145.15,68.65 L144,67 142.7,65.75 142.6,65.7 142.6,65.65 Q142.05,65.15 142.3,64.8 M142,68.05 Q142.25,67.6 142.65,67.9 L143.55,68.9 Q144,69.7 144,70.25 143.95,70.9 143.45,70.85 142.9,70.8 142.95,70.35 L142.5,69.25 142,68.7 Q141.7,68.4 142,68.05 M132.15,50.7 L132.75,50.85 134.25,52.9 Q135.75,55.15 135.3,56.2 L132.5,54.1 Q131.9,53.65 131,53.15 L130.25,52.7 Q130.2,52.45 130.85,51.65 L131.6,51 Q131.8,50.7 132.15,50.7 M134.95,63.2 L132.45,64.85 Q132.25,63.8 131.35,62.65 129.6,60.45 126,60.1 129.35,58.1 132.5,60.45 134.05,61.65 134.95,63.2 M108.3,73.15 Q108,73.25 108,73.7 108.05,74.55 108.7,74.75 L113.6,77.35 Q114.75,77.9 116.95,78.15 119.15,78.4 120.5,78.15 122.35,77.85 127.35,76.1 127.9,76 128.2,75.6 128.5,75.15 128.05,74.65 127.6,74.1 126.95,74.1 L126,74.1 Q120.4,75.45 117.05,75.2 L111.75,74.1 109,73.15 Q108.6,73 108.3,73.15 M137.05,32.45 Q135.15,30.75 133.95,30.75 132.85,30.75 130.2,33.8 L128.45,35.65 Q127.6,36.25 125.95,35.45 123.9,34.4 122.65,34.55 121.05,34.65 116.7,38.4 115.2,39.7 113.35,39.65 111.5,39.6 110.3,38.25 109.35,37.25 109.75,35.7 108.5,36.55 107.75,37.95 106.85,39.65 107,42.1 107.2,44.6 108.55,46.25 109.45,47.45 111.05,47.4 112.4,47.35 114,46.45 L116.35,44.2 Q118.7,42.1 119.6,41.75 L122.05,41.5 124.8,43.3 126.4,43.35 131.7,41.15 Q133.35,40.65 135.65,43.9 138.25,47.55 138.35,47.6 L141.1,47.3 Q143.5,46.65 144.35,46.65 147.15,46.7 148.4,48.6 149.3,49.95 149.25,51.9 149.25,53.05 147.75,54.5 L145.1,56.3 148,59.5 Q150.15,62.35 150.35,66.05 151.5,63.95 152.5,61 154.4,55.15 153.4,51.2 152.75,48.9 151.8,46.9 150.35,44.05 148.85,43.1 148.6,42.95 146.85,39.7 145.2,36.7 142.8,36 141.45,35.6 139.2,34.45 L138,33.5 137.05,32.45 M177.55,114.05 Q176.4,112.05 176.1,109.4 L175.85,107.2 Q172.9,108.15 167.65,111.1 161.35,114.55 160.4,116.5 160.45,113.35 162.1,111.15 162.95,110.1 163.8,109.6 161.1,106.5 157.25,102.9 149.7,95.7 144.25,93.3 141.95,95.9 137.55,97.65 134.5,98.85 132.65,99.05 131.85,99.15 131.45,99.5 131.05,99.9 130.85,100.85 129.55,106.6 128.95,113.05 128.6,116.55 128.5,123.85 128.45,130.9 128.7,133.65 L128.95,134 129.35,134.2 Q132.1,134.5 139.1,133.95 L148.35,132.8 148.9,128.65 146.55,127.5 148.25,125.9 154.05,127.7 Q160.3,129.6 162.4,129.65 171.95,130 178.9,124.6 183.35,121.15 184.15,118.75 184.25,118.5 181.8,117.55 178.9,116.45 177.55,114.05 M187,117.1 L186.5,117 185.8,120.75 190.75,121.65 191.55,117.35 187,117.1 M191.65,115.6 L191.65,115.65 Q192.9,114.95 193.8,113.6 L194.75,111.65 193.75,112.1 Q192.75,112.7 191.5,112.95 L187.8,114.25 Q187.35,114.5 187.35,115.05 L187.65,115.55 Q188.25,115.95 189.45,115.95 L191.65,115.6 M193,110.95 Q194.6,109.8 195.35,107.5 195.85,106 195.6,104.9 L195.1,105.45 193.55,106.6 Q192.15,107.5 191.2,107.8 L190.1,108.25 189.05,108.5 Q187.65,108.8 187.25,109.1 186.8,109.45 186.95,110.4 187.1,111.25 188.15,111.6 L191.1,111.75 193,110.95 M195.55,100.15 Q195.25,99.85 194.4,99.95 193.6,100 192.75,100.45 191.9,100.85 191.55,101.35 190.9,102.2 188.95,102.6 L188.3,102.6 Q186.1,103.6 186.15,104.65 186.15,105.9 187.65,106.6 189,107.25 190.8,106.6 L192.55,105.65 193.35,105.1 193.45,105.2 Q194.3,104.4 194.9,103.1 L195.55,101 195.55,100.15 M190.95,90.45 L193.5,91.1 Q194.85,76 180.15,57.45 167.85,41.9 148.6,28.65 133.15,18.05 117.1,11.65 99.6,4.7 85.85,4.7 74.9,4.7 67.5,9.25 50.7,19.65 55,50.8 56.75,63.05 53.85,65.7 52.9,66.6 51,66.6 L40.05,65.1 Q34.1,65.1 31.1,70.1 27.5,75.95 29.4,81.95 31,86.9 36.25,91.5 39.8,94.55 44.6,97.15 L44.75,97 Q45.5,96.2 46.05,95.05 41.35,92.55 37.8,89.4 33.15,85.3 31.85,81.15 30.3,76.35 33.25,71.45 35.55,67.65 40.05,67.65 L51,69.15 Q53.9,69.15 55.6,67.55 57.6,65.7 58.05,61.6 58.5,57.5 57.55,50.45 53.4,20.95 68.85,11.45 75.75,7.2 86,7.2 99.25,7.2 116.35,14.05 132,20.35 147.15,30.75 168.2,45.25 180.05,61.4 191.85,77.5 190.95,90.45 M191.35,96.3 Q192.15,96.75 192.15,98.1 L193.95,97.65 194.8,93 Q192.3,92.8 190.1,91.95 L189.9,91.9 189.15,96 191.35,96.3 M190.35,98.65 Q190.15,97.9 189.3,97.8 L185.3,97.85 Q182.6,97.9 181.4,99.5 L178.15,105.1 Q176.75,109.6 179.6,112.65 180.85,113.95 182.85,114.85 L185.9,116.05 185.95,115.5 186.1,115.5 186.05,115.05 Q186.05,113.85 186.95,113.3 L187.05,112.8 186.75,112.35 Q185.9,111.65 185.7,110.65 185.55,109.95 185.75,109.25 L184.25,110.3 183.5,110.65 183.45,109.5 Q184.95,108.8 185.1,105.7 L184.9,104.7 Q184.8,103.05 187,101.85 188.1,101.25 189.6,100.85 190.6,99.75 190.35,98.65Z"/></g></svg>