<?xml version="1.0" encoding="utf-8"?><svg id="Endurance" image-rendering="auto" baseProfile="basic" version="1.1" x="0px" y="0px" width="240" height="240" xmlns="http://www.w3.org/2000/svg" xmlns:xlink="http://www.w3.org/1999/xlink"><g id="Scene-1f3r1" overflow="visible"><path fill="#FFF" stroke="none" d="M129,209.05 Q129.2,206.9 127.85,204.3 124.5,207.95 120.15,209.15 115.45,210.4 111.2,208.3 108.05,210.3 106.25,211.8 L102.65,214.85 Q100.15,217.3 100.8,218.7 101.1,219.55 102.85,219.75 L105.3,219.75 Q110.2,219.4 113.85,217.95 116.35,217 118.6,215 L122.55,211 Q122.85,210.6 123.4,211 123.85,211.35 124,211.75 124.4,212.95 126.65,211.6 128.9,210.25 129,209.05 M155.25,209.45 Q155,208.15 154.25,206.5 150.95,210.1 146.55,211.3 141.8,212.6 137.6,210.45 135.2,211.95 132.65,213.95 129.95,216.05 129.05,216.95 126.5,219.5 127.15,220.85 127.8,222.15 131.65,221.85 136.3,221.6 140.25,220.1 142.75,219.15 145,217.2 L148.9,213.15 Q149.25,212.8 149.8,213.15 L150.4,213.9 Q150.6,214.6 151.8,214.25 152.7,214.05 153.45,213.6 155.95,212.15 155.25,209.45 M102.85,152.8 L102.5,155.9 105.45,153.8 102.85,152.8 M112.45,155.7 Q107.45,160.1 102.2,163.2 102.25,175.15 105.9,189.45 108.6,199.7 111.45,206.7 115.5,208.7 120.05,207.15 124.1,205.7 127.15,202.05 L127.25,201.65 Q128.05,198.8 128.15,194.3 123.3,181.5 121.65,163.35 121.55,162.5 122.4,162.8 123.3,163.1 123.35,163.8 125,181.8 129.6,194.1 L134.35,204.3 Q135.95,207 137.65,208.75 141.65,210.9 146.15,209.4 150.25,208.05 153.35,204.4 L152.65,197.15 Q150.75,177.5 148.85,152.7 L139.4,155.45 Q131.9,157.15 126.05,157.15 119.3,157.15 112.45,155.7 M138.35,138 L128.4,138.3 128,138.2 Q121.25,147.5 114.25,154.05 122.1,155.75 126.25,155.6 131.1,155.4 137.4,153.95 143.45,152.6 147.5,150.85 147.05,143.65 147.4,136.9 L138.35,138 M55.3,178.1 Q54.75,177.25 53.9,177.95 53.1,178.65 53.65,179.5 56.9,184.4 63.05,187.75 67.45,190.2 74.85,192.45 75.75,192.75 76.2,191.65 76.55,190.75 75.5,190.35 68.4,188.15 64.3,186 58.4,182.75 55.3,178.1 M59.3,176.2 Q58.7,177.05 59.5,177.7 62.9,180.4 67.45,181.75 L69.15,182.1 76.4,182.95 Q77.45,182.95 77.5,181.85 L77.45,181.2 Q77.3,180.75 76.6,180.8 71.85,180.6 68.55,179.75 L68.25,179.7 Q63.95,178.5 60.75,175.9 59.9,175.3 59.3,176.2 M58.15,92.8 L57.3,92.8 Q57,93.1 57,93.95 L57.4,95.65 58.2,96.9 Q59.05,97.65 59.3,99.6 59.4,100.85 58.95,101.15 L58.55,101.15 Q58.1,100.95 58.1,99.8 57.9,98.85 56.85,98 L56.45,97.95 56.05,98 56,98.05 Q54.8,99.05 54.55,99.7 54.15,100.7 54.75,102.55 55,103.55 56.45,104.75 57.65,105.7 58.75,106.15 60,106.8 62.95,106.9 63.55,101.75 66.85,99.25 69.65,97.15 71.75,96.6 70.4,95 68.75,94.35 L69.25,96 69.25,96.15 69.3,96.2 69.3,96.25 Q69.15,97 68.85,97.1 68.55,97.1 68.25,96.75 L67,94.95 Q66.15,94.1 64.6,93.5 63.4,93.05 62.05,93.05 L62.5,93.65 Q63.6,94.6 63.65,95.45 L63.65,95.5 Q63.5,95.95 63.2,96 62.9,96.15 62.55,95.8 L62.5,95.8 62.5,95.75 Q61.9,94.65 60.45,93.8 59.3,93.1 58.15,92.8 M48.1,87 Q47,89.25 44.75,90.65 L52.95,98.7 Q53.65,97.5 54.8,97 54.35,95.45 54.6,93.75 L48.15,86.95 48.1,87 M144.45,96.3 L143.4,95.85 Q141.1,98.45 136.7,100.2 133.65,101.4 131.8,101.6 131,101.7 130.55,102.05 130.2,102.4 129.95,103.4 128.65,109.9 128.1,115.6 127.65,119.6 127.65,128.2 136.3,114.7 144.45,96.3 M107.2,96.4 L104.4,94.6 Q99.5,95.4 94.2,97.4 88.25,99.7 84.85,102.4 83.3,103.65 81.45,106.6 L79.9,109.3 79.35,107.4 Q78.85,105.2 79.2,103.95 75.25,103.15 73.75,101 L72.6,98.5 Q70.85,98.5 67.7,100.85 64.4,103.35 64.9,109.5 65,110.1 65.8,111.2 L66,111.5 Q68.85,115.45 74.35,118.9 82.6,124 91.65,123.6 94.55,123.45 98.6,122.45 L99.25,112.95 99.9,112.8 101.25,133.9 Q102,134.25 108.3,135.4 L108.15,127.65 Q108.25,121.05 108.8,116.6 109.4,112.1 110.75,106.3 111.8,101.7 112.35,100.2 112.6,99.35 112.1,99.15 L111.75,99 111.65,98.9 Q109.9,98.3 107.2,96.4 M110.75,92 Q108.3,93.2 106.85,94.6 107.45,95.2 109.55,96.3 111.25,97.15 112.15,97.5 L112.2,97.5 112.75,97.7 Q113.5,98.05 113.8,98.9 114.1,99.75 113.75,100.65 113.3,102 112.25,106.4 110.9,112.15 110.3,116.75 109.75,121.2 109.7,127.7 109.65,131.6 109.75,134.25 L109.75,134.35 Q109.85,136.1 109.35,136.6 L108.05,136.85 Q102.85,136 101.55,135.5 L102.65,150.75 103,151.25 107.15,152.4 Q116.95,144.25 126.15,130.5 126.05,121 126.55,115.5 127.25,108.75 128.5,103.1 129.05,100.35 131.65,100.05 133.3,99.9 136.15,98.8 139.9,97.3 141.95,95.2 138.5,93.1 135.55,91.75 131.55,100.6 123.25,100.65 119.7,100.65 116.85,98.7 113.9,96.7 112.8,93.25 L110.75,92 M106.9,49.35 Q106.2,48.4 105.5,49.35 104.8,50.3 104.85,52.05 104.85,53.05 105.65,55.1 106.9,53 108.75,50.8 107.65,50.3 106.9,49.35 M125.6,47.3 Q124.15,47.4 123,46.65 L121.65,45.7 Q120.3,44.95 119.4,45.25 118.65,45.55 116.4,47.65 L113.9,49.9 Q112,51.1 110.3,51.1 106.2,56.05 104.25,61.25 101.2,69.7 103.5,78.4 105.9,87.5 113.15,92.1 117.3,94.8 120.95,95.25 L123.55,95.5 Q123.65,95.9 121.45,96.2 119.25,96.5 118.6,96.25 118.7,97.7 120.75,98.2 L125.5,97.95 Q132.25,96.25 133.85,91.05 131.5,92.2 129.75,92.1 127.95,91.95 129.6,91.25 135.5,88.6 140.5,82.35 144.25,83.35 146.5,80.1 148.75,76.85 146,73.95 145.6,73.2 146.3,72.95 L147,72.9 147.2,72.6 Q145.15,68.35 144.2,67 L142.3,65.15 Q141.75,64.65 141.95,64.1 142.05,63.6 142.55,63.85 143.7,64.55 145.05,66.3 146.9,68.85 147.75,72.25 L148.1,71.3 147.1,68.35 Q146.2,66.15 145.05,64.65 L143.2,62.25 142.25,61.3 Q141.85,60.95 142.15,60.6 L142.95,60.55 Q143.85,61.05 145.9,64.05 147.7,66.9 148.35,70.1 149.05,66.15 146.25,62.45 L142.7,59 Q142.2,58.6 142.5,58.25 L142.9,57.95 Q146.75,56.5 146.1,53.6 145.55,50.8 143.15,50.75 L137.15,51.2 Q135.95,51.05 135.3,50 133.9,47.8 131.9,46.85 130,46 128.3,46.6 126.6,47.25 125.6,47.3 M115.25,53.05 L114.95,53.75 114.2,53.95 110.85,53.6 110.35,53.4 Q110.3,53.25 110.75,53.05 L114.3,51.55 Q114.65,51.35 114.95,51.55 115.25,51.75 115.25,52.2 L115.25,53.05 M120.8,59.6 L121,59.9 120.9,60.5 Q119.85,62.6 118.55,64.5 L116.25,67.55 Q115.75,68.25 116.1,69 L117.3,71.3 Q117.5,71.6 117.35,71.85 L116.9,72.15 Q115.55,72.65 114.9,71.55 L113.5,68.5 Q113.3,68.2 113.4,67.75 L113.75,67.15 117.75,63.25 119.95,60.15 Q120.4,59.4 120.8,59.6 M107.3,72.95 Q107.9,72.4 107.75,73.2 L107.65,73.8 Q107.6,74.15 107.75,74.5 L108.3,74.9 111,75.8 115.9,76.9 Q118.8,77 124.9,75.8 L125.6,75.4 Q125.95,75.1 125.85,74.75 L125.6,73.35 Q125.5,73 125.6,72.9 125.75,72.85 126,73.05 L129.75,76.7 Q130.45,77.25 130.15,78.1 L128.75,81.75 128.45,82.1 128.15,81.8 128.4,79.85 Q128,79.15 127.2,79.25 L123.1,81.15 Q118.45,82.95 115.85,82.5 113.25,82.1 110.35,80.05 L107.95,78.05 Q107.6,77.9 107.35,78.05 107.1,78.2 107.05,78.55 L107,78.95 Q106.85,79.7 106.55,79 L105.15,75.95 Q104.85,75.2 105.45,74.65 L107.3,72.95 M111,58.95 Q112.65,59 114.25,59.65 L114.05,62.1 Q113.25,61.45 112,61.1 109.45,60.5 107.4,62.05 107.7,58.95 111,58.95 M112.85,83.6 L115.65,83.7 116.4,83.65 Q116.85,83.65 117.1,83.9 117.4,84.15 117.4,84.45 117.45,84.8 117.15,85.05 L116.5,85.4 Q115,85.65 113.95,85 L112.65,84.05 112.4,83.7 Q112.45,83.55 112.85,83.6 M142.6,73.4 Q142.05,73.35 142.1,72.9 142.15,72.5 141.65,71.8 L141.15,71.25 Q140.8,70.95 141.1,70.6 141.4,70.15 141.75,70.45 L142.65,71.45 Q143.15,72.1 143.15,72.8 143.1,73.45 142.6,73.4 M145.05,71.75 Q144.9,72.2 144.3,71.2 L143.15,69.55 141.7,68.2 Q141.15,67.75 141.45,67.35 141.75,66.95 142.1,67.15 143.2,67.85 143.95,68.95 144.45,69.7 144.8,70.55 145.15,71.45 145.05,71.75 M133.4,55.45 Q134.9,57.7 134.45,58.75 L129.4,55.25 Q129.35,55 130,54.2 L130.75,53.55 131.25,53.25 131.9,53.4 133.4,55.45 M131.6,67.4 Q131.4,66.35 130.5,65.2 128.75,63 125.15,62.65 128.45,60.65 131.65,63 133.2,64.2 134.1,65.75 L131.6,67.4 M116.1,80.7 Q118.3,81 119.65,80.7 121.5,80.4 126.5,78.7 L127.3,78.15 Q127.65,77.7 127.2,77.2 126.75,76.65 126.1,76.65 L125.15,76.65 Q119.55,78 116.2,77.75 114.1,77.55 110.9,76.65 L108.1,75.7 Q107.75,75.55 107.45,75.7 107.15,75.8 107.15,76.25 107.2,77.1 107.85,77.3 L112.75,79.9 Q113.85,80.45 116.1,80.7 M136.2,35 Q134.3,33.3 133.05,33.3 132,33.3 129.35,36.35 L127.55,38.2 Q126.75,38.8 125.1,38 123.05,36.95 121.8,37.1 120.2,37.2 115.85,40.95 114.35,42.25 112.5,42.2 110.65,42.15 109.45,40.8 108.5,39.8 108.9,38.25 107.65,39.1 106.9,40.5 106,42.2 106.15,44.65 106.3,47.1 107.65,48.8 108.6,50 110.2,49.95 111.55,49.9 113.1,49 L115.5,46.75 Q117.85,44.65 118.75,44.3 L121.2,44.05 123.95,45.85 125.55,45.9 130.85,43.7 Q132.5,43.25 134.8,46.45 L137.45,50.15 143.5,49.2 Q146.3,49.25 147.55,51.15 148.45,52.5 148.4,54.45 148.4,55.65 146.9,57.05 145.75,58.1 144.25,58.85 L147.15,62.05 Q149.25,64.9 149.5,68.6 150.65,66.5 151.65,63.55 153.55,57.7 152.55,53.75 151.9,51.45 150.95,49.45 149.5,46.6 148,45.65 L146,42.25 Q144.3,39.25 141.95,38.55 140.45,38.1 138.35,37 L137.15,36.05 136.2,35 M184.4,119.6 L184.55,119 181.8,118.1 Q179.15,117.15 177.7,114.95 176.45,113 176,110.35 L175.65,108.25 Q172.8,109.3 167.65,112.55 161.6,116.4 160.7,118.45 160.55,115.25 162.1,112.95 162.9,111.8 163.7,111.3 L160.25,107.6 Q155.6,103.1 149.75,99.15 139.65,121.6 129,136.8 L138.25,136.5 147.45,135.35 148.2,130.5 147.55,130.25 149.2,128.5 155.05,130 Q161.4,131.45 163.5,131.4 172.4,131.25 178.85,126.15 182.7,123.05 184.4,119.6 M191.55,113 L188,114.5 Q187.5,114.8 187.55,115.35 L187.65,115.6 190.25,116.1 Q191.05,116.05 191.85,115.65 L191.85,115.7 Q194,114.35 194.75,111.5 L193.75,112.05 Q192.75,112.65 191.55,113 M194.7,105.3 Q193.85,106.35 193.2,106.55 L190.95,107.9 189.9,108.4 188.9,108.7 Q187.5,109.05 187.15,109.4 186.65,109.8 186.9,110.75 187.05,111.5 188.1,111.85 189.4,112.25 191.1,111.8 L192.95,110.9 Q194.5,109.65 195.05,107.35 195.45,106.05 195.2,104.75 L194.7,105.3 M194.4,102.95 L194.95,100.85 194.85,100 193.65,99.85 Q192.9,100 192.1,100.45 191.25,100.9 190.95,101.45 190.35,102.3 188.35,102.8 L187.8,102.9 Q185.6,103.95 185.75,105.05 185.85,106.35 187.35,106.9 L190.5,106.7 193,105.05 193,105.15 Q193.85,104.3 194.4,102.95 M189.55,98.85 Q189.35,98.05 188.5,98 L184.5,98.3 Q181.8,98.55 180.7,100.2 L177.55,106.9 Q176.95,110.9 179.65,113.4 180.9,114.6 182.9,115.35 L185.85,116.35 186.05,115.3 186.3,115.35 Q186.25,114.35 187,113.6 L187.1,113.15 186.8,112.65 Q185.9,112.05 185.65,111.05 185.5,110.35 185.6,109.7 L184.2,110.8 183.5,111.25 183.3,110.05 Q184.75,109.3 184.75,106.1 184.55,105.75 184.45,105.2 184.3,103.5 186.4,102.2 187.6,101.45 188.95,101.1 189.85,99.9 189.55,98.85 M190.2,91.95 L190,91.9 189.25,96.2 Q190.3,96.2 190.75,96.55 191.3,97 191.35,98.2 192.9,97.45 194.1,97.5 L194.95,93 Q192.4,92.8 190.2,91.95 M186.1,46.85 Q182.45,37.7 178.05,35.9 177.05,35.5 175.9,35.5 171.7,35.5 167.9,41.95 166.75,43.85 164.85,48.7 L160.7,59.75 Q146.55,98.55 135.2,118.85 114.9,155.3 91.55,163.5 87.85,164.8 84.1,165.4 74.75,166.1 70.05,165.1 62.35,163.5 55.3,159.9 L50.65,157.3 Q41.7,151.85 35.2,141.65 28.75,131.45 25.6,117.8 22.55,104.9 23.15,92.6 23.7,81.3 26.85,76.4 28.9,73.2 31.25,73.2 L31.35,73.2 Q36.65,73.45 44.6,88.65 45.55,87.9 46.4,86.55 42.55,79.4 39.45,75.7 35.3,70.8 31.45,70.65 L31.2,70.6 Q27.55,70.6 24.7,75 21.05,80.7 20.55,93.15 20.1,105.55 23.05,118.4 26.35,132.55 33.15,143.2 39.9,153.75 49.3,159.45 L50.05,159.9 Q54.1,162.3 59.5,164.6 62.8,166 67.05,167.05 72.95,168.45 78,168.4 L78.05,168.4 Q85.25,168.4 92.4,165.95 116.45,157.45 137.2,120.5 148.7,100 163.15,60.65 168.5,46 170.1,43.25 173.15,38.05 175.95,38.05 L177.1,38.3 Q182.9,40.65 187.45,60.15 191.65,78.45 190.45,90.25 L190.5,90.25 192.95,91 Q193.55,85.9 192.9,78.2 192.2,70.35 190.5,62.25 188.65,53.2 186.1,46.85Z"/></g></svg>