<?xml version="1.0" encoding="utf-8"?><svg id="Agility" image-rendering="auto" baseProfile="basic" version="1.1" x="0px" y="0px" width="240" height="240" xmlns="http://www.w3.org/2000/svg" xmlns:xlink="http://www.w3.org/1999/xlink"><g id="Scene-1f0r1" overflow="visible"><path fill="#FFF" stroke="none" d="M140.95,205.15 L134.05,206.4 127.9,206.5 Q127.6,206.75 128.05,213.85 L128.65,221.35 Q128.75,221.75 130.75,221.8 L134.9,221.65 Q137.5,221.35 140.7,219.9 L140.95,205.15 M127.3,172.15 L127.45,172.9 Q127.8,173.3 128.7,173.3 129.35,173.3 129.5,173.95 L128.65,175.35 Q127.75,176.7 127.8,177.6 L128.6,177.65 129.5,177.55 Q129.75,178 129.35,178.4 L128.55,180.45 Q127.75,182.95 127.65,185.5 127.5,189.85 128.75,193.05 L128.5,193.65 128.1,193.85 125.35,194.7 Q122.5,196.15 121.85,199.25 L121.5,201.75 Q120.9,208.2 121.85,223.5 L121.85,223.6 121.9,223.8 122.2,224.3 Q125.45,227.55 131.75,227.55 136.7,227.55 138.95,226.4 140.4,225.65 140.45,224.7 L140.55,223.1 Q138.55,224.15 134.75,224.7 L129,224.35 126.95,223.5 126.4,214.5 Q125.95,205.4 126.4,204.6 L129.45,204.5 133.85,205.3 137.1,204.65 140.85,203 140.5,199.25 140.4,198.85 Q139.75,196.05 137.95,194.6 136.8,193.7 136.05,193.7 135.4,193.6 135.4,192.95 L135.35,185.35 Q135.25,182.8 133.65,181.4 L132.1,180.45 Q131.7,179.95 132,179.45 L135.05,176.4 Q135.1,175.45 134.3,175 L133.4,174.75 Q132.75,174.6 132.85,173.95 132.95,173.3 133.6,173.3 134.5,173.3 134.9,172.9 L135.05,172.15 Q134.95,171.5 134.3,171.35 L134.15,171.3 133.35,171.95 Q131.65,173 129.25,172.2 L127.95,171.3 127.75,171.35 Q127.4,171.45 127.3,172.15 M130.45,194.7 Q129.7,194.3 129.7,193.9 129.7,193.55 130.45,193.55 L133.85,193.55 Q134.55,193.55 134.55,193.9 134.55,194.3 133.85,194.7 133.1,195.15 132.15,195.15 L130.45,194.7 M132.65,141.35 L132.25,142.85 Q131.75,145.7 132.1,149.4 132.45,152.9 131.95,157.05 131.8,158.4 131.55,159.85 130.75,164.45 129.55,167.65 128.95,169.3 129.05,169.9 129.1,170.4 129.8,170.65 130.65,171 131.95,170.2 133.25,169.3 134.25,167.85 135.25,166.3 135.3,165 135.45,163.2 134.6,160.15 L133.7,157.35 Q133.65,157.2 133.65,157.05 133.6,156.55 134.15,156.35 134.85,156 135.2,156.7 135.3,156.85 135.4,157.05 135.85,157.95 136.75,158.95 138.1,160.55 139.45,161 L142.2,160.95 143.95,159.6 Q143.2,159 142.2,157.8 141.9,157.45 141.6,157.05 140.95,156.15 140.45,155 L139.85,153.55 Q139.6,152.8 140.35,152.55 141.1,152.3 141.35,153 142.3,155.3 143.5,156.85 L145.15,158.15 147.2,158.05 149.25,156.85 Q150.6,155.7 150.2,154 149.85,152.55 148.9,151.95 L148.4,151.8 Q146.85,152.95 146.8,154.7 146.8,155.4 146.15,155.5 145.45,155.6 145.25,154.95 144.8,152.95 146.55,150.45 148.7,147.3 146.55,141.8 L140.85,142.1 132.65,141.35 M68.2,91.25 Q68.4,94.35 70.1,97.4 L73.15,100.8 Q77,104.75 81.25,107.9 91.4,115.55 100.85,116.7 104.05,117.1 107.15,116.75 104.1,115.6 100.85,113.7 99.55,112.9 98.25,112 L94.25,109 Q91.35,108.55 87.5,106.75 79.75,103 75.3,96.25 L73.9,93.85 Q70.85,92.85 68.2,91.25 M35.75,87.45 L35,88.6 Q34.25,90.3 34.2,93.45 34.2,96.9 35.75,99.35 36.5,100.65 37.3,101.2 L41.2,102.05 Q46.55,102.9 53.8,102.25 61.6,101.6 68.7,98.85 L67.5,97.2 Q65.15,92.9 65.15,89.1 61.6,86.05 58.95,81.65 L58.85,81.45 56.3,83.05 Q52.8,85.3 43.95,86.6 L35.75,87.45 M10.4,80.95 Q10.1,81.4 10.25,81.8 10.65,83.2 13.85,85.2 16.2,86.75 18.85,87.9 19.05,87.95 19.25,88.05 19.8,88.4 19.7,89 19.55,89.65 18.85,89.65 L12.05,89.95 Q8.8,90.45 8.6,91.45 8.25,93 17.55,96.05 18.2,96.25 18.85,96.5 21.2,97.3 22.95,98 25.6,99.1 26.1,100.65 26.3,101.6 25.7,102.75 L24.1,104.9 Q22.4,107.1 21.75,108.25 20.75,110.05 21.3,110.7 L23.45,110.65 Q25.3,110.25 27.45,109.15 30.5,107.75 33.2,104.55 L34.3,103 33.2,100.95 Q31.15,96.75 31.25,92.95 31.3,89 32.8,86.85 L34.35,85.55 Q29.55,80.8 25.15,77.75 20.15,74.3 18.9,75.35 18.85,75.35 18.85,75.4 18.25,75.95 18.3,76.6 18.35,77.35 18.85,78.3 19.3,79.1 20.1,80.05 L22.85,82.6 Q23.45,83.2 23.05,83.75 22.6,84.35 21.95,83.95 20.4,83 18.85,82.25 17.25,81.5 15.6,80.9 11.4,79.55 10.4,80.95 M55.85,46.9 Q54.7,46 54.2,47.3 53.75,48.55 54.3,50.5 54.6,51.6 55.95,53.35 L56.25,53.75 58.2,48.05 58.2,47.95 Q57,47.75 55.85,46.9 M106.35,96.45 Q108.9,90.55 109.4,82 L109.55,81.2 Q110.05,77.05 111.45,72.25 109.65,74.7 106.75,74.75 105.5,77.45 102,82.35 102.3,88.75 100.85,93 98.6,99.6 92.25,101.15 88,102.1 83.55,100.3 79.1,98.4 76.5,94.55 L75.9,94.4 76.5,95.25 Q84.25,104.8 92.85,105.75 L93.25,105.95 98.35,110.3 Q99.6,111.2 100.85,112 105.9,115.25 110.9,116.7 117.2,116.4 123.25,114.15 122,113.9 119.75,112.75 L116.2,110.8 Q104.1,104.55 104,101.8 L106.35,96.45 M116.7,85.45 L118.85,92 Q120.35,95.9 122.1,99.15 124.85,104.05 127.3,109.35 130.15,115.7 130.4,118.05 131.1,124.35 130.2,137.8 L132.45,138.5 Q135.85,139.35 141.1,139.45 146.3,139.5 148.8,137.9 150.05,137.1 150.25,136.3 150.65,119.15 150.05,112.25 149.6,107.2 148.55,103.55 147.55,100.25 145.2,95.35 142.9,90.55 142,87.85 141.1,85.05 141.3,83.2 L142.85,83.35 Q142.8,84.55 144.15,87.4 L149.7,99.3 Q151.2,103.1 152.1,107.25 L153.6,107.2 Q155.7,89.65 153.1,83.25 150.4,76.75 145.7,70.25 L144.9,69.95 140.9,70.65 126.75,70.05 Q122.95,70.3 121.65,70.95 118.9,72.3 117.2,75.6 115,80 116.7,85.45 M116.1,73 Q116.25,71.95 115.35,71.55 L114.45,72.15 Q111.2,74.65 111.05,81.4 L111,82.15 Q111.3,88.4 108.95,95.3 106.7,101.55 106.8,101.8 107.05,103.1 110.2,105.3 L116.95,109.4 Q120.3,111.15 125,111.7 L124,109.15 Q121.9,104 120,100.55 115.75,92.85 114.45,86 113.55,81.05 115.35,75.75 L116.1,73 M90.6,39.25 Q89.1,39.5 88.05,38.5 85.75,36.45 83.2,36.05 80.85,35.7 79.1,36.9 L76.25,38.6 73.1,38.7 Q70.05,37.2 68.6,38.2 67.9,38.75 66,41.9 L63.95,45.3 Q61.95,47.3 60.05,47.8 57.15,54.2 56.65,61.15 55.85,71.65 61.25,80.8 66.85,90.25 76.5,93.15 82.1,94.8 86.35,94.2 L89.4,93.65 Q89.65,94 87.2,95.1 L84,96.05 Q84.65,97.8 87.35,98.4 90.1,99 92.95,98 100.45,95.25 99.6,85.35 97.25,87.35 95.25,87.75 93.2,88.2 94.85,86.85 98.2,84.05 100.85,80 102.8,77 104.3,73.35 108.85,73.35 110.3,68.95 111.85,64.45 107.8,62.15 107.15,61.4 107.85,60.95 108.15,60.7 108.6,60.65 L108.75,60.2 Q105.85,56.7 103.55,54.85 102.5,54 100.85,53.35 100.05,53 100.1,52.35 100.1,51.7 100.7,51.85 100.75,51.85 100.85,51.9 102.35,52.3 104.3,53.8 105.8,54.95 107.4,56.95 L108.95,59.1 109.15,58.2 Q106.3,53.8 103.8,51.95 102.55,50.85 100.9,49.85 L100.85,49.85 99.5,49 Q99,48.75 99.2,48.3 99.4,47.8 100.1,47.95 100.4,48 100.85,48.3 102.1,48.95 104.55,50.95 107.4,53.65 109.25,57 108.75,52.35 104.45,49.05 102.9,48 100.85,47 100.1,46.65 99.3,46.3 98.6,46 98.8,45.5 L99.25,45 Q103.1,42.2 101.45,39.05 99.9,36.15 97.2,36.85 94.3,37.65 93,38.3 L90.6,39.25 M83.15,46.35 Q82.9,46.1 83.45,45.05 L83.45,45 84.05,43.95 Q84.2,43.6 84.6,43.4 L85.3,43.45 87.75,45.3 Q90.05,47.3 89.9,48.65 L88.4,48.2 86.05,47.2 83.15,46.35 M103.95,57.15 L105.4,58.65 106.05,59.95 Q106,60.5 105,59.65 L103.2,58.1 101.1,57.05 Q100.95,57 100.85,56.9 100.45,56.6 100.6,56.1 100.7,55.85 100.85,55.8 101.05,55.65 101.3,55.7 102.7,56.1 103.95,57.15 M103.25,60.35 Q104.05,61.1 104.2,61.8 104.35,62.55 103.8,62.65 103.25,62.7 103.1,62.15 L102.2,61.2 101.5,60.7 Q100.95,60.45 101.15,59.9 101.45,59.35 101.95,59.55 L103.25,60.35 M89.5,59.35 Q88.95,58.25 87.55,57.25 84.85,55.3 80.65,56.05 83.8,52.7 88.15,54.4 90.25,55.2 91.75,56.7 L89.5,59.35 M84.5,67.5 Q84.6,67.35 85,67.5 L90.4,70.45 Q91.25,70.85 91.25,71.85 L90.9,76.45 Q90.8,77.4 90.15,76.7 L89.85,74.45 89.15,74.05 88.3,74.15 84.3,77.6 Q79.6,81.1 76.55,81.4 73.45,81.8 69.55,80.4 L66.2,78.95 65.55,79.1 Q65.25,79.4 65.35,79.8 L65.35,80.3 Q65.55,81.2 64.9,80.5 L62.35,77.45 Q61.75,76.7 62.25,75.85 L63.85,73.35 Q64.05,73 64.25,73.1 L64.45,73.5 64.5,74.2 Q64.5,74.6 64.85,74.95 65.15,75.25 65.55,75.25 L68.95,75.45 74.8,75.05 Q78.1,74.25 84.6,70.9 L85.25,70.25 Q85.6,69.8 85.35,69.45 L84.55,68 84.5,67.5 M64.85,47 L65.65,46.8 Q66.05,46.95 66.15,47.45 L66.45,48.3 66.3,49.25 65.55,49.75 61.55,50.35 61,50.3 61.35,49.75 64.85,47 M75.15,54.95 L73.75,60.25 72.15,64.45 Q71.8,65.35 72.45,66.1 L74.6,68.35 74.8,68.95 74.35,69.4 Q72.95,70.35 71.95,69.4 L69.35,66.35 69.05,65.6 69.25,64.8 Q71.75,60.85 72.45,59.15 L73.95,54.85 Q74.3,53.9 74.8,53.95 75.3,53.9 75.15,54.95 M63.25,61.05 Q62.65,60.1 62.5,58.7 62.35,57.3 62.85,56.25 63.25,55.2 64,55.1 64.75,55.05 65.4,56 66,56.95 66.15,58.35 66.3,59.75 65.8,60.8 65.4,61.85 64.65,61.9 63.9,62 63.25,61.05 M75.2,84.85 L73.45,84.25 Q72.5,83.8 73.45,83.6 L77.55,82.6 78.4,82.65 78.9,83.2 78.85,83.95 78.2,84.45 Q76.55,85.25 75.2,84.85 M87.65,71.8 Q86.95,71.4 86.2,71.55 L85.2,71.85 Q79.3,75.15 75.35,75.95 L69.05,76.35 65.65,76.2 Q64.4,76.3 64.7,77.15 65.1,78.05 65.8,78.15 L72.2,79.5 76.2,79.4 80.25,78.25 87.3,73.7 88.05,72.85 Q88.35,72.2 87.65,71.8 M85.75,22.2 L84.3,21.35 Q81.65,20 80.25,20.35 79.05,20.7 77,25.05 L75.55,27.65 Q74.75,28.6 72.7,28.25 70.05,27.75 68.7,28.25 67.15,28.9 63.2,34.5 61.9,36.45 59.85,37 57.7,37.5 55.9,36.4 54.55,35.6 54.5,33.65 53.3,35.15 53,36.85 52.45,39.1 53.45,41.8 54.1,43.75 55.35,45.05 55.9,45.6 56.5,46.05 57.85,47.1 59.7,46.5 60.95,46.1 62.1,45.05 62.4,44.75 62.7,44.45 L64.75,41.2 Q66.7,38.05 67.6,37.4 69.05,36.25 70.2,36.35 70.7,36.3 72.5,36.95 L73.95,37.5 Q74.75,37.75 75.7,37 L81.05,32.75 Q82.75,31.75 86.4,34.65 L90.55,38 Q91.35,38.05 93.5,36.7 96.1,35.25 97.05,34.95 100.2,34.15 102.25,35.9 103.75,37.15 104.3,39.35 104.7,40.65 103.45,42.75 102.45,44.35 101.05,45.65 L105.3,48.35 Q108.55,50.8 110.05,55 110.7,52.2 110.85,48.55 111.2,41.4 108.7,37.25 107.35,34.95 105.55,32.9 103.1,30.15 101.05,29.55 L97.65,26.4 Q94.85,23.5 91.9,23.45 L87.35,22.9 Q86.6,22.75 85.75,22.2 M165.15,100.65 L163.6,107.6 166.85,113.15 Q171.75,119.9 177.7,122.25 179,122.8 182.1,123.25 L186.2,123.8 Q177.45,118.55 170.05,108.45 L165.15,100.65 M223.35,105.35 L223.15,108.55 Q222.3,116.85 220.6,120.85 218.95,124.65 216.8,124 217.5,128.85 219.5,131.25 221.05,133.1 223.8,132.45 226.7,131.9 227.3,126.75 227.95,121.65 226,115.1 L223.35,105.35 M226.05,98.5 L224.65,97.45 Q223.35,96.45 222.05,96 223.3,99.55 223.35,104.5 L223.55,104.35 224.5,103.8 226.6,102.9 226.05,98.5 M204.45,91.75 L204.65,91.15 Q205.15,90.1 206.6,89.95 L209.9,90.1 Q208.65,87.8 205.5,85.8 202.55,83.85 199.9,86.2 201.8,88.1 204.45,91.75 M206.2,83.7 L206.7,84.05 Q209.55,85.85 211.95,88.25 L214.15,90.75 214.5,90.85 215.7,89.45 213.2,85.6 212.4,84.65 209.95,83.9 206.2,83.7 M164.9,89.65 Q165.7,94.1 165.55,98.4 L170.65,106.5 Q176.75,114.4 185.3,119.05 189.3,121.25 193.85,122.4 199,123.65 204.8,123.55 210,123.45 215.55,122.15 L218.4,118.5 Q220.9,114.3 221.5,108.35 222.1,102.75 220.3,98.2 L217.9,93.85 213.05,92.55 213.1,92.55 212.85,92.45 Q208.6,91.4 206.65,91.55 L206.1,91.85 Q205.85,92.45 206.9,94.85 L208.05,97.2 Q208.5,97.9 207.85,98.3 207.6,98.45 206.1,97.1 L204.35,95.4 203.4,95.3 Q202.75,95.3 202.6,94.45 L202.05,92.65 199.55,89.85 197.8,89.95 Q196.35,90.6 196.25,92.1 196.25,92.75 195.45,92.85 194.6,93.05 193.85,92.05 193.75,91.9 193.7,91.8 193.1,90.8 192.7,89.15 190.1,76.1 177,68.3 166.85,62.25 157.05,64 151.25,65 146,68.75 149.35,69.85 151.8,71.3 155.75,73.55 159.3,77.2 163.45,81.6 164.9,89.65 M163.95,98.55 Q164.1,95.15 163.45,90.9 162.15,82.55 158.1,78.35 154.4,74.5 148.9,71.6 155.4,80.2 157.1,86.85 158.1,90.95 157.35,97.65 156.8,102.15 155.6,106.95 L160.7,106.9 Q162.7,104.7 164.35,100.6 L164.65,99.9 164.05,98.9 163.95,98.55Z"/></g></svg>