<?xml version="1.0" encoding="utf-8"?><svg id="Agility" image-rendering="auto" baseProfile="basic" version="1.1" x="0px" y="0px" width="240" height="240" xmlns="http://www.w3.org/2000/svg" xmlns:xlink="http://www.w3.org/1999/xlink"><g id="Scene-1f2r1" overflow="visible"><path fill="#FFF" stroke="none" d="M140.95,205.15 L134.05,206.4 127.9,206.5 Q127.6,206.75 128.05,213.85 L128.65,221.35 Q128.75,221.75 130.75,221.8 L134.9,221.65 Q137.5,221.35 140.7,219.9 L140.95,205.15 M127.95,171.3 L127.75,171.35 Q127.4,171.45 127.3,172.15 L127.45,172.9 Q127.8,173.3 128.7,173.3 129.35,173.3 129.5,173.95 L128.65,175.35 Q127.75,176.7 127.8,177.6 L128.6,177.65 129.5,177.55 Q129.75,178 129.35,178.4 L128.55,180.45 Q127.75,182.95 127.65,185.5 127.5,189.85 128.75,193.05 L128.5,193.65 128.1,193.85 125.35,194.7 Q122.5,196.15 121.85,199.25 120.7,204.7 121.85,223.5 L121.85,223.6 121.9,223.8 122.2,224.3 Q125.45,227.55 131.75,227.55 136.7,227.55 138.95,226.4 140.4,225.65 140.45,224.7 L140.55,223.1 Q138.55,224.15 134.75,224.7 L129,224.35 126.95,223.5 126.4,214.5 Q125.95,205.4 126.4,204.6 L129.45,204.5 133.85,205.3 Q136.4,205.3 140.85,203 L140.5,199.25 Q139.85,196.15 137.95,194.6 136.8,193.7 136.05,193.7 135.4,193.6 135.4,192.95 L135.35,185.35 Q135.25,182.8 133.65,181.4 L132.1,180.45 Q131.7,179.95 132,179.45 L135.05,176.4 Q135.1,175.45 134.3,175 L133.4,174.75 Q132.75,174.6 132.85,173.95 132.95,173.3 133.6,173.3 134.5,173.3 134.9,172.9 L135.05,172.15 Q134.95,171.5 134.3,171.35 L134.15,171.3 133.35,171.95 Q131.65,173 129.25,172.2 L127.95,171.3 M130.45,194.7 Q129.7,194.3 129.7,193.9 129.7,193.55 130.45,193.55 L133.85,193.55 Q134.55,193.55 134.55,193.9 134.55,194.3 133.85,194.7 133.1,195.15 132.15,195.15 L130.45,194.7 M132.9,140.6 Q132.5,141.45 132.25,142.85 131.75,145.7 132.1,149.4 132.55,154.05 131.55,159.85 130.75,164.45 129.55,167.65 128.95,169.3 129.05,169.9 129.1,170.4 129.8,170.65 130.65,171 131.95,170.2 133.25,169.3 134.25,167.85 135.25,166.3 135.3,165 135.45,163.2 134.6,160.15 L133.7,157.35 Q133.45,156.6 134.15,156.35 134.85,156 135.2,156.7 135.7,157.75 136.75,158.95 138.1,160.55 139.45,161 L142.2,160.95 143.95,159.6 Q143.2,159 142.2,157.8 141.2,156.65 140.45,155 L139.85,153.55 Q139.6,152.8 140.35,152.55 141.1,152.3 141.35,153 142.3,155.3 143.5,156.85 L145.15,158.15 147.2,158.05 149.25,156.85 Q150.6,155.7 150.2,154 149.85,152.55 148.9,151.95 L148.4,151.8 Q146.85,152.95 146.8,154.7 146.8,155.4 146.15,155.5 145.45,155.6 145.25,154.95 144.8,152.95 146.55,150.45 148.5,147.6 146.9,142.8 L139.8,142.2 132.9,140.6 M67.75,67.8 L66.05,68.35 Q62.15,69.7 53.25,68.7 L45.1,67.45 44.05,68.35 Q42.9,69.85 42.05,72.9 41.2,76.2 42.1,79.05 42.45,80.45 43.1,81.2 L46.65,83 Q51.6,85.15 58.8,86.35 66.8,87.65 74.6,86.65 L74.4,86.35 Q72.7,81.75 73.35,77.95 70.3,74.4 68.4,69.65 L67.75,67.8 M33.8,59.6 Q34.2,60.25 33.65,60.7 33.15,61.2 32.6,60.7 30.05,58 27.2,56.1 23.5,53.75 22.15,54.85 21.8,55.2 21.85,55.65 21.85,57.05 24.4,59.8 26.4,62.1 28.95,63.95 29.4,64.4 29.15,65 28.8,65.55 28.2,65.4 24.65,64.2 21.5,63.9 18.25,63.6 17.75,64.5 17.05,65.9 25.3,71.2 L30.05,74.5 Q32.35,76.2 32.35,77.85 32.35,78.8 31.5,79.75 L26.3,84.1 Q24.9,85.6 25.25,86.35 25.55,86.85 27.35,86.85 L31.55,86.4 Q34.95,85.75 38.25,83.4 L39.75,82.15 39.2,79.9 Q38.3,75.3 39.3,71.7 40.35,67.85 42.35,66.15 43.75,65.45 44.2,65.3 40.7,59.5 37.25,55.45 33.25,50.85 31.8,51.55 31.05,51.9 30.9,52.6 30.6,53.95 31.8,56.35 L33.8,59.6 M70.8,34.85 Q69.8,33.8 69.1,35 68.45,36.2 68.7,38.25 68.85,39.3 69.9,41.25 L70.1,41.7 72.95,36.25 Q71.8,35.85 70.8,34.85 M156.9,74.15 L152.15,71.7 151.05,71.6 Q147.5,71.3 140.75,69.7 L137.1,68.85 Q133.3,68.5 132,68.9 129.05,69.8 126.85,72.8 124,76.8 124.8,82.45 L125.95,89.3 Q126.8,93.3 128.05,96.8 130,102.15 131.5,107.75 133.35,114.45 133.25,116.85 132.95,123.15 129.9,136.3 L132.05,137.35 Q135.3,138.75 140.45,139.65 L148.3,139.3 Q149.65,138.75 149.95,137.95 153.05,121.05 153.5,114.15 153.9,109.1 153.45,105.35 153,101.95 151.45,96.65 149.9,91.6 149.45,88.8 149,85.9 149.45,84.1 L151,84.5 Q150.75,85.7 151.65,88.7 L155.25,101.35 Q156.15,105.3 156.4,109.55 L157.85,109.75 Q162.7,92.7 161.15,86 159.75,80.2 156.9,74.15 M119.95,77.6 L119.75,78.35 Q119.1,84.5 115.6,90.95 112.4,96.85 112.45,97.1 112.55,98.4 115.25,101.05 117.65,103.4 121.3,106.15 124.35,108.4 128.9,109.7 L128.35,107 Q127.05,101.65 125.75,97.9 122.7,89.6 122.55,82.65 122.4,77.6 125,72.65 L126.2,70.05 Q126.5,69.05 125.7,68.5 L124.7,68.95 Q121.1,70.95 119.95,77.6 M92.7,98.95 Q85.55,94 82.3,86.65 L81.3,84.1 Q78.35,82.6 76,80.6 75.7,83.65 76.9,86.95 L79.4,90.75 Q82.55,95.3 86.25,99.1 98.1,111.3 110.5,111.9 106.45,109.6 102.45,105.8 L99,102.2 Q96.15,101.35 92.7,98.95 M83.7,85.15 L83.1,84.9 83.6,85.85 Q89.75,96.5 98.05,98.8 L98.4,99.05 102.85,104.1 Q108.3,109.65 114.2,112.4 L126.8,111.85 123.55,109.9 120.35,107.4 Q109.35,99.4 109.7,96.65 L112.85,91.7 Q116.3,86.3 118.15,77.95 L118.45,77.15 Q119.55,73.15 121.7,68.6 119.5,70.7 116.65,70.3 115.05,72.75 110.75,77.1 108.95,93.2 98.2,94.1 93.9,94.45 89.75,91.9 85.65,89.35 83.7,85.15 M95.3,28.65 L92.25,29.8 Q90.55,30.1 89.1,29.45 86.3,27.55 84.7,28.25 83.95,28.7 81.55,31.5 L79,34.55 Q76.7,36.25 74.8,36.45 70.95,42.25 69.35,49.05 66.95,59.35 70.8,69.15 74.85,79.4 83.95,83.75 89.2,86.3 93.5,86.35 L96.55,86.25 Q96.75,86.7 94.2,87.35 L90.9,87.85 Q91.25,89.6 93.8,90.6 96.4,91.65 99.35,91.1 107.2,89.6 107.9,79.65 105.35,81.3 103.3,81.35 101.2,81.5 103,80.45 109.55,76.55 114.45,68.55 118.95,69.25 121.15,65.2 123.3,61 119.7,58 119.15,57.15 119.9,56.8 L120.75,56.65 120.95,56.25 Q118.55,52.4 116.6,50.2 115.75,49.2 114.2,48.25 113.45,47.8 113.6,47.15 113.7,46.5 114.3,46.75 115.75,47.4 117.55,49.25 L120.1,52.85 121.35,55.25 121.65,54.35 Q119.55,49.6 117.3,47.35 L113.55,43.75 Q113.05,43.45 113.35,43 113.65,42.55 114.3,42.85 115.3,43.2 118.25,46.5 120.65,49.6 122,53.25 122.2,48.5 118.4,44.6 116.6,42.85 113.8,41.1 113.1,40.7 113.4,40.25 L113.9,39.75 Q118.15,37.6 117.05,34.25 115.95,31.15 113.15,31.4 L106.3,32.7 Q104.8,32.75 103.9,31.6 101.9,29.25 99.5,28.45 L95.3,28.65 M99.1,36.35 L99.65,35.9 100.35,36.05 102.5,38.25 Q104.5,40.65 104.15,41.9 L102.7,41.25 100.55,39.9 Q99.8,39.5 98.75,39.05 L97.85,38.55 Q97.65,38.3 98.35,37.3 L99.1,36.35 M88.55,45.8 L88,47.45 84.15,54.7 Q83.65,55.55 84.2,56.4 L85.9,59 Q86.15,59.3 86,59.6 L85.5,60 Q84.05,60.75 83.15,59.6 L81.05,56.2 80.9,55.35 Q80.9,54.9 81.2,54.6 84.3,51.15 85.25,49.55 L87.4,45.55 Q87.85,44.65 88.35,44.8 88.85,44.85 88.55,45.8 M93.85,47.8 Q97.45,45 101.45,47.3 103.45,48.45 104.7,50.15 L102,52.45 Q101.65,51.25 100.45,50.05 98.1,47.7 93.85,47.8 M116.65,52.5 L117.85,54.25 118.3,55.6 Q118.15,56.1 117.35,55.1 L115.8,53.35 113.9,51.95 Q113.2,51.5 113.5,51 113.8,50.5 114.25,50.7 115.6,51.3 116.65,52.5 M113.65,55.55 Q113.2,55.3 113.5,54.75 113.85,54.35 114.3,54.55 114.9,54.8 115.5,55.55 116.15,56.4 116.2,57.1 116.25,57.85 115.65,57.85 115.1,57.85 115,57.3 115,56.85 114.3,56.2 L113.65,55.55 M96.4,61.75 L95.85,60.2 Q95.7,59.85 95.85,59.7 L96.3,59.8 101.2,63.55 Q102,64.05 101.8,65.05 L100.7,69.5 Q100.45,70.45 99.95,69.65 L100,67.35 99.35,66.85 Q98.9,66.65 98.5,66.85 L94.05,69.6 Q88.85,72.35 85.8,72.2 82.75,72.05 79.05,70.05 L75.95,68.1 75.3,68.2 Q74.95,68.4 74.95,68.8 L74.95,69.3 Q74.95,70.2 74.4,69.4 L72.45,66 Q71.95,65.15 72.6,64.4 L74.5,62.25 Q74.75,61.95 74.95,62.05 75.1,62.1 75.05,62.5 L75,63.2 Q74.95,63.55 75.25,63.95 L75.9,64.35 79.2,65.1 85.05,65.6 Q88.45,65.35 95.4,63.1 95.85,63 96.2,62.55 96.55,62.15 96.4,61.75 M82.45,73.85 L86.6,73.5 87.45,73.7 87.85,74.3 87.65,75.05 Q87.4,75.4 86.95,75.5 L83.9,75.4 82.3,74.5 Q81.45,73.9 82.45,73.85 M80.45,36.3 Q80.85,36.45 80.85,36.95 L81,37.95 Q81.05,38.45 80.7,38.85 80.45,39.2 79.9,39.2 L75.85,39.2 75.3,39.05 Q75.3,38.85 75.7,38.6 L79.65,36.35 80.45,36.3 M77.55,44.25 Q78.3,44.3 78.75,45.35 79.2,46.35 79.15,47.75 79.05,49.15 78.4,50.15 77.85,51.1 77.1,51.05 76.35,51.05 75.85,50 75.4,48.95 75.45,47.55 75.55,46.15 76.2,45.2 76.75,44.25 77.55,44.25 M85.8,70.1 L89.95,69.6 Q92.05,69 97.6,66.2 L98.5,65.6 Q98.9,64.95 98.25,64.45 97.6,63.95 96.9,64 L95.85,64.15 Q89.5,66.4 85.5,66.6 L79.2,66 75.85,65.3 Q74.6,65.2 74.75,66.1 75,67.05 75.7,67.25 L81.8,69.6 85.8,70.1 M124.45,33.6 Q123.5,31.15 122.05,28.85 120.05,25.75 118.15,24.85 L115.3,21.1 Q113,17.85 110.05,17.35 L105.65,16.05 Q104.9,15.8 104.15,15.15 L102.85,14.05 Q100.5,12.35 99.05,12.45 97.8,12.6 95.05,16.55 L93.25,18.9 90.3,19 Q87.85,18.15 86.4,18.4 84.75,18.85 80,23.8 78.35,25.5 76.25,25.75 74.1,25.9 72.5,24.5 71.3,23.5 71.55,21.6 70.15,22.9 69.55,24.5 68.65,26.6 69.2,29.4 69.75,32.25 71.55,34.1 72.75,35.35 74.65,35.05 76.3,34.8 77.9,33.5 L80.45,30.6 Q82.85,27.8 83.85,27.3 85.5,26.45 86.6,26.7 L90.1,28.35 91.95,28.2 97.85,24.85 Q99.75,24.1 102.8,27.55 L106.45,31.45 Q107.25,31.7 109.6,30.7 112.3,29.65 113.35,29.55 116.6,29.25 118.3,31.25 119.6,32.7 119.8,34.95 120,36.35 118.4,38.2 L115.55,40.75 119.35,44.05 Q122.25,46.95 123,51.35 124.1,48.7 124.8,45.1 126.3,38.1 124.45,33.6 M170.6,105.35 L168.25,112.05 170.9,117.9 Q175.05,125.15 180.7,128.15 L188.95,130.6 Q180.9,124.45 174.55,113.55 L170.6,105.35 M227.9,116.3 L227.35,119.45 Q225.55,127.6 223.45,131.4 221.4,135.05 219.35,134.15 219.55,139.05 221.3,141.6 222.65,143.65 225.4,143.3 228.3,143.05 229.5,138 230.7,133.05 229.5,126.3 L227.9,116.3 M231.3,109.7 L230.1,108.65 Q228.85,107.45 227.65,106.85 228.5,110.55 228,115.45 228.25,115.25 229.2,114.95 L231.4,114.25 231.3,109.7 M212.3,94.95 Q209.6,92.7 206.7,94.7 208.35,96.8 210.6,100.75 L210.85,100.15 Q211.45,99.15 212.9,99.2 L216.2,99.7 Q215.2,97.3 212.3,94.95 M220.15,95.9 L219.25,94.55 216.95,93.55 213.2,92.95 213.7,93.3 Q216.3,95.45 218.45,98.1 L220.3,100.85 220.65,100.95 222.05,99.65 220.15,95.9 M169.95,95.45 Q169.55,87 166,82.4 163.55,79.15 160.05,76.4 163.95,84.3 164.5,90.15 164.9,94.35 163.05,100.9 161.8,105.3 159.9,109.75 L164.95,110.5 Q167.2,108.65 169.5,104.9 L170,104.1 169.7,103.45 169.65,103.1 Q170.15,99.7 169.95,95.45 M185.85,74.45 Q176.45,67.35 166.5,67.95 160.65,68.3 155,71.5 158.25,73 160.5,74.65 164.2,77.35 167.35,81.4 170.95,86.15 171.55,94.3 171.85,98.9 171.25,103.1 174.2,109.65 175.45,111.7 180.6,120.2 188.6,125.8 196.6,131.4 207.45,132.4 212.7,132.85 218.35,132.2 L221.55,128.8 Q224.55,124.95 225.8,119.1 226.95,113.6 225.65,108.85 L223.75,104.25 219.05,102.45 219.1,102.45 218.9,102.35 Q214.75,100.85 212.85,100.75 212.3,100.75 212.2,101.05 211.9,101.55 212.7,104.1 L213.6,106.55 Q214,107.25 213.25,107.65 L210.1,104.35 209.2,104.15 Q208.5,104.05 208.5,103.25 208.45,102.05 208.1,101.4 207.75,100.5 205.95,98.3 L204.2,98.2 Q202.7,98.7 202.4,100.2 202.35,100.8 201.55,100.85 200.6,100.9 199.95,99.6 199.4,98.55 199.25,96.85 198.05,83.6 185.85,74.45Z"/></g></svg>