<?xml version="1.0" encoding="utf-8"?><svg id="Agility" image-rendering="auto" baseProfile="basic" version="1.1" x="0px" y="0px" width="240" height="240" xmlns="http://www.w3.org/2000/svg" xmlns:xlink="http://www.w3.org/1999/xlink"><g id="Scene-1f3r1" overflow="visible"><path fill="#FFF" stroke="none" d="M140.95,205.15 L134.05,206.4 127.9,206.5 Q127.6,206.75 128.05,213.85 L128.65,221.35 Q128.75,221.75 130.75,221.8 L134.9,221.65 Q137.5,221.35 140.7,219.9 L140.95,205.15 M127.3,172.15 L127.45,172.9 Q127.8,173.3 128.7,173.3 129.35,173.3 129.5,173.95 L128.65,175.35 Q127.75,176.7 127.8,177.6 L128.6,177.65 129.5,177.55 Q129.75,178 129.35,178.4 L128.55,180.45 Q127.75,182.95 127.65,185.5 127.5,189.85 128.75,193.05 L128.5,193.65 128.1,193.85 125.35,194.7 Q122.5,196.15 121.85,199.25 120.7,204.7 121.85,223.5 L121.85,223.6 121.9,223.8 122.2,224.3 Q125.45,227.55 131.75,227.55 136.7,227.55 138.95,226.4 140.4,225.65 140.45,224.7 L140.55,223.1 Q138.55,224.15 134.75,224.7 L129,224.35 126.95,223.5 126.4,214.5 Q125.95,205.4 126.4,204.6 L129.45,204.5 133.85,205.3 Q136.4,205.3 140.85,203 L140.5,199.25 Q139.85,196.15 137.95,194.6 136.8,193.7 136.05,193.7 135.4,193.6 135.4,192.95 L135.35,185.35 Q135.25,182.8 133.65,181.4 L132.1,180.45 Q131.7,179.95 132,179.45 L135.05,176.4 Q135.1,175.45 134.3,175 L133.4,174.75 Q132.75,174.6 132.85,173.95 132.95,173.3 133.6,173.3 134.5,173.3 134.9,172.9 L135.05,172.15 Q134.95,171.5 134.3,171.35 L134.15,171.3 133.35,171.95 Q131.65,173 129.25,172.2 L127.95,171.3 127.75,171.35 Q127.4,171.45 127.3,172.15 M129.7,193.9 Q129.7,193.55 130.45,193.55 L133.85,193.55 Q134.55,193.55 134.55,193.9 134.55,194.3 133.85,194.7 133.1,195.15 132.15,195.15 L130.45,194.7 Q129.7,194.3 129.7,193.9 M132.75,140.95 L132.25,142.85 Q131.75,145.7 132.1,149.4 132.55,154.05 131.55,159.85 131,163.05 130.25,165.55 L129.55,167.65 Q128.95,169.3 129.05,169.9 129.1,170.4 129.8,170.65 130.65,171 131.95,170.2 133.25,169.3 134.25,167.85 135.05,166.6 135.25,165.55 L135.3,165 Q135.45,163.2 134.6,160.15 L133.7,157.35 Q133.45,156.6 134.15,156.35 134.85,156 135.2,156.7 135.7,157.75 136.75,158.95 138.1,160.55 139.45,161 L142.2,160.95 143.95,159.6 Q143.2,159 142.2,157.8 141.2,156.65 140.45,155 L139.85,153.55 Q139.6,152.8 140.35,152.55 141.1,152.3 141.35,153 142.3,155.3 143.5,156.85 L145.15,158.15 147.2,158.05 149.25,156.85 Q150.6,155.7 150.2,154 149.85,152.55 148.9,151.95 L148.4,151.8 Q146.85,152.95 146.8,154.7 146.8,155.4 146.15,155.5 145.45,155.6 145.25,154.95 144.8,152.95 146.55,150.45 148.6,147.45 146.7,142.25 144.05,142.4 140.45,142.15 L132.75,140.95 M72.95,92.6 L75.75,96.2 Q79.35,100.45 83.35,103.9 96.2,115 108.6,114.5 104.4,112.6 100.05,109.15 L96.3,105.9 Q93.4,105.25 89.7,103.15 82.2,98.9 78.25,91.8 L77,89.3 Q74,88.1 71.5,86.35 71.45,89.4 72.95,92.6 M38.6,76.35 Q37.5,77.9 36.95,81.05 36.25,84.4 37.4,87.15 37.9,88.5 38.6,89.2 L42.25,90.75 Q47.35,92.5 54.65,93.2 62.75,93.95 70.5,92.35 L70.4,92.2 Q68.35,87.75 68.6,83.95 65.25,80.7 62.95,76.1 L62.05,74.1 60.55,74.7 Q56.7,76.3 47.75,76 L39.5,75.4 38.6,76.35 M25.05,60.45 Q24.35,60.85 24.3,61.6 24.05,62.9 25.4,65.3 L27.65,68.35 Q28.15,68.95 27.6,69.45 L26.5,69.5 Q23.85,67.05 20.85,65.35 16.95,63.25 15.7,64.45 15.35,64.8 15.45,65.25 15.55,66.7 18.3,69.25 20.5,71.35 23.15,73.05 23.65,73.45 23.45,74.05 23.15,74.7 22.5,74.55 18.85,73.6 15.7,73.55 12.4,73.55 12,74.45 11.45,75.9 20.05,80.6 23,82.2 25.05,83.5 27.45,85.05 27.6,86.7 27.65,87.6 26.85,88.65 L22,93.4 Q20.75,94.95 21.1,95.65 21.45,96.2 23.25,96.05 L27.45,95.3 Q30.7,94.4 33.9,91.75 L35.3,90.4 34.6,88.2 Q33.3,83.7 34.1,80 34.8,76.15 36.7,74.25 L38.45,73.25 Q34.6,67.75 30.8,63.95 26.5,59.65 25.05,60.45 M60.65,41.5 Q60.1,42.75 60.5,44.75 60.75,45.85 61.95,47.7 L62.2,48.1 64.55,42.5 64.6,42.4 Q63.4,42.15 62.3,41.2 61.2,40.25 60.65,41.5 M149.95,70.35 L145.5,70.85 131.4,69.3 Q127.6,69.3 126.25,69.85 123.4,71 121.5,74.15 119,78.35 120.3,83.95 L122,90.65 Q123.2,94.6 124.75,97.95 127.15,103.1 129.2,108.55 131.6,115.05 131.7,117.45 131.95,123.8 130.1,137.15 L132.3,138 Q135.65,139.1 140.9,139.55 146.05,139.95 148.65,138.55 149.95,137.85 150.2,137.05 151.85,119.95 151.7,113 151.6,107.95 150.8,104.25 150.05,100.9 148.05,95.8 146.1,90.85 145.4,88.1 144.7,85.25 145,83.45 L146.55,83.7 Q146.4,84.9 147.55,87.8 L152.3,100.1 Q153.55,104 154.15,108.2 L155.6,108.25 Q158.95,90.85 156.8,84.3 154.5,77.4 149.95,70.35 M115.95,70.45 Q113.95,72.7 111.1,72.55 109.7,75.15 105.85,79.8 105.45,96.05 94.8,97.9 90.5,98.6 86.2,96.45 81.9,94.25 79.6,90.2 L79,90 79.55,90.9 Q86.6,101 95.05,102.55 L95.45,102.75 100.3,107.45 Q106.25,112.5 112.3,114.7 118.65,114.85 124.85,113.05 123.6,112.7 121.45,111.4 L118.05,109.2 Q106.4,102.15 106.5,99.4 L109.2,94.2 Q112.15,88.5 113.25,80 L113.45,79.2 Q114.2,75.1 115.95,70.45 M119.65,74.15 L120.6,71.5 Q120.8,70.45 119.9,70 L119,70.5 Q115.6,72.8 115,79.5 L114.85,80.3 Q114.75,86.5 111.85,93.2 109.2,99.35 109.25,99.6 109.45,100.9 112.4,103.3 L118.9,107.85 Q122.1,109.85 126.75,110.75 L125.95,108.1 Q124.2,102.85 122.55,99.25 118.85,91.25 118.05,84.35 117.5,79.3 119.65,74.15 M97.5,36 Q96,36.15 95,35.1 92.85,32.9 90.35,32.3 88,31.8 86.2,32.9 84.4,34 83.25,34.35 L80.1,34.25 Q77.1,32.55 75.6,33.45 74.85,33.95 72.75,36.95 L70.45,40.2 Q68.3,42.05 66.45,42.45 63.1,48.6 62.1,55.5 60.6,65.95 65.3,75.4 70.25,85.25 79.7,88.8 85.15,90.85 89.4,90.55 L92.5,90.2 Q92.7,90.6 90.2,91.5 87.75,92.35 86.95,92.25 87.45,94 90.1,94.8 92.8,95.6 95.7,94.8 103.4,92.6 103.25,82.65 100.8,84.5 98.75,84.75 96.7,85.05 98.4,83.85 104.6,79.35 108.75,71 113.3,71.3 115.1,67.05 116.95,62.7 113.05,60.05 112.45,59.25 113.15,58.85 113.5,58.65 113.95,58.6 L114.1,58.15 Q111.45,54.5 109.3,52.5 108.35,51.6 106.75,50.8 105.95,50.4 106.05,49.75 106.1,49.1 106.7,49.3 108.2,49.8 110.15,51.5 111.55,52.75 113,54.85 L114.45,57.1 114.7,56.2 Q112.1,51.65 109.75,49.6 108.6,48.45 107.05,47.35 L105.7,46.4 Q105.2,46.1 105.45,45.65 105.7,45.2 106.35,45.4 107.4,45.7 110.6,48.7 113.25,51.55 114.9,55.05 114.7,50.35 110.6,46.8 108.65,45.2 105.7,43.7 105,43.35 105.25,42.85 L105.7,42.35 Q109.75,39.8 108.35,36.6 107,33.6 104.25,34.1 101.3,34.7 99.95,35.25 L97.5,36 M90.5,42.95 Q89.6,42.65 89.55,42.55 89.35,42.3 89.95,41.25 L90.6,40.25 91.2,39.75 91.9,39.85 94.2,41.85 Q96.4,44.05 96.15,45.35 L94.65,44.8 92.4,43.65 90.5,42.95 M107,53.2 Q108.4,53.7 109.55,54.8 L110.9,56.4 111.45,57.75 Q111.35,58.3 110.45,57.35 L108.75,55.7 106.75,54.5 Q106.05,54.1 106.3,53.55 106.55,53.05 107,53.2 M107.4,57.05 L108.65,57.95 Q109.4,58.75 109.5,59.45 109.6,60.2 109,60.25 108.45,60.3 108.35,59.75 108.3,59.3 107.55,58.7 L106.85,58.15 Q106.35,57.9 106.6,57.35 106.9,56.85 107.4,57.05 M97.45,53.5 L94.95,56 Q94.5,54.85 93.2,53.75 90.6,51.65 86.4,52.1 89.75,49 93.95,50.95 96.05,51.9 97.45,53.5 M89.45,64.3 Q89.3,63.95 89.45,63.8 L89.9,63.85 95.1,67.15 Q95.95,67.6 95.85,68.6 L95.15,73.15 Q95,74.1 94.4,73.35 L94.25,71.1 Q94,70.75 93.6,70.65 L92.75,70.7 88.5,73.85 Q83.6,77 80.55,77.1 77.45,77.25 73.6,75.6 L70.35,73.9 69.7,74.05 Q69.4,74.3 69.45,74.7 L69.45,75.2 Q69.55,76.1 68.95,75.35 L66.65,72.15 Q66.1,71.35 66.65,70.55 L68.4,68.2 Q68.65,67.85 68.85,67.95 L69,68.4 69,69.1 Q69,69.5 69.3,69.85 69.6,70.15 70,70.2 L73.35,70.65 Q77.15,71 79.25,70.65 82.6,70.1 89.3,67.2 L90,66.6 Q90.35,66.15 90.15,65.8 L89.45,64.3 M81.45,78.35 L82.3,78.45 Q82.7,78.65 82.75,79.05 L82.65,79.8 81.95,80.3 78.95,80.45 77.2,79.7 Q76.3,79.2 77.3,79.05 L81.45,78.35 M67.75,45.1 L67.2,45 Q67.15,44.8 67.55,44.5 L71.25,41.95 72.05,41.8 Q72.45,41.95 72.5,42.45 L72.75,43.4 Q72.85,43.9 72.55,44.3 L71.75,44.75 67.75,45.1 M78,54.6 L79.8,50.45 Q80.2,49.5 80.7,49.6 81.2,49.6 81,50.6 L79.25,55.8 77.35,59.85 Q76.9,60.75 77.55,61.55 L79.5,63.95 79.65,64.55 79.2,65 Q77.75,65.85 76.75,64.8 L74.4,61.6 74.15,60.8 Q74.15,60.35 74.4,60 77.15,56.25 78,54.6 M71.15,51 Q71.7,51.95 71.75,53.35 71.8,54.75 71.25,55.8 70.75,56.8 70,56.8 69.25,56.85 68.7,55.85 68.15,54.85 68.1,53.45 68.05,52.05 68.6,51.05 69.1,50.05 69.85,50 70.6,50 71.15,51 M90.85,67.95 L89.8,68.2 Q83.7,71.05 79.75,71.6 77.3,71.9 73.4,71.55 L70,71.15 Q68.75,71.15 69,72.05 69.35,72.95 70.05,73.1 L76.3,74.9 80.35,75.05 Q82.9,74.8 84.45,74.2 86.45,73.4 91.8,70.15 92.35,69.85 92.6,69.4 92.95,68.75 92.25,68.3 91.6,67.85 90.85,67.95 M92.45,17.7 Q89.9,16.2 88.5,16.45 87.25,16.7 84.9,20.9 L83.5,23.15 83.3,23.4 Q82.45,24.3 80.4,23.75 L76.4,23.5 Q74.8,24.05 70.5,29.4 69.05,31.25 66.95,31.65 64.8,32 63.1,30.75 61.8,29.85 61.9,27.95 60.6,29.35 60.15,31 59.45,33.2 60.25,35.95 61.05,38.75 63,40.4 64.3,41.55 66.15,41.1 67.8,40.7 69.3,39.25 L71.55,36.15 Q73.7,33.15 74.65,32.55 76.2,31.55 77.35,31.7 77.85,31.7 79.6,32.45 L81,33.1 Q81.8,33.4 82.8,32.75 L88.4,28.9 Q90.2,28 93.6,31.15 L97.55,34.75 Q98.35,34.9 100.6,33.7 103.25,32.4 104.25,32.2 107.45,31.6 109.35,33.5 110.75,34.85 111.15,37.05 111.45,38.4 110.05,40.4 L107.45,43.15 Q107.9,43.45 109.15,44.3 L111.5,46.15 Q114.6,48.8 115.8,53.1 116.65,50.35 117.05,46.75 117.9,39.6 115.7,35.3 114.5,32.9 112.85,30.75 110.6,27.85 108.6,27.1 L105,23.15 Q102.6,20.6 99.9,20.35 L95.4,19.45 92.45,17.7 M168.45,102.85 L165.9,109.5 168.3,115.5 Q172.15,122.85 177.7,126.1 178.9,126.8 181.85,127.7 L185.8,128.9 Q178,122.45 172.15,111.25 L168.45,102.85 M225.35,116.15 L224.65,119.25 Q222.55,127.3 220.3,131 218.1,134.6 216.1,133.65 216.1,138.55 217.75,141.15 219,143.2 221.8,143 224.7,142.85 226.1,137.9 227.5,132.95 226.6,126.15 L225.35,116.15 M227.85,108.5 Q226.65,107.35 225.45,106.7 226.15,110.35 225.45,115.3 L225.65,115.2 225.65,115.15 225.8,115.15 226.7,114.75 228.95,114.15 229.05,109.7 227.85,108.5 M210.6,94.15 Q207.95,91.75 205,93.7 206.6,95.8 208.65,99.9 L208.9,99.3 Q209.6,98.3 211.05,98.4 L214.3,99.1 Q213.4,96.6 210.6,94.15 M217.55,94 L215.3,92.95 Q213.2,92.1 211.6,92.2 L212,92.6 Q214.55,94.8 216.6,97.55 L218.4,100.3 218.75,100.45 220.1,99.2 218.2,95 217.55,94 M168.25,93 Q168.2,84.5 164.8,79.7 161.45,74.95 155.65,70.95 L153.15,69.55 151.7,69.95 Q159.1,80.5 160.5,88.15 161.25,92.3 160,99 159.15,103.45 157.65,108.1 L162.7,108.4 Q164.85,106.35 166.8,102.4 L167.55,100.7 167.6,100.55 Q168.25,97.25 168.25,93 M184.95,72.6 Q175.85,65.15 165.9,65.35 160,65.5 154.25,68.45 157.35,70.1 159.6,71.8 163.2,74.7 166.15,78.8 169.55,83.75 169.8,91.9 170,96.5 169.25,100.65 171.85,107.35 173,109.45 177.9,118.15 185.65,124.1 193.45,129.95 204.3,131.45 209.45,132.05 215.15,131.6 L218.5,128.4 Q221.6,124.6 223.1,118.9 224.55,113.4 223.4,108.55 L221.65,103.9 217.05,101.95 217.1,101.9 216.9,101.8 Q212.8,100.1 210.9,99.95 210.4,99.95 210.25,100.2 209.95,100.7 210.65,103.3 L211.45,105.8 Q211.8,106.5 211,106.9 L208,103.45 207.15,103.25 Q206.5,103.1 206.45,102.25 L206.15,100.4 Q205.8,99.55 204.1,97.3 203.7,96.75 202.3,97.1 200.85,97.5 200.5,99 200.4,99.6 199.6,99.65 198.65,99.65 198.05,98.3 197.55,97.2 197.45,95.6 196.75,82.25 184.95,72.6Z"/></g></svg>