<?xml version="1.0" encoding="utf-8"?><svg id="Charisma" image-rendering="auto" baseProfile="basic" version="1.1" x="0px" y="0px" width="240" height="240" xmlns="http://www.w3.org/2000/svg" xmlns:xlink="http://www.w3.org/1999/xlink"><g id="Scene-1f0r1" overflow="visible"><path fill="#FFF" stroke="none" d="M87.6,220.45 L83.05,218.95 Q75.7,221.1 74.05,222 71.85,223 71.95,223.7 71.95,224.05 72.95,224.3 L73.55,224.35 Q80.5,226.1 87.65,225.5 92.45,225.1 98.7,223.4 L99,223.35 99.05,223.55 100.45,225.05 Q104.2,225.05 105.35,224.3 106.55,223.55 106.75,221.45 L95.7,222 Q92.1,221.75 87.6,220.45 M159.9,227.65 L148.1,227.25 Q147.7,229.35 148.45,230.5 149.5,232.55 153.15,234.8 157.45,237.65 161,237.1 165.85,236.45 166.85,232.8 L167,231.45 166.85,230.3 165.2,226.4 Q162.65,227.45 159.9,227.65 M119.3,166.15 L119.8,165.8 126.2,176.8 Q133.3,189.85 137.65,200.4 139.4,204.95 142.85,215 145.85,223.75 146.2,224.1 147.7,224.95 152.5,225.3 156.45,225.5 158.95,225.45 L163.65,224.7 Q166.05,224.1 166.35,223.55 166.7,222.55 165.65,210.85 164.45,197.95 162.65,189.85 161.3,183.15 157.45,168.9 L152.05,149.5 Q145.55,154.15 135.95,156.15 125.5,158.45 115.25,156.75 103.35,154.8 97.1,150.7 95.55,156.9 93.65,166.6 91.1,178.15 90.3,183.6 L85.3,216.35 Q87.3,218.2 90.35,219.1 L96.7,220.05 106.9,219.55 107.3,219.1 Q111.05,201.5 113.85,192.45 115.65,186.65 118.6,179.3 L121.5,172.3 119.3,166.15 M76.85,151.45 L75,151.1 Q69.85,149.55 66.85,143.55 63.45,153.6 64.6,159.6 65.45,163.85 68.75,168.15 70.95,171.1 73.65,173.35 L74.7,174.3 76,175 Q79.85,176.95 81.25,175.65 81.6,175.25 81.6,174.45 81.6,173.7 81.25,173.35 L79.3,170.85 75.4,170.6 Q70.7,168.9 68.25,162.25 66.3,156.9 66.75,154.95 66.9,154.2 67.8,154.15 68.75,153.95 68.9,154.75 69.5,158.85 70.3,161.25 72.25,167.2 76.2,168.55 L78.3,168.9 Q78.9,168.3 76.8,163.2 L74.45,157.15 75.25,156.65 76.35,155.55 Q77.35,153.9 76.85,151.45 M78.75,151.85 Q79.5,156.45 77,158.1 L80.35,166.9 Q80.9,169.3 79.9,170.4 L79.7,170.5 Q81.5,171.7 82.35,172.05 84,172.75 84.95,171.7 85.75,170.65 83.55,168.05 81,165.2 81.05,164.8 L81.25,164.8 81.4,164.7 Q81.85,164.95 84.2,166.95 86.55,168.6 87.6,167.35 88.15,166.6 84.7,162.9 L80.7,158.85 81.65,156.5 Q82.2,154.9 82.05,153.6 L82,151.85 Q80.4,152.05 78.75,151.85 M105.2,86.45 L105.35,86.45 106.05,86.75 Q106.95,87.15 107.4,88.3 107.8,89.3 107.4,90.45 106.75,92.15 105.4,97.8 103.7,105.15 102.9,111 102.15,116.65 102.15,125 L102.15,135.1 Q102.15,135.85 101.7,136.35 101.1,136.75 100.05,136.65 L96,135.45 Q95.5,144.35 96.1,146.4 97.7,148.8 104.45,151.85 111.9,155.15 118.7,155.65 129.7,156.45 139.3,153.15 147,150.55 152.15,146.05 L151.35,136.35 138.65,138 Q129.3,138.75 125.95,138.35 125,138.3 124.25,137.5 123.4,136.75 123.35,136 123,132.4 123.15,123.25 123.2,113.9 123.7,109.4 124.3,102.6 126.1,93.5 126.55,91.7 127.4,90.75 128.4,89.85 130.1,89.7 141.55,88.65 144.7,82.1 140.2,79.6 135.8,77.65 134.05,82.9 128.35,86 122.85,89.15 116.95,88.7 113.4,88.5 110.85,86.95 108.05,85.25 106.75,82.1 104.85,81.35 102.5,79.95 L99.45,82.3 Q100.2,84.25 102.4,85.35 L105.2,86.45 M98.05,83.45 L97.1,84.25 Q89.15,91.5 83.25,101.5 77.35,111.3 72.8,123.25 70.2,130.4 68.45,136.8 L68.35,137.35 Q67.9,139.05 68,139.75 68.65,142.05 69.9,144.15 72.15,147.85 75.3,148.75 L80.4,149.55 82.25,149.35 Q86.3,138.75 93.1,129.75 92.6,124.95 91.8,121.15 L88.8,106.15 89.6,105.85 93.2,117.3 Q94.6,122.05 95.5,130.95 L95.75,133.25 Q97.65,134.25 100.35,134.7 L100.35,133.5 100.2,133.35 Q100.15,130 100.2,124.95 100.35,116.45 101,110.75 101.75,105.05 103.45,97.55 104.85,91.85 105.55,89.8 L105.6,89.05 105.2,88.5 104.8,88.3 104.6,88.3 Q100.45,86.75 99,85 L98.05,83.45 M94.4,27.05 Q94,26.65 93.45,26.6 92.7,26.5 92.25,27.8 91.8,29 91.95,30.65 92.05,31.9 93.3,34.5 95,31.3 96.75,28.65 95.4,28.25 94.4,27.05 M130.4,24.7 Q127.65,20.95 123.9,20.65 122.4,20.6 121.2,21.2 118.3,22.55 116.5,22.45 115.35,22.35 114.5,21.85 112.45,20.45 110.85,20.25 L109.65,20.5 Q108.85,20.9 106.15,23.9 L103.25,27.05 Q101,28.7 98.85,28.95 94.15,35.65 92.35,42.5 89.35,53.5 93.2,64.3 97.35,75.65 106.95,80.7 112.55,83.6 116.85,83.75 L120.4,83.75 120.7,83.8 Q120.7,84.25 118.3,84.8 L114.75,85.35 114.5,85.35 Q115.5,86.3 117.6,86.4 122.25,86.7 127.1,84 132.45,81.05 133.15,77.05 130.1,78.95 127.75,78.75 127.05,78.65 127.05,78.5 127,78.2 127.75,77.7 135.25,73.6 140.6,65.2 L141.5,65.3 Q146.15,65.65 148.2,61.45 150.4,57.15 146.7,53.9 146.15,53.05 146.9,52.7 L147.85,52.5 148.1,52.1 Q145.3,47.2 143.65,45.35 142.55,44.15 141.1,43.1 140.4,42.65 140.4,42.05 140.45,41.45 141,41.45 L141.2,41.45 Q142.85,42.3 144.65,44.4 147.1,47.1 148.7,51.5 L148.85,51.5 149.1,50.35 147.5,46.75 Q146.15,44.05 144.45,42.25 L140.5,38.25 Q140.1,38 140.2,37.55 140.4,37.1 140.95,37.2 L141.35,37.25 Q142.55,37.8 145.45,41.45 148.1,44.8 149.35,48.8 149.75,43.7 145.75,39.35 143.85,37.4 140.85,35.35 140.15,34.9 140.5,34.35 L141,33.95 Q145.55,31.75 144.7,28.25 143.85,25.1 140.85,24.85 L140.6,24.85 132.8,25.95 Q131.3,25.9 130.4,24.7 M130.3,35.95 L123.55,32.05 Q123.4,31.7 124.25,30.65 L125,29.7 125.9,29.2 126.5,29.4 128.65,31.9 Q130.8,34.55 130.35,35.95 L130.3,35.95 M121.95,42.5 Q122.05,41 122.75,39.95 123.4,39 124.25,39 125.05,39.1 125.55,40.25 126.05,41.35 125.9,42.9 125.75,44.4 125.05,45.35 124.4,46.4 123.6,46.35 L123.55,46.35 Q122.75,46.3 122.25,45.15 121.85,44.05 121.95,42.5 M140.6,47.15 Q140.05,46.7 140.15,46.15 140.4,45.7 140.85,45.75 L141.1,45.75 Q142.5,46.5 143.55,47.8 L144.8,49.75 Q145.4,50.8 145.2,51.35 L145.05,51.5 Q144.75,51.5 144,50.35 L142.55,48.7 140.6,47.15 M99.65,32 L99.15,31.75 Q99.15,31.6 99.65,31.35 L103.9,29 104.45,28.95 Q105.2,28.95 105.2,29.7 L105.35,30.85 Q105.4,31.4 105.05,31.75 104.7,32.2 104.1,32.15 L99.65,32 M99.05,41.05 Q99.15,39.55 99.9,38.45 100.55,37.45 101.35,37.55 102.15,37.65 102.6,38.75 103.15,39.9 102.9,41.45 102.9,43 102.15,44 101.5,45 100.65,44.95 L100.55,44.95 Q99.8,44.85 99.4,43.75 98.85,42.6 99.05,41.05 M104.95,49 L109.6,43.6 112,39.35 Q112.55,38.45 113.1,38.45 L113.15,38.45 Q113.75,38.65 113.3,39.7 L108.15,49.15 Q107.55,50.05 108.15,51.05 L110.05,53.85 Q110.25,54.2 110.1,54.65 L109.5,54.9 108.3,55.15 Q107.4,55.05 106.9,54.4 L104.8,50.65 Q104.2,49.75 104.95,49 M120.85,54.85 L121.25,55.05 126.4,59.25 Q127.3,59.85 127,60.95 L125.7,65.85 125.3,66.25 124.9,65.85 125,63.5 Q124.7,62.9 123.9,62.75 L123.4,62.8 118.5,65.65 Q112.8,68.45 109.5,68.2 L109.45,68.2 Q106.15,67.95 102.15,65.65 L98.85,63.4 98.65,63.4 Q97.75,63.4 97.75,64.15 L97.75,64.65 97.5,65.2 97.1,64.85 95.15,61.1 Q94.6,60.05 95.35,59.35 L97.5,57.1 Q97.7,56.8 97.85,56.8 L98.1,57.35 97.9,58.1 Q97.85,58.5 98.3,58.85 L99,59.35 101.75,60.1 107.4,61.05 108.85,61.1 Q112.55,60.85 120.15,58.55 120.65,58.5 121,58.1 121.4,57.6 121.25,57.2 L120.7,55.45 Q120.5,54.85 120.85,54.85 M105.1,70.15 L105.6,69.9 110.45,69.6 Q111.45,69.7 111.6,70.5 L111.4,71.3 Q111.05,71.65 110.5,71.8 L108.7,71.9 107.25,71.65 105.45,70.5 105.1,70.15 M142.95,52.85 Q142.95,53.75 142.3,53.65 141.65,53.65 141.65,53.05 L140.95,51.75 140.2,51.05 Q139.8,50.8 140.05,50.3 140.2,49.85 140.65,49.85 L141,50 142.15,51.1 Q142.85,51.9 142.95,52.85 M109.3,62.15 L107.8,62.05 98.8,60.45 98.65,60.3 Q97.45,60.3 97.65,61.2 97.85,62.4 98.65,62.5 L105.2,65.25 Q106.4,65.75 108.55,65.85 L113.95,65.5 Q116.25,64.9 122.5,62.15 L123.4,61.4 Q123.9,60.8 123.2,60.2 122.6,59.6 121.85,59.6 L120.5,59.8 Q113.65,62.05 109.3,62.15 M146.15,17.85 L143.15,13.7 Q140.75,10.05 137.65,9.4 L132.8,7.85 Q132.05,7.65 131.3,6.85 L129.8,5.55 Q127.75,3.95 126.1,3.8 L125.75,3.8 Q124.35,3.85 121.4,8.1 L119.25,10.55 Q118.6,11.2 117.8,11.15 L115.65,10.45 Q114.25,9.8 113.15,9.8 L111.85,9.8 Q109.95,10.2 104.7,15.45 102.6,17.55 99.9,17.4 97.9,17.2 96.5,15.9 95.3,14.8 95.55,12.75 94.15,14.05 93.3,15.85 92.35,18.15 92.8,21.2 93.3,24.35 95.15,26.35 96.15,27.45 97.65,27.5 99.8,27.7 102.15,25.95 L104.95,22.85 Q107.7,19.85 108.75,19.4 110.25,18.6 111.45,18.65 L112.75,19.1 115.6,20.8 116.2,20.9 118,20.45 124.15,17.15 125,17.1 Q126.95,17.15 129.8,20.85 L133.25,24.65 133.6,24.7 136.95,23.9 Q139.65,22.9 140.8,22.8 L142,22.8 Q144.85,22.9 146.4,25.15 147.45,26.65 147.7,28.9 147.75,30.5 145.9,32.4 144.65,33.95 142.8,34.95 L146.8,38.75 Q149.85,42.15 150.55,46.85 151.8,44 152.75,40.15 154.5,32.5 152.75,27.6 151.8,24.9 150.2,22.3 148.15,18.9 146.15,17.85 M193.7,158.45 Q193.4,155.75 192.1,152.95 189.1,160 183.35,161.65 L174.85,162 172.65,165.35 Q171.25,166.7 168.75,168.3 L167.8,168.9 167.3,169.5 Q166.85,170.55 168.55,170.85 L172.25,170.4 175.95,168.7 Q178.05,167.7 178.1,167.95 L178.3,168.5 177.45,179.7 Q176.7,186 177.8,186.35 179.45,186.85 181.6,181.15 L183.3,173.55 Q184.3,168.15 184.4,168.15 185.6,168.55 184.75,174.45 L183.75,180.5 184,180.6 184.65,180.5 Q187.55,179.5 189.15,172.35 190.3,165.6 190.65,165.95 191.4,166.7 190.8,170.95 L190.2,175 Q192.15,175 193,172 194.7,165.95 193.7,158.45 M185.45,133.9 Q181,121.95 175,112.1 172.1,107.3 168.2,102.35 L160.65,93.85 Q154.85,88.25 146.4,83.1 143.7,87.75 137.35,90.05 133.8,91.35 130.35,91.6 129.3,91.75 128.85,92.15 128.25,92.75 128.05,93.95 126.55,100.75 125.55,109.55 125.1,113.95 125,123.25 125,132.3 125.3,135.8 L125.55,136.15 126.2,136.5 Q128.05,136.75 132.4,136.5 L150.4,134.7 150.95,130.05 142.4,123.3 142.75,121.2 150.6,126.65 Q159.5,133.25 164.5,139.5 L166.85,142.7 Q170.2,147.4 173,152.8 175,156.75 176.1,159.95 178.05,160.8 183.1,159.35 186.2,158.45 188.45,154.8 189.7,152.75 190.3,150.35 190.45,149.7 190.05,148 L189.85,147.55 Q188.3,141.15 185.45,133.9Z"/></g></svg>