<?xml version="1.0" encoding="utf-8"?><svg id="Charisma" image-rendering="auto" baseProfile="basic" version="1.1" x="0px" y="0px" width="240" height="240" xmlns="http://www.w3.org/2000/svg" xmlns:xlink="http://www.w3.org/1999/xlink"><g id="Scene-1f1r1" overflow="visible"><path fill="#FFF" stroke="none" d="M95.75,222 Q90.9,221.6 83.1,218.95 75.75,221.1 74.2,221.9 71.9,223.1 72,223.7 72,224.05 73,224.3 L73.6,224.35 Q80.55,226.1 87.7,225.5 92.5,225.05 98.75,223.4 L99.05,223.35 99.1,223.55 100.5,225.05 Q104.15,225.05 105.45,224.3 106.6,223.55 106.8,221.45 L95.75,222 M159.95,227.65 L148.15,227.25 Q147.75,229.35 148.5,230.5 149.55,232.55 153.2,234.8 157.5,237.65 161.05,237.1 166.75,236.35 167.05,231.45 167.1,230.35 165.25,226.4 162.7,227.45 159.95,227.65 M94.25,163.25 Q91.35,177.75 90.35,183.6 88.65,193.15 85.35,216.25 87.35,218.2 90.4,219.1 L96.75,220.05 106.95,219.55 107.35,219.1 Q111.1,201.5 113.9,192.4 115.7,186.55 118.65,179.3 L121.55,172.3 119.35,166 119.85,165.8 126.25,176.8 Q133.35,189.85 137.7,200.3 L142.9,215 Q145.9,223.75 146.25,224.1 147.75,224.95 152.55,225.3 156.5,225.5 159,225.45 L163.7,224.7 Q166.1,224.1 166.4,223.55 166.75,222.55 165.7,210.85 164.5,197.95 162.7,189.85 161.05,181.65 158.2,170.85 154.9,158.85 152.5,152.4 L151.25,151.3 Q144.6,155.1 135.3,155.9 125.35,156.9 115.35,154.4 103.85,151.45 97.9,146.8 L94.25,163.25 M139.7,114.15 Q136.65,114 134.45,115.5 132,117.2 131.3,118.35 129.7,120.7 130.85,124.4 131.5,126.65 133.5,127.3 135.3,127.95 137.85,127.35 139.9,126.95 141.2,126 142,125.55 142,122.35 142,119.4 141.35,116.2 L143,115.9 Q144.85,125.55 142.15,127.45 140.7,128.45 138.3,129 135.2,129.7 132.95,128.95 132,128.6 131,127.85 130.85,130.2 130,131.7 L130.15,132.9 Q130.85,134.7 132.6,135.15 L133.85,135.4 136.5,134.9 Q139.7,134.05 141.75,132.75 L142.85,132.15 Q143.55,131.75 143.9,132.45 144.35,133.15 143.7,133.65 142.55,134.45 140.4,135.6 136.65,137.15 133.85,137.05 L131.65,137 Q131.4,137.3 131.4,137.95 131.65,139.45 133.45,141 135,142.15 140.15,141 144.35,140.05 147.15,138.6 L147.85,138.6 148.3,138.95 148.4,139.5 147.95,140.05 145.45,141.4 Q147.75,143.1 149.65,142.75 152.6,142.15 154.95,137.15 L155.7,134.8 155.85,132 Q155.65,128.1 153.25,123.95 151,120.05 147.45,117.25 143.7,114.2 139.7,114.15 M138,115.3 L138.75,115.2 139.25,115.8 140.1,118.9 Q140.7,122.25 140.5,124.2 L138.85,123.95 Q139.05,121.95 137.9,117.35 L136.5,118.2 Q136.9,122.7 137.85,124.4 L136.35,125.2 Q135.55,123.75 135.1,120.7 L134.75,117.8 Q134.65,117.25 135.1,116.95 L138,115.3 M129.7,116.15 Q128.4,116.9 127.65,118.2 126.3,120.4 127,123.2 127.3,124.4 126.45,125.7 L124.7,127.7 Q123.6,128.7 123.6,129 123.6,129.45 124.7,130.4 126.75,131.9 127.8,131.6 L128.3,131.25 Q128.3,129 129.45,126.95 129.65,126.7 130,126.6 129.4,125.75 129.25,125 127.5,119.4 129.7,116.15 M58.75,139.85 Q53.25,142.55 52.45,144.1 51.55,145.45 51.7,146.4 51.75,147.55 53.15,148.4 55.95,150.35 62.3,145.05 66.9,141.4 65.25,138.7 64.3,137.05 58.75,139.85 M56.9,130.2 Q57.95,129.25 56.8,127.45 55.75,125.85 54.45,125.55 L50,125.7 Q47.2,126.3 45.9,127.25 40.5,131.35 39.85,132.9 38.65,135.85 41.15,137.8 42.65,138.75 44.05,139 L47.45,135.25 Q49.55,133.25 51.45,132.15 L56.9,130.2 M60.45,131.9 L57.65,131.95 Q55.2,132.35 52.35,133.8 50.25,134.8 47.85,137.05 45.65,139.05 45.3,139.85 44.75,141.4 47.15,143.7 48.75,145.1 50.4,144.4 53.8,139.5 61.45,136.75 L62.65,136 Q63.2,135.3 63.2,135 62.95,133.8 62.5,133.05 61.95,132.35 60.45,131.9 M44.4,114.95 Q42.1,110.25 41.35,109.5 39.85,108.15 37.6,110.45 35.55,112.3 35.55,114.75 35.35,117.3 37.45,120.15 39.25,122.65 43,124.4 L45.4,125.55 49.15,124.35 Q53.15,123.4 54.7,123.85 56.15,124.25 57.5,125.35 58.75,126.45 59.1,127.55 59.5,128.95 58.8,130.25 62.6,130.55 63.7,132.1 64.7,133.65 64.5,136 65.35,136.05 66.2,136.6 67.25,137.3 67.6,138.3 68.15,140.05 66.95,141.95 65.85,143.75 63.1,145.9 L60.2,148.15 Q59.55,148.6 59.65,148.9 59.85,149.25 60.6,148.9 63.7,147.75 66.5,145.05 70.7,141.15 70.85,136.65 71,133.25 69.15,131.35 L68.95,131.15 68.5,132.7 Q68.3,132.7 68.15,131 67.85,128.8 67.25,127.3 66.6,125.75 63.95,123.75 60.8,121.3 56.55,120.15 L50.4,119.7 Q46.8,119.35 44.75,115.55 L44.4,114.95 M110.7,85.15 Q108.15,84.2 106.45,82.8 L104.4,80.55 Q99.6,84.4 93.35,92.1 L83.45,104.6 Q77.6,111.55 69.85,117.2 L63.2,121.3 65.7,123.05 Q68.3,125.1 68.8,127 L69.15,129.25 70,129.8 Q71.65,131.6 71.75,135.85 71.85,140.8 69.25,144.15 L79.95,138.7 Q91.35,132.1 95.75,126.2 L93.45,101.55 94.25,101.45 96.9,113.15 Q97.75,117.6 97.9,126.9 L97.95,129.25 Q99.85,130.4 102.45,131.1 L103.15,121.25 Q103.95,112.95 105.25,107.25 106.45,101.55 108.8,94.45 110.65,88.7 111.5,86.75 112,85.75 111.3,85.55 L110.7,85.15 M114,77.5 L112.2,75.95 Q109.15,77.05 106,79.25 L108,81.35 Q109.55,82.8 111.5,83.4 L112.25,83.75 Q113.25,84.35 113.45,85.4 113.85,86.55 113.25,87.65 112.5,89.3 110.7,94.8 108.35,101.9 107.1,107.7 105.9,113.2 105.1,121.55 L104.5,129.75 104.5,130 104.25,131.6 Q104.15,132.35 103.65,132.75 102.95,133.25 101.95,132.95 100.1,132.45 98.1,131.4 96.75,140.45 97.15,141.55 98.7,144.15 105,148 112.45,152.45 118.95,153.45 128.65,155.1 136.9,153.75 143.9,152.5 149.4,149.4 L146.95,146.2 Q146.3,145.1 146.7,144.35 145.45,143.55 145.45,143.35 L143.7,142.15 141.2,142.8 Q138.9,143.75 136.35,143.7 131.1,143.35 129.75,138 129.6,137 130.25,135.8 129.25,135 128.6,133.35 L128.5,133.15 128.3,133.25 Q126.35,133.7 124.6,132.9 121.95,131.65 122.05,128.25 L123.45,126.45 Q125.45,124.4 125.35,123.6 124.8,121.35 125.05,118.95 125.4,115.9 126.9,114.95 L127.9,107.85 Q129.35,100.1 131.7,92.3 132.75,88.9 136.05,88.8 138.9,88.8 143.4,87.3 149.95,85.05 152.45,81.05 147.5,78.85 143.55,78.5 141.75,81.95 135.85,84.25 129.25,86.9 122.4,85.55 119.2,84.75 117.05,82.9 114.65,80.7 114,77.5 M110.7,21.25 Q110,22.45 109.8,24.1 109.7,25.3 110.45,28 112.5,25.45 114.95,23 113.7,22.3 112.85,20.95 L112.2,20.3 Q111.45,20.15 110.7,21.25 M129.3,17.55 Q128.3,17.8 125.1,20.15 L121.55,22.75 Q119,23.95 116.9,23.65 111.1,29.2 107.8,35.65 102.65,45.8 104.3,57.35 106.1,69.15 114.55,75.95 119.3,79.9 123.6,81.05 L127.05,81.7 127.35,81.85 Q127.35,82.25 124.8,82.35 L121.2,82.1 120.9,82.05 Q121.85,83.1 123.8,83.75 128.25,84.95 133.65,83.3 139.4,81.45 140.9,77.7 137.35,79 135.4,78.25 L134.7,77.85 135.55,77.3 Q143.55,74.7 150.6,67.6 L151.4,67.9 Q155.9,69.1 158.8,65.45 161.75,61.6 158.8,57.75 158.45,56.75 159.3,56.55 L160.3,56.55 160.55,56.15 157.5,48.8 155.5,46.1 Q154.9,45.4 154.95,44.8 155.25,44.25 155.7,44.4 L155.9,44.5 Q157.2,45.4 158.8,48.05 160.55,51.2 161.3,55.8 L161.35,55.8 161.85,54.7 Q160.7,48.8 159,45.8 L155.9,41.15 Q155.5,40.75 155.7,40.45 155.95,40 156.5,40.15 L156.9,40.35 Q157.9,41.05 160.15,45.25 161.9,49.1 162.4,53.25 163.75,48.3 160.7,43.3 159.35,40.95 156.85,38.35 156.25,37.75 156.65,37.3 L157.25,37 Q162.15,35.75 162,32.2 161.75,28.9 159,28 L158.6,27.95 150.85,27.6 Q149.45,27.2 148.65,25.9 146.6,21.55 143.15,20.6 L135.5,20.85 Q134.55,20.6 133.65,19.85 131.95,18.1 130.4,17.65 L129.3,17.55 M140.15,30.5 L137.4,31.5 136.9,29.95 136.7,28.65 Q137.15,28.35 137.45,29.2 138.35,29.95 138.65,29.7 140.8,26.65 143.7,26.25 146.95,25.9 148.5,30.3 148.8,31.6 148.5,32.5 L147.9,32.65 147.75,32 Q147.1,30.2 143.95,29.4 142.9,29.3 140.15,30.5 M123.3,29.2 L122.3,29.55 Q121.55,28.4 120.4,28 L117.65,28.2 117.9,27.95 Q118.25,27.7 119.3,27.2 L122,27 Q123.45,27.35 124.2,28.6 124.3,28.65 123.3,29.2 M128.95,35.95 L129,35.95 Q129.65,36.1 128.95,37.05 127.35,39.6 125.4,41.75 L122.05,45.35 121.55,46.3 121.65,47.15 122.9,50.3 Q123.2,51.35 122.25,51.35 L120.95,51.2 Q120.05,51.05 119.75,50.3 L118.4,46.1 Q118.25,45.75 118.4,45.3 L118.95,44.5 124.6,40.15 127.8,36.45 Q128.5,35.7 128.95,35.95 M140.9,40.1 Q141.15,41.3 140.65,42.8 140.2,44.15 139.4,45 138.45,45.95 137.7,45.7 136.9,45.5 136.65,44.25 136.4,43 136.9,41.55 137.35,40.1 138.15,39.25 139.05,38.4 139.8,38.65 L139.85,38.65 Q140.65,38.95 140.9,40.1 M154.7,48.5 L154.9,48.65 Q156.25,49.55 157,51.1 L157.8,53.25 Q158.05,54.5 157.9,54.85 L157.65,55 Q157.45,54.9 156.85,53.75 L155.9,51.8 154.2,49.85 Q153.65,49.3 153.95,48.8 154.2,48.4 154.7,48.5 M116.05,33.25 Q116.9,32.4 117.65,32.65 118.5,32.95 118.75,34.1 118.95,35.3 118.55,36.75 118.05,38.25 117.25,39.05 116.25,39.95 115.5,39.75 114.7,39.45 114.55,38.25 114.2,37.05 114.7,35.6 115.05,34.1 116.05,33.25 M113.55,54.85 Q116.6,56.2 118.85,56.9 L120.3,57.15 Q123.95,57.7 131.85,57 L132.8,56.6 133.2,55.85 133.05,54.1 Q132.85,53.45 133.3,53.5 L133.65,53.85 137.85,58.9 138.2,59.8 138.15,60.7 135.85,65.1 Q135.65,65.65 135.4,65.5 L135.05,65.1 135.65,62.75 Q135.4,62.15 134.7,61.85 L134.2,61.85 Q131.85,62.8 128.8,63.55 122.7,65.1 119.55,64.3 L119.4,64.3 Q116.25,63.4 112.8,60.3 L110,57.5 109.7,57.35 Q108.95,57.2 108.8,57.95 L108.75,58.5 108.35,58.85 108.1,58.5 106.85,54.45 Q106.45,53.35 107.35,52.75 L110,50.9 110.45,50.75 Q110.7,50.8 110.5,51.35 L110.25,52.1 110.3,52.9 110.9,53.5 113.55,54.85 M120.7,67.65 L119.75,68 118,67.8 116.6,67.15 115.05,65.75 114.9,65.25 115.4,65.1 120,65.85 120.2,65.85 Q121.2,66.2 121.05,67 L120.7,67.65 M153.95,52.75 Q154.55,53.25 154.95,54.1 155.5,55.05 155.3,55.85 155.2,56.8 154.5,56.55 153.95,56.45 154,55.8 154.2,55.05 153,53.7 152.65,53.35 152.95,52.9 153.25,52.5 153.75,52.55 L153.95,52.75 M119,57.9 Q116.55,57.35 113.35,55.8 L110.45,54.45 Q109.25,54.2 109.25,55.05 109.25,56.15 110,56.55 L115.85,60.55 Q116.9,61.2 119,61.8 122.3,62.75 124.45,62.55 126.9,62.4 133.45,60.85 134.1,60.85 134.55,60.45 135.1,59.85 134.55,59.15 L133.35,58.35 132.05,58.25 127.8,58.55 120.55,58.35 119,57.9 M184.7,130.45 Q182.75,117.2 177.35,106.05 171.15,93.05 161.65,86.4 157.9,83.75 154.3,81.95 151.75,87.15 144.15,89.45 140.2,90.65 136.05,90.75 135.05,90.75 134.45,91.25 133.95,91.7 133.6,92.85 131.15,100.75 129.8,108.15 L128.9,114.2 Q130.35,113.95 130.85,114.55 L130.45,115.1 Q131.5,113.9 132.3,113.6 135.2,112.2 138.75,112.3 L140.55,112.5 140.85,112.6 Q143.4,113 145.55,113.95 147.75,114.95 148.55,115.9 152.95,120.95 155.25,126.3 L157.6,126.3 Q154.7,118.15 148.8,112.95 L151,113 153.15,112.6 Q156.85,116.55 159.05,121.7 L160.7,126.2 160.7,126.3 161.5,126.3 Q174.25,128.45 174.1,135.6 174.05,136.35 172.9,137.15 171.7,138 171.4,137.05 170.05,132.75 165.35,130.6 161.55,128.95 156.25,128.8 157.6,133.25 157.15,137.15 156.7,140.7 155.2,142.9 153.45,145.5 150.25,145.25 154.5,151.1 160.3,153.6 165.35,155.75 170.35,155.55 176.25,155.3 179.8,151.6 183.4,147.85 184.7,141.65 185.5,136.5 184.7,130.45 M165.4,22.2 L163.4,17.65 Q161.7,13.55 158.8,12.4 L154.5,9.8 151.95,7.05 Q150.2,4.95 148.65,4.45 L148.3,4.4 Q146.95,4.2 143.15,7.8 L140.65,9.8 139.1,10.05 Q138.5,9.8 137.1,8.9 135.65,8.05 134.75,7.8 L133.5,7.65 Q131.65,7.5 125.4,11.6 122.9,13.25 120.3,12.55 118.4,12.1 117.3,10.5 116.25,9.1 117,7.15 115.3,8.1 114.2,9.75 112.7,11.75 112.6,14.85 112.5,18.1 113.9,20.45 114.55,21.65 116.05,22.1 118.2,22.6 120.75,21.35 L124.2,18.9 Q127.4,16.55 128.6,16.25 L131.25,16.15 Q132,16.4 133.7,17.85 L135,19 135.55,19.3 137.4,19.15 143.95,17.2 144.9,17.3 Q146.8,17.8 148.95,21.85 151.2,26.25 151.45,26.45 L151.75,26.5 159.3,26 160.35,26.25 Q163.2,27 164.25,29.4 165,31.25 164.75,33.35 164.55,34.9 162.4,36.45 160.7,37.65 158.8,38.4 L162,42.9 Q164.25,46.85 164,51.5 165.75,49 167.45,45.4 170.75,38.25 170,33.2 169.6,30.2 168.6,27.45 167.3,23.65 165.4,22.2Z"/></g></svg>