<?xml version="1.0" encoding="utf-8"?><svg id="Charisma" image-rendering="auto" baseProfile="basic" version="1.1" x="0px" y="0px" width="240" height="240" xmlns="http://www.w3.org/2000/svg" xmlns:xlink="http://www.w3.org/1999/xlink"><g id="Scene-1f4r1" overflow="visible"><path fill="#FFF" stroke="none" d="M87.1,220.8 Q84.35,220.05 82.6,219.3 75.05,221.6 73.55,222.25 71.4,223.35 71.4,224.05 71.55,224.3 72.55,224.6 L73,224.75 Q79.95,226.45 87.1,225.9 91.9,225.45 98.25,223.75 L98.45,223.7 98.55,223.8 99.95,225.45 Q103.75,225.45 104.85,224.7 106.1,223.75 106.2,221.75 L95.2,222.25 Q91.7,222 87.1,220.8 M159.55,228 L147.55,227.6 Q147.15,229.75 147.9,230.85 149.05,232.85 152.6,235.15 157,238 160.5,237.5 166.2,236.7 166.45,231.8 166.55,230.5 164.7,226.75 162.05,227.8 159.55,228 M121.05,172.6 L118.85,166.5 119.3,166.2 125.7,177.25 Q132.8,190.2 137.05,200.65 138.5,204.15 142.4,215.4 L145.7,224.45 Q147.15,225.3 152,225.65 155.95,225.9 158.55,225.8 L163.2,225.05 Q165.6,224.45 165.9,223.95 166.3,222.8 165.2,211.2 163.95,198.4 162.25,190.2 160.95,183.75 156.85,170.25 L151.1,151.85 Q144.15,155.85 134.3,156.9 123.6,158 113.55,155.15 101.55,151.7 95.85,146.8 94.35,155.2 89.7,183.85 88.1,193.4 84.75,216.7 86.75,218.65 89.8,219.55 L96.15,220.3 106.45,219.8 106.85,219.55 Q110.5,201.9 113.35,192.8 115.2,187 118.1,179.65 L121.05,172.6 M131.1,122.4 L130.1,120.5 127.4,119.95 Q126,130.75 125.9,135.4 L126.1,135.8 126.65,136.25 127.65,136.35 Q127.65,130.45 131.1,122.4 M72.3,106.95 L73.55,103.9 67.55,110.4 Q63.55,114.65 63,117.65 62,122.9 66.8,128.9 71.75,135.25 78.4,135.45 82.6,135.6 87.7,131.65 92.3,128.1 94.7,123.9 L94.85,116.3 93.65,116.95 93.7,117.45 Q93.7,118.85 92.4,120.55 L92.15,120.6 91,121.7 Q88.8,123.15 85.15,123.5 81.3,123.9 79,122.65 74.65,120.3 72.65,115.8 70.65,111.2 72.3,106.95 M129.65,92.6 Q127.05,94.05 126.35,98.05 126,100.4 127.5,101.9 128.9,103.4 131.6,103.95 L135.3,104.35 Q136.3,104.15 137.7,101.25 139,98.55 139.9,95.3 L141.7,95.75 Q138.85,105.5 135.55,106.1 L131.15,105.75 Q127.95,104.95 126.25,103.15 125.35,102.25 125,101.2 123.75,103.4 122.25,104.35 L121.85,105.45 Q121.65,107.6 123.05,108.85 L124.05,109.6 126.75,110.4 132.6,110.85 133.85,110.8 Q134.7,110.8 134.8,111.6 134.8,112.4 134.05,112.5 L130.1,112.65 Q125.8,112.6 123.3,111.2 L121.25,110.05 120.7,110.85 Q120.1,112.2 121.1,114.55 121.95,116.45 127.35,117.7 131.7,118.8 135,118.8 135.8,118.8 135.85,119.65 L135.65,120.2 135.1,120.55 132.1,120.6 Q133.45,123.2 135.4,123.75 138.35,124.7 142.85,121.15 L144.7,119.2 146.2,116.65 Q147.75,112.95 147.45,107.95 147.1,103.2 145.15,99.1 143.1,94.5 139.4,92.5 136.55,91.05 133.85,91.4 130.8,91.8 129.65,92.6 M132.05,96.5 L133.1,93.65 Q133.35,93.05 133.85,93.05 L137.35,92.85 Q137.75,92.85 138,93.1 L138.2,93.85 Q137.35,99.5 135.5,102.2 L134.05,101.2 Q135.4,99.2 136.3,94.7 L134.55,94.8 Q132.85,99.25 132.85,101.25 L131.1,101.25 Q131.1,99.55 132.05,96.5 M129.25,89.7 Q127.65,89.85 126.3,90.7 124,92.1 123.3,95.05 123.05,96.35 121.7,97.1 L117.4,98.85 Q117.3,99.5 117.9,100.7 L119,102.35 Q119.7,103.1 120.3,103.2 L120.75,103.1 Q121.95,101.05 123.95,99.7 L124.6,99.55 Q124.4,98.55 124.6,97.7 125.6,91.8 129.25,89.7 M113.85,77.5 L112,75.95 Q108.95,77.05 105.85,79.25 109.3,82.9 111.95,84.55 114,85.75 113.15,87.65 112.35,89.3 110.5,94.8 108.2,101.9 106.95,107.7 105.65,113.2 104.9,121.55 L104.15,131.6 103.5,132.75 Q102.8,133.25 101.8,132.95 L96.4,131 96.9,143.75 Q98.45,146.1 104.9,149.55 112.2,153.55 118.85,154.55 128.45,156.15 137.1,154.65 144.45,153.4 149.9,150.1 L148.95,146.65 Q144.05,148.05 138.9,147.85 128.8,147.35 128.1,138.3 L125.95,138.3 Q123.8,137.75 123.75,135.85 123.65,134.05 124.65,126.7 L125.6,119.9 Q121.55,117.9 120.05,115.9 118.1,113.15 118.85,110.65 L120.05,108.75 119.4,107.2 Q118.85,105.5 119.3,104.5 L117.35,103.4 Q115.5,101.85 115.5,99.35 115.5,97.1 117.65,96.75 L120.6,96.05 Q121.1,95.45 122.3,92.6 123.6,89.7 125,89.15 L127.05,88.8 131.75,89.45 135.85,88.8 Q138.7,88.8 143.2,87.3 149.85,85.05 152.25,81.05 147.4,78.85 143.4,78.5 142.8,79.75 140.15,81.7 136.75,84.25 133.2,84.75 126,85.75 121.2,84.6 118.05,83.9 116.9,82.9 114.7,80.95 114.2,79.9 L113.85,77.5 M100.6,81.45 Q96.6,83.4 95.05,84.95 98.35,85.55 100.6,87.05 104.15,89.15 104.75,92.85 105,94.4 104.6,96.55 104.15,99.25 102.95,101.1 L101.2,102.8 Q101.75,103.1 101.6,103.7 L101.45,104.15 Q100.8,107.4 99.5,108.8 98.85,109.6 96.9,109.75 L97.8,111.65 Q98.35,113.45 98.15,113.95 97.9,114.75 96.4,115.45 L96.8,129.6 Q98.75,130.95 101.2,131.6 L102.2,121.85 Q103.2,113.45 104.5,107.85 105.9,102.25 108.5,95.05 110.3,89.65 111.3,87.5 111.9,86.6 111.2,86.15 L110.55,85.95 107.6,83.35 Q105.65,81.35 104.65,79.95 104.5,79.65 100.6,81.45 M86.35,71.15 Q84.35,71.85 83.85,73.2 83.45,74.3 83.8,76.85 L84,78.05 Q84.8,84.95 84.6,86.35 84.3,87.5 80.1,91.8 L77.45,94.65 Q77,95.35 77.45,97.2 L78.55,98.85 Q79.35,100.1 79.35,100.75 L79,101.25 77.2,102.55 Q75.05,104.35 73.85,107.6 72.55,111.1 75,115 77.3,118.65 81.55,120.95 83.6,122.05 86.85,121.55 89.7,121.05 90.75,119.9 L91.75,118.45 82.35,119.95 Q81.8,120 81.55,119.55 L78.4,114.65 Q77.05,113.1 76.7,112.1 76.55,111.45 77.2,111 77.8,110.65 78.25,111.3 L79.75,113.75 Q81.35,115.55 83.8,117.25 L91.1,115.9 Q95.05,114.9 95.45,113.75 96.2,111.85 95.6,110.9 90.75,113.1 87.45,111.6 L85.05,109.65 Q84.6,109.15 85.15,108.6 L86.3,108.5 Q88.5,110.15 93.25,109.4 97.4,108.75 98.25,107.7 99.1,106.7 99.7,104.45 L94.7,104.2 Q91.15,103.95 89.4,100.75 88.1,98.5 88.1,96.35 88.2,95.65 89.05,93.35 89.95,91.15 90.15,91.15 90.55,91.15 90.4,93.75 L90,96.9 Q90.15,98.4 91.55,99.65 93.1,100.85 95.45,101.5 L99.35,101.8 Q100.5,101.55 101.6,100.1 102.55,98.55 102.95,96.4 103.4,94.4 103.15,93.3 102.55,91.05 101.05,89.65 98.85,87.65 94.45,86.55 90.35,85.6 88.2,88.45 L86.95,91.7 Q86.7,92.3 86,92.15 85.35,92 85.35,91.35 L85.95,89.6 Q86.7,87.65 87.85,86.4 90,84.05 91.4,83.75 93.25,77 92.35,74.7 90.15,69.7 86.35,71.15 M97.9,91 L98.15,91.8 97.55,95.3 96.35,99.35 95.2,98.4 Q96,96.65 96.75,92.1 L95.6,91.05 Q94.45,95.55 94.45,97.7 L93.15,97.75 Q93.1,95.75 93.9,92.35 L94.8,89.3 95.2,88.7 95.8,88.9 97.9,91 M129.05,17.55 Q128.15,17.8 125,20.15 L121.55,22.75 Q118.85,23.95 116.85,23.65 110.9,29.2 107.6,35.65 102.55,45.8 104.15,57.35 105.9,69.15 114.35,75.95 119.1,79.9 123.45,81.05 L127,81.7 127.1,81.85 Q127.15,82.25 124.65,82.35 L121.05,82.1 120.75,82.05 Q121.65,83.1 123.65,83.75 128.1,84.95 133.45,83.3 139.25,81.45 140.8,77.7 137.15,79 135.15,78.25 L134.55,77.85 Q134.65,77.5 135.4,77.3 143.4,74.8 150.5,67.6 L151.25,67.9 Q155.7,69.1 158.65,65.45 161.55,61.6 158.65,57.75 158.25,56.75 159.15,56.55 L160,56.55 160.3,56.15 Q158.8,51.05 157.3,48.8 156.7,47.5 155.25,46.1 154.7,45.4 154.9,44.8 155.1,44.25 155.55,44.4 L155.7,44.5 Q157,45.4 158.55,48.05 160.3,51.05 161.15,55.8 L161.25,55.8 161.7,54.7 Q160.55,48.8 158.8,45.8 L155.7,41.15 Q155.3,40.75 155.65,40.45 155.9,40 156.35,40.15 L156.7,40.35 Q157.8,41.05 159.95,45.25 161.75,49.1 162.25,53.25 163.65,48.3 160.6,43.3 159.2,40.95 156.65,38.35 156,37.75 156.5,37.3 156.85,37 157.05,37 162,35.75 161.75,32.2 161.65,28.9 158.8,28 L158.45,27.95 150.65,27.6 Q149.25,27.2 148.55,25.9 146.45,21.55 142.9,20.6 L135.4,20.85 Q134.35,20.6 133.45,19.85 131.75,18.1 130.25,17.65 L129.05,17.55 M138.85,30.85 L136.15,31.85 135.55,30.3 135.4,29 Q135.8,28.65 136.15,29.55 137.05,30.3 137.2,29.95 139.5,27.05 142.35,26.6 145.7,26.2 147.15,30.65 147.5,31.9 147.1,32.75 146.7,33.05 146.55,32.95 L146.3,32.4 Q145.7,30.5 142.6,29.7 141.45,29.7 138.85,30.85 M127.75,35.25 Q128.25,35.45 127.7,36.4 126.15,39 124.25,41.15 L120.9,44.8 Q120.35,45.3 120.45,46.1 L121.85,49.75 121.85,50.4 121.1,50.75 Q120.05,51 119.25,50.3 L119,50.15 119,50.05 118.6,49.75 117.3,45.6 Q117,44.85 117.5,44.15 L117.75,43.9 122.65,40.15 123.9,39 126.6,35.9 Q127.15,34.95 127.75,35.25 M122.8,28.95 Q123,29 122,29.55 L120.9,29.9 Q120.3,28.8 119,28.4 L116.3,28.4 116.55,28.25 Q117.3,27.85 117.9,27.6 L120.7,27.45 Q122.1,27.7 122.8,28.95 M138.55,43 Q137.8,45 136.8,45.75 135.65,46.85 134.65,46.3 133.7,45.75 133.85,44.4 133.8,43.3 134.45,41.15 135.65,39.2 136.35,38.6 137.55,37.4 138.45,38 139.4,38.3 139.2,39.8 139.45,41.3 138.55,43 M151.65,49.1 Q151.1,48.5 151.45,48.05 151.75,47.65 152.15,47.8 L152.25,47.85 Q153.65,49 154.35,50.4 L155.2,52.55 Q155.55,53.75 155.3,54.1 L155.15,54.25 Q154.9,54.2 154.3,53 L153.3,51.05 151.65,49.1 M113.85,33.85 Q113.95,33.05 114.35,33.05 115.35,33.25 117.35,34.4 118.6,34.95 119.3,36.4 L114.15,36.25 111.5,35.7 Q110.7,35.65 111.25,35.25 112.05,34.55 113.45,34.5 L113.85,33.85 M113.8,54.65 Q117,56.35 119.3,56.45 122.45,57.1 131.65,55.4 L132.1,54.85 Q132.75,54.4 132.3,53.85 L131.65,52.15 Q131.5,51.9 131.65,51.8 L131.85,51.55 137.7,55.4 Q138.65,55.6 138.5,56.8 L137.85,61.8 Q137.8,62.6 137.05,61.95 L136.9,59.55 Q136.15,58.55 135.4,59.1 132.95,61.55 130.6,62.8 125.15,65.85 121.3,63.5 118.85,62.15 115.95,61.85 112.6,61.05 111.25,60.25 L108.75,57.7 108.6,58.15 Q108.3,59.25 107.8,58.1 L106.6,54.1 Q106.45,53.25 107.2,52.3 L109.7,50.65 Q110.3,50.05 110.25,50.55 110.5,50.8 110.25,51.05 L110.1,51.55 Q109.7,52.85 110.7,53.15 L113.8,54.65 M116.6,63.55 Q117,63.65 118.25,64.55 119.55,65.1 119.55,65.65 119.35,66.5 119,66.85 L117.9,66.95 Q117.6,66.95 116.9,65.5 116.05,64.5 115.2,64.45 L113,63.95 111.8,63.55 Q111.3,63.15 111.6,63.15 L116.6,63.55 M152.45,53.35 Q152.95,54.5 152.8,55.15 152.6,56.05 151.95,55.8 151.3,55.7 151.45,55.05 L151,53.75 150.5,52.9 Q150.15,52.55 150.5,52.15 150.65,51.75 151.2,51.8 L151.45,52 152.45,53.35 M116.05,58.9 Q118.65,59.15 120.1,60.6 121.35,61.6 123.3,61.8 L126.95,61.55 Q128.95,61.55 134.3,58.55 L135.1,57.7 135.1,57.1 134.75,56.55 132,56.55 Q123.45,58.35 119.55,57.6 116.85,57.15 113.25,55.55 L110.3,54.25 Q109.15,53.7 108.95,54.85 L109.95,56.55 Q110.9,57.9 111.9,58.15 L116.05,58.9 M166.9,116.55 Q168.8,102.15 163.5,93.8 162,93.3 158.45,95.75 154.15,98.8 151.25,104.55 152.65,97.65 157.95,94.3 160.6,92.65 162.7,92.1 161.75,90 159.35,87.3 156.85,84.4 154.15,82.65 151.95,85.55 146.8,87.75 142.1,89.85 138.45,90 143.95,92.1 146.8,98.35 148.6,102.35 149.05,106.95 L149.65,107.4 Q156.5,112 154.7,123.25 154,127.05 152.6,130.55 151.3,133.65 150.85,133.5 149.9,133.45 151.2,129.25 152.8,123.6 152.95,121.5 153.2,115.15 149.85,111.6 149.4,116.9 146.75,120.8 144.35,124.4 140.4,126.55 136.3,128.7 132.3,124.35 130.5,128.95 130.25,133.15 129.75,139.85 133.2,142.9 135.45,145.05 138.1,145.7 L144.05,146.05 Q151.45,145.65 158.8,137.35 164.95,130.25 166.9,116.55 M165.35,22.2 L163.25,17.65 Q161.5,13.55 158.6,12.4 156.85,11.6 154.3,9.8 L151.85,7.05 Q149.9,4.95 148.5,4.45 L148.2,4.4 Q146.8,4.2 143,7.8 L140.45,9.8 138.9,10.05 137,8.9 Q135.65,8.1 134.65,7.8 L133.35,7.65 Q131.4,7.5 125.25,11.6 122.75,13.25 120.05,12.55 118.25,12.1 117.05,10.5 116.15,9.1 116.85,7.15 115.15,8.1 114,9.75 112.5,11.75 112.45,14.85 112.25,18.1 113.8,20.45 114.35,21.65 115.9,22.1 118.05,22.6 120.6,21.35 L124,18.9 Q127.3,16.55 128.45,16.25 L131.1,16.15 Q131.7,16.3 132.35,16.8 L134.8,19 135.4,19.3 137.15,19.15 143.9,17.2 144.8,17.3 Q146.7,17.8 148.75,21.85 151,26.25 151.3,26.45 L151.65,26.5 159.05,26 160.3,26.25 Q163,27 164.05,29.4 164.85,31.25 164.55,33.35 164.35,34.9 162.25,36.45 160.55,37.65 158.6,38.4 L161.75,42.9 Q164.2,46.75 163.75,51.5 165.7,49 167.3,45.4 170.6,38.25 169.8,33.2 169.35,30.2 168.4,27.45 167.05,23.65 165.35,22.2Z"/></g></svg>