<?xml version="1.0" encoding="utf-8"?><svg id="Charisma" image-rendering="auto" baseProfile="basic" version="1.1" x="0px" y="0px" width="240" height="240" xmlns="http://www.w3.org/2000/svg" xmlns:xlink="http://www.w3.org/1999/xlink"><g id="Scene-1f5r1" overflow="visible"><g id="Symbol-4"><path fill="#FFF" stroke="none" d="M87.261,220.945 Q84.489,220.184 82.75,219.478 75.25,221.652 73.728,222.413 71.554,223.5 71.554,224.152 71.663,224.478 72.641,224.75 L73.184,224.913 Q80.087,226.598 87.315,226.054 92.098,225.619 98.403,223.88 L98.62,223.826 98.729,223.989 100.142,225.619 Q103.892,225.619 104.979,224.804 106.284,223.88 106.338,221.924 L95.305,222.413 Q91.826,222.195 87.261,220.945 M131.23,122.517 L130.252,120.615 127.589,120.072 Q126.176,130.833 126.067,135.507 L126.284,135.942 126.828,136.322 127.752,136.485 Q127.752,130.616 131.23,122.517 M139.546,92.571 Q136.72,91.103 134.056,91.484 130.958,91.864 129.763,92.625 127.208,94.092 126.556,98.114 126.176,100.506 127.697,102.027 129.056,103.441 131.719,104.093 L135.469,104.419 Q136.448,104.256 137.861,101.375 139.165,98.712 140.144,95.342 L141.828,95.832 Q139.002,105.615 135.741,106.158 L131.339,105.832 Q128.132,105.071 126.393,103.278 125.523,102.354 125.143,101.321 123.893,103.441 122.371,104.473 L121.991,105.56 Q121.828,107.68 123.186,108.93 L124.273,109.691 126.937,110.452 132.806,110.941 134.056,110.887 Q134.872,110.887 134.98,111.702 134.98,112.517 134.219,112.626 L130.252,112.789 Q126.013,112.68 123.458,111.321 L121.393,110.126 120.849,110.941 Q120.306,112.3 121.284,114.637 122.099,116.485 127.48,117.843 131.882,118.876 135.143,118.876 135.959,118.876 136.067,119.746 L135.85,120.343 135.252,120.67 132.263,120.724 Q133.622,123.333 135.524,123.876 138.513,124.8 143.024,121.213 L144.872,119.311 146.34,116.756 Q147.916,113.006 147.59,108.06 147.263,103.332 145.361,99.201 143.242,94.582 139.546,92.571 M134.002,93.168 L137.48,92.951 Q137.915,92.951 138.187,93.223 L138.404,93.984 Q137.48,99.582 135.687,102.299 L134.219,101.321 Q135.578,99.31 136.448,94.799 L134.709,94.908 Q133.024,99.364 133.024,101.375 L131.23,101.375 Q131.23,99.69 132.209,96.592 L133.241,93.712 Q133.513,93.168 134.002,93.168 M117.588,98.984 Q117.425,99.582 118.077,100.777 L119.219,102.462 Q119.871,103.223 120.469,103.332 L121.012,103.223 Q122.099,101.104 124.11,99.799 L124.708,99.69 Q124.599,98.658 124.763,97.788 125.795,91.864 129.382,89.799 127.752,89.962 126.447,90.777 124.165,92.19 123.512,95.179 123.241,96.375 121.882,97.19 L117.588,98.984 M92.479,74.744 Q90.25,69.852 86.5,71.211 84.544,71.918 84.054,73.276 83.62,74.363 83.946,76.918 L84.163,78.168 Q85.033,85.016 84.707,86.429 84.435,87.679 80.304,91.864 L77.641,94.745 Q77.206,95.397 77.641,97.299 L78.674,98.984 Q79.543,100.18 79.489,100.832 L79.217,101.375 77.315,102.625 Q75.25,104.473 74,107.68 72.695,111.158 75.195,115.126 77.478,118.822 81.663,121.05 83.783,122.191 86.989,121.648 89.87,121.159 90.902,119.963 L91.881,118.55 82.533,120.017 Q81.935,120.126 81.663,119.637 L78.565,114.8 Q77.261,113.169 76.88,112.191 76.717,111.484 77.315,111.104 78.022,110.778 78.402,111.43 L79.924,113.821 Q81.554,115.669 83.946,117.354 L91.229,116.05 Q95.196,114.963 95.631,113.821 96.392,111.919 95.848,111.05 90.902,113.169 87.587,111.756 L85.196,109.8 Q84.707,109.202 85.304,108.713 L86.391,108.604 Q88.674,110.289 93.403,109.528 97.533,108.821 98.403,107.789 99.272,106.81 99.87,104.528 L94.87,104.31 Q91.283,104.093 89.489,100.832 88.294,98.603 88.294,96.375 88.348,95.723 89.218,93.44 90.087,91.266 90.25,91.266 90.794,91.266 90.522,93.821 L90.142,97.027 Q90.25,98.495 91.718,99.745 93.24,100.995 95.631,101.593 L99.49,101.864 Q100.685,101.701 101.772,100.18 102.751,98.712 103.186,96.484 103.566,94.473 103.294,93.331 102.751,91.157 101.175,89.744 99.001,87.733 94.544,86.646 90.468,85.722 88.402,88.549 L87.098,91.755 Q86.826,92.353 86.174,92.244 85.522,92.081 85.522,91.375 L86.12,89.69 Q86.881,87.733 87.968,86.483 90.142,84.201 91.609,83.82 93.403,77.026 92.479,74.744 M98.077,91.049 L98.294,91.918 97.696,95.342 96.446,99.473 95.359,98.495 Q96.174,96.756 96.935,92.136 L95.848,91.103 Q94.598,95.614 94.598,97.788 L93.294,97.843 Q93.24,95.832 94.109,92.462 L94.979,89.364 95.414,88.875 95.957,88.983 98.077,91.049 M104.816,80.07 Q104.653,79.744 100.849,81.592 96.827,83.494 95.196,85.016 98.457,85.614 100.794,87.081 104.327,89.255 104.925,92.951 105.197,94.473 104.762,96.701 104.327,99.364 103.131,101.158 L101.392,102.951 Q101.881,103.223 101.772,103.767 L101.664,104.201 Q100.957,107.462 99.707,108.876 99.001,109.691 97.098,109.854 L97.968,111.81 Q98.512,113.495 98.348,114.093 98.022,114.854 96.555,115.506 L96.99,129.692 Q98.946,131.05 101.338,131.703 L101.446,130.561 101.446,130.398 102.316,121.92 Q103.349,113.495 104.707,107.952 106.066,102.354 108.621,95.179 110.523,89.744 111.501,87.625 112.045,86.701 111.338,86.266 L110.958,86.049 110.74,85.994 107.751,83.44 Q105.794,81.429 104.816,80.07 M114.001,77.516 L112.153,76.102 Q109.164,77.19 106.012,79.363 109.49,83.005 112.099,84.635 114.164,85.886 113.295,87.733 112.534,89.364 110.686,94.853 108.349,102.027 107.099,107.789 105.903,113.332 105.088,121.648 L104.327,131.703 103.675,132.844 Q102.968,133.387 101.99,133.061 L96.609,131.105 97.098,143.877 Q98.62,146.268 105.034,149.747 112.316,153.66 118.947,154.693 128.621,156.269 137.317,154.747 144.655,153.443 150.144,150.236 L149.166,146.703 Q144.22,148.225 139.111,147.953 128.947,147.41 128.241,138.442 L126.121,138.333 Q124.002,137.844 123.893,135.996 123.839,134.148 124.817,126.865 L125.795,119.963 Q121.665,118.061 120.251,115.995 118.295,113.224 119.056,110.723 L120.251,108.821 119.599,107.299 Q119.001,105.615 119.436,104.582 L117.534,103.495 Q115.632,101.919 115.632,99.419 115.632,97.136 117.86,96.81 L120.795,96.158 Q121.284,95.56 122.426,92.625 123.73,89.799 125.143,89.255 L127.208,88.929 129.382,89.092 131.937,89.636 136.067,88.929 Q138.894,88.929 143.405,87.407 150.035,85.179 152.481,81.157 147.535,78.929 143.568,78.603 142.97,79.853 140.307,81.809 136.937,84.309 133.404,84.798 126.176,85.831 121.339,84.69 118.241,83.983 117.099,83.005 114.871,81.048 114.436,79.961 L114.001,77.516 M148.731,25.937 Q146.611,21.589 143.133,20.72 L135.524,20.883 Q134.546,20.666 133.622,19.959 131.937,18.111 130.415,17.676 L129.274,17.622 Q128.35,17.839 125.143,20.231 L121.665,22.785 Q118.947,23.981 116.936,23.763 111.066,29.307 107.805,35.72 102.696,45.938 104.327,57.352 106.066,69.254 114.545,76.102 119.273,79.961 123.621,81.157 L127.154,81.755 127.317,81.918 Q127.371,82.353 124.817,82.461 L121.175,82.244 120.904,82.135 Q121.828,83.222 123.839,83.82 128.241,85.016 133.622,83.331 139.437,81.592 140.959,77.787 137.372,79.037 135.361,78.385 L134.709,77.95 Q134.763,77.624 135.578,77.407 143.568,74.852 150.633,67.678 L151.448,67.95 Q155.905,69.146 158.84,65.45 161.775,61.7 158.84,57.841 158.46,56.808 159.329,56.645 L160.253,56.645 160.525,56.265 Q158.894,51.156 157.536,48.819 156.883,47.569 155.47,46.156 154.927,45.503 155.09,44.906 155.253,44.362 155.742,44.471 L155.905,44.579 Q157.21,45.503 158.731,48.058 160.525,51.156 161.34,55.83 L161.394,55.884 161.884,54.797 Q160.742,48.873 159.003,45.938 L156.992,42.677 155.905,41.264 Q155.525,40.884 155.796,40.503 156.068,40.123 156.557,40.232 L156.938,40.449 Q157.916,41.155 160.144,45.286 161.938,49.199 162.427,53.33 163.84,48.384 160.797,43.329 159.383,40.992 156.829,38.438 156.231,37.84 156.666,37.405 156.992,37.079 157.264,37.079 162.155,35.884 161.992,32.296 161.829,28.927 159.003,28.111 L158.623,28.057 150.851,27.677 Q149.437,27.296 148.731,25.937 M146.503,32.459 Q145.905,30.557 142.861,29.796 141.665,29.742 139.002,30.883 L136.285,31.916 135.741,30.394 135.578,29.09 Q135.959,28.709 136.339,29.633 137.209,30.394 137.426,30.068 139.709,27.133 142.481,26.644 145.905,26.264 147.318,30.72 147.698,31.97 147.263,32.84 146.883,33.166 146.72,33.057 L146.503,32.459 M120.849,24.742 Q123.023,23.927 123.893,25.34 124.599,26.535 124.165,28.275 124.11,28.492 124.654,28.546 L125.143,28.655 124.545,29.035 123.839,29.253 123.404,27.894 122.589,26.155 Q121.393,25.231 120.523,25.611 L120.197,25.72 120.088,25.448 Q120.306,25.014 120.849,24.742 M127.915,35.286 Q128.404,35.557 127.861,36.481 126.339,39.036 124.382,41.264 L121.067,44.851 Q120.523,45.395 120.632,46.21 L121.991,49.797 121.936,50.504 121.284,50.775 Q120.197,51.047 119.382,50.395 L119.164,50.232 119.164,50.178 118.784,49.797 117.425,45.667 Q117.154,44.96 117.697,44.253 L117.914,43.982 122.806,40.232 124.056,39.036 126.719,35.938 Q127.371,35.068 127.915,35.286 M136.556,38.655 Q137.752,37.46 138.622,38.058 139.546,38.384 139.383,39.905 139.654,41.319 138.731,43.112 137.97,45.069 136.991,45.884 135.796,46.917 134.817,46.319 133.893,45.884 134.056,44.471 133.948,43.329 134.654,41.264 135.85,39.253 136.556,38.655 M131.828,51.917 L132.045,51.645 137.861,55.45 Q138.839,55.721 138.676,56.863 L138.024,61.863 Q137.97,62.732 137.209,62.08 L137.1,59.634 Q136.339,58.71 135.524,59.145 133.132,61.645 130.741,62.895 125.36,65.939 121.502,63.602 119.001,62.243 116.121,61.971 112.751,61.102 111.392,60.341 L108.838,57.787 108.784,58.276 Q108.458,59.308 107.968,58.221 L106.773,54.145 Q106.61,53.33 107.425,52.406 L109.871,50.721 Q110.523,50.178 110.36,50.612 110.632,50.884 110.36,51.101 L110.251,51.699 Q109.925,52.949 110.958,53.275 L113.893,54.689 Q117.154,56.373 119.436,56.536 122.643,57.134 131.774,55.504 L132.317,54.906 Q132.915,54.471 132.426,53.928 L131.774,52.243 Q131.665,52.025 131.828,51.917 M154.546,50.504 L155.362,52.623 Q155.742,53.819 155.525,54.199 L155.307,54.363 Q155.036,54.254 154.492,53.058 L153.514,51.156 151.829,49.199 Q151.285,48.601 151.611,48.167 151.883,47.732 152.318,47.895 L152.481,47.949 Q153.84,49.036 154.546,50.504 M151.34,51.917 L151.611,52.08 152.59,53.439 Q153.079,54.58 152.97,55.232 152.807,56.102 152.101,55.884 151.503,55.776 151.666,55.178 L151.231,53.819 150.688,53.004 Q150.307,52.623 150.633,52.243 150.905,51.808 151.34,51.917 M112.588,37.514 Q112.479,36.373 113.186,34.307 114.382,32.296 115.088,31.699 116.284,30.503 117.154,31.101 118.077,31.427 117.914,32.949 118.186,34.362 117.262,36.155 116.501,38.112 115.523,38.927 114.327,39.96 113.349,39.362 112.425,38.927 112.588,37.514 M111.882,63.656 Q111.501,63.276 111.773,63.167 L116.773,63.656 Q117.154,63.711 118.458,64.635 119.654,65.178 119.654,65.722 119.545,66.591 119.219,66.917 L118.077,67.026 Q117.751,67.026 117.045,65.613 116.175,64.58 115.36,64.472 L113.132,64.091 111.882,63.656 M120.306,60.721 Q121.556,61.7 123.458,61.863 L127.1,61.591 Q129.111,61.591 134.437,58.71 L135.306,57.787 135.306,57.134 134.926,56.645 132.154,56.7 Q123.676,58.384 119.654,57.732 116.991,57.243 113.458,55.613 L110.523,54.363 Q109.273,53.765 109.11,54.906 L110.088,56.591 Q111.066,58.004 112.045,58.276 L116.23,59.037 Q118.838,59.254 120.306,60.721 M67.641,110.452 Q63.727,114.8 63.184,117.789 62.206,123.007 66.934,128.985 71.934,135.344 78.565,135.561 82.75,135.67 87.859,131.757 92.424,128.224 94.87,123.985 L95.033,116.43 93.729,117.028 93.892,117.517 Q93.892,118.93 92.533,120.67 L92.37,120.724 91.174,121.865 Q88.946,123.224 85.359,123.55 81.5,123.985 79.217,122.735 74.815,120.398 72.804,115.887 70.793,111.321 72.423,107.082 L73.728,104.038 67.641,110.452 M166.666,231.924 Q166.775,230.728 164.873,226.869 162.264,227.956 159.655,228.119 L147.753,227.685 Q147.318,229.913 148.079,231.054 149.22,233.065 152.807,235.348 157.155,238.12 160.634,237.631 166.395,236.815 166.666,231.924 M163.351,225.185 Q165.797,224.587 166.069,224.043 166.449,223.011 165.362,211.38 164.112,198.499 162.427,190.346 161.123,183.933 157.046,170.4 L151.285,152.029 Q144.329,155.943 134.437,156.975 123.784,158.117 113.729,155.29 101.718,151.812 96.011,146.921 94.49,155.345 89.87,183.987 88.294,193.553 84.924,216.815 86.935,218.771 90.033,219.641 L96.283,220.456 106.555,219.967 106.99,219.641 Q110.686,202.031 113.512,192.901 115.36,187.085 118.295,179.748 L121.23,172.737 119.001,166.541 119.491,166.269 125.85,177.357 Q132.969,190.346 137.209,200.836 138.676,204.314 142.535,215.565 L145.85,224.587 Q147.318,225.456 152.209,225.782 156.123,226.054 158.677,225.891 L163.351,225.185 M167.047,116.648 Q169.003,102.19 163.731,93.929 162.155,93.331 158.623,95.832 154.329,98.929 151.394,104.636 152.861,97.734 158.188,94.418 160.797,92.734 162.971,92.136 161.992,90.07 159.547,87.353 156.992,84.472 154.329,82.733 152.101,85.614 146.992,87.896 142.263,89.962 138.567,90.07 144.166,92.136 146.992,98.44 148.785,102.408 149.22,107.082 L149.818,107.462 Q156.72,112.137 154.872,123.387 154.22,127.191 152.807,130.67 151.503,133.714 151.014,133.659 150.09,133.55 151.34,129.366 152.97,123.713 153.079,121.539 153.351,115.289 150.035,111.756 149.546,116.974 146.937,120.887 144.492,124.528 140.524,126.648 136.448,128.876 132.426,124.474 130.687,129.039 130.415,133.279 129.926,139.909 133.404,143.062 135.633,145.127 138.241,145.779 L144.22,146.105 Q151.611,145.725 158.894,137.464 165.145,130.398 167.047,116.648 M167.482,45.503 Q170.797,38.329 170.036,33.22 169.547,30.231 168.623,27.514 167.264,23.709 165.471,22.296 L163.405,17.676 Q161.721,13.6 158.786,12.404 156.992,11.643 154.492,9.904 L153.133,8.545 152.046,7.078 Q150.09,4.958 148.677,4.524 L148.35,4.469 Q146.992,4.306 143.187,7.839 L140.633,9.85 139.111,10.067 137.154,8.98 Q135.796,8.111 134.763,7.839 L133.513,7.621 Q131.611,7.567 125.415,11.698 122.915,13.328 120.251,12.622 118.404,12.133 117.262,10.556 116.284,9.143 116.991,7.241 115.306,8.111 114.164,9.796 112.697,11.806 112.588,14.904 112.479,18.111 113.893,20.502 114.545,21.698 116.067,22.133 118.186,22.676 120.795,21.426 L124.165,18.981 Q127.426,16.589 128.621,16.317 L131.23,16.209 Q131.882,16.372 132.48,16.861 L134.98,19.089 135.578,19.361 137.372,19.252 144.057,17.296 144.981,17.35 Q146.829,17.839 148.948,21.97 151.177,26.318 151.503,26.481 L151.829,26.59 159.275,26.1 160.471,26.318 Q163.242,27.079 164.275,29.525 165.036,31.318 164.764,33.438 164.547,34.96 162.427,36.536 160.742,37.731 158.786,38.492 L161.992,42.949 Q164.329,46.808 164.003,51.591 165.851,49.036 167.482,45.503Z" stroke-width="1.087"/></g></g></svg>