<?xml version="1.0" encoding="UTF-8" standalone="no"?>
<svg xmlns:xlink="http://www.w3.org/1999/xlink" height="19.0px" width="15.0px" xmlns="http://www.w3.org/2000/svg">
  <g transform="matrix(1.0, 0.0, 0.0, 1.0, 0.5, 1.5)">
    <path d="M0.0 -1.0 L14.0 -1.0 14.0 17.0 0.0 17.0 0.0 -1.0" fill="#ff0000" fill-opacity="0.0" fill-rule="evenodd" stroke="none"/>
    <path d="M0.0 -1.0 L0.0 17.0 14.0 17.0 14.0 -1.0 0.0 -1.0 Z" fill="none" stroke="#ffffff" stroke-linecap="round" stroke-linejoin="round" stroke-opacity="0.0" stroke-width="1.0"/>
    <path d="M12.1 7.5 L7.25 3.2 2.4 7.5 0.5 7.5 7.25 1.5 14.0 7.5 12.1 7.5 M0.5 13.05 L7.25 7.05 14.0 13.05 12.1 13.05 7.25 8.75 2.4 13.05 0.5 13.05" fill="#ffffff" fill-rule="evenodd" stroke="none"/>
    <path d="M0.85 16.7 L0.85 1.5 13.7 1.5 13.7 16.7 0.85 16.7" fill="#ffffff" fill-opacity="0.0" fill-rule="evenodd" stroke="none"/>
  </g>
</svg>
