<?xml version="1.0" encoding="utf-8"?>
<!-- Generator: Adobe Illustrator 25.4.1, SVG Export Plug-In . SVG Version: 6.00 Build 0)  -->
<svg version="1.1" id="FortuneFinder_x2C_PerkClip_x5F_4c942" image-rendering="auto"
	 xmlns="http://www.w3.org/2000/svg" xmlns:xlink="http://www.w3.org/1999/xlink" x="0px" y="0px" viewBox="0 0 240 240"
	 style="enable-background:new 0 0 240 240;" xml:space="preserve">
<style type="text/css">
	.st0{fill:#FFFFFF;}
</style>
<g>
	<rect width="240" height="240"/>
	<path class="st0" d="M49.2,208.5c0.5-0.9,1.2-1.8,2.2-2.6l-8.9-1.1c-3.1,1.9-5.2,4-6.4,6.2c-1.3,2.4-1.4,4.6-0.2,6.7
		c1.3,2.3,3.8,4.1,7.6,5.4c3.8,1.4,8.3,2.2,13.5,2.3l3.4-7c-2.8-0.2-5.2-0.7-7.2-1.6s-3.4-2-4.1-3.4
		C48.2,211.9,48.2,210.2,49.2,208.5 M86,206.8c0.1,1-0.1,2-0.7,3.1c-1.3,2.4-4.1,4.4-8.3,6.1c-4.2,1.7-8.6,2.6-13.4,2.6l-3.8,6.9
		c8.1-0.1,15.8-1.6,23-4.3c7.2-2.8,11.9-6.1,14.1-10c1-1.9,1.3-3.7,0.8-5.4L86,206.8 M83.1,201.2c-0.3,0.3-0.7,0.5-1.2,0.5h-0.2
		c1.6,0.8,2.8,1.8,3.5,2.9l11.4-0.9c-2-2.8-5.9-4.9-11.8-6.1l-1.3,2.1v0.4C83.6,200.6,83.4,200.9,83.1,201.2 M127,184.9
		c2.2,2.8,4.1,5.6,5.8,8.5l2.5,4.8c1,2.2,1.4,4,1.3,5.5c1.6-1,3.3-2.3,4.9-4.1c-1.7-3.4-3.6-6.3-5.8-8.8
		C132.9,187.8,130,185.8,127,184.9 M111.7,184.6c1,2.9,3.1,6.2,6.3,9.9c1.9,2.2,3.6,4,5.2,5.4l9.6-4.4c0.2-0.1,0.4,0.2,0.6,0.8
		c0.2,0.6,0.2,1-0.1,1.1l-8.5,3.9l2.3,1.6c1.5,0.9,2.7,1.5,3.8,1.8c1.5,0.4,2.8,0.3,4.1-0.3l0.1-0.2c1-1.5,0.8-3.6-0.6-6.4l-3.8-6
		c-1.9-2.8-3.6-5.3-5.3-7.3c-1.3-1.1-2.7-2-4.1-2.7c-1.7-0.8-3.2-1.2-4.7-1.2c-1.6,0-2.9,0.2-3.8,0.8
		C111.5,182,111.2,183.1,111.7,184.6 M100.9,168.7l-2,3.2c1.5-0.6,2.3-1.3,2.3-2.3C101.2,169.2,101.2,169,100.9,168.7 M95.6,166.7
		l-1.4,0.1l-4.3,6.8l4.3,2.7l5.5-8.6C98.6,167,97.2,166.7,95.6,166.7 M89.8,169.6l0.2,0.8l1.9-3C90.5,167.9,89.8,168.7,89.8,169.6
		 M95.7,159.6c0,0.4,0.2,0.7,0.5,1.1l2.2-3.6C96.6,157.8,95.7,158.6,95.7,159.6 M102.5,149.1c0,0.4,0.1,0.7,0.4,1l2.1-3.4
		C103.3,147.3,102.5,148.1,102.5,149.1 M105.9,157.9c-1.1-0.7-2.6-1.1-4.5-1.1l-0.9,0.1l-5.6,8.8h0.6c1.8,0,3.4,0.3,4.8,1
		L105.9,157.9 M107.2,159.6l-0.1-0.5l-1.6,2.6C106.6,161.1,107.2,160.4,107.2,159.6 M113.8,149.1l-0.1-0.5l-1.6,2.5
		C113.3,150.6,113.8,149.9,113.8,149.1 M108.2,146.2l-0.9,0.1l-6,9.3h0.2c2,0,3.7,0.4,5.1,1.2l6.1-9.5l-0.5-0.2
		C111,146.5,109.7,146.2,108.2,146.2 M101.2,137.6c-1.2,1-1.7,2.3-1.4,4l6.9,2.4l2.3-3.6L101.2,137.6 M83.2,131.2l-0.9,0.2
		c-0.2,0.2-0.3,0.6-0.2,1.3c0.1,1.1,0.6,2.1,1.5,2.8c0.4,0.4,0.9,0.7,1.4,0.8l1.2,0.4c0.5-1.6,1-2.9,1.6-3.9L83.2,131.2 M94.7,135.1
		l0.6-0.1c0.5,0.1,0.7,0.4,0.7,0.9c-0.1,0.9-0.5,2.4-1.1,4.3c-0.3,1.7,0.3,3.2,1.7,4.4c1,0.9,1.9,1.1,2.7,0.6c0.7-0.5,0.6-1-0.2-1.8
		c-1-0.9-1.5-2-1.5-3.3c0.1-1.7,1.4-3.3,3.8-4.7l0.1-0.1c1.7-0.7,3.2-0.7,4.6-0.1c1.1,0.5,1.9,1.3,2.5,2.3h2.3l1.7-2.8
		c0.1-6-3.5-9.4-10.9-10.1c-2.9-0.3-5.9,1.1-8.9,4.1c-2.8,2.8-4.7,5.9-5.4,9.2c-0.5,2.2-0.1,3.9,1.3,5.1c0.5,0.4,0.8,0.6,1.1,0.4
		c0.3-0.1,0.3-0.6,0-1.3c-0.6-1.6-0.6-3.3,0-5.2l1.2-2.4l0.5-0.4l0.6,0c0.4,0.2,0.6,0.6,0.4,1.1c-0.8,1.7-1.2,3-1.4,3.9
		c-0.4,1.8-0.2,3.3,0.5,4.5c0.7,1.1,1.6,1.8,2.9,2c1.3,0.2,1.3-0.2,0-1.4c-1.3-1-1.8-2.6-1.4-4.7l1.3-4.2L94.7,135.1 M134.3,135.9
		c0-0.2,0.1-0.3,0.4-0.5c-2.2-1.2-2.9-2.9-2.2-5.2l0.2-0.2c-1.8-0.8-2.7-1.8-2.6-2.8c0-0.7,0.3-1.4,0.7-2.2h-2.3l-7.3,11.7
		c1.9,6.9,5.6,12.9,11.1,18.1c0.5-5,0.8-9.6,0.9-13.8c0-0.5,0.2-0.4,0.4,0.1c0.3,0.5,0.4,0.9,0.4,1.1c-0.2,5.8-0.6,11.9-1.4,18.2
		c-0.8,5.9-1.6,10.6-2.5,14.1c-1.1,3.9-2.2,6.7-3.2,8.4c3.2,1,6.2,3.1,9.1,6.4c2.3,2.6,4.3,5.8,6.1,9.5l1.2-1.4
		c5.9-7.3,10.9-16.6,14.8-27.8c1.1-3.1,2-6,2.7-8.8l0-0.2c2.2-8.4,3.1-16,2.5-22.9l-11,0.6c-2.6,1.8-6,2.5-10.2,2.1
		C137.4,140.3,134.9,138.7,134.3,135.9 M136.9,122.2l-0.2,1.1h1.6L136.9,122.2 M136.1,117.8c-0.2,0.4-0.2,1,0.2,1.8
		c0.3,0.7,0.8,1.3,1.4,1.8c0.5,0.4,1.1,0.6,1.6,0.6l0.4-0.2c0.2-0.4,0.2-1-0.2-1.8l-0.4-0.7l-1.2-1.2c-0.5-0.4-0.9-0.5-1.4-0.5
		C136.3,117.6,136.2,117.7,136.1,117.8 M128,114.1l-0.8,0.6l-19.3,30.5l0.2-0.1c1.6,0,3.2,0.3,4.6,0.9l0.5,0.2l18.6-29.5l-0.2-0.9
		c-0.3-0.7-0.8-1.2-1.5-1.6L128,114.1 M134.4,109.5c-0.3,0.4-0.2,1,0.2,1.8c0.3,0.7,0.8,1.3,1.4,1.8c0.6,0.4,1.1,0.6,1.6,0.6
		c0.2,0,0.4-0.1,0.4-0.2c0.3-0.4,0.2-1-0.2-1.8c-0.3-0.7-0.8-1.3-1.4-1.8c-0.6-0.4-1.1-0.6-1.5-0.6
		C134.7,109.2,134.5,109.3,134.4,109.5 M143.2,119.9l0.3,0.2c0.5,1.9-0.5,3.4-2.9,4.4c-1.6,0.7-3.6,1.1-5.9,1.2l-0.3-0.1
		c-0.2-0.1-0.2-0.1-0.1-0.2c0.5-1,0.6-1.7,0.3-1.9c-0.2-0.2-0.6-0.2-1.2,0.2c-1.7,1.1-2.2,2.3-1.6,3.7c0.5,1,1.8,1.9,4,2.5l4.7,1.1
		c0.4,0.1,0.4,0.3,0,0.5c-0.4,0.2-0.7,0.3-1,0.3l-5.5-0.9c-0.2,1.3,0.1,2.4,1.1,3.3c0.8,0.7,2,1.3,3.6,1.7l3.2,0.4
		c0.4,0.1,0.4,0.2,0,0.5L141,137l-4.8-0.6c1,2.2,3.5,3.3,7.6,3.4c3.9,0.1,6.6-0.6,7.9-2.2c1.9-2.6,2.6-5.6,2.2-9.1
		c-0.3-3.2-1.6-6.1-3.8-8.8c-1-0.1-1.9-0.4-2.8-0.9c-0.6-0.4-1.3-1.1-2.2-2.1c-2-2.2-3.9-2.5-5.9-0.8l-0.6,0.5
		C139.7,118.3,141.2,119.4,143.2,119.9 M143.4,109.8c-0.2-0.7-0.7-1.3-1.4-1.8c-0.7-0.5-1.4-0.8-2.1-0.8l-26.1,0.6
		c-0.6,0-1,0.2-1.2,0.6s-0.2,0.8,0,1.4l4.8,10.9c0.5,1.1,1.4,1.8,2.7,2.3l6.3-10l1-0.9l3.8,0.1c1.6,0.6,2.4,1.6,2.4,3.1
		c0,0.8-0.1,1.4-0.4,2l-3.6,5.9h2.4c1-1.2,2.1-1.9,3.3-2.1l0.9,0l-0.5-0.9c-0.6-1.3-0.6-2.4-0.1-3.3c0.4-0.7,0.9-1,1.8-1.1l0.6,0
		l0.9-0.6l-0.2,0c-0.8,0.1-1.7-0.2-2.6-0.8c-0.9-0.7-1.6-1.5-2.1-2.5c-0.6-1.3-0.6-2.5-0.1-3.4c0.4-0.6,1-1,1.8-1.1
		c0.8,0,1.7,0.3,2.6,0.9c0.9,0.7,1.6,1.5,2.1,2.5c0.6,1.3,0.6,2.4,0.1,3.4l-0.2,0.4c1.1-0.5,2.2-0.6,3.2-0.4
		c0.8,0.1,1.5,0.4,2.1,0.8L143.4,109.8 M75.8,197.9l-2.1-1.3c-5.2,0.1-10.3,0.7-15.3,1.8c-5.1,1.2-9.5,2.8-13.4,4.9l8.8,0.9
		c2.4-1.4,5.2-2.5,8.4-3.2c3.2-0.8,6.5-1.2,9.8-1.1l3.8,0.3V197.9 M73.9,194.7l3.6,2.2v3.2h4.4v-0.9l0.1-0.2l12.8-20.3l-7.8-4.9
		L73.9,194.7 M80.8,193.5c-0.5,0-0.9-0.2-1.2-0.5c-0.3-0.3-0.5-0.8-0.5-1.2c0-0.5,0.2-0.8,0.5-1.1c0.3-0.3,0.7-0.5,1.2-0.5
		c0.5,0,0.8,0.2,1.1,0.5c0.3,0.3,0.5,0.7,0.5,1.1c0,0.5-0.2,0.9-0.5,1.2C81.7,193.3,81.3,193.5,80.8,193.5 M85.9,181.5
		c0-0.5,0.2-0.9,0.5-1.2c0.3-0.3,0.7-0.5,1.2-0.5c0.5,0,0.9,0.2,1.2,0.5c0.3,0.3,0.5,0.7,0.5,1.2c0,0.5-0.2,0.9-0.5,1.2
		c-0.3,0.3-0.7,0.5-1.2,0.5c-0.4,0-0.8-0.2-1.2-0.5C86.1,182.4,85.9,182,85.9,181.5 M143.2,98.4l-23.3,0.1c-0.8,0-1.6,0.3-2.5,0.7
		c-0.9,0.5-1.6,1.1-2.1,1.7l-2.1,5.3l26.6-0.6c1.1,0,2.2,0.3,3.2,1c1,0.7,1.7,1.6,2,2.7l3,8.2c0.6,0.5,1.2,0.8,1.7,1.1l0.1-0.1
		c0.7-0.6,1.4-1.1,2.1-1.6l-0.1,0c0.1-0.8,0-1.5-0.2-2.2l-5.1-13.9c-0.2-0.7-0.6-1.3-1.2-1.8C144.6,98.6,143.9,98.3,143.2,98.4
		 M138,100.9c0,0.2,0,0.3-0.2,0.5l-0.9,1.2c-0.4,0.5-0.9,0.8-1.4,0.8l-14.6-0.1c-0.3,0-0.4-0.1-0.4-0.2c-0.1-0.1,0-0.3,0.1-0.5
		l0.9-1.2c0.4-0.5,0.9-0.8,1.4-0.8l14.6,0.1L138,100.9 M133.8,83.1c-1.3-0.4-3.8-1.7-7.4-4.1l-0.6,0.2c-2,5-2.9,10.7-2.8,17
		c0,0.3-0.1,0.5-0.3,0.7l20.5-0.2c0.9,0,1.8,0.2,2.7,0.8c0.9,0.6,1.5,1.3,1.9,2.2l1.9,5.2c-0.1-5.5,0.8-10.4,2.7-14.6
		c2.1-4.8,5.4-8.4,9.9-10.6c-2.2-1.3-4.5-2.4-6.8-3.2l-0.2,1.6c-1.4,4.3-4.8,7.2-10.1,8.6C139.7,88.2,135.9,87,133.8,83.1
		 M110.3,86.9c-4,2.7-7.2,5.6-9.8,8.9c-3.6,4.6-6.3,9.7-8.1,15.5c-1.9,6-2.5,11.8-1.7,17.4c2.9-3.1,6-4.9,9.4-5.2
		c2.3-0.2,4.3,0,5.9,0.5c1.5,0.5,3.1,1.4,4.8,2.7l0.3,0.2c0.3-3.5,1.4-6.4,3.2-8.6v0l-3.4-7.9c-0.4-0.9-0.4-1.8-0.1-2.6l2.8-7.8
		l0.1-0.1c0.6-0.8,1.5-1.6,2.6-2.1c1.2-0.6,2.2-0.9,3.2-0.9c-0.1-6.1,0.7-11.6,2.5-16.4C117.9,82.3,114,84.4,110.3,86.9 M118,45.1
		c0.2,0.7,0.6,1.6,1.4,2.8l2.2-4.8c-0.7-0.2-1.4-0.5-2-1.1c-0.6-0.5-1.1-0.4-1.4,0.3C117.9,43.1,117.8,44,118,45.1 M157.1,44
		l1.4,0.9l0.8-3.2L157.1,44 M134.4,36.4c-0.5-0.3-1-0.5-1.5-0.6c-1-0.3-1.7-0.3-2.2,0c-0.4,0.3-1.2,1.2-2.4,2.9l-1.9,2.7
		c-1.1,1-2.1,1.6-3.2,1.8c-2,3.6-3.3,7.3-3.8,10.9c-0.9,5.8,0,11.3,2.6,16.5c2.7,5.5,6.7,9.3,11.9,11.3c3,1.2,5.7,1.7,8.1,1.5
		l2.6-0.3c0.1,0.2-0.6,0.6-1.9,1.1l-2.7,0.6c1.8,1.1,4.4,0.7,7.9-1.1c3.6-2,5.5-4.2,5.7-6.8c-1.4,1-2.6,1.6-3.8,1.8
		c-1.2,0.2-1.3-0.1-0.3-0.8c2.1-1.6,4.1-3.6,5.9-6l-1-1.4c-0.7-1.3-1.1-3-1.3-5.1c-0.2-2.1-0.2-4.4,0.1-6.9c0.3-2.2,0.8-4.3,1.5-6.2
		c0.7-1.8,1.5-3.3,2.4-4.5l-1.3-1c-0.3-0.2-0.4-0.4-0.2-0.6c0.1-0.3,0.4-0.4,0.8-0.2c0.4,0.1,0.9,0.4,1.6,1l0.3-0.3l0.1-0.7
		c-1.1-0.7-1.9-1.2-2.6-1.5c-0.4-0.2-0.5-0.4-0.3-0.8c0.1-0.2,0.3-0.4,0.4-0.3c2.2-1.4,3-3,2.2-4.8c-0.7-1.7-1.9-2.4-3.4-2.1
		c-1.7,0.3-2.9,0.7-3.6,0.9l-4.1-0.1c-1.2-1.2-2.5-2-3.9-2.4c-1.3-0.3-2.5-0.1-3.5,0.5c-1,0.6-1.9,1-2.5,1.1L134.4,36.4 M127,42.8
		l0.7-0.1l0.4,0.5l0.2,0.9c0,0.3,0,0.5-0.1,0.8c-0.2,0.2-0.4,0.3-0.7,0.3l-3.3,0.3l-0.5-0.1c0-0.1,0.1-0.2,0.3-0.4L127,42.8
		 M143.6,41.1l0.6,0.1l1.9,1.7c1.3,1.2,1.8,2.2,1.6,2.9l-5.5-2.3c-0.1-0.2,0-0.5,0.4-1.1l0.5-0.9C143.2,41.3,143.4,41.2,143.6,41.1
		 M143.4,48.6c0.4,0,0.8,0.3,1.1,0.8c0.3,0.6,0.5,1.2,0.5,2c0,0.8-0.2,1.5-0.4,2c-0.3,0.6-0.6,0.9-1.1,0.9c-0.4,0-0.8-0.3-1.1-0.9
		c-0.3-0.5-0.5-1.1-0.5-1.9c0-0.8,0.2-1.4,0.5-2C142.6,49,143,48.7,143.4,48.6 M142.1,61.5c-0.1-0.2-0.1-0.3-0.1-0.4l0.4,0.1
		l4.2,2.8c0.5,0.2,0.7,0.6,0.6,1.2l-0.6,3.8l-0.2,0.4l-0.4-0.2l-0.1-1.9c-0.3-0.4-0.8-0.5-1.2-0.3l-3.6,2.6
		c-2.7,1.8-4.9,2.7-6.6,2.8c-1.7,0.1-3.7-0.4-5.8-1.3l-2.7-1.4l-0.5,0.1c-0.2,0.1-0.2,0.3-0.2,0.6l0.1,0.4c0,0.5-0.2,0.6-0.5,0.2
		l-1.9-2.8c-0.1-0.2-0.2-0.4-0.2-0.6c0-0.2,0.1-0.4,0.2-0.7l1.4-1.9c0.2-0.2,0.3-0.2,0.3-0.2c0.1,0,0.2,0.2,0.2,0.4v0.6
		c0,0.2,0.1,0.4,0.2,0.7c0.2,0.2,0.3,0.2,0.6,0.2l2.8,0.3c2.1,0.2,3.7,0.3,4.9,0.1c1.9-0.3,4.7-1.3,8.4-2.9l0.6-0.5
		c0.2-0.2,0.2-0.4,0.1-0.6L142.1,61.5 M131.9,58.5l0.2,0.7l1.6,2c0.3,0.4,0.2,0.7-0.3,0.9l-0.6,0.2c-0.5,0.1-1,0-1.4-0.4l-2-2.7
		c-0.3-0.4-0.3-0.9,0-1.3l3.1-4.5l1.5-3.4c0.2-0.5,0.4-0.8,0.8-0.8c0.3,0.1,0.3,0.4,0.2,0.9l-3.1,7.7
		C131.9,58,131.9,58.2,131.9,58.5 M127.4,52.4c0,0.8-0.1,1.4-0.4,2c-0.3,0.6-0.7,0.8-1.1,0.8c-0.4,0-0.8-0.3-1.1-0.8
		c-0.3-0.6-0.5-1.2-0.5-2c0-0.8,0.2-1.5,0.4-2c0.3-0.6,0.7-0.8,1.1-0.8c0.4,0,0.8,0.2,1.1,0.8S127.4,51.6,127.4,52.4 M131.9,73.8
		l3.5-0.6l0.7,0.1l0.4,0.5l-0.1,0.6c-0.1,0.2-0.3,0.3-0.6,0.4l-2.5,0.1l-1.5-0.6l-0.3-0.3C131.5,73.9,131.6,73.8,131.9,73.8
		 M144.4,64.9l-2-0.1c-3.4,1.6-6.2,2.5-8.4,2.8c-1.4,0.2-3.2,0.2-5.4-0.1l-2.8-0.3l-0.6,0.1c-0.2,0.1-0.3,0.3-0.2,0.6
		c0.2,0.5,0.5,0.8,0.8,0.9l5.2,1.6l3.4,0.1c1.4-0.1,2.5-0.4,3.4-0.7c1.1-0.4,3.2-1.5,6.1-3.3l0.7-0.6
		C144.9,65.5,144.8,65.2,144.4,64.9 M145.9,23.5l-1.2-0.8c-1.3-0.8-2.4-1.2-3.2-1c-0.7,0.1-1.7,1.3-3,3.7l-1.4,2.1
		c-0.5,0.5-1.3,0.6-2.4,0.2l-3.4-0.2c-0.9,0.3-2.6,1.9-4.9,4.9c-0.8,1-1.8,1.6-2.9,1.8c-1.2,0.2-2.3-0.1-3.2-0.8
		c-0.7-0.5-1-1.3-1-2.3c-0.6,0.6-1.1,1.5-1.4,2.5c-0.4,1.2-0.3,2.6,0,4.1c0.4,1.6,1.2,2.9,2.3,3.8c0.7,0.6,1.6,0.8,2.6,0.6
		c0.9-0.2,1.8-0.7,2.7-1.5l1.8-2.7c1.2-1.6,2.1-2.6,2.6-2.9c0.9-0.5,1.6-0.8,2.2-0.7c0.3,0,0.9,0.2,1.9,0.6l1.2,0.5
		c0.4,0.2,0.9,0.1,1.5-0.2l4.7-3.1c1-0.5,2.4,0.1,4.3,1.9l3.3,3c0.4,0.1,1.3-0.2,2.5-0.8c1.5-0.8,2.5-1.2,3.1-1.3
		c1.5-0.3,2.8,0,3.8,0.8c0.7,0.6,1.3,1.4,1.7,2.4c0.3-1.2,0.9-2.1,1.7-2.6L162,34c-1.4-1.8-2.6-2.9-3.8-3.4l-2.6-2.9
		c-1.4-1.7-2.9-2.6-4.6-2.8l-3.8-0.8C146.8,24.1,146.4,23.8,145.9,23.5 M170.5,192.1c2.1-3.4,3.3-6.4,3.8-9.1c0.1-1-0.2-2.3-1-3.9
		v0.1c-1,3.7-3,6.6-6,8.6c-3.3,2.2-6.7,2.4-10.1,0.6l-1.9,2.8c1.7,0,3.5,0.5,5.5,1.5c0.2,0.1,0.4,0.5,0.4,1.1c0.1,0.6,0,0.9-0.1,0.8
		c-2.7-1.3-5-1.8-7-1.3h-0.1c-2.5,4.6-2.3,7.3,0.7,8c2,0.5,4.4-0.1,7.4-1.6C165.5,198,168.3,195.4,170.5,192.1 M172,176.9
		c-1.7-3.1-3.3-5.6-4.7-7.5c-2-2.7-4-4.9-6.1-6.5l-0.8,2.6c-1.9,6.5-4.2,12.4-6.8,17.8l3,3.4c3.3,1.8,6.6,1.6,9.8-0.5
		c3-1.9,4.9-4.7,5.9-8.3L172,176.9 M164.2,80.9l-0.5,0.2c-5.4,2.7-8.8,7.8-10.1,15.1c-1.1,6-0.9,12.3,0.8,19.1
		c2.1-1,4.2-1.7,6.6-2.2c-1.7-3.2-3.2-7.1-4.5-11.6c-0.1-0.4,0.1-0.6,0.6-0.8c0.5-0.1,0.8,0,0.9,0.4c1.3,4.7,2.8,8.5,4.6,11.6
		l0.1,0.2l5.7-0.3c0.5,0,0.6,0.2,0.3,0.4c-0.3,0.3-0.6,0.4-0.9,0.4c-5.6-0.2-10.4,1.1-14.5,3.7l-2.1,1.6c0.2-0.1,0.3,0,0.5,0.2
		l0.6,0.9c1.9,3,3.1,5.9,3.4,8.8c0.4,3.3-0.4,6.2-2.3,8.8l-0.1,0.1l-0.1,0.2l9.9-0.8c0-0.3,0.1-0.3,0.3-0.1l3.6-0.5
		c6.2-1,11.5-2.9,15.9-5.6c2.4-1.5,4-3.6,4.9-6.2c0.8-2.4,0.8-5.1,0.2-8.1c-0.8-4.5-2.2-8.8-4.2-13c-2-4.3-4.4-8.1-7.3-11.5
		C172.8,87.5,168.7,83.9,164.2,80.9 M162.6,18.7l0.4-0.4l-1.7-1.3l-0.6,0.9L162.6,18.7 M167.8,22.5L169,24l0.8-0.8l-1.6-1.1
		L167.8,22.5 M168.6,20.9l-0.1,0.5l1.8,0.9l0.4-1L168.6,20.9 M170.8,20.2l-0.1-1.1l-2.1,0.5l0.1,0.5L170.8,20.2 M162.3,20l0.1-0.6
		l-2-0.5l-0.1,1.1L162.3,20 M163.8,19.7c-0.1,0.7,0.2,1.2,0.8,1.7l0.4,0.2l-1.9,14.8l-0.3,0.1c-0.8,0.4-1.3,1.2-1.5,2.6
		c-0.1,0.9-0.3,2.1-0.8,3.6l-1.1,4.7l-0.9,0.7v0.1l-0.3,0.4l-1.3,2c-1.2,2.2-2,5-2.4,8.2c-0.3,2.3-0.4,4.4-0.2,6.5
		c0.2,2,0.6,3.6,1.2,4.8l0.6,0.9l0.2,0.3l0.1,0l0.2,0.2l0.9,0.3h0.5c0.9-0.2,1.8-0.9,2.7-2.1l0.2-0.2l0.2-0.1
		c1.3-0.3,2.5-1.3,3.6-2.9c1.1-1.7,1.8-3.7,2.1-6.1l0.1-0.9c0.2-2.5,0-4.5-0.7-6.2l-0.3-0.8v0l-0.4-0.6v-0.1l-0.9-1l-1-0.8l0.1-1.8
		c0.1-3.5,0.4-6.2,0.8-8.3l0.1-1.2c0-0.6-0.1-1.2-0.3-1.6l-0.1-0.1l-0.2-0.3l-0.3-0.2l1.9-14.8l0.4-0.1c0.7-0.2,1.1-0.6,1.2-1.3
		c0.1-0.4,0-0.8-0.3-1.2c-0.3-0.4-0.7-0.6-1.2-0.6c-0.5-0.1-0.9,0.1-1.2,0.3C164,18.9,163.8,19.3,163.8,19.7 M163.1,50.4
		c0.7,0.1,1.4,0.5,1.9,1.2c0.7,0.8,1.1,2,1.4,3.5c0.2,1.5,0.2,3.2,0,5c-0.4,2.6-1.1,4.7-2.1,6.3c-1.1,1.7-2.3,2.4-3.6,2.2
		c-1.3-0.2-2.2-1.2-2.8-3c-0.6-1.8-0.7-4.1-0.4-6.7c0.4-2.6,1.1-4.8,2.2-6.4S161.8,50.2,163.1,50.4 M164.1,52.4
		c-0.3-0.4-0.7-0.7-1.1-0.8c-0.8-0.1-1.6,0.5-2.4,1.8c-0.9,1.5-1.5,3.4-1.8,5.7c-0.3,2.2-0.2,4.2,0.3,5.8c0.4,1.5,1.1,2.4,1.9,2.5
		c0.8,0.1,1.6-0.5,2.4-1.9c0.9-1.5,1.5-3.3,1.8-5.6c0.2-1.6,0.2-3.1,0-4.5C164.9,54.1,164.6,53.1,164.1,52.4 M162.5,21.4l-0.1-0.5
		l-2,0.3l0.4,1L162.5,21.4 M166,17.1l0.5,0.1l0.9-2.1l-1.1-0.2L166,17.1 M164.8,17.1l0.5-0.1l-0.1-2.2L164,15L164.8,17.1
		 M163.6,17.7l0.4-0.3l-1-1.9l-0.9,0.7L163.6,17.7 M169.9,17.1l-1.7,1.3l0.2,0.4l2-0.8L169.9,17.1 M167.2,17.5l0.4,0.4l1.6-1.6
		l-0.9-0.6L167.2,17.5z"/>
</g>
</svg>
