<?xml version="1.0" encoding="utf-8"?>
<!-- Generator: Adobe Illustrator 25.4.1, SVG Export Plug-In . SVG Version: 6.00 Build 0)  -->
<svg version="1.1" id="FortuneFinder_x2C_PerkClip_x5F_4c942" image-rendering="auto"
	 xmlns="http://www.w3.org/2000/svg" xmlns:xlink="http://www.w3.org/1999/xlink" x="0px" y="0px" viewBox="0 0 240 240"
	 style="enable-background:new 0 0 240 240;" xml:space="preserve">
<style type="text/css">
	.st0{fill:#FFFFFF;}
</style>
<g>
	<rect width="240" height="240"/>
	<path class="st0" d="M61.4,204.4c0.4-0.9,1-1.8,1.8-2.6l-9-1.1c-2.7,1.9-4.6,4-5.6,6.2c-1,2.4-0.8,4.7,0.6,6.7
		c1.6,2.2,4.3,4.1,8.3,5.4c3.9,1.4,8.5,2.2,13.8,2.4l2.5-7c-2.9-0.2-5.4-0.8-7.5-1.7c-2.1-0.9-3.6-2-4.5-3.3
		C60.8,207.7,60.6,206.1,61.4,204.4 M96.6,216.9c6.9-2.8,11.2-6.1,12.8-10.1c0.8-1.9,0.8-3.7,0.1-5.4l-11.6,1.1
		c0.2,1.1,0.1,2.1-0.3,3.1c-1,2.4-3.5,4.4-7.5,6.1c-4,1.7-8.3,2.5-13.1,2.6l-2.9,6.9C82.3,221.2,89.8,219.7,96.6,216.9 M153.3,196.2
		l-0.9-2.1c-2.2,2.5-4.7,4.2-7.6,5.1c-3.1,1-6.1,0.7-8.9-0.8c-1.9,1.2-4.1,2.9-6.6,5.1c-3.4,3-4.5,4.7-3.4,5.3
		c2.9,1.5,7.2,1.2,12.9-1c1.7-0.7,3.2-1.6,4.8-2.9l3.9-4c0.2-0.2,0.4,0.1,0.6,0.8l0.1,0.1l0.6,0.3l1.7-0.1c1-0.4,1.8-0.8,2.4-1.2
		c0.7-0.6,1.1-1.4,1.1-2.2C153.8,197.8,153.6,197.1,153.3,196.2 M94.7,195.6l0,0.4c0.1,0.5,0,0.8-0.3,1.1c-0.3,0.3-0.7,0.5-1.2,0.5
		h-0.2c1.7,0.8,3,1.7,3.8,2.9l11.4-0.9c-2.4-2.8-6.6-4.8-12.6-6.1L94.7,195.6 M88.2,192.8l0.4,3.2h4.5l-0.1-0.9l10.4-20.5h-0.1
		l-8.3-4.9l-10.6,20.9L88.2,192.8 M94.9,176.2c0.3-0.3,0.7-0.5,1.2-0.5c0.5,0,0.9,0.2,1.3,0.5c0.4,0.3,0.6,0.7,0.6,1.2
		c0.1,0.4,0,0.8-0.3,1.2c-0.3,0.3-0.7,0.5-1.1,0.5c-0.5,0-0.9-0.2-1.2-0.5c-0.4-0.3-0.6-0.7-0.7-1.2
		C94.6,176.9,94.7,176.5,94.9,176.2 M91.1,189.4c-0.5,0-0.9-0.2-1.2-0.5c-0.4-0.3-0.6-0.7-0.6-1.2c-0.1-0.4,0-0.8,0.3-1.1
		c0.3-0.3,0.7-0.5,1.2-0.5c0.5,0,0.9,0.2,1.2,0.5c0.4,0.3,0.6,0.7,0.7,1.1c0.1,0.5-0.1,0.9-0.4,1.2
		C91.9,189.2,91.5,189.4,91.1,189.4 M86.9,196l-0.2-2.2l-2.2-1.3c-5.2,0-10.2,0.6-15.1,1.8c-4.9,1.2-9.2,2.8-12.8,4.9l8.9,0.9
		c2.2-1.4,4.9-2.5,8-3.2c3.2-0.8,6.4-1.1,9.7-1.1L86.9,196 M98.9,163.2c-1.3,0.5-1.9,1.3-1.8,2.2l0.3,0.8L98.9,163.2 M102.2,172.1
		l4.4-8.6c-1.2-0.6-2.6-0.9-4.2-0.9l-1.3,0.1l-3.5,6.8L102.2,172.1 M108.1,164.6l-1.6,3.2c1.5-0.6,2.2-1.3,2-2.3L108.1,164.6
		 M107.1,152.6l-0.9,0.1l-4.5,8.8h0.6c1.8,0,3.4,0.3,4.9,1l4.4-8.8C110.4,153,108.9,152.6,107.1,152.6 M104.1,153.1
		c-1.7,0.6-2.5,1.4-2.4,2.4c0,0.4,0.2,0.7,0.6,1.1v0L104.1,153.1 M111.7,157.6c1-0.6,1.5-1.2,1.5-2.1L113,155L111.7,157.6
		 M118.3,144.5l-1.3,2.5c1.1-0.6,1.5-1.2,1.4-2L118.3,144.5 M112.5,142.1l-1,0.1l-4.8,9.3h0.2c1.9,0,3.7,0.4,5.2,1.2l4.8-9.5
		l-0.5-0.2C115.4,142.4,114,142.1,112.5,142.1 M109.4,142.6c-1.6,0.6-2.4,1.4-2.2,2.4c0,0.3,0.2,0.7,0.5,1L109.4,142.6 M103.4,137.4
		l7.3,2.4l1.9-3.6l-8.2-2.8C103.4,134.4,103,135.8,103.4,137.4 M87.9,132.2l1.3,0.4c0.4-1.6,0.8-2.9,1.2-3.9l-4-1.3l-0.8-0.2
		l-0.9,0.2c-0.2,0.2-0.2,0.6,0,1.3c0.2,1.2,0.8,2.1,1.8,2.8C87,131.8,87.5,132.1,87.9,132.2 M93.8,130.6c0.2-0.4,0.6-0.6,1.1-0.4
		c0.5,0.3,0.6,0.6,0.5,1.1c-0.5,1.7-0.8,3-0.9,3.9c-0.2,1.7,0.2,3.2,1.1,4.5c0.8,1.1,1.8,1.8,3.2,2c1.3,0.2,1.2-0.2-0.2-1.4
		c-1.4-1-2-2.6-1.9-4.7l0.7-4.2l0.4-0.5l0.5-0.1c0.5,0.1,0.8,0.4,0.8,0.9c0,0.9-0.2,2.3-0.5,4.2c-0.1,1.7,0.6,3.2,2.2,4.4
		c1.1,0.9,2,1.1,2.7,0.6c0.7-0.4,0.6-1-0.3-1.8c-1.2-0.9-1.8-2-1.9-3.3c-0.1-1.8,1-3.3,3.2-4.7l0.1-0.1c1.6-0.7,3.1-0.7,4.6-0.1
		c1.1,0.5,2,1.3,2.8,2.3h2.3l1.3-2.8c-0.6-6-4.7-9.4-12.2-10.1c-3-0.2-5.8,1.1-8.4,4.1c-2.5,2.8-3.9,5.9-4.2,9.2
		c-0.2,2.2,0.4,3.9,1.9,5.1c0.5,0.5,1,0.6,1.2,0.4c0.3-0.1,0.3-0.6-0.1-1.2c-0.9-1.6-1.1-3.3-0.7-5.2L93.8,130.6 M137.2,113.4
		c-0.2,0-0.4,0.1-0.4,0.2c-0.2,0.4,0,1,0.4,1.8c0.4,0.7,0.9,1.3,1.6,1.8c0.6,0.5,1.2,0.7,1.6,0.6c0.2,0,0.3-0.1,0.4-0.2
		c0.2-0.3,0.1-0.8-0.3-1.6c-0.5-0.2-1-0.5-1.4-0.8l-1.6-1.8L137.2,113.4 M130.1,123c0.1-0.6,0.3-1.4,0.6-2.2h-0.7l-5.2,11.1
		c-1.1,1.8-2.2,3.8-3.3,6.2c1.7,12.7,6.1,22.4,13.1,29.1l0.1,0.1c0.2-9.7,1-18.5,2.3-26.4c0.1-0.3,0.2-0.1,0.5,0.4
		c0.2,0.6,0.3,1,0.2,1.2c-2.7,16.3-3.2,34.4-1.8,54.3c2.7,1.3,5.6,1.5,8.6,0.5c2.8-0.9,5.2-2.6,7.2-5.1h0.1l5.1-15.9
		c2-6.8,3.5-12.7,4.5-17.8c0-0.4,0-0.6,0.1-0.7l0.1-0.1c1.8-8.7,2.6-16.7,2.6-24l-11.5,0.8c-2.3,1.8-5.7,2.5-10.3,2.1
		c-4.9-0.3-7.7-1.9-8.2-4.7c0-0.2,0.2-0.4,0.5-0.5c-2.2-1.2-3-2.9-2.2-5.2l0.2-0.3C130.9,125,130,124.1,130.1,123 M130.4,110.1
		l-2.1-0.1l-0.7,0.5l-15.5,30.6l0.2-0.1c1.6,0,3.2,0.3,4.7,0.9l0.4,0.2l14.9-29.5l-0.3-0.8C131.7,111.1,131.2,110.5,130.4,110.1
		 M134.4,107.2c0.4,0.7,1,1.3,1.7,1.8c0.6,0.4,1.2,0.6,1.6,0.6l0.4-0.2c0.2-0.4,0.1-1-0.4-1.8c-0.4-0.7-1-1.3-1.6-1.8
		c-0.6-0.4-1.2-0.6-1.6-0.6l-0.5,0.2C133.8,105.8,134,106.4,134.4,107.2 M143.1,110.1c0.9,0,1.9,0.6,3.1,1.6l-3.1-6.1
		c-0.3-0.7-0.8-1.3-1.6-1.8c-0.8-0.5-1.5-0.8-2.2-0.8l-25.9,0.6c-0.6,0-1,0.2-1.2,0.5c-0.2,0.3-0.1,0.8,0.2,1.4l6.2,10.9
		c0.6,1.1,1.6,1.9,2.9,2.3l5.1-10l0.9-0.9l3.8,0.1c1.6,0.6,2.6,1.6,2.8,3.1c0.1,0.7,0.1,1.4-0.1,2.1l-2.9,5.9h0.9
		c1-1.3,2.1-2,3.3-2.2c1.1-0.1,1.7,0.1,1.8,0.7l-0.2,1.5h2.8l0.1-0.1c-1.3-0.7-2.3-1.6-3-2.9c-0.8-1.3-0.9-2.4-0.6-3.3
		c0.3-0.6,0.9-1,1.6-1.1l0.2,0.1l0.8-0.6c-0.8,0-1.7-0.3-2.6-1c-0.9-0.6-1.7-1.4-2.2-2.4c-0.8-1.3-0.9-2.4-0.6-3.4
		c0.3-0.6,0.9-1,1.7-1.1c0.8,0,1.7,0.3,2.6,0.9c1,0.6,1.8,1.5,2.4,2.4c0.8,1.4,0.9,2.5,0.5,3.4l-0.1,0.3L143.1,110.1 M143.2,115.8
		l0.2,0.2c0.5,1.9-0.4,3.3-2.8,4.3c-1.6,0.7-3.6,1.1-5.9,1.2c-0.4,0-0.6-0.1-0.5-0.3c0.5-1,0.6-1.7,0.4-2c-0.3-0.2-0.7-0.1-1.3,0.2
		c-1.7,1.1-2.2,2.4-1.6,3.7c0.5,1,1.8,1.9,3.9,2.5l4.8,1.1c0.4,0.1,0.4,0.3,0,0.5c-0.4,0.3-0.7,0.4-1,0.3l-5.5-1
		c-0.3,1.3,0.1,2.4,1.1,3.3c0.8,0.7,2,1.2,3.6,1.7l3.2,0.4c0.4,0.1,0.4,0.2,0,0.5l-0.9,0.4l-4.8-0.6c0.9,2,3.2,3.1,7.1,3.4
		c3.5,0.2,6.2-0.2,8.1-1.4V134c2.2-2.7,3.1-5.9,2.7-9.6c-0.4-3.5-1.8-6.6-4.2-9.3c-0.9,0.1-1.8-0.1-2.6-0.6
		c-0.5-0.3-1.1-0.9-1.9-1.9c-2-2.2-4-2.5-6-0.7c-0.7,0.6-0.9,0.7-0.6,0.5C139.7,114.2,141.2,115.3,143.2,115.8 M155.4,72.4l-0.2,1.5
		c-1.4,4.3-4.8,7.2-10.1,8.7c-5.4,1.4-9.2,0.2-11.4-3.7c-1.3-0.4-3.8-1.8-7.4-4.1l-0.6,0.2v0.1c-2,4.9-2.9,10.6-2.8,17l-0.3,0.6
		l18.5-0.1c0.9,0,1.9,0.2,2.8,0.8c1,0.5,1.7,1.2,2.2,2.2l0.1,0.1l0.1,0.2l3.4,7c-0.3-5.9,0.4-11.2,2.2-15.7
		c2.2-5.2,5.6-9.1,10.2-11.5C160.1,74.4,157.8,73.3,155.4,72.4 M118.2,94.4c-0.8,0-1.6,0.3-2.4,0.7c-0.8,0.5-1.5,1-1.8,1.6l-1.4,5.4
		l26.5-0.6c1.1,0,2.2,0.3,3.2,1.1c1.1,0.7,1.9,1.6,2.3,2.7l4.4,8.9l0.9,0.2l2.5-1.8c-0.1-0.7-0.2-1.3-0.5-1.8l-6.8-13.9H145
		c-0.3-0.7-0.8-1.3-1.4-1.8c-0.7-0.5-1.4-0.8-2.1-0.8L118.2,94.4 M119.4,98.6l0.7-1.2c0.4-0.5,0.8-0.8,1.4-0.8l14.5,0.1
		c0.3,0,0.4,0.1,0.5,0.2c0.1,0.1,0.1,0.3-0.1,0.6l-0.7,1.2c-0.4,0.5-0.8,0.8-1.4,0.8l-14.6,0c-0.2,0-0.4-0.1-0.5-0.2
		C119.2,99,119.3,98.8,119.4,98.6 M117.8,92.8l1.9-0.1c-0.1-6,0.7-11.4,2.5-16.2c-10.2,4.4-18.1,10.4-23.6,18.2
		c-6.5,9.1-7.7,18.4-3.8,27.8c2.1-1.8,4.3-2.8,6.7-3.1c2.1-0.2,4,0,5.7,0.5c1.5,0.4,3.1,1.2,4.8,2.3c0.6-3.5,1.6-6.3,2.8-8.5l0.1,0
		l-4.1-7.2c-0.5-0.9-0.7-1.8-0.4-2.6l1.8-7.7l0.1-0.2c0.5-0.8,1.3-1.5,2.3-2.1C115.7,93.1,116.8,92.8,117.8,92.8 M118.2,38.3
		c-0.3,0.7-0.4,1.6-0.2,2.7c0.1,0.6,0.6,1.6,1.4,2.8c0.5-1.3,1.2-2.9,2.1-4.8c-0.7-0.1-1.3-0.5-2-1.1
		C118.9,37.5,118.5,37.6,118.2,38.3 M159.3,37.6l-2.2,2.2l1.4,0.9L159.3,37.6 M134.4,32.3l-1.4-0.6c-1-0.3-1.8-0.3-2.2,0
		c-0.4,0.3-1.2,1.2-2.4,2.9l-1.9,2.6c-1.1,1-2.1,1.6-3.2,1.9c-2,3.7-3.2,7.3-3.8,10.9c-0.9,5.8,0,11.3,2.6,16.6
		c2.7,5.5,6.7,9.3,11.9,11.3c3,1.2,5.7,1.7,8.1,1.5l2.6-0.3c0.1,0.2-0.6,0.6-1.9,1.1c-1.4,0.5-2.3,0.7-2.7,0.6
		c1.8,1.1,4.5,0.7,7.9-1.1c3.6-1.9,5.5-4.2,5.6-6.8c-1.3,1-2.6,1.6-3.7,1.8c-1.2,0.2-1.3-0.1-0.4-0.8c2.1-1.5,4.1-3.6,5.9-6.1
		l-1-1.3c-0.7-1.3-1.1-3-1.4-5.2c-0.2-2.2-0.2-4.4,0.2-6.8c0.7-4.8,2-8.4,3.9-10.8l-1.4-0.9c-0.3-0.2-0.4-0.4-0.2-0.7
		c0.1-0.3,0.4-0.3,0.8-0.2l1.6,1.1l0.3-0.3l0.1-0.6c-0.9-0.6-1.8-1.1-2.6-1.6c-0.4-0.2-0.5-0.4-0.3-0.7l0.3-0.4
		c2.2-1.4,3-2.9,2.2-4.8c-0.7-1.7-1.9-2.4-3.4-2.1c-1.7,0.3-2.9,0.6-3.6,0.9l-4.1-0.1c-1.2-1.3-2.4-2.1-3.8-2.4
		c-1.3-0.3-2.5-0.1-3.5,0.4c-1,0.6-1.8,1-2.5,1.2L134.4,32.3 M127.7,38.6c0.2,0.1,0.4,0.2,0.4,0.5l0.2,0.8c0,0.3,0,0.5-0.2,0.8
		c-0.2,0.2-0.4,0.3-0.7,0.3l-3.3,0.3l-0.5-0.1c0-0.1,0.1-0.2,0.3-0.3l3.1-2.2L127.7,38.6 M124.3,48.2c0-0.8,0.1-1.4,0.4-2
		c0.3-0.5,0.6-0.8,1-0.8c0.5,0,0.8,0.2,1.2,0.8c0.3,0.6,0.4,1.2,0.4,2c0,0.8-0.1,1.5-0.4,2c-0.3,0.6-0.7,0.9-1,0.9
		c-0.4,0-0.8-0.3-1.2-0.9C124.5,49.7,124.3,49.1,124.3,48.2 M134.9,45.1c0.3,0.1,0.3,0.3,0.2,0.8l-3.1,7.8c-0.2,0.5-0.2,1,0.1,1.4
		l1.6,2c0.3,0.4,0.2,0.7-0.2,0.9c-0.8,0.5-1.5,0.4-2-0.2l-2-2.6l-0.2-0.7c0-0.3,0.1-0.5,0.2-0.7l3.1-4.5l1.6-3.4
		C134.3,45.3,134.6,45.1,134.9,45.1 M142.6,38.2l0.5-0.8c0.2-0.5,0.6-0.6,1.1-0.3l1.9,1.6c1.3,1.3,1.8,2.2,1.6,2.9l-5.5-2.3
		C142.1,39.1,142.2,38.8,142.6,38.2 M142.3,45.4c0.3-0.6,0.7-0.9,1.1-0.9c0.4,0,0.8,0.3,1.1,0.9c0.3,0.6,0.4,1.2,0.4,2
		c0,0.8-0.1,1.4-0.4,2c-0.3,0.6-0.6,0.8-1,0.8c-0.5,0-0.8-0.3-1.1-0.8c-0.3-0.5-0.5-1.2-0.5-2C141.9,46.6,142,45.9,142.3,45.4
		 M142.6,58.7l-0.6-1.3c-0.1-0.2-0.1-0.3-0.1-0.4l0.4,0.1l4.3,2.8l0.5,0.5c0.1,0.3,0.2,0.5,0.1,0.7l-0.6,3.9
		c-0.1,0.5-0.3,0.5-0.6,0.1l-0.1-1.8c-0.1-0.2-0.3-0.3-0.5-0.4l-0.8,0.1c-1,0.9-2.2,1.7-3.6,2.6c-2.7,1.7-4.9,2.6-6.6,2.7
		c-1.7,0.1-3.6-0.3-5.8-1.3l-2.7-1.4l-0.6,0.1c-0.1,0.1-0.2,0.3-0.2,0.5l0,0.4l-0.1,0.4l-0.3-0.2l-1.9-2.7c-0.1-0.2-0.2-0.4-0.2-0.7
		c0-0.3,0.1-0.5,0.2-0.7l1.4-1.9c0.1-0.2,0.2-0.3,0.3-0.2l0.2,0.4v0.6c0,0.2,0.1,0.4,0.2,0.6c0.2,0.2,0.3,0.2,0.6,0.2l2.8,0.4
		c2.1,0.2,3.7,0.3,4.9,0.1c1.9-0.3,4.7-1.3,8.4-2.8l0.6-0.5L142.6,58.7 M131.9,69.7l3.4-0.6l0.7,0.1l0.4,0.5c0.1,0.5-0.1,0.8-0.7,1
		l-2.5,0.2l-1.5-0.7l-0.3-0.3C131.5,69.8,131.6,69.7,131.9,69.7 M144.4,60.8l-2.1-0.1c-3.4,1.5-6.1,2.4-8.4,2.8
		c-1.4,0.2-3.1,0.2-5.3-0.1l-2.8-0.3c-0.7-0.1-1,0.2-0.8,0.7c0.2,0.6,0.5,0.9,0.8,0.9l5.2,1.6l3.3,0.1c1.4-0.1,2.6-0.3,3.5-0.7
		c1.1-0.5,3.1-1.6,6.1-3.3l0.6-0.6C144.8,61.4,144.8,61.1,144.4,60.8 M161.9,17.3l-0.2-0.6l-3.6,0.5l0.6,1.7L161.9,17.3 M161.8,15.1
		l-3.4-0.9l-0.2,1.7l3.6-0.1L161.8,15.1 M147.2,20.1l-2.5-1.4c-1.4-0.8-2.5-1.2-3.2-1.1c-0.7,0.1-1.7,1.3-3,3.6l-1.4,2.1
		c-0.4,0.5-1.2,0.6-2.4,0.3l-3.4-0.2c-0.9,0.3-2.6,1.9-4.9,4.9c-0.8,1-1.8,1.6-2.9,1.9c-1.2,0.2-2.3-0.1-3.2-0.8
		c-0.7-0.5-1-1.3-1-2.4c-0.7,0.7-1.2,1.5-1.5,2.5c-0.3,1.2-0.3,2.6,0.1,4.1c0.4,1.6,1.2,2.8,2.2,3.8c0.8,0.6,1.7,0.8,2.7,0.6
		c0.9-0.2,1.8-0.7,2.7-1.5l1.8-2.6c1.2-1.6,2.1-2.6,2.6-3c0.9-0.6,1.6-0.8,2.2-0.7l3.1,1.2c0.4,0.2,0.9,0.1,1.4-0.2l4.7-3.2
		c1-0.5,2.4,0.1,4.3,1.9l3.3,3c0.4,0.1,1.2-0.2,2.5-0.9c1.5-0.7,2.5-1.2,3.1-1.3c1.5-0.3,2.8,0,3.8,0.8c0.7,0.6,1.3,1.4,1.7,2.5
		c0.3-1.3,0.9-2.1,1.7-2.6l0.2-1.5c-1.3-1.8-2.5-2.9-3.8-3.4l-2.6-2.9c-1.4-1.7-3-2.6-4.6-2.8L147.2,20.1 M165.8,161.6
		c-0.3-0.9-0.7-1.6-1.2-2.1l-2.2-0.1l-0.9,4.2c-1.2,5.2-2.8,11.2-4.8,17.9c0.5,2.1,1.2,3.9,1.9,5.2c1.2,2.2,2.4,3,3.7,2.5
		c0.9-0.3,1.7-1.2,2.3-2.7c0.9-2.1,1.5-4.6,1.8-7.6l0.2-5c0-0.6-0.3-1.3-0.8-2.1l-1.2-1.9c-0.9-1.7-1.1-2.9-0.5-3.5
		c0.2-0.2,0.5-0.4,1-0.5l1.1-0.2C166.8,165.7,166.8,164.2,165.8,161.6 M176.4,87.7c-3.7-4.4-7.8-8-12.2-10.9l-0.4,0.3
		c-5.4,2.7-8.8,7.8-10.1,15.1c-1.1,6-0.9,12.3,0.8,19.1c2.1-1,4.3-1.7,6.6-2.2c-1.7-3.1-3.2-7-4.6-11.6c-0.1-0.4,0.1-0.6,0.7-0.8
		c0.5-0.1,0.8,0,0.9,0.3c1.3,4.7,2.8,8.5,4.6,11.6l0.1,0.2l5.7-0.3c0.5,0,0.6,0.1,0.3,0.4s-0.6,0.4-0.9,0.4c-5.3-0.2-9.9,1-13.9,3.4
		h-0.1l-0.5,0.3c-0.8,0.4-1.5,0.9-2.2,1.6c0.2-0.2,0.4-0.1,0.6,0.2l0.6,0.9c2,3.1,3.1,6,3.4,8.9c0.3,3.3-0.5,6.3-2.5,9l13.8-1.3
		c6.2-1,11.5-2.9,15.9-5.7c2.4-1.5,4-3.6,4.8-6.2c0.8-2.4,0.9-5.1,0.3-8.1c-0.9-4.5-2.3-8.8-4.2-13C181.6,95,179.2,91.1,176.4,87.7
		 M168.1,18.6l2.3,2.9l1.2-1.2l-3.1-2.1L168.1,18.6 M162.1,14.2l0.4-0.6l-2.9-2.3c-0.2,0.2-0.5,0.7-0.9,1.4L162.1,14.2 M163.1,12.9
		l0.5-0.3L162,9.2l-1.4,1L163.1,12.9 M166.8,14.9c-0.3-0.4-0.6-0.6-1.1-0.7c-0.5-0.1-0.9,0-1.2,0.3c-0.4,0.3-0.6,0.7-0.6,1.1
		c-0.1,0.7,0.2,1.2,0.8,1.6l0.4,0.2l-0.1,0.4l-1.9,14.4l-0.3,0.2c-0.8,0.4-1.3,1.2-1.5,2.6l-1.9,8v0.2l-0.9,0.7l-0.4,0.4l-1.2,2.1
		c-1.2,2.3-2,5-2.4,8.1c-0.3,2.3-0.4,4.4-0.2,6.4c0.2,2,0.6,3.6,1.2,4.8l0.6,0.9l0.6,0.5l0.1,0.1l0.3,0.2l0.4,0.1h0.5
		c0.8-0.1,1.7-0.8,2.7-2.1l0.1-0.2h0.2c1.3-0.3,2.5-1.3,3.6-3c1-1.7,1.7-3.7,2.1-6.1l0.1-0.9c0.2-2.4,0-4.5-0.7-6.2l-0.3-0.8v-0.1
		l-0.4-0.6l0,0l-0.9-1.1l-0.6-0.5l-0.4-0.2l0.1-1.9c0.1-3.5,0.4-6.2,0.8-8.2l0.1-1.2c0-0.7-0.1-1.2-0.4-1.6l-0.3-0.4l-0.2-0.2
		l1.9-14.8l0.4-0.1c0.7-0.2,1.1-0.6,1.2-1.3C167.2,15.6,167.1,15.2,166.8,14.9 M163.1,46.2c0.7,0.1,1.4,0.5,1.9,1.2
		c0.7,0.8,1.1,2,1.4,3.6c0.2,1.5,0.2,3.1,0,4.9c-0.4,2.6-1.1,4.8-2.1,6.4c-1.1,1.6-2.3,2.4-3.6,2.1c-1.3-0.2-2.2-1.2-2.8-3.1
		c-0.6-1.8-0.8-4.1-0.4-6.6c0.3-2.6,1-4.7,2.1-6.4C160.7,46.8,161.8,46.1,163.1,46.2 M164,48.2c-0.3-0.4-0.7-0.6-1.1-0.8
		c-0.8-0.1-1.6,0.5-2.4,1.9c-0.9,1.5-1.5,3.3-1.9,5.6c-0.3,2.3-0.2,4.2,0.3,5.9c0.4,1.5,1.1,2.3,1.9,2.4c0.8,0.1,1.6-0.5,2.4-1.9
		c0.9-1.5,1.5-3.4,1.8-5.6c0.2-1.6,0.2-3.1,0-4.4C164.9,49.9,164.5,48.9,164,48.2 M169.2,16.7l-0.2,0.7l3.3,1.8l0.6-1.7L169.2,16.7
		 M169.2,15.2l0.1,0.6l3.9,0.2l-0.2-1.8L169.2,15.2 M168.6,13.8l0.2,0.6l3.6-1.4l-0.8-1.5L168.6,13.8 M170.1,9.9l-0.8-0.5l-1.8,3.4
		l0.4,0.4l2.8-2.7L170.1,9.9 M165,8.4l-1.8,0.3l1.3,3.6l0.6-0.1L165,8.4 M166.4,8.4l-0.3,3.8l0.6,0.2l1.4-3.6L166.4,8.4z"/>
</g>
</svg>
