<?xml version="1.0" encoding="utf-8"?>
<!-- Generator: Adobe Illustrator 25.4.1, SVG Export Plug-In . SVG Version: 6.00 Build 0)  -->
<svg version="1.1" id="FortuneFinder_x2C_PerkClip_x5F_4c942" image-rendering="auto"
	 xmlns="http://www.w3.org/2000/svg" xmlns:xlink="http://www.w3.org/1999/xlink" x="0px" y="0px" viewBox="0 0 240 240"
	 style="enable-background:new 0 0 240 240;" xml:space="preserve">
<style type="text/css">
	.st0{fill:#FFFFFF;}
</style>
<g>
	<rect width="240" height="240"/>
	<path class="st0" d="M85.4,221.9l1.8-7.1c-2.8-0.2-5.3-0.8-7.5-1.7c-2.2-0.9-3.8-2-4.8-3.3c-1.2-1.6-1.6-3.3-1-5.1
		c0.3-0.9,0.8-1.8,1.6-2.6l-8.8-1.2c-2.5,2-4.2,4.2-4.9,6.4c-0.8,2.4-0.3,4.7,1.2,6.9c1.8,2.3,4.6,4.1,8.6,5.5
		C75.7,221.1,80.3,221.8,85.4,221.9 M121,207.1c0.6-1.9,0.5-3.8-0.4-5.6l-11.1,1.2c0.3,1,0.3,2.1,0,3.1c-0.8,2.4-3,4.5-6.8,6.2
		c-3.7,1.7-7.8,2.6-12.5,2.7l-2.1,7.1c7.9-0.1,15.1-1.7,21.5-4.6S119.8,211.1,121,207.1 M155.2,195.9c0.2-0.2,0.4,0.1,0.6,0.8
		c0-0.1,0,0,0.1,0l0.6,0.4c0.8,0.2,1.5,0.1,2.3-0.3c1.1-0.5,1.8-1,2.2-1.6c0.6-0.7,0.7-1.6,0.5-2.7l-1.4-3.2
		c-2.2,2.5-4.7,4.2-7.6,5.1c-3.1,0.9-6.1,0.6-8.9-0.9c-2,1.2-4.2,2.9-6.6,5.1c-3.4,2.9-4.5,4.7-3.4,5.2c1.6,0.8,3.8,1.1,6.5,0.8
		c2-0.3,4.1-0.9,6.4-1.8c1.6-0.7,3.2-1.6,4.7-2.9L155.2,195.9 M105.6,195.9c0.1,0.5,0.1,0.9-0.2,1.2c-0.2,0.3-0.6,0.5-1,0.5h-0.1
		c1.7,0.8,3.1,1.8,4.1,2.9l11-0.9c-2.6-2.9-6.9-4.9-12.9-6.2l-0.9,2.1L105.6,195.9 M98.9,192.8l0.7,3.2l4.3-0.1l-0.2-0.9l8-21.1
		l-8.7-5l-8.2,21.5L98.9,192.8 M100.1,188.7c-0.4-0.4-0.7-0.8-0.8-1.2c-0.1-0.5,0-0.9,0.2-1.2c0.3-0.3,0.6-0.5,1.1-0.5
		c0.5,0,0.9,0.2,1.3,0.5c0.4,0.3,0.6,0.7,0.8,1.2c0.1,0.5,0,0.9-0.2,1.2c-0.3,0.3-0.6,0.5-1.1,0.5
		C100.9,189.2,100.5,189,100.1,188.7 M104.4,178.1c-0.4-0.4-0.7-0.8-0.8-1.2c-0.1-0.5-0.1-0.9,0.2-1.2c0.2-0.3,0.6-0.5,1.1-0.6
		c0.5,0,0.9,0.2,1.3,0.5c0.4,0.4,0.6,0.8,0.8,1.2c0.1,0.5,0,0.9-0.2,1.2c-0.3,0.3-0.6,0.5-1.1,0.5
		C105.2,178.6,104.8,178.5,104.4,178.1 M94.2,195.8L98,196l-0.5-2.3l-2.3-1.3c-5,0.1-9.8,0.7-14.5,1.9c-4.7,1.3-8.7,3-12,5.1
		l8.8,0.9c2-1.4,4.5-2.6,7.5-3.4C87.9,196.1,91,195.7,94.2,195.8 M115.9,164.6l-0.4-0.9l-1.2,3.3
		C115.6,166.4,116.2,165.6,115.9,164.6 M104.8,164.6l0.4,0.8l1.2-3.1C105.1,162.9,104.6,163.7,104.8,164.6 M105.8,168.8l4.8,2.8
		l3.4-8.9c-1.2-0.6-2.6-0.9-4.2-0.9l-1.2,0.1L105.8,168.8 M110.4,152c-1.6,0.5-2.3,1.4-2.1,2.5c0.1,0.3,0.3,0.7,0.7,1.1v0.1
		L110.4,152 M113.2,151.5h-0.8l-3.5,9.1l0.6-0.1c1.8,0,3.4,0.3,4.9,1l3.4-8.9C116.6,151.9,115.1,151.5,113.2,151.5 M119.4,154.4
		l-0.2-0.5l-1,2.6C119.2,155.9,119.6,155.2,119.4,154.4 M114.5,141.2c-1.5,0.6-2.2,1.4-1.9,2.4l0.6,1.1L114.5,141.2 M108.7,131.8
		c-0.9,1-1.1,2.4-0.4,4.1l7.3,2.5l1.4-3.8L108.7,131.8 M97.4,131.5l0.7-2.5c0.1-0.5,0.5-0.6,1-0.4l0.5,0.5l0.1,0.6
		c-0.4,1.7-0.5,3-0.5,4c0,1.8,0.5,3.3,1.5,4.6c0.9,1.2,2,1.9,3.2,2.1c1.3,0.2,1.2-0.2-0.3-1.4c-1.5-1-2.3-2.7-2.5-4.9l0.3-4.3
		c0-0.5,0.3-0.7,0.8-0.6c0.5,0,0.8,0.3,0.9,0.9c0.1,1,0.1,2.4-0.1,4.4c0.1,1.8,1,3.3,2.6,4.5c1.2,0.9,2.1,1.1,2.7,0.6
		c0.6-0.4,0.4-1-0.5-1.8c-1.3-0.9-2-2.1-2.2-3.4c-0.3-1.8,0.6-3.4,2.7-4.9l0.1,0c1.5-0.7,3-0.7,4.5-0.1c1.1,0.5,2.1,1.3,2.9,2.4h2.3
		l1-2.9c-1.2-6.2-5.5-9.7-12.9-10.3c-2.9-0.3-5.5,1.1-7.8,4.2c-2.2,2.9-3.3,6.1-3.2,9.5c0,2.2,0.8,4,2.4,5.2c0.6,0.4,1,0.6,1.2,0.5
		c0.3-0.2,0.2-0.6-0.2-1.3C97.6,135.2,97.2,133.4,97.4,131.5 M93.8,131.1c0.2-1.5,0.4-2.8,0.7-4.1l-4-1.3c-0.8-0.3-1.4-0.3-1.7,0
		c-0.2,0.2-0.2,0.6,0,1.3c0.3,1.2,1,2.1,2.1,2.9c0.6,0.4,1.1,0.7,1.6,0.8L93.8,131.1 M123.6,143.6l-0.2-0.6l-1,2.6
		C123.4,145.1,123.8,144.4,123.6,143.6 M122,141.8l-0.5-0.2c-1.3-0.5-2.6-0.8-4-0.8h-1l-3.7,9.6h0.2c1.9,0,3.6,0.4,5.2,1.1
		L122,141.8 M140.5,117h1.1l-1-0.6L140.5,117 M132.8,108.6c-0.3-0.3-0.7-0.5-1.1-0.7l-2.1-0.2l-0.6,0.6l-12,31.4h0.2
		c1.6,0,3.2,0.3,4.7,0.9l0.5,0.2l11.5-30.3l-0.4-0.9C133.3,109.1,133.1,108.8,132.8,108.6 M142.2,115.8c0.2,0,0.4-0.1,0.4-0.2
		c0.1-0.4-0.1-1-0.6-1.8c-0.5-0.8-1.1-1.4-1.8-1.8c-0.7-0.5-1.2-0.7-1.7-0.6c-0.2,0-0.3,0.1-0.4,0.2c-0.2,0.4,0,1,0.6,1.8l1,1.2
		c0.5,0.1,0.8,0.3,0.8,0.7v0C141.3,115.6,141.8,115.8,142.2,115.8 M144.8,113.8h-0.2c0.3,0.7,0.5,1.2,0.5,1.8
		C146.2,114.7,146.1,114.1,144.8,113.8 M144.5,108.6l-0.8,0.2c-1.7,0.5-1.7,1.5-0.1,2.8c0.3,0.2,0.9,0.5,2,0.9
		c0.9,0.3,1.5,0.6,1.6,1c0.6,1.9-0.2,3.3-2.6,4.4c-1.6,0.7-3.5,1.1-5.8,1.2c-0.4,0-0.6-0.1-0.5-0.3l0.5-1.2c0.5-0.9,0.1-1.3-1.2-1.2
		c-1.4,2.1-1.9,3.5-1.6,4.2c0.5,1.1,1.9,2,4.1,2.6l4.9,1.1c0.4,0.1,0.4,0.3,0,0.6l-1,0.2l-5.6-0.9c-0.2,2.2,1.1,3.7,3.9,4.7l1.2,0.3
		l3.2,0.4c0.4,0,0.4,0.2,0.1,0.4l-0.9,0.4l-4.9-0.6c1.1,1.9,3.5,3,7.3,3.4c3.5,0.4,6.2,0,8.1-1.1v-0.2c1.8-3,2.3-6.3,1.4-10.2
		c-0.8-3.4-2.3-6.3-4.6-8.8l-0.4-0.4c-0.9,0.1-1.8-0.2-2.6-0.9l-2.2-2c-0.6-0.5-1.2-0.8-1.9-0.9
		C145.7,108.5,145.1,108.5,144.5,108.6 M143.6,103.2c-0.4-0.7-1-1.3-1.8-1.8c-0.8-0.5-1.6-0.8-2.3-0.8l-25.2,0.7
		c-0.5,0-0.9,0.2-1.1,0.6c-0.1,0.4,0,0.9,0.3,1.4l4.8,7.4c0.2,0,0.3,0.1,0.2,0.3l2.2,3.4c0.7,1.1,1.7,1.8,3.1,2.3l4-10.3l0.8-0.9
		l3.7,0.1c1.5,0.6,2.5,1.5,2.9,2.9l0.1,0.4c0.2,0.7,0.2,1.4,0,2.1l-2.2,6.1h2.3c1-1.5,2.1-2.3,3.3-2.6l-0.3-0.5
		c-0.9-1.3-1.2-2.4-0.9-3.4c0.2-0.7,0.7-1,1.5-1.1c0.5,0,1,0.1,1.6,0.4c0.5-0.5,1-1,1.5-1.3c1.1-0.7,2.1-1.1,3.1-1.1l0.9,0.1
		L143.6,103.2 M138.2,101.9c1,0.6,1.9,1.5,2.6,2.5c0.9,1.4,1.1,2.5,0.8,3.5l-0.4,0.7c-0.2,0.2-0.6,0.4-1,0.4c-0.6,0-1.2-0.1-1.8-0.4
		l-0.9-0.5c-1-0.7-1.9-1.5-2.5-2.6c-0.9-1.3-1.2-2.5-0.9-3.4c0.2-0.6,0.7-1,1.5-1.1C136.3,100.9,137.2,101.2,138.2,101.9
		 M138.6,105.1c-0.5-0.8-1.1-1.4-1.8-1.8c-0.7-0.5-1.2-0.7-1.7-0.6c-0.2,0-0.3,0.1-0.4,0.2c-0.2,0.4,0,1,0.6,1.9
		c0.5,0.7,1.1,1.3,1.8,1.8c0.7,0.5,1.2,0.7,1.6,0.6c0.2,0,0.4-0.1,0.4-0.2C139.3,106.5,139.1,105.9,138.6,105.1 M115.8,92.5
		c-0.8,0.5-1.3,1-1.6,1.7l-0.8,5.4l25.8-0.7c1,0,2.1,0.3,3.3,1.1c1.1,0.7,2,1.6,2.5,2.7l3,5.2l0.9,0.4l0.4,0.2l1.6,1.7
		c0.8,0.9,1.5,1.4,2.2,1.4l0.4-0.6l-0.1-0.9l-0.4-1.6l-8.2-14.5c-0.3-0.7-0.9-1.3-1.6-1.9c-0.7-0.5-1.5-0.8-2.2-0.8l-22.7,0.3
		C117.4,91.8,116.6,92,115.8,92.5 M120.3,94.8c0.1-0.2,0.3-0.4,0.6-0.6c0.2-0.2,0.5-0.3,0.7-0.2h14.2c0.2,0,0.4,0.1,0.5,0.2
		c0.1,0.2,0.1,0.4,0,0.6l-0.6,1.2l-0.6,0.6l-0.7,0.2h-14.2c-0.2,0-0.4-0.1-0.5-0.2c-0.1-0.2-0.1-0.4,0-0.6L120.3,94.8 M117.7,90.1
		h2.2c-0.1-6.1,0.7-11.5,2.4-16.2c-4.5,1.9-8.7,4.1-12.4,6.7c-4.1,2.9-7.5,6-10,9.4c-3.4,4.5-5.3,9.8-5.8,15.8
		c-0.1,1-0.1,1.9-0.1,2.9c0,4.8,0.9,9.3,2.9,13.8c2.1-2.9,4.6-4.5,7.6-4.9l5.5,0.3c1.4,0.4,3,1.2,4.8,2.2c-0.4-1.5-0.5-3.1-0.1-4.7
		c0.4-1.6,1.1-2.9,2.2-4.1l-4.6-7.3c-0.6-0.9-0.8-1.8-0.6-2.6l1-7.9v-0.1l0.1-0.1c0.4-0.9,1.1-1.6,2-2.2
		C115.7,90.5,116.7,90.1,117.7,90.1 M118.1,38.4c0.1,0.7,0.6,1.6,1.4,2.8c0.6-1.6,1.3-3.1,2.1-4.8c-0.7-0.1-1.4-0.5-2-1.1
		c-0.6-0.5-1.1-0.4-1.4,0.3C117.9,36.4,117.8,37.4,118.1,38.4 M157.2,37.4l1.3,0.9l0.8-3.1L157.2,37.4 M134.4,29.8
		c-0.5-0.2-1-0.4-1.5-0.6c-1-0.3-1.7-0.3-2.2,0c-0.4,0.3-1.2,1.2-2.4,2.9l-2,2.7c-1.1,1-2.1,1.6-3.2,1.8c-2,3.7-3.3,7.4-3.8,10.9
		c-0.9,5.8,0,11.3,2.6,16.5c1.7,3.4,3.8,6.1,6.4,8.2c1.6,1.3,3.5,2.3,5.5,3.1c3,1.2,5.7,1.7,8.1,1.5l2.6-0.3
		c0.1,0.2-0.6,0.6-1.9,1.1l-2.7,0.6c1.8,1.1,4.5,0.7,8-1.1c3.1-1.6,4.9-3.5,5.4-5.7l0.2-1.1l-0.2,0.2c-1.3,0.9-2.5,1.5-3.6,1.6
		c-1.2,0.2-1.3-0.1-0.3-0.8c1.4-1,2.6-2.2,3.9-3.5l2-2.5l-1-1.4c-0.4-0.8-0.7-1.8-1-2.9l-0.3-2.3c-0.1-1.1-0.2-2.1-0.1-3.2l0.3-3.6
		c0.3-2.2,0.8-4.3,1.5-6.2c0.7-1.9,1.5-3.4,2.4-4.6l-1.3-0.9c-0.3-0.2-0.4-0.4-0.2-0.6c0.1-0.3,0.4-0.4,0.8-0.2
		c0.4,0.1,0.9,0.4,1.6,1l0.3-0.2l0.1-0.6c-0.8-0.6-1.7-1.1-2.5-1.6c-0.4-0.2-0.5-0.4-0.4-0.7c0.1-0.2,0.3-0.4,0.4-0.4
		c2.2-1.4,3-3,2.2-4.8c-0.8-1.7-1.9-2.4-3.4-2.1l-3.6,0.9l-4.1-0.1c-1.2-1.3-2.5-2.1-3.9-2.4c-1.3-0.3-2.5-0.1-3.5,0.5
		c-1,0.6-1.8,1-2.4,1.2L134.4,29.8 M127.7,36.1c0.2,0.1,0.3,0.2,0.4,0.5l0.2,0.8c0.1,0.3,0,0.5-0.1,0.8c-0.2,0.2-0.4,0.3-0.7,0.3
		l-3.3,0.3l-0.4-0.1l0.3-0.4l3.1-2.2L127.7,36.1 M125.9,48.6c-0.4,0-0.8-0.3-1.1-0.9c-0.3-0.5-0.5-1.2-0.5-2c0-0.8,0.1-1.4,0.4-2
		c0.3-0.5,0.7-0.8,1.1-0.8c0.4,0,0.8,0.2,1.1,0.8c0.3,0.5,0.5,1.2,0.5,2c0,0.8-0.1,1.4-0.4,2C126.7,48.2,126.3,48.5,125.9,48.6
		 M132.6,46.7c0.5-0.9,1-2,1.5-3.4c0.2-0.5,0.4-0.8,0.8-0.8c0.3,0.1,0.4,0.4,0.2,0.9c-0.4,1.5-0.9,2.9-1.5,4.2l-1.6,3.4
		c-0.1,0.2-0.1,0.4-0.1,0.7l0.2,0.6l1.6,2c0.3,0.4,0.2,0.7-0.2,0.9l-0.1,0.1l-1.8-0.1l-0.2-0.2l-2-2.6c-0.3-0.4-0.3-0.9,0-1.4
		L132.6,46.7 M144.2,34.5l1.9,1.7c1.2,1.2,1.8,2.2,1.6,2.9l-5.5-2.4c-0.1-0.2,0-0.5,0.4-1.1l0.6-0.8l0.4-0.4L144.2,34.5 M144.5,42.8
		c0.3,0.6,0.5,1.2,0.5,2c0,0.8-0.2,1.4-0.4,2c-0.3,0.6-0.6,0.9-1.1,0.8c-0.4,0-0.8-0.3-1.1-0.8c-0.3-0.5-0.4-1.2-0.4-1.9
		c0-0.8,0.1-1.4,0.4-2c0.3-0.6,0.6-0.9,1-0.9C143.8,41.9,144.2,42.2,144.5,42.8 M142.1,54.9c-0.1-0.2-0.1-0.4-0.1-0.4l0.4,0.1
		l4.2,2.8c0.5,0.2,0.7,0.6,0.6,1.2l-0.6,3.9l-0.2,0.4l-0.4-0.2l-0.1-1.9l-0.6-0.4h-0.7l-3.6,2.6c-2.7,1.8-4.9,2.7-6.6,2.7
		c-1.7,0.1-3.7-0.3-5.8-1.3l-2.7-1.4l-0.5,0.1c-0.2,0.1-0.2,0.3-0.2,0.6l0.1,0.4l-0.1,0.4L125,64l-1.9-2.7l-0.2-0.7l0.2-0.7l1.4-1.9
		c0.2-0.2,0.3-0.3,0.4-0.2l0.1,0.3v0.6c0,0.2,0.1,0.4,0.2,0.6l0.6,0.2l2.8,0.4c2.1,0.2,3.7,0.3,4.9,0.1c1.9-0.3,4.7-1.2,8.4-2.8
		l0.6-0.5c0.2-0.2,0.2-0.4,0.1-0.7L142.1,54.9 M131.9,67.1l3.5-0.6l0.7,0.1l0.4,0.5l-0.1,0.6c-0.1,0.2-0.3,0.4-0.6,0.4l-2.5,0.1
		l-1.4-0.7l-0.3-0.3C131.5,67.2,131.6,67.2,131.9,67.1 M144.4,58.2l-2-0.1c-3.4,1.5-6.2,2.5-8.4,2.8c-1.4,0.2-3.1,0.2-5.3,0
		l-2.8-0.4c-0.7,0-1,0.2-0.8,0.7c0.2,0.6,0.5,0.9,0.8,0.9l5.2,1.5l3.4,0.1c1.4-0.1,2.6-0.3,3.4-0.6c1.1-0.4,3.2-1.6,6.1-3.4l0.7-0.6
		C144.9,58.8,144.8,58.5,144.4,58.2 M157.1,13.7l4.1-0.2l0.1-0.7l-3.9-1.1L157.1,13.7 M161.5,15.4l-0.2-0.7l-4,0.6l0.6,1.9
		L161.5,15.4 M151,18.3l-3.8-0.8c-0.4-0.1-0.8-0.3-1.3-0.6l-1.1-0.8c-1.4-0.8-2.5-1.2-3.3-1.1c-0.7,0.1-1.7,1.4-3,3.7l-1.4,2.1
		c-0.5,0.5-1.3,0.6-2.4,0.3l-3.4-0.2c-1,0.3-2.6,1.9-4.9,4.8c-0.8,1-1.8,1.6-3,1.9c-1.2,0.2-2.2-0.1-3.2-0.8c-0.7-0.5-1-1.2-1-2.4
		c-0.7,0.7-1.2,1.6-1.4,2.5c-0.4,1.2-0.3,2.6,0.1,4.2c0.4,1.6,1.2,2.8,2.2,3.8c0.7,0.6,1.6,0.8,2.6,0.6c0.9-0.2,1.8-0.7,2.7-1.5
		l1.8-2.6c1.2-1.6,2.1-2.6,2.6-2.9c0.9-0.6,1.6-0.8,2.3-0.7c0.2,0,0.9,0.2,1.9,0.7l1.1,0.5c0.4,0.2,0.9,0.1,1.5-0.2l4.7-3.2
		c1-0.5,2.4,0.1,4.3,1.9l3.3,3c0.4,0.1,1.3-0.2,2.5-0.9c1.5-0.7,2.5-1.1,3.1-1.2c2.7-0.5,4.6,0.6,5.6,3.2c0.3-1.2,0.8-2.1,1.6-2.5
		l0.2-1.5c-1.3-1.8-2.6-2.9-3.8-3.4l-2.6-2.9C154.2,19.4,152.6,18.4,151,18.3 M157.9,10.2l3.8,1.6l0.4-0.6l-3.2-2.6
		C158.7,8.8,158.3,9.4,157.9,10.2 M164.6,146.9c0.4-5.9,0.5-11.1,0.3-15.6l-7,0.9c-2.4,1.6-5.8,2.3-10.3,1.9c-4.8-0.4-7.6-2-8.4-4.8
		c0-0.2,0.1-0.3,0.4-0.4l-0.1-0.1c-2.2-1.3-3-3-2.4-5.2l0.2-0.3c-1.7-0.7-2.7-1.6-2.9-2.8c-0.1-0.5,0-1.1,0.2-1.8h-2.1l-8.5,23
		l0.3,0.2c0.5,0.5,0.8,1,0.9,1.6c0.2,0.8-0.1,1.5-0.7,2.1c-0.5,0.6-1.3,1.1-2.4,1.5l-0.3,0.1l-1.7,4.3l0.4,1.6l0.5,1.1l0.1,0.8
		c1,2.9,2.4,5.2,4.2,6.9c2.9,2.5,6.7,3.7,11.6,3.7l0.1,0.1c-1.8-11.9-2-22.4-0.6-31.4c0.1-0.2,0.2-0.1,0.5,0.4
		c0.3,0.6,0.4,1,0.3,1.2c-1.7,10.5-1.1,23.1,1.9,37.7c1.5,7.2,3,13.2,4.6,17.9c2.8,1.5,5.7,1.7,8.8,0.7c2.8-0.9,5.3-2.6,7.4-5.1
		c0-0.6,0.1-1.4,0.4-2.4l1.7-9c0.7-5,1.3-9.4,1.6-13.3L164.6,146.9 M162.4,73l0.2-0.1c-2.4-1.3-4.8-2.4-7.2-3.1l-0.2,1.6
		c-0.5,1.3-1.1,2.6-1.9,3.7c-1.8,2.3-4.5,3.9-8.2,4.9c-5.4,1.4-9.2,0.2-11.4-3.7c-1-0.3-2.8-1.2-5.4-2.8l-2-1.2l-0.5,0.1l-0.1,0.1
		c-2,5-2.9,10.7-2.8,17l-0.2,0.4l17.6-0.2c0.9,0,1.8,0.3,2.8,0.9c1,0.5,1.8,1.3,2.4,2.2h0l4.2,7.3c-0.3-6,0.4-11.2,2.3-15.8
		c0.4-0.9,0.8-1.7,1.2-2.5C155.4,77.9,158.5,75,162.4,73 M173.5,81c-2.8-2.7-5.8-5.1-9-7.1l-0.8,0.6c-5.3,2.7-8.7,7.6-10.1,14.8
		l-0.4,2.2c-0.5,3.5-0.5,7.2,0,11.1c0.2,1.8,0.6,3.6,1,5.5l0.2,0.4l0.3,1.1c0.5-0.4,1-0.8,1.5-1.1c1.3-0.8,2.9-1.5,4.8-1.9
		c-1.8-3.2-3.3-7.1-4.6-11.7c-0.1-0.4,0.1-0.7,0.6-0.8c0.6-0.1,0.9,0,1,0.3c1.3,4.6,2.8,8.5,4.5,11.6l0.1,0.2l5.6-0.4
		c0.5,0,0.6,0.2,0.3,0.4c-0.3,0.3-0.6,0.4-0.9,0.4c-4-0.1-7.2,0.5-9.7,1.9c-0.9,0.5-1.6,1.1-2.4,1.8l-1.2,1.2c0,0.2,0.2,0.5,0.6,1.1
		c2.2,2.7,3.6,5.5,4.3,8.4c0.9,3.3,0.6,6.4-0.6,9.2l-0.4,0.9l-0.3,0.2l2.1-0.2c4.7-0.6,8.4-1.3,11.1-2.1c6.9-2,11.4-4.8,13.5-8.2
		c1.7-2.8,2.5-6.2,2.2-10.3l-0.2-1.9c-0.4-2.5-1.1-5.4-2.1-8.6C182.4,92.3,178.6,86,173.5,81 M169.8,12.9l0.1,0.8l4.3,0.2l-0.2-2
		L169.8,12.9 M169,16.3l-0.5,0.6l2.6,3.1l0.1,0.2l1.4-1.4C171.5,18.1,170.3,17.3,169,16.3 M169.8,14.7l-0.2,0.7
		c1.7,0.8,2.9,1.5,3.8,2l0.7-1.9L169.8,14.7 M167.9,10.1l0.5,0.5l3.1-3.1l-1.6-1.2L167.9,10.1 M166.2,9.6l0.6,0.2l1.6-4.1l-1.9-0.4
		L166.2,9.6 M166.8,12.3c-0.3-0.4-0.7-0.6-1.1-0.7c-0.5-0.1-0.9,0-1.3,0.3c-0.4,0.3-0.6,0.6-0.6,1.1c-0.1,0.7,0.2,1.2,0.8,1.6
		l0.4,0.2l-1.9,14.8l-0.3,0.2c-0.8,0.4-1.3,1.3-1.5,2.6c-0.1,0.9-0.3,2.1-0.8,3.6l-1.1,4.7l-0.2,0.1l-1,1l-1.3,2.1
		c-1.1,2.1-1.9,4.8-2.4,8.1c-0.3,2.3-0.4,4.5-0.2,6.5c0.2,2,0.6,3.6,1.2,4.8l0.6,0.9l0.2,0.3h0.1l0.2,0.2l0.4,0.2l0.5,0.1h0.5
		c0.9-0.1,1.8-0.8,2.8-2.1l0.1-0.2l0.2-0.1c1.3-0.3,2.5-1.3,3.6-2.9c1-1.7,1.7-3.7,2.1-6.1v-0.8l0.1-0.2c0.2-2.3,0-4.4-0.7-6.2
		l-0.7-1.3l-0.1-0.1l-0.9-1.1l-0.9-0.7l0.1-1.9c0.1-3.5,0.4-6.3,0.9-8.3l0.1-1.2c0-0.7-0.1-1.2-0.4-1.6l-0.4-0.4l-0.2-0.2l0.3-2.6
		h0.1l1.6-12.2l0.4-0.1c0.7-0.2,1.1-0.6,1.2-1.4C167.2,13.1,167.1,12.7,166.8,12.3 M163.1,43.7c0.8,0.1,1.4,0.5,1.9,1.2
		c0.6,0.8,1.1,2,1.3,3.5c0.2,1.5,0.2,3.2,0,5c-0.3,2.6-1,4.7-2.1,6.4c-1.1,1.6-2.3,2.3-3.6,2.1c-1.3-0.2-2.2-1.2-2.8-3
		c-0.6-1.8-0.7-4.1-0.4-6.7c0.4-2.6,1.1-4.7,2.2-6.4C160.7,44.3,161.8,43.5,163.1,43.7 M164.1,45.7c-0.3-0.4-0.7-0.7-1.1-0.8
		c-0.8-0.1-1.6,0.5-2.4,1.9c-0.9,1.5-1.5,3.3-1.8,5.6c-0.3,2.2-0.2,4.2,0.3,5.9c0.4,1.5,1.1,2.3,1.9,2.4c0.8,0.1,1.6-0.5,2.4-1.9
		c0.9-1.5,1.5-3.3,1.8-5.6c0.2-1.5,0.2-3,0-4.4C164.9,47.4,164.6,46.4,164.1,45.7 M162.9,10.4l0.6-0.4l-1.9-3.8L160,7.4
		C161,8.4,162,9.4,162.9,10.4 M165,5.2l-1.9,0.4l1.4,4l0.7-0.1L165,5.2 M173.5,10.4l-1-1.8l-3.4,2.7l0.3,0.6L173.5,10.4z"/>
</g>
</svg>
