<?xml version="1.0" encoding="utf-8"?>
<!-- Generator: Adobe Illustrator 25.4.1, SVG Export Plug-In . SVG Version: 6.00 Build 0)  -->
<svg version="1.1" id="FortuneFinder_x2C_PerkClip_x5F_4c942" image-rendering="auto"
	 xmlns="http://www.w3.org/2000/svg" xmlns:xlink="http://www.w3.org/1999/xlink" x="0px" y="0px" viewBox="0 0 240 240"
	 style="enable-background:new 0 0 240 240;" xml:space="preserve">
<style type="text/css">
	.st0{fill:#FFFFFF;}
</style>
<g>
	<rect width="240" height="240"/>
	<path class="st0" d="M102.4,221.2l0.8-7c-2.9-0.2-5.5-0.8-7.8-1.6c-2.3-0.9-4.1-2-5.4-3.3c-1.5-1.6-2.1-3.2-1.8-5
		c0.2-0.9,0.6-1.7,1.2-2.6l-9.2-1.2c-2.3,2-3.6,4-4,6.2c-0.4,2.4,0.4,4.6,2.3,6.6c2.1,2.2,5.4,4.1,9.7,5.4
		C92.3,220.3,97.1,221.1,102.4,221.2 M126.6,216.9c6.1-2.8,9.5-6.1,10.2-10c0.3-1.9-0.1-3.7-1.3-5.4l-11.2,1.1c0.5,1,0.7,2,0.5,3.1
		c-0.5,2.4-2.5,4.4-6,6.1c-3.5,1.7-7.7,2.5-12.4,2.6l-1.1,6.9C113.3,221.1,120.4,219.7,126.6,216.9 M124,167.7l0.8-0.4l-0.4-0.9
		L124,167.7 M124.6,165.4l0.6,1.4c0.3-0.4,0.4-0.9,0.2-1.4c-0.1-0.3-0.3-0.6-0.7-0.9L124.6,165.4 M126.6,157.5c1-0.6,1.3-1.3,0.9-2
		l-0.3-0.5L126.6,157.5 M144.6,171.9l-1-2.6c-1.6,2.3-3.4,4-5.2,5.1c-2.4,1.4-4.7,1.8-6.9,1c-0.3-0.1-0.7-0.3-1.1-0.6
		c0.6,4.1,1.4,7.2,2.3,9.3c1.6,3.5,3.7,4.6,6.4,3.1c2.2-1.2,3.7-3.5,4.7-6.9C144.4,177.9,144.7,175.1,144.6,171.9 M119.2,195.5
		l0.1,0.4c0.2,0.4,0.2,0.8,0,1.2c-0.2,0.3-0.5,0.5-1,0.5h-0.2c1.9,0.8,3.5,1.7,4.6,2.8l11.1-0.9c-3.1-2.8-7.8-4.8-14.2-6.1
		L119.2,195.5 M112,192.8l1.2,3.2h4.4l-0.3-0.9l0.1-0.1l5.1-20.4l-9.7-4.9l-5.2,20.9L112,192.8 M117,176.1c0.4,0.3,0.8,0.7,0.9,1.2
		c0.2,0.5,0.2,0.8,0,1.1c-0.2,0.3-0.6,0.5-1,0.5c-0.5,0-0.9-0.2-1.4-0.5c-0.5-0.3-0.8-0.7-0.9-1.1c-0.2-0.5-0.2-0.9,0-1.2
		c0.2-0.3,0.5-0.5,1-0.5C116.1,175.6,116.5,175.8,117,176.1 M111.7,187.6c-0.2-0.4-0.2-0.8,0.1-1.2c0.2-0.3,0.5-0.5,1-0.5
		c0.5,0,0.9,0.2,1.3,0.5c0.5,0.3,0.8,0.7,1,1.2c0.2,0.5,0.2,0.9-0.1,1.2c-0.2,0.3-0.5,0.5-1,0.5c-0.5,0-0.9-0.2-1.4-0.5
		C112.2,188.5,111.9,188.1,111.7,187.6 M110.8,193.7l-2.6-1.3c-5.1,0.1-10,0.7-14.7,1.9c-4.6,1.2-8.5,2.8-11.6,4.9l9.2,0.9
		c1.8-1.4,4.2-2.4,7.2-3.2c2.9-0.8,6.1-1.1,9.4-1.1l3.9,0.3L110.8,193.7 M115.6,169.4l5.3,2.7l2.2-8.7c-1.3-0.6-2.8-0.9-4.5-0.9
		l-1.3,0.1L115.6,169.4 M115.2,163.2c-1.2,0.5-1.6,1.3-1.2,2.2l0.5,0.8L115.2,163.2 M120.7,152.6l-0.8,0l-2.2,8.8h0.6
		c1.8,0,3.5,0.3,5.2,1l2.2-8.8C124.2,153,122.6,152.6,120.7,152.6 M116.9,156.6l0.9-3.6c-1.5,0.6-2.1,1.5-1.8,2.5L116.9,156.6
		L116.9,156.6 M113.2,137.4l7.9,2.5l0.9-3.7l-8.9-2.8C112.3,134.4,112.4,135.7,113.2,137.4 M118.8,145l0.8,1l0.8-3.4
		c-0.7,0.3-1.2,0.6-1.5,1C118.7,144,118.7,144.5,118.8,145 M91.9,127.2c-0.2,0.2-0.1,0.7,0.2,1.3c0.5,1.2,1.4,2.1,2.5,2.8l1.8,0.8
		l1.4,0.4c0-1.5,0-2.8,0.1-3.9l-5.2-1.5C92.4,127.1,92.1,127.1,91.9,127.2 M130.2,144.9l-0.2-0.5l-0.7,2.6
		C130.2,146.4,130.5,145.7,130.2,144.9 M123.5,142.1l-1,0l-2.4,9.4h0.2c2,0,3.8,0.4,5.6,1.1l2.4-9.5l-0.6-0.2
		C126.4,142.4,125,142.1,123.5,142.1 M122.8,133.4l0.6-2.8c-2.2-6.1-7.1-9.4-14.8-10.1c-3-0.2-5.4,1.2-7.3,4.2
		c-1.7,2.8-2.4,5.9-1.9,9.2c0.3,2.2,1.4,3.9,3.2,5.1c0.6,0.5,1.1,0.6,1.3,0.5c0.3-0.2,0.1-0.6-0.4-1.3c-1.2-1.6-1.8-3.4-1.9-5.2
		l0.2-2.4l0.3-0.4l0.7,0.1c0.6,0.2,0.9,0.6,0.8,1.1c-0.1,1.6-0.1,2.9,0.1,3.9c0.3,1.7,1,3.2,2.2,4.5c1.1,1.1,2.3,1.8,3.6,2.1
		c1.4,0.2,1.2-0.3-0.5-1.4c-1.7-1-2.7-2.6-3.2-4.7l-0.3-4.2c0-0.2,0-0.4,0.2-0.5l0.6-0.1c0.5,0.1,0.9,0.4,1,0.9
		c0.3,0.9,0.5,2.4,0.6,4.3c0.4,1.7,1.5,3.1,3.3,4.4c1.4,0.9,2.3,1.1,2.9,0.6c0.5-0.4,0.3-1-0.8-1.8c-1.4-0.9-2.3-2-2.8-3.3
		c-0.6-1.8,0-3.3,2-4.7h0.1c1.5-0.7,3-0.7,4.6-0.1c1.2,0.5,2.3,1.2,3.3,2.3H122.8 M131.1,109.9l-0.6,0.6l-7.8,30.5h0.3
		c1.6,0,3.3,0.3,4.9,0.9l0.5,0.2l7.4-29.6l-0.5-0.9c-0.5-0.7-1.2-1.2-2.1-1.6L131.1,109.9 M143.3,119.1l0.8-0.4l-2.1-1.4
		c0,0.7-0.1,1.2-0.4,1.8v0.1H143.3 M144.8,115.8c-0.6-0.7-1.2-1.3-2.1-1.8c-0.8-0.4-1.4-0.6-1.8-0.6c-0.2,0-0.3,0.1-0.4,0.2
		c0,0.5,0.3,1.1,0.9,1.8c0.6,0.7,1.3,1.3,2.1,1.8c0.7,0.5,1.3,0.7,1.8,0.6l0.4-0.2C145.7,117.2,145.4,116.6,144.8,115.8
		 M149.9,111.2c-0.8-0.6-2-0.8-3.8-0.7c-1.8,0.2-2.5,0.6-2,1.4c1,1.6,2.5,2.7,4.3,3.1l0.3,0.2c0.5,1.9-0.5,3.3-2.9,4.3
		c-1.6,0.7-3.6,1.1-5.9,1.2c-0.4,0-0.6-0.1-0.5-0.3c0.5-1,0.6-1.7,0.4-1.9c-0.2-0.2-0.7-0.2-1.2,0.2c-1.7,1.1-2.2,2.3-1.6,3.6
		c0.5,1,1.8,1.9,4,2.6l4.7,1c0.4,0.1,0.4,0.3,0,0.6l-1,0.3l-5.6-0.9c-0.2,1.3,0.2,2.4,1.2,3.3c0.8,0.7,2,1.2,3.6,1.6l3.1,0.4
		c0.4,0.1,0.4,0.2,0.1,0.4c-0.3,0.3-0.6,0.4-0.9,0.4l-4.8-0.6c1,2,3.3,3.1,7,3.4c3.6,0.3,6.1-0.2,7.5-1.4c2.1-2.7,2.9-5.9,2.5-9.6
		c-0.4-3.4-1.9-6.5-4.3-9.2c-0.8-0.1-1.6-0.5-2.3-1.2L149.9,111.2 M144.8,105.6c-0.5-0.7-1.1-1.3-2-1.8s-1.7-0.8-2.4-0.8l-25.8,0.5
		c-0.6,0-1,0.2-1.1,0.6c-0.1,0.3,0.1,0.8,0.6,1.4l8.9,10.9c0.9,1.1,2,1.9,3.5,2.3l2.6-10l0.6-0.9l3.9,0.1c1.8,0.6,2.9,1.6,3.5,3.1
		c0.3,0.7,0.4,1.4,0.4,2.1l-1.4,5.9h0.5c1.1-1.7,2.4-2.6,3.8-2.8h0.8l-0.1-0.2c-1.1-1.3-1.6-2.4-1.4-3.3c0.1-0.6,0.6-1,1.4-1.1
		l1.2,0.2l0.2-0.3c1.5-1.4,3.2-2.2,5.2-2.2L144.8,105.6 M142,106.8c1.1,1.4,1.6,2.5,1.4,3.4c-0.1,0.6-0.6,1-1.4,1.1
		c-0.8,0-1.8-0.3-2.9-0.9c-1.1-0.6-2.1-1.5-3-2.5c-1.1-1.3-1.6-2.4-1.4-3.4c0.2-0.6,0.6-1,1.4-1.1c0.8,0,1.8,0.3,2.9,0.9
		C140.2,104.9,141.2,105.8,142,106.8 M135.7,105.3c-0.1,0.5,0.2,1.1,0.9,1.8c0.6,0.7,1.3,1.3,2.1,1.8c0.7,0.4,1.3,0.6,1.8,0.6
		l0.4-0.2c0.1-0.4-0.2-1-0.9-1.8c-0.6-0.7-1.3-1.3-2.1-1.8c-0.7-0.5-1.3-0.7-1.8-0.6C135.9,105.1,135.8,105.2,135.7,105.3 M117,94.4
		c-0.8,0-1.5,0.3-2.2,0.7c-0.7,0.5-1.2,1-1.4,1.6l0,5.3l26.3-0.6c1.1,0,2.3,0.3,3.6,1c1.3,0.7,2.3,1.6,3,2.7l3.5,4.6
		c0.6,0.3,1.4,1,2.4,2.1c0.9,1,1.6,1.6,2.2,1.8l1.4-1.7l-0.8-1.4l-10.3-13.9c-0.5-0.7-1.1-1.3-1.9-1.8c-0.8-0.5-1.6-0.7-2.3-0.7
		L117,94.4 M119.8,97.2c0.2-0.5,0.6-0.8,1.2-0.8l14.6,0.1c0.2,0,0.4,0.1,0.5,0.2s0.2,0.4,0.1,0.6l-0.4,1.2l-0.4,0.6l-0.8,0.2
		l-14.6-0.1c-0.3,0-0.4-0.1-0.5-0.2c-0.1-0.1-0.1-0.3-0.1-0.6L119.8,97.2 M111.6,95.9l0.2-0.4c0.3-0.7,0.8-1.3,1.6-1.8
		c0.9-0.6,1.9-0.9,2.9-0.9h3.6c-0.1-6.1,0.7-11.6,2.4-16.3c-3.8,1.6-7.3,3.4-10.5,5.4l-1.4,0.9c-3.9,2.7-7.2,5.7-9.8,8.9
		c-3.7,4.6-5.7,9.9-5.8,15.8v1.1c0.1,5.4,1.8,10.4,5.1,14.9c1.7-2.5,4-3.9,6.8-4.2l5.3,0.3c1.5,0.3,3.1,1,4.9,1.9
		c-0.9-3.3-0.8-6.5,0.2-9.6l0.1-0.1l-4.6-5.7c-0.5-0.6-0.8-1.2-0.9-1.8l-0.1-0.9L111.6,95.9 M118.1,40.9c0.1,0.7,0.6,1.6,1.4,2.8
		c0.6-1.6,1.3-3.1,2.1-4.8c-0.7-0.1-1.4-0.5-2-1.1c-0.6-0.5-1.1-0.4-1.4,0.3C117.9,38.9,117.8,39.9,118.1,40.9 M158.5,40.8l0.8-3.1
		l-2.1,2.2L158.5,40.8 M134.4,32.2c-0.5-0.2-1-0.4-1.5-0.6c-1-0.3-1.7-0.3-2.2,0c-0.4,0.2-1.2,1.2-2.4,2.9l-2,2.7
		c-1.1,1-2.1,1.6-3.2,1.8c-2,3.7-3.3,7.4-3.8,10.9c-0.9,5.8,0,11.3,2.6,16.5c2.7,5.5,6.6,9.3,11.9,11.3c3,1.2,5.7,1.7,8.1,1.5
		l2.6-0.3c0.1,0.2-0.6,0.6-1.9,1.1l-2.7,0.6c1.8,1.1,4.5,0.7,8-1.1c3.6-1.9,5.5-4.2,5.6-6.8c-1.4,1-2.6,1.6-3.8,1.8
		c-1.2,0.2-1.3-0.1-0.3-0.8c2.1-1.5,4.1-3.5,5.9-6l-1-1.4c-0.7-1.3-1.1-3-1.3-5.2c-0.2-2.1-0.2-4.4,0.1-6.8c0.3-2.2,0.8-4.3,1.5-6.2
		c0.7-1.9,1.5-3.4,2.4-4.6l-1.3-0.9c-0.3-0.2-0.4-0.4-0.2-0.6c0.1-0.3,0.4-0.4,0.8-0.2c0.4,0.1,0.9,0.4,1.6,1l0.3-0.2l0.1-0.6
		c-0.9-0.6-1.8-1.1-2.6-1.6c-0.4-0.2-0.5-0.4-0.3-0.7c0.1-0.2,0.3-0.4,0.4-0.4c2.2-1.4,3-3,2.2-4.8c-0.7-1.7-1.9-2.4-3.4-2.1
		l-3.6,0.9l-4.1-0.1c-1.2-1.3-2.5-2.1-3.9-2.4c-1.3-0.3-2.5-0.1-3.5,0.5c-1,0.6-1.8,1-2.4,1.2L134.4,32.2 M128.2,39.9
		c0.1,0.3,0,0.5-0.1,0.8c-0.2,0.2-0.4,0.3-0.7,0.3l-3.3,0.3l-0.4-0.1l0.3-0.4l3.1-2.2l0.7-0.1c0.2,0.1,0.3,0.2,0.4,0.5L128.2,39.9
		 M124.8,46.2c0.3-0.5,0.7-0.8,1.1-0.8c0.4,0,0.8,0.2,1.1,0.8c0.3,0.5,0.5,1.2,0.5,2c0,0.8-0.1,1.4-0.4,2c-0.3,0.5-0.7,0.8-1.1,0.9
		c-0.4,0-0.8-0.3-1.1-0.9c-0.3-0.5-0.5-1.2-0.5-2C124.3,47.4,124.5,46.8,124.8,46.2 M134.1,45.8c0.2-0.5,0.4-0.8,0.8-0.8
		c0.3,0.1,0.4,0.4,0.2,0.9c-0.4,1.5-0.9,2.9-1.5,4.2l-1.6,3.4c-0.1,0.2-0.1,0.4-0.1,0.7l0.2,0.6l1.6,2c0.3,0.4,0.2,0.8-0.3,0.9
		c-0.8,0.4-1.4,0.4-2-0.2l-2-2.6c-0.3-0.4-0.3-0.9,0-1.4l3.1-4.5C133.1,48.3,133.6,47.2,134.1,45.8 M143.6,36.9l0.6,0.1l1.9,1.7
		c1.2,1.2,1.8,2.2,1.6,2.9l-5.5-2.4c-0.1-0.2,0-0.5,0.4-1.1l0.6-0.8L143.6,36.9 M142.4,45.4c0.3-0.6,0.6-0.9,1-0.9
		c0.4,0,0.8,0.3,1.1,0.9c0.3,0.6,0.5,1.2,0.5,2c0,0.8-0.2,1.4-0.4,2c-0.3,0.6-0.6,0.9-1.1,0.8c-0.4,0-0.8-0.3-1.1-0.8
		c-0.3-0.5-0.4-1.2-0.4-1.9C141.9,46.6,142.1,45.9,142.4,45.4 M142.5,57l4.2,2.8c0.5,0.3,0.7,0.7,0.6,1.2l-0.6,3.9l-0.2,0.4
		l-0.4-0.2l-0.1-1.9l-0.6-0.4h-0.7l-3.6,2.6c-2.7,1.8-4.9,2.7-6.6,2.7c-1.7,0.1-3.7-0.3-5.8-1.3l-2.7-1.4l-0.5,0.1
		c-0.2,0.1-0.2,0.3-0.2,0.6l0.1,0.4l-0.1,0.4l-0.3-0.2l-1.9-2.7l-0.2-0.7l0.2-0.7l1.4-1.9c0.2-0.2,0.3-0.3,0.4-0.2l0.1,0.3v0.6
		c0,0.2,0.1,0.4,0.2,0.6l0.6,0.2l2.8,0.4c2.1,0.2,3.7,0.3,4.9,0.1c1.9-0.3,4.7-1.2,8.4-2.8l0.6-0.5c0.2-0.2,0.2-0.4,0.1-0.7
		l-0.5-1.3c-0.1-0.2-0.1-0.4-0.1-0.4L142.5,57 M135.4,69.1l0.7,0.1l0.4,0.5l-0.1,0.6c-0.1,0.2-0.3,0.4-0.6,0.4l-2.5,0.1l-1.4-0.7
		l-0.3-0.3c0-0.1,0.1-0.2,0.4-0.2L135.4,69.1 M144.4,60.7l-2-0.1c-3.4,1.5-6.2,2.5-8.4,2.8c-1.4,0.2-3.1,0.2-5.3,0l-2.8-0.4
		c-0.7,0-1,0.2-0.8,0.7c0.2,0.6,0.5,0.9,0.8,0.9l5.2,1.5l3.4,0.1c1.4-0.1,2.6-0.3,3.4-0.6c1.1-0.4,3.2-1.6,6.1-3.4l0.7-0.6
		C144.9,61.3,144.8,61,144.4,60.7 M145.9,19.4l-1.1-0.8c-1.4-0.8-2.5-1.2-3.3-1.1c-0.7,0.1-1.7,1.4-3,3.7l-1.4,2.1
		c-0.5,0.5-1.3,0.6-2.4,0.3l-3.4-0.2c-1,0.3-2.6,1.9-4.9,4.8c-0.8,1-1.8,1.6-3,1.9c-1.2,0.2-2.2-0.1-3.2-0.8c-0.7-0.5-1-1.2-1-2.4
		c-0.7,0.7-1.2,1.6-1.4,2.5c-0.4,1.2-0.3,2.6,0.1,4.2c0.4,1.6,1.2,2.8,2.2,3.8c0.7,0.6,1.6,0.8,2.6,0.6c0.9-0.2,1.8-0.7,2.7-1.5
		l1.8-2.6c1.2-1.6,2.1-2.6,2.6-2.9c0.9-0.6,1.6-0.8,2.2-0.7c0.3,0,0.9,0.2,1.9,0.7l1.2,0.5c0.4,0.2,0.9,0.1,1.5-0.2l4.7-3.2
		c1-0.5,2.4,0.1,4.3,1.9l3.3,3c0.4,0.1,1.3-0.2,2.5-0.9c1.5-0.7,2.5-1.1,3.1-1.2c1.5-0.3,2.8-0.1,3.8,0.8c0.7,0.5,1.3,1.4,1.7,2.4
		c0.3-1.2,0.9-2.1,1.7-2.5l0.2-1.5c-1.3-1.8-2.6-2.9-3.8-3.4l-2.6-2.9c-1.4-1.7-3-2.6-4.6-2.8l-3.8-0.8
		C146.8,19.9,146.4,19.7,145.9,19.4 M169.1,185.5c0.2-1.2,0-2.2-0.4-3.2l-1.5-2.6c-0.7,3.5-1.9,6.2-3.9,8.2
		c-1.4,1.5-3.1,2.4-5.1,2.9c-2.3,0.6-4.3,0.3-5.9-0.8l-3,4.6c-1.3,2.3-2.1,4.1-2.2,5.5c-0.2,1.2,0.7,2,2.5,2.2l4-0.2
		c2.8-0.6,5.3-1.9,7.6-4.1c2-1.9,3.7-4.3,5.1-7.1l0.1-2.4c0-1.2,0.2-2,0.7-2.2l1.2-0.1C168.8,186.4,169.1,186.1,169.1,185.5
		 M165.4,159.1c-0.3,1.2-1.2,2.6-2.6,4.1l-3.1,3.1c-0.2,0.1-0.4-0.1-0.6-0.7c-0.2-0.6-0.3-1-0.1-1.2c3.8-3.7,6.2-8.5,7.2-14.6
		c0.7-3.9,0.8-9.5,0.3-16.7l-9.9,0.9c-2.3,1.6-5.5,2.2-9.7,1.7c-4.4-0.5-6.9-2.1-7.4-4.6c0-0.2,0.1-0.4,0.4-0.5
		c-2.2-1.2-2.9-3-2.1-5.2l0.2-0.2c-1.9-0.8-2.8-1.7-2.6-2.8l0.1-0.3l-5,20.5l-0.1,0.6l0.4,0.2l-0.1,0c0.6,0.4,1,0.9,1.2,1.6
		c0.3,0.7,0.2,1.4-0.3,2.1c-0.5,0.7-1.2,1.2-2.3,1.4l-0.3,0.2l-1.3,5c0.8,0.5,1.3,1.2,1.5,1.9c0.3,0.8,0.2,1.5-0.3,2.1
		c-0.5,0.6-1.4,1.1-2.5,1.4l-1.1,4.2c1,0.7,1.6,1.4,1.9,2.1c0.4,1.1,0.1,2-1,2.8c1.7,3.2,3.7,5,5.8,5.5c3.9,0.8,7.6-1.2,11.1-6.1
		c-1.9-4.8-3.4-9.1-4.4-12.9c-1.3-4.7-2.1-9.2-2.5-13.4c0-0.6,0.1-0.7,0.4-0.2l0.4,1.1c0.4,4.7,1.4,9.7,2.9,14.9
		c0.8,2.9,2.1,6.6,3.9,10.9l6.8,15.6c0.8,1.9,1.4,3.5,1.9,4.9c1.6,1,3.6,1.2,5.9,0.6c2.1-0.6,3.8-1.6,5-3.2c1.8-2.2,2.9-4.9,3.5-8.1
		c0.4-2.2,0.6-4.3,0.6-6.1C167.2,166.9,166.6,162.8,165.4,159.1 M173.8,84.1c-2.9-2.9-6-5.4-9.3-7.4l-0.7,0.4
		c-4.7,2.4-7.9,6.6-9.6,12.6c-1.4,5-1.6,10.6-0.7,16.8l2.8,3.7l0.6,0.9c1.1-0.8,2.6-1.5,4.3-1.9c-1.8-3.2-3.3-7.1-4.6-11.7
		c-0.1-0.4,0.1-0.7,0.6-0.8c0.6-0.1,0.9,0,1,0.3c1.3,4.6,2.8,8.5,4.5,11.6l0.1,0.2l5.7-0.4c0.5,0,0.6,0.2,0.3,0.4
		c-0.3,0.3-0.6,0.4-0.9,0.4c-5.5-0.2-9.3,1-11.4,3.6c-0.5,0.6-0.7,1-0.6,1.2l0.9,1.2c4.3,6.8,4.7,12.6,1.1,17.5l-0.3,0.4l9.1-0.8
		c0-0.2,0.1-0.2,0.2-0.1l4.9-1c6.5-1.8,10.9-4.3,13.2-7.7c3.1-4.5,3.2-11.1,0.4-19.7C182.8,95.8,178.9,89.1,173.8,84.1 M162.4,75.5
		l0.1-0.1c-2.4-1.3-4.7-2.4-7.1-3.1l-0.2,1.6c-1.4,4.3-4.8,7.2-10.1,8.6c-5.4,1.4-9.2,0.2-11.4-3.7c-1.3-0.4-3.8-1.7-7.4-4l-0.5,0.1
		l-0.1,0.1c-2,5-2.9,10.7-2.8,17l-0.2,0.6l16.9-0.1c0.9,0,1.9,0.2,3,0.9c1.1,0.6,2,1.3,2.7,2.1l0,0.1l4.4,5.8
		c-0.2-5.7,0.7-10.6,2.6-14.9C154.5,81.5,157.9,77.8,162.4,75.5 M162.5,15.9l0.1-0.5l-1.1-0.2l-0.1,0.8H162.5 M162.7,17.2l-0.1-0.5
		l-1.1,0.2l0.2,0.8L162.7,17.2 M163.1,14.4l-0.9-0.8l-0.4,0.7l1.1,0.4L163.1,14.4 M163.5,12.5c-0.3,0.1-0.5,0.3-0.7,0.4l0.8,0.9
		l0.4-0.3L163.5,12.5 M166.8,14.8c-0.3-0.4-0.7-0.6-1.1-0.7c-0.5-0.1-0.9,0-1.3,0.3c-0.4,0.3-0.6,0.6-0.6,1.1
		c-0.1,0.7,0.2,1.2,0.8,1.6l0.4,0.2l-1.9,14.8l-0.3,0.2c-0.8,0.4-1.3,1.2-1.5,2.6c-0.1,0.9-0.3,2.1-0.8,3.6l-1.1,4.7l-0.2,0.1l-1,1
		l-1.3,2.1c-1.1,2.1-1.9,4.8-2.4,8.1c-0.3,2.3-0.4,4.5-0.2,6.5c0.2,2,0.6,3.6,1.2,4.8l0.6,0.9l0.2,0.3h0.1l0.2,0.2l0.4,0.2l0.5,0.1
		h0.5c0.9-0.1,1.8-0.8,2.8-2.1l0.1-0.2l0.2-0.1c1.3-0.3,2.5-1.3,3.6-2.9c1-1.7,1.7-3.7,2.1-6.1v-0.8l0.1-0.2c0.2-2.3,0-4.4-0.7-6.2
		l-0.7-1.3l-0.1-0.1l-0.9-1.1l-0.9-0.7l0.1-1.9c0.1-3.5,0.4-6.3,0.9-8.3l0.1-1.2c0-0.7-0.1-1.2-0.4-1.6l-0.4-0.4l-0.2-0.2l0.3-2.6
		h0.1l1.6-12.2l0.4-0.1c0.7-0.2,1.1-0.6,1.2-1.4C167.2,15.6,167.1,15.2,166.8,14.8 M163.1,46.2c0.8,0.1,1.4,0.5,1.9,1.2
		c0.6,0.8,1.1,2,1.3,3.5c0.3,1.5,0.3,3.2,0,5c-0.3,2.6-1,4.7-2.1,6.4c-1.1,1.6-2.3,2.3-3.6,2.1c-1.3-0.2-2.2-1.2-2.8-3
		c-0.6-1.8-0.7-4.1-0.4-6.7c0.4-2.6,1.1-4.7,2.2-6.4C160.7,46.8,161.8,46,163.1,46.2 M164.1,48.2c-0.3-0.4-0.7-0.7-1.1-0.8
		c-0.8-0.1-1.6,0.5-2.4,1.9c-0.9,1.5-1.5,3.3-1.8,5.6c-0.3,2.2-0.2,4.2,0.3,5.9c0.4,1.5,1.1,2.3,1.9,2.4c0.8,0.1,1.6-0.5,2.4-1.9
		c0.9-1.5,1.5-3.3,1.8-5.6c0.2-1.5,0.2-3,0-4.4C164.9,49.9,164.6,48.9,164.1,48.2 M169.1,17.7l0.2-0.8l-1.1-0.2l-0.1,0.4L169.1,17.7
		 M167.8,17.9l-0.3,0.3l0.6,0.8l0.5-0.5L167.8,17.9 M168.4,16.1l1.1,0.1l-0.1-0.8l-1.1,0.2L168.4,16.1 M168.2,13.1l-0.6-0.5
		l-0.6,1.1l0.4,0.2L168.2,13.1 M168.1,14.9l1.1-0.4l-0.4-0.6l-0.9,0.7L168.1,14.9 M166.8,12.2L166,12l-0.1,1.2l0.4,0.1L166.8,12.2
		 M165.1,11.9l-0.8,0.2l0.4,1.2l0.4-0.1L165.1,11.9z"/>
</g>
</svg>
