<?xml version="1.0" encoding="utf-8"?>
<!-- Generator: Adobe Illustrator 25.4.1, SVG Export Plug-In . SVG Version: 6.00 Build 0)  -->
<svg version="1.1" id="FortuneFinder_x2C_PerkClip_x5F_4c942" image-rendering="auto"
	 xmlns="http://www.w3.org/2000/svg" xmlns:xlink="http://www.w3.org/1999/xlink" x="0px" y="0px" viewBox="0 0 240 240"
	 style="enable-background:new 0 0 240 240;" xml:space="preserve">
<style type="text/css">
	.st0{fill:#FFFFFF;}
</style>
<g>
	<rect width="240" height="240"/>
	<path class="st0" d="M82.1,215.1c-0.3,2.5,0.5,4.8,2.5,7c2.1,2.3,5.3,4.2,9.5,5.6c4.2,1.4,8.8,2.2,13.9,2.3l0.4-7.2
		c-2.8-0.2-5.4-0.8-7.6-1.7c-2.3-0.9-4.1-2-5.3-3.4c-1.5-1.6-2.1-3.3-1.8-5.2c0.1-0.8,0.4-1.7,1-2.7l-8.9-1.1
		C83.6,210.8,82.4,212.9,82.1,215.1 M115,201.5l-2.5-1.4c-4.9,0.1-9.6,0.7-14.1,2c-4.4,1.3-8,3-10.9,5.1l8.8,0.9
		c1.7-1.5,3.9-2.6,6.8-3.4c2.8-0.8,5.8-1.2,9-1.2l3.8,0.2L115,201.5 M128.9,213.8c-0.3,2.5-2.2,4.6-5.5,6.3
		c-3.4,1.7-7.3,2.6-11.9,2.8l-0.8,7.2c7.8-0.1,14.6-1.6,20.4-4.6c5.8-2.9,9-6.4,9.5-10.4c0.3-1.9-0.2-3.8-1.4-5.7l-10.8,1.2
		C128.9,211.7,129.1,212.8,128.9,213.8 M123.4,205c-0.2,0.3-0.5,0.5-1,0.5h-0.1c1.9,0.8,3.4,1.8,4.5,2.9l10.7-0.9
		c-3.1-2.9-7.7-5-13.9-6.3l-0.4,2.2l0.2,0.4C123.6,204.2,123.6,204.6,123.4,205 M125.7,181.5l-9.4-5l-4.3,21.7l4.3,2.3l1.2,3.2h4.3
		l-0.4-0.9L125.7,181.5 M118.2,183.2c0.2-0.3,0.5-0.5,0.9-0.5c0.5,0,0.9,0.2,1.4,0.5l1,1.2c0.2,0.5,0.2,0.9,0,1.2
		c-0.2,0.3-0.5,0.5-1,0.5s-0.9-0.2-1.4-0.5c-0.4-0.4-0.7-0.8-0.9-1.2C118,184,118,183.6,118.2,183.2 M115.9,195.1
		c-0.2-0.5-0.2-0.9,0-1.2c0.2-0.3,0.5-0.5,0.9-0.5c0.4,0,0.9,0.2,1.4,0.5l1,1.2c0.2,0.5,0.2,0.9,0,1.2c-0.2,0.3-0.5,0.5-1,0.5
		c-0.5,0-0.9-0.2-1.3-0.5C116.4,196,116.1,195.6,115.9,195.1 M128.4,194.3l-2.5-4.2l-1.7,8.3C125.5,197.4,126.9,196.1,128.4,194.3
		 M128.2,172.1l-0.6-0.9l-0.7,3.3C128.1,173.8,128.6,173,128.2,172.1 M129.9,161.8l-0.3-0.5l-0.6,2.6
		C129.9,163.2,130.2,162.6,129.9,161.8 M132.1,150.8l-0.3-0.6l-0.6,2.7C132.1,152.3,132.4,151.6,132.1,150.8 M120.2,169.2l-1.4,7.1
		l5.2,2.8l1.8-9c-1.3-0.6-2.8-0.9-4.4-0.9L120.2,169.2 M117.2,175.4l0.2-1.2c-0.5-0.4-1-0.8-1.4-1.4l-0.6,1.9l1.1,0.2L117.2,175.4
		 M112.8,179.8l-0.3-0.1c-1.6-1.6-3.1-2.9-4.7-3.8c-2.3-1.3-4.1-1.4-5.5-0.4c-1.5,1.1-2,2.8-1.6,5c0.3,1.4,1.1,3.2,2.3,5.2
		c2.1,3.5,4.6,6.7,7.5,9.5l3.5-17.5L112.8,179.8 M117.2,172.1l0.5,0.8l0.6-3.1C117.2,170.4,116.8,171.2,117.2,172.1 M120.5,168h0.6
		c1.7,0,3.4,0.3,5,1l1.8-9.1c-1.5-0.8-3.1-1.1-4.8-1.1l-0.8,0.1L120.5,168 M119.4,164.1l-1.1-1l-1.2,5.8c0.5-0.3,1-0.5,1.6-0.6
		L119.4,164.1 M121.2,149.5c-0.3,0.4-0.3,0.9-0.1,1.4l0.8,1.1l0.7-3.6C122,148.7,121.5,149,121.2,149.5 M119.2,158.4l1.5-0.5l1-4.7
		c-0.7-0.4-1.2-0.9-1.5-1.4L119.2,158.4 M120.4,159.2c-0.7,0.3-1.2,0.7-1.5,1.1c-0.3,0.4-0.3,0.9-0.1,1.4l0.8,1.1v0.1L120.4,159.2
		 M120.8,146.9l-0.2,1.1c0.6-0.4,1.3-0.8,2.2-1l-2.1-0.7L120.8,146.9 M94.8,133.9c0.6,1.2,1.4,2.2,2.6,2.9c0.7,0.4,1.2,0.7,1.7,0.8
		l1.3,0.4c-0.1-1.3-0.1-2.7,0-4.1l-4.2-1.4c-0.8-0.3-1.4-0.3-1.6,0C94.5,132.8,94.5,133.2,94.8,133.9 M125.5,147.9l-0.9,0.1l-2,9.7
		h0.2c1.9,0,3.7,0.4,5.4,1.2l2-9.9l-0.5-0.2C128.3,148.2,127,147.9,125.5,147.9 M123.2,145.6l0.8-3.8l-8.8-2.9
		c-0.7,1-0.6,2.4,0.3,4.2L123.2,145.6 M122.3,138.9h2.2l0.5-2.9c-2.3-6.2-7.2-9.7-14.6-10.4c-2.9-0.2-5.2,1.2-6.9,4.3
		c-1.6,2.9-2.1,6.1-1.5,9.6c0.4,2.2,1.5,3.9,3.3,5.2c0.7,0.5,1.1,0.7,1.3,0.5c0.2-0.1,0.1-0.6-0.5-1.3c-1.3-1.6-2-3.4-2.1-5.4
		l0.1-2.6c0-0.2,0.1-0.3,0.3-0.4l0.7,0c0.5,0.2,0.8,0.6,0.8,1.1c0,1.7,0,3.1,0.2,4.1c0.3,1.8,1.1,3.4,2.3,4.6
		c1.1,1.2,2.3,1.9,3.6,2.1c1.3,0.2,1.1-0.2-0.5-1.4c-1.7-1-2.7-2.7-3.2-4.9l-0.5-4.4c0-0.2,0-0.4,0.1-0.5l0.5-0.1
		c0.5,0,0.8,0.3,1.1,0.9c0.3,1,0.5,2.5,0.7,4.5c0.4,1.8,1.5,3.3,3.3,4.5c1.3,0.9,2.3,1.1,2.8,0.6c0.5-0.4,0.3-1-0.8-1.8
		c-1.4-0.9-2.3-2.1-2.8-3.4c-0.6-1.8,0-3.4,1.8-4.9l0.1-0.1c1.3-0.7,2.8-0.7,4.3-0.1C120.2,137.1,121.3,137.8,122.3,138.9
		 M124.7,132l0.9,1.6l1.6-8.4c-1.5-0.6-2.9-1.5-4.1-2.9l-0.5,7L124.7,132 M133.8,114.7l-2.1-0.2l-0.5,0.6l-6.4,31.7h0.2
		c1.6,0,3.2,0.3,4.8,0.9l0.6,0.2l6-30.7l-0.5-0.9C135.3,115.6,134.6,115,133.8,114.7 M138.2,110c-0.8-0.5-1.4-0.7-1.8-0.6l-0.3,0.2
		c-0.1,0.4,0.2,1,0.9,1.9c0.6,0.7,1.3,1.3,2.1,1.8c0.7,0.5,1.3,0.7,1.8,0.7l0.3-0.2c0-0.5-0.3-1.1-0.9-1.9
		C139.7,111.1,139,110.5,138.2,110 M143.9,123.2l-1.8-1.4l-0.4,1.6l-0.3,0.6h0.9L143.9,123.2 M145.9,122.1c-0.1-0.4-0.3-0.9-0.8-1.5
		c-0.6-0.7-1.3-1.4-2.1-1.9c-0.7-0.5-1.3-0.7-1.8-0.6c-0.2,0-0.3,0.1-0.3,0.2c-0.1,0.4,0.2,1.1,0.9,1.9c1,1.3,2.1,2.1,3.2,2.4
		L145.9,122.1 M144.6,115.5l-0.5,0.5c0.9,1.8,2.4,2.9,4.4,3.4l0.3,0.2c0.5,1.9-0.4,3.4-2.9,4.4c-1.7,0.7-3.6,1.1-5.9,1.2
		c-0.4,0-0.6-0.1-0.5-0.3c0.5-1,0.6-1.7,0.4-1.9c-0.2-0.2-0.7-0.2-1.3,0.2c-1.7,1.1-2.2,2.3-1.6,3.6c0.5,1.1,1.8,1.9,4,2.6l4.7,1.1
		c0.4,0.1,0.4,0.3,0,0.5l-1,0.3l-5.5-0.9c-0.2,1.3,0.1,2.4,1.1,3.3c0.8,0.7,2,1.3,3.6,1.7l3.2,0.4c0.4,0.1,0.4,0.2,0,0.5l-0.8,0.4
		l-4.9-0.6c1,2.1,3.6,3.2,7.7,3.4c3.9,0.2,6.5-0.5,7.9-2l0-0.1c1.4-2,2.1-4.2,2.1-6.6c0.1-2.3-0.5-4.6-1.6-7l-1.4-2.2
		c-0.8-1.1-1.3-2-1.4-2.5c-0.9-0.1-1.6-0.4-2.4-0.9l-1.8-1.8C148.7,114,146.7,113.8,144.6,115.5 M144.8,110
		c-0.5-0.7-1.2-1.4-2.1-1.9c-0.9-0.5-1.6-0.8-2.3-0.8l-24.9,0.6c-0.6,0-0.9,0.2-1,0.6c-0.1,0.4,0.1,0.9,0.6,1.4l8.9,11.3
		c0.9,1.1,2,1.9,3.5,2.4l2.1-10.4l0.6-0.9l3.8,0.1c1.7,0.6,2.9,1.7,3.5,3.2c0.3,0.8,0.5,1.5,0.4,2.1l-0.9,5.2
		c1.1-1.4,2.2-2.2,3.5-2.3h0.8c-1-1.2-1.4-2.3-1.2-3.2c0.1-0.7,0.5-1,1.2-1.1l1.3,0.2l-0.1-0.2c-0.1-0.1,0-0.2,0.2-0.2l0.5-0.5
		l-0.7,0.2c-0.8,0-1.8-0.3-2.8-0.9c-1.1-0.7-2.1-1.5-3-2.6c-1.1-1.3-1.6-2.5-1.4-3.5c0.1-0.7,0.6-1,1.2-1.1c0.8-0.1,1.8,0.2,2.9,0.9
		s2.1,1.5,2.9,2.6c1.1,1.4,1.6,2.5,1.4,3.5l-0.3,0.7c1.2-1,2.6-1.5,4.1-1.6L144.8,110 M142.2,98.9c-0.8-0.5-1.6-0.8-2.3-0.8
		l-22.3,0.3c-0.8,0-1.5,0.3-2.2,0.8c-0.7,0.5-1.1,1-1.3,1.7l0.1,5.6l25.4-0.7c1,0,2.2,0.3,3.5,1.1c1.2,0.7,2.2,1.7,3,2.8l3.3,4.4
		c0.7,0.3,1.7,1,2.9,2.2c1.1,1.1,2,1.8,2.7,2l0.7-1.1c-0.3-0.8-0.6-1.4-1-1.9l-10.4-14.4h-0.1C143.7,100,143.1,99.4,142.2,98.9
		 M135.6,100.5c0.3,0,0.4,0.1,0.6,0.2l0.1,0.6l-0.3,1.3c-0.1,0.5-0.5,0.8-1.1,0.8h-14.1c-0.2,0-0.4-0.1-0.5-0.2
		c-0.1-0.2-0.2-0.3-0.1-0.6l0.3-1.3c0-0.2,0.2-0.4,0.4-0.6l0.7-0.2L135.6,100.5 M122.8,96.6l16.4-0.2c0.9,0,1.9,0.2,2.9,0.9
		c1.1,0.6,2,1.3,2.8,2.2v0.1l4.8,6.5c-0.2-5.7,0.7-10.8,2.5-15.1c2.1-5,5.4-8.7,10-11.1c-2.2-1.3-4.4-2.4-6.8-3.2l-0.2,1.6
		c-1.4,4.3-4.8,7.2-10.1,8.6c-5.4,1.5-9.2,0.3-11.4-3.6c-1.3-0.4-3.8-1.7-7.4-4.1l-0.6,0.2c-2,5-2.9,10.7-2.8,17L122.8,96.6
		 M109.3,87.5c-4.3,3.1-7.7,6.5-10.2,10.1c-3.2,4.7-4.4,10-3.6,15.8c0.7,5.4,3,10.4,6.8,15c1.6-2.4,3.7-3.7,6.2-4
		c2.4-0.2,4.6,0,6.6,0.7c-0.5-1.6-0.4-3.2,0.2-4.8c0.6-1.6,1.6-2.9,2.9-4l-4.3-5.5c-0.8-0.9-1.2-1.8-1.2-2.7l-0.3-8.1l0-0.1
		c0.2-0.9,0.7-1.6,1.6-2.2c0.8-0.6,1.8-1,2.8-1l2.9-0.1c-0.1-6.1,0.8-11.4,2.5-16.1C117.4,82.5,113.1,84.8,109.3,87.5 M119.5,42.1
		c-0.6-0.5-1-0.4-1.3,0.3c-0.3,0.7-0.4,1.6-0.2,2.7c0.1,0.5,0.6,1.5,1.3,2.8l2.2-4.8C120.8,43,120.1,42.7,119.5,42.1 M157.1,44
		l1.3,0.9l0.8-3.2L157.1,44 M134.4,36.4c-0.5-0.3-1-0.5-1.5-0.6c-1-0.3-1.7-0.3-2.2,0c-0.4,0.3-1.2,1.2-2.4,2.9l-1.9,2.7
		c-1.1,1-2.1,1.6-3.2,1.8c-2,3.6-3.3,7.3-3.8,10.9c-0.9,5.8,0,11.3,2.6,16.5c2.7,5.5,6.7,9.3,11.9,11.3c3,1.2,5.7,1.7,8.1,1.5
		l2.6-0.3c0.1,0.2-0.5,0.6-1.9,1.1l-2.6,0.6c1.8,1.1,4.4,0.7,7.9-1.1c3.6-2,5.5-4.2,5.7-6.8c-1.4,1-2.6,1.6-3.8,1.8
		c-1.2,0.2-1.3-0.1-0.3-0.8c2.1-1.6,4.1-3.6,5.9-6l-1-1.4c-0.7-1.3-1.1-3-1.3-5.1c-0.2-2.1-0.2-4.4,0.1-6.9c0.3-2.2,0.8-4.3,1.6-6.2
		c0.7-1.8,1.5-3.3,2.4-4.5l-1.3-1c-0.3-0.2-0.4-0.4-0.2-0.6c0.1-0.3,0.4-0.4,0.8-0.2c0.4,0.1,0.9,0.4,1.6,1l0.4-0.3l0.1-0.7
		c-1.1-0.7-1.9-1.2-2.6-1.5c-0.4-0.2-0.5-0.4-0.3-0.8c0.1-0.2,0.3-0.4,0.4-0.3c2.2-1.4,3-3,2.2-4.8c-0.7-1.7-1.9-2.4-3.4-2.1
		c-1.7,0.3-2.9,0.7-3.6,0.9l-4.1-0.1c-1.2-1.2-2.5-2-3.9-2.4c-1.3-0.3-2.5-0.1-3.5,0.5c-1,0.6-1.9,1-2.5,1.1L134.4,36.4 M126.9,42.8
		l0.7-0.1c0.2,0.1,0.3,0.2,0.3,0.5l0.2,0.9c0,0.3,0,0.5-0.1,0.8c-0.2,0.2-0.4,0.3-0.7,0.3l-3.3,0.3l-0.5-0.1c0-0.1,0.1-0.2,0.3-0.4
		L126.9,42.8 M142.6,42.4l0.6-0.9c0.1-0.2,0.3-0.3,0.5-0.4l0.6,0.1l1.9,1.7c1.3,1.2,1.8,2.2,1.6,2.9l-5.5-2.3
		C142.1,43.3,142.2,42.9,142.6,42.4 M143.4,48.6c0.4,0,0.8,0.3,1.1,0.8c0.3,0.6,0.5,1.2,0.5,2c0,0.8-0.1,1.5-0.4,2
		c-0.3,0.6-0.7,0.9-1.1,0.9c-0.4,0-0.8-0.3-1.1-0.9c-0.3-0.5-0.5-1.1-0.5-1.9c0-0.8,0.1-1.4,0.4-2C142.6,49,142.9,48.7,143.4,48.6
		 M142.1,61.5c-0.1-0.2-0.1-0.3-0.1-0.4l0.4,0.1l4.2,2.8c0.5,0.2,0.7,0.6,0.7,1.2l-0.7,3.8l-0.2,0.4l-0.4-0.2l-0.1-1.9
		c-0.3-0.4-0.8-0.5-1.2-0.3l-3.6,2.6c-2.7,1.8-4.9,2.7-6.6,2.8c-1.7,0.1-3.7-0.4-5.8-1.3l-2.7-1.4l-0.6,0.1
		c-0.2,0.1-0.2,0.3-0.2,0.6l0,0.4c0,0.5-0.1,0.6-0.4,0.2l-1.9-2.8c-0.1-0.2-0.2-0.4-0.2-0.6c0-0.2,0.1-0.4,0.2-0.7l1.4-1.9
		c0.2-0.2,0.3-0.2,0.4-0.2c0.1,0,0.1,0.2,0.1,0.4v0.6c0,0.2,0.1,0.4,0.2,0.7l0.6,0.2l2.8,0.3c2.1,0.2,3.7,0.3,4.8,0.1
		c1.9-0.3,4.7-1.3,8.4-2.9l0.6-0.5c0.2-0.2,0.2-0.4,0.2-0.6L142.1,61.5 M132.6,53.4l1.5-3.4c0.2-0.5,0.4-0.8,0.8-0.8
		c0.3,0.1,0.4,0.4,0.2,0.9l-3.1,7.7c-0.1,0.2-0.1,0.4-0.1,0.7l0.2,0.7l1.6,2c0.3,0.4,0.2,0.7-0.3,0.9l-0.6,0.2c-0.5,0.1-1,0-1.4-0.4
		l-2-2.7c-0.3-0.4-0.3-0.9,0-1.3L132.6,53.4 M126.8,50.4c0.3,0.6,0.5,1.2,0.5,2c0,0.8-0.1,1.4-0.4,2c-0.3,0.6-0.7,0.8-1.1,0.8
		c-0.4,0-0.8-0.3-1.1-0.8c-0.3-0.6-0.5-1.2-0.5-2c0-0.8,0.2-1.5,0.4-2c0.3-0.6,0.7-0.8,1.1-0.8C126.2,49.5,126.5,49.8,126.8,50.4
		 M136,73.3l0.4,0.5l-0.1,0.6c-0.1,0.2-0.3,0.3-0.6,0.4l-2.5,0.1l-1.5-0.6l-0.3-0.3c0-0.1,0.2-0.2,0.4-0.2l3.5-0.6L136,73.3
		 M143.9,66.4l0.7-0.6c0.2-0.3,0.1-0.6-0.3-0.9l-2.1-0.1c-3.4,1.6-6.2,2.5-8.4,2.8c-1.4,0.2-3.1,0.2-5.3-0.1l-2.9-0.3l-0.6,0.1
		c-0.2,0.1-0.3,0.3-0.2,0.6c0.2,0.5,0.5,0.8,0.9,0.9l5.2,1.6l3.4,0.1c1.4-0.1,2.5-0.4,3.4-0.7C138.9,69.3,141,68.2,143.9,66.4
		 M147.2,24.2c-0.4-0.1-0.8-0.4-1.3-0.7l-1.2-0.8c-1.3-0.8-2.4-1.2-3.2-1c-0.7,0.1-1.7,1.3-3,3.7l-1.3,2.1c-0.5,0.5-1.3,0.6-2.4,0.2
		l-3.3-0.2c-1,0.3-2.6,1.9-4.9,4.9c-0.8,1-1.8,1.6-3,1.8c-1.2,0.2-2.3-0.1-3.2-0.8c-0.7-0.5-1-1.3-1-2.3c-0.6,0.6-1.1,1.5-1.4,2.5
		c-0.4,1.2-0.3,2.6,0.1,4.1c0.4,1.6,1.2,2.9,2.3,3.8c0.7,0.6,1.6,0.8,2.6,0.6c0.9-0.2,1.8-0.7,2.7-1.5l1.8-2.7
		c1.2-1.6,2.1-2.6,2.7-2.9c0.9-0.5,1.6-0.8,2.2-0.7c0.3,0,0.9,0.2,1.8,0.6l1.2,0.5c0.4,0.2,0.9,0.1,1.5-0.2l4.7-3.1
		c1-0.5,2.4,0.1,4.3,1.9l3.3,3c0.4,0.1,1.3-0.2,2.5-0.8c1.5-0.8,2.5-1.2,3.1-1.3c1.5-0.3,2.8,0,3.9,0.8c0.7,0.6,1.3,1.4,1.6,2.4
		c0.3-1.2,0.9-2.1,1.7-2.6l0.2-1.5c-1.4-1.8-2.6-2.9-3.8-3.4l-2.6-2.9c-1.4-1.7-2.9-2.6-4.6-2.8L147.2,24.2 M175.4,183.6
		c0.3,0,0.6-0.1,0.7-0.4c0.8-1.9,0.4-4.1-1.2-6.6c-1.1,3.9-2.7,6.7-4.8,8.4c-1.5,1.2-3.2,2-5.2,2.3c-2.2,0.3-4-0.1-5.5-1.2
		c-1.7,1.9-3.1,3.9-4.3,6c-1.9,3.2-2.1,5-0.8,5.6c1.9,0.8,4.1,0.9,6.6,0.4c2.2-0.5,4.2-1.4,6-2.8c1.9-1.4,3.5-3.1,4.8-5.1l1.2-1.6
		c0.5-0.8,0.8-1.4,0.8-1.8v-2.1c0.1-1.1,0.4-1.6,1-1.6L175.4,183.6 M174.8,171.4c0.1-1.7-0.1-3.2-0.6-4.6c-0.6-1.8-1.6-3.5-2.8-5.1
		c-1.1-1.4-2.2-2.5-3.2-3.3c-0.1,1.3-0.9,2.8-2.4,4.6l-3.4,3.4c-0.1,0.2-0.3-0.1-0.6-0.7c-0.2-0.6-0.3-1-0.1-1.2
		c3.6-3.5,5.9-7.7,6.8-12.8c0.7-4.1,0.5-8.9-0.6-14.4c-3.2,0.7-6.9,1.1-11,1.2h0c-2.8,1.5-6.2,2-10.1,1.6c-4.2-0.5-6.6-2-7.1-4.6
		c0-0.2,0.1-0.4,0.4-0.5c-2.2-1.2-3-3-2.2-5.2l0.2-0.2c-1-0.4-1.7-0.9-2.2-1.4c-1.8,9.4-2.8,14.7-2.9,16l-0.9,4.8l0.3,0.3v0.1
		c0.6,0.5,0.9,1,1.2,1.6c0.3,0.8,0.2,1.5-0.2,2.2c-0.4,0.6-1.2,1.1-2.2,1.5l-0.2,0.1l-1.1,5.2c0.8,0.6,1.3,1.2,1.6,1.9
		c0.3,0.8,0.2,1.6-0.3,2.2c-0.5,0.7-1.2,1.2-2.4,1.5l-0.9,4.4c0.9,0.7,1.6,1.4,1.9,2.2c0.3,0.9,0.2,1.7-0.4,2.4
		c-0.6,0.7-1.5,1.2-2.7,1.5l-0.8,4l0.2,0.1c0.5,0.3,0.9,0.6,1.2,1.1c0.3,0.5,0.4,0.9,0.3,1.3l-1.2,6.4l2.7,4.8
		c1.5-2,3.1-4.5,4.9-7.7c3.8-6.7,7.2-14.3,10.2-22.7c-2.9-7.3-4.6-14.7-4.9-22.2c0-0.6,0.1-0.7,0.4-0.2c0.2,0.4,0.4,0.8,0.4,1.1
		c0.4,7.9,2.2,15.6,5.6,23c3.4,7.6,8,14.1,13.7,19.4c1.5,1.2,3.4,1.6,5.8,1.1c2.3-0.5,4-1.4,5.3-2.9c2-2.2,3.3-4.8,4-7.8
		L174.8,171.4 M164.1,80.9l-0.4,0.2c-4.8,2.5-8,6.8-9.6,12.9c-1.3,5.1-1.5,10.8-0.5,17.1l2.4,3.3l0.8,1.2c1.2-1.1,2.6-1.9,4.4-2.4
		c-1.9-3.4-3.4-7.3-4.7-11.8c-0.1-0.4,0.1-0.6,0.6-0.8c0.5-0.1,0.9,0,0.9,0.4c1.3,4.7,2.8,8.5,4.6,11.6l0,0.3l5.7-0.4
		c0.5,0,0.6,0.2,0.3,0.4c-0.3,0.3-0.6,0.4-0.9,0.4c-2.1-0.1-4.6,0.3-7.3,1.3c-3.5,1.2-4.6,2.7-3.4,4.5c4.2,6,4.9,11.6,2.4,16.8
		l-0.7,1.1l0,0.1l-0.3,0.4h0.2l8.4-1l0.7-0.1l-1.3-5.8c-0.2-0.5-0.2-0.8,0-0.9s0.4,0.2,0.6,0.8l1.4,5.8c7.7-1.6,13-4.6,15.9-9.1
		c3.8-5.8,4-13,0.6-21.4c-2.8-7-7.1-13.2-12.8-18.6C169.5,84.8,166.8,82.7,164.1,80.9 M162.6,18.7l0.3-0.4l-1.7-1.3l-0.6,0.9
		L162.6,18.7 M167.7,22.5l1.2,1.5l0.8-0.8l-1.6-1.1L167.7,22.5 M168.6,20.9l-0.2,0.5l1.8,0.9l0.4-1L168.6,20.9 M170.7,20.2l-0.1-1.1
		l-2,0.5l0,0.5L170.7,20.2 M162.4,21.4l-0.1-0.5l-2,0.3l0.4,1L162.4,21.4 M162.2,20l0.1-0.6l-2-0.5l-0.2,1.1L162.2,20 M165.5,21.6
		l0.4-0.1c0.7-0.2,1.1-0.6,1.2-1.3c0.1-0.5-0.1-0.9-0.4-1.2s-0.7-0.6-1.1-0.6c-0.5-0.1-0.9,0.1-1.2,0.3c-0.4,0.3-0.6,0.6-0.7,1.1
		c-0.1,0.7,0.1,1.2,0.8,1.7l0.4,0.2l-1.9,14.8l-0.3,0.1c-0.8,0.4-1.3,1.2-1.4,2.6c-0.1,0.9-0.4,2.1-0.8,3.6l-1.2,4.7l-0.8,0.7v0.1
		l-0.4,0.4l-1.3,2c-1.2,2.2-2,5-2.4,8.2c-0.3,2.3-0.4,4.4-0.2,6.5c0.2,2,0.6,3.6,1.2,4.8l0.6,0.9l0.2,0.3l0.1,0l0.2,0.2l0.8,0.3h0.5
		c0.9-0.2,1.8-0.9,2.7-2.1l0.2-0.2l0.2-0.1c1.3-0.3,2.5-1.3,3.6-2.9c1.1-1.7,1.7-3.7,2-6.1l0.1-0.9c0.2-2.5,0-4.5-0.7-6.2l-0.3-0.8
		v0l-0.3-0.6v-0.1l-0.9-1l-1-0.8l0.2-1.8c0.1-3.5,0.4-6.2,0.8-8.3l0.1-1.2c0-0.6-0.1-1.2-0.3-1.6l-0.1-0.1l-0.2-0.3l-0.3-0.2
		L165.5,21.6 M163.1,50.4c0.7,0.1,1.4,0.5,1.9,1.2c0.6,0.8,1.1,2,1.3,3.5c0.2,1.5,0.2,3.2,0,5c-0.4,2.6-1.1,4.7-2.1,6.3
		c-1.1,1.7-2.3,2.4-3.6,2.2c-1.3-0.2-2.2-1.2-2.8-3c-0.6-1.8-0.7-4.1-0.4-6.7c0.4-2.6,1.1-4.8,2.2-6.4
		C160.6,50.9,161.8,50.2,163.1,50.4 M164,52.4c-0.3-0.4-0.7-0.7-1.1-0.8c-0.8-0.1-1.6,0.5-2.4,1.8c-0.9,1.5-1.5,3.4-1.8,5.7
		c-0.3,2.2-0.2,4.2,0.3,5.8c0.4,1.5,1.1,2.4,1.9,2.5c0.8,0.1,1.6-0.5,2.4-1.9c0.9-1.5,1.5-3.3,1.8-5.6c0.2-1.6,0.2-3.1,0.1-4.5
		C164.9,54.1,164.5,53.1,164,52.4 M165.9,17.1l0.5,0.1l0.9-2.1l-1.1-0.2L165.9,17.1 M164.7,17.1l0.5-0.1l-0.1-2.2l-1.2,0.2
		L164.7,17.1 M163.5,17.7l0.4-0.3l-1-1.9l-0.9,0.7L163.5,17.7 M170.4,18.1l-0.5-1l-1.7,1.3l0.2,0.4L170.4,18.1 M169.1,16.2l-0.9-0.6
		l-1.1,1.9l0.4,0.4L169.1,16.2z"/>
</g>
</svg>
