<?xml version="1.0" encoding="utf-8"?>
<!-- Generator: Adobe Illustrator 25.4.1, SVG Export Plug-In . SVG Version: 6.00 Build 0)  -->
<svg version="1.1" id="FortuneFinder_x2C_PerkClip_x5F_4c942" image-rendering="auto"
	 xmlns="http://www.w3.org/2000/svg" xmlns:xlink="http://www.w3.org/1999/xlink" x="0px" y="0px" viewBox="0 0 240 240"
	 style="enable-background:new 0 0 240 240;" xml:space="preserve">
<style type="text/css">
	.st0{fill:#FFFFFF;}
</style>
<g>
	<rect width="240" height="240"/>
	<path class="st0" d="M88.1,206c0.2-0.8,0.6-1.7,1.2-2.6l-9.2-1.2c-2.3,2-3.7,4.1-4.1,6.2c-0.4,2.4,0.4,4.6,2.3,6.6
		c2.1,2.3,5.4,4.1,9.7,5.5c4.3,1.4,9.1,2.2,14.4,2.3l0.8-7c-2.9-0.2-5.5-0.8-7.9-1.6c-2.3-0.8-4.1-1.9-5.4-3.3
		C88.3,209.4,87.8,207.8,88.1,206 M126.4,218.6c6.2-2.8,9.6-6.1,10.3-10.1c0.3-1.9-0.1-3.7-1.3-5.4l-11.2,1.1c0.5,1,0.6,2.1,0.5,3.1
		c-0.4,2.4-2.4,4.4-6,6c-3.6,1.7-7.7,2.6-12.4,2.7l-1.1,6.9C113.2,222.8,120.3,221.4,126.4,218.6 M139.5,193.9
		c-3.1,0.9-6.1,0.6-8.9-0.9l-3.9,2.6c3.8,1.4,6.8,3.3,8.9,5.6l0.2-0.5l6.3-5.2c0.2-0.2,0.4,0.1,0.6,0.8c0-0.1,0-0.1,0.1,0l0.6,0.4
		l1.7-0.1c2.3-0.8,3.5-1.9,3.4-3.4c0-0.7-0.2-1.5-0.5-2.2l-1-2.1C144.9,191.3,142.4,193,139.5,193.9 M124.1,168.7l0.1,0.6
		c1.1-0.6,1.4-1.3,1.1-2.1l-0.6-0.9L124.1,168.7 M127.4,157.2l-0.3-0.5l-0.6,2.6C127.4,158.7,127.7,158,127.4,157.2 M119.6,195.1
		l-0.5,2.1l0.2,0.4c0.2,0.4,0.2,0.8-0.1,1.2c-0.2,0.3-0.5,0.5-1,0.5h-0.1c1.9,0.8,3.4,1.7,4.6,2.8l11.1-0.9
		c-1.9-1.8-4.7-3.3-8.3-4.6l-0.2,0.2l-0.3-0.4L119.6,195.1 M111.9,194.5l1.2,3.1h4.4l-0.3-0.9l5.2-20.5l-9.7-4.9l-5.2,20.9
		L111.9,194.5 M115.5,177.4c0.5,0,1,0.2,1.4,0.5l0.9,1.2c0.2,0.5,0.2,0.9,0,1.2c-0.2,0.3-0.5,0.5-1,0.5c-0.5,0-0.9-0.2-1.4-0.5
		c-0.4-0.3-0.8-0.7-1-1.2c-0.2-0.5-0.2-0.9,0.1-1.2C114.7,177.5,115,177.4,115.5,177.4 M112.5,190.5c-0.4-0.3-0.7-0.7-0.9-1.2
		c-0.2-0.5-0.2-0.9,0.1-1.2c0.2-0.3,0.5-0.5,1-0.5c0.4,0,0.9,0.2,1.3,0.5c0.5,0.3,0.8,0.7,1,1.2c0.2,0.5,0.2,0.9-0.1,1.2
		c-0.2,0.3-0.5,0.5-1,0.5C113.5,191,113,190.8,112.5,190.5 M110.7,195.4l-2.6-1.3c-5.1,0.1-10,0.7-14.6,1.8
		c-4.7,1.2-8.5,2.8-11.5,4.9l9.2,0.9c1.8-1.4,4.2-2.5,7.1-3.2c3-0.8,6.1-1.2,9.4-1.1l3.9,0.3L110.7,195.4 M113.9,167.1l0.5,0.8
		l0.8-3C114,165.4,113.6,166.2,113.9,167.1 M118.5,164.2l-1.2,0.1l-1.8,6.8l5.2,2.7l2.2-8.7C121.7,164.6,120.2,164.2,118.5,164.2
		 M120.6,154.3l-0.8,0.1l-2.2,8.8h0.6c1.8,0,3.5,0.3,5.2,1l2.2-8.8C124.1,154.7,122.5,154.3,120.6,154.3 M116.8,158.2L116.8,158.2
		l0.9-3.5c-1.6,0.6-2.2,1.4-1.8,2.4L116.8,158.2 M120.4,144.3c-0.7,0.3-1.2,0.6-1.5,1c-0.3,0.4-0.4,0.9-0.2,1.4l0.8,1L120.4,144.3
		 M113.2,139.1l7.9,2.4l0.9-3.7l-8.9-2.8C112.2,136.1,112.3,137.4,113.2,139.1 M93.6,129l-0.9-0.2l-0.8,0.2
		c-0.2,0.2-0.1,0.6,0.2,1.2c0.6,1.2,1.4,2.1,2.6,2.8c0.6,0.4,1.2,0.7,1.7,0.8l1.3,0.4c-0.1-1.3,0-2.6,0.2-3.9L93.6,129 M130.1,146.6
		l-0.3-0.5l-0.6,2.6C130.1,148.1,130.4,147.4,130.1,146.6 M123.4,143.8l-1,0.1l-2.4,9.3h0.2c1.9,0,3.8,0.4,5.6,1.2l2.4-9.5l-0.5-0.2
		C126.3,144.1,124.9,143.8,123.4,143.8 M122.8,135.1l0.6-2.8c-2.2-6.1-7.1-9.4-14.8-10.1c-3-0.3-5.5,1.1-7.4,4.1
		c-1.7,2.8-2.4,5.9-1.9,9.3c0.3,2.2,1.4,3.9,3.2,5.1c0.6,0.4,1.1,0.6,1.3,0.4c0.2-0.1,0.1-0.6-0.5-1.3c-1.2-1.6-1.9-3.3-2-5.1
		l0.2-2.5l0.4-0.4l0.6,0.1c0.6,0.2,0.9,0.6,0.8,1.1c-0.1,1.7-0.1,3,0.1,3.9c0.3,1.7,1,3.2,2.2,4.5c1.1,1.1,2.3,1.8,3.6,2.1
		c1.3,0.2,1.2-0.3-0.5-1.4c-1.7-1-2.7-2.6-3.2-4.7l-0.3-4.2c0-0.2,0-0.4,0.2-0.5l0.6-0.1c0.6,0.1,0.9,0.4,1,0.9
		c0.3,0.9,0.5,2.4,0.6,4.3c0.3,1.7,1.4,3.2,3.2,4.4c1.4,0.9,2.3,1.1,2.9,0.6c0.6-0.5,0.3-1.1-0.8-1.8c-1.4-0.9-2.4-2.1-2.8-3.4
		c-0.6-1.8,0.1-3.3,2.1-4.6l0.1-0.1c1.4-0.7,2.9-0.7,4.5-0.1c1.2,0.5,2.4,1.3,3.4,2.3H122.8 M131,111.6l-0.6,0.6l-7.8,30.6l0.3-0.1
		c1.6,0,3.3,0.3,4.9,0.9l0.5,0.2l7.4-29.6l-0.5-0.8c-0.5-0.7-1.2-1.2-2.1-1.6L131,111.6 M136,106.8c-0.3,0-0.4,0.1-0.4,0.2
		c-0.1,0.5,0.2,1.1,0.9,1.9c0.6,0.7,1.3,1.3,2.1,1.8c0.8,0.4,1.4,0.6,1.8,0.6l0.4-0.2c0-0.4-0.3-1-0.9-1.8c-0.6-0.7-1.3-1.3-2.1-1.8
		C137,106.9,136.4,106.7,136,106.8 M144.7,117.5c-0.6-0.7-1.3-1.2-2.1-1.8c-0.7-0.5-1.3-0.7-1.8-0.7c-0.2,0-0.4,0.1-0.4,0.2
		c-0.1,0.5,0.2,1.1,0.9,1.8c1.1,1.2,2.2,2,3.3,2.3l0.9-0.5C145.4,118.6,145.1,118.1,144.7,117.5 M147.6,116.6l0.3,0.2
		c0.5,1.9-0.5,3.4-2.9,4.4c-1.6,0.7-3.6,1.1-5.9,1.2c-0.4,0-0.6-0.1-0.5-0.3c0.5-1,0.6-1.7,0.4-2c-0.2-0.2-0.7-0.1-1.2,0.2
		c-1.7,1.1-2.2,2.3-1.6,3.7c0.5,1,1.8,1.9,4,2.5l4.8,1.1c0.4,0.1,0.4,0.3,0,0.6c-0.4,0.3-0.8,0.4-1.1,0.3l-5.5-0.9
		c-0.2,1.3,0.2,2.4,1.2,3.3c0.8,0.7,2,1.3,3.5,1.7l3.2,0.4c0.4,0.1,0.4,0.2,0.1,0.4l-0.9,0.4l-4.9-0.6c1,1.9,3.3,3,7.1,3.4
		c3.6,0.5,6,0.1,7.2-1.2c2.2-2.7,3.2-5.9,3-9.6c-0.2-3.6-1.4-6.7-3.8-9.4c-0.9-0.1-1.7-0.4-2.4-0.9l-1.9-1.9c-2-2.2-4-2.4-6-0.8
		l-0.5,0.5C144,115,145.5,116.1,147.6,116.6 M147.4,110.9l-2.8-3.6c-0.5-0.7-1.1-1.3-2.1-1.8c-0.9-0.5-1.7-0.7-2.4-0.8l-25.8,0.6
		c-0.6,0-1,0.2-1.1,0.5c-0.1,0.3,0.1,0.8,0.5,1.4l8.9,10.9c0.9,1,2.1,1.8,3.6,2.3l2.5-10.1l0.6-0.9l3.9,0.1c1.8,0.6,2.9,1.6,3.6,3.1
		c0.3,0.8,0.4,1.4,0.3,2.1l-1.1,5.2c1-1.3,2.1-2,3.3-2.2c1.2-0.1,1.8,0.1,1.8,0.7c0,0.7-0.1,1.4-0.4,2.1l-0.1,0.2h1.4l1.4-0.7
		c-1-0.6-1.9-1.4-2.6-2.2c-1.1-1.3-1.6-2.4-1.4-3.3c0.2-0.6,0.6-1,1.4-1.1l0.6,0.1c0-0.1,0-0.2,0.2-0.3l0.3-0.3
		c-0.8,0.1-1.7-0.2-2.9-0.9c-1.1-0.7-2.1-1.5-2.9-2.5c-1.1-1.3-1.6-2.4-1.4-3.3c0.1-0.7,0.6-1,1.3-1.1c0.8,0,1.8,0.3,2.9,0.9
		s2.1,1.4,3,2.4c1.1,1.4,1.5,2.5,1.4,3.4l-0.1,0C144.7,111.1,146.1,110.8,147.4,110.9 M133.6,80.6c-1.3-0.4-3.7-1.7-7.4-4.1
		l-0.6,0.1v0.1c-2,5-2.9,10.7-2.8,17l-0.3,0.6l16.8-0.2c1,0,2,0.3,3.1,0.9c1.1,0.6,2,1.3,2.7,2.1l0.1,0.1l4.3,5.9
		c-0.1-5.6,0.7-10.6,2.6-14.9c2.1-4.9,5.4-8.5,9.9-10.9c-2.3-1.5-4.5-2.6-6.7-3.3l-0.2,1.6c-1.4,4.3-4.8,7.2-10.1,8.6
		C139.6,85.7,135.8,84.5,133.6,80.6 M114.7,96.8c-0.7,0.5-1.2,1-1.4,1.6v5.3l26.2-0.6c1.1,0,2.3,0.3,3.6,1.1
		c1.3,0.7,2.3,1.6,3.1,2.7l4.1,5.4l1.9,1.8c0.7,0.7,1.4,1.1,2.1,1.3c0.3-0.6,0.8-1.2,1.3-1.7l-0.8-1.4l-10.3-13.8h-0.1
		c-0.4-0.7-1.1-1.3-1.9-1.8s-1.6-0.7-2.4-0.7l-23.2,0.2C116.2,96.1,115.4,96.3,114.7,96.8 M119.7,98.9c0.1-0.2,0.2-0.3,0.4-0.5
		c0.2-0.2,0.4-0.3,0.7-0.2h14.6c0.3,0,0.5,0.1,0.6,0.2c0.1,0.2,0.1,0.3,0.1,0.6l-0.4,1.2c-0.2,0.5-0.6,0.8-1.1,0.8l-14.6-0.1
		c-0.2,0-0.4-0.1-0.6-0.2c-0.1-0.2-0.1-0.4,0-0.6L119.7,98.9 M110.2,84.4c-4,2.7-7.2,5.7-9.8,8.9c-3.7,4.6-5.5,9.8-5.5,15.5
		c0,5.7,1.9,10.9,5.7,15.4c1.7-1.9,3.7-3,6-3.2c2.9-0.2,5.8,0.2,8.4,1.4c-0.3-1.7-0.3-3.2,0-4.5c0.3-1.6,1.1-2.8,2.4-3.6l0.2-0.1
		l-5.1-6.3c-0.8-0.9-1.1-1.8-1-2.6l-0.1-7.9c0.3-0.8,0.9-1.5,1.8-2.1c0.9-0.6,1.9-0.9,2.9-0.9l3.5-0.1c-0.1-6.1,0.7-11.6,2.5-16.3
		C117.8,79.9,113.8,82,110.2,84.4 M118.1,39.9c-0.3,0.7-0.3,1.6-0.1,2.8c0.1,0.5,0.5,1.4,1.3,2.8c0.7-1.7,1.4-3.2,2.2-4.8
		c-0.7-0.1-1.4-0.5-2-1C118.9,39.2,118.4,39.3,118.1,39.9 M159.2,39.3l-2.2,2.2l1.4,0.9L159.2,39.3 M134.4,33.9l-1.5-0.6
		c-1-0.3-1.7-0.3-2.2,0c-0.4,0.3-1.2,1.2-2.4,2.8l-1.9,2.7c-1.1,1-2.1,1.6-3.2,1.8c-2,3.7-3.3,7.3-3.8,10.9
		c-0.9,5.8,0,11.3,2.6,16.6c2.7,5.5,6.7,9.2,11.9,11.2c3,1.2,5.7,1.7,8.1,1.5l2.6-0.2c0.1,0.2-0.6,0.5-1.9,1l-2.7,0.7
		c1.8,1.1,4.4,0.7,7.9-1.2c3.6-1.9,5.5-4.2,5.6-6.8c-1.4,1-2.6,1.6-3.8,1.8c-1.1,0.2-1.2-0.1-0.3-0.8c2.1-1.6,4.1-3.6,5.9-6.1
		l-1-1.4c-0.7-1.3-1.2-3-1.4-5.1c-0.2-2.1-0.2-4.4,0.1-6.9c0.3-2.2,0.8-4.3,1.6-6.2c0.7-1.9,1.5-3.4,2.4-4.6l-1.4-0.9
		c-0.3-0.2-0.4-0.4-0.2-0.6c0.1-0.3,0.4-0.4,0.8-0.2c0.4,0.1,0.9,0.5,1.6,1.1l0.3-0.3l0.1-0.6l-2.6-1.6c-0.4-0.2-0.5-0.4-0.4-0.7
		c0.2-0.2,0.3-0.4,0.4-0.4c2.2-1.4,3-3,2.2-4.8c-0.7-1.7-1.9-2.4-3.4-2.2c-1.7,0.3-2.9,0.7-3.6,1l-4.1-0.1c-1.2-1.2-2.4-2-3.9-2.4
		c-1.3-0.3-2.4-0.2-3.4,0.4c-1.1,0.6-1.9,1-2.5,1.2L134.4,33.9 M128.1,41.6l-0.1,0.8c-0.2,0.2-0.4,0.3-0.7,0.3l-3.3,0.2l-0.5-0.1
		c0-0.1,0.1-0.3,0.3-0.4l3.1-2.1l0.7-0.1l0.4,0.5L128.1,41.6 M124.7,47.9c0.3-0.6,0.6-0.9,1.1-0.8c0.4,0,0.8,0.2,1.1,0.8
		c0.3,0.5,0.5,1.2,0.5,2c0,0.8-0.1,1.4-0.4,2c-0.3,0.5-0.7,0.8-1.1,0.9c-0.4,0-0.8-0.3-1.1-0.8c-0.3-0.6-0.5-1.2-0.5-2
		C124.2,49.1,124.4,48.5,124.7,47.9 M134.8,46.8c0.3,0.1,0.4,0.4,0.2,0.9l-3.1,7.7c-0.1,0.2-0.2,0.4-0.1,0.7l0.2,0.6l1.6,2
		c0.3,0.4,0.2,0.8-0.3,0.9c-0.8,0.4-1.5,0.4-2-0.2l-2-2.7c-0.3-0.4-0.3-0.9,0-1.3l3.1-4.5l1.5-3.4C134.2,47,134.4,46.8,134.8,46.8
		 M144.1,38.7l1.9,1.7c1.3,1.2,1.8,2.2,1.6,2.9l-5.5-2.4c-0.1-0.2,0-0.5,0.4-1.1l0.6-0.8l0.5-0.4L144.1,38.7 M144.4,47
		c0.3,0.6,0.5,1.2,0.5,2c0,0.8-0.1,1.5-0.4,2c-0.3,0.6-0.7,0.8-1.1,0.9c-0.4,0-0.8-0.3-1.1-0.9c-0.3-0.5-0.5-1.2-0.5-1.9
		c0-0.8,0.1-1.4,0.4-2s0.7-0.9,1.1-0.9C143.7,46.2,144.1,46.5,144.4,47 M142.4,61c0.2-0.2,0.2-0.4,0.1-0.6l-0.6-1.3
		c-0.1-0.2-0.1-0.4,0-0.4l0.4,0.1l4.3,2.8c0.5,0.3,0.7,0.7,0.6,1.2l-0.6,3.8l-0.2,0.4l-0.4-0.2l-0.1-1.9c-0.3-0.4-0.8-0.5-1.2-0.3
		l-3.6,2.6c-2.7,1.8-4.9,2.7-6.6,2.7c-1.7,0.1-3.6-0.3-5.8-1.2L126,67l-0.5,0.1c-0.2,0.1-0.2,0.3-0.2,0.5l0.1,0.4
		c0,0.5-0.2,0.6-0.5,0.1l-1.8-2.7c-0.2-0.2-0.2-0.4-0.2-0.6s0.1-0.5,0.2-0.7l1.4-1.9c0.1-0.2,0.2-0.3,0.3-0.2c0.1,0,0.2,0.2,0.2,0.4
		V63c0,0.2,0.1,0.4,0.2,0.6l0.6,0.2l2.8,0.4c2.1,0.2,3.7,0.3,4.9,0.1c1.9-0.3,4.7-1.2,8.4-2.9L142.4,61 M136.2,71.9l-0.6,0.4
		l-2.5,0.1l-1.4-0.6l-0.3-0.3c0-0.1,0.2-0.2,0.4-0.2l3.5-0.6l0.8,0.1l0.4,0.5L136.2,71.9 M144.6,63.4c0.2-0.3,0.1-0.6-0.3-0.9
		l-2.1-0.1c-3.4,1.6-6.2,2.5-8.4,2.8c-1.4,0.2-3.1,0.1-5.3-0.1l-2.8-0.4l-0.7,0.2c-0.2,0.1-0.2,0.3-0.2,0.6c0.2,0.5,0.4,0.8,0.8,0.9
		l5.2,1.6l3.4,0.1c1.4-0.1,2.6-0.3,3.4-0.6c1.2-0.4,3.2-1.6,6.2-3.4L144.6,63.4 M161.8,18.7l-3.6,0.5l0.6,1.7l3.2-1.6L161.8,18.7
		 M158.1,17.8l3.6-0.1l0.1-0.6l-3.4-0.9L158.1,17.8 M150.9,22.5l-3.7-0.8c-0.4-0.1-0.9-0.3-1.3-0.6l-1.2-0.8
		c-1.4-0.8-2.5-1.2-3.3-1.1c-0.6,0.1-1.6,1.4-2.9,3.7l-1.4,2.1c-0.5,0.5-1.3,0.6-2.4,0.3l-3.3-0.2c-1,0.3-2.6,1.9-4.9,4.9
		c-0.8,1-1.8,1.6-3,1.8s-2.3-0.1-3.2-0.8c-0.7-0.5-1.1-1.3-1-2.3c-0.6,0.6-1.1,1.5-1.4,2.5c-0.4,1.2-0.4,2.6,0,4.1
		c0.5,1.6,1.2,2.8,2.3,3.8c0.7,0.6,1.6,0.8,2.6,0.6c0.9-0.2,1.7-0.7,2.6-1.5l1.9-2.6c1.2-1.6,2.1-2.6,2.6-2.9
		c0.9-0.6,1.6-0.8,2.2-0.7c0.3,0,0.9,0.2,1.9,0.6l1.2,0.5c0.4,0.2,0.9,0.1,1.5-0.2l4.7-3.1c1-0.5,2.4,0.1,4.3,1.9l3.3,3
		c0.4,0.1,1.3-0.2,2.6-0.8c1.5-0.8,2.5-1.2,3.1-1.3c1.5-0.3,2.8,0,3.8,0.8c0.8,0.5,1.3,1.4,1.7,2.5c0.3-1.2,0.9-2.1,1.7-2.6l0.2-1.5
		c-1.4-1.8-2.6-2.9-3.8-3.4l-2.6-2.9C154.1,23.6,152.5,22.6,150.9,22.5 M173.8,170.8c-0.3-0.7-0.7-1.2-1.2-1.6l-3.4-2.1
		c0.2,4.4-0.1,8.1-1.1,11.1c-1.5,4.2-4.1,5.7-7.8,4.7c-0.5,2.1-0.7,4.3-0.8,6.6l0.1,2.6c0.1,1.1,0.4,1.9,0.9,2.4
		c0.9,0.9,2.6,0.7,4.9-0.5c2.3-1.2,4.2-2.9,5.6-5.2c1.3-2.1,2.2-4.6,2.6-7.4l0.4-1.9c0.2-1,0.2-1.7,0-1.9l-1.1-2.2
		c-0.5-1.1-0.6-1.9-0.1-2.4c0.2-0.2,0.5-0.3,0.8-0.4C174.1,172.1,174.2,171.6,173.8,170.8 M168.3,165.4l-0.6-4.9
		c-0.6-2.8-1.3-5-2.1-6.6l-0.9-1.6l-0.8,2.2c-1.7,4.3-4.2,7.4-7.5,9.2c-0.2,0.1-0.4-0.2-0.6-0.8c-0.2-0.6-0.2-1,0-1.2
		c3.7-2.5,6.4-6.5,8.2-11.9c1.3-4.2,2-9.1,2.1-14.7l-10.6,0.8c-2.2,1.6-5.4,2.1-9.6,1.5c-4.4-0.6-6.9-2.1-7.4-4.6
		c0-0.2,0.1-0.4,0.4-0.5c-2.2-1.2-2.9-2.9-2.2-5.1l0.2-0.3c-1.1-0.5-1.8-1-2.2-1.5l-4.8,19.6l0.4,0.2v0.1c0.5,0.5,0.9,1,1.1,1.5
		c0.3,0.7,0.2,1.4-0.3,2.1c-0.5,0.6-1.3,1.1-2.4,1.4l-0.2,0.2l-1.3,5.1c0.7,0.6,1.2,1.2,1.5,1.8c0.3,0.8,0.2,1.5-0.4,2.2
		c-0.5,0.6-1.4,1.1-2.5,1.4L125,165c1,0.7,1.6,1.4,1.8,2.1c0.3,0.7,0.2,1.4-0.2,2c-0.4,0.6-1.1,1-2.1,1.4c1.7,7.7,3.7,14.6,5.9,20.6
		c2.7,1.5,5.6,1.7,8.8,0.8c2.8-0.9,5.3-2.6,7.4-5.1l0.6-3.1c0.6-3.8,1-7.1,1-9.8c-2-2.2-3.7-4.5-5-6.9c-2.2-3.9-3.9-8.4-5.2-13.4
		c-1.2-4.6-2-9.3-2.4-14.3c0-0.6,0.1-0.7,0.4-0.2l0.4,1.1c0.2,2.8,0.7,5.8,1.4,9c0.8,4,1.7,7.2,2.6,9.8c1.2,3.6,2.7,6.6,4.4,9.1
		c1.9,2.7,4.1,5.2,6.6,7.4c2.6,2.3,5.4,4.1,8.4,5.4c3.7,1.2,6.2-0.4,7.6-4.6C168.3,173.1,168.6,169.6,168.3,165.4 M163.9,78.6
		l-0.2,0.1c-4.7,2.4-7.9,6.6-9.6,12.6c-1.4,5-1.6,10.6-0.7,16.8l3.4,4.6c1.1-0.8,2.6-1.4,4.2-1.9c-1.8-3.2-3.3-7.1-4.6-11.7
		c-0.1-0.4,0.1-0.6,0.6-0.8c0.5-0.1,0.9,0,1,0.3c1.3,4.7,2.8,8.5,4.6,11.6l0.1,0.2l5.6-0.4c0.5,0,0.6,0.2,0.3,0.4
		c-0.3,0.3-0.6,0.4-0.9,0.4c-5.5-0.2-9.3,1-11.4,3.6c-0.5,0.6-0.7,1-0.7,1.2l0.8,1.2c1.9,2.9,2.9,5.7,3.1,8.6c0.2,3.1-0.6,6-2.4,8.6
		l-0.6,0.8l9.7-0.8c0-0.4,0.1-0.4,0.3,0l2.2-0.4c6.9-1.3,11.7-3.6,14.4-6.7c2.9-3.4,3.5-8.5,1.8-15.2c-2.6-9.9-6.4-17.9-11.6-24.2
		C170.3,84,167.2,81,163.9,78.6 M169.2,18.7l-0.2,0.7l3.3,1.8l0.6-1.7L169.2,18.7 M171.6,22.2l-3.1-2.1l-0.4,0.5l2.1,2.6h0.5
		L171.6,22.2 M162.1,16.2l0.4-0.6l-2.9-2.3c-0.2,0.2-0.5,0.7-0.9,1.4L162.1,16.2 M163.1,14.9l0.5-0.3l-1.6-3.4l-1.4,1L163.1,14.9
		 M167,17.7c0.1-0.4,0-0.8-0.2-1.2c-0.3-0.4-0.7-0.6-1.2-0.6c-0.5-0.1-0.9,0-1.2,0.3c-0.4,0.3-0.6,0.6-0.7,1.1
		c-0.1,0.7,0.2,1.2,0.8,1.6l0.3,0.2l-1.9,14.8l-0.4,0.1c-0.8,0.4-1.3,1.2-1.4,2.6l-1.9,8.2l-0.2,0.1l-0.7,0.6v0.1l-0.3,0.3l-1.3,2.1
		c-1.2,2.2-2,5-2.4,8.2c-0.3,2.3-0.3,4.4-0.1,6.4c0.2,2,0.6,3.6,1.2,4.8l0.9,1.2l0.1,0.1l0.2,0.2l0.3,0.2l0.5,0.1h0.6
		c0.9-0.1,1.8-0.8,2.7-2.1l0.1-0.2l0.2,0c1.3-0.3,2.5-1.2,3.6-3c1.1-1.7,1.8-3.7,2.1-6.1l0.1-0.7v-0.2c0.2-2.5,0-4.6-0.7-6.2
		l-0.3-0.8l-0.1-0.1l-0.3-0.6v-0.1l-0.9-1.1l-1-0.7l0.1-1.9c0.1-3.5,0.4-6.2,0.8-8.3l0.1-1.2c0-0.7-0.1-1.2-0.4-1.6l-0.1-0.1
		l-0.2-0.3l-0.3-0.2l1.9-14.3l0.1-0.4l0.4-0.1C166.6,18.9,166.9,18.4,167,17.7 M163,47.9c0.7,0.1,1.4,0.5,1.9,1.2
		c0.6,0.8,1.1,2,1.3,3.6c0.2,1.5,0.2,3.2,0,4.9c-0.3,2.6-1,4.7-2.1,6.4c-1.1,1.6-2.3,2.4-3.5,2.2c-1.3-0.2-2.2-1.2-2.9-3.1
		c-0.6-1.8-0.7-4.1-0.4-6.7c0.4-2.6,1.1-4.7,2.1-6.3C160.6,48.5,161.7,47.8,163,47.9 M165.1,53c-0.2-1.4-0.6-2.4-1.1-3.1
		c-0.3-0.4-0.7-0.7-1.1-0.8c-0.8-0.1-1.6,0.5-2.5,1.9c-0.9,1.5-1.5,3.4-1.8,5.6c-0.3,2.2-0.2,4.2,0.3,5.9c0.4,1.5,1.1,2.4,1.9,2.4
		c0.8,0.1,1.7-0.5,2.5-1.8c0.9-1.5,1.4-3.4,1.8-5.7C165.2,55.9,165.2,54.4,165.1,53 M169.2,17.2l0.1,0.6l3.9,0.2l-0.2-1.8
		L169.2,17.2 M171.7,13.4l-3.1,2.4l0.2,0.6l3.6-1.4L171.7,13.4 M165,10.4l-1.8,0.3l1.3,3.6l0.6-0.1L165,10.4 M170.1,11.9l-0.8-0.5
		l-1.8,3.4l0.4,0.4l2.8-2.7L170.1,11.9 M168.1,10.8l-1.7-0.4l-0.3,3.8l0.6,0.2L168.1,10.8z"/>
</g>
</svg>
