<?xml version="1.0" encoding="utf-8"?>
<!-- Generator: Adobe Illustrator 25.4.1, SVG Export Plug-In . SVG Version: 6.00 Build 0)  -->
<svg version="1.1" id="FortuneFinder_x2C_PerkClip_x5F_4c942" image-rendering="auto"
	 xmlns="http://www.w3.org/2000/svg" xmlns:xlink="http://www.w3.org/1999/xlink" x="0px" y="0px" viewBox="0 0 240 240"
	 style="enable-background:new 0 0 240 240;" xml:space="preserve">
<style type="text/css">
	.st0{fill:#FFFFFF;}
</style>
<g>
	<rect width="240" height="240"/>
	<path class="st0" d="M85.2,222.9l1.8-7.2c-2.8-0.2-5.3-0.8-7.4-1.6c-2.2-0.9-3.8-2-4.8-3.4c-1.2-1.6-1.6-3.3-1-5.1
		c0.3-0.9,0.8-1.8,1.6-2.7l-8.9-1.2c-2.5,2.1-4.1,4.2-4.8,6.4c-0.8,2.4-0.4,4.7,1.2,6.9c1.8,2.3,4.6,4.1,8.6,5.5
		C75.6,222,80.1,222.8,85.2,222.9 M120.9,208.1c0.6-2,0.4-3.9-0.5-5.6l-11.1,1.2c0.3,1.1,0.3,2.1,0,3.2c-0.8,2.5-3,4.5-6.7,6.2
		c-3.7,1.7-7.8,2.6-12.5,2.8l-2.2,7.1c7.9-0.1,15.1-1.6,21.5-4.5C115.8,215.5,119.7,212.1,120.9,208.1 M149.1,196.2l0.6,0.4
		c0.7,0.2,1.5,0.1,2.3-0.3c1.1-0.5,1.8-1,2.2-1.6c0.6-0.7,0.7-1.6,0.5-2.7l-1.4-3.2c-2.2,2.5-4.7,4.2-7.5,5
		c-3.1,0.9-6.1,0.6-8.9-0.9c-1.9,1.2-4.1,2.9-6.6,5.1c-3.4,3-4.6,4.7-3.4,5.3c2.9,1.5,7.2,1.1,12.9-1.1c1.7-0.6,3.2-1.6,4.7-2.9
		l3.9-4c0.2-0.2,0.4,0.1,0.6,0.9C148.8,196.2,148.9,196.1,149.1,196.2 M105.3,196.4l0.1,0.4c0.1,0.5,0,0.9-0.2,1.2
		c-0.2,0.3-0.5,0.5-1,0.5h-0.1c1.8,0.8,3.2,1.8,4,2.9l11-1c-2.6-2.8-6.9-4.9-12.9-6.2L105.3,196.4 M97.9,196.9l-0.5-2.3l-2.3-1.4
		c-5,0.1-9.8,0.7-14.6,2c-4.7,1.2-8.7,2.9-11.9,5.1l8.8,0.9c2-1.5,4.5-2.6,7.5-3.4c3-0.8,6.1-1.2,9.3-1.2L97.9,196.9 M98.8,193.6
		l0.7,3.2l4.3,0l-0.2-0.9l8-21.1l-8.7-5l-8.1,21.5L98.8,193.6 M99.4,187.1c0.2-0.3,0.5-0.5,1-0.5c0.5,0,0.9,0.2,1.3,0.5
		c0.4,0.4,0.7,0.8,0.8,1.2c0.1,0.5,0.1,0.9-0.2,1.2c-0.2,0.3-0.6,0.5-1.1,0.5c-0.4,0-0.8-0.2-1.2-0.5c-0.4-0.4-0.6-0.8-0.8-1.2
		C99.1,187.9,99.2,187.5,99.4,187.1 M103.5,177.8c-0.1-0.5,0-0.9,0.2-1.2c0.3-0.3,0.6-0.5,1.1-0.5c0.5,0,0.9,0.2,1.3,0.5
		c0.4,0.4,0.7,0.8,0.8,1.2c0.1,0.5,0.1,0.9-0.2,1.2c-0.2,0.3-0.6,0.5-1.1,0.6c-0.4,0-0.8-0.2-1.2-0.5
		C103.9,178.7,103.6,178.3,103.5,177.8 M115.8,165.5l-0.5-0.9l-1.2,3.3C115.5,167.3,116,166.5,115.8,165.5 M105.7,169.7l4.8,2.8
		l3.4-8.9c-1.2-0.6-2.6-0.9-4.2-0.9l-1.2,0.1L105.7,169.7 M104.7,165.6l0.4,0.8l1.2-3.1C105,163.8,104.5,164.6,104.7,165.6
		 M108.2,155.4c0.1,0.4,0.3,0.8,0.7,1.1l1.4-3.6C108.7,153.4,108,154.3,108.2,155.4 M119.3,155.3l-0.2-0.5l-1,2.6
		C119.1,156.8,119.5,156.1,119.3,155.3 M117.7,153.5c-1.3-0.7-2.8-1.1-4.6-1.1l-0.8,0.1l-3.4,9.1h0.5c1.8,0,3.4,0.3,4.9,1
		L117.7,153.5 M115.4,139.4l1.5-3.8l-8.3-2.8c-0.9,1-1.1,2.4-0.5,4.1L115.4,139.4 M121.3,142.4c-1.3-0.5-2.6-0.8-4-0.8l-0.9,0.1
		l-3.7,9.6h0.1c1.9,0,3.7,0.4,5.2,1.2l3.8-9.8L121.3,142.4 M114.3,142.1c-1.5,0.6-2.1,1.4-1.9,2.5c0.1,0.4,0.3,0.7,0.6,1
		L114.3,142.1 M99.4,130c0.1,0.2,0.2,0.4,0.1,0.6c-0.4,1.7-0.6,3.1-0.6,4c0,1.8,0.6,3.3,1.6,4.6c0.9,1.2,2,1.8,3.2,2.1
		c1.3,0.2,1.2-0.2-0.3-1.4c-1.5-1-2.3-2.6-2.4-4.8l0.3-4.3c0-0.5,0.3-0.7,0.8-0.7l0.6,0.3l0.3,0.6c0.1,1,0.1,2.5-0.1,4.4
		c0.1,1.7,1,3.2,2.6,4.5c1.2,0.9,2.1,1.1,2.7,0.6c0.6-0.4,0.5-1-0.5-1.8c-1.2-0.9-2-2.1-2.2-3.4c-0.3-1.8,0.6-3.4,2.7-4.8l0.1-0.1
		c1.5-0.7,3-0.7,4.4-0.1c1.1,0.5,2.1,1.3,2.9,2.3h2.3l1-2.9c-1.3-6.2-5.6-9.7-12.9-10.3c-2.9-0.2-5.5,1.2-7.8,4.2
		c-2.1,2.9-3.2,6.1-3.2,9.5c0,2.2,0.8,4,2.3,5.2c0.6,0.5,1,0.6,1.2,0.4c0.3-0.1,0.2-0.6-0.2-1.3c-1-1.6-1.3-3.4-1.1-5.3l0.6-2.5
		c0.1-0.5,0.5-0.6,1-0.4L99.4,130 M92.4,131.5l1.2,0.5c0.2-1.5,0.4-2.8,0.8-4.1l-4-1.4l-1.7-0.1c-0.2,0.2-0.2,0.7,0.1,1.3
		c0.4,1.2,1.1,2.2,2.1,2.9C91.4,131.2,91.9,131.4,92.4,131.5 M123.5,144.5l-0.2-0.5l-1,2.5v0.1C123.3,146,123.7,145.3,123.5,144.5
		 M139.8,117.9h1.8l-1.6-1.1L139.8,117.9 M133.8,111.2l-0.4-0.9c-0.4-0.7-1.1-1.2-1.9-1.6l-2.1-0.1l-0.6,0.5l-12,31.4h0.2
		c1.6,0,3.2,0.3,4.7,0.9l0.5,0.2L133.8,111.2 M142.6,116.4c0.1-0.5-0.1-1.1-0.6-1.9c-0.5-0.7-1.1-1.3-1.8-1.8
		c-0.7-0.5-1.2-0.7-1.7-0.7l-0.4,0.3c-0.2,0.4,0,1,0.6,1.8c0.5,0.7,1.1,1.3,1.8,1.8c0.7,0.5,1.2,0.7,1.6,0.6
		C142.4,116.7,142.5,116.6,142.6,116.4 M144.6,114.9l0.3,0.9C145.2,115.4,145.1,115.1,144.6,114.9 M147.3,110.4
		c-1.1-0.9-2.4-1.1-4-0.8c-1.6,0.3-2,1-1.3,2.1l1.2,1.1l1.9,0.7c0.7,0.3,1.2,0.6,1.3,0.9c0.7,1.9-0.2,3.3-2.6,4.3
		c-1.6,0.7-3.6,1.1-5.8,1.2l-0.4-0.1l-0.1-0.2l0.4-1.2c0.5-0.9,0.1-1.3-1.2-1.2c-1.4,2.1-1.9,3.5-1.6,4.2c0.5,1.1,1.8,2,4.1,2.6
		l4.9,1.1c0.4,0.1,0.4,0.3,0,0.6l-1,0.3l-5.6-0.9c-0.1,1.3,0.3,2.4,1.4,3.3c0.9,0.7,2.1,1.3,3.6,1.7l3.2,0.4
		c0.4,0.1,0.4,0.2,0.1,0.5l-0.9,0.4l-4.8-0.6c1.1,1.9,3.4,3,7,3.3c3.3,0.2,5.9-0.2,7.7-1.3c2.1-2.7,3-5.8,2.6-9.5
		c-0.4-3.4-1.7-6.5-4-9.2l-0.5,0.1c-1.2-0.1-2.3-0.5-3.2-1.2L147.3,110.4 M146,108.5l-2.5-4.4c-0.4-0.7-1-1.3-1.8-1.8
		c-0.8-0.5-1.6-0.8-2.3-0.8l-25.2,0.6c-0.6,0-1,0.2-1.1,0.6c-0.1,0.4,0,0.9,0.3,1.4l7.1,11.2c0.7,1.1,1.8,1.9,3.2,2.3l3.9-10.3
		l0.8-1l3.7,0.2c1.7,0.6,2.7,1.6,3.1,3.2c0.2,0.8,0.2,1.5,0,2.1l-2.2,6.1l1.7-0.1c1.1-1.5,2.2-2.4,3.4-2.5h0.6l-0.3-0.5
		c-0.9-1.3-1.2-2.5-0.9-3.4c0.2-0.7,0.7-1,1.5-1.1l1.1,0.1c1.6-1.5,3.4-2.2,5.6-2.1L146,108.5 M133.9,102.9c0.2-0.7,0.7-1,1.5-1.1
		c0.8-0.1,1.7,0.2,2.7,0.9c1,0.6,1.9,1.5,2.6,2.5c0.9,1.4,1.2,2.6,0.8,3.4c-0.2,0.7-0.7,1-1.4,1.1c-0.8,0.1-1.8-0.2-2.8-0.9
		c-1-0.7-1.8-1.6-2.5-2.6C133.8,105.1,133.6,103.9,133.9,102.9 M135,103.6c-0.2,0-0.3,0.1-0.4,0.2c-0.2,0.4,0,1,0.6,1.8
		c0.5,0.7,1.1,1.3,1.8,1.8c0.7,0.5,1.2,0.7,1.6,0.6c0.2,0,0.4-0.1,0.4-0.2c0.1-0.5-0.1-1.1-0.6-1.8c-0.5-0.7-1.1-1.4-1.8-1.9
		C136,103.7,135.5,103.5,135,103.6 M115.8,93.4c-0.8,0.5-1.3,1.1-1.7,1.7l-0.8,5.4l0.5-0.1l25.3-0.6c1.1,0,2.2,0.3,3.3,1.1
		c1.1,0.7,2,1.6,2.5,2.7l3.4,5.9l2.3,2.1c0.9,0.8,1.8,1.3,2.8,1.4c0.1-1.4-0.2-2.7-0.8-3.9l-8.1-14.2c-0.3-0.7-0.9-1.3-1.6-1.8
		c-0.7-0.5-1.4-0.8-2.2-0.8L118,92.7C117.3,92.7,116.5,92.9,115.8,93.4 M120.2,95.6c0.1-0.2,0.3-0.4,0.5-0.5
		c0.3-0.2,0.5-0.2,0.8-0.2h14.2c0.2,0,0.4,0.1,0.5,0.2c0.1,0.2,0.1,0.4,0,0.6l-0.6,1.2l-0.6,0.6l-0.7,0.2h-14.2
		c-0.2,0-0.4-0.1-0.5-0.2c-0.1-0.2-0.1-0.3,0-0.5L120.2,95.6 M117.5,90.9h2.2c-0.1-6,0.7-11.4,2.5-16.2c-4.4,1.8-8.3,3.9-11.9,6.4
		c-4,2.7-7.3,5.6-9.8,8.8c-3.7,4.6-5.9,9.9-6.5,15.8c-0.6,6,0.5,11.6,3.2,16.8c2.1-2.5,4.5-3.9,7.2-4.2c2.9-0.3,5.6,0.2,8.1,1.3
		c0.6-3.5,1.7-6.1,3.5-7.8l0.4-0.2l-4.3-6.8c-0.6-1-0.8-1.9-0.6-2.7l1.1-7.8v-0.2c0.4-0.9,1.1-1.6,2.1-2.2
		C115.5,91.4,116.5,91,117.5,90.9 M119.4,36.4c-0.6-0.5-1.1-0.4-1.4,0.3c-0.3,0.7-0.3,1.6-0.1,2.7c0.1,0.6,0.6,1.5,1.4,2.8
		c0.6-1.6,1.3-3.2,2.1-4.7C120.8,37.3,120.1,36.9,119.4,36.4 M157.1,38.2l1.3,0.9l0.8-3.1L157.1,38.2 M134.3,30.7
		c-0.5-0.3-1-0.5-1.5-0.6l-2.2-0.1c-0.4,0.3-1.2,1.3-2.4,2.9l-1.9,2.7c-1.1,1-2.2,1.6-3.2,1.8c-2,3.7-3.2,7.3-3.8,10.9
		c-0.9,5.8,0,11.3,2.6,16.6c2.7,5.5,6.7,9.3,11.9,11.3c3,1.1,5.7,1.6,8.1,1.5l2.6-0.3c0.1,0.2-0.5,0.6-1.9,1.1l-2.8,0.6
		c1.8,1.1,4.5,0.7,8-1.1c3.6-1.9,5.4-4.2,5.6-6.8c-1.4,1-2.6,1.6-3.8,1.8c-1.1,0.2-1.2-0.1-0.3-0.8c2.1-1.6,4.1-3.6,5.9-6l-0.9-1.4
		c-0.7-1.3-1.2-3-1.4-5.1c-0.2-2.2-0.2-4.4,0.1-6.9c0.3-2.2,0.8-4.3,1.5-6.2c0.7-1.9,1.5-3.4,2.4-4.5l-1.3-1
		c-0.3-0.2-0.4-0.4-0.2-0.6c0.1-0.3,0.4-0.4,0.8-0.2c0.4,0.1,0.9,0.4,1.6,1l0.3-0.2l0.1-0.7l-2.5-1.5c-0.4-0.2-0.5-0.4-0.4-0.8
		c0.1-0.2,0.2-0.3,0.4-0.3c2.3-1.4,3-3,2.2-4.8c-0.7-1.7-1.9-2.4-3.4-2.1c-1.6,0.3-2.8,0.7-3.6,0.9c-1.9,0.8-3.3,0.7-4.1-0.2
		c-1.2-1.2-2.5-2-3.9-2.3c-1.3-0.3-2.5-0.1-3.5,0.5c-1,0.6-1.8,1-2.4,1.1L134.3,30.7 M126.9,37.1c0.2-0.2,0.4-0.2,0.7-0.1
		c0.2,0.1,0.4,0.2,0.4,0.5l0.1,0.9c0.1,0.3,0,0.5-0.1,0.8c-0.2,0.2-0.4,0.3-0.7,0.3l-3.3,0.3l-0.5-0.1l0.3-0.4L126.9,37.1
		 M124.2,46.6c0-0.8,0.1-1.5,0.4-2c0.3-0.6,0.6-0.9,1-0.9c0.4,0,0.8,0.3,1.1,0.9c0.3,0.6,0.5,1.2,0.5,2c0,0.8-0.1,1.4-0.4,2
		c-0.3,0.6-0.6,0.8-1.1,0.8c-0.4,0-0.8-0.3-1.1-0.8C124.4,48.1,124.2,47.4,124.2,46.6 M134,44.2c0.2-0.5,0.4-0.8,0.8-0.8
		c0.3,0.1,0.4,0.4,0.2,0.9c-0.4,1.5-0.9,2.9-1.5,4.3l-1.6,3.4c-0.1,0.2-0.1,0.4-0.1,0.7l0.2,0.7l1.6,2l0.1,0.5l-0.4,0.4
		c-0.8,0.5-1.4,0.4-2-0.2l-1.9-2.7c-0.1-0.2-0.2-0.4-0.2-0.6c0-0.2,0.1-0.4,0.2-0.7l3.1-4.5L134,44.2 M144.1,35.4l1.9,1.7
		c1.2,1.2,1.8,2.2,1.6,2.9l-1.2-0.4l-1.9-1l-2.4-0.9c-0.1-0.2,0-0.5,0.4-1.1l0.6-0.9c0.1-0.2,0.2-0.3,0.4-0.4L144.1,35.4
		 M144.4,47.7c-0.3,0.6-0.7,0.9-1.1,0.9c-0.4,0-0.8-0.3-1.1-0.9c-0.3-0.5-0.4-1.1-0.4-1.9c0-0.8,0.1-1.4,0.4-2.1
		c0.3-0.5,0.6-0.8,1-0.8c0.5,0,0.8,0.3,1.1,0.8c0.3,0.5,0.4,1.2,0.5,2C144.9,46.5,144.8,47.2,144.4,47.7 M141.9,55.4l0.4,0l4.3,2.8
		c0.5,0.2,0.7,0.6,0.6,1.2l-0.6,3.8l-0.2,0.4l-0.4-0.2l-0.1-1.9c-0.1-0.2-0.3-0.3-0.6-0.3l-0.7,0c-1,0.9-2.2,1.7-3.6,2.6
		c-2.7,1.8-4.9,2.7-6.6,2.8c-1.7,0.1-3.6-0.4-5.8-1.3l-2.7-1.4l-0.6,0.1c-0.2,0.1-0.2,0.3-0.2,0.6l-0.1,0.8l-0.3-0.2l-1.9-2.8
		c-0.3-0.4-0.3-0.9,0-1.3l1.5-1.9c0.3-0.4,0.5-0.4,0.5,0.2v0.6c0,0.2,0.1,0.4,0.2,0.6l0.6,0.3l2.8,0.3c2.1,0.2,3.8,0.3,4.9,0.1
		c1.9-0.3,4.6-1.2,8.4-2.9l0.6-0.5c0.2-0.2,0.3-0.4,0.2-0.6l-0.6-1.3C141.9,55.6,141.8,55.4,141.9,55.4 M131.8,68l3.5-0.6l0.7,0.1
		c0.2,0.1,0.3,0.2,0.4,0.4l-0.1,0.6c-0.1,0.2-0.3,0.3-0.6,0.4l-2.5,0.1l-1.4-0.6l-0.3-0.4L131.8,68 M144.2,59.1l-2-0.1
		c-3.4,1.6-6.2,2.5-8.4,2.8c-1.4,0.2-3.1,0.1-5.3-0.1l-2.8-0.3c-0.7-0.1-1,0.2-0.8,0.7c0.2,0.5,0.4,0.8,0.8,0.9l5.2,1.6l3.4,0.1
		c1.5-0.1,2.6-0.4,3.4-0.7c1.1-0.4,3.2-1.5,6.1-3.3l0.7-0.6C144.8,59.7,144.7,59.4,144.2,59.1 M161.5,16.2l-0.2-0.7l-4,0.6l0.6,1.8
		L161.5,16.2 M161.4,13.7l-3.9-1.1l-0.3,1.9l4.1-0.2L161.4,13.7 M150.9,19.2l-3.7-0.8c-0.4-0.1-0.9-0.4-1.3-0.7l-1.2-0.8
		c-1.4-0.8-2.5-1.2-3.3-1c-0.7,0.1-1.7,1.3-3,3.7l-1.4,2.1c-0.5,0.5-1.3,0.6-2.4,0.2l-3.3-0.2c-0.6,0.2-1.5,0.9-2.7,2.2l-2.3,2.8
		c-0.8,1-1.8,1.6-2.9,1.8c-1.2,0.2-2.3-0.1-3.2-0.8c-0.7-0.5-1-1.3-1-2.3c-0.7,0.7-1.2,1.5-1.5,2.5c-0.4,1.2-0.4,2.6,0.1,4.1
		c0.5,1.6,1.2,2.8,2.2,3.8c0.8,0.6,1.7,0.8,2.7,0.6c0.9-0.2,1.8-0.8,2.6-1.6l1.9-2.6c1.2-1.7,2.1-2.7,2.6-3c0.9-0.5,1.6-0.7,2.2-0.7
		c0.2,0,0.9,0.3,1.9,0.7l1.2,0.5c0.4,0.2,0.9,0.1,1.4-0.2l3.3-2.2c0.7-0.5,1.1-0.8,1.4-0.9c1-0.5,2.4,0.1,4.3,1.9l3.3,3
		c0.4,0.1,1.3-0.2,2.6-0.8c1.4-0.7,2.5-1.2,3.1-1.2c1.5-0.3,2.8,0,3.8,0.8c0.8,0.6,1.4,1.4,1.8,2.4c0.3-1.2,0.8-2.1,1.6-2.6l0.2-1.4
		c-1.3-1.8-2.6-2.9-3.8-3.4l-2.6-2.9C154,20.3,152.5,19.4,150.9,19.2 M158.9,9.4c-0.3,0.3-0.6,0.9-1,1.7l3.8,1.6l0.4-0.6L158.9,9.4
		 M170.6,160.6c-0.3-1.7-0.8-3.2-1.4-4.4c-1.1-1.8-2.3-2.1-3.6-1c0.6,2.5,0.7,5.1,0.3,7.6c-0.6,4.1-2.1,7-4.3,8.7
		c-0.7,0.5-1.3,0.9-2.1,1.1l-2.1,0.2c0.9,3,1.9,5.6,2.9,7.6c1.7,3.2,3.2,4.4,4.7,3.5c1.9-1.1,3.3-3.2,4.3-6.1c0.7-2.2,1-4.7,1.1-7.5
		c0-1-0.4-2.2-1.4-3.7c-1-1.5-1.5-2.7-1.5-3.6c-0.1-0.6,0.4-1.1,1.6-1.4C170.2,161.4,170.7,161,170.6,160.6 M164.1,141.3
		c1.1-3.2,1.5-6.2,1.2-9.1v-0.2l-9.3,1c-2.6,1.5-5.9,2.1-9.8,1.7c-4.4-0.4-6.9-1.9-7.7-4.6c0-0.2,0.1-0.4,0.4-0.4
		c-2.3-1.3-3.1-3-2.5-5.2l0.2-0.2c-1.7-0.7-2.7-1.7-2.9-2.8c-0.1-0.5,0-1.1,0.2-1.7h-1.4l-4.1,11.4h0.1c-1.1,2.2-2,4.5-2.8,6.9
		l-1.8,4.7l0.3,0.2v0.1c0.5,0.5,0.8,1,0.9,1.6c0.2,0.7,0,1.3-0.4,1.9c-0.4,0.6-1.1,1.1-2.1,1.4c1.7,11.6,4.5,22.3,8.5,32
		c1.9,4.8,3.8,8.5,5.5,11.3c2.8,1.5,5.7,1.8,8.8,0.8c2.8-0.9,5.3-2.6,7.4-5.1c-0.3-6.4-1.4-11.7-3.4-16c-1.5-0.6-2.9-1.4-4.1-2.4
		c-1.5-1.2-2.9-2.8-4.1-4.9c-0.8-1.4-1.6-3.3-2.5-5.8c-2.6-7.3-4.2-14.3-4.8-21.1c0-0.6,0.1-0.7,0.4-0.2l0.4,1.1
		c0.8,9.7,2.9,17.8,6.3,24.4c2.1,4,5.7,6.7,10.6,8.1l3.7,0.9l3.7-0.1c1.3-0.5,2.5-1.4,3.5-2.8c0.9-1.2,1.5-2.6,1.9-4.1
		c1.1-4.1,0.9-8-0.6-11.8l-1.3-3.1l-2.1,2.4c-2.2,3-4.6,5.4-7.3,7.3c-0.1,0.1-0.3-0.2-0.5-0.8c-0.2-0.6-0.3-1-0.1-1.1l7-7
		C161.6,147.1,163.1,144.3,164.1,141.3 M164.4,74.8l-0.8,0.7c-5.3,2.7-8.7,7.6-10.1,14.8c-1.2,5.8-1,12.1,0.6,18.9l0.7,1.9
		c1.5-1.6,3.6-2.7,6.1-3.4c-1.8-3.2-3.3-7.2-4.6-11.8c-0.1-0.4,0.1-0.7,0.6-0.8c0.5-0.2,0.9,0,1,0.4c1.3,4.6,2.8,8.5,4.5,11.6
		l0.1,0.2l5.7-0.4c0.5,0,0.6,0.2,0.3,0.4c-0.3,0.3-0.6,0.4-0.9,0.4c-5.6-0.2-9.5,1.2-11.9,4.1c-0.5,0.6-0.8,1-0.8,1.2v0.1
		c0,0.2,0.3,0.6,0.9,1.3c4.1,6.5,4.6,12.2,1.5,17l-0.6,0.8l0.1,0.1l2.3-0.2c4.3-0.5,7.8-1,10.5-1.7c2.9-0.7,5.4-1.5,7.4-2.5
		c2.7-1.3,4.7-2.8,6.1-4.7c3-3.9,3.6-9.4,1.8-16.5c-2.4-9.7-6-17.4-10.9-23.2C171,79.9,167.8,77,164.4,74.8 M162.3,73.9l0.6-0.2
		c-2.4-1.5-4.9-2.5-7.5-3.1l-0.3,1.7c-1.4,4.4-4.8,7.2-10.1,8.6c-5.4,1.5-9.2,0.3-11.4-3.6c-1.4-0.4-3.9-1.8-7.4-4.1l-0.6,0.2
		c-2.1,5-3,10.7-2.8,17l-0.2,0.5l17.6-0.2c0.9,0,1.9,0.3,2.9,0.9c0.9,0.6,1.7,1.3,2.3,2.2l4.2,7.4c-0.3-5.9,0.4-11.2,2.3-15.7
		C154.1,80.2,157.6,76.4,162.3,73.9 M165.6,12.6c-0.5-0.1-0.9,0.1-1.2,0.3c-0.4,0.2-0.6,0.6-0.7,1.1c-0.1,0.7,0.1,1.2,0.8,1.6
		l0.4,0.2l-1.9,14.8l-0.3,0.1c-0.8,0.4-1.3,1.3-1.5,2.6c-0.1,0.9-0.3,2.1-0.8,3.6l-1.1,4.7l-0.2,0.1l-1,1l-1.3,2
		c-1.1,2.3-1.9,5-2.4,8.2c-0.3,2.3-0.4,4.4-0.2,6.5c0.2,2,0.6,3.6,1.2,4.8l0.9,1.2l0.2,0.2l0.1,0.1l0.8,0.3l0.5-0.1
		c0.9-0.1,1.8-0.8,2.7-2.1l0.1-0.2l0.2-0.1c1.3-0.3,2.5-1.2,3.6-2.9c1-1.7,1.7-3.8,2.1-6.2l0.1-0.7h-0.1l0.1-0.1
		c0.2-2.3,0-4.4-0.7-6.3l-0.4-0.7v0l-0.3-0.6l-0.1-0.1l-0.9-1.1l-0.9-0.7l0.1-1.8c0.2-3.5,0.4-6.3,0.9-8.3l0.1-1.2v0
		c0-0.6-0.1-1.2-0.4-1.6l-0.6-0.6l1.9-14.8l0.4-0.1c0.7-0.2,1.1-0.6,1.2-1.3c0.1-0.5,0-0.9-0.3-1.2C166.4,12.8,166,12.6,165.6,12.6
		 M163,44.6c0.8,0.1,1.4,0.5,1.9,1.2c0.6,0.9,1.1,2.1,1.3,3.6c0.2,1.5,0.2,3.2,0,5c-0.3,2.6-1.1,4.7-2.1,6.3
		c-1.1,1.6-2.3,2.4-3.6,2.2c-1.3-0.2-2.2-1.2-2.8-3c-0.6-1.8-0.8-4.1-0.4-6.7c0.3-2.6,1.1-4.7,2.1-6.4
		C160.6,45.2,161.7,44.4,163,44.6 M163.9,46.6c-0.3-0.4-0.7-0.7-1.1-0.8c-0.8-0.1-1.7,0.5-2.5,1.8c-0.9,1.5-1.5,3.4-1.8,5.7
		c-0.3,2.2-0.2,4.2,0.3,5.8c0.4,1.5,1.1,2.4,1.9,2.5c0.8,0.1,1.7-0.6,2.5-1.9c0.9-1.4,1.4-3.3,1.8-5.6c0.2-1.6,0.2-3.1,0-4.5
		C164.8,48.3,164.5,47.3,163.9,46.6 M169,17.2l-0.5,0.6l2.6,3.1h0.2l1.2-1.3C171.5,19,170.3,18.2,169,17.2 M169.8,15.6l-0.2,0.6
		c1.7,0.8,2.9,1.5,3.8,1.9l0.7-1.8L169.8,15.6 M169.8,13.9l0.1,0.7l4.3,0.2l-0.2-2L169.8,13.9 M171.5,8.4l-1.6-1.1l-2,3.8l0.5,0.4
		L171.5,8.4 M166.2,10.4l0.6,0.2l1.6-4l-1.9-0.5L166.2,10.4 M163.1,6.5l1.4,4l0.7-0.1L165,6.1L163.1,6.5 M162.9,11.3l0.6-0.4
		l-1.9-3.8L160,8.2C161,9.2,162,10.2,162.9,11.3 M173.5,11.4l-1-1.8l-3.4,2.6l0.3,0.6L173.5,11.4z"/>
</g>
</svg>
