<?xml version="1.0" encoding="utf-8"?>
<!-- Generator: Adobe Illustrator 25.4.1, SVG Export Plug-In . SVG Version: 6.00 Build 0)  -->
<svg version="1.1" id="FortuneFinder_x2C_PerkClip_x5F_4c942" image-rendering="auto"
	 xmlns="http://www.w3.org/2000/svg" xmlns:xlink="http://www.w3.org/1999/xlink" x="0px" y="0px" viewBox="0 0 240 240"
	 style="enable-background:new 0 0 240 240;" xml:space="preserve">
<style type="text/css">
	.st0{fill:#FFFFFF;}
</style>
<g>
	<rect width="240" height="240"/>
	<path class="st0" d="M61.3,204.3c0.4-0.8,1-1.7,1.9-2.6l-9-1.2c-2.8,2-4.7,4-5.6,6.2c-1.1,2.4-0.9,4.6,0.6,6.6
		c1.6,2.2,4.3,4.1,8.2,5.4c4,1.4,8.6,2.2,13.9,2.3l2.5-6.9c-2.9-0.2-5.3-0.8-7.4-1.6c-2.1-0.9-3.7-2-4.6-3.3
		C60.7,207.7,60.5,206.1,61.3,204.3 M96.5,216.9c6.8-2.8,11.1-6.1,12.8-10c0.9-1.9,0.9-3.7,0.1-5.4l-11.5,1.1c0.2,1,0.1,2-0.3,3.1
		c-1,2.4-3.5,4.4-7.5,6.1c-4,1.7-8.3,2.5-13.1,2.6l-2.8,6.9C82.2,221.1,89.7,219.7,96.5,216.9 M137.2,192.6
		c-1.7,1.3-2.9,2.4-3.6,3.4l-0.7,1.1c-0.2,0.5-0.1,0.8,0.2,1c0.7,0.4,1.3,0.7,1.9,0.8l7.9-0.2l4.4-1.1c1.5-0.6,2.8-1.3,3.8-2.2
		l4-3.7c0.2-0.2,0.5,0.2,0.8,1.1c-0.1-0.3-0.1-0.3,0.1-0.2l0.4,0.3c0.6,0.2,1.2,0.2,1.8,0c1.7-0.5,2.7-1,3.1-1.7
		c0.9-1.5,0.7-3.4-0.5-5.9c-2.4,2.5-4.9,4-7.6,4.7c-1.5,2.3-3.2,4-5.1,5.1c-1.5,0.9-3.1,1.5-4.8,1.9c-2.3,0.6-3.9,0.3-4.9-0.7
		C137.7,195.3,137.3,194.1,137.2,192.6 M155.8,171.1l-1.1-1.1l-1.3,3.8c-1.1,2.8-2.1,4.8-3,5.9c-1.6,2.1-3.5,2.8-5.7,2.2
		c-0.7-0.2-1.4-0.5-2.1-0.9c-0.8,1.3-1.5,2.8-2.2,4.4c-1.2,2.7-2,4.6-2.2,5.8c0.1,0.4,0.1,0.7-0.1,0.8l-0.1,0.1
		c-0.1,0.6,0,1.3,0.1,1.9c0.2,1,1.8,1.3,4.6,0.8c2.2-0.4,4-1.1,5.4-2.2c1.5-1.1,2.9-2.5,4.2-4.2c0-0.3,0-0.4,0.1-0.4l0.2-0.1
		c1.2-1.8,2.2-3.7,2.9-5.8c0.2-0.6,0.2-1.3,0.2-2l-0.3-1.9c-0.1-0.6,0-1,0.3-1.2c0.1-0.2,0.5-0.3,1.1-0.4c0.5-0.1,0.8-0.2,0.8-0.4
		c0.2-1,0.1-1.9-0.2-2.8C157,172.8,156.5,172,155.8,171.1 M155,154.4l-2.9,2.2c1.8,2.8,2.7,6.8,2.7,11.9c2,2,3.2,4.1,3.4,6.1
		c0.2,1.3,0.2,2.2,0.2,2.6c-0.1,0.8-0.6,1.2-1.6,1.3c-0.5,0.1-0.7,0.6-0.6,1.4l0.4,1.9c0.1,0.5-0.1,1.2-0.4,2l-1.6,3.4
		c2.1-0.9,3.9-2.2,5.6-4.1l0.1-1.5C160.8,171.3,159,162.2,155,154.4 M94.6,195.9c0.1,0.4-0.1,0.8-0.3,1.2c-0.3,0.3-0.6,0.5-1.1,0.5
		H93c1.7,0.8,3,1.7,3.8,2.8l11.4-0.9c-2.4-2.8-6.6-4.8-12.7-6.1l-1,2.1L94.6,195.9 M88.1,192.8l0.4,3.2h4.4l-0.1-0.9l10.3-20.5
		l-8.4-4.9l-10.6,20.9L88.1,192.8 M94.6,177.4c-0.1-0.5,0-0.9,0.3-1.2c0.3-0.3,0.6-0.5,1.1-0.5c0.5,0,0.9,0.2,1.3,0.5
		c0.4,0.3,0.6,0.7,0.6,1.2c0,0.5-0.1,0.8-0.3,1.1c-0.3,0.3-0.7,0.5-1.2,0.5c-0.5,0-0.9-0.2-1.2-0.5
		C94.8,178.2,94.6,177.8,94.6,177.4 M89.7,188.8c-0.4-0.3-0.6-0.7-0.6-1.2s0-0.9,0.3-1.2c0.3-0.3,0.7-0.5,1.2-0.5
		c0.5,0,0.9,0.2,1.2,0.5c0.4,0.3,0.6,0.7,0.6,1.2c0.1,0.5,0,0.9-0.3,1.2c-0.3,0.3-0.7,0.5-1.2,0.5C90.5,189.3,90.1,189.1,89.7,188.8
		 M86.8,195.9l-0.3-2.2l-2.2-1.3c-5.2,0.1-10.2,0.7-15.2,1.9c-4.9,1.2-9.1,2.8-12.7,4.9l9,0.9c2.2-1.4,4.8-2.4,7.9-3.2
		c3.2-0.8,6.4-1.1,9.7-1.1L86.8,195.9 M97,165.4l0.3,0.8l1.5-3C97.5,163.7,96.9,164.5,97,165.4 M102.2,172.1l4.4-8.7
		c-1.2-0.6-2.6-0.9-4.2-0.9l-1.3,0.1l-3.4,6.8L102.2,172.1 M106.4,167.7c1.4-0.5,2.1-1.3,2-2.3l-0.4-0.9L106.4,167.7 M107,152.6
		l-0.9,0l-4.4,8.8h0.5c1.8,0,3.5,0.3,4.9,1l4.5-8.8C110.3,153,108.8,152.6,107,152.6 M103.9,153c-1.7,0.6-2.5,1.5-2.3,2.5
		c0,0.4,0.2,0.8,0.5,1.1v0.1L103.9,153 M112.9,155l-1.3,2.5c1.1-0.6,1.5-1.2,1.4-2L112.9,155 M118.4,144.9l-0.2-0.5L117,147
		C118,146.4,118.5,145.7,118.4,144.9 M112.4,142.1l-1,0l-4.8,9.4h0.1c2,0,3.8,0.4,5.2,1.1l4.8-9.5l-0.2-0.1l-0.3-0.1
		C115.3,142.4,114,142.1,112.4,142.1 M107.6,146l1.8-3.4c-1.6,0.6-2.4,1.4-2.2,2.4C107.1,145.3,107.2,145.7,107.6,146 M103.4,137.4
		l7.3,2.5l1.9-3.7l-8.2-2.8C103.2,134.4,102.9,135.7,103.4,137.4 M90.3,128.6l-4-1.3l-0.8-0.2l-0.8,0.2c-0.2,0.2-0.3,0.6-0.2,1.3
		c0.3,1.2,0.9,2.1,1.9,2.8c0.5,0.4,1,0.7,1.5,0.8l1.3,0.4C89.4,131.2,89.8,129.9,90.3,128.6 M94.4,124.9l-0.1,0.2
		c-2.3,2.7-3.6,5.7-3.9,8.8c-0.3,2.2,0.4,3.9,1.9,5.1c0.6,0.5,1,0.6,1.2,0.5c0.3-0.2,0.2-0.6-0.2-1.3c-0.8-1.6-1.1-3.4-0.7-5.2
		l0.9-2.4l0.4-0.4l0.6,0.1c0.5,0.2,0.7,0.6,0.6,1.1c-0.5,1.7-0.8,3-0.9,3.9c-0.1,1.7,0.2,3.2,1.1,4.5c0.8,1.1,1.8,1.8,3.1,2.1
		c1.3,0.2,1.2-0.3-0.2-1.4c-1.4-1-2.1-2.6-2-4.7l0.7-4.2c0-0.2,0.1-0.4,0.3-0.5l0.6-0.1c0.5,0.1,0.8,0.4,0.8,0.9
		c0,0.9-0.2,2.4-0.6,4.3c0,1.7,0.7,3.1,2.2,4.4c1.2,0.8,2.1,1,2.8,0.6c0.7-0.4,0.6-1-0.3-1.8c-1.2-0.9-1.9-2-2-3.3
		c-0.2-1.8,0.9-3.3,3.2-4.7h0.1c1.6-0.7,3.1-0.7,4.6-0.1c1.1,0.5,2.1,1.3,2.8,2.3h2.3l1.3-2.8c-0.6-6-4.7-9.4-12.2-10.1
		c-1.5-0.1-3.1,0.2-4.6,1.1C97,122.3,95.7,123.5,94.4,124.9 M138.4,118.3l-0.1,0.8h1.4C139.3,118.9,138.9,118.7,138.4,118.3
		 M131.7,123c0.1-0.8,0.3-1.6,0.7-2.2H130l-5.4,11.1l0.2,0.1c-1,1.6-2,3.3-2.8,5.2c0.7,4.6,2.6,9.2,5.7,13.7l0.1,0.1
		c2-4.4,5.6-8.6,10.8-12.6c0.1-0.1,0.3,0.2,0.5,0.8c0.2,0.6,0.2,1,0,1.2c-4.5,3.4-7.8,7.1-10,11.2c-2.3,4.4-2.6,8.3-0.9,11.8
		c1.4,2.9,3.6,5.9,6.4,8.9c1.9,2.1,3.9,4,6,5.7l1.5,1.2c0.6,0.4,1.2,0.7,1.8,0.9c2.8,0.8,5.1-0.4,7-3.4c1-1.7,2.1-4.4,3.2-8.3
		c0.1-3.5-0.2-6.3-1.1-8.4l-1.1-2.1l-6.1,2.7c-0.2,0.1-0.3-0.2-0.5-0.8c-0.2-0.7-0.2-1.1,0-1.1c5.3-2.5,9.9-5.9,13.7-10.1
		c4.4-4.8,6.9-9.8,7.5-15l-12.8,1.1c-2.6,1.8-6,2.5-10.2,2.1c-4.5-0.4-7.1-1.9-7.6-4.7c0-0.2,0.1-0.3,0.4-0.5
		c-2.2-1.2-2.9-2.9-2.1-5.2l0.2-0.3C132.4,125,131.6,124.1,131.7,123 M140.4,115.8c-0.4-0.7-0.9-1.3-1.6-1.8
		c-0.7-0.4-1.2-0.6-1.6-0.6l-0.5,0.2c-0.2,0.4,0,1,0.4,1.8c0.5,0.7,1,1.3,1.7,1.8c0.6,0.5,1.2,0.7,1.6,0.6l0.4-0.2
		C140.9,117.2,140.8,116.6,140.4,115.8 M128.1,109.9l-0.6,0.6L112,141h0.2c1.7,0,3.2,0.3,4.7,0.9l0.5,0.2l14.8-29.6l-0.2-0.9
		c-0.3-0.7-0.9-1.2-1.8-1.6L128.1,109.9 M143.2,116.4l0.2,1.2C143.8,117.1,143.8,116.7,143.2,116.4 M149.1,114.7
		c-0.6-0.4-1.3-1.1-2.2-2.1c-2-2.2-4-2.4-6-0.8c-0.8,0.6-1,0.7-0.6,0.5l0.4,0.6l1.6,1.7c0.7,0.5,1.6,0.9,2.6,1.2l0.3,0.2
		c0.5,1.9-0.4,3.3-2.9,4.4c-1.6,0.7-3.6,1.1-5.9,1.2c-0.4,0-0.6-0.1-0.5-0.3c0.5-1,0.6-1.7,0.4-1.9c-0.2-0.2-0.7-0.2-1.2,0.2
		c-1.7,1.1-2.2,2.3-1.6,3.6c0.5,1.1,1.8,1.9,4,2.6l4.7,1c0.4,0.1,0.4,0.3,0,0.6c-0.4,0.2-0.7,0.3-1,0.2l-5.6-0.9
		c-0.2,1.3,0.2,2.4,1.2,3.3c0.8,0.7,2,1.3,3.6,1.7l3.1,0.4c0.4,0,0.4,0.2,0.1,0.4l-0.9,0.4l-4.9-0.6c1,2.2,3.5,3.3,7.6,3.4
		c3.9,0.1,6.6-0.6,7.9-2.2c1.9-2.6,2.6-5.6,2.2-9c-0.4-3.2-1.6-6.2-3.7-8.8C150.8,115.5,149.8,115.2,149.1,114.7 M144.8,110.1
		l0.4,0.1l-2.2-4.6c-0.3-0.7-0.9-1.3-1.6-1.8c-0.7-0.5-1.5-0.8-2.2-0.8l-26,0.5c-0.6,0-1,0.2-1.2,0.6c-0.2,0.3-0.1,0.8,0.2,1.4
		l6.2,10.9c0.6,1.1,1.5,1.8,2.9,2.3l5.1-10l0.9-0.9l3.8,0.1c1.7,0.6,2.6,1.6,2.8,3.1c0.1,0.7,0.1,1.4-0.2,2.1l-2.9,5.9h2.6
		c1-1.2,2.1-1.9,3.3-2.1h0.3l-0.5-0.8c-0.8-1.3-1-2.4-0.5-3.3c0.3-0.6,0.8-1,1.6-1.1l1.5,0.2C140.9,110.4,142.8,109.8,144.8,110.1
		 M133.2,104.4c0.3-0.6,0.8-1,1.6-1.1c0.8,0,1.7,0.3,2.7,0.9c1,0.6,1.8,1.4,2.3,2.4c0.8,1.4,0.9,2.5,0.6,3.4c-0.3,0.6-0.9,1-1.6,1.1
		c-0.8,0-1.7-0.3-2.7-0.9c-1-0.6-1.8-1.5-2.4-2.5C133,106.5,132.8,105.4,133.2,104.4 M133.9,105.3c-0.2,0.4,0,1.1,0.4,1.8
		c0.4,0.7,1,1.3,1.6,1.8c0.6,0.4,1.2,0.6,1.6,0.6c0.2,0,0.4-0.1,0.4-0.2c0.2-0.4,0.1-1-0.4-1.8c-0.4-0.7-1-1.3-1.6-1.8
		c-0.6-0.5-1.2-0.7-1.6-0.6L133.9,105.3 M115.6,95.1c-0.8,0.5-1.4,1-1.8,1.6l-1.3,5.3l26.5-0.6c1.1,0,2.2,0.3,3.3,1
		c1.1,0.7,1.9,1.6,2.4,2.7l3.2,6.4l1.7,1.6l1.9,1.2l1-1.1c0.1-1.1-0.1-2-0.5-2.8l-6.8-13.9h-0.1c-0.3-0.7-0.7-1.3-1.4-1.8
		c-0.7-0.5-1.5-0.7-2.2-0.7l-23.2,0.2C117.3,94.4,116.5,94.6,115.6,95.1 M120.6,96.7c0.3-0.2,0.5-0.3,0.8-0.2l14.6,0.1
		c0.2,0,0.4,0.1,0.5,0.2c0.1,0.1,0,0.3-0.1,0.6l-0.8,1.2c-0.3,0.5-0.8,0.8-1.4,0.8l-14.6-0.1c-0.2,0-0.4-0.1-0.4-0.2
		c-0.1-0.2-0.1-0.3,0.1-0.6l0.7-1.2L120.6,96.7 M117.8,92.7h1.9c-0.1-6.1,0.7-11.6,2.5-16.3c-4.3,1.8-8.3,3.9-11.9,6.3
		c-4,2.7-7.2,5.7-9.8,8.9c-3.5,4.4-5.9,9.4-7.1,15c-1.3,5.8-1.1,11.3,0.6,16.6c2.3-2.3,4.8-3.6,7.5-3.8c2.2-0.2,4.1,0,5.7,0.4
		c1.4,0.4,3,1.2,4.8,2.3c0.6-3.6,1.5-6.4,2.8-8.5v-0.1l-4.1-7.2c-0.5-1-0.6-1.8-0.4-2.6l1.9-7.7l0.1-0.1v-0.1
		c0.5-0.8,1.3-1.5,2.3-2.1C115.7,93,116.7,92.7,117.8,92.7 M119.4,37.9c-0.6-0.5-1.1-0.4-1.4,0.3c-0.3,0.7-0.3,1.6-0.1,2.7
		c0.1,0.7,0.6,1.6,1.4,2.8c0.6-1.7,1.3-3.3,2.1-4.8C120.8,38.9,120.1,38.5,119.4,37.9 M158.4,40.8l0.8-3.1l-2.1,2.2L158.4,40.8
		 M134.3,32.2c-0.5-0.2-1-0.4-1.5-0.6c-1-0.3-1.7-0.3-2.2,0c-0.4,0.3-1.2,1.2-2.4,2.9l-1.9,2.7c-1.1,1-2.2,1.6-3.2,1.8
		c-2,3.7-3.2,7.4-3.8,10.9c-0.9,5.8,0,11.3,2.6,16.5c2.7,5.5,6.7,9.3,11.9,11.3c3,1.1,5.7,1.6,8.1,1.5l2.6-0.3
		c0.1,0.2-0.5,0.6-1.9,1.1l-2.8,0.6c1.8,1.1,4.5,0.7,8-1.1c3.6-1.9,5.4-4.2,5.6-6.8c-1.4,1-2.6,1.6-3.8,1.8
		c-1.1,0.2-1.2-0.1-0.3-0.8c2.1-1.5,4.1-3.5,5.9-6l-0.9-1.4c-0.7-1.3-1.2-3-1.4-5.2c-0.2-2.1-0.2-4.4,0.1-6.8
		c0.3-2.2,0.8-4.3,1.5-6.2c0.7-1.9,1.5-3.4,2.4-4.6l-1.3-1c-0.3-0.1-0.4-0.3-0.2-0.6c0.1-0.3,0.4-0.4,0.8-0.2c0.4,0.1,0.9,0.4,1.6,1
		l0.3-0.2l0.1-0.6l-2.5-1.6c-0.4-0.2-0.5-0.4-0.4-0.7c0.1-0.2,0.2-0.4,0.4-0.4c2.3-1.4,3-3,2.2-4.8c-0.7-1.7-1.9-2.4-3.4-2.1
		c-1.6,0.3-2.8,0.6-3.6,0.9l-4.1-0.1c-1.2-1.3-2.5-2.1-3.9-2.4c-1.3-0.3-2.5-0.1-3.5,0.5c-1,0.6-1.8,1-2.4,1.2L134.3,32.2
		 M126.9,38.6c0.2-0.2,0.4-0.2,0.7-0.1c0.2,0.1,0.4,0.3,0.4,0.6l0.1,0.8c0.1,0.3,0,0.5-0.1,0.8c-0.2,0.2-0.4,0.3-0.7,0.3l-3.3,0.3
		l-0.5-0.1l0.3-0.4L126.9,38.6 M124.2,48.2c0-0.8,0.1-1.4,0.4-2c0.3-0.5,0.6-0.8,1-0.8c0.4,0,0.8,0.2,1.1,0.8c0.3,0.5,0.5,1.2,0.5,2
		s-0.1,1.5-0.4,2c-0.3,0.5-0.6,0.8-1.1,0.9c-0.4,0-0.8-0.3-1.1-0.9C124.4,49.7,124.2,49,124.2,48.2 M132.5,49.2l1.5-3.4
		c0.2-0.5,0.4-0.8,0.8-0.8c0.3,0.1,0.4,0.4,0.2,0.9c-0.4,1.5-0.9,2.9-1.5,4.2l-1.6,3.4c-0.1,0.2-0.1,0.4-0.1,0.7l0.2,0.6l1.6,2
		c0.3,0.4,0.2,0.8-0.3,0.9l-0.6,0.2c-0.5,0.1-1-0.1-1.4-0.4l-1.9-2.6c-0.1-0.2-0.2-0.4-0.2-0.7c0-0.3,0.1-0.5,0.2-0.7L132.5,49.2
		 M143.5,36.9l0.6,0.1l1.9,1.7c1.2,1.2,1.8,2.2,1.6,2.9l-1.2-0.5l-1.9-0.9c-0.4-0.2-0.9-0.4-1.6-0.6l-0.8-0.3
		c-0.1-0.2,0-0.5,0.4-1.1l0.6-0.8C143.2,37.1,143.3,37,143.5,36.9 M142.2,49.3c-0.3-0.5-0.4-1.2-0.4-1.9c0-0.8,0.1-1.4,0.4-2
		c0.3-0.6,0.6-0.9,1-0.9c0.5,0,0.8,0.3,1.1,0.9c0.3,0.5,0.4,1.2,0.5,2c0,0.8-0.1,1.4-0.4,2c-0.3,0.6-0.7,0.9-1.1,0.8
		C142.9,50.2,142.6,49.9,142.2,49.3 M142.4,57l4.3,2.8c0.5,0.2,0.7,0.6,0.6,1.2l-0.6,3.9l-0.2,0.4l-0.4-0.2l-0.1-1.9
		c-0.1-0.2-0.3-0.3-0.6-0.4h-0.7c-1,0.9-2.2,1.7-3.6,2.6c-2.7,1.8-4.9,2.7-6.6,2.7c-1.7,0.1-3.6-0.3-5.8-1.3l-2.7-1.4l-0.6,0.1
		c-0.2,0.1-0.2,0.3-0.2,0.6v0.4l-0.1,0.4l-0.3-0.2l-1.9-2.7c-0.3-0.4-0.3-0.9,0-1.4l1.5-1.9c0.1-0.2,0.2-0.3,0.3-0.2l0.2,0.3v0.6
		c0,0.2,0.1,0.4,0.2,0.6c0.2,0.2,0.4,0.2,0.6,0.2l2.8,0.4c2.1,0.2,3.8,0.3,4.9,0.1c1.9-0.3,4.6-1.2,8.4-2.8l0.6-0.5
		c0.2-0.2,0.3-0.4,0.2-0.7l-0.6-1.3c-0.1-0.2-0.2-0.4-0.1-0.4L142.4,57 M135.6,70.7l-2.5,0.1l-1.4-0.7l-0.3-0.3
		c0-0.1,0.2-0.2,0.4-0.2l3.5-0.6l0.7,0.1c0.2,0.1,0.3,0.2,0.4,0.5c0.1,0.2,0,0.4-0.1,0.6S135.9,70.6,135.6,70.7 M144.2,60.7l-2-0.1
		c-3.4,1.5-6.2,2.5-8.4,2.8c-1.4,0.2-3.1,0.2-5.3,0l-2.8-0.4c-0.7,0-1,0.2-0.8,0.7c0.2,0.6,0.4,0.9,0.8,0.9l5.2,1.5l3.3,0.1
		c1.5-0.1,2.6-0.3,3.4-0.6c1.1-0.4,3.2-1.6,6.1-3.4l0.7-0.6C144.8,61.3,144.7,61,144.2,60.7 M155.5,23.6c-1.5-1.7-3-2.6-4.6-2.8
		l-3.7-0.8c-0.4-0.1-0.9-0.3-1.3-0.6l-1.2-0.8c-1.4-0.8-2.5-1.2-3.3-1.1c-0.7,0.1-1.7,1.4-3,3.7l-1.4,2.1c-0.5,0.5-1.3,0.6-2.4,0.3
		l-3.3-0.2c-0.9,0.3-2.6,1.9-5,4.8c-0.8,1-1.8,1.6-2.9,1.9c-1.2,0.2-2.3-0.1-3.2-0.8c-0.7-0.5-1-1.3-1-2.4c-0.7,0.7-1.2,1.6-1.5,2.5
		c-0.4,1.2-0.4,2.6,0.1,4.2c0.5,1.6,1.2,2.8,2.2,3.8c0.8,0.6,1.7,0.8,2.7,0.6c0.9-0.2,1.8-0.7,2.6-1.5l1.9-2.6
		c1.2-1.6,2.1-2.6,2.6-2.9c0.9-0.6,1.6-0.8,2.2-0.7c0.2,0,0.9,0.2,1.9,0.6l1.2,0.6c0.4,0.2,0.9,0.1,1.4-0.2l3.3-2.2
		c0.7-0.5,1.1-0.8,1.4-0.9c1-0.5,2.4,0.1,4.3,1.9l3.3,3c0.4,0.1,1.3-0.2,2.6-0.9c1.5-0.7,2.5-1.1,3.1-1.2c1.5-0.3,2.8-0.1,3.8,0.8
		c0.8,0.6,1.4,1.4,1.8,2.4c0.3-1.2,0.8-2.1,1.6-2.5l0.2-1.5c-1.3-1.8-2.6-2.9-3.8-3.4L155.5,23.6 M162.3,75.5l0.6-0.2
		c-2.5-1.5-5-2.5-7.6-3.1l-0.3,1.8c-1.4,4.3-4.8,7.2-10.1,8.6c-5.4,1.4-9.2,0.2-11.4-3.7c-1.3-0.4-3.8-1.8-7.4-4l-0.6,0.1v0.1
		c-2.1,5-3,10.7-2.8,17l-0.3,0.6l18.5-0.1c0.9,0,1.9,0.2,2.8,0.9c0.9,0.6,1.6,1.3,2.2,2.1v0.1l0.1,0.2l3.4,7
		c-0.3-5.9,0.4-11.2,2.2-15.8C154.1,81.8,157.5,77.9,162.3,75.5 M164.5,76.3l-0.9,0.8c-5.4,2.8-8.8,7.8-10.1,15.2
		c-1.2,6-0.9,12.5,0.9,19.2v0.2c1.8-1.2,4-2.1,6.6-2.7c-1.8-3.2-3.4-7.1-4.6-11.7c-0.1-0.4,0.1-0.7,0.6-0.8s0.9,0,1,0.3
		c1.3,4.6,2.8,8.5,4.5,11.6l0.1,0.2l5.7-0.4c0.5,0,0.6,0.2,0.3,0.4c-0.3,0.3-0.6,0.4-0.9,0.4c-5.4-0.2-9.8,1-13.1,3.6l-0.5,0.4v0.1
		h-0.1c-0.6,0.4-0.9,0.7-0.9,0.8c-0.1,0.2,0.1,0.5,0.4,1c2,2.9,3.2,5.8,3.7,8.6c0.5,3.2-0.1,6.2-1.8,8.9l-0.4,0.6l0,0.1l-0.2,0.2
		l11.4-1.1l0.4-0.1c0-0.2,0.1-0.3,0.3-0.1c3.4-0.6,6.2-1.2,8.3-2.1c3.1-1.2,5.4-2.7,7.1-4.7c3.2-3.6,4.1-8.7,2.8-15.3
		c-2-9.8-5.6-18-10.8-24.6C171.2,81.8,168,78.6,164.5,76.3 M162.5,15.7l0.1-0.5l-1.1-0.2l-0.1,0.8H162.5 M162.7,16.9l-0.1-0.5
		l-1.1,0.2l0.2,0.8L162.7,16.9 M163.1,14.1l-0.9-0.8l-0.4,0.7l1.1,0.4L163.1,14.1 M163.6,13.6l0.4-0.3l-0.6-1.1
		c-0.3,0.1-0.5,0.3-0.7,0.4L163.6,13.6 M166.7,14.8c-0.3-0.4-0.7-0.6-1.1-0.7c-0.5-0.1-0.9,0-1.2,0.3c-0.4,0.3-0.6,0.6-0.7,1.1
		c-0.1,0.7,0.1,1.2,0.8,1.6l0.4,0.2l-1.9,14.8l-0.3,0.2c-0.8,0.4-1.3,1.3-1.5,2.6c-0.1,0.9-0.3,2.1-0.8,3.6l-1.1,4.7l-0.2,0.1l-1,1
		l-1.3,2.1c-1.1,2.3-1.9,5-2.4,8.1c-0.3,2.3-0.4,4.5-0.2,6.5c0.2,2,0.6,3.6,1.2,4.8l0.6,0.9l0.2,0.3h0.1l0.2,0.2l0.4,0.2l0.5,0.1
		h0.5c0.9-0.1,1.8-0.8,2.7-2.1l0.1-0.2l0.2-0.1c1.3-0.3,2.5-1.3,3.6-2.9c1-1.7,1.7-3.7,2.1-6.1l0.1-0.7l-0.1,0l0.1-0.2
		c0.2-2.3,0-4.4-0.7-6.2l-0.7-1.3l-0.1-0.1l-0.9-1.1l-0.9-0.7l0.1-1.9c0.2-3.5,0.4-6.3,0.9-8.3l0.1-1.2c0-0.7-0.1-1.2-0.4-1.6
		l-0.1-0.1l-0.6-0.5l1.9-14.8l0.4-0.1c0.7-0.2,1.1-0.6,1.2-1.4C167.1,15.5,167,15.1,166.7,14.8 M163,46.2c0.7,0.1,1.4,0.5,1.9,1.2
		c0.6,0.9,1.1,2.1,1.3,3.6c0.2,1.5,0.2,3.2,0,5c-0.3,2.6-1.1,4.7-2.1,6.3c-1.1,1.6-2.3,2.4-3.6,2.2c-1.3-0.2-2.2-1.2-2.8-3
		c-0.6-1.8-0.8-4.1-0.4-6.7c0.3-2.6,1.1-4.7,2.1-6.4C160.6,46.8,161.7,46,163,46.2 M163.9,48.2c-0.3-0.4-0.7-0.7-1.1-0.8
		c-0.8-0.1-1.7,0.5-2.5,1.9c-0.9,1.5-1.5,3.3-1.8,5.6c-0.3,2.2-0.2,4.2,0.3,5.9c0.4,1.5,1.1,2.3,1.9,2.4c0.8,0.1,1.7-0.5,2.5-1.9
		c0.9-1.5,1.4-3.3,1.8-5.6c0.2-1.6,0.2-3.1,0-4.4C164.8,49.9,164.5,48.9,163.9,48.2 M169.1,17.4l0.2-0.8l-1.1-0.2l-0.1,0.4
		L169.1,17.4 M167.8,17.6l-0.3,0.3l0.6,0.8l0.5-0.5L167.8,17.6 M169.4,15.1l-1.1,0.2l0.1,0.4l1.1,0.1L169.4,15.1 M168.1,14.6
		l1.1-0.4l-0.4-0.6l-0.9,0.7L168.1,14.6 M168.2,12.9l-0.6-0.5l-0.6,1.1l0.4,0.2L168.2,12.9 M166.8,11.9l-0.8-0.2l-0.1,1.2l0.4,0.1
		L166.8,11.9 M165.1,11.7l-0.8,0.2l0.4,1.2l0.4-0.1L165.1,11.7z"/>
</g>
</svg>
