<?xml version="1.0" encoding="utf-8"?>
<!-- Generator: Adobe Illustrator 25.4.1, SVG Export Plug-In . SVG Version: 6.00 Build 0)  -->
<svg version="1.1" id="Sneak_x2C_PerkClip_x5F_4c935" image-rendering="auto"
	 xmlns="http://www.w3.org/2000/svg" xmlns:xlink="http://www.w3.org/1999/xlink" x="0px" y="0px" viewBox="0 0 240 240"
	 style="enable-background:new 0 0 240 240;" xml:space="preserve">
<style type="text/css">
	.st0{fill:#FFFFFF;}
</style>
<g>
	<rect width="240" height="240"/>
	<path class="st0" d="M153.4,225.8c-0.9,1.5-1.2,2.5-0.9,2.9l1.3-0.1l0.6-0.2c2-0.8,3.8-1.5,5.3-2.3c2.7-1.4,5.3-3.2,8-5.2l8.7-8.9
		l0.2,0.1c1.2,0.5,1.9,0.7,2.2,0.6c2.2-1.6,3.5-2.8,3.8-3.7c0.2-0.6,0.3-1.1,0.2-1.6l-0.7-1.8c-3.7,3.2-6.9,5.6-9.5,7.2
		c-2.2,1.3-4.9,2.4-8.1,3.6l-4.9,1.4L153.4,225.8 M121.6,212.1c0.8,1.1,1.4,1.6,1.6,1.6c2.6-0.1,4.4-0.4,5.2-1.1
		c0.9-0.7,1.3-1.7,1.3-3.2l-11.8,1.1c-3.7-0.1-8.2-0.9-13.7-2.5c-0.8,0.2-2.3,0.8-4.5,1.6c-2.7,0.9-4.4,1.6-5.1,2
		c-1.6,0.9-2.3,1.6-2.2,2c0.1,0.2,0.4,0.4,1.2,0.6l0.6,0.1l15.2,0.6c3.4-0.5,7.4-1.5,11.9-2.9l0.1-0.1L121.6,212.1 M53.7,123.4
		c-0.5-1.9-1.4-2.5-2.7-1.9c-1.9,0.9-3,2.7-3.2,5.4c-0.2,3.7,0.6,6,2.4,7c1.6,0.9,2.7,0.5,3.4-1.3c0.4-1.2,0.6-2.7,0.6-4.7
		L53.7,123.4 M70.7,121.2L70.7,121.2c-0.3,1.7-0.8,2.9-1.4,3.8c-0.8,1.1-1.8,1.3-3,0.7c-1-0.5-1.9-1.4-2.8-2.5
		c0.5,1.6,0.8,3,0.9,4.2c0.1,1.8-0.4,3.2-1.5,4.2c-1.2,1.1-2.6,1.1-4.2,0c-1.6-1.1-2.8-2.8-3.7-5.3l-0.1-0.5l0.1,7.1l0.4,1.4
		c0.6,1.4,1.9,2.3,3.8,2.8c1.7,0.4,3.4,0.4,5,0c2.1-0.5,4-1.8,5.7-3.9c1.1-1.5,2.2-3.5,3.4-6.2l0.8-2.3c0.4-1,0.8-1.7,1.2-2.1
		l2.8-0.1c1.2,0.4,2.1,0.4,2.7,0c1-0.6,1.1-1.6,0.4-3c-0.6-1.2-1.4-2.1-2.4-2.5c-1.1-0.5-2.3-0.4-3.6,0.2
		C73.5,118.3,71.9,119.6,70.7,121.2 M69.6,116.7c-0.4-1.1-1-2.1-1.8-3l-2.2-2.1c-1-0.8-1.9-1.2-2.7-1.1c-1.1,0.1-2.1,0.8-2.8,2.2
		c-0.6,1-1,2.2-1.2,3.7c0,0.3-0.1,0.3-0.3,0.1c-0.6-0.6-1.3-0.8-2.2-0.5c-0.8,0.4-1.3,1-1.5,1.8c-0.3,1.1-0.3,2.5-0.2,4
		c0.2,1.7,0.5,3.1,1,4.4c0.9,2.3,2.3,3.6,4,3.9c2.7,0.5,3.8-0.9,3.5-4.1c-0.2-1.5-0.8-3.7-2-6.8c-0.2-0.5-0.2-1,0-1.3
		c0.1-0.2,0.2-0.2,0.3,0l0.2,0.3c0.9,2,2.1,3.6,3.5,4.6c1.8,1.4,3.2,0.9,4.1-1.4C69.9,119.9,70,118.3,69.6,116.7 M78.8,39.5
		c-0.9-0.1-1.8-0.4-2.5-0.9l-0.9-0.3c-0.5,0.1-0.7,0.5-0.8,1.4c-0.1,0.8,0,1.7,0.3,2.7c0.3,0.8,0.9,1.8,2,3.1
		C77.6,43,78.2,41,78.8,39.5 M161.4,96.6c-1.9-2-4.4-1.5-7.8,1.4c-1.5,1.3-2.7,2.7-3.8,4.2l-0.8,1.2c-0.9,1.7-0.8,2.8,0.4,3.3
		c1.7,0.7,4.1,0.5,7.4-0.7c0.2-0.7,0.5-1.2,0.8-1.7l0.7-0.9l1.6-1.8c1.1-1,2.1-1.9,3.2-2.5L161.4,96.6 M131,76
		c-1.2,2.9-3.2,6.4-6.2,10.3c-4,5.4-6.4,8.7-7,9.7c3.4-1.4,6.4-3.3,8.9-5.6c3-2.8,4.7-5.8,5.2-9c0.3-2.2,0.2-4.4-0.5-6.6L131,76
		 M137.1,53.1c1.5,2,3,3.5,4.4,4.4c1.7,1.1,3.6,1.7,5.9,1.7c-2.1-6.6-5.1-10.1-8.9-10.4C138.4,50.4,137.9,51.9,137.1,53.1
		 M141.9,55.4c0.7,0.7,0.7,1.1,0.1,1.2c-0.6,0.1-1.3-0.3-2-1c-0.7-0.7-0.7-1.1,0-1.2C140.5,54.4,141.2,54.7,141.9,55.4 M140.4,50.4
		c-0.6-0.6-0.7-0.8-0.3-0.8c0.3,0.1,0.7,0.4,1.3,1c0.6,0.5,0.7,0.8,0.4,0.7L140.4,50.4 M87.1,88.8L84.8,86c-4.2,3-7.9,6.4-11.2,10.4
		c-1.3,1.5-2.5,3.1-3.6,4.7l-1.6,2.4c-1.1,1.8-2.1,3.7-3,5.6c1.1,0.7,2.1,1.8,3,3.2c0.8,1.3,1.4,2.6,1.8,4.1l0.4,1.7
		c2.4-2.6,4.7-3.8,6.8-3.7c2.1,0.2,3.7,2,5,5.4c0.4,1,0.6,2.1,0.5,3.1c-0.1,1.4-0.7,2.1-1.8,2.2l-2.3-0.4l-2.1,0.1
		c-0.4,0.3-0.7,0.7-1,1.3l-0.7,1.6c-1.8,4.2-3.5,7.1-5.3,8.9c5.4-0.9,10.6-4.1,15.5-9.6c3.9-4.3,7.3-9.6,10.1-15.8l-0.6-1.2
		c-0.1-0.3,0.2-0.5,0.8-0.7c0.6-0.2,1-0.1,1.1,0.1c3.5,8.4,8.7,16.3,15.6,23.8c3.6,1.6,7.1,2.4,10.5,2.7c-3.6-3.6-6.7-8.5-9.5-14.6
		c-1.9-4.1-3.9-9.5-6-16.4l-5.6-3.7C96.2,97.4,91.4,93.3,87.1,88.8 M138.1,46.6l0.1-0.2c1.1-0.7,3.1-1.6,5.9-2.6
		c2.3-1.1,3.2-2.8,2.9-4.9l-0.1-0.8l-0.3,0.1l-8.8,2.2c-1.6,0.4-2.9,0.8-3.8,1.3c0.9,0.1,1.8,0.7,2.5,1.7
		C137.3,44.3,137.8,45.3,138.1,46.6 M143.2,39.5c0.4,0,0.9,0.4,1.6,0.9c0.6,0.6,0.7,0.9,0.2,0.9c-0.4,0-0.9-0.4-1.6-0.9
		C142.8,39.8,142.8,39.5,143.2,39.5 M135.8,44.7c-0.8-0.7-1.8-0.8-3.1-0.3l0.2,2.8l-0.2,2.8h0.1c0.4,0,0.9,0.4,1.6,0.9
		c0.6,0.6,0.7,0.9,0.2,0.9c-0.4,0-1-0.4-1.6-0.9l-0.3-0.4l-0.5,1.9c-0.2,1.1,0,1.6,0.5,1.4l2.4-1.1c1.5-0.9,2.3-2.2,2.5-3.8
		l-0.1-1.8C137.1,46.2,136.6,45.4,135.8,44.7 M134.1,44.4l1.3,0.9c0.6,0.5,0.7,0.8,0.4,0.7l-1.4-0.9
		C133.8,44.5,133.8,44.2,134.1,44.4 M131.5,45.2c0,0.5-0.3,1-0.8,1.5l-0.7,0.7l-8,5.6l-0.7,0.4c0.5,0,1.1,0.3,1.7,0.8
		c0.7,0.6,0.7,1,0,1.1c-0.6,0.1-1.3-0.2-1.9-0.8l-0.5-0.6l-1.2,0.6c-3.4,1.7-7.1,3-11.1,3.7l-6.5-0.2l-6.4-1.5
		c-2.2-0.4-4.4,0.1-6.5,1.5c-3.1,2-5,3.2-5.8,3.4c-1.6,0.5-3.8,0-6.5-1.4c0,2.2,0.3,4.5,1,6.8c0.4,0,0.7,0.2,0.9,0.7
		c0.3,0.6,0.2,1.1-0.3,1.4c0.7,2.2,1.7,4.5,3,6.8c2.5,4.6,5.7,8.9,9.7,12.9l0.1,0.1l0.4-0.2c0.8-0.3,1.5,0.1,2.2,1.2
		c0.6,0.8,0.6,1.4,0.2,1.8c3.8,3.6,8.1,6.9,12.8,9.9l5.6,3.3l0.3-0.9c0.3-0.8,0.6-1.6,1-2.4c1-2.4,2.3-4.9,3.9-7.4
		c1.8-2.7,4.2-5.9,7.2-9.4c2.9-3.4,5.1-7.8,6.7-13.2c1.7-5.8,1.9-10.8,0.8-15l-0.1-0.2c-0.4-1.4-0.4-3.3-0.1-5.9l0.2-2.9l-0.2-3
		L131.5,45.2 M107.2,61.8c-0.6-0.6-0.5-1.1,0.2-1.3c0.7-0.2,1.4,0,2.1,0.7c0.7,0.6,0.6,1.1-0.3,1.2
		C108.5,62.6,107.8,62.4,107.2,61.8 M102.7,58.7c0.5,0.6,0.4,1.1-0.3,1.2c-0.6,0.2-1.2,0-1.7-0.6c-0.6-0.6-0.5-1,0.2-1.2
		C101.6,57.9,102.2,58.1,102.7,58.7 M102.3,69.2c-0.6-0.8-0.5-1.4,0.2-1.6c0.7-0.2,1.3,0.1,2,0.9c0.7,0.8,0.6,1.3-0.2,1.6
		C103.6,70.3,102.9,70,102.3,69.2 M110.9,67.9c-0.8-0.9-0.7-1.4,0.2-1.6c0.8-0.1,1.6,0.2,2.4,1.1c0.8,0.9,0.8,1.4-0.2,1.5
		C112.6,69,111.8,68.7,110.9,67.9 M85.3,62.4c0.5,0.6,0.3,1.1-0.5,1.4c-0.7,0.3-1.2,0.1-1.7-0.5c-0.4-0.6-0.2-1.1,0.6-1.4
		C84.4,61.7,84.9,61.9,85.3,62.4 M90.4,64.6c-0.5-0.6-0.4-1.1,0.5-1.4c0.7-0.3,1.3-0.1,1.9,0.6c0.5,0.6,0.4,1.1-0.5,1.4
		C91.6,65.4,91,65.2,90.4,64.6 M84.4,78.7c-0.7,0.3-1.3,0-1.8-0.9c-0.5-0.9-0.4-1.6,0.4-1.9c0.7-0.3,1.3,0,1.8,0.9
		C85.4,77.7,85.3,78.3,84.4,78.7 M87.1,78.6c0.7-0.3,1.4,0,2,0.9c0.6,1,0.4,1.6-0.5,2c-0.7,0.3-1.4,0-1.9-0.9
		C86.1,79.6,86.3,79,87.1,78.6 M100.5,91.8c-0.8-1.1-0.7-1.8,0.3-2.2c0.9-0.3,1.7,0.1,2.5,1.2c0.8,1.1,0.6,1.9-0.4,2.2
		C102.1,93.4,101.3,92.9,100.5,91.8 M117.3,76.8c-0.8,0.2-1.6-0.2-2.5-1.3c-0.9-1.1-0.8-1.8,0.1-1.9c0.8-0.2,1.6,0.3,2.5,1.3
		C118.2,76,118.2,76.6,117.3,76.8 M103.7,77.9c0.8,1.1,0.7,1.9-0.3,2.2c-0.8,0.3-1.6-0.1-2.3-1.2s-0.6-1.9,0.3-2.3
		C102.2,76.3,102.9,76.7,103.7,77.9 M115.2,91.4c-0.7-1-0.6-1.7,0.4-2.1c0.8-0.3,1.5,0,2.1,1c0.6,0.9,0.5,1.6-0.3,2
		C116.6,92.7,115.9,92.4,115.2,91.4 M129.8,50.4c0.6,0.5,0.7,0.8,0.3,0.7l-1.4-0.9c-0.6-0.6-0.7-0.8-0.3-0.7
		C128.7,49.6,129.2,49.9,129.8,50.4 M128.2,55.1c-0.4,0-1-0.3-1.6-0.9c-0.6-0.6-0.7-0.9-0.2-0.9c0.4,0,1,0.3,1.6,0.9
		C128.6,54.9,128.7,55.2,128.2,55.1 M130.3,67.1c0.4,1,0.3,1.5-0.3,1.4c-0.6-0.1-1.1-0.6-1.4-1.6c-0.4-1-0.3-1.5,0.3-1.3
		C129.4,65.6,129.9,66.1,130.3,67.1 M123.6,63.9c-0.6-0.1-1.2-0.6-1.7-1.5s-0.4-1.3,0.3-1.2c0.6,0.1,1.1,0.6,1.6,1.6
		C124.3,63.6,124.2,64,123.6,63.9 M124.7,76.9c-0.3-1.2-0.1-1.8,0.8-1.7c0.7,0.1,1.2,0.7,1.5,1.8c0.3,1.2,0.1,1.7-0.7,1.7
		C125.5,78.6,125,78,124.7,76.9 M108.2,100.1c0.8-0.2,1.6-0.1,2.2,0.5l0.4,0.5c0,0.3-0.3,0.5-0.9,0.7c-0.8,0.2-1.5,0.1-2.2-0.4
		l-0.2-0.2C107.1,100.7,107.4,100.3,108.2,100.1 M125.1,39.1l-1.6-0.9c-1-0.5-2.2-1.1-3.7-1.7c-0.5-0.2-0.6-0.5-0.5-0.8l0.3-0.5
		c2.4-1.9,3.2-3.9,2.2-5.8c-0.9-1.8-2.3-2.6-4.1-2.4l-0.3,0.1c-2,0.6-3.4,1.1-4.2,1.6c-1.1,0.6-2,0.9-2.6,1c-0.9,0.2-1.7,0-2.4-0.6
		c-2.2-1.9-4.4-2.6-6.7-2.3c-0.9,0.2-1.7,0.5-2.3,0.9c-1.5,1.2-2.9,1.9-4,2.1l-1.9-0.1c-1.4-0.6-2.6-0.8-3.6-0.6
		c-0.4,0.1-0.8,0.2-0.9,0.4c-0.5,0.4-1.3,1.6-2.5,3.8l-2,3.4l-1.4,1.5c-0.7,0.5-1.4,0.9-2.2,1.2c-1.1,2.7-1.9,5.3-2.4,7.8
		c-0.4,1.9-0.6,3.8-0.7,5.7c-0.1,1.2,0,2.6,0.2,4.3c3,1.7,5.4,2.2,7.3,1.3l3.2-2.2c1.3-1.1,2.3-1.8,3.1-2.1l1.9-3.8l1.3-4.2
		c0.2-0.6,0.4-0.9,0.8-1c0.2,0,0.3,0.1,0.4,0.3l0,0.7l-0.2,1.7l-1.7,5.8l9.9,1.8c2.1,0.4,4.2,0.4,6.6,0c1.8-0.3,3.9-0.9,6.3-1.8
		c2.1-0.7,4-1.7,5.8-2.9h0c-0.3-0.1-0.4-0.4-0.4-0.6c0.1-0.3,0.2-0.5,0.5-0.5h0.3l0.9,0.4l1.6-1.1l-1.2-0.9l-2.1-1
		c-0.4-0.2-0.6-0.5-0.6-0.8c0-0.3,0.2-0.4,0.4-0.5h0.2c1.1,0.3,2,0.7,2.7,1.3l1.3,1.3l1.2-0.9l-3-2.7c-0.6-0.5-1.6-1-2.8-1.5
		c-0.5-0.2-0.8-0.5-0.8-0.8c-0.1-0.4,0.1-0.6,0.3-0.6h0.2c0.9,0.2,2.2,0.8,3.7,1.9c1,0.7,2.1,1.7,3.3,3.1l0.6-0.5
		c-1.4-1.9-2.9-3.4-4.5-4.5l-4.3-2.8c-0.3-0.1-0.4-0.3-0.3-0.6l0.3-0.4l0.2-0.1h0.4l0.2,0.1c0.8,0.3,2.2,1.2,4.3,2.8
		c1.6,1.3,3,2.9,4.3,4.9l0.3-0.6C129.2,42.8,127.6,40.8,125.1,39.1 M87,39.9c0.1,0.3,0.1,0.6-0.1,0.9c-0.1,0.3-0.4,0.5-0.7,0.5
		l-3.9,0.8h-0.1L81.8,42l0.3-0.4l3.3-2.9l0.5-0.2c0.4-0.1,0.6,0.1,0.8,0.6L87,39.9 M84.8,46.7c0.4-0.1,0.8,0.1,1.1,0.4l0.3,0.4
		c0.4,0.6,0.7,1.4,0.8,2.3c0.1,0.9,0,1.7-0.2,2.4c-0.3,0.7-0.6,1.1-1.1,1.2h-0.1c-0.5,0.1-1-0.2-1.4-0.8c-0.4-0.6-0.7-1.4-0.8-2.3
		c-0.1-0.9-0.1-1.7,0.2-2.4l0.4-0.7C84.3,46.9,84.5,46.7,84.8,46.7 M105.4,34.4l2.5,1.7c0.9,0.7,1.5,1.4,1.9,2
		c0.3,0.5,0.4,0.9,0.4,1.3l-6.8-2c-0.2-0.2-0.1-0.6,0.2-1.4l0.6-1.1c0.1-0.3,0.3-0.5,0.7-0.6L105.4,34.4 M104.9,49.2
		c-0.4-0.5-0.7-1.2-0.8-2.1l-0.1-0.2c-0.1-0.9-0.1-1.7,0.2-2.4c0.3-0.7,0.6-1.1,1.1-1.1c0.5-0.1,1,0.2,1.4,0.8
		c0.4,0.6,0.7,1.4,0.8,2.3l0.1,0.7l-0.3,1.7c-0.3,0.7-0.6,1.1-1.1,1.1h0C105.8,50.1,105.3,49.8,104.9,49.2 M123.8,32.7
		c-0.6,1.1-1.4,2.1-2.3,3l4.1,2.4l0.2,0.1c2,1.5,3.5,3.3,4.5,5.4c0.2-0.7,0.5-1.3,0.9-1.8l0.2-3.8c0-4.7-0.8-8.4-2.6-11.1
		c-1-1.5-2.1-2.9-3.3-4.2c-1.7-1.8-3.2-2.8-4.7-3.2c-0.2,0-1.4-1.1-3.5-3.1c-1.9-1.9-3.9-2.8-5.8-2.7l-4.5-0.4
		c-0.5-0.1-1.1-0.3-1.7-0.6l-1.5-0.9c-1.5-0.7-2.8-1-3.8-0.8l-0.3,0.1c-0.8,0.2-1.8,1.8-3.1,4.8l-1.3,2.7l-1.2,0.8l-4.5-0.2
		l-1.1,0.3c-0.7,0.3-1.7,1.3-2.9,2.9l-2.3,3.6c-1,1.6-2.3,2.5-4,2.8c-1.2,0.2-2.3,0-3.3-0.6c-0.9-0.5-1.4-1.4-1.5-2.7
		c-0.7,1-1.2,2-1.4,3.2c-0.3,1.5-0.1,3.1,0.6,4.9c0.8,1.8,1.8,3.2,3.2,4.1l0.9,0.5h2c1.1-0.3,2.2-1.1,3.2-2.2l1.9-3.4
		c1.2-2.1,2.2-3.4,2.8-3.9c0.8-0.7,1.5-1.1,2.2-1.2c0.5-0.1,1.5,0.1,2.8,0.6l1.5,0.4l0.6,0.1c0.4-0.1,0.9-0.3,1.4-0.8l4.9-4.1
		l0.8-0.3c1.2-0.2,2.9,0.6,5.1,2.4l3.9,2.8h0.3c0.5-0.1,1.4-0.6,2.8-1.5c1.5-1,2.6-1.5,3.2-1.8l1.1-0.2c1.8-0.3,3.2,0.2,4.4,1.2
		c0.9,0.8,1.5,1.8,1.8,3.1C124.9,30.1,124.7,31.3,123.8,32.7 M181.2,143.1c-1-3.3-3-7-6-11.1c-5.5,6.8-13.6,11.4-24.2,13.9
		c-10.5,2.5-19.8,2.1-27.8-1.2l-3.6-2.1l-13.2,10.9c-5.8,5.2-8.9,9.4-9.5,12.8c-0.7,4.1,0.3,10.5,3.1,19.1l6.3,19.6
		c1.5,1.3,3.4,2.2,5.7,2.8l6.8,0.6l13-1.2c0.2-0.1-0.3-2.1-1.5-6.1c-1.3-4.3-2.6-8.2-3.9-11.8c-1.1-2.8-2.6-5.8-4.6-8.8l-2.5-3.8
		l5.3-0.4c4.2-0.4,7.7-1.4,10.5-3.1c0-5.9,0.7-11.9,2-18.1c0.1-0.5,0.5-1,1.3-1.8c0.8-0.7,1.4-1.1,1.8-1.1
		c-1.4,4.6-2.1,10.3-2.2,17.1c-0.2,6.8,0.4,12,1.6,15.7c1.5,4.6,4.3,9.6,8.4,15.2c3.4,4.6,7.4,9.2,11.9,13.7c2,0.3,4.1,0.1,6.2-0.6
		c1.5-0.5,3.6-1.6,6.1-3.1c2.5-1.4,5.4-3.6,8.8-6.6l0.6-1.2l0.4-1.1c-0.6-1.4-1.8-3.6-3.7-6.6c-2.6-4.2-5.5-8.1-8.6-11.7
		c-0.3-0.3-1.3,0.1-3.1,1.2c-1.8,1.1-2.7,1.6-2.8,1.3l7.7-8.6c2.4-3.4,4.6-7.2,6.6-11.5c2.3-4.8,3.6-8.8,3.9-11.8
		C182.4,149.9,182.2,146.3,181.2,143.1 M170.2,123.1l-2.6-0.8c-8.4,7.2-18.9,11.9-31.5,14.1l-1.1,0.2l-0.8-0.1
		c-7.2-10.3-12.3-21.2-15.4-32.9l-1.6-6.6c-0.8,1.4-1.5,2.8-2.1,4.2c-0.4,0.8-0.7,1.6-1,2.4l-0.6,2.2l-0.7,1.2
		c-0.5,0.5-0.9,0.7-1.2,0.5l-2.2-1.2c1.9,6.3,4,11.7,6.2,16.1c2.8,5.6,6,10.1,9.5,13.5c0.3,0.3-0.1,0.6-1.3,0.9h-1.3
		c-2.7,0-5.5-0.5-8.4-1.4l4.4,4.5l3.8,2.9c4.1,2.3,9.1,3.4,15,3.6c5.1,0.1,10.2-0.6,15.3-2.1c7.2-2.1,12.8-4.8,16.8-8.1l3.8-3.5
		c1.2-1.6,1.4-3.2,0.4-4.6L170.2,123.1 M163.8,106.1l4.4-4.9l0.4-0.3c-0.9-0.9-2.5-0.7-4.7,0.6l-2.9,2.1l-1,1
		c-1,1.1-1.8,2.3-2.4,3.6l-0.1,0.3l-0.4,1.6v0.4l0.2,0.9c0.2,0.4,0.7,0.8,1.2,1.1l4-0.2l-0.1,0C162,110.4,162.4,108.3,163.8,106.1
		 M176.3,102.1c-1.3-0.6-2.5-0.9-3.5-0.8l-0.2,0c-1.2,0.2-2.5,1-3.9,2.2l-0.4,0.4c-1,0.9-2.2,2.3-3.6,4.2c-1.2,1.6-1.6,2.9-1.3,3.9
		c0.1,0.4,0.3,0.8,0.7,1.1l1.1,1.2c0.5,0.4,1,0.5,1.4,0.3c1.3-0.5,2.7-1.8,4.1-3.8l0.9-1.4c0.5-0.7,0.9-1,1.3-1
		c0.9,0,2.1,0.3,3.4,0.9c0.3,0.1,0.4,0.6,0.6,1.3c0.1,0.8,0.1,1.1-0.1,1c-2.1-1.1-3.4-1.3-3.9-0.6l-1.8,2.5
		c-2.1,2.7-3.7,3.8-4.8,3.4c-1-0.3-1.9-1.2-2.8-2.6c-1.5,0.8-2.9,1-4.1,0.5c-1-0.4-1.8-1.3-2.4-2.6c-1,0.1-1.8,0.3-2.6,0.6
		c-0.7,0.3-1.5,0.9-2.3,1.8c-1.1,1.1-1.6,2-1.4,2.8c0.1,0.6,0.6,1.1,1.4,1.5l4.5-0.2c2-0.7,3.4-1,4.3-0.8l6.6,2.3
		c2.7,1,4.9,1.1,6.7,0.4c2.6-1,4.7-2.8,6.2-5.6l0.1-0.1l1.2-3.1c0.5-1.7,0.5-3.2,0.1-4.5s-1.2-2.4-2.5-3.3
		C178.1,103.1,177,102.5,176.3,102.1 M172.6,71.7l-3.7-1.3c-6.1-2-12.4-3.4-18.7-4.2l-15.9-1l-1.8,6.8c1.4,2.9,1.8,6.1,1.1,9.4
		c-0.7,3.4-2.4,6.3-5,8.8c-2,2-4,3.5-6,4.5l-2.1,0.9c-0.9,0.4-1.3,0.8-1.2,1.2l3.1,12.2c2,6.1,4.8,12.3,8.5,18.4l5.1,8.2l0.2-0.1
		c12.3-2.2,22.4-6.8,30.3-13.7l-2.8-1.1c-1.1-0.4-2.1-0.6-3-0.4l-6.1,1.3c-1.1,0-2.1-0.4-2.8-1.1c-0.7-0.7-1.2-1.7-1.4-3l-0.2-1.8
		c0.1-1.6,0.8-3,2.1-4c1.1-0.9,2.6-1.5,4.3-1.7l-0.1-1.1c-3.9,1.3-6.4,1.1-7.6-0.7c-0.9-1.3-1.2-2.6-1.2-4.1l0.1-0.4
		c0.1-0.8,0.4-1.7,0.8-2.4l1.7-2.6l2.7-2.9c1.9-1.7,3.5-2.5,5-2.6l-1.2-3.4c-0.3-1.1-0.2-1.6,0.1-1.6c4.8,1,8.5,2.1,11.2,3.3l2,0.9
		l0.1-0.2c0.6-1.7,1.1-2.9,1.5-3.6l1.1-1.5l1.6-1.2c0.2-0.1,0.4,0.2,0.6,0.9s0.2,1.2-0.1,1.4c-0.8,0.6-1.5,1.4-2.1,2.6l-0.3,0.5
		l-1.7,3.6l-0.1,0.1c-0.9,2.3-1.4,4-1.3,5.2l0.2,0.4c1-0.6,2-0.9,3.1-1l2.9,0.4c2,0.6,3.8,1.9,5.4,3.7c0.9,1.1,1.5,2.4,1.9,3.8
		c0.5,1.9,0.6,3.9,0.1,5.9c9.9-8.1,14.1-15.4,12.7-21.9l-0.9-2.6C191.3,81.5,183.9,75.9,172.6,71.7z"/>
</g>
</svg>
