<?xml version="1.0" encoding="utf-8"?>
<!-- Generator: Adobe Illustrator 25.4.1, SVG Export Plug-In . SVG Version: 6.00 Build 0)  -->
<svg version="1.1" id="Sneak_x2C_PerkClip_x5F_4c935" image-rendering="auto"
	 xmlns="http://www.w3.org/2000/svg" xmlns:xlink="http://www.w3.org/1999/xlink" x="0px" y="0px" viewBox="0 0 240 240"
	 style="enable-background:new 0 0 240 240;" xml:space="preserve">
<style type="text/css">
	.st0{fill:#FFFFFF;}
</style>
<g>
	<rect width="240" height="240"/>
	<path class="st0" d="M153.4,225.8c-0.9,1.6-1.2,2.6-0.9,2.9l1.3-0.1l0.6-0.2l5.3-2.3c2.7-1.4,5.3-3.2,7.9-5.2
		c2.7-2.2,5.5-5.1,8.6-8.7l0.1-0.2l0.2,0.1c1.2,0.5,1.9,0.7,2.2,0.6c2.2-1.6,3.5-2.8,3.8-3.7c0.2-0.6,0.3-1.1,0.2-1.6l-0.7-1.8
		c-3.6,3.1-6.8,5.5-9.5,7.2c-2.2,1.3-4.9,2.4-8.1,3.6l-4.9,1.4L153.4,225.8 M121.6,212.1c0.8,1,1.3,1.6,1.6,1.6
		c2.6-0.1,4.3-0.4,5.2-1.1l1.1-1.2l0.3-1.9l-11.9,1.1c-2.5,0-5.4-0.4-8.8-1.2l-4.9-1.3l-4.5,1.6c-2.7,0.9-4.4,1.6-5.1,2
		c-1.6,0.9-2.3,1.6-2.2,2c0.1,0.3,0.5,0.5,1.2,0.6l0.6,0.1l15.2,0.6c3.4-0.5,7.4-1.5,11.8-2.9l0.2-0.1L121.6,212.1 M61.1,121.2
		c1.9,0.3,3.7,0.8,5.6,1.6c-0.5-1.5-2-2.9-4.5-4.1c-2.1-1-3.8-1.6-5.1-1.7c-3.6-0.2-7,1.5-10.2,5.2c-3.6,4.2-5.8,8.3-6.5,12.2
		c-0.8,4-0.1,7.5,2.2,10.6c1.4,1.9,3.1,3.1,5,3.6c1.4,0.4,2.5,0.4,3.3,0.1l0.3-0.5c-3.1-0.1-5.7-1.5-7.9-4.4l-2.4-4.6
		c-0.2-0.5,0-0.9,0.5-1.1L42,138l0.5,0.4c1.4,3.6,3.2,6.1,5.5,7.5c1.5,0.9,3,1.2,4.5,0.9c0.9-0.2,1.5-0.7,1.9-1.5l-2.8-0.9
		c-4.3-1.4-7.1-5-8.3-10.9c-0.3-1.6-0.1-2.4,0.7-2.4c0.5,0,1,0.6,1.2,1.9c0.4,1.9,1.1,3.6,2,5.2c0.8,1.5,1.8,2.7,2.8,3.4
		c0.6,0.4,1.4,0.7,2.3,0.7c0.9,0.1,1.6-0.1,2.1-0.6l-0.5-1.1c-1.1-2.1-1.9-3.9-2.4-5.3c-0.8-2.3-0.9-4.3-0.4-5.9
		c0.7-2.1,1.3-2.9,1.8-2.5c0.4,0.2,0.5,0.6,0.4,1.2l-0.5,2.2c-0.4,1.6-0.2,3.3,0.5,5.2c0.2-0.7,1-1.3,2.2-1.9c1-0.5,1.8-0.8,2.4-0.8
		c-1-2.4-1.5-3.9-1.6-4.4c-0.1-0.5,0.2-0.8,0.7-1c0.5-0.2,0.9,0,1.1,0.4c1.3,2.6,2.9,5,4.8,7c1.6,1.7,2.7,2.6,3.3,2.7
		c0.3,0,0.5-0.1,0.8-0.4c0.8-0.9,1.2-2.5,1.1-4.7c-0.1-3-0.8-5.2-2-6.6c-1-1.1-2-2-3.1-2.5c-1.1-0.5-2.6-0.9-4.5-1.2l-0.5-0.5
		c-0.1-0.3-0.1-0.5,0.2-0.6L61.1,121.2 M78.1,61.6c-1.2-1-2.1-2.3-2.5-3.9c-3.6,1.4-5.5,5.5-5.8,12.4c2.1-0.6,3.8-1.7,5.2-3.2
		C76.1,65.7,77.1,63.9,78.1,61.6 M72.7,61c0.4-0.7,0.7-1.1,0.9-1.2c0.4-0.2,0.4,0,0,0.7l-1.1,1.3C72.2,61.9,72.2,61.7,72.7,61
		 M75.2,64.2c0.7-0.1,0.8,0.3,0.3,1.2c-0.5,0.9-1.1,1.5-1.7,1.6c-0.7,0.1-0.8-0.3-0.3-1.2C74.1,64.8,74.7,64.3,75.2,64.2 M75.1,55.4
		l0.1,0.1c0-1.3,0.2-2.4,0.6-3.4c0.4-1.2,1.1-1.9,1.9-2.3l-13.3,0.1l0.2,0.8c0.3,2.1,1.6,3.4,4.1,3.8L75.1,55.4 M67.7,50.9
		c0.5-0.2,0.5,0.1,0.1,0.9c-0.4,0.8-0.8,1.2-1.2,1.4c-0.4,0.1-0.4-0.2,0-0.9C66.9,51.5,67.3,51.1,67.7,50.9 M157.4,95.7
		c-1.2,0.4-2.4,1.2-3.8,2.4c-1.5,1.3-2.7,2.7-3.8,4.2c-1.7,2.4-1.8,3.9-0.4,4.6c1.6,0.7,4.1,0.5,7.4-0.7c0.2-0.7,0.5-1.2,0.8-1.7
		c0.5-0.8,1.2-1.7,2.2-2.6c1.1-1,2.1-1.9,3.2-2.5c-0.7-1.3-1.3-2.2-1.8-2.7C160.3,95.5,158.9,95.2,157.4,95.7 M98.3,95.9
		C94.1,93,92,89,91.9,84.1l-2.8-3.5c-4,2.6-7.1,5.4-9.5,8.6c-3.1,4.1-5.6,8.3-7.6,12.5l-1.6,3.7c1.8-1,3.3-2.3,4.3-3.7l0.2-0.3
		c0.1-0.2,0.2-0.1,0.4,0.3l0.2,0.4c0.3,0.7,0.3,1.2,0.2,1.4c-0.9,1.9-2.4,3.5-4.8,4.8c-1.8,1-4,1.8-6.4,2.3
		c-3.9,0.7-7.3,2.2-10.2,4.5c2.6-0.4,5.1,0,7.6,1.3c2,1,3.6,2.2,4.7,3.8c2,2.6,3.1,6.4,3.5,11.5c5.4-1.1,10.3-3.4,14.8-6.8
		c4.2-3.2,7.9-7.3,10.9-12.2l-1.2-2.7c-0.1-0.3,0.2-0.5,0.8-0.7c0.6-0.2,1-0.1,1.2,0.1c3.5,8.3,8.6,16.3,15.5,23.8
		c3.7,1.6,7.2,2.4,10.5,2.7c-3.8-3.9-7.2-9.3-10.2-16c-1.9-4.2-3.9-10.2-6.2-18l-1-3.5L98.3,95.9 M82.4,60.9c0.6,0,0.7-0.5,0.2-1.5
		l-1.2-2.1c-0.8-1.7-1.3-3.5-1.5-5.4l-1.6,0.2c-0.5,0.2-1,0.5-1.2,0.9c-1,1.5-1.2,3-0.6,4.6c0.6,1.5,1.7,2.4,3.5,2.9L82.4,60.9
		 M76.7,54.9c-0.3,0.2-0.3-0.1,0.1-0.8c0.4-0.7,0.7-1.1,1-1.2c0.3-0.2,0.3,0-0.1,0.8L76.7,54.9 M79.6,59.2c0.4-0.8,0.8-1.2,1.2-1.4
		c0.5-0.2,0.5,0.1,0.1,0.9c-0.4,0.8-0.8,1.2-1.2,1.4C79.2,60.2,79.2,59.9,79.6,59.2 M112.7,58.4c-0.8,0-1-0.3-0.6-1.1l0.1-0.2
		c-1.9,0.9-3.7,1.3-5.2,1.4l-11.7-0.6c-5.7-1.2-10.1-2.6-12.9-4.3c-0.7-0.4-1.1-0.8-1.2-1.2l-0.5-1c0.1,1.3,0.6,3.2,1.5,5.7
		c1,2.4,1.5,4.3,1.5,5.8l-0.1,0.2c0,4.3,1.6,9,4.8,14.1c2.9,4.7,6.2,8.4,9.9,10.9c3.9,2.7,7,5.1,9.5,7.2c2.4,2.1,4.4,4.2,6,6.3
		l1.8,2.6l2.5-2.6c4.7-5,8.8-10.2,12.1-15.8c-0.6-0.2-0.8-0.8-0.5-1.8c0.4-1.3,0.9-1.9,1.8-1.9c0.3,0,0.5,0.1,0.8,0.2
		c2.5-4.8,4.4-9.6,5.5-14.5c0.7-2.9,1-5.6,1.1-8.2l-0.2-0.1c-0.8-0.1-1.1-0.6-0.9-1.2c0.1-0.7,0.5-1,1.2-0.9h0c-0.1-2-0.4-4-0.9-5.8
		c-2.3,2.1-4.2,3.1-5.9,3.1c-0.8,0-2.9-0.6-6.5-1.7c-2.4-0.8-4.7-0.7-6.7,0.3l-5,2.8c0.5,0.1,0.6,0.5,0.3,1.1
		C113.9,58,113.4,58.4,112.7,58.4 M108.1,60.4c0.8,0,1,0.4,0.6,1.2c-0.4,0.8-1,1.2-1.7,1.2c-0.9,0.1-1.1-0.3-0.7-1.1
		C106.8,60.9,107.3,60.4,108.1,60.4 M106.9,68.5c-0.5,1-1.2,1.6-2,1.7c-0.9,0.1-1.1-0.3-0.6-1.4c0.5-1.1,1.2-1.7,2-1.8
		C107.2,67,107.4,67.4,106.9,68.5 M115.6,67.2c-0.4,0.9-0.9,1.4-1.7,1.4c-0.9,0-1.1-0.4-0.7-1.4s1-1.4,1.7-1.4
		C115.7,65.8,115.9,66.3,115.6,67.2 M93.3,58.6c-0.5,0.8-1,1.2-1.7,1.3c-0.7,0.1-0.8-0.2-0.3-1c0.5-0.8,1-1.2,1.6-1.3
		C93.7,57.5,93.8,57.8,93.3,58.6 M84.8,56.9l-1.1,1.3c-0.3,0.2-0.3-0.1,0.1-0.8c0.4-0.7,0.7-1.1,1-1.2
		C85.2,55.9,85.2,56.2,84.8,56.9 M86.7,61.4c-0.5,0.1-0.5-0.2-0.1-0.9c0.4-0.8,0.8-1.2,1.2-1.4c0.5-0.2,0.5,0.1,0.1,0.9
		C87.5,60.8,87,61.3,86.7,61.4 M88.2,73.6c0.1-1.1,0.4-1.7,0.9-2c0.6-0.3,0.8,0.1,0.8,1.2s-0.4,1.8-0.9,2
		C88.3,75,88.1,74.6,88.2,73.6 M93.1,67.4c0.2-1,0.5-1.7,1-1.9c0.7-0.4,0.9,0,0.7,1c-0.2,1-0.6,1.7-1.1,1.9
		C93.1,68.7,92.9,68.4,93.1,67.4 M96.4,81.1c0,1.2-0.3,2-0.9,2.2c-0.7,0.3-1.1-0.2-1.2-1.4c-0.1-1.2,0.2-1.9,0.8-2.1
		C95.9,79.5,96.3,79.9,96.4,81.1 M117.8,78c-1-0.1-1.3-0.8-0.9-2.1c0.4-1.3,1-1.9,1.8-1.8c1,0.1,1.3,0.7,1,2.1
		C119.3,77.4,118.7,78,117.8,78 M104.8,75.1c0.9-0.1,1.2,0.5,0.7,1.8c-0.5,1.3-1.2,1.9-2,2c-0.9,0-1.1-0.6-0.6-1.8
		C103.3,75.8,104,75.2,104.8,75.1 M107.9,93.8c-0.9-0.1-1.2-0.8-0.8-1.9c0.3-1.1,0.9-1.6,1.8-1.5c1,0,1.3,0.6,0.9,1.8
		C109.3,93.4,108.8,93.9,107.9,93.8 M124.7,58.1c0.9,0,1.2,0.4,0.9,1.2c-0.3,0.8-0.9,1.1-1.7,1.1c-0.9,0-1.2-0.4-0.8-1.2
		C123.4,58.5,123.9,58.1,124.7,58.1 M129.8,55.8c0.2-0.7,0.7-1,1.4-0.9c0.8,0.1,1.1,0.4,0.9,1.1c-0.2,0.7-0.7,1-1.4,0.9
		C129.8,56.9,129.5,56.5,129.8,55.8 M132.9,71.6c0.9,0.1,1.3,0.7,1,1.8c-0.3,1.1-0.8,1.6-1.6,1.5c-0.9-0.1-1.3-0.7-1-1.8
		S132.1,71.5,132.9,71.6 M135.4,71.1c-0.9-0.1-1.2-0.7-1-1.7c0.2-1,0.7-1.5,1.5-1.4c0.9,0.1,1.2,0.7,1,1.7
		C136.7,70.6,136.2,71.1,135.4,71.1 M123,86.3c1.1,0,1.4,0.7,0.9,2s-1.1,1.9-2,1.9c-1.1,0-1.4-0.7-0.9-2S122.1,86.3,123,86.3
		 M119.8,99.5c-0.5,0.7-1.2,1.1-2,1.1c-1,0-1.2-0.3-0.8-1c0.4-0.7,1.1-1.1,1.9-1.1C120,98.5,120.3,98.8,119.8,99.5 M124.3,31.4
		l-2.8-2.8c-1.7-1.7-2.9-2.7-3.5-3l-1-0.1c-0.6,0.1-1.3,0.3-2.1,0.8l-1.1,0.8c-0.6,0.3-1.2,0.5-1.9,0.6c-1,0.1-2.5-0.2-4.4-0.9
		l-2.5-0.3c-2.2,0.2-4.2,1.6-5.9,3.9c-0.5,0.8-1.2,1.2-2.1,1.3l-7.2-0.8l-0.3,0.1c-1.8,0.2-2.9,1.3-3.3,3.3c-0.4,2.2,0.8,3.8,3.6,5
		c0.8,0.4,0.9,0.9,0.2,1.4l-1.7,1.3c-1.1,0.9-2,1.8-2.7,2.6c-1.8,2.2-2.8,4.6-2.9,7.2l0.4,0.4c0.7-2.1,1.7-4,2.8-5.8
		c1.7-2.3,2.9-3.7,3.6-4l0.4-0.1c0.3,0,0.6,0.1,0.7,0.4c0.1,0.2,0,0.4-0.2,0.6c-1.3,1.2-2.4,2.5-3.4,3.9c-1.1,1.4-2.1,3.2-3.1,5.5
		l0.8,0.3c0.6-1.4,1.3-2.7,2.2-3.8c1.1-1.4,2.1-2.3,3.1-2.8l0.2-0.1c0.3-0.1,0.5,0.1,0.6,0.5c0.1,0.4-0.1,0.7-0.6,1.1
		c-1,0.7-1.7,1.4-2.2,2.1c-0.6,0.8-1.4,1.9-2.2,3.4l1.4,0.5c0.2-0.5,0.5-1,1-1.7c0.5-0.8,1.3-1.4,2.2-2l0.2,0c0.3,0,0.5,0.1,0.6,0.3
		c0.2,0.3,0.1,0.7-0.3,0.9l-1.8,1.5l-0.9,1.2l1.8,0.5l0.8-0.6l0.2-0.1c0.3,0,0.5,0.1,0.6,0.4c0.1,0.3,0.1,0.5-0.2,0.6l0,0.1
		c2.2,0.6,4.3,1,6.4,1.1c2.6,0.2,4.8,0.2,6.6,0.1c2.3-0.3,4.4-0.9,6.3-1.8l4.5-2.3c1.8-0.9,3.3-1.6,4.6-2l-3.2-5.2l-0.7-1.6
		c-0.1-0.2-0.2-0.5-0.2-0.7c0-0.2,0.1-0.3,0.2-0.3l0-0.1c0.4,0,0.7,0.2,1,0.8l2.4,3.7l2.8,3.1c0.9,0.1,2.1,0.5,3.7,1.2
		c1.6,0.7,2.8,1.2,3.7,1.3c2,0.3,4.2-0.8,6.6-3.3l-1-4.2l-1.1-3c-1.3-3-3.1-6.1-5.5-9.2C127.3,32.9,126,32.4,124.3,31.4 M122.7,35.2
		v-0.9c0.1-0.5,0.3-0.8,0.7-0.9l0.5,0.1l4,1.9l0.5,0.4l-0.5,0.2h-0.1l-3.9,0.3c-0.3,0-0.6-0.1-0.9-0.3
		C122.7,35.9,122.6,35.6,122.7,35.2 M127.9,42l0.1,0.1c0.4,0.6,0.6,1.3,0.8,2.1c0.2,0.9,0.1,1.8-0.2,2.4c-0.3,0.7-0.6,1.1-1.1,1.2
		s-1-0.2-1.4-0.8c-0.4-0.6-0.7-1.4-0.8-2.2c-0.1-0.9-0.1-1.8,0.2-2.4l0.1-0.2c0.3-0.5,0.6-0.8,1.1-0.9
		C127.1,41.2,127.5,41.4,127.9,42 M100.2,41L100.2,41c-0.3-0.8,0.1-2.1,1.3-3.8l1.9-2.3l0.5-0.2c0.3-0.1,0.6,0.1,0.8,0.4
		c1.1,1.1,1.6,1.8,1.5,2.1l-2.7,1.5C101.7,40.2,100.6,41,100.2,41 M108.1,46.6c0.2,0.9,0.1,1.7-0.2,2.4c-0.3,0.7-0.7,1.1-1.2,1.1
		v0.1c-0.5,0.1-1-0.2-1.4-0.8c-0.4-0.6-0.7-1.4-0.8-2.3c-0.1-0.9-0.1-1.7,0.2-2.4c0.2-0.7,0.6-1.1,1.1-1.1c0.5-0.1,1,0.2,1.4,0.8
		C107.6,44.9,107.9,45.7,108.1,46.6 M134.9,34.3c0.1-1.1-0.1-2-0.4-2.7c-0.3-0.7-0.7-1.1-1.2-1.1c-0.2,0-0.5,0.2-0.8,0.5
		c-0.7,0.8-1.4,1.3-2.2,1.6c1.2,1.6,2.4,3.4,3.5,5.2C134.6,36.1,134.9,35,134.9,34.3 M133,20.6c-0.5-1.1-1.3-2-2.2-2.7
		c0.3,1.3,0,2.2-0.7,3c-0.8,0.8-1.8,1.3-3,1.5c-1.7,0.2-3.2-0.3-4.6-1.6c-3.3-3.1-5.6-4.7-6.8-4.9h-1.2c-0.7,0.1-1.5,0.3-2.3,0.8
		l-1.9,0.7c-0.5,0.1-0.9-0.1-1.4-0.4l-2-2.2c-2-2.5-3.5-3.8-4.2-3.8h-0.3c-1,0.1-2.1,0.8-3.4,1.9l-2.7,2.2c-1.7,0.8-3.1,1.4-4.3,1.6
		c-1.9,0.5-3.5,1.9-4.9,4.1l-2.6,4c-1.2,0.7-2.4,2.1-3.6,4.3c-0.8,1.5-1.5,3.2-2.1,4.9c-0.7,2.3-0.8,5-0.2,8c0.4,2.2,1.1,4.5,2.1,7
		l1.3,1.5c0.4-2.4,1.4-4.6,2.9-6.5l3.5-3.6l-3-2.3c-1.2-1.1-1.7-2.2-1.7-3.1c0-1.3,0.4-2.5,1-3.5c0.9-1.4,2.2-2.2,3.9-2.4l1.1-0.1
		c0.7,0,1.9,0.3,3.6,0.8l3.2,0.6l0.3,0l3-3.8c1.7-2.3,3.1-3.5,4.3-3.7l0.8,0.1c0.6,0.2,1.8,0.7,3.6,1.6c0.6,0.3,1.3,0.6,2.2,1.1
		c0.7,0.3,1.2,0.4,1.6,0.4l0.6-0.2l2.6-1.6c0.4-0.3,0.8-0.4,1.2-0.4c0.7-0.1,1.5,0.1,2.4,0.5c0.7,0.3,1.9,1.3,3.7,3.1l2.8,2.7
		c1.5,1,2.9,1.4,4.2,1.3c0.9-0.1,1.6-0.5,2.2-1.2c1.1-1.3,1.8-2.9,2-4.9C133.9,23.6,133.7,22,133,20.6 M181.2,143.1
		c-1-3.3-3.1-7-6.1-11.1c-5.5,6.7-13.6,11.4-24.2,13.9c-10.5,2.5-19.7,2.1-27.7-1.2l-3.6-2.1c-5.6,4.4-10,8.1-13.2,10.9
		c-5.8,5.2-8.9,9.4-9.5,12.8c-0.7,4.1,0.4,10.5,3.2,19.1l6.3,19.6c1.5,1.3,3.4,2.2,5.7,2.8l6.8,0.6l13.1-1.2
		c0.2-0.1-0.3-2.1-1.5-6.1c-1.3-4.3-2.6-8.2-3.9-11.8c-1.1-2.8-2.6-5.8-4.6-8.8l-2.5-3.8l5.4-0.4c4.2-0.4,7.7-1.4,10.5-3.1
		c0-5.8,0.7-11.8,1.9-18.1c0.1-0.5,0.6-1,1.4-1.8c0.8-0.7,1.4-1.1,1.8-1.1c-1.4,4.7-2.1,10.4-2.3,17.1c-0.1,6.8,0.4,12,1.6,15.7
		c1.5,4.6,4.3,9.6,8.4,15.2c3.4,4.6,7.3,9.2,11.8,13.7c2,0.3,4.1,0.1,6.2-0.6c1.6-0.5,3.6-1.6,6.1-3.1c2.6-1.5,5.6-3.7,8.9-6.6
		l0.6-1.2l0.4-1.1c-0.7-1.5-1.9-3.7-3.7-6.6c-2.6-4.2-5.5-8.1-8.6-11.7c-0.2-0.3-1.3,0.1-3.1,1.2c-1.8,1.1-2.8,1.6-2.8,1.3l7.8-8.6
		c2.4-3.4,4.6-7.2,6.5-11.5c2.3-4.8,3.6-8.8,3.9-11.8C182.4,149.9,182.1,146.3,181.2,143.1 M170.1,123.1l-2.6-0.8
		c-8.6,7.4-19.5,12.2-32.6,14.2l-0.8-0.1c-6.9-9.8-11.9-20.3-15.1-31.5l-2,2.1l-1.3-0.1l-1-1c-0.8-1.4-1.7-2.8-2.9-4.2
		c-1.8-2.1-3.9-4.3-6.5-6.4c-5.1-3.7-8.8-6.7-11.1-8.8c0.5,2.5,1.6,4.6,3.2,6.4c1.6,1.9,3.7,3.2,6.2,4.1l2.9,0.7l0.3,0.1l1.1,3.9
		c1.8,6.6,3.7,12.1,5.6,16.5c3.2,7.6,7.1,13.5,11.5,17.7c0.3,0.3-0.1,0.6-1.2,0.9h-1.4c-2.7,0-5.5-0.5-8.3-1.4l4.4,4.5
		c1.4,1.3,2.7,2.3,3.8,2.9c4.1,2.3,9.1,3.4,14.9,3.6c5.1,0.1,10.2-0.6,15.3-2.1c7.2-2.1,12.8-4.8,16.8-8.1l3.8-3.5
		c1.3-1.6,1.4-3.2,0.4-4.6L170.1,123.1 M168.6,100.9c-0.9-0.9-2.5-0.7-4.7,0.6c-1.6,0.9-2.9,2-3.9,3.1c-1.1,1.4-1.9,2.6-2.3,3.6
		l-0.1,0.3c-0.2,0.6-0.4,1.2-0.4,1.6v0.4l0.2,0.9l1.2,1.1l3.9-0.2v0c-0.6-1.9-0.2-4,1.1-6.2c0.8-1.3,2.3-2.9,4.4-4.9L168.6,100.9
		 M181.9,107.4c-0.4-1.3-1.3-2.4-2.5-3.3l-3.1-1.9c-1.3-0.6-2.5-0.9-3.6-0.8c-2.3,0.3-5,2.6-8.1,6.8c-1.2,1.6-1.6,2.9-1.3,3.9
		l0.7,1.1l1.1,1.2c0.5,0.4,0.9,0.5,1.4,0.3c1.3-0.5,2.6-1.8,4.1-3.8l1-1.4c0.5-0.7,0.9-1,1.3-1c0.9,0,2.1,0.3,3.4,0.9
		c0.3,0.1,0.4,0.6,0.6,1.3s0.1,1.1-0.1,1c-2.1-1.1-3.4-1.3-3.9-0.6l-3.9,4.8c-1.1,1-2,1.4-2.8,1.1c-0.9-0.3-1.8-1.2-2.7-2.6
		c-1.5,0.8-2.9,1-4.1,0.5c-1-0.4-1.8-1.3-2.4-2.6c-1,0.1-1.8,0.3-2.6,0.6c-0.7,0.3-1.5,0.9-2.4,1.8c-1.1,1.1-1.5,2-1.4,2.8
		c0.1,0.7,0.6,1.2,1.4,1.5l4.5-0.2c2-0.7,3.4-1,4.3-0.8l6.6,2.3c2.7,1,4.9,1.1,6.7,0.4c2.6-1,4.7-2.8,6.2-5.6v-0.1
		c0.6-1,1-2,1.2-3.1C182.2,110.2,182.2,108.7,181.9,107.4 M167.8,91.4l2.1,0.9l0.1-0.2c0.6-1.7,1.1-2.9,1.5-3.6
		c0.8-1.4,1.6-2.3,2.6-2.7c0.3-0.1,0.5,0.2,0.7,0.9s0.2,1.2-0.1,1.4c-0.9,0.7-1.7,1.7-2.5,3.1l-1.6,3.6l-0.1,0.1
		c-0.9,2.3-1.4,4-1.3,5.2l0.2,0.4c1.8-1.1,3.8-1.3,6-0.6c2.1,0.6,3.9,1.9,5.4,3.7c0.9,1.1,1.6,2.4,1.9,3.8c0.5,1.8,0.6,3.8,0.2,5.9
		c3.3-2.6,5.8-5.1,7.8-7.4c2.5-3.1,4.1-6.2,4.7-9.3c1.4-6.8-2.5-13-11.5-18.9c-9.6-6.1-21.6-9.9-36.1-11.4l-6.7-0.6
		c-0.8,6-2.6,11.7-5.4,16.9c-3.5,6.8-8,13.2-13.4,19.3l-1.5,1.7l0.4,1.8c2,7,4.3,12.9,7,17.8l5.5,9.3l1.4,2c0.6,0.9,0.6,1.4,0.2,1.4
		c12.5-2.1,22.8-6.7,31-13.8l-2.8-1.1c-1.1-0.4-2.1-0.6-3.1-0.4l-6.1,1.3c-1.1,0-2-0.4-2.8-1.1c-0.7-0.7-1.1-1.7-1.3-3
		c-0.2-0.7-0.2-1.3-0.2-1.8c0.1-1.6,0.8-3,2.1-4c1.1-0.9,2.5-1.5,4.2-1.7l-0.1-1.1c-3.9,1.3-6.4,1.1-7.6-0.7
		c-0.9-1.3-1.2-2.6-1.2-4.1c0.1-1.4,0.6-2.8,1.5-4.1c1.1-1.6,2.3-3,3.7-4.2c1.8-1.7,3.5-2.5,5-2.6l-1.2-3.4l-0.2-0.9
		c-0.1-0.5,0-0.7,0.2-0.6C161.4,89.1,165.1,90.1,167.8,91.4z"/>
</g>
</svg>
