<?xml version="1.0" encoding="utf-8"?>
<!-- Generator: Adobe Illustrator 25.4.1, SVG Export Plug-In . SVG Version: 6.00 Build 0)  -->
<svg version="1.1" id="Sneak_x2C_PerkClip_x5F_4c935" image-rendering="auto"
	 xmlns="http://www.w3.org/2000/svg" xmlns:xlink="http://www.w3.org/1999/xlink" x="0px" y="0px" viewBox="0 0 240 240"
	 style="enable-background:new 0 0 240 240;" xml:space="preserve">
<style type="text/css">
	.st0{fill:#FFFFFF;}
</style>
<g>
	<rect width="240" height="240"/>
	<path class="st0" d="M57.8,128.9c-0.1-2.3-0.2-3.9-0.4-4.7c-0.5-2-1.5-2.5-3-1.6c-1.9,1.1-2.8,3-2.9,5.7c-0.1,1.4,0.1,2.7,0.4,3.8
		c0.4,1.5,1.1,2.5,2.1,2.9C56.4,136.1,57.7,134.1,57.8,128.9 M138.6,213.9l2.6,2.6l1-0.1l1.2-0.4c1.1-0.5,1.8-1,2.3-1.5
		c0.7-0.7,1.3-1.5,1.6-2.4C144.6,213.1,141.7,213.6,138.6,213.9 M113.9,215.4l-2.3,1.1c-0.9,0.5-1.6,0.9-2.1,1.4l3.2,1
		c4.6,0.8,10.3,0.2,17.1-1.9c3.1-0.9,5.8-2,8.2-3.1l-8.2-0.4l-7-1.4l-0.5-0.4C119.8,212.7,117,213.9,113.9,215.4 M85.4,121.6
		c-0.6-1.3-1.4-2.3-2.5-2.8l-3.6,0.1c-1.9,0.9-3.4,2.1-4.8,3.7l-0.1,0.1c-0.3,1.7-0.7,2.9-1.4,3.8c-0.8,1.1-1.8,1.3-2.9,0.6
		c-0.9-0.5-1.8-1.4-2.7-2.6c0.5,1.8,0.8,3.2,0.8,4.2c0.1,1.8-0.5,3.2-1.7,4.2c-1.2,1.1-2.6,1.1-4.2-0.1c-1.6-1.2-2.8-3.2-3.6-5.9
		l-0.1,7.3l0.3,1.1c0.5,1.3,1.7,2.3,3.7,2.9l5.2,0.3c2.2-0.5,4.1-1.8,5.9-3.9c1.1-1.4,2.4-3.5,3.6-6.3l0.9-2.3
		c0.5-1.1,1-1.7,1.5-1.9l3.1,0.4c1.3,0.3,2.2,0.1,2.6-0.6C85.7,123.1,85.7,122.4,85.4,121.6 M135.7,78c-1.2,3-3.4,6.6-6.5,10.8
		L122,99c2.4-1,4.6-2.2,6.5-3.6l2.4-2c3-2.8,4.8-5.8,5.2-9C136.4,82.2,136.3,80.1,135.7,78 M145.9,51.6L145.9,51.6
		c-0.9-0.5-1.9-0.9-2.9-1c0,1.6-0.4,3.1-1.3,4.4c1.5,2,3,3.4,4.4,4.3c1.5,1,3.3,1.6,5.2,1.7h0.7l-0.7-1.8c-1.2-3-2.5-5.3-4.1-6.7
		c0.6,0.6,0.7,0.8,0.3,0.8c-0.3-0.1-0.7-0.4-1.3-1C145.7,51.7,145.6,51.5,145.9,51.6 M147.7,58.6c-0.6,0.1-1.3-0.3-2-1
		c-0.7-0.7-0.7-1.1,0-1.2c0.6-0.1,1.2,0.3,1.9,1C148.3,58.2,148.3,58.6,147.7,58.6 M136.2,47.1c0,0.5-0.3,1-0.9,1.5
		c-2.4,2.5-6.2,5-11.2,7.6c-3.4,1.7-7,2.9-11,3.8l-4.6,0.1c0.4,0.5,0.3,0.9-0.4,1.1c-0.6,0.2-1.2-0.1-1.8-0.7
		c-0.3-0.3-0.4-0.6-0.3-0.8l-5.9-1.3c-2.2-0.4-4.4,0.1-6.5,1.5c-3.1,2-5,3.2-5.8,3.4c-1.6,0.5-3.8,0.1-6.5-1.4c0,1.5,0.2,3,0.4,4.5
		L82,68l0.5-0.4c0.6-0.3,1-0.1,1.4,0.6c0.3,0.7,0.1,1.2-0.6,1.5h-0.8l0.6,1.9c0.7,1.9,1.6,3.8,2.6,5.8l0.1,0.2
		c2.5,4.6,5.8,8.9,9.8,12.9c-0.1-0.6,0.1-0.9,0.8-1.1c0.8-0.3,1.5,0.2,2.2,1.2c0.7,1.1,0.6,1.8-0.4,2.1L98,92.8l3,2.7
		c3.8,3.2,8,6.2,12.5,8.9l3.5,2.1l0.8-2.1c1.1-2.8,2.6-5.6,4.5-8.6l0.2-0.3c1.7-2.7,4-5.7,6.9-9.2s5.1-7.9,6.6-13.2
		c1.7-5.8,1.9-10.7,0.8-14.9l-0.1-0.2c-0.4-1.4-0.4-3.3-0.1-5.9c0.3-2.7,0.2-4.7,0-5.9L136.2,47.1 M132.2,55c0.4,0,0.9,0.3,1.6,0.9
		c0.6,0.6,0.7,0.9,0.2,0.9c-0.4,0-1-0.4-1.5-1C131.8,55.2,131.7,55,132.2,55 M135.8,52.9l-1.3-0.9c-0.6-0.6-0.6-0.8-0.2-0.7
		c0.3,0.1,0.7,0.4,1.3,0.9C136.1,52.8,136.2,53,135.8,52.9 M126.8,54.9c0.6-0.1,1.2,0.2,2,0.9c0.7,0.6,0.6,1-0.1,1.1
		c-0.6,0.1-1.3-0.2-1.9-0.9C126,55.4,126.1,55,126.8,54.9 M127.5,63.9c-0.5-0.9-0.4-1.3,0.3-1.2c0.6,0.1,1.1,0.7,1.6,1.6
		s0.4,1.3-0.3,1.2C128.5,65.4,128,64.9,127.5,63.9 M88.8,64.2c-0.4-0.6-0.3-1,0.5-1.3c0.7-0.3,1.2-0.1,1.6,0.5
		c0.4,0.6,0.3,1.1-0.5,1.4C89.7,65,89.2,64.8,88.8,64.2 M97.8,66.2c-0.7,0.2-1.4,0-1.9-0.6c-0.5-0.7-0.3-1.1,0.5-1.4
		c0.7-0.2,1.4,0,1.9,0.6C98.9,65.5,98.7,65.9,97.8,66.2 M112.8,63.1c-0.6-0.6-0.6-1.1,0.2-1.2c0.7-0.2,1.4,0.1,2,0.7
		c0.6,0.7,0.5,1.1-0.3,1.2C114,64,113.4,63.7,112.8,63.1 M120.2,76.9c-0.8-1.1-0.8-1.8,0.1-1.9c0.8-0.1,1.6,0.3,2.5,1.4
		c0.8,1.1,0.7,1.8-0.2,2C121.8,78.5,121,78.1,120.2,76.9 M118.8,70.4c-0.8,0.1-1.6-0.3-2.4-1.2c-0.8-0.9-0.8-1.4,0.1-1.5
		c0.8-0.1,1.6,0.3,2.4,1.2C119.7,69.7,119.7,70.2,118.8,70.4 M106.3,80.1c-0.7-1.2-0.6-1.9,0.4-2.2c0.8-0.3,1.6,0.1,2.4,1.3
		c0.7,1.1,0.6,1.9-0.4,2.2C107.8,81.7,107,81.2,106.3,80.1 M109.7,71.4c-0.7,0.2-1.3-0.1-1.9-0.9s-0.5-1.4,0.3-1.6
		c0.6-0.2,1.3,0.1,2,0.9C110.7,70.6,110.6,71.2,109.7,71.4 M105.5,93c-0.8-1.1-0.7-1.8,0.3-2.1c0.9-0.3,1.7,0.2,2.5,1.3
		c0.8,1.1,0.6,1.9-0.4,2.2C107.1,94.6,106.3,94.1,105.5,93 M120.3,92.8c-0.7-1-0.6-1.7,0.3-2.1c0.8-0.3,1.5,0.1,2.1,1.1
		s0.5,1.6-0.3,2.1C121.6,94.2,120.9,93.8,120.3,92.8 M92.4,79.5c0.7-0.3,1.4,0,1.9,1s0.4,1.6-0.5,2c-0.7,0.3-1.4,0-1.9-1
		S91.5,79.9,92.4,79.5 M87.9,78.6c-0.5-0.9-0.3-1.6,0.5-1.9c0.7-0.3,1.3,0,1.8,0.9c0.5,0.9,0.3,1.6-0.5,2
		C89,79.9,88.4,79.6,87.9,78.6 M113.1,101.4c0.8-0.2,1.6,0,2.2,0.6s0.4,1-0.5,1.2c-0.8,0.2-1.5,0.1-2.2-0.5
		C112,102.1,112.1,101.7,113.1,101.4 M132.2,78.6c0.3,1.2,0.1,1.7-0.7,1.7c-0.7-0.1-1.1-0.7-1.5-1.9c-0.3-1.2-0.1-1.8,0.8-1.6
		C131.5,76.9,131.9,77.5,132.2,78.6 M135.8,68.9c0.4,1,0.2,1.5-0.4,1.4c-0.6-0.1-1-0.7-1.4-1.7s-0.3-1.5,0.4-1.4
		C135,67.3,135.4,67.9,135.8,68.9 M140.3,46.9l-0.5-0.7c-0.3-0.1-0.6-0.2-0.9-0.2l-1.5,0.3c0.3,2.2,0.3,4,0,5.6l-0.6,2.4
		c-0.2,1.1,0,1.6,0.5,1.4l2.4-1.1c1.5-0.9,2.3-2.2,2.5-3.8c0.1-1.1-0.1-2.2-0.8-3.1L140.3,46.9 M140.3,53.6c-0.4,0-0.9-0.4-1.5-1
		c-0.6-0.6-0.7-0.9-0.2-0.9l1.5,0.9C140.7,53.3,140.8,53.6,140.3,53.6 M122.4,28.9L122,29c-2,0.6-3.4,1.2-4.1,1.6l-2.6,1.1
		c-1,0.1-1.8-0.1-2.4-0.7c-2.2-1.8-4.4-2.6-6.7-2.2c-0.9,0.2-1.7,0.5-2.3,1c-1.6,1.2-2.9,1.9-4,2.1l-2-0.1c-1.4-0.6-2.6-0.8-3.5-0.7
		c-0.3,0-0.7,0.2-1,0.4c-0.4,0.3-1.2,1.4-2.2,3.3L89,38.7c-1.3,1.4-2.5,2.2-3.6,2.7l-0.7,1.8c-1.5,4-2.3,7.9-2.4,11.8
		c-0.1,1.2,0,2.6,0.1,4.3c3,1.8,5.4,2.2,7.3,1.3l3.2-2.2c1.3-1.1,2.4-1.9,3.2-2.2l1.9-3.8l1.4-4.2c0.1-0.6,0.3-0.9,0.7-0.9h0.1
		c0.2,0,0.3,0.1,0.4,0.3v0.7l-0.2,1.6l-1.6,5.9l9.9,1.7c2.1,0.4,4.2,0.4,6.5,0c1.8-0.3,3.9-0.9,6.4-1.8c1.7-0.6,3.6-1.6,5.9-2.9
		c-0.3-0.1-0.4-0.3-0.4-0.6c0.1-0.3,0.2-0.5,0.5-0.6l0.3,0.1l0.9,0.4l1.5-1l-1.2-0.9l-2.3-1.2c-0.4-0.2-0.6-0.5-0.6-0.8
		c0.1-0.3,0.2-0.5,0.5-0.5h0.1c0.9,0.2,1.8,0.6,2.7,1.3l1.4,1.3l1.2-0.9l-3-2.7c-0.7-0.5-1.6-0.9-2.8-1.4c-0.5-0.2-0.8-0.5-0.8-0.9
		c-0.1-0.4,0.1-0.6,0.4-0.6h0.2c1,0.3,2.3,0.9,3.7,1.8c1.1,0.8,2.2,1.8,3.2,3.1l0.6-0.5c-1.6-2.1-3.1-3.5-4.5-4.4l-1-0.8l-3.4-2
		c-0.3-0.1-0.4-0.3-0.4-0.6c0.1-0.3,0.3-0.4,0.6-0.5h0.3c0.8,0.2,2.3,1.1,4.6,2.9L130,43c1.3,1.1,2.7,2.6,4.1,4.6l0.2-0.5
		c-0.4-1.5-1.2-2.9-2.3-4.1l-2.5-2.2c-1.1-0.7-2.8-1.6-5.2-2.5c-0.5-0.2-0.6-0.5-0.5-0.8c0.1-0.3,0.2-0.5,0.3-0.5
		c1-0.8,1.7-1.6,2.1-2.4c0.6-1.2,0.6-2.3,0-3.5C125.6,29.4,124.2,28.6,122.4,28.9 M108.9,36.9c0.1-0.3,0.3-0.5,0.7-0.6l0.5,0.1
		l2.5,1.7c1.6,1.3,2.4,2.3,2.3,3.2l-6.8-2c-0.1-0.2,0-0.6,0.3-1.4L108.9,36.9 M86.7,43.6l3.4-2.9l0.5-0.2c0.4-0.1,0.6,0.1,0.8,0.6
		l0.3,0.9c0.1,0.3,0.1,0.6-0.1,0.9l-0.2,0.2l-0.6,0.2l-3.9,0.8h-0.1L86.4,44L86.7,43.6 M91.7,51.8c0.1,0.9,0.1,1.7-0.2,2.4
		c-0.3,0.7-0.6,1.1-1.1,1.2c-0.5,0.1-1-0.2-1.4-0.8c-0.4-0.6-0.7-1.4-0.8-2.3c-0.1-0.9-0.1-1.7,0.2-2.4c0.3-0.7,0.6-1.1,1.1-1.2h0.1
		c0.5-0.1,1,0.2,1.4,0.8S91.6,50.9,91.7,51.8 M112.3,48.4c0.1,0.9,0.1,1.7-0.2,2.4c-0.3,0.7-0.6,1.1-1.1,1.1s-1-0.2-1.4-0.8
		c-0.4-0.6-0.7-1.4-0.8-2.2c-0.1-0.9,0-1.8,0.2-2.5c0.3-0.7,0.6-1,1.1-1.1h0.1c0.5-0.1,1,0.2,1.4,0.8
		C111.9,46.7,112.2,47.5,112.3,48.4 M151.3,43.4l0.2-0.4c0.3-0.7,0.4-1.5,0.2-2.3l-0.1-0.8L139.8,43l-1.1,0.5
		c0.9,0.1,1.8,0.7,2.5,1.7c0.7,0.9,1.1,1.9,1.5,3.1l0.1-0.1c1.1-0.7,3.1-1.6,6-2.7C150.1,45,150.9,44.3,151.3,43.4 M151,43.4
		c-0.2,0-0.5-0.1-0.8-0.3l-0.8-0.7c-0.6-0.6-0.7-0.9-0.2-0.9l1.5,0.9l0.5,0.6C151.4,43.3,151.3,43.4,151,43.4 M67.7,111.8
		c-1.3-0.2-2.4,0.4-3.3,1.8c-0.7,1.1-1.1,2.3-1.4,3.8l-0.1,0.2l-0.2-0.1c-0.6-0.7-1.3-0.8-2.2-0.5c-0.8,0.3-1.4,0.9-1.6,1.6
		c-0.3,1.3-0.4,2.6-0.3,3.9c0.1,1.5,0.4,2.9,0.8,4c0.8,2.7,2.1,4.2,4,4.5c2.6,0.5,3.8-0.8,3.5-3.9c-0.1-1.4-0.7-3.6-1.7-6.8
		c-0.2-0.5-0.2-1-0.1-1.4c0.1-0.2,0.2-0.2,0.2-0.1l0.3,0.5c0.9,2.1,2.1,3.6,3.4,4.7c1.7,1.4,3.1,0.9,4.1-1.4
		c0.6-1.6,0.7-3.2,0.3-4.8c-0.3-1.1-0.8-2-1.6-2.9l-1.9-1.9C69.2,112.3,68.4,111.9,67.7,111.8 M80.1,95.4l-2.3,2.5
		c-1.8,2.1-3.4,4.2-4.8,6.4c-1.3,2-2.5,4.1-3.6,6.3c1.1,0.8,2.1,1.8,2.9,3.1c0.8,1.3,1.4,2.6,1.8,4l0.4,1.8c2.4-2.5,4.6-3.7,6.8-3.4
		c1.9,0.2,3.5,1.9,4.7,5.2l0.1,0.2c0.4,1.1,0.5,2.1,0.4,3.1c-0.1,1.4-0.8,2.1-1.9,2.1l-2.3-0.4l-2.1-0.1c-0.4,0.3-0.8,0.8-1.2,1.4
		l-0.7,1.7c-1.8,3.9-3.6,6.8-5.4,8.6c5.3-0.8,10.4-3.7,15.2-8.8c3.9-4,7.4-9,10.4-14.9l-0.1-0.1c-0.1-0.2,0-0.3,0.3-0.4l0.3-0.6
		l0.4,0.3c0.5-0.2,0.8-0.1,0.9,0.2c3.3,8,8.3,15.4,14.9,22.3h0.3c3.6,1.7,7.3,2.6,10.9,2.9c-3.5-3.6-6.7-8.5-9.4-14.6
		c-1.8-4-3.8-9.4-6-16.4l-0.6-1.9l-2.6-1.7c-4.1-2.8-8-5.8-11.5-8.9l-7.4-7.8C85.9,89.8,82.9,92.4,80.1,95.4 M80.1,40.3
		c-0.5,0.1-0.8,0.5-0.9,1.3V43l0.3,1.2c0.2,0.7,0.9,1.7,2.1,3.1c0.3-1.4,0.8-2.9,1.3-4.4l0.6-1.6c-0.8-0.1-1.7-0.4-2.6-0.9
		C80.6,40.3,80.3,40.2,80.1,40.3 M108.5,13.9c-1.5-0.7-2.8-1-3.8-0.9l-0.3,0.1c-0.8,0.2-1.8,1.8-3.1,4.8l-1.3,2.7
		c-0.3,0.4-0.7,0.7-1.2,0.8l-4.5-0.2l-1.1,0.3c-0.7,0.3-1.7,1.3-2.9,2.9L88,28c-1,1.6-2.3,2.5-4,2.8c-1.2,0.2-2.2,0-3.2-0.6
		c-0.9-0.5-1.4-1.4-1.5-2.7c-0.7,0.9-1.2,2-1.4,3.2c-0.3,1.3-0.2,2.6,0.3,4.1l0.3,0.8c0.8,1.8,1.9,3.2,3.2,4.2
		c0.7,0.5,1.5,0.7,2.4,0.6c1.3-0.2,2.5-1,3.7-2.4l1.9-3.4c1.2-2.1,2.1-3.4,2.7-3.9c0.9-0.6,1.6-1,2.2-1.1l1.3,0.1l2.9,0.9h0.6
		c0.4-0.1,0.9-0.3,1.4-0.8l4.9-4.1c0.3-0.2,0.5-0.3,0.9-0.3c1.1-0.2,2.8,0.6,5.1,2.4l3.9,2.8h0.3c0.5-0.1,1.4-0.6,2.8-1.5
		c1.5-1,2.6-1.6,3.2-1.8l1.1-0.2c1.7-0.3,3.2,0.1,4.4,1.2c0.9,0.8,1.5,1.8,1.9,3.1c0.3,0.9,0,2.1-0.8,3.5V35l-2.2,2.9
		c2.2,1.1,3.6,2,4.4,2.5c1.2,0.8,2.2,1.8,3,2.9l1.5,2.5c0.3-0.8,0.6-1.4,0.9-1.8l0.1-0.8c0.2-3.2,0.1-5.9-0.3-8.4
		c-0.4-2.3-1.2-4.2-2.2-5.8c-1-1.5-2.1-2.9-3.3-4.2c-1.7-1.8-3.3-2.9-4.7-3.2c-0.2,0-1.3-1.1-3.5-3.1c-2-1.9-3.9-2.8-5.9-2.7
		l-4.5-0.4c-0.5-0.1-1.1-0.3-1.6-0.6L108.5,13.9 M180,196.2c0.3-1,0.3-1.9,0.1-2.6c-0.2-0.6-0.4-1.1-0.8-1.6
		c-3.2,5.1-7.3,9-12.2,11.6c-2.5,1.4-5,2.5-7.7,3.4l-1.3,0.1c-1.5,2.9-2.7,5.5-3.6,7.8l-1,2.8c-0.4,1.1-0.6,2.1-0.6,2.9v0.4l0.6,0.4
		l2.3-0.2c2-0.8,4.5-2.4,7.3-4.8c3.2-2.7,5.4-5.1,6.8-7.4c2.3-3.5,3.7-6.8,4.2-9.9l0.2-0.2l3.4,1l0.9-1.2L180,196.2 M180.3,135.6
		l-0.4-1.2c-4.4,5.7-10.9,10.1-19.5,13.1c-8.3,2.8-16.4,3.7-24.4,2.6c-3.1-0.4-6-1.1-8.6-2.2c-1.5-0.6-3.1-1.6-5-3
		c-4.4,4.1-8.7,9.2-12.9,15.6c-2.1,3.3-3.6,5.7-4.2,7.4c-1.5,3.5-2,7-1.5,10.5c0.1,0.6,0.2,1.1,0.3,1.5c0.3,0.8,1,2.2,2.1,4.1
		c3.3,6.5,8.5,14.7,15.7,24.4l0.4,0.5h0.1l1,0.2c3.9,1,7.4,1.5,10.7,1.5c6.3,0.1,11.4-0.9,15.5-3.1l-2.5-6.1
		c-5-2.9-9.2-5.6-12.9-8.2c-3.5-2.5-6.2-4.8-8.1-6.7c-2.9-2.9-4.8-5.7-5.6-8.6c-0.9-2.8-0.7-5.6,0.4-8.5c2.3-6.1,7.3-12,14.9-17.8
		v-0.1c0.3,0,0.6,0.5,0.9,1.5c0.4,1,0.4,1.7,0,1.9c-6.5,4.9-11.1,10.1-13.8,15.5c-1.2,2.5-1.7,4.6-1.6,6.2l0.1,0.9
		c0.3,1,1,2.1,2,3.3c2.3,2.8,5.8,5.8,10.5,9.1c3.9,2.8,8.1,5.4,12.4,7.9c0.1-0.2,0.4-0.1,0.7,0.4c2.9,1.7,6.3,3.5,10.1,5.4l0.4,0.2
		l1.5-0.5c3.2-1.2,5.9-2.5,8.2-3.9c4.6-2.8,8.2-6.5,11-11l-18.9-11.2l-7.1,1.1c-0.4,0-0.8-0.5-1-1.6c-0.3-1.1-0.2-1.7,0.1-1.8
		l2.8-0.5c5.2-0.9,9.8-2.2,13.8-3.9c2.8-1.1,5.2-2.4,7.1-3.9c1.1-0.8,2.1-1.8,3.1-3.1l2.4-3.7c2.9-4.4,3.7-9.7,2.5-15.9
		c-0.4-1.9-0.9-3.9-1.7-5.9L180.3,135.6 M178.6,133.9c0.4-0.6,0.1-1.6-0.9-3.2l-2.5-3.3c-1.2-0.2-2.7-0.6-4.4-1.3
		c-7.5,6.1-16.5,10.3-26.9,12.6l-4.8,0.9l-0.8-0.1c-7.6-10.9-13-22.6-16.1-35.1l-0.9-4.3l-2,4.3c-0.5,1.2-0.8,2.3-1,3.3l-0.7,1.2
		c-0.5,0.5-0.9,0.7-1.2,0.5l-3.5-1.9c2,6.7,4.1,12.4,6.4,17c2.9,6,6.2,10.8,9.9,14.4c0.2,0.2,0.1,0.4-0.4,0.6l-0.9,0.2h-1.4
		c-3.1,0-6.1-0.6-9-1.6l1.6,1.6l7.2,6.1c4.1,2.3,9.1,3.4,15,3.6c5.1,0.1,10.2-0.6,15.3-2.1c6.6-1.9,11.9-4.3,15.8-7.4
		C175.4,137.7,177.4,135.7,178.6,133.9 M167.4,115.9c0.1,0.6,0.4,1.2,1,1.7l0.9,0.9l1.2,0.2c1.3-0.5,2.7-1.7,4.2-3.6l1-1.4
		c0.5-0.7,1-1,1.4-0.9c1,0,2.1,0.4,3.4,1c0.3,0.1,0.5,0.6,0.6,1.3c0.1,0.8,0.1,1.1-0.1,0.9l-1.6-0.7l-1.7-0.2
		c-0.4,0.1-0.8,0.4-1.2,0.9l-0.9,1.3l-2.2,2.5c-1,0.9-2,1.4-3,1.3c-0.8-0.1-1.7-0.9-2.8-2.6c-1.3,0.7-2.6,0.8-3.8,0.4
		s-2.1-1.3-2.7-2.7l-2.5,0.6c-1.1,0.4-1.9,0.9-2.3,1.4c-0.4,0.4-0.7,0.9-1,1.5c-0.3,0.7-0.4,1.3-0.3,1.8c0.2,0.5,0.5,0.9,1,1.2
		l4.5-0.2c2-0.7,3.4-0.9,4.4-0.7l6.2,2.5c2.6,1,4.7,1.3,6.5,0.8c2.9-0.9,5.1-2.7,6.8-5.5l0.1-0.2l1.1-2.6c0.6-2,0.7-3.7,0.4-5.1
		c-0.3-0.9-0.8-1.8-1.6-2.4l-3.3-2.4c-1.5-0.8-2.8-1.2-3.9-1.1c-2.4,0.2-5.1,2.4-8.2,6.6C167.7,113.6,167.2,114.8,167.4,115.9
		 M170.9,104.6l-2.1,0.4c-1.8,0.9-3.4,2-4.5,3.4c-1.1,1.3-1.9,2.4-2.4,3.3l-0.2,0.4c-0.3,0.6-0.4,1.1-0.4,1.6v0.6l0.1,0.4l0.8,1.1
		c1.2,1,2.6,1.1,4.4,0.3V116c-0.5-1.8,0-3.7,1.3-5.8c0.7-1.1,2.1-2.7,4.2-4.7l0.8-0.7L170.9,104.6 M167.5,103.1l-1.5-2.4l-0.2-0.3
		c-0.6-0.7-1.4-1.1-2.4-1.2h-0.3c-1.3,0-2.9,0.7-4.7,2.1c-1.1,0.9-2.3,2.1-3.4,3.4c-1.8,2-2.5,3.6-2.2,4.6c0.1,0.4,0.4,0.8,0.8,1
		c1.8,0.8,4.2,0.6,7.4-0.5c0.3-0.8,0.8-1.6,1.2-2.2C163.7,105.7,165.4,104.2,167.5,103.1 M198.9,92.4c-2.2-4.3-5.9-8.1-11.1-11.4
		c-4.1-2.6-9-4.9-14.7-6.8c-5.6-1.9-11.3-3.4-17.2-4.3l-4.6-0.7l-12.6-0.9c-0.5,2.3-1.1,4.6-1.9,7c1.3,2.9,1.6,6,0.9,9.3
		c-0.7,3.3-2.4,6.2-4.9,8.6l-3.1,2.2c-4.2,2.9-6.3,4.2-6.4,4l2.9,11.3c1.8,6,4.1,11.6,7.1,16.9l4.6,7.7l1.5,2
		c0.6,0.9,0.7,1.4,0.3,1.4l4.1-0.8c10.1-2.2,18.8-6.3,26-12.3l-2.2-0.9c-1.1-0.4-2.1-0.6-3-0.5l-6.1,1.1c-1.1-0.1-2.1-0.5-2.8-1.2
		c-0.5-0.5-0.9-1.4-1.2-2.6c-0.2-0.8-0.2-1.5-0.1-2.2c0.1-1.6,0.8-2.9,2-3.9c1.1-0.9,2.5-1.4,4.2-1.6v-1.1c-3.8,1.2-6.3,0.9-7.4-0.9
		c-0.4-0.7-0.8-1.4-1-2.1c-0.5-2.1,0-4.1,1.5-6.2c1.2-1.6,2.5-3,3.8-4.1c1.7-1.4,3.4-2.2,5.1-2.4l-0.9-4.2l-0.1-0.5
		c0-0.3,0.1-0.4,0.2-0.4c4.4,1.1,8,2.3,10.6,3.6l2.1,1c0.7-1.8,1.2-3,1.6-3.7c0.8-1.5,1.8-2.4,2.8-2.7c0.2-0.1,0.4,0.2,0.6,1
		c0.2,0.7,0.2,1.2,0,1.3c-0.9,0.6-1.8,1.6-2.6,2.9c-0.4,0.7-1,1.9-1.8,3.6V99c-1.1,2.4-1.6,4.1-1.5,5.3l0.2,0.3
		c1.8-1,3.6-1.3,5.6-0.7c1.9,0.6,3.6,1.8,5.2,3.6c1,1.1,1.8,2.5,2.1,4c0.6,2,0.6,4,0.1,6.1c10.3-8,14.7-15.4,13.1-22.2L198.9,92.4z"
		/>
</g>
</svg>
