<?xml version="1.0" encoding="utf-8"?>
<!-- Generator: Adobe Illustrator 25.4.1, SVG Export Plug-In . SVG Version: 6.00 Build 0)  -->
<svg version="1.1" id="Sneak_x2C_PerkClip_x5F_4c935" image-rendering="auto"
	 xmlns="http://www.w3.org/2000/svg" xmlns:xlink="http://www.w3.org/1999/xlink" x="0px" y="0px" viewBox="0 0 240 240"
	 style="enable-background:new 0 0 240 240;" xml:space="preserve">
<style type="text/css">
	.st0{fill:#FFFFFF;}
</style>
<g>
	<rect width="240" height="240"/>
	<path class="st0" d="M56.8,128.1c-0.1-2.2-0.2-3.8-0.4-4.6c-0.5-1.9-1.4-2.5-2.8-1.9c-1,0.5-1.8,1.2-2.3,2.2
		c-0.5,0.9-0.8,2-0.9,3.2c-0.2,3.7,0.6,6,2.4,7c1.6,0.9,2.8,0.4,3.4-1.4C56.6,131.6,56.8,130.1,56.8,128.1 M157,201.9L157,201.9
		c-1.8,1.6-4,3.5-6.8,5.4l7.8-2.6C157.9,203.6,157.5,202.7,157,201.9 M140.4,202.7l-0.8-0.3c-2.7,2.5-5,4.9-6.8,7.1
		c-1.9,2.2-2.8,3.7-2.9,4.4c3.6,0.5,8.3-1,14-4.5l0.2-0.2l0.4-0.1c4.3-2.7,8.2-5.7,11.8-9.1l0.5-0.5l2.8,1.6c1-0.4,1.9-0.9,2.6-1.5
		c1-0.8,1.6-1.6,1.6-2.5c0.1-1.1-0.1-2.2-0.7-3.4c-3.2,2.9-6.2,5-9,6.4C150.4,201.6,145.8,202.6,140.4,202.7 M128.3,212.2
		c-2.8,1.3-4.9,2.3-6.2,3l-1.9,1c-0.8,0.5-1.4,1-1.8,1.5l1.7,0.8l3.9,0.9c4.5,0.5,9.9-0.4,16-2.6c3-1,5.6-2.2,8-3.4l0.2,0.1l2.2,2.2
		h0.1c2.2-0.1,4-0.7,5.5-1.8c1.6-1.3,2.4-3.3,2.4-6v-1c-5.5,2-10.1,3.4-13.8,4.3l-0.2-0.1c-5.2,3.1-9.6,4.6-13.3,4.6l-1.6-0.1
		c-0.8-0.1-1.4-0.5-1.6-1.2C127.7,213.9,127.8,213.1,128.3,212.2 M117.7,147.7c-2.3,4.5-4,8.7-5.2,12.6c-1.6,5.1-2.4,9.1-2.4,11.9
		c0,2.1,0.5,4.4,1.6,7c0.7,1.7,1.8,3.8,3.4,6.4c4.3,7.1,9.4,14,15.5,20.5c0.4,0.4,0.6,1,0.8,1.8l6.6-6.8l-1.8-1.6
		c-3.4-3-6.5-6.1-9.4-9.1c-4.7-5-7.9-9.4-9.7-13c-2.9-5.8-3.1-10.9-0.6-15.3c2-3.6,5.5-7.1,10.6-10.5l5.9-3.6
		c-2.8-0.4-5.5-1.1-8.1-2.1c-1.6-0.7-3.2-1.6-4.8-2.9L117.7,147.7 M162.5,102.1c1.1-1.1,2.1-1.9,3.2-2.5l-1.8-2.7
		c-1-1.1-2.4-1.4-4-0.9c-1.2,0.4-2.4,1.2-3.8,2.4c-1.4,1.2-2.7,2.6-3.8,4.2c-1.7,2.4-1.8,3.9-0.4,4.5c1.7,0.7,4.2,0.5,7.4-0.8h0
		c0.1-0.6,0.4-1.1,0.8-1.7C160.9,103.9,161.6,103,162.5,102.1 M119.3,97.1l1.7-0.8c4.2-2.1,7.6-5.1,10-8.9c2.6-4.1,3.4-8.1,2.2-11.8
		l-0.2,0.6c-1.2,3-3.3,6.6-6.4,10.8C122.6,92.2,120.2,95.6,119.3,97.1 M137.7,44.9c-0.8-0.7-1.8-0.8-3-0.3c0.3,2.1,0.3,3.9,0,5.6
		l-0.6,2.4c-0.2,1.1,0,1.6,0.5,1.4l2.4-1.1c1.5-0.9,2.3-2.2,2.5-3.8C139.7,47.5,139.1,46.1,137.7,44.9 M137,45.1
		c0.3,0.1,0.7,0.4,1.3,0.9c0.5,0.6,0.6,0.8,0.3,0.7c-0.3-0.1-0.8-0.4-1.4-0.9C136.7,45.2,136.6,45,137,45.1 M135.6,51.5
		c-0.6-0.6-0.7-0.9-0.1-0.9l1.5,1c0.6,0.6,0.7,0.9,0.2,0.9C136.8,52.5,136.3,52.1,135.6,51.5 M140.4,49c0,1.6-0.5,3.1-1.4,4.4
		c1.5,2,3,3.4,4.4,4.3c1.7,1.1,3.6,1.7,5.7,1.8h0.1l-0.1-0.3C147.1,52.8,144.2,49.4,140.4,49 M144.5,52.1l-1.4-0.9
		c-0.6-0.6-0.6-0.8-0.2-0.7l1.3,0.9C144.7,52,144.8,52.2,144.5,52.1 M144.5,56.3c0.7,0.8,0.7,1.2,0,1.2c-0.6,0.1-1.3-0.3-2-1.1
		c-0.7-0.8-0.7-1.2,0.1-1.2C143.2,55.2,143.8,55.5,144.5,56.3 M149.1,40l-0.1-1.7l-9.1,2.3c-1.6,0.4-2.8,0.8-3.8,1.3
		c0.9,0.1,1.7,0.7,2.5,1.7c0.6,0.9,1.1,1.9,1.4,3.1l0.1-0.1c1.1-0.7,3.1-1.6,6-2.7C148.1,43,149.1,41.7,149.1,40 M147.7,41.4
		c0.6,0.6,0.7,0.9,0.2,0.9c-0.4,0-1-0.4-1.5-1c-0.6-0.6-0.7-0.9-0.2-0.9C146.6,40.4,147.1,40.8,147.7,41.4 M81.6,117.2
		c-1.1-0.5-2.3-0.4-3.6,0.2c-1.9,1-3.4,2.3-4.6,3.8l-0.1,0.1c-0.2,1.6-0.7,2.9-1.3,3.8c-0.8,1.1-1.8,1.4-2.9,0.8
		c-1-0.5-1.9-1.4-2.8-2.5c0.5,1.6,0.8,3,0.9,4.2c0.1,1.8-0.4,3.1-1.6,4.1c-1.2,1.1-2.6,1.1-4.2,0.1c-1.6-1.2-2.8-2.9-3.6-5.4
		l-0.2-0.5l0.1,7.1l0.4,1.4c0.6,1.4,1.9,2.4,3.8,2.9c1.7,0.4,3.4,0.4,5.1,0.1c2.1-0.5,4-1.8,5.7-3.9c1.1-1.4,2.2-3.5,3.4-6.2
		l0.8-2.3c0.4-1,0.8-1.7,1.2-2l2.7-0.1c1.3,0.4,2.2,0.4,2.7,0c0.9-0.6,1.1-1.6,0.4-3C83.4,118.5,82.6,117.7,81.6,117.2 M76,96.8
		c-1.7,2-3.2,4.2-4.6,6.4c-1.2,2-2.4,4.1-3.4,6.1c2,1.3,3.5,3.5,4.6,6.6l0.6,2.4c2.3-2.6,4.6-3.8,6.8-3.6c1.1,0.1,2.2,0.8,3.1,2
		c0.7,0.9,1.3,2,1.8,3.3c0.4,1.1,0.5,2.2,0.4,3.2c-0.1,1.4-0.7,2.1-1.8,2.1l-2.2-0.4l-2.2,0.1c-0.4,0.3-0.8,0.7-1.1,1.4l-0.7,1.6
		c-1.7,4.1-3.4,7-5.2,8.9c5.2-0.9,10.2-3.9,15-9.1c3.8-4.1,7.1-9.1,10.1-15.1l-0.4-0.8c-0.1-0.3,0.2-0.5,0.8-0.7l1.2,0.1
		c3.3,8.1,8.2,15.7,14.8,22.9c3.6,1.6,7.1,2.5,10.6,2.7c-3.6-3.6-6.7-8.5-9.5-14.6c-1.8-4-3.8-9.4-6-16.4l-0.4-1.3l-2.2-1.4
		c-6.4-4.3-12.1-9-16.9-14.2l-2-2.3C83,89.5,79.3,92.8,76,96.8 M62.8,112.8c-0.6,1-1,2.2-1.2,3.6c0,0.3-0.1,0.3-0.3,0.1
		c-0.6-0.6-1.3-0.8-2.2-0.4c-0.8,0.3-1.3,0.9-1.5,1.7c-0.3,1.2-0.4,2.5-0.2,3.9c0.2,1.7,0.5,3.1,1,4.4c0.9,2.4,2.2,3.7,4,4
		c2.6,0.4,3.8-0.9,3.4-4c-0.1-1.3-0.8-3.6-1.9-6.8c-0.2-0.6-0.2-1-0.1-1.4c0.1-0.2,0.1-0.2,0.2,0l0.2,0.4c1,2,2.1,3.6,3.4,4.6
		c1.8,1.4,3.2,0.9,4.1-1.5c0.7-1.7,0.7-3.5,0-5.3c-0.4-0.9-0.9-1.7-1.5-2.4l-2.1-2.1c-1-0.8-1.9-1.2-2.7-1.1
		C64.5,110.7,63.5,111.4,62.8,112.8 M79.6,66.4c0.6-0.3,1-0.1,1.4,0.6c0.3,0.7,0.1,1.2-0.6,1.5l-0.2,0.1c0.7,2.3,1.8,4.6,3.1,7
		c2.5,4.6,5.7,8.9,9.6,12.9l0.5-0.4c0.8-0.3,1.6,0.2,2.2,1.2c0.6,0.9,0.6,1.5,0.1,1.9c4.6,4.3,9.9,8.2,15.9,11.8l2.6,1.5l0.5-1.5
		c1.1-3,2.7-6,4.7-9.2c1.8-2.7,4.1-5.9,7.1-9.5c2.9-3.4,5.1-7.8,6.6-13.1c1.7-5.8,1.9-10.8,0.8-14.9l0-0.2c-0.4-1.4-0.4-3.3-0.1-5.9
		c0.3-2.7,0.2-4.6-0.1-5.9l-0.3,1.1c0,0.4-0.3,0.9-0.8,1.5c-2.4,2.4-6.2,5-11.3,7.7c-3.2,1.6-6.9,2.9-11.1,3.7l-6.4-0.2l-6.4-1.4
		c-2.2-0.4-4.4,0.1-6.5,1.4l-5.8,3.3c-1.7,0.5-3.9,0.1-6.6-1.3C78.7,62.2,79,64.3,79.6,66.4L79.6,66.4 M87.3,63.6
		c-0.7,0.3-1.2,0.1-1.6-0.5c-0.4-0.6-0.2-1.1,0.6-1.4c0.7-0.3,1.2-0.1,1.6,0.5C88.3,62.8,88.1,63.3,87.3,63.6 M87.1,76.6
		c0.5,0.9,0.3,1.6-0.5,1.9c-0.7,0.3-1.3,0-1.8-0.9c-0.5-0.9-0.3-1.6,0.5-1.9C86.1,75.3,86.6,75.7,87.1,76.6 M132.8,51.8
		c-0.3-0.1-0.7-0.4-1.3-0.9c-0.6-0.6-0.7-0.8-0.3-0.7c0.3,0.1,0.7,0.4,1.3,1C133,51.7,133.1,51.9,132.8,51.8 M130.6,54.9
		c0.6,0.6,0.7,0.9,0.2,0.9c-0.4,0-1-0.4-1.6-1c-0.6-0.6-0.7-0.9-0.2-0.9C129.5,53.9,130,54.2,130.6,54.9 M131,67.5
		c-0.4-1-0.3-1.5,0.4-1.4c0.5,0.1,1,0.7,1.4,1.7c0.4,1,0.2,1.5-0.4,1.3C131.8,69.1,131.4,68.5,131,67.5 M95.2,63.8
		c0.5,0.6,0.4,1.1-0.4,1.4c-0.8,0.2-1.4,0-1.9-0.6c-0.5-0.7-0.4-1.1,0.5-1.4C94.1,62.9,94.7,63.1,95.2,63.8 M105.3,58.9
		c0.5,0.6,0.4,1-0.3,1.2c-0.6,0.2-1.2,0-1.8-0.7c-0.5-0.6-0.4-1.1,0.3-1.2C104.2,58,104.8,58.2,105.3,58.9 M123.8,53.9
		c0.6-0.1,1.2,0.2,1.9,0.8c0.7,0.6,0.7,1,0,1.1c-0.6,0.1-1.2-0.2-1.9-0.9C123,54.3,123,53.9,123.8,53.9 M113.5,66.6
		c0.8-0.1,1.6,0.2,2.4,1.1c0.8,0.9,0.7,1.4-0.2,1.6c-0.8,0.1-1.6-0.3-2.4-1.1C112.6,67.2,112.6,66.7,113.5,66.6 M111.7,62.7
		c-0.7,0.2-1.4-0.1-2-0.7c-0.6-0.6-0.5-1.1,0.3-1.3c0.7-0.2,1.4,0.1,2,0.8C112.7,62.1,112.6,62.5,111.7,62.7 M126.4,63.2
		c0.4,0.9,0.3,1.3-0.4,1.1c-0.6-0.1-1.1-0.6-1.6-1.5c-0.5-0.9-0.3-1.3,0.4-1.2C125.4,61.8,125.9,62.3,126.4,63.2 M127,77.4
		c-0.3-1.2-0.1-1.8,0.8-1.7c0.7,0.1,1.1,0.7,1.4,1.9c0.3,1.2,0.1,1.7-0.7,1.7C127.7,79.2,127.2,78.6,127,77.4 M119.6,75.3
		c0.8,1.1,0.8,1.7-0.1,1.9c-0.8,0.2-1.6-0.2-2.4-1.3c-0.8-1.1-0.8-1.8,0.1-2C118.1,73.8,118.9,74.2,119.6,75.3 M117.1,91.7
		c-0.7-1-0.6-1.7,0.4-2.1c0.8-0.3,1.5,0.1,2.1,1.1c0.6,1,0.5,1.6-0.4,2.1C118.6,93.1,117.9,92.7,117.1,91.7 M105.5,80.2
		c-0.8,0.3-1.6-0.1-2.3-1.3c-0.7-1.1-0.6-1.9,0.4-2.2c0.8-0.3,1.6,0.1,2.4,1.2C106.7,79.2,106.5,79.9,105.5,80.2 M106.6,70.2
		c-0.7,0.2-1.3-0.1-1.9-0.9c-0.6-0.8-0.5-1.3,0.2-1.6c0.7-0.2,1.3,0.1,2,0.9C107.6,69.5,107.5,70.1,106.6,70.2 M89.3,78.4
		c0.8-0.3,1.4,0,1.9,1c0.6,1,0.4,1.7-0.5,2c-0.8,0.3-1.4,0-1.9-1C88.3,79.4,88.4,78.8,89.3,78.4 M102.8,89.8
		c0.8-0.3,1.6,0.2,2.5,1.3c0.8,1.1,0.6,1.9-0.4,2.1c-0.9,0.3-1.7-0.2-2.4-1.3C101.7,90.8,101.8,90.1,102.8,89.8 M111.7,102.1
		c-0.8,0.2-1.5,0-2.2-0.5c-0.7-0.6-0.5-1,0.5-1.2c0.8-0.2,1.6,0,2.2,0.6C112.8,101.4,112.6,101.8,111.7,102.1 M86.5,36.6l-0.2,0.3
		c-1.1,1.3-2.3,2.2-3.6,2.6c-1.9,4.7-2.9,9.2-3.1,13.6c0,1.5,0,2.9,0.1,4.3c3,1.8,5.4,2.2,7.4,1.3c0.8-0.3,1.8-1.1,3.1-2.2
		c1.3-1.1,2.4-1.9,3.2-2.2l1.9-3.8l1.3-4.2c0.1-0.6,0.3-0.9,0.7-0.9h0.1l0.4,0.3l0.1,0.7L97.6,48l-1.7,5.9l10,1.7
		c2.1,0.4,4.2,0.4,6.5,0c1.8-0.3,3.9-0.9,6.4-1.8c1.6-0.6,3.6-1.5,5.9-2.8l-0.1-0.1c-0.3-0.1-0.4-0.3-0.4-0.6
		c0.1-0.3,0.2-0.4,0.5-0.5l0.3,0.1l0.8,0.4l1.6-1l-1.2-0.9l-2.1-0.9c-0.4-0.2-0.6-0.5-0.6-0.8c0.1-0.3,0.2-0.5,0.5-0.5h0.2
		c0.9,0.2,1.8,0.6,2.6,1.3l1.4,1.3l1.2-0.9l-3-2.7c-0.5-0.4-1.5-0.9-2.8-1.4c-0.5-0.2-0.8-0.5-0.8-0.9c-0.1-0.4,0-0.6,0.4-0.6l0.2,0
		c1,0.2,2.3,0.8,3.7,1.8c1.1,0.8,2.2,1.9,3.2,3.1l0.7-0.5c-1.4-1.9-2.9-3.3-4.5-4.4l-4.4-2.8c-0.3-0.1-0.4-0.3-0.4-0.6
		s0.2-0.4,0.5-0.5h0.4c0.7,0.2,2.2,1.1,4.5,2.9c1.6,1.4,3,3,4.3,4.8l0.3-0.6c-0.8-2.5-2.4-4.5-4.8-6.2c-1.3-0.9-3-1.7-5.2-2.6
		l-0.2-0.1c-0.3-0.2-0.4-0.4-0.3-0.8l0.4-0.5c2.4-1.9,3.1-3.8,2.1-5.8c-0.9-1.8-2.3-2.6-4.1-2.4l-0.4,0.1c-1.9,0.6-3.3,1.1-4.2,1.7
		c-1.1,0.6-1.9,0.9-2.5,1c-0.9,0.2-1.7-0.1-2.4-0.7c-2.2-1.8-4.5-2.6-6.8-2.2c-0.8,0.1-1.6,0.4-2.3,0.9c-1.6,1.3-3,2-4,2.1l-1.9-0.1
		c-1.4-0.6-2.6-0.8-3.6-0.7l-0.9,0.4c-0.5,0.4-1.3,1.6-2.5,3.8L86.5,36.6 M83.8,42.2l0.3-0.5l3.3-2.9l0.5-0.2
		c0.4-0.1,0.7,0.1,0.8,0.6l0.3,1c0.1,0.3,0.1,0.6-0.1,0.9c-0.1,0.3-0.4,0.4-0.7,0.5l-3.9,0.8h-0.1L83.8,42.2 M85.7,48.1
		c0.3-0.7,0.6-1.1,1.1-1.2h0.1c0.5-0.1,1,0.2,1.4,0.8c0.4,0.6,0.7,1.4,0.8,2.2c0.1,0.9,0.1,1.8-0.2,2.4c-0.3,0.7-0.7,1.1-1.2,1.2
		c-0.5,0.1-1-0.2-1.4-0.8c-0.4-0.6-0.7-1.4-0.8-2.4C85.4,49.5,85.4,48.7,85.7,48.1 M110.1,36.6c1.5,1.2,2.2,2.2,2.1,3h-0.1l-1.5-0.4
		l-2.2-0.8l-3-0.8c-0.1-0.1,0-0.5,0.1-1l0.7-1.4c0.1-0.3,0.3-0.5,0.7-0.6l0.5,0.1L110.1,36.6 M106.9,49.4c-0.4-0.6-0.7-1.4-0.9-2.3
		c-0.1-0.9,0-1.7,0.2-2.4c0.3-0.7,0.7-1.1,1.2-1.1c0.5,0,1,0.2,1.4,0.9c0.4,0.6,0.7,1.4,0.8,2.2c0.1,0.9,0.1,1.7-0.2,2.4
		c-0.3,0.7-0.7,1.1-1.2,1.1S107.3,49.9,106.9,49.4 M77.4,38.4c-0.5,0.1-0.8,0.5-0.9,1.3c-0.1,0.8,0,1.7,0.3,2.7
		c0.2,0.8,0.9,1.8,2,3.2c0.5-1.9,1.1-3.9,1.9-6c-0.8-0.1-1.6-0.4-2.5-0.9C78,38.5,77.7,38.4,77.4,38.4 M105.9,12.1
		c-1.6-0.7-2.9-1-3.8-0.9l-0.3,0.1c-0.8,0.2-1.8,1.8-3,4.8l-1.4,2.6c-0.3,0.4-0.7,0.7-1.2,0.8l-4.4-0.2l-1.1,0.3
		c-1.2,0.5-2.9,2.7-5.3,6.5c-1,1.6-2.3,2.5-3.9,2.8C80.1,29,79,28.8,78,28.2c-0.9-0.5-1.4-1.4-1.5-2.6c-0.7,0.9-1.2,2-1.4,3.2
		c-0.3,1.5-0.1,3.1,0.6,4.9c0.5,1.1,1.1,2.1,1.8,2.9c0.5,0.5,1,0.9,1.5,1.3c0.7,0.5,1.5,0.7,2.4,0.5c1.1-0.2,2.2-0.8,3.3-1.8
		l0.5-0.5l1.9-3.4c1.2-2.2,2.1-3.5,2.7-3.9c0.8-0.6,1.5-1,2.2-1.1l2.8,0.5l1.5,0.5l0.6,0.1c0.4-0.1,0.8-0.3,1.4-0.8l4.8-4.2l0.8-0.3
		c1.2-0.2,2.9,0.6,5.1,2.4l3.8,2.8l0.3-0.1c0.5-0.1,1.5-0.6,2.9-1.4c1.5-1,2.6-1.6,3.2-1.8l1.1-0.2c1.7-0.3,3.2,0.2,4.4,1.2
		c0.9,0.8,1.5,1.8,1.9,3.1c0.3,0.9,0,2.1-0.8,3.5c-0.6,1.1-1.4,2.1-2.3,3l1.2,0.7c1.5,0.8,2.6,1.4,3.1,1.9c2,1.5,3.6,3.3,4.6,5.4
		c0.2-0.7,0.5-1.3,0.8-1.8l0.2-5.6c-0.2-3.9-1-7-2.5-9.4c-1-1.5-2.1-2.9-3.4-4.2c-1.7-1.8-3.3-2.9-4.6-3.2l-3.5-3.2
		c-1.9-1.8-3.9-2.7-5.9-2.6l-4.6-0.4L105.9,12.1 M175.4,132.6c0.6-1.3,0.3-2.9-0.9-4.6l-3.4-5.1l-0.8-0.2c-4.1,3.9-9.2,7.2-15.3,9.8
		c-5.3,2.2-11.1,3.9-17.5,4.9l-0.8,0.2l-0.8-0.1c-7.5-10.6-12.8-22-15.9-34.3l-1.2-5.3c-1,1.8-1.9,3.5-2.5,5.3
		c-0.3,0.9-0.6,1.9-0.9,2.8l-0.7,1.2c-0.5,0.5-0.9,0.7-1.2,0.5l-2.9-1.7c1.9,6.6,4,12.2,6.2,16.8c2.9,5.9,6.1,10.6,9.8,14.1
		c0.3,0.3-0.1,0.6-1.2,0.9h-1.4c-2.8,0-5.6-0.5-8.4-1.4l4.8,4.7l0.5,0.3v0.1c1.5,1.4,2.8,2.3,4.1,2.9c4.4,2,9.4,3,15.2,3
		c5.1,0,10.2-0.8,15.3-2.4c7.2-2.2,12.7-5,16.5-8.6C173.9,134.6,175.1,133.3,175.4,132.6 M180.2,137.4l-2.5-5.5
		c-4.2,5.7-10.4,10.1-18.8,13.2c-8,2.9-16,4-24,3.2l0.4,1.5c0.1,0.5,0,0.8-0.2,0.9c-4.9,2.4-9.2,5.2-12.8,8.7
		c-3.4,3.2-5.4,6.2-6.1,9.1c-0.3,1.5-0.2,3.2,0.4,4.9c0.4,1.2,1.2,2.7,2.3,4.4c4.3,6.8,11,13.9,20,21.4l0.2,0.2l1.7-0.1
		c3.3-0.2,6.2-0.6,8.8-1.4c4.6-1.3,9.2-4.4,13.9-9.1l-2-2.5c-2.5-3.2-4.7-5.9-6.7-8l-3-3.1c-0.9-0.7-1.5-1.1-1.9-1.1l-7.1,0.8
		c-0.4,0-0.8-0.5-1-1.6c-0.3-1.1-0.2-1.7,0.1-1.8l2.4-0.4c4.8-1,9.3-2.2,13.5-3.7c6.7-2.2,11.9-4.8,15.7-7.6c2.8-2.2,5-4.8,6.4-7.7
		c1.5-3.1,2-6.4,1.6-9.8C181.5,141.2,181,139.5,180.2,137.4 M175.5,101.7c-1.4,0.2-3,1.1-4.6,2.6c-1,0.9-2.2,2.3-3.5,4.1
		c-1.2,1.6-1.6,2.9-1.3,3.9c0.1,0.4,0.3,0.8,0.7,1.2l1.1,1.1c0.5,0.4,1,0.5,1.4,0.3c1.2-0.5,2.6-1.7,4.1-3.7l0.9-1.4
		c0.5-0.7,0.9-1,1.3-1c1,0,2.2,0.3,3.4,0.9c0.3,0.1,0.5,0.6,0.6,1.3c0.1,0.8,0,1.1-0.1,1c-2.1-1.1-3.4-1.3-3.9-0.7l-4,4.8
		c-1.1,1-2,1.4-2.7,1.1c-1-0.3-1.9-1.1-2.8-2.5c-1.5,0.8-2.8,1-4,0.5c-1.1-0.5-1.9-1.4-2.4-2.7c-1,0.1-1.9,0.3-2.6,0.6
		c-0.7,0.3-1.5,0.9-2.4,1.8c-1.1,1.1-1.5,2-1.4,2.8c0.1,0.7,0.6,1.2,1.4,1.4l4.5-0.2c2-0.7,3.4-1,4.3-0.8c0.2,0,2.4,0.8,6.5,2.4
		c2.6,1,4.9,1.1,6.7,0.4c2.6-1,4.7-2.8,6.2-5.5l0.1-0.1c0.6-1.1,1-2.1,1.2-3c0.4-1.5,0.5-2.7,0.3-3.8c-0.3-1.6-1.2-3-2.7-4.1
		c-1.3-0.9-2.3-1.6-3-1.9C177.7,101.8,176.5,101.5,175.5,101.7 M170.9,101.6l0.4-0.4c-0.9-0.9-2.5-0.7-4.7,0.6c-1.6,0.9-3,2-4,3.1
		c-1.1,1.3-1.9,2.5-2.4,3.5l-0.1,0.3c-0.2,0.6-0.4,1.1-0.4,1.6v0.4l0.2,0.9c0.2,0.4,0.6,0.8,1.2,1.1l3.9-0.2v-0.1
		c-0.6-1.9-0.2-4,1.2-6.1C167.2,105.2,168.7,103.6,170.9,101.6 M198.5,92.6c-0.2-1.3-0.5-2.6-1.1-3.8c-3.7-7.7-12.3-13.8-25.8-18.2
		c-7.3-2.4-14.7-3.9-22.4-4.8l-12.9-0.6c-0.4,2.3-1.1,4.9-2.1,7.6c1.5,3.1,1.8,6.4,0.8,9.9c-0.9,3.4-2.8,6.5-5.7,9.2
		c-1.4,1.4-3.5,2.8-6.2,4.2l-1.7,0.6c-0.4,0.2-0.5,0.6-0.3,1.3l1.1,4.9c0.8,3.1,1.5,5.9,2.4,8.2c1.9,5.8,4.8,11.9,8.8,18.4l3.7,5.8
		l0.4,0.8l0,0.2l1-0.2c13.5-2.5,23.7-7.2,30.6-14l0.3-0.2l-3-1.1c-1.1-0.4-2.1-0.6-3-0.4l-6.1,1.3c-1.1,0-2-0.4-2.8-1.1
		c-0.7-0.7-1.1-1.7-1.4-3c-0.2-0.7-0.2-1.3-0.1-1.9c0.1-1.6,0.8-2.9,2-3.9c1.1-0.9,2.6-1.5,4.3-1.7l-0.1-1.1
		c-3.9,1.3-6.4,1.1-7.6-0.7c-0.9-1.3-1.2-2.6-1.1-4.1c0.1-1.4,0.6-2.8,1.5-4.1c1-1.4,2-2.6,3.2-3.8c1.6-1.5,3-2.5,4.4-2.8l-1.6-4
		c-0.3-1.1-0.2-1.6,0.1-1.6c5,1.1,8.9,2.2,11.6,3.3c0.1,0,0.6,0.2,1.5,0.6l1.4,0.8l1.6-3.9c0.8-1.4,1.7-2.3,2.6-2.8
		c0.2-0.1,0.5,0.3,0.7,1c0.2,0.7,0.2,1.2-0.1,1.4c-0.9,0.6-1.7,1.6-2.4,3l-1.7,3.6l0,0.1c-0.9,2.3-1.4,4-1.4,5.1l0.2,0.4
		c1.8-1.1,3.8-1.3,6-0.7c2,0.6,3.8,1.9,5.4,3.8c1.1,1.3,1.8,2.9,2.1,4.7c0.4,1.6,0.4,3.2,0,5C194.8,105.7,199.1,98.8,198.5,92.6z"/>
</g>
</svg>
