<?xml version="1.0" encoding="utf-8"?>
<!-- Generator: Adobe Illustrator 25.4.1, SVG Export Plug-In . SVG Version: 6.00 Build 0)  -->
<svg version="1.1" id="Sneak_x2C_PerkClip_x5F_4c935" image-rendering="auto"
	 xmlns="http://www.w3.org/2000/svg" xmlns:xlink="http://www.w3.org/1999/xlink" x="0px" y="0px" viewBox="0 0 240 240"
	 style="enable-background:new 0 0 240 240;" xml:space="preserve">
<style type="text/css">
	.st0{fill:#FFFFFF;}
</style>
<g>
	<rect width="240" height="240"/>
	<path class="st0" d="M138.6,227.5c2.9-0.1,4.9-1.3,6-3.6l-2-0.1c-4.7-0.6-9.8-2.3-15.2-5.3l-2.2-1.2l-13.9,3
		c-2.4,0.7-4.3,1.4-5.9,2.2l-0.9,0.5l0.4,0.2c1.7,1.1,3.8,1.9,6.2,2.4c6.9,1.5,14.6,1.1,23.2-1.4l0.4,0.5l1.2,2.5L138.6,227.5
		 M55.9,126.5c-1,0.5-1.7,1.2-2.2,2.3c-0.5,0.9-0.8,2-0.8,3.2c0,1.4,0.1,2.7,0.5,3.9c0.4,1.5,1.1,2.5,2.1,3.1
		c1.6,0.8,2.7,0.4,3.3-1.3c0.4-1.1,0.6-2.6,0.6-4.5l-0.6-4.7C58.2,126.5,57.3,125.8,55.9,126.5 M85.4,122.8c-0.5-0.6-1.1-1-1.6-1.2
		c-1.2-0.5-2.4-0.4-3.6,0.3c-1.8,0.9-3.3,2.2-4.6,3.9l-0.1,0.1c-0.1,1.6-0.5,2.8-1,3.6c-0.7,1.1-1.6,1.5-2.8,1.1
		c-1-0.3-2.1-1.2-3.2-2.4c0.5,1.5,0.8,2.9,0.9,4.1c0.1,1.8-0.4,3.2-1.4,4.2c-1.2,1.1-2.6,1.1-4.2,0.1c-1.7-1.1-3-3-3.9-5.8l0.2,7
		l0.4,1.5c0.6,1.4,2,2.3,4,2.8c1.7,0.4,3.4,0.4,5-0.1c2.1-0.6,4-1.9,5.6-4c1.1-1.5,2.2-3.6,3.3-6.2l0.8-2.3c0.4-1,0.8-1.7,1.2-2.1
		l5.4-0.2c0.8-0.5,1-1.3,0.6-2.4C86.3,124,85.9,123.4,85.4,122.8 M167.6,102.2l-1.4-2.1c-1-1.4-2.3-1.9-3.8-1.6
		c-1.2,0.2-2.5,0.9-3.9,2.1c-1.5,1.3-2.8,2.8-4,4.4c-1.8,2.6-1.9,4.2-0.4,4.9c1.6,0.7,4.1,0.4,7.3-0.9c0.2-0.7,0.5-1.3,0.8-1.8
		C163.8,105.2,165.6,103.5,167.6,102.2 M128.2,88.9l-6.8,9.7c4.2-2,7.6-4.9,10.1-8.7c2.7-4,3.6-7.9,2.8-11.8l-0.2,0.5
		C133,81.6,131,85,128.2,88.9 M138.4,47.3c-0.8-0.7-1.8-0.8-3-0.3c0.3,2.1,0.4,4,0.1,5.6l-0.6,2.4c-0.2,1.1,0,1.6,0.6,1.4l2.1-0.9
		l-1.1-0.8c-0.6-0.6-0.7-0.9-0.2-0.9c0.4,0,0.9,0.3,1.5,0.9l0.4,0.4c1.2-1,1.9-2.2,2.1-3.6C140.4,49.9,139.8,48.5,138.4,47.3
		 M139,49.1c0.6,0.5,0.7,0.8,0.3,0.7c-0.3-0.1-0.7-0.4-1.3-0.9c-0.6-0.6-0.7-0.8-0.3-0.7C138.1,48.2,138.5,48.5,139,49.1
		 M141.1,51.4c0,1.7-0.4,3.1-1.3,4.4l2.4,2.6l0.7,0.6c-0.2-0.4,0-0.6,0.5-0.6c0.6-0.1,1.2,0.3,1.9,1c0.7,0.8,0.7,1.2,0,1.2
		c1.5,0.7,3.1,1,4.9,1C148,55.1,145,51.7,141.1,51.4 M145.3,55.2c-0.3-0.1-0.7-0.4-1.3-0.9c-0.6-0.6-0.7-0.8-0.3-0.7l1.3,0.9
		C145.5,55.1,145.6,55.3,145.3,55.2 M149.8,41.4l-0.1-0.8l-9,2.4c-1.6,0.4-2.9,0.8-3.8,1.3c0.9,0.1,1.8,0.6,2.6,1.6
		c0.7,0.9,1.2,2,1.5,3.2L141,49c1.1-0.7,3.1-1.6,5.9-2.8l1.5-1l-1.2-0.9c-0.6-0.6-0.7-0.9-0.1-0.9c0.4,0.1,0.9,0.4,1.5,1l0.3,0.4
		C149.6,43.9,149.9,42.7,149.8,41.4 M68.9,115.5c-1.5-0.5-2.7,0-3.6,1.4c-0.7,1.1-1.2,2.4-1.4,4.1c0,0.5-0.1,0.6-0.4,0.3
		c-0.6-0.6-1.3-0.8-2.1-0.4c-0.8,0.4-1.3,0.9-1.5,1.8c-0.3,1.2-0.3,2.7,0,4.3c0.9,4.9,2.6,7.5,5.1,7.9c2.7,0.4,3.8-0.9,3.4-4.1
		c-0.2-1.2-0.9-3.5-2.1-6.8c-0.2-0.5-0.2-1-0.1-1.3c0.1-0.2,0.2-0.2,0.4,0.1l0.1,0.2c0.9,1.9,2,3.4,3.2,4.4c1.7,1.5,3.1,1.2,4.1-0.9
		c1-1.9,0.9-4.1-0.2-6.4C72.7,117.7,71.1,116.2,68.9,115.5 M70,113.9c1.4,0.9,2.6,2.2,3.6,3.8c1,1.6,1.6,3.1,1.9,4.7l0.1,0.3
		c2.3-2.7,4.5-3.9,6.7-3.8c2,0.1,3.6,1.9,5,5.2l0.1,0.3c0.4,1.1,0.5,2.1,0.4,3c-0.1,1.2-0.7,1.9-1.8,2l-2.3-0.4l-2.1,0.1
		c-0.4,0.3-0.8,0.8-1.1,1.4l-0.7,1.6c-1.6,4.1-3.3,7.1-5,8.9c5.2-1,10.1-4,14.7-9.2c3.7-4.1,6.9-9.1,9.7-15.1l-0.4-1.1
		c-0.1-0.3,0.2-0.5,0.8-0.7l1.1,0.1c3.1,7.5,7.5,14.4,13.2,20.7h0.2c3.6,1.7,7.2,2.6,10.9,2.9c-3.5-3.6-6.7-8.5-9.5-14.6
		c-1.8-4-3.8-9.4-6-16.4l-0.2-0.8l-3.2-2.1c-5.9-3.9-11.1-8.2-15.8-13l-1.5-1.6c-4.1,3.1-7.8,6.7-11,10.7L75,105
		C73,107.9,71.4,110.9,70,113.9 M86.1,64.6c-1.6,0.5-3.8,0.1-6.6-1.2c0.1,2,0.4,4.1,0.9,6.2c0.5-0.3,0.9-0.1,1.2,0.6
		c0.3,0.7,0.2,1.2-0.6,1.5l-0.1,0c0.8,2.3,1.9,4.7,3.2,7.2c2.5,4.5,5.7,8.6,9.6,12.5l0.2-0.1c0.8-0.3,1.5,0.2,2.2,1.2
		c0.4,0.7,0.6,1.2,0.4,1.6c4,3.6,8.3,6.9,13.2,9.9c0-0.2,0.3-0.4,0.8-0.6c0.8-0.2,1.6,0,2.2,0.6c0.5,0.5,0.5,0.8,0,1.1l-0.9,0.2
		l3.8,2.1l0.8-2.4c1-2.7,2.5-5.5,4.2-8.4c1.7-2.7,4.1-5.9,7-9.6c2.8-3.5,5-7.9,6.5-13.3c1.6-5.8,1.8-10.8,0.5-14.9l0-0.2
		c-0.4-1.4-0.5-3.3-0.2-5.9c0.2-2.7,0.2-4.6-0.1-5.9l-0.2,1.1c0,0.5-0.3,1-0.8,1.5c-2.4,2.5-6.1,5.1-11.2,7.8c-3.3,1.8-7,3.1-11,3.9
		c-1.8,0.4-3.9,0.3-6.5-0.2l-6.4-1.3c-2.2-0.4-4.4,0.1-6.5,1.6C88.8,63.2,86.9,64.3,86.1,64.6 M86.4,66.2c-0.4-0.6-0.2-1,0.6-1.3
		c0.7-0.3,1.2-0.1,1.6,0.5c0.4,0.6,0.3,1.1-0.5,1.4C87.4,67,86.9,66.8,86.4,66.2 M86.1,78.8c0.7-0.3,1.3,0,1.8,0.9
		c0.5,0.9,0.3,1.6-0.5,2c-0.7,0.3-1.3,0-1.8-1C85.1,79.7,85.3,79.1,86.1,78.8 M131.9,53.2c0.3,0.1,0.7,0.4,1.3,0.9
		c0.6,0.5,0.7,0.8,0.3,0.7c-0.3-0.1-0.7-0.4-1.3-0.9C131.6,53.4,131.5,53.2,131.9,53.2 M130,57.9c-0.6-0.6-0.7-0.9-0.1-0.9
		c0.4,0,0.9,0.3,1.5,0.9c0.6,0.6,0.7,0.9,0.2,0.9C131.2,58.8,130.7,58.4,130,57.9 M93.6,67.6c-0.5-0.7-0.3-1.1,0.5-1.4
		c0.7-0.2,1.4,0,1.9,0.6c0.5,0.6,0.4,1.1-0.5,1.4C94.8,68.5,94.2,68.3,93.6,67.6 M106,61.9c0.5,0.6,0.4,1-0.3,1.2
		c-0.6,0.2-1.2-0.1-1.8-0.6c-0.5-0.6-0.4-1.1,0.3-1.2C104.9,61.1,105.5,61.3,106,61.9 M112.8,64.6c0.6,0.7,0.5,1.1-0.3,1.2
		c-0.7,0.2-1.4-0.1-2-0.7c-0.6-0.6-0.6-1.1,0.2-1.3C111.4,63.6,112.1,63.9,112.8,64.6 M126.8,67.5c-0.6-0.1-1.1-0.6-1.6-1.6
		c-0.5-0.9-0.4-1.3,0.3-1.2c0.6,0.1,1.1,0.7,1.6,1.6C127.6,67.2,127.5,67.6,126.8,67.5 M124.5,56.9c0.6-0.1,1.2,0.2,2,0.9
		c0.7,0.6,0.6,1-0.1,1.1c-0.6,0.1-1.3-0.2-1.9-0.9C123.8,57.4,123.8,57,124.5,56.9 M116.5,72.3c-0.8,0.1-1.6-0.2-2.4-1.1
		s-0.8-1.4,0.1-1.5c0.8-0.1,1.6,0.2,2.4,1.1C117.5,71.7,117.4,72.2,116.5,72.3 M118,77c0.8-0.2,1.6,0.3,2.5,1.4
		c0.8,1.1,0.7,1.7-0.2,1.9c-0.8,0.2-1.6-0.3-2.4-1.4C117,77.8,117.1,77.2,118,77 M105.7,70.9c0.7-0.2,1.3,0.1,2,0.9
		c0.7,0.8,0.6,1.4-0.3,1.6c-0.7,0.2-1.3-0.2-1.9-1S104.9,71.1,105.7,70.9 M92.1,82.4c0.5,1,0.4,1.7-0.6,2.1c-0.7,0.3-1.4,0-1.9-1
		s-0.4-1.7,0.5-2.1C90.8,81.2,91.5,81.5,92.1,82.4 M106.3,83.4c-0.8,0.3-1.6-0.1-2.3-1.3c-0.7-1.1-0.6-1.9,0.4-2.2
		c0.8-0.3,1.6,0.1,2.4,1.2C107.4,82.3,107.3,83,106.3,83.4 M106,94.1c0.8,1.1,0.6,1.9-0.4,2.2c-0.8,0.3-1.6-0.2-2.4-1.3
		c-0.8-1.1-0.7-1.8,0.3-2.1C104.4,92.6,105.2,93,106,94.1 M120.4,93.8c0.6,0.9,0.5,1.6-0.3,2c-0.8,0.4-1.5,0-2.1-1
		c-0.7-1-0.6-1.7,0.3-2.1C119.1,92.5,119.8,92.8,120.4,93.8 M133.5,70.9c0.4,1,0.2,1.5-0.4,1.4c-0.6-0.1-1-0.6-1.4-1.6
		c-0.4-1-0.3-1.5,0.4-1.4C132.7,69.3,133.1,69.9,133.5,70.9 M128.5,78.8c0.7,0.1,1.1,0.7,1.4,1.8c0.3,1.1,0,1.7-0.7,1.7
		c-0.7,0-1.1-0.6-1.5-1.9C127.4,79.2,127.7,78.7,128.5,78.8 M78.9,41.9c-0.3-0.2-0.6-0.3-0.8-0.3c-0.5,0.1-0.8,0.6-0.9,1.4
		s0,1.7,0.4,2.7c0.3,0.7,0.9,1.8,2.1,3.1c0.6-2.1,1.2-4.1,1.8-5.9C80.6,42.8,79.7,42.5,78.9,41.9 M86.9,39.9
		c-1.1,1.3-2.2,2.2-3.5,2.7c-1.8,4.6-2.8,9.2-2.9,13.6c-0.1,1.5,0,3,0.2,4.4c3.1,1.7,5.5,2.1,7.4,1.2l3.1-2.2
		c1.3-1.1,2.3-1.9,3.1-2.2l1.9-3.8l1.2-4.2c0.2-0.6,0.4-0.9,0.7-0.9h0l0.4,0.3l0.1,0.7l-1.8,7.6l10,1.5c2.1,0.4,4.2,0.3,6.5-0.1
		c1.7-0.3,3.8-1,6.3-1.9c1.7-0.6,3.7-1.6,5.8-2.8l-0.1-0.1c-0.3-0.1-0.4-0.3-0.3-0.6c0-0.3,0.2-0.4,0.4-0.5h0.3l0.8,0.4l1.6-1.1
		l-1.2-0.9l-2.1-0.9c-0.4-0.2-0.6-0.5-0.5-0.8c0-0.3,0.2-0.5,0.4-0.6h0.2c1.1,0.3,2,0.7,2.7,1.3l1.4,1.3l1.2-0.9
		c-1.3-1.3-2.4-2.1-3.1-2.6c-0.5-0.4-1.4-0.9-2.8-1.4c-0.5-0.2-0.8-0.5-0.8-0.8c-0.1-0.4,0.1-0.6,0.4-0.7h0.2c1,0.2,2.3,0.8,3.7,1.9
		l3.3,3l0.7-0.5c-1.7-2-3.2-3.5-4.6-4.4c-0.9-0.7-1.8-1.3-2.9-1.9l-1.5-0.8c-0.3-0.1-0.4-0.3-0.4-0.6c0-0.3,0.2-0.4,0.5-0.5h0.4
		c0.8,0.2,2.3,1.1,4.6,2.8c1.6,1.4,3,3,4.4,4.8l0.3-0.6c-0.8-2.5-2.4-4.5-4.9-6.1c-1-0.7-2.8-1.5-5.2-2.5c-0.5-0.2-0.6-0.4-0.5-0.8
		c0.1-0.3,0.2-0.5,0.4-0.5l0.6-0.5c1.9-1.8,2.4-3.6,1.4-5.3c-0.9-1.8-2.3-2.6-4.1-2.3l-0.4,0.1c-1.9,0.6-3.3,1.1-4.1,1.7
		c-1,0.6-1.8,0.9-2.5,1.1c-0.9,0.2-1.8,0-2.5-0.6c-2.3-1.9-4.5-2.6-6.7-2.2c-0.9,0.2-1.7,0.5-2.3,1c-1.5,1.2-2.9,1.9-4,2.1l-1.9-0.1
		c-1.5-0.6-2.7-0.8-3.6-0.6c-0.3,0-0.6,0.2-0.9,0.4c-0.5,0.4-1.3,1.6-2.4,3.8L86.9,39.9 M87.1,55.9c-0.4-0.6-0.7-1.4-0.9-2.3
		s-0.1-1.7,0.2-2.4c0.2-0.7,0.6-1.1,1.1-1.1s1,0.2,1.4,0.8c0.5,0.6,0.8,1.3,0.9,2.2c0.1,0.9,0.1,1.7-0.2,2.4
		c-0.3,0.7-0.6,1.1-1.1,1.2h-0.1C88,56.7,87.6,56.4,87.1,55.9 M84.4,45.4l0.3-0.5l3.3-3l0.5-0.2c0.4-0.1,0.6,0.1,0.8,0.6l0.3,0.9
		c0.1,0.3,0.1,0.6-0.1,0.9c-0.1,0.3-0.4,0.5-0.7,0.6l-3.9,0.8l-0.1,0.1L84.4,45.4 M112.8,42.3L112.8,42.3l-5.8-1.7l-1-0.2
		c-0.1-0.2-0.1-0.6,0.2-1.3l0.5-1.1c0.1-0.3,0.2-0.5,0.5-0.6l0.2-0.1l0.5,0.1l2.5,1.7C112.1,40.4,112.9,41.5,112.8,42.3 M106.8,49.9
		c-0.1-0.9-0.1-1.7,0.2-2.4c0.3-0.7,0.6-1.1,1.1-1.1h0c0.5-0.1,0.9,0.2,1.4,0.8c0.4,0.6,0.7,1.4,0.9,2.2c0.1,0.9,0.1,1.7-0.2,2.4
		c-0.3,0.7-0.6,1.1-1.1,1.2H109c-0.5,0.1-1-0.2-1.4-0.8C107.2,51.6,106.9,50.8,106.8,49.9 M109.3,16.4c-0.5-0.1-1.1-0.3-1.6-0.6
		l-1.5-0.8c-1.5-0.7-2.8-1-3.8-0.8l-0.3,0.1c-0.8,0.3-1.8,1.9-3,4.9l-1.4,2.7l-1.2,0.8L92,22.3l-1.1,0.3c-1.2,0.6-2.9,2.8-5.2,6.6
		c-0.9,1.5-2.2,2.5-3.9,2.8c-1.2,0.2-2.3,0-3.3-0.6c-0.9-0.5-1.4-1.4-1.6-2.6c-0.7,1.1-1.1,2.2-1.3,3.2c-0.3,1.5,0,3.1,0.7,4.9
		l0.2,0.5c0.7,1.6,1.7,2.8,3,3.6c0.8,0.5,1.6,0.7,2.4,0.6c1.4-0.3,2.6-1.1,3.7-2.5l1.9-3.3c1.2-2.2,2.1-3.5,2.7-3.9
		c0.8-0.7,1.5-1.1,2.2-1.2l1.3,0.1l3,0.8h0.6c0.4-0.1,0.8-0.3,1.4-0.8l4.9-4.2l0.8-0.3c1.2-0.2,2.9,0.6,5.1,2.3
		c2.4,1.8,3.7,2.8,3.9,2.8l0.3-0.1c0.5-0.1,1.5-0.6,2.9-1.5c1.5-1,2.6-1.6,3.2-1.8l1.1-0.3c1.7-0.3,3.2,0.1,4.4,1.2
		c0.9,0.8,1.5,1.8,1.9,3.1c0.3,0.9,0.1,2.1-0.8,3.5l-1.3,2l-1,1.1l4.5,2.5c2,1.3,3.5,3.1,4.6,5.4c0.2-0.7,0.5-1.3,0.8-1.8
		c0.2-2.6,0.2-5,0.1-7.2c-0.4-3.1-1.2-5.7-2.6-7.8c-1-1.5-2.2-2.9-3.4-4.2c-1.7-1.8-3.3-2.8-4.7-3.1l-3.5-3.1
		c-2-1.8-3.9-2.7-5.9-2.6L109.3,16.4 M179,187.4l-0.2,0.5c-1.1,3.5-3.6,6.9-7.4,10.2c-4.7,4.1-10.2,7.1-16.6,8.9
		c-0.2,0-0.3-0.1-0.4-0.2c-0.8,3.6-1.8,6.9-3,9.9l-0.6,1.5c1.6,0.8,4.1,0.5,7.4-1.1c3-1.4,6.1-3.5,9.5-6.1c2.7-2.1,4.7-5.1,5.9-9
		c0.8-2.4,1.4-4.7,1.7-6.9l0.2-0.2l3.6,0.6l1.5-3.5c0.3-1.1,0.5-2,0.4-2.8C180.9,188.3,180.2,187.7,179,187.4 M177.3,185.6
		c-0.1-0.4,0-0.6,0.1-0.6h0.1l0.2-1l-0.9-0.8c-1-0.9-1.9-1.5-2.6-2c-2.7-1.8-5.5-3.5-8.6-5.1l-0.2-0.2l-7.5,5.2l0,0
		c-0.3,2.2-0.7,5-1.1,8.5l-1.7,13.6c5.6-1.8,10.3-4.3,14.2-7.6c3.6-3,6.2-6,7.6-9.1L177.3,185.6 M181.9,140.8
		c-0.8-2.4-1.8-4.2-2.8-5.4l-0.7-1.2c-4,5.4-9.9,9.5-17.6,12.5c-7.3,2.8-14.8,4.1-22.4,3.7c-4.4-0.2-8.3-1-11.9-2.3
		c-2.3-0.8-4.7-2.3-7.1-4.4c-1.3,3.2-2.3,8.2-3.1,14.9c-0.6,4.6-0.4,9,0.6,13.1c1.1,4.9,3.1,8.8,6,11.8l0.1,0.1l2.4-11
		c0.7-2.5,2-5.4,4-8.6c1.8-2.8,3.6-5.3,5.5-7.5l1.5-1.8c0.7-0.8,1.3-1.3,1.9-1.5h0c0.4,0,0.7,0.5,1,1.6c0.3,1.1,0.3,1.7-0.1,1.9
		c-0.3,0.1-0.7,0.4-1.1,0.8l-1,1.1c-5.1,5.6-8.4,10.8-10,15.7c-0.6,2-1.2,4.4-1.8,7.2l-1.4,7.4c-1.3,7.6-2.1,13.3-2.4,17.1
		c-0.2,2.7-0.2,4.4-0.1,5.2l0.5,0.5c0.6,0.6,1.4,1.2,2.3,1.8c4.8,3.1,9.9,5.2,15.2,6.4l6,0.2c1.2-0.5,2.3-1.7,3.4-3.7l0.1-0.2
		l0.5-0.9c2.3-4.7,3.9-10.7,4.9-18c0.9-8.3,1.6-14.5,2.2-18.6c0-0.4,0.1-0.7,0.3-0.9l5.4-3.8c6.2-4.3,10.7-7.8,13.6-10.4
		c2.5-2.3,4.4-4.8,5.7-7.5c1.4-3,2-6.1,1.8-9.2C183.2,145.2,182.8,143.2,181.9,140.8 M172.1,124.9l-1.3-0.5
		c-7.2,7.5-17.9,12.5-32.2,14.9l-1,0.2l-0.8-0.1c-7.5-10.7-12.8-22.1-15.8-34.4l-1-4.1c-0.7,1.4-1.3,2.7-1.8,4.1
		c-0.5,1.2-0.8,2.4-1.1,3.6l-0.7,1.2c-0.5,0.5-0.9,0.7-1.2,0.5l-3.4-1.8c1.9,6.4,4,11.9,6.2,16.4c2.8,5.8,6.1,10.4,9.7,13.9
		c0.2,0.2,0.1,0.4-0.4,0.6l-0.9,0.2h-1.4c-3,0-6-0.6-9-1.6l6,5.5c1.4,1.2,2.7,2.1,3.9,2.6c4.4,2,9.4,3,15.1,3
		c5.1,0,10.3-0.8,15.4-2.4c7.2-2.2,12.7-5,16.5-8.6c1.9-1.7,3-3,3.4-3.8c0.6-1.3,0.2-2.9-1.1-4.7L172.1,124.9 M176.4,112.1
		c0.5-0.7,0.9-1,1.3-1c1,0,2.1,0.3,3.4,0.9c0.3,0.1,0.5,0.6,0.6,1.3c0.1,0.7,0,1.1-0.2,0.9l-1.9-0.8c-1-0.3-1.6-0.2-1.9,0.2
		l-3.8,4.9c-1.1,1-2,1.4-2.8,1.2c-1-0.3-1.9-1.1-2.8-2.5c-1.5,0.9-2.9,1.1-4,0.6c-1.1-0.4-1.9-1.3-2.5-2.6l-2.5,0.7
		c-0.7,0.3-1.5,0.9-2.3,1.8c-1,1.1-1.5,2-1.3,2.8c0.1,0.6,0.6,1.1,1.5,1.4c1.2,0.5,2.6,0.3,4.4-0.4c2-0.8,3.5-1.1,4.4-0.9l6.6,2.2
		c2.7,0.9,4.9,1,6.7,0.3c2.5-1,4.5-2.9,6-5.6l0.1-0.2l0.1-0.1c0.5-1,0.9-2,1-2.9c0.4-1.6,0.4-3.1,0.1-4.3c-0.4-1.3-1.3-2.4-2.6-3.4
		c-1.4-0.9-2.4-1.6-3.1-1.9c-1.3-0.6-2.5-0.9-3.5-0.7c-1.4,0.2-2.9,1.1-4.5,2.8c-0.9,0.9-2,2.3-3.5,4.2c-1.1,1.6-1.5,2.9-1.2,3.9
		l0.8,1.2l1.1,1.1c0.5,0.4,1,0.5,1.5,0.2c1.3-0.5,2.6-1.8,4-3.8L176.4,112.1 M172.8,104l0.4-0.4c-0.9-0.9-2.5-0.6-4.7,0.7
		c-1.7,1-3,2.1-3.9,3.2c-1.1,1.3-1.8,2.4-2.2,3.3l-0.2,0.6c-0.2,0.5-0.3,1-0.3,1.5l0,0.4l0.2,0.6l0.2,0.3c1.3,1.7,3,2,5.1,0.9v-0.1
		h-0.1c-0.6-1.9-0.2-3.9,1.2-6.1C169.3,107.8,170.7,106.1,172.8,104 M179,89.3c0.2,0.8,0.2,1.2,0,1.4c-0.9,0.7-1.7,1.7-2.4,3.1
		l-1.6,3.6c-0.7,1.9-1.1,3.3-1.2,4.2l0,1l0.2,0.4c1.8-1.2,3.8-1.4,6-0.8c2.1,0.6,3.9,1.8,5.5,3.6c0.9,1.1,1.6,2.4,2,3.9
		c0.5,1.9,0.6,3.8,0.1,5.8c9.3-7.9,13.5-15,12.5-21.3c-0.2-1.1-0.6-2.2-1-3.1c-3.6-7.6-12-13.5-25.4-17.7
		c-7.1-2.2-14.5-3.7-22.1-4.5L137,68.4c-0.4,2.1-1,4.4-1.8,7c1.3,3,1.5,6.2,0.5,9.8c-1,3.3-2.8,6.3-5.6,9c-1.5,1.4-3.5,2.8-6.2,4.2
		l-1.7,0.6c-0.3,0.2-0.4,0.6-0.3,1.2l1.1,4.8c0.8,3.1,1.6,5.9,2.4,8.4c2,6,4.9,12.1,8.8,18.4l4.1,6.4l0.2,0.4l1.6-0.2
		c13.4-2.7,23.3-7.5,29.6-14.3l-1-0.4l-3-0.4c-0.4,0-1.4,0.3-3,0.8l-3,0.6c-1.1,0-2.1-0.3-2.9-1c-0.6-0.6-1.1-1.6-1.4-3l-0.1-1.9
		c0.1-1.6,0.7-3,1.9-4c1.1-1,2.5-1.6,4.2-1.8l-0.1-1.1c-3.9,1.4-6.4,1.3-7.7-0.5c-0.9-1.2-1.3-2.6-1.2-4.2c0.1-1.4,0.6-2.8,1.5-4.1
		c0.9-1.4,2-2.7,3.1-3.8c1.5-1.5,3-2.5,4.4-2.9l-1.6-3.7l-0.3-1c-0.1-0.6,0-0.8,0.2-0.8c5.1,1,9,2.1,11.8,3.1l1.5,0.6
		c0.9,0.4,1.4,0.6,1.4,0.8l1.6-4c0.7-1.4,1.6-2.4,2.5-2.8C178.6,88.2,178.9,88.6,179,89.3z"/>
</g>
</svg>
