<?xml version="1.0" encoding="utf-8"?>
<!-- Generator: Adobe Illustrator 25.4.1, SVG Export Plug-In . SVG Version: 6.00 Build 0)  -->
<svg version="1.1" id="Sneak_x2C_PerkClip_x5F_4c935" image-rendering="auto"
	 xmlns="http://www.w3.org/2000/svg" xmlns:xlink="http://www.w3.org/1999/xlink" x="0px" y="0px" viewBox="0 0 240 240"
	 style="enable-background:new 0 0 240 240;" xml:space="preserve">
<style type="text/css">
	.st0{fill:#FFFFFF;}
</style>
<g>
	<rect width="240" height="240"/>
	<path class="st0" d="M149.7,222.6c1.4-0.9,2.4-2.2,2.8-3.9l0.2-0.9l-6.5,0.8l-11.4-0.7c-2.2-0.5-4-1.2-5.5-1.9
		c-2.8,0.9-5.2,1.8-7.3,2.6c-2.4,0.9-4.4,1.8-6,2.7c-1.8,0.9-2.9,1.7-3.4,2.4l1.8,0.8c2.1,0.6,4.5,1,7.1,1.2
		c7.2,0.4,14.4-1,21.6-4.2l0.4,0.2l1.6,2.1C146.8,223.9,148.3,223.5,149.7,222.6 M48.6,126.8c-0.1-2.3-0.2-3.9-0.4-4.7
		c-0.5-2-1.5-2.5-3-1.7c-1.9,1.1-2.8,3-2.9,5.7c-0.1,1.4,0,2.6,0.3,3.8c0.4,1.5,1.1,2.5,2.1,3C47.2,133.9,48.5,131.9,48.6,126.8
		 M113.7,191.8l-1.2-0.5c-1.7,2.3-3.2,4.4-4.5,6.5c-1.5,2.5-2.6,4.5-3.1,6.2l-0.7,2.8v0.6l0.5,0.5c1.2,0.7,2.8,0.6,5-0.2
		c1.8-0.7,3.8-1.8,6-3.2c2.5-1.6,4.8-3.3,6.8-5.1l-1.5-7l-0.2,0.4C118.9,193.2,116.6,192.9,113.7,191.8 M163.8,103.4l-2-0.4
		l-2.1,0.4c-1.7,0.8-3.2,1.9-4.6,3.3c-1.1,1.3-1.9,2.4-2.4,3.4l-0.2,0.4c-0.3,0.6-0.4,1.1-0.4,1.6v0.6l0.1,0.5l0.8,1.1
		c1.2,1,2.7,1.1,4.4,0.4l-0.1-0.1c-0.5-1.8-0.1-3.8,1.3-5.8c0.7-1.1,2.1-2.7,4.3-4.8L163.8,103.4 M145.2,103.9
		c-2,2.5-2.2,4.1-0.8,4.8c1.7,0.8,4.1,0.6,7.4-0.5c0.3-0.8,0.8-1.6,1.2-2.2c1.5-1.9,3.3-3.4,5.3-4.4l-1.4-2.5
		c-1.6-2.1-4.1-1.9-7.6,0.6C147.8,100.9,146.4,102.4,145.2,103.9 M108,107.8l-5-2.8c2,6.9,4.1,12.6,6.4,17.3
		c2.9,6.2,6.3,11.1,10.1,14.7c0.3,0.3-0.1,0.6-1.3,0.8h-1.4c-2.7,0-5.4-0.5-8-1.3l4,4.2c1.3,1.3,2.5,2.3,3.5,2.9
		c3.9,2.3,8.7,3.6,14.5,3.8c5,0.2,10-0.4,15-1.8c4.3-1.1,8.1-2.5,11.3-4.2l4.7-2.8c2.8-2,4.9-3.9,6.2-5.8c0.7-1,0.7-2.3-0.1-3.8
		l-2.5-3.6c-1.2-0.2-2.6-0.7-4.4-1.4c-4.7,3.9-10.1,7-16.2,9.4c-4.8,1.9-10,3.3-15.6,4.1l-0.8-0.1c-7.6-10.8-12.9-22.4-15.9-34.8
		L112,100l-2,6l-0.7,1.3C108.8,107.8,108.4,108,108,107.8 M123.4,88.1c2.5-3.8,3.5-7.5,2.8-11.2c-1.1,2.7-3.1,6.1-5.9,10l-6.5,9.6
		C117.8,94.4,120.9,91.6,123.4,88.1 M133.4,48.4c0,1.7-0.4,3.1-1.3,4.4c1.6,2,3.1,3.4,4.6,4.2c1.7,1.1,3.7,1.6,5.9,1.5
		C140.2,52.1,137.2,48.7,133.4,48.4 M137.5,51l-1.4-0.9c-0.6-0.6-0.7-0.8-0.3-0.7l1.3,0.9C137.7,50.8,137.8,51.1,137.5,51
		 M135.6,55.4c-0.7-0.7-0.8-1.1,0-1.2c0.6-0.1,1.3,0.3,2,1c0.7,0.7,0.7,1.2,0,1.2C137.1,56.5,136.4,56.1,135.6,55.4 M131.7,45.6
		l-0.2,0.1c-0.3-0.1-0.8-0.4-1.4-0.9c-0.6-0.6-0.7-0.8-0.3-0.7c0.2,0.1,0.5,0.2,0.9,0.6l-0.1-0.1l-0.1-0.1c-0.4-0.3-0.9-0.5-1.4-0.6
		l-1.6,0.3c0.4,2,0.4,3.9,0.1,5.6l-0.5,2.4c-0.2,1.1,0,1.6,0.6,1.4c0.8-0.3,1.5-0.7,2.3-1.2c1.5-1,2.3-2.3,2.5-3.8
		C132.6,47.5,132.3,46.5,131.7,45.6 M130,50.6c0.6,0.6,0.7,0.9,0.2,0.9c-0.4,0-1-0.3-1.6-0.9c-0.6-0.6-0.7-0.9-0.1-0.9
		C128.9,49.7,129.4,50,130,50.6 M129,41.4c0.9,0.1,1.8,0.6,2.5,1.6c0.6,0.9,1.1,1.9,1.5,3.2l0.1-0.1c1.1-0.8,3.1-1.7,5.9-2.8
		c2.2-1.2,3.2-2.8,2.8-4.9l-0.1-0.8l-0.3,0l-8.7,2.5C131.1,40.5,129.9,40.9,129,41.4 M140.7,41c-0.4,0-1-0.4-1.6-0.9
		c-0.6-0.6-0.7-0.9-0.2-0.9c0.4,0,0.9,0.3,1.6,0.9S141.2,41,140.7,41 M73.7,116.7l-3.6,0.1c-1.8,0.8-3.4,2-4.8,3.6l-0.1,0.1
		c-0.3,1.7-0.8,2.9-1.4,3.8c-0.8,1.1-1.8,1.3-3,0.6c-0.9-0.5-1.8-1.4-2.7-2.7c0.5,1.8,0.8,3.2,0.8,4.3c0.1,1.8-0.5,3.1-1.6,4.1
		c-1.2,1.1-2.6,1.1-4.2,0c-1.5-1.2-2.7-3-3.5-5.5l-0.1-0.5l-0.2,7.3l0.3,1.2c0.5,1.3,1.7,2.3,3.7,2.9l5.1,0.3
		c2.2-0.5,4.2-1.8,5.9-3.9c1.2-1.4,2.4-3.5,3.7-6.3l0.9-2.4c0.5-1.1,1-1.7,1.6-1.9l3.1,0.5c1.3,0.3,2.2,0.1,2.6-0.7
		c0.3-0.6,0.3-1.2,0.1-1.9l-1.1-1.9C74.7,117.3,74.2,116.9,73.7,116.7 M53.9,115.2l-0.2,0.2l-0.2-0.1c-0.6-0.6-1.3-0.8-2.1-0.5
		c-0.8,0.3-1.4,0.8-1.6,1.6c-0.3,1.2-0.4,2.5-0.3,3.9c0.1,1.6,0.4,3.1,0.9,4.4c0.9,2.4,2.1,3.8,3.8,4.1c2.6,0.6,3.8-0.7,3.6-3.9
		c-0.1-1.5-0.7-3.8-1.7-6.9c-0.2-0.5-0.2-1-0.1-1.4c0.1-0.2,0.1-0.3,0.2-0.1l0.3,0.6c0.9,2,1.9,3.5,3,4.5c1.6,1.5,3,1.2,4.1-0.8
		c1-1.8,1.1-3.6,0.5-5.6c-0.3-0.8-0.6-1.4-1.1-2c-1.8-2.4-3.3-3.7-4.6-3.9c-1.3-0.2-2.4,0.4-3.3,1.8
		C54.6,112.5,54.1,113.8,53.9,115.2 M83.1,89.6L80,86.2c-6.9,4.9-12.4,10.4-16.4,16.6c-1.2,1.8-2.3,3.7-3.2,5.6
		c1.1,0.9,2.1,2,2.9,3.2l1.6,3.6l0.5,2.1c2.4-2.5,4.6-3.6,6.8-3.4c1.1,0.1,2.1,0.8,3.1,2.1c0.7,0.9,1.2,2.1,1.7,3.4
		c0.3,1.1,0.5,2.2,0.4,3.1c-0.1,1.4-0.7,2.1-1.8,2.1l-2.3-0.5c-1-0.3-1.7-0.3-2.1,0c-0.4,0.3-0.8,0.7-1.1,1.4l-0.7,1.6
		c-1.9,4-3.7,6.9-5.4,8.6c5.3-0.8,10.4-3.7,15.3-8.8c4-4,7.4-9,10.4-15l-0.5-1.3c-0.1-0.2,0.2-0.5,0.8-0.7l1.1,0.1
		c3.5,8.4,8.7,16.5,15.7,24.2c3.5,1.5,6.9,2.3,10.1,2.5c-3.7-3.8-7-8.9-9.9-15.3c-1.8-4-3.8-9.8-6.1-17.2l-0.2-0.8l-1.1-0.7
		C93.2,98.9,87.8,94.4,83.1,89.6 M71.9,61.1c0.1,1.8,0.4,3.7,0.9,5.6l0.1-0.1c0.6-0.3,1-0.1,1.4,0.5c0.4,0.6,0.2,1.1-0.5,1.5
		c-0.2,0.1-0.3,0.1-0.4,0.2c0.8,2.5,2,5.1,3.5,7.8c2.5,4.4,5.7,8.4,9.5,12.2c0.1-0.4,0.3-0.6,0.8-0.8c0.8-0.3,1.5,0.1,2.2,1.2
		c0.7,1.1,0.6,1.8-0.3,2.1c4.7,4.2,10.1,8.1,16.1,11.5l3.4,1.9l0.6-1.9c1-2.9,2.4-5.8,4.3-8.9c1.7-2.8,4-6,6.9-9.6
		c2.8-3.5,4.9-8,6.3-13.4c1.5-5.8,1.7-10.8,0.4-14.9l-0.1-0.2c-0.4-1.4-0.5-3.4-0.3-5.9c0.2-2.7,0.1-4.6-0.2-5.9l-0.2,1.1
		c0,0.5-0.3,1-0.8,1.5c-2,2.1-4.9,4.3-8.6,6.6c0.5,0,1.1,0.3,1.8,0.8c0.7,0.6,0.6,1-0.1,1.1c-0.6,0.1-1.2-0.2-1.9-0.8l-0.5-0.6
		l-1.8,0.9c-3.3,1.8-7,3.1-11,3.9l-5,0.2c0.4,0.5,0.3,0.9-0.4,1.1c-0.6,0.2-1.2,0-1.8-0.6c-0.3-0.4-0.4-0.7-0.2-0.9l-5.6-1.1
		c-2.2-0.4-4.4,0.1-6.4,1.6l-4.6,3.1c0.6-0.2,1.2-0.1,1.6,0.5c0.5,0.6,0.3,1-0.5,1.3c-0.7,0.3-1.2,0.2-1.7-0.4
		c-0.4-0.5-0.3-0.9,0.2-1.2l-0.7,0.3C76.8,62.8,74.6,62.4,71.9,61.1 M86.1,64.4c-0.5-0.6-0.4-1.1,0.5-1.4c0.7-0.2,1.3-0.1,1.9,0.6
		c0.5,0.6,0.4,1.1-0.4,1.4C87.3,65.3,86.7,65.1,86.1,64.4 M82.9,78.4c0.7-0.3,1.4,0,1.9,0.9c0.6,1,0.4,1.6-0.4,2.1
		c-0.7,0.3-1.4,0-2-1C81.8,79.4,82,78.8,82.9,78.4 M80.6,76.6c0.5,0.9,0.4,1.5-0.4,1.9c-0.7,0.3-1.3,0-1.8-0.9
		c-0.5-0.9-0.3-1.5,0.5-1.9C79.6,75.4,80.1,75.7,80.6,76.6 M102.9,61.6c-0.6-0.6-0.5-1.1,0.2-1.3c0.7-0.2,1.3,0.1,2,0.7
		c0.7,0.7,0.6,1.1-0.2,1.2C104.2,62.4,103.5,62.2,102.9,61.6 M98.2,67.4c0.7-0.2,1.3,0.1,2,1c0.7,0.8,0.6,1.3-0.2,1.5
		c-0.7,0.2-1.4-0.1-2-0.9C97.4,68.2,97.5,67.6,98.2,67.4 M106.6,67.6c-0.8-0.8-0.8-1.4,0.1-1.6c0.8-0.1,1.6,0.2,2.4,1.1
		c0.8,0.9,0.7,1.4-0.2,1.5C108.2,68.8,107.4,68.4,106.6,67.6 M122.3,53.9c-0.6-0.6-0.7-0.9-0.1-0.8c0.4,0,0.9,0.4,1.5,0.9
		c0.6,0.6,0.7,0.9,0.2,0.9C123.5,54.8,122.9,54.5,122.3,53.9 M125.4,50.2c0.6,0.5,0.7,0.8,0.4,0.7s-0.8-0.4-1.4-0.9
		c-0.6-0.5-0.7-0.8-0.3-0.7C124.4,49.3,124.8,49.6,125.4,50.2 M117.6,62.1c-0.5-0.9-0.4-1.3,0.4-1.2c0.6,0.1,1.1,0.6,1.6,1.6
		c0.5,0.9,0.4,1.3-0.3,1.2C118.6,63.6,118.1,63,117.6,62.1 M124.6,65.2c0.5,0.1,1,0.6,1.4,1.6c0.4,1,0.3,1.4-0.3,1.4
		c-0.6-0.1-1.1-0.6-1.5-1.6C123.8,65.6,123.9,65.1,124.6,65.2 M122,78.4c-0.7,0-1.2-0.6-1.5-1.8c-0.3-1.2-0.1-1.8,0.8-1.7
		c0.7,0.1,1.1,0.7,1.4,1.8C122.9,77.9,122.7,78.4,122,78.4 M110.6,75.2c-0.9-1.1-0.9-1.8,0-1.9c0.8-0.2,1.6,0.3,2.5,1.3
		c0.9,1.1,0.8,1.7-0.1,1.9C112.3,76.8,111.5,76.3,110.6,75.2 M111.3,89.1c0.8-0.3,1.5,0,2.2,1c0.6,1,0.5,1.6-0.3,2.1
		c-0.8,0.3-1.5,0-2.2-1C110.2,90.1,110.4,89.4,111.3,89.1 M99.4,77.6c0.7,1.1,0.6,1.9-0.3,2.2c-0.8,0.3-1.6-0.1-2.4-1.2
		c-0.7-1.1-0.6-1.9,0.4-2.2C97.9,76.1,98.7,76.5,99.4,77.6 M96.2,91.6c-0.8-1.1-0.7-1.9,0.3-2.2c0.9-0.3,1.7,0.1,2.5,1.2
		c0.8,1.1,0.7,1.9-0.3,2.2C97.9,93.1,97.1,92.7,96.2,91.6 M104,99.9c0.8-0.2,1.5,0,2.1,0.5c0.7,0.5,0.5,0.9-0.4,1.2
		c-0.8,0.2-1.5,0.1-2.2-0.4C102.9,100.5,103,100.1,104,99.9 M71,39.8l-0.9-0.2c-0.5,0.1-0.7,0.5-0.8,1.4c-0.1,0.8,0,1.7,0.4,2.7
		c0.2,0.7,0.9,1.7,2.1,3.1c0.5-2.1,1.1-4.1,1.8-6C72.7,40.6,71.8,40.3,71,39.8 M87.8,30.5c-1.5-0.6-2.7-0.8-3.6-0.6
		c-0.4,0.1-0.8,0.2-0.9,0.5c-0.5,0.4-1.3,1.6-2.4,3.8l-1.9,3.5c-1.1,1.3-2.2,2.2-3.5,2.7c-1.8,4.7-2.7,9.3-2.8,13.6
		c0,1.2,0,2.6,0.2,4.3c3.1,1.7,5.6,2,7.4,1.1l3.1-2.3c1.3-1.1,2.3-1.9,3.1-2.2l1.9-3.8l1.2-4.2c0.2-0.6,0.4-0.9,0.7-1h0.1
		c0.4-0.1,0.5,0.2,0.4,1l-1.1,5.3L89,54.4l9.9,1.4c2.1,0.3,4.2,0.3,6.6-0.1c1.7-0.4,3.8-1,6.3-2c1.8-0.7,3.8-1.7,5.8-2.9h0
		c-0.3-0.1-0.4-0.4-0.4-0.7c0.1-0.3,0.2-0.5,0.5-0.5l0.3,0l0.9,0.4l1.5-1.1l-1.2-0.9l-2.1-1l-0.6-0.4c-0.3-0.2-0.4-0.4-0.3-0.7
		c0.1-0.2,0.2-0.4,0.4-0.4h0.2c1,0.2,1.9,0.6,2.8,1.2l1.7,1.6l1.1-0.9l-3.1-2.6c-0.7-0.5-1.6-1-2.8-1.4c-0.5-0.2-0.8-0.5-0.9-0.9
		c-0.1-0.4,0-0.6,0.4-0.6h0.2c1,0.2,2.3,0.8,3.7,1.8c1,0.7,2.1,1.7,3.3,3l0.6-0.6c-1.6-1.9-3.1-3.4-4.6-4.4l-3-1.9l-1.4-0.8
		c-0.3-0.1-0.5-0.3-0.5-0.6c0-0.3,0.2-0.4,0.6-0.5h0.4c0.8,0.2,2.3,1.1,4.6,2.8c1.6,1.3,3.1,2.8,4.4,4.7l0.3-0.5
		c-0.9-2.4-2.5-4.5-5-6.1c-1.3-0.8-3-1.6-5-2.3l-0.3-0.1c-0.5-0.2-0.6-0.5-0.5-0.9l0.3-0.5c2.4-2,3-3.9,2-5.9
		c-1-1.8-2.4-2.5-4.2-2.2l-0.3,0.1c-1.9,0.6-3.3,1.2-4.1,1.7c-1,0.6-1.8,0.9-2.5,1.1c-0.9,0.1-1.8-0.1-2.4-0.6
		c-2.2-1.8-4.5-2.5-6.8-2.1c-0.9,0.2-1.6,0.5-2.3,1c-1.5,1.3-2.8,2-3.9,2.2L87.8,30.5 M77,43.2l-0.5-0.1l0.3-0.5l3.3-3
		c0.2-0.2,0.3-0.2,0.4-0.2c0.4-0.1,0.7,0.1,0.8,0.5l0.3,1l-0.1,0.9l-0.7,0.6l-3.8,0.8L77,43.2 M79.8,47.7c0.5-0.1,1,0.2,1.4,0.8
		c0.5,0.6,0.8,1.3,0.9,2.2c0.1,0.9,0.1,1.7-0.2,2.4c-0.3,0.7-0.6,1.1-1.1,1.2h-0.1c-0.5,0.1-1-0.2-1.4-0.8c-0.4-0.6-0.7-1.4-0.9-2.3
		c-0.1-0.9-0.1-1.7,0.2-2.4C78.9,48.2,79.2,47.8,79.8,47.7L79.8,47.7 M104.9,39.8L104.9,39.8l-6.8-1.9c-0.1-0.1-0.1-0.5,0.2-1.2
		l0.1-0.1l0.5-1.1c0.2-0.4,0.4-0.6,0.7-0.6l0.6,0l2.7,1.8C104.2,37.9,105,38.9,104.9,39.8 M98.9,47.4c-0.1-0.9-0.1-1.7,0.2-2.4
		c0.2-0.7,0.6-1.1,1.1-1.2h0.1c0.5-0.1,1,0.2,1.4,0.8c0.5,0.6,0.8,1.3,0.9,2.2c0.1,0.9,0.1,1.7-0.1,2.4c-0.3,0.7-0.6,1.1-1.1,1.2h0
		c-0.5,0.1-0.9-0.2-1.4-0.8C99.4,49.1,99.1,48.3,98.9,47.4 M99.4,13.2l-1.5-0.8c-1.6-0.7-2.8-0.9-3.8-0.8l-0.3,0.1
		c-0.8,0.3-1.8,1.9-2.9,4.9l-1.3,2.8c-0.3,0.4-0.7,0.6-1.2,0.8L86.3,20c-1-0.1-1.9-0.1-2.4,0c-0.4,0.1-0.8,0.2-1.2,0.4
		c-0.7,0.3-1.6,1.3-2.8,2.9l-2.3,3.6c-0.9,1.6-2.2,2.5-3.9,2.9c-1.2,0.2-2.3,0-3.3-0.6c-0.9-0.5-1.4-1.3-1.5-2.6
		c-0.7,1-1.1,2.1-1.3,3.2c-0.3,1.5,0,3.2,0.8,4.9l1.1,1.9c0.6,0.9,1.3,1.6,2.2,2.2c0.7,0.5,1.5,0.7,2.4,0.5c1.3-0.2,2.5-1.1,3.6-2.5
		l0.2-0.2l1.6-3.2c1.2-2.2,2.1-3.5,2.6-4c0.9-0.7,1.6-1,2.2-1.1l2.8,0.4l1.5,0.4h0.6c0.4-0.1,0.8-0.4,1.4-0.9l4.8-4.2l0.8-0.3
		c1.1-0.2,2.9,0.6,5.1,2.2l3.9,2.7h0.3l2.8-1.6c1.5-1,2.5-1.6,3.2-1.8l1.1-0.3c1.7-0.3,3.2,0.1,4.4,1.1c0.9,0.8,1.6,1.8,2,3.1
		c0.3,0.9,0.1,2.1-0.7,3.5l-2.2,3.1l1.9,0.9c1.1,0.6,1.9,1.1,2.6,1.6c2.1,1.4,3.7,3.2,4.7,5.3l0.8-1.8l0.1-5.1
		c-0.2-4.1-1.2-7.4-2.8-9.8c-1-1.5-2.2-2.9-3.5-4.1c-1.8-1.8-3.3-2.8-4.8-3.1l-3.5-3.1c-2-1.8-4-2.6-6-2.5l-4.5-0.3L99.4,13.2
		 M173.5,142c-0.6-3.7-1.8-6.8-3.7-9.1c-3,3.8-7.1,7-12.2,9.7c-6.2,3.3-13,5.2-20.3,5.8c-7.5,0.7-14-0.1-19.7-2.4
		c-1.8-0.8-3.6-1.9-5.5-3.6c-1.7,2-4.9,6.8-9.6,14.3c-3.4,5.3-5.3,9.8-5.8,13.6c-0.1,1-0.1,1.8-0.1,2.5c0.1,0.8,0.4,1.5,0.9,2.2
		c2.1,3.1,4.7,5.9,7.8,8.4c2.9,2.3,5.6,4,8.2,5c2.7,1,4.8,1.2,6.4,0.6c0.2-0.1,0.5,0.2,0.8,0.9c-0.5-3.5-0.9-6.7-1-9.6
		c-0.1-6.9,1.2-13.6,4.1-20.1c1.5-3.5,3-6.2,4.6-8.3c0.2-0.3,0.5,0.1,0.9,1.2c0.4,1,0.5,1.7,0.2,2l-0.4,0.6c-2.4,3.6-4.4,7.6-5.8,12
		c-1.2,3.7-1.9,7.2-2.2,10.6c-0.2,3.3,0.1,7.6,1,12.9c0.6,3.6,1.4,7.4,2.5,11.4c0.6,2.3,1.3,4.5,2.1,6.8l0.8,2.1l0.1,0.2l0.1,0.1
		l1.7,0.9c4.9,2.4,11.4,3.1,19.7,2.1c2.7-0.4,4.7-0.8,5.8-1.4l0.7-0.5h0V213c0.8-5.9,1.1-11.3,1.1-16.3c0-2.5-0.2-5.1-0.4-7.6
		l-0.8-7.6l-2.2,2.4c-0.2,0.3-0.5-0.1-0.9-1.1c-0.4-1-0.5-1.7-0.2-2.1c7.5-8.7,13.1-15.7,16.8-21.1
		C172.8,153.7,174.4,147.9,173.5,142 M176.5,115c0.6-2.1,0.8-3.8,0.4-5.1c-0.3-1-0.9-1.8-1.7-2.4L172,105c-1.5-0.8-2.8-1.2-4-1.1
		c-1.4,0.2-3,1-4.6,2.5l-3.6,4.1c-1.2,1.5-1.7,2.7-1.5,3.8c0.2,0.6,0.5,1.2,1,1.7l0.9,0.9l1.2,0.1c1.3-0.4,2.7-1.6,4.2-3.6l0.9-1.4
		c0.5-0.7,1-1,1.4-0.9c1.1,0,2.2,0.4,3.4,1.1c0.3,0.1,0.5,0.6,0.5,1.3c0.1,0.8,0,1.1-0.1,1l-1.5-0.7l-1.7-0.3
		c-0.4,0.1-0.8,0.4-1.2,0.9l-0.9,1.3l-2.2,2.5c-1,0.9-2,1.3-3,1.2c-0.8,0-1.7-0.9-2.7-2.6c-1.4,0.7-2.6,0.8-3.9,0.4
		c-1.2-0.5-2.1-1.4-2.7-2.8c-1.5,0.2-2.8,0.6-3.9,1.3c-1.4,0.9-2,2-2,3.4l0,0.6c0.3,1.5,1.7,2,4.3,1.5l5.4-1.1
		c0.9,0.1,3,0.9,6.2,2.4c2.6,1.2,4.8,1.5,6.6,0.9c2.8-0.8,5-2.6,6.8-5.4L176.5,115 M169.8,88.3c0.2-0.1,0.5,0.3,0.7,1
		c0.2,0.7,0.2,1.2-0.1,1.3c-0.9,0.6-1.8,1.6-2.6,3c-0.4,0.7-1,1.9-1.8,3.5l0,0.1c-1.1,2.3-1.6,4.1-1.5,5.2l0.2,0.3
		c1.8-1,3.6-1.2,5.6-0.6c1.8,0.6,3.6,1.8,5.2,3.6c1,1.1,1.7,2.4,2.2,3.9c0.6,2,0.6,4.1,0,6.2c10.4-8.1,14.8-15.5,13.2-22.2l-1-2.7
		c-3.9-7.7-12.5-13.8-25.7-18.4c-6.1-2.1-12.3-3.7-18.7-4.7c-5.3-0.8-10.7-1.3-16.3-1.4c-0.4,2-1,4.6-2,7.7c1,2.7,1.3,5.5,0.7,8.4
		c-0.6,2.9-1.9,5.5-4,7.8c-6.8,5.4-10.2,7.7-10.5,7.1l2.5,10.1c2.9,9.9,7.6,19.7,14.3,29.2l2.3-0.4c3.1-0.6,5.8-1.3,8.1-2.1l4-1.4
		c5.3-2.1,10.4-5.1,15.2-9.1l0.1-0.1l-1.7-0.8c-1.1-0.4-2.1-0.6-3-0.6l-6,1.1c-1.1,0-2.1-0.4-2.8-1.2c-0.6-0.6-1-1.5-1.2-2.6
		c-0.2-0.8-0.2-1.5-0.1-2.2c0.1-1.6,0.8-2.9,2.1-3.9c1.1-0.9,2.5-1.4,4.2-1.6v-1.2c-3.8,1.1-6.3,0.8-7.4-0.9
		c-0.8-1.3-1.2-2.7-1.1-4.2c0.1-1,0.4-1.9,0.9-2.9l0.8-1.2l1.1-1.4c2.3-2.7,4.5-4.3,6.8-4.9l-1.6-4.1c-0.3-1.1-0.2-1.6,0.1-1.6
		c4.8,1.2,8.7,2.4,11.6,3.6l1.5,0.7c0.9,0.4,1.3,0.7,1.3,0.8l1.7-3.8C167.8,89.6,168.8,88.7,169.8,88.3z"/>
</g>
</svg>
