<?xml version="1.0" encoding="utf-8"?>
<!-- Generator: Adobe Illustrator 25.4.1, SVG Export Plug-In . SVG Version: 6.00 Build 0)  -->
<svg version="1.1" id="MysteriousStranger_x2C_PerkClip_x5F_4c929" image-rendering="optimizeSpeed"
	 xmlns="http://www.w3.org/2000/svg" xmlns:xlink="http://www.w3.org/1999/xlink" x="0px" y="0px" viewBox="0 0 240 240"
	 style="enable-background:new 0 0 240 240;" xml:space="preserve">
<style type="text/css">
	.st0{fill:#FFFFFF;}
</style>
<g>
	<rect width="240" height="240"/>
	<path class="st0" d="M89.6,223l-0.2,0.4c0.2,0.8,2.4,1.4,6.6,1.9c4.2,0.4,9.2,0.6,14.8,0.4c-4.1-0.7-6.7-2.7-7.8-5.8l-8,1
		C92,221.5,90.2,222.2,89.6,223 M129.7,231.9c0.4-0.2,0.8-0.2,1.1,0.1l1.8,1.6l6.2-0.8l1.1-4c-7.1,1-13.1,1-17.8,0.1
		c-2.9-0.6-5.2-1.5-6.8-2.6l-2,0.9l-0.6,0.5c-2.4,0.8-4.7,1.7-6.8,2.7c-2.6,1.3-4.1,2.3-4.5,3.2l-0.1,0.4c0.6,1.1,4.5,1.5,11.8,1.2
		C120.7,234.7,126.2,233.6,129.7,231.9 M108,210.5c-1,0.3-2.1,0.3-3.2,0v8.3c0.1,0.9,0.6,1.9,1.6,2.8c1.8,1.6,4.5,2.4,8.1,2.4v-11.5
		C111.9,211.9,109.7,211.2,108,210.5 M126.7,214.5l-10.2-1.6v11.6c0.9,0.7,2.8,1.1,5.9,1.4c4.4,0.3,10.3-0.1,17.8-1.2
		c0.4-1.6,0.7-3.3,0.9-5.1l0.4-4.5L126.7,214.5 M106.8,138.9l-0.5,0c-1.2,14-2,25.8-2.5,35.4l-0.4,7.7c-0.5,7.7-0.7,13.1-0.7,16.2
		c0,5.6,0.6,8.9,1.6,9.9c0.9,0.5,1.8,0.7,2.7,0.6L106.8,138.9 M153.3,147.5l-2.9-16.3c-9.3,3-16.9,4.6-22.8,4.7
		c-4,0.1-6.9-0.4-8.8-1.6c-3.7,2.7-7,4.2-10,4.5l0.2,69.9c2.7,1,6.3,1.9,10.6,2.7c7.3,1.3,15.3,1.8,24.1,1.5l0.1-0.1l6.5,0
		c4.3-0.5,6.5-1.8,6.6-4.1c0.1-10.2-0.2-22-0.8-35.2C155.8,165.2,154.8,156.6,153.3,147.5 M101.8,74.6c0.8-0.8,1.2-1.6,1.2-2.4
		c0-0.4-0.3-0.8-0.8-1.2c-0.6-0.5-1.8-0.3-3.4,0.4c-1.4,0.6-2.9,1.4-4.4,2.5l1.8,2.2L101.8,74.6 M117.7,79.4
		c-2.3-0.6-4.3-1.8-6.1-3.5l-0.1,0.1l-1.6,1.9c-0.7,0.9-1.3,1.9-1.7,2.8c5.4,0.7,8.1,2.4,8.3,5.1c0.1,1.4-0.5,3.7-1.8,7l4.2-5.4
		c-0.1-2.6-0.5-5.3-1.1-7.9L117.7,79.4 M105.5,43.3l2.1-7.3l-7.5-0.1c-2.6,0.2-4.3,0.9-5,2c-1.3,2.1-0.6,3.9,2.2,5.4
		c1.5,0.9,4.1,1.8,7.7,2.6C105.1,44.9,105.3,44,105.5,43.3 M168.5,63.9L156.8,65c-8.5,0.9-14.4,2-17.5,3.1l-11.5,3.4
		c-4.3,1.1-7.6,1.6-9.8,1.7c1.2,1.7,2,3.8,2.4,6.3l0.6,5.9c1.8-0.9,3.7-1.5,5.8-2c3.4-0.8,6.4-0.7,9,0.2c2.9,1,5,3.1,6.4,6.2
		c-2.1-1.1-3.4-1.9-4-2.4c-0.9-0.9-1.9-1.5-3-1.9c-2.2-0.8-5-0.8-8.2-0.1c-1.7,0.4-3.4,1-5.1,1.8l-9,11.4c1.2,3.5,2,6.5,2.5,9
		c0.6,3.8,0.3,6.2-0.9,6.9l-1.9,0.2c-0.8-0.4-1.5-1.7-1.9-3.9l-1.2,4.6c-0.2,0.6-0.6,0.8-1.2,0.7c-0.6-0.1-0.9-0.5-0.8-1.1l1.8-15.2
		c-1-1.5-2.2-2.8-3.8-3.9c-1.4-1.1-2.8-1.7-4-1.9l-6.2,5.1c-3.4,3.3-5.8,6.8-6.9,10.6c0.3,2.8,1.9,6.9,4.8,12.2
		c4.1,7.5,8.9,11.5,14.2,12.1c5.3,0.6,12.3-3.7,21.1-12.9c4.4-4.6,8.3-9.4,11.7-14.2l3.3-2.2c-0.8,1.8-2.6,4.8-5.3,9
		c-4.1,6.3-7.9,10.9-11.4,14l-5.1,4.2c5.2,0.4,11,0,17.5-1.2c6.6-1.2,10.7-2.6,12.4-4.3c1.5-1.4,3.7-5.5,6.6-12.2
		c3.5-7.8,5.6-14.5,6.6-20.2c0.6-3.8,0.2-7.5-1.2-11.1l-2.4-4.2c-3.3-0.8-6.6-1-9.9-0.7l-10.6,2.2c-0.6,0.1-1-0.1-1.1-0.7
		c-0.2-0.6,0-1,0.6-1.2l10.9-2.4l6.6-0.4l2.7,0.5L168.5,63.9 M133.4,50.9c-0.1,0.7-0.8,0.4-2.3-1l-3.8-3.2c-0.9-0.5-1.8-0.9-2.7-1.3
		l-1.5-0.7c-0.9-0.4-1.3-0.9-1.1-1.6c0.2-0.6,0.5-0.8,1.1-0.6l-0.1-0.1c1.6-0.4,2.7-1.2,3.3-2.3l-4.6-1.5c-4.1-1.3-7.9-2.1-11.3-2.4
		l-0.6,1.8c3.5,0.8,5.5,1.9,5.8,3.1l-6.8,0.3l-0.8,3l0.4,1.2c0.2,0.5,0.4,0.5,0.6,0.1c0.4-0.3,0.9-0.4,1.5-0.4
		c0.5,0,0.9,0.5,1.2,1.4c0.3,0.9,0.4,2,0.4,3.2c0,1.3-0.2,2.3-0.6,3.2s-0.9,1.3-1.4,1.2c-0.4,0-0.9-0.5-1.4-1.4
		c-0.5-1-0.9-2-1.1-3.1l-0.5-0.4l-0.2,2.7c-0.2,2.1-0.2,3.9,0,5.5c0.6,5.5,1.7,9.8,3.5,13c1.7,3,4,5.1,6.9,6.4c-0.9-2.8-2-4.8-3.3-6
		c-0.4-0.3-0.5-0.7-0.3-1.1c0.2-0.4,0.5-0.7,1-0.7l15.4-1.3l-1.4-2l-2.6,1.6c-1.1,0.5-1.9,0.7-2.5,0.7c-1.6-0.1-2.8-0.9-3.6-2.5
		c-0.3-0.5-0.1-0.9,0.5-1.3c0.7-0.4,1.1-0.3,1.4,0.3c0.5,0.9,1.1,1.4,1.8,1.4c0.6,0.1,1.2-0.1,1.9-0.6c0.7-0.4,1.2-1,1.7-1.8
		c1.3-2,1.8-4,1.4-6.1c-0.1-0.9-0.5-1.5-1.1-1.8c-0.8-0.4-2-0.3-3.4,0.2c-1.4-0.1-2.2-0.4-2.4-1c-0.2-0.4,0-0.6,0.6-0.8l2.8-0.8
		c1.3-0.2,2.5-0.1,3.4,0.4c1.2,0.6,1.9,1.7,2.2,3.3c0.4,1.9,0.2,3.7-0.5,5.4l-0.5,1.3l2.6,3.7c2.6-0.5,4.7-1.1,6.2-1.6
		c2.8-1,11.7-2.2,26.9-3.8c0.9-2.8,1.6-5.6,2.2-8.5c-3,0.3-5.8,0.2-8.2-0.1c-5.9-0.7-11.7-2.8-17.5-6.3c-4.3-2.6-9-4.9-14.1-6.9
		c-0.2,0.5-0.8,1-1.8,1.5l-2.2,1.2c2.1,1,3.5,1.7,4.1,2.2l3.5,2.8C132.8,49.6,133.4,50.4,133.4,50.9 M126.2,47.6l2.1,1.7
		c1.1,1.1,1.6,1.8,1.4,2c-0.1,0.4-0.7,0.1-1.8-0.8l-2.2-2l-3.2-1.2c-0.6-0.3-0.8-0.7-0.6-1.2c0.2-0.5,0.5-0.7,0.9-0.6
		S124.3,46.4,126.2,47.6 M121.6,49.4c-0.3-0.2-0.3-0.4-0.1-0.6c0.1-0.2,0.3-0.3,0.6-0.3l2.4,1.1c0.6,0.2,1.1,0.6,1.6,1.1l0.9,1.1
		c0.1,0.3,0,0.5-0.2,0.4c-0.2,0.1-0.5-0.1-1.1-0.4l-1.6-1.1C122.8,50.2,122.1,49.8,121.6,49.4 M121.2,51.6l1.6-0.2
		c0.8,0,1.4,0.1,1.8,0.4c0.4,0.4,0.5,0.7,0.2,1.1l-0.9,0.1l-1.4-0.2l-1,0.1c-0.4,0.1-0.6,0-0.8-0.4
		C120.7,52.1,120.9,51.8,121.2,51.6 M84.5,102.2c-0.6,1.6-0.2,3.1,1.3,4.5c2.3-3.5,6.1-7.9,11.4-13.2C93,95.3,88.8,98.2,84.5,102.2
		 M64.9,92.1c0.3,0.4,0.9,0.7,1.9,0.8l1.9-0.1c-0.8-0.8-1.4-1.9-1.8-3.4l-2.2,1.2C64.5,91.2,64.6,91.7,64.9,92.1 M69.9,92.4
		c2.2-0.5,4.6-1.3,7.1-2.4c0.6-0.6,1.3-1.2,2.2-1.6c-0.4-2.1-0.6-4-0.4-5.8l-11,6.1C68.2,90.5,68.9,91.8,69.9,92.4 M87.9,72.3
		c-1,0.5-1.7,1.6-2.2,3.6c-0.4,1.4-0.6,2.7-0.6,4c0,0.4-0.2,0.7-0.5,0.9l-1.1-0.1c-0.7-0.5-1.3-0.7-1.8-0.6c-0.3,0.1-0.6,0.5-0.7,1
		c-0.4,1.2-0.4,2.9-0.2,5l0.5,2.8l-0.1,0.8l-0.6,0.4l-1.1,0.5c-0.8,0.4-1.3,0.9-1.6,1.5c-0.4,1-0.2,2.2,0.6,3.8
		c1,1.7,2.2,2.8,3.8,3.2l2.5,0.2c4.8-4.6,9.9-7.6,15.4-8.9c1.4-2.3,1.8-4.3,1.1-5.9c-0.1-0.4-0.1-0.7,0.1-0.9l1.4-2.8
		c0.8-2,0.8-3.6,0.1-4.6l-7,1.9c-0.4,0.1-0.8,0-1.1-0.4c-1-1.6-2.2-3-3.5-4.1C89.8,72.4,88.7,71.9,87.9,72.3 M131.4,10.3l7.4-1.8
		C134.9,8.6,132.4,9.1,131.4,10.3 M127.3,8.2c-0.8,0.4-1.9,1.3-3.4,2.9c-3.8,4-7.3,8.9-10.4,14.7l12.9,0.6c3.3,0.7,7.5,1.9,12.5,3.7
		l14.1,5.1c6,1.7,10.9,1.9,14.7,0.6c0.2-2.3-0.1-5-0.9-8l-2.5-7.7c-0.7-2.8-1.3-4.9-1.9-6.4c-0.9-2.6-2.1-4.3-3.5-5.3
		c-2.3-1.5-5.5-1.8-9.8-0.9l-0.9,0.5c-0.8,0.3-2,0.5-3.6,0.6l-3.2,0.9c-4.8,1.4-9.2,2.4-13.1,2.9c-1.3,0.2-1.8,0-1.6-0.5
		c0.7-2.2,2.2-3.6,4.5-4.3C129.5,7.6,128.1,7.9,127.3,8.2 M173.5,50.8c3.5-1.1,6.6-2.8,9.2-5.2c3.5-3.1,3.8-5.9,0.6-8.2
		c-3.4-2.6-7.3-4.4-11.8-5.5c0.1,1.1,0.1,2.4-0.1,3.7c-0.1,0.5-0.6,0.8-1.7,1.1c-3.7,1.5-7.9,2-12.6,1.4c-3.3-0.4-7.5-1.5-12.5-3.2
		c-7.3-2.8-12.9-4.7-16.7-5.7c-6.6-1.8-12.4-2.2-17.3-1.2l-1.2,0c-4.1,1.3-6.9,2.2-8.5,2.9c-3.3,1.5-5.5,3.2-6.8,5.1
		c1-0.5,2-0.9,2.9-1.1c6.3-1.4,13.1-1.5,20.6-0.1c6.7,1.2,13.3,3.4,19.7,6.6c1.1,0.6,3.7,2,7.6,4.4c3.1,1.9,5.8,3.2,7.9,3.9
		c3.5,1.3,6.9,2,10.2,2.2C166.9,52.2,170.3,51.8,173.5,50.8z"/>
	<path class="st0" d="M64.9,42.8c-0.1,0-0.2,0.1-0.4,0.1v5.1l-0.9,3.9c-0.3,1.7-0.4,3.1-0.4,4.2c0,1.3,0.2,2.9,0.8,4.8l2.1,8.4
		l-1.2,3.2c-1.6,3.9-2.4,6.8-2.4,8.8c0,0.8,0.1,1.2,0.4,1.4l0.2-0.1v-0.7c0-2.3,0.8-5.4,2.4-9.2l0.9-2.4l0.2,1.2
		c0.6,2.5,1,3.8,1.2,3.8l0.2,0v-0.1l-1.3-5.8c0.8-2.3,1.1-4.2,1.1-5.6c0-1.2-0.3-2.5-0.9-3.9c-0.7-1.6-1.6-2.7-2.7-3.4l2.1,3.9
		c0.7,1.4,1,2.5,1,3.5c0,1.2-0.3,2.8-0.9,4.7l-0.8-3.2c-1.2-5-1.8-8.1-1.8-9.2c0-1.4,0.2-3.1,0.6-5.2c0.4-2.1,0.6-3.8,0.6-5.3
		L64.9,42.8z"/>
	<path class="st0" d="M64.9,42.8L64.9,42.8l0.1,2.9l0,0h-0.1c0,1.5-0.2,3.2-0.6,5.3l0,0l0,0c-0.4,2.1-0.7,3.8-0.7,5.2
		c0,1.1,0.6,4.2,1.8,9.2l0.8,3.2l0,0l0,0c0.6-1.9,0.9-3.5,0.9-4.7c0-1-0.3-2.2-1-3.6l0,0l-2.1-3.9l0,0l0,0c1.1,0.7,2,1.9,2.6,3.4
		c0.6,1.4,0.9,2.7,0.9,3.9c0,1.4-0.4,3.3-1.1,5.6l0,0l1.3,5.7v0.1l-0.2,0l0,0v-0.1l0,0c-0.2-0.2-0.6-1.5-1.1-3.7l0,0l0,0l-0.2-1.2
		l0,0l-0.1,0l-0.9,2.4l0,0l0,0c-1.6,3.9-2.4,7-2.4,9.3v0.7l-0.2,0l0,0l0,0c-0.2-0.1-0.4-0.5-0.4-1.3c0-2,0.8-5,2.4-8.8l0,0l1.2-3.2
		l0,0L64,60.9l0,0c-0.5-1.9-0.7-3.5-0.7-4.8c0-1.1,0.1-2.5,0.4-4.2l0,0l0,0l0.9-3.9l0,0v-5.1h0l0,0C64.7,42.9,64.8,42.8,64.9,42.8
		L64.9,42.8L64.9,42.8L64.9,42.8L64.9,42.8c-0.1,0-0.3,0-0.4,0.1l0,0V48l-0.8,3.9l0,0c-0.3,1.7-0.4,3.1-0.4,4.2
		c0,1.3,0.3,2.9,0.8,4.8l0,0l0,0l2,8.4l-1.2,3.2l0,0l0,0c-1.6,3.9-2.5,6.8-2.5,8.9c0,0.8,0.1,1.2,0.4,1.4l0,0l0.2-0.1l0,0v-0.7
		c0-2.3,0.8-5.4,2.4-9.2l0,0l0.9-2.2l0.2,1.1l0,0c0.3,1.3,0.6,2.2,0.8,2.8c0.1,0.3,0.2,0.5,0.3,0.7c0.1,0.2,0.1,0.3,0.2,0.3l0,0
		l0.2,0l0,0v-0.1l0,0l-1.3-5.8l0,0l0,0c0.8-2.3,1.2-4.2,1.2-5.7c0-1.2-0.3-2.5-0.9-3.9c-0.7-1.6-1.6-2.7-2.7-3.5l-0.1,0l0,0.1
		l2.1,3.9l0,0l0,0c0.7,1.4,1,2.5,1,3.5c0,1.2-0.3,2.7-0.9,4.6l0,0l0,0l-0.8-3.2c-1.2-5-1.8-8.1-1.8-9.2c0-1.4,0.2-3.1,0.6-5.2l0,0
		c0.4-2.1,0.6-3.8,0.6-5.3l0,0L64.9,42.8L64.9,42.8L64.9,42.8z"/>
</g>
</svg>
