<?xml version="1.0" encoding="utf-8"?>
<!-- Generator: Adobe Illustrator 25.4.1, SVG Export Plug-In . SVG Version: 6.00 Build 0)  -->
<svg version="1.1" id="MysteriousStranger_x2C_PerkClip_x5F_4c929" image-rendering="optimizeSpeed"
	 xmlns="http://www.w3.org/2000/svg" xmlns:xlink="http://www.w3.org/1999/xlink" x="0px" y="0px" viewBox="0 0 240 240"
	 style="enable-background:new 0 0 240 240;" xml:space="preserve">
<style type="text/css">
	.st0{fill:#FFFFFF;}
</style>
<g>
	<rect width="240" height="240"/>
	<path class="st0" d="M89.4,223.4c0.1,0.8,2.3,1.4,6.6,1.9c4.2,0.4,9.1,0.6,14.8,0.4c-4.1-0.7-6.7-2.7-7.8-5.8l-8,1
		c-3,0.6-4.8,1.3-5.4,2.1C89.4,223.1,89.3,223.2,89.4,223.4 M129.7,231.9c0.4-0.2,0.8-0.2,1.1,0.1l1.8,1.5l6.2-0.8l1.1-4
		c-7.1,1-13.1,1-17.8,0.1c-2.9-0.6-5.2-1.5-6.8-2.6l-2,0.9l-0.6,0.5c-2.4,0.8-4.6,1.7-6.8,2.7c-2.6,1.3-4.1,2.3-4.5,3.2l-0.1,0.3
		c0.6,1.1,4.5,1.5,11.8,1.2C120.7,234.6,126.2,233.6,129.7,231.9 M108,210.5c-1,0.4-2.1,0.4-3.2-0.1v8.4c0.1,1,0.6,1.9,1.6,2.8
		c1.8,1.6,4.5,2.4,8.2,2.4v-11.5C111.9,211.8,109.7,211.1,108,210.5 M126.7,214.5l-10.2-1.6v11.6c0.9,0.7,2.8,1.1,5.9,1.4
		c4.4,0.3,10.3-0.1,17.8-1.2c0.4-1.6,0.7-3.2,0.9-5l0.4-4.6L126.7,214.5 M106.8,138.9l-0.5-0.1c-1.2,14-2,25.9-2.5,35.4l-0.4,7.7
		c-0.5,7.7-0.7,13.1-0.7,16.2c0,5.6,0.6,8.9,1.6,9.8c0.9,0.5,1.8,0.7,2.7,0.6L106.8,138.9 M153.3,147.4l-2.9-16.3
		c-9.3,3-17,4.6-22.9,4.7c-3.9,0.1-6.9-0.4-8.8-1.6c-3.7,2.7-7,4.2-10,4.5l0.2,70c2.7,1,6.3,1.9,10.6,2.7c7.2,1.3,15.2,1.8,24,1.5
		l0.2,0l6.5-0.1c4.3-0.5,6.5-1.8,6.6-4.1c0.1-10.2-0.2-22-0.8-35.3C155.8,165.2,154.8,156.5,153.3,147.4 M101.8,74.5
		c0.8-0.8,1.2-1.6,1.2-2.4c0-0.4-0.3-0.8-0.8-1.2c-0.6-0.5-1.8-0.4-3.5,0.4c-1.4,0.6-2.8,1.4-4.4,2.6l1.8,2.2L101.8,74.5
		 M111.4,81.2l-2.1-2.6l-1,1.9L111.4,81.2 M116.5,85.7c0.1,1.4-0.5,3.7-1.8,7l4.2-5.3l-0.1-2c-0.9-0.1-1.8-0.4-2.6-0.8L116.5,85.7
		 M102.1,54.6l0.1-2.9l1-7.6L96.6,45c-2.1,0.5-3.6,1.2-4.6,2.1C88.4,50.8,91.7,53.2,102.1,54.6 M168.5,63.9h-2.4l-11,1.3
		c-7.6,0.8-12.9,1.8-15.9,2.9c-3.6,1.3-7.5,2.4-11.5,3.4c-4.3,1.1-7.6,1.6-9.8,1.7c1.2,1.7,2,3.8,2.4,6.3l0.6,5.9
		c1.8-0.9,3.7-1.5,5.8-2c3.4-0.8,6.4-0.7,9,0.2c2.9,1,5,3.1,6.4,6.2c-2.1-1.1-3.4-1.9-4-2.5c-0.9-0.9-1.9-1.5-3-1.9
		c-2.2-0.8-5-0.8-8.2-0.1c-1.8,0.4-3.5,1-5.1,1.8l-9,11.4c1.2,3.4,2,6.4,2.4,9c0.7,3.8,0.4,6.1-0.8,6.9l-2,0.2
		c-0.8-0.4-1.4-1.7-1.9-3.9l-1.2,4.6c-0.2,0.6-0.6,0.8-1.2,0.7c-0.6-0.1-0.9-0.5-0.8-1.1l1.8-15.2c-1-1.5-2.2-2.8-3.8-3.9
		c-1.5-1.1-2.8-1.7-4-1.9c-2.3,1.7-4.4,3.4-6.2,5.1c-3.4,3.3-5.8,6.8-6.9,10.6c0.3,2.8,1.9,6.9,4.8,12.2c4.1,7.5,8.9,11.6,14.2,12.1
		c5.3,0.6,12.3-3.7,21.1-12.9c4.4-4.6,8.3-9.4,11.6-14.2l3.4-2.1c-1.5,2.8-3.3,5.8-5.4,9c-4.1,6.3-7.9,10.9-11.4,13.9l-5,4.2
		c5.2,0.4,11,0,17.5-1.2c6.6-1.2,10.7-2.6,12.4-4.3c1.5-1.4,3.7-5.5,6.6-12.2c2.4-5.3,4.1-10.1,5.3-14.4l1.2-5.8
		c0.6-3.8,0.2-7.5-1.2-11.1l-2.4-4.2c-3.3-0.8-6.6-1-9.9-0.7l-10.6,2.2l-0.7-0.1l-0.4-0.6c-0.2-0.6,0-1,0.6-1.2l10.9-2.4l6.6-0.4
		l2.7,0.5L168.5,63.9 M129.4,68.2c3.8-0.5,6.9-1.2,9.1-2.1c2-0.7,6.8-1.5,14.5-2.4l10.3-1.2l0.7-0.2h0.1c0.6-3,1-6.2,1-9.7l-1.8,0.4
		l-4.6,0.6c-6.4,0.4-12.6-0.6-18.6-3c-5.5-2.2-10.9-3.9-16.2-5.1v0.1c-0.1,0.5-0.6,1.1-1.5,1.8l-2,1.6c2.3,0.7,3.8,1.3,4.4,1.6
		l3.9,2.3c1.5,1,2.3,1.7,2.3,2.1c0,0.7-0.8,0.5-2.4-0.6c-2.3-1.6-3.8-2.4-4.2-2.6l-4.5-1.4c-1-0.3-1.4-0.7-1.3-1.3
		c0.1-0.6,0.4-0.9,1-0.8l-0.1-0.1c1.6-0.8,2.6-1.7,3-2.9l-4.6-0.9l-11.7-0.6l-0.4,2c3.6,0.3,5.7,1,6.1,2.1l-1.6,0.4l-2.5,0.2
		l-2.6,0.7l-0.3,3.1l0.5,1.1l0.7,0.1c0.3-0.3,0.8-0.5,1.4-0.6c0.5,0,1,0.4,1.4,1.2c0.4,0.8,0.7,1.9,0.9,3.1c0.1,1.3,0.1,2.4-0.2,3.3
		c-0.2,0.9-0.6,1.4-1.1,1.4c-0.4,0-0.9-0.4-1.6-1.2c-0.7-0.8-1.2-1.8-1.6-2.8l-0.5-0.3l0.2,2.7c0.2,2.1,0.4,3.9,0.8,5.4
		c1.4,5.2,3.1,9.3,5.3,12.1c2,2.7,4.6,4.5,7.6,5.4l-0.7-3.8v-0.3l-0.6-2.1c-0.9-2.8-2-4.8-3.3-6c-0.4-0.3-0.5-0.6-0.3-1.1
		c0.2-0.4,0.5-0.7,1-0.7l12.2-0.8c0.9-2.1,1-4.1,0.4-6.1c-0.3-0.9-0.7-1.4-1.3-1.6L124,61c-0.6,0.2-1,0.4-1.4,0.6h-1.1
		c-0.8-0.1-1.3-0.3-1.5-0.6c-0.2-0.3,0-0.6,0.5-0.9l0.9-0.3c0.4-0.3,1-0.6,1.8-0.9l3.4-0.1c1.3,0.5,2.2,1.5,2.7,3
		c0.6,1.8,0.7,3.6,0.3,5.4L129.4,68.2 M121.1,51.9l2.1,1c1,0.4,1.8,0.9,2.4,1.3c1.3,0.9,1.9,1.5,1.7,1.8c-0.1,0.4-0.7,0.3-1.9-0.4
		c-1.4-0.9-2.2-1.5-2.6-1.7c-0.4-0.2-1-0.4-1.9-0.5l-1.5-0.3c-0.6-0.2-0.9-0.6-0.8-1.1c0.1-0.5,0.4-0.7,0.8-0.7L121.1,51.9
		 M118.8,54.6c0.1-0.2,0.3-0.3,0.6-0.3l2.5,0.7l1.8,0.8l1,1.1c0.2,0.3,0.1,0.4-0.1,0.4c-0.2,0.1-0.6,0-1.1-0.3l-1.8-0.9
		c-1.2-0.2-2-0.5-2.4-0.8C118.8,55.1,118.7,54.9,118.8,54.6 M122.9,58.1c-0.2,0.4-0.5,0.5-0.9,0.3c-0.3-0.2-0.7-0.2-1.4,0l-0.9,0.2
		c-0.4,0.2-0.7,0.1-0.9-0.3c-0.2-0.4-0.1-0.7,0.2-0.9c0.5-0.2,1-0.4,1.6-0.5l1.8,0.2C123,57.5,123.1,57.8,122.9,58.1 M84.5,102.1
		c-0.6,1.6-0.2,3.1,1.3,4.5c2.3-3.5,6.1-7.9,11.4-13.2C93,95.2,88.8,98.1,84.5,102.1 M66.9,89.2l-2.2,1.2c-0.2,0.6-0.1,1.1,0.2,1.6
		c0.3,0.5,0.9,0.7,1.9,0.8l1.9-0.1C67.9,91.8,67.3,90.7,66.9,89.2 M69.9,92.4c2.4-0.5,4.7-1.3,7-2.4c0.7-0.7,1.4-1.2,2.3-1.6
		c-0.4-2.1-0.6-4-0.4-5.8l-10.9,6.1C68.2,90.5,68.9,91.7,69.9,92.4 M84.6,80.8l-1.1-0.1c-0.7-0.5-1.3-0.7-1.8-0.6
		c-0.3,0.1-0.6,0.5-0.7,1c-0.4,1.2-0.4,2.9-0.2,5l0.5,2.8l-0.1,0.8L80.6,90l-1.1,0.5c-0.8,0.4-1.3,0.9-1.6,1.5
		c-0.4,1-0.2,2.2,0.6,3.9c1,1.7,2.2,2.8,3.8,3.2l2.5,0.2c4.8-4.6,9.9-7.6,15.4-8.9c1.4-2.3,1.8-4.3,1.1-5.9
		c-0.2-0.3-0.1-0.6,0.1-0.9l1.4-2.8c0.8-2,0.8-3.6,0.1-4.6l-7,1.9c-0.5,0.2-0.9,0-1.1-0.4c-1-1.6-2.2-3-3.5-4.1
		c-1.5-1.4-2.7-1.9-3.5-1.4c-1,0.5-1.7,1.7-2.2,3.6c-0.4,1.4-0.6,2.7-0.6,4.1C85.1,80.2,85,80.6,84.6,80.8 M118.2,14.1
		c-0.6,0.5-1.4,1.5-2.5,3.1c-3.1,4.5-5.9,9.9-8.2,16.1c3.6-1,7.6-1.4,12-1.2l12.1,1.4l15.6,3.1c6.6,0.9,11.6,0.2,15.2-1.9
		c-0.1-2.2-0.7-4.6-1.8-7.1l-6-12.8c-1.2-2.4-2.5-4.2-3.9-5.2c-2.4-1.8-5.9-1.8-10.6-0.2c0,0.2-0.1,0.3-0.4,0.5
		c-0.7,0.5-1.9,0.9-3.6,1.2l-4,1.9c-4,1.9-7.9,3.3-11.6,4.4l-1.2,0.1c-0.6,0-0.9-0.2-0.9-0.6c0.4-2.3,1.7-3.8,3.9-4.8l-1,0.2
		C120.1,12.8,119,13.4,118.2,14.1 M125.9,13.1c-1.4,0.5-2.4,1.2-2.9,2.1l7.4-3.1L125.9,13.1 M178.7,42.4c3-3.5,3.1-6.2,0.2-8.1
		c-3.6-2.3-7.9-3.6-13.1-4.1l0.6,3.9v0.1l-0.2,0.4l-2.8,1.6c-3.6,1.8-7.8,2.6-12.4,2.6c-3.6,0-8.7-0.7-15.1-2.1
		c-7.4-1.6-12.5-2.5-15.2-2.8c-5.7-0.6-10.6-0.1-14.8,1.5l-1.6,0.3c-3.9,1.9-6.5,3.3-7.9,4.2c-3.1,1.9-5.1,3.9-6.2,6.1l1.2-0.7
		c5.6-2.7,12.4-3.9,20.3-3.6c6,0.2,12.9,1.3,20.5,3.2c1.8,0.5,4.7,1.5,8.6,3.2c3.6,1.5,6.5,2.5,8.6,3c5,1.1,9.6,1.2,13.9,0.3
		c2.6-0.5,5.1-1.4,7.4-2.7C173.9,47,176.5,44.9,178.7,42.4z"/>
	<path class="st0" d="M65.4,76.1l-0.1-0.2c-1,1.7-1.5,4.3-1.5,7.6l0.2,2.6c0.2,1.7,0.6,2.6,1.2,2.6l0.2-0.1l0-0.2l-0.4-1l-0.5-1.4
		l-0.2-2.4c0-1.6,0.2-3.2,0.6-4.9L65.4,76.1 M61.4,58.6l3.3,7c1.7,3.8,2.5,6.9,2.4,9.4v7.6l0.3,0.2l0.2-0.1v-7.8
		c0-1.9-0.7-4.7-1.9-8.4l-2.4-4.2l-0.8-2.1C62.2,59.3,61.9,58.8,61.4,58.6 M63.8,39.8c-0.2,0.2-0.2,0.4-0.2,0.8
		c0,0.6,0.4,2.2,1.4,5.1c0.9,2.8,1.3,5.5,1.3,8.1c0,3.3-0.1,5.7-0.4,7.2v2.3l0.2,0.1l0.2-0.1l0.3-12.9c-0.1-1.1-0.4-2.3-0.8-3.6
		L63.8,39.8z"/>
	<path class="st0" d="M63.8,39.8L63.8,39.8l2,7l0,0c0.4,1.3,0.7,2.5,0.8,3.6l0,0l0,0l-0.3,12.9L66,63.3l-0.2-0.1l0-2.3h0l0,0
		c0.3-1.5,0.4-3.9,0.4-7.2c0-2.6-0.4-5.3-1.3-8.1c-0.9-2.8-1.3-4.5-1.3-5C63.5,40.3,63.6,40,63.8,39.8L63.8,39.8L63.8,39.8
		L63.8,39.8L63.8,39.8c-0.2,0.1-0.3,0.4-0.3,0.8c0,0.6,0.5,2.3,1.4,5.1c0.9,2.8,1.3,5.5,1.3,8.1c0,3.3-0.1,5.7-0.4,7.2l0,0v2.3l0,0
		l0.2,0.1h0l0.2-0.1l0,0l0.3-12.9l0,0c-0.1-1.1-0.4-2.3-0.8-3.6l0,0l0,0L63.8,39.8L63.8,39.8L63.8,39.8L63.8,39.8z M62.6,60.1
		L62.6,60.1l0.8,2.1l0,0l2.4,4.2l0,0l0,0c1.2,3.7,1.8,6.4,1.8,8.3l0,0h-0.1v7.8l-0.1,0l-0.3-0.2v-7.5h0l0,0c0-0.2,0-0.4,0-0.5
		c0-2.4-0.8-5.4-2.4-8.9l-3.3-7l0,0l0,0C61.8,58.8,62.2,59.3,62.6,60.1L62.6,60.1L62.6,60.1L62.6,60.1c-0.3-0.9-0.6-1.4-1.1-1.6
		l-0.1,0l0,0.1l3.3,7c1.6,3.5,2.4,6.4,2.4,8.8c0,0.2,0,0.4,0,0.5l0,0v7.6l0,0l0.3,0.2l0,0l0.2-0.1l0,0v-7.8l0,0
		c0-1.9-0.7-4.7-1.9-8.4l0,0l-2.3-4.2L62.6,60.1L62.6,60.1L62.6,60.1L62.6,60.1z M64.9,78.6L64.9,78.6c-0.4,1.7-0.7,3.3-0.7,4.9l0,0
		l0.2,2.4l0,0l0.5,1.4l0,0l0.4,0.9l0,0.2l-0.2,0.1l0,0v-0.1c-0.5,0-0.9-0.8-1.1-2.5l0,0l0,0l-0.2-2.6l0,0h0c0-3.3,0.5-5.9,1.5-7.6
		l0,0l0,0l0.1,0.2L64.9,78.6L64.9,78.6L64.9,78.6l0.6-2.4l0,0l-0.1-0.2l0,0l0,0c-1,1.7-1.5,4.3-1.5,7.6l0,0l0.2,2.6l0,0
		c0.2,1.7,0.6,2.6,1.2,2.6l0,0l0.2-0.1l0,0l0-0.2l0,0L65,87.4l-0.5-1.4l-0.2-2.4l0,0h0C64.3,81.9,64.5,80.3,64.9,78.6L64.9,78.6z"/>
</g>
</svg>
