<?xml version="1.0" encoding="utf-8"?>
<!-- Generator: Adobe Illustrator 25.4.1, SVG Export Plug-In . SVG Version: 6.00 Build 0)  -->
<svg version="1.1" id="MysteriousStranger_x2C_PerkClip_x5F_4c929" image-rendering="optimizeSpeed"
	 xmlns="http://www.w3.org/2000/svg" xmlns:xlink="http://www.w3.org/1999/xlink" x="0px" y="0px" viewBox="0 0 240 240"
	 style="enable-background:new 0 0 240 240;" xml:space="preserve">
<style type="text/css">
	.st0{fill:#FFFFFF;}
</style>
<g>
	<rect width="240" height="240"/>
	<path class="st0" d="M89.4,223.4c0.1,0.8,2.3,1.4,6.6,1.9c4.2,0.4,9.1,0.6,14.8,0.4c-4.1-0.7-6.7-2.7-7.8-5.8l-8,1
		c-3,0.6-4.8,1.3-5.4,2.1L89.4,223.4 M129.7,231.9c0.4-0.2,0.8-0.2,1.1,0.1l1.8,1.6l6.2-0.8l1.1-4c-7.1,1-13.1,1-17.8,0.1
		c-2.9-0.6-5.2-1.5-6.8-2.6l-2,0.9l-0.6,0.5c-2.4,0.8-4.7,1.7-6.8,2.7c-2.6,1.3-4.1,2.3-4.5,3.2l-0.1,0.4c0.6,1.1,4.5,1.5,11.8,1.2
		C120.7,234.7,126.2,233.6,129.7,231.9 M108,210.5c-1,0.3-2.1,0.3-3.2,0v8.3c0.1,0.9,0.6,1.9,1.6,2.8c1.8,1.6,4.5,2.4,8.1,2.4v-11.5
		C111.9,211.9,109.7,211.2,108,210.5 M126.7,214.5l-10.2-1.6v11.6c0.9,0.7,2.8,1.1,5.9,1.4c4.4,0.3,10.3-0.1,17.8-1.2
		c0.4-1.6,0.7-3.3,0.9-5.1l0.4-4.5L126.7,214.5 M106.8,138.9l-0.5,0c-1.2,14-2,25.8-2.5,35.4l-0.4,7.7c-0.5,7.7-0.7,13.1-0.7,16.2
		c0,5.6,0.6,8.9,1.6,9.9c0.9,0.5,1.8,0.7,2.7,0.6L106.8,138.9 M153.3,147.5l-2.9-16.3c-9.3,3-16.9,4.6-22.8,4.7
		c-4,0.1-6.9-0.4-8.8-1.6c-3.7,2.7-7,4.2-10,4.5l0.2,69.9c2.7,1,6.3,1.9,10.6,2.7c7.3,1.3,15.3,1.8,24.1,1.5l0.1-0.1l6.5,0
		c4.3-0.5,6.5-1.8,6.6-4.1c0.1-10.2-0.2-22-0.8-35.2C155.8,165.2,154.8,156.6,153.3,147.5 M156.7,140.9l-1-0.7l-1.1-1l-0.4,0.6
		l1.5,8.2c0.8-1,1.4-2.1,1.9-3.1c0.6-1.2,0.8-2.1,0.6-2.8C157.9,141.5,157.4,141.1,156.7,140.9 M152.8,128.1l-0.4,0.8
		c-0.2,0.4-0.2,0.7-0.2,0.9l0.5,2.2l1.2,0.8c1.1,0.9,1.7,2,1.7,3.1c0.7-2.1,1.5-5.1,2.4-9c1-4.8,1.8-9.3,2.3-13.5l-4.5,9.7
		C154.4,125.8,153.4,127.5,152.8,128.1 M101.8,74.6c0.8-0.8,1.2-1.6,1.2-2.4c0-0.4-0.3-0.8-0.8-1.2c-0.6-0.5-1.8-0.3-3.4,0.4
		c-1.4,0.6-2.9,1.4-4.4,2.5l1.8,2.2L101.8,74.6 M117.7,78.8c-1.6-1.6-3.1-3.5-4.4-5.6c-2.9,3.7-4.6,6.2-5.1,7.4
		c5.4,0.7,8.1,2.4,8.3,5.1c0.1,1.4-0.5,3.7-1.8,7l4.2-5.4c-0.1-2.3-0.4-4.7-1-7.3L117.7,78.8 M98.1,50.2c-1.5-0.2-1.8,0.4-1.1,1.7
		c0.6,1.1,1.3,1.8,1.9,2.1c1.4,0.6,2.9,1,4.5,1.2l5.2,0.6l0.1-2.9l-1.1-0.9L98.1,50.2 M168.5,63.9L156.8,65
		c-8.5,0.9-14.4,2-17.5,3.1l-11.5,3.4c-4.3,1.1-7.6,1.6-9.8,1.7c1.2,1.7,2,3.8,2.4,6.3l0.6,5.9c1.8-0.9,3.7-1.5,5.8-2
		c3.4-0.8,6.4-0.7,9,0.2c2.9,1,5,3.1,6.4,6.2c-2.1-1.1-3.4-1.9-4-2.4c-0.9-0.9-1.9-1.5-3-1.9c-2.2-0.8-5-0.8-8.2-0.1
		c-1.8,0.4-3.5,1-5.1,1.8l-9,11.4c1.2,3.4,2,6.4,2.4,9c0.7,3.8,0.4,6.2-0.8,6.9l-2,0.2c-0.8-0.4-1.4-1.7-1.9-3.9l-1.2,4.6
		c-0.2,0.6-0.6,0.8-1.2,0.7c-0.6-0.1-0.9-0.5-0.8-1.1l1.8-15.2c-1-1.5-2.2-2.8-3.8-3.9c-1.4-1.1-2.8-1.7-4-1.9
		c-2.3,1.7-4.4,3.4-6.2,5.1c-3.4,3.3-5.8,6.8-6.9,10.6c0.3,2.8,1.9,6.9,4.8,12.2c4.1,7.5,8.9,11.5,14.2,12.1
		c5.3,0.6,12.3-3.7,21.1-12.9c4.4-4.6,8.3-9.4,11.7-14.2l3.3-2.2c-0.8,1.8-2.6,4.8-5.3,9c-4.1,6.3-7.9,10.9-11.4,14l-5.1,4.2
		c5.2,0.4,11,0,17.5-1.2c6.6-1.2,10.7-2.6,12.4-4.3c1.5-1.4,3.7-5.5,6.6-12.2c3.5-7.8,5.6-14.5,6.6-20.2c0.6-3.8,0.2-7.5-1.2-11.1
		l-2.4-4.2c-3.3-0.8-6.6-1-9.9-0.7l-10.6,2.2c-0.6,0.1-1-0.1-1.1-0.7c-0.2-0.6,0-1,0.6-1.2l10.9-2.4l6.6-0.4l2.7,0.5L168.5,63.9
		 M142,49.1l-0.5,0.2c-4.4,1-9,1.8-14,2.2c0.9,0.4,1.5,1.4,1.8,3c0.2,1,0.1,1.8-0.1,2.6c-0.2,0.7-0.6,1.1-1.2,1.2
		c-0.5,0.1-1-0.1-1.5-0.8c-0.5-0.6-0.8-1.4-0.9-2.4c-0.1-0.7-0.2-1.3-0.1-1.9l0,0.1l-2.6,0.2c-1.2-0.1-1.8-0.6-1.7-1.4l0.9-0.2
		l-5.9,0.4c0.3,0,0.4,0.3,0.4,0.9l0.1,1.8l-1,8.4l0.1,0.9c0.1,0.3,0.3,0.6,0.5,0.7l2.7,1.8l0.4,0.6l-0.4,0.6l-0.8,0.6l-1.7-0.1
		l-3.3-2.4c-0.5-0.4-0.7-0.9-0.5-1.6l2-6.4l0.6-4.6c0.1-0.7,0.3-1,0.6-1.1l-5.3,0.1l-0.1,4.1l0.2,1.7c0.4,3.9,1.5,7.7,3.4,11.5
		c0.2-0.1,0.3-0.2,0.5-0.2l8.9-0.5c6.5-0.6,11.6-1.5,15.1-2.8c2.2-0.8,8.8-1.8,19.8-3.1l0-0.3c-0.9-1.7-2.1-2.6-3.5-2.6
		c-1.4,1.3-3,1.7-4.9,1.4c-0.7-0.1-0.7-0.4,0-0.9s1.3-0.7,1.8-0.6c0.9,0.2,1.6-0.7,2.1-2.6c0.4-1.5,0.5-2.8,0.4-3.9
		c-0.1-1.6-0.5-2.8-1.2-3.4c-0.6-0.5-1.2-0.6-1.9-0.2l-1.7,1.5c-0.3,0.3-0.7,0.5-1.3,0.7l-1.4-0.2C145.7,50.7,144.1,49.7,142,49.1
		 M143,53.6c-0.5-0.2-0.7-0.4-0.6-0.8c0.1-0.4,0.2-0.6,0.6-0.5c1,0.1,2,0.4,2.8,0.9l1.7,1.2c0.6,0.5,0.9,0.9,0.9,1.1
		c0,0.4-0.3,0.3-1.1-0.1l-2-1.2L143,53.6 M144,57.1c-0.4-0.1-0.5-0.3-0.4-0.7c0.1-0.4,0.3-0.5,0.6-0.4c0.5,0.1,1,0.2,1.5,0.6
		l1.1,1.2c0.2,0.5,0.1,0.8-0.3,0.9c-0.4,0.1-0.6,0-0.8-0.3c-0.1-0.3-0.4-0.6-1-0.9L144,57.1 M164.2,40.8l-2.6,0.6
		c-2,0.6-4.7,1.7-8.2,3.3l-8.2,3.4c1.3,0.5,2.5,1.1,3.4,2c2-1.3,3.8-1.8,5.4-1.6c1.9,0.2,2.9,1.6,3.1,4.1c0.3,2.3-0.1,4.4-1.2,6.2
		c1.9,0.2,3.4,1.5,4.6,3.7c2.2-2.8,3.5-6.3,4.1-10.4C165.1,48.4,165,44.7,164.2,40.8 M84.5,102.2c-0.6,1.6-0.2,3.1,1.3,4.5
		c2.3-3.5,6.1-7.9,11.4-13.2C93,95.3,88.8,98.2,84.5,102.2 M66.9,89.2l-2.2,1.2c-0.2,0.7-0.1,1.2,0.2,1.6c0.3,0.4,0.9,0.7,1.9,0.8
		l1.9-0.1C67.9,91.9,67.3,90.8,66.9,89.2 M69.9,92.4c2.2-0.5,4.6-1.3,7.1-2.4c0.6-0.6,1.3-1.2,2.2-1.6c-0.4-2.1-0.6-4-0.4-5.8
		l-11,6.1C68.2,90.6,68.9,91.8,69.9,92.4 M84.6,80.8l-1.1-0.1c-0.7-0.5-1.3-0.7-1.8-0.6c-0.3,0.1-0.6,0.5-0.7,1
		c-0.4,1.2-0.4,2.9-0.2,5l0.5,2.8l-0.1,0.8l-0.6,0.4l-1.1,0.5c-0.8,0.4-1.3,0.9-1.6,1.5c-0.4,1-0.2,2.2,0.6,3.8
		c1,1.7,2.2,2.8,3.8,3.2l2.5,0.2c4.8-4.6,9.9-7.6,15.4-8.9c1.4-2.3,1.8-4.3,1.1-5.9c-0.1-0.4-0.1-0.7,0.1-0.9l1.4-2.8
		c0.8-2,0.8-3.6,0.1-4.6l-7,1.9c-0.5,0.2-0.9,0-1.1-0.4c-1-1.6-2.2-3-3.5-4.1c-1.5-1.4-2.7-1.8-3.5-1.4c-1,0.5-1.7,1.6-2.2,3.6
		c-0.4,1.4-0.6,2.7-0.6,4C85.1,80.3,85,80.6,84.6,80.8 M136,12.1c-2.2,0.7-3.7,1.3-4.6,1.8c-1.5,0.8-2.6,1.9-3.1,3.1
		C130.2,16.1,132.8,14.5,136,12.1 M120,13.8c-1.5,1.6-2.7,3.3-3.7,5.2c-1.9,3.7-3.2,6.5-3.9,8.4c-1.7,4.3-1.9,6.9-0.6,7.8
		c3.2,2.1,7.7,2.6,13.6,1.5c3.3-0.6,7.9-1.8,13.8-3.5c4.3-1,7.9-1.7,10.6-2.1c3.9-0.5,7.5-0.6,10.7-0.2c-0.2-4-1.1-8.1-2.9-12.3
		c-1.2-2.9-2.1-4.9-2.9-6.1c-1.5-2.4-3.2-3.8-5-4.1c-2.5-0.5-5.1,0.1-8,1.9c-3,2.4-5.2,4.1-6.7,5c-2.6,1.8-5.6,3.2-9.1,4.4l-1.2,0.1
		c-0.6,0-0.9-0.2-0.9-0.6c0.4-2.6,2-4.5,4.6-5.8c1.5-0.7,4-1.6,7.5-2.6c-3.9,0.1-8.3,0.7-13.1,1.8l-1.7,0.4L120,13.8 M180.8,40.1
		c-1.1-2.1-3.4-4.1-6.8-5.8c-3.7-1.8-6.9-3-9.6-3.7v1c0,0.5-0.5,0.9-1.5,1.2l-2.1,0.1c-4.9-0.9-10.9-0.6-17.9,0.9
		c-7.9,2-13.8,3.4-17.8,4.1l-12.4,0.4l-2.2-0.6c-1.1-0.4-2-0.8-2.7-1.3c-2.6,1.6-4.9,3.3-6.9,5.2c-2.7,2.5-4.3,4.7-4.9,6.8l0.9-0.2
		l3.8,0.1l3.8,0.8c4.1,0.9,8.7,1.3,13.9,1.1l10.6-0.6l10.5-1.6c0.7-0.4,1.2-0.6,1.6-0.6l0.7,0.1l0.5-0.1c2.3-0.6,5.7-2,10.2-4.1
		c4.4-2,7.8-3.3,10.2-3.9c5.1-1.3,10.6-1.2,16.7,0.4L180.8,40.1z"/>
	<path class="st0" d="M62.4,53.2c-0.2,0.2-0.2,0.5-0.2,0.9c0,3.3,0.8,7,2.3,11.1c1.4,3.7,2.2,6.5,2.3,8.4l-1.4,3.2
		c-0.9,2.1-1.3,4.3-1.3,6.4c0,2.6,0.2,4.5,0.5,5.7l0.2,0l0.3-0.2c-0.3-1.4-0.5-3.3-0.5-5.5c0-2.8,0.7-5.5,2.2-8.1l0-0.1l-0.4,4.3
		c0,0.5,0.1,0.9,0.2,1l0.3-0.1l0.4-6.2c1-2,1.5-3.3,1.5-3.9l-0.2-0.3l-1.3,2.7l-0.6-3.4l-2.1-5.6c-0.9-2.6-1.4-4.3-1.6-5.2
		L62.4,53.2 M62.9,32.4c0,0.6,0.4,2.2,1.4,5c0.9,2.8,1.3,5.5,1.3,8.1c0,3.3-0.1,5.7-0.4,7.2V55l0.2,0.1l0.2-0.1l0.3-12.9
		c-0.1-1.1-0.4-2.3-0.8-3.6l-2-7C63,31.7,62.9,32,62.9,32.4z"/>
	<path class="st0" d="M62.9,32.4L62.9,32.4c0-0.4,0.1-0.7,0.3-0.8l0,0l0,0l2,7l0,0c0.4,1.3,0.7,2.5,0.8,3.6l0,0l0,0L65.6,55L65.4,55
		L65.2,55l0-2.3h0l0,0c0.3-1.5,0.4-3.9,0.4-7.2c0-2.6-0.4-5.3-1.3-8.1C63.4,34.6,62.9,32.9,62.9,32.4L62.9,32.4L62.9,32.4L62.9,32.4
		L62.9,32.4L62.9,32.4c0,0.6,0.4,2.3,1.3,5.1c0.9,2.8,1.3,5.5,1.3,8.1c0,3.3-0.1,5.7-0.4,7.2l0,0V55l0,0l0.2,0.1h0l0.2-0.1l0,0
		L66,42.1l0,0c-0.1-1.1-0.4-2.3-0.8-3.6l0,0l0,0l-2-7l0,0l0,0C62.9,31.6,62.9,31.9,62.9,32.4L62.9,32.4L62.9,32.4L62.9,32.4z
		 M62.4,53.2L62.4,53.2l0.5,5.3l0,0c0.2,0.9,0.7,2.7,1.6,5.3l0,0l2.1,5.6l0.6,3.3l0,0l0.1,0l1.3-2.6l0.2,0.2l0,0h-0.1
		c0,0.6-0.5,1.9-1.5,3.9l0,0l-0.4,6.2l-0.3,0.1l0,0l0,0c-0.1-0.1-0.2-0.4-0.2-1h0l0,0l0.4-4.3l0-0.1l-0.1,0l0,0.1l0,0l0,0
		c-1.4,2.6-2.2,5.3-2.2,8.1c0,2.2,0.2,4.1,0.5,5.5l0,0l0,0l-0.3,0.2l-0.2,0l0,0l0,0C64.2,87.9,64,86,64,83.4c0-2.2,0.4-4.3,1.3-6.4
		l0,0l0,0l1.4-3.2l0,0c-0.1-1.9-0.9-4.7-2.3-8.5c-1.5-4.1-2.3-7.8-2.3-11.1C62.1,53.7,62.2,53.4,62.4,53.2L62.4,53.2L62.4,53.2
		L62.4,53.2L62.4,53.2c-0.2,0.1-0.3,0.5-0.3,0.9c0,3.3,0.8,7,2.3,11.1c1.4,3.7,2.2,6.5,2.3,8.4l0,0l0,0l-1.4,3.2l0,0
		c-0.9,2.1-1.3,4.3-1.3,6.5c0,2.6,0.2,4.5,0.5,5.7l0,0l0.2,0l0,0L65,89l0-0.1c-0.3-1.4-0.5-3.3-0.5-5.5c0-2.8,0.7-5.5,2.1-8l0,0
		l0-0.1l0,0l0,0l-0.4,4.3l0,0c0,0.5,0.1,0.9,0.3,1l0,0l0.3-0.1l0,0l0.4-6.2l0,0l0,0c1-2,1.5-3.3,1.5-3.9l0,0L68.5,70l0,0l0,0
		l-1.2,2.6l-0.6-3.2l0,0l-2.1-5.6l0,0l0,0c-0.9-2.6-1.4-4.3-1.5-5.2l0,0l0,0L62.4,53.2L62.4,53.2L62.4,53.2L62.4,53.2z"/>
</g>
</svg>
