<?xml version="1.0" encoding="utf-8"?>
<!-- Generator: Adobe Illustrator 25.4.1, SVG Export Plug-In . SVG Version: 6.00 Build 0)  -->
<svg version="1.1" id="MysteriousStranger_x2C_PerkClip_x5F_4c929" image-rendering="optimizeSpeed"
	 xmlns="http://www.w3.org/2000/svg" xmlns:xlink="http://www.w3.org/1999/xlink" x="0px" y="0px" viewBox="0 0 240 240"
	 style="enable-background:new 0 0 240 240;" xml:space="preserve">
<style type="text/css">
	.st0{fill:#FFFFFF;}
</style>
<g>
	<rect width="240" height="240"/>
	<path class="st0" d="M89.4,223.4c0.2,0.8,2.3,1.4,6.5,1.9c4.2,0.4,9.2,0.6,14.8,0.4c-2.4-0.4-4.3-1.3-5.8-2.7c-1-0.9-1.6-2-2-3.1
		l-8,1c-3,0.6-4.8,1.3-5.5,2.1L89.4,223.4 M129.7,231.9c0.4-0.2,0.8-0.2,1.1,0.1l1.8,1.6l6.2-0.8l1.1-4c-7.1,1-13.1,1-17.8,0.1
		c-3-0.6-5.2-1.5-6.8-2.6l-2,0.9l-0.6,0.5c-2.4,0.8-4.6,1.7-6.8,2.7c-2.6,1.3-4.1,2.3-4.6,3.2l0,0.4c0.6,1.1,4.6,1.5,11.8,1.2
		C120.7,234.7,126.2,233.6,129.7,231.9 M114.5,212.5c-2.7-0.6-4.8-1.3-6.5-2c-1,0.4-2.1,0.4-3.3,0v8.3c0.2,1,0.8,2,1.6,2.8
		c1.8,1.6,4.5,2.4,8.1,2.4V212.5 M126.7,214.5l-10.2-1.6v11.6c0.9,0.7,2.9,1.1,5.9,1.4c4.4,0.3,10.3-0.1,17.8-1.2
		c0.4-1.6,0.7-3.3,0.8-5.1l0.3-4.5L126.7,214.5 M106.8,138.9l-0.5,0c-1.2,13.9-2,25.7-2.5,35.4l-0.4,7.7c-0.5,7.4-0.7,12.8-0.7,16.2
		c0,5.6,0.6,8.9,1.6,9.9c0.9,0.5,1.8,0.7,2.7,0.6L106.8,138.9 M153.3,147.5l-3-16.3c-9.3,3-16.9,4.6-22.8,4.7
		c-4,0.1-6.9-0.4-8.9-1.6c-3.6,2.7-6.9,4.2-9.9,4.5l0.2,69.9c2.8,1.1,6.4,2,10.6,2.7c7.2,1.3,15.2,1.8,24,1.5l0.2-0.1l6.5,0
		c4.4-0.5,6.6-1.8,6.6-4.1c0.1-10.2-0.1-22-0.8-35.2C155.8,165.2,154.8,156.6,153.3,147.5 M157.5,157.9c0,1.6,0.3,2.7,0.9,3.2
		c0.3,0.3,0.6,0.4,0.8,0.3c0.9-0.1,2-1.2,3.3-3.1l-0.5-4.6c-1,0.7-2.4,0.6-4.2-0.4C157.6,155.1,157.4,156.6,157.5,157.9
		 M158.4,165.9l0.5,0.1l0.4,0.2l0.9-0.1c1-0.4,1.8-1.9,2.4-4.4c-1.1,1.1-2.1,1.7-3,1.8l-1.4-0.2L158.4,165.9 M167,153.1
		c-0.3-1.7-0.9-2.9-1.6-3.5c-0.3-0.3-0.5-0.4-0.6-0.3c-0.4,0.1-0.8,0.8-1.1,2.1l0.9,8.2l0.8-0.2c0.8-0.4,1.4-1.3,1.8-2.7
		C167.3,155.5,167.2,154.3,167,153.1 M158.4,138.8l-0.4,0.5c-1.3,0.6-2.4,1.5-3.3,2.6l1.4,7.5l2,1.8c1.5,1.1,2.5,1.4,3,1.1
		c0.6-0.4,0.7-1.4,0.2-3c-0.4-1.2-1-2.4-1.7-3.5c-0.3-0.5-0.3-0.9,0.1-1.3c1.3-1.2,2.5-2.5,3.6-4c1.5-2.1,2.2-3.8,2-5
		c-0.1-0.8-0.6-1.4-1.5-1.8c-2.6-1.4-6-0.7-10.4,2.1l0.6,3.2c1.7-0.9,2.8-1.4,3.1-1.4c0.2-0.1,0.5-0.1,0.8,0l0.5,0.6V138.8
		 M166,95.2c0.4-0.2,0.6-1.4,0.6-3.6L166,95.2 M165,99.4c-1.6,5.7-3.9,11.8-6.8,18.4c-2.6,5.8-4.4,9.2-5.4,10.2l-0.4,0.8
		c-0.2,0.4-0.2,0.7-0.2,0.9l0.8,3.8c4.8-2.8,8.8-3.4,11.8-1.8c1.3,0.7,2.1,1.6,2.4,2.8c0.4-4,0.5-9.1,0.4-15.4
		C167.2,110.7,166.4,104.2,165,99.4 M102.1,71c-0.6-0.5-1.8-0.3-3.4,0.4c-1.4,0.6-2.8,1.4-4.4,2.5l1.8,2.2l5.6-1.6
		c0.8-0.8,1.2-1.6,1.1-2.4C102.9,71.8,102.6,71.4,102.1,71 M111.5,75.9l-1.6,2c-0.7,0.9-1.3,1.8-1.7,2.7c5.4,0.7,8.2,2.4,8.4,5.1
		c0.1,1.5-0.5,3.8-1.8,7l4.2-5.4l-0.3-4.7C115.9,80.9,113.5,78.7,111.5,75.9 M104.1,52.2l-2.5,1.4c-2,1.2-3.3,2-4,2.5
		c-1.6,1.2-2.6,2.4-3,3.6c-0.6,1.5,0,2,1.8,1.4l3.8-1.7c1.8-0.7,3.4-1.1,4.8-1.2v-1c-0.1-1.6,0-3,0.1-4.2L104.1,52.2 M168.5,63.9
		L156.8,65c-8.5,0.9-14.4,2-17.5,3.1l-11.6,3.4c-4.3,1.1-7.6,1.6-9.8,1.7c1.2,1.7,2,3.8,2.4,6.3c0.3,1.4,0.5,3.4,0.6,5.9
		c1.8-0.9,3.7-1.5,5.8-2c3.5-0.8,6.5-0.7,9,0.2c2.9,1.1,5,3.2,6.3,6.2c-2.1-1.1-3.4-1.9-3.9-2.4c-0.9-0.9-1.9-1.5-3-1.9
		c-2.3-0.8-5-0.8-8.2-0.1c-1.8,0.4-3.5,1-5.1,1.8l-9,11.4c1.2,3.4,2,6.4,2.4,9c0.6,3.8,0.3,6.2-0.9,6.9l-1.9,0.2
		c-0.9-0.4-1.5-1.7-1.9-3.9l-1.2,4.6c-0.1,0.6-0.5,0.8-1.1,0.7c-0.6-0.1-0.9-0.5-0.8-1.1l1.8-15.2c-1-1.5-2.2-2.8-3.8-3.9
		c-1.5-1.1-2.8-1.7-4-1.9c-2.3,1.7-4.4,3.4-6.2,5.1c-3.5,3.3-5.8,6.8-6.9,10.6c0.3,2.8,1.9,6.9,4.8,12.2c4.1,7.5,8.8,11.5,14.2,12.1
		c5.3,0.6,12.3-3.7,21.1-12.9c4.4-4.6,8.3-9.4,11.7-14.2l3.4-2.2c-1.5,2.8-3.3,5.8-5.4,9c-4.1,6.3-7.9,10.9-11.4,14l-5,4.2
		c5.2,0.4,11.1,0,17.5-1.2c6.6-1.2,10.7-2.6,12.4-4.3c1.4-1.4,3.6-5.5,6.6-12.2c3.5-7.8,5.6-14.6,6.5-20.2c0.6-3.8,0.2-7.5-1.2-11.1
		l-2.3-4.2l-3.1-0.5c-2.5-0.3-4.7-0.4-6.8-0.2l-10.6,2.2c-0.6,0.1-1-0.1-1.2-0.7c-0.1-0.6,0.1-1,0.7-1.2l10.9-2.4l6.6-0.4l2.7,0.5
		L168.5,63.9 M130.5,55.1c-0.1-0.7-0.1-1.4,0-1.9h-0.1l-2.7,0.2c-1.2-0.1-1.7-0.6-1.7-1.4c1,0.4,1.7,0.2,2.2-0.4l1.4-2.9l-8.4-0.9
		c-3,0-5.8,0.3-8.3,1.1c-2.2,0.7-4.1,1.4-6,2.2l-0.1,2.4c0.7-0.5,1.2-0.8,1.6-0.8c0.5,0,1.2,0.3,2.1,1.1l1.8,1.6
		c0.5,0.4,1.1,0.2,1.8-0.3c0.4,0.8-0.3,1.5-2.1,2.1c0.3,0.6,0.5,1.2,0.6,1.9c0.2,1,0.1,1.8-0.1,2.6c-0.2,0.7-0.6,1.1-1.2,1.2
		c-0.5,0.1-1-0.1-1.5-0.8c-0.5-0.6-0.8-1.4-0.9-2.3c-0.1-0.8-0.1-1.5,0-2.2c0.1-0.7,0.4-1.1,0.8-1.4l-1.1-1.6c-0.3-0.4-1-0.4-2-0.2
		l0.2,4c0.4,4.1,1.6,8.1,3.6,11.9c2,3.8,4.5,7,7.6,9.6l-0.7-2.8c-0.4-1.1-1-2.3-1.9-3.6l-1.7-2c-0.3-0.3-0.4-0.6-0.2-1.1
		c0.1-0.4,0.4-0.7,0.9-0.7l8.9-0.5c6.6-0.6,11.6-1.5,15.1-2.8c2.1-0.7,7.4-1.6,16-2.6l0.5-2l0.7-0.2c2.4-0.7,3.8-2.3,4.3-4.8
		c0.5-2.5-0.3-4.4-2.4-5.8l-2.5,0.5c-3.3,0.6-7.2,0.5-11.6-0.1L131.9,49l-0.4,2.4l0.3-0.1c0.5-0.1,1,0.2,1.5,0.8
		c0.5,0.6,0.8,1.4,1,2.3s0.1,1.8-0.1,2.6c-0.3,0.7-0.6,1.1-1.1,1.2c-0.5,0.1-1-0.2-1.5-0.8C131,56.8,130.6,56,130.5,55.1
		 M147.2,52.6c0.1-0.4,0.3-0.5,0.6-0.5c1,0.1,1.9,0.4,2.9,1l1.6,1.3l0.9,1.2c0,0.4-0.4,0.3-1.1-0.2l-2-1.2l-2.2-0.7
		C147.4,53.3,147.2,53,147.2,52.6 M151.7,57.6c0.2,0.5,0.1,0.8-0.3,0.9c-0.4,0.1-0.6,0-0.8-0.4l-1-0.8l-0.8-0.4
		c-0.4-0.1-0.5-0.3-0.4-0.7c0.1-0.4,0.3-0.5,0.7-0.5l1.4,0.6C151.1,56.7,151.5,57.1,151.7,57.6 M121.5,53.1l0,1.8l-1,8.4
		c-0.1,0.6,0.1,1.2,0.7,1.6l2.6,1.8l0.4,0.6l-0.4,0.6c-0.8,0.8-1.6,1-2.5,0.5l-3.2-2.5l-0.5-0.7c-0.1-0.3-0.1-0.6,0-0.8l2-6.4
		l0.6-4.6c0.1-0.7,0.3-1.1,0.6-1.1C121.2,52,121.4,52.3,121.5,53.1 M84.5,102.2c-0.6,1.6-0.2,3.1,1.3,4.5c2.2-3.4,6-7.8,11.3-13.2
		C93,95.3,88.8,98.2,84.5,102.2 M64.9,92.1c0.3,0.5,0.9,0.7,1.9,0.8l1.9-0.1c-0.8-0.9-1.4-2-1.7-3.4l-2.2,1.2
		C64.5,91.1,64.6,91.7,64.9,92.1 M69.9,92.4c2.2-0.5,4.5-1.3,7-2.4c0.6-0.6,1.3-1.1,2.2-1.6c-0.4-2.3-0.5-4.2-0.4-5.8l-10.9,6.1
		C68.2,90.6,68.9,91.8,69.9,92.4 M83.6,80.7c-0.7-0.5-1.3-0.7-1.8-0.6c-0.3,0.1-0.5,0.5-0.6,1c-0.6,2-0.5,4.6,0.2,7.8l-0.2,0.8
		l-0.6,0.4l-1.1,0.5c-0.8,0.4-1.3,0.9-1.6,1.5c-0.5,1-0.2,2.3,0.6,3.8c1,1.7,2.2,2.8,3.8,3.2l2.4,0.2c4.8-4.6,9.9-7.6,15.4-8.9
		c1.3-2.5,1.7-4.4,1.1-5.9c-0.1-0.3-0.1-0.6,0.1-0.9l1.3-2.8c0.8-2,0.8-3.6,0.1-4.6l-6.9,1.9c-0.4,0.2-0.8,0-1.1-0.4
		c-1.1-1.6-2.2-3-3.5-4.1c-1.5-1.4-2.7-1.8-3.5-1.4c-1,0.5-1.7,1.6-2.2,3.6c-0.4,1.4-0.6,2.7-0.6,4c0,0.4-0.2,0.7-0.5,0.9L83.6,80.7
		 M130.2,13.9c-2.2,0.9-3.7,2.1-4.4,3.5C126.7,16.9,128.2,15.7,130.2,13.9 M122,13.1c-1.6,0.4-2.8,0.9-3.5,1.6
		c-0.7,0.6-1.5,1.6-2.4,3.2c-2.5,4.4-4.2,9.4-5.2,15.2c-0.2,1,1.3,2.2,4.3,3.6c2.5,1.1,4.5,1.8,6,1.9c3.9,0.5,8.4-0.2,13.5-2
		l10.9-4.1c4.4-1.7,8.1-2.9,11.1-3.7c-0.2-1.8-0.8-3.6-1.9-5.5c-1.3-2.2-2.3-3.9-2.9-5.2c-1.4-2.9-2.7-5-3.9-6.3
		c-1.9-1.9-4.2-2.7-6.8-2.2l-2,0.5l-0.4,0.4l-2.6,1.3l-4.6,4.2c-2,1.6-4.6,3-8,4.1l-1.3,0.1c-0.6,0-0.9-0.2-0.8-0.6
		c0.4-2.5,1.8-4.3,4.2-5.5l7-2.4l0.4-0.3C129.3,11.6,125.6,12.2,122,13.1 M169.8,146.2l1.2-3.4c0.3-1.3,0.3-2.3-0.1-2.9
		c-0.3-0.5-0.9-0.8-1.6-0.8l-2.4-1.2c-0.8,2.2-2.5,4.7-5.2,7.4l1.4,3c0.3-0.5,0.7-0.8,1.2-0.9l1.3,0c0.4-0.7,0.9-1.2,1.5-1.4
		C167.8,145.7,168.7,145.8,169.8,146.2 M170.9,152.6c0.3-1.7,0.2-2.8-0.2-3.5l-0.4-0.4l-0.7-0.3c-0.8-0.6-1.5-0.8-1.9-0.6
		c-0.2,0.1-0.4,0.3-0.5,0.7c1.3,1.5,2,3.9,2,7.2l0.1-0.1C170.1,155.2,170.6,154.2,170.9,152.6 M174.2,30.2l-2.8,0.4L158,30.1
		c-2.4,0.6-7.6,2.6-15.9,5.8c-6.5,2.6-11.9,4.1-16.1,4.5c-5.1,0.5-9.2,0-12.5-1.5l-5.2-2.8c-3.2,3.4-6.1,6.7-8.6,10.1
		c-3.5,4.6-5.7,8.3-6.6,11.1l2.1-2C105.4,47.9,117,45,130,46.6l10.2,2c4.2,0.9,7.7,1.3,10.4,1.2c3.9,0,7.9-0.8,11.8-2.5
		c4-1.7,7.4-3.9,10.1-6.6c5.3-6.2,6.8-9.8,4.4-10.6C176.5,30,175.6,30,174.2,30.2z"/>
	<path class="st0" d="M62.1,54.2c0,3.3,0.8,7,2.3,11.1c1.4,3.7,2.2,6.6,2.3,8.4L65.2,77c-0.9,2.1-1.3,4.3-1.3,6.4
		c0,2.6,0.2,4.5,0.5,5.7l0.2,0.1l0.3-0.2c-0.3-1.4-0.5-3.3-0.5-5.5c0-2.8,0.7-5.5,2.2-8.1l0-0.1l-0.4,4.3c0,0.5,0.1,0.9,0.2,1
		l0.3-0.1l0.4-6.2c1-2,1.5-3.3,1.5-3.9l-0.2-0.3l-1.3,2.7l-0.6-3.4l-2.1-5.6c-0.9-2.6-1.4-4.3-1.6-5.2l-0.5-5.2
		C62.2,53.5,62.1,53.8,62.1,54.2z"/>
	<path class="st0" d="M64.4,63.8L64.4,63.8l2.1,5.7l0.6,3.3l0,0l0.1,0l1.3-2.6l0.2,0.2l0,0h-0.1c0,0.6-0.5,1.9-1.5,3.9l0,0l-0.4,6.2
		l-0.3,0.1l0,0l0,0c-0.1-0.1-0.2-0.4-0.2-1h0l0,0l0.4-4.3l0-0.1l-0.1,0l0,0.1l0,0l0,0c-1.4,2.6-2.2,5.3-2.2,8.1
		c0,2.2,0.2,4.1,0.5,5.5l0,0l0,0l-0.3,0.2l-0.2,0l0,0l0,0C64.2,88,64,86.1,64,83.4c0-2.2,0.4-4.3,1.3-6.4l0,0l0,0l1.4-3.2l0,0
		c-0.1-1.9-0.9-4.7-2.3-8.5c-1.5-4.1-2.3-7.8-2.3-11.1c0-0.5,0.1-0.8,0.2-0.9l0,0l0,0l0.5,5.2l0,0C63,59.5,63.5,61.2,64.4,63.8
		L64.4,63.8L64.4,63.8L64.4,63.8c-0.8-2.6-1.3-4.3-1.5-5.3l0,0l0,0l-0.5-5.2l0,0l-0.1,0c-0.2,0.2-0.3,0.5-0.3,1
		c0,3.3,0.8,7,2.3,11.1c1.4,3.7,2.2,6.5,2.3,8.4l0,0l0,0L65.2,77l0,0c-0.9,2.1-1.3,4.3-1.3,6.5c0,2.6,0.2,4.5,0.5,5.7l0,0l0.2,0.1
		l0,0L65,89l0-0.1c-0.3-1.4-0.5-3.3-0.5-5.5c0-2.8,0.7-5.5,2.1-8l0,0l0-0.1l0,0l0,0l-0.4,4.3l0,0c0,0.5,0.1,0.9,0.3,1l0,0l0.3-0.1
		l0,0l0.4-6.2l0,0l0,0c1-2,1.5-3.3,1.5-3.9l0,0l-0.2-0.3l0,0l0,0l-1.2,2.6l-0.6-3.2l0,0L64.4,63.8L64.4,63.8L64.4,63.8L64.4,63.8z"
		/>
</g>
</svg>
