<?xml version="1.0" encoding="utf-8"?>
<!-- Generator: Adobe Illustrator 25.4.1, SVG Export Plug-In . SVG Version: 6.00 Build 0)  -->
<svg version="1.1" id="MysteriousStranger_x2C_PerkClip_x5F_4c929" image-rendering="optimizeSpeed"
	 xmlns="http://www.w3.org/2000/svg" xmlns:xlink="http://www.w3.org/1999/xlink" x="0px" y="0px" viewBox="0 0 240 240"
	 style="enable-background:new 0 0 240 240;" xml:space="preserve">
<style type="text/css">
	.st0{fill:#FFFFFF;}
</style>
<g>
	<rect width="240" height="240"/>
	<path class="st0" d="M89.4,223.4c0.1,0.8,2.3,1.4,6.6,1.9c4.2,0.4,9.1,0.6,14.8,0.4c-2.4-0.4-4.3-1.3-5.8-2.6c-1-0.9-1.6-2-2-3.2
		l-7.9,1c-3,0.6-4.8,1.3-5.5,2.1C89.4,223.2,89.4,223.3,89.4,223.4 M114.6,212.5c-2.7-0.6-4.8-1.3-6.5-2c-1,0.4-2.1,0.3-3.2-0.1v8.4
		c0.1,1,0.6,1.9,1.6,2.8c1.8,1.6,4.5,2.4,8.2,2.4V212.5 M129.8,231.9c0.4-0.2,0.8-0.2,1.1,0.2l1.8,1.6l6.2-0.8l1.1-4.1
		c-7.1,1-13.1,1-17.8,0.1c-3-0.6-5.2-1.5-6.8-2.7l-2,0.9c-0.1,0.2-0.3,0.4-0.6,0.5c-2.4,0.8-4.7,1.7-6.8,2.7
		c-2.6,1.3-4.1,2.3-4.6,3.2l-0.1,0.4c0.6,1.1,4.6,1.5,11.8,1.2C120.7,234.7,126.2,233.6,129.8,231.9 M141.4,215.1l-14.6-0.6
		l-10.2-1.6v11.6c0.9,0.7,2.9,1.1,5.9,1.3c4.4,0.3,10.3-0.1,17.8-1.2c0.4-1.6,0.7-3.3,0.8-5.1L141.4,215.1 M106.8,138.9l-0.5,0
		c-1.2,14-2,25.8-2.5,35.4l-0.4,7.7c-0.5,7.4-0.7,12.8-0.7,16.2c0,5.6,0.6,8.9,1.7,9.9c0.9,0.5,1.8,0.7,2.7,0.6L106.8,138.9
		 M84.6,102.2c-0.6,1.6-0.2,3.1,1.3,4.5c2.2-3.4,6-7.8,11.3-13.2C93,95.3,88.8,98.2,84.6,102.2 M153.4,147.5l-3-16.3
		c-9.3,3-16.9,4.6-22.8,4.7c-4,0.1-6.9-0.4-8.8-1.6c-3.7,2.7-7,4.2-9.9,4.5l0.2,69.9c2.8,1.1,6.3,2,10.7,2.7
		c7.2,1.3,15.3,1.8,24,1.5l0.2-0.1l6.5,0c4.4-0.5,6.6-1.8,6.7-4.1c0.1-10.2-0.1-22-0.8-35.2C155.8,165.2,154.9,156.6,153.4,147.5
		 M67.9,88.8c0.4,1.8,1.1,3,2.1,3.7c2.2-0.5,4.5-1.3,7-2.4c0.6-0.6,1.3-1.1,2.2-1.6c-0.4-2.3-0.5-4.2-0.4-5.8L67.9,88.8 M66.8,92.8
		l1.9-0.1c-0.8-0.9-1.4-2-1.7-3.4l-2.2,1.2c-0.2,0.6-0.1,1.1,0.2,1.6C65.2,92.5,65.8,92.8,66.8,92.8 M118.8,82.7
		c-2.7-1.7-5.1-4-7.2-6.8l-1.7,2c-0.7,0.9-1.3,1.8-1.7,2.7c5.4,0.7,8.2,2.4,8.4,5.1c0.1,1.5-0.5,3.8-1.8,7l4.2-5.4L118.8,82.7
		 M91.4,73.8c-1.5-1.4-2.7-1.9-3.5-1.4c-1,0.5-1.7,1.7-2.2,3.6c-0.4,1.4-0.6,2.7-0.6,4c0,0.4-0.2,0.7-0.5,0.9l-1.1-0.1
		c-0.7-0.5-1.3-0.7-1.8-0.6c-0.3,0.1-0.5,0.5-0.7,1c-0.4,1.2-0.4,2.9-0.2,5l0.5,2.8l-0.2,0.8l-0.6,0.4l-1.1,0.5
		c-0.8,0.4-1.3,0.9-1.5,1.5c-0.5,1-0.3,2.3,0.6,3.8c1,1.7,2.2,2.8,3.8,3.2l2.4,0.2c4.8-4.6,9.9-7.6,15.5-8.9
		c1.3-2.5,1.7-4.4,1.1-5.9c-0.1-0.3-0.1-0.6,0.1-0.9l1.4-2.8c0.7-2,0.8-3.6,0-4.6L96,78.2c-0.4,0.2-0.8,0-1.1-0.4
		C93.8,76.2,92.7,74.9,91.4,73.8 M103,72.2c0-0.4-0.3-0.8-0.8-1.2c-0.6-0.5-1.8-0.4-3.4,0.4c-1.4,0.6-2.8,1.4-4.4,2.5l1.8,2.2
		l5.7-1.6C102.6,73.8,103,73,103,72.2 M105.2,52.9l-1-0.8l-2.5,1.4c-2,1.2-3.3,2.1-4,2.5c-1.6,1.2-2.7,2.4-3,3.6
		c-0.6,1.5,0,2,1.8,1.4l3.8-1.7c1.9-0.8,3.5-1.2,4.8-1.2L105.2,52.9 M121.3,47.6c-3,0-5.8,0.3-8.3,1.1c-2.2,0.7-4.2,1.4-5.9,2.2
		l-0.2,2.4c0.7-0.5,1.2-0.8,1.7-0.8c0.5,0,1.2,0.3,2.1,1.1l1.8,1.6c0.6,0.4,1.2,0.2,1.8-0.3c0.4,0.8-0.3,1.5-2.1,2.1
		c0.3,0.6,0.6,1.2,0.7,1.9c0.2,1,0.1,1.8-0.1,2.6s-0.6,1.1-1.2,1.2c-0.5,0.1-1-0.1-1.5-0.8c-0.5-0.6-0.8-1.4-0.9-2.3
		c-0.1-0.8-0.1-1.5,0-2.2c0.1-0.7,0.4-1.1,0.8-1.4l-1.1-1.6c-0.3-0.4-1-0.4-1.9-0.2l0.1,4c0.5,4.1,1.7,8.1,3.7,11.9
		c2,3.8,4.6,7,7.7,9.6l-0.7-2.8c-0.4-1.1-1-2.3-1.9-3.6l-1.7-2c-0.4-0.3-0.5-0.6-0.3-1.1c0.2-0.4,0.5-0.7,0.9-0.7l8.8-0.5
		c6.6-0.6,11.6-1.5,15.2-2.8c2.1-0.7,7.4-1.6,15.9-2.6l0.5-2l0.7-0.2c2.4-0.7,3.8-2.4,4.3-4.8c0.5-2.5-0.3-4.5-2.3-5.8l-2.6,0.5
		c-3.3,0.6-7.2,0.5-11.6-0.1L131.9,49l-0.4,2.4l0.3-0.1c0.5-0.1,1,0.2,1.4,0.8c0.5,0.6,0.8,1.4,1,2.3s0.1,1.8-0.1,2.6
		c-0.3,0.7-0.6,1.2-1.1,1.2c-0.5,0.1-1-0.2-1.5-0.8c-0.5-0.6-0.8-1.4-1-2.3c-0.1-0.7-0.1-1.4,0-1.9h-0.1l-2.7,0.2
		c-1.2-0.1-1.7-0.6-1.7-1.4c1,0.4,1.7,0.2,2.2-0.4l1.4-2.9L121.3,47.6 M119.7,57.9l0.6-4.6c0.1-0.7,0.3-1.1,0.6-1.1l0.4,0.2l0.2,0.7
		l0.1,1.8l-1,8.4c-0.1,0.7,0.2,1.2,0.7,1.6l2.7,1.8l0.3,0.6l-0.3,0.6l-0.8,0.5l-1.7,0l-3.3-2.5l-0.5-0.7c-0.1-0.3-0.1-0.6,0-0.8
		L119.7,57.9 M153.3,55.6c0,0.4-0.4,0.3-1.1-0.2l-2-1.2l-2.2-0.7c-0.5-0.2-0.7-0.4-0.6-0.8c0.1-0.4,0.3-0.5,0.6-0.5
		c1,0.1,1.9,0.4,2.9,1l1.6,1.3L153.3,55.6 M149.8,57.4l-0.9-0.4c-0.4-0.1-0.5-0.3-0.4-0.7c0.1-0.4,0.3-0.5,0.7-0.5l1.4,0.6
		c0.6,0.3,0.9,0.8,1.1,1.2c0.2,0.5,0.1,0.8-0.3,0.9c-0.4,0.1-0.6,0-0.8-0.4C150.6,57.9,150.3,57.6,149.8,57.4 M125.9,17.4
		c0.9-0.5,2.3-1.7,4.4-3.5C128.1,14.8,126.6,16,125.9,17.4 M152,18.1c-1.3-2.9-2.6-5-3.9-6.3c-1.9-1.9-4.2-2.7-6.8-2.2l-2,0.5
		l-0.4,0.4l-2.6,1.3l-4.6,4.2c-2,1.6-4.7,3-8,4.1l-1.2,0.1c-0.6,0-0.9-0.2-0.8-0.6c0.4-2.5,1.8-4.3,4.1-5.5l7-2.4l0.4-0.3
		c-3.7,0.3-7.4,0.9-11,1.8c-1.6,0.4-2.8,0.9-3.5,1.6c-0.7,0.6-1.5,1.6-2.4,3.2c-2.5,4.4-4.2,9.4-5.2,15.2c-0.2,1,1.3,2.2,4.3,3.6
		c2.5,1.1,4.6,1.8,6.1,1.9c3.9,0.5,8.4-0.2,13.4-2l10.9-4.1c4.4-1.7,8.1-2.9,11.1-3.7c-0.2-1.8-0.8-3.6-1.9-5.5
		C153.6,21.2,152.6,19.4,152,18.1 M163.9,180l0.5-2.1l-7.1-31.5c-0.3,0.8-0.6,1.6-0.6,2.2L163.9,180 M170.5,179.3
		c0-0.4-0.2-0.8-0.6-1.1l-1.5-0.3c-0.6,0.1-1.2,0.3-1.6,0.7s-0.7,0.8-0.7,1.2c0,0.4,0.2,0.8,0.6,1.1l1.6,0.2c0.6,0,1.1-0.2,1.6-0.6
		C170.2,180.1,170.5,179.7,170.5,179.3 M168.6,166.2c0-0.4,0.1-0.7,0.4-1l1.1-0.1l0.4,0.1l0.9-0.2c0.9-0.5,1.5-2.1,1.7-4.7
		c-1,1.2-1.9,2-2.8,2.2c-0.9,0.2-1.7,0.1-2.5-0.5c-1.9-1.4-2.7-4.9-2.4-10.2c-1.7-1-3.1-2.3-4.1-3.8c-1.3-1.6-1.8-3.1-1.6-4.4
		l0.2-0.9l-1.1,1.4l7.2,32.4l4.6-0.2L168.6,166.2 M167.6,157.3c0.3,1.6,0.8,2.6,1.4,3.1l0.8,0.2c1-0.3,1.9-1.4,2.9-3.5l-1.1-4.5
		l-4.2,0.2C167.3,154.5,167.4,156,167.6,157.3 M174.4,147.9c-0.3-0.2-0.5-0.3-0.6-0.2c-0.2,0.1-0.3,0.3-0.5,0.8
		c-0.1,0.5-0.2,0.9-0.2,1.4l1.9,8l0.8-0.3c0.7-0.4,1.1-1.4,1.4-2.9c-0.1-1.2-0.4-2.4-0.8-3.6C175.9,149.6,175.2,148.5,174.4,147.9
		 M176.4,145.9c-0.2,0.1-0.3,0.3-0.4,0.8c1.6,1.4,2.6,3.6,3,6.9l0.1-0.1c0.7-0.5,1-1.6,1.1-3.2c0.1-1.6-0.2-2.8-0.8-3.4l-0.4-0.3
		l-0.8-0.2v0.1C177.5,145.8,176.8,145.7,176.4,145.9 M170.1,148.1c-0.5-1.1-1.2-2.2-2.1-3.2c-0.4-0.5-0.4-0.9,0-1.3
		c1.1-1.4,2.1-2.9,3-4.5c1.2-2.3,1.6-4,1.3-5.2c-0.2-0.8-0.8-1.3-1.7-1.6c-2.4-0.9-5.3-0.1-8.8,2.4c-2.1,1.5-3.7,3-4.8,4.4l-0.9,1.4
		c-0.6,1.1-1,2.1-1.1,3.1l0.3,2c1-2.2,2.8-4.2,5.4-6.2c1.3-1,2.6-1.8,3.9-2.4c0.6-0.3,1-0.1,1.3,0.4l0.1,0.8l-0.4,0.6l-1.8,1.5
		c-1.2,1.3-1.9,2.5-2.2,3.8c-0.1,0.8,0.4,1.8,1.6,3.2c1.1,1.3,2.4,2.4,3.9,3.2c1.6,0.9,2.7,1.1,3.1,0.6
		C170.9,150.6,170.8,149.6,170.1,148.1 M170.1,144.2l1.8,2.8c0.3-0.5,0.6-0.8,1-1.1l1.4-0.2c0.2-0.7,0.6-1.2,1.2-1.6l2.8-0.1
		l0.8-3.6c0.1-1.3-0.1-2.3-0.4-2.9c-0.3-0.5-0.9-0.7-1.8-0.6l-1.1-0.4l-1.4-0.6C173.8,138.6,172.3,141.3,170.1,144.2 M163.2,131.5
		c3.1-1.6,5.8-2,8.1-1.1c1.3,0.5,2.2,1.3,2.7,2.4c-0.2-4.6-0.8-10.3-2-17c-1.6-9.1-3.7-15.7-6.1-19.8c-1,4.4-2.6,9.5-4.8,15.1
		c-1.8,4.7-3.7,8.8-5.7,12.6l1.6,12.4C159.1,134.2,161.2,132.6,163.2,131.5 M164.6,94.1c0.6-3.8,0.2-7.5-1.2-11.1l-2.3-4.2
		c-3.3-0.8-6.6-1-9.9-0.7l-10.6,2.2c-0.6,0.1-1-0.1-1.2-0.7c-0.2-0.6,0.1-1,0.7-1.2l10.8-2.4l6.6-0.4l2.7,0.5l8.4-12.2L156.8,65
		c-8.5,0.9-14.4,2-17.6,3.1c-3.7,1.3-7.6,2.4-11.6,3.4c-4.3,1.1-7.6,1.6-9.8,1.7c1.2,1.7,2,3.8,2.4,6.3l0.6,5.9
		c1.8-0.9,3.7-1.5,5.8-2c3.5-0.8,6.5-0.7,9,0.2c2.9,1.1,5,3.1,6.3,6.2c-2-1.1-3.4-1.9-3.9-2.4c-0.9-0.9-1.9-1.5-3-1.9
		c-2.2-0.8-5-0.8-8.2-0.1c-1.8,0.4-3.5,1-5.1,1.8l-9,11.4c1.2,3.4,2,6.4,2.4,9c0.6,3.8,0.3,6.2-0.9,6.9l-1.9,0.2
		c-0.9-0.4-1.5-1.7-1.9-3.8l-1.2,4.6c-0.1,0.6-0.5,0.8-1.1,0.7c-0.6-0.1-0.9-0.5-0.8-1.1l1.8-15.2c-1-1.5-2.2-2.8-3.8-3.9
		c-1.5-1.1-2.8-1.7-4-1.9c-2.3,1.7-4.4,3.4-6.2,5.1c-3.5,3.3-5.8,6.8-6.9,10.6c0.3,2.8,1.9,6.9,4.8,12.2c4.1,7.5,8.9,11.5,14.2,12.1
		c5.3,0.6,12.3-3.7,21.2-12.9c4.4-4.6,8.3-9.4,11.6-14.2l3.4-2.2c-1.5,2.8-3.3,5.8-5.4,9c-4.1,6.3-7.9,10.9-11.3,13.9l-5,4.3
		c5.2,0.4,11.1,0,17.6-1.2c6.6-1.2,10.7-2.6,12.3-4.3c1.4-1.4,3.6-5.5,6.6-12.2C161.5,106.5,163.7,99.8,164.6,94.1 M162.5,47.4
		c4-1.7,7.3-3.9,10.1-6.6c5.3-6.2,6.8-9.8,4.5-10.6c-0.5-0.2-1.4-0.2-2.8,0l-2.8,0.4l-13.5-0.4c-2.4,0.6-7.6,2.6-15.9,5.8
		c-6.5,2.6-11.9,4.1-16.1,4.5c-5.1,0.5-9.2,0-12.5-1.5l-5.2-2.8c-3.2,3.4-6.1,6.7-8.7,10.1c-3.5,4.6-5.7,8.3-6.6,11.1l2.1-2
		c10.3-7.5,21.9-10.4,34.9-8.8l10.2,2c4.2,0.9,7.7,1.3,10.3,1.2C154.6,49.8,158.6,49,162.5,47.4z"/>
	<path class="st0" d="M64.9,42.8c-0.1,0-0.2,0.1-0.4,0.1v5.1l-0.9,3.9c-0.3,1.7-0.4,3.1-0.4,4.2c0,1.3,0.2,2.9,0.8,4.8l2.1,8.4
		l-1.2,3.2c-1.6,3.9-2.4,6.8-2.4,8.8c0,0.8,0.1,1.2,0.4,1.4l0.2-0.1v-0.7c0-2.3,0.8-5.4,2.4-9.2l0.9-2.4l0.2,1.2
		c0.6,2.5,1,3.8,1.2,3.8l0.2,0v-0.1l-1.3-5.8c0.8-2.3,1.1-4.2,1.1-5.6c0-1.2-0.3-2.5-0.9-3.9c-0.7-1.6-1.6-2.7-2.7-3.4l2.1,3.9
		c0.7,1.4,1,2.5,1,3.5c0,1.2-0.3,2.8-0.9,4.7l-0.8-3.2c-1.2-5-1.8-8.1-1.8-9.2c0-1.4,0.2-3.1,0.6-5.2c0.4-2.1,0.6-3.8,0.6-5.3
		L64.9,42.8z"/>
	<path class="st0" d="M64.9,42.8L64.9,42.8l0.1,2.9l0,0h-0.1c0,1.5-0.2,3.2-0.6,5.3l0,0l0,0c-0.4,2.1-0.7,3.8-0.7,5.2
		c0,1.1,0.6,4.2,1.8,9.2l0.8,3.2l0,0l0,0c0.6-1.9,0.9-3.5,0.9-4.7c0-1-0.3-2.2-1-3.6l0,0l-2.1-3.9l0,0l0,0c1.1,0.7,2,1.9,2.6,3.4
		c0.6,1.4,0.9,2.7,0.9,3.9c0,1.4-0.4,3.3-1.1,5.6l0,0l1.3,5.7v0.1l-0.2,0l0,0v-0.1l0,0c-0.2-0.2-0.6-1.5-1.1-3.7l0,0l0,0l-0.2-1.2
		l0,0l-0.1,0l-0.9,2.4l0,0l0,0c-1.6,3.9-2.4,7-2.4,9.3v0.7l-0.2,0l0,0l0,0c-0.2-0.1-0.4-0.5-0.4-1.3c0-2,0.8-5,2.4-8.8l0,0l1.2-3.2
		l0,0L64,60.9l0,0c-0.5-1.9-0.7-3.5-0.7-4.8c0-1.1,0.1-2.5,0.4-4.2l0,0l0,0l0.9-3.9l0,0v-5.1h0l0,0C64.7,42.9,64.8,42.8,64.9,42.8
		L64.9,42.8L64.9,42.8L64.9,42.8L64.9,42.8c-0.1,0-0.3,0-0.4,0.1l0,0V48l-0.8,3.9l0,0c-0.3,1.7-0.4,3.1-0.4,4.2
		c0,1.3,0.3,2.9,0.8,4.8l0,0l0,0l2,8.4l-1.2,3.2l0,0l0,0c-1.6,3.9-2.5,6.8-2.5,8.9c0,0.8,0.1,1.2,0.4,1.4l0,0l0.2-0.1l0,0v-0.7
		c0-2.3,0.8-5.4,2.4-9.2l0,0l0.9-2.2l0.2,1.1l0,0c0.3,1.3,0.6,2.2,0.8,2.8c0.1,0.3,0.2,0.5,0.3,0.7c0.1,0.2,0.1,0.3,0.2,0.3l0,0
		l0.2,0l0,0v-0.1l0,0l-1.3-5.8l0,0l0,0c0.8-2.3,1.2-4.2,1.2-5.7c0-1.2-0.3-2.5-0.9-3.9c-0.7-1.6-1.6-2.7-2.7-3.5l-0.1,0l0,0.1
		l2.1,3.9l0,0l0,0c0.7,1.4,1,2.5,1,3.5c0,1.2-0.3,2.7-0.9,4.6l0,0l0,0l-0.8-3.2c-1.2-5-1.8-8.1-1.8-9.2c0-1.4,0.2-3.1,0.6-5.2l0,0
		c0.4-2.1,0.6-3.8,0.6-5.3l0,0L64.9,42.8L64.9,42.8L64.9,42.8z"/>
</g>
</svg>
